<svg width="126" height="32" viewBox="0 0 126 32" fill="none" xmlns="http://www.w3.org/2000/svg">
<path d="M45.454 10.9512H41.7618V13.7029H44.9762V15.1001H41.7618V17.9943H45.7146V19.4058H39.8506V9.55404H45.6567L45.454 10.9512Z" fill="#3B3C52"/>
<path d="M46.8258 14.2161H51.1985V15.6704H46.8258V14.2161Z" fill="#3B3C52"/>
<path d="M52.8675 8.84118L54.7209 8.61307V15.984C54.7209 16.7444 54.8367 17.3147 55.0684 17.6949C55.3097 18.0751 55.7006 18.2652 56.2412 18.2652C56.7238 18.2652 57.0906 18.0941 57.3416 17.7519C57.6022 17.4098 57.7325 16.925 57.7325 16.2977C57.7325 15.8225 57.6698 15.4185 57.5443 15.0858C57.4188 14.7437 57.2306 14.3682 56.9796 13.9595C56.748 13.5508 56.5742 13.2039 56.4584 12.9187C56.3425 12.6241 56.2846 12.2724 56.2846 11.8637H58.1235C58.1331 12.1584 58.191 12.4245 58.2972 12.6621C58.4034 12.8997 58.5578 13.1896 58.7606 13.5318C59.0405 14.007 59.2528 14.4443 59.3976 14.8435C59.5521 15.2332 59.6293 15.7179 59.6293 16.2977C59.6293 16.944 59.499 17.5191 59.2384 18.0228C58.9777 18.5266 58.5916 18.921 58.08 19.2062C57.5684 19.4913 56.9507 19.6339 56.2267 19.6339C55.1263 19.6339 54.2913 19.3297 53.7218 18.7214C53.1523 18.1036 52.8675 17.1959 52.8675 15.9983V8.84118Z" fill="#3B3C52"/>
<path d="M60.9642 17.1674C60.9642 15.6276 61.2972 14.3967 61.9633 13.4748C62.639 12.5528 63.5753 11.992 64.7722 11.7924C64.7046 11.2982 64.6709 10.7516 64.6709 10.1528H66.4228C66.4325 10.6471 66.3987 11.1936 66.3215 11.7924C67.5281 11.973 68.4644 12.5195 69.1304 13.432C69.8061 14.3445 70.144 15.5848 70.144 17.1531C70.144 18.2842 69.9557 19.2537 69.5793 20.0616C69.2125 20.8695 68.6816 21.4826 67.9866 21.9008C67.3012 22.3285 66.4904 22.5423 65.5541 22.5423C64.6178 22.5423 63.8021 22.3332 63.1071 21.915C62.4218 21.4968 61.8909 20.8838 61.5144 20.0758C61.1476 19.2774 60.9642 18.308 60.9642 17.1674ZM62.9044 17.1674C62.9044 18.5551 63.1361 19.5673 63.5994 20.2042C64.0724 20.8505 64.724 21.1736 65.5541 21.1736C66.4132 21.1736 67.0696 20.8552 67.5233 20.2184C67.9866 19.5816 68.2182 18.5598 68.2182 17.1531C68.2182 15.9175 68.059 14.986 67.7404 14.3587C67.4219 13.7314 66.9393 13.3084 66.2925 13.0898C66.3794 13.4225 66.4228 13.7837 66.4228 14.1734V16.9108L64.6709 17.1104V14.2161C64.6709 13.8455 64.7143 13.4748 64.8012 13.1041C64.1641 13.3227 63.6863 13.7457 63.3677 14.373C63.0589 15.0003 62.9044 15.9318 62.9044 17.1674Z" fill="#3B3C52"/>
<path d="M72.4381 19.4058C72.1678 18.7689 71.9507 18.1179 71.7866 17.4525C71.6321 16.7872 71.5549 16.0648 71.5549 15.2854C71.5549 14.0593 71.8107 13.1469 72.3223 12.5481C72.8435 11.9492 73.5144 11.6498 74.3349 11.6498C74.9334 11.6498 75.4063 11.7877 75.7538 12.0633C76.111 12.3294 76.362 12.7429 76.5068 13.3037C76.6226 12.7619 76.8591 12.3532 77.2162 12.0776C77.583 11.7924 78.0512 11.6498 78.6207 11.6498C79.4508 11.6498 80.1265 11.954 80.6478 12.5623C81.169 13.1706 81.4297 14.0783 81.4297 15.2854C81.4297 16.0648 81.3476 16.7919 81.1835 17.4668C81.0291 18.1321 80.8215 18.7784 80.5609 19.4058H78.751C79.0309 18.6169 79.2385 17.9088 79.3736 17.2814C79.5088 16.6446 79.5763 16.003 79.5763 15.3567C79.5763 13.8074 79.1709 13.0328 78.3601 13.0328C77.7037 13.0328 77.3755 13.4985 77.3755 14.43V16.9108L75.638 17.1104V14.43C75.638 13.8977 75.5511 13.5318 75.3774 13.3322C75.2133 13.1326 74.9671 13.0328 74.6389 13.0328C74.2432 13.0328 73.9439 13.2181 73.7412 13.5888C73.5385 13.9595 73.4372 14.5441 73.4372 15.3425C73.4372 15.9983 73.4999 16.6446 73.6254 17.2814C73.7605 17.9183 73.9633 18.6264 74.2335 19.4058H72.4381Z" fill="#3B3C52"/>
<path d="M83.7361 19.4058C83.4562 18.7784 83.2342 18.1226 83.0701 17.4383C82.9157 16.7444 82.8384 15.9508 82.8384 15.0573C82.8384 13.4985 83.0894 12.2867 83.5914 11.4217C84.1029 10.5473 84.9283 9.93899 86.0673 9.59681C86.4727 9.47325 86.9939 9.34969 87.631 9.22613C88.1233 9.13108 88.5239 9.04554 88.8328 8.9695C89.1417 8.88395 89.412 8.77465 89.6436 8.64158L90.3531 9.85344C90.0539 10.0435 89.7208 10.1909 89.354 10.2954C88.9872 10.4 88.5191 10.5093 87.9496 10.6233C87.853 10.6423 87.6745 10.6804 87.4138 10.7374C87.1629 10.7849 86.936 10.8372 86.7333 10.8942C86.1928 11.0178 85.7294 11.2126 85.3433 11.4788C84.9572 11.7354 84.6773 12.1061 84.5035 12.5908C84.7062 12.3152 84.9186 12.1251 85.1406 12.0205C85.3723 11.916 85.6329 11.8637 85.9225 11.8637C86.3762 11.8637 86.7623 12.0015 87.0808 12.2772C87.3994 12.5528 87.6214 12.971 87.7469 13.5318C87.9978 12.4197 88.7073 11.8637 89.8753 11.8637C90.6861 11.8637 91.3473 12.1536 91.8589 12.7334C92.3802 13.3037 92.6408 14.1258 92.6408 15.1999C92.6408 16.0648 92.5588 16.8252 92.3947 17.481C92.2402 18.1274 92.0182 18.7689 91.7286 19.4058H89.9911C90.2711 18.6074 90.4738 17.904 90.5992 17.2957C90.7344 16.6779 90.802 15.9983 90.802 15.2569C90.802 14.5441 90.6909 14.0308 90.4689 13.7171C90.2566 13.4035 89.9766 13.2467 89.6291 13.2467C89.3009 13.2467 89.05 13.356 88.8762 13.5746C88.7025 13.7932 88.6156 14.1496 88.6156 14.6439V16.9108L86.8781 17.1104V14.6439C86.8781 14.1211 86.7912 13.7599 86.6175 13.5603C86.4437 13.3512 86.2024 13.2467 85.8935 13.2467C85.4881 13.2467 85.1841 13.4225 84.9813 13.7742C84.7786 14.1258 84.6773 14.6819 84.6773 15.4423C84.6773 16.0981 84.74 16.7302 84.8655 17.3385C84.991 17.9373 85.1937 18.6264 85.4736 19.4058H83.7361Z" fill="#3B3C52"/>
<path d="M94.0371 15.3139C94.0371 14.1924 94.3412 13.3037 94.9493 12.6479C95.5574 11.9825 96.3827 11.6498 97.4252 11.6498C98.4774 11.6498 99.3027 11.973 99.9012 12.6193C100.5 13.2657 100.799 14.1639 100.799 15.3139C100.799 16.6636 100.504 18.0276 99.9157 19.4058H98.1202C98.3809 18.6644 98.5788 17.9658 98.7139 17.31C98.849 16.6446 98.9166 15.9793 98.9166 15.3139C98.9166 13.7932 98.4195 13.0328 97.4252 13.0328C96.9426 13.0328 96.571 13.2181 96.3104 13.5888C96.0497 13.9595 95.9194 14.5346 95.9194 15.3139C95.9194 15.9793 95.987 16.6399 96.1221 17.2957C96.2669 17.9515 96.4696 18.6549 96.7303 19.4058H94.9348C94.6646 18.7689 94.4474 18.1179 94.2833 17.4525C94.1192 16.7872 94.0371 16.0743 94.0371 15.3139Z" fill="#3B3C52"/>
<path d="M105.424 11.6498C106.361 11.6498 107.114 11.916 107.683 12.4483C108.253 12.9805 108.537 13.6981 108.537 14.6011V19.3202C108.537 19.9475 108.407 20.5036 108.146 20.9883C107.895 21.4731 107.524 21.8532 107.031 22.1289C106.549 22.4045 105.97 22.5423 105.294 22.5423C104.599 22.5423 104.005 22.4093 103.513 22.1431C103.03 21.877 102.668 21.5158 102.427 21.0596C102.186 20.6129 102.065 20.1091 102.065 19.5483C102.065 18.8735 102.224 18.2414 102.543 17.6521L104.165 18.0513C104.001 18.5361 103.918 19.0351 103.918 19.5483C103.918 20.0426 104.034 20.4323 104.266 20.7174C104.507 21.0121 104.85 21.1594 105.294 21.1594C106.221 21.1594 106.684 20.5416 106.684 19.306V14.5868C106.684 14.1021 106.578 13.7219 106.365 13.4463C106.163 13.1706 105.844 13.0328 105.41 13.0328C104.975 13.0328 104.652 13.1564 104.44 13.4035C104.227 13.6411 104.121 13.9405 104.121 14.3017C104.121 14.6534 104.179 15.0193 104.295 15.3995L102.601 15.6989C102.379 15.2141 102.268 14.7532 102.268 14.3159C102.268 13.7932 102.403 13.3322 102.673 12.933C102.944 12.5243 103.315 12.2106 103.788 11.992C104.271 11.7639 104.816 11.6498 105.424 11.6498Z" fill="#3B3C52"/>
<path d="M114.631 11.7354C115.471 11.916 116.122 12.3437 116.586 13.0185C117.049 13.6934 117.281 14.5631 117.281 15.6276C117.281 16.426 117.136 17.1294 116.846 17.7377C116.566 18.3365 116.151 18.8022 115.601 19.1349C115.06 19.458 114.418 19.6196 113.675 19.6196C112.546 19.6196 111.663 19.2679 111.026 18.5646C110.388 17.8517 110.07 16.8727 110.07 15.6276C110.07 14.5726 110.321 13.6934 110.823 12.99C111.334 12.2867 112.044 11.859 112.951 11.7069C112.99 11.5928 113.009 11.4217 113.009 11.1936C113.009 11.0225 112.966 10.88 112.879 10.7659C112.802 10.6423 112.676 10.495 112.502 10.3239C112.261 10.0958 112.078 9.87721 111.952 9.6681C111.827 9.45899 111.764 9.18335 111.764 8.84118L113.545 8.65584C113.555 8.87445 113.608 9.05979 113.704 9.21187C113.801 9.36395 113.946 9.53503 114.139 9.72513C114.361 9.96275 114.525 10.1719 114.631 10.3524C114.737 10.533 114.79 10.7612 114.79 11.0368C114.79 11.2554 114.737 11.4883 114.631 11.7354ZM113.675 18.2367C114.225 18.2367 114.636 18.0228 114.906 17.5951C115.186 17.1674 115.326 16.5115 115.326 15.6276C115.326 14.7246 115.186 14.0641 114.906 13.6459C114.636 13.2181 114.23 13.0043 113.69 13.0043C112.58 13.0043 112.025 13.8787 112.025 15.6276C112.025 16.5211 112.16 17.1816 112.43 17.6094C112.71 18.0276 113.125 18.2367 113.675 18.2367Z" fill="#3B3C52"/>
<path d="M118.598 15.3139C118.598 14.1924 118.902 13.3037 119.51 12.6479C120.118 11.9825 120.944 11.6498 121.986 11.6498C123.038 11.6498 123.863 11.973 124.462 12.6193C125.06 13.2657 125.36 14.1639 125.36 15.3139C125.36 16.6636 125.065 18.0276 124.476 19.4058H122.681C122.942 18.6644 123.14 17.9658 123.275 17.31C123.41 16.6446 123.477 15.9793 123.477 15.3139C123.477 13.7932 122.98 13.0328 121.986 13.0328C121.503 13.0328 121.132 13.2181 120.871 13.5888C120.611 13.9595 120.48 14.5346 120.48 15.3139C120.48 15.9793 120.548 16.6399 120.683 17.2957C120.828 17.9515 121.03 18.6549 121.291 19.4058H119.496C119.225 18.7689 119.008 18.1179 118.844 17.4525C118.68 16.7872 118.598 16.0743 118.598 15.3139Z" fill="#3B3C52"/>
<path d="M11.3117 31.9211C10.539 32.5626 4.66038 29.2506 1.82711 23.5217C1.115 22.1044 -1.67281 15.928 1.44833 9.25923C1.81196 8.45361 4.78158 2.3816 11.8875 0.486897C12.2966 0.382465 21.6903 -1.95981 27.5841 4.64928C27.9326 5.05209 32.7203 10.4826 30.9174 17.0767C30.7204 17.8227 29.3719 22.4774 25.2811 24.4019C22.3266 25.7894 19.1903 25.5358 19.1903 25.5358C17.857 25.4314 16.7965 25.1031 15.0238 25.4164C13.9632 25.6104 12.8269 25.8192 12.0693 26.7442C11.3269 27.6543 11.2814 28.8329 11.236 29.7728C11.1754 31.2497 11.539 31.7122 11.3117 31.9211Z" fill="#3B3C52"/>
<path d="M20.1561 8.75873C20.2484 8.39695 20.3222 7.54679 20.2115 7.60106C18.606 8.36078 17.0559 9.22903 15.5611 10.1877C15.3951 10.2963 14.3063 12.2679 14.214 12.6839C13.7896 12.5392 14.011 11.5082 14.011 11.5082C11.5936 13.3894 9.58215 17.3327 8.91782 18.7617C8.75174 19.1054 7.95823 21.2579 8.10586 22.6327C8.10586 22.6327 8.95473 20.4982 9.67442 19.3044C10.2465 18.2914 10.8924 17.2965 11.5751 16.3378C12.2948 15.3791 13.1253 14.5109 14.0295 13.7331C14.4908 13.3532 14.9522 12.9734 15.432 12.6297L16.8713 11.5986C17.8125 10.9113 18.7721 10.2239 19.6763 9.48227C18.8643 10.3143 17.997 11.1283 17.1112 11.888C16.6684 12.2679 16.2255 12.6659 15.7826 13.0457C15.3397 13.4256 14.9153 13.8054 14.5093 14.2034C14.1033 14.6013 13.7158 15.0355 13.3652 15.4696C12.9961 15.9037 12.6455 16.3559 12.3317 16.8262C12.018 17.2965 11.6859 17.7668 11.3906 18.2552C11.3168 18.3638 11.2614 18.4904 11.1876 18.5989C12.7562 17.9658 14.9337 17.1699 16.8529 15.9942C17.0374 15.8856 15.6903 15.9037 14.8414 15.3068C15.8933 15.3972 18.7536 14.5652 18.9751 14.33C19.8055 13.5341 20.3775 12.5212 21.0603 11.2188C21.0603 11.2188 19.5656 10.7666 18.9197 11.056C19.2519 10.6038 21.4294 10.0792 21.5032 9.86213C21.9461 8.74064 22.2783 7.56488 22.4813 6.37103C21.983 6.69663 21.4663 6.98604 20.9312 7.2212C20.7651 7.32973 20.5067 8.46931 20.1561 8.75873Z" fill="white"/>
</svg>
