<svg width="155" height="41" viewBox="0 0 155 41" fill="none" xmlns="http://www.w3.org/2000/svg">
<path d="M56.201 13.7512H51.6359V17.2064H55.6102V18.9609H51.6359V22.5951H56.5233V24.3675H49.2727V11.9968H56.4517L56.201 13.7512Z" fill="#08092B"/>
<path d="M57.8972 17.8509H63.3038V19.677H57.8972V17.8509Z" fill="#08092B"/>
<path d="M65.3675 11.1016L67.659 10.8152V20.0709C67.659 21.0257 67.8022 21.7418 68.0887 22.2192C68.3871 22.6966 68.8704 22.9353 69.5388 22.9353C70.1356 22.9353 70.5891 22.7205 70.8994 22.2908C71.2217 21.8611 71.3828 21.2524 71.3828 20.4647C71.3828 19.868 71.3052 19.3607 71.15 18.943C70.9949 18.5133 70.7621 18.0419 70.4518 17.5287C70.1654 17.0155 69.9506 16.5798 69.8073 16.2218C69.6641 15.8518 69.5925 15.4102 69.5925 14.897H71.8661C71.8781 15.267 71.9497 15.6012 72.081 15.8995C72.2123 16.1979 72.4032 16.5619 72.6539 16.9916C73 17.5884 73.2626 18.1374 73.4416 18.6386C73.6325 19.128 73.728 19.7367 73.728 20.4647C73.728 21.2763 73.5669 21.9984 73.2447 22.6309C72.9224 23.2635 72.445 23.7588 71.8124 24.1169C71.1799 24.4749 70.416 24.6539 69.5209 24.6539C68.1603 24.6539 67.1279 24.272 66.4237 23.5082C65.7196 22.7324 65.3675 21.5926 65.3675 20.0888V11.1016Z" fill="#08092B"/>
<path d="M75.3786 21.5568C75.3786 19.6233 75.7903 18.0777 76.6138 16.92C77.4493 15.7623 78.607 15.0581 80.087 14.8075C80.0034 14.1869 79.9616 13.5006 79.9616 12.7487H82.1279C82.1398 13.3693 82.098 14.0556 82.0026 14.8075C83.4944 15.0342 84.6521 15.7205 85.4757 16.8663C86.3111 18.0121 86.7289 19.5696 86.7289 21.5389C86.7289 22.9592 86.4961 24.1765 86.0307 25.191C85.5771 26.2055 84.9207 26.9753 84.0614 27.5005C83.214 28.0375 82.2114 28.3061 81.0537 28.3061C79.896 28.3061 78.8875 28.0435 78.0282 27.5184C77.1808 26.9932 76.5243 26.2234 76.0589 25.2089C75.6053 24.2064 75.3786 22.989 75.3786 21.5568ZM77.7775 21.5568C77.7775 23.2993 78.064 24.5704 78.6369 25.3701C79.2217 26.1816 80.0273 26.5874 81.0537 26.5874C82.1159 26.5874 82.9275 26.1876 83.4885 25.388C84.0614 24.5883 84.3478 23.3053 84.3478 21.5389C84.3478 19.9873 84.1509 18.8177 83.757 18.03C83.3632 17.2422 82.7664 16.7111 81.9667 16.4366C82.0742 16.8544 82.1279 17.3079 82.1279 17.7972V21.2345L79.9616 21.4852V17.8509C79.9616 17.3855 80.0154 16.92 80.1228 16.4545C79.3351 16.729 78.7443 17.2601 78.3504 18.0479C77.9685 18.8356 77.7775 20.0052 77.7775 21.5568Z" fill="#08092B"/>
<path d="M89.5654 24.3675C89.2313 23.5678 88.9627 22.7503 88.7598 21.9148C88.5689 21.0794 88.4734 20.1723 88.4734 19.1936C88.4734 17.654 88.7897 16.5082 89.4222 15.7563C90.0667 15.0044 90.8962 14.6285 91.9107 14.6285C92.6507 14.6285 93.2355 14.8015 93.6652 15.1476C94.1068 15.4818 94.4171 16.001 94.5961 16.7052C94.7393 16.0249 95.0317 15.5117 95.4733 15.1655C95.9269 14.8075 96.5057 14.6285 97.2099 14.6285C98.2363 14.6285 99.0718 15.0104 99.7163 15.7742C100.361 16.5381 100.683 17.6779 100.683 19.1936C100.683 20.1723 100.582 21.0853 100.379 21.9327C100.188 22.7682 99.9311 23.5798 99.6088 24.3675H97.371C97.7171 23.3769 97.9737 22.4877 98.1408 21.7C98.3079 20.9004 98.3915 20.0947 98.3915 19.2831C98.3915 17.3377 97.8902 16.365 96.8876 16.365C96.076 16.365 95.6703 16.9498 95.6703 18.1195V21.2345L93.5219 21.4852V18.1195C93.5219 17.4511 93.4145 16.9916 93.1997 16.741C92.9968 16.4903 92.6924 16.365 92.2867 16.365C91.7973 16.365 91.4273 16.5977 91.1767 17.0632C90.926 17.5287 90.8007 18.2627 90.8007 19.2652C90.8007 20.0888 90.8783 20.9004 91.0335 21.7C91.2006 22.4997 91.4512 23.3888 91.7854 24.3675H89.5654Z" fill="#08092B"/>
<path d="M103.535 24.3675C103.189 23.5798 102.914 22.7563 102.711 21.8969C102.52 21.0257 102.425 20.0291 102.425 18.9072C102.425 16.9498 102.735 15.4281 103.356 14.342C103.988 13.244 105.009 12.4801 106.417 12.0505C106.918 11.8953 107.563 11.7402 108.351 11.585C108.959 11.4656 109.455 11.3582 109.837 11.2628C110.219 11.1553 110.553 11.0181 110.839 10.851L111.716 12.3727C111.346 12.6114 110.935 12.7964 110.481 12.9277C110.028 13.059 109.449 13.1962 108.745 13.3395C108.625 13.3633 108.404 13.4111 108.082 13.4827C107.772 13.5424 107.491 13.608 107.241 13.6796C106.572 13.8348 105.999 14.0794 105.522 14.4136C105.045 14.7359 104.699 15.2013 104.484 15.81C104.734 15.4639 104.997 15.2252 105.271 15.0939C105.558 14.9626 105.88 14.897 106.238 14.897C106.799 14.897 107.276 15.0701 107.67 15.4162C108.064 15.7623 108.339 16.2874 108.494 16.9916C108.804 15.5952 109.681 14.897 111.126 14.897C112.128 14.897 112.946 15.261 113.578 15.9891C114.223 16.7052 114.545 17.7375 114.545 19.0862C114.545 20.1723 114.444 21.1271 114.241 21.9506C114.05 22.7622 113.775 23.5678 113.417 24.3675H111.269C111.615 23.365 111.866 22.4818 112.021 21.7179C112.188 20.9421 112.271 20.0888 112.271 19.1578C112.271 18.2627 112.134 17.6182 111.86 17.2243C111.597 16.8305 111.251 16.6336 110.821 16.6336C110.415 16.6336 110.105 16.7708 109.89 17.0453C109.675 17.3198 109.568 17.7674 109.568 18.388V21.2345L107.42 21.4852V18.388C107.42 17.7316 107.312 17.278 107.097 17.0274C106.883 16.7648 106.584 16.6336 106.202 16.6336C105.701 16.6336 105.325 16.8544 105.074 17.2959C104.824 17.7375 104.699 18.4358 104.699 19.3906C104.699 20.2141 104.776 21.0078 104.931 21.7716C105.086 22.5235 105.337 23.3888 105.683 24.3675H103.535Z" fill="#08092B"/>
<path d="M116.271 19.2294C116.271 17.8211 116.647 16.7052 117.399 15.8816C118.151 15.0462 119.172 14.6285 120.461 14.6285C121.762 14.6285 122.782 15.0342 123.522 15.8458C124.262 16.6574 124.632 17.7853 124.632 19.2294C124.632 20.9242 124.268 22.6369 123.54 24.3675H121.32C121.642 23.4366 121.887 22.5593 122.054 21.7358C122.221 20.9004 122.305 20.0649 122.305 19.2294C122.305 17.3198 121.69 16.365 120.461 16.365C119.864 16.365 119.404 16.5977 119.082 17.0632C118.76 17.5287 118.599 18.2508 118.599 19.2294C118.599 20.0649 118.682 20.8944 118.849 21.7179C119.028 22.5414 119.279 23.4246 119.601 24.3675H117.381C117.047 23.5678 116.779 22.7503 116.576 21.9148C116.373 21.0794 116.271 20.1842 116.271 19.2294Z" fill="#08092B"/>
<path d="M130.351 14.6285C131.509 14.6285 132.44 14.9626 133.144 15.631C133.848 16.2994 134.2 17.2005 134.2 18.3343V24.2601C134.2 25.0478 134.039 25.746 133.717 26.3547C133.406 26.9634 132.947 27.4408 132.338 27.7869C131.742 28.133 131.025 28.3061 130.19 28.3061C129.331 28.3061 128.597 28.139 127.988 27.8048C127.391 27.4706 126.944 27.0171 126.645 26.4442C126.347 25.8833 126.198 25.2507 126.198 24.5465C126.198 23.6991 126.395 22.9055 126.788 22.1655L128.794 22.6667C128.591 23.2754 128.489 23.902 128.489 24.5465C128.489 25.1672 128.632 25.6565 128.919 26.0145C129.217 26.3845 129.641 26.5695 130.19 26.5695C131.336 26.5695 131.909 25.7937 131.909 24.2422V18.3164C131.909 17.7077 131.777 17.2303 131.515 16.8842C131.264 16.5381 130.87 16.365 130.333 16.365C129.796 16.365 129.396 16.5202 129.134 16.8305C128.871 17.1289 128.74 17.5048 128.74 17.9583C128.74 18.3999 128.811 18.8594 128.955 19.3369L126.86 19.7128C126.586 19.1041 126.448 18.5253 126.448 17.9763C126.448 17.3198 126.615 16.741 126.95 16.2397C127.284 15.7265 127.743 15.3326 128.328 15.0581C128.925 14.7717 129.599 14.6285 130.351 14.6285Z" fill="#08092B"/>
<path d="M141.735 14.7359C142.773 14.9626 143.578 15.4997 144.151 16.3471C144.724 17.1945 145.011 18.2866 145.011 19.6233C145.011 20.6258 144.832 21.509 144.474 22.2729C144.127 23.0248 143.614 23.6096 142.934 24.0274C142.266 24.4331 141.472 24.636 140.553 24.636C139.157 24.636 138.064 24.1944 137.277 23.3112C136.489 22.4161 136.095 21.1868 136.095 19.6233C136.095 18.2985 136.405 17.1945 137.026 16.3113C137.659 15.4281 138.536 14.891 139.658 14.7001C139.706 14.5568 139.729 14.342 139.729 14.0556C139.729 13.8407 139.676 13.6617 139.568 13.5185C139.473 13.3633 139.318 13.1783 139.103 12.9635C138.804 12.6771 138.578 12.4026 138.423 12.14C138.267 11.8774 138.19 11.5313 138.19 11.1016L140.392 10.8689C140.404 11.1434 140.469 11.3761 140.589 11.5671C140.708 11.7581 140.887 11.9729 141.126 12.2116C141.4 12.51 141.603 12.7725 141.735 12.9993C141.866 13.2261 141.931 13.5125 141.931 13.8586C141.931 14.1331 141.866 14.4256 141.735 14.7359ZM140.553 22.8995C141.233 22.8995 141.74 22.6309 142.075 22.0939C142.421 21.5568 142.594 20.7333 142.594 19.6233C142.594 18.4895 142.421 17.66 142.075 17.1348C141.74 16.5977 141.239 16.3292 140.571 16.3292C139.198 16.3292 138.512 17.4272 138.512 19.6233C138.512 20.7452 138.679 21.5747 139.013 22.1118C139.359 22.6369 139.873 22.8995 140.553 22.8995Z" fill="#08092B"/>
<path d="M146.64 19.2294C146.64 17.8211 147.016 16.7052 147.767 15.8816C148.519 15.0462 149.54 14.6285 150.829 14.6285C152.13 14.6285 153.15 15.0342 153.89 15.8458C154.63 16.6574 155 17.7853 155 19.2294C155 20.9242 154.636 22.6369 153.908 24.3675H151.688C152.01 23.4366 152.255 22.5593 152.422 21.7358C152.589 20.9004 152.673 20.0649 152.673 19.2294C152.673 17.3198 152.058 16.365 150.829 16.365C150.232 16.365 149.773 16.5977 149.45 17.0632C149.128 17.5287 148.967 18.2508 148.967 19.2294C148.967 20.0649 149.05 20.8944 149.218 21.7179C149.397 22.5414 149.647 23.4246 149.969 24.3675H147.75C147.415 23.5678 147.147 22.7503 146.944 21.9148C146.741 21.0794 146.64 20.1842 146.64 19.2294Z" fill="#08092B"/>
<path d="M13.9864 40.0831C13.0309 40.8887 5.7623 36.7298 2.25912 29.5361C1.37864 27.7564 -2.06834 20.0007 1.79078 11.6268C2.24039 10.6151 5.91217 2.99056 14.6982 0.611394C15.204 0.480259 26.8189 -2.46092 34.1063 5.83807C34.5371 6.34388 40.457 13.1629 38.2277 21.4432C37.9841 22.3799 36.3168 28.2247 31.2587 30.6414C27.6057 32.3836 23.7278 32.0651 23.7278 32.0651C22.0793 31.934 20.7679 31.5219 18.5761 31.9153C17.2647 32.1588 15.8597 32.4211 14.923 33.5826C14.0051 34.7253 13.9489 36.2053 13.8927 37.3855C13.8178 39.2401 14.2674 39.8208 13.9864 40.0831Z" fill="#7541EE"/>
<path d="M24.922 10.9982C25.0361 10.5439 25.1273 9.47639 24.9904 9.54453C23.0054 10.4985 21.0887 11.5888 19.2406 12.7926C19.0352 12.9289 17.689 15.4047 17.5749 15.9271C17.0501 15.7454 17.3239 14.4507 17.3239 14.4507C14.3349 16.8129 11.8479 21.7645 11.0265 23.5589C10.8211 23.9905 9.83998 26.6934 10.0225 28.4196C10.0225 28.4196 11.0721 25.7394 11.962 24.2403C12.6693 22.9683 13.4679 21.7191 14.3121 20.5153C15.202 19.3114 16.2287 18.2212 17.3468 17.2445C17.9172 16.7675 18.4876 16.2905 19.0809 15.8589L20.8606 14.5643C22.0242 13.7011 23.2107 12.838 24.3288 11.9068C23.3248 12.9516 22.2524 13.9737 21.1572 14.9277C20.6096 15.4047 20.062 15.9044 19.5144 16.3814C18.9668 16.8583 18.442 17.3353 17.94 17.835C17.438 18.3347 16.9589 18.8799 16.5254 19.425C16.069 19.9701 15.6355 20.538 15.2476 21.1285C14.8597 21.7191 14.449 22.3096 14.0839 22.9229C13.9927 23.0592 13.9242 23.2182 13.833 23.3545C15.7724 22.5595 18.4648 21.5601 20.8378 20.0837C21.0659 19.9474 19.4003 19.9701 18.3507 19.2206C19.6513 19.3341 23.1879 18.2893 23.4617 17.994C24.4885 16.9946 25.1958 15.7227 26.04 14.0873C26.04 14.0873 24.1919 13.5194 23.3933 13.8829C23.804 13.315 26.4964 12.6563 26.5876 12.3837C27.1352 10.9755 27.5459 9.49911 27.7969 8C27.1809 8.40885 26.542 8.77227 25.8803 9.06754C25.675 9.20383 25.3555 10.6348 24.922 10.9982Z" fill="white"/>
</svg>
