<?xml version="1.0" encoding="UTF-8"?><svg id="Layer_1" xmlns="http://www.w3.org/2000/svg" xmlns:xlink="http://www.w3.org/1999/xlink" viewBox="0 0 331 438"><defs><style>.cls-1,.cls-2{fill:none;}.cls-3{clip-path:url(#clippath);}.cls-4{fill:#f9f9f9;}.cls-5{fill:#fff;}.cls-6{fill:#f2dcc9;}.cls-7{fill:#e6c6aa;}.cls-8{fill:#b59a6e;}.cls-9{fill:#729fcc;}.cls-10{fill:#a85454;}.cls-11{fill:#cfd5e0;}.cls-12{fill:#deb592;}.cls-13{fill:#d1e7fd;}.cls-14{fill:#a87171;}.cls-15{fill:#10161c;}.cls-16{fill:#202c38;}.cls-17{fill:#4485c7;}.cls-18{fill:#1a293f;}.cls-19{fill:#93c8fd;}.cls-20{fill:#9b5924;}.cls-21{fill:#75431b;}.cls-22{fill:#7541ee;}.cls-23{clip-path:url(#clippath-1);}.cls-24{clip-path:url(#clippath-2);}.cls-2{stroke:#fff;stroke-miterlimit:10;stroke-width:20px;}.cls-25{opacity:.58;}.cls-26{opacity:.55;}.cls-27{opacity:.8;}.cls-28{opacity:.7;}</style><clipPath id="clippath"><path class="cls-1" d="m126,117.84s1.3,3.1,1.4,3.8c.1.7,3.2,5.3,6,5.2s9.4-.7,9.8-2.7,1.3-3.9-.2-5.4.5-1.4-3.6-2.8-7.5-1.8-8.7-1.5c-1.3.1-4.7,3.4-4.7,3.4Z"/></clipPath><clipPath id="clippath-1"><path class="cls-1" d="m182.9,206.24c3.2,9,8.7,17.1,15.1,24.1,9.2,9.9,20.4,17.7,31.6,25.3,1,.7,2.1,1.4,2.7,2.4,1,1.5,1,3.4,1,5.1,0,18.9,2.7,37.8,8,55.9.9,3.1,1.9,6.1,2.1,9.3.3,3.4-.2,7.2,1.7,10,.5.7,1.2,1.4,1.5,2.2,1.2,2.7-1.4,6-.2,8.7.1.3.3.5.5.8h0c.8,1.1,2.1,2.1,2.1,3.5,0,.7-.4,1.4-.8,2-.5.8-1.2,1.5-1.3,2.4-.3,1.6,1.1,3.1,2.7,3.5,1.6.4,3.2,0,4.8-.4,10.7-2.9,21.9-6.5,32.8-4.2-1.3-2.7-2.5-5.7-1.3-8.4.3-.8.9-1.4,1-2.2.3-1.5-.6-2.8-1.5-4.2-.7-1.1-1.3-2.3-1.1-3.5.1-.4.2-.8.4-1.2.4-.8.9-1.6,1-2.5.3-2.6-2.9-4-4.3-6.2-1.3-2.2-.6-5-.5-7.6.1-3.9-1.3-7.6-2-11.4-1.7-9.3,1.1-19.2-2-28.1-1.1-3.1-2.8-5.9-3.8-9-1.8-5.4-1.3-11.3-1.9-17-1.2-11.1-6.7-21.2-12.1-30.9-1.4-2.5-2.8-5-4.8-7.1-2.5-2.6-5.8-4.2-9.1-5.7-14.9-6.8-46.6-13.7-63.8-26.2-3.1,5.2.4,17.6,1.5,20.6Z"/></clipPath><clipPath id="clippath-2"><path class="cls-1" d="m141.1,206.14c-2.8,9.1-7.8,17.5-13.9,24.8-8.7,10.4-19.5,18.8-30.3,26.9-1,.7-2,1.5-2.6,2.6-.9,1.5-.8,3.4-.7,5.2,1,18.9-.8,37.9-5.1,56.3-.7,3.1-1.5,6.2-1.6,9.4-.1,3.4.6,7.2-1.2,10.1-.5.7-1.1,1.4-1.4,2.2-1.1,2.8,1.7,5.9.6,8.7-.1.3-.3.5-.4.8h0c-.8,1.2-2,2.2-1.9,3.6,0,.7.5,1.3.9,1.9.6.7,1.3,1.4,1.5,2.3.4,1.6-1,3.1-2.5,3.6-1.6.5-3.2.1-4.8-.2-10.9-2.3-22.2-5.4-32.9-2.5,1.1-2.7,2.2-5.9.9-8.5-.4-.7-.9-1.4-1.1-2.2-.4-1.5.5-2.9,1.3-4.3.6-1.2,1.2-2.3.9-3.6-.1-.4-.3-.8-.5-1.2-.4-.8-1-1.5-1.2-2.4-.4-2.5,2.7-4.1,3.9-6.4,1.2-2.3.3-5.1.1-7.7-.3-3.9.9-7.7,1.4-11.5,1.2-9.4-2.1-19.1.6-28.2.9-3.1,2.5-6,3.4-9.1,1.5-5.5.7-11.4,1.1-17.1.7-11.1,5.7-21.5,10.5-31.5,1.3-2.6,2.5-5.2,4.4-7.3,2.4-2.7,5.6-4.5,8.7-6.2,14.5-7.6,45.9-16.1,62.4-29.4,3.3,5.3.5,17.8-.5,20.9Z"/></clipPath></defs><rect class="cls-22" x="-6.52" width="344.64" height="456.05"/><path class="cls-2" d="m231.97,433.29s-8.85-41.53-12.07-71.45,17.4-69.9,17.4-69.9c0,0,36.34,92.6-5.33,141.35Z"/><path class="cls-2" d="m93.83,402.01s-14.71-10.25-17.93-40.17,15.52-54.9,15.52-54.9c0,0,13.12,36.45,7.26,71.81-1.35,8.16-.66,15.58-4.85,23.26Z"/><path class="cls-2" d="m286.29,356.9c-.45-6.05-1.24-12.1-2.05-18.1-2.93-21.76-6.16-43.49-9.68-65.16-2.49-15.32-5.25-30.98-12.96-44.44-7.71-13.47-21.46-24.53-36.98-24.72-5.73-31.53-11.45-63.06-17.18-94.59-1.57-8.66-3.21-17.49-7.47-25.19-8.94-16.15-29.85-24.55-47.48-19.07-25.47,7.92-36.41,37.41-42.31,63.42-4.3,18.99-7.72,39.28-1.09,57.58,1.76,4.85,4.07,10.66.9,14.72-1.8,2.3-4.82,3.17-7.63,3.97-59.49,16.86-52.07,92.97-56.35,143.38-1.39,16.39-2.42,33.48,3.79,48.7,7.69,18.84,25.72,32.84,30.03,52.73,1.99,9.17.81,18.69,0,28.04-2.63,30.6-1.12,61.38.39,92.05,27.86.03,55.73.07,83.59.1.37-8.1.74-16.21,1.11-24.31,3.62,7.73,6.33,15.88,8.06,24.23,28.77,0,57.55,0,86.32,0-5.38-26.67-10.76-53.34-16.15-80.02-1.3-6.42-2.6-13-1.61-19.47.75-4.98,2.83-9.66,5.13-14.14,12.77-24.85,33.37-46.43,38.59-73.88,1.62-8.51,1.65-17.18,1-25.84Z"/><path class="cls-6" d="m109.6,518.74c-1.6-6.5-3.4-22.2-7.4-33.5-12.1-29-51.9-79.6-56.8-101.6-4.7-21.2,8.9-38.5,8.7-60.1-.1-12.2-1.3-24.4-.2-36.6.3-3.2.7-6.4,1.3-9.6,2-10.1,6.3-18.6,12.5-26.7,5.2-6.7,11.3-12.8,18.1-17.8l12.4,29.7c-.1,0-.2,0-.2-.1,3.8,8.5-9.8,17.1-10.9,26.3-3.1,26.5-3.1,52.4-8,78.6-.8,4.3.1,5,.6,9.3.4,3.4,3.7,10.4,8.2,20.3,13.2,29.1,17.5,55.2,26.7,86.1,1.5,2.2,10.2,3.9,13,8.6,1.7,2.8,3.4,5.6,4.8,8.5,2.2,4.6,2.4,9.9,3.7,14.8.3,1,.6,2.1.6,3.1.1,5-5.4,3.9-7.6,1.1-.2-.3-.4-.5-.6-.8-.2-.4-.4-.7-.6-1.1-.6-1.4-.9-3-1.2-4.5-.3-1.1-.6-2.2-1.1-3.2-.5-.9-.9-2.1-2-2.2-1-.1-2.3.7-2.9,1.5-.8.9-1.2,2-1.4,3.1,0,.2-.1.5-.1.7-.1.6-.1,1.3-.1,1.9-.1,2.2,0,4.5,0,6.7,0,3.1.3,6,1.7,8.8,1.4,2.9,3.4,5.4,5.2,8,2,2.8,4.8,6.5,3.9,10.1-.4,1.7-2.5,2.2-3.8,1.3-.7-.5-1.3-1.2-1.8-1.9-3.4-4.5-6.8-8.9-9.5-13.8-2.7-4.6-3.9-9.9-5.2-15Z"/><path class="cls-21" d="m125.6,108.94c-6,23.3-10.4,47.3-9,71.4.3,4.7.8,9.4,2.2,13.9,1.1,3.5,2.9,6.9,5.7,9.3,2.4,2.1,5.5,3.2,8.5,4,4.5,1.1,9.2,1.2,13.7.5,1.3-.2,2.7-.5,3.7-1.4,1.1-1,1.7-2.5,2-3.9.7-3.6.4-7.4.2-11.1-.6-15.3,2.1-31.3-4.1-45.3-3-6.9-8.1-12.9-10.4-20.1-1.2-3.9-1.6-8.1-1.7-12.2-.1-3.6.9-8.6-.2-12-1-3-3.7-3.6-6.2-1.9-2.6,1.9-3.6,5.6-4.4,8.8Z"/><path class="cls-21" d="m174.5,111.84c-6,23.3-10.4,47.3-9,71.4.3,4.7.8,9.4,2.2,13.9,1.1,3.5,2.9,6.9,5.7,9.3,2.4,2.1,5.5,3.2,8.5,4,4.5,1.1,9.2,1.2,13.7.5,1.3-.2,2.7-.5,3.7-1.4,1.1-1,1.7-2.5,2-3.9.7-3.6.4-7.4.2-11.1-.6-15.3,2.1-31.3-4.1-45.3-3-6.9-8.1-12.9-10.4-20.1-1.2-3.9-1.6-8.1-1.7-12.2-.1-3.6.9-8.6-.2-12-1-3-3.7-3.6-6.2-1.9-2.6,1.9-3.6,5.6-4.4,8.8Z"/><path class="cls-9" d="m79.7,453.44c-1,7.1,149.3,8.3,158.3,3.9-3.2-5.7-23.1-77.6-19.8-109.9,3.3-32.2-20.3-60-31.7-91-1.3-3.4-3.3-7.4-8-8.2-2.2-.4-4.5.1-6.7.4-5.7.7-11.7-.1-16.8-2.2-1.3-.5-2.6-1.2-4.1-1.2-3,0-4.7,2.5-5.8,4.6-7.8,15.3-15.5,30.6-22.3,46.2-6.5,15-13.9,29.5-15.8,45.6-6.4,53.6-22.7,80-27.3,111.8Z"/><path class="cls-6" d="m184.6,198.84c-5.4,8.2-16.9,16.1-26.1,15.1-11.3-1.3-19.9-12.7-19.9-12.7,5.9-21.6,5.6-30.1,2.2-44.1l36.4-3.9c0,.1-4.1,28.7,7.4,45.6Z"/><path class="cls-6" d="m199.3,133.64c-1,11.5-4,20.8-13.5,27.3-11,7.5-25.6,18.4-37.9,13.5l-.2-.1c-2.4-1-10.3-7.7-11.9-9.2-1.9-1.9-4.1-5.3-5-7.6-2.5-6-7.4-20.3-5.2-27.1.9-2.9,3-4.5,1.7-9.5-.7-2.6-2.2-4.7-1.9-7.4.7-7.7,2-15.3,3.7-22.8,1.5-6.5,8-10.5,13.7-14,4.8-2.8,10.2-4.6,15.8-4.7,1,0,2,0,3,.1h.4c6.6.7,12.8,3.7,17.9,8,5,4.3,8.9,9.8,12,15.7,5.8,11.6,8.6,24.9,7.4,37.8Z"/><g class="cls-28"><path class="cls-7" d="m199.3,133.64c-1,11.5-4,20.8-13.5,27.3-11,7.5-25.6,18.4-37.9,13.5-.9-1.8-1.5-4.3.3-6.6.9-.8,2.3-3,1.5-5.1-.8-2-2.3-3.6-1.2-6.2,0,0-1.2-1.8.6-2.8,1.8-.9,1.8-5.5-.2-6.6-1.1-.6-2.6-.2-4.6-2.8-2-2.6-2.9-1.4-.8-7.8s3-18.1,3-21.5c-.1-3.4-2.3-9.4.9-17.7,3.2-8.2,8.7-24.4,8.7-24.4l2.6-1c1,0,2,0,3,.1h.4c6.6.7,12.8,3.7,17.9,8,5,4.3,8.9,9.8,12,15.7,5.7,11.7,8.5,25,7.3,37.9Z"/></g><path class="cls-14" d="m150.9,156.74l-2.3-2.8s-.9-1.2-1-1.2-1.6-.1-1.7,0-4.9,3.5-5.3,3.4c-.3-.1-2.1-1.4-2.1-1.4l-.7,1.7,13.1.3Z"/><path class="cls-14" d="m146.2,156.64l3.2-2.6,1.3-1.1c.1,0,2.1,0,2.3.1s6.2,3.9,6.7,3.8,2.8-1.3,2.8-1.3l1,2.1-17.3-1Z"/><polygon class="cls-10" points="141.6 156.54 146.1 160.24 154 160.74 159 157.34 150.3 156.64 141.6 156.54"/><path class="cls-20" d="m152.7,111.34c6.2-2.6,12.9-4.6,19.6-3.3,2.3.5,4.5,1.6,6.2,3.3.5.5.5,1.3,0,1.7-.5.5-1.2.5-1.7,0-4.7-3.7-11.3-1.8-16.5.1-1.8.7-3.7,1.6-5.4,2.6-2.9,1.7-5.3-2.8-2.2-4.4h0Z"/><path class="cls-5" d="m161.8,119.34c-.9.2-1.8.4-2.6.9-.8.4-1.5.9-2.1,1.5-.3.2-.5.5-.8.7-.4.2-.8.3-1.1.6-.3.3-.5.8-.2,1.1.3.3.7.2,1.1.1.4-.1.8-.2,1.2-.1.5.1.8.4,1.3.6.3.1.6.2.8.3.9.2,1.9.4,2.9.4,2.4,0,4.7-1.1,6.6-2.6.1-.1,1.3-1.2-.5-2.4-1-.7-2.2-1.1-3.4-1.4-1.2-.1-2.2.1-3.2.3Z"/><path class="cls-19" d="m161.2,124.14h-.2c-1.3-.1-2.3-1.3-2.2-2.6.1-1.3,1.1-2.3,2.4-2.3h.2c1.3.1,2.3,1.3,2.2,2.6,0,1.3-1.1,2.3-2.4,2.3Z"/><path class="cls-18" d="m161.2,119.34h.2c1.3.1,2.2,1.2,2.2,2.5-.1,1.2-1.1,2.2-2.3,2.2h-.2c-1.3-.1-2.2-1.2-2.2-2.5.1-1.2,1.1-2.2,2.3-2.2m0-.2h0c-1.3,0-2.4,1-2.5,2.3,0,.7.2,1.3.6,1.8s1.1.8,1.7.9h.2c1.3,0,2.4-1,2.5-2.3,0-.7-.2-1.3-.6-1.8-.4-.5-1.1-.8-1.7-.9h-.2Z"/><circle class="cls-17" cx="161.2" cy="121.64" r="2.2"/><circle class="cls-15" cx="160.6" cy="121.04" r="1.5"/><circle class="cls-16" cx="159.9" cy="120.94" r=".3"/><circle class="cls-16" cx="160.5" cy="120.34" r=".5"/><path class="cls-18" d="m155.8,120.54c.6-.2,1.4-1,1.9-1.4,2.7-2.3,6.7-3.1,10.1-1.9,2.5,1.1,4.3,3.4,5.1,5.9l.2.9-.7-.6c-2.9-2.2-6.2-4.6-9.9-3.9-2.3.2-4.1,1.5-5.7,3.1-.4.5-1.3.4-1.5,1-.1.2,0,.3.2.4s.8-.2,1.1-.4c.3-.1.9.1,1.1.2,3.2,1.6,7.5,1.6,10.2-.9.3-.2.7-.5,1.2-.5v.5c-.6,0-1.1.7-1.7,1.1-3.1,2.1-7.2,1.9-10.5.3-.5.1-1,.6-1.7.4-.9-.3-1-1.4-.4-2,.5-.5,1.1-.4,1.5-.8,1.1-1,2.3-2.1,3.8-2.7,3.1-1.1,6.2-.8,9,1,1.3.8,2.5,1.7,3.7,2.6l-.5.3c-1.4-2.8-3.9-5.5-7.2-5.6-2.5-.2-5,.3-6.9,1.9l-1,.8c-.4.3-.7.5-1.2.6l-.2-.3h0Z"/><path class="cls-20" d="m121.6,109.74c1.1-.3,2.2-.4,3.3-.5,1.1-.1,2.2-.1,3.3,0,2.2.1,4.4.4,6.5.9,1.1.2,2.1.5,3.2.7,1.1.3,2.1.6,3.2.9,1.2.4,1.8,1.7,1.4,2.8s-1.7,1.8-2.8,1.4c-.1,0-.1-.1-.2-.1h0c-.9-.4-1.8-.8-2.8-1.1-.9-.4-1.9-.7-2.9-1-1.9-.6-3.9-1.1-5.9-1.4-1-.2-2-.3-3-.3s-2,0-2.9.1c-1.8.3-1.5-2.1-.4-2.4Z"/><path class="cls-18" d="m148.5,147.74c-.8,0-2.7-.2-3.9-2.1-.4-.6-.9-1-1.4-1.5-1.3-1.2-2.7-2.4-.9-6.5,3.1-7.1,3.3-20.1,3.3-20.2h1.1c0,.5-.2,13.4-3.4,20.6-1.5,3.4-.7,4.1.6,5.3.5.5,1.1,1,1.6,1.7,1.1,1.7,3.1,1.5,3.2,1.5l.1,1.1c.1.1-.1.1-.3.1Z"/><path class="cls-18" d="m148.1,145.94c-.4-.5-.5-1.3,0-1.8.2-.2.5-.4.7-.5,1-.4,2-.7,3-.9.3-.1.6-.1.9-.1.9,0,1.8.6,2.1,1.4l-1,.5c-.2-.4-.7-.8-1.2-.8-.2,0-.4,0-.6.1-.9.2-1.9.5-2.8.8-.1.1-.3.1-.3.2-.1.1-.1.2,0,.3l-.8.8Z"/><path class="cls-12" d="m177.7,123.04c.7.6,2.1.8,2.7.1"/><path class="cls-12" d="m177.4,123.14c.1.5.5,1,1.4,1.4.5.2,1.4.3,2-.2"/><path class="cls-20" d="m158.8,80.34c13,5.5,18.1,20.6,18.4,33.7.1,3.3-.3,6.6-.2,9.8,0,3.1.6,6.1,1.7,9,2.2,6,5.6,11.5,9,17l-3.9,2.4c-2.5-4.3-4.9-8.7-6.8-13.4-1.3-3.1-2.5-6.4-3-9.8-.6-3.4-.2-6.9.1-10.2.8-7.9,0-16.2-3.2-23.5-2.2-5.1-5.8-9.6-10.6-12.5-.7-.4-1.4-.8-2.1-1l.6-1.5h0Z"/><g class="cls-3"><path class="cls-5" d="m134.8,118.74c.8.2,1.6.5,2.4.9.7.4,1.3.9,1.9,1.5.2.2.5.5.7.7.3.2.7.3,1,.6.3.3.4.8.1,1.1-.3.3-.7.1-1,0-.4-.1-.7-.2-1.1-.1s-.8.4-1.2.6c-.2.1-.5.2-.8.2-.9.2-1.8.3-2.7.3-2.2-.1-4.3-1.1-6-2.6-.1-.1-1.2-1.2.5-2.3,1-.6,2.1-1,3.2-1.2,1.2-.2,2.1,0,3,.3Z"/><path class="cls-19" d="m132.3,123.24h-.2c-.6,0-1.2-.3-1.7-.8-.4-.5-.6-1.1-.6-1.8.1-1.3,1.1-2.3,2.4-2.3h.2c.6,0,1.2.3,1.7.8.4.5.6,1.1.6,1.8-.1,1.3-1.2,2.3-2.4,2.3Z"/><path class="cls-18" d="m132.3,118.44h.2c1.3.1,2.2,1.2,2.2,2.5-.1,1.2-1.1,2.2-2.3,2.2h-.2c-1.3-.1-2.2-1.2-2.2-2.5,0-1.2,1-2.2,2.3-2.2m0-.2h0c-1.3,0-2.4,1-2.5,2.3,0,.7.2,1.3.6,1.8s1.1.8,1.7.9h.2c1.3,0,2.4-1,2.5-2.3,0-.7-.2-1.3-.6-1.8s-1.1-.8-1.7-.9h-.2Z"/><circle class="cls-17" cx="132.3" cy="120.84" r="2.2"/><circle class="cls-15" cx="131.8" cy="120.04" r="1.5"/><circle class="cls-16" cx="131.1" cy="119.94" r=".3"/><circle class="cls-16" cx="131.7" cy="119.34" r=".5"/><path class="cls-18" d="m140.5,120.04c-.5-.1-.9-.4-1.2-.7-1-.8-1.9-1.6-3.1-2-3.7-1.6-11.4.1-11.2,5l-.5-.2c2.3-1.8,4.6-3.4,7.5-4,2.2-.3,4.5.1,6.3,1.4.6.4,1.1.9,1.7,1.4.3.3,1,.3,1.4.8.8.9.1,2.3-1.1,1.8-.3-.1-.6-.3-.8-.3-.4.2-.9.5-1.4.6-2.7,1-5.9.9-8.4-.7-.6-.4-1-1.1-1.6-1v-.4c.4,0,.8.2,1.1.4.8.7,1.7,1.2,2.7,1.4,2.5.7,5.2.2,7.5-1,.5-.2,1.1.4,1.5.3.1-.1.3-.2.2-.4-.1-.3-.2-.4-.5-.5s-.8-.3-1-.5c-1-.9-2-1.8-3.3-2.3-4.2-1.4-8,.9-11.3,3.4l-.3.3-.1-.4c-.6-1.8.6-3.7,2-4.8,2.8-2.1,6.9-2.4,10.1-1,1.2.5,2.2,1.4,3.1,2.3.3.3.6.5.9.6l-.2.5h0Z"/></g><path class="cls-20" d="m116.9,201.94c-10.5-15.7-14.3-36-10.2-54.4.7-3,1.5-6,2.4-8.8.9-3.1,1.8-6.3,2.5-9.5.5-2.4.9-4.9,1.2-7.4.3-2.3.7-4.6,1.1-7,3.3-17.2,13.3-32.9,27.3-43.2,2.4-1.7,4-1.3,4.9-.6l-2.1,3c.1.1.2.1.2.1,0,0-.3,0-1,.5-13.4,9.7-22.8,24.6-26,40.9-.4,2.2-.8,4.5-1.1,6.8-.4,2.5-.7,5.1-1.2,7.6-.7,3.3-1.6,6.6-2.6,9.8-.8,2.8-1.7,5.7-2.3,8.6-3.8,17.5-.2,36.8,9.7,51.7l-2.8,1.9Z"/><path class="cls-6" d="m229.7,510.04c1.5-6.3,3.1-21.4,6.9-32.3,11.4-28,44.6-72.2,49.2-93.4,3.4-15.8-1.1-32.2-3.2-48.5-.6-4.7-7.9-9.9-7.9-14.5,0-11.7-.8-61.8-6.8-69.5-5-6.4-10.9-12.2-17.6-17l-11.7,28.7c.1,0,.2,0,.2-.1-3.6,8.2,19.7,14,20.8,22.9,3.2,25.4-12.3,52.9-7.5,78.1.8,4.1,4.3,8.5,3.9,12.6-.3,3.2-4.7,4.6-9,14.3-12.4,28.1-17.1,50.4-25.8,80.1-1.4,2.1-6.4,8.2-9.1,12.7-1.6,2.7-3.2,5.4-4.5,8.2-2,4.5-2.3,9.5-3.5,14.3-.3,1-.5,2-.5,3-.1,4.8,5.2,3.8,7.3,1,.2-.3.4-.5.5-.8.2-.3.4-.7.5-1.1.5-1.4.8-2.9,1.1-4.3.3-1.1.5-2.1,1.1-3.1.4-.8.9-2,1.9-2.1s2.2.7,2.8,1.4c.8.8,1.1,1.9,1.3,3,0,.2.1.4.1.7.1.6.1,1.2.1,1.8.1,2.2.1,4.3.1,6.4.1,3-.2,5.8-1.5,8.5-1.3,2.8-3.2,5.2-4.9,7.7-1.9,2.7-4.5,6.2-3.7,9.7.4,1.6,2.4,2.1,3.7,1.3.7-.4,1.2-1.1,1.7-1.8,3.2-4.3,6.5-8.6,9.1-13.4,2.6-4.5,3.7-9.6,4.9-14.5Z"/><path class="cls-18" d="m77.6,274.24c-5.2,13.3,10.1,33.9,13.3,47.9,7.3,31.9,7.4,36.1-2.6,67.3,4.6.2,14.9.2,19,2.4,2.8,1.5,5.3,3.5,8.3,4.7,2.9,1.2,6.5,1.5,9.1-.2,2.9-1.9,3.9-5.7,4.6-9,3.7-16.6,7.4-33.1,11.1-49.7,1.9-8.5,3.8-17,5.2-25.6,1.4-8.5,2.2-17,3.2-25.6,3.5-28.2,9-55.6,16.9-82.9-12-.4-23-5.3-30.9-13.7-3.1,7.2-9.7,12.2-15.6,17.5-7.7,7-14.5,15-20.2,23.8-2.4,3.7-4.6,7.7-5,12.1-.4,4-19.1,27.4-20.9,31"/><path class="cls-18" d="m160.1,263.74c.4-3,.6-6.1,1.8-8.8.7-1.7,1.8-3.2,2.6-4.9,1.2-2.4,2-5,2.6-7.6,2.5-10.1,3.6-20.6,3-31-.1-2.5-.3-5-1.1-7.4-2.7-.1-4.4,2.9-5,5.5-2.2,9.7-2.5,19.8-4,29.7-3,20-11.2,39.2-12.6,59.4-.8,11.5.5,23.5-3.5,34.3-5.7,15.6-11.6,30.9-13.6,47.4-.2,1.8-.3,3.7.1,5.4.5,1.7,1.4,3.2,2.1,4.8.9,1.9.8,4.9,1.8,6.8.7,1.2,2.6,1.1,3.6.1s1.2-2.5,1.3-3.9c.4-5.5-.6-11.1.4-16.5,1-5.1,3.7-9.7,4.8-14.7.8-3.6.8-7.3,1.5-11,1.4-8.4,4.6-11.4,5.1-19.8.2-3.6-.3-7.1-.1-10.7.3-6.1,3.6-15.4,4.2-21.5.5-5-1.4-10.7-.5-14.5.5-2.1,1.3-3.6,2-5.7.9-2.5,1.8-5,2.4-7.5.8-3.5,1-7.1,1.2-10.7"/><path class="cls-13" d="m168.5,203.84s2.3,29.1-3.7,42.7c-6,13.6-5,10.3-6.4,22-1.5,11.6-5,14.5-4.7,19.7s1.3,8.4,0,15.5-5.1,16.4-4,22.8c1.1,6.3-.1,10.5-2.6,18.6s-1.7,12-3.2,18.8-4.4,9.7-4.9,16.5,1.5,18.1-2.9,18.4-18.8,1.3-18.4-1.9c.4-3.2,9.3-20.4,9.2-24.2-.3-12.4,7.9-19.4,6.9-24.6-2.4-12.2,3.1-19.4,2.4-24.2-.7-4.8-1-15.1,1.9-19.9,4.2-6.9-.1-11.5,1.3-18.5,1.3-6.3,5.3-10.9,4.9-13-.9-5.7-.3-17.1,3.2-23.6s6.1-22.6,6.1-22.6c0,0-1-10.7,1-16.5l1.9-7.4,12,1.4Z"/><circle class="cls-18" cx="130.1" cy="388.14" r="4.1"/><circle class="cls-4" cx="130.1" cy="388.14" r="3.6"/><circle class="cls-18" cx="129.3" cy="387.44" r=".4"/><circle class="cls-18" cx="131" cy="387.44" r=".4"/><circle class="cls-18" cx="129.3" cy="388.84" r=".4"/><circle class="cls-18" cx="131" cy="388.84" r=".4"/><circle class="cls-18" cx="135.8" cy="364.24" r="4.1"/><circle class="cls-4" cx="135.8" cy="364.24" r="3.6"/><circle class="cls-18" cx="135" cy="363.54" r=".4"/><circle class="cls-18" cx="136.6" cy="363.54" r=".4"/><circle class="cls-18" cx="135" cy="364.94" r=".4"/><circle class="cls-18" cx="136.6" cy="364.94" r=".4"/><circle class="cls-18" cx="142.2" cy="336.04" r="4.1"/><circle class="cls-4" cx="142.2" cy="336.04" r="3.6"/><circle class="cls-18" cx="141.3" cy="335.34" r=".4"/><circle class="cls-18" cx="143" cy="335.34" r=".4"/><circle class="cls-18" cx="141.3" cy="336.74" r=".4"/><circle class="cls-18" cx="143" cy="336.74" r=".4"/><circle class="cls-18" cx="142.6" cy="311.54" r="4.1"/><circle class="cls-4" cx="142.6" cy="311.54" r="3.6"/><circle class="cls-18" cx="141.7" cy="310.84" r=".4"/><circle class="cls-18" cx="143.4" cy="310.84" r=".4"/><circle class="cls-18" cx="141.7" cy="312.24" r=".4"/><circle class="cls-18" cx="143.4" cy="312.24" r=".4"/><circle class="cls-18" cx="146.2" cy="287.64" r="4.1"/><circle class="cls-4" cx="146.2" cy="287.64" r="3.6"/><circle class="cls-18" cx="145.4" cy="286.94" r=".4"/><circle class="cls-18" cx="147.1" cy="286.94" r=".4"/><circle class="cls-18" cx="145.4" cy="288.34" r=".4"/><circle class="cls-18" cx="147.1" cy="288.34" r=".4"/><circle class="cls-18" cx="151.6" cy="263.84" r="4.1"/><circle class="cls-4" cx="151.6" cy="263.84" r="3.6"/><circle class="cls-18" cx="150.7" cy="263.14" r=".4"/><circle class="cls-18" cx="152.4" cy="263.14" r=".4"/><circle class="cls-18" cx="150.7" cy="264.54" r=".4"/><circle class="cls-18" cx="152.4" cy="264.54" r=".4"/><circle class="cls-8" cx="158.3" cy="241.14" r="4.1"/><circle class="cls-11" cx="158.3" cy="241.14" r="3.6"/><circle class="cls-8" cx="157.5" cy="240.44" r=".4"/><circle class="cls-8" cx="159.2" cy="240.44" r=".4"/><circle class="cls-8" cx="157.5" cy="241.84" r=".4"/><circle class="cls-8" cx="159.2" cy="241.84" r=".4"/><circle class="cls-8" cx="162" cy="218.04" r="4.1"/><circle class="cls-11" cx="162" cy="218.04" r="3.6"/><circle class="cls-8" cx="161.1" cy="217.34" r=".4"/><circle class="cls-8" cx="162.8" cy="217.34" r=".4"/><circle class="cls-8" cx="161.1" cy="218.74" r=".4"/><circle class="cls-8" cx="162.8" cy="218.74" r=".4"/><path class="cls-18" d="m249.9,262.24c5.2,13.3-10.7,19.7-13.9,33.6-7.3,31.9-18.6,60.7-8.6,91.8-4.6.2-9.2,1.5-13.3,3.7-2.8,1.5-5.3,3.5-8.3,4.7-2.9,1.2-6.5,1.5-9.1-.2-2.9-1.9-3.9-5.7-4.6-9-3.7-16.6-7.4-33.1-11.1-49.7-1.9-8.5-3.8-17-5.2-25.6-1.4-8.5-2.2-17-3.2-25.6-3.5-28.2-9-55.6-16.9-82.9,12-.4,23-5.3,30.9-13.7,3.1,7.2,9.7,12.2,15.6,17.5,7.7,7,14.5,15,20.2,23.8,2.4,3.7,4.6,7.7,5,12.1.4,4-.8,8.3,1,12"/><path class="cls-18" d="m161.3,263.34c-.4-3-.6-6.1-1.8-8.8-.7-1.7-1.8-3.2-2.6-4.9-1.2-2.4-2-5-2.6-7.6-2.5-10.1-3.6-20.6-3-31,.1-2.5.3-5,1.1-7.4,2.7-.1,4.4,2.9,5,5.5,2.2,9.7,2.5,19.8,4,29.7,3,20,11.2,39.2,12.6,59.4.8,11.5-.5,23.5,3.5,34.3,5.7,15.6,11.6,30.9,13.6,47.4.2,1.8.3,3.7-.1,5.4-.5,1.7-1.4,3.2-2.1,4.8-.9,1.9-.8,4.9-1.8,6.8-.7,1.2-2.6,1.1-3.6.1s-1.2-2.5-1.3-3.9c-.4-5.5.6-11.1-.4-16.5-1-5.1-3.7-9.7-4.8-14.7-.8-3.6-.8-7.3-1.5-11-1.4-8.4-4.6-11.4-5.1-19.8-.2-3.6.3-7.1.1-10.7-.3-6.1-3.6-15.4-4.2-21.5-.5-5,1.4-10.7.5-14.5-.5-2.1-1.3-3.6-2-5.7-.9-2.5-1.8-5-2.4-7.5-.8-3.5-1-7.1-1.2-10.7"/><path class="cls-13" d="m153,203.34s-2.3,29.1,3.7,42.7c6,13.6,5,10.3,6.4,22,1.5,11.6,5,14.5,4.7,19.7s-1.3,8.4,0,15.5,5.1,16.4,4,22.8c-1.1,6.3.1,10.5,2.6,18.6s1.7,12,3.2,18.8,4.4,9.7,4.9,16.5-1.5,18.1,2.9,18.4,18.8,1.3,18.4-1.9c-.4-3.2-9.3-20.4-9.2-24.2.3-12.4-7.9-19.4-6.9-24.6,2.4-12.2-3.1-19.4-2.4-24.2.7-4.8,1-15.1-1.9-19.9-4.2-6.9.1-11.5-1.3-18.5-1.3-6.3-5.3-10.9-4.9-13,.9-5.7.3-17.1-3.2-23.6s-6.1-22.6-6.1-22.6c0,0,1-10.7-1-16.5l-1.9-7.4-12,1.4Z"/><circle class="cls-18" cx="191.3" cy="387.64" r="4.1"/><circle class="cls-4" cx="191.3" cy="387.64" r="3.6"/><circle class="cls-18" cx="192.1" cy="386.94" r=".4"/><circle class="cls-18" cx="190.5" cy="386.94" r=".4"/><circle class="cls-18" cx="192.1" cy="388.44" r=".4"/><circle class="cls-18" cx="190.5" cy="388.44" r=".4"/><circle class="cls-18" cx="185.6" cy="363.74" r="4.1"/><circle class="cls-4" cx="185.6" cy="363.74" r="3.6"/><circle class="cls-18" cx="186.5" cy="363.04" r=".4"/><circle class="cls-18" cx="184.8" cy="363.04" r=".4"/><circle class="cls-18" cx="186.5" cy="364.54" r=".4"/><circle class="cls-18" cx="184.8" cy="364.54" r=".4"/><circle class="cls-18" cx="179.3" cy="335.64" r="4.1"/><circle class="cls-4" cx="179.3" cy="335.64" r="3.6"/><circle class="cls-18" cx="180.1" cy="334.94" r=".4"/><circle class="cls-18" cx="178.4" cy="334.94" r=".4"/><circle class="cls-18" cx="180.1" cy="336.34" r=".4"/><circle class="cls-18" cx="178.4" cy="336.34" r=".4"/><circle class="cls-18" cx="178.9" cy="311.04" r="4.1"/><circle class="cls-4" cx="178.9" cy="311.04" r="3.6"/><circle class="cls-18" cx="179.7" cy="310.34" r=".4"/><circle class="cls-18" cx="178" cy="310.34" r=".4"/><circle class="cls-18" cx="179.7" cy="311.84" r=".4"/><circle class="cls-18" cx="178" cy="311.84" r=".4"/><circle class="cls-18" cx="175.2" cy="287.24" r="4.1"/><circle class="cls-4" cx="175.2" cy="287.24" r="3.6"/><circle class="cls-18" cx="176.1" cy="286.54" r=".4"/><circle class="cls-18" cx="174.4" cy="286.54" r=".4"/><circle class="cls-18" cx="176.1" cy="287.94" r=".4"/><circle class="cls-18" cx="174.4" cy="287.94" r=".4"/><circle class="cls-18" cx="169.9" cy="263.44" r="4.1"/><circle class="cls-4" cx="169.9" cy="263.44" r="3.6"/><circle class="cls-18" cx="170.7" cy="262.64" r=".4"/><circle class="cls-18" cx="169" cy="262.64" r=".4"/><circle class="cls-18" cx="170.7" cy="264.14" r=".4"/><circle class="cls-18" cx="169" cy="264.14" r=".4"/><circle class="cls-18" cx="163.1" cy="240.74" r="4.1"/><circle class="cls-4" cx="163.1" cy="240.74" r="3.6"/><circle class="cls-18" cx="164" cy="239.94" r=".4"/><circle class="cls-18" cx="162.3" cy="239.94" r=".4"/><circle class="cls-18" cx="164" cy="241.44" r=".4"/><circle class="cls-18" cx="162.3" cy="241.44" r=".4"/><circle class="cls-18" cx="159.5" cy="217.54" r="4.1"/><circle class="cls-4" cx="159.5" cy="217.54" r="3.6"/><circle class="cls-18" cx="160.3" cy="216.84" r=".4"/><circle class="cls-18" cx="158.6" cy="216.84" r=".4"/><circle class="cls-18" cx="160.3" cy="218.34" r=".4"/><circle class="cls-18" cx="158.6" cy="218.34" r=".4"/><path class="cls-18" d="m182.9,206.24c3.2,9,8.7,17.1,15.1,24.1,9.2,9.9,20.4,17.7,31.6,25.3,1,.7,2.1,1.4,2.7,2.4,1,1.5,1,3.4,1,5.1,0,18.9,2.7,37.8,8,55.9.9,3.1,1.9,6.1,2.1,9.3.3,3.4-.2,7.2,1.7,10,.5.7,1.2,1.4,1.5,2.2,1.2,2.7-1.4,6-.2,8.7.1.3.3.5.5.8h0c.8,1.1,2.1,2.1,2.1,3.5,0,.7-.4,1.4-.8,2-.5.8-1.2,1.5-1.3,2.4-.3,1.6,1.1,3.1,2.7,3.5,1.6.4,3.2,0,4.8-.4,10.7-2.9,21.9-6.5,32.8-4.2-1.3-2.7-2.5-5.7-1.3-8.4.3-.8.9-1.4,1-2.2.3-1.5-.6-2.8-1.5-4.2-.7-1.1-1.3-2.3-1.1-3.5.1-.4.2-.8.4-1.2.4-.8.9-1.6,1-2.5.3-2.6-2.9-4-4.3-6.2-1.3-2.2-.6-5-.5-7.6.1-3.9-1.3-7.6-2-11.4-1.7-9.3,1.1-19.2-2-28.1-1.1-3.1-2.8-5.9-3.8-9-1.8-5.4-1.3-11.3-1.9-17-1.2-11.1-6.7-21.2-12.1-30.9-1.4-2.5-2.8-5-4.8-7.1-2.5-2.6-5.8-4.2-9.1-5.7-14.9-6.8-46.6-13.7-63.8-26.2-3.1,5.2.4,17.6,1.5,20.6Z"/><g class="cls-25"><g class="cls-23"><g class="cls-27"><polygon class="cls-9" points="148.6 130.34 160.8 142.94 152.9 158.54 140.7 146.04 148.6 130.34"/><polygon class="cls-9" points="168.7 127.24 181 139.84 173.1 155.44 160.8 142.94 168.7 127.24"/><polygon class="cls-9" points="188.9 124.14 201.1 136.64 193.2 152.34 181 139.84 188.9 124.14"/><polygon class="cls-9" points="209 121.04 221.3 133.54 213.4 149.24 201.1 136.64 209 121.04"/><polygon class="cls-9" points="229.2 117.94 241.4 130.44 233.5 146.14 221.3 133.54 229.2 117.94"/><polygon class="cls-9" points="249.3 114.84 261.6 127.34 253.7 142.94 241.4 130.44 249.3 114.84"/><polygon class="cls-9" points="269.5 111.64 281.7 124.24 273.8 139.84 261.6 127.34 269.5 111.64"/><polygon class="cls-9" points="152.9 158.54 165.2 171.14 157.3 186.74 145.1 174.24 152.9 158.54"/><polygon class="cls-9" points="173.1 155.44 185.3 167.94 177.5 183.64 165.2 171.14 173.1 155.44"/><polygon class="cls-9" points="193.2 152.34 205.5 164.84 197.6 180.54 185.3 167.94 193.2 152.34"/><polygon class="cls-9" points="213.4 149.24 225.6 161.74 217.7 177.44 205.5 164.84 213.4 149.24"/><polygon class="cls-9" points="233.5 146.14 245.8 158.64 237.9 174.24 225.6 161.74 233.5 146.14"/><polygon class="cls-9" points="253.7 142.94 265.9 155.54 258 171.14 245.8 158.64 253.7 142.94"/><polygon class="cls-9" points="273.8 139.84 286.1 152.44 278.2 168.04 265.9 155.54 273.8 139.84"/><polygon class="cls-9" points="157.3 186.74 169.6 199.24 161.7 214.94 149.4 202.44 157.3 186.74"/><polygon class="cls-9" points="177.5 183.64 189.7 196.14 181.8 211.84 169.6 199.24 177.5 183.64"/><polygon class="cls-9" points="197.6 180.54 209.9 193.04 202 208.74 189.7 196.14 197.6 180.54"/><polygon class="cls-9" points="217.7 177.44 230 189.94 222.1 205.54 209.9 193.04 217.7 177.44"/><polygon class="cls-9" points="237.9 174.24 250.1 186.84 242.2 202.44 230 189.94 237.9 174.24"/><polygon class="cls-9" points="258 171.14 270.3 183.74 262.4 199.34 250.1 186.84 258 171.14"/><polygon class="cls-9" points="278.2 168.04 290.4 180.54 282.5 196.24 270.3 183.74 278.2 168.04"/><polygon class="cls-9" points="161.7 214.94 173.9 227.44 166 243.14 153.8 230.54 161.7 214.94"/><polygon class="cls-9" points="181.8 211.84 194.1 224.34 186.2 240.04 173.9 227.44 181.8 211.84"/><polygon class="cls-9" points="202 208.74 214.2 221.24 206.3 236.84 194.1 224.34 202 208.74"/><polygon class="cls-9" points="222.1 205.54 234.4 218.14 226.5 233.74 214.2 221.24 222.1 205.54"/><polygon class="cls-9" points="242.2 202.44 254.5 215.04 246.6 230.64 234.4 218.14 242.2 202.44"/><polygon class="cls-9" points="262.4 199.34 274.6 211.84 266.8 227.54 254.5 215.04 262.4 199.34"/><polygon class="cls-9" points="282.5 196.24 294.8 208.74 286.9 224.44 274.6 211.84 282.5 196.24"/><polygon class="cls-9" points="166 243.14 178.3 255.64 170.4 271.34 158.1 258.74 166 243.14"/><polygon class="cls-9" points="186.2 240.04 198.4 252.54 190.5 268.14 178.3 255.64 186.2 240.04"/><polygon class="cls-9" points="206.3 236.84 218.6 249.44 210.7 265.04 198.4 252.54 206.3 236.84"/><polygon class="cls-9" points="226.5 233.74 238.7 246.34 230.8 261.94 218.6 249.44 226.5 233.74"/><polygon class="cls-9" points="246.6 230.64 258.9 243.14 251 258.84 238.7 246.34 246.6 230.64"/><polygon class="cls-9" points="266.8 227.54 279 240.04 271.1 255.74 258.9 243.14 266.8 227.54"/><polygon class="cls-9" points="286.9 224.44 299.2 236.94 291.3 252.64 279 240.04 286.9 224.44"/><polygon class="cls-9" points="289.4 108.74 301.7 121.24 293.8 136.84 281.5 124.34 289.4 108.74"/><polygon class="cls-9" points="309.6 105.54 321.8 118.14 313.9 133.74 301.7 121.24 309.6 105.54"/><polygon class="cls-9" points="329.7 102.44 342 115.04 334.1 130.64 321.8 118.14 329.7 102.44"/><polygon class="cls-9" points="293.8 136.84 306 149.44 298.1 165.04 285.9 152.54 293.8 136.84"/><polygon class="cls-9" points="313.9 133.74 326.2 146.34 318.3 161.94 306 149.44 313.9 133.74"/><polygon class="cls-9" points="334.1 130.64 346.3 143.14 338.4 158.84 326.2 146.34 334.1 130.64"/><polygon class="cls-9" points="298.1 165.04 310.4 177.64 302.5 193.24 290.3 180.74 298.1 165.04"/><polygon class="cls-9" points="318.3 161.94 330.5 174.44 322.7 190.14 310.4 177.64 318.3 161.94"/><polygon class="cls-9" points="338.4 158.84 350.7 171.34 342.8 187.04 330.5 174.44 338.4 158.84"/><polygon class="cls-9" points="302.5 193.24 314.8 205.74 306.9 221.44 294.6 208.94 302.5 193.24"/><polygon class="cls-9" points="322.7 190.14 334.9 202.64 327 218.34 314.8 205.74 322.7 190.14"/><polygon class="cls-9" points="306.9 221.44 319.1 233.94 311.2 249.64 299 237.04 306.9 221.44"/><polygon class="cls-9" points="327 218.34 339.3 230.84 331.4 246.54 319.1 233.94 327 218.34"/><polygon class="cls-9" points="170.3 270.64 182.5 283.14 174.6 298.74 162.4 286.24 170.3 270.64"/><polygon class="cls-9" points="190.4 267.44 202.7 280.04 194.8 295.64 182.5 283.14 190.4 267.44"/><polygon class="cls-9" points="210.5 264.34 222.8 276.94 214.9 292.54 202.7 280.04 210.5 264.34"/><polygon class="cls-9" points="230.7 261.24 242.9 273.74 235 289.44 222.8 276.94 230.7 261.24"/><polygon class="cls-9" points="250.8 258.14 263.1 270.64 255.2 286.34 242.9 273.74 250.8 258.14"/><polygon class="cls-9" points="271 255.04 283.2 267.54 275.3 283.24 263.1 270.64 271 255.04"/><polygon class="cls-9" points="291.1 251.94 303.4 264.44 295.5 280.04 283.2 267.54 291.1 251.94"/><polygon class="cls-9" points="174.6 298.74 186.9 311.34 179 326.94 166.7 314.44 174.6 298.74"/><polygon class="cls-9" points="194.8 295.64 207 308.24 199.1 323.84 186.9 311.34 194.8 295.64"/><polygon class="cls-9" points="214.9 292.54 227.2 305.04 219.3 320.74 207 308.24 214.9 292.54"/><polygon class="cls-9" points="235 289.44 247.3 301.94 239.4 317.64 227.2 305.04 235 289.44"/><polygon class="cls-9" points="255.2 286.34 267.4 298.84 259.6 314.54 247.3 301.94 255.2 286.34"/><polygon class="cls-9" points="275.3 283.24 287.6 295.74 279.7 311.34 267.4 298.84 275.3 283.24"/><polygon class="cls-9" points="295.5 280.04 307.7 292.64 299.8 308.24 287.6 295.74 295.5 280.04"/><polygon class="cls-9" points="179 326.94 191.2 339.54 183.3 355.14 171.1 342.64 179 326.94"/><polygon class="cls-9" points="199.1 323.84 211.4 336.34 203.5 352.04 191.2 339.54 199.1 323.84"/><polygon class="cls-9" points="219.3 320.74 231.5 333.24 223.6 348.94 211.4 336.34 219.3 320.74"/><polygon class="cls-9" points="239.4 317.64 251.7 330.14 243.8 345.84 231.5 333.24 239.4 317.64"/><polygon class="cls-9" points="259.6 314.54 271.8 327.04 263.9 342.64 251.7 330.14 259.6 314.54"/><polygon class="cls-9" points="279.7 311.34 292 323.94 284.1 339.54 271.8 327.04 279.7 311.34"/><polygon class="cls-9" points="299.8 308.24 312.1 320.84 304.2 336.44 292 323.94 299.8 308.24"/><polygon class="cls-9" points="183.3 355.14 195.6 367.64 187.7 383.34 175.4 370.84 183.3 355.14"/><polygon class="cls-9" points="203.5 352.04 215.7 364.54 207.8 380.24 195.6 367.64 203.5 352.04"/><polygon class="cls-9" points="223.6 348.94 235.9 361.44 228 377.14 215.7 364.54 223.6 348.94"/><polygon class="cls-9" points="243.8 345.84 256 358.34 248.1 373.94 235.9 361.44 243.8 345.84"/><polygon class="cls-9" points="263.9 342.64 276.2 355.24 268.3 370.84 256 358.34 263.9 342.64"/><polygon class="cls-9" points="284.1 339.54 296.3 352.14 288.4 367.74 276.2 355.24 284.1 339.54"/><polygon class="cls-9" points="304.2 336.44 316.5 348.94 308.6 364.64 296.3 352.14 304.2 336.44"/><polygon class="cls-9" points="187.7 383.34 199.9 395.84 192 411.54 179.8 398.94 187.7 383.34"/><polygon class="cls-9" points="207.8 380.24 220.1 392.74 212.2 408.44 199.9 395.84 207.8 380.24"/><polygon class="cls-9" points="228 377.14 240.2 389.64 232.3 405.24 220.1 392.74 228 377.14"/><polygon class="cls-9" points="248.1 373.94 260.4 386.54 252.5 402.14 240.2 389.64 248.1 373.94"/><polygon class="cls-9" points="268.3 370.84 280.5 383.44 272.6 399.04 260.4 386.54 268.3 370.84"/><polygon class="cls-9" points="288.4 367.74 300.7 380.24 292.8 395.94 280.5 383.44 288.4 367.74"/><polygon class="cls-9" points="308.6 364.64 320.8 377.14 312.9 392.84 300.7 380.24 308.6 364.64"/><polygon class="cls-9" points="311.1 248.94 323.3 261.44 315.5 277.14 303.2 264.54 311.1 248.94"/><polygon class="cls-9" points="331.2 245.84 343.5 258.34 335.6 273.94 323.3 261.44 331.2 245.84"/><polygon class="cls-9" points="315.5 277.14 327.7 289.64 319.8 305.24 307.6 292.74 315.5 277.14"/><polygon class="cls-9" points="335.6 273.94 347.9 286.54 340 302.14 327.7 289.64 335.6 273.94"/><polygon class="cls-9" points="319.8 305.24 332.1 317.84 324.2 333.44 311.9 320.94 319.8 305.24"/><polygon class="cls-9" points="324.2 333.44 336.4 346.04 328.5 361.64 316.3 349.14 324.2 333.44"/><polygon class="cls-9" points="328.5 361.64 340.8 374.14 332.9 389.84 320.6 377.34 328.5 361.64"/></g></g></g><path class="cls-18" d="m141.1,206.14c-2.8,9.1-7.8,17.5-13.9,24.8-8.7,10.4-19.5,18.8-30.3,26.9-1,.7-2,1.5-2.6,2.6-.9,1.5-.8,3.4-.7,5.2,1,18.9-.8,37.9-5.1,56.3-.7,3.1-1.5,6.2-1.6,9.4-.1,3.4.6,7.2-1.2,10.1-.5.7-1.1,1.4-1.4,2.2-1.1,2.8,1.7,5.9.6,8.7-.1.3-.3.5-.4.8h0c-.8,1.2-2,2.2-1.9,3.6,0,.7.5,1.3.9,1.9.6.7,1.3,1.4,1.5,2.3.4,1.6-1,3.1-2.5,3.6-1.6.5-3.2.1-4.8-.2-10.9-2.3-22.2-5.4-32.9-2.5,1.1-2.7,2.2-5.9.9-8.5-.4-.7-.9-1.4-1.1-2.2-.4-1.5.5-2.9,1.3-4.3.6-1.2,1.2-2.3.9-3.6-.1-.4-.3-.8-.5-1.2-.4-.8-1-1.5-1.2-2.4-.4-2.5,2.7-4.1,3.9-6.4,1.2-2.3.3-5.1.1-7.7-.3-3.9.9-7.7,1.4-11.5,1.2-9.4-2.1-19.1.6-28.2.9-3.1,2.5-6,3.4-9.1,1.5-5.5.7-11.4,1.1-17.1.7-11.1,5.7-21.5,10.5-31.5,1.3-2.6,2.5-5.2,4.4-7.3,2.4-2.7,5.6-4.5,8.7-6.2,14.5-7.6,45.9-16.1,62.4-29.4,3.3,5.3.5,17.8-.5,20.9Z"/><g class="cls-25"><g class="cls-24"><g class="cls-27"><polygon class="cls-9" points="171.5 128.64 159.9 141.74 168.6 157.04 180.2 143.84 171.5 128.64"/><polygon class="cls-9" points="151.2 126.54 139.6 139.74 148.3 154.94 159.9 141.74 151.2 126.54"/><polygon class="cls-9" points="130.9 124.44 119.3 137.64 128 152.84 139.6 139.74 130.9 124.44"/><polygon class="cls-9" points="110.6 122.44 99 135.54 107.7 150.74 119.3 137.64 110.6 122.44"/><polygon class="cls-9" points="90.4 120.34 78.8 133.44 87.4 148.64 99 135.54 90.4 120.34"/><polygon class="cls-9" points="70.1 118.24 58.5 131.34 67.2 146.64 78.8 133.44 70.1 118.24"/><polygon class="cls-9" points="49.8 116.14 38.2 129.34 46.9 144.54 58.5 131.34 49.8 116.14"/><polygon class="cls-9" points="168.6 157.04 157 170.14 165.7 185.34 177.3 172.24 168.6 157.04"/><polygon class="cls-9" points="148.3 154.94 136.7 168.04 145.4 183.24 157 170.14 148.3 154.94"/><polygon class="cls-9" points="128 152.84 116.4 165.94 125.1 181.24 136.7 168.04 128 152.84"/><polygon class="cls-9" points="107.7 150.74 96.1 163.94 104.8 179.14 116.4 165.94 107.7 150.74"/><polygon class="cls-9" points="87.4 148.64 75.9 161.84 84.5 177.04 96.1 163.94 87.4 148.64"/><polygon class="cls-9" points="67.2 146.64 55.6 159.74 64.3 174.94 75.9 161.84 67.2 146.64"/><polygon class="cls-9" points="46.9 144.54 35.3 157.64 44 172.94 55.6 159.74 46.9 144.54"/><polygon class="cls-9" points="165.7 185.34 154.1 198.54 162.8 213.74 174.3 200.54 165.7 185.34"/><polygon class="cls-9" points="145.4 183.24 133.8 196.44 142.5 211.64 154.1 198.54 145.4 183.24"/><polygon class="cls-9" points="125.1 181.24 113.5 194.34 122.2 209.54 133.8 196.44 125.1 181.24"/><polygon class="cls-9" points="104.8 179.14 93.2 192.24 101.9 207.54 113.5 194.34 104.8 179.14"/><polygon class="cls-9" points="84.5 177.04 72.9 190.24 81.6 205.44 93.2 192.24 84.5 177.04"/><polygon class="cls-9" points="64.3 174.94 52.7 188.14 61.4 203.34 72.9 190.24 64.3 174.94"/><polygon class="cls-9" points="44 172.94 32.4 186.04 41.1 201.24 52.7 188.14 44 172.94"/><polygon class="cls-9" points="162.8 213.74 151.2 226.84 159.8 242.14 171.4 228.94 162.8 213.74"/><polygon class="cls-9" points="142.5 211.64 130.9 224.84 139.6 240.04 151.2 226.84 142.5 211.64"/><polygon class="cls-9" points="122.2 209.54 110.6 222.74 119.3 237.94 130.9 224.84 122.2 209.54"/><polygon class="cls-9" points="101.9 207.54 90.3 220.64 99 235.84 110.6 222.74 101.9 207.54"/><polygon class="cls-9" points="81.6 205.44 70 218.54 78.7 233.84 90.3 220.64 81.6 205.44"/><polygon class="cls-9" points="61.4 203.34 49.8 216.54 58.4 231.74 70 218.54 61.4 203.34"/><polygon class="cls-9" points="41.1 201.24 29.5 214.44 38.2 229.64 49.8 216.54 41.1 201.24"/><polygon class="cls-9" points="159.8 242.14 148.3 255.24 156.9 270.44 168.5 257.34 159.8 242.14"/><polygon class="cls-9" points="139.6 240.04 128 253.14 136.7 268.44 148.3 255.24 139.6 240.04"/><polygon class="cls-9" points="119.3 237.94 107.7 251.14 116.4 266.34 128 253.14 119.3 237.94"/><polygon class="cls-9" points="99 235.84 87.4 249.04 96.1 264.24 107.7 251.14 99 235.84"/><polygon class="cls-9" points="78.7 233.84 67.1 246.94 75.8 262.14 87.4 249.04 78.7 233.84"/><polygon class="cls-9" points="58.4 231.74 46.9 244.84 55.5 260.04 67.1 246.94 58.4 231.74"/><polygon class="cls-9" points="38.2 229.64 26.6 242.74 35.3 258.04 46.9 244.84 38.2 229.64"/><polygon class="cls-9" points="29.7 114.24 18.1 127.34 26.8 142.54 38.4 129.44 29.7 114.24"/><polygon class="cls-9" points="9.4 112.14 -2.2 125.24 6.5 140.54 18.1 127.34 9.4 112.14"/><polygon class="cls-9" points="26.8 142.54 15.2 155.74 23.9 170.94 35.5 157.84 26.8 142.54"/><polygon class="cls-9" points="6.5 140.54 -5.1 153.64 3.6 168.84 15.2 155.74 6.5 140.54"/><polygon class="cls-9" points="23.9 170.94 12.3 184.04 21 199.34 32.6 186.14 23.9 170.94"/><polygon class="cls-9" points="3.6 168.84 -8 182.04 .7 197.24 12.3 184.04 3.6 168.84"/><polygon class="cls-9" points="21 199.34 9.4 212.44 18.1 227.64 29.7 214.54 21 199.34"/><polygon class="cls-9" points=".7 197.24 -10.9 210.34 -2.2 225.64 9.4 212.44 .7 197.24"/><polygon class="cls-9" points="18.1 227.64 6.5 240.84 15.2 256.04 26.8 242.94 18.1 227.64"/><polygon class="cls-9" points="-2.2 225.64 -13.8 238.74 -5.1 253.94 6.5 240.84 -2.2 225.64"/><polygon class="cls-9" points="157 269.74 145.4 282.94 154.1 298.14 165.7 285.04 157 269.74"/><polygon class="cls-9" points="136.8 267.74 125.2 280.84 133.8 296.04 145.4 282.94 136.8 267.74"/><polygon class="cls-9" points="116.5 265.64 104.9 278.74 113.6 293.94 125.2 280.84 116.5 265.64"/><polygon class="cls-9" points="96.2 263.54 84.6 276.64 93.3 291.94 104.9 278.74 96.2 263.54"/><polygon class="cls-9" points="75.9 261.44 64.3 274.64 73 289.84 84.6 276.64 75.9 261.44"/><polygon class="cls-9" points="55.6 259.34 44 272.54 52.7 287.74 64.3 274.64 55.6 259.34"/><polygon class="cls-9" points="35.4 257.34 23.8 270.44 32.4 285.64 44 272.54 35.4 257.34"/><polygon class="cls-9" points="154.1 298.14 142.5 311.24 151.2 326.54 162.8 313.34 154.1 298.14"/><polygon class="cls-9" points="133.8 296.04 122.3 309.24 130.9 324.44 142.5 311.24 133.8 296.04"/><polygon class="cls-9" points="113.6 293.94 102 307.14 110.7 322.34 122.3 309.24 113.6 293.94"/><polygon class="cls-9" points="93.3 291.94 81.7 305.04 90.4 320.24 102 307.14 93.3 291.94"/><polygon class="cls-9" points="73 289.84 61.4 302.94 70.1 318.24 81.7 305.04 73 289.84"/><polygon class="cls-9" points="52.7 287.74 41.1 300.94 49.8 316.14 61.4 302.94 52.7 287.74"/><polygon class="cls-9" points="32.4 285.64 20.9 298.84 29.5 314.04 41.1 300.94 32.4 285.64"/><polygon class="cls-9" points="151.2 326.54 139.6 339.64 148.3 354.84 159.9 341.74 151.2 326.54"/><polygon class="cls-9" points="130.9 324.44 119.3 337.54 128 352.84 139.6 339.64 130.9 324.44"/><polygon class="cls-9" points="110.7 322.34 99.1 335.54 107.8 350.74 119.3 337.54 110.7 322.34"/><polygon class="cls-9" points="90.4 320.24 78.8 333.44 87.5 348.64 99.1 335.54 90.4 320.24"/><polygon class="cls-9" points="70.1 318.24 58.5 331.34 67.2 346.54 78.8 333.44 70.1 318.24"/><polygon class="cls-9" points="49.8 316.14 38.2 329.24 46.9 344.54 58.5 331.34 49.8 316.14"/><polygon class="cls-9" points="29.5 314.04 17.9 327.14 26.6 342.44 38.2 329.24 29.5 314.04"/><polygon class="cls-9" points="148.3 354.84 136.7 368.04 145.4 383.24 157 370.14 148.3 354.84"/><polygon class="cls-9" points="128 352.84 116.4 365.94 125.1 381.14 136.7 368.04 128 352.84"/><polygon class="cls-9" points="107.8 350.74 96.2 363.84 104.8 379.14 116.4 365.94 107.8 350.74"/><polygon class="cls-9" points="87.5 348.64 75.9 361.84 84.6 377.04 96.2 363.84 87.5 348.64"/><polygon class="cls-9" points="67.2 346.54 55.6 359.74 64.3 374.94 75.9 361.84 67.2 346.54"/><polygon class="cls-9" points="46.9 344.54 35.3 357.64 44 372.84 55.6 359.74 46.9 344.54"/><polygon class="cls-9" points="26.6 342.44 15 355.54 23.7 370.74 35.3 357.64 26.6 342.44"/><polygon class="cls-9" points="145.4 383.24 133.8 396.44 142.5 411.64 154.1 398.44 145.4 383.24"/><polygon class="cls-9" points="125.1 381.14 113.5 394.34 122.2 409.54 133.8 396.44 125.1 381.14"/><polygon class="cls-9" points="104.8 379.14 93.3 392.24 101.9 407.44 113.5 394.34 104.8 379.14"/><polygon class="cls-9" points="84.6 377.04 73 390.14 81.7 405.34 93.3 392.24 84.6 377.04"/><polygon class="cls-9" points="64.3 374.94 52.7 388.04 61.4 403.34 73 390.14 64.3 374.94"/><polygon class="cls-9" points="44 372.84 32.4 386.04 41.1 401.24 52.7 388.04 44 372.84"/><polygon class="cls-9" points="23.7 370.74 12.1 383.94 20.8 399.14 32.4 386.04 23.7 370.74"/><polygon class="cls-9" points="15.3 255.34 3.7 268.54 12.4 283.74 24 270.54 15.3 255.34"/><polygon class="cls-9" points="-5 253.24 -16.6 266.44 -7.9 281.64 3.7 268.54 -5 253.24"/><polygon class="cls-9" points="12.4 283.74 .8 296.84 9.5 312.04 21 298.94 12.4 283.74"/><polygon class="cls-9" points="-7.9 281.64 -19.5 294.74 -10.8 310.04 .8 296.84 -7.9 281.64"/><polygon class="cls-9" points="9.5 312.04 -2.1 325.24 6.5 340.44 18.1 327.34 9.5 312.04"/><polygon class="cls-9" points="6.5 340.44 -5 353.64 3.6 368.84 15.2 355.64 6.5 340.44"/><polygon class="cls-9" points="3.6 368.84 -8 381.94 .7 397.24 12.3 384.04 3.6 368.84"/></g></g></g><path class="cls-20" d="m160.1,66.34c-.5-.1-6.8,7.9-7.5,15-.1,1.1-.3,1.3-1.4,1.4-1.2.1-2.4.3-3.6.6-2.3.7-4.5,1.8-6.5,3.3-4.8,3.6-8.7,9-10.9,14.6-3.6,9-5,17.9-5.8,27.4-.9,11-3,22.1-3.3,33.2-.4,15.3,1.1,30.9,7.5,45,2.7,6,7.2,11,10.1,16.7.2.3.3.7.5,1,2,4.2,1.8,10.1-.4,14.2-3,5.5-9.7,8.6-15.9,8.3-2.6-.2-5.1-1.2-7.2-2.8-2.9-2.3-4.8-5.7-4.6-9.4.1-1.7.7-3.5,2.2-4.3s3.8.3,3.6,2c-.1.7-.5,1.3-.3,1.9.1.3.4.5.7.5.6.1,1.3-.2,1.6-.8.3-.6.2-1.4,0-2-.1-.3-.1-.5-.2-.7-5.8-17.6-8.9-35.4-7.5-54,1.4-18.2,5.7-36,8.1-54,.9-6.8.4-13.8,1.4-20.6,1.4-9.7,5.8-19.3,12.9-26.2,5.7-5.4,12.9-9,20.6-10.5,1.7-.5,4.2-.3,5.9.2Z"/><path class="cls-20" d="m228,240.64c-4.4,4.6-17.3,11-29.9,8.6-3.3-.6-6.5-1.9-9.6-3.9-8.5-5.6-10.9-17.8-7.8-26.9.1-.4.3-.8.4-1.2,3.3-8,5-17,4.6-25.6-.4-8.5-2.4-16.8-2.9-25.3-.4-6.3-1-12.5-1.4-18.8-.6-9.1-.2-18.1.1-27.2.3-9.3-1.1-19-5.9-27.2-2.2-3.9-6.3-8.1-10.6-9.6-4-1.3-11.7-.5-12.1-1.3-.4-.8-.1-6.7,5.1-13.8,5.2-7.1,13.4-3.5,19.2-2.5,5.6.9,10.8,4.5,15.3,8.3,8.5,7.1,14.2,16.9,15,27.7.9,12.2,0,25,2.7,36.9,2.8,12.5,7.4,24.4,10.8,36.7,3.1,11.1,5.4,22.7-.3,33.4-1.1,2-2.4,3.9-4,5.4-1.2,1.1-4.6,7.3-.7,10.1.5.4,1.1.6,1.7.7,2.2.5,4.8-.4,5.4-2.6.4-1.2-.2-2.8-1.4-3.1-1-.2-2.3.4-3-.3-.2-.2-.4-.6-.4-.9-.2-3.6,3.3-6.5,6.7-6.4,3.7.1,6.7,3.8,7.7,7.1,2.1,7,.4,16.4-4.7,21.7Z"/><g class="cls-26"><path class="cls-21" d="m212.5,220.84c-2.5,0-4.3-1.1-5.1-1.6.3.5,1.7,3,4.6,3.8,1.2.3,2.2.2,2.9.1-.4.3-3.6,2.5-7.3,1.2-2.5-.8-3.8-2.7-4.2-3.3,0,.1-.8,3.2,1.2,5.2,1.8,1.8,5.2,1.9,7.6-.1-.3.3-4,3.7-9.1,2.7-4.6-.9-6.8-4.7-7-5.2-.7,3,.5,6.1,3,7.9,2.4,1.6,5.4,1.7,7.9.2-3.3,3.3-8.2,4.5-12.4,2.9-4.8-1.8-6.5-7.9-7-7.6-.4.2,1.1,5.9,5.2,11.3,1.7,2.2,3.5,3.9,5.2,5.4-3.3-.6-6.5-1.9-9.6-3.9-8.5-5.6-10.9-17.8-7.8-26.9,2.2-2.1,4.7-2.7,6.9-6.4,3.3-5.5,2.3-11.4,2.7-11.4s1,4.8.2,10.4c-.4,2.9-1.1,5.3-1.7,7,1.1-1.2,3.7-4.2,4.5-8.7.4-2.5.1-4.6-.2-6,.7,1.7,1.7,4.7,1.3,8.6-.2,2-.7,3.6-1.2,4.8,1.9-2,5-5.8,6.7-11.4,2.9-9.7-.4-17.9-1.5-20.3-.3-.8,6,7.4,6,17.2,0,4.7-1.2,8.6-2.3,11.2,1.1-1.2,3.4-3.9,4.5-8.1,1.1-4.3.2-7.9-.2-9.5.9,1.8,2.2,5.2,2.2,9.7,0,3.8-1,6.8-1.7,8.5,2.6-1.6,4.2-3.4,5.2-4.9,6.9-10.3-.9-24.6-1.4-25.3,1.9,2.1,6,7.1,7.4,14.8,1.2,6.4,0,12-1.4,15.7-1.2,1.1-4.7,7.3-.7,10.1.5.3,1.1.6,1.7.7-1.3.5-3.1,1.2-5.1,1.2Z"/></g><g class="cls-26"><path class="cls-21" d="m138.7,232.74c-3,5.5-9.7,8.6-15.9,8.3-2.6-.2-5.1-1.2-7.2-2.8,1.1.2,2.5.3,3.9,0,.6-.1,1.1-.3,1.6-.5-.6.1-2.7.2-4.7-1.2-1.4-1-2.1-2.2-2.4-2.8.2.2,1.2,1.1,2.7,1,1.3-.1,2.5-1,3.1-2.4-2.4.9-4.7,0-5.6-1.7-.8-1.6.1-3.3.2-3.5.1,1.6,1.1,2.6,1.8,2.6.3,0,.6-.3.9-.7.6.1,1.3-.2,1.6-.8.3-.6.2-1.4,0-2,2.3-1.5,3.6-4,3.3-6.3-.3-2.6-2.4-4-2.8-4.3.7.3,3.7,1.8,5.1,5.4,1.5,3.9,0,7.4-.3,7.9.7-.5,2.2-1.6,3.2-3.8,1.2-2.7.6-5.2.4-5.9.5.8,2.2,3.7,1.7,7.6-.4,2.6-1.7,4.5-2.3,5.3.8-.3,3-1.1,4.6-3.5,1.3-1.9,1.5-3.7,1.6-4.6.2,1,.7,3.1-.1,5.7-.5,1.7-1.4,2.9-2,3.6,2.2-.5,3.7-1.5,4.5-2.3,3.1-2.9,4.2-7.8,3.1-13.4.2.3.3.7.5,1,1.9,4.1,1.7,10.1-.5,14.1Z"/></g></svg>