<?xml version="1.0" encoding="utf-8"?>
<!-- Generator: Adobe Illustrator 27.4.0, SVG Export Plug-In . SVG Version: 6.00 Build 0)  -->
<svg version="1.1" id="Layer_1" xmlns="http://www.w3.org/2000/svg" xmlns:xlink="http://www.w3.org/1999/xlink" x="0px" y="0px"
	 viewBox="0 0 264 214" style="enable-background:new 0 0 264 214;" xml:space="preserve">
<style type="text/css">
	.st0{fill:#CCE7FF;}
	.st1{fill:#FFFFFF;}
	.st2{fill:#75431B;}
	.st3{fill:#729FCC;}
	.st4{fill:#F2DCC9;}
	.st5{opacity:0.7;}
	.st6{fill:#E6C6AA;}
	.st7{fill:#A87171;}
	.st8{fill:#A85454;}
	.st9{fill:#9B5924;}
	.st10{fill:#93C8FD;}
	.st11{fill:#1A293F;}
	.st12{fill:#4485C7;}
	.st13{fill:#10161C;}
	.st14{fill:#202C38;}
	.st15{fill:#DEB592;}
	.st16{clip-path:url(#SVGID_00000173867300916153460100000006215104739640939414_);}
	.st17{fill:#D1E7FD;}
	.st18{fill:#F9F9F9;}
	.st19{fill:#B59A6E;}
	.st20{fill:#CFD5E0;}
	.st21{opacity:0.58;}
	.st22{opacity:0.8;clip-path:url(#SVGID_00000139981054228733125730000003658751904959905675_);}
	.st23{opacity:0.8;clip-path:url(#SVGID_00000174562221711800951650000006456140620503936649_);}
	.st24{opacity:0.55;}
</style>
<path class="st0" d="M75,0h189v217H95L75,0z"/>
<g>
	<g>
		<path class="st1" d="M240.8,298.5c0.4-1.4-0.4-2.7-1.1-4.1c-0.3-0.6-0.6-1.3-0.8-2c-0.1-0.3-0.1-0.5-0.1-0.8c0-0.2,0-0.4,0.1-0.7
			c0.1-0.4,0.3-0.7,0.5-1.1c0.4-0.7,1-1.4,1.1-2.3c0.4-2.4-2.5-3.9-3.6-6.1c-1.1-2.2-0.2-4.8,0-7.2c0.3-2.9-0.4-5.8-0.8-8.6
			c-0.1-0.3-0.1-0.7-0.2-1c-0.1-0.4-0.1-0.9-0.2-1.3c-0.8-7.4,1.3-15,0.7-22.3c-0.1-1.5-0.4-2.9-0.7-4.3c-0.1-0.2-0.1-0.5-0.2-0.7
			c-0.8-2.7-2.1-5.2-2.8-8c-1.3-5.2-0.5-10.7-0.7-16.1c-0.3-7.3-2.6-14.4-5.5-21.2c-1.2-2.9-2.6-5.8-3.9-8.7c-1.1-2.4-2.3-4.9-4-7
			c-0.2-0.2-0.4-0.4-0.6-0.6c-2.1-2.3-4.8-3.9-7.6-5.4c-1.7-0.9-3.6-1.9-5.7-2.8c-3.9-1.8-8.5-3.7-13.3-5.6
			c3.6-9.3,1.5-19.1-1.1-28.6c-3.2-11.6-7.6-22.9-10.2-34.6c-2.5-11.3-1.7-23.4-2.5-34.8c-0.7-10.2-6.1-19.4-14.1-26.1
			c-4.2-3.6-9.1-7-14.4-7.8c-5.3-0.8-12.5-4-17.5,1.6c0.6-0.8,1.1-1.2,1.2-1.2c-1.6-0.4-4-0.6-5.5-0.3c-7.3,1.4-14,4.7-19.4,9.9
			c-6.8,6.5-10.8,15.5-12.2,24.7c-0.9,6.4-0.5,13-1.3,19.4c-2.3,17-6.4,33.8-7.7,51c-0.6,7.7-0.3,15.3,0.6,22.8
			c-2.2,0.9-4.4,1.8-6.5,2.6c-1.2,0.5-2.5,1-3.7,1.4c-5.3,2.1-10.4,4-14.7,5.9c-2.1,0.9-4.1,1.8-5.8,2.7c-2.8,1.4-5.5,3-7.7,5.2
			c-0.2,0.2-0.4,0.4-0.6,0.6c-1.8,2-3,4.5-4.2,6.9c-1.4,2.8-2.8,5.7-4.1,8.6c-3,6.8-5.4,13.8-5.9,21.1c-0.3,5.4,0.4,10.9-1,16.1
			c-0.8,2.7-2.1,5.2-2.9,7.9c-0.1,0.2-0.2,0.5-0.2,0.7c-0.4,1.4-0.7,2.9-0.8,4.3c-0.8,7.3,1.2,14.9,0.3,22.3
			c-0.1,0.4-0.1,0.9-0.2,1.3c-0.1,0.3-0.1,0.7-0.2,1c-0.5,2.9-1.2,5.7-1,8.6c0.2,2.4,1,5.1-0.1,7.2c-1.1,2.1-4.1,3.6-3.7,6
			c0.1,0.8,0.7,1.5,1.1,2.3c0.2,0.3,0.4,0.7,0.4,1.1c0,0.2,0.1,0.4,0.1,0.7c0,0.3,0,0.5-0.1,0.8c-0.2,0.7-0.5,1.3-0.8,1.9
			c-0.7,1.3-1.5,2.6-1.2,4c0.2,0.8,0.7,1.4,1.1,2.1c1.3,2.5,0.2,5.4-0.9,8c3.1-0.8,6.3-1.1,9.5-1.1c0.5,0,0.9,0,1.4,0
			c5.7,0.2,11.4,1.5,17,2.7c1,0.2,1.9,0.4,2.9,0.6c0.1,0,0.2,0,0.2,0.1c1.5,0.3,3.1,0.6,4.6,0.2c1.5-0.4,2.7-1.9,2.4-3.4
			c-0.2-0.8-0.8-1.5-1.4-2.2c-0.5-0.6-0.8-1.1-0.9-1.8c-0.1-1.3,1-2.2,1.8-3.4l0,0c0.2-0.2,0.3-0.5,0.4-0.8c0.1-0.3,0.2-0.6,0.2-1
			c0.2-2.4-1.7-4.9-0.8-7.2c0-0.1,0.1-0.2,0.2-0.3c0.3-0.6,0.8-1.2,1.2-1.8c1.7-2.8,1.1-6.3,1.1-9.5c0.1-2.8,0.7-5.5,1.4-8.3
			c0.1-0.2,0.1-0.4,0.2-0.6c0.3-1.1,0.5-2.2,0.7-3.3c0.1-0.3,0.1-0.7,0.2-1c0.6,1.6,1,3.1,1.3,4.5c6.9,30.1,12.3,32.9,2.9,62.3
			c4.4,0.2,8.7,1.4,12.6,3.5c2.6,1.4,5,3.3,7.8,4.4c0.6,0.2,1.3,0.5,1.9,0.6c0.5,2.7,13.3,1.8,17.3,1.5c0.5,0,0.9-0.2,1.2-0.5
			c0.3-0.1,0.5-0.3,0.7-0.5c0.9-0.9,1.1-2.3,1.2-3.6c0.4-5.2-0.6-10.5,0.4-15.6c0.5-2.7,1.6-5.3,2.6-7.8c3.1-0.2,6.1-0.5,9.2-0.6
			c8.9-0.2,17.5,1.5,26.2,2.8c0.6,1.7,1.2,3.4,1.6,5.2c1,5.1,0,10.4,0.4,15.6c0.1,1.3,0.3,2.7,1.2,3.6c0.2,0.2,0.4,0.4,0.7,0.5
			c0.3,0.3,0.7,0.5,1.2,0.5c4,0.3,16.9,1.2,17.3-1.5c0.7-0.2,1.3-0.4,1.9-0.6c2.8-1.1,5.2-3,7.8-4.4c3.8-2.1,8.2-3.3,12.6-3.5
			c-6.2-19.4-1.2-31.5,4.9-46.1c0.2,0.7,0.4,1.5,0.8,2.2c0.4,0.6,0.8,1.2,1.1,1.8c0.1,0.1,0.1,0.2,0.1,0.3c0.8,2.3-1.1,4.9-0.9,7.2
			c0,0.3,0.1,0.7,0.2,1c0.1,0.3,0.2,0.5,0.4,0.8l0,0c0.7,1.1,1.8,2.1,1.7,3.4c-0.1,0.7-0.5,1.3-0.9,1.8c-0.6,0.7-1.2,1.3-1.4,2.2
			c-0.4,1.5,0.9,3,2.3,3.4c1.5,0.5,3,0.2,4.6-0.1c0.1,0,0.2,0,0.2,0c1-0.2,1.9-0.4,2.9-0.6c5.7-1.1,11.4-2.3,17.1-2.4
			c0.5,0,0.9,0,1.4,0c3.2,0,6.4,0.4,9.5,1.3c-1-2.6-2-5.6-0.7-8C240.1,299.9,240.6,299.3,240.8,298.5z"/>
		<path class="st1" d="M101.5,353c-0.5,0-1.1,0-1.6,0c-2.8-0.1-5-0.3-6.9-0.7c-2.4-0.5-4.2-1.4-5.6-2.4c-0.1,0-0.2-0.1-0.2-0.1
			c-2.5-1-4.6-2.3-6.5-3.5c-0.8-0.5-1.6-1-2.3-1.4c-2.5-1.4-5.4-2.2-8.3-2.3L57.3,342l3.9-12.2c1.3-4.1,2.3-7.6,3.1-10.7
			c-0.6,0.3-1.3,0.5-1.9,0.7c-3.9,1.2-7.5,0.4-9.4,0l-0.3-0.1c-0.9-0.2-1.9-0.4-2.8-0.6l-0.1,0c-5.1-1.1-10.4-2.3-15.4-2.5
			c-0.4,0-0.7,0-1.1,0c-2.6,0-4.8,0.2-6.9,0.8l-19,5.1l7.5-18.2c0.2-0.5,0.3-0.8,0.4-1.1c-0.4-0.7-0.8-1.7-1.1-2.8c-1-3.8,0-7,1-9.1
			c-0.3-0.7-0.5-1.6-0.7-2.5c-0.9-5.7,2.2-9.6,4.1-11.6c0,0,0-0.1,0-0.1c-0.1-0.7-0.2-1.5-0.3-2.3c-0.3-3.8,0.4-7.2,0.9-10
			c0.1-0.4,0.2-0.8,0.2-1.2c0.1-0.3,0.1-0.6,0.1-0.8c0.1-0.3,0.1-0.6,0.1-0.9c0.4-2.8,0.1-6.1-0.2-9.6c-0.3-4-0.6-8.1-0.2-12.5
			c0.2-2.2,0.6-4.1,1.2-6.1c0.1-0.3,0.2-0.6,0.3-0.9l0-0.1c0.5-1.5,1.1-2.9,1.6-4.1c0.5-1.2,1-2.4,1.2-3.4c0.6-2.2,0.6-5,0.6-8.1
			c0-1.9,0-3.9,0.1-6c0.6-9.6,3.9-18.1,6.7-24.4c1.3-3,2.8-6,4.2-9c1.3-2.7,2.9-6,5.6-9c0.3-0.4,0.6-0.7,0.8-0.9l0.1-0.1
			c3.1-3.1,6.7-5.2,10.1-7c1.8-1,3.9-1.9,6.5-3c4-1.7,8.5-3.5,13.3-5.4l1.7-0.6c1.1-0.4,2.3-0.9,3.4-1.3c-0.4-5.8-0.3-11.6,0.1-17.2
			c0.8-10.8,2.7-21.4,4.5-31.7c1.2-6.5,2.4-13.3,3.2-19.8c0.4-2.6,0.4-5.5,0.6-8.5c0.1-3.6,0.2-7.3,0.8-11.1
			c1.8-11.9,7.1-22.7,15.1-30.3c6.6-6.3,15-10.6,24.3-12.4c1.8-0.3,3.6-0.4,5.4-0.3c6.4-2.8,13.1-1.3,17.3-0.4
			c0.9,0.2,1.8,0.4,2.5,0.5c7.9,1.2,14.4,6,19.1,10c10.5,8.8,16.7,20.4,17.6,32.9c0.3,4,0.4,8.1,0.5,12c0.2,7.6,0.4,14.8,1.8,21.4
			c1.5,6.6,3.5,13,5.7,19.9c1.5,4.6,3,9.4,4.4,14.3c2.1,7.7,4.1,16.3,3.1,25.3c2.1,0.9,4.1,1.8,6,2.6c2.5,1.1,4.6,2.2,6.4,3.2
			c3.4,1.9,7,4,10,7.2l0.1,0.1c0.2,0.2,0.5,0.5,0.8,0.9c2.6,3.1,4.2,6.4,5.4,9.1c1.4,3,2.8,6,4.1,9c2.7,6.4,5.8,15,6.2,24.6
			c0.1,2.1,0,4.1,0,6c-0.1,3-0.1,5.9,0.4,8.1c0.2,0.9,0.7,2.1,1.2,3.4c0.5,1.2,1,2.6,1.5,4.2l0,0.1c0.1,0.3,0.2,0.6,0.3,0.9
			c0.5,1.9,0.9,3.9,1,6.1c0.4,4.4,0,8.5-0.4,12.5c-0.3,3.5-0.6,6.7-0.3,9.6c0,0.3,0.1,0.6,0.1,0.9c0,0.3,0.1,0.5,0.1,0.8
			c0.1,0.4,0.1,0.8,0.2,1.2c0.5,2.8,1.1,6.2,0.7,10c-0.1,0.9-0.2,1.6-0.3,2.3c0,0,0,0.1,0,0.1c1.8,2,4.9,6,3.8,11.7
			c-0.2,0.9-0.4,1.8-0.7,2.5c1,2.2,1.9,5.4,0.8,9.2c-0.3,1.1-0.7,2-1.1,2.7c0.1,0.3,0.2,0.7,0.4,1.1l7.2,18.3l-18.9-5.4
			c-2-0.6-4.3-0.9-6.8-0.9c-0.4,0-0.7,0-1.1,0c-4.9,0.1-10.3,1.2-15.4,2.2c-1,0.2-2,0.4-3,0.6l-0.3,0.1c-1.6,0.3-4.5,0.9-7.6,0.2
			c0.3,2.9,1,6,2.1,9.3l3.9,12.2l-12.8,0.5c-2.9,0.1-5.8,0.9-8.3,2.3c-0.7,0.4-1.5,0.9-2.3,1.4c-1.8,1.2-3.9,2.5-6.5,3.5
			c-0.1,0-0.2,0.1-0.2,0.1c-1.4,1-3.2,1.9-5.6,2.4c-1.8,0.4-4.1,0.6-6.9,0.7c-4.5,0.1-9.3-0.3-10.9-0.4c-2.1-0.2-4-0.8-5.7-2
			c-0.9-0.5-1.6-1.1-2.3-1.8c-3.6-3.6-3.9-8.2-4-9.8c-0.2-2.6-0.1-5.1,0-7.4c0.1-2,0.1-3.9,0-5.5c-6.3-1-12.3-1.9-18.2-1.7
			c-0.8,0-1.6,0.1-2.4,0.1c0,0.2-0.1,0.3-0.1,0.5c-0.4,2-0.3,4.5-0.2,7.1c0.1,2.2,0.1,4.8,0,7.4c-0.1,1.5-0.4,6.2-4,9.8
			c-0.7,0.7-1.5,1.3-2.3,1.8c-1.7,1.2-3.7,1.8-5.8,2C109.4,352.7,105.4,353,101.5,353z M101.2,333.6c0.7,0,1.4,0,2.3,0
			c0-0.4,0-0.9,0-1.3c-0.1-3.4-0.2-7.3,0.6-11.4c0.7-3.4,1.8-6.4,2.8-9l2.4-6.3l6.1-0.4c0.9-0.1,1.7-0.1,2.6-0.2
			c2.3-0.2,4.6-0.4,7.1-0.4c8.2-0.2,15.9,1,23.3,2.2c1.5,0.2,3.1,0.5,4.6,0.7l5.7,0.9l2,5.4c0.7,1.8,1.5,4.1,2,6.8
			c0.8,4.1,0.7,8,0.6,11.4c0,0.4,0,0.9,0,1.3c0.9,0,1.6,0,2.3,0l0-0.2l6.2-1.5c0.2,0,0.3-0.1,0.5-0.2c1-0.4,2.2-1.2,3.5-2
			c1-0.6,2.1-1.3,3.3-2c1.7-0.9,3.5-1.8,5.4-2.4c-2.8-17.1,2.3-29.4,7.8-42.4l11.8-28.2l6.6,29.4c0.4,0.5,0.9,1.3,1.3,2.3
			c0.1,0.2,0.3,0.7,0.5,1.3c1.3,3.6,0.7,6.9,0.1,9c0.5,0.8,1,1.9,1.4,3.1c4.8-0.9,10-1.8,15.3-1.9c0.4,0,0.7,0,1.1,0c0,0,0,0,0,0
			c-0.4-0.8-0.7-1.8-1-2.9c-0.2-1-0.3-1.9-0.3-2.9c0-1,0.1-2,0.3-2.9c0.1-0.2,0.1-0.4,0.2-0.6c-0.5-0.6-0.9-1.4-1.3-2.2
			c-2.3-4.5-1.6-8.8-1.2-11.4c0.1-0.5,0.1-0.9,0.2-1.2c0.1-1.1-0.2-2.9-0.5-4.7c-0.1-0.5-0.2-0.9-0.2-1.4c-0.1-0.4-0.1-0.8-0.2-1.2
			c-0.1-0.6-0.2-1.1-0.2-1.6c-0.5-4.8-0.1-9.4,0.3-13.5c0.3-3.3,0.6-6.3,0.4-9c-0.1-1-0.2-1.8-0.4-2.6c0-0.1-0.1-0.2-0.1-0.3l0-0.1
			c-0.3-0.8-0.6-1.8-1-2.8c-0.6-1.6-1.3-3.5-1.9-5.6c-1.2-4.8-1.1-9.4-1-13.4c0-1.7,0.1-3.3,0-4.7c-0.2-5.1-1.7-10.6-4.7-17.8
			c-1.1-2.7-2.4-5.4-3.8-8.4c-0.9-1.9-1.7-3.7-2.6-4.8c0,0-0.1-0.1-0.1-0.1l-0.1-0.1c-1.2-1.3-3.3-2.5-5.2-3.5
			c-1.4-0.7-3-1.6-5.1-2.5c-3.6-1.7-8-3.4-12.6-5.3l-9.2-3.8l3.4-8.9c2.3-6.1,1.2-13.1-1.4-22.5c-1.2-4.5-2.6-8.9-4.1-13.5
			c-2.2-6.9-4.5-14.1-6.2-21.6c-1.9-8.5-2.1-17-2.3-25.2c-0.1-3.9-0.2-7.5-0.4-11.1c-0.5-7.1-4.3-14-10.7-19.4
			c-2.6-2.2-6.5-5.2-9.7-5.7c-1.3-0.2-2.5-0.5-3.7-0.7c-1.6-0.4-4.3-1-5.2-0.7c0.1,0,0.1-0.1,0.2-0.1l0,0c0.1-0.1,0.2-0.2,0.4-0.3
			l-6.8-5.5l-0.1,0.3l0,0l-2,7.4c-0.3-0.1-1-0.1-1.4-0.1c-5.5,1.1-10.5,3.6-14.4,7.3c-4.9,4.7-8.2,11.4-9.3,19.1
			c-0.4,2.8-0.5,5.8-0.6,8.9c-0.1,3.3-0.2,6.8-0.7,10.4c-0.9,7-2.2,13.9-3.4,20.7c-1.8,10.2-3.5,19.9-4.3,29.8
			c-0.5,6.9-0.4,13.7,0.5,20.9l0.9,7.4l-6.9,2.8c-2,0.8-4.1,1.7-6.7,2.7c-1.3,0.5-2.5,1-3.7,1.5l-1.7,0.6c-4.6,1.8-9,3.5-12.7,5.1
			c-2.1,0.9-3.8,1.7-5.1,2.4c-1.9,1-4,2.1-5.2,3.4l-0.1,0.1c0,0-0.1,0.1-0.1,0.1c-0.9,1.1-1.8,2.8-2.7,4.7c-1.4,2.8-2.7,5.6-3.9,8.3
			c-3.2,7.2-4.8,12.7-5.1,17.7c-0.1,1.5-0.1,3.1-0.1,4.7c0,4,0,8.6-1.3,13.4c-0.6,2.1-1.3,3.9-2,5.5c-0.4,1-0.8,2-1.1,2.8l0,0.1
			c0,0.1-0.1,0.2-0.1,0.3c-0.2,0.8-0.4,1.6-0.5,2.6c-0.3,2.7,0,5.7,0.2,9c0.3,4.1,0.7,8.7,0.1,13.5c-0.1,0.6-0.2,1.1-0.2,1.6
			c-0.1,0.4-0.1,0.8-0.2,1.2c-0.1,0.5-0.2,0.9-0.3,1.4c-0.4,1.8-0.7,3.6-0.6,4.7c0,0.3,0.1,0.8,0.2,1.2c0.4,2.6,1,6.9-1.4,11.3
			c-0.4,0.8-0.9,1.5-1.4,2.2c0.1,0.2,0.1,0.4,0.1,0.6l0,0c0.2,0.9,0.3,1.9,0.3,2.9c0,1-0.2,1.9-0.4,2.9c-0.3,1.1-0.6,2-1,2.8
			c0,0,0,0,0,0c0.4,0,0.7,0,1.1,0c5.3,0.2,10.5,1.2,15.3,2.2c0.4-1.2,0.9-2.2,1.4-3.1c-0.6-2.2-1.1-5.4,0.3-9c0.2-0.6,0.5-1,0.6-1.2
			c0.5-0.9,0.9-1.6,1.3-2.2c0-0.6,0-1.5,0-2.2c0-0.9-0.1-1.8,0-2.9c0.1-3.8,0.9-7.2,1.6-10.2l0.2-0.7c0.2-1,0.5-2.1,0.7-3.1
			c0-0.2,0.1-0.3,0.1-0.5l0.1-0.5l7.1-33.6l11.6,32.3c0.7,2,1.3,3.9,1.7,5.6c1.4,6.2,2.8,11.2,4,15.6c4.2,15.7,6.1,24.1,1.7,41.6
			c1.7,0.6,3.4,1.4,5,2.3c1.2,0.7,2.3,1.4,3.3,2c1.3,0.8,2.5,1.6,3.5,2c0.2,0.1,0.3,0.1,0.5,0.2l6.2,1.5L101.2,333.6z M53.3,294.5
			C53.3,294.5,53.3,294.5,53.3,294.5L53.3,294.5z"/>
	</g>
	<g>
		<path class="st2" d="M100.3,69.4c-5.7,22-9.8,44.7-8.5,67.4c0.3,4.4,0.7,8.9,2.1,13.2c1.1,3.3,2.8,6.5,5.4,8.8
			c2.3,1.9,5.2,3.1,8.1,3.7c4.2,1,8.7,1.2,13,0.5c1.2-0.2,2.5-0.5,3.5-1.3c1.1-0.9,1.6-2.3,1.9-3.7c0.7-3.4,0.4-7,0.2-10.5
			c-0.6-14.4,1.9-29.6-3.9-42.8c-2.9-6.5-7.7-12.2-9.8-18.9c-1.2-3.7-1.5-7.6-1.6-11.5c-0.1-3.4,0.9-8.1-0.2-11.4
			c-0.9-2.8-3.5-3.4-5.8-1.8C102,62.9,101,66.4,100.3,69.4z"/>
	</g>
	<g>
		<path class="st2" d="M146.4,72.1c-5.7,22-9.8,44.7-8.5,67.4c0.3,4.4,0.7,8.9,2.1,13.2c1.1,3.3,2.8,6.5,5.4,8.8
			c2.3,1.9,5.2,3.1,8.1,3.7c4.2,1,8.7,1.2,13,0.5c1.2-0.2,2.5-0.5,3.5-1.3c1.1-0.9,1.6-2.3,1.9-3.7c0.7-3.4,0.4-7,0.2-10.5
			c-0.6-14.4,1.9-29.6-3.9-42.8c-2.9-6.5-7.7-12.2-9.8-18.9c-1.2-3.7-1.5-7.6-1.6-11.5c-0.1-3.4,0.9-8.1-0.2-11.4
			c-0.9-2.8-3.5-3.4-5.8-1.8C148.1,65.6,147.2,69.2,146.4,72.1z"/>
	</g>
	<g>
		<path class="st3" d="M89.7,311.9c6.7,1.2,13.3,3,20.2,3.2c5.2,0.1,10.3-0.7,15.5-0.8c10.2-0.3,20.1,2.1,30.1,3.4
			c10,1.3,21.1,1.4,29.5-2.8c-3.1-5.4-4.2-11.2-5.4-17c-5.9-29.9-11.2-60-21.9-89.2c-1.2-3.2-3.2-7-7.5-7.7
			c-2.1-0.4-4.2,0.1-6.4,0.4c-5.4,0.6-11.1-0.1-15.9-2.1c-1.2-0.5-2.5-1.1-3.9-1.1c-2.8,0-4.5,2.3-5.5,4.3
			c-7.3,14.4-14.6,28.9-21,43.6c-6.1,14.2-9.2,28.9-14.9,43C79.4,297.1,83,310.7,89.7,311.9z"/>
	</g>
	<g>
		<path class="st4" d="M156,154.3c-5.1,7.7-16,15.2-24.7,14.2c-10.7-1.2-18.7-12-18.7-12c5.5-20.4,5.3-28.4,2.1-41.6l34.3-3.6
			C149,111.3,145.1,138.3,156,154.3z"/>
	</g>
	<g>
		<path class="st4" d="M169.8,92.7c-1,10.8-3.8,19.7-12.8,25.8c-10.4,7.1-24.2,17.4-35.8,12.7l-0.2-0.1c-2.2-0.9-9.7-7.2-11.2-8.7
			c-1.8-1.8-3.9-5-4.7-7.1c-2.3-5.6-7-19.2-4.9-25.6c0.9-2.7,2.8-4.2,1.6-9c-0.6-2.4-2-4.4-1.8-7c0.7-7.2,1.9-14.4,3.5-21.5
			c1.4-6.1,7.6-10,13-13.2c4.5-2.7,9.7-4.3,14.9-4.4c0.9,0,1.9,0,2.8,0.1c0.1,0,0.2,0,0.4,0c6.2,0.6,12.1,3.5,16.9,7.6
			c4.8,4.1,8.4,9.3,11.3,14.8C168.3,68,170.9,80.5,169.8,92.7z"/>
	</g>
	<g class="st5">
		<path class="st6" d="M169.8,92.7c-1,10.8-3.8,19.7-12.8,25.8c-10.4,7.1-24.2,17.4-35.8,12.7c-0.9-1.7-1.4-4.1,0.3-6.2
			c0.8-0.8,2.2-2.9,1.4-4.8c-0.8-1.9-2.2-3.4-1.2-5.8c0,0-1.1-1.7,0.6-2.6c1.7-0.9,1.7-5.2-0.2-6.3c-1-0.6-2.5-0.2-4.4-2.6
			c-1.9-2.4-2.7-1.3-0.8-7.3c2-6.1,2.8-17.1,2.8-20.3c-0.1-3.2-2.2-8.9,0.9-16.7c3-7.8,8.2-23.1,8.2-23.1l2.5-0.9
			c0.9,0,1.9,0,2.8,0.1c0.1,0,0.2,0,0.4,0c6.2,0.6,12.1,3.5,16.9,7.6c4.8,4.1,8.4,9.3,11.3,14.8C168.3,68,170.9,80.5,169.8,92.7z"/>
	</g>
	<g>
		<g>
			<g>
				<g>
					<g>
						<path class="st7" d="M124.2,114.6L122,112c0,0-0.9-1.1-0.9-1.1s-1.5-0.1-1.6,0c-0.1,0.1-4.6,3.3-5,3.2
							c-0.3-0.1-1.9-1.4-1.9-1.4l-0.7,1.6L124.2,114.6z"/>
					</g>
				</g>
			</g>
			<g>
				<g>
					<g>
						<path class="st7" d="M119.7,114.4l3.1-2.5c0,0,1.2-1,1.3-1.1c0.1,0,2,0,2.1,0.1s5.9,3.6,6.3,3.6c0.4-0.1,2.6-1.2,2.6-1.2l1,2
							L119.7,114.4z"/>
					</g>
				</g>
			</g>
		</g>
		<g>
			<polygon class="st8" points="115.4,114.4 119.6,117.9 127.1,118.3 131.7,115.1 123.5,114.4 			"/>
		</g>
	</g>
	<g>
		<path class="st9" d="M125.9,71.7c5.8-2.4,12.2-4.3,18.5-3.1c2.1,0.4,4.3,1.5,5.9,3.1c0.4,0.5,0.4,1.2,0,1.6
			c-0.4,0.4-1.1,0.4-1.6,0c-4.4-3.5-10.7-1.7-15.5,0.1c-1.7,0.7-3.5,1.5-5.1,2.4C125.1,77.5,122.9,73.2,125.9,71.7L125.9,71.7z"/>
	</g>
	<g>
		<g>
			<path class="st1" d="M134.4,79.3c-0.8,0.2-1.7,0.4-2.5,0.8c-0.7,0.4-1.4,0.9-2,1.4c-0.2,0.2-0.5,0.5-0.8,0.6
				c-0.4,0.2-0.8,0.3-1.1,0.6s-0.5,0.8-0.2,1.1c0.3,0.3,0.7,0.1,1.1,0.1c0.4-0.1,0.8-0.2,1.1-0.1c0.4,0.1,0.8,0.4,1.2,0.6
				c0.3,0.1,0.5,0.2,0.8,0.3c0.9,0.2,1.8,0.4,2.7,0.4c2.3,0,4.5-1,6.2-2.5c0.1-0.1,1.2-1.2-0.5-2.3c-1-0.6-2.1-1.1-3.2-1.3
				C136.3,78.8,135.3,79,134.4,79.3z"/>
		</g>
		<g>
			<g>
				<g>
					<g>
						<path class="st10" d="M133.9,83.7c-0.1,0-0.1,0-0.2,0c-1.3-0.1-2.2-1.2-2.1-2.4c0.1-1.2,1.1-2.1,2.3-2.1c0.1,0,0.1,0,0.2,0
							c1.3,0.1,2.2,1.2,2.1,2.4C136.1,82.8,135.1,83.7,133.9,83.7z"/>
					</g>
					<g>
						<path class="st11" d="M133.9,79.3c0.1,0,0.1,0,0.2,0c1.2,0.1,2.1,1.1,2,2.3c-0.1,1.2-1,2-2.2,2c-0.1,0-0.1,0-0.2,0
							c-1.2-0.1-2.1-1.1-2-2.3C131.8,80.1,132.7,79.3,133.9,79.3 M133.9,79.1L133.9,79.1c-1.2,0-2.3,1-2.4,2.2
							c0,0.6,0.2,1.2,0.6,1.7c0.4,0.5,1,0.8,1.6,0.8c0.1,0,0.1,0,0.2,0c1.2,0,2.3-1,2.4-2.2c0-0.6-0.2-1.2-0.6-1.7s-1-0.8-1.6-0.8
							C134,79.1,133.9,79.1,133.9,79.1L133.9,79.1z"/>
					</g>
				</g>
				<g>
					<circle class="st12" cx="133.9" cy="81.4" r="2"/>
				</g>
				<g>
					<g>
						<circle class="st13" cx="133.3" cy="80.8" r="1.4"/>
					</g>
					<g>
						<circle class="st14" cx="132.7" cy="80.8" r="0.3"/>
					</g>
					<g>
						<circle class="st14" cx="133.2" cy="80.1" r="0.5"/>
					</g>
				</g>
			</g>
			<g>
				<path class="st11" d="M128.7,80.3c0.6-0.1,1.4-1,1.8-1.3c2.5-2.1,6.4-2.9,9.5-1.8c2.4,1,4.1,3.2,4.8,5.6c0,0,0.2,0.9,0.2,0.9
					l-0.7-0.5c-2.7-2-5.8-4.3-9.4-3.6c-2.2,0.2-3.9,1.4-5.4,2.9c-0.4,0.4-1.3,0.3-1.4,1c-0.1,0.2,0,0.3,0.2,0.4
					c0.2,0.1,0.7-0.2,1.1-0.3c0.3-0.1,0.8,0.1,1,0.2c3,1.5,7.1,1.5,9.7-0.8c0.3-0.2,0.7-0.5,1.1-0.4l0,0.4c-0.6,0-1,0.6-1.6,1.1
					c-2.9,2-6.8,1.8-9.9,0.2c-0.5,0.1-0.9,0.5-1.6,0.4c-0.9-0.3-0.9-1.4-0.3-1.9c0.4-0.4,1-0.4,1.4-0.8c1.1-1,2.2-2,3.6-2.5
					c2.9-1,5.9-0.7,8.5,0.9c1.2,0.7,2.4,1.6,3.5,2.5l-0.5,0.3c-1.3-2.6-3.7-5.2-6.8-5.3c-2.3-0.2-4.7,0.3-6.5,1.8c0,0-1,0.7-1,0.7
					c-0.3,0.2-0.7,0.5-1.2,0.6L128.7,80.3L128.7,80.3z"/>
			</g>
		</g>
	</g>
	<g>
		<path class="st9" d="M96.5,70.2c1-0.3,2.1-0.4,3.2-0.5c1.1-0.1,2.1-0.1,3.1,0c2.1,0.1,4.1,0.4,6.1,0.8c1,0.2,2,0.4,3,0.7
			c1,0.3,2,0.5,3,0.9c1.1,0.4,1.7,1.6,1.3,2.7c-0.4,1.1-1.6,1.7-2.7,1.3c-0.1,0-0.1-0.1-0.2-0.1l0,0c-0.8-0.4-1.7-0.7-2.6-1.1
			c-0.9-0.3-1.8-0.6-2.7-0.9c-1.8-0.6-3.7-1-5.5-1.3c-0.9-0.2-1.9-0.2-2.8-0.3c-0.9,0-1.8,0-2.7,0.1C95.2,72.7,95.5,70.5,96.5,70.2z
			"/>
	</g>
	<g>
		<path class="st11" d="M121.9,106.1c-0.7,0-2.6-0.2-3.7-1.9c-0.4-0.6-0.8-1-1.3-1.4c-1.3-1.1-2.6-2.2-0.8-6.2
			c2.9-6.7,3.1-19,3.1-19.1l1,0c0,0.5-0.2,12.6-3.2,19.5c-1.4,3.2-0.6,3.9,0.6,5c0.5,0.4,1,0.9,1.5,1.6c1,1.6,2.9,1.4,3,1.4l0.1,1
			C122.2,106.1,122.1,106.1,121.9,106.1z"/>
	</g>
	<g>
		<path class="st11" d="M121.5,104.3c-0.4-0.5-0.4-1.2,0-1.7c0.2-0.2,0.5-0.4,0.7-0.5c0.9-0.4,1.8-0.7,2.8-0.9
			c0.2,0,0.5-0.1,0.8-0.1c0.8,0,1.7,0.6,2,1.3l-0.9,0.4c-0.2-0.4-0.6-0.7-1.1-0.7c-0.2,0-0.4,0-0.6,0.1c-0.9,0.2-1.8,0.4-2.6,0.8
			c-0.1,0.1-0.3,0.1-0.3,0.2c-0.1,0.1-0.1,0.2,0,0.3L121.5,104.3z"/>
	</g>
	<g>
		<g>
			<path class="st15" d="M149.4,82.7c0.7,0.6,2,0.7,2.6,0.1"/>
		</g>
		<g>
			<path class="st15" d="M149.1,82.8c0.1,0.5,0.5,1,1.3,1.3c0.5,0.2,1.3,0.3,1.9-0.2"/>
		</g>
	</g>
	<g>
		<path class="st9" d="M131.6,42.5c12.3,5.2,17.1,19.4,17.4,31.8c0.1,3.1-0.2,6.3-0.2,9.3c0,2.9,0.6,5.8,1.6,8.5
			c2.1,5.7,5.3,10.9,8.5,16c0,0-3.7,2.2-3.7,2.2c-2.3-4.1-4.6-8.3-6.5-12.6c-1.3-3-2.3-6.1-2.8-9.3c-0.5-3.2-0.2-6.5,0.1-9.6
			c0.8-7.5,0-15.3-3-22.2c-2.1-4.8-5.5-9.1-10-11.8c-0.6-0.4-1.3-0.7-1.9-1L131.6,42.5L131.6,42.5z"/>
	</g>
	<g>
		<defs>
			<path id="SVGID_1_" d="M100.6,77.8c0,0,1.2,2.9,1.3,3.6c0.1,0.6,3,5,5.6,4.9c2.6-0.1,8.9-0.6,9.3-2.5c0.4-1.9,1.2-3.6-0.2-5.1
				c-1.4-1.5,0.4-1.3-3.4-2.6s-7-1.7-8.2-1.4C103.9,74.7,100.6,77.8,100.6,77.8z"/>
		</defs>
		<clipPath id="SVGID_00000005268784189046998030000002019003035353401015_">
			<use xlink:href="#SVGID_1_"  style="overflow:visible;"/>
		</clipPath>
		<g style="clip-path:url(#SVGID_00000005268784189046998030000002019003035353401015_);">
			<g>
				<path class="st1" d="M108.9,78.6c0.8,0.2,1.6,0.4,2.3,0.8c0.7,0.4,1.3,0.9,1.8,1.4c0.2,0.2,0.4,0.5,0.7,0.6
					c0.3,0.2,0.7,0.3,1,0.6s0.4,0.8,0.1,1c-0.3,0.2-0.7,0.1-1,0c-0.3-0.1-0.7-0.2-1-0.1c-0.4,0.1-0.7,0.4-1.1,0.5
					c-0.2,0.1-0.5,0.2-0.7,0.2c-0.8,0.2-1.7,0.3-2.5,0.3c-2.1,0-4.1-1.1-5.6-2.5c-0.1-0.1-1.1-1.1,0.5-2.1c0.9-0.6,1.9-0.9,3-1.1
					C107.2,78.2,108.1,78.4,108.9,78.6z"/>
			</g>
			<g>
				<g>
					<g>
						<path class="st10" d="M106.5,82.9c-0.1,0-0.1,0-0.2,0c-0.6,0-1.2-0.3-1.6-0.8c-0.4-0.5-0.6-1.1-0.6-1.7
							c0.1-1.2,1.1-2.1,2.3-2.1c0.1,0,0.1,0,0.2,0c0.6,0,1.2,0.3,1.6,0.8c0.4,0.5,0.6,1.1,0.6,1.7C108.7,82,107.7,82.9,106.5,82.9z"
							/>
					</g>
					<g>
						<path class="st11" d="M106.5,78.4c0.1,0,0.1,0,0.2,0c1.2,0.1,2.1,1.1,2,2.3c-0.1,1.2-1,2-2.2,2c-0.1,0-0.1,0-0.2,0
							c-1.2-0.1-2.1-1.1-2-2.3C104.4,79.3,105.4,78.4,106.5,78.4 M106.5,78.2L106.5,78.2c-1.2,0-2.3,1-2.4,2.2
							c0,0.6,0.2,1.2,0.6,1.7c0.4,0.5,1,0.8,1.6,0.8c0.1,0,0.1,0,0.2,0c1.2,0,2.3-1,2.4-2.2c0-0.6-0.2-1.2-0.6-1.7
							c-0.4-0.5-1-0.8-1.6-0.8C106.6,78.2,106.6,78.2,106.5,78.2L106.5,78.2z"/>
					</g>
				</g>
				<g>
					<circle class="st12" cx="106.5" cy="80.6" r="2"/>
				</g>
				<g>
					<g>
						<circle class="st13" cx="106.1" cy="79.9" r="1.4"/>
					</g>
					<g>
						<circle class="st14" cx="105.5" cy="79.8" r="0.3"/>
					</g>
					<g>
						<circle class="st14" cx="106" cy="79.2" r="0.5"/>
					</g>
				</g>
			</g>
			<g>
				<g>
					<path class="st11" d="M114.3,79.9c-0.5-0.1-0.8-0.4-1.1-0.6c-0.9-0.7-1.8-1.5-2.9-1.9c-3.5-1.5-10.8,0.1-10.6,4.7
						c0,0-0.4-0.1-0.4-0.1c2.1-1.7,4.4-3.3,7.1-3.8c2-0.2,4.3,0,5.9,1.4c0.6,0.4,1.1,0.8,1.6,1.3c0.3,0.3,1,0.3,1.3,0.7
						c0.8,0.8,0.1,2.1-1.1,1.7c-0.2,0-0.5-0.3-0.8-0.3c-0.4,0.2-0.9,0.5-1.3,0.6c-2.6,0.9-5.6,0.9-7.9-0.7c-0.6-0.4-1-1-1.5-1l0-0.4
						c0.4,0,0.8,0.2,1.1,0.4c0.7,0.7,1.6,1.1,2.5,1.4c2.4,0.7,4.9,0.2,7.1-1c0.4-0.2,1.1,0.4,1.4,0.3c0.1,0,0.2-0.2,0.2-0.4
						c-0.1-0.2-0.2-0.3-0.4-0.4c-0.3-0.1-0.8-0.3-1-0.5c-1-0.8-1.9-1.7-3.1-2.2c-3.9-1.4-7.6,0.9-10.6,3.2c0,0-0.3,0.2-0.3,0.2
						l-0.1-0.4c-0.5-1.7,0.6-3.5,1.9-4.6c2.7-2,6.5-2.3,9.5-1c1.1,0.5,2.1,1.3,3,2.2c0.3,0.3,0.6,0.5,0.9,0.6L114.3,79.9L114.3,79.9
						z"/>
				</g>
			</g>
		</g>
	</g>
	<g>
		<path class="st9" d="M92.1,157.1c-9.9-14.8-13.5-34-9.7-51.4c0.6-2.8,1.4-5.6,2.2-8.4c0.8-2.9,1.7-6,2.3-9c0.5-2.3,0.8-4.7,1.1-7
			c0.3-2.2,0.6-4.4,1.1-6.6c3.1-16.1,12.6-31,25.9-40.7c2.2-1.6,3.8-1.2,4.7-0.6l-2,2.8c0.1,0.1,0.2,0.1,0.2,0.1c0,0-0.3,0-0.9,0.5
			c-12.6,9.2-21.5,23.2-24.5,38.6c-0.4,2.1-0.7,4.3-1,6.4c-0.3,2.3-0.7,4.8-1.2,7.2c-0.6,3.1-1.5,6.2-2.4,9.2
			c-0.8,2.7-1.6,5.4-2.2,8.1c-3.6,16.5-0.2,34.7,9.2,48.8L92.1,157.1z"/>
	</g>
	<g>
		<path class="st11" d="M55,225.4c-4.9,12.6,9.6,32,12.6,45.2c6.9,30.1,12.3,32.9,2.9,62.3c4.4,0.2,8.7,1.4,12.6,3.5
			c2.6,1.4,5,3.3,7.8,4.4c2.8,1.1,6.1,1.4,8.6-0.2c2.7-1.8,3.7-5.3,4.4-8.5c3.5-15.6,7-31.2,10.4-46.9c1.8-8,3.6-16.1,4.9-24.2
			c1.3-8,2.1-16.1,3.1-24.1c3.3-26.6,8.5-52.5,15.9-78.2c-11.3-0.4-21.7-5-29.2-12.9c-2.9,6.8-9.2,11.5-14.7,16.5
			c-7.3,6.6-13.7,14.2-19,22.5c-2.2,3.5-4.3,7.3-4.7,11.4c-0.3,3.8-18.1,25.8-19.7,29.3"/>
	</g>
	<g>
		<g>
			<path class="st11" d="M132.9,215.5c0.3-2.8,0.5-5.7,1.7-8.3c0.7-1.6,1.7-3.1,2.5-4.6c1.2-2.2,1.9-4.7,2.5-7.1
				c2.4-9.5,3.4-19.4,2.9-29.2c-0.1-2.4-0.3-4.7-1.1-7c-2.6-0.1-4.1,2.7-4.7,5.2c-2.1,9.2-2.4,18.7-3.8,28
				c-2.9,18.9-10.6,37-11.9,56.1c-0.8,10.9,0.5,22.2-3.3,32.4c-5.4,14.7-10.9,29.2-12.9,44.7c-0.2,1.7-0.3,3.5,0.1,5.1
				c0.4,1.6,1.4,3,2,4.6c0.8,1.8,0.8,4.6,1.7,6.4c0.6,1.2,2.5,1.1,3.4,0.1c0.9-0.9,1.1-2.3,1.2-3.6c0.4-5.2-0.6-10.5,0.4-15.6
				c0.9-4.8,3.5-9.1,4.5-13.9c0.8-3.4,0.8-6.9,1.4-10.4c1.4-7.9,4.3-10.7,4.8-18.7c0.2-3.4-0.3-6.7-0.1-10.1
				c0.3-5.8,3.4-14.5,4-20.3c0.5-4.7-1.3-10.1-0.5-13.7c0.5-2,1.2-3.4,1.9-5.4c0.8-2.3,1.7-4.7,2.2-7.1c0.8-3.3,0.9-6.7,1.1-10.1"/>
		</g>
		<g>
			<path class="st17" d="M140.7,159c0,0,2.2,27.5-3.5,40.3c-5.7,12.8-4.7,9.8-6.1,20.7c-1.4,11-4.8,13.7-4.5,18.6
				c0.3,4.9,1.2,7.9,0,14.6c-1.2,6.7-4.8,15.5-3.8,21.5c1.1,6-0.1,9.9-2.4,17.6c-2.3,7.6-1.6,11.3-3,17.7c-1.4,6.4-4.2,9.2-4.6,15.6
				s1.4,17.1-2.7,17.4c-4.1,0.3-17.7,1.2-17.3-1.8s8.8-19.2,8.7-22.9c-0.3-11.7,7.5-18.3,6.5-23.2c-2.2-11.5,2.9-18.3,2.3-22.8
				c-0.6-4.6-1-14.3,1.8-18.8c4-6.5-0.1-10.8,1.2-17.4c1.2-6,5-10.3,4.7-12.3c-0.9-5.4-0.3-16.2,3-22.3c3.3-6.1,5.7-21.4,5.7-21.4
				s-0.9-10.1,0.9-15.6l1.8-7L140.7,159z"/>
		</g>
		<g>
			<g>
				<g>
					<circle class="st11" cx="104.5" cy="332.9" r="3.8"/>
				</g>
				<g>
					<circle class="st18" cx="104.5" cy="332.9" r="3.4"/>
				</g>
				<g>
					<g>
						<circle class="st11" cx="103.7" cy="332.2" r="0.4"/>
					</g>
					<g>
						<circle class="st11" cx="105.3" cy="332.2" r="0.4"/>
					</g>
					<g>
						<circle class="st11" cx="103.7" cy="333.6" r="0.4"/>
					</g>
					<g>
						<circle class="st11" cx="105.3" cy="333.6" r="0.4"/>
					</g>
				</g>
			</g>
			<g>
				<g>
					<circle class="st11" cx="109.9" cy="310.3" r="3.8"/>
				</g>
				<g>
					<circle class="st18" cx="109.9" cy="310.3" r="3.4"/>
				</g>
				<g>
					<g>
						<circle class="st11" cx="109.1" cy="309.7" r="0.4"/>
					</g>
					<g>
						<circle class="st11" cx="110.7" cy="309.7" r="0.4"/>
					</g>
					<g>
						<circle class="st11" cx="109.1" cy="311" r="0.4"/>
					</g>
					<g>
						<circle class="st11" cx="110.7" cy="311" r="0.4"/>
					</g>
				</g>
			</g>
			<g>
				<g>
					<circle class="st11" cx="115.9" cy="283.8" r="3.8"/>
				</g>
				<g>
					<circle class="st18" cx="115.9" cy="283.8" r="3.4"/>
				</g>
				<g>
					<g>
						<circle class="st11" cx="115.1" cy="283.1" r="0.4"/>
					</g>
					<g>
						<circle class="st11" cx="116.7" cy="283.1" r="0.4"/>
					</g>
					<g>
						<circle class="st11" cx="115.1" cy="284.4" r="0.4"/>
					</g>
					<g>
						<circle class="st11" cx="116.7" cy="284.4" r="0.4"/>
					</g>
				</g>
			</g>
			<g>
				<g>
					<circle class="st11" cx="116.3" cy="260.6" r="3.8"/>
				</g>
				<g>
					<circle class="st18" cx="116.3" cy="260.6" r="3.4"/>
				</g>
				<g>
					<g>
						<circle class="st11" cx="115.5" cy="259.9" r="0.4"/>
					</g>
					<g>
						<circle class="st11" cx="117.1" cy="259.9" r="0.4"/>
					</g>
					<g>
						<circle class="st11" cx="115.5" cy="261.3" r="0.4"/>
					</g>
					<g>
						<circle class="st11" cx="117.1" cy="261.3" r="0.4"/>
					</g>
				</g>
			</g>
			<g>
				<g>
					<circle class="st11" cx="119.7" cy="238.1" r="3.8"/>
				</g>
				<g>
					<circle class="st18" cx="119.7" cy="238.1" r="3.4"/>
				</g>
				<g>
					<g>
						<circle class="st11" cx="118.9" cy="237.4" r="0.4"/>
					</g>
					<g>
						<circle class="st11" cx="120.5" cy="237.4" r="0.4"/>
					</g>
					<g>
						<circle class="st11" cx="118.9" cy="238.8" r="0.4"/>
					</g>
					<g>
						<circle class="st11" cx="120.5" cy="238.8" r="0.4"/>
					</g>
				</g>
			</g>
			<g>
				<g>
					<circle class="st11" cx="124.7" cy="215.6" r="3.8"/>
				</g>
				<g>
					<circle class="st18" cx="124.7" cy="215.6" r="3.4"/>
				</g>
				<g>
					<g>
						<circle class="st11" cx="124" cy="214.9" r="0.4"/>
					</g>
					<g>
						<circle class="st11" cx="125.5" cy="214.9" r="0.4"/>
					</g>
					<g>
						<circle class="st11" cx="124" cy="216.3" r="0.4"/>
					</g>
					<g>
						<circle class="st11" cx="125.5" cy="216.3" r="0.4"/>
					</g>
				</g>
			</g>
			<g>
				<g>
					<circle class="st19" cx="131.1" cy="194.2" r="3.8"/>
				</g>
				<g>
					<circle class="st20" cx="131.1" cy="194.2" r="3.4"/>
				</g>
				<g>
					<g>
						<circle class="st19" cx="130.3" cy="193.5" r="0.4"/>
					</g>
					<g>
						<circle class="st19" cx="131.9" cy="193.5" r="0.4"/>
					</g>
					<g>
						<circle class="st19" cx="130.3" cy="194.8" r="0.4"/>
					</g>
					<g>
						<circle class="st19" cx="131.9" cy="194.8" r="0.4"/>
					</g>
				</g>
			</g>
			<g>
				<g>
					<circle class="st19" cx="134.6" cy="172.3" r="3.8"/>
				</g>
				<g>
					<circle class="st20" cx="134.6" cy="172.3" r="3.4"/>
				</g>
				<g>
					<g>
						<circle class="st19" cx="133.8" cy="171.7" r="0.4"/>
					</g>
					<g>
						<circle class="st19" cx="135.4" cy="171.7" r="0.4"/>
					</g>
					<g>
						<circle class="st19" cx="133.8" cy="173" r="0.4"/>
					</g>
					<g>
						<circle class="st19" cx="135.4" cy="173" r="0.4"/>
					</g>
				</g>
			</g>
		</g>
	</g>
	<g>
		<path class="st11" d="M217.6,214.1c4.9,12.6-4.4,33.2-7.4,46.3c-6.9,30.1-23.3,42.6-13.8,72c-4.4,0.2-8.7,1.4-12.6,3.5
			c-2.6,1.4-5,3.3-7.8,4.4s-6.1,1.4-8.6-0.2c-2.7-1.8-3.7-5.3-4.4-8.5c-3.5-15.6-7-31.2-10.4-46.9c-1.8-8-3.6-16.1-4.9-24.2
			c-1.3-8-2.1-16.1-3.1-24.1c-3.3-26.6-8.5-52.5-15.9-78.2c11.3-0.4,21.7-5,29.2-12.9c2.9,6.8,9.2,11.5,14.7,16.5
			c7.3,6.6,13.7,14.2,19,22.5c2.2,3.5,4.3,7.3,4.7,11.4c0.3,3.8-0.7,7.8,0.9,11.3"/>
	</g>
	<g>
		<g>
			<path class="st11" d="M133.9,215.1c-0.3-2.8-0.5-5.7-1.7-8.3c-0.7-1.6-1.7-3.1-2.5-4.6c-1.2-2.2-1.9-4.7-2.5-7.1
				c-2.4-9.5-3.4-19.4-2.9-29.2c0.1-2.4,0.3-4.7,1.1-7c2.6-0.1,4.1,2.7,4.7,5.2c2.1,9.2,2.4,18.7,3.8,28c2.9,18.9,10.6,37,11.9,56.1
				c0.8,10.9-0.5,22.2,3.3,32.4c5.4,14.7,10.9,29.2,12.9,44.7c0.2,1.7,0.3,3.5-0.1,5.1c-0.4,1.6-1.4,3-2,4.6
				c-0.8,1.8-0.8,4.6-1.7,6.4c-0.6,1.2-2.5,1.1-3.4,0.1c-0.9-0.9-1.1-2.3-1.2-3.6c-0.4-5.2,0.6-10.5-0.4-15.6
				c-0.9-4.8-3.5-9.1-4.5-13.9c-0.8-3.4-0.8-6.9-1.4-10.4c-1.4-7.9-4.3-10.7-4.8-18.7c-0.2-3.4,0.3-6.7,0.1-10.1
				c-0.3-5.8-3.4-14.5-4-20.3c-0.5-4.7,1.3-10.1,0.5-13.7c-0.5-2-1.2-3.4-1.9-5.4c-0.8-2.3-1.7-4.7-2.2-7.1
				c-0.8-3.3-0.9-6.7-1.1-10.1"/>
		</g>
		<g>
			<path class="st17" d="M126.1,158.5c0,0-2.2,27.5,3.5,40.3c5.7,12.8,4.7,9.8,6.1,20.7c1.4,11,4.8,13.7,4.5,18.6
				c-0.3,4.9-1.2,7.9,0,14.6c1.2,6.7,4.8,15.5,3.8,21.5c-1.1,6,0.1,9.9,2.4,17.6c2.3,7.6,1.6,11.3,3,17.7c1.4,6.4,4.2,9.2,4.6,15.6
				c0.5,6.4-1.4,17.1,2.7,17.4s17.7,1.2,17.3-1.8c-0.4-3.1-8.8-19.2-8.7-22.9c0.3-11.7-7.5-18.3-6.5-23.2
				c2.2-11.5-2.9-18.3-2.3-22.8c0.6-4.6,1-14.3-1.8-18.8c-4-6.5,0.1-10.8-1.2-17.4c-1.2-6-5-10.3-4.7-12.3c0.9-5.4,0.3-16.2-3-22.3
				c-3.3-6.1-5.7-21.4-5.7-21.4s0.9-10.1-0.9-15.6l-1.8-7L126.1,158.5z"/>
		</g>
		<g>
			<g>
				<g>
					<circle class="st11" cx="162.3" cy="332.5" r="3.8"/>
				</g>
				<g>
					<circle class="st18" cx="162.3" cy="332.5" r="3.4"/>
				</g>
				<g>
					<g>
						<circle class="st11" cx="163" cy="331.8" r="0.4"/>
					</g>
					<g>
						<circle class="st11" cx="161.5" cy="331.8" r="0.4"/>
					</g>
					<g>
						<circle class="st11" cx="163" cy="333.2" r="0.4"/>
					</g>
					<g>
						<circle class="st11" cx="161.5" cy="333.2" r="0.4"/>
					</g>
				</g>
			</g>
			<g>
				<g>
					<circle class="st11" cx="156.9" cy="309.9" r="3.8"/>
				</g>
				<g>
					<circle class="st18" cx="156.9" cy="309.9" r="3.4"/>
				</g>
				<g>
					<g>
						<circle class="st11" cx="157.7" cy="309.3" r="0.4"/>
					</g>
					<g>
						<circle class="st11" cx="156.1" cy="309.3" r="0.4"/>
					</g>
					<g>
						<circle class="st11" cx="157.7" cy="310.6" r="0.4"/>
					</g>
					<g>
						<circle class="st11" cx="156.1" cy="310.6" r="0.4"/>
					</g>
				</g>
			</g>
			<g>
				<g>
					<circle class="st11" cx="150.9" cy="283.3" r="3.8"/>
				</g>
				<g>
					<circle class="st18" cx="150.9" cy="283.3" r="3.4"/>
				</g>
				<g>
					<g>
						<circle class="st11" cx="151.7" cy="282.7" r="0.4"/>
					</g>
					<g>
						<circle class="st11" cx="150.1" cy="282.7" r="0.4"/>
					</g>
					<g>
						<circle class="st11" cx="151.7" cy="284" r="0.4"/>
					</g>
					<g>
						<circle class="st11" cx="150.1" cy="284" r="0.4"/>
					</g>
				</g>
			</g>
			<g>
				<g>
					<circle class="st11" cx="150.5" cy="260.2" r="3.8"/>
				</g>
				<g>
					<circle class="st18" cx="150.5" cy="260.2" r="3.4"/>
				</g>
				<g>
					<g>
						<circle class="st11" cx="151.3" cy="259.5" r="0.4"/>
					</g>
					<g>
						<circle class="st11" cx="149.7" cy="259.5" r="0.4"/>
					</g>
					<g>
						<circle class="st11" cx="151.3" cy="260.9" r="0.4"/>
					</g>
					<g>
						<circle class="st11" cx="149.7" cy="260.9" r="0.4"/>
					</g>
				</g>
			</g>
			<g>
				<g>
					<circle class="st11" cx="147.1" cy="237.7" r="3.8"/>
				</g>
				<g>
					<circle class="st18" cx="147.1" cy="237.7" r="3.4"/>
				</g>
				<g>
					<g>
						<circle class="st11" cx="147.9" cy="237" r="0.4"/>
					</g>
					<g>
						<circle class="st11" cx="146.3" cy="237" r="0.4"/>
					</g>
					<g>
						<circle class="st11" cx="147.9" cy="238.4" r="0.4"/>
					</g>
					<g>
						<circle class="st11" cx="146.3" cy="238.4" r="0.4"/>
					</g>
				</g>
			</g>
			<g>
				<g>
					<circle class="st11" cx="142" cy="215.2" r="3.8"/>
				</g>
				<g>
					<circle class="st18" cx="142" cy="215.2" r="3.4"/>
				</g>
				<g>
					<g>
						<circle class="st11" cx="142.8" cy="214.5" r="0.4"/>
					</g>
					<g>
						<circle class="st11" cx="141.2" cy="214.5" r="0.4"/>
					</g>
					<g>
						<circle class="st11" cx="142.8" cy="215.9" r="0.4"/>
					</g>
					<g>
						<circle class="st11" cx="141.2" cy="215.9" r="0.4"/>
					</g>
				</g>
			</g>
			<g>
				<g>
					<circle class="st11" cx="135.7" cy="193.8" r="3.8"/>
				</g>
				<g>
					<circle class="st18" cx="135.7" cy="193.8" r="3.4"/>
				</g>
				<g>
					<g>
						<circle class="st11" cx="136.4" cy="193.1" r="0.4"/>
					</g>
					<g>
						<circle class="st11" cx="134.9" cy="193.1" r="0.4"/>
					</g>
					<g>
						<circle class="st11" cx="136.4" cy="194.4" r="0.4"/>
					</g>
					<g>
						<circle class="st11" cx="134.9" cy="194.4" r="0.4"/>
					</g>
				</g>
			</g>
			<g>
				<g>
					<circle class="st11" cx="132.2" cy="171.9" r="3.8"/>
				</g>
				<g>
					<circle class="st18" cx="132.2" cy="171.9" r="3.4"/>
				</g>
				<g>
					<g>
						<circle class="st11" cx="133" cy="171.3" r="0.4"/>
					</g>
					<g>
						<circle class="st11" cx="131.4" cy="171.3" r="0.4"/>
					</g>
					<g>
						<circle class="st11" cx="133" cy="172.6" r="0.4"/>
					</g>
					<g>
						<circle class="st11" cx="131.4" cy="172.6" r="0.4"/>
					</g>
				</g>
			</g>
		</g>
	</g>
	<g>
		<g>
			<path class="st11" d="M152.2,159.9c2.4,8.7,7,16.7,12.7,23.7c8,9.9,18,18.1,28.1,25.9c0.9,0.7,1.9,1.5,2.4,2.5
				c0.8,1.5,0.7,3.2,0.6,4.9c-1.3,17.8,0,35.7,3.8,53.2c0.6,2.9,1.3,5.9,1.4,8.9c0,3.2-0.7,6.8,1,9.5c0.4,0.7,1,1.4,1.3,2.1
				c0.9,2.6-1.7,5.6-0.7,8.2c0.1,0.3,0.2,0.5,0.4,0.8l0,0c0.7,1.1,1.8,2.1,1.7,3.4c-0.1,0.7-0.5,1.3-0.9,1.8
				c-0.6,0.7-1.2,1.3-1.4,2.2c-0.4,1.5,0.9,3,2.3,3.4c1.5,0.5,3,0.2,4.6-0.1c10.3-2,21-4.7,31.1-1.8c-1-2.6-2-5.6-0.7-8
				c0.4-0.7,0.9-1.3,1.1-2c0.4-1.4-0.4-2.7-1.1-4.1c-0.6-1.1-1.1-2.2-0.8-3.4c0.1-0.4,0.3-0.7,0.5-1.1c0.4-0.7,1-1.4,1.1-2.3
				c0.4-2.4-2.5-3.9-3.6-6.1c-1.1-2.2-0.2-4.8,0-7.2c0.4-3.6-0.8-7.3-1.2-10.9c-1-8.9,2.3-18,0-26.6c-0.8-3-2.2-5.7-3-8.7
				c-1.3-5.2-0.5-10.7-0.7-16.1c-0.4-10.5-4.9-20.4-9.4-29.9c-1.1-2.4-2.3-4.9-4-7c-2.2-2.6-5.2-4.4-8.1-6
				c-13.5-7.4-43-16-58.3-28.9C148.9,145.1,151.4,157,152.2,159.9z"/>
		</g>
		<g class="st21">
			<defs>
				<path id="SVGID_00000042734911109230888260000001109910005825268136_" class="st21" d="M152.2,159.9c2.4,8.7,7,16.7,12.7,23.7
					c8,9.9,18,18.1,28.1,25.9c0.9,0.7,1.9,1.5,2.4,2.5c0.8,1.5,0.7,3.2,0.6,4.9c-1.3,17.8,0,35.7,3.8,53.2c0.6,2.9,1.3,5.9,1.4,8.9
					c0,3.2-0.7,6.8,1,9.5c0.4,0.7,1,1.4,1.3,2.1c0.9,2.6-1.7,5.6-0.7,8.2c0.1,0.3,0.2,0.5,0.4,0.8l0,0c0.7,1.1,1.8,2.1,1.7,3.4
					c-0.1,0.7-0.5,1.3-0.9,1.8c-0.6,0.7-1.2,1.3-1.4,2.2c-0.4,1.5,0.9,3,2.3,3.4c1.5,0.5,3,0.2,4.6-0.1c10.3-2,21-4.7,31.1-1.8
					c-1-2.6-2-5.6-0.7-8c0.4-0.7,0.9-1.3,1.1-2c0.4-1.4-0.4-2.7-1.1-4.1c-0.6-1.1-1.1-2.2-0.8-3.4c0.1-0.4,0.3-0.7,0.5-1.1
					c0.4-0.7,1-1.4,1.1-2.3c0.4-2.4-2.5-3.9-3.6-6.1c-1.1-2.2-0.2-4.8,0-7.2c0.4-3.6-0.8-7.3-1.2-10.9c-1-8.9,2.3-18,0-26.6
					c-0.8-3-2.2-5.7-3-8.7c-1.3-5.2-0.5-10.7-0.7-16.1c-0.4-10.5-4.9-20.4-9.4-29.9c-1.1-2.4-2.3-4.9-4-7c-2.2-2.6-5.2-4.4-8.1-6
					c-13.5-7.4-43-16-58.3-28.9C148.9,145.1,151.4,157,152.2,159.9z"/>
			</defs>
			<clipPath id="SVGID_00000148642759890422584620000003022756931685117103_">
				<use xlink:href="#SVGID_00000042734911109230888260000001109910005825268136_"  style="overflow:visible;"/>
			</clipPath>
			<g style="opacity:0.8;clip-path:url(#SVGID_00000148642759890422584620000003022756931685117103_);">
				<g>
					<g>
						<g>
							<polygon class="st3" points="125,86.2 135.7,98.8 127.2,113 116.5,100.4 							"/>
						</g>
					</g>
					<g>
						<g>
							<polygon class="st3" points="144.2,84.6 154.9,97.2 146.4,111.4 135.7,98.8 							"/>
						</g>
					</g>
					<g>
						<g>
							<polygon class="st3" points="163.3,83 174,95.6 165.6,109.8 154.9,97.2 							"/>
						</g>
					</g>
					<g>
						<g>
							<polygon class="st3" points="182.5,81.4 193.2,94 184.7,108.2 174,95.6 							"/>
						</g>
					</g>
					<g>
						<g>
							<polygon class="st3" points="201.7,79.8 212.4,92.4 203.9,106.7 193.2,94 							"/>
						</g>
					</g>
					<g>
						<g>
							<polygon class="st3" points="220.8,78.2 231.5,90.9 223.1,105.1 212.4,92.4 							"/>
						</g>
					</g>
					<g>
						<g>
							<polygon class="st3" points="240,76.6 250.7,89.3 242.2,103.5 231.5,90.9 							"/>
						</g>
					</g>
					<g>
						<g>
							<polygon class="st3" points="127.2,113 137.9,125.6 129.4,139.8 118.7,127.2 							"/>
						</g>
					</g>
					<g>
						<g>
							<polygon class="st3" points="146.4,111.4 157.1,124 148.6,138.3 137.9,125.6 							"/>
						</g>
					</g>
					<g>
						<g>
							<polygon class="st3" points="165.6,109.8 176.3,122.5 167.8,136.7 157.1,124 							"/>
						</g>
					</g>
					<g>
						<g>
							<polygon class="st3" points="184.7,108.2 195.4,120.9 187,135.1 176.3,122.5 							"/>
						</g>
					</g>
					<g>
						<g>
							<polygon class="st3" points="203.9,106.7 214.6,119.3 206.1,133.5 195.4,120.9 							"/>
						</g>
					</g>
					<g>
						<g>
							<polygon class="st3" points="223.1,105.1 233.8,117.7 225.3,131.9 214.6,119.3 							"/>
						</g>
					</g>
					<g>
						<g>
							<polygon class="st3" points="242.2,103.5 252.9,116.1 244.5,130.3 233.8,117.7 							"/>
						</g>
					</g>
					<g>
						<g>
							<polygon class="st3" points="129.4,139.8 140.1,152.5 131.7,166.7 121,154.1 							"/>
						</g>
					</g>
					<g>
						<g>
							<polygon class="st3" points="148.6,138.3 159.3,150.9 150.8,165.1 140.1,152.5 							"/>
						</g>
					</g>
					<g>
						<g>
							<polygon class="st3" points="167.8,136.7 178.5,149.3 170,163.5 159.3,150.9 							"/>
						</g>
					</g>
					<g>
						<g>
							<polygon class="st3" points="187,135.1 197.7,147.7 189.2,161.9 178.5,149.3 							"/>
						</g>
					</g>
					<g>
						<g>
							<polygon class="st3" points="206.1,133.5 216.8,146.1 208.4,160.3 197.7,147.7 							"/>
						</g>
					</g>
					<g>
						<g>
							<polygon class="st3" points="225.3,131.9 236,144.5 227.5,158.7 216.8,146.1 							"/>
						</g>
					</g>
					<g>
						<g>
							<polygon class="st3" points="244.5,130.3 255.2,142.9 246.7,157.1 236,144.5 							"/>
						</g>
					</g>
					<g>
						<g>
							<polygon class="st3" points="131.7,166.7 142.4,179.3 133.9,193.5 123.2,180.9 							"/>
						</g>
					</g>
					<g>
						<g>
							<polygon class="st3" points="150.8,165.1 161.5,177.7 153.1,191.9 142.4,179.3 							"/>
						</g>
					</g>
					<g>
						<g>
							<polygon class="st3" points="170,163.5 180.7,176.1 172.2,190.3 161.5,177.7 							"/>
						</g>
					</g>
					<g>
						<g>
							<polygon class="st3" points="189.2,161.9 199.9,174.5 191.4,188.7 180.7,176.1 							"/>
						</g>
					</g>
					<g>
						<g>
							<polygon class="st3" points="208.4,160.3 219.1,172.9 210.6,187.1 199.9,174.5 							"/>
						</g>
					</g>
					<g>
						<g>
							<polygon class="st3" points="227.5,158.7 238.2,171.3 229.8,185.5 219.1,172.9 							"/>
						</g>
					</g>
					<g>
						<g>
							<polygon class="st3" points="246.7,157.1 257.4,169.7 248.9,183.9 238.2,171.3 							"/>
						</g>
					</g>
					<g>
						<g>
							<polygon class="st3" points="133.9,193.5 144.6,206.1 136.1,220.3 125.4,207.7 							"/>
						</g>
					</g>
					<g>
						<g>
							<polygon class="st3" points="153.1,191.9 163.8,204.5 155.3,218.7 144.6,206.1 							"/>
						</g>
					</g>
					<g>
						<g>
							<polygon class="st3" points="172.2,190.3 182.9,202.9 174.5,217.1 163.8,204.5 							"/>
						</g>
					</g>
					<g>
						<g>
							<polygon class="st3" points="191.4,188.7 202.1,201.3 193.6,215.5 182.9,202.9 							"/>
						</g>
					</g>
					<g>
						<g>
							<polygon class="st3" points="210.6,187.1 221.3,199.7 212.8,213.9 202.1,201.3 							"/>
						</g>
					</g>
					<g>
						<g>
							<polygon class="st3" points="229.8,185.5 240.5,198.1 232,212.3 221.3,199.7 							"/>
						</g>
					</g>
					<g>
						<g>
							<polygon class="st3" points="248.9,183.9 259.6,196.5 251.2,210.8 240.5,198.1 							"/>
						</g>
					</g>
				</g>
				<g>
					<g>
						<g>
							<polygon class="st3" points="259,75.2 269.7,87.8 261.2,102 250.5,89.4 							"/>
						</g>
					</g>
					<g>
						<g>
							<polygon class="st3" points="278.2,73.6 288.9,86.2 280.4,100.4 269.7,87.8 							"/>
						</g>
					</g>
					<g>
						<g>
							<polygon class="st3" points="297.4,72 308.1,84.6 299.6,98.8 288.9,86.2 							"/>
						</g>
					</g>
					<g>
						<g>
							<polygon class="st3" points="316.5,70.4 327.2,83 318.8,97.2 308.1,84.6 							"/>
						</g>
					</g>
					<g>
						<g>
							<polygon class="st3" points="335.7,68.8 346.4,81.4 337.9,95.6 327.2,83 							"/>
						</g>
					</g>
					<g>
						<g>
							<polygon class="st3" points="354.9,67.2 365.6,79.8 357.1,94 346.4,81.4 							"/>
						</g>
					</g>
					<g>
						<g>
							<polygon class="st3" points="374,65.6 384.7,78.2 376.3,92.4 365.6,79.8 							"/>
						</g>
					</g>
					<g>
						<g>
							<polygon class="st3" points="261.2,102 271.9,114.6 263.5,128.8 252.8,116.2 							"/>
						</g>
					</g>
					<g>
						<g>
							<polygon class="st3" points="280.4,100.4 291.1,113 282.6,127.2 271.9,114.6 							"/>
						</g>
					</g>
					<g>
						<g>
							<polygon class="st3" points="299.6,98.8 310.3,111.4 301.8,125.6 291.1,113 							"/>
						</g>
					</g>
					<g>
						<g>
							<polygon class="st3" points="318.8,97.2 329.5,109.8 321,124 310.3,111.4 							"/>
						</g>
					</g>
					<g>
						<g>
							<polygon class="st3" points="337.9,95.6 348.6,108.2 340.2,122.4 329.5,109.8 							"/>
						</g>
					</g>
					<g>
						<g>
							<polygon class="st3" points="357.1,94 367.8,106.6 359.3,120.8 348.6,108.2 							"/>
						</g>
					</g>
					<g>
						<g>
							<polygon class="st3" points="376.3,92.4 387,105 378.5,119.2 367.8,106.6 							"/>
						</g>
					</g>
					<g>
						<g>
							<polygon class="st3" points="263.5,128.8 274.2,141.4 265.7,155.6 255,143 							"/>
						</g>
					</g>
					<g>
						<g>
							<polygon class="st3" points="282.6,127.2 293.3,139.8 284.9,154 274.2,141.4 							"/>
						</g>
					</g>
					<g>
						<g>
							<polygon class="st3" points="301.8,125.6 312.5,138.2 304,152.4 293.3,139.8 							"/>
						</g>
					</g>
					<g>
						<g>
							<polygon class="st3" points="321,124 331.7,136.6 323.2,150.8 312.5,138.2 							"/>
						</g>
					</g>
					<g>
						<g>
							<polygon class="st3" points="340.2,122.4 350.9,135 342.4,149.3 331.7,136.6 							"/>
						</g>
					</g>
					<g>
						<g>
							<polygon class="st3" points="359.3,120.8 370,133.4 361.6,147.7 350.9,135 							"/>
						</g>
					</g>
					<g>
						<g>
							<polygon class="st3" points="378.5,119.2 389.2,131.9 380.7,146.1 370,133.4 							"/>
						</g>
					</g>
					<g>
						<g>
							<polygon class="st3" points="265.7,155.6 276.4,168.2 267.9,182.4 257.2,169.8 							"/>
						</g>
					</g>
					<g>
						<g>
							<polygon class="st3" points="284.9,154 295.6,166.6 287.1,180.9 276.4,168.2 							"/>
						</g>
					</g>
					<g>
						<g>
							<polygon class="st3" points="304,152.4 314.7,165.1 306.3,179.3 295.6,166.6 							"/>
						</g>
					</g>
					<g>
						<g>
							<polygon class="st3" points="323.2,150.8 333.9,163.5 325.4,177.7 314.7,165.1 							"/>
						</g>
					</g>
					<g>
						<g>
							<polygon class="st3" points="342.4,149.3 353.1,161.9 344.6,176.1 333.9,163.5 							"/>
						</g>
					</g>
					<g>
						<g>
							<polygon class="st3" points="361.6,147.7 372.3,160.3 363.8,174.5 353.1,161.9 							"/>
						</g>
					</g>
					<g>
						<g>
							<polygon class="st3" points="380.7,146.1 391.4,158.7 383,172.9 372.3,160.3 							"/>
						</g>
					</g>
					<g>
						<g>
							<polygon class="st3" points="267.9,182.4 278.6,195.1 270.2,209.3 259.5,196.7 							"/>
						</g>
					</g>
					<g>
						<g>
							<polygon class="st3" points="287.1,180.9 297.8,193.5 289.3,207.7 278.6,195.1 							"/>
						</g>
					</g>
					<g>
						<g>
							<polygon class="st3" points="306.3,179.3 317,191.9 308.5,206.1 297.8,193.5 							"/>
						</g>
					</g>
					<g>
						<g>
							<polygon class="st3" points="325.4,177.7 336.1,190.3 327.7,204.5 317,191.9 							"/>
						</g>
					</g>
					<g>
						<g>
							<polygon class="st3" points="344.6,176.1 355.3,188.7 346.8,202.9 336.1,190.3 							"/>
						</g>
					</g>
					<g>
						<g>
							<polygon class="st3" points="363.8,174.5 374.5,187.1 366,201.3 355.3,188.7 							"/>
						</g>
					</g>
					<g>
						<g>
							<polygon class="st3" points="383,172.9 393.7,185.5 385.2,199.7 374.5,187.1 							"/>
						</g>
					</g>
				</g>
				<g>
					<g>
						<g>
							<polygon class="st3" points="136,219.6 146.8,232.3 138.3,246.5 127.6,233.9 							"/>
						</g>
					</g>
					<g>
						<g>
							<polygon class="st3" points="155.2,218.1 165.9,230.7 157.5,244.9 146.8,232.3 							"/>
						</g>
					</g>
					<g>
						<g>
							<polygon class="st3" points="174.4,216.5 185.1,229.1 176.6,243.3 165.9,230.7 							"/>
						</g>
					</g>
					<g>
						<g>
							<polygon class="st3" points="193.6,214.9 204.3,227.5 195.8,241.7 185.1,229.1 							"/>
						</g>
					</g>
					<g>
						<g>
							<polygon class="st3" points="212.7,213.3 223.4,225.9 215,240.1 204.3,227.5 							"/>
						</g>
					</g>
					<g>
						<g>
							<polygon class="st3" points="231.9,211.7 242.6,224.3 234.1,238.5 223.4,225.9 							"/>
						</g>
					</g>
					<g>
						<g>
							<polygon class="st3" points="251.1,210.1 261.8,222.7 253.3,236.9 242.6,224.3 							"/>
						</g>
					</g>
					<g>
						<g>
							<polygon class="st3" points="138.3,246.5 149,259.1 140.5,273.3 129.8,260.7 							"/>
						</g>
					</g>
					<g>
						<g>
							<polygon class="st3" points="157.5,244.9 168.2,257.5 159.7,271.7 149,259.1 							"/>
						</g>
					</g>
					<g>
						<g>
							<polygon class="st3" points="176.6,243.3 187.3,255.9 178.9,270.1 168.2,257.5 							"/>
						</g>
					</g>
					<g>
						<g>
							<polygon class="st3" points="195.8,241.7 206.5,254.3 198,268.5 187.3,255.9 							"/>
						</g>
					</g>
					<g>
						<g>
							<polygon class="st3" points="215,240.1 225.7,252.7 217.2,266.9 206.5,254.3 							"/>
						</g>
					</g>
					<g>
						<g>
							<polygon class="st3" points="234.1,238.5 244.8,251.1 236.4,265.3 225.7,252.7 							"/>
						</g>
					</g>
					<g>
						<g>
							<polygon class="st3" points="253.3,236.9 264,249.5 255.5,263.7 244.8,251.1 							"/>
						</g>
					</g>
					<g>
						<g>
							<polygon class="st3" points="140.5,273.3 151.2,285.9 142.7,300.1 132,287.5 							"/>
						</g>
					</g>
					<g>
						<g>
							<polygon class="st3" points="159.7,271.7 170.4,284.3 161.9,298.5 151.2,285.9 							"/>
						</g>
					</g>
					<g>
						<g>
							<polygon class="st3" points="178.9,270.1 189.6,282.7 181.1,296.9 170.4,284.3 							"/>
						</g>
					</g>
					<g>
						<g>
							<polygon class="st3" points="198,268.5 208.7,281.1 200.3,295.3 189.6,282.7 							"/>
						</g>
					</g>
					<g>
						<g>
							<polygon class="st3" points="217.2,266.9 227.9,279.5 219.4,293.7 208.7,281.1 							"/>
						</g>
					</g>
					<g>
						<g>
							<polygon class="st3" points="236.4,265.3 247.1,277.9 238.6,292.1 227.9,279.5 							"/>
						</g>
					</g>
					<g>
						<g>
							<polygon class="st3" points="255.5,263.7 266.2,276.3 257.8,290.5 247.1,277.9 							"/>
						</g>
					</g>
					<g>
						<g>
							<polygon class="st3" points="142.7,300.1 153.4,312.7 145,326.9 134.3,314.3 							"/>
						</g>
					</g>
					<g>
						<g>
							<polygon class="st3" points="161.9,298.5 172.6,311.1 164.1,325.3 153.4,312.7 							"/>
						</g>
					</g>
					<g>
						<g>
							<polygon class="st3" points="181.1,296.9 191.8,309.5 183.3,323.7 172.6,311.1 							"/>
						</g>
					</g>
					<g>
						<g>
							<polygon class="st3" points="200.3,295.3 211,307.9 202.5,322.2 191.8,309.5 							"/>
						</g>
					</g>
					<g>
						<g>
							<polygon class="st3" points="219.4,293.7 230.1,306.4 221.7,320.6 211,307.9 							"/>
						</g>
					</g>
					<g>
						<g>
							<polygon class="st3" points="238.6,292.1 249.3,304.8 240.8,319 230.1,306.4 							"/>
						</g>
					</g>
					<g>
						<g>
							<polygon class="st3" points="257.8,290.5 268.5,303.2 260,317.4 249.3,304.8 							"/>
						</g>
					</g>
					<g>
						<g>
							<polygon class="st3" points="145,326.9 155.7,339.5 147.2,353.8 136.5,341.1 							"/>
						</g>
					</g>
					<g>
						<g>
							<polygon class="st3" points="164.1,325.3 174.8,338 166.4,352.2 155.7,339.5 							"/>
						</g>
					</g>
					<g>
						<g>
							<polygon class="st3" points="183.3,323.7 194,336.4 185.5,350.6 174.8,338 							"/>
						</g>
					</g>
					<g>
						<g>
							<polygon class="st3" points="202.5,322.2 213.2,334.8 204.7,349 194,336.4 							"/>
						</g>
					</g>
					<g>
						<g>
							<polygon class="st3" points="221.7,320.6 232.4,333.2 223.9,347.4 213.2,334.8 							"/>
						</g>
					</g>
					<g>
						<g>
							<polygon class="st3" points="240.8,319 251.5,331.6 243.1,345.8 232.4,333.2 							"/>
						</g>
					</g>
					<g>
						<g>
							<polygon class="st3" points="260,317.4 270.7,330 262.2,344.2 251.5,331.6 							"/>
						</g>
					</g>
				</g>
				<g>
					<g>
						<g>
							<polygon class="st3" points="270.1,208.6 280.8,221.2 272.3,235.4 261.6,222.8 							"/>
						</g>
					</g>
					<g>
						<g>
							<polygon class="st3" points="289.3,207 300,219.6 291.5,233.8 280.8,221.2 							"/>
						</g>
					</g>
					<g>
						<g>
							<polygon class="st3" points="308.4,205.4 319.1,218 310.7,232.2 300,219.6 							"/>
						</g>
					</g>
					<g>
						<g>
							<polygon class="st3" points="327.6,203.8 338.3,216.4 329.8,230.6 319.1,218 							"/>
						</g>
					</g>
					<g>
						<g>
							<polygon class="st3" points="346.8,202.2 357.5,214.8 349,229 338.3,216.4 							"/>
						</g>
					</g>
					<g>
						<g>
							<polygon class="st3" points="365.9,200.6 376.6,213.2 368.2,227.5 357.5,214.8 							"/>
						</g>
					</g>
					<g>
						<g>
							<polygon class="st3" points="385.1,199 395.8,211.7 387.3,225.9 376.6,213.2 							"/>
						</g>
					</g>
					<g>
						<g>
							<polygon class="st3" points="272.3,235.4 283,248 274.5,262.2 263.8,249.6 							"/>
						</g>
					</g>
					<g>
						<g>
							<polygon class="st3" points="291.5,233.8 302.2,246.4 293.7,260.6 283,248 							"/>
						</g>
					</g>
					<g>
						<g>
							<polygon class="st3" points="310.7,232.2 321.4,244.8 312.9,259.1 302.2,246.4 							"/>
						</g>
					</g>
					<g>
						<g>
							<polygon class="st3" points="329.8,230.6 340.5,243.3 332.1,257.5 321.4,244.8 							"/>
						</g>
					</g>
					<g>
						<g>
							<polygon class="st3" points="349,229 359.7,241.7 351.2,255.9 340.5,243.3 							"/>
						</g>
					</g>
					<g>
						<g>
							<polygon class="st3" points="368.2,227.5 378.9,240.1 370.4,254.3 359.7,241.7 							"/>
						</g>
					</g>
					<g>
						<g>
							<polygon class="st3" points="387.3,225.9 398,238.5 389.6,252.7 378.9,240.1 							"/>
						</g>
					</g>
					<g>
						<g>
							<polygon class="st3" points="274.5,262.2 285.2,274.9 276.8,289.1 266.1,276.5 							"/>
						</g>
					</g>
					<g>
						<g>
							<polygon class="st3" points="293.7,260.6 304.4,273.3 295.9,287.5 285.2,274.9 							"/>
						</g>
					</g>
					<g>
						<g>
							<polygon class="st3" points="312.9,259.1 323.6,271.7 315.1,285.9 304.4,273.3 							"/>
						</g>
					</g>
					<g>
						<g>
							<polygon class="st3" points="332.1,257.5 342.8,270.1 334.3,284.3 323.6,271.7 							"/>
						</g>
					</g>
					<g>
						<g>
							<polygon class="st3" points="351.2,255.9 361.9,268.5 353.5,282.7 342.8,270.1 							"/>
						</g>
					</g>
					<g>
						<g>
							<polygon class="st3" points="370.4,254.3 381.1,266.9 372.6,281.1 361.9,268.5 							"/>
						</g>
					</g>
					<g>
						<g>
							<polygon class="st3" points="389.6,252.7 400.3,265.3 391.8,279.5 381.1,266.9 							"/>
						</g>
					</g>
					<g>
						<g>
							<polygon class="st3" points="276.8,289.1 287.5,301.7 279,315.9 268.3,303.3 							"/>
						</g>
					</g>
					<g>
						<g>
							<polygon class="st3" points="295.9,287.5 306.6,300.1 298.2,314.3 287.5,301.7 							"/>
						</g>
					</g>
					<g>
						<g>
							<polygon class="st3" points="315.1,285.9 325.8,298.5 317.3,312.7 306.6,300.1 							"/>
						</g>
					</g>
					<g>
						<g>
							<polygon class="st3" points="334.3,284.3 345,296.9 336.5,311.1 325.8,298.5 							"/>
						</g>
					</g>
					<g>
						<g>
							<polygon class="st3" points="353.5,282.7 364.2,295.3 355.7,309.5 345,296.9 							"/>
						</g>
					</g>
					<g>
						<g>
							<polygon class="st3" points="372.6,281.1 383.3,293.7 374.9,307.9 364.2,295.3 							"/>
						</g>
					</g>
					<g>
						<g>
							<polygon class="st3" points="391.8,279.5 402.5,292.1 394,306.3 383.3,293.7 							"/>
						</g>
					</g>
					<g>
						<g>
							<polygon class="st3" points="279,315.9 289.7,328.5 281.2,342.7 270.5,330.1 							"/>
						</g>
					</g>
					<g>
						<g>
							<polygon class="st3" points="298.2,314.3 308.9,326.9 300.4,341.1 289.7,328.5 							"/>
						</g>
					</g>
					<g>
						<g>
							<polygon class="st3" points="317.3,312.7 328,325.3 319.6,339.5 308.9,326.9 							"/>
						</g>
					</g>
					<g>
						<g>
							<polygon class="st3" points="336.5,311.1 347.2,323.7 338.7,337.9 328,325.3 							"/>
						</g>
					</g>
					<g>
						<g>
							<polygon class="st3" points="355.7,309.5 366.4,322.1 357.9,336.3 347.2,323.7 							"/>
						</g>
					</g>
					<g>
						<g>
							<polygon class="st3" points="374.9,307.9 385.6,320.5 377.1,334.7 366.4,322.1 							"/>
						</g>
					</g>
					<g>
						<g>
							<polygon class="st3" points="394,306.3 404.7,318.9 396.3,333.1 385.6,320.5 							"/>
						</g>
					</g>
				</g>
			</g>
		</g>
	</g>
	<g>
		<g>
			<path class="st11" d="M114.9,161.2c-2.6,8.6-7.3,16.5-13.1,23.4c-8.2,9.8-18.4,17.7-28.6,25.4c-0.9,0.7-1.9,1.4-2.5,2.4
				c-0.8,1.4-0.8,3.2-0.7,4.9c0.9,17.8-0.7,35.7-4.8,53.1c-0.7,2.9-1.5,5.9-1.5,8.9c-0.1,3.2,0.6,6.8-1.1,9.5
				c-0.4,0.7-1,1.3-1.3,2.1c-1,2.6,1.6,5.6,0.6,8.2c-0.1,0.3-0.2,0.5-0.4,0.8l0,0c-0.7,1.1-1.9,2.1-1.8,3.4c0,0.7,0.4,1.3,0.9,1.8
				c0.5,0.7,1.2,1.4,1.4,2.2c0.3,1.5-0.9,2.9-2.4,3.4c-1.5,0.4-3,0.1-4.6-0.2c-10.3-2.2-20.9-5.1-31.1-2.4c1.1-2.6,2.1-5.5,0.9-8
				c-0.4-0.7-0.9-1.3-1.1-2.1c-0.4-1.4,0.5-2.7,1.2-4c0.6-1.1,1.1-2.2,0.9-3.4c-0.1-0.4-0.3-0.7-0.4-1.1c-0.4-0.7-1-1.5-1.1-2.3
				c-0.4-2.4,2.6-3.9,3.7-6c1.1-2.2,0.3-4.8,0.1-7.2c-0.3-3.7,0.9-7.2,1.4-10.9c1.1-8.8-2-18,0.5-26.6c0.9-2.9,2.4-5.7,3.2-8.6
				c1.4-5.2,0.7-10.7,1-16.1c0.6-10.5,5.3-20.3,10-29.7c1.2-2.4,2.4-4.9,4.2-6.9c2.2-2.5,5.2-4.3,8.3-5.8
				c13.7-7.2,43.3-15.1,58.9-27.7C118.5,146.4,115.8,158.2,114.9,161.2z"/>
		</g>
		<g class="st21">
			<defs>
				<path id="SVGID_00000156564697039766649690000001741342523224659844_" class="st21" d="M114.9,161.2
					c-2.6,8.6-7.3,16.5-13.1,23.4c-8.2,9.8-18.4,17.7-28.6,25.4c-0.9,0.7-1.9,1.4-2.5,2.4c-0.8,1.4-0.8,3.2-0.7,4.9
					c0.9,17.8-0.7,35.7-4.8,53.1c-0.7,2.9-1.5,5.9-1.5,8.9c-0.1,3.2,0.6,6.8-1.1,9.5c-0.4,0.7-1,1.3-1.3,2.1c-1,2.6,1.6,5.6,0.6,8.2
					c-0.1,0.3-0.2,0.5-0.4,0.8l0,0c-0.7,1.1-1.9,2.1-1.8,3.4c0,0.7,0.4,1.3,0.9,1.8c0.5,0.7,1.2,1.4,1.4,2.2
					c0.3,1.5-0.9,2.9-2.4,3.4c-1.5,0.4-3,0.1-4.6-0.2c-10.3-2.2-20.9-5.1-31.1-2.4c1.1-2.6,2.1-5.5,0.9-8c-0.4-0.7-0.9-1.3-1.1-2.1
					c-0.4-1.4,0.5-2.7,1.2-4c0.6-1.1,1.1-2.2,0.9-3.4c-0.1-0.4-0.3-0.7-0.4-1.1c-0.4-0.7-1-1.5-1.1-2.3c-0.4-2.4,2.6-3.9,3.7-6
					c1.1-2.2,0.3-4.8,0.1-7.2c-0.3-3.7,0.9-7.2,1.4-10.9c1.1-8.8-2-18,0.5-26.6c0.9-2.9,2.4-5.7,3.2-8.6c1.4-5.2,0.7-10.7,1-16.1
					c0.6-10.5,5.3-20.3,10-29.7c1.2-2.4,2.4-4.9,4.2-6.9c2.2-2.5,5.2-4.3,8.3-5.8c13.7-7.2,43.3-15.1,58.9-27.7
					C118.5,146.4,115.8,158.2,114.9,161.2z"/>
			</defs>
			<clipPath id="SVGID_00000001628882799587498890000006720934362958478527_">
				<use xlink:href="#SVGID_00000156564697039766649690000001741342523224659844_"  style="overflow:visible;"/>
			</clipPath>
			<g style="opacity:0.8;clip-path:url(#SVGID_00000001628882799587498890000006720934362958478527_);">
				<g>
					<g>
						<g>
							<polygon class="st3" points="143.5,88 132.6,100.4 140.8,114.8 151.7,102.4 							"/>
						</g>
					</g>
					<g>
						<g>
							<polygon class="st3" points="124.4,86 113.5,98.4 121.7,112.8 132.6,100.4 							"/>
						</g>
					</g>
					<g>
						<g>
							<polygon class="st3" points="105.3,84.1 94.3,96.5 102.5,110.8 113.5,98.4 							"/>
						</g>
					</g>
					<g>
						<g>
							<polygon class="st3" points="86.1,82.1 75.2,94.5 83.4,108.9 94.3,96.5 							"/>
						</g>
					</g>
					<g>
						<g>
							<polygon class="st3" points="67,80.2 56,92.6 64.2,106.9 75.2,94.5 							"/>
						</g>
					</g>
					<g>
						<g>
							<polygon class="st3" points="47.8,78.2 36.9,90.6 45.1,105 56,92.6 							"/>
						</g>
					</g>
					<g>
						<g>
							<polygon class="st3" points="28.7,76.2 17.8,88.6 26,103 36.9,90.6 							"/>
						</g>
					</g>
					<g>
						<g>
							<polygon class="st3" points="140.8,114.8 129.9,127.2 138.1,141.5 149,129.1 							"/>
						</g>
					</g>
					<g>
						<g>
							<polygon class="st3" points="121.7,112.8 110.7,125.2 118.9,139.6 129.9,127.2 							"/>
						</g>
					</g>
					<g>
						<g>
							<polygon class="st3" points="102.5,110.8 91.6,123.3 99.8,137.6 110.7,125.2 							"/>
						</g>
					</g>
					<g>
						<g>
							<polygon class="st3" points="83.4,108.9 72.4,121.3 80.6,135.7 91.6,123.3 							"/>
						</g>
					</g>
					<g>
						<g>
							<polygon class="st3" points="64.2,106.9 53.3,119.3 61.5,133.7 72.4,121.3 							"/>
						</g>
					</g>
					<g>
						<g>
							<polygon class="st3" points="45.1,105 34.2,117.4 42.4,131.7 53.3,119.3 							"/>
						</g>
					</g>
					<g>
						<g>
							<polygon class="st3" points="26,103 15,115.4 23.2,129.8 34.2,117.4 							"/>
						</g>
					</g>
					<g>
						<g>
							<polygon class="st3" points="138.1,141.5 127.1,153.9 135.3,168.3 146.3,155.9 							"/>
						</g>
					</g>
					<g>
						<g>
							<polygon class="st3" points="118.9,139.6 108,152 116.2,166.4 127.1,153.9 							"/>
						</g>
					</g>
					<g>
						<g>
							<polygon class="st3" points="99.8,137.6 88.8,150 97,164.4 108,152 							"/>
						</g>
					</g>
					<g>
						<g>
							<polygon class="st3" points="80.6,135.7 69.7,148.1 77.9,162.4 88.8,150 							"/>
						</g>
					</g>
					<g>
						<g>
							<polygon class="st3" points="61.5,133.7 50.6,146.1 58.8,160.5 69.7,148.1 							"/>
						</g>
					</g>
					<g>
						<g>
							<polygon class="st3" points="42.4,131.7 31.4,144.1 39.6,158.5 50.6,146.1 							"/>
						</g>
					</g>
					<g>
						<g>
							<polygon class="st3" points="23.2,129.8 12.3,142.2 20.5,156.6 31.4,144.1 							"/>
						</g>
					</g>
					<g>
						<g>
							<polygon class="st3" points="135.3,168.3 124.4,180.7 132.6,195.1 143.5,182.7 							"/>
						</g>
					</g>
					<g>
						<g>
							<polygon class="st3" points="116.2,166.4 105.2,178.8 113.4,193.1 124.4,180.7 							"/>
						</g>
					</g>
					<g>
						<g>
							<polygon class="st3" points="97,164.4 86.1,176.8 94.3,191.2 105.2,178.8 							"/>
						</g>
					</g>
					<g>
						<g>
							<polygon class="st3" points="77.9,162.4 67,174.8 75.2,189.2 86.1,176.8 							"/>
						</g>
					</g>
					<g>
						<g>
							<polygon class="st3" points="58.8,160.5 47.8,172.9 56,187.2 67,174.8 							"/>
						</g>
					</g>
					<g>
						<g>
							<polygon class="st3" points="39.6,158.5 28.7,170.9 36.9,185.3 47.8,172.9 							"/>
						</g>
					</g>
					<g>
						<g>
							<polygon class="st3" points="20.5,156.6 9.5,169 17.7,183.3 28.7,170.9 							"/>
						</g>
					</g>
					<g>
						<g>
							<polygon class="st3" points="132.6,195.1 121.6,207.5 129.8,221.9 140.8,209.5 							"/>
						</g>
					</g>
					<g>
						<g>
							<polygon class="st3" points="113.4,193.1 102.5,205.5 110.7,219.9 121.6,207.5 							"/>
						</g>
					</g>
					<g>
						<g>
							<polygon class="st3" points="94.3,191.2 83.4,203.6 91.6,217.9 102.5,205.5 							"/>
						</g>
					</g>
					<g>
						<g>
							<polygon class="st3" points="75.2,189.2 64.2,201.6 72.4,216 83.4,203.6 							"/>
						</g>
					</g>
					<g>
						<g>
							<polygon class="st3" points="56,187.2 45.1,199.7 53.3,214 64.2,201.6 							"/>
						</g>
					</g>
					<g>
						<g>
							<polygon class="st3" points="36.9,185.3 25.9,197.7 34.1,212.1 45.1,199.7 							"/>
						</g>
					</g>
					<g>
						<g>
							<polygon class="st3" points="17.7,183.3 6.8,195.7 15,210.1 25.9,197.7 							"/>
						</g>
					</g>
				</g>
				<g>
					<g>
						<g>
							<polygon class="st3" points="9.8,74.4 -1.2,86.8 7,101.2 17.9,88.7 							"/>
						</g>
					</g>
					<g>
						<g>
							<polygon class="st3" points="-9.4,72.4 -20.3,84.8 -12.1,99.2 -1.2,86.8 							"/>
						</g>
					</g>
					<g>
						<g>
							<polygon class="st3" points="-28.5,70.5 -39.5,82.9 -31.3,97.2 -20.3,84.8 							"/>
						</g>
					</g>
					<g>
						<g>
							<polygon class="st3" points="-47.7,68.5 -58.6,80.9 -50.4,95.3 -39.5,82.9 							"/>
						</g>
					</g>
					<g>
						<g>
							<polygon class="st3" points="-66.8,66.5 -77.7,78.9 -69.5,93.3 -58.6,80.9 							"/>
						</g>
					</g>
					<g>
						<g>
							<polygon class="st3" points="-85.9,64.6 -96.9,77 -88.7,91.3 -77.7,78.9 							"/>
						</g>
					</g>
					<g>
						<g>
							<polygon class="st3" points="-105.1,62.6 -116,75 -107.8,89.4 -96.9,77 							"/>
						</g>
					</g>
					<g>
						<g>
							<polygon class="st3" points="7,101.2 -3.9,113.6 4.3,127.9 15.2,115.5 							"/>
						</g>
					</g>
					<g>
						<g>
							<polygon class="st3" points="-12.1,99.2 -23.1,111.6 -14.9,126 -3.9,113.6 							"/>
						</g>
					</g>
					<g>
						<g>
							<polygon class="st3" points="-31.3,97.2 -42.2,109.6 -34,124 -23.1,111.6 							"/>
						</g>
					</g>
					<g>
						<g>
							<polygon class="st3" points="-50.4,95.3 -61.3,107.7 -53.2,122 -42.2,109.6 							"/>
						</g>
					</g>
					<g>
						<g>
							<polygon class="st3" points="-69.5,93.3 -80.5,105.7 -72.3,120.1 -61.3,107.7 							"/>
						</g>
					</g>
					<g>
						<g>
							<polygon class="st3" points="-88.7,91.3 -99.6,103.8 -91.4,118.1 -80.5,105.7 							"/>
						</g>
					</g>
					<g>
						<g>
							<polygon class="st3" points="-107.8,89.4 -118.8,101.8 -110.6,116.2 -99.6,103.8 							"/>
						</g>
					</g>
					<g>
						<g>
							<polygon class="st3" points="4.3,127.9 -6.7,140.3 1.5,154.7 12.5,142.3 							"/>
						</g>
					</g>
					<g>
						<g>
							<polygon class="st3" points="-14.9,126 -25.8,138.4 -17.6,152.7 -6.7,140.3 							"/>
						</g>
					</g>
					<g>
						<g>
							<polygon class="st3" points="-34,124 -45,136.4 -36.8,150.8 -25.8,138.4 							"/>
						</g>
					</g>
					<g>
						<g>
							<polygon class="st3" points="-53.2,122 -64.1,134.5 -55.9,148.8 -45,136.4 							"/>
						</g>
					</g>
					<g>
						<g>
							<polygon class="st3" points="-72.3,120.1 -83.2,132.5 -75,146.9 -64.1,134.5 							"/>
						</g>
					</g>
					<g>
						<g>
							<polygon class="st3" points="-91.4,118.1 -102.4,130.5 -94.2,144.9 -83.2,132.5 							"/>
						</g>
					</g>
					<g>
						<g>
							<polygon class="st3" points="-110.6,116.2 -121.5,128.6 -113.3,142.9 -102.4,130.5 							"/>
						</g>
					</g>
					<g>
						<g>
							<polygon class="st3" points="1.5,154.7 -9.4,167.1 -1.2,181.5 9.7,169.1 							"/>
						</g>
					</g>
					<g>
						<g>
							<polygon class="st3" points="-17.6,152.7 -28.6,165.1 -20.4,179.5 -9.4,167.1 							"/>
						</g>
					</g>
					<g>
						<g>
							<polygon class="st3" points="-36.8,150.8 -47.7,163.2 -39.5,177.6 -28.6,165.1 							"/>
						</g>
					</g>
					<g>
						<g>
							<polygon class="st3" points="-55.9,148.8 -66.8,161.2 -58.6,175.6 -47.7,163.2 							"/>
						</g>
					</g>
					<g>
						<g>
							<polygon class="st3" points="-75,146.9 -86,159.3 -77.8,173.6 -66.8,161.2 							"/>
						</g>
					</g>
					<g>
						<g>
							<polygon class="st3" points="-94.2,144.9 -105.1,157.3 -96.9,171.7 -86,159.3 							"/>
						</g>
					</g>
					<g>
						<g>
							<polygon class="st3" points="-113.3,142.9 -124.3,155.3 -116.1,169.7 -105.1,157.3 							"/>
						</g>
					</g>
					<g>
						<g>
							<polygon class="st3" points="-1.2,181.5 -12.2,193.9 -4,208.2 7,195.8 							"/>
						</g>
					</g>
					<g>
						<g>
							<polygon class="st3" points="-20.4,179.5 -31.3,191.9 -23.1,206.3 -12.2,193.9 							"/>
						</g>
					</g>
					<g>
						<g>
							<polygon class="st3" points="-39.5,177.6 -50.4,190 -42.2,204.3 -31.3,191.9 							"/>
						</g>
					</g>
					<g>
						<g>
							<polygon class="st3" points="-58.6,175.6 -69.6,188 -61.4,202.4 -50.4,190 							"/>
						</g>
					</g>
					<g>
						<g>
							<polygon class="st3" points="-77.8,173.6 -88.7,186 -80.5,200.4 -69.6,188 							"/>
						</g>
					</g>
					<g>
						<g>
							<polygon class="st3" points="-96.9,171.7 -107.9,184.1 -99.7,198.4 -88.7,186 							"/>
						</g>
					</g>
					<g>
						<g>
							<polygon class="st3" points="-116.1,169.7 -127,182.1 -118.8,196.5 -107.9,184.1 							"/>
						</g>
					</g>
				</g>
				<g>
					<g>
						<g>
							<polygon class="st3" points="129.9,221.2 119,233.6 127.2,248 138.1,235.6 							"/>
						</g>
					</g>
					<g>
						<g>
							<polygon class="st3" points="110.8,219.2 99.8,231.6 108,246 119,233.6 							"/>
						</g>
					</g>
					<g>
						<g>
							<polygon class="st3" points="91.6,217.3 80.7,229.7 88.9,244.1 99.8,231.6 							"/>
						</g>
					</g>
					<g>
						<g>
							<polygon class="st3" points="72.5,215.3 61.6,227.7 69.8,242.1 80.7,229.7 							"/>
						</g>
					</g>
					<g>
						<g>
							<polygon class="st3" points="53.4,213.4 42.4,225.8 50.6,240.1 61.6,227.7 							"/>
						</g>
					</g>
					<g>
						<g>
							<polygon class="st3" points="34.2,211.4 23.3,223.8 31.5,238.2 42.4,225.8 							"/>
						</g>
					</g>
					<g>
						<g>
							<polygon class="st3" points="15.1,209.4 4.1,221.8 12.3,236.2 23.3,223.8 							"/>
						</g>
					</g>
					<g>
						<g>
							<polygon class="st3" points="127.2,248 116.2,260.4 124.4,274.7 135.4,262.3 							"/>
						</g>
					</g>
					<g>
						<g>
							<polygon class="st3" points="108,246 97.1,258.4 105.3,272.8 116.2,260.4 							"/>
						</g>
					</g>
					<g>
						<g>
							<polygon class="st3" points="88.9,244.1 78,256.5 86.2,270.8 97.1,258.4 							"/>
						</g>
					</g>
					<g>
						<g>
							<polygon class="st3" points="69.8,242.1 58.8,254.5 67,268.9 78,256.5 							"/>
						</g>
					</g>
					<g>
						<g>
							<polygon class="st3" points="50.6,240.1 39.7,252.5 47.9,266.9 58.8,254.5 							"/>
						</g>
					</g>
					<g>
						<g>
							<polygon class="st3" points="31.5,238.2 20.5,250.6 28.7,264.9 39.7,252.5 							"/>
						</g>
					</g>
					<g>
						<g>
							<polygon class="st3" points="12.3,236.2 1.4,248.6 9.6,263 20.5,250.6 							"/>
						</g>
					</g>
					<g>
						<g>
							<polygon class="st3" points="124.4,274.7 113.5,287.2 121.7,301.5 132.6,289.1 							"/>
						</g>
					</g>
					<g>
						<g>
							<polygon class="st3" points="105.3,272.8 94.4,285.2 102.5,299.6 113.5,287.2 							"/>
						</g>
					</g>
					<g>
						<g>
							<polygon class="st3" points="86.2,270.8 75.2,283.2 83.4,297.6 94.4,285.2 							"/>
						</g>
					</g>
					<g>
						<g>
							<polygon class="st3" points="67,268.9 56.1,281.3 64.3,295.6 75.2,283.2 							"/>
						</g>
					</g>
					<g>
						<g>
							<polygon class="st3" points="47.9,266.9 36.9,279.3 45.1,293.7 56.1,281.3 							"/>
						</g>
					</g>
					<g>
						<g>
							<polygon class="st3" points="28.7,264.9 17.8,277.3 26,291.7 36.9,279.3 							"/>
						</g>
					</g>
					<g>
						<g>
							<polygon class="st3" points="9.6,263 -1.3,275.4 6.9,289.8 17.8,277.3 							"/>
						</g>
					</g>
					<g>
						<g>
							<polygon class="st3" points="121.7,301.5 110.7,313.9 118.9,328.3 129.9,315.9 							"/>
						</g>
					</g>
					<g>
						<g>
							<polygon class="st3" points="102.5,299.6 91.6,312 99.8,326.3 110.7,313.9 							"/>
						</g>
					</g>
					<g>
						<g>
							<polygon class="st3" points="83.4,297.6 72.5,310 80.7,324.4 91.6,312 							"/>
						</g>
					</g>
					<g>
						<g>
							<polygon class="st3" points="64.3,295.6 53.3,308 61.5,322.4 72.5,310 							"/>
						</g>
					</g>
					<g>
						<g>
							<polygon class="st3" points="45.1,293.7 34.2,306.1 42.4,320.4 53.3,308 							"/>
						</g>
					</g>
					<g>
						<g>
							<polygon class="st3" points="26,291.7 15.1,304.1 23.2,318.5 34.2,306.1 							"/>
						</g>
					</g>
					<g>
						<g>
							<polygon class="st3" points="6.9,289.8 -4.1,302.2 4.1,316.5 15.1,304.1 							"/>
						</g>
					</g>
					<g>
						<g>
							<polygon class="st3" points="118.9,328.3 108,340.7 116.2,355.1 127.1,342.7 							"/>
						</g>
					</g>
					<g>
						<g>
							<polygon class="st3" points="99.8,326.3 88.9,338.7 97.1,353.1 108,340.7 							"/>
						</g>
					</g>
					<g>
						<g>
							<polygon class="st3" points="80.7,324.4 69.7,336.8 77.9,351.1 88.9,338.7 							"/>
						</g>
					</g>
					<g>
						<g>
							<polygon class="st3" points="61.5,322.4 50.6,334.8 58.8,349.2 69.7,336.8 							"/>
						</g>
					</g>
					<g>
						<g>
							<polygon class="st3" points="42.4,320.4 31.4,332.9 39.6,347.2 50.6,334.8 							"/>
						</g>
					</g>
					<g>
						<g>
							<polygon class="st3" points="23.2,318.5 12.3,330.9 20.5,345.3 31.4,332.9 							"/>
						</g>
					</g>
					<g>
						<g>
							<polygon class="st3" points="4.1,316.5 -6.8,328.9 1.4,343.3 12.3,330.9 							"/>
						</g>
					</g>
				</g>
				<g>
					<g>
						<g>
							<polygon class="st3" points="-3.9,207.6 -14.8,220 -6.6,234.4 4.3,222 							"/>
						</g>
					</g>
					<g>
						<g>
							<polygon class="st3" points="-23,205.6 -34,218 -25.8,232.4 -14.8,220 							"/>
						</g>
					</g>
					<g>
						<g>
							<polygon class="st3" points="-42.2,203.7 -53.1,216.1 -44.9,230.4 -34,218 							"/>
						</g>
					</g>
					<g>
						<g>
							<polygon class="st3" points="-61.3,201.7 -72.2,214.1 -64,228.5 -53.1,216.1 							"/>
						</g>
					</g>
					<g>
						<g>
							<polygon class="st3" points="-80.4,199.7 -91.4,212.1 -83.2,226.5 -72.2,214.1 							"/>
						</g>
					</g>
					<g>
						<g>
							<polygon class="st3" points="-99.6,197.8 -110.5,210.2 -102.3,224.6 -91.4,212.1 							"/>
						</g>
					</g>
					<g>
						<g>
							<polygon class="st3" points="-118.7,195.8 -129.7,208.2 -121.5,222.6 -110.5,210.2 							"/>
						</g>
					</g>
					<g>
						<g>
							<polygon class="st3" points="-6.6,234.4 -17.6,246.8 -9.4,261.1 1.6,248.7 							"/>
						</g>
					</g>
					<g>
						<g>
							<polygon class="st3" points="-25.8,232.4 -36.7,244.8 -28.5,259.2 -17.6,246.8 							"/>
						</g>
					</g>
					<g>
						<g>
							<polygon class="st3" points="-44.9,230.4 -55.8,242.8 -47.6,257.2 -36.7,244.8 							"/>
						</g>
					</g>
					<g>
						<g>
							<polygon class="st3" points="-64,228.5 -75,240.9 -66.8,255.2 -55.8,242.8 							"/>
						</g>
					</g>
					<g>
						<g>
							<polygon class="st3" points="-83.2,226.5 -94.1,238.9 -85.9,253.3 -75,240.9 							"/>
						</g>
					</g>
					<g>
						<g>
							<polygon class="st3" points="-102.3,224.6 -113.3,237 -105.1,251.3 -94.1,238.9 							"/>
						</g>
					</g>
					<g>
						<g>
							<polygon class="st3" points="-121.5,222.6 -132.4,235 -124.2,249.4 -113.3,237 							"/>
						</g>
					</g>
					<g>
						<g>
							<polygon class="st3" points="-9.4,261.1 -20.3,273.5 -12.1,287.9 -1.2,275.5 							"/>
						</g>
					</g>
					<g>
						<g>
							<polygon class="st3" points="-28.5,259.2 -39.4,271.6 -31.2,285.9 -20.3,273.5 							"/>
						</g>
					</g>
					<g>
						<g>
							<polygon class="st3" points="-47.6,257.2 -58.6,269.6 -50.4,284 -39.4,271.6 							"/>
						</g>
					</g>
					<g>
						<g>
							<polygon class="st3" points="-66.8,255.2 -77.7,267.7 -69.5,282 -58.6,269.6 							"/>
						</g>
					</g>
					<g>
						<g>
							<polygon class="st3" points="-85.9,253.3 -96.9,265.7 -88.7,280.1 -77.7,267.7 							"/>
						</g>
					</g>
					<g>
						<g>
							<polygon class="st3" points="-105.1,251.3 -116,263.7 -107.8,278.1 -96.9,265.7 							"/>
						</g>
					</g>
					<g>
						<g>
							<polygon class="st3" points="-124.2,249.4 -135.1,261.8 -126.9,276.1 -116,263.7 							"/>
						</g>
					</g>
					<g>
						<g>
							<polygon class="st3" points="-12.1,287.9 -23,300.3 -14.8,314.7 -3.9,302.3 							"/>
						</g>
					</g>
					<g>
						<g>
							<polygon class="st3" points="-31.2,285.9 -42.2,298.3 -34,312.7 -23,300.3 							"/>
						</g>
					</g>
					<g>
						<g>
							<polygon class="st3" points="-50.4,284 -61.3,296.4 -53.1,310.8 -42.2,298.3 							"/>
						</g>
					</g>
					<g>
						<g>
							<polygon class="st3" points="-69.5,282 -80.5,294.4 -72.3,308.8 -61.3,296.4 							"/>
						</g>
					</g>
					<g>
						<g>
							<polygon class="st3" points="-88.7,280.1 -99.6,292.5 -91.4,306.8 -80.5,294.4 							"/>
						</g>
					</g>
					<g>
						<g>
							<polygon class="st3" points="-107.8,278.1 -118.7,290.5 -110.5,304.9 -99.6,292.5 							"/>
						</g>
					</g>
					<g>
						<g>
							<polygon class="st3" points="-126.9,276.1 -137.9,288.5 -129.7,302.9 -118.7,290.5 							"/>
						</g>
					</g>
					<g>
						<g>
							<polygon class="st3" points="-14.8,314.7 -25.8,327.1 -17.6,341.5 -6.7,329 							"/>
						</g>
					</g>
					<g>
						<g>
							<polygon class="st3" points="-34,312.7 -44.9,325.1 -36.7,339.5 -25.8,327.1 							"/>
						</g>
					</g>
					<g>
						<g>
							<polygon class="st3" points="-53.1,310.8 -64.1,323.2 -55.9,337.5 -44.9,325.1 							"/>
						</g>
					</g>
					<g>
						<g>
							<polygon class="st3" points="-72.3,308.8 -83.2,321.2 -75,335.6 -64.1,323.2 							"/>
						</g>
					</g>
					<g>
						<g>
							<polygon class="st3" points="-91.4,306.8 -102.3,319.2 -94.1,333.6 -83.2,321.2 							"/>
						</g>
					</g>
					<g>
						<g>
							<polygon class="st3" points="-110.5,304.9 -121.5,317.3 -113.3,331.6 -102.3,319.2 							"/>
						</g>
					</g>
					<g>
						<g>
							<polygon class="st3" points="-129.7,302.9 -140.6,315.3 -132.4,329.7 -121.5,317.3 							"/>
						</g>
					</g>
				</g>
			</g>
		</g>
	</g>
	<g>
		<path class="st9" d="M132.8,29.2c-0.5-0.1-6.4,7.5-7.1,14.2c-0.1,1.1-0.3,1.2-1.3,1.3c-1.1,0.1-2.3,0.3-3.4,0.6
			c-2.2,0.6-4.3,1.7-6.1,3.1c-4.6,3.4-8.2,8.5-10.3,13.7c-3.4,8.5-4.7,16.9-5.4,25.9c-0.9,10.4-2.8,20.9-3.1,31.3
			c-0.4,14.4,1,29.2,7.1,42.5c2.6,5.7,6.8,10.3,9.5,15.8c0.2,0.3,0.3,0.6,0.5,0.9c1.9,3.9,1.7,9.6-0.4,13.4c-2.9,5.2-9.1,8.2-15,7.8
			c-2.5-0.2-4.8-1.1-6.8-2.7c-2.7-2.2-4.5-5.4-4.3-8.8c0.1-1.6,0.7-3.3,2.1-4c1.4-0.7,3.6,0.3,3.4,1.9c-0.1,0.6-0.5,1.2-0.3,1.8
			c0.1,0.3,0.4,0.5,0.7,0.5c0.5,0.1,1.2-0.2,1.5-0.7c0.3-0.6,0.2-1.3,0-1.9c-0.1-0.2-0.1-0.5-0.2-0.7c-5.5-16.6-8.4-33.4-7.1-51
			c1.3-17.2,5.4-34,7.7-51c0.9-6.4,0.4-13,1.3-19.4c1.4-9.2,5.4-18.3,12.2-24.7c5.4-5.1,12.1-8.5,19.4-9.9
			C128.8,28.6,131.2,28.8,132.8,29.2z"/>
	</g>
	<g>
		<path class="st9" d="M196.8,193.7c-4.1,4.3-16.3,10.4-28.2,8.1c-3.1-0.6-6.2-1.8-9.1-3.7c-8-5.3-10.3-16.8-7.4-25.4
			c0.1-0.4,0.3-0.8,0.4-1.1c3.1-7.5,4.7-16,4.4-24.2c-0.3-8-2.2-15.9-2.8-23.9c-0.4-5.9-0.9-11.8-1.3-17.7
			c-0.5-8.6-0.1-17.1,0.1-25.7c0.3-8.7-1-17.9-5.5-25.7c-2.1-3.6-5.9-7.7-10-9c-3.7-1.2-11.1-0.5-11.5-1.2c-0.4-0.7-0.1-6.4,4.8-13
			c4.9-6.7,12.6-3.3,18.1-2.4c5.3,0.8,10.2,4.3,14.4,7.8c8,6.7,13.4,15.9,14.1,26.1c0.8,11.5,0,23.5,2.5,34.8
			c2.6,11.8,7,23,10.2,34.6c2.9,10.5,5.1,21.4-0.3,31.5c-1,1.9-2.2,3.7-3.8,5.1c-1.1,1.1-4.3,6.9-0.7,9.5c0.5,0.3,1,0.5,1.6,0.6
			c2.1,0.5,4.5-0.4,5.1-2.4c0.3-1.1-0.2-2.6-1.3-2.9c-1-0.2-2.2,0.4-2.9-0.3c-0.2-0.2-0.4-0.6-0.4-0.9c-0.2-3.4,3.1-6.1,6.3-6
			c3.5,0.1,6.3,3.6,7.3,6.7C203.3,179.8,201.7,188.7,196.8,193.7z"/>
	</g>
	<g class="st24">
		<path class="st2" d="M182.3,175c-2.3,0-4.1-1-4.9-1.6c0.3,0.5,1.6,2.9,4.4,3.6c1.1,0.3,2.1,0.2,2.7,0.1c-0.3,0.2-3.4,2.3-6.9,1.1
			c-2.3-0.8-3.6-2.5-4-3.1c0,0.1-0.7,3,1.2,4.9c1.7,1.7,4.9,1.8,7.2-0.1c-0.3,0.3-3.8,3.5-8.6,2.5c-4.4-0.9-6.4-4.4-6.6-4.9
			c-0.7,2.8,0.5,5.8,2.8,7.4c2.2,1.5,5.1,1.6,7.5,0.2c-3.2,3.2-7.8,4.2-11.7,2.7c-4.5-1.7-6.2-7.4-6.6-7.2c-0.4,0.2,1,5.5,4.9,10.6
			c1.6,2.1,3.3,3.7,4.9,5.1c-3.1-0.6-6.2-1.8-9.1-3.7c-8-5.3-10.3-16.8-7.4-25.4c2.1-2,4.4-2.5,6.5-6c3.1-5.2,2.1-10.7,2.6-10.7
			c0.4,0,0.9,4.6,0.2,9.8c-0.4,2.8-1.1,5-1.6,6.6c1.1-1.1,3.5-3.9,4.2-8.2c0.4-2.3,0.1-4.3-0.1-5.6c0.6,1.6,1.6,4.5,1.2,8.1
			c-0.2,1.9-0.7,3.4-1.1,4.6c1.8-1.9,4.7-5.5,6.3-10.8c2.7-9.1-0.4-16.9-1.4-19.2c-0.3-0.7,5.6,7,5.6,16.3c0,4.5-1.1,8.1-2.1,10.6
			c1.1-1.1,3.2-3.7,4.2-7.7c1-4.1,0.2-7.5-0.2-8.9c0.8,1.7,2.1,4.9,2.1,9.1c0,3.6-0.9,6.4-1.6,8c2.4-1.5,3.9-3.2,4.9-4.6
			c6.6-9.7-0.9-23.2-1.3-23.9c1.8,2,5.7,6.7,7,14c1.1,6.1,0,11.3-1.3,14.8c-1.1,1.1-4.5,6.9-0.7,9.5c0.5,0.3,1,0.5,1.6,0.6
			C185.9,174.3,184.2,175,182.3,175z"/>
	</g>
	<g class="st24">
		<path class="st2" d="M112.6,186.3c-2.9,5.2-9.1,8.2-15,7.8c-2.5-0.2-4.8-1.1-6.8-2.7c1.1,0.2,2.3,0.3,3.6,0
			c0.6-0.1,1.1-0.3,1.5-0.5c-0.6,0.1-2.5,0.2-4.4-1.1c-1.3-0.9-2-2.1-2.2-2.7c0.2,0.2,1.2,1,2.6,0.9c1.3-0.1,2.4-1,2.9-2.2
			c-2.2,0.8-4.5,0-5.2-1.6c-0.7-1.5,0.1-3.1,0.2-3.3c0.1,1.5,1.1,2.5,1.7,2.4c0.3,0,0.6-0.3,0.8-0.7c0.5,0.1,1.2-0.2,1.5-0.7
			c0.3-0.6,0.2-1.3,0-1.9c2.2-1.4,3.4-3.7,3.1-6c-0.3-2.4-2.3-3.8-2.7-4.1c0.6,0.3,3.5,1.7,4.8,5.1c1.5,3.7,0,7-0.3,7.5
			c0.6-0.4,2.1-1.6,3-3.6c1.1-2.6,0.6-4.9,0.4-5.6c0.5,0.8,2.1,3.5,1.6,7.2c-0.4,2.5-1.6,4.2-2.2,5c0.7-0.3,2.8-1.1,4.3-3.3
			c1.2-1.8,1.4-3.5,1.5-4.3c0.2,0.9,0.6,3-0.1,5.4c-0.5,1.6-1.4,2.8-1.9,3.4c2.1-0.5,3.4-1.4,4.3-2.2c2.9-2.7,4-7.4,3-12.6
			c0.2,0.3,0.3,0.6,0.5,0.9C114.9,176.8,114.7,182.5,112.6,186.3z"/>
	</g>
</g>
</svg>
