<svg id="Layer_1" data-name="Layer 1" xmlns="http://www.w3.org/2000/svg" xmlns:xlink="http://www.w3.org/1999/xlink" viewBox="0 0 264 214"><defs><style>.cls-1,.cls-18,.cls-25{fill:none;}.cls-2{fill:#6243cf;}.cls-3{fill:#fff;}.cls-4{fill:#4f1b0c;}.cls-5{fill:#dbd3b4;}.cls-6{opacity:0.35;}.cls-7{fill:#bfab9b;}.cls-8{fill:#f9efde;}.cls-9{fill:#a87171;}.cls-10{fill:#f5f6f7;}.cls-11{fill:#28323a;}.cls-12{fill:#1a293f;}.cls-13{fill:#692916;}.cls-14{fill:#6b84b5;}.cls-15{fill:#365185;}.cls-16{fill:#cfd5e0;}.cls-17{fill:#d1d1d1;}.cls-18{stroke:#cfd5e0;stroke-width:0.23px;}.cls-18,.cls-25{stroke-miterlimit:10;}.cls-19{fill:#ebdeca;}.cls-20{fill:#82724e;}.cls-21{clip-path:url(#clip-path);}.cls-22{fill:#b3a178;}.cls-23{fill:#2c3559;}.cls-24{fill:#82321f;}.cls-25{stroke:#fff;stroke-width:0.75px;}</style><clipPath id="clip-path"><path class="cls-1" d="M185.24,128.77c-1.85-8.45-3.54-17.22-6.21-25.47-1-3.16-2.59-7.61-5.77-9.22-2.69-1.36-6.52-1.5-9.45-1.86a80.8,80.8,0,0,1-17.21-4.17c-1,1-.13,2.88.68,4.48-4.17.8-10,2.35-12.63,2-5.48-.62-9.52-2.38-13.55-2.29.78-1.54,1.47-3.26.56-4.24a80.71,80.71,0,0,1-17.2,4.17c-2.94.36-6.77.5-9.46,1.86-3.18,1.61-4.74,6.06-5.76,9.22-2.68,8.25-4.36,17-6.22,25.47a40.33,40.33,0,0,0-.71,16.15c.84,5.31,4.24,17,5.25,18.85,2.09,3.93,6.12,7.69,7.16,6.14,1.22-1.81,4.68-4,6.57-2.5a4.54,4.54,0,0,0,.8-1,14.67,14.67,0,0,0,2.61,3.94c4.76,5.15,14.17,5.71,20.63,4.4a72.23,72.23,0,0,1,17-1.28c4,.13,8.09.22,11.89-1.31a17,17,0,0,0,8.45-7,7.9,7.9,0,0,1,3.61,2.73c1,1.55,6.59-1.85,8.69-5.78,1-1.89,10.1-12,11-17.26A40.15,40.15,0,0,0,185.24,128.77ZM102,143.93c-.44,2.55-1,5.34-1.3,8.19a38.3,38.3,0,0,0-5.24-10.56c2.34.42,4.39-4.15,5.29-5.84s1.8-3.63,2.65-5.45c0,.28,0,.57,0,.86A96.68,96.68,0,0,1,102,143.93Zm63.21,2.57c-.67-4.16-1.88-8.25-2.52-12.42a42.94,42.94,0,0,1-.33-9c2.94,5.4,6.79,13,7.7,14.47C168.56,141.78,166.88,144.1,165.25,146.5Z"/></clipPath></defs><rect class="cls-2" x="24.95" y="-25.05" width="214" height="264.1" transform="translate(238.95 -24.95) rotate(90)"/><path class="cls-3" d="M185.24,128.77c-1.85-8.45-3.54-17.22-6.21-25.47-1-3.16-2.59-7.62-5.77-9.22-2.68-1.36-6.49-1.5-9.42-1.86l0-.17a3.17,3.17,0,0,0,.7-1.27,5.38,5.38,0,0,0-.66-3.4,16,16,0,0,0-1.61-2.67,3.66,3.66,0,0,1-.59-1,3.1,3.1,0,0,1-.09-1,23.1,23.1,0,0,0,0-4.32,12.16,12.16,0,0,0-1-3.22c-1.76-4-4.55-7.45-7.3-10.85l-.25-.3a15.91,15.91,0,0,0-1-3.79,18.48,18.48,0,0,0-2.33-4,39.6,39.6,0,0,0-3.25-3.83,18,18,0,0,1-.39-2.84.28.28,0,0,0,0-.13l0-.55.07-.37a.72.72,0,0,0-.3-.62l-.06,0a4.85,4.85,0,0,0-1.63-4.2,14.08,14.08,0,0,0-4.31-2.43l-1.26-.52A27,27,0,0,0,134,39.09a9.15,9.15,0,0,0-4.9.14,11.24,11.24,0,0,0-2.06,1,50.15,50.15,0,0,0-6,4.5,5.09,5.09,0,0,0-1.38,1.51,3.87,3.87,0,0,0-.26,2.35,1.6,1.6,0,0,0-.18.56l0,.29a.16.16,0,0,0,.1.19,13.94,13.94,0,0,0-.77,1.83c-.39,1-.64,1.7-1,2.64-.78.88-1.54,1.78-2.24,2.73A18.52,18.52,0,0,0,113,60.79a15.91,15.91,0,0,0-1,3.79l-.24.3c-2.76,3.4-5.55,6.85-7.31,10.85a12.54,12.54,0,0,0-1,3.22,24,24,0,0,0,0,4.32,3.1,3.1,0,0,1-.09,1,3.42,3.42,0,0,1-.59,1A16,16,0,0,0,101.17,88a5.31,5.31,0,0,0-.65,3.4,3.1,3.1,0,0,0,.64,1.21A18.57,18.57,0,0,0,95,94.08c-3.18,1.6-4.74,6.06-5.76,9.22-2.68,8.25-4.36,17-6.22,25.47a40.28,40.28,0,0,0-.71,16.14c.84,5.31,4.24,17,5.25,18.86,2.09,3.93,6.12,7.69,7.16,6.14l.16-.21a19.34,19.34,0,0,1,1.1,2.18c.34.87.58,1.76.87,2.65a55.64,55.64,0,0,0,3.46,7.83,3.4,3.4,0,0,0,.31.52,4.25,4.25,0,0,1-.26,1.05c0,.17.14.26.32.3-.29,1.76-.59,3.53-.89,5.29-.23,1.39.5,2.7.43,4.1a3.41,3.41,0,0,1-.37,1.71c-.19.28-.47.49-.67.76-.61.83-.39,2-.46,3-.14,2.14-1.57,4.33-1.51,6.47,0,.55.13,1.09.09,1.63a7.72,7.72,0,0,1-.5,1.87,64.2,64.2,0,0,0-1.61,7.37h33.53c.45-2.84.92-5.75,1.44-8.92.25.5.51,4.35.83,8.92h31.07c-.38-6.34-.82-11.92-.68-12.64a16.94,16.94,0,0,0,.19-4.09q-.23-6.3-.44-12.6c0-1.28-.1-2.57-.17-3.86a.47.47,0,0,0,.37-.24c0-.13-.08-.41,0-.53s.19-.15.26-.25a.36.36,0,0,0-.14-.45,1.1,1.1,0,0,0-.51-.13h-.1c0-.29-.06-.58-.09-.87a54.88,54.88,0,0,0,3.38-7.65c.28-.88.53-1.78.87-2.64a20.57,20.57,0,0,1,1.31-2.56v0c1,1.55,6.59-1.85,8.69-5.78,1-1.89,10.1-12,11-17.27A40.11,40.11,0,0,0,185.24,128.77Zm-83.95,38.64a4.46,4.46,0,0,0,.8-1,15.17,15.17,0,0,0,1.48,2.59c-.08.39-.16.78-.24,1.19-.13-.12-.27-.22-.39-.35a14.13,14.13,0,0,1-1.52-2.15c-.08-.11-.15-.23-.22-.35Zm-.5-31.69c.94-1.8,1.8-3.62,2.65-5.44,0,.28,0,.57,0,.85a96.68,96.68,0,0,1-1.38,12.8c-.44,2.55-1,5.35-1.3,8.2a38.08,38.08,0,0,0-5.24-10.57C97.84,142,99.89,137.41,100.79,135.72Zm64.46,10.8c-.67-4.17-1.88-8.27-2.52-12.44a42.08,42.08,0,0,1-.32-9c2.93,5.39,6.78,13,7.69,14.45C168.55,141.79,166.88,144.11,165.25,146.52Z"/><path class="cls-3" d="M168.1,222.14H88.41l1.19-6.68a63.11,63.11,0,0,1,1.81-8.2l.14-.42,0-.11c0-.33-.06-.67-.07-1a15.37,15.37,0,0,1,1.07-5.45,12.43,12.43,0,0,0,.46-1.54c0-.13,0-.27,0-.4A8.91,8.91,0,0,1,94.43,193v0a11.2,11.2,0,0,1-.24-4.37l.59-3.5a6.67,6.67,0,0,1-.1-1.27,54.15,54.15,0,0,1-3.23-7.53c-.09-.29-.18-.58-.28-.88v-.05c-4.9-2-8.44-8.58-8.61-8.9-1.57-2.95-5-15.51-5.85-20.64a45.82,45.82,0,0,1,.78-18.26c.33-1.49.65-3,1-4.5a216.58,216.58,0,0,1,5.39-21.5C84.94,98.12,87,91.75,92.44,89a16.44,16.44,0,0,1,2.67-1A14,14,0,0,1,96,85.51a21.61,21.61,0,0,1,1.69-2.91h0a22.17,22.17,0,0,1,.06-4.43,17.37,17.37,0,0,1,1.43-4.72,50.34,50.34,0,0,1,7.41-11.3,21,21,0,0,1,1.07-3.52,24.48,24.48,0,0,1,3-5.16c.55-.75,1.16-1.5,1.86-2.32l.69-1.84.32-.85v-.07l.06-.34a9.44,9.44,0,0,1,.93-4.32,10.15,10.15,0,0,1,2.82-3.34,54.31,54.31,0,0,1,6.68-5,16,16,0,0,1,3.15-1.53,14.65,14.65,0,0,1,8-.32,32.37,32.37,0,0,1,5.67,1.94l1.26.52a19.26,19.26,0,0,1,6,3.53,10.78,10.78,0,0,1,3.46,6.95,6.52,6.52,0,0,1,.32,2.29l0,.46c0,.12,0,.24,0,.36s0,.18,0,.26c.88,1,1.71,2,2.46,3a24.48,24.48,0,0,1,3,5.16,20.12,20.12,0,0,1,1.07,3.52,50.87,50.87,0,0,1,7.42,11.29,18.06,18.06,0,0,1,1.42,4.74,21.35,21.35,0,0,1,.06,4.42h0A21.11,21.11,0,0,1,169,84.92a13,13,0,0,1,.89,2.3,20.67,20.67,0,0,1,5.9,1.78c5.44,2.75,7.5,9.12,8.61,12.55a219.77,219.77,0,0,1,5.39,21.52c.32,1.5.64,3,1,4.48a46,46,0,0,1,.78,18.26c-.79,4.9-5.08,10.72-9.79,16.76-.7.89-1.56,2-1.82,2.39a19.78,19.78,0,0,1-10,8.59l-.15.48c-.09.29-.18.58-.28.88a46.38,46.38,0,0,1-2.39,5.81,6.07,6.07,0,0,1-.3,3.71c0,.12-.07.25-.11.37,0,.71.05,1.42.08,2.12l.44,12.6a23.54,23.54,0,0,1-.21,5c0,1,.2,3.84.37,6.38.1,1.61.22,3.39.33,5.23Zm-31.82-11.37H156c-.39-6-.42-7-.19-8.11a12.56,12.56,0,0,0,.07-2.74l-.44-12.59c0-1.24-.09-2.49-.16-3.72l-.1-1.47c0-.14,0-.27-.05-.4l-.2-2,.1-.21,0-.68.43-.1.25-.5a50.26,50.26,0,0,0,3.05-6.84c.08-.25.15-.49.22-.73.22-.68.46-1.45.78-2.26a23.88,23.88,0,0,1,1.69-3.33l4.32-7.39,2.74,3.66A7.19,7.19,0,0,0,170,159.5a31.16,31.16,0,0,1,2.84-3.93c1.76-2.26,7.13-9.14,7.51-11.55a34.41,34.41,0,0,0-.65-14h0c-.33-1.51-.66-3-1-4.54-1.47-6.82-3-13.88-5.09-20.4-1.49-4.6-2.47-5.67-2.92-5.9A20.27,20.27,0,0,0,165,98.07l-1.87-.2-6.38-.78,1.48-5.92.14-1.51.2-.22a10.79,10.79,0,0,0-.84-1.34,8.52,8.52,0,0,1-1.44-2.63,8.4,8.4,0,0,1-.36-3c0-.39,0-.77.07-1.16a13,13,0,0,0,0-2.13,7.33,7.33,0,0,0-.57-1.72c-1.47-3.33-4-6.49-6.52-9.55l-1.23-1.52-.22-1.54a10.85,10.85,0,0,0-.62-2.46,13,13,0,0,0-1.66-2.73,32.7,32.7,0,0,0-2.76-3.26l-.89-.93-.41-1.21a12.35,12.35,0,0,1-.56-3.13v-.05l-.89-.66.43-2.73a14.55,14.55,0,0,0-2.4-1.17L136.48,46a22.34,22.34,0,0,0-3.71-1.32,3.44,3.44,0,0,0-1.84,0,5.6,5.6,0,0,0-1,.5,29.59,29.59,0,0,0-3,2.13l.06,0-2.74,5.07a8.75,8.75,0,0,0-.37.92l-1.44,3.84-.7.79a30.15,30.15,0,0,0-1.92,2.33A13.28,13.28,0,0,0,118.21,63a10.34,10.34,0,0,0-.62,2.46L117.36,67l-1.22,1.51c-2.49,3.07-5.06,6.23-6.53,9.56a6.85,6.85,0,0,0-.56,1.71,11.15,11.15,0,0,0,0,2.14l.06,1.15a7.84,7.84,0,0,1-1.75,5.61,11.36,11.36,0,0,0-.91,1.43l5.88,7-10.55,1.21a15.25,15.25,0,0,0-4.24.92c-.45.23-1.43,1.3-2.92,5.9-2.11,6.51-3.62,13.56-5.09,20.38-.32,1.53-.65,3-1,4.56s-.62,3-.8,4.41l6.63,1.19c.4-.68.81-1.49,1-1.89l.32-.63c.87-1.65,1.66-3.33,2.53-5.19L109.88,103l-.76,27.72c0,.21,0,.42,0,.63a101.19,101.19,0,0,1-1.46,13.55l-.21,1.21c-.38,2.18-.78,4.44-1.05,6.68l-.87,7.4,1.76,3.88a8.63,8.63,0,0,0,.91,1.61l1.45,2-2.51,12.59-1.67,9.87.09.39a12.55,12.55,0,0,1,.36,3.38,8.61,8.61,0,0,1-1.33,4.57l-.15.22c0,.26,0,.52,0,.77a17.09,17.09,0,0,1-1.05,4.47,13,13,0,0,0-.46,1.55h0a.54.54,0,0,1,0,.17,11.94,11.94,0,0,1,.06,1.92,11.28,11.28,0,0,1-.69,3l-.06.16h21.64c.22-1.35.44-2.73.68-4.16l2.85-17.37L135.25,205C135.78,206.06,136,207,136.28,210.77Zm30.71-6a1.77,1.77,0,0,1,0,.2C167,204.91,167,204.84,167,204.77Zm13-39.91,0,0ZM90,152.71l6.37,4.39-1-3.28a32.5,32.5,0,0,0-4.49-9L87.51,140a33.71,33.71,0,0,0,.41,4C88.27,146.19,89.09,149.53,90,152.71Zm16.14-61.8ZM124.35,49.4Zm15.91-2.53s0,.06,0,.08Zm21.65,114.7-2.28-14.15c-.29-1.85-.72-3.72-1.16-5.7-.49-2.18-1-4.44-1.36-6.77a47.78,47.78,0,0,1-.38-10.18l1.17-19.86,9.5,17.48c1.39,2.55,3,5.55,4.34,8.2,1.25,2.38,2.8,5.35,3.17,5.95l2,3.17-2.13,3.09L173,145.39c-1,1.41-2,2.85-3,4.32Z"/><path class="cls-4" d="M128.06,84.9a5.45,5.45,0,0,0,3.46-.79,3.92,3.92,0,0,0,1.11-1.87c.88-2.94-.07-6.08-.49-9.12-.67-4.91,0-10.08-1.72-14.72-1.23-3.25-3.56-5.94-5.85-8.55a6.19,6.19,0,0,0-1.24-1.16c-.21,1.74-1.86,2.87-3,4.16-1.91,2.07-2.77,4.87-3.57,7.58a61.11,61.11,0,0,0-2.5,11.05,21.71,21.71,0,0,0,1.5,11.12c.93,2,2.29,3.89,3.06,6C120.71,85.61,124.8,85,128.06,84.9Z"/><path class="cls-4" d="M142.37,58.86c-.8,2.57-1.53,5.17-2.26,7.76a40.62,40.62,0,0,0-1.3,5.63c-.49,3.74.07,7.6-.86,11.26,2.25-1,4,8.41,6.49,8.24.73,0,2.13-10.1,2.78-10.43a4.54,4.54,0,0,0,1.88-2.69,32.09,32.09,0,0,0,.71-19c-.48-1.77-1.51-4.86-3.4-5.64C144,53,142.92,57.11,142.37,58.86Z"/><path class="cls-5" d="M141.46,73.7v0L141,88.17l-3.48,4.58-.17-.07-12.09-4.51s-.06-13.19,0-13.47L137.58,74h.06Z"/><g class="cls-6"><polygon class="cls-7" points="141.46 73.73 141.03 88.17 137.55 92.75 137.38 92.68 131.89 85.29 125.55 77.79 137.58 73.96 137.64 73.96 141.46 73.73"/></g><path class="cls-8" d="M145.55,64a2.82,2.82,0,0,1-.37,1.51l-1.51,5.9a7.23,7.23,0,0,1-2.18,5.22l-3.67,3.5a2.39,2.39,0,0,1-1.64.67h-5.76a2.38,2.38,0,0,1-1.41-.48l-3.46-2.57a7.1,7.1,0,0,1-2.74-4.86l-2.48-6.46a2.68,2.68,0,0,1-.45-1.59c0-.9,0-2.25,0-2.88-.06-.81,0-5,0-6.42a2.62,2.62,0,0,1,.15-.88l1.65-4.83a2.65,2.65,0,0,1,.95-1.3l9.05-6.49a2.18,2.18,0,0,1,.83-.39,2.29,2.29,0,0,1,1,0l7.76,1.61a2.56,2.56,0,0,1,1.91,1.92l1.93,7.66a2.9,2.9,0,0,1,.09.59Z"/><path class="cls-5" d="M132,80.84h-1.57a2.38,2.38,0,0,1-1.41-.48l-3.46-2.57a7.1,7.1,0,0,1-2.74-4.86l-2.48-6.46a2.68,2.68,0,0,1-.45-1.59c0-.9,0-2.25,0-2.88-.06-.81,0-5,0-6.42a2.62,2.62,0,0,1,.15-.88l1.65-4.83a2.65,2.65,0,0,1,.95-1.3l9.05-6.49a2.18,2.18,0,0,1,.83-.39c0,2.44-1.24,4-1,7.41,0,.39.08,1.7.12,3.73,0,.21-.39.28-.36.87,0,.36.39.63.39.8,0,.4,0,.08,0,.5,0,.18-.26.36-.29.69-.06.54.3.66.31.85,0,1.77,0,3.65,0,5.4a43.81,43.81,0,0,0,.05,6.13c0,.31-1.94-1.07-1.58.56.18.79,2.16,2.36,2,2.83-.44,1.29.52,2.49.4,3.18s-.61,1.45-.72,2.26A9.25,9.25,0,0,0,132,80.84Z"/><path class="cls-9" d="M133.36,73.23l-.82-.75-.34-.32a3.87,3.87,0,0,0-.59,0,17.46,17.46,0,0,1-1.76,1,7.41,7.41,0,0,1-.72-.38l-.54,1.08s1.27-.59,1.35-.59Z"/><path class="cls-9" d="M132.05,73.23l.88-.75.36-.32a4.41,4.41,0,0,1,.63,0,18.34,18.34,0,0,0,1.9.68c.12,0,.74-.07.74-.07l.57,1.08s-1.35-.59-1.44-.59Z"/><path class="cls-10" d="M123.58,61.31a11.81,11.81,0,0,1,3.62-.14A6.09,6.09,0,0,1,129,62.26c.23.15.75.31.58.48s-.71.21-1,.36-3,.53-4.28-.33S123.58,61.31,123.58,61.31Z"/><ellipse class="cls-11" cx="126.66" cy="62.31" rx="1.18" ry="1.04" transform="translate(-0.75 1.55) rotate(-0.7)"/><path class="cls-12" d="M129.71,61.68a6.79,6.79,0,0,0-.86-.63l-.23-.13-.24-.11a5.27,5.27,0,0,0-.51-.19,4.1,4.1,0,0,0-.53-.14l-.53-.08a8.32,8.32,0,0,0-1.12-.06,5.8,5.8,0,0,0-2.09.34,1,1,0,0,0-.33.2c-.06.06-.07.1-.06.14s.19.18.48.15l-.08,0a8.69,8.69,0,0,1,1.6-.23,6.8,6.8,0,0,1,1.62.08,4.43,4.43,0,0,1,1.47.58c.22.13.41.29.61.42a3.9,3.9,0,0,0,.64.35h0a.41.41,0,0,1,.16.16.28.28,0,0,1,0,.13.17.17,0,0,1-.07.13,1.18,1.18,0,0,1-.44.14l-.82.2a7.49,7.49,0,0,1-1.71.23,10.33,10.33,0,0,1-1.75-.14,4.58,4.58,0,0,1-1.74-.6l.62-.54a2.83,2.83,0,0,0,1.26.7,7.24,7.24,0,0,0,1.62.29,6.13,6.13,0,0,0,1.65-.12c.28,0,.55-.12.83-.18a1.09,1.09,0,0,0,.35-.09c.06,0,0-.13-.1-.2h0a6.24,6.24,0,0,1-.68-.35,4.49,4.49,0,0,0-.62-.38,3.42,3.42,0,0,0-1.41-.36,6.55,6.55,0,0,0-1.46.12c-.48.09-1,.2-1.44.33h-.07a1.77,1.77,0,0,1-.81-.08,1,1,0,0,1-.61-.62.79.79,0,0,1,.23-.79,1.55,1.55,0,0,1,.31-.23,1.77,1.77,0,0,1,.31-.15,4.3,4.3,0,0,1,1.25-.3,7.35,7.35,0,0,1,1.24,0,8.4,8.4,0,0,1,1.22.12c.2,0,.41.09.61.15a4.3,4.3,0,0,1,.57.2,4.49,4.49,0,0,1,.54.26l.26.16.24.17a5.36,5.36,0,0,1,.78.8Z"/><path class="cls-10" d="M141.12,61.31a11.86,11.86,0,0,0-3.63-.14,5.86,5.86,0,0,0-1.83,1.09c-.24.15-.75.31-.59.48s.71.21,1,.36,3,.53,4.28-.33S141.12,61.31,141.12,61.31Z"/><ellipse class="cls-11" cx="138.03" cy="62.31" rx="1.04" ry="1.18" transform="translate(74.04 199.58) rotate(-89.3)"/><path class="cls-12" d="M135,61.68a6.79,6.79,0,0,1,.86-.63l.22-.13.24-.11c.18-.07.34-.14.51-.19a4.58,4.58,0,0,1,.53-.14l.54-.08a8.17,8.17,0,0,1,1.11-.06,5.77,5.77,0,0,1,2.09.34,1.12,1.12,0,0,1,.34.2.13.13,0,0,1,0,.14c0,.06-.19.18-.47.15l.07,0a8.59,8.59,0,0,0-1.59-.23,6.86,6.86,0,0,0-1.63.08,4.52,4.52,0,0,0-1.47.58c-.21.13-.41.29-.6.42a4.94,4.94,0,0,1-.64.35h0a.49.49,0,0,0-.16.16.28.28,0,0,0,0,.13.21.21,0,0,0,.07.13,1.3,1.3,0,0,0,.44.14l.82.2a7.49,7.49,0,0,0,1.71.23,10.24,10.24,0,0,0,1.75-.14,4.46,4.46,0,0,0,1.74-.6l-.61-.54a2.92,2.92,0,0,1-1.27.7,7.25,7.25,0,0,1-1.61.29,6.2,6.2,0,0,1-1.66-.12l-.82-.18a1.09,1.09,0,0,1-.36-.09c-.06,0,0-.13.1-.2h0a4.83,4.83,0,0,0,.68-.35,5.17,5.17,0,0,1,.62-.38,3.42,3.42,0,0,1,1.41-.36,6.63,6.63,0,0,1,1.47.12c.48.09,1,.2,1.43.33h.07a1.74,1.74,0,0,0,.81-.08,1,1,0,0,0,.62-.62.8.8,0,0,0-.24-.79,1.5,1.5,0,0,0-.3-.23,2.2,2.2,0,0,0-.31-.15,4.46,4.46,0,0,0-1.25-.3,7.38,7.38,0,0,0-1.24,0,8.54,8.54,0,0,0-1.23.12l-.6.15a4.43,4.43,0,0,0-.58.2,3.73,3.73,0,0,0-.53.26c-.08.05-.18.1-.26.16a1.46,1.46,0,0,0-.24.17,5,5,0,0,0-.79.8Z"/><path class="cls-12" d="M127.74,71.71a16.88,16.88,0,0,0,3.64-1.39c.27-.14.61-.28.83-.08a.63.63,0,0,1,.17.31,5.93,5.93,0,0,1,.24,1,1.14,1.14,0,0,1,0,.45,1.2,1.2,0,0,1-.77.68,6.89,6.89,0,0,1-6.54-.79,1,1,0,0,1-.4-.45.37.37,0,0,1,.26-.48.28.28,0,0,1,.28.23.37.37,0,0,1-.13.29C125.84,72.13,127.05,71.89,127.74,71.71Z"/><path class="cls-12" d="M137.77,71.54a17.53,17.53,0,0,1-3.65-1.4c-.27-.14-.61-.27-.83-.07a.59.59,0,0,0-.17.31,5.82,5.82,0,0,0-.24,1,1.19,1.19,0,0,0,0,.46,1.16,1.16,0,0,0,.77.67,6.92,6.92,0,0,0,6.54-.78.94.94,0,0,0,.4-.46.36.36,0,0,0-.26-.47.27.27,0,0,0-.28.22.39.39,0,0,0,.13.3C139.66,72,138.45,71.71,137.77,71.54Z"/><path class="cls-13" d="M100.52,91.37a5.31,5.31,0,0,1,.65-3.4,16,16,0,0,1,1.61-2.67,3.42,3.42,0,0,0,.59-1,3.1,3.1,0,0,0,.09-1,24,24,0,0,1,0-4.32,12.54,12.54,0,0,1,1-3.22c1.76-4,4.55-7.45,7.31-10.85l2.66-3.27c0,1.34.4,2.66.45,4a24.09,24.09,0,0,1-.42,4c-.31,2.34-.2,4.71-.45,7.05a46,46,0,0,1-1.87,8.17,10.07,10.07,0,0,1-1,2.51,7.92,7.92,0,0,1-2,2,18,18,0,0,1-3.54,2.15,11,11,0,0,0-1.57.79c-.36.24-.78.92-1.13,1C101.82,93.69,100.71,92.25,100.52,91.37Z"/><path class="cls-8" d="M130.25,67.71a.57.57,0,0,0-.19.45,1.18,1.18,0,0,0,.15.47,3.23,3.23,0,0,0,.79,1,6.7,6.7,0,0,0,.68.51,2.67,2.67,0,0,0,.69.36,1.49,1.49,0,0,0,.86-.1A3.28,3.28,0,0,0,134,70l.42-.39a1.35,1.35,0,0,0,.31-.44,1.1,1.1,0,0,0,0-.51,1.19,1.19,0,0,0-.51-.77,2.23,2.23,0,0,0-1.4,0,4.33,4.33,0,0,1-1.39,0C131.13,67.73,130.52,67.52,130.25,67.71Z"/><path class="cls-12" d="M131.79,60.05s.09,3.42.09,3.42l.06,1.53.1,3.07v.45l-.46-.1h0l-1.4-.56.21-.12h0l-.22.69V68.3a5.38,5.38,0,0,0,.88,1.16,4.71,4.71,0,0,0,1.19.85,1.15,1.15,0,0,0,.65.12,1.1,1.1,0,0,0,.59-.27c.38-.29.64-.73,1.05-1.09l.23.26c-.35.31-.63.76-1.06,1.11a1.5,1.5,0,0,1-.77.34,1.58,1.58,0,0,1-.84-.15,5.08,5.08,0,0,1-1.28-.92,5.45,5.45,0,0,1-1-1.26l0-.06,0-.07.23-.68h0l0-.14.19,0,1.49.2h0l-.45.35L131.4,65l0-1.53,0-3.33Z"/><path class="cls-12" d="M135.63,76.23c.09,0,.15.11.1.19a.25.25,0,0,1-.25.06.7.7,0,0,1-.43-.59,6.54,6.54,0,0,1,0-.77.82.82,0,0,0-.31-.68.91.91,0,0,0-.52-.09c-.15,0-.76.09-1.3.09-.79,0-1.59-.09-1.81-.09a.88.88,0,0,0-.51.09.79.79,0,0,0-.31.68c0,.25,0,.51,0,.77a.68.68,0,0,1-.43.59.23.23,0,0,1-.24-.06c-.05-.08,0-.21.09-.19-.16-.17-.48,0-.5.25a.65.65,0,0,0,.37.56,1.36,1.36,0,0,0,1.27,0,4.17,4.17,0,0,0,.88-.8,1.79,1.79,0,0,1,.61-.34,1,1,0,0,1,.64,0,1.74,1.74,0,0,1,.6.34,4.17,4.17,0,0,0,.88.8,1.36,1.36,0,0,0,1.27,0,.63.63,0,0,0,.37-.56C136.12,76.25,135.8,76.06,135.63,76.23Z"/><path class="cls-12" d="M145.56,57.41c0-.43-.31-2.07-.89-2a32.26,32.26,0,0,1,0,9.31c-.44,3.14-3.42,7.7-6.14,8.25a.52.52,0,0,0-.4.62,5.73,5.73,0,0,1,.11,1.45c0,1-1.41,3.47-3.37,2.34a13.57,13.57,0,0,1-1.78-1.78,1.67,1.67,0,0,0-.83,0,9.83,9.83,0,0,1-1.74,1.78c-2,1.13-3.33-1.34-3.37-2.34a6,6,0,0,1,0-1,.65.65,0,0,0-.48-.71c-2.69-.8-5.18-5.52-5.94-8.57-.86-3.43-.44-6.33,0-9.7-.51,0-.69.49-.87,1a6.67,6.67,0,0,0-.32,1.39c-.49,5.15-.36,8.38,1.48,13.21.22.58,1.07,3.08,1.17,3.7s.07,1,.18,1.51a5.05,5.05,0,0,0,.89,1.78,12.47,12.47,0,0,0,7.41,4.83,17,17,0,0,0,4.05,0,12.78,12.78,0,0,0,7.41-4.83,5.05,5.05,0,0,0,.89-1.78c.11-.49.1-1,.18-1.51s1-3.12,1.17-3.7C146.23,65.76,145.26,62.77,145.56,57.41Z"/><path class="cls-12" d="M129.8,57.39a2.37,2.37,0,0,0-1.35-.78,2.08,2.08,0,0,0-.86-.07c-.41.06-.77.3-1.18.34a2.68,2.68,0,0,1-.63-.05,3.48,3.48,0,0,0-2.8.47,2.07,2.07,0,0,0-.7,1.24.27.27,0,0,0,0,.09c0,.1.15.13.24.09a.72.72,0,0,0,.2-.19,2,2,0,0,1,1.6-.74,13.31,13.31,0,0,1,2,.47c.55.1,1.12,0,1.67.09a3.36,3.36,0,0,1,1.34.47.82.82,0,0,0,.28.14C130.29,59.1,130,57.68,129.8,57.39Z"/><path class="cls-12" d="M135.19,57.05a2.37,2.37,0,0,1,1.35-.78,2.08,2.08,0,0,1,.86-.07c.41.06.77.3,1.18.34a2.68,2.68,0,0,0,.63,0A3.49,3.49,0,0,1,142,57a2,2,0,0,1,.7,1.23.34.34,0,0,1,0,.1c0,.09-.15.12-.24.08a.72.72,0,0,1-.2-.19,2,2,0,0,0-1.6-.74,13.34,13.34,0,0,0-2,.48c-.56.09-1.12,0-1.68.08a3.31,3.31,0,0,0-1.33.47.82.82,0,0,1-.28.14C134.7,58.76,135,57.34,135.19,57.05Z"/><path class="cls-13" d="M164.57,90.78a5.38,5.38,0,0,0-.66-3.4,16,16,0,0,0-1.61-2.67,3.66,3.66,0,0,1-.59-1,3.1,3.1,0,0,1-.09-1,23.1,23.1,0,0,0,0-4.32,12.16,12.16,0,0,0-1-3.22c-1.76-4-4.55-7.45-7.3-10.85L150.71,61c0,1.34-.4,2.66-.46,4a24.1,24.1,0,0,0,.43,4c.3,2.34.19,4.71.44,7A47.64,47.64,0,0,0,153,84.2a9.73,9.73,0,0,0,1,2.51,7.72,7.72,0,0,0,2,2,18.35,18.35,0,0,0,3.55,2.15,11.41,11.41,0,0,1,1.56.79c.36.24.78.92,1.14,1C163.27,93.1,164.37,91.66,164.57,90.78Z"/><path class="cls-14" d="M133.42,91.07c.23.94.18,1.93.45,2.86a19.17,19.17,0,0,0-2.81.57.85.85,0,0,1-1-.19,2.74,2.74,0,0,1-1-1,2,2,0,0,1-.08-1.23,5.34,5.34,0,0,1,.45-1.17,5.93,5.93,0,0,1,.82-1.37c.2-.24.43-.45.64-.68s.4-.75.78-.45a5,5,0,0,1,.74.78A5.16,5.16,0,0,1,133.42,91.07Z"/><circle class="cls-15" cx="132.16" cy="93.2" r="0.75"/><circle class="cls-16" cx="132.16" cy="93.2" r="0.67"/><circle class="cls-15" cx="132" cy="93.07" r="0.08"/><circle class="cls-15" cx="132.31" cy="93.07" r="0.08"/><circle class="cls-15" cx="132" cy="93.33" r="0.08"/><circle class="cls-15" cx="132.31" cy="93.33" r="0.08"/><path class="cls-14" d="M162.06,216.45H131c-.32-4.57-.58-8.42-.83-8.92-.52,3.17-1,6.08-1.44,8.92H95.19a64.2,64.2,0,0,1,1.61-7.37,7.72,7.72,0,0,0,.5-1.87c0-.54-.08-1.08-.09-1.63-.06-2.14,1.37-4.33,1.51-6.47.07-1-.15-2.19.46-3,.2-.27.48-.48.67-.76a3.41,3.41,0,0,0,.37-1.71c.07-1.4-.66-2.71-.43-4.1L100.9,183c.77-4.55,2-10.47,2.87-15,2.94.53,5.47,2,8.45,1.83,1.86-.13,3.69-.54,5.54-.65,4.77-.26,9.49,1.56,14.25,1.13,3.2-.28,6.24-1.57,9.43-1.95,1.48-.17,3-.14,4.47-.26A23.37,23.37,0,0,0,158,163.5c.67,3.09.63,6,1.3,9.09.52,2.4,1,4.81,1.34,7.25s.39,4.85.48,7.28q.21,6.3.44,12.6a16.94,16.94,0,0,1-.19,4.09C161.24,204.53,161.68,210.11,162.06,216.45Z"/><path class="cls-16" d="M129.72,194c.05-.73-.06-1.47,0-2.2,0-1.32.53-2.6.45-3.91a25.19,25.19,0,0,1-.32-2.72c.08-1.21.81-2.29,1.11-3.46.92-3.54-2.08-7.15-1.4-10.74a3,3,0,0,0-1.16,1.85,10.28,10.28,0,0,0,.38,1.78c.09.83-.33,1.71,0,2.47a11.7,11.7,0,0,0,.79,1.1,3.08,3.08,0,0,1,.3,1.67,14.31,14.31,0,0,1-.31,2.61,11.35,11.35,0,0,0-.45,2.58c0,1,.37,1.89.38,2.85,0,1.18-.46,2.34-.35,3.51,0,.42.16.83.18,1.25a9.09,9.09,0,0,1-.12,1.27,11.23,11.23,0,0,0,.2,3.52C129.06,196.27,129.63,195.08,129.72,194Z"/><path class="cls-16" d="M150.63,178.15a9.45,9.45,0,0,0,4.77,2.76,28.63,28.63,0,0,0,5.54.75,1.1,1.1,0,0,1,.51.13.36.36,0,0,1,.14.45c-.07.1-.19.15-.26.25s0,.4,0,.53-.45.28-.69.28a9.67,9.67,0,0,1-1.9-.37,33.56,33.56,0,0,1-5-1.29,11.33,11.33,0,0,1-4.38-2.72,7.82,7.82,0,0,1-2.22-4.45c.35,0,1.15-.31,1.42-.1s.42,1,.56,1.28A11,11,0,0,0,150.63,178.15Z"/><path class="cls-16" d="M110.62,181.13a10.32,10.32,0,0,1-4.53,2.66,29.65,29.65,0,0,1-5.16.47c-.25,0-.59-.08-.57-.33a4.3,4.3,0,0,0,.31-1.42,8.9,8.9,0,0,0,7.2-1,14.65,14.65,0,0,0,1.41-1,14.48,14.48,0,0,0,2.45-3c.6-.83.78-2.14,2.07-1.59A11.47,11.47,0,0,1,110.62,181.13Z"/><path class="cls-16" d="M114.4,169.7a1.13,1.13,0,0,0,0,.52,19.42,19.42,0,0,1,.19,2.64c0,1.15-.27,2.3-.23,3.45a12.84,12.84,0,0,0,.16,1.52l.15,1.06a.32.32,0,0,0,0,.14.41.41,0,0,0,.17.12,2.31,2.31,0,0,0,1.77,0,2,2,0,0,1-.07-1.36,20.61,20.61,0,0,0,0-2.94c0-1,.18-2,.15-3a20.82,20.82,0,0,1,.06-2.63,3.22,3.22,0,0,0-1.37,0C115,169.27,114.55,169.31,114.4,169.7Z"/><path class="cls-16" d="M143.57,169.07a11.89,11.89,0,0,1,.41,2.66,35.23,35.23,0,0,0,.88,5.31.2.2,0,0,0,.06.13.19.19,0,0,0,.15,0,6.24,6.24,0,0,0,1.71-.5.38.38,0,0,0,.14-.11c.05-.09,0-.2,0-.3a5.42,5.42,0,0,1-.26-2.09,15.52,15.52,0,0,0-1-5.17,3.26,3.26,0,0,0-.59-1.08.68.68,0,0,0-.27-.2.85.85,0,0,0-.32,0c-.26,0-1.21,0-1.32.23S143.5,168.83,143.57,169.07Z"/><path class="cls-17" d="M133.07,173.63a1.35,1.35,0,0,0,.22-1.63,1.5,1.5,0,0,0-1.54-.67,1.32,1.32,0,0,0-1,.88,1.54,1.54,0,0,0,.16,1.13,1.37,1.37,0,0,0,.92.73A1.51,1.51,0,0,0,133.07,173.63Z"/><path class="cls-18" d="M114.59,176c3.23-.59,5.44.24,8.73.09.86,0,1.72-.12,2.58-.22l3.36-.36"/><path class="cls-18" d="M130,175.57a51.69,51.69,0,0,0,15.4-.85"/><path class="cls-18" d="M135.94,175.85c-1.81,6.22-.78,11.91-.91,17.11a6.14,6.14,0,0,1-.95,3.68c-1.09,1.41-3.09,1.7-4.87,1.67A7.17,7.17,0,0,1,129,200a9.46,9.46,0,0,0,3.61-.69,5.54,5.54,0,0,0,2.73-2.39,9.23,9.23,0,0,0,.61-5l-.34-5.39a18.19,18.19,0,0,1,0-2.76c.06-.86.25-1.7.32-2.55a19,19,0,0,1,.31-3.11,7.59,7.59,0,0,0,.57-2.26"/><path class="cls-18" d="M146.32,174.64c2.15-.34,4.34-.39,6.5-.7a12.65,12.65,0,0,0,6.05-2.27"/><path class="cls-14" d="M133.11,91.68c-.45,1.21-.42,2.32-1.25,3.38a7.5,7.5,0,0,0,3.49.54,13.41,13.41,0,0,0,4.5-.75A6.36,6.36,0,0,0,143.29,92a2.81,2.81,0,0,0,.35-1.83,2.51,2.51,0,0,0-1.21-1.57,5.46,5.46,0,0,0-1.94-.63c-1.52-.26-4.77-.41-5.69.64A7.75,7.75,0,0,0,133.11,91.68Z"/><path class="cls-8" d="M115.39,183.85a.47.47,0,0,1-.15.19,2.61,2.61,0,0,1-3.41-.31,5.39,5.39,0,0,1-.64-.79l-1.67-2.26a16.2,16.2,0,0,1-6.45,2.63c-.2,0-.39.07-.59.09a2.1,2.1,0,0,1-1.6-.23,2.33,2.33,0,0,1-.57-.81,55.64,55.64,0,0,1-3.46-7.83c-.29-.89-.53-1.78-.87-2.65a21.69,21.69,0,0,0-1.47-2.83c-.52-.88-.29-1.32.26-2.15a6,6,0,0,1,.89-1.06,6.2,6.2,0,0,1,3.16-1.65.71.71,0,0,1,.25,0,.7.7,0,0,1,.36.34c.66,1.07,1.32,2.13,2,3.19a14.13,14.13,0,0,0,1.52,2.15,7.49,7.49,0,0,0,2,1.51c.88.45,1.85.72,2.67,1.25,1.85,1.21,2.63,3.48,4,5.23.61.8,1.35,1.5,2,2.31a11.72,11.72,0,0,1,.81,1.3c.37.69.69,1.41,1,2.12h0A.48.48,0,0,1,115.39,183.85Z"/><path class="cls-19" d="M103.07,183.31c-.2,0-.39.07-.59.09a2.1,2.1,0,0,1-1.6-.23,2.33,2.33,0,0,1-.57-.81,55.64,55.64,0,0,1-3.46-7.83c-.29-.89-.53-1.78-.87-2.65a21.69,21.69,0,0,0-1.47-2.83c-.52-.88-.29-1.32.26-2.15a6,6,0,0,1,.89-1.06,1,1,0,0,0,0,.16c-.09,2.14,1.43,4,2,6.08.45,1.78.18,3.75,1,5.38.25.49.6.92.9,1.39.43.68.73,1.43,1.19,2.09A14.24,14.24,0,0,0,103.07,183.31Z"/><path class="cls-3" d="M113.73,183.42a3.52,3.52,0,0,1-.36-.41,1.7,1.7,0,0,1-.26-.43.6.6,0,0,1,0-.49.9.9,0,0,1,.48-.35l.6-.25a.32.32,0,0,1,.17,0c.07,0,.12.08.17.15l.66,1a1.6,1.6,0,0,1,.23.45C115.72,184,114.15,183.78,113.73,183.42Z"/><path class="cls-8" d="M145.59,182.46a.49.49,0,0,0,.14.19,2.62,2.62,0,0,0,3.42-.32,6,6,0,0,0,.64-.78l1.66-2.26a16.35,16.35,0,0,0,6.46,2.64l.58.09a2.15,2.15,0,0,0,1.6-.24,2.29,2.29,0,0,0,.57-.8,57,57,0,0,0,3.47-7.84c.28-.88.53-1.78.87-2.64a21.69,21.69,0,0,1,1.47-2.83c.52-.88.29-1.32-.26-2.15a6,6,0,0,0-.89-1.06,6.29,6.29,0,0,0-3.16-1.66.7.7,0,0,0-.25,0,.66.66,0,0,0-.36.34c-.66,1.06-1.32,2.13-2,3.19a13.44,13.44,0,0,1-1.53,2.14,6.9,6.9,0,0,1-2,1.51c-.88.45-1.85.72-2.68,1.25-1.84,1.21-2.62,3.48-4,5.23-.62.8-1.36,1.5-2,2.31a9.79,9.79,0,0,0-.82,1.3c-.37.69-.69,1.4-1,2.12h0A.39.39,0,0,0,145.59,182.46Z"/><path class="cls-20" d="M121.52,88.08c.13-.08.42-.29.14,0a80.71,80.71,0,0,1-17.2,4.17c-2.94.36-6.77.5-9.46,1.86-3.18,1.6-4.74,6.06-5.76,9.22-2.68,8.25-4.36,17-6.22,25.47a40.33,40.33,0,0,0-.71,16.15c.84,5.3,4.24,17,5.25,18.85,2.09,3.93,6.12,7.69,7.16,6.14,1.22-1.81,4.68-4,6.57-2.5,3.28-2.94.92-9.82,0-13.36a38,38,0,0,0-5.79-12.49c2.34.42,4.39-4.15,5.29-5.84,2.49-4.73,4.35-9.63,7.11-14.24,2.6-4.33,4.83-8.94,7.22-13.39,2.3-4.26,3.42-8.85,4.85-13.43.5-1.6,3.15-5,1.69-6.61"/><path class="cls-19" d="M157.91,181.93l.58.09a2.15,2.15,0,0,0,1.6-.24,2.29,2.29,0,0,0,.57-.8,57,57,0,0,0,3.47-7.84c.28-.88.53-1.78.87-2.64a21.69,21.69,0,0,1,1.47-2.83c.52-.88.29-1.32-.26-2.15a6,6,0,0,0-.89-1.06,1,1,0,0,1,0,.16c.09,2.14-1.43,4-2,6.07-.45,1.79-.17,3.76-1,5.39-.26.49-.61.92-.91,1.39-.42.68-.73,1.43-1.18,2.09A15.49,15.49,0,0,1,157.91,181.93Z"/><path class="cls-20" d="M146.75,88.08c-.14-.08-.43-.29-.15,0a80.8,80.8,0,0,0,17.21,4.17c2.93.36,6.76.5,9.45,1.86,3.18,1.6,4.75,6.06,5.77,9.22,2.67,8.25,4.36,17,6.21,25.47a40.15,40.15,0,0,1,.72,16.15c-.85,5.3-9.94,15.37-11,17.26-2.1,3.93-7.65,7.33-8.69,5.78-1.21-1.82-4.67-4-6.56-2.51-3.29-2.94.05-10,1.87-13.21,2.57-4.5,5.73-8.73,8.47-12.68-1.15-1.82-7-13.47-9.74-18.08-2.6-4.33-4.82-8.94-7.22-13.39-2.29-4.26-3.41-8.85-4.85-13.43-.49-1.6-3.14-5-1.69-6.61"/><path class="cls-20" d="M110.45,100.09c-4-.52-5.46,7.47-6.11,10.09-.84,3.41-.57,7.37-.74,10.89-.16,3.33,0,6.71-.18,10.06a96.68,96.68,0,0,1-1.38,12.8c-1.47,8.43-3.82,19.46,2.66,26.46,4.76,5.15,14.17,5.71,20.63,4.4a72.23,72.23,0,0,1,17-1.28c4,.13,8.09.22,11.89-1.31,10.11-4.06,12.37-14,11.26-23.74-.55-4.84-2.05-9.56-2.79-14.38a54.46,54.46,0,0,1,.35-15.61c.67-5,1.7-10,.65-15a14.39,14.39,0,0,0-5.4-8.5,11,11,0,0,0-7.73-2.88c-3.52.08-12.43,2.89-15.95,2.5-9.2-1-14.35-5.3-22.2,1.38"/><g class="cls-21"><polygon class="cls-22" points="79.15 78.05 83.27 83.22 79.7 88.79 75.59 83.61 79.15 78.05"/><polygon class="cls-22" points="86.83 77.65 90.95 82.83 87.38 88.4 83.27 83.22 86.83 77.65"/><polygon class="cls-22" points="94.51 77.26 98.63 82.44 95.06 88 90.95 82.83 94.51 77.26"/><polygon class="cls-22" points="102.19 76.87 106.31 82.04 102.74 87.61 98.63 82.44 102.19 76.87"/><polygon class="cls-22" points="109.87 76.48 113.98 81.65 110.42 87.22 106.31 82.04 109.87 76.48"/><polygon class="cls-22" points="117.55 76.08 121.66 81.26 118.1 86.83 113.98 81.65 117.55 76.08"/><polygon class="cls-22" points="125.23 75.69 129.34 80.87 125.78 86.43 121.66 81.26 125.23 75.69"/><polygon class="cls-22" points="79.7 88.79 83.82 93.97 80.25 99.53 76.14 94.36 79.7 88.79"/><polygon class="cls-22" points="87.38 88.4 91.5 93.57 87.93 99.14 83.82 93.97 87.38 88.4"/><polygon class="cls-22" points="95.06 88 99.17 93.18 95.61 98.75 91.5 93.57 95.06 88"/><polygon class="cls-22" points="102.74 87.61 106.86 92.79 103.29 98.36 99.17 93.18 102.74 87.61"/><polygon class="cls-22" points="110.42 87.22 114.53 92.39 110.97 97.96 106.86 92.79 110.42 87.22"/><polygon class="cls-22" points="118.1 86.83 122.21 92 118.65 97.57 114.53 92.39 118.1 86.83"/><polygon class="cls-22" points="125.78 86.43 129.89 91.61 126.33 97.18 122.21 92 125.78 86.43"/><polygon class="cls-22" points="80.25 99.53 84.36 104.71 80.8 110.28 76.69 105.1 80.25 99.53"/><polygon class="cls-22" points="87.93 99.14 92.05 104.31 88.48 109.88 84.36 104.71 87.93 99.14"/><polygon class="cls-22" points="95.61 98.75 99.72 103.92 96.16 109.49 92.05 104.31 95.61 98.75"/><polygon class="cls-22" points="103.29 98.36 107.4 103.53 103.84 109.1 99.72 103.92 103.29 98.36"/><polygon class="cls-22" points="110.97 97.96 115.08 103.14 111.52 108.7 107.4 103.53 110.97 97.96"/><polygon class="cls-22" points="118.65 97.57 122.76 102.75 119.2 108.31 115.08 103.14 118.65 97.57"/><polygon class="cls-22" points="126.33 97.18 130.44 102.35 126.88 107.92 122.76 102.75 126.33 97.18"/><polygon class="cls-22" points="80.8 110.28 84.92 115.45 81.35 121.02 77.23 115.84 80.8 110.28"/><polygon class="cls-22" points="88.48 109.88 92.59 115.06 89.03 120.63 84.92 115.45 88.48 109.88"/><polygon class="cls-22" points="96.16 109.49 100.27 114.67 96.71 120.23 92.59 115.06 96.16 109.49"/><polygon class="cls-22" points="103.84 109.1 107.95 114.27 104.39 119.84 100.27 114.67 103.84 109.1"/><polygon class="cls-22" points="111.52 108.7 115.63 113.88 112.07 119.45 107.95 114.27 111.52 108.7"/><polygon class="cls-22" points="119.2 108.31 123.31 113.49 119.75 119.06 115.63 113.88 119.2 108.31"/><polygon class="cls-22" points="126.88 107.92 130.99 113.09 127.43 118.66 123.31 113.49 126.88 107.92"/><polygon class="cls-22" points="81.35 121.02 85.46 126.19 81.9 131.76 77.78 126.59 81.35 121.02"/><polygon class="cls-22" points="89.03 120.63 93.14 125.8 89.58 131.37 85.46 126.19 89.03 120.63"/><polygon class="cls-22" points="96.71 120.23 100.82 125.41 97.26 130.98 93.14 125.8 96.71 120.23"/><polygon class="cls-22" points="104.39 119.84 108.5 125.02 104.94 130.58 100.82 125.41 104.39 119.84"/><polygon class="cls-22" points="112.07 119.45 116.18 124.62 112.62 130.19 108.5 125.02 112.07 119.45"/><polygon class="cls-22" points="119.75 119.06 123.86 124.23 120.3 129.8 116.18 124.62 119.75 119.06"/><polygon class="cls-22" points="127.43 118.66 131.54 123.84 127.98 129.41 123.86 124.23 127.43 118.66"/><polygon class="cls-22" points="132.84 75.34 136.95 80.51 133.38 86.08 129.27 80.91 132.84 75.34"/><polygon class="cls-22" points="140.51 74.95 144.63 80.12 141.06 85.69 136.95 80.51 140.51 74.95"/><polygon class="cls-22" points="148.19 74.55 152.31 79.73 148.74 85.3 144.63 80.12 148.19 74.55"/><polygon class="cls-22" points="155.87 74.16 159.99 79.34 156.42 84.9 152.31 79.73 155.87 74.16"/><polygon class="cls-22" points="163.55 73.77 167.67 78.94 164.1 84.51 159.99 79.34 163.55 73.77"/><polygon class="cls-22" points="171.23 73.38 175.35 78.55 171.78 84.12 167.67 78.94 171.23 73.38"/><polygon class="cls-22" points="178.91 72.98 183.03 78.16 179.46 83.73 175.35 78.55 178.91 72.98"/><polygon class="cls-22" points="133.38 86.08 137.5 91.26 133.93 96.83 129.82 91.65 133.38 86.08"/><polygon class="cls-22" points="141.06 85.69 145.18 90.86 141.61 96.43 137.5 91.26 141.06 85.69"/><polygon class="cls-22" points="148.74 85.3 152.86 90.47 149.29 96.04 145.18 90.86 148.74 85.3"/><polygon class="cls-22" points="156.42 84.9 160.54 90.08 156.97 95.65 152.86 90.47 156.42 84.9"/><polygon class="cls-22" points="164.1 84.51 168.22 89.69 164.65 95.25 160.54 90.08 164.1 84.51"/><polygon class="cls-22" points="171.78 84.12 175.9 89.29 172.33 94.86 168.22 89.69 171.78 84.12"/><polygon class="cls-22" points="179.46 83.73 183.58 88.9 180.01 94.47 175.9 89.29 179.46 83.73"/><polygon class="cls-22" points="133.93 96.83 138.05 102 134.48 107.57 130.37 102.39 133.93 96.83"/><polygon class="cls-22" points="141.61 96.43 145.73 101.61 142.16 107.17 138.05 102 141.61 96.43"/><polygon class="cls-22" points="149.29 96.04 153.41 101.22 149.84 106.78 145.73 101.61 149.29 96.04"/><polygon class="cls-22" points="156.97 95.65 161.09 100.82 157.52 106.39 153.41 101.22 156.97 95.65"/><polygon class="cls-22" points="164.65 95.25 168.77 100.43 165.2 106 161.09 100.82 164.65 95.25"/><polygon class="cls-22" points="172.33 94.86 176.45 100.04 172.88 105.6 168.77 100.43 172.33 94.86"/><polygon class="cls-22" points="180.01 94.47 184.13 99.64 180.56 105.21 176.45 100.04 180.01 94.47"/><polygon class="cls-22" points="134.48 107.57 138.6 112.74 135.03 118.31 130.92 113.14 134.48 107.57"/><polygon class="cls-22" points="142.16 107.17 146.28 112.35 142.71 117.92 138.6 112.74 142.16 107.17"/><polygon class="cls-22" points="149.84 106.78 153.96 111.96 150.39 117.53 146.28 112.35 149.84 106.78"/><polygon class="cls-22" points="157.52 106.39 161.64 111.56 158.07 117.13 153.96 111.96 157.52 106.39"/><polygon class="cls-22" points="165.2 106 169.32 111.17 165.75 116.74 161.64 111.56 165.2 106"/><polygon class="cls-22" points="172.88 105.6 177 110.78 173.43 116.35 169.32 111.17 172.88 105.6"/><polygon class="cls-22" points="180.56 105.21 184.68 110.39 181.11 115.95 177 110.78 180.56 105.21"/><polygon class="cls-22" points="135.03 118.31 139.15 123.49 135.58 129.05 131.47 123.88 135.03 118.31"/><polygon class="cls-22" points="142.71 117.92 146.83 123.09 143.26 128.66 139.15 123.49 142.71 117.92"/><polygon class="cls-22" points="150.39 117.53 154.51 122.7 150.94 128.27 146.83 123.09 150.39 117.53"/><polygon class="cls-22" points="158.07 117.13 162.19 122.31 158.62 127.88 154.51 122.7 158.07 117.13"/><polygon class="cls-22" points="165.75 116.74 169.87 121.92 166.3 127.48 162.19 122.31 165.75 116.74"/><polygon class="cls-22" points="173.43 116.35 177.54 121.52 173.98 127.09 169.87 121.92 173.43 116.35"/><polygon class="cls-22" points="181.11 115.95 185.22 121.13 181.66 126.7 177.54 121.52 181.11 115.95"/><polygon class="cls-22" points="81.88 131.5 85.99 136.67 82.43 142.24 78.31 137.06 81.88 131.5"/><polygon class="cls-22" points="89.56 131.1 93.67 136.28 90.11 141.84 85.99 136.67 89.56 131.1"/><polygon class="cls-22" points="97.24 130.71 101.35 135.88 97.79 141.45 93.67 136.28 97.24 130.71"/><polygon class="cls-22" points="104.92 130.32 109.03 135.49 105.47 141.06 101.35 135.88 104.92 130.32"/><polygon class="cls-22" points="112.6 129.93 116.71 135.1 113.14 140.67 109.03 135.49 112.6 129.93"/><polygon class="cls-22" points="120.28 129.53 124.39 134.71 120.82 140.28 116.71 135.1 120.28 129.53"/><polygon class="cls-22" points="127.95 129.14 132.07 134.31 128.5 139.88 124.39 134.71 127.95 129.14"/><polygon class="cls-22" points="82.43 142.24 86.54 147.41 82.98 152.98 78.86 147.81 82.43 142.24"/><polygon class="cls-22" points="90.11 141.84 94.22 147.02 90.66 152.59 86.54 147.41 90.11 141.84"/><polygon class="cls-22" points="97.79 141.45 101.9 146.63 98.33 152.2 94.22 147.02 97.79 141.45"/><polygon class="cls-22" points="105.47 141.06 109.58 146.24 106.02 151.8 101.9 146.63 105.47 141.06"/><polygon class="cls-22" points="113.14 140.67 117.26 145.84 113.69 151.41 109.58 146.24 113.14 140.67"/><polygon class="cls-22" points="120.82 140.28 124.94 145.45 121.37 151.02 117.26 145.84 120.82 140.28"/><polygon class="cls-22" points="128.5 139.88 132.62 145.06 129.05 150.63 124.94 145.45 128.5 139.88"/><polygon class="cls-22" points="82.98 152.98 87.09 158.16 83.53 163.72 79.41 158.55 82.98 152.98"/><polygon class="cls-22" points="90.66 152.59 94.77 157.76 91.2 163.33 87.09 158.16 90.66 152.59"/><polygon class="cls-22" points="98.33 152.2 102.45 157.37 98.88 162.94 94.77 157.76 98.33 152.2"/><polygon class="cls-22" points="106.02 151.8 110.13 156.98 106.56 162.55 102.45 157.37 106.02 151.8"/><polygon class="cls-22" points="113.69 151.41 117.81 156.59 114.24 162.15 110.13 156.98 113.69 151.41"/><polygon class="cls-22" points="121.37 151.02 125.49 156.19 121.92 161.76 117.81 156.59 121.37 151.02"/><polygon class="cls-22" points="129.05 150.63 133.17 155.8 129.6 161.37 125.49 156.19 129.05 150.63"/><polygon class="cls-22" points="83.53 163.72 87.64 168.9 84.08 174.47 79.96 169.29 83.53 163.72"/><polygon class="cls-22" points="91.2 163.33 95.32 168.51 91.75 174.07 87.64 168.9 91.2 163.33"/><polygon class="cls-22" points="98.88 162.94 103 168.11 99.43 173.68 95.32 168.51 98.88 162.94"/><polygon class="cls-22" points="106.56 162.55 110.68 167.72 107.11 173.29 103 168.11 106.56 162.55"/><polygon class="cls-22" points="114.24 162.15 118.36 167.33 114.79 172.9 110.68 167.72 114.24 162.15"/><polygon class="cls-22" points="121.92 161.76 126.04 166.94 122.47 172.5 118.36 167.33 121.92 161.76"/><polygon class="cls-22" points="129.6 161.37 133.72 166.54 130.15 172.11 126.04 166.94 129.6 161.37"/><polygon class="cls-22" points="84.08 174.47 88.19 179.64 84.62 185.21 80.51 180.03 84.08 174.47"/><polygon class="cls-22" points="91.75 174.07 95.87 179.25 92.3 184.82 88.19 179.64 91.75 174.07"/><polygon class="cls-22" points="99.43 173.68 103.55 178.86 99.98 184.43 95.87 179.25 99.43 173.68"/><polygon class="cls-22" points="107.11 173.29 111.23 178.46 107.66 184.03 103.55 178.86 107.11 173.29"/><polygon class="cls-22" points="114.79 172.9 118.91 178.07 115.34 183.64 111.23 178.46 114.79 172.9"/><polygon class="cls-22" points="122.47 172.5 126.59 177.68 123.02 183.25 118.91 178.07 122.47 172.5"/><polygon class="cls-22" points="130.15 172.11 134.27 177.29 130.7 182.85 126.59 177.68 130.15 172.11"/><polygon class="cls-22" points="135.56 128.79 139.68 133.96 136.11 139.53 132 134.35 135.56 128.79"/><polygon class="cls-22" points="143.24 128.4 147.35 133.57 143.79 139.14 139.68 133.96 143.24 128.4"/><polygon class="cls-22" points="150.92 128 155.03 133.18 151.47 138.75 147.35 133.57 150.92 128"/><polygon class="cls-22" points="158.6 127.61 162.71 132.78 159.15 138.35 155.03 133.18 158.6 127.61"/><polygon class="cls-22" points="166.28 127.22 170.39 132.39 166.83 137.96 162.71 132.78 166.28 127.22"/><polygon class="cls-22" points="173.96 126.82 178.07 132 174.51 137.57 170.39 132.39 173.96 126.82"/><polygon class="cls-22" points="181.64 126.43 185.75 131.61 182.19 137.17 178.07 132 181.64 126.43"/><polygon class="cls-22" points="136.11 139.53 140.22 144.71 136.66 150.27 132.54 145.1 136.11 139.53"/><polygon class="cls-22" points="143.79 139.14 147.9 144.31 144.34 149.88 140.22 144.71 143.79 139.14"/><polygon class="cls-22" points="151.47 138.75 155.58 143.92 152.02 149.49 147.9 144.31 151.47 138.75"/><polygon class="cls-22" points="159.15 138.35 163.26 143.53 159.7 149.09 155.58 143.92 159.15 138.35"/><polygon class="cls-22" points="166.83 137.96 170.94 143.13 167.38 148.7 163.26 143.53 166.83 137.96"/><polygon class="cls-22" points="174.51 137.57 178.62 142.74 175.06 148.31 170.94 143.13 174.51 137.57"/><polygon class="cls-22" points="182.19 137.17 186.3 142.35 182.74 147.92 178.62 142.74 182.19 137.17"/><polygon class="cls-22" points="136.66 150.27 140.77 155.45 137.21 161.02 133.09 155.84 136.66 150.27"/><polygon class="cls-22" points="144.34 149.88 148.45 155.06 144.89 160.62 140.77 155.45 144.34 149.88"/><polygon class="cls-22" points="152.02 149.49 156.13 154.66 152.57 160.23 148.45 155.06 152.02 149.49"/><polygon class="cls-22" points="159.7 149.09 163.81 154.27 160.25 159.84 156.13 154.66 159.7 149.09"/><polygon class="cls-22" points="167.38 148.7 171.49 153.88 167.93 159.44 163.81 154.27 167.38 148.7"/><polygon class="cls-22" points="175.06 148.31 179.17 153.49 175.61 159.05 171.49 153.88 175.06 148.31"/><polygon class="cls-22" points="182.74 147.92 186.85 153.09 183.29 158.66 179.17 153.49 182.74 147.92"/><polygon class="cls-22" points="137.21 161.02 141.32 166.19 137.76 171.76 133.64 166.58 137.21 161.02"/><polygon class="cls-22" points="144.89 160.62 149 165.8 145.44 171.37 141.32 166.19 144.89 160.62"/><polygon class="cls-22" points="152.57 160.23 156.68 165.41 153.12 170.97 149 165.8 152.57 160.23"/><polygon class="cls-22" points="160.25 159.84 164.36 165.01 160.8 170.58 156.68 165.41 160.25 159.84"/><polygon class="cls-22" points="167.93 159.44 172.04 164.62 168.48 170.19 164.36 165.01 167.93 159.44"/><polygon class="cls-22" points="175.61 159.05 179.72 164.23 176.16 169.8 172.04 164.62 175.61 159.05"/><polygon class="cls-22" points="183.29 158.66 187.4 163.84 183.84 169.4 179.72 164.23 183.29 158.66"/><polygon class="cls-22" points="137.76 171.76 141.87 176.93 138.31 182.5 134.19 177.33 137.76 171.76"/><polygon class="cls-22" points="145.44 171.37 149.55 176.54 145.99 182.11 141.87 176.93 145.44 171.37"/><polygon class="cls-22" points="153.12 170.97 157.23 176.15 153.67 181.72 149.55 176.54 153.12 170.97"/><polygon class="cls-22" points="160.8 170.58 164.91 175.76 161.35 181.32 157.23 176.15 160.8 170.58"/><polygon class="cls-22" points="168.48 170.19 172.59 175.36 169.03 180.93 164.91 175.76 168.48 170.19"/><polygon class="cls-22" points="176.16 169.8 180.27 174.97 176.71 180.54 172.59 175.36 176.16 169.8"/><polygon class="cls-22" points="183.84 169.4 187.95 174.58 184.38 180.15 180.27 174.97 183.84 169.4"/></g><path class="cls-3" d="M147.24,182a3.52,3.52,0,0,0,.36-.41,1.9,1.9,0,0,0,.26-.43.6.6,0,0,0,0-.49.87.87,0,0,0-.48-.35l-.6-.25a.32.32,0,0,0-.16,0,.38.38,0,0,0-.18.15l-.66,1a1.74,1.74,0,0,0-.23.45C145.25,182.6,146.82,182.38,147.24,182Z"/><path class="cls-23" d="M128.77,92.43a23.56,23.56,0,0,0,6.53,1.17,22.16,22.16,0,0,0,6.16-1.66l.51,1.67s-1.95,2-6.92,2.12a17.79,17.79,0,0,1-4.82-.6l-2.07-.66Z"/><path class="cls-16" d="M129.7,87.68a8.54,8.54,0,0,1-2.9-1.9,5.32,5.32,0,0,1-1.48-3.09.47.47,0,0,0,0-.17.25.25,0,0,0-.38,0,.72.72,0,0,0-.14.41,3,3,0,0,1-.64,1.38c-1.13,1.41-3.33,1.67-4.29,3.19a1.69,1.69,0,0,0-.28.68,2.66,2.66,0,0,0,.32,1.47A19.23,19.23,0,0,0,123.23,95a10.58,10.58,0,0,0,5.38,3.22c-.25-.06.16-3,.21-3.25a15.39,15.39,0,0,1,.91-3.11,15.18,15.18,0,0,1,1.57-2.85c.29-.41.62-.64.17-.9S130.21,87.89,129.7,87.68Z"/><path class="cls-16" d="M136.74,87.69c-.71.18-1.53.29-1.94.89a3.17,3.17,0,0,1,4.82,1.51,20.58,20.58,0,0,1,.4,2.85,4.83,4.83,0,0,0,3.7,3.72c-.06-.36.22-.67.47-.93a18.42,18.42,0,0,0,3.94-6c-1.84-1.26-1.57-4.25-3.23-5.75-1.14-1-3.36-1.11-4,.41A6.22,6.22,0,0,1,136.74,87.69Z"/><circle class="cls-15" cx="131.69" cy="90.94" r="0.75"/><circle class="cls-16" cx="131.69" cy="90.94" r="0.67"/><circle class="cls-15" cx="131.54" cy="90.81" r="0.08"/><circle class="cls-15" cx="131.85" cy="90.81" r="0.08"/><circle class="cls-15" cx="131.54" cy="91.07" r="0.08"/><circle class="cls-15" cx="131.85" cy="91.07" r="0.08"/><path class="cls-15" d="M134.49,91.48a1.13,1.13,0,0,1-.48-.08h0a.24.24,0,0,1-.16-.28.35.35,0,0,1,.28-.27.64.64,0,0,1,.39.07,3.21,3.21,0,0,1,.57.46l.09.1h-.69Zm-.43-.18a1.24,1.24,0,0,0,.51.07h.34a2.36,2.36,0,0,0-.44-.34.43.43,0,0,0-.31-.07.26.26,0,0,0-.2.18s0,.11.1.16Z"/><path class="cls-15" d="M134.26,93.4a1.07,1.07,0,0,1-.25,0h0a.26.26,0,0,1-.2-.26.37.37,0,0,1,.25-.3.62.62,0,0,1,.4,0,3,3,0,0,1,.61.38l.11.09-.6.07A1.66,1.66,0,0,1,134.26,93.4Zm-.22-.14a1.14,1.14,0,0,0,.52,0l.33,0a2,2,0,0,0-.47-.28.47.47,0,0,0-.32,0,.25.25,0,0,0-.17.2s0,.11.11.15Z"/><path class="cls-24" d="M115.29,56.84A18.52,18.52,0,0,0,113,60.79a17,17,0,0,0-1.11,4.73c-.51,4.61.12,9.27,0,13.91a9,9,0,0,1-.53,3.26,7.69,7.69,0,0,1-1.89,2.57c-2,2-4.54,3.4-6.77,5.14-.88.68-1.81,1.82-1.25,2.78a2.14,2.14,0,0,0,.94.76,13.2,13.2,0,0,0,4.13,1q6.26.75,12.56,1a3.63,3.63,0,0,0,1.88-.25,3.25,3.25,0,0,0,1.41-2.38c1.08-5.36-1.49-10.68-2.63-16-.77-3.65-.88-7.43-1.91-11a12,12,0,0,1-.54-2.28,8.27,8.27,0,0,1,.24-2.42,36.49,36.49,0,0,1,2.76-8.2c.17-.36.77-1.56.14-1.8s-1.32.88-1.6,1.16A38.75,38.75,0,0,0,115.29,56.84Z"/><path class="cls-25" d="M119.33,52.78c-2.85,1.9-6.32,6.72-7,10.07a39.4,39.4,0,0,0-.3,10.24,32.29,32.29,0,0,1,0,5.9,10.93,10.93,0,0,1-2.09,5.45c-2.15,2.73-5.83,3.87-8,6.55-.54.65-1,1.66-.38,2.27a4.55,4.55,0,0,0,2.64,1.1l8.8,1.32a47,47,0,0,0,5.29.59A4.13,4.13,0,0,0,121,95.6a5.06,5.06,0,0,0,1.3-3.38c.21-3.71-.22-5.2-1.42-8.71a33,33,0,0,1-1.36-6.84c.27-5.62-2.76-10-2.16-14.62C117.74,59.44,118.83,55.36,119.33,52.78Z"/><path class="cls-24" d="M149.8,56.25a18.48,18.48,0,0,1,2.33,4,17.36,17.36,0,0,1,1.12,4.73c.5,4.61-.12,9.27,0,13.91a9.22,9.22,0,0,0,.53,3.26,7.82,7.82,0,0,0,1.89,2.57c2,2,4.54,3.4,6.78,5.14.88.68,1.8,1.82,1.24,2.78a2.14,2.14,0,0,1-.94.76,13.2,13.2,0,0,1-4.13,1q-6.26.75-12.56,1a3.59,3.59,0,0,1-1.87-.25,3.26,3.26,0,0,1-1.42-2.38c-1.08-5.36,1.5-10.68,2.63-16,.77-3.65.88-7.43,1.91-11a11.28,11.28,0,0,0,.54-2.28,8.27,8.27,0,0,0-.24-2.42,36.49,36.49,0,0,0-2.76-8.2c-.16-.36-.77-1.56-.14-1.8s1.33.88,1.6,1.16A38.84,38.84,0,0,1,149.8,56.25Z"/><path class="cls-25" d="M145.75,52.19c2.85,1.9,6.32,6.72,7,10.07a39.86,39.86,0,0,1,.31,10.24,33.21,33.21,0,0,0,0,5.9,11,11,0,0,0,2.09,5.45c2.15,2.73,5.83,3.87,8,6.55.54.65,1,1.66.38,2.27a4.55,4.55,0,0,1-2.64,1.1l-8.79,1.32a47.2,47.2,0,0,1-5.3.59,4.1,4.1,0,0,1-2.82-.67,5.06,5.06,0,0,1-1.3-3.38c-.22-3.71.21-5.2,1.41-8.71a33,33,0,0,0,1.37-6.84c-.28-5.62,2.75-10,2.16-14.62C147.35,58.85,146.26,54.77,145.75,52.19Z"/><path class="cls-24" d="M117.37,54.54a5.32,5.32,0,0,0-.44,2.39.58.58,0,0,0,.17.39c.25.22.63-.07.85-.33a24.14,24.14,0,0,1,6.39-5.24,10.91,10.91,0,0,1,3.47-1.5,13.84,13.84,0,0,1,2.73-.21l4,0c1.9,0,3.94,0,5.49,1.08.85.59,1.47,1.45,2.26,2.11a30.82,30.82,0,0,0,2.72,1.76,4.52,4.52,0,0,1,2,2.47,6.19,6.19,0,0,0,.21-3.4c-.18-.53-.5-1-.68-1.53-.5-1.41,0-3.16-1-4.32a8.37,8.37,0,0,0-2.21-1.45c-1.19-.75-2-2-3.21-2.72a8.5,8.5,0,0,0-3.49-.93,26.44,26.44,0,0,0-6.41,0,12.63,12.63,0,0,0-5.92,2.29c-.94.69-1.74,1.54-2.62,2.3-.66.57-1.29.66-1.9,1.27a8,8,0,0,0-1.3,2.59Z"/><path class="cls-3" d="M117.73,57.56a.48.48,0,0,1-.45.06l-.35-.12a.51.51,0,0,1,.1-.76l1.34-.92,6.59-5a7.18,7.18,0,0,1,4.3-1.44h6.66a7.76,7.76,0,0,1,4.65,1.53l6.78,5.77a.28.28,0,0,1,0,.38l-.15.12-.18.34a.29.29,0,0,1-.41.05l-6.93-5.89a6,6,0,0,0-3.57-1.17h-6.66a6.79,6.79,0,0,0-4,1.35Z"/><path class="cls-24" d="M119.67,46.25a5.09,5.09,0,0,1,1.38-1.51,50.15,50.15,0,0,1,6-4.5,11.24,11.24,0,0,1,2.06-1,9.15,9.15,0,0,1,4.9-.14,27,27,0,0,1,4.68,1.63l1.26.52a14.08,14.08,0,0,1,4.31,2.43,4.75,4.75,0,0,1,1.59,4.47,5.1,5.1,0,0,1-1.74-1,27.43,27.43,0,0,0-4.7-3,6,6,0,0,0-1.92-.68c-.61-.08-1.23,0-1.84-.07-.78-.11-1.51-.5-2.3-.54a16.25,16.25,0,0,0-2.73.47c-.83.08-1.67-.09-2.5,0A7.65,7.65,0,0,0,124.64,45L122,46.92c-.58.41-1.88,1.74-2.56,1.72A3.92,3.92,0,0,1,119.67,46.25Z"/><path class="cls-3" d="M119.19,49.45l0-.29a1.77,1.77,0,0,1,.71-1.2l5-3.79a7.8,7.8,0,0,1,4.72-1.58h6.43a7.86,7.86,0,0,1,4.65,1.52l5.15,3.8a.72.72,0,0,1,.3.62l-.07.37,0,.55a.2.2,0,0,1-.32.17L140.1,45a6.72,6.72,0,0,0-4-1.3h-6.43a6.74,6.74,0,0,0-4,1.35l-6.16,4.56A.19.19,0,0,1,119.19,49.45Z"/></svg>