<svg xmlns="http://www.w3.org/2000/svg" xmlns:xlink="http://www.w3.org/1999/xlink" viewBox="0 0 331 438"><defs><style>.cls-1,.cls-18,.cls-25{fill:none;}.cls-2{fill:#6243cf;}.cls-3{fill:#fff;}.cls-4{fill:#4f1b0c;}.cls-5{fill:#dbd3b4;}.cls-6{opacity:0.35;}.cls-7{fill:#bfab9b;}.cls-8{fill:#f9efde;}.cls-9{fill:#a87171;}.cls-10{fill:#f5f6f7;}.cls-11{fill:#28323a;}.cls-12{fill:#1a293f;}.cls-13{fill:#692916;}.cls-14{fill:#6b84b5;}.cls-15{fill:#365185;}.cls-16{fill:#cfd5e0;}.cls-17{fill:#d1d1d1;}.cls-18{stroke:#cfd5e0;stroke-width:0.38px;}.cls-18,.cls-25{stroke-miterlimit:10;}.cls-19{fill:#ebdeca;}.cls-20{fill:#82724e;}.cls-21{clip-path:url(#clip-path);}.cls-22{fill:#b3a178;}.cls-23{fill:#2c3559;}.cls-24{fill:#82321f;}.cls-25{stroke:#fff;stroke-width:1.27px;}</style><clipPath id="clip-path"><path class="cls-1" d="M251.14,295c-3.12-14.23-6-29-10.46-42.89-1.73-5.33-4.36-12.83-9.72-15.54-4.53-2.29-11-2.52-15.92-3.12a136.66,136.66,0,0,1-29-7c-1.61,1.74-.22,4.85,1.15,7.54-7,1.35-16.78,4-21.29,3.45-9.21-1-16-4-22.81-3.85,1.31-2.6,2.48-5.49.95-7.14a136.66,136.66,0,0,1-29,7c-5,.6-11.39.83-15.92,3.12-5.36,2.71-8,10.21-9.72,15.54C84.94,266,82.1,280.78,79,295c-2.11,9.64-2.77,17.4-1.21,27.2,1.43,8.94,7.15,28.58,8.84,31.76,3.53,6.62,10.32,12.95,12.07,10.34,2-3.05,7.88-6.71,11.06-4.22a7.14,7.14,0,0,0,1.35-1.62,24.86,24.86,0,0,0,4.39,6.64c8,8.68,23.87,9.62,34.76,7.41a121.8,121.8,0,0,1,28.7-2.15c6.77.22,13.62.37,20-2.2a28.75,28.75,0,0,0,14.22-11.75,13.34,13.34,0,0,1,6.09,4.59c1.74,2.61,11.1-3.11,14.63-9.73,1.69-3.17,17-20.13,18.44-29.07C253.91,312.41,253.25,304.65,251.14,295ZM111,320.54c-.75,4.3-1.63,9-2.2,13.8A64.06,64.06,0,0,0,100,316.56c3.94.71,7.4-7,8.9-9.84,1.6-3,3-6.11,4.48-9.19,0,.49,0,1,0,1.45A162.57,162.57,0,0,1,111,320.54Zm106.46,4.34c-1.14-7-3.17-13.91-4.25-20.92a71.7,71.7,0,0,1-.55-15.14c4.94,9.09,11.43,21.94,13,24.37C223,316.93,220.21,320.83,217.47,324.88Z"/></clipPath></defs><g id="Layer_1" data-name="Layer 1"><rect class="cls-2" x="-57.89" y="45.94" width="452.21" height="342.54" transform="translate(385.42 48.99) rotate(90)"/></g><g id="Layer_2" data-name="Layer 2"><path class="cls-3" d="M251.14,295c-3.12-14.23-6-29-10.46-42.89-1.73-5.33-4.36-12.83-9.72-15.54-4.51-2.28-10.94-2.51-15.87-3.12,0-.1,0-.2,0-.3a5.19,5.19,0,0,0,1.18-2.13,9,9,0,0,0-1.1-5.73,27.48,27.48,0,0,0-2.72-4.5,6,6,0,0,1-1-1.65,5,5,0,0,1-.15-1.77,39.25,39.25,0,0,0,.08-7.27,20.47,20.47,0,0,0-1.68-5.43c-3-6.74-7.67-12.54-12.31-18.26l-.41-.51a27.08,27.08,0,0,0-1.66-6.39,31.67,31.67,0,0,0-3.94-6.65,64.5,64.5,0,0,0-5.46-6.44,30.85,30.85,0,0,1-.67-4.79.32.32,0,0,0,.07-.22l-.08-.92.12-.62a1.23,1.23,0,0,0-.51-1.06l-.1-.07a8.12,8.12,0,0,0-2.74-7.06,23.4,23.4,0,0,0-7.26-4.09l-2.13-.89A46.25,46.25,0,0,0,164.8,144a15.4,15.4,0,0,0-8.25.24,18.29,18.29,0,0,0-3.47,1.7A84.88,84.88,0,0,0,143,153.49a8.34,8.34,0,0,0-2.31,2.54,6.56,6.56,0,0,0-.45,4,3.12,3.12,0,0,0-.31.95l-.06.48a.28.28,0,0,0,.17.32,24.85,24.85,0,0,0-1.3,3.08l-1.66,4.44c-1.32,1.49-2.6,3-3.78,4.61a31.6,31.6,0,0,0-3.94,6.64,27.16,27.16,0,0,0-1.66,6.4l-.41.5c-4.64,5.72-9.34,11.53-12.31,18.27a20.4,20.4,0,0,0-1.68,5.42,40.26,40.26,0,0,0,.08,7.28,5,5,0,0,1-.15,1.77,6,6,0,0,1-1,1.64,27.16,27.16,0,0,0-2.72,4.51,9,9,0,0,0-1.1,5.73,5.21,5.21,0,0,0,1.09,2c-3.64.41-7.41,1-10.37,2.52-5.36,2.71-8,10.21-9.72,15.54C84.94,266,82.1,280.78,79,295c-2.11,9.64-2.77,17.4-1.21,27.2,1.43,8.94,7.15,28.58,8.84,31.76,3.53,6.62,10.32,12.95,12.07,10.34l.26-.36a28.14,28.14,0,0,1,1.85,3.68c.58,1.45,1,3,1.48,4.45a94.38,94.38,0,0,0,5.82,13.19,7.08,7.08,0,0,0,.53.88,7.29,7.29,0,0,1-.44,1.77c0,.28.24.44.54.5l-1.5,8.92c-.4,2.34.84,4.53.72,6.9a5.62,5.62,0,0,1-.63,2.88c-.31.47-.78.82-1.12,1.28-1,1.4-.66,3.34-.77,5.08-.23,3.6-2.64,7.3-2.55,10.9,0,.92.22,1.83.16,2.75a12.5,12.5,0,0,1-.85,3.14,106.94,106.94,0,0,0-2.7,12.43h56.46c.76-4.79,1.55-9.7,2.43-15,.42.84.86,7.32,1.4,15H212.1c-.64-10.69-1.39-20.09-1.14-21.29a29.4,29.4,0,0,0,.31-6.89l-.75-21.22c-.07-2.17-.15-4.34-.28-6.5a.84.84,0,0,0,.62-.42c.09-.22-.12-.68,0-.89s.32-.24.43-.41a.6.6,0,0,0-.24-.77,1.72,1.72,0,0,0-.84-.21h-.17c-.05-.49-.11-1-.15-1.46a93.46,93.46,0,0,0,5.68-12.88c.48-1.48.89-3,1.47-4.45a33.68,33.68,0,0,1,2.21-4.31l0,0c1.74,2.61,11.1-3.11,14.63-9.73,1.69-3.17,17-20.13,18.44-29.07C253.91,312.41,253.25,304.65,251.14,295ZM100,316.56c3.94.71,7.4-7,8.9-9.84,1.6-3,3-6.1,4.47-9.16,0,.47,0,.95,0,1.42A162.57,162.57,0,0,1,111,320.54c-.75,4.3-1.63,9-2.2,13.81A64.25,64.25,0,0,0,100,316.56Zm13.19,48.23c-.21-.2-.45-.38-.65-.59a24.11,24.11,0,0,1-2.57-3.61c-.13-.2-.25-.4-.37-.6l.15.1a7.18,7.18,0,0,0,1.35-1.67,24.88,24.88,0,0,0,2.49,4.36C113.45,363.44,113.32,364.11,113.18,364.79Zm104.29-39.88c-1.13-7-3.17-13.93-4.25-21a72.13,72.13,0,0,1-.54-15.11c4.94,9.08,11.42,21.91,12.95,24.34C223,316.94,220.22,320.86,217.47,324.91Z"/><path class="cls-3" d="M222.27,452.27H88.05l2-11.25a107.81,107.81,0,0,1,3-13.81c.08-.22.16-.46.24-.7a1.07,1.07,0,0,0,.07-.19c0-.45-.1-1-.11-1.7a25.54,25.54,0,0,1,1.79-9.18,19.09,19.09,0,0,0,.77-2.59c0-.22,0-.45,0-.68a15,15,0,0,1,2.32-9v0a18.47,18.47,0,0,1-.4-7.37l1-5.9a9.9,9.9,0,0,1-.17-2.12A91.45,91.45,0,0,1,93.16,375c-.16-.49-.32-1-.47-1.48l0-.09c-8.25-3.44-14.21-14.45-14.5-15-2.64-5-8.47-26.12-9.85-34.75-1.62-10.19-1.24-19.1,1.31-30.76.56-2.51,1.1-5,1.64-7.58,2.57-11.95,5.22-24.32,9.07-36.21,1.87-5.77,5.34-16.51,14.51-21.14a27.83,27.83,0,0,1,4.5-1.77,23.7,23.7,0,0,1,1.56-4.11,37.37,37.37,0,0,1,2.84-4.9h0a36.91,36.91,0,0,1,.09-7.46,30.53,30.53,0,0,1,2.4-8c3.23-7.32,8-13.52,12.5-19a32.8,32.8,0,0,1,1.8-5.92,41.18,41.18,0,0,1,5.08-8.69c.93-1.26,2-2.53,3.13-3.91l1.16-3.09c.15-.41.33-.9.55-1.44l0-.14c0-.19.06-.37.09-.56a16,16,0,0,1,1.57-7.27,17.42,17.42,0,0,1,4.75-5.64,92.67,92.67,0,0,1,11.24-8.41,27.59,27.59,0,0,1,5.32-2.57,24.69,24.69,0,0,1,13.39-.54,55.38,55.38,0,0,1,9.54,3.26l2.12.88a32.41,32.41,0,0,1,10.12,5.95,18.07,18.07,0,0,1,5.83,11.69,11,11,0,0,1,.55,3.88l0,.76c0,.19,0,.38,0,.57s0,.33,0,.48c1.49,1.67,2.88,3.38,4.15,5.1a41.71,41.71,0,0,1,5.08,8.69,33,33,0,0,1,1.8,5.92c4.45,5.5,9.27,11.7,12.5,19a30.15,30.15,0,0,1,2.4,8,36.09,36.09,0,0,1,.09,7.45h0a38.15,38.15,0,0,1,2.84,4.91,23,23,0,0,1,1.49,3.88,34,34,0,0,1,9.93,3c9.17,4.63,12.64,15.37,14.51,21.14,3.85,11.89,6.5,24.26,9.07,36.21.54,2.54,1.08,5.07,1.64,7.58h0c2.55,11.66,2.93,20.57,1.31,30.76-1.32,8.25-8.55,18-16.47,28.21-1.18,1.51-2.64,3.38-3.08,4-3.22,5.9-10.16,12.27-16.86,14.47-.08.26-.17.52-.25.8-.15.49-.31,1-.47,1.48a78.77,78.77,0,0,1-4,9.73,10,10,0,0,1-.55,6.35c0,.19-.11.39-.17.59,0,1.18.09,2.37.14,3.57l.74,21.22a40.45,40.45,0,0,1-.35,8.38c0,1.66.33,6.45.61,10.72.18,2.73.37,5.73.56,8.84Zm-53.59-19.15h33.21c-.65-10.05-.71-11.74-.31-13.65a23.31,23.31,0,0,0,.12-4.62L201,393.64c-.08-2.24-.15-4.25-.28-6.27l-.17-2.47c0-.23,0-.46-.07-.69l-.35-3.39.18-.36-.07-1.17.75-.18.4-.79a84.86,84.86,0,0,0,5.13-11.53l.38-1.22c.36-1.15.76-2.45,1.31-3.82a41.94,41.94,0,0,1,2.83-5.59l8.06-13.78,4.33,7a11.44,11.44,0,0,0,2.08-2.64,50.93,50.93,0,0,1,4.77-6.62c3-3.81,12-15.39,12.66-19.45,1.25-7.85,1-14.25-1.11-23.64h0q-.83-3.81-1.65-7.66c-2.47-11.49-5-23.36-8.57-34.33-2.51-7.75-4.16-9.56-4.92-9.94-2.08-1-6.24-1.48-9.58-1.82-1.09-.11-2.14-.22-3.14-.34l-10.79-1.33,2.52-9.92.22-2.54.37-.42a18.08,18.08,0,0,0-1.43-2.24l-.07-.1a14.72,14.72,0,0,1-2.35-4.32,14.11,14.11,0,0,1-.6-5.13c0-.64.07-1.29.11-1.93a21.22,21.22,0,0,0,0-3.61,12.1,12.1,0,0,0-.95-2.89c-2.48-5.6-6.8-10.93-11-16.08L188,189.9l-.38-2.59a17.62,17.62,0,0,0-1-4.14,22.44,22.44,0,0,0-2.78-4.61,55.21,55.21,0,0,0-4.66-5.49l-1.5-1.56-.68-2a21.3,21.3,0,0,1-1-5.27v-.07l-1.61-1.19.81-4.55a23.61,23.61,0,0,0-4-1.95l-2.13-.89a39.45,39.45,0,0,0-6.23-2.22,5.93,5.93,0,0,0-3.11-.06,9.45,9.45,0,0,0-1.61.84,49.33,49.33,0,0,0-5.08,3.6l.11.06-4.59,8.52a15.69,15.69,0,0,0-.63,1.56l-2.42,6.45-1.19,1.33c-1.33,1.49-2.35,2.74-3.23,3.92a22.9,22.9,0,0,0-2.78,4.61,17.75,17.75,0,0,0-1.05,4.14l-.38,2.6-2.08,2.56c-4.17,5.14-8.49,10.47-11,16.08a12,12,0,0,0-1,2.89,21.11,21.11,0,0,0,0,3.6c0,.64.08,1.29.11,1.93a14,14,0,0,1-.61,5.14,14.29,14.29,0,0,1-2.33,4.3l-.08.11a17.29,17.29,0,0,0-1.46,2.31l9.9,11.72-17.77,2c-1.43.17-5.25.6-7.14,1.56-.76.38-2.41,2.19-4.92,9.94C95,266,92.46,277.91,90,289.4q-.83,3.86-1.65,7.66c-.59,2.69-1,5.14-1.35,7.44l11.16,2c.68-1.14,1.38-2.5,1.72-3.18.2-.4.39-.76.55-1.06,1.46-2.78,2.8-5.61,4.26-8.75l19.54-41.92-1.29,46.72,0,1.05a173.92,173.92,0,0,1-2.45,22.82l-.36,2.06c-.65,3.66-1.32,7.45-1.77,11.24l-1.47,12.45,3,6.54a15.86,15.86,0,0,0,1.53,2.71l2.44,3.39-4.22,21.14-2.81,16.66c0,.2.1.46.14.67a20.6,20.6,0,0,1,.6,5.7v.13a14.44,14.44,0,0,1-2.23,7.58l-.25.36c0,.39,0,.83,0,1.3a28.41,28.41,0,0,1-1.76,7.52,22.23,22.23,0,0,0-.77,2.56c0,.1,0,.22,0,.34a18.1,18.1,0,0,1,.11,3.24,18.62,18.62,0,0,1-1.17,5.09l-.09.26h36.44c.37-2.27.75-4.6,1.15-7l4.81-29.24,13.21,26.53C167.83,425.18,168.17,426.7,168.68,433.12Zm51.81-10.91ZM116.71,398.1Zm125.65-42.31,0,0ZM90.58,335l10.76,7.52-1.67-5.33A54.7,54.7,0,0,0,92.12,322L86.53,314a57.61,57.61,0,0,0,.7,6.73C87.8,324.27,89.14,329.76,90.58,335Zm121.27,15.23L208,326.43c-.5-3.12-1.21-6.27-2-9.61-.83-3.67-1.69-7.47-2.29-11.4a81,81,0,0,1-.64-17.14l2-33.46,16,29.45c2.33,4.29,5,9.34,7.3,13.8,2.1,4,4.71,9,5.34,10l3.36,5.36-3.6,5.2q-1.49,2.13-3,4.34c-1.67,2.38-3.39,4.83-5.07,7.3Z"/><path class="cls-4" d="M154.83,221.13c2,0,4.26,0,5.82-1.34a6.36,6.36,0,0,0,1.87-3.14c1.5-5-.11-10.24-.81-15.37-1.14-8.27.06-17-2.9-24.79-2.07-5.47-6-10-9.86-14.39a10.49,10.49,0,0,0-2.08-2c-.36,2.93-3.13,4.84-5.14,7-3.21,3.49-4.67,8.21-6,12.77-1.8,6.11-3.57,12.28-4.21,18.62s-.11,12.92,2.52,18.72c1.56,3.43,3.86,6.55,5.16,10.06C142.46,222.33,149.34,221.22,154.83,221.13Z"/><path class="cls-4" d="M178.94,177.27c-1.35,4.33-2.58,8.7-3.81,13.07a67.13,67.13,0,0,0-2.19,9.48c-.83,6.29.11,12.8-1.46,19,3.79-1.69,6.8,14.17,10.93,13.88,1.23-.09,3.6-17,4.7-17.57,1.67-.86,2.52-2.75,3.15-4.52a54,54,0,0,0,1.21-32.09c-.81-3-2.54-8.18-5.73-9.49C181.72,167.34,179.86,174.32,178.94,177.27Z"/><path class="cls-5" d="M177.41,202.26v.05l-.73,24.33-5.87,7.7-.29-.11-20.35-7.59s-.1-22.22,0-22.7l20.7-1.24h.1Z"/><g class="cls-6"><polygon class="cls-7" points="177.41 202.31 176.68 226.64 170.81 234.34 170.52 234.23 161.28 221.79 150.61 209.15 170.87 202.7 170.97 202.69 177.41 202.31"/></g><path class="cls-8" d="M184.29,186a4.71,4.71,0,0,1-.62,2.55l-2.54,9.93a12.19,12.19,0,0,1-3.68,8.8l-6.18,5.89a4,4,0,0,1-2.77,1.12h-9.69a4,4,0,0,1-2.38-.79l-5.82-4.34A11.93,11.93,0,0,1,146,201l-4.18-10.88a4.62,4.62,0,0,1-.76-2.67c0-1.51,0-3.8,0-4.85-.11-1.37,0-8.45,0-10.81a5,5,0,0,1,.26-1.49l2.78-8.13a4.38,4.38,0,0,1,1.6-2.19L160.87,149a4,4,0,0,1,3.11-.68L177,151.05a4.32,4.32,0,0,1,3.23,3.23l3.25,12.9a4.73,4.73,0,0,1,.14,1Z"/><path class="cls-5" d="M161.46,214.28h-2.65a4,4,0,0,1-2.38-.79l-5.82-4.34A11.93,11.93,0,0,1,146,201l-4.18-10.88a4.62,4.62,0,0,1-.76-2.67c0-1.51,0-3.8,0-4.85-.11-1.37,0-8.45,0-10.81a5,5,0,0,1,.26-1.49l2.78-8.13a4.38,4.38,0,0,1,1.6-2.19L160.87,149a4,4,0,0,1,1.41-.65c0,4.12-2.1,6.65-1.72,12.48,0,.66.13,2.86.21,6.28,0,.36-.67.48-.62,1.46,0,.61.66,1.07.67,1.35,0,.67,0,.13,0,.85,0,.31-.44.6-.5,1.16-.09.91.52,1.11.52,1.42,0,3,0,6.16,0,9.11a76.24,76.24,0,0,0,.08,10.32c.07.52-3.27-1.79-2.65.94.3,1.33,3.63,4,3.36,4.77-.75,2.17.86,4.19.66,5.36s-1,2.44-1.21,3.8A15.59,15.59,0,0,0,161.46,214.28Z"/><path class="cls-9" d="M163.76,201.47l-1.39-1.26s-.54-.53-.57-.54a8.17,8.17,0,0,0-1,0,30.12,30.12,0,0,1-3,1.67,12.29,12.29,0,0,1-1.21-.65l-.91,1.82s2.14-1,2.29-1Z"/><path class="cls-9" d="M161.56,201.47l1.48-1.26s.57-.53.61-.54a9.18,9.18,0,0,1,1,0,30.58,30.58,0,0,0,3.19,1.14c.22,0,1.25-.12,1.25-.12l1,1.82s-2.27-1-2.42-1Z"/><path class="cls-10" d="M147.28,181.39s4.45-.78,6.11-.23a10.53,10.53,0,0,1,3.09,1.83c.4.25,1.26.53,1,.81s-1.21.36-1.75.62-5,.88-7.2-.57S147.28,181.39,147.28,181.39Z"/><ellipse class="cls-11" cx="152.48" cy="183.09" rx="1.99" ry="1.75" transform="translate(-2.22 1.87) rotate(-0.7)"/><path class="cls-12" d="M157.6,182a10.91,10.91,0,0,0-1.44-1.06,3.84,3.84,0,0,0-.39-.22l-.4-.19c-.29-.12-.57-.23-.86-.32s-.58-.16-.88-.23a9.07,9.07,0,0,0-.91-.14,14.55,14.55,0,0,0-1.87-.09,9.87,9.87,0,0,0-3.53.56,2,2,0,0,0-.56.34c-.1.1-.11.17-.09.23s.32.31.8.26l-.13,0a15.33,15.33,0,0,1,2.68-.39,11,11,0,0,1,2.74.15,7.37,7.37,0,0,1,2.48,1c.36.22.69.49,1,.72a6.56,6.56,0,0,0,1.08.58h0a1,1,0,0,1,.27.28.48.48,0,0,1,.05.22.3.3,0,0,1-.12.21,1.87,1.87,0,0,1-.74.24l-1.37.34a13.87,13.87,0,0,1-2.89.39,18.24,18.24,0,0,1-2.95-.23,7.48,7.48,0,0,1-2.93-1l1-.9a4.9,4.9,0,0,0,2.13,1.18,12.32,12.32,0,0,0,2.72.5,10.91,10.91,0,0,0,2.79-.21c.46-.08.91-.2,1.39-.3a1.63,1.63,0,0,0,.59-.16c.1,0,0-.22-.16-.34l0,0a11.22,11.22,0,0,1-1.14-.59,7.55,7.55,0,0,0-1.05-.64,5.5,5.5,0,0,0-2.36-.6,10.84,10.84,0,0,0-2.47.2c-.81.15-1.65.34-2.41.55l-.06,0h-.07a2.94,2.94,0,0,1-1.36-.15,1.64,1.64,0,0,1-1-1,1.35,1.35,0,0,1,.4-1.34,2.41,2.41,0,0,1,.51-.38,3.15,3.15,0,0,1,.52-.26,7.71,7.71,0,0,1,2.11-.5,13.33,13.33,0,0,1,2.09-.08,18,18,0,0,1,2.06.21,9.47,9.47,0,0,1,1,.25,9.25,9.25,0,0,1,1,.33c.32.14.62.3.9.45s.29.16.44.26l.4.3a8,8,0,0,1,1.32,1.34Z"/><path class="cls-10" d="M176.82,181.39s-4.44-.78-6.11-.23a10.43,10.43,0,0,0-3.08,1.83c-.4.25-1.26.53-1,.81s1.2.36,1.74.62,5,.88,7.2-.57S176.82,181.39,176.82,181.39Z"/><ellipse class="cls-11" cx="171.63" cy="183.09" rx="1.75" ry="1.99" transform="translate(-13.54 352.47) rotate(-89.3)"/><path class="cls-12" d="M166.5,182A10.39,10.39,0,0,1,168,181a2.88,2.88,0,0,1,.38-.22l.4-.19c.29-.12.57-.23.86-.32s.58-.16.89-.23a8.46,8.46,0,0,1,.9-.14,14.7,14.7,0,0,1,1.88-.09,9.82,9.82,0,0,1,3.52.56,2.12,2.12,0,0,1,.57.34c.1.1.11.17.09.23s-.33.31-.8.26l.13,0a15.58,15.58,0,0,0-2.69-.39,11,11,0,0,0-2.74.15,7.23,7.23,0,0,0-2.47,1c-.37.22-.7.49-1,.72a6.08,6.08,0,0,1-1.07.58h0a1,1,0,0,0-.26.28.38.38,0,0,0-.06.22.35.35,0,0,0,.12.21,1.87,1.87,0,0,0,.74.24l1.38.34a13.78,13.78,0,0,0,2.89.39,18.11,18.11,0,0,0,2.94-.23,7.48,7.48,0,0,0,2.93-1l-1-.9a4.79,4.79,0,0,1-2.13,1.18,12.32,12.32,0,0,1-2.72.5,10.87,10.87,0,0,1-2.78-.21c-.47-.08-.92-.2-1.39-.3a1.7,1.7,0,0,1-.6-.16c-.1,0,0-.22.17-.34l0,0a9.45,9.45,0,0,0,1.14-.59,8.19,8.19,0,0,1,1.05-.64,5.51,5.51,0,0,1,2.37-.6,10.8,10.8,0,0,1,2.46.2c.82.15,1.65.34,2.42.55l.06,0h.07a3,3,0,0,0,1.36-.15,1.62,1.62,0,0,0,1-1,1.34,1.34,0,0,0-.39-1.34,2.45,2.45,0,0,0-.52-.38,2.81,2.81,0,0,0-.52-.26,7.71,7.71,0,0,0-2.11-.5,13.21,13.21,0,0,0-2.08-.08,17.53,17.53,0,0,0-2.06.21,9.09,9.09,0,0,0-1,.25,9.25,9.25,0,0,0-1,.33c-.32.14-.62.3-.9.45-.13.08-.29.16-.44.26l-.4.3a8,8,0,0,0-1.32,1.34Z"/><path class="cls-12" d="M154.28,198.91a29.34,29.34,0,0,0,6.15-2.35c.44-.23,1-.46,1.4-.12a1.21,1.21,0,0,1,.29.52,11.17,11.17,0,0,1,.39,1.69,1.82,1.82,0,0,1,0,.77,2,2,0,0,1-1.29,1.13,11.63,11.63,0,0,1-11-1.31,1.66,1.66,0,0,1-.67-.77.61.61,0,0,1,.43-.8.46.46,0,0,1,.48.38.74.74,0,0,1-.22.5C151.09,199.61,153.14,199.21,154.28,198.91Z"/><path class="cls-12" d="M171.18,198.62a29.26,29.26,0,0,1-6.14-2.35c-.45-.23-1-.46-1.4-.13a1.11,1.11,0,0,0-.29.53,10.92,10.92,0,0,0-.4,1.69,2.16,2.16,0,0,0,0,.76,2,2,0,0,0,1.29,1.14,11.65,11.65,0,0,0,11-1.32,1.59,1.59,0,0,0,.66-.77.6.6,0,0,0-.43-.79.45.45,0,0,0-.47.37.69.69,0,0,0,.21.5C174.37,199.32,172.33,198.91,171.18,198.62Z"/><path class="cls-13" d="M108.44,232a9,9,0,0,1,1.1-5.73,27.16,27.16,0,0,1,2.72-4.51,6,6,0,0,0,1-1.64,5,5,0,0,0,.15-1.77,40.26,40.26,0,0,1-.08-7.28,20.4,20.4,0,0,1,1.68-5.42c3-6.74,7.67-12.55,12.31-18.27l4.48-5.51c0,2.26.67,4.48.76,6.74a40.6,40.6,0,0,1-.71,6.67c-.51,3.93-.34,7.93-.76,11.88a78.65,78.65,0,0,1-3.14,13.75,17,17,0,0,1-1.66,4.23,13.12,13.12,0,0,1-3.31,3.42,30.27,30.27,0,0,1-6,3.62,19.13,19.13,0,0,0-2.64,1.32c-.6.41-1.31,1.57-1.91,1.77C110.63,235.92,108.77,233.51,108.44,232Z"/><path class="cls-8" d="M158.52,192.18a.91.91,0,0,0-.31.75,1.91,1.91,0,0,0,.24.8,5.68,5.68,0,0,0,1.33,1.75,12.2,12.2,0,0,0,1.15.85,3.51,3.51,0,0,0,1.17.6,2.28,2.28,0,0,0,1.45-.17,4.72,4.72,0,0,0,1.23-.82c.24-.21.48-.43.71-.66a2,2,0,0,0,.52-.73,1.63,1.63,0,0,0,0-.85,1.92,1.92,0,0,0-.86-1.3,3.72,3.72,0,0,0-2.36-.05,7.29,7.29,0,0,1-2.33,0C160,192.2,159,191.85,158.52,192.18Z"/><path class="cls-12" d="M161.12,179.27c0,.08.15,5.77.15,5.77l.09,2.58.17,5.16,0,.77-.79-.18h0l-2.35-.94.35-.2h0l-.37,1.15,0-.22a8.52,8.52,0,0,0,1.5,2,7.74,7.74,0,0,0,2,1.43,2.13,2.13,0,0,0,1.09.21,2,2,0,0,0,1-.46c.62-.49,1.08-1.22,1.76-1.84l.39.45c-.59.52-1.06,1.28-1.79,1.85a2.55,2.55,0,0,1-1.3.59,2.68,2.68,0,0,1-1.41-.26,8.36,8.36,0,0,1-2.16-1.55,9.13,9.13,0,0,1-1.61-2.12l-.06-.1,0-.12.38-1.15h0l0-.24.31,0,2.51.34h0l-.76.59.14-5.16.06-2.58,0-5.59Z"/><path class="cls-12" d="M167.58,206.53c.15,0,.25.19.16.31a.38.38,0,0,1-.41.1,1.12,1.12,0,0,1-.72-1c-.05-.43,0-.87,0-1.3a1.34,1.34,0,0,0-.52-1.14,1.43,1.43,0,0,0-.87-.15c-.25,0-1.27.15-2.19.15-1.33,0-2.68-.15-3.05-.15a1.41,1.41,0,0,0-.86.15,1.34,1.34,0,0,0-.52,1.14c0,.43.07.87,0,1.3a1.13,1.13,0,0,1-.72,1,.38.38,0,0,1-.41-.1c-.09-.12,0-.35.16-.31-.29-.29-.82,0-.85.42a1.09,1.09,0,0,0,.62.94,2.26,2.26,0,0,0,2.14,0,6.36,6.36,0,0,0,1.49-1.35,2.8,2.8,0,0,1,1-.55,1.54,1.54,0,0,1,1.08,0,2.77,2.77,0,0,1,1,.55,6.52,6.52,0,0,0,1.48,1.35,2.28,2.28,0,0,0,2.15,0,1.09,1.09,0,0,0,.62-.94C168.4,206.55,167.86,206.24,167.58,206.53Z"/><path class="cls-12" d="M184.3,174.82c0-.72-.52-3.49-1.49-3.4a53.84,53.84,0,0,1,0,15.68c-.74,5.3-5.74,13-10.33,13.89a.89.89,0,0,0-.68,1,10.23,10.23,0,0,1,.2,2.44c-.07,1.69-2.38,5.85-5.68,3.94-1-.58-2-2-3-3a2.66,2.66,0,0,0-1.4,0,16.63,16.63,0,0,1-2.94,3c-3.3,1.91-5.61-2.25-5.68-3.94a9.84,9.84,0,0,1,0-1.74,1.13,1.13,0,0,0-.8-1.21c-4.54-1.34-8.73-9.28-10-14.43-1.44-5.77-.73-10.66,0-16.34-.85-.07-1.16.83-1.46,1.63a11.88,11.88,0,0,0-.54,2.36c-.83,8.66-.6,14.11,2.49,22.23.38,1,1.8,5.2,2,6.24.14.84.12,1.71.31,2.55a8.42,8.42,0,0,0,1.5,3,21.06,21.06,0,0,0,12.47,8.14,29.22,29.22,0,0,0,6.84,0,21.54,21.54,0,0,0,12.47-8.14,8.42,8.42,0,0,0,1.5-3c.19-.84.17-1.71.31-2.55.17-1,1.59-5.25,2-6.24C185.44,188.89,183.81,183.85,184.3,174.82Z"/><path class="cls-12" d="M157.77,174.8a4,4,0,0,0-2.28-1.33,3.75,3.75,0,0,0-1.45-.12c-.68.11-1.3.51-2,.58a4.83,4.83,0,0,1-1.07-.08c-1.63-.25-3.46-.27-4.72.8a3.52,3.52,0,0,0-1.17,2.08.26.26,0,0,0,.4.3,1,1,0,0,0,.34-.32,3.43,3.43,0,0,1,2.69-1.25,24.15,24.15,0,0,1,3.31.8c.93.16,1.88,0,2.81.15a5.46,5.46,0,0,1,2.25.79,1.44,1.44,0,0,0,.48.24C158.59,177.67,158.14,175.29,157.77,174.8Z"/><path class="cls-12" d="M166.84,174.23a3.94,3.94,0,0,1,2.27-1.33,3.78,3.78,0,0,1,1.46-.12c.67.11,1.29.51,2,.58a4.83,4.83,0,0,0,1.07-.08c1.63-.25,3.46-.27,4.72.8a3.47,3.47,0,0,1,1.17,2.08.29.29,0,0,1,0,.16.28.28,0,0,1-.39.14,1,1,0,0,1-.35-.32,3.43,3.43,0,0,0-2.69-1.25,24.15,24.15,0,0,0-3.31.8c-.93.16-1.88,0-2.81.15a5.46,5.46,0,0,0-2.25.79,1.44,1.44,0,0,1-.48.24C166,177.1,166.47,174.72,166.84,174.23Z"/><path class="cls-13" d="M216.32,231a9,9,0,0,0-1.1-5.73,27.48,27.48,0,0,0-2.72-4.5,6,6,0,0,1-1-1.65,5,5,0,0,1-.15-1.77,39.25,39.25,0,0,0,.08-7.27,20.47,20.47,0,0,0-1.68-5.43c-3-6.74-7.67-12.54-12.31-18.26L193,180.9c0,2.27-.67,4.49-.76,6.75a41.72,41.72,0,0,0,.71,6.67c.51,3.93.34,7.93.76,11.87A78.55,78.55,0,0,0,196.82,220a16.94,16.94,0,0,0,1.66,4.22,13.32,13.32,0,0,0,3.31,3.43,30.76,30.76,0,0,0,6,3.62,18.07,18.07,0,0,1,2.64,1.32c.6.4,1.31,1.56,1.91,1.77C214.13,234.93,216,232.52,216.32,231Z"/><path class="cls-14" d="M163.86,231.52c.38,1.58.31,3.24.75,4.81a33.21,33.21,0,0,0-4.72,1,2.06,2.06,0,0,1-.78.12,1.86,1.86,0,0,1-.86-.44,4.71,4.71,0,0,1-1.61-1.77,3.51,3.51,0,0,1-.12-2.08,8.92,8.92,0,0,1,.76-2,10.75,10.75,0,0,1,1.37-2.31c.34-.4.73-.75,1.08-1.14s.68-1.26,1.31-.75a7.81,7.81,0,0,1,1.26,1.31A8.59,8.59,0,0,1,163.86,231.52Z"/><circle class="cls-15" cx="161.73" cy="235.11" r="1.26"/><circle class="cls-16" cx="161.73" cy="235.11" r="1.13"/><circle class="cls-15" cx="161.47" cy="234.89" r="0.13"/><circle class="cls-15" cx="161.99" cy="234.89" r="0.13"/><circle class="cls-15" cx="161.47" cy="235.33" r="0.13"/><circle class="cls-15" cx="161.99" cy="235.33" r="0.13"/><path class="cls-14" d="M212.1,442.7H159.77c-.54-7.71-1-14.19-1.4-15-.88,5.33-1.67,10.24-2.43,15H99.48a106.94,106.94,0,0,1,2.7-12.43,12.5,12.5,0,0,0,.85-3.14c.06-.92-.14-1.83-.16-2.75-.1-3.6,2.32-7.3,2.55-10.9.11-1.74-.26-3.68.77-5.08.34-.46.81-.81,1.12-1.28a5.62,5.62,0,0,0,.63-2.88c.12-2.37-1.12-4.56-.72-6.9q.93-5.54,1.87-11.06c1.29-7.66,3.32-17.63,4.84-25.25,4.94.91,9.21,3.43,14.22,3.09,3.13-.22,6.21-.92,9.34-1.09,8-.44,16,2.62,24,1.9,5.38-.48,10.5-2.65,15.87-3.28,2.5-.29,5-.25,7.53-.44a39.35,39.35,0,0,0,20.39-7.7c1.12,5.21,1.06,10.1,2.18,15.3.88,4.05,1.76,8.11,2.27,12.22s.65,8.17.79,12.27l.75,21.22a29.4,29.4,0,0,1-.31,6.89C210.71,422.61,211.46,432,212.1,442.7Z"/><path class="cls-16" d="M157.62,404.82c.1-1.24-.09-2.48-.05-3.72.08-2.21.89-4.37.76-6.58-.08-1.54-.62-3-.53-4.58.13-2.05,1.35-3.85,1.87-5.84,1.54-6-3.5-12-2.36-18.07a5.05,5.05,0,0,0-2,3.1c-.06,1,.52,2,.64,3,.15,1.39-.56,2.87,0,4.15a19.74,19.74,0,0,0,1.33,1.86,5.18,5.18,0,0,1,.5,2.81,24.15,24.15,0,0,1-.53,4.4,19.62,19.62,0,0,0-.74,4.34c0,1.62.61,3.19.64,4.81,0,2-.79,3.93-.6,5.91.07.7.27,1.39.3,2.1a13,13,0,0,1-.2,2.14,18.76,18.76,0,0,0,.33,5.93C156.52,408.71,157.47,406.69,157.62,404.82Z"/><path class="cls-16" d="M192.84,378.18a16.09,16.09,0,0,0,8,4.66,50.45,50.45,0,0,0,9.34,1.26,1.72,1.72,0,0,1,.84.21.6.6,0,0,1,.24.77c-.11.17-.32.24-.43.41s.08.67,0,.89c-.15.38-.75.48-1.16.48a16.81,16.81,0,0,1-3.19-.62,57.12,57.12,0,0,1-8.49-2.17,19.15,19.15,0,0,1-7.38-4.6,13.1,13.1,0,0,1-3.73-7.49c.58,0,1.92-.52,2.37-.16s.72,1.65,1,2.15A18.46,18.46,0,0,0,192.84,378.18Z"/><path class="cls-16" d="M125.46,383.21c-2.18,1.94-4.77,3.88-7.62,4.47a50.74,50.74,0,0,1-8.71.79c-.41,0-1-.13-.95-.55a7.07,7.07,0,0,0,.52-2.4,15,15,0,0,0,12.13-1.73,29.11,29.11,0,0,0,2.38-1.75,25.25,25.25,0,0,0,4.13-5c1-1.4,1.3-3.6,3.48-2.68A19.64,19.64,0,0,1,125.46,383.21Z"/><path class="cls-16" d="M131.83,363.94a1.87,1.87,0,0,0,0,.88,31.6,31.6,0,0,1,.31,4.45c0,1.94-.45,3.87-.38,5.81a24.6,24.6,0,0,0,.27,2.57l.25,1.79a.42.42,0,0,0,.35.43,3.85,3.85,0,0,0,3,0,3.28,3.28,0,0,1-.13-2.28,35.69,35.69,0,0,0,0-5c0-1.71.3-3.41.26-5.12a38.5,38.5,0,0,1,.08-4.44,5.73,5.73,0,0,0-2.31.07C132.89,363.23,132.08,363.3,131.83,363.94Z"/><path class="cls-16" d="M181,362.89a20.4,20.4,0,0,1,.69,4.48,60.3,60.3,0,0,0,1.47,8.95.33.33,0,0,0,.11.21.36.36,0,0,0,.25,0,10.52,10.52,0,0,0,2.88-.85.5.5,0,0,0,.24-.19.58.58,0,0,0-.07-.49,9.23,9.23,0,0,1-.44-3.52,26,26,0,0,0-1.7-8.71,5.65,5.65,0,0,0-1-1.82,1.18,1.18,0,0,0-.46-.34,1.4,1.4,0,0,0-.54,0c-.43,0-2,0-2.22.38S180.83,362.48,181,362.89Z"/><path class="cls-17" d="M163.27,370.57a2.26,2.26,0,0,0,.36-2.75,2.51,2.51,0,0,0-2.58-1.12,2.23,2.23,0,0,0-1.71,1.48,2.72,2.72,0,0,0,.27,1.91,2.33,2.33,0,0,0,1.56,1.22A2.5,2.5,0,0,0,163.27,370.57Z"/><path class="cls-18" d="M132.14,374.48c5.45-1,9.17.39,14.7.16,1.46-.07,2.9-.22,4.35-.38l5.66-.6"/><path class="cls-18" d="M158,373.84A87.49,87.49,0,0,0,184,372.41"/><path class="cls-18" d="M168.1,374.31c-3,10.47-1.31,20.05-1.53,28.81,0,2.18-.26,4.49-1.6,6.2-1.84,2.38-5.2,2.87-8.2,2.82a11.73,11.73,0,0,1-.43,2.8,16.11,16.11,0,0,0,6.08-1.16,9.39,9.39,0,0,0,4.6-4c1.37-2.53,1.22-5.57,1-8.44l-.58-9.09a31.39,31.39,0,0,1-.07-4.65c.11-1.43.42-2.85.55-4.29a29.44,29.44,0,0,1,.52-5.23c.35-1.27,1-2.49,1-3.8"/><path class="cls-18" d="M185.58,372.27c3.63-.58,7.32-.65,10.95-1.18a21.43,21.43,0,0,0,10.2-3.82"/><path class="cls-14" d="M163.33,232.54c-.74,2.05-.71,3.91-2.1,5.69a12.6,12.6,0,0,0,5.88.91,22.62,22.62,0,0,0,7.58-1.25,10.7,10.7,0,0,0,5.79-4.86,4.77,4.77,0,0,0,.59-3.08,4.27,4.27,0,0,0-2-2.65,9.45,9.45,0,0,0-3.26-1.05c-2.57-.43-8-.69-9.59,1.08A13.22,13.22,0,0,0,163.33,232.54Z"/><path class="cls-8" d="M133.48,387.78a.69.69,0,0,1-.24.33c-1.6,1.38-4.25,1-5.75-.54a11.21,11.21,0,0,1-1.08-1.31c-.93-1.28-1.87-2.55-2.8-3.82a27.47,27.47,0,0,1-10.88,4.44c-.32.06-.65.11-1,.15a3.59,3.59,0,0,1-2.69-.39,3.81,3.81,0,0,1-1-1.37,94.38,94.38,0,0,1-5.82-13.19c-.49-1.49-.9-3-1.48-4.45a36,36,0,0,0-2.47-4.78c-.88-1.48-.48-2.22.45-3.62a10.2,10.2,0,0,1,1.49-1.78,10.63,10.63,0,0,1,5.33-2.79,1,1,0,0,1,.41,0c.28.06.46.33.62.57,1.11,1.79,2.22,3.59,3.34,5.38a24.11,24.11,0,0,0,2.57,3.61,12,12,0,0,0,3.33,2.54,47.42,47.42,0,0,1,4.5,2.12c3.11,2,4.42,5.85,6.67,8.8,1,1.35,2.29,2.53,3.31,3.9a18.27,18.27,0,0,1,1.37,2.19c.63,1.15,1.16,2.36,1.68,3.56h0A.71.71,0,0,1,133.48,387.78Z"/><path class="cls-19" d="M112.73,386.88c-.32.06-.65.11-1,.15a3.59,3.59,0,0,1-2.69-.39,3.81,3.81,0,0,1-1-1.37,94.38,94.38,0,0,1-5.82-13.19c-.49-1.49-.9-3-1.48-4.45a36,36,0,0,0-2.47-4.78c-.88-1.48-.48-2.22.45-3.62a10.2,10.2,0,0,1,1.49-1.78,1.39,1.39,0,0,0,0,.27c-.15,3.61,2.41,6.73,3.29,10.23.75,3,.29,6.33,1.74,9.07.43.82,1,1.55,1.52,2.35.72,1.14,1.23,2.41,2,3.52A24.43,24.43,0,0,0,112.73,386.88Z"/><path class="cls-3" d="M130.7,387.05a4.3,4.3,0,0,1-.6-.68,2.88,2.88,0,0,1-.45-.72,1,1,0,0,1,0-.83,1.51,1.51,0,0,1,.82-.59l1-.42a.46.46,0,0,1,.28-.06c.13,0,.21.14.29.25l1.11,1.68a3.6,3.6,0,0,1,.4.75C134.05,388,131.41,387.66,130.7,387.05Z"/><path class="cls-8" d="M184.35,385.44a.68.68,0,0,0,.24.32c1.6,1.39,4.25,1,5.75-.53a9.72,9.72,0,0,0,1.08-1.32l2.81-3.81a27.22,27.22,0,0,0,10.87,4.44l1,.16a3.63,3.63,0,0,0,2.7-.4,3.78,3.78,0,0,0,1-1.36,94.49,94.49,0,0,0,5.84-13.19c.48-1.48.89-3,1.47-4.45a34.24,34.24,0,0,1,2.48-4.77c.88-1.49.48-2.23-.45-3.63a11,11,0,0,0-1.49-1.78,10.63,10.63,0,0,0-5.33-2.79.94.94,0,0,0-.41,0c-.28.06-.46.33-.62.57-1.11,1.79-2.22,3.59-3.34,5.38a23.48,23.48,0,0,1-2.58,3.61A11.9,11.9,0,0,1,202,364.4c-1.48.76-3.12,1.22-4.51,2.12-3.11,2-4.42,5.85-6.68,8.79-1,1.35-2.28,2.53-3.3,3.9a17.88,17.88,0,0,0-1.38,2.19c-.62,1.15-1.15,2.36-1.68,3.56h0A.77.77,0,0,0,184.35,385.44Z"/><path class="cls-20" d="M143.82,226.49c.22-.14.71-.5.24-.06a136.66,136.66,0,0,1-29,7c-5,.6-11.39.83-15.92,3.12-5.36,2.71-8,10.21-9.72,15.54C84.94,266,82.1,280.78,79,295c-2.11,9.64-2.77,17.4-1.21,27.2,1.43,8.94,7.15,28.58,8.84,31.76,3.53,6.62,10.32,12.95,12.07,10.34,2-3.05,7.88-6.71,11.06-4.22,5.53-4.95,1.55-16.53,0-22.5a63.59,63.59,0,0,0-9.75-21c3.94.71,7.4-7,8.9-9.84,4.2-8,7.34-16.22,12-24,4.37-7.29,8.12-15.05,12.15-22.55,3.87-7.18,5.76-14.9,8.17-22.62.84-2.7,5.3-8.49,2.85-11.13"/><path class="cls-19" d="M205.1,384.54l1,.16a3.63,3.63,0,0,0,2.7-.4,3.78,3.78,0,0,0,1-1.36,94.49,94.49,0,0,0,5.84-13.19c.48-1.48.89-3,1.47-4.45a34.24,34.24,0,0,1,2.48-4.77c.88-1.49.48-2.23-.45-3.63a11,11,0,0,0-1.49-1.78,1.49,1.49,0,0,1,0,.28c.15,3.6-2.41,6.72-3.29,10.23-.76,3-.3,6.32-1.75,9.06-.43.82-1,1.55-1.52,2.34-.72,1.15-1.23,2.42-2,3.53A25.26,25.26,0,0,1,205.1,384.54Z"/><path class="cls-20" d="M186.3,226.49c-.22-.14-.71-.5-.24-.06a136.66,136.66,0,0,0,29,7c5,.6,11.39.83,15.92,3.12,5.36,2.71,8,10.21,9.72,15.54,4.5,13.9,7.34,28.66,10.46,42.89,2.11,9.64,2.77,17.4,1.21,27.2-1.43,8.94-16.75,25.9-18.44,29.07-3.53,6.62-12.89,12.34-14.63,9.73-2.05-3.05-7.88-6.71-11.07-4.22-5.53-5,.09-16.88,3.15-22.24,4.34-7.58,9.67-14.72,14.27-21.36-1.93-3.07-11.74-22.69-16.4-30.46-4.37-7.29-8.12-15.05-12.15-22.55-3.87-7.18-5.76-14.9-8.17-22.62-.84-2.7-5.3-8.49-2.85-11.13"/><path class="cls-20" d="M125.17,246.7c-6.74-.86-9.19,12.59-10.28,17-1.43,5.76-1,12.42-1.26,18.34-.27,5.61-.09,11.31-.3,16.94A162.57,162.57,0,0,1,111,320.54c-2.47,14.2-6.43,32.79,4.47,44.57,8,8.68,23.87,9.62,34.76,7.41a121.8,121.8,0,0,1,28.7-2.15c6.77.22,13.62.37,20-2.2,17-6.84,20.83-23.58,19-40-.94-8.15-3.46-16.11-4.71-24.22-1.34-8.75-.58-17.57.59-26.29,1.13-8.42,2.86-16.83,1.1-25.29-1.25-6-4.39-10.43-9.1-14.32-4-3.26-7.85-5-13-4.84-5.92.14-20.94,4.87-26.87,4.2-15.48-1.74-24.15-8.91-37.38,2.33"/><g class="cls-21"><polygon class="cls-22" points="72.46 209.58 79.39 218.3 73.38 227.68 66.45 218.96 72.46 209.58"/><polygon class="cls-22" points="85.39 208.92 92.32 217.64 86.32 227.02 79.39 218.3 85.39 208.92"/><polygon class="cls-22" points="98.33 208.26 105.26 216.98 99.25 226.35 92.32 217.64 98.33 208.26"/><polygon class="cls-22" points="111.26 207.6 118.19 216.32 112.19 225.69 105.26 216.98 111.26 207.6"/><polygon class="cls-22" points="124.2 206.94 131.13 215.65 125.12 225.03 118.19 216.32 124.2 206.94"/><polygon class="cls-22" points="137.13 206.28 144.06 214.99 138.06 224.37 131.13 215.65 137.13 206.28"/><polygon class="cls-22" points="150.06 205.62 156.99 214.33 150.99 223.71 144.06 214.99 150.06 205.62"/><polygon class="cls-22" points="73.38 227.68 80.31 236.39 74.31 245.77 67.38 237.06 73.38 227.68"/><polygon class="cls-22" points="86.32 227.02 93.25 235.73 87.24 245.11 80.31 236.39 86.32 227.02"/><polygon class="cls-22" points="99.25 226.35 106.18 235.07 100.18 244.45 93.25 235.73 99.25 226.35"/><polygon class="cls-22" points="112.19 225.69 119.12 234.41 113.11 243.79 106.18 235.07 112.19 225.69"/><polygon class="cls-22" points="125.12 225.03 132.05 233.75 126.05 243.13 119.12 234.41 125.12 225.03"/><polygon class="cls-22" points="138.06 224.37 144.99 233.09 138.98 242.46 132.05 233.75 138.06 224.37"/><polygon class="cls-22" points="150.99 223.71 157.92 232.43 151.91 241.8 144.99 233.09 150.99 223.71"/><polygon class="cls-22" points="74.31 245.77 81.24 254.49 75.23 263.87 68.31 255.15 74.31 245.77"/><polygon class="cls-22" points="87.24 245.11 94.17 253.83 88.17 263.2 81.24 254.49 87.24 245.11"/><polygon class="cls-22" points="100.18 244.45 107.11 253.16 101.1 262.54 94.17 253.83 100.18 244.45"/><polygon class="cls-22" points="113.11 243.79 120.04 252.5 114.04 261.88 107.11 253.16 113.11 243.79"/><polygon class="cls-22" points="126.05 243.13 132.98 251.84 126.97 261.22 120.04 252.5 126.05 243.13"/><polygon class="cls-22" points="138.98 242.46 145.91 251.18 139.91 260.56 132.98 251.84 138.98 242.46"/><polygon class="cls-22" points="151.91 241.8 158.84 250.52 152.84 259.9 145.91 251.18 151.91 241.8"/><polygon class="cls-22" points="75.23 263.87 82.16 272.58 76.16 281.96 69.23 273.24 75.23 263.87"/><polygon class="cls-22" points="88.17 263.2 95.1 271.92 89.09 281.3 82.16 272.58 88.17 263.2"/><polygon class="cls-22" points="101.1 262.54 108.03 271.26 102.03 280.64 95.1 271.92 101.1 262.54"/><polygon class="cls-22" points="114.04 261.88 120.97 270.6 114.96 279.98 108.03 271.26 114.04 261.88"/><polygon class="cls-22" points="126.97 261.22 133.9 269.94 127.9 279.31 120.97 270.6 126.97 261.22"/><polygon class="cls-22" points="139.91 260.56 146.84 269.27 140.83 278.65 133.9 269.94 139.91 260.56"/><polygon class="cls-22" points="152.84 259.9 159.77 268.61 153.76 277.99 146.84 269.27 152.84 259.9"/><polygon class="cls-22" points="76.16 281.96 83.09 290.68 77.08 300.05 70.16 291.34 76.16 281.96"/><polygon class="cls-22" points="89.09 281.3 96.02 290.01 90.02 299.39 83.09 290.68 89.09 281.3"/><polygon class="cls-22" points="102.03 280.64 108.96 289.35 102.95 298.73 96.02 290.01 102.03 280.64"/><polygon class="cls-22" points="114.96 279.98 121.89 288.69 115.89 298.07 108.96 289.35 114.96 279.98"/><polygon class="cls-22" points="127.9 279.31 134.83 288.03 128.82 297.41 121.89 288.69 127.9 279.31"/><polygon class="cls-22" points="140.83 278.65 147.76 287.37 141.76 296.75 134.83 288.03 140.83 278.65"/><polygon class="cls-22" points="153.76 277.99 160.69 286.71 154.69 296.08 147.76 287.37 153.76 277.99"/><polygon class="cls-22" points="162.88 205.02 169.81 213.74 163.8 223.12 156.87 214.4 162.88 205.02"/><polygon class="cls-22" points="175.81 204.36 182.74 213.08 176.73 222.46 169.81 213.74 175.81 204.36"/><polygon class="cls-22" points="188.74 203.7 195.67 212.42 189.67 221.79 182.74 213.08 188.74 203.7"/><polygon class="cls-22" points="201.68 203.04 208.61 211.75 202.6 221.13 195.67 212.42 201.68 203.04"/><polygon class="cls-22" points="214.61 202.38 221.54 211.09 215.54 220.47 208.61 211.75 214.61 202.38"/><polygon class="cls-22" points="227.55 201.72 234.48 210.43 228.47 219.81 221.54 211.09 227.55 201.72"/><polygon class="cls-22" points="240.48 201.06 247.41 209.77 241.41 219.15 234.48 210.43 240.48 201.06"/><polygon class="cls-22" points="163.8 223.12 170.73 231.83 164.72 241.21 157.8 232.49 163.8 223.12"/><polygon class="cls-22" points="176.73 222.46 183.66 231.17 177.66 240.55 170.73 231.83 176.73 222.46"/><polygon class="cls-22" points="189.67 221.79 196.6 230.51 190.59 239.89 183.66 231.17 189.67 221.79"/><polygon class="cls-22" points="202.6 221.13 209.53 229.85 203.53 239.23 196.6 230.51 202.6 221.13"/><polygon class="cls-22" points="215.54 220.47 222.47 229.19 216.46 238.56 209.53 229.85 215.54 220.47"/><polygon class="cls-22" points="228.47 219.81 235.4 228.53 229.4 237.9 222.47 229.19 228.47 219.81"/><polygon class="cls-22" points="241.41 219.15 248.34 227.87 242.33 237.24 235.4 228.53 241.41 219.15"/><polygon class="cls-22" points="164.72 241.21 171.66 249.93 165.65 259.3 158.72 250.59 164.72 241.21"/><polygon class="cls-22" points="177.66 240.55 184.59 249.26 178.59 258.64 171.66 249.93 177.66 240.55"/><polygon class="cls-22" points="190.59 239.89 197.52 248.6 191.52 257.98 184.59 249.26 190.59 239.89"/><polygon class="cls-22" points="203.53 239.23 210.46 247.94 204.45 257.32 197.52 248.6 203.53 239.23"/><polygon class="cls-22" points="216.46 238.56 223.39 247.28 217.39 256.66 210.46 247.94 216.46 238.56"/><polygon class="cls-22" points="229.4 237.9 236.33 246.62 230.32 256 223.39 247.28 229.4 237.9"/><polygon class="cls-22" points="242.33 237.24 249.26 245.96 243.26 255.34 236.33 246.62 242.33 237.24"/><polygon class="cls-22" points="165.65 259.3 172.58 268.02 166.58 277.4 159.65 268.68 165.65 259.3"/><polygon class="cls-22" points="178.59 258.64 185.51 267.36 179.51 276.74 172.58 268.02 178.59 258.64"/><polygon class="cls-22" points="191.52 257.98 198.45 266.7 192.44 276.07 185.51 267.36 191.52 257.98"/><polygon class="cls-22" points="204.45 257.32 211.38 266.04 205.38 275.41 198.45 266.7 204.45 257.32"/><polygon class="cls-22" points="217.39 256.66 224.32 265.38 218.31 274.75 211.38 266.04 217.39 256.66"/><polygon class="cls-22" points="230.32 256 237.25 264.71 231.25 274.09 224.32 265.38 230.32 256"/><polygon class="cls-22" points="243.26 255.34 250.19 264.05 244.18 273.43 237.25 264.71 243.26 255.34"/><polygon class="cls-22" points="166.58 277.4 173.5 286.11 167.5 295.49 160.57 286.77 166.58 277.4"/><polygon class="cls-22" points="179.51 276.74 186.44 285.45 180.44 294.83 173.5 286.11 179.51 276.74"/><polygon class="cls-22" points="192.44 276.07 199.37 284.79 193.37 294.17 186.44 285.45 192.44 276.07"/><polygon class="cls-22" points="205.38 275.41 212.31 284.13 206.3 293.51 199.37 284.79 205.38 275.41"/><polygon class="cls-22" points="218.31 274.75 225.24 283.47 219.24 292.85 212.31 284.13 218.31 274.75"/><polygon class="cls-22" points="231.25 274.09 238.18 282.81 232.17 292.19 225.24 283.47 231.25 274.09"/><polygon class="cls-22" points="244.18 273.43 251.11 282.15 245.11 291.52 238.18 282.81 244.18 273.43"/><polygon class="cls-22" points="77.05 299.6 83.98 308.32 77.97 317.7 71.04 308.98 77.05 299.6"/><polygon class="cls-22" points="89.98 298.94 96.91 307.66 90.91 317.04 83.98 308.32 89.98 298.94"/><polygon class="cls-22" points="102.92 298.28 109.85 307 103.84 316.38 96.91 307.66 102.92 298.28"/><polygon class="cls-22" points="115.85 297.62 122.78 306.34 116.78 315.71 109.85 307 115.85 297.62"/><polygon class="cls-22" points="128.79 296.96 135.72 305.68 129.71 315.05 122.78 306.34 128.79 296.96"/><polygon class="cls-22" points="141.72 296.3 148.65 305.01 142.65 314.39 135.72 305.68 141.72 296.3"/><polygon class="cls-22" points="154.65 295.64 161.58 304.35 155.58 313.73 148.65 305.01 154.65 295.64"/><polygon class="cls-22" points="77.97 317.7 84.9 326.41 78.9 335.79 71.97 327.07 77.97 317.7"/><polygon class="cls-22" points="90.91 317.04 97.84 325.75 91.83 335.13 84.9 326.41 90.91 317.04"/><polygon class="cls-22" points="103.84 316.38 110.77 325.09 104.77 334.47 97.84 325.75 103.84 316.38"/><polygon class="cls-22" points="116.78 315.71 123.71 324.43 117.7 333.81 110.77 325.09 116.78 315.71"/><polygon class="cls-22" points="129.71 315.05 136.64 323.77 130.64 333.15 123.71 324.43 129.71 315.05"/><polygon class="cls-22" points="142.65 314.39 149.57 323.11 143.57 332.49 136.64 323.77 142.65 314.39"/><polygon class="cls-22" points="155.58 313.73 162.51 322.45 156.5 331.82 149.57 323.11 155.58 313.73"/><polygon class="cls-22" points="78.9 335.79 85.83 344.51 79.82 353.88 72.89 345.17 78.9 335.79"/><polygon class="cls-22" points="91.83 335.13 98.76 343.85 92.76 353.22 85.83 344.51 91.83 335.13"/><polygon class="cls-22" points="104.77 334.47 111.7 343.19 105.69 352.56 98.76 343.85 104.77 334.47"/><polygon class="cls-22" points="117.7 333.81 124.63 342.52 118.63 351.9 111.7 343.19 117.7 333.81"/><polygon class="cls-22" points="130.64 333.15 137.57 341.86 131.56 351.24 124.63 342.52 130.64 333.15"/><polygon class="cls-22" points="143.57 332.49 150.5 341.2 144.5 350.58 137.57 341.86 143.57 332.49"/><polygon class="cls-22" points="156.5 331.82 163.43 340.54 157.43 349.92 150.5 341.2 156.5 331.82"/><polygon class="cls-22" points="79.82 353.88 86.75 362.6 80.75 371.98 73.82 363.26 79.82 353.88"/><polygon class="cls-22" points="92.76 353.22 99.69 361.94 93.68 371.32 86.75 362.6 92.76 353.22"/><polygon class="cls-22" points="105.69 352.56 112.62 361.28 106.62 370.66 99.69 361.94 105.69 352.56"/><polygon class="cls-22" points="118.63 351.9 125.56 360.62 119.55 370 112.62 361.28 118.63 351.9"/><polygon class="cls-22" points="131.56 351.24 138.49 359.96 132.49 369.33 125.56 360.62 131.56 351.24"/><polygon class="cls-22" points="144.5 350.58 151.43 359.3 145.42 368.67 138.49 359.96 144.5 350.58"/><polygon class="cls-22" points="157.43 349.92 164.36 358.63 158.35 368.01 151.43 359.3 157.43 349.92"/><polygon class="cls-22" points="80.75 371.98 87.68 380.69 81.67 390.07 74.75 381.36 80.75 371.98"/><polygon class="cls-22" points="93.68 371.32 100.61 380.03 94.61 389.41 87.68 380.69 93.68 371.32"/><polygon class="cls-22" points="106.62 370.66 113.55 379.37 107.54 388.75 100.61 380.03 106.62 370.66"/><polygon class="cls-22" points="119.55 370 126.48 378.71 120.48 388.09 113.55 379.37 119.55 370"/><polygon class="cls-22" points="132.49 369.33 139.42 378.05 133.41 387.43 126.48 378.71 132.49 369.33"/><polygon class="cls-22" points="145.42 368.67 152.35 377.39 146.35 386.77 139.42 378.05 145.42 368.67"/><polygon class="cls-22" points="158.35 368.01 165.28 376.73 159.28 386.11 152.35 377.39 158.35 368.01"/><polygon class="cls-22" points="167.47 295.04 174.39 303.76 168.39 313.14 161.46 304.42 167.47 295.04"/><polygon class="cls-22" points="180.4 294.38 187.33 303.1 181.32 312.48 174.39 303.76 180.4 294.38"/><polygon class="cls-22" points="193.33 293.72 200.26 302.44 194.26 311.81 187.33 303.1 193.33 293.72"/><polygon class="cls-22" points="206.27 293.06 213.2 301.77 207.19 311.15 200.26 302.44 206.27 293.06"/><polygon class="cls-22" points="219.2 292.4 226.13 301.11 220.13 310.49 213.2 301.77 219.2 292.4"/><polygon class="cls-22" points="232.14 291.74 239.07 300.45 233.06 309.83 226.13 301.11 232.14 291.74"/><polygon class="cls-22" points="245.07 291.07 252 299.79 246 309.17 239.07 300.45 245.07 291.07"/><polygon class="cls-22" points="168.39 313.14 175.32 321.85 169.31 331.23 162.38 322.51 168.39 313.14"/><polygon class="cls-22" points="181.32 312.48 188.25 321.19 182.25 330.57 175.32 321.85 181.32 312.48"/><polygon class="cls-22" points="194.26 311.81 201.19 320.53 195.18 329.91 188.25 321.19 194.26 311.81"/><polygon class="cls-22" points="207.19 311.15 214.12 319.87 208.12 329.25 201.19 320.53 207.19 311.15"/><polygon class="cls-22" points="220.13 310.49 227.06 319.21 221.05 328.58 214.12 319.87 220.13 310.49"/><polygon class="cls-22" points="233.06 309.83 239.99 318.55 233.99 327.92 227.06 319.21 233.06 309.83"/><polygon class="cls-22" points="246 309.17 252.93 317.88 246.92 327.26 239.99 318.55 246 309.17"/><polygon class="cls-22" points="169.31 331.23 176.25 339.95 170.24 349.32 163.31 340.61 169.31 331.23"/><polygon class="cls-22" points="182.25 330.57 189.18 339.29 183.17 348.66 176.25 339.95 182.25 330.57"/><polygon class="cls-22" points="195.18 329.91 202.11 338.62 196.11 348 189.18 339.29 195.18 329.91"/><polygon class="cls-22" points="208.12 329.25 215.05 337.96 209.04 347.34 202.11 338.62 208.12 329.25"/><polygon class="cls-22" points="221.05 328.58 227.98 337.3 221.98 346.68 215.05 337.96 221.05 328.58"/><polygon class="cls-22" points="233.99 327.92 240.92 336.64 234.91 346.02 227.98 337.3 233.99 327.92"/><polygon class="cls-22" points="246.92 327.26 253.85 335.98 247.85 345.36 240.92 336.64 246.92 327.26"/><polygon class="cls-22" points="170.24 349.32 177.17 358.04 171.16 367.42 164.24 358.7 170.24 349.32"/><polygon class="cls-22" points="183.17 348.66 190.1 357.38 184.1 366.76 177.17 358.04 183.17 348.66"/><polygon class="cls-22" points="196.11 348 203.04 356.72 197.03 366.1 190.1 357.38 196.11 348"/><polygon class="cls-22" points="209.04 347.34 215.97 356.06 209.97 365.43 203.04 356.72 209.04 347.34"/><polygon class="cls-22" points="221.98 346.68 228.91 355.39 222.9 364.77 215.97 356.06 221.98 346.68"/><polygon class="cls-22" points="234.91 346.02 241.84 354.73 235.84 364.11 228.91 355.39 234.91 346.02"/><polygon class="cls-22" points="247.85 345.36 254.78 354.07 248.77 363.45 241.84 354.73 247.85 345.36"/><polygon class="cls-22" points="171.16 367.42 178.09 376.13 172.09 385.51 165.16 376.8 171.16 367.42"/><polygon class="cls-22" points="184.1 366.76 191.03 375.47 185.03 384.85 178.09 376.13 184.1 366.76"/><polygon class="cls-22" points="197.03 366.1 203.96 374.81 197.96 384.19 191.03 375.47 197.03 366.1"/><polygon class="cls-22" points="209.97 365.43 216.9 374.15 210.89 383.53 203.96 374.81 209.97 365.43"/><polygon class="cls-22" points="222.9 364.77 229.83 373.49 223.83 382.87 216.9 374.15 222.9 364.77"/><polygon class="cls-22" points="235.84 364.11 242.77 372.83 236.76 382.2 229.83 373.49 235.84 364.11"/><polygon class="cls-22" points="248.77 363.45 255.7 372.17 249.7 381.54 242.77 372.83 248.77 363.45"/></g><path class="cls-3" d="M187.13,384.71a4.49,4.49,0,0,0,.61-.69,2.78,2.78,0,0,0,.44-.72,1,1,0,0,0,0-.82,1.46,1.46,0,0,0-.82-.59l-1-.43a.51.51,0,0,0-.27-.06.53.53,0,0,0-.29.26l-1.11,1.67a2.77,2.77,0,0,0-.4.76C183.78,385.68,186.42,385.31,187.13,384.71Z"/><path class="cls-23" d="M156,233.81s6.63,2.16,11,2S177.41,233,177.41,233l.85,2.8s-3.29,3.46-11.66,3.58a30.49,30.49,0,0,1-8.12-1L155,237.24Z"/><path class="cls-16" d="M157.59,225.8a14.08,14.08,0,0,1-4.87-3.2,8.86,8.86,0,0,1-2.5-5.19.6.6,0,0,0-.08-.29c-.13-.2-.48-.15-.63,0a1.4,1.4,0,0,0-.24.69,5.38,5.38,0,0,1-1.07,2.34c-1.9,2.36-5.61,2.8-7.24,5.36a3,3,0,0,0-.46,1.15,4.48,4.48,0,0,0,.54,2.48,32.2,32.2,0,0,0,5.66,9,17.75,17.75,0,0,0,9.05,5.41c-.42-.09.28-5,.36-5.46a25.22,25.22,0,0,1,4.18-10c.49-.69,1-1.07.29-1.5S158.45,226.17,157.59,225.8Z"/><path class="cls-16" d="M169.44,225.83c-1.19.3-2.57.48-3.26,1.5a5.32,5.32,0,0,1,8.11,2.54c.55,1.52.37,3.2.68,4.79a8.13,8.13,0,0,0,6.23,6.26c-.1-.59.37-1.12.8-1.56a30.94,30.94,0,0,0,6.63-10.13c-3.1-2.13-2.64-7.16-5.43-9.68-1.93-1.75-5.67-1.88-6.78.68A10.47,10.47,0,0,1,169.44,225.83Z"/><circle class="cls-15" cx="160.95" cy="231.3" r="1.26"/><circle class="cls-16" cx="160.95" cy="231.3" r="1.13"/><circle class="cls-15" cx="160.69" cy="231.08" r="0.13"/><circle class="cls-15" cx="161.21" cy="231.08" r="0.13"/><circle class="cls-15" cx="160.69" cy="231.52" r="0.13"/><circle class="cls-15" cx="161.21" cy="231.52" r="0.13"/><path class="cls-15" d="M165.66,232.21a2,2,0,0,1-.81-.13h0a.42.42,0,0,1-.27-.48.6.6,0,0,1,.48-.45,1,1,0,0,1,.65.12,4.72,4.72,0,0,1,.95.77l.16.17h-1.16Zm-.73-.31a2.09,2.09,0,0,0,.87.12h.56a4.09,4.09,0,0,0-.73-.57.78.78,0,0,0-.53-.1.41.41,0,0,0-.33.29c0,.08,0,.19.16.27Z"/><path class="cls-15" d="M165.27,235.45a1.52,1.52,0,0,1-.42-.06h0a.41.41,0,0,1-.33-.44.62.62,0,0,1,.42-.51,1,1,0,0,1,.66,0,5.07,5.07,0,0,1,1.05.65l.17.14-1,.13A4.51,4.51,0,0,1,165.27,235.45Zm-.36-.24a2.17,2.17,0,0,0,.88,0l.55-.07a3.61,3.61,0,0,0-.8-.48.84.84,0,0,0-.53,0,.45.45,0,0,0-.3.34.24.24,0,0,0,.2.25Z"/><path class="cls-24" d="M133.32,173.87a31.6,31.6,0,0,0-3.94,6.64,29.48,29.48,0,0,0-1.87,8c-.85,7.77.2,15.62,0,23.43a15.39,15.39,0,0,1-.89,5.49,13.31,13.31,0,0,1-3.19,4.34c-3.43,3.32-7.64,5.71-11.41,8.65-1.48,1.15-3,3.06-2.09,4.68a3.36,3.36,0,0,0,1.58,1.27,22,22,0,0,0,7,1.66q10.53,1.26,21.15,1.74a6.16,6.16,0,0,0,3.16-.42c1.43-.74,2.06-2.44,2.38-4,1.82-9-2.51-18-4.42-27-1.31-6.14-1.49-12.51-3.23-18.54a20.61,20.61,0,0,1-.91-3.84,14,14,0,0,1,.4-4.07,62.81,62.81,0,0,1,4.65-13.82c.29-.6,1.3-2.63.24-3-.84-.32-2.23,1.48-2.7,2A64.22,64.22,0,0,0,133.32,173.87Z"/><path class="cls-25" d="M140.13,167c-4.8,3.2-10.64,11.31-11.8,17s-.84,11.48-.52,17.24a55,55,0,0,1,0,9.94,18.55,18.55,0,0,1-3.52,9.18c-3.62,4.6-9.83,6.52-13.55,11-.9,1.1-1.61,2.8-.63,3.83a7.68,7.68,0,0,0,4.44,1.85l14.82,2.22a78.75,78.75,0,0,0,8.92,1c1.66,0,3.47-.05,4.76-1.12,1.46-1.22,2.07-3.8,2.18-5.7.37-6.24-.36-8.76-2.38-14.67-.71-2.1-2.41-9.3-2.3-11.52.46-9.46-4.64-16.92-3.64-24.63C137.44,178.25,139.28,171.38,140.13,167Z"/><path class="cls-24" d="M191.44,172.87a31.67,31.67,0,0,1,3.94,6.65,29,29,0,0,1,1.87,8c.85,7.77-.2,15.62,0,23.43a15.37,15.37,0,0,0,.89,5.48,13.1,13.1,0,0,0,3.19,4.34c3.43,3.32,7.64,5.72,11.41,8.65,1.48,1.15,3,3.07,2.09,4.69a3.49,3.49,0,0,1-1.58,1.27,21.73,21.73,0,0,1-7,1.65q-10.53,1.27-21.15,1.74a6.26,6.26,0,0,1-3.16-.41c-1.43-.74-2.06-2.44-2.38-4-1.82-9,2.52-18,4.42-27,1.31-6.15,1.49-12.51,3.23-18.54a20.61,20.61,0,0,0,.91-3.84,14,14,0,0,0-.4-4.08,63.17,63.17,0,0,0-4.65-13.82c-.29-.59-1.3-2.62-.24-3,.84-.32,2.23,1.48,2.7,2A64.11,64.11,0,0,1,191.44,172.87Z"/><path class="cls-25" d="M184.63,166c4.8,3.2,10.64,11.31,11.81,17s.83,11.48.51,17.24a55,55,0,0,0,0,9.94,18.58,18.58,0,0,0,3.52,9.18c3.62,4.59,9.83,6.52,13.55,11,.9,1.09,1.61,2.8.63,3.82a7.61,7.61,0,0,1-4.44,1.85l-14.82,2.23a76.26,76.26,0,0,1-8.92,1c-1.66.06-3.47-.05-4.75-1.11-1.47-1.22-2.08-3.8-2.19-5.71-.37-6.23.36-8.75,2.38-14.66.71-2.11,2.41-9.31,2.3-11.52-.46-9.46,4.64-16.92,3.64-24.63C187.32,177.25,185.48,170.38,184.63,166Z"/><path class="cls-24" d="M136.83,170a9,9,0,0,0-.74,4,1,1,0,0,0,.27.66c.44.37,1.07-.11,1.44-.55a40.44,40.44,0,0,1,10.77-8.82,18.86,18.86,0,0,1,5.84-2.54,22.84,22.84,0,0,1,4.6-.35l6.8-.08c3.2,0,6.63,0,9.25,1.82,1.43,1,2.48,2.43,3.81,3.55s3.07,2,4.57,3a7.47,7.47,0,0,1,3.35,4.15c.48-1.88,1-3.88.36-5.73-.3-.89-.83-1.68-1.15-2.57-.84-2.37-.08-5.31-1.66-7.27-.94-1.16-2.46-1.64-3.73-2.44-2-1.27-3.36-3.36-5.39-4.58a14.34,14.34,0,0,0-5.89-1.58,44.78,44.78,0,0,0-10.79-.06,21.45,21.45,0,0,0-10,3.85c-1.57,1.18-2.92,2.6-4.4,3.88-1.11,1-2.17,1.11-3.21,2.14s-1.71,3.09-2.19,4.36Z"/><path class="cls-3" d="M137.44,175.07a.85.85,0,0,1-.77.12l-.58-.2a.86.86,0,0,1,.16-1.29l2.25-1.55,11.11-8.37a12.06,12.06,0,0,1,7.25-2.42h11.22a13.16,13.16,0,0,1,7.83,2.57l11.41,9.72a.47.47,0,0,1,.07.64l-.25.2-.31.57a.48.48,0,0,1-.69.08l-11.67-9.91a10.15,10.15,0,0,0-6-2H157.25a11.39,11.39,0,0,0-6.81,2.28Z"/><path class="cls-24" d="M140.71,156a8.34,8.34,0,0,1,2.31-2.54,84.88,84.88,0,0,1,10.06-7.58,18.29,18.29,0,0,1,3.47-1.7,15.4,15.4,0,0,1,8.25-.24,46.25,46.25,0,0,1,7.88,2.74l2.13.89a23.4,23.4,0,0,1,7.26,4.09c2,1.91,3.38,4.82,2.67,7.52a8.59,8.59,0,0,1-2.93-1.77,46.92,46.92,0,0,0-7.91-5,9.91,9.91,0,0,0-3.23-1.15c-1-.13-2.08,0-3.11-.13-1.31-.18-2.54-.83-3.86-.9-1.56-.09-3.06.62-4.61.79s-2.81-.16-4.21,0c-2.17.24-4,1.57-5.81,2.85l-4.5,3.26c-1,.7-3.16,2.93-4.3,2.9A6.56,6.56,0,0,1,140.71,156Z"/><path class="cls-3" d="M139.89,161.42l.06-.48a3.11,3.11,0,0,1,1.2-2l8.47-6.39a13.25,13.25,0,0,1,7.95-2.66H168.4a13.21,13.21,0,0,1,7.83,2.57l8.68,6.39a1.23,1.23,0,0,1,.51,1.06l-.12.62.08.92a.34.34,0,0,1-.54.29L175.1,154a11.29,11.29,0,0,0-6.7-2.2H157.57a11.36,11.36,0,0,0-6.8,2.28l-10.38,7.68A.31.31,0,0,1,139.89,161.42Z"/></g></svg>