<svg id="Layer_1" data-name="Layer 1" xmlns="http://www.w3.org/2000/svg" xmlns:xlink="http://www.w3.org/1999/xlink" viewBox="0 0 331 438"><defs><style>.cls-1,.cls-24{fill:none;}.cls-2{clip-path:url(#clip-path);}.cls-3{fill:#7541ee;}.cls-4{fill:#fff;}.cls-5{fill:#4f1b0c;}.cls-6{fill:#dbd3b4;}.cls-7{opacity:0.35;}.cls-8{fill:#bfab9b;}.cls-9{fill:#f9efde;}.cls-10{fill:#a87171;}.cls-11{fill:#f5f6f7;}.cls-12{fill:#28323a;}.cls-13{fill:#1a293f;}.cls-14{fill:#692916;}.cls-15{fill:#6b84b5;}.cls-16{fill:#365185;}.cls-17{fill:#cfd5e0;}.cls-18{fill:#ebdeca;}.cls-19{fill:#82724e;}.cls-20{clip-path:url(#clip-path-2);}.cls-21{fill:#b3a178;}.cls-22{fill:#2c3559;}.cls-23{fill:#82321f;}.cls-24{stroke:#fff;stroke-miterlimit:10;stroke-width:2.23px;}</style><clipPath id="clip-path"><rect class="cls-1" width="331" height="438"/></clipPath><clipPath id="clip-path-2"><path class="cls-1" d="M316.82,327.93c-5.49-25-10.48-51-18.39-75.4-3-9.36-7.66-22.55-17.08-27.32-8-4-19.29-4.42-28-5.49a239.52,239.52,0,0,1-51-12.36c-2.84,3.06-.4,8.54,2,13.27-12.35,2.36-29.5,7-37.42,6.07-16.21-1.83-28.17-7-40.1-6.78,2.29-4.56,4.36-9.65,1.66-12.56a239.52,239.52,0,0,1-51,12.36c-8.69,1.07-20,1.47-28,5.49-9.42,4.77-14,18-17.08,27.32-7.91,24.43-12.9,50.38-18.39,75.4-3.72,16.94-4.88,30.59-2.13,47.81C14.56,391.46,24.62,426,27.6,431.57c6.2,11.64,18.14,22.77,21.21,18.18,3.6-5.36,13.85-11.79,19.45-7.41a13.17,13.17,0,0,0,2.37-2.86,43.67,43.67,0,0,0,7.71,11.68c14.12,15.25,42,16.92,61.1,13,16.83-3.43,33.37-4.34,50.46-3.78,11.9.39,23.94.66,35.2-3.87,11.54-4.63,19.61-11.86,25-20.64A23.3,23.3,0,0,1,260.81,444c3.07,4.58,19.51-5.47,25.72-17.11,3-5.58,29.91-35.39,32.42-51.11C321.7,358.52,320.54,344.87,316.82,327.93ZM70.48,372.81c-1.31,7.56-2.87,15.82-3.86,24.25a112.64,112.64,0,0,0-15.51-31.25c6.93,1.25,13-12.29,15.66-17.3,2.8-5.33,5.34-10.74,7.86-16.14,0,.85,0,1.7-.07,2.54A285.31,285.31,0,0,1,70.48,372.81Zm187.14,7.63c-2-12.32-5.55-24.45-7.45-36.78a126.1,126.1,0,0,1-1-26.61c8.68,16,20.08,38.56,22.78,42.84C267.42,366.47,262.45,373.32,257.62,380.44Z"/></clipPath></defs><g class="cls-2"><rect class="cls-3" width="331" height="438"/><path class="cls-4" d="M316.82,327.93c-5.49-25-10.48-51-18.39-75.4-3-9.36-7.66-22.55-17.08-27.32-7.94-4-19.23-4.42-27.9-5.48a4.51,4.51,0,0,0,.09-.53,9.14,9.14,0,0,0,2.07-3.74c.76-3.4-.43-6.93-1.93-10.07a49,49,0,0,0-4.78-7.92,10.2,10.2,0,0,1-1.75-2.89,8.79,8.79,0,0,1-.25-3.11c.18-4.27.72-8.56.13-12.79a36.14,36.14,0,0,0-2.95-9.54c-5.22-11.84-13.48-22-21.63-32.1l-.73-.89a47.69,47.69,0,0,0-2.92-11.24,55.38,55.38,0,0,0-6.92-11.69,112.8,112.8,0,0,0-9.61-11.33c-.89-2.66-.71-5.68-1.17-8.42a.57.57,0,0,0,.12-.39l-.14-1.61.21-1.1a2.18,2.18,0,0,0-.89-1.85l-.17-.12c.8-4.52-1.45-9.25-4.83-12.41-3.59-3.36-8.22-5.31-12.75-7.2l-3.75-1.56A80.64,80.64,0,0,0,165,62.42a27.13,27.13,0,0,0-14.5.41,31,31,0,0,0-6.09,3c-6.32,3.83-12,8.58-17.7,13.32a14.79,14.79,0,0,0-4.06,4.47,11.43,11.43,0,0,0-.78,6.95,5.65,5.65,0,0,0-.55,1.67l-.12.84a.56.56,0,0,0,.3.57,45.58,45.58,0,0,0-2.27,5.41l-2.92,7.81c-2.33,2.61-4.58,5.28-6.65,8.1a55.57,55.57,0,0,0-6.92,11.68,47.84,47.84,0,0,0-2.93,11.24l-.72.89C91,148.83,82.72,159,77.5,170.89a36,36,0,0,0-3,9.54c-.59,4.23,0,8.52.13,12.78a8.83,8.83,0,0,1-.25,3.12,10.49,10.49,0,0,1-1.75,2.89,48.6,48.6,0,0,0-4.78,7.92c-1.51,3.14-2.69,6.67-1.93,10.07a9,9,0,0,0,1.92,3.57c-6.4.73-13,1.8-18.24,4.43-9.42,4.77-14,18-17.08,27.32-7.91,24.43-12.9,50.38-18.39,75.4-3.72,16.94-4.88,30.59-2.13,47.81C14.56,391.46,24.62,426,27.6,431.57c6.2,11.64,18.14,22.77,21.21,18.18.14-.2.31-.41.46-.62a51.91,51.91,0,0,1,3.25,6.45c1,2.56,1.74,5.22,2.59,7.83,2.62,8,6.44,15.64,10.25,23.2a9.61,9.61,0,0,0,.93,1.53,13.33,13.33,0,0,1-.78,3.12c-.05.5.42.76.95.88l-2.64,15.67c-.69,4.12,1.48,8,1.26,12.15-.09,1.74-.13,3.6-1.1,5-.55.83-1.37,1.45-2,2.25-1.82,2.47-1.16,5.87-1.36,8.93-.42,6.33-4.65,12.83-4.48,19.17,0,1.61.38,3.22.27,4.82A22.35,22.35,0,0,1,55,565.7c-1.39,4.13-3.07,12.4-4.75,21.85h99.25c1.35-8.41,2.73-17,4.28-26.42.74,1.49,1.51,12.88,2.45,26.42h92c-1.13-18.78-2.45-35.3-2-37.43a50.52,50.52,0,0,0,.55-12.11q-.66-18.64-1.31-37.3c-.14-3.81-.28-7.62-.5-11.43a1.45,1.45,0,0,0,1.1-.73c.16-.39-.22-1.2,0-1.56s.57-.43.76-.73a1.07,1.07,0,0,0-.42-1.35,3.13,3.13,0,0,0-1.49-.37l-.3,0c-.07-.85-.18-1.7-.26-2.55,3.72-7.38,7.43-14.8,10-22.65.85-2.61,1.58-5.27,2.6-7.83a58.71,58.71,0,0,1,3.88-7.57l0,0c3.07,4.58,19.51-5.47,25.72-17.11,3-5.58,29.91-35.39,32.42-51.11C321.7,358.52,320.54,344.87,316.82,327.93ZM68.26,442.34a13.08,13.08,0,0,0,2.37-2.94A44,44,0,0,0,75,447.07l-.7,3.53c-.38-.36-.79-.66-1.14-1a42.54,42.54,0,0,1-4.53-6.35l-.64-1C68.07,442.23,68.17,442.27,68.26,442.34Zm-1.49-93.83c2.8-5.32,5.33-10.71,7.85-16.11,0,.84,0,1.68-.06,2.51a285.31,285.31,0,0,1-4.08,37.9c-1.31,7.57-2.86,15.84-3.86,24.28a112.67,112.67,0,0,0-15.51-31.28C58,367.06,64.13,353.52,66.77,348.51Zm190.86,32c-2-12.34-5.56-24.48-7.46-36.83a125.7,125.7,0,0,1-1-26.57c8.69,16,20.07,38.52,22.77,42.8C267.41,366.48,262.46,373.37,257.63,380.49Z"/><path class="cls-4" d="M171.86,570.71h58.39c-1.15-17.66-1.25-20.64-.56-24a38.66,38.66,0,0,0,.21-8.11l-1.31-37.29c-.13-3.67-.26-7.35-.48-11l-.31-4.35q0-.58-.12-1.17l-.61-6,.31-.62-.12-2,1.28-.3.74-1.48c3.35-6.63,6.81-13.49,9-20.27.23-.71.45-1.42.67-2.13.63-2,1.34-4.32,2.3-6.72a72.3,72.3,0,0,1,5-9.84L259,413.54l8.13,10.84a21.7,21.7,0,0,0,4.5-5.46c1.44-2.69,3.62-5.52,8.4-11.64,5.22-6.69,21.11-27,22.25-34.2,2.2-13.78,1.67-25-1.95-41.54h0q-1.46-6.68-2.9-13.43c-4.33-20.21-8.81-41.1-15.06-60.4-4.41-13.62-7.32-16.79-8.66-17.47-3.65-1.85-11-2.59-16.84-3.2-1.91-.19-3.76-.38-5.51-.6l-18.91-2.32,4.38-17.51.43-4.47.59-.66a30.76,30.76,0,0,0-2.51-4,26,26,0,0,1-4.25-7.78,24.69,24.69,0,0,1-1.06-9c.05-1.16.12-2.29.19-3.43a36.05,36.05,0,0,0,.09-6.33,20.71,20.71,0,0,0-1.68-5.09c-4.34-9.85-11.95-19.22-19.3-28.27l-3.64-4.51-.66-4.54a31.6,31.6,0,0,0-1.84-7.29,39.17,39.17,0,0,0-4.9-8.09,95.77,95.77,0,0,0-8.19-9.65l-2.63-2.74-1.21-3.6A37.17,37.17,0,0,1,184.65,98s0-.1,0-.15L182,95.87l1.28-8.08a41.8,41.8,0,0,0-7.11-3.46l-3.73-1.55a68.56,68.56,0,0,0-11-3.91c-3.21-.7-4.89-.32-5.46-.12a19.9,19.9,0,0,0-2.85,1.48,89.94,89.94,0,0,0-8.87,6.3l.18.1-8.11,15c-.28.53-.79,1.9-1.1,2.72L131,115.72l-2.09,2.35c-2.33,2.62-4.14,4.81-5.68,6.9a39.5,39.5,0,0,0-4.89,8.09,31.6,31.6,0,0,0-1.84,7.29l-.67,4.56-3.62,4.47c-7.37,9.07-15,18.43-19.32,28.3a21.24,21.24,0,0,0-1.68,5.07,38.13,38.13,0,0,0,.09,6.33c.07,1.14.14,2.27.19,3.41a24.92,24.92,0,0,1-1,9,25.32,25.32,0,0,1-4.13,7.61,33,33,0,0,0-2.69,4.22L101,233.93,69.8,237.51c-2.52.28-9.23,1.05-12.56,2.73-1.33.68-4.24,3.85-8.65,17.47C42.35,277,37.87,297.86,33.54,318.05q-1.45,6.78-2.92,13.49c-1,4.73-1.82,9-2.35,13.07l19.61,3.52c1.2-2,2.42-4.4,3-5.59l1-1.87c2.57-4.88,4.91-9.85,7.49-15.38L93.7,251.63l-2.27,82.08c0,.63,0,1.25-.05,1.87a301.06,301.06,0,0,1-4.31,40.12l-.63,3.59c-1.14,6.45-2.31,13.12-3.1,19.78L80.75,421,86,432.46a28.24,28.24,0,0,0,2.69,4.77L93,443.17l-7.44,37.27-4.92,29.22c.07.38.17.77.25,1.15a36.82,36.82,0,0,1,1.06,10c-.14,2.85-.41,8.3-3.92,13.55l-.45.64c0,.77,0,1.54-.07,2.29a50.35,50.35,0,0,1-3.09,13.22A34.19,34.19,0,0,0,73,555.11h0a4.93,4.93,0,0,1,.07.5,33.3,33.3,0,0,1,.17,5.71,32.5,32.5,0,0,1-2,8.92l-.17.47h64.07c.65-4,1.31-8.07,2-12.31L145.58,507l23.23,46.64C170.37,556.77,171,559.43,171.86,570.71Zm90.93-17.77-.12.6Q262.73,553.3,262.79,552.94Zm38.59-118.16,0,.08Zm-266.66-36,18.86,13-3-9.68a96.17,96.17,0,0,0-13.28-26.71l-9.82-14.16a100.07,100.07,0,0,0,1.23,11.83C29.71,379.5,32.14,389.41,34.72,398.82Zm47.78-183Zm54-122.9Zm47.12-7.49a2.4,2.4,0,0,0,0,.24ZM247.75,425,241,383.17c-.89-5.5-2.14-11-3.46-16.9-1.46-6.46-3-13.13-4-20a141.52,141.52,0,0,1-1.12-30.13l3.45-58.8L264,309c4.1,7.55,8.74,16.43,12.84,24.28,3.69,7.06,8.28,15.85,9.38,17.61l5.9,9.41-6.32,9.15c-1.74,2.51-3.54,5.07-5.36,7.66-2.93,4.17-5.93,8.44-8.89,12.79Z"/><path class="cls-4" d="M37.8,597.94,40,585.73c2.08-11.72,3.71-19.14,5.13-23.35l.51-1.45.48-1.36L46,558.13c-.11-1-.16-1.82-.18-2.51-.14-5.24,1.43-9.84,2.81-13.9a28.09,28.09,0,0,0,1.68-6.06l0-.21c0-.45,0-.9,0-1.36v-.24c0-3.1,0-7.77,3-12.22l1.4-2-.39-2.73-.05-.25a26.74,26.74,0,0,1-.66-10.52l1.94-11.5-.21-1.13a11.09,11.09,0,0,1-.19-2.38l0-1.61L54.43,488a155.26,155.26,0,0,1-9.2-21.39c-.28-.83-.54-1.67-.79-2.51l-.94-3-2.79-1.17c-12.44-5.19-22.19-23.26-22.28-23.44-4-7.56-14.15-43.46-16.64-59.09C-.94,360.32-.29,345.35,4,325.7c1-4.43,1.93-8.89,2.89-13.36,4.47-20.85,9.1-42.41,15.77-63,3-9.24,8.57-26.45,22.28-33.38a41.49,41.49,0,0,1,6.87-2.7l3.44-1,.93-3.47a34.52,34.52,0,0,1,2.32-6.08,60.34,60.34,0,0,1,4.5-7.79l1.13-1.64v-2.46l0-.21A56.27,56.27,0,0,1,64.25,179,47,47,0,0,1,68,166.7c5.31-12,13.32-22.41,21.08-32l1-1.2.32-1.52a53.1,53.1,0,0,1,2.82-9.28,66.73,66.73,0,0,1,8.16-13.91c1.55-2.1,3.26-4.22,5.21-6.5l.75-.87,2.44-6.52c.25-.68.55-1.48.9-2.36l.29-.72.14-1c0-.25.08-.48.12-.71l.13-.66v-.68A21.41,21.41,0,0,1,113.38,79a24.19,24.19,0,0,1,6.71-7.83c5.88-4.91,12-10,19-14.23A42.63,42.63,0,0,1,147.17,53a33.51,33.51,0,0,1,10.92-1.76,42.78,42.78,0,0,1,9.15,1,90.07,90.07,0,0,1,15.64,5.37l3.77,1.56c4.83,2,10.85,4.52,15.85,9.21a25.27,25.27,0,0,1,8.22,16.36l.07.8.25.75a12.54,12.54,0,0,1,.64,4.48l-.08,1.61v.32c0,.21,0,.43,0,.65v.36l.29,3.2,1.41,1.59c2.49,2.8,4.82,5.67,6.92,8.52a66.78,66.78,0,0,1,8.17,13.9,52,52,0,0,1,2.81,9.3l.32,1.51,1,1.21c7.75,9.58,15.77,19.95,21.08,32a47.37,47.37,0,0,1,3.73,12.3,57.2,57.2,0,0,1,.11,11.81v2.4l1.13,1.66a59.19,59.19,0,0,1,4.49,7.78,34,34,0,0,1,2.24,5.76l1.11,4,4.06.66A53.5,53.5,0,0,1,286,215.94c13.71,6.93,19.29,24.14,22.28,33.38,6.67,20.61,11.3,42.18,15.77,63l.32,1.46q1.27,6,2.56,11.88c4.32,19.66,5,34.63,2.25,51.68-2.08,13-14.28,29.48-27.68,46.65-2.82,3.61-4.86,6.23-5.69,7.49l0,.07h0v0l-.12.22-.12.23c-5.26,9.64-16.43,19.27-26,22.4l-3.14,1-1,3.14L265,460c-.26.86-.52,1.69-.79,2.52A131.7,131.7,0,0,1,257.41,479l-1,2.05.52,2.22a11.41,11.41,0,0,1-.55,7l-.19.45-.12.47a5.74,5.74,0,0,1-.19.64l-.38,1.14,0,1.21c.09,2.05.16,4.11.24,6.16l1.31,37.35a64.06,64.06,0,0,1-.53,13.42l-.11.59-.1.5.11,0v.07c0,3.08.58,11.29,1.1,19.22.31,4.77.65,10,1,15.46l.66,11ZM163,556.49c1,2.08,1.54,4,2.4,14.73l.47,5.94h71.21l-.45-6.87c-1.09-16.87-1.18-19.78-.67-22.27a42.52,42.52,0,0,0,.34-9.57L235,501.08c-.14-3.95-.27-7.52-.49-11.17l-.31-4.42c0-.44-.08-.82-.12-1.2l-.44-4.29.24-.49h0l1.12-2.21c3.45-6.84,7-13.92,9.39-21.19.22-.7.44-1.39.65-2.08l.05-.14c.61-2,1.27-4.11,2.12-6.23a67.21,67.21,0,0,1,4.57-9l7.9-13.51,6.57,8.76,5.24-4.8a28.35,28.35,0,0,0,5.84-7.18c1.18-2.22,3.36-5,7.79-10.71,15.51-19.88,22.55-31,23.53-37.14,2.34-14.66,1.8-26.57-2-43.94-.91-4.14-1.8-8.3-2.7-12.48l-.2-.92c-4.36-20.35-8.87-41.4-15.23-61-5.2-16-8.92-19.74-11.88-21.24-4.71-2.38-12.33-3.16-19.06-3.85-1.9-.2-3.7-.38-5.41-.59l-11.68-1.43,2.73-10.91.27-2.87,2.17-2.45-2.11-3.94a37,37,0,0,0-3-4.78,19.29,19.29,0,0,1-3.29-5.9,18.61,18.61,0,0,1-.75-6.73c.05-1.11.11-2.2.18-3.28a40,40,0,0,0,0-7.65,26.36,26.36,0,0,0-2.16-6.78c-4.7-10.65-12.57-20.35-20.19-29.74l-2.53-3.13-.41-2.8a37.89,37.89,0,0,0-2.25-8.79,45.32,45.32,0,0,0-5.68-9.48,103.28,103.28,0,0,0-8.72-10.29l-1.63-1.69-.75-2.23a30.49,30.49,0,0,1-1.33-7.71v0l-.15-3L189,93l1.29-8.13L187,82.56a43.54,43.54,0,0,0-8.37-4.16l-3.75-1.57a73.36,73.36,0,0,0-12.08-4.25,22.1,22.1,0,0,0-4.72-.55,13,13,0,0,0-4.22.63,22.34,22.34,0,0,0-4.07,2.06,94.68,94.68,0,0,0-9.54,6.76l-7.78,6.17,3.19,1.67-5,9.27a26.9,26.9,0,0,0-1.47,3.51l-3.83,10.24-1.29,1.45c-2.47,2.77-4.39,5.1-6,7.35a45,45,0,0,0-5.66,9.47,37,37,0,0,0-2.26,8.8l-.41,2.81-2.52,3.11c-7.62,9.38-15.5,19.09-20.2,29.75a26.13,26.13,0,0,0-2.17,6.78,41.51,41.51,0,0,0,0,7.63c.07,1.1.14,2.19.19,3.28a19,19,0,0,1-.75,6.75,19.23,19.23,0,0,1-3.16,5.72,40.14,40.14,0,0,0-3.22,5.06l-2,3.85L88.36,228.9l-19.29,2.21c-4.83.55-10.87,1.43-14.73,3.38-3,1.5-6.68,5.19-11.88,21.24-6.35,19.6-10.86,40.63-15.22,61l-.09.42c-.94,4.37-1.87,8.72-2.82,13s-1.7,8.36-2.24,12.06l-2-2.91L21,361.52a108.26,108.26,0,0,0,1.31,12.58c1.29,8.06,4.43,20,6.19,26.43l.62,2.26L65.3,427.7l-8.6-27.51a102.17,102.17,0,0,0-14.14-28.45L28.29,351.16l22.83,4.09,2.29-3.81c1.3-2.19,2.6-4.73,3.23-6l1-1.86c2.61-5,5-10,7.6-15.61l21.2-45.48-1.41,51c0,.63,0,1.21,0,1.8a294.62,294.62,0,0,1-4.22,39.26l-.62,3.58c-1.16,6.54-2.35,13.3-3.16,20.14L74.14,422l6,13.12A34.5,34.5,0,0,0,83.43,441l2.65,3.67-6.92,34.71L74,509.74l.22,1.14c.06.32.13.63.2.94l.08.35a30.84,30.84,0,0,1,.92,8.32c-.12,2.45-.31,6.53-2.84,10.3-.11.16-.2.3-.3.43l-1.21,1.67,0,2.06c0,.66,0,1.3-.06,1.94a44.2,44.2,0,0,1-2.75,11.53,28.28,28.28,0,0,0-1.69,6.13l-.62,7h.8a27.82,27.82,0,0,1-1.64,6.54L62,577.16H140.6l.87-5.42c.65-4,1.31-8.06,2-12.3l5.22-31.74Zm84.33-174.35c-.92-5.66-2.18-11.26-3.51-17.2-1.45-6.42-2.93-13-4-19.7a135.35,135.35,0,0,1-1-28.76l2.13-36.3,17.38,31.94c4.11,7.57,8.92,16.78,12.79,24.18,4.75,9.1,8.48,16.21,9.64,18.05l3.64,5.82-3.91,5.66c-1.72,2.49-3.51,5-5.33,7.62l-.28.39c-2.84,4-5.77,8.22-8.67,12.48L251.53,408Z"/><path class="cls-5" d="M147.51,198.05c3.58-.07,7.49-.07,10.24-2.35a11.23,11.23,0,0,0,3.29-5.53c2.63-8.71-.19-18-1.44-27-2-14.54.12-29.85-5.08-43.58C150.88,110,144,102,137.17,94.28a18.12,18.12,0,0,0-3.65-3.46c-.63,5.16-5.51,8.5-9,12.32-5.65,6.14-8.22,14.44-10.57,22.45-3.17,10.75-6.27,21.59-7.4,32.73s-.2,22.72,4.44,32.92c2.73,6,6.77,11.5,9.07,17.68C125.77,200.16,137.86,198.22,147.51,198.05Z"/><path class="cls-5" d="M189.9,121c-2.38,7.62-4.54,15.3-6.7,23a119.8,119.8,0,0,0-3.85,16.67c-1.46,11.07.2,22.51-2.56,33.33,6.66-3,11.94,24.91,19.22,24.4,2.16-.15,6.32-29.89,8.25-30.88,2.94-1.52,4.44-4.83,5.55-8a95,95,0,0,0,2.12-56.41c-1.43-5.22-4.47-14.38-10.08-16.68C194.78,103.5,191.51,115.77,189.9,121Z"/><path class="cls-6" d="M187.21,164.87v.1l-1.28,42.77L175.6,221.28l-.5-.19-35.78-13.35s-.18-39.06,0-39.9l36.4-2.19h.17Z"/><g class="cls-7"><polygon class="cls-8" points="187.21 164.97 185.93 207.74 175.6 221.28 175.1 221.09 158.85 199.21 140.1 176.99 175.72 165.65 175.89 165.64 187.21 164.97"/></g><path class="cls-9" d="M199.31,136.29a8.38,8.38,0,0,1-1.09,4.47l-4.47,17.46a21.36,21.36,0,0,1-6.47,15.46L176.41,184a7,7,0,0,1-4.86,2h-17a7,7,0,0,1-4.17-1.39L140.1,177A20.94,20.94,0,0,1,132,162.6l-7.35-19.12a8.18,8.18,0,0,1-1.34-4.7c0-2.66.09-6.68-.07-8.54-.2-2.41-.06-14.85,0-19a8.51,8.51,0,0,1,.44-2.61l4.89-14.3a7.82,7.82,0,0,1,2.82-3.84l26.78-19.23a6.72,6.72,0,0,1,2.47-1.15,6.9,6.9,0,0,1,3,0l22.95,4.79a7.57,7.57,0,0,1,5.68,5.68L198,103.21a7.94,7.94,0,0,1,.24,1.76Z"/><path class="cls-6" d="M159.17,186h-4.66a7,7,0,0,1-4.17-1.39L140.1,177A20.94,20.94,0,0,1,132,162.6l-7.35-19.12a8.18,8.18,0,0,1-1.34-4.7c0-2.66.09-6.68-.07-8.54-.2-2.41-.06-14.85,0-19a8.51,8.51,0,0,1,.44-2.61l4.89-14.3a7.82,7.82,0,0,1,2.82-3.84l26.78-19.23a6.72,6.72,0,0,1,2.47-1.15c0,7.24-3.68,11.69-3,21.93.08,1.18.23,5,.37,11.06,0,.63-1.17.83-1.08,2.56.06,1.07,1.16,1.88,1.17,2.36,0,1.19,0,.24.06,1.5,0,.54-.77,1.07-.87,2-.17,1.59.9,2,.91,2.5.05,5.24.05,10.82-.06,16-.18,8.5-.43,13.24.15,18.13.11.91-5.75-3.15-4.66,1.66.52,2.33,6.38,7,5.9,8.39-1.33,3.81,1.52,7.37,1.15,9.42s-1.8,4.29-2.11,6.68A27.28,27.28,0,0,0,159.17,186Z"/><path class="cls-10" d="M163.22,163.49l-2.44-2.21s-.95-.93-1-.95a12.62,12.62,0,0,0-1.74,0c-.15.06-4.87,3-5.22,2.93a20.34,20.34,0,0,1-2.13-1.14l-1.6,3.21s3.77-1.74,4-1.74Z"/><path class="cls-10" d="M159.35,163.49l2.59-2.21s1-.93,1.08-.95a14.1,14.1,0,0,1,1.84,0,58.65,58.65,0,0,0,5.62,2c.38-.08,2.2-.22,2.2-.22l1.69,3.21s-4-1.74-4.27-1.74Z"/><path class="cls-11" d="M134.24,128.19s7.82-1.36,10.75-.41a18.32,18.32,0,0,1,5.42,3.23c.7.43,2.22.92,1.74,1.41s-2.11.64-3.07,1.1-8.81,1.55-12.65-1S134.24,128.19,134.24,128.19Z"/><ellipse class="cls-12" cx="143.38" cy="131.17" rx="3.5" ry="3.08" transform="translate(-1.59 1.76) rotate(-0.7)"/><path class="cls-13" d="M152.39,129.31a19.18,19.18,0,0,0-2.54-1.88c-.23-.14-.45-.27-.67-.38s-.45-.21-.71-.33c-.51-.21-1-.4-1.51-.56a14.83,14.83,0,0,0-1.56-.41,16,16,0,0,0-1.59-.25,24,24,0,0,0-3.29-.16,17.23,17.23,0,0,0-6.21,1,3.29,3.29,0,0,0-1,.58c-.17.19-.19.31-.16.41s.57.55,1.41.46l-.23,0a27.38,27.38,0,0,1,4.73-.68,20,20,0,0,1,4.81.25,13,13,0,0,1,4.35,1.7c.64.39,1.22.86,1.8,1.26a12.16,12.16,0,0,0,1.89,1h0l0,0a1.54,1.54,0,0,1,.46.49.73.73,0,0,1,.1.37.63.63,0,0,1-.21.38,3.11,3.11,0,0,1-1.3.42l-2.42.6a23.19,23.19,0,0,1-5.08.68,31.09,31.09,0,0,1-5.18-.4,13.64,13.64,0,0,1-5.15-1.8l1.83-1.59a8.41,8.41,0,0,0,3.74,2.07,21.9,21.9,0,0,0,4.78.87,18.81,18.81,0,0,0,4.9-.36c.82-.14,1.61-.36,2.45-.53a3.31,3.31,0,0,0,1.05-.28c.17-.07,0-.39-.3-.59l.05,0a16.48,16.48,0,0,1-2-1,15.44,15.44,0,0,0-1.85-1.12,10,10,0,0,0-4.16-1.06,19.28,19.28,0,0,0-4.34.36c-1.43.26-2.89.59-4.24,1l-.1,0-.13,0a5.15,5.15,0,0,1-2.39-.26,2.9,2.9,0,0,1-1.82-1.81,2.37,2.37,0,0,1,.7-2.35,4.1,4.1,0,0,1,.9-.68,7.67,7.67,0,0,1,.91-.45,13.64,13.64,0,0,1,3.71-.89,25.17,25.17,0,0,1,3.67-.13,27.42,27.42,0,0,1,3.62.38,16.18,16.18,0,0,1,1.8.42,16.42,16.42,0,0,1,1.7.6,13.85,13.85,0,0,1,1.59.79,8,8,0,0,1,.77.45c.25.17.48.34.7.52a14.79,14.79,0,0,1,2.33,2.35Z"/><path class="cls-11" d="M186.18,128.19s-7.82-1.36-10.74-.41A18.27,18.27,0,0,0,170,131c-.7.43-2.22.92-1.74,1.41s2.11.64,3.07,1.1,8.81,1.55,12.66-1S186.18,128.19,186.18,128.19Z"/><ellipse class="cls-12" cx="177.05" cy="131.17" rx="3.08" ry="3.5" transform="translate(43.72 306.61) rotate(-89.3)"/><path class="cls-13" d="M168,129.31a19.18,19.18,0,0,1,2.54-1.88,7.73,7.73,0,0,1,.68-.38c.21-.11.44-.21.71-.33.5-.21,1-.4,1.5-.56a14.83,14.83,0,0,1,1.56-.41c.52-.11,1-.19,1.59-.25a24.08,24.08,0,0,1,3.3-.16,17.13,17.13,0,0,1,6.2,1,3.29,3.29,0,0,1,1,.58c.17.19.19.31.16.41s-.57.55-1.41.46l.23,0a27.26,27.26,0,0,0-4.72-.68,20,20,0,0,0-4.82.25,13,13,0,0,0-4.35,1.7c-.64.39-1.21.86-1.8,1.26a12.16,12.16,0,0,1-1.89,1h0l0,0a1.66,1.66,0,0,0-.46.49.64.64,0,0,0-.09.37.57.57,0,0,0,.2.38,3.11,3.11,0,0,0,1.3.42l2.42.6a23.19,23.19,0,0,0,5.08.68,31,31,0,0,0,5.18-.4,13.59,13.59,0,0,0,5.15-1.8l-1.82-1.59a8.45,8.45,0,0,1-3.75,2.07,21.79,21.79,0,0,1-4.78.87,18.81,18.81,0,0,1-4.9-.36c-.82-.14-1.61-.36-2.44-.53a3.16,3.16,0,0,1-1-.28c-.18-.07,0-.39.29-.59l-.05,0a16.61,16.61,0,0,0,2-1,15.33,15.33,0,0,1,1.84-1.12,10,10,0,0,1,4.16-1.06,19.28,19.28,0,0,1,4.34.36c1.43.26,2.9.59,4.24,1l.11,0,.12,0a5.13,5.13,0,0,0,2.39-.26,2.85,2.85,0,0,0,1.82-1.81,2.36,2.36,0,0,0-.69-2.35,4.14,4.14,0,0,0-.91-.68,7,7,0,0,0-.91-.45,13.55,13.55,0,0,0-3.71-.89,25.07,25.07,0,0,0-3.67-.13,27.6,27.6,0,0,0-3.62.38,16,16,0,0,0-1.79.42,15.79,15.79,0,0,0-1.71.6,13.85,13.85,0,0,0-1.59.79c-.23.13-.5.27-.77.45s-.48.34-.7.52a14.31,14.31,0,0,0-2.32,2.35Z"/><path class="cls-13" d="M146.56,159a51,51,0,0,0,10.8-4.13c.78-.4,1.8-.8,2.46-.22a2,2,0,0,1,.5.93,18,18,0,0,1,.7,3,3.19,3.19,0,0,1,0,1.34,3.41,3.41,0,0,1-2.27,2,20.46,20.46,0,0,1-19.38-2.31,2.81,2.81,0,0,1-1.17-1.36,1.07,1.07,0,0,1,.76-1.4.82.82,0,0,1,.84.67,1.25,1.25,0,0,1-.39.87C140.94,160.23,144.54,159.51,146.56,159Z"/><path class="cls-13" d="M176.26,158.48a50.8,50.8,0,0,1-10.8-4.13c-.78-.41-1.81-.81-2.46-.23a2,2,0,0,0-.51.93,19.08,19.08,0,0,0-.69,3,3.36,3.36,0,0,0,0,1.34,3.43,3.43,0,0,0,2.27,2,20.48,20.48,0,0,0,19.39-2.31,2.86,2.86,0,0,0,1.17-1.36,1.07,1.07,0,0,0-.77-1.39.79.79,0,0,0-.83.66,1.24,1.24,0,0,0,.38.87C181.87,159.71,178.28,159,176.26,158.48Z"/><path class="cls-14" d="M66,217.21c-.76-3.4.42-6.93,1.93-10.07a48.6,48.6,0,0,1,4.78-7.92,10.49,10.49,0,0,0,1.75-2.89,8.83,8.83,0,0,0,.25-3.12c-.18-4.26-.72-8.55-.13-12.78a36,36,0,0,1,3-9.54C82.72,159,91,148.83,99.13,138.78l7.88-9.7c0,4,1.19,7.89,1.34,11.87s-.75,7.81-1.25,11.71c-.9,6.92-.59,14-1.33,20.88-.87,8.24-3.2,16.23-5.53,24.18a30,30,0,0,1-2.91,7.43,23.41,23.41,0,0,1-5.81,6A54.09,54.09,0,0,1,81,217.53a33.54,33.54,0,0,0-4.64,2.33c-1.06.71-2.31,2.74-3.35,3.1C69.82,224.06,66.55,219.81,66,217.21Z"/><path class="cls-9" d="M154,147.16a1.58,1.58,0,0,0-.56,1.31,3.66,3.66,0,0,0,.42,1.41,10.14,10.14,0,0,0,2.35,3.08,20.89,20.89,0,0,0,2,1.49,6.43,6.43,0,0,0,2.06,1.07,4.08,4.08,0,0,0,2.55-.3,8.91,8.91,0,0,0,2.17-1.44c.43-.37.84-.76,1.24-1.16a3.61,3.61,0,0,0,.91-1.29,2.83,2.83,0,0,0,.05-1.5,3.41,3.41,0,0,0-1.52-2.29c-1.23-.7-2.75-.28-4.15-.08a12,12,0,0,1-4.09-.1C156.61,147.2,154.79,146.59,154,147.16Z"/><path class="cls-13" d="M158.57,124.47c0,.13.26,10.13.26,10.13l.17,4.54.3,9.07,0,1.35-1.39-.32h0l-4.14-1.65.63-.34h0l-.66,2,0-.39a15.19,15.19,0,0,0,2.63,3.44,13.66,13.66,0,0,0,3.5,2.52,3.66,3.66,0,0,0,1.92.36,3.51,3.51,0,0,0,1.77-.8c1.1-.87,1.89-2.15,3.11-3.25l.68.79c-1,.92-1.88,2.25-3.15,3.27a4.5,4.5,0,0,1-2.29,1,4.77,4.77,0,0,1-2.47-.45,14.83,14.83,0,0,1-3.8-2.73,15.91,15.91,0,0,1-2.83-3.72l-.1-.18.07-.22.66-2h0l.08-.42.55.08,4.41.58h0l-1.34,1,.25-9.06.11-4.53.06-9.85Z"/><path class="cls-13" d="M169.93,172.38c.26-.06.44.33.29.55a.67.67,0,0,1-.73.18,2,2,0,0,1-1.27-1.75c-.09-.75.06-1.52,0-2.28a2.33,2.33,0,0,0-.92-2,2.69,2.69,0,0,0-1.52-.27c-.44,0-2.24.27-3.85.27-2.35,0-4.71-.27-5.36-.27a2.72,2.72,0,0,0-1.52.27,2.36,2.36,0,0,0-.92,2,21.73,21.73,0,0,1,0,2.28,2,2,0,0,1-1.26,1.75.67.67,0,0,1-.73-.18c-.15-.22,0-.61.28-.55-.49-.49-1.44.05-1.49.75a1.91,1.91,0,0,0,1.1,1.65,4,4,0,0,0,3.76.08,11.54,11.54,0,0,0,2.61-2.38,5.12,5.12,0,0,1,1.79-1,2.7,2.7,0,0,1,1.9,0,5,5,0,0,1,1.78,1,11.76,11.76,0,0,0,2.61,2.38,4,4,0,0,0,3.77-.08,1.93,1.93,0,0,0,1.1-1.65C171.38,172.43,170.43,171.89,169.93,172.38Z"/><path class="cls-13" d="M199.32,116.64c.07-1.26-.91-6.13-2.62-6a93.92,93.92,0,0,1,.07,27.56c-1.3,9.32-10.09,22.81-18.16,24.43a1.57,1.57,0,0,0-1.19,1.85,17.21,17.21,0,0,1,.34,4.29c-.12,3-4.18,10.28-10,6.92-1.77-1-3.47-3.52-5.27-5.24a4.67,4.67,0,0,0-2.46,0c-1.58,1.72-3.42,4.23-5.16,5.24-5.81,3.36-9.86-4-10-6.92a18,18,0,0,1,0-3.06,2,2,0,0,0-1.41-2.13c-8-2.35-15.35-16.32-17.61-25.38-2.53-10.14-1.28-18.73,0-28.71-1.5-.13-2,1.46-2.56,2.87a20.24,20.24,0,0,0-1,4.14c-1.46,15.23-1.06,24.81,4.38,39.09.66,1.73,3.16,9.13,3.46,11,.24,1.48.21,3,.54,4.48a15,15,0,0,0,2.64,5.26,37,37,0,0,0,21.93,14.3c1.22.27,9.15.67,12,0a37.73,37.73,0,0,0,21.92-14.3,14.82,14.82,0,0,0,2.64-5.26c.33-1.47.3-3,.54-4.48.3-1.83,2.81-9.23,3.47-11C201.33,141.37,198.46,132.52,199.32,116.64Z"/><path class="cls-13" d="M152.68,116.6a7,7,0,0,0-4-2.32,6.34,6.34,0,0,0-2.56-.21c-1.19.18-2.27.89-3.47,1a7.91,7.91,0,0,1-1.88-.14c-2.86-.43-6.08-.46-8.3,1.41a6.18,6.18,0,0,0-2.06,3.66.66.66,0,0,0,0,.28.51.51,0,0,0,.7.25,1.75,1.75,0,0,0,.61-.57,6,6,0,0,1,4.73-2.19c2,0,3.84,1.09,5.81,1.41,1.63.27,3.31,0,5,.25a9.61,9.61,0,0,1,3.94,1.4,2.6,2.6,0,0,0,.85.42C154.12,121.65,153.33,117.46,152.68,116.6Z"/><path class="cls-13" d="M168.62,115.6a7,7,0,0,1,4-2.33,6.59,6.59,0,0,1,2.57-.21c1.19.19,2.27.9,3.47,1a8,8,0,0,0,1.88-.14c2.86-.43,6.08-.46,8.3,1.41a6.18,6.18,0,0,1,2.06,3.66.66.66,0,0,1,0,.28.51.51,0,0,1-.7.25,1.75,1.75,0,0,1-.61-.57,6,6,0,0,0-4.73-2.19c-2,0-3.84,1.08-5.81,1.41-1.63.27-3.31,0-4.95.25a9.56,9.56,0,0,0-3.94,1.4,2.57,2.57,0,0,1-.85.41C167.18,120.65,168,116.46,168.62,115.6Z"/><path class="cls-14" d="M255.61,215.46c.76-3.4-.43-6.93-1.93-10.07a49,49,0,0,0-4.78-7.92,10.2,10.2,0,0,1-1.75-2.89,8.79,8.79,0,0,1-.25-3.11c.18-4.27.72-8.56.13-12.79a36.14,36.14,0,0,0-2.95-9.54c-5.22-11.84-13.48-22-21.63-32.1l-7.88-9.7c0,4-1.19,7.88-1.34,11.86s.75,7.81,1.25,11.72c.9,6.91.59,13.94,1.33,20.88C216.68,180,219,188,221.34,196a29.67,29.67,0,0,0,2.91,7.44,23.73,23.73,0,0,0,5.81,6,55.1,55.1,0,0,0,10.51,6.36,33.48,33.48,0,0,1,4.64,2.32c1,.71,2.3,2.75,3.35,3.1C251.76,222.31,255,218.07,255.61,215.46Z"/><path class="cls-15" d="M163.39,216.31c.67,2.78.55,5.71,1.32,8.46a58.76,58.76,0,0,0-8.3,1.71,3.36,3.36,0,0,1-1.36.2,3.27,3.27,0,0,1-1.52-.76,8.24,8.24,0,0,1-2.82-3.11,6,6,0,0,1-.22-3.66,16.24,16.24,0,0,1,1.33-3.47,19.08,19.08,0,0,1,2.41-4.06c.6-.7,1.28-1.32,1.89-2s1.21-2.2,2.32-1.31a13.3,13.3,0,0,1,2.2,2.3A15.28,15.28,0,0,1,163.39,216.31Z"/><circle class="cls-16" cx="159.65" cy="222.63" r="2.21"/><circle class="cls-17" cx="159.65" cy="222.63" r="1.98"/><circle class="cls-16" cx="159.19" cy="222.24" r="0.24"/><circle class="cls-16" cx="160.11" cy="222.24" r="0.24"/><circle class="cls-16" cx="159.19" cy="223.02" r="0.24"/><circle class="cls-16" cx="160.11" cy="223.02" r="0.24"/><path class="cls-15" d="M248.19,587.55h-92c-.94-13.54-1.71-24.93-2.45-26.42-1.55,9.38-2.93,18-4.28,26.42H50.21c1.68-9.45,3.36-17.72,4.75-21.85a22.35,22.35,0,0,0,1.49-5.52c.11-1.6-.23-3.21-.27-4.82-.17-6.34,4.06-12.84,4.48-19.17.2-3.06-.46-6.46,1.36-8.93.59-.8,1.41-1.42,2-2.25,1-1.45,1-3.31,1.1-5,.22-4.17-1.95-8-1.26-12.15q1.63-9.72,3.28-19.44c2.27-13.47,5.85-31,8.52-44.38,8.68,1.59,16.19,6,25,5.43,5.49-.38,10.91-1.61,16.41-1.92,14.12-.77,28.1,4.61,42.19,3.35,9.47-.85,18.46-4.67,27.9-5.78,4.4-.51,8.83-.43,13.23-.77a69.24,69.24,0,0,0,35.85-13.53c2,9.15,1.86,17.75,3.84,26.9,1.54,7.11,3.09,14.24,4,21.47s1.14,14.37,1.4,21.57q.66,18.66,1.31,37.3a50.52,50.52,0,0,1-.55,12.11C245.74,552.25,247.06,568.77,248.19,587.55Z"/><path class="cls-15" d="M162.46,218.12c-1.31,3.59-1.24,6.87-3.69,10,3.16,1.54,6.81,1.68,10.33,1.6a39.9,39.9,0,0,0,13.34-2.21A18.9,18.9,0,0,0,192.62,219a8.36,8.36,0,0,0,1-5.42,7.38,7.38,0,0,0-3.59-4.65,16.12,16.12,0,0,0-5.71-1.86c-4.53-.76-14.13-1.21-16.86,1.9C164.23,212.64,163.59,215,162.46,218.12Z"/><path class="cls-9" d="M110,491a1.26,1.26,0,0,1-.42.56c-2.81,2.45-7.47,1.69-10.12-.93a18.4,18.4,0,0,1-1.89-2.32l-4.93-6.7a48.24,48.24,0,0,1-19.11,7.8c-.58.1-1.16.19-1.74.26-1.62.23-3.44.31-4.73-.69a6.67,6.67,0,0,1-1.69-2.39c-3.81-7.56-7.63-15.15-10.25-23.2-.85-2.61-1.57-5.27-2.59-7.83a62.26,62.26,0,0,0-4.34-8.39c-1.55-2.6-.85-3.91.78-6.37a19,19,0,0,1,12-8,2,2,0,0,1,.73,0,2,2,0,0,1,1.08,1l5.87,9.45a42.54,42.54,0,0,0,4.53,6.35A20.71,20.71,0,0,0,79,454c2.6,1.34,5.47,2.14,7.92,3.73,5.46,3.56,7.76,10.29,11.72,15.46,1.82,2.38,4,4.45,5.81,6.86a34.08,34.08,0,0,1,2.42,3.85c1.09,2,2,4.15,3,6.26h0A1.35,1.35,0,0,1,110,491Z"/><path class="cls-18" d="M73.52,489.43c-.58.1-1.16.19-1.74.26-1.62.23-3.44.31-4.73-.69a6.67,6.67,0,0,1-1.69-2.39c-3.81-7.56-7.63-15.15-10.25-23.2-.85-2.61-1.57-5.27-2.59-7.83a62.26,62.26,0,0,0-4.34-8.39c-1.55-2.6-.85-3.91.78-6.37a18.68,18.68,0,0,1,2.62-3.12,4.45,4.45,0,0,0,0,.47c-.26,6.34,4.23,11.83,5.78,18,1.33,5.27.52,11.12,3.06,15.93.77,1.46,1.8,2.74,2.68,4.13,1.26,2,2.16,4.24,3.51,6.19C68.43,485.13,71.07,487.19,73.52,489.43Z"/><path class="cls-9" d="M199.41,486.89a1.24,1.24,0,0,0,.42.57c2.81,2.44,7.47,1.69,10.12-.93a18.4,18.4,0,0,0,1.89-2.32c1.65-2.23,3.29-4.47,4.93-6.7a48.11,48.11,0,0,0,19.11,7.81q.87.15,1.74.27c1.63.22,3.44.31,4.73-.69a6.69,6.69,0,0,0,1.7-2.39c3.81-7.56,7.64-15.15,10.25-23.19.85-2.61,1.58-5.27,2.6-7.83a62.32,62.32,0,0,1,4.35-8.39c1.54-2.6.85-3.91-.78-6.37a19.16,19.16,0,0,0-2.62-3.13,18.58,18.58,0,0,0-9.37-4.9,1.8,1.8,0,0,0-.73,0,1.93,1.93,0,0,0-1.08,1l-5.88,9.44a42.48,42.48,0,0,1-4.52,6.35,20.91,20.91,0,0,1-5.86,4.45c-2.6,1.34-5.47,2.14-7.92,3.73-5.46,3.55-7.76,10.28-11.73,15.46-1.82,2.37-4,4.44-5.81,6.85a30.72,30.72,0,0,0-2.42,3.85c-1.1,2-2,4.15-3,6.26h0A1.37,1.37,0,0,0,199.41,486.89Z"/><path class="cls-19" d="M128.15,207.47c.4-.25,1.26-.88.43-.11a239.67,239.67,0,0,1-51,12.36c-8.69,1.07-20,1.47-28,5.49-9.42,4.77-14,18-17.08,27.32-7.91,24.43-12.9,50.38-18.39,75.4-3.72,16.94-4.88,30.59-2.13,47.81C14.56,391.46,24.62,426,27.6,431.57c6.2,11.64,18.14,22.77,21.21,18.18,3.6-5.36,13.85-11.79,19.45-7.41,9.72-8.72,2.72-29.07,0-39.56a112.23,112.23,0,0,0-17.15-37c6.93,1.25,13-12.29,15.66-17.29,7.37-14,12.89-28.53,21.07-42.17,7.7-12.83,14.28-26.46,21.38-39.65,6.79-12.61,10.11-26.2,14.35-39.77,1.48-4.74,9.32-14.93,5-19.57"/><path class="cls-18" d="M235.88,485.32q.87.15,1.74.27c1.63.22,3.44.31,4.73-.69a6.69,6.69,0,0,0,1.7-2.39c3.81-7.56,7.64-15.15,10.25-23.19.85-2.61,1.58-5.27,2.6-7.83a62.32,62.32,0,0,1,4.35-8.39c1.54-2.6.85-3.91-.78-6.37a19.16,19.16,0,0,0-2.62-3.13c0,.18,0,.34,0,.48.25,6.34-4.24,11.83-5.79,18-1.33,5.27-.53,11.12-3.07,15.93-.77,1.45-1.8,2.73-2.68,4.12-1.26,2-2.16,4.24-3.51,6.19C241,481,238.34,483.09,235.88,485.32Z"/><path class="cls-19" d="M202.85,207.47c-.4-.25-1.26-.88-.43-.11a239.52,239.52,0,0,0,51,12.36c8.69,1.07,20,1.47,28,5.49,9.42,4.77,14,18,17.08,27.32,7.91,24.43,12.9,50.38,18.39,75.4,3.72,16.94,4.88,30.59,2.13,47.81-2.51,15.72-29.44,45.53-32.42,51.11-6.21,11.64-22.65,21.69-25.72,17.11-3.6-5.37-13.85-11.8-19.45-7.42-9.72-8.71.16-29.69,5.54-39.1,7.62-13.33,17-25.88,25.08-37.55-3.4-5.4-20.64-39.9-28.82-53.54-7.7-12.83-14.29-26.46-21.38-39.65-6.79-12.61-10.11-26.2-14.35-39.77-1.48-4.74-9.32-14.93-5-19.57"/><path class="cls-19" d="M95.38,243c-11.86-1.52-16.16,22.13-18.08,29.88-2.51,10.12-1.7,21.83-2.21,32.24-.48,9.86-.15,19.88-.53,29.78a285.31,285.31,0,0,1-4.08,37.9c-4.34,25-11.3,57.64,7.86,78.35,14.12,15.25,42,16.92,61.1,13,16.83-3.43,33.37-4.34,50.46-3.78,11.9.39,23.94.66,35.2-3.87,29.92-12,36.63-41.45,33.33-70.29-1.63-14.33-6.07-28.32-8.26-42.58-2.37-15.38-1-30.88,1-46.21,2-14.81,5-29.58,1.94-44.46-2.21-10.63-7.72-18.33-16-25.17-6.95-5.73-13.79-8.72-22.88-8.51-10.42.24-36.81,8.56-47.23,7.39-27.22-3.08-42.47-15.67-65.72,4.09"/><g class="cls-20"><polygon class="cls-21" points="2.71 177.75 14.9 193.08 4.34 209.56 -7.84 194.24 2.71 177.75"/><polygon class="cls-21" points="25.45 176.59 37.63 191.91 27.08 208.4 14.9 193.08 25.45 176.59"/><polygon class="cls-21" points="48.19 175.43 60.37 190.75 49.82 207.24 37.63 191.91 48.19 175.43"/><polygon class="cls-21" points="70.93 174.27 83.11 189.59 72.55 206.07 60.37 190.75 70.93 174.27"/><polygon class="cls-21" points="93.66 173.1 105.85 188.43 95.29 204.91 83.11 189.59 93.66 173.1"/><polygon class="cls-21" points="116.4 171.94 128.58 187.26 118.03 203.75 105.85 188.43 116.4 171.94"/><polygon class="cls-21" points="139.14 170.78 151.32 186.1 140.76 202.59 128.58 187.26 139.14 170.78"/><polygon class="cls-21" points="4.34 209.56 16.52 224.88 5.97 241.37 -6.21 226.05 4.34 209.56"/><polygon class="cls-21" points="27.08 208.4 39.26 223.72 28.7 240.21 16.52 224.88 27.08 208.4"/><polygon class="cls-21" points="49.82 207.24 62 222.56 51.44 239.04 39.26 223.72 49.82 207.24"/><polygon class="cls-21" points="72.55 206.07 84.73 221.4 74.18 237.88 62 222.56 72.55 206.07"/><polygon class="cls-21" points="95.29 204.91 107.47 220.24 96.92 236.72 84.73 221.4 95.29 204.91"/><polygon class="cls-21" points="118.03 203.75 130.21 219.07 119.65 235.56 107.47 220.24 118.03 203.75"/><polygon class="cls-21" points="140.76 202.59 152.95 217.91 142.39 234.4 130.21 219.07 140.76 202.59"/><polygon class="cls-21" points="5.97 241.37 18.15 256.69 7.59 273.18 -4.59 257.86 5.97 241.37"/><polygon class="cls-21" points="28.7 240.21 40.89 255.53 30.33 272.01 18.15 256.69 28.7 240.21"/><polygon class="cls-21" points="51.44 239.04 63.62 254.37 53.07 270.85 40.89 255.53 51.44 239.04"/><polygon class="cls-21" points="74.18 237.88 86.36 253.21 75.81 269.69 63.62 254.37 74.18 237.88"/><polygon class="cls-21" points="96.92 236.72 109.1 252.04 98.54 268.53 86.36 253.21 96.92 236.72"/><polygon class="cls-21" points="119.65 235.56 131.84 250.88 121.28 267.37 109.1 252.04 119.65 235.56"/><polygon class="cls-21" points="142.39 234.4 154.57 249.72 144.02 266.2 131.84 250.88 142.39 234.4"/><polygon class="cls-21" points="7.59 273.18 19.77 288.5 9.22 304.99 -2.96 289.66 7.59 273.18"/><polygon class="cls-21" points="30.33 272.01 42.51 287.34 31.96 303.82 19.77 288.5 30.33 272.01"/><polygon class="cls-21" points="53.07 270.85 65.25 286.18 54.7 302.66 42.51 287.34 53.07 270.85"/><polygon class="cls-21" points="75.81 269.69 87.99 285.01 77.43 301.5 65.25 286.18 75.81 269.69"/><polygon class="cls-21" points="98.54 268.53 110.72 283.85 100.17 300.33 87.99 285.01 98.54 268.53"/><polygon class="cls-21" points="121.28 267.37 133.46 282.69 122.91 299.17 110.72 283.85 121.28 267.37"/><polygon class="cls-21" points="144.02 266.2 156.2 281.52 145.64 298.01 133.46 282.69 144.02 266.2"/><polygon class="cls-21" points="9.22 304.99 21.4 320.31 10.85 336.79 -1.34 321.47 9.22 304.99"/><polygon class="cls-21" points="31.96 303.82 44.14 319.14 33.58 335.63 21.4 320.31 31.96 303.82"/><polygon class="cls-21" points="54.7 302.66 66.88 317.98 56.32 334.47 44.14 319.14 54.7 302.66"/><polygon class="cls-21" points="77.43 301.5 89.61 316.82 79.06 333.31 66.88 317.98 77.43 301.5"/><polygon class="cls-21" points="100.17 300.33 112.35 315.66 101.8 332.14 89.61 316.82 100.17 300.33"/><polygon class="cls-21" points="122.91 299.17 135.09 314.5 124.53 330.98 112.35 315.66 122.91 299.17"/><polygon class="cls-21" points="145.64 298.01 157.83 313.33 147.27 329.82 135.09 314.5 145.64 298.01"/><polygon class="cls-21" points="161.66 169.74 173.84 185.06 163.28 201.54 151.1 186.22 161.66 169.74"/><polygon class="cls-21" points="184.4 168.57 196.58 183.9 186.02 200.38 173.84 185.06 184.4 168.57"/><polygon class="cls-21" points="207.13 167.41 219.32 182.74 208.76 199.22 196.58 183.9 207.13 167.41"/><polygon class="cls-21" points="229.87 166.25 242.05 181.57 231.5 198.06 219.32 182.74 229.87 166.25"/><polygon class="cls-21" points="252.61 165.09 264.79 180.41 254.24 196.9 242.05 181.57 252.61 165.09"/><polygon class="cls-21" points="275.35 163.93 287.53 179.25 276.97 195.73 264.79 180.41 275.35 163.93"/><polygon class="cls-21" points="298.08 162.76 310.27 178.09 299.71 194.57 287.53 179.25 298.08 162.76"/><polygon class="cls-21" points="163.28 201.54 175.47 216.87 164.91 233.35 152.73 218.03 163.28 201.54"/><polygon class="cls-21" points="186.02 200.38 198.21 215.71 187.65 232.19 175.47 216.87 186.02 200.38"/><polygon class="cls-21" points="208.76 199.22 220.94 214.54 210.39 231.03 198.21 215.71 208.76 199.22"/><polygon class="cls-21" points="231.5 198.06 243.68 213.38 233.12 229.87 220.94 214.54 231.5 198.06"/><polygon class="cls-21" points="254.24 196.9 266.42 212.22 255.86 228.7 243.68 213.38 254.24 196.9"/><polygon class="cls-21" points="276.97 195.73 289.15 211.06 278.6 227.54 266.42 212.22 276.97 195.73"/><polygon class="cls-21" points="299.71 194.57 311.89 209.89 301.34 226.38 289.15 211.06 299.71 194.57"/><polygon class="cls-21" points="164.91 233.35 177.09 248.68 166.54 265.16 154.36 249.84 164.91 233.35"/><polygon class="cls-21" points="187.65 232.19 199.83 247.51 189.28 264 177.09 248.68 187.65 232.19"/><polygon class="cls-21" points="210.39 231.03 222.57 246.35 212.01 262.83 199.83 247.51 210.39 231.03"/><polygon class="cls-21" points="233.12 229.87 245.31 245.19 234.75 261.67 222.57 246.35 233.12 229.87"/><polygon class="cls-21" points="255.86 228.7 268.04 244.03 257.49 260.51 245.31 245.19 255.86 228.7"/><polygon class="cls-21" points="278.6 227.54 290.78 242.86 280.23 259.35 268.04 244.03 278.6 227.54"/><polygon class="cls-21" points="301.34 226.38 313.52 241.7 302.96 258.19 290.78 242.86 301.34 226.38"/><polygon class="cls-21" points="166.54 265.16 178.72 280.48 168.16 296.97 155.98 281.64 166.54 265.16"/><polygon class="cls-21" points="189.28 264 201.46 279.32 190.9 295.81 178.72 280.48 189.28 264"/><polygon class="cls-21" points="212.01 262.83 224.19 278.16 213.64 294.64 201.46 279.32 212.01 262.83"/><polygon class="cls-21" points="234.75 261.67 246.93 277 236.38 293.48 224.19 278.16 234.75 261.67"/><polygon class="cls-21" points="257.49 260.51 269.67 275.83 259.11 292.32 246.93 277 257.49 260.51"/><polygon class="cls-21" points="280.23 259.35 292.41 274.67 281.85 291.15 269.67 275.83 280.23 259.35"/><polygon class="cls-21" points="302.96 258.19 315.14 273.51 304.59 289.99 292.41 274.67 302.96 258.19"/><polygon class="cls-21" points="168.16 296.97 180.35 312.29 169.79 328.77 157.61 313.45 168.16 296.97"/><polygon class="cls-21" points="190.9 295.81 203.08 311.13 192.53 327.61 180.35 312.29 190.9 295.81"/><polygon class="cls-21" points="213.64 294.64 225.82 309.96 215.26 326.45 203.08 311.13 213.64 294.64"/><polygon class="cls-21" points="236.38 293.48 248.56 308.8 238 325.29 225.82 309.96 236.38 293.48"/><polygon class="cls-21" points="259.11 292.32 271.3 307.64 260.74 324.13 248.56 308.8 259.11 292.32"/><polygon class="cls-21" points="281.85 291.15 294.03 306.48 283.48 322.96 271.3 307.64 281.85 291.15"/><polygon class="cls-21" points="304.59 289.99 316.77 305.31 306.21 321.8 294.03 306.48 304.59 289.99"/><polygon class="cls-21" points="10.78 336 22.96 351.33 12.41 367.81 0.23 352.49 10.78 336"/><polygon class="cls-21" points="33.52 334.84 45.7 350.16 35.15 366.65 22.96 351.33 33.52 334.84"/><polygon class="cls-21" points="56.26 333.68 68.44 349 57.88 365.49 45.7 350.16 56.26 333.68"/><polygon class="cls-21" points="79 332.52 91.18 347.84 80.62 364.32 68.44 349 79 332.52"/><polygon class="cls-21" points="101.73 331.35 113.92 346.68 103.36 363.16 91.18 347.84 101.73 331.35"/><polygon class="cls-21" points="124.47 330.19 136.65 345.51 126.1 362 113.92 346.68 124.47 330.19"/><polygon class="cls-21" points="147.21 329.03 159.39 344.35 148.83 360.84 136.65 345.51 147.21 329.03"/><polygon class="cls-21" points="12.41 367.81 24.59 383.13 14.04 399.62 1.85 384.3 12.41 367.81"/><polygon class="cls-21" points="35.15 366.65 47.33 381.97 36.77 398.46 24.59 383.13 35.15 366.65"/><polygon class="cls-21" points="57.88 365.49 70.07 380.81 59.51 397.29 47.33 381.97 57.88 365.49"/><polygon class="cls-21" points="80.62 364.32 92.8 379.65 82.25 396.13 70.07 380.81 80.62 364.32"/><polygon class="cls-21" points="103.36 363.16 115.54 378.48 104.98 394.97 92.8 379.65 103.36 363.16"/><polygon class="cls-21" points="126.1 362 138.28 377.32 127.72 393.81 115.54 378.48 126.1 362"/><polygon class="cls-21" points="148.83 360.84 161.02 376.16 150.46 392.64 138.28 377.32 148.83 360.84"/><polygon class="cls-21" points="14.04 399.62 26.22 414.94 15.66 431.43 3.48 416.1 14.04 399.62"/><polygon class="cls-21" points="36.77 398.46 48.95 413.78 38.4 430.26 26.22 414.94 36.77 398.46"/><polygon class="cls-21" points="59.51 397.29 71.69 412.62 61.14 429.1 48.95 413.78 59.51 397.29"/><polygon class="cls-21" points="82.25 396.13 94.43 411.45 83.87 427.94 71.69 412.62 82.25 396.13"/><polygon class="cls-21" points="104.98 394.97 117.17 410.29 106.61 426.78 94.43 411.45 104.98 394.97"/><polygon class="cls-21" points="127.72 393.81 139.91 409.13 129.35 425.61 117.17 410.29 127.72 393.81"/><polygon class="cls-21" points="150.46 392.64 162.64 407.97 152.09 424.45 139.91 409.13 150.46 392.64"/><polygon class="cls-21" points="15.66 431.43 27.84 446.75 17.29 463.23 5.11 447.91 15.66 431.43"/><polygon class="cls-21" points="38.4 430.26 50.58 445.59 40.03 462.07 27.84 446.75 38.4 430.26"/><polygon class="cls-21" points="61.14 429.1 73.32 444.42 62.76 460.91 50.58 445.59 61.14 429.1"/><polygon class="cls-21" points="83.87 427.94 96.06 443.26 85.5 459.75 73.32 444.42 83.87 427.94"/><polygon class="cls-21" points="106.61 426.78 118.79 442.1 108.24 458.58 96.06 443.26 106.61 426.78"/><polygon class="cls-21" points="129.35 425.61 141.53 440.94 130.97 457.42 118.79 442.1 129.35 425.61"/><polygon class="cls-21" points="152.09 424.45 164.27 439.77 153.71 456.26 141.53 440.94 152.09 424.45"/><polygon class="cls-21" points="169.73 327.99 181.91 343.31 171.35 359.79 159.17 344.47 169.73 327.99"/><polygon class="cls-21" points="192.47 326.82 204.65 342.15 194.09 358.63 181.91 343.31 192.47 326.82"/><polygon class="cls-21" points="215.2 325.66 227.38 340.98 216.83 357.47 204.65 342.15 215.2 325.66"/><polygon class="cls-21" points="237.94 324.5 250.12 339.82 239.57 356.31 227.38 340.98 237.94 324.5"/><polygon class="cls-21" points="260.68 323.34 272.86 338.66 262.3 355.14 250.12 339.82 260.68 323.34"/><polygon class="cls-21" points="283.42 322.17 295.6 337.5 285.04 353.98 272.86 338.66 283.42 322.17"/><polygon class="cls-21" points="306.15 321.01 318.33 336.33 307.78 352.82 295.6 337.5 306.15 321.01"/><polygon class="cls-21" points="171.35 359.79 183.54 375.12 172.98 391.6 160.8 376.28 171.35 359.79"/><polygon class="cls-21" points="194.09 358.63 206.27 373.95 195.72 390.44 183.54 375.12 194.09 358.63"/><polygon class="cls-21" points="216.83 357.47 229.01 372.79 218.46 389.28 206.27 373.95 216.83 357.47"/><polygon class="cls-21" points="239.57 356.31 251.75 371.63 241.19 388.11 229.01 372.79 239.57 356.31"/><polygon class="cls-21" points="262.3 355.14 274.49 370.47 263.93 386.95 251.75 371.63 262.3 355.14"/><polygon class="cls-21" points="285.04 353.98 297.22 369.3 286.67 385.79 274.49 370.47 285.04 353.98"/><polygon class="cls-21" points="307.78 352.82 319.96 368.14 309.4 384.63 297.22 369.3 307.78 352.82"/><polygon class="cls-21" points="172.98 391.6 185.16 406.92 174.61 423.41 162.42 408.09 172.98 391.6"/><polygon class="cls-21" points="195.72 390.44 207.9 405.76 197.34 422.25 185.16 406.92 195.72 390.44"/><polygon class="cls-21" points="218.46 389.28 230.64 404.6 220.08 421.08 207.9 405.76 218.46 389.28"/><polygon class="cls-21" points="241.19 388.11 253.37 403.44 242.82 419.92 230.64 404.6 241.19 388.11"/><polygon class="cls-21" points="263.93 386.95 276.11 402.27 265.56 418.76 253.37 403.44 263.93 386.95"/><polygon class="cls-21" points="286.67 385.79 298.85 401.11 288.29 417.6 276.11 402.27 286.67 385.79"/><polygon class="cls-21" points="309.4 384.63 321.59 399.95 311.03 416.43 298.85 401.11 309.4 384.63"/><polygon class="cls-21" points="174.61 423.41 186.79 438.73 176.23 455.22 164.05 439.89 174.61 423.41"/><polygon class="cls-21" points="197.34 422.25 209.53 437.57 198.97 454.05 186.79 438.73 197.34 422.25"/><polygon class="cls-21" points="220.08 421.08 232.26 436.41 221.71 452.89 209.53 437.57 220.08 421.08"/><polygon class="cls-21" points="242.82 419.92 255 435.24 244.44 451.73 232.26 436.41 242.82 419.92"/><polygon class="cls-21" points="265.56 418.76 277.74 434.08 267.18 450.57 255 435.24 265.56 418.76"/><polygon class="cls-21" points="288.29 417.6 300.48 432.92 289.92 449.4 277.74 434.08 288.29 417.6"/><polygon class="cls-21" points="311.03 416.43 323.21 431.76 312.66 448.24 300.48 432.92 311.03 416.43"/></g><path class="cls-22" d="M149.62,220.34s11.66,3.81,19.35,3.46,18.24-4.9,18.24-4.9l1.5,4.93s-5.78,6.07-20.5,6.29a53.24,53.24,0,0,1-14.27-1.8l-6.12-1.95Z"/><path class="cls-17" d="M152.36,206.27a25.1,25.1,0,0,1-8.56-5.63,15.59,15.59,0,0,1-4.39-9.13,1.2,1.2,0,0,0-.13-.5.74.74,0,0,0-1.12.06,2.48,2.48,0,0,0-.42,1.22,9.15,9.15,0,0,1-1.87,4.1c-3.35,4.16-9.87,4.93-12.73,9.44a5.44,5.44,0,0,0-.82,2,7.93,7.93,0,0,0,1,4.36,56.11,56.11,0,0,0,10,15.88,31.15,31.15,0,0,0,15.91,9.51c-.74-.16.48-8.76.63-9.6a43.82,43.82,0,0,1,2.71-9.23,43.25,43.25,0,0,1,4.64-8.43c.86-1.22,1.83-1.89.51-2.65S153.89,206.91,152.36,206.27Z"/><path class="cls-17" d="M173.21,206.31c-2.1.52-4.53.85-5.73,2.64a9.35,9.35,0,0,1,14.25,4.46c1,2.68.65,5.64,1.19,8.43a14.3,14.3,0,0,0,11,11c-.17-1,.66-2,1.41-2.74a54.41,54.41,0,0,0,11.65-17.82c-5.45-3.74-4.64-12.59-9.54-17-3.4-3.07-10-3.3-11.91,1.2C183.36,201.37,178.31,205.05,173.21,206.31Z"/><circle class="cls-16" cx="158.28" cy="215.93" r="2.21"/><circle class="cls-17" cx="158.28" cy="215.93" r="1.98"/><circle class="cls-16" cx="157.82" cy="215.54" r="0.24"/><circle class="cls-16" cx="158.74" cy="215.54" r="0.24"/><circle class="cls-16" cx="157.82" cy="216.32" r="0.24"/><circle class="cls-16" cx="158.74" cy="216.32" r="0.24"/><path class="cls-16" d="M166.55,217.53a3.45,3.45,0,0,1-1.42-.23h0a.75.75,0,0,1-.48-.85,1.07,1.07,0,0,1,.85-.78,1.68,1.68,0,0,1,1.15.21,8.59,8.59,0,0,1,1.67,1.36l.28.29h-2Zm-1.27-.54a3.49,3.49,0,0,0,1.52.2h1a6.69,6.69,0,0,0-1.29-1,1.41,1.41,0,0,0-.93-.18.73.73,0,0,0-.58.51c0,.15,0,.34.29.48Z"/><path class="cls-16" d="M165.88,223.22a2.38,2.38,0,0,1-.75-.1h0a.74.74,0,0,1-.58-.78,1.07,1.07,0,0,1,.74-.88,1.72,1.72,0,0,1,1.17.06,8.48,8.48,0,0,1,1.83,1.14l.31.25-1.78.23A7.15,7.15,0,0,1,165.88,223.22Zm-.64-.42a3.48,3.48,0,0,0,1.54,0l1-.12a6.58,6.58,0,0,0-1.4-.84,1.53,1.53,0,0,0-.95-.07.75.75,0,0,0-.51.59c0,.15,0,.33.35.44Z"/><path class="cls-23" d="M109.7,115a55.57,55.57,0,0,0-6.92,11.68,51.36,51.36,0,0,0-3.29,14c-1.49,13.66.35,27.46,0,41.19a27,27,0,0,1-1.57,9.64,23.2,23.2,0,0,1-5.61,7.63c-6,5.83-13.43,10-20.06,15.2-2.6,2-5.34,5.4-3.67,8.25a6.17,6.17,0,0,0,2.77,2.23c3.8,1.82,8.06,2.4,12.24,2.91q18.53,2.22,37.17,3a10.89,10.89,0,0,0,5.56-.73c2.52-1.3,3.63-4.29,4.19-7.06,3.2-15.86-4.42-31.62-7.78-47.44-2.29-10.79-2.61-22-5.66-32.59a35.26,35.26,0,0,1-1.61-6.75,25.12,25.12,0,0,1,.71-7.16,109.08,109.08,0,0,1,8.18-24.29c.49-1,2.28-4.61.41-5.32-1.48-.56-3.92,2.61-4.74,3.44A114.46,114.46,0,0,0,109.7,115Z"/><path class="cls-24" d="M121.68,103c-8.44,5.61-18.71,19.87-20.76,29.8S99.45,153,100,163.07c.33,5.83.65,11.69-.08,17.48s-2.57,11.56-6.18,16.14c-6.37,8.07-17.27,11.46-23.82,19.39-1.58,1.92-2.83,4.92-1.1,6.72,2,2,5,2.83,7.8,3.25l26,3.91a138.13,138.13,0,0,0,15.69,1.74c2.92.09,6.11-.09,8.36-2,2.57-2.14,3.64-6.68,3.84-10,.65-11-.62-15.39-4.18-25.78-1.26-3.69-4.23-16.35-4-20.25.8-16.62-8.16-29.74-6.4-43.29C117,122.67,120.18,110.59,121.68,103Z"/><path class="cls-23" d="M211.88,113.22a55.38,55.38,0,0,1,6.92,11.69,51.29,51.29,0,0,1,3.29,14c1.49,13.66-.36,27.46,0,41.2a27.09,27.09,0,0,0,1.57,9.64,23.37,23.37,0,0,0,5.6,7.62c6,5.84,13.44,10,20.07,15.21,2.6,2,5.33,5.39,3.67,8.24a6.08,6.08,0,0,1-2.78,2.23c-3.79,1.83-8,2.41-12.23,2.91q-18.52,2.22-37.18,3.06a11,11,0,0,1-5.55-.74c-2.52-1.3-3.63-4.28-4.19-7.06-3.21-15.85,4.42-31.61,7.78-47.43,2.29-10.8,2.6-22,5.66-32.6a35.84,35.84,0,0,0,1.61-6.75,25.15,25.15,0,0,0-.71-7.16A109.59,109.59,0,0,0,197.24,103c-.5-1-2.28-4.61-.42-5.32,1.48-.56,3.93,2.61,4.74,3.44A113.38,113.38,0,0,1,211.88,113.22Z"/><path class="cls-24" d="M199.9,101.21c8.44,5.62,18.71,19.88,20.76,29.81s1.47,20.18.9,30.31a97.08,97.08,0,0,0,.07,17.47c.73,5.79,2.58,11.56,6.19,16.14,6.37,8.07,17.27,11.46,23.82,19.39,1.58,1.92,2.82,4.92,1.1,6.72-2,2-5,2.84-7.8,3.26l-26,3.9A133.72,133.72,0,0,1,203.21,230c-2.93.09-6.11-.09-8.36-2-2.58-2.15-3.64-6.68-3.84-10-.65-11,.62-15.4,4.17-25.78,1.27-3.7,4.24-16.36,4-20.26-.81-16.62,8.16-29.73,6.4-43.29C204.62,120.92,201.4,108.84,199.9,101.21Z"/><path class="cls-23" d="M115.87,108.14a15.69,15.69,0,0,0-1.29,7.08,1.73,1.73,0,0,0,.47,1.16c.77.64,1.88-.2,2.52-1,5.57-6.64,11.54-11,18.94-15.51a33.1,33.1,0,0,1,10.26-4.46,41.43,41.43,0,0,1,8.1-.62l11.95-.13c5.62-.07,11.65,0,16.27,3.2,2.5,1.74,4.35,4.27,6.69,6.23s5.39,3.43,8,5.22,5.12,4.2,5.88,7.3c.85-3.3,1.7-6.82.63-10.06-.52-1.57-1.46-3-2-4.52-1.48-4.18-.15-9.35-2.93-12.79-1.65-2-4.33-2.89-6.55-4.29-3.51-2.22-5.92-5.91-9.48-8-3.09-1.85-6.78-2.39-10.36-2.77a78.11,78.11,0,0,0-19-.11,37.81,37.81,0,0,0-17.55,6.77c-2.76,2.07-5.13,4.57-7.73,6.82-2,1.7-3.82,1.94-5.64,3.76s-3,5.42-3.85,7.66C118,102.58,117.19,104.63,115.87,108.14Z"/><path class="cls-4" d="M117,117.08a1.47,1.47,0,0,1-1.36.21l-1-.36a1.5,1.5,0,0,1,.27-2.26l4-2.72,19.52-14.71A21.22,21.22,0,0,1,151.08,93H170.8a23.06,23.06,0,0,1,13.77,4.52l20.06,17.09a.82.82,0,0,1,.13,1.12l-.44.35-.56,1a.82.82,0,0,1-1.2.14L182.05,99.79a17.89,17.89,0,0,0-10.58-3.47h-19.7a20,20,0,0,0-12,4Z"/><path class="cls-23" d="M122.69,83.62a14.79,14.79,0,0,1,4.06-4.47c5.68-4.74,11.38-9.49,17.7-13.32a31,31,0,0,1,6.09-3,27.13,27.13,0,0,1,14.5-.41,80.64,80.64,0,0,1,13.86,4.81l3.75,1.56c4.53,1.89,9.16,3.84,12.75,7.2s5.94,8.46,4.69,13.21a15.35,15.35,0,0,1-5.15-3.11A82.86,82.86,0,0,0,181,77.27a17.85,17.85,0,0,0-5.68-2c-1.81-.23-3.66,0-5.47-.22-2.31-.32-4.46-1.46-6.79-1.6-2.74-.15-5.36,1.11-8.1,1.4-2.45.26-4.94-.27-7.39,0-3.81.44-7.11,2.76-10.22,5l-7.92,5.73c-1.7,1.23-5.55,5.16-7.55,5.1A11.45,11.45,0,0,1,122.69,83.62Z"/><path class="cls-4" d="M121.24,93.08l.12-.84a5.43,5.43,0,0,1,2.1-3.57l14.91-11.23a23.22,23.22,0,0,1,14-4.67h19a23.22,23.22,0,0,1,13.77,4.52L200.4,88.52a2.18,2.18,0,0,1,.89,1.85l-.21,1.1.14,1.61a.58.58,0,0,1-.94.51L183.16,80a19.87,19.87,0,0,0-11.79-3.87h-19a20,20,0,0,0-12,4l-18.23,13.5A.57.57,0,0,1,121.24,93.08Z"/></g></svg>