<svg id="Layer_1" data-name="Layer 1" xmlns="http://www.w3.org/2000/svg" xmlns:xlink="http://www.w3.org/1999/xlink" viewBox="0 0 264 214"><defs><style>.cls-1,.cls-22{fill:none;}.cls-2{fill:#7541ee;isolation:isolate;opacity:0.2;}.cls-3{fill:#fff;}.cls-4{fill:#4f1b0c;}.cls-5{fill:#dbd3b4;}.cls-6{opacity:0.35;}.cls-7{fill:#bfab9b;}.cls-8{fill:#f9efde;}.cls-9{fill:#a87171;}.cls-10{fill:#f5f6f7;}.cls-11{fill:#28323a;}.cls-12{fill:#1a293f;}.cls-13{fill:#692916;}.cls-14{fill:#6b84b5;}.cls-15{fill:#365185;}.cls-16{fill:#cfd5e0;}.cls-17{fill:#82724e;}.cls-18{clip-path:url(#clip-path);}.cls-19{fill:#b3a178;}.cls-20{fill:#2c3559;}.cls-21{fill:#82321f;}.cls-22{stroke:#fff;stroke-miterlimit:10;stroke-width:1.7px;}</style><clipPath id="clip-path"><path class="cls-1" d="M251.55,233.06c-4.18-19.05-8-38.81-14-57.42-2.3-7.12-5.83-17.16-13-20.79-6.06-3.07-14.69-3.37-21.3-4.18a182.42,182.42,0,0,1-38.79-9.41c-2.17,2.33-.31,6.5,1.53,10.1-9.4,1.8-22.46,5.3-28.49,4.62-12.34-1.4-21.44-5.36-30.53-5.16,1.74-3.47,3.32-7.35,1.26-9.56a182.42,182.42,0,0,1-38.79,9.41c-6.61.81-15.24,1.11-21.3,4.18-7.17,3.63-10.7,13.67-13,20.79-6,18.61-9.83,38.37-14,57.42-2.83,12.89-3.71,23.29-1.62,36.39,1.92,12,9.57,38.26,11.84,42.51,4.72,8.86,13.81,17.34,16.15,13.85,2.74-4.09,10.54-9,14.81-5.65A9.54,9.54,0,0,0,64.1,318,33.25,33.25,0,0,0,70,326.88c10.74,11.61,31.94,12.88,46.51,9.91a163.56,163.56,0,0,1,38.42-2.88c9.06.3,18.23.5,26.8-2.94a38.45,38.45,0,0,0,19-15.72,17.75,17.75,0,0,1,8.15,6.14c2.34,3.5,14.86-4.16,19.58-13,2.27-4.25,22.77-26.95,24.69-38.92C255.26,256.35,254.38,246,251.55,233.06ZM64,267.22c-1,5.76-2.18,12-2.94,18.47A85.57,85.57,0,0,0,49.24,261.9c5.28,1,9.91-9.36,11.92-13.17,2.14-4.06,4.07-8.18,6-12.3,0,.65,0,1.3-.06,1.94A216.53,216.53,0,0,1,64,267.22ZM206.48,273c-1.52-9.38-4.24-18.61-5.68-28a95.43,95.43,0,0,1-.74-20.26c6.61,12.16,15.29,29.36,17.34,32.62C213.93,262.4,210.15,267.61,206.48,273Z"/></clipPath></defs><path class="cls-2" d="M75,0H264V217H95Z"/><path class="cls-3" d="M251.55,233.06c-4.18-19.05-8-38.81-14-57.42-2.3-7.12-5.83-17.16-13-20.79-6-3.06-14.64-3.37-21.24-4.18a2.57,2.57,0,0,0,.06-.4,6.91,6.91,0,0,0,1.58-2.84c.58-2.59-.32-5.28-1.47-7.68a37.22,37.22,0,0,0-3.64-6,8.13,8.13,0,0,1-1.33-2.2,6.75,6.75,0,0,1-.19-2.37c.14-3.25.55-6.52.1-9.74a27.3,27.3,0,0,0-2.25-7.26c-4-9-10.26-16.79-16.47-24.45l-.55-.67a36,36,0,0,0-2.23-8.56,42,42,0,0,0-5.26-8.9A86,86,0,0,0,164.33,61c-.67-2-.54-4.32-.89-6.41a.4.4,0,0,0,.09-.29L163.42,53l.16-.83a1.64,1.64,0,0,0-.67-1.41l-.13-.1c.61-3.44-1.11-7-3.68-9.45-2.73-2.55-6.26-4-9.71-5.48l-2.85-1.19A62.15,62.15,0,0,0,136,30.9a20.72,20.72,0,0,0-11.05.31,23.74,23.74,0,0,0-4.63,2.29,110.45,110.45,0,0,0-13.48,10.14,11.38,11.38,0,0,0-3.09,3.4,8.76,8.76,0,0,0-.6,5.3,4.23,4.23,0,0,0-.41,1.26l-.09.65a.41.41,0,0,0,.23.43,34.71,34.71,0,0,0-1.73,4.12l-2.23,6c-1.77,2-3.48,4-5.06,6.16a42.5,42.5,0,0,0-5.27,8.9,37,37,0,0,0-2.23,8.56c-.18.22-.36.45-.55.67-6.21,7.66-12.49,15.43-16.47,24.45a28.05,28.05,0,0,0-2.25,7.26c-.44,3.22,0,6.49.11,9.73a6.71,6.71,0,0,1-.2,2.37,7.91,7.91,0,0,1-1.32,2.21,35.85,35.85,0,0,0-3.64,6c-1.15,2.4-2.05,5.09-1.48,7.68A6.94,6.94,0,0,0,62,151.47c-4.88.56-9.93,1.38-13.89,3.38-7.17,3.63-10.7,13.67-13,20.79-6,18.61-9.83,38.37-14,57.42-2.83,12.89-3.71,23.29-1.62,36.39,1.92,12,9.57,38.26,11.84,42.51,4.73,8.86,13.81,17.34,16.15,13.85l.35-.48a39.06,39.06,0,0,1,2.48,4.92c.77,1.94,1.32,4,2,6a127.23,127.23,0,0,0,7.8,17.66A8.29,8.29,0,0,0,60.8,355a9.7,9.7,0,0,1-.6,2.37c0,.38.33.58.73.67l-2,11.93c-.53,3.14,1.12,6.07,1,9.25A7.45,7.45,0,0,1,59,383.1c-.42.64-1,1.11-1.49,1.72-1.39,1.88-.89,4.47-1,6.8-.31,4.82-3.54,9.77-3.41,14.59,0,1.23.29,2.45.21,3.68a16.89,16.89,0,0,1-1.14,4.2,147.54,147.54,0,0,0-3.61,16.63h75.56c1-6.4,2.08-13,3.26-20.12.56,1.14,1.15,9.81,1.87,20.12H199.3c-.87-14.3-1.87-26.88-1.54-28.49a38.47,38.47,0,0,0,.42-9.23q-.5-14.19-1-28.39c-.1-2.9-.21-5.81-.38-8.71a1.1,1.1,0,0,0,.84-.55c.12-.3-.17-.92,0-1.19s.43-.33.57-.56a.79.79,0,0,0-.31-1,2.33,2.33,0,0,0-1.14-.29h-.22c-.06-.65-.14-1.3-.21-1.95A123.54,123.54,0,0,0,204,333.09c.65-2,1.2-4,2-6a44.72,44.72,0,0,1,3-5.76l0,0c2.34,3.5,14.86-4.16,19.58-13,2.27-4.25,22.77-26.95,24.69-38.92C255.26,256.35,254.38,246,251.55,233.06ZM62.3,320.16a10.07,10.07,0,0,0,1.8-2.23,34.21,34.21,0,0,0,3.33,5.83c-.18.88-.35,1.77-.54,2.69-.28-.27-.6-.5-.86-.79a32.34,32.34,0,0,1-3.45-4.83l-.49-.8Zm-1.14-71.43c2.13-4,4.06-8.16,6-12.27,0,.64,0,1.28,0,1.91A216.53,216.53,0,0,1,64,267.22c-1,5.76-2.18,12.07-2.94,18.49A85.68,85.68,0,0,0,49.24,261.9C54.52,262.85,59.15,252.54,61.16,248.73Zm145.32,24.34c-1.51-9.39-4.23-18.64-5.68-28a95.8,95.8,0,0,1-.73-20.23c6.62,12.16,15.28,29.33,17.33,32.59C213.93,262.4,210.16,267.65,206.48,273.07Z"/><path class="cls-3" d="M141.18,417.9h44.45c-.87-13.45-.95-15.71-.42-18.27a30.27,30.27,0,0,0,.16-6.18l-1-28.39c-.1-2.79-.2-5.59-.37-8.39l-.23-3.31c0-.3-.06-.6-.09-.89l-.47-4.57.24-.47-.09-1.52,1-.23.57-1.12a113.89,113.89,0,0,0,6.86-15.43l.51-1.63c.47-1.54,1-3.29,1.74-5.12a56.26,56.26,0,0,1,3.8-7.48l9.75-16.66,6.19,8.25a16.68,16.68,0,0,0,3.42-4.16c1.1-2.05,2.75-4.2,6.39-8.86,4-5.1,16.08-20.6,16.95-26,1.67-10.49,1.27-19.06-1.49-31.63h0q-1.11-5.09-2.21-10.22c-3.29-15.39-6.71-31.3-11.46-46-3.36-10.37-5.57-12.78-6.59-13.3-2.78-1.41-8.35-2-12.83-2.43-1.45-.15-2.86-.3-4.2-.46l-14.39-1.77,3.33-13.33.33-3.41.45-.5a23.54,23.54,0,0,0-1.91-3,19.74,19.74,0,0,1-3.24-5.92,19,19,0,0,1-.8-6.84c0-.88.09-1.74.14-2.61a27.41,27.41,0,0,0,.07-4.82,15.77,15.77,0,0,0-1.28-3.87c-3.31-7.5-9.09-14.63-14.69-21.53L167,92.36l-.51-3.46a23.69,23.69,0,0,0-1.4-5.54,29.62,29.62,0,0,0-3.73-6.17,75.48,75.48,0,0,0-6.23-7.35l-2-2.08L152.17,65a28.06,28.06,0,0,1-1.25-7,.45.45,0,0,1,0-.11l-2-1.49,1-6.15a30.38,30.38,0,0,0-5.41-2.63l-2.84-1.19a51.45,51.45,0,0,0-8.35-3,8,8,0,0,0-4.16-.09,14.28,14.28,0,0,0-2.17,1.13,66.51,66.51,0,0,0-6.75,4.79l.13.07-6.17,11.44c-.22.41-.61,1.45-.84,2.07l-3.24,8.65-1.59,1.78c-1.77,2-3.14,3.66-4.32,5.25a30,30,0,0,0-3.72,6.17A23.69,23.69,0,0,0,99,90.23l-.51,3.48-2.76,3.4c-5.61,6.91-11.4,14-14.71,21.55a15.6,15.6,0,0,0-1.28,3.86,28.43,28.43,0,0,0,.07,4.82c.06.86.11,1.73.15,2.59a19.21,19.21,0,0,1-.8,6.86,19.54,19.54,0,0,1-3.15,5.79,26.19,26.19,0,0,0-2,3.22l13.26,15.69-23.79,2.72c-1.92.22-7,.8-9.56,2.08-1,.51-3.23,2.93-6.59,13.3-4.75,14.68-8.16,30.57-11.46,45.94q-1.09,5.16-2.22,10.27c-.79,3.6-1.38,6.87-1.79,10l14.93,2.67c.91-1.52,1.84-3.35,2.31-4.25l.73-1.43c2-3.71,3.74-7.5,5.7-11.71L81.67,175l-1.73,62.49c0,.48,0,1,0,1.43a230.15,230.15,0,0,1-3.28,30.54l-.48,2.73c-.86,4.92-1.76,10-2.36,15.07l-2,16.67,4,8.75a21.15,21.15,0,0,0,2,3.63l3.27,4.53-5.67,28.37-3.75,22.25c.06.29.13.58.2.88a27.93,27.93,0,0,1,.8,7.62,19.44,19.44,0,0,1-3,10.32l-.34.48c0,.59,0,1.17-.06,1.75A38.3,38.3,0,0,1,67,402.53a26.06,26.06,0,0,0-1,3.5h0a2,2,0,0,1,.06.37,25.46,25.46,0,0,1,.13,4.35,24.45,24.45,0,0,1-1.56,6.8l-.12.35H113.2c.49-3,1-6.15,1.53-9.38l6.44-39.14,17.68,35.51C140.05,407.28,140.49,409.31,141.18,417.9Zm69.23-13.53-.09.45C210.34,404.7,210.38,404.55,210.41,404.37Zm29.38-90,0,.07ZM36.77,287l14.35,9.88-2.31-7.37A72.91,72.91,0,0,0,38.7,269.2l-7.47-10.78a76.11,76.11,0,0,0,.93,9C32.94,272.32,34.8,279.86,36.77,287ZM73.14,147.71Zm41.14-93.57Zm35.87-5.7,0,.18ZM199,307l-5.13-31.88c-.67-4.18-1.62-8.4-2.63-12.87-1.11-4.91-2.25-10-3.06-15.26a108.07,108.07,0,0,1-.85-22.93l2.62-44.77,21.44,39.4c3.12,5.74,6.65,12.5,9.77,18.47,2.81,5.38,6.31,12.08,7.15,13.42l4.49,7.16-4.81,7c-1.33,1.91-2.7,3.86-4.09,5.83-2.23,3.17-4.51,6.42-6.76,9.74Z"/><path class="cls-3" d="M39.11,438.64l1.65-9.3c1.59-8.93,2.83-14.58,3.91-17.78l.39-1.11.37-1-.11-1.1c-.08-.79-.12-1.38-.13-1.91-.11-4,1.08-7.49,2.14-10.58a21.57,21.57,0,0,0,1.27-4.62v-.15c0-.35,0-.69,0-1v-.19c0-2.35,0-5.91,2.26-9.29L52,379l-.29-2.08,0-.19a20.36,20.36,0,0,1-.5-8l1.48-8.76-.16-.86a8.44,8.44,0,0,1-.14-1.82l0-1.22-.55-1.1a118.94,118.94,0,0,1-7-16.29c-.21-.63-.4-1.27-.6-1.91l-.71-2.31-2.12-.89c-9.48-4-16.9-17.71-17-17.85-3.07-5.76-10.77-33.08-12.67-45-2.08-13-1.58-24.38,1.7-39.34q1.11-5.06,2.2-10.18c3.41-15.87,6.93-32.29,12-48,2.28-7,6.52-20.14,17-25.41a32.57,32.57,0,0,1,5.23-2.06l2.62-.79.71-2.64a25,25,0,0,1,1.77-4.63,44.26,44.26,0,0,1,3.42-5.93l.86-1.25v-1.88l0-.16a42.71,42.71,0,0,1,.11-8.79,35.4,35.4,0,0,1,2.84-9.36c4-9.17,10.14-17.07,16-24.36l.75-.92.24-1.15a41.38,41.38,0,0,1,2.14-7.08,51.16,51.16,0,0,1,6.22-10.58c1.18-1.6,2.48-3.22,4-4.95L92,60.6l1.86-5c.19-.52.42-1.13.69-1.8l.22-.54.11-.75A4.68,4.68,0,0,1,95,52l.09-.51V51a16.57,16.57,0,0,1,1.59-7.46,18.58,18.58,0,0,1,5.11-6,118.05,118.05,0,0,1,14.45-10.83,32,32,0,0,1,6.17-3,25.53,25.53,0,0,1,8.31-1.34,32.94,32.94,0,0,1,7,.78,69.77,69.77,0,0,1,11.91,4.09l2.87,1.2c3.68,1.53,8.26,3.44,12.07,7a19.32,19.32,0,0,1,6.26,12.46l0,.61.2.57a9.37,9.37,0,0,1,.48,3.41l-.06,1.23V54c0,.17,0,.33,0,.5v.27l.22,2.44,1.07,1.21c1.9,2.13,3.67,4.32,5.27,6.49a50.46,50.46,0,0,1,6.22,10.58,40.39,40.39,0,0,1,2.15,7.07l.24,1.16.74.92c5.9,7.3,12,15.19,16,24.36a35.9,35.9,0,0,1,2.84,9.36,43.87,43.87,0,0,1,.09,9v1.83l.86,1.26a44.89,44.89,0,0,1,3.42,5.93,25.64,25.64,0,0,1,1.7,4.38l.85,3,3.09.5a40.67,40.67,0,0,1,11.86,3.55c10.44,5.27,14.68,18.37,17,25.41,5.08,15.69,8.61,32.11,12,48l.24,1.11q1,4.55,2,9.05c3.28,15,3.78,26.37,1.7,39.34-1.58,9.9-10.87,22.45-21.07,35.53-2.14,2.74-3.69,4.74-4.33,5.7l0,.05h0v0l-.09.17-.09.17c-4,7.35-12.51,14.68-19.79,17.06l-2.39.78-.76,2.39-.34,1.1c-.2.65-.4,1.28-.6,1.91A102.18,102.18,0,0,1,206.32,348l-.75,1.57.39,1.68a8.65,8.65,0,0,1-.42,5.33l-.14.34-.09.36c0,.16-.09.32-.15.49l-.29.87,0,.91c.07,1.57.13,3.13.18,4.7l1,28.43a48.06,48.06,0,0,1-.41,10.22l-.07.45-.08.38h.08v.06c0,2.35.44,8.59.84,14.63.23,3.63.5,7.63.75,11.77l.5,8.4Zm95.35-31.56c.79,1.58,1.18,3,1.83,11.21l.35,4.52h54.23l-.34-5.23c-.84-12.84-.91-15.06-.52-17a32.48,32.48,0,0,0,.26-7.28l-1-28.45c-.1-3-.21-5.73-.37-8.51l-.24-3.36c0-.34,0-.63-.09-.92l-.33-3.27.18-.37h0l.85-1.69a116.43,116.43,0,0,0,7.15-16.13c.17-.53.34-1.06.5-1.58l0-.11c.47-1.51,1-3.13,1.62-4.75a50.32,50.32,0,0,1,3.48-6.83l6-10.28,5,6.67,4-3.65a21.78,21.78,0,0,0,4.44-5.47c.9-1.69,2.56-3.84,5.93-8.16,11.81-15.13,17.17-23.59,17.92-28.27,1.78-11.17,1.37-20.23-1.53-33.46-.7-3.15-1.38-6.32-2.06-9.5l-.15-.7c-3.32-15.5-6.75-31.52-11.6-46.47-4-12.22-6.79-15-9-16.17-3.59-1.81-9.39-2.41-14.51-2.93-1.45-.15-2.82-.29-4.12-.45l-8.89-1.09,2.07-8.31.21-2.18,1.65-1.86-1.6-3a29.66,29.66,0,0,0-2.3-3.63A14.93,14.93,0,0,1,191,134a14.11,14.11,0,0,1-.57-5.12c0-.85.09-1.67.14-2.5a30.67,30.67,0,0,0,0-5.82,19.92,19.92,0,0,0-1.65-5.16c-3.57-8.11-9.57-15.5-15.37-22.64l-1.92-2.39-.32-2.13a28.73,28.73,0,0,0-1.71-6.7,34.44,34.44,0,0,0-4.32-7.21,79,79,0,0,0-6.65-7.84l-1.24-1.29-.56-1.69a23.29,23.29,0,0,1-1-5.87v0l-.12-2.32-1.48-1.1,1-6.19-2.45-1.76a33,33,0,0,0-6.38-3.17l-2.85-1.2a56.83,56.83,0,0,0-9.2-3.24,17.57,17.57,0,0,0-3.59-.41,9.91,9.91,0,0,0-3.22.48,16.58,16.58,0,0,0-3.1,1.57,70.5,70.5,0,0,0-7.26,5.15l-5.93,4.69,2.43,1.27-3.8,7.06a22.16,22.16,0,0,0-1.12,2.67l-2.92,7.8-1,1.1c-1.88,2.11-3.34,3.89-4.6,5.6a34.08,34.08,0,0,0-4.32,7.21,28.7,28.7,0,0,0-1.72,6.7l-.31,2.14L92,94c-5.81,7.14-11.81,14.53-15.39,22.65a20.23,20.23,0,0,0-1.65,5.16,31.42,31.42,0,0,0,0,5.81c.06.83.11,1.67.15,2.5a14.36,14.36,0,0,1-.57,5.13,14.55,14.55,0,0,1-2.41,4.36,29.71,29.71,0,0,0-2.45,3.86l-1.55,2.93,9.48,11.23-14.68,1.67c-3.68.42-8.28,1.1-11.22,2.58-2.25,1.14-5.08,4-9,16.17C37.82,193,34.39,209,31.07,224.5l-.07.32q-1.07,5-2.15,9.93c-.73,3.35-1.29,6.37-1.7,9.18l-1.54-2.21.72,16.91a80.18,80.18,0,0,0,1,9.57c1,6.15,3.38,15.25,4.72,20.13l.47,1.72L60,309,53.5,288.07a78.23,78.23,0,0,0-10.76-21.66L31.87,250.74l17.38,3.12L51,251c1-1.66,2-3.6,2.46-4.53l.73-1.42c2-3.79,3.8-7.62,5.79-11.88l16.14-34.63L75,237.32c0,.48,0,.92,0,1.37a226.87,226.87,0,0,1-3.21,29.89l-.48,2.73c-.88,5-1.78,10.12-2.4,15.33l-2.13,18,4.54,10a25.69,25.69,0,0,0,2.53,4.46l2,2.8L70.6,348.35l-3.9,23.13.17.87c0,.24.1.48.15.71l.06.27a23.45,23.45,0,0,1,.7,6.33,14.77,14.77,0,0,1-2.16,7.85c-.08.12-.15.22-.23.32l-.92,1.28v1.57c0,.49,0,1,0,1.47a34,34,0,0,1-2.1,8.78A22,22,0,0,0,61,405.6l-.47,5.33h.6a21.17,21.17,0,0,1-1.24,5l-2.39,6.89h59.85l.66-4.13c.49-3,1-6.13,1.53-9.36l4-24.17Zm64.21-132.75c-.7-4.31-1.66-8.58-2.68-13.1-1.1-4.89-2.23-9.87-3-15a103,103,0,0,1-.81-21.9l1.63-27.64L207,221c3.13,5.76,6.79,12.77,9.73,18.41,3.62,6.93,6.46,12.34,7.34,13.74l2.78,4.43-3,4.31c-1.31,1.9-2.67,3.83-4.06,5.8l-.21.3c-2.16,3.07-4.4,6.26-6.6,9.5L201.83,294Z"/><path class="cls-4" d="M122.64,134.16c2.72,0,5.7,0,7.8-1.79a8.56,8.56,0,0,0,2.5-4.2c2-6.63-.15-13.7-1.09-20.56-1.53-11.08.08-22.73-3.88-33.19-2.77-7.32-8-13.38-13.2-19.26A13.9,13.9,0,0,0,112,52.53c-.48,3.92-4.19,6.47-6.87,9.38-4.3,4.67-6.25,11-8,17.09-2.41,8.18-4.77,16.43-5.63,24.92s-.15,17.3,3.38,25.06c2.08,4.59,5.15,8.76,6.9,13.46C106.08,135.78,115.29,134.3,122.64,134.16Z"/><path class="cls-4" d="M154.91,75.47c-1.81,5.8-3.45,11.64-5.1,17.49a91,91,0,0,0-2.93,12.68c-1.11,8.43.15,17.15-1.95,25.38,5.07-2.26,9.09,19,14.63,18.58,1.65-.11,4.82-22.75,6.28-23.51,2.25-1.16,3.38-3.68,4.23-6.06a72.2,72.2,0,0,0,1.61-42.95c-1.08-4-3.4-11-7.67-12.7C158.63,62.18,156.14,71.52,154.91,75.47Z"/><path class="cls-5" d="M152.86,108.91V109l-1,32.56L144,151.85l-.38-.14L116.4,141.54s-.13-29.73,0-30.38l27.71-1.66h.14Z"/><g class="cls-6"><polygon class="cls-7" points="152.86 108.98 151.89 141.54 144.03 151.85 143.65 151.71 131.27 135.05 117 118.13 144.11 109.5 144.25 109.49 152.86 108.98"/></g><path class="cls-8" d="M162.08,87.14a6.37,6.37,0,0,1-.84,3.4l-3.4,13.3a16.28,16.28,0,0,1-4.92,11.77l-8.28,7.89a5.33,5.33,0,0,1-3.7,1.5H128a5.33,5.33,0,0,1-3.18-1.06l-7.8-5.81a15.94,15.94,0,0,1-6.18-10.95l-5.6-14.56a6.25,6.25,0,0,1-1-3.58c0-2,.07-5.08,0-6.5-.16-1.83-.05-11.31,0-14.47a6.39,6.39,0,0,1,.33-2L108.2,55.2a5.87,5.87,0,0,1,2.14-2.92l20.39-14.65a5.27,5.27,0,0,1,4.16-.91l17.48,3.65a5.79,5.79,0,0,1,4.33,4.33L161.05,62a6.56,6.56,0,0,1,.18,1.34Z"/><path class="cls-5" d="M131.51,125H128a5.33,5.33,0,0,1-3.18-1.06l-7.8-5.81a15.94,15.94,0,0,1-6.18-10.95l-5.6-14.56a6.25,6.25,0,0,1-1-3.58c0-2,.07-5.08,0-6.5-.16-1.83-.05-11.31,0-14.47a6.39,6.39,0,0,1,.33-2L108.2,55.2a5.87,5.87,0,0,1,2.14-2.92l20.39-14.65a5.28,5.28,0,0,1,1.88-.87c0,5.51-2.8,8.89-2.3,16.7.05.89.17,3.83.28,8.41,0,.48-.89.63-.82,2,0,.82.88,1.43.88,1.8,0,.91,0,.19,0,1.14,0,.42-.58.81-.66,1.56-.13,1.22.69,1.49.69,1.91,0,4,0,8.23,0,12.19-.14,6.47-.32,10.08.12,13.8.08.69-4.38-2.4-3.55,1.27.4,1.77,4.86,5.33,4.49,6.38-1,2.9,1.16,5.61.88,7.17s-1.37,3.27-1.61,5.09A21,21,0,0,0,131.51,125Z"/><path class="cls-9" d="M134.6,107.85l-1.86-1.68s-.72-.71-.77-.72a8.3,8.3,0,0,0-1.32,0,39.86,39.86,0,0,1-4,2.23,14.89,14.89,0,0,1-1.62-.87l-1.21,2.44s2.86-1.32,3-1.32Z"/><path class="cls-9" d="M131.65,107.85l2-1.68s.76-.71.81-.72a9.47,9.47,0,0,1,1.41,0,42.84,42.84,0,0,0,4.28,1.53c.28-.07,1.67-.17,1.67-.17l1.29,2.44s-3.05-1.32-3.25-1.32Z"/><path class="cls-10" d="M112.54,81s5.95-1,8.18-.3a14,14,0,0,1,4.13,2.46c.53.32,1.68.7,1.32,1.07s-1.61.49-2.33.83-6.71,1.19-9.64-.76S112.54,81,112.54,81Z"/><ellipse class="cls-11" cx="119.49" cy="83.25" rx="2.66" ry="2.34" transform="translate(-1.01 1.46) rotate(-0.7)"/><path class="cls-12" d="M126.36,81.83a14.49,14.49,0,0,0-1.94-1.43l-.51-.29c-.16-.09-.34-.16-.54-.25-.39-.16-.77-.31-1.15-.43s-.78-.22-1.19-.31a11.74,11.74,0,0,0-1.21-.19,19,19,0,0,0-2.51-.12,13.07,13.07,0,0,0-4.72.76,2.46,2.46,0,0,0-.75.44c-.14.14-.15.24-.13.31s.44.42,1.08.36l-.18,0a21.11,21.11,0,0,1,3.6-.52,14.53,14.53,0,0,1,3.66.2,9.75,9.75,0,0,1,3.32,1.29c.49.29.92.65,1.37,1a8.23,8.23,0,0,0,1.44.77h0a1.31,1.31,0,0,1,.36.38.61.61,0,0,1,.07.28.47.47,0,0,1-.16.29,2.42,2.42,0,0,1-1,.32l-1.84.46a18.4,18.4,0,0,1-3.87.52,23.7,23.7,0,0,1-3.94-.31A10.12,10.12,0,0,1,111.74,84l1.39-1.21A6.4,6.4,0,0,0,116,84.37a16.94,16.94,0,0,0,3.64.66,14.67,14.67,0,0,0,3.73-.27c.62-.11,1.22-.28,1.86-.41a2.66,2.66,0,0,0,.8-.21c.13,0,0-.3-.23-.45l0,0a13,13,0,0,1-1.53-.79,10.74,10.74,0,0,0-1.4-.86,7.7,7.7,0,0,0-3.17-.8,15.37,15.37,0,0,0-3.3.27c-1.09.2-2.2.45-3.23.74l-.08,0H113a4,4,0,0,1-1.82-.19,2.24,2.24,0,0,1-1.39-1.38,1.8,1.8,0,0,1,.53-1.79,2.91,2.91,0,0,1,.69-.52,4.4,4.4,0,0,1,.69-.34,10.42,10.42,0,0,1,2.83-.68,18.6,18.6,0,0,1,2.79-.1,21.53,21.53,0,0,1,2.76.29,13.58,13.58,0,0,1,2.66.77A12.39,12.39,0,0,1,124,79c.18.11.39.22.59.35a5.64,5.64,0,0,1,.53.4,10.7,10.7,0,0,1,1.77,1.79Z"/><path class="cls-10" d="M152.08,81s-6-1-8.18-.3a13.76,13.76,0,0,0-4.13,2.46c-.53.32-1.69.7-1.33,1.07s1.61.49,2.34.83,6.71,1.19,9.64-.76S152.08,81,152.08,81Z"/><ellipse class="cls-11" cx="145.13" cy="83.25" rx="2.34" ry="2.66" transform="translate(60.11 227.35) rotate(-89.3)"/><path class="cls-12" d="M138.26,81.83a13.87,13.87,0,0,1,1.94-1.43l.51-.29c.16-.09.34-.16.54-.25.39-.16.77-.31,1.15-.43s.77-.22,1.19-.31a11.33,11.33,0,0,1,1.21-.19,18.86,18.86,0,0,1,2.5-.12,13.12,13.12,0,0,1,4.73.76,2.46,2.46,0,0,1,.75.44c.13.14.15.24.12.31s-.43.42-1.07.36l.17,0a20.86,20.86,0,0,0-3.59-.52,14.63,14.63,0,0,0-3.67.2,9.69,9.69,0,0,0-3.31,1.29c-.49.29-.93.65-1.37,1a8.6,8.6,0,0,1-1.44.77h0a1.27,1.27,0,0,0-.35.38.51.51,0,0,0-.07.28.43.43,0,0,0,.16.29,2.33,2.33,0,0,0,1,.32l1.84.46a18.4,18.4,0,0,0,3.87.52,23.7,23.7,0,0,0,3.94-.31A10.18,10.18,0,0,0,152.88,84l-1.39-1.21a6.46,6.46,0,0,1-2.85,1.58A17.05,17.05,0,0,1,145,85a14.63,14.63,0,0,1-3.73-.27c-.62-.11-1.23-.28-1.86-.41a2.66,2.66,0,0,1-.8-.21c-.14,0,0-.3.22-.45l0,0a12.16,12.16,0,0,0,1.52-.79,10.85,10.85,0,0,1,1.41-.86,7.66,7.66,0,0,1,3.17-.8,15.37,15.37,0,0,1,3.3.27c1.09.2,2.2.45,3.23.74l.08,0h.09a4,4,0,0,0,1.82-.19,2.24,2.24,0,0,0,1.39-1.38,1.8,1.8,0,0,0-.53-1.79,3.37,3.37,0,0,0-.69-.52,4.1,4.1,0,0,0-.7-.34,10.35,10.35,0,0,0-2.82-.68,18.69,18.69,0,0,0-2.79-.1,21.35,21.35,0,0,0-2.76.29,13,13,0,0,0-1.37.32,13.36,13.36,0,0,0-1.3.45,11.18,11.18,0,0,0-1.2.6c-.18.11-.39.22-.59.35s-.37.26-.54.4a11,11,0,0,0-1.76,1.79Z"/><path class="cls-12" d="M121.91,104.43a39,39,0,0,0,8.23-3.14c.59-.31,1.37-.62,1.87-.17a1.53,1.53,0,0,1,.38.71,13.26,13.26,0,0,1,.53,2.26,2.69,2.69,0,0,1,0,1,2.62,2.62,0,0,1-1.73,1.52,15.6,15.6,0,0,1-14.76-1.76,2.16,2.16,0,0,1-.89-1,.82.82,0,0,1,.58-1.07.63.63,0,0,1,.64.5,1,1,0,0,1-.3.67C117.64,105.37,120.37,104.83,121.91,104.43Z"/><path class="cls-12" d="M144.53,104a38.52,38.52,0,0,1-8.23-3.15c-.59-.31-1.37-.61-1.87-.17a1.65,1.65,0,0,0-.39.71,14.79,14.79,0,0,0-.52,2.26,2.51,2.51,0,0,0,0,1,2.66,2.66,0,0,0,1.73,1.53A15.57,15.57,0,0,0,150,104.47a2.12,2.12,0,0,0,.89-1,.82.82,0,0,0-.58-1.06.62.62,0,0,0-.64.5,1,1,0,0,0,.29.67C148.8,105,146.06,104.43,144.53,104Z"/><path class="cls-13" d="M60.55,148.76c-.57-2.59.33-5.28,1.48-7.68a35.85,35.85,0,0,1,3.64-6,8,8,0,0,0,1.32-2.2,6.79,6.79,0,0,0,.2-2.38c-.14-3.24-.55-6.51-.11-9.73a28.05,28.05,0,0,1,2.25-7.26c4-9,10.26-16.79,16.47-24.45l6-7.38c0,3,.9,6,1,9s-.57,6-.95,8.92c-.69,5.27-.45,10.62-1,15.9-.67,6.27-2.44,12.36-4.21,18.41a22.46,22.46,0,0,1-2.22,5.65A17.85,17.85,0,0,1,80,144.16,41.58,41.58,0,0,1,72,149a26,26,0,0,0-3.54,1.77c-.8.54-1.75,2.09-2.55,2.36C63.49,154,61,150.74,60.55,148.76Z"/><path class="cls-8" d="M127.59,95.42a1.23,1.23,0,0,0-.43,1,2.83,2.83,0,0,0,.32,1.07,7.77,7.77,0,0,0,1.79,2.35A15.08,15.08,0,0,0,130.8,101a4.61,4.61,0,0,0,1.57.81,3.1,3.1,0,0,0,1.94-.22,6.79,6.79,0,0,0,1.65-1.1c.33-.28.64-.58.95-.89a2.65,2.65,0,0,0,.69-1,2.14,2.14,0,0,0,0-1.15,2.55,2.55,0,0,0-1.15-1.74c-.94-.53-2.09-.21-3.16-.06a9.34,9.34,0,0,1-3.12-.07C129.56,95.45,128.18,95,127.59,95.42Z"/><path class="cls-12" d="M131.06,78.14c0,.1.2,7.72.2,7.72l.12,3.45.23,6.91,0,1L130.59,97h0l-3.15-1.26.48-.26h0l-.5,1.54,0-.3a11.29,11.29,0,0,0,2,2.62,10.36,10.36,0,0,0,2.66,1.92,2.73,2.73,0,0,0,1.46.28,2.63,2.63,0,0,0,1.35-.61c.84-.66,1.44-1.64,2.37-2.47l.52.6c-.8.7-1.43,1.71-2.4,2.49a3.43,3.43,0,0,1-1.74.78,3.6,3.6,0,0,1-1.88-.34,11.2,11.2,0,0,1-2.9-2.08,12.33,12.33,0,0,1-2.16-2.83l-.07-.14,0-.16.51-1.54h0l.06-.31.42,0,3.36.45h0l-1,.79.18-6.9.09-3.45,0-7.49Z"/><path class="cls-12" d="M139.71,114.62c.2,0,.33.26.21.42a.5.5,0,0,1-.55.14,1.5,1.5,0,0,1-1-1.33,16.84,16.84,0,0,1,0-1.74,1.82,1.82,0,0,0-.7-1.52,2,2,0,0,0-1.16-.21c-.33,0-1.71.21-2.93.21-1.79,0-3.59-.21-4.08-.21a2,2,0,0,0-1.16.21,1.79,1.79,0,0,0-.7,1.52,16.84,16.84,0,0,1,0,1.74,1.5,1.5,0,0,1-1,1.33.52.52,0,0,1-.56-.14c-.11-.16,0-.46.22-.42-.38-.37-1.1,0-1.14.57a1.47,1.47,0,0,0,.84,1.26,3,3,0,0,0,2.87.06,8.92,8.92,0,0,0,2-1.81,3.87,3.87,0,0,1,1.36-.75,2.13,2.13,0,0,1,1.45,0,3.87,3.87,0,0,1,1.36.75,8.92,8.92,0,0,0,2,1.81,3,3,0,0,0,2.87-.06,1.47,1.47,0,0,0,.84-1.26C140.81,114.66,140.09,114.25,139.71,114.62Z"/><path class="cls-12" d="M162.08,72.18c.06-1-.69-4.66-2-4.55a71.67,71.67,0,0,1,0,21c-1,7.09-7.68,17.36-13.82,18.6a1.18,1.18,0,0,0-.91,1.4,13.43,13.43,0,0,1,.26,3.27c-.09,2.26-3.18,7.83-7.6,5.27-1.35-.78-2.64-2.68-4-4a3.53,3.53,0,0,0-1.88,0c-1.2,1.31-2.59,3.22-3.92,4-4.42,2.56-7.51-3-7.61-5.27a13.6,13.6,0,0,1,0-2.33,1.5,1.5,0,0,0-1.07-1.62c-6.07-1.79-11.69-12.43-13.41-19.32-1.93-7.72-1-14.27,0-21.87-1.14-.1-1.55,1.12-2,2.19a14.83,14.83,0,0,0-.72,3.15c-1.12,11.6-.81,18.89,3.33,29.76.5,1.32,2.41,7,2.63,8.35.19,1.13.17,2.29.42,3.41a11.26,11.26,0,0,0,2,4,28.15,28.15,0,0,0,16.69,10.9c.93.2,7,.51,9.14,0a28.78,28.78,0,0,0,16.7-10.9,11.43,11.43,0,0,0,2-4c.25-1.12.22-2.28.41-3.41.23-1.4,2.13-7,2.64-8.35C163.61,91,161.43,84.27,162.08,72.18Z"/><path class="cls-12" d="M126.57,72.15a5.41,5.41,0,0,0-3-1.77,5,5,0,0,0-2-.16c-.91.15-1.73.69-2.65.77a6.19,6.19,0,0,1-1.42-.11c-2.18-.32-4.64-.35-6.32,1.07a4.74,4.74,0,0,0-1.57,2.79.5.5,0,0,0,0,.21.39.39,0,0,0,.53.2,1.29,1.29,0,0,0,.46-.44,4.6,4.6,0,0,1,3.6-1.67c1.53,0,2.93.83,4.43,1.08,1.24.21,2.52,0,3.77.19a7.5,7.5,0,0,1,3,1.06,2.07,2.07,0,0,0,.65.32C127.67,76,127.07,72.81,126.57,72.15Z"/><path class="cls-12" d="M138.71,71.39a5.36,5.36,0,0,1,3-1.77,5,5,0,0,1,1.95-.16c.91.14,1.73.68,2.65.77a6.32,6.32,0,0,0,1.43-.11c2.18-.33,4.63-.35,6.31,1.07A4.63,4.63,0,0,1,155.66,74a.38.38,0,0,1,0,.21.39.39,0,0,1-.54.19,1.44,1.44,0,0,1-.46-.43,4.56,4.56,0,0,0-3.6-1.67c-1.52,0-2.92.83-4.43,1.08-1.24.2-2.52,0-3.76.19a7.34,7.34,0,0,0-3,1.06,2,2,0,0,1-.64.32C137.61,75.24,138.22,72.05,138.71,71.39Z"/><path class="cls-13" d="M204.94,147.43c.58-2.59-.32-5.28-1.47-7.68a37.22,37.22,0,0,0-3.64-6,8.13,8.13,0,0,1-1.33-2.2,6.75,6.75,0,0,1-.19-2.37c.14-3.25.55-6.52.1-9.74a27.3,27.3,0,0,0-2.25-7.26c-4-9-10.26-16.79-16.47-24.45l-6-7.38c0,3-.91,6-1,9s.56,6,.95,8.92c.68,5.27.45,10.62,1,15.9.66,6.27,2.44,12.36,4.21,18.41a22.46,22.46,0,0,0,2.22,5.65,17.85,17.85,0,0,0,4.42,4.59,41,41,0,0,0,8,4.84,25.3,25.3,0,0,1,3.53,1.77c.81.54,1.76,2.09,2.55,2.36C202,152.64,204.5,149.41,204.94,147.43Z"/><path class="cls-14" d="M134.73,148.07c.51,2.12.41,4.35,1,6.44a45.42,45.42,0,0,0-6.32,1.3,1.92,1.92,0,0,1-2.19-.42,6.34,6.34,0,0,1-2.15-2.37,4.66,4.66,0,0,1-.17-2.79,12.65,12.65,0,0,1,1-2.64,14.18,14.18,0,0,1,1.84-3.09c.45-.54,1-1,1.44-1.53s.91-1.67,1.76-1a10,10,0,0,1,1.68,1.76A11.58,11.58,0,0,1,134.73,148.07Z"/><circle class="cls-15" cx="131.88" cy="152.88" r="1.69"/><circle class="cls-16" cx="131.88" cy="152.88" r="1.51"/><circle class="cls-15" cx="131.53" cy="152.58" r="0.18"/><circle class="cls-15" cx="132.23" cy="152.58" r="0.18"/><circle class="cls-15" cx="131.53" cy="153.18" r="0.18"/><circle class="cls-15" cx="132.23" cy="153.18" r="0.18"/><path class="cls-14" d="M134,149.44c-1,2.74-1,5.24-2.81,7.62a17.06,17.06,0,0,0,7.87,1.22,30.36,30.36,0,0,0,10.15-1.68,14.39,14.39,0,0,0,7.75-6.5,6.33,6.33,0,0,0,.78-4.13,5.63,5.63,0,0,0-2.73-3.54,12.49,12.49,0,0,0-4.35-1.41c-3.45-.58-10.76-.92-12.84,1.44A17.79,17.79,0,0,0,134,149.44Z"/><path class="cls-17" d="M107.9,141.34c.3-.19,1-.67.32-.08a182.42,182.42,0,0,1-38.79,9.41c-6.61.81-15.24,1.11-21.3,4.18-7.17,3.63-10.7,13.67-13,20.79-6,18.61-9.83,38.37-14,57.42-2.83,12.89-3.71,23.29-1.62,36.39,1.92,12,9.57,38.26,11.84,42.51,4.72,8.86,13.81,17.34,16.15,13.85,2.74-4.09,10.54-9,14.81-5.65,7.4-6.63,2.07-22.13,0-30.12A85.28,85.28,0,0,0,49.24,261.9c5.28,1,9.91-9.36,11.92-13.17,5.62-10.66,9.82-21.72,16-32.11,5.86-9.77,10.87-20.14,16.27-30.18,5.17-9.61,7.7-19.95,10.93-30.28,1.13-3.61,7.09-11.37,3.81-14.9"/><path class="cls-17" d="M164.77,141.34c-.3-.19-1-.67-.32-.08a182.42,182.42,0,0,0,38.79,9.41c6.61.81,15.24,1.11,21.3,4.18,7.17,3.63,10.7,13.67,13,20.79,6,18.61,9.83,38.37,14,57.42,2.83,12.89,3.71,23.29,1.62,36.39-1.92,12-22.42,34.67-24.69,38.92-4.72,8.86-17.24,16.52-19.58,13-2.74-4.08-10.54-9-14.81-5.64-7.4-6.64.12-22.61,4.22-29.78,5.8-10.14,12.93-19.69,19.09-28.58-2.58-4.11-15.71-30.38-21.94-40.77-5.86-9.77-10.87-20.14-16.27-30.18-5.17-9.61-7.7-19.95-10.93-30.28-1.13-3.61-7.1-11.37-3.81-14.9"/><path class="cls-17" d="M83,168.4c-9-1.16-12.31,16.85-13.77,22.75-1.91,7.7-1.3,16.62-1.68,24.54-.36,7.51-.11,15.14-.41,22.68A216.53,216.53,0,0,1,64,267.22c-3.31,19-8.61,43.89,6,59.66,10.74,11.61,31.94,12.88,46.51,9.91a163.56,163.56,0,0,1,38.42-2.88c9.06.3,18.23.5,26.8-2.94,22.78-9.15,27.89-31.56,25.38-53.52-1.24-10.91-4.62-21.56-6.29-32.42-1.8-11.71-.78-23.51.78-35.18,1.51-11.28,3.83-22.53,1.48-33.85-1.68-8.1-5.88-14-12.19-19.16-5.29-4.37-10.5-6.65-17.41-6.49-7.94.18-28,6.52-36,5.63-20.72-2.34-32.33-11.93-50,3.11"/><g class="cls-18"><polygon class="cls-19" points="12.39 118.72 21.67 130.38 13.63 142.93 4.36 131.27 12.39 118.72"/><polygon class="cls-19" points="29.71 117.83 38.98 129.5 30.94 142.05 21.67 130.38 29.71 117.83"/><polygon class="cls-19" points="47.02 116.94 56.29 128.61 48.26 141.16 38.98 129.5 47.02 116.94"/><polygon class="cls-19" points="64.33 116.06 73.6 127.73 65.57 140.28 56.29 128.61 64.33 116.06"/><polygon class="cls-19" points="81.64 115.17 90.92 126.84 82.88 139.39 73.6 127.73 81.64 115.17"/><polygon class="cls-19" points="98.95 114.29 108.23 125.96 100.19 138.51 90.92 126.84 98.95 114.29"/><polygon class="cls-19" points="116.26 113.4 125.54 125.07 117.5 137.62 108.23 125.96 116.26 113.4"/><polygon class="cls-19" points="13.63 142.93 22.91 154.6 14.87 167.15 5.6 155.48 13.63 142.93"/><polygon class="cls-19" points="30.94 142.05 40.22 153.71 32.18 166.26 22.91 154.6 30.94 142.05"/><polygon class="cls-19" points="48.26 141.16 57.53 152.83 49.49 165.38 40.22 153.71 48.26 141.16"/><polygon class="cls-19" points="65.57 140.28 74.84 151.94 66.81 164.5 57.53 152.83 65.57 140.28"/><polygon class="cls-19" points="82.88 139.39 92.15 151.06 84.12 163.61 74.84 151.94 82.88 139.39"/><polygon class="cls-19" points="100.19 138.51 109.47 150.17 101.43 162.72 92.15 151.06 100.19 138.51"/><polygon class="cls-19" points="117.5 137.62 126.78 149.29 118.74 161.84 109.47 150.17 117.5 137.62"/><polygon class="cls-19" points="14.87 167.15 24.15 178.82 16.11 191.37 6.83 179.7 14.87 167.15"/><polygon class="cls-19" points="32.18 166.26 41.46 177.93 33.42 190.48 24.15 178.82 32.18 166.26"/><polygon class="cls-19" points="49.49 165.38 58.77 177.05 50.73 189.6 41.46 177.93 49.49 165.38"/><polygon class="cls-19" points="66.81 164.5 76.08 176.16 68.04 188.71 58.77 177.05 66.81 164.5"/><polygon class="cls-19" points="84.12 163.61 93.39 175.28 85.36 187.83 76.08 176.16 84.12 163.61"/><polygon class="cls-19" points="101.43 162.72 110.7 174.39 102.67 186.94 93.39 175.28 101.43 162.72"/><polygon class="cls-19" points="118.74 161.84 128.02 173.5 119.98 186.06 110.7 174.39 118.74 161.84"/><polygon class="cls-19" points="16.11 191.37 25.38 203.03 17.35 215.59 8.07 203.92 16.11 191.37"/><polygon class="cls-19" points="33.42 190.48 42.7 202.15 34.66 214.7 25.38 203.03 33.42 190.48"/><polygon class="cls-19" points="50.73 189.6 60.01 201.26 51.97 213.81 42.7 202.15 50.73 189.6"/><polygon class="cls-19" points="68.04 188.71 77.32 200.38 69.28 212.93 60.01 201.26 68.04 188.71"/><polygon class="cls-19" points="85.36 187.83 94.63 199.49 86.59 212.04 77.32 200.38 85.36 187.83"/><polygon class="cls-19" points="102.67 186.94 111.94 198.61 103.91 211.16 94.63 199.49 102.67 186.94"/><polygon class="cls-19" points="119.98 186.06 129.25 197.72 121.22 210.27 111.94 198.61 119.98 186.06"/><polygon class="cls-19" points="51.97 213.81 61.25 225.48 53.21 238.03 43.93 226.37 51.97 213.81"/><polygon class="cls-19" points="69.28 212.93 78.56 224.6 70.52 237.15 61.25 225.48 69.28 212.93"/><polygon class="cls-19" points="86.59 212.04 95.87 223.71 87.83 236.26 78.56 224.6 86.59 212.04"/><polygon class="cls-19" points="103.91 211.16 113.18 222.82 105.14 235.38 95.87 223.71 103.91 211.16"/><polygon class="cls-19" points="121.22 210.27 130.49 221.94 122.46 234.49 113.18 222.82 121.22 210.27"/><polygon class="cls-19" points="133.41 112.61 142.69 124.28 134.65 136.83 125.37 125.16 133.41 112.61"/><polygon class="cls-19" points="150.72 111.73 160 123.39 151.96 135.94 142.69 124.28 150.72 111.73"/><polygon class="cls-19" points="168.03 110.84 177.31 122.51 169.27 135.06 160 123.39 168.03 110.84"/><polygon class="cls-19" points="185.34 109.95 194.62 121.62 186.58 134.17 177.31 122.51 185.34 109.95"/><polygon class="cls-19" points="202.66 109.07 211.93 120.74 203.9 133.29 194.62 121.62 202.66 109.07"/><polygon class="cls-19" points="219.97 108.19 229.24 119.85 221.21 132.4 211.93 120.74 219.97 108.19"/><polygon class="cls-19" points="237.28 107.3 246.56 118.97 238.52 131.52 229.24 119.85 237.28 107.3"/><polygon class="cls-19" points="134.65 136.83 143.92 148.49 135.89 161.05 126.61 149.38 134.65 136.83"/><polygon class="cls-19" points="151.96 135.94 161.24 147.61 153.2 160.16 143.92 148.49 151.96 135.94"/><polygon class="cls-19" points="169.27 135.06 178.55 146.72 170.51 159.28 161.24 147.61 169.27 135.06"/><polygon class="cls-19" points="186.58 134.17 195.86 145.84 187.82 158.39 178.55 146.72 186.58 134.17"/><polygon class="cls-19" points="203.9 133.29 213.17 144.95 205.13 157.5 195.86 145.84 203.9 133.29"/><polygon class="cls-19" points="221.21 132.4 230.48 144.07 222.44 156.62 213.17 144.95 221.21 132.4"/><polygon class="cls-19" points="238.52 131.52 247.79 143.18 239.76 155.74 230.48 144.07 238.52 131.52"/><polygon class="cls-19" points="135.89 161.05 145.16 172.71 137.13 185.26 127.85 173.6 135.89 161.05"/><polygon class="cls-19" points="153.2 160.16 162.47 171.83 154.44 184.38 145.16 172.71 153.2 160.16"/><polygon class="cls-19" points="170.51 159.28 179.78 170.94 171.75 183.49 162.47 171.83 170.51 159.28"/><polygon class="cls-19" points="187.82 158.39 197.1 170.06 189.06 182.61 179.78 170.94 187.82 158.39"/><polygon class="cls-19" points="205.13 157.5 214.41 169.17 206.37 181.72 197.1 170.06 205.13 157.5"/><polygon class="cls-19" points="222.44 156.62 231.72 168.29 223.68 180.84 214.41 169.17 222.44 156.62"/><polygon class="cls-19" points="239.76 155.74 249.03 167.4 241 179.95 231.72 168.29 239.76 155.74"/><polygon class="cls-19" points="137.13 185.26 146.4 196.93 138.36 209.48 129.09 197.81 137.13 185.26"/><polygon class="cls-19" points="154.44 184.38 163.71 196.04 155.68 208.59 146.4 196.93 154.44 184.38"/><polygon class="cls-19" points="171.75 183.49 181.02 195.16 172.99 207.71 163.71 196.04 171.75 183.49"/><polygon class="cls-19" points="189.06 182.61 198.34 194.27 190.3 206.82 181.02 195.16 189.06 182.61"/><polygon class="cls-19" points="206.37 181.72 215.65 193.39 207.61 205.94 198.34 194.27 206.37 181.72"/><polygon class="cls-19" points="223.68 180.84 232.96 192.5 224.92 205.06 215.65 193.39 223.68 180.84"/><polygon class="cls-19" points="241 179.95 250.27 191.62 242.23 204.17 232.96 192.5 241 179.95"/><polygon class="cls-19" points="138.36 209.48 147.64 221.15 139.6 233.7 130.33 222.03 138.36 209.48"/><polygon class="cls-19" points="155.68 208.59 164.95 220.26 156.91 232.81 147.64 221.15 155.68 208.59"/><polygon class="cls-19" points="172.99 207.71 182.26 219.38 174.22 231.93 164.95 220.26 172.99 207.71"/><polygon class="cls-19" points="190.3 206.82 199.57 218.49 191.54 231.04 182.26 219.38 190.3 206.82"/><polygon class="cls-19" points="207.61 205.94 216.88 217.61 208.85 230.16 199.57 218.49 207.61 205.94"/><polygon class="cls-19" points="224.92 205.06 234.2 216.72 226.16 229.27 216.88 217.61 224.92 205.06"/><polygon class="cls-19" points="242.23 204.17 251.51 215.84 243.47 228.39 234.2 216.72 242.23 204.17"/></g><path class="cls-20" d="M124.25,151.14s8.87,2.9,14.72,2.64S152.86,150,152.86,150l1.15,3.75s-4.41,4.63-15.61,4.8a40.72,40.72,0,0,1-10.87-1.38l-4.66-1.48Z"/><path class="cls-16" d="M126.33,140.42a19.24,19.24,0,0,1-6.52-4.28,11.89,11.89,0,0,1-3.34-6.95,1,1,0,0,0-.1-.38.55.55,0,0,0-.85.05,1.85,1.85,0,0,0-.32.92,7,7,0,0,1-1.43,3.13c-2.55,3.16-7.51,3.75-9.69,7.18a4.09,4.09,0,0,0-.62,1.53,6,6,0,0,0,.72,3.32A43,43,0,0,0,111.76,157a23.76,23.76,0,0,0,12.12,7.24c-.57-.12.36-6.67.48-7.31a33.75,33.75,0,0,1,2.06-7,33.33,33.33,0,0,1,3.53-6.41c.66-.93,1.4-1.44.39-2S127.49,140.91,126.33,140.42Z"/><path class="cls-16" d="M142.2,140.46c-1.59.4-3.45.64-4.36,2a7.13,7.13,0,0,1,10.85,3.4c.73,2,.5,4.3.91,6.42a10.89,10.89,0,0,0,8.34,8.38c-.14-.8.5-1.5,1.07-2.08A41.53,41.53,0,0,0,167.88,145c-4.15-2.85-3.53-9.58-7.26-13-2.59-2.34-7.6-2.51-9.07.91A14.07,14.07,0,0,1,142.2,140.46Z"/><circle class="cls-15" cx="130.84" cy="147.78" r="1.69"/><circle class="cls-16" cx="130.84" cy="147.78" r="1.51"/><circle class="cls-15" cx="130.49" cy="147.49" r="0.18"/><circle class="cls-15" cx="131.18" cy="147.49" r="0.18"/><circle class="cls-15" cx="130.49" cy="148.08" r="0.18"/><circle class="cls-15" cx="131.18" cy="148.08" r="0.18"/><path class="cls-15" d="M137.13,149a2.44,2.44,0,0,1-1.07-.18h0a.56.56,0,0,1-.37-.64.82.82,0,0,1,.64-.6,1.34,1.34,0,0,1,.88.16,6.46,6.46,0,0,1,1.27,1l.21.22h-1.56Zm-1-.41a2.77,2.77,0,0,0,1.16.15h.75a5,5,0,0,0-1-.77,1.06,1.06,0,0,0-.7-.14.58.58,0,0,0-.45.39c0,.11,0,.26.23.37Z"/><path class="cls-15" d="M136.62,153.33a1.77,1.77,0,0,1-.56-.08h0a.56.56,0,0,1-.45-.59.83.83,0,0,1,.57-.67,1.3,1.3,0,0,1,.88,0,7.14,7.14,0,0,1,1.4.86l.23.19-1.35.18A5.52,5.52,0,0,1,136.62,153.33Zm-.48-.32a2.57,2.57,0,0,0,1.17,0l.74-.09a4.82,4.82,0,0,0-1.07-.64,1.09,1.09,0,0,0-.72-.05.58.58,0,0,0-.39.44c0,.12,0,.26.27.34Z"/><path class="cls-21" d="M93.85,70.91a42.5,42.5,0,0,0-5.27,8.9,39.35,39.35,0,0,0-2.51,10.66c-1.13,10.4.28,20.91,0,31.36a20.64,20.64,0,0,1-1.2,7.34A17.62,17.62,0,0,1,80.61,135c-4.6,4.44-10.23,7.65-15.28,11.58-2,1.54-4.06,4.1-2.8,6.27a4.63,4.63,0,0,0,2.12,1.7A29.56,29.56,0,0,0,74,156.75q14.1,1.69,28.31,2.32a8.3,8.3,0,0,0,4.23-.55c1.91-1,2.76-3.27,3.19-5.38,2.44-12.07-3.37-24.07-5.93-36.12-1.74-8.22-2-16.74-4.31-24.81a27.05,27.05,0,0,1-1.22-5.14,18.57,18.57,0,0,1,.54-5.45A83.42,83.42,0,0,1,105,63.12c.38-.8,1.74-3.51.32-4-1.12-.43-3,2-3.61,2.62A87.26,87.26,0,0,0,93.85,70.91Z"/><path class="cls-22" d="M103,61.77C96.54,66,88.72,76.9,87.17,84.46S86,99.83,86.48,107.54a72.94,72.94,0,0,1-.06,13.3,24.67,24.67,0,0,1-4.71,12.29c-4.84,6.15-13.15,8.72-18.13,14.76-1.21,1.47-2.15,3.75-.84,5.12,1.48,1.55,3.82,2.16,5.94,2.48l19.83,3a101.86,101.86,0,0,0,11.94,1.32c2.23.08,4.65-.06,6.37-1.49,2-1.64,2.77-5.09,2.92-7.64.49-8.34-.48-11.72-3.18-19.63-1-2.81-3.23-12.45-3.08-15.42.61-12.65-6.21-22.64-4.87-33C99.37,76.77,101.83,67.58,103,61.77Z"/><path class="cls-21" d="M171.65,69.58a42,42,0,0,1,5.26,8.9,39,39,0,0,1,2.51,10.66c1.14,10.4-.27,20.91,0,31.36a20.63,20.63,0,0,0,1.19,7.34,17.65,17.65,0,0,0,4.27,5.81c4.6,4.44,10.23,7.65,15.28,11.58,2,1.54,4.06,4.1,2.79,6.27a4.6,4.6,0,0,1-2.11,1.7,29.55,29.55,0,0,1-9.32,2.22q-14.1,1.7-28.3,2.32a8.28,8.28,0,0,1-4.23-.55c-1.92-1-2.76-3.27-3.19-5.38-2.44-12.07,3.37-24.07,5.92-36.12,1.75-8.22,2-16.74,4.32-24.81a27.84,27.84,0,0,0,1.22-5.14,19.27,19.27,0,0,0-.54-5.45,83.45,83.45,0,0,0-6.23-18.5c-.38-.8-1.74-3.51-.32-4,1.13-.43,3,2,3.61,2.62A87.36,87.36,0,0,1,171.65,69.58Z"/><path class="cls-22" d="M162.53,60.44c6.42,4.27,14.24,15.13,15.8,22.69s1.12,15.37.69,23.08a73.85,73.85,0,0,0,0,13.3,24.78,24.78,0,0,0,4.72,12.29c4.84,6.15,13.14,8.72,18.13,14.76,1.2,1.47,2.15,3.75.84,5.12-1.49,1.55-3.82,2.16-5.94,2.48l-19.83,3a102.1,102.1,0,0,1-11.94,1.32c-2.23.08-4.66-.06-6.37-1.49-2-1.64-2.77-5.09-2.92-7.64-.5-8.34.47-11.72,3.18-19.63,1-2.81,3.22-12.45,3.08-15.42-.62-12.65,6.21-22.64,4.87-33C166.12,75.44,163.67,66.25,162.53,60.44Z"/><path class="cls-21" d="M98.55,65.71a12,12,0,0,0-1,5.39,1.31,1.31,0,0,0,.37.88c.58.5,1.42-.15,1.91-.73,4.24-5.06,8.79-8.38,14.42-11.81a25.2,25.2,0,0,1,7.82-3.4,31.73,31.73,0,0,1,6.16-.47l9.1-.1c4.28,0,8.87,0,12.39,2.44,1.9,1.32,3.31,3.25,5.09,4.74s4.1,2.61,6.12,4,3.9,3.19,4.48,5.55c.65-2.51,1.29-5.19.48-7.66-.4-1.19-1.11-2.25-1.53-3.44-1.13-3.18-.11-7.11-2.23-9.74-1.26-1.55-3.3-2.19-5-3.26-2.67-1.69-4.51-4.5-7.22-6.13-2.35-1.41-5.16-1.82-7.88-2.11a59.13,59.13,0,0,0-14.44-.08,28.79,28.79,0,0,0-13.36,5.15c-2.1,1.57-3.91,3.48-5.89,5.2-1.49,1.29-2.91,1.47-4.29,2.86s-2.29,4.13-2.93,5.83Z"/><path class="cls-3" d="M99.37,72.52a1.12,1.12,0,0,1-1,.16l-.77-.27a1.14,1.14,0,0,1,.2-1.72l3-2.07,14.86-11.2a16.14,16.14,0,0,1,9.71-3.25h15a17.57,17.57,0,0,1,10.48,3.44l15.28,13a.64.64,0,0,1,.1.85l-.34.27-.42.77a.64.64,0,0,1-.92.1L148.93,59.36a13.55,13.55,0,0,0-8.05-2.65h-15a15.2,15.2,0,0,0-9.11,3Z"/><path class="cls-21" d="M103.74,47a11.38,11.38,0,0,1,3.09-3.4A110.45,110.45,0,0,1,120.31,33.5a23.74,23.74,0,0,1,4.63-2.29A20.72,20.72,0,0,1,136,30.9a62.15,62.15,0,0,1,10.55,3.66l2.85,1.19c3.45,1.44,7,2.93,9.71,5.48s4.52,6.44,3.57,10.06a11.57,11.57,0,0,1-3.92-2.37,63,63,0,0,0-10.58-6.71,13.5,13.5,0,0,0-4.33-1.53c-1.38-.18-2.78,0-4.16-.17-1.76-.24-3.4-1.11-5.17-1.21-2.09-.13-4.09.83-6.17,1.06-1.87.19-3.76-.21-5.63,0-2.9.33-5.41,2.1-7.77,3.81l-6,4.36c-1.3.94-4.23,3.93-5.75,3.89A8.67,8.67,0,0,1,103.74,47Z"/><path class="cls-3" d="M102.64,54.25l.09-.65a4.12,4.12,0,0,1,1.6-2.71l11.35-8.55a17.66,17.66,0,0,1,10.63-3.56h14.5a17.72,17.72,0,0,1,10.48,3.44l11.62,8.56a1.64,1.64,0,0,1,.67,1.41l-.16.83.11,1.23a.44.44,0,0,1-.72.38l-13-10.36a15.18,15.18,0,0,0-9-3h-14.5a15.23,15.23,0,0,0-9.1,3L103.32,54.65A.43.43,0,0,1,102.64,54.25Z"/></svg>