<svg width="264" height="214" viewBox="0 0 264 214" fill="none" xmlns="http://www.w3.org/2000/svg">
<path opacity="0.2" d="M75 0H264V217H95L75 0Z" fill="#7541EE"/>
<path d="M131.975 113.951L133.514 111.376C132.592 110.825 131.446 110.809 130.51 111.333C129.573 111.858 128.988 112.843 128.975 113.916L131.975 113.951ZM132.151 114.056L130.612 116.632C131.889 117.394 133.531 117.107 134.473 115.956C135.414 114.805 135.371 113.138 134.371 112.038L132.151 114.056ZM131.888 121.457L133.731 123.824C134.451 123.263 134.877 122.405 134.888 121.492L131.888 121.457ZM129.5 123.317L127.656 120.95C127.648 120.956 127.64 120.963 127.632 120.969L129.5 123.317ZM81.995 158.048L80.5064 155.443L80.5059 155.444L81.995 158.048ZM41.4052 201.278L43.9661 202.841C43.9695 202.835 43.9729 202.83 43.9762 202.824L41.4052 201.278ZM35.6291 210.314L38.1414 211.953L38.1423 211.952L35.6291 210.314ZM14.2409 261.614L11.3471 262.405L11.3471 262.406L14.2409 261.614ZM13.7788 300.207L16.6846 300.953C16.6916 300.925 16.6983 300.898 16.7046 300.87L13.7788 300.207ZM9.19909 314.87L6.38529 313.83C6.37904 313.847 6.37294 313.864 6.36699 313.881L9.19909 314.87ZM3.42294 339.345L6.41837 339.179L6.41834 339.178L3.42294 339.345ZM30.9339 417.05L28.1483 418.164L28.1488 418.165L30.9339 417.05ZM32.0033 419.721L34.5735 421.268C35.058 420.464 35.1375 419.478 34.7884 418.606L32.0033 419.721ZM31.3217 420.821L33.8404 422.451L33.8404 422.451L31.3217 420.821ZM30.4344 422.127L27.9706 420.415L27.9696 420.417L30.4344 422.127ZM30.4319 422.131L32.8834 423.86C32.8878 423.853 32.8922 423.847 32.8966 423.841L30.4319 422.131ZM30.431 422.132L32.863 423.888C32.8696 423.879 32.876 423.87 32.8825 423.861L30.431 422.132ZM30.4304 422.133L32.8124 423.956C32.8294 423.934 32.8461 423.912 32.8624 423.889L30.4304 422.133ZM30.4301 422.133L28.0481 420.309C28.02 420.346 27.9929 420.383 27.9666 420.421L30.4301 422.133ZM34.2263 443.53L36.2273 441.295H36.2273L34.2263 443.53ZM48.6953 453.946L51.4924 455.031C51.7834 454.28 51.7605 453.444 51.429 452.711C51.0975 451.977 50.4852 451.408 49.7296 451.13L48.6953 453.946ZM41.0587 475.208L38.2024 474.29L38.2021 474.291L41.0587 475.208ZM30.9422 506.284L28.0915 505.349L28.0912 505.35L30.9422 506.284ZM4.53692 606.368L6.78462 604.381L6.78196 604.378L4.53692 606.368ZM15.6529 610.572L16.0888 607.604L16.0812 607.603L15.6529 610.572ZM15.6766 610.576L16.113 607.608L16.1125 607.608L15.6766 610.576ZM15.9465 610.616L15.5101 613.584L15.5108 613.584L15.9465 610.616ZM22.2779 612.226L25.2733 612.06C25.2341 611.355 24.9475 610.686 24.4638 610.172L22.2779 612.226ZM19.874 619.639L17.0854 618.533L17.0836 618.537L19.874 619.639ZM19.8685 619.653L17.078 618.551L17.0738 618.562L19.8685 619.653ZM19.6884 620.114L22.4829 621.205L22.4831 621.205L19.6884 620.114ZM15.5034 635.405L12.5071 635.255L12.5071 635.255L15.5034 635.405ZM24.8442 651.257L23.5398 653.958L23.5438 653.96L24.8442 651.257ZM47.7673 656.554L47.5504 659.546C47.556 659.546 47.5616 659.547 47.5672 659.547L47.7673 656.554ZM47.7755 656.554L47.9826 653.561L47.9756 653.561L47.7755 656.554ZM47.7861 656.555L48.0041 653.563L47.9932 653.562L47.7861 656.555ZM60.6481 659.615L62.3903 657.173L62.3826 657.168L60.6481 659.615ZM72.2003 661.538L73.5719 664.206L73.5776 664.203L72.2003 661.538ZM80.551 626.881L83.5507 626.924C83.5732 625.333 82.3508 624.002 80.7644 623.889C79.178 623.776 77.779 624.92 77.5756 626.498L80.551 626.881ZM80.551 639.465L83.5506 639.416L83.5505 639.412L80.551 639.465ZM85.6753 664.451L84.1015 667.005L84.1016 667.005L85.6753 664.451ZM110.936 666.861L110.835 663.862C110.825 663.863 110.815 663.863 110.805 663.863L110.936 666.861ZM110.942 666.86L111.043 669.859C111.048 669.859 111.053 669.858 111.058 669.858L110.942 666.86ZM111.565 666.836L111.682 669.834L111.683 669.834L111.565 666.836ZM112.12 666.814L112.002 663.817H112.002L112.12 666.814ZM132.982 667.38L133.582 664.441L133.581 664.441L132.982 667.38ZM173.694 671.555L173.841 668.559L173.833 668.558L173.694 671.555ZM173.704 671.556L173.557 674.552L173.569 674.553L173.704 671.556ZM178.292 671.762L178.157 674.759C179.802 674.833 181.199 673.567 181.287 671.923L178.292 671.762ZM179.991 640.142L182.99 640.034C182.932 638.43 181.622 637.156 180.018 637.142C178.414 637.128 177.082 638.378 176.996 639.981L179.991 640.142ZM181.279 675.879L178.281 675.987C178.321 677.102 178.976 678.102 179.981 678.584C180.987 679.067 182.177 678.951 183.071 678.285L181.279 675.879ZM188.301 670.648L186.515 668.237L186.509 668.242L188.301 670.648ZM211.793 661.868L210.647 664.641L210.651 664.642L211.793 661.868ZM232.959 659.071L234.622 661.568L234.623 661.567L232.959 659.071ZM241.057 650.083L243.712 651.48L243.712 651.48L241.057 650.083ZM243.876 638.318H240.876C240.876 638.332 240.876 638.346 240.876 638.36L243.876 638.318ZM263.993 624.059L263.391 621.12C263.385 621.121 263.379 621.123 263.373 621.124L263.993 624.059ZM268.944 622.978L269.633 625.898C269.648 625.894 269.664 625.891 269.679 625.887L268.944 622.978ZM278.816 618.214L276.996 615.829L278.816 618.214ZM286.017 609.949L283.421 608.445C283.415 608.454 283.41 608.464 283.405 608.473L286.017 609.949ZM288.657 584.468L291.534 583.616L291.533 583.614L288.657 584.468ZM281.596 560.343L284.476 559.502L284.475 559.5L281.596 560.343ZM281.586 560.307L278.706 561.148L278.707 561.15L281.586 560.307ZM249.866 452.029L248.026 449.66C247.052 450.416 246.64 451.692 246.988 452.876L249.866 452.029ZM260.156 437.919L257.595 436.356L257.594 436.358L260.156 437.919ZM265.643 429.353L263.214 427.594C263.21 427.599 263.206 427.604 263.202 427.61L265.643 429.353ZM264.138 392.365L261.309 393.365L261.31 393.368L264.138 392.365ZM264.133 392.353L266.962 391.354L266.96 391.348L264.133 392.353ZM257.268 375.627L254.347 374.943C254.2 375.571 254.259 376.229 254.516 376.821L257.268 375.627ZM264.274 342.926L267.247 343.323L267.248 343.321L264.274 342.926ZM258.223 320.35L255.414 321.404C255.432 321.45 255.45 321.496 255.47 321.541L258.223 320.35ZM258.223 320.35L261.032 319.296C261.015 319.25 260.996 319.204 260.976 319.158L258.223 320.35ZM258.209 320.316L260.962 319.125C260.95 319.098 260.939 319.072 260.926 319.046L258.209 320.316ZM255.106 312.395L252.195 313.121C252.211 313.184 252.229 313.246 252.248 313.308L255.106 312.395ZM255.874 299.382L252.924 298.836C252.919 298.864 252.914 298.891 252.91 298.919L255.874 299.382ZM256.847 290.594L259.845 290.707C259.847 290.669 259.847 290.632 259.847 290.594H256.847ZM252.16 265.996L255.092 265.357L255.09 265.348L252.16 265.996ZM240.154 207.896L237.298 208.815L237.3 208.819L240.154 207.896ZM240.117 207.78L242.973 206.861L242.973 206.861L240.117 207.78ZM236.614 192.218L239.61 192.384C239.61 192.379 239.61 192.374 239.61 192.369L236.614 192.218ZM229.188 172.959L231.174 170.711L231.171 170.708L229.188 172.959ZM219.393 169.806L219.928 172.758L219.932 172.758L219.393 169.806ZM215.614 171.176L212.972 172.599C213.355 173.309 214.008 173.836 214.784 174.059C215.559 174.282 216.392 174.184 217.094 173.785L215.614 171.176ZM214.45 169.072L217.062 167.596C217.057 167.587 217.052 167.578 217.047 167.57L214.45 169.072ZM204.944 154.508L202.518 156.272L202.524 156.28L204.944 154.508ZM178.052 127.863L176.665 130.524C176.68 130.531 176.695 130.539 176.71 130.546L178.052 127.863ZM176.317 126.959L173.317 126.956C173.316 128.075 173.938 129.102 174.93 129.619L176.317 126.959ZM176.468 122.302L173.756 121.02C173.707 121.123 173.664 121.228 173.628 121.336L176.468 122.302ZM176.897 121.394L179.609 122.676C180.14 121.553 179.924 120.218 179.065 119.32C178.206 118.422 176.882 118.147 175.736 118.628L176.897 121.394ZM175.973 121.782L174.812 119.016L174.801 119.02L175.973 121.782ZM175.768 121.873L172.771 121.762C172.732 122.803 173.236 123.79 174.103 124.368C174.97 124.947 176.075 125.034 177.021 124.599L175.768 121.873ZM176.154 111.459L173.754 109.659C173.388 110.148 173.179 110.737 173.157 111.348L176.154 111.459ZM179.95 101.557L178.345 99.0226C177.556 99.5224 177.045 100.361 176.962 101.292L179.95 101.557ZM182.558 99.2055L182.708 96.2093C181.737 96.1608 180.803 96.5853 180.202 97.3484L182.558 99.2055ZM184.44 99.4684L183.933 102.425L183.937 102.426L184.44 99.4684ZM184.447 99.4696L184.958 96.5134L184.951 96.5122L184.447 99.4696ZM191.321 99.1973L190.114 96.4509L190.103 96.4555L191.321 99.1973ZM196.024 92.827L198.823 93.909C198.842 93.859 198.86 93.8085 198.876 93.7575L196.024 92.827ZM197.468 89.8729L195.878 87.3295C195.522 87.5519 195.217 87.8464 194.982 88.194L197.468 89.8729ZM200.489 88.6022L201.195 91.5179C201.256 91.5031 201.316 91.4865 201.376 91.468L200.489 88.6022ZM206.207 85.4088L203.876 83.5205L203.872 83.5247L206.207 85.4088ZM209.004 69.7719L206.133 70.6406C206.144 70.6763 206.155 70.7119 206.167 70.7472L209.004 69.7719ZM203.929 62.3455L201.933 64.5845C201.98 64.6262 202.028 64.6663 202.077 64.705L203.929 62.3455ZM203.787 62.2187L205.784 59.9796C205.744 59.944 205.703 59.9095 205.661 59.8761L203.787 62.2187ZM203.787 62.2185L201.803 64.4689C201.839 64.5005 201.876 64.5313 201.913 64.5611L203.787 62.2185ZM203.786 62.2177L201.79 64.4573C201.794 64.4609 201.798 64.4645 201.802 64.4681L203.786 62.2177ZM202.411 60.9427L200.317 63.0907L200.317 63.0907L202.411 60.9427ZM202.188 56.4703L199.214 56.0796L199.213 56.0841L202.188 56.4703ZM200.241 45.6029L202.571 43.7137L202.57 43.7122L200.241 45.6029ZM193.417 41.9887L192.809 44.9263C192.814 44.9274 192.819 44.9284 192.824 44.9295L193.417 41.9887ZM189.621 40.2063L187.361 42.1796L187.361 42.1796L189.621 40.2063ZM188.238 36.5829L185.271 37.0226L185.271 37.0237L188.238 36.5829ZM188.235 36.5591L185.262 36.9598C185.264 36.9728 185.265 36.9858 185.267 36.9988L188.235 36.5591ZM184.934 30.0898L183.145 32.4976L183.153 32.504L184.934 30.0898ZM176.031 28.7943V31.7943C176.196 31.7943 176.361 31.7807 176.524 31.7535L176.031 28.7943ZM175.841 28.7943V25.7943C175.679 25.7943 175.517 25.8075 175.357 25.8336L175.841 28.7943ZM171.657 28.5715L169.832 30.9523C169.863 30.9761 169.894 30.9993 169.926 31.0218L171.657 28.5715ZM170.659 26.9212L173.462 25.8522C173.46 25.8461 173.457 25.8401 173.455 25.8341L170.659 26.9212ZM170.486 26.4756L167.655 27.4706C167.666 27.5015 167.678 27.5322 167.689 27.5627L170.486 26.4756ZM167.713 22.457L169.648 20.1645C169.641 20.1582 169.633 20.152 169.626 20.1458L167.713 22.457ZM154.337 20.749L153.681 23.6764C154.124 23.7757 154.584 23.773 155.027 23.6687L154.337 20.749ZM140.788 22.2012L138.979 19.8082C138.964 19.8194 138.949 19.8307 138.935 19.8422L140.788 22.2012ZM140.672 22.292L142.46 24.7012C142.482 24.6848 142.504 24.6681 142.526 24.6511L140.672 22.292ZM140.334 22.5726L142.33 24.8119C142.344 24.7998 142.357 24.7876 142.371 24.7753L140.334 22.5726ZM137.76 26.3683L140.522 27.5372C140.542 27.4903 140.561 27.4429 140.578 27.395L137.76 26.3683ZM136.844 27.7133L135.233 25.1823C135.226 25.1869 135.219 25.1916 135.211 25.1962L136.844 27.7133ZM132.297 27.9114L131.673 30.8458C131.731 30.8582 131.79 30.8688 131.849 30.8777L132.297 27.9114ZM126.158 27.9114L125.534 24.9769C125.488 24.9867 125.442 24.9976 125.397 25.0095L126.158 27.9114ZM123.567 29.0749L125.213 31.5829C125.219 31.5791 125.224 31.5754 125.23 31.5716L123.567 29.0749ZM120.555 33.1429L117.676 32.3004C117.673 32.309 117.671 32.3176 117.668 32.3261L120.555 33.1429ZM120.126 35.1976L117.154 34.7908C117.142 34.8747 117.134 34.959 117.13 35.0435L120.126 35.1976ZM118.822 38.2012L116.663 36.1178C116.655 36.1264 116.647 36.135 116.639 36.1437L118.822 38.2012ZM116.743 39.4389L115.975 36.5388C115.95 36.5453 115.926 36.5522 115.901 36.5594L116.743 39.4389ZM114.977 39.8267L114.433 36.8764C114.423 36.8784 114.412 36.8804 114.401 36.8825L114.977 39.8267ZM114.883 39.845L115.459 42.7893L115.459 42.7892L114.883 39.845ZM108.194 43.1274L105.962 41.1226L105.957 41.1289L108.194 43.1274ZM106.138 53.3828L109.108 52.9611L109.108 52.9597L106.138 53.3828ZM106.139 53.3924L103.169 53.8141L103.169 53.8152L106.139 53.3924ZM106.04 57.0149L107.924 59.35C107.963 59.3185 108.001 59.2861 108.038 59.2527L106.04 57.0149ZM103.647 58.5415L102.324 55.8492C102.293 55.8643 102.263 55.8798 102.233 55.8959L103.647 58.5415ZM97.4999 64.8292L100.301 65.9021L100.304 65.8962L97.4999 64.8292ZM99.4555 82.6527L97.2086 84.6406L97.2162 84.6492L99.4555 82.6527ZM105.116 84.7982L105.192 81.7991C105.167 81.7985 105.141 81.7982 105.116 81.7982V84.7982ZM106.816 85.0787L104.984 87.4541C105.002 87.4685 105.021 87.4827 105.04 87.4966L106.816 85.0787ZM106.828 85.0874L105.052 87.5053L105.053 87.506L106.828 85.0874ZM107.179 86.0194L110.145 85.5718C110.135 85.5058 110.123 85.4401 110.109 85.3748L107.179 86.0194ZM108.149 88.7018L110.716 87.1485L110.716 87.1485L108.149 88.7018ZM110.075 90.8054L108.303 93.2257C108.315 93.2348 108.328 93.2438 108.34 93.2526L110.075 90.8054ZM116.896 92.0352L117.251 95.0142L117.261 95.013L116.896 92.0352ZM116.899 92.0349L117.264 95.0126C117.28 95.0106 117.297 95.0085 117.313 95.0062L116.899 92.0349ZM118.22 91.9193H121.22C121.22 91.1048 120.889 90.3253 120.302 89.7599C119.716 89.1945 118.925 88.8918 118.111 88.9213L118.22 91.9193ZM118.22 93.1901L121.219 93.2746C121.219 93.2464 121.22 93.2183 121.22 93.1901H118.22ZM118.217 93.3032L121.215 93.3883L121.215 93.3877L118.217 93.3032ZM119.821 100.055L117.401 101.829L117.405 101.834L119.821 100.055ZM127.412 104.016L130.381 103.585C130.192 102.282 129.175 101.255 127.874 101.052L127.412 104.016ZM81.4339 348.259L79.436 350.497C79.4996 350.553 79.5657 350.608 79.6339 350.659L81.4339 348.259ZM77.6082 345.31L74.9578 343.904C74.5742 344.628 74.5029 345.476 74.7605 346.254C75.0181 347.031 75.5822 347.669 76.322 348.02L77.6082 345.31ZM81.4343 348.259L83.4274 346.017C83.3652 345.962 83.3008 345.909 83.2343 345.859L81.4343 348.259ZM81.4345 348.259L83.4324 346.021L83.4276 346.017L81.4345 348.259ZM89.6938 353.727L88.8277 356.6H88.8277L89.6938 353.727ZM91.6776 354.805L89.6945 357.056C90.4125 357.689 91.3891 357.941 92.3236 357.735C93.258 357.529 94.0381 356.889 94.4235 356.013L91.6776 354.805ZM101.527 330.029L104.509 330.352C104.521 330.245 104.527 330.137 104.527 330.029H101.527ZM108.755 316.677L110.704 318.958C111.423 318.344 111.81 317.427 111.749 316.484C111.688 315.54 111.185 314.681 110.393 314.164L108.755 316.677ZM103.359 311.33L105.857 309.669C105.846 309.654 105.836 309.639 105.826 309.624L103.359 311.33ZM101.44 306.609L98.4819 307.106H98.4819L101.44 306.609ZM101.708 301.519L98.8337 300.66C98.8284 300.678 98.8233 300.696 98.8183 300.714L101.708 301.519ZM97.3266 286.089L99.1199 283.684C98.7226 283.387 98.2581 283.194 97.7679 283.121L97.3266 286.089ZM89.3885 276.764L92.2497 275.862C91.9616 274.948 91.254 274.227 90.3456 273.921C89.4373 273.615 88.4375 273.762 87.6552 274.316L89.3885 276.764ZM85.2545 279.318L83.7682 276.712C83.749 276.723 83.7299 276.734 83.711 276.745L85.2545 279.318ZM85.254 279.318L86.7403 281.924C86.7595 281.913 86.7786 281.902 86.7975 281.89L85.254 279.318ZM85.1307 279.388L86.6135 281.996L86.617 281.994L85.1307 279.388ZM83.9342 280.081L82.3908 277.509C81.5561 278.01 81.0163 278.884 80.9428 279.855L83.9342 280.081ZM83.8352 287.45L86.8342 287.376C86.8336 287.352 86.8328 287.328 86.8316 287.304L83.8352 287.45ZM82.3664 307.757L85.2695 308.514L82.3664 307.757ZM67.794 320.853L67.163 317.92C65.8772 318.196 64.9216 319.278 64.8057 320.588C64.6897 321.898 65.4406 323.131 66.6578 323.629L67.794 320.853ZM73.3556 326.629L70.4462 327.361L70.4479 327.367L73.3556 326.629ZM71.1854 334.724L68.793 332.914C67.9649 334.008 67.9851 335.525 68.8422 336.597L71.1854 334.724ZM76.5407 342.621L73.9334 344.104C73.9407 344.117 73.9481 344.13 73.9557 344.143L76.5407 342.621ZM77.8527 344.848L80.5032 346.254C80.9915 345.333 80.9668 344.224 80.4378 343.326L77.8527 344.848ZM130.437 116.527L130.612 116.632L133.689 111.481L133.514 111.376L130.437 116.527ZM134.888 121.492L134.975 113.986L128.975 113.916L128.888 121.422L134.888 121.492ZM131.343 125.684L133.731 123.824L130.045 119.09L127.656 120.95L131.343 125.684ZM83.4837 160.652C89.0776 157.455 101.036 148.708 111.458 140.878C121.952 132.993 131.156 125.833 131.367 125.665L127.632 120.969C127.636 120.966 127.605 120.99 127.518 121.058C127.44 121.119 127.328 121.206 127.184 121.318C126.897 121.541 126.484 121.862 125.96 122.267C124.913 123.078 123.423 124.228 121.613 125.62C117.99 128.403 113.084 132.151 107.853 136.081C97.3096 144.003 85.6974 152.476 80.5064 155.443L83.4837 160.652ZM43.9762 202.824C47.9589 196.201 54.9589 187.277 62.4947 179.129C70.0755 170.932 77.9019 163.844 83.4842 160.652L80.5059 155.444C74.082 159.117 65.7394 166.783 58.0897 175.055C50.395 183.375 43.1032 192.633 38.8343 199.732L43.9762 202.824ZM38.1423 211.952C40.4401 208.427 42.4536 205.32 43.9661 202.841L38.8443 199.716C37.3863 202.105 35.4225 205.137 33.1159 208.676L38.1423 211.952ZM17.1346 260.823C15.7855 255.889 17.2874 249.156 21.2955 240.551C25.2454 232.071 31.3033 222.432 38.1414 211.953L33.1167 208.674C26.2984 219.122 20.0118 229.097 15.8566 238.018C11.7595 246.813 9.39552 255.268 11.3471 262.405L17.1346 260.823ZM16.7046 300.87C19.0219 290.644 21.0736 275.225 17.1346 260.823L11.3471 262.406C14.9006 275.399 13.0906 289.669 10.8529 299.544L16.7046 300.87ZM12.0129 315.911C13.8257 311.008 15.3849 306.016 16.6846 300.953L10.873 299.461C9.62455 304.325 8.12667 309.12 6.38529 313.83L12.0129 315.911ZM6.41834 339.178C6.25418 336.22 6.81634 332.723 7.88018 328.712C8.94046 324.715 10.438 320.419 12.0312 315.86L6.36699 313.881C4.79152 318.39 3.21123 322.911 2.0807 327.174C0.95373 331.423 0.21213 335.629 0.427552 339.511L6.41834 339.178ZM33.7195 415.936C31.4736 410.32 24.7426 393.383 18.5079 376.628C15.3893 368.248 12.4048 359.939 10.1694 353.126C9.05106 349.717 8.1296 346.711 7.47416 344.272C6.79947 341.762 6.4675 340.068 6.41837 339.179L0.427517 339.51C0.514536 341.084 1.00386 343.315 1.67977 345.83C2.37492 348.416 3.33335 351.537 4.46837 354.996C6.73969 361.919 9.75559 370.312 12.8846 378.721C19.1448 395.544 25.897 412.534 28.1483 418.164L33.7195 415.936ZM34.7884 418.606L33.719 415.935L28.1488 418.165L29.2182 420.836L34.7884 418.606ZM33.8404 422.451C34.048 422.13 34.2947 421.732 34.5735 421.268L29.433 418.174C29.1725 418.607 28.9623 418.945 28.803 419.192L33.8404 422.451ZM32.8981 423.839C33.2089 423.391 33.5405 422.915 33.8404 422.451L28.803 419.192C28.5667 419.557 28.2944 419.949 27.9706 420.415L32.8981 423.839ZM32.8966 423.841L32.8991 423.837L27.9696 420.417L27.9671 420.42L32.8966 423.841ZM32.8825 423.861L32.8834 423.86L27.9804 420.401L27.9795 420.403L32.8825 423.861ZM32.8624 423.889L32.863 423.888L27.9989 420.375L27.9983 420.376L32.8624 423.889ZM32.8121 423.957L32.8124 423.956L28.0484 420.309L28.0481 420.309L32.8121 423.957ZM36.2273 441.295C30.8337 436.466 29.7773 433.021 29.8421 430.737C29.9125 428.257 31.2684 426.184 32.8936 423.845L27.9666 420.421C26.4723 422.571 23.9729 426.046 23.8446 430.567C23.7107 435.284 26.1122 440.292 32.2253 445.765L36.2273 441.295ZM49.7296 451.13C46.4949 449.942 42.1376 446.586 36.2273 441.295L32.2253 445.765C37.9878 450.924 43.1714 455.113 47.6609 456.762L49.7296 451.13ZM43.9149 476.125C45.9519 469.785 48.5362 462.657 51.4924 455.031L45.8981 452.862C42.9158 460.555 40.2873 467.8 38.2024 474.29L43.9149 476.125ZM33.7928 507.218C37.4315 496.121 40.8671 485.624 43.9152 476.124L38.2021 474.291C35.1606 483.77 31.7307 494.25 28.0915 505.349L33.7928 507.218ZM6.78196 604.378C6.47646 604.033 6.33878 603.816 6.24036 603.559C6.13265 603.278 6.00271 602.761 6.00004 601.765C5.99444 599.675 6.5373 596.095 8.20257 589.505C11.5097 576.419 18.9592 552.503 33.7931 507.217L28.0912 505.35C13.2769 550.576 5.75389 574.706 2.38545 588.035C0.712929 594.653 -0.00773954 598.873 6.36578e-05 601.781C0.00409508 603.284 0.200095 604.565 0.637898 605.707C1.085 606.873 1.71239 607.704 2.29188 608.358L6.78196 604.378ZM16.0812 607.603C13.9476 607.295 12.0739 607.018 10.416 606.5C8.7952 605.992 7.61565 605.321 6.78462 604.381L2.28922 608.355C4.09372 610.396 6.38819 611.526 8.62449 612.226C10.8237 612.914 13.1903 613.248 15.2246 613.542L16.0812 607.603ZM16.1125 607.608L16.0888 607.604L15.2171 613.541L15.2408 613.544L16.1125 607.608ZM16.3829 607.648L16.113 607.608L15.2402 613.544L15.5101 613.584L16.3829 607.648ZM24.4638 610.172C23.7421 609.404 22.7684 609.032 22.2721 608.856C21.6372 608.632 20.9278 608.453 20.2595 608.309C18.9177 608.018 17.4188 607.8 16.3821 607.647L15.5108 613.584C16.5859 613.742 17.8813 613.933 18.9914 614.173C19.5492 614.294 19.9802 614.41 20.2722 614.513C20.4169 614.564 20.4759 614.594 20.4749 614.594C20.4718 614.592 20.4345 614.573 20.3755 614.531C20.3186 614.491 20.2135 614.41 20.0921 614.281L24.4638 610.172ZM22.6626 620.745C23.1488 619.519 23.7907 617.902 24.3017 616.436C24.5568 615.705 24.7963 614.963 24.9708 614.295C25.118 613.732 25.3184 612.87 25.2733 612.06L19.2826 612.393C19.2705 612.175 19.3095 612.228 19.1657 612.778C19.049 613.225 18.8675 613.798 18.6362 614.461C18.1743 615.786 17.5812 617.283 17.0854 618.533L22.6626 620.745ZM22.6589 620.754L22.6645 620.74L17.0836 618.537L17.078 618.551L22.6589 620.754ZM22.4831 621.205L22.6631 620.744L17.0738 618.562L16.8938 619.023L22.4831 621.205ZM18.4996 635.556C18.7345 630.879 20.5984 626.031 22.4829 621.205L16.894 619.023C15.0846 623.656 12.7996 629.431 12.5071 635.255L18.4996 635.556ZM26.1485 648.555C23.3634 647.21 21.421 645.436 20.1933 643.352C18.9646 641.267 18.3427 638.686 18.4996 635.555L12.5071 635.255C12.3009 639.369 13.1106 643.151 15.0238 646.398C16.9379 649.647 19.8474 652.176 23.5398 653.958L26.1485 648.555ZM47.9841 653.561C41.7532 653.11 34.4912 652.568 26.1446 648.553L23.5438 653.96C32.9965 658.507 41.2583 659.09 47.5504 659.546L47.9841 653.561ZM47.9756 653.561L47.9674 653.56L47.5672 659.547L47.5754 659.547L47.9756 653.561ZM47.9932 653.562L47.9826 653.561L47.5684 659.547L47.5789 659.548L47.9932 653.562ZM62.3826 657.168C58.2269 654.223 53.0824 653.933 48.0041 653.563L47.5681 659.547C53.1244 659.952 56.3898 660.275 58.9135 662.063L62.3826 657.168ZM70.8288 658.87C70.0779 659.256 69.0711 659.562 67.7777 659.456C66.4781 659.349 64.6827 658.809 62.3903 657.173L58.9058 662.058C61.911 664.202 64.72 665.225 67.2863 665.436C69.8587 665.647 71.9793 665.025 73.5719 664.206L70.8288 658.87ZM76.3133 639.498C76.3133 645.727 75.7683 650.238 74.7461 653.406C73.743 656.514 72.3709 658.073 70.8231 658.873L73.5776 664.203C76.9478 662.462 79.1321 659.351 80.456 655.249C81.7607 651.206 82.3133 645.969 82.3133 639.498H76.3133ZM77.5756 626.498C76.8064 632.464 76.3133 637.155 76.3133 639.498H82.3133C82.3133 637.616 82.7444 633.33 83.5264 627.265L77.5756 626.498ZM83.5505 639.412C83.4852 635.721 83.485 631.559 83.5507 626.924L77.5513 626.839C77.4849 631.523 77.4848 635.75 77.5515 639.518L83.5505 639.412ZM87.249 661.897C86.5843 661.487 85.7055 660.748 84.9656 657.543C84.195 654.205 83.703 648.722 83.5506 639.416L77.5514 639.514C77.7043 648.849 78.1943 654.885 79.1194 658.893C80.0752 663.034 81.6058 665.467 84.1015 667.005L87.249 661.897ZM110.805 663.863C105.398 664.101 100.581 664.309 96.4569 664.069C92.2882 663.826 89.2662 663.14 87.2489 661.897L84.1016 667.005C87.414 669.046 91.6602 669.8 96.1083 670.058C100.601 670.32 105.75 670.091 111.068 669.858L110.805 663.863ZM110.84 663.862L110.835 663.862L111.038 669.859L111.043 669.859L110.84 663.862ZM111.449 663.838L110.825 663.863L111.058 669.858L111.682 669.834L111.449 663.838ZM112.002 663.817L111.447 663.839L111.683 669.834L112.238 669.812L112.002 663.817ZM133.581 664.441C127.454 663.192 119.385 663.527 112.002 663.817L112.237 669.812C119.887 669.512 127.124 669.248 132.383 670.32L133.581 664.441ZM173.833 668.558C172.567 668.499 147.78 667.339 133.582 664.441L132.382 670.32C147.128 673.329 172.417 674.499 173.554 674.552L173.833 668.558ZM173.851 668.559L173.841 668.559L173.547 674.552L173.557 674.552L173.851 668.559ZM178.426 668.765L173.838 668.559L173.569 674.553L178.157 674.759L178.426 668.765ZM176.996 639.981L175.296 671.601L181.287 671.923L182.987 640.303L176.996 639.981ZM184.277 675.771L182.99 640.034L176.993 640.25L178.281 675.987L184.277 675.771ZM186.509 668.242L179.486 673.474L183.071 678.285L190.093 673.054L186.509 668.242ZM212.94 659.096C210.883 658.245 208.52 658.316 206.366 658.694C204.148 659.085 201.771 659.872 199.45 660.846C194.806 662.794 190.012 665.647 186.515 668.237L190.086 673.059C193.24 670.723 197.618 668.121 201.771 666.379C203.848 665.507 205.775 664.89 207.405 664.604C209.1 664.306 210.129 664.426 210.647 664.641L212.94 659.096ZM231.295 656.574C225.396 660.504 218.372 661.332 212.935 659.094L210.651 664.642C218.202 667.751 227.318 666.434 234.622 661.568L231.295 656.574ZM238.402 648.687C236.729 651.868 234.285 654.58 231.294 656.575L234.623 661.567C238.448 659.016 241.572 655.548 243.712 651.48L238.402 648.687ZM240.876 638.36C240.926 641.955 240.076 645.505 238.402 648.687L243.712 651.48C245.852 647.412 246.94 642.872 246.875 638.276L240.876 638.36ZM263.373 621.124C256.633 622.548 251.063 623.94 247.216 626.346C245.206 627.603 243.562 629.193 242.449 631.28C241.344 633.353 240.876 635.706 240.876 638.318H246.876C246.876 636.421 247.213 635.097 247.744 634.103C248.267 633.121 249.088 632.252 250.398 631.433C253.191 629.686 257.681 628.459 264.613 626.994L263.373 621.124ZM268.255 620.058C266.685 620.429 265.025 620.785 263.391 621.12L264.596 626.998C266.262 626.656 267.985 626.287 269.633 625.898L268.255 620.058ZM276.996 615.829C274.384 617.822 271.395 619.265 268.209 620.07L269.679 625.887C273.651 624.883 277.379 623.084 280.636 620.599L276.996 615.829ZM283.405 608.473C281.788 611.333 279.608 613.836 276.996 615.829L280.636 620.599C283.893 618.113 286.612 614.992 288.628 611.425L283.405 608.473ZM285.781 585.319C288.207 593.515 287.323 601.707 283.421 608.445L288.613 611.452C293.408 603.173 294.389 593.261 291.534 583.616L285.781 585.319ZM278.717 561.185C282.439 573.924 284.996 582.675 285.781 585.322L291.533 583.614C290.752 580.984 288.201 572.253 284.476 559.502L278.717 561.185ZM278.707 561.15L278.717 561.187L284.475 559.5L284.465 559.464L278.707 561.15ZM246.988 452.876C259.051 493.875 271.288 535.75 278.706 561.148L284.465 559.466C277.047 534.067 264.809 492.188 252.744 451.182L246.988 452.876ZM257.594 436.358C255.44 439.895 253.676 442.749 252.085 445.007C250.482 447.283 249.186 448.759 248.026 449.66L251.706 454.398C253.575 452.948 255.279 450.892 256.99 448.462C258.715 446.014 260.581 442.989 262.719 439.479L257.594 436.358ZM263.202 427.61C261.477 430.025 259.456 433.306 257.595 436.356L262.717 439.481C264.602 436.392 266.509 433.303 268.085 431.097L263.202 427.61ZM261.31 393.368C263.179 398.636 265.39 404.903 266.23 411.14C267.069 417.375 266.468 423.1 263.214 427.594L268.073 431.113C272.614 424.842 273.113 417.297 272.176 410.34C271.24 403.386 268.802 396.541 266.965 391.363L261.31 393.368ZM261.305 393.353L261.309 393.365L266.966 391.366L266.962 391.354L261.305 393.353ZM254.516 376.821C257.759 384.297 260.206 390.262 261.307 393.358L266.96 391.348C265.784 388.041 263.263 381.909 260.02 374.433L254.516 376.821ZM261.3 342.529C260.5 348.523 256.424 366.076 254.347 374.943L260.189 376.311C262.221 367.635 266.397 349.69 267.247 343.323L261.3 342.529ZM255.47 321.541C257.106 325.325 258.77 329.18 259.931 332.887C261.102 336.629 261.65 339.896 261.3 342.53L267.248 343.321C267.771 339.389 266.917 335.122 265.657 331.095C264.386 327.034 262.588 322.884 260.977 319.159L255.47 321.541ZM255.414 321.403L255.414 321.404L261.032 319.297L261.032 319.296L255.414 321.403ZM255.456 321.508L255.47 321.542L260.976 319.158L260.962 319.125L255.456 321.508ZM252.248 313.308C253.151 316.134 254.234 318.899 255.491 321.587L260.926 319.046C259.778 316.59 258.789 314.064 257.964 311.482L252.248 313.308ZM252.91 298.919C252.55 301.221 252.146 303.8 251.938 306.205C251.735 308.545 251.68 311.055 252.195 313.121L258.017 311.669C257.756 310.623 257.722 308.95 257.915 306.723C258.103 304.56 258.471 302.189 258.838 299.845L252.91 298.919ZM253.849 290.481C253.744 293.285 253.434 296.077 252.924 298.836L258.823 299.928C259.387 296.883 259.728 293.801 259.845 290.707L253.849 290.481ZM249.229 266.634C250.725 273.501 251.889 278.873 252.68 282.899C253.492 287.03 253.847 289.451 253.847 290.594H259.847C259.847 288.758 259.353 285.737 258.568 281.742C257.762 277.643 256.583 272.205 255.092 265.357L249.229 266.634ZM242.113 229.139C242.67 236.785 246.33 253.529 249.231 266.644L255.09 265.348C252.132 251.975 248.613 235.795 248.097 228.703L242.113 229.139ZM237.3 208.819C239.389 215.279 241.607 222.191 242.113 229.139L248.097 228.703C247.53 220.914 245.061 213.32 243.009 206.973L237.3 208.819ZM237.261 208.699L237.298 208.815L243.01 206.977L242.973 206.861L237.261 208.699ZM233.619 192.052C233.483 194.508 233.969 197.263 234.654 199.992C235.346 202.754 236.31 205.745 237.261 208.699L242.973 206.861C242.006 203.859 241.109 201.066 240.474 198.533C239.831 195.969 239.524 193.921 239.61 192.384L233.619 192.052ZM227.201 175.206C231.319 178.846 233.951 185.469 233.618 192.067L239.61 192.369C240.021 184.23 236.859 175.735 231.174 170.711L227.201 175.206ZM219.932 172.758C222.161 172.351 224.767 173.062 227.204 175.209L231.171 170.708C227.634 167.591 223.226 166.057 218.854 166.855L219.932 172.758ZM217.094 173.785C217.974 173.286 218.932 172.939 219.928 172.758L218.858 166.855C217.198 167.155 215.601 167.734 214.133 168.567L217.094 173.785ZM211.839 170.548C212.259 171.293 212.637 171.976 212.972 172.599L218.255 169.754C217.897 169.089 217.499 168.37 217.062 167.596L211.839 170.548ZM202.524 156.28C205.887 160.874 209.002 165.646 211.854 170.575L217.047 167.57C214.087 162.455 210.856 157.503 207.365 152.736L202.524 156.28ZM176.71 130.546C181.364 132.875 186.388 137.288 191.052 142.263C195.671 147.19 199.745 152.458 202.518 156.272L207.371 152.744C204.516 148.817 200.28 143.334 195.429 138.159C190.622 133.032 185.014 127.992 179.395 125.181L176.71 130.546ZM174.93 129.619L176.665 130.524L179.439 125.203L177.704 124.299L174.93 129.619ZM173.628 121.336C173.455 121.845 173.42 122.423 173.408 122.583C173.385 122.902 173.368 123.288 173.355 123.711C173.33 124.564 173.319 125.684 173.317 126.956L179.317 126.962C179.319 125.71 179.33 124.657 179.353 123.89C179.364 123.503 179.378 123.218 179.392 123.028C179.395 122.983 179.398 122.948 179.401 122.922C179.403 122.896 179.405 122.884 179.405 122.885C179.405 122.886 179.404 122.892 179.402 122.903C179.4 122.914 179.397 122.933 179.392 122.958C179.385 122.994 179.361 123.111 179.308 123.267L173.628 121.336ZM174.185 120.112L173.756 121.02L179.18 123.584L179.609 122.676L174.185 120.112ZM177.134 124.548L178.058 124.16L175.736 118.628L174.812 119.016L177.134 124.548ZM177.021 124.599C177.1 124.562 177.142 124.545 177.145 124.543L174.801 119.02C174.757 119.039 174.659 119.081 174.515 119.147L177.021 124.599ZM173.157 111.348L172.771 121.762L178.766 121.984L179.152 111.57L173.157 111.348ZM176.962 101.292C176.692 104.325 175.582 107.223 173.754 109.659L178.554 113.259C181.052 109.929 182.57 105.969 182.938 101.823L176.962 101.292ZM180.202 97.3484C179.682 98.0075 179.054 98.5736 178.345 99.0226L181.555 104.092C182.838 103.28 183.974 102.255 184.914 101.063L180.202 97.3484ZM184.947 96.5115C184.451 96.4265 183.425 96.2451 182.708 96.2093L182.408 102.202C182.677 102.215 183.275 102.312 183.933 102.425L184.947 96.5115ZM184.951 96.5122L184.944 96.511L183.937 102.426L183.944 102.427L184.951 96.5122ZM190.103 96.4555C188.696 97.0805 187.087 96.8813 184.958 96.5134L183.936 102.426C185.818 102.751 189.226 103.41 192.539 101.939L190.103 96.4555ZM193.226 91.7451C192.18 94.4506 191.458 95.8597 190.114 96.451L192.528 101.944C196.514 100.191 197.954 96.1544 198.823 93.909L193.226 91.7451ZM194.982 88.194C194.21 89.338 193.601 90.5842 193.172 91.8965L198.876 93.7575C199.132 92.9758 199.494 92.2334 199.955 91.5519L194.982 88.194ZM199.782 85.6865C198.401 86.021 197.083 86.5758 195.878 87.3295L199.059 92.4164C199.718 92.0042 200.439 91.7008 201.195 91.5179L199.782 85.6865ZM203.872 83.5247C203.011 84.5923 201.692 85.0892 199.601 85.7364L201.376 91.468C203.23 90.8939 206.366 89.9881 208.542 87.2929L203.872 83.5247ZM206.167 70.7472C206.806 72.6065 208.591 77.6989 203.876 83.5205L208.538 87.2971C215.292 78.9589 212.654 71.1622 211.841 68.7967L206.167 70.7472ZM202.077 64.705C204.006 66.22 205.422 68.2925 206.133 70.6406L211.876 68.9033C210.809 65.3755 208.681 62.262 205.782 59.9859L202.077 64.705ZM201.791 64.4577L201.933 64.5845L205.926 60.1064L205.784 59.9796L201.791 64.4577ZM201.913 64.5611L201.913 64.5613L205.661 59.8761L205.661 59.8759L201.913 64.5611ZM201.802 64.4681L201.803 64.4689L205.771 59.9681L205.77 59.9674L201.802 64.4681ZM200.317 63.0907C200.957 63.7145 201.376 64.088 201.79 64.4573L205.782 59.9782C205.388 59.6263 205.048 59.3235 204.505 58.7947L200.317 63.0907ZM199.213 56.0841C199.066 57.2202 198.923 58.3949 198.938 59.3928C198.952 60.2846 199.083 61.8871 200.317 63.0907L204.506 58.7947C204.805 59.0871 204.911 59.3802 204.94 59.4813C204.963 59.5617 204.941 59.5299 204.937 59.3012C204.93 58.8117 205.006 58.0721 205.163 56.8565L199.213 56.0841ZM197.911 47.492C199.897 49.9423 199.636 52.8673 199.214 56.0796L205.163 56.861C205.549 53.9176 206.378 48.4094 202.571 43.7137L197.911 47.492ZM192.824 44.9295C194.753 45.3186 196.468 45.7153 197.912 47.4936L202.57 43.7122C199.673 40.1434 196.008 39.4509 194.01 39.0479L192.824 44.9295ZM187.361 42.1796C189.112 44.1843 191.196 44.5925 192.809 44.9263L194.025 39.051C193.172 38.8744 192.755 38.7705 192.443 38.6405C192.222 38.5486 192.07 38.4492 191.881 38.2331L187.361 42.1796ZM185.271 37.0237C185.485 38.4644 185.715 40.2945 187.361 42.1796L191.881 38.2331C191.638 37.9553 191.544 37.7593 191.477 37.5539C191.38 37.2623 191.321 36.9142 191.206 36.142L185.271 37.0237ZM185.267 36.9988L185.271 37.0226L191.206 36.1432L191.202 36.1194L185.267 36.9988ZM183.153 32.504C184.744 33.6773 185.012 35.1101 185.262 36.9598L191.208 36.1584C190.946 34.2123 190.472 30.4466 186.715 27.6756L183.153 32.504ZM176.524 31.7535C179.109 31.3226 181.233 31.0765 183.145 32.4976L186.724 27.682C182.53 24.5647 177.903 25.4408 175.537 25.8351L176.524 31.7535ZM175.841 31.7943H176.031V25.7943H175.841V31.7943ZM169.926 31.0218C171.986 32.4771 174.343 32.0792 176.325 31.755L175.357 25.8336C174.235 26.0172 173.68 26.0698 173.353 26.059C173.222 26.0546 173.204 26.0409 173.248 26.0542C173.304 26.0711 173.358 26.0999 173.388 26.1212L169.926 31.0218ZM167.856 27.9901C168.018 28.4163 168.23 28.9803 168.517 29.4753C168.889 30.1158 169.332 30.5686 169.832 30.9523L173.483 26.1907C173.458 26.1717 173.499 26.201 173.563 26.2708C173.632 26.347 173.681 26.4195 173.706 26.4629C173.723 26.4918 173.711 26.4774 173.664 26.366C173.616 26.2519 173.556 26.0982 173.462 25.8522L167.856 27.9901ZM167.689 27.5627L167.863 28.0083L173.455 25.8341L173.282 25.3885L167.689 27.5627ZM165.778 24.7496C166.635 25.4731 167.283 26.4125 167.655 27.4706L173.316 25.4805C172.589 23.4132 171.323 21.5778 169.648 20.1645L165.778 24.7496ZM155.027 23.6687C160.539 22.3671 163.777 23.0937 165.8 24.7683L169.626 20.1458C165.527 16.7539 160.017 16.3253 153.648 17.8292L155.027 23.6687ZM142.597 24.5943C144.641 23.0491 147.992 22.4016 153.681 23.6764L154.993 17.8215C148.602 16.3897 143.091 16.6994 138.979 19.8082L142.597 24.5943ZM142.526 24.6511L142.641 24.5603L138.935 19.8422L138.819 19.9329L142.526 24.6511ZM142.371 24.7753C142.399 24.7491 142.429 24.7244 142.46 24.7012L138.885 19.8828C138.681 20.0344 138.484 20.1969 138.297 20.3698L142.371 24.7753ZM140.578 27.395C140.94 26.4024 141.542 25.5149 142.33 24.8119L138.338 20.3332C136.809 21.6963 135.642 23.4171 134.941 25.3417L140.578 27.395ZM138.454 30.2443C138.915 29.9512 139.413 29.5549 139.842 28.9029C140.151 28.433 140.376 27.8839 140.522 27.5372L134.997 25.1994C134.952 25.3048 134.916 25.3902 134.884 25.4636C134.852 25.5371 134.829 25.5886 134.811 25.6259C134.794 25.6632 134.786 25.6763 134.788 25.6739C134.79 25.6706 134.803 25.6451 134.829 25.6057C134.856 25.5648 134.894 25.5127 134.942 25.4549C134.991 25.3965 135.043 25.343 135.094 25.2958C135.193 25.2044 135.262 25.1637 135.233 25.1823L138.454 30.2443ZM131.849 30.8777C132.867 31.0316 133.976 31.1955 134.989 31.1898C136.075 31.1838 137.306 30.9889 138.476 30.2304L135.211 25.1962C135.325 25.1226 135.348 25.1877 134.956 25.1899C134.492 25.1925 133.856 25.1129 132.745 24.9451L131.849 30.8777ZM126.782 30.8458C128.394 30.503 130.061 30.503 131.673 30.8458L132.921 24.9769C130.486 24.4593 127.969 24.4593 125.534 24.9769L126.782 30.8458ZM125.23 31.5716C125.747 31.2271 126.318 30.9709 126.919 30.8133L125.397 25.0095C124.154 25.3355 122.973 25.8656 121.904 26.5781L125.23 31.5716ZM123.434 33.9854C123.723 32.9987 124.353 32.147 125.213 31.5829L121.921 26.5668C119.869 27.9131 118.365 29.9457 117.676 32.3004L123.434 33.9854ZM123.098 35.6044C123.174 35.0488 123.289 34.4993 123.442 33.9597L117.668 32.3261C117.439 33.1346 117.267 33.9582 117.154 34.7908L123.098 35.6044ZM120.981 40.2846C122.266 38.9525 123.027 37.2005 123.122 35.3516L117.13 35.0435C117.109 35.4461 116.943 35.8277 116.663 36.1178L120.981 40.2846ZM117.51 42.339C118.847 41.9853 120.057 41.2646 121.005 40.2586L116.639 36.1437C116.459 36.3348 116.229 36.4716 115.975 36.5388L117.51 42.339ZM115.52 42.7771C116.132 42.6644 116.88 42.5244 117.584 42.3184L115.901 36.5594C115.533 36.667 115.076 36.758 114.433 36.8764L115.52 42.7771ZM115.459 42.7892L115.553 42.771L114.401 36.8825L114.308 36.9008L115.459 42.7892ZM110.426 45.1322C111.85 43.5467 113.534 43.1655 115.459 42.7893L114.308 36.9007C112.372 37.2792 108.842 37.9173 105.962 41.1226L110.426 45.1322ZM109.108 52.9597C108.679 49.9505 108.427 47.3694 110.431 45.1259L105.957 41.1289C101.894 45.6772 102.772 51.024 103.168 53.8058L109.108 52.9597ZM109.11 52.9708L109.108 52.9611L103.168 53.8044L103.169 53.8141L109.11 52.9708ZM108.038 59.2527C109.231 58.188 109.375 56.7745 109.387 55.9623C109.399 55.1269 109.27 54.0965 109.109 52.9697L103.169 53.8152C103.25 54.3815 103.307 54.8256 103.343 55.182C103.38 55.5457 103.389 55.758 103.387 55.8746C103.385 56.0024 103.372 55.9002 103.439 55.689C103.523 55.4271 103.705 55.0778 104.042 54.7771L108.038 59.2527ZM104.971 61.2337C106.022 60.717 107.012 60.0852 107.924 59.35L104.157 54.6798C103.591 55.1363 102.976 55.5285 102.324 55.8492L104.971 61.2337ZM100.304 65.8962C101.304 63.2683 103.11 62.2308 105.062 61.187L102.233 55.8959C100.142 57.014 96.5346 58.9307 94.696 63.7623L100.304 65.8962ZM101.702 80.6649C100.248 79.0209 99.5077 76.2091 99.4156 72.9929C99.3249 69.8246 99.8819 66.9976 100.301 65.9021L94.6983 63.7563C93.9296 65.7634 93.3107 69.414 93.4181 73.1646C93.524 76.8674 94.3558 81.4161 97.2086 84.6406L101.702 80.6649ZM105.116 81.7982C103.768 81.7982 102.594 81.6645 101.695 80.6563L97.2162 84.6492C99.9811 87.7503 103.593 87.7982 105.116 87.7982V81.7982ZM108.648 82.7034C107.938 82.1553 107.192 81.9741 106.663 81.8962C106.186 81.826 105.649 81.8107 105.192 81.7991L105.04 87.7972C105.281 87.8033 105.455 87.8091 105.591 87.8166C105.656 87.8202 105.705 87.8238 105.739 87.8269C105.775 87.8301 105.789 87.8322 105.789 87.8322C105.788 87.8321 105.765 87.8287 105.725 87.8194C105.685 87.8099 105.623 87.7933 105.546 87.7653C105.467 87.7369 105.375 87.6977 105.276 87.6441C105.176 87.59 105.077 87.5264 104.984 87.4541L108.648 82.7034ZM108.604 82.6695L108.592 82.6608L105.04 87.4966L105.052 87.5053L108.604 82.6695ZM110.109 85.3748C110.039 85.0562 109.937 84.5781 109.779 84.1823C109.67 83.9081 109.489 83.5452 109.174 83.1864C109.027 83.0182 108.886 82.8928 108.781 82.8065C108.691 82.7328 108.606 82.6713 108.603 82.6687L105.053 87.506C105.134 87.5658 104.891 87.4015 104.665 87.1441C104.402 86.8445 104.267 86.5571 104.205 86.402C104.156 86.2791 104.143 86.2113 104.163 86.2918C104.18 86.3572 104.206 86.4684 104.249 86.664L110.109 85.3748ZM110.716 87.1485C110.423 86.6658 110.23 86.1299 110.145 85.5718L104.213 86.467C104.415 87.8076 104.88 89.095 105.582 90.255L110.716 87.1485ZM111.848 88.385C111.393 88.0516 111.008 87.6313 110.716 87.1485L105.582 90.255C106.284 91.415 107.209 92.4246 108.303 93.2257L111.848 88.385ZM116.542 89.0563C114.774 89.2667 113.244 89.3747 111.811 88.3581L108.34 93.2526C111.838 95.7327 115.553 95.2163 117.251 95.0142L116.542 89.0563ZM116.535 89.0571L116.532 89.0575L117.261 95.013L117.264 95.0126L116.535 89.0571ZM118.111 88.9213C117.567 88.9411 117.025 88.9885 116.486 89.0635L117.313 95.0062C117.65 94.9594 117.989 94.9297 118.329 94.9174L118.111 88.9213ZM121.22 93.1901V91.9193H115.22V93.1901H121.22ZM121.215 93.3877L121.219 93.2746L115.221 93.1056L115.218 93.2187L121.215 93.3877ZM122.24 98.2821C121.184 96.8404 121.164 95.2073 121.215 93.3883L115.218 93.2181C115.169 94.9465 115 98.553 117.401 101.829L122.24 98.2821ZM127.874 101.052C124.814 100.575 123.159 99.53 122.236 98.2768L117.405 101.834C119.568 104.773 122.914 106.352 126.95 106.98L127.874 101.052ZM134.371 112.038C132.231 109.685 130.839 106.742 130.381 103.585L124.443 104.447C125.074 108.79 126.988 112.837 129.931 116.074L134.371 112.038ZM83.4319 346.021C82.1321 344.86 80.493 343.358 78.8944 342.599L76.322 348.02C76.9539 348.32 77.8561 349.086 79.436 350.497L83.4319 346.021ZM83.2343 345.859L83.2339 345.859L79.6339 350.659L79.6343 350.659L83.2343 345.859ZM83.4276 346.017L83.4274 346.017L79.4412 350.501L79.4414 350.501L83.4276 346.017ZM90.56 350.855C88.0849 350.109 85.8396 348.17 83.4324 346.021L79.4366 350.497C81.6333 352.458 84.8567 355.402 88.8277 356.6L90.56 350.855ZM93.6608 352.554C92.8056 351.801 91.77 351.22 90.56 350.855L88.8277 356.6C89.2425 356.725 89.5092 356.893 89.6945 357.056L93.6608 352.554ZM98.5442 329.705C98.5177 329.949 98.3248 330.734 97.8041 332.237C97.317 333.643 96.626 335.449 95.7605 337.595C94.0314 341.882 91.6527 347.414 88.9317 353.597L94.4235 356.013C97.1504 349.817 99.5598 344.216 101.325 339.839C102.207 337.652 102.939 335.742 103.473 334.201C103.974 332.757 104.399 331.365 104.509 330.352L98.5442 329.705ZM106.807 314.396C102.877 317.753 98.5267 323.002 98.5267 330.029H104.527C104.527 325.618 107.273 321.889 110.704 318.958L106.807 314.396ZM100.861 312.992C102.503 315.462 104.632 317.571 107.117 319.191L110.393 314.164C108.591 312.99 107.048 311.46 105.857 309.669L100.861 312.992ZM98.4819 307.106C98.8401 309.236 99.6627 311.261 100.891 313.037L105.826 309.624C105.098 308.572 104.611 307.372 104.399 306.111L98.4819 307.106ZM98.8183 300.714C98.2385 302.794 98.1237 304.977 98.4819 307.106L104.399 306.111C104.187 304.849 104.255 303.557 104.598 302.325L98.8183 300.714ZM95.5333 288.494C95.4346 288.42 95.5166 288.456 95.7382 288.788C95.9377 289.088 96.1739 289.512 96.4311 290.06C96.945 291.156 97.4577 292.566 97.8856 294.067C98.313 295.565 98.6326 297.072 98.7899 298.348C98.8685 298.986 98.9017 299.528 98.8968 299.958C98.8944 300.172 98.8827 300.34 98.8673 300.467C98.8597 300.529 98.8518 300.577 98.8451 300.611C98.8383 300.645 98.8337 300.66 98.8337 300.66L104.583 302.378C105.015 300.932 104.933 299.143 104.745 297.614C104.542 295.968 104.149 294.152 103.656 292.421C103.162 290.692 102.545 288.966 101.863 287.512C101.523 286.786 101.145 286.082 100.731 285.461C100.34 284.874 99.8106 284.199 99.1199 283.684L95.5333 288.494ZM86.5273 277.666C87.2902 280.086 88.3467 282.634 89.9253 284.713C91.5417 286.842 93.8055 288.598 96.8852 289.056L97.7679 283.121C96.6311 282.952 95.6437 282.323 94.7042 281.085C93.7268 279.798 92.9226 277.997 92.2497 275.862L86.5273 277.666ZM86.7407 281.924C87.987 281.213 89.563 280.316 91.1218 279.213L87.6552 274.316C86.3701 275.225 85.0404 275.986 83.7682 276.712L86.7407 281.924ZM86.7975 281.89L86.798 281.89L83.711 276.745L83.7105 276.745L86.7975 281.89ZM86.617 281.994L86.7403 281.924L83.7677 276.712L83.6443 276.782L86.617 281.994ZM85.4776 282.654C85.8151 282.451 86.1912 282.236 86.6135 281.996L83.6478 276.78C83.2285 277.019 82.7959 277.266 82.3908 277.509L85.4776 282.654ZM86.8316 287.304C86.7178 284.972 86.7492 282.636 86.9256 280.308L80.9428 279.855C80.7476 282.431 80.7128 285.016 80.8387 287.596L86.8316 287.304ZM85.2695 308.514C87.1834 301.167 86.9812 293.295 86.8342 287.376L80.8361 287.525C80.9862 293.57 81.1306 300.601 79.4633 307.001L85.2695 308.514ZM68.425 323.786C76.8826 321.966 83.1525 316.64 85.2695 308.514L79.4633 307.001C77.999 312.622 73.7399 316.505 67.163 317.92L68.425 323.786ZM76.2649 325.897C75.3266 322.167 72.6311 319.591 68.9302 318.076L66.6578 323.629C69.0466 324.607 70.0808 325.908 70.4462 327.361L76.2649 325.897ZM73.5777 336.534C75.4461 334.065 77.3769 330.274 76.2632 325.89L70.4479 327.367C70.9021 329.155 70.2088 331.042 68.793 332.914L73.5777 336.534ZM79.148 341.137C77.4947 338.232 75.6158 335.461 73.5286 332.85L68.8422 336.597C70.7332 338.962 72.4355 341.473 73.9334 344.104L79.148 341.137ZM80.4378 343.326L79.1258 341.098L73.9557 344.143L75.2677 346.371L80.4378 343.326ZM80.2586 346.715L80.5032 346.254L75.2023 343.443L74.9578 343.904L80.2586 346.715Z" fill="white"/>
<path d="M181.279 675.879L179.991 640.142L178.292 671.762L173.704 671.556C172.639 671.506 147.497 670.343 132.982 667.38C126.991 666.159 118.83 666.555 110.942 666.86C100.215 667.331 91.0058 667.735 85.6753 664.451C82.5149 662.504 80.8563 658.105 80.551 639.465C80.485 635.735 80.485 631.541 80.551 626.881C79.7754 632.897 79.3133 637.386 79.3133 639.498C79.3133 652.197 77.1183 658.997 72.2004 661.538C69.8569 662.743 65.9456 663.395 60.6481 659.615C57.3061 657.247 53.0978 656.942 47.7755 656.554C41.5125 656.1 33.7477 655.539 24.8442 651.257C18.3667 648.129 15.1403 642.65 15.5034 635.405C15.7757 629.984 17.9788 624.496 19.8685 619.653C20.8504 617.177 22.344 613.414 22.2779 612.226C21.5023 611.401 17.7478 610.881 15.6766 610.576C11.5013 609.974 7.17744 609.355 4.53692 606.368C0.996968 602.374 1.29403 596.796 30.9422 506.284C34.5811 495.185 38.0138 484.697 41.0587 475.208C49.5414 448.803 67.2659 409.327 81.4917 377.624C91.1296 356.17 101.098 333.981 101.527 330.028C101.527 324.31 105.075 319.821 108.755 316.677C106.612 315.28 104.775 313.461 103.359 311.33C102.38 309.916 101.726 308.304 101.44 306.609C101.155 304.913 101.247 303.175 101.708 301.519C102.682 298.26 99.6948 287.854 97.3266 286.089C93.11 285.461 90.8243 281.319 89.3885 276.764C87.9197 277.804 86.4179 278.654 85.1307 279.388C84.7099 279.627 84.3055 279.859 83.9342 280.081C83.7484 282.533 83.7153 284.994 83.8352 287.45C83.9837 293.432 84.157 300.884 82.3664 307.757C80.5758 314.631 75.3112 319.235 67.794 320.853C70.8388 322.099 72.7037 324.038 73.3556 326.629C74.1395 329.715 72.8275 332.553 71.1854 334.724C73.1745 337.212 74.9651 339.852 76.5407 342.62L77.8527 344.848L34.6471 426.325L30.9339 417.05C26.4368 405.803 3.96755 349.197 3.42294 339.345C3.04337 332.504 6.03046 323.939 9.19909 314.87C10.9762 310.064 12.5048 305.17 13.7788 300.207C16.0562 290.157 17.9871 275.312 14.2409 261.614C10.9402 249.542 21.9726 231.24 35.6291 210.314C37.9313 206.782 39.9199 203.712 41.4052 201.278C49.6569 187.556 69.9889 164.913 81.995 158.048C92.7799 151.884 129.137 123.606 129.5 123.317L133.304 120.354L136.109 124.282C147.059 139.605 173.844 127.863 174.116 127.748L176.121 126.857L178.052 127.863C188.326 133.004 199.317 146.768 204.944 154.508C208.372 159.189 211.545 164.051 214.45 169.072C214.879 169.831 215.267 170.533 215.614 171.176C216.788 170.51 218.065 170.047 219.393 169.806C222.694 169.204 226.201 170.326 229.188 172.959C234.089 177.291 236.986 184.849 236.614 192.218C236.391 196.236 238.223 201.897 240.154 207.896C242.225 214.299 244.569 221.552 245.105 228.921C245.642 236.29 249.231 252.752 252.16 265.996C255.147 279.71 256.847 287.615 256.847 290.594C256.736 293.543 256.411 296.48 255.874 299.382C255.147 304.028 254.331 309.284 255.106 312.395C255.97 315.099 257.006 317.745 258.209 320.316C261.46 327.834 265.148 336.349 264.274 342.926C263.449 349.106 259.323 366.856 257.268 375.627C260.511 383.103 262.995 389.151 264.133 392.353C267.838 402.8 273.441 418.585 265.644 429.353C263.993 431.664 262.029 434.849 260.156 437.919C255.865 444.966 252.895 449.677 249.866 452.029C261.93 493.031 274.167 534.908 281.586 560.307C285.315 573.072 287.873 581.827 288.657 584.468C291.298 593.388 290.365 602.44 286.017 609.949C284.2 613.162 281.751 615.974 278.816 618.214C275.882 620.453 272.523 622.074 268.944 622.978C267.335 623.358 265.644 623.721 263.993 624.059C250.32 626.947 243.876 629.299 243.876 638.318C243.933 642.413 242.964 646.458 241.057 650.083C239.15 653.708 236.366 656.798 232.959 659.071C226.357 663.469 218.287 664.542 211.793 661.868C206.644 659.739 194.952 665.722 188.301 670.648L181.279 675.879ZM122.057 657.272C126.338 657.199 130.616 657.544 134.83 658.303C145.071 660.391 161.574 661.604 169.537 662.05L176.295 536.509L185.545 536.592L189.926 658.633C196.916 654.648 207.527 650.077 215.374 653.311C218.989 654.797 223.89 654.037 227.859 651.38C230.006 649.959 231.756 648.015 232.945 645.732C234.135 643.448 234.724 640.9 234.659 638.326C234.659 620.808 250.543 617.45 262.128 615.007C263.779 614.66 265.33 614.33 266.823 613.976C269.179 613.363 271.385 612.281 273.311 610.793C275.237 609.306 276.842 607.444 278.029 605.32C281.082 600.03 281.709 593.569 279.803 587.108C279.019 584.46 276.453 575.696 272.723 562.915C265.016 536.509 252.094 492.38 239.61 449.867L233.833 430.22L245.567 443.299C247.999 440.026 250.252 436.624 252.317 433.108C254.281 429.882 256.319 426.507 258.209 423.932C263.16 417.1 258.341 403.559 255.469 395.464C254.331 392.254 251.69 385.859 248.224 377.929L247.605 376.51L247.968 375.008C249.437 368.786 254.314 348.025 255.156 341.705C255.692 337.678 252.276 329.773 249.776 324.005C248.355 320.976 247.155 317.849 246.186 314.647C244.957 309.696 245.93 303.475 246.788 297.963C247.226 295.53 247.502 293.071 247.614 290.602C247.614 288.481 245.237 277.589 243.141 267.976C240.039 253.75 236.54 237.627 235.896 229.639C235.418 223.36 233.347 216.948 231.341 210.751C229.13 203.902 227.042 197.441 227.364 191.706C227.645 186.681 225.425 181.969 223.09 179.906C222.577 179.327 221.856 178.974 221.085 178.924C219.641 179.189 218.741 180.649 218.122 181.887C217.674 182.981 216.833 183.868 215.764 184.373C214.695 184.879 213.476 184.966 212.346 184.618C210.696 184.115 208.897 182.753 209.169 179.197C207.478 173.693 189.291 145.53 175.676 137.113C168.447 139.878 145.533 147.065 131.67 133.351C122.123 140.719 95.9816 160.73 86.5665 166.11C75.8806 172.216 56.8605 193.538 49.3186 206.056C47.7507 208.672 45.7208 211.783 43.3691 215.388C35.4393 227.535 20.6854 250.153 23.1609 259.188C27.4105 274.726 25.3063 291.196 22.7895 302.27C21.4513 307.58 19.8261 312.814 17.9211 317.948C15.198 325.771 12.376 333.849 12.6483 338.858C12.9701 344.56 25.8097 378.845 35.8271 404.326L67.1834 345.145C65.368 342.315 63.4454 339.757 62.5542 339.048L55.2185 336.11L61.7125 331.159C62.4383 330.58 63.1019 329.927 63.6929 329.212C63.0255 329.011 62.3443 328.859 61.6548 328.758L57.5289 328.089L57.7682 323.914C57.839 322.702 57.7446 321.486 57.4877 320.3L45.201 311.825L60.7718 312.23C64.7904 312.329 71.7795 311.586 73.3803 305.422C74.8491 299.811 74.6923 293.045 74.5603 287.673C74.387 280.246 74.2715 275.345 77.96 272.886C78.7439 272.358 79.6103 271.863 80.5427 271.343C82.878 270.023 86.4014 268.042 86.583 266.144C87.0368 261.622 90.2219 261.111 91.1874 261.07C95.3132 260.872 96.1384 264.725 96.6747 267.539C97.7062 272.663 98.6469 275.856 99.4638 277.069C101.865 277.589 104.019 279.248 105.859 282.02C109.49 287.442 112.328 298.309 110.562 304.209C110.484 304.966 110.696 305.724 111.156 306.33C112.435 308.31 115.521 310.546 119.532 311.083L135.697 313.245L120.844 319.904C117.584 321.381 110.843 325.828 110.843 330.136C110.843 334.633 105.438 347.06 89.9909 381.444C75.8476 412.933 58.2386 452.12 49.9127 478.063C46.8596 487.585 43.4186 498.081 39.7797 509.196C29.1185 541.733 13.2754 590.062 12.343 600.567C13.8837 600.949 15.4461 601.239 17.0217 601.433C22.2697 602.184 30.2243 603.323 31.4207 610.749C31.9819 614.207 30.4306 618.118 28.4749 623.077C23.8623 634.72 22.8968 640.059 28.8545 642.931C36.1489 646.446 42.3954 646.9 48.4356 647.337C54.6656 647.783 60.5573 648.212 66.0034 652.082C66.6149 652.559 67.3007 652.932 68.0333 653.187C68.5284 652.486 70.0549 649.515 70.0549 639.514C70.0549 626.427 84.6768 540.8 85.304 537.194L94.4798 538.341C90.354 590.401 88.093 648.03 91.2451 656.958C94.7686 658.345 103.466 657.973 110.546 657.66C114.383 657.445 118.278 657.272 122.057 657.272Z" fill="white"/>
<path d="M155.831 153.427L132.726 131.601V130.091C132.726 130.001 132.677 121.303 132.668 114.603C129.834 111.724 127.993 108.015 127.412 104.016C123.864 103.463 121.364 102.151 119.821 100.055C118.055 97.646 118.17 94.9642 118.22 93.1901C118.22 92.8023 118.22 92.2824 118.22 91.9193C117.778 91.9354 117.337 91.9739 116.899 92.0349C115.167 92.2412 112.543 92.5547 110.075 90.8054C109.301 90.2381 108.646 89.5232 108.149 88.7018C107.652 87.8804 107.322 86.9688 107.179 86.0194C106.998 85.1943 106.973 85.1943 106.816 85.0787C106.527 84.8559 106.098 84.8229 105.116 84.7982C103.68 84.7982 101.287 84.7074 99.4555 82.6527C95.1482 77.7843 96.3117 67.9318 97.4999 64.8292C98.9192 61.0995 101.626 59.6224 103.647 58.5415C104.499 58.1227 105.302 57.6107 106.04 57.0149C106.502 56.6023 106.469 55.7112 106.139 53.3924C105.727 50.4961 105.157 46.5271 108.194 43.1274C110.381 40.6932 113.038 40.2063 114.977 39.8267C115.604 39.7112 116.206 39.5957 116.743 39.4389C117.538 39.2285 118.258 38.7997 118.822 38.2012C119.605 37.3901 120.068 36.3233 120.126 35.1976C120.221 34.5035 120.364 33.817 120.555 33.1429C121.044 31.4722 122.111 30.0301 123.567 29.0749C124.36 28.5463 125.236 28.1532 126.158 27.9114C128.182 27.4811 130.273 27.4811 132.297 27.9114C134.426 28.2332 135.787 28.3982 136.844 27.7133C137.298 27.4245 137.397 27.2265 137.76 26.3683C138.291 24.9097 139.175 23.6056 140.334 22.5726C140.442 22.473 140.555 22.3794 140.672 22.292L140.788 22.2012C143.866 19.8743 148.297 19.3957 154.337 20.749C160.278 19.3462 164.652 19.9238 167.713 22.457C168.979 23.5255 169.936 24.9129 170.486 26.4756L170.659 26.9212C171.03 27.8949 171.162 28.1919 171.657 28.5715C172.557 29.2069 173.621 29.1574 175.841 28.7943H176.031C178.506 28.3817 181.881 27.8206 184.934 30.0898C187.608 32.0619 187.979 34.6612 188.235 36.5591C188.449 38.0031 188.598 39.0346 189.621 40.2063C190.644 41.3781 191.783 41.6503 193.417 41.9887C195.381 42.3847 198.071 42.9294 200.241 45.6029C203.137 49.1758 202.593 53.3924 202.188 56.4703C201.883 58.822 201.751 60.2991 202.411 60.9427C203.071 61.5863 203.467 61.9329 203.929 62.3455C206.344 64.241 208.116 66.834 209.004 69.7719C209.73 71.8844 211.942 78.3289 206.207 85.4088C204.689 87.2902 202.461 87.9916 200.489 88.6022C199.42 88.8609 198.4 89.29 197.468 89.8729C196.852 90.7857 196.366 91.78 196.024 92.827C195.067 95.3025 193.986 98.0256 191.321 99.1973C188.961 100.245 186.453 99.8162 184.447 99.4696C183.87 99.3706 183.053 99.2303 182.558 99.2055C181.828 100.131 180.946 100.927 179.95 101.557C179.631 105.147 178.317 108.576 176.155 111.459L175.412 131.494L155.831 153.427ZM139.691 128.598L155.369 143.451L168.571 128.697L169.314 108.794L170.139 107.87C172.083 105.594 173.14 102.693 173.118 99.7006V96.5898L175.684 95.8884C176.374 95.6642 176.96 95.1982 177.334 94.5764C179.579 91.5315 183.218 92.1586 185.627 92.5712C186.532 92.7704 187.457 92.8591 188.383 92.8353C188.855 92.0084 189.253 91.1414 189.572 90.2443C190.356 88.2391 191.222 85.9782 193.029 84.4681C194.64 83.2609 196.474 82.3858 198.426 81.8936C199.269 81.6918 200.08 81.3724 200.835 80.9447C203.723 77.3717 203.311 74.5166 202.436 71.9586C201.928 70.1487 200.83 68.5603 199.317 67.445C198.805 66.9911 198.219 66.4713 197.559 65.7947C194.366 62.6755 194.902 58.5002 195.298 55.4553C195.653 52.7653 195.81 51.0572 194.844 49.8525C194.292 49.1758 193.706 49.0273 192.039 48.6725C189.926 48.2434 187.038 47.6576 184.406 44.6787C182.655 42.6406 181.59 40.1029 181.361 37.4255C181.138 35.8742 181.056 35.7752 180.784 35.5441C180.157 35.082 179.133 35.1893 177.145 35.5441H176.955C174.587 35.9402 170.989 36.5343 167.614 34.1331C165.983 32.9414 164.772 31.2627 164.157 29.3389L164.008 28.9428C163.876 28.4676 163.61 28.0406 163.241 27.7133C161.945 26.6324 159.115 26.5994 155.22 27.6143L154.395 27.8371L153.429 27.5896C147.975 26.2775 145.83 27.0532 145.021 27.6473L144.897 27.7546C144.556 28.0956 144.309 28.5192 144.179 28.9841C143.519 30.8325 142.269 32.4126 140.623 33.4812C137.322 35.6184 133.824 35.0903 131.282 34.7107C130.2 34.4623 129.083 34.4037 127.981 34.5374C127.804 34.5808 127.636 34.6563 127.486 34.7602C127.423 34.7903 127.368 34.8354 127.327 34.8915C127.285 34.9475 127.258 35.013 127.247 35.082C127.158 35.4465 127.089 35.8156 127.041 36.1878C126.818 38.4757 125.912 40.6437 124.44 42.4097C122.968 44.1757 120.999 45.458 118.789 46.0897C117.974 46.3194 117.148 46.5067 116.314 46.6509C114.663 46.9562 114.003 47.1212 113.45 47.7318C112.625 48.6147 112.732 49.8277 113.104 52.3775C113.516 55.2656 114.077 59.2181 110.719 62.1887C109.593 63.1412 108.358 63.9556 107.039 64.6147C105.281 65.5636 104.563 66.0009 104.068 67.2717C103.367 69.1201 102.946 75.5233 104.563 77.7925H105.388C107.428 77.6876 109.444 78.2686 111.115 79.4429C112.699 80.6515 113.754 82.4253 114.061 84.3938C114.11 84.6084 114.176 84.8972 114.226 85.0375C114.873 85.1772 115.543 85.1772 116.19 85.0375C117.906 84.8312 120.266 84.5506 122.511 86.1102C125.448 88.1648 125.333 91.4077 125.258 93.3386C125.258 94.6176 125.209 95.418 125.522 95.8141C125.737 96.1029 126.735 97.0601 130.762 97.2169L133.725 97.3407L134.327 102.407C134.659 105.46 136.133 108.275 138.453 110.287L139.691 111.335V112.986C139.633 118.349 139.674 125.528 139.691 128.598Z" fill="white"/>
<path d="M172.961 104.652L172.012 130.091L163.117 140.134L136.225 130.091C136.225 130.091 136.084 107.465 136.225 106.838L163.216 105.188L172.961 104.652Z" fill="#DBD3B4"/>
<g opacity="0.35">
<path opacity="0.35" d="M172.961 104.652L172.012 130.1L161.665 140.134L150.715 130.1L136.819 113.621L163.216 105.229L172.961 104.652Z" fill="#BFAB9B"/>
</g>
<path d="M166.88 86.8942C164.211 87.2965 161.609 88.0628 159.148 89.1717C150.311 93.0829 143.94 100.179 137.339 100.641C132.017 101.013 125.126 101.392 122.651 98.0257C120.456 95.0303 123.113 90.9458 120.448 89.0891C118.063 87.4388 114.787 89.9143 112.122 87.9999C109.919 86.4239 111.297 84.1134 108.945 82.3311C106.593 80.5487 103.73 82.2155 102.088 80.3672C99.0348 76.9262 99.8352 68.5591 100.776 66.0918C102.269 62.1806 105.628 62.065 108.367 59.6473C112.303 56.1734 106.915 49.8279 110.843 45.471C112.782 43.3091 115.266 43.5649 117.783 42.8222C119.148 42.4374 120.387 41.6971 121.372 40.6768C123.715 38.2673 123.344 35.9981 123.905 34.1415C124.165 33.2333 124.754 32.454 125.556 31.9548C126.025 31.6403 126.544 31.4061 127.09 31.2617C130.68 30.3127 135.004 33.0688 138.775 30.6428C141.308 28.9925 140.623 26.9461 142.669 25.1967L142.934 24.9739C144.633 23.6949 147.777 22.7295 154.238 24.289C155.418 24.5778 156.714 24.9409 158.117 25.4113L158.438 27.6392C159.016 31.688 159.596 35.7451 160.179 39.8104C162.402 55.505 164.635 71.1996 166.88 86.8942Z" fill="#1A293F"/>
<path d="M203.533 83.1891C201.883 85.2273 197.691 85.1448 195.282 87.1747C192.872 89.2046 192.493 94.8735 189.968 95.9874C186.865 97.3572 181.947 94.2298 180.156 96.6558C175.61 102.828 169.173 97.1922 159.164 95.9627C152.975 95.2035 146.539 94.2463 141.506 93.4872C143.228 80.1965 144.955 66.9059 146.688 53.6153C147.903 44.3239 149.111 35.0298 150.31 25.733C150.31 25.733 150.31 25.6752 150.31 25.6422C151.721 25.1306 153.009 24.718 154.189 24.4045C160.65 22.6881 163.793 23.7526 165.485 25.1636C166.295 25.8586 166.902 26.7595 167.243 27.7711C167.754 29.0419 168.068 30.3209 169.644 31.4184C171.797 32.9532 174.133 32.6148 176.41 32.2435C178.688 31.8722 180.94 31.4183 182.863 32.8706C185.916 35.1233 183.647 38.6468 186.989 42.492C190.586 46.5684 194.655 44.2579 197.518 47.7814C201.413 52.5921 196.033 59.5894 199.993 63.4595C202.733 66.1247 204.243 66.6198 205.728 70.9437C206.677 73.5925 207.7 78.0401 203.533 83.1891Z" fill="#1A293F"/>
<path d="M180.71 83.4613C180.744 84.6166 180.458 85.7588 179.884 86.762L177.409 91.0611C176.868 92.0027 176.584 93.0696 176.584 94.1555V99.7006C176.596 101.835 176.178 103.95 175.354 105.92C174.531 107.889 173.318 109.672 171.79 111.162L163.736 118.836C162.769 119.774 161.477 120.3 160.13 120.305H147.522C146.407 120.301 145.325 119.937 144.435 119.265L136.844 113.613C135.169 112.338 133.773 110.735 132.738 108.902C131.704 107.069 131.054 105.044 130.828 102.952L130.152 97.2581C130.041 96.3196 129.717 95.419 129.203 94.6258L125.349 88.8332C124.676 87.7988 124.331 86.585 124.359 85.351C124.4 83.3788 124.425 80.4 124.31 79.022C124.161 77.2396 124.26 68.0143 124.31 64.9364C124.311 64.2789 124.423 63.6263 124.64 63.0055L128.262 52.4104C128.644 51.2669 129.374 50.2714 130.35 49.5636L150.195 35.3048C150.747 34.9138 151.369 34.6335 152.027 34.4796C152.759 34.3229 153.515 34.3229 154.247 34.4796L171.261 38.0278C172.287 38.2665 173.225 38.7882 173.969 39.5336C174.713 40.279 175.233 41.2182 175.47 42.2444L179.703 58.9457C179.804 59.3736 179.865 59.8102 179.884 60.2495L180.71 83.4613Z" fill="#F9EFDE"/>
<path d="M150.954 120.322H147.522C146.407 120.318 145.325 119.953 144.435 119.282L136.844 113.629C135.169 112.354 133.773 110.751 132.738 108.918C131.704 107.085 131.054 105.061 130.828 102.968L130.152 97.2747C130.041 96.3362 129.717 95.4356 129.203 94.6424L125.349 88.8333C124.676 87.7989 124.331 86.5851 124.359 85.3511C124.4 83.3789 124.425 80.4001 124.31 79.0221C124.161 77.2397 124.26 68.0144 124.31 64.9365C124.311 64.279 124.423 63.6264 124.64 63.0056L128.262 52.4105C128.644 51.267 129.374 50.2715 130.35 49.5637L150.195 35.3049C150.747 34.9139 151.369 34.6337 152.027 34.4797C152.027 39.8433 149.304 43.144 149.782 50.7355C149.84 51.6101 149.956 54.4652 150.063 58.9293C150.063 59.3997 149.197 59.54 149.238 60.8272C149.238 61.6524 150.063 62.2217 150.063 62.5848C150.063 63.4595 150.063 62.7581 150.113 63.6905C150.113 64.0949 149.543 64.5157 149.461 65.2088C149.337 66.3888 150.137 66.6529 150.137 67.0572C150.137 70.952 150.137 75.0778 150.096 78.9231C149.956 85.2273 149.774 88.7425 150.212 92.365C150.286 93.0416 145.945 90.0298 146.754 93.6027C147.142 95.3273 151.482 98.7847 151.119 99.8162C150.146 102.638 152.25 105.279 151.944 106.797C151.639 108.315 150.608 109.974 150.377 111.748C149.958 114.614 150.155 117.537 150.954 120.322Z" fill="#DBD3B4"/>
<path d="M168.068 33.8607C166.953 36.298 165.27 38.4318 163.158 40.0825C162.357 40.6611 161.464 41.1018 160.518 41.3862C160.39 41.4286 160.261 41.4644 160.13 41.4935C156.582 42.3682 154.461 40.363 152.109 41.9886C148.545 44.4641 150.938 50.9086 147.637 53.1283C147.341 53.3292 147.015 53.4823 146.671 53.5821C143.371 54.5311 139.195 50.43 136.72 52.5259C134.5 54.4073 137.133 58.3021 134.756 62.4692C132.066 67.1561 125.564 67.7172 123.559 67.8905C120.621 68.1463 117.419 68.4268 115.72 66.6857C112.807 63.7151 113.483 54.0525 117.758 44.8189C119.151 44.3783 120.394 43.5582 121.347 42.4507C123.691 39.7936 123.319 37.2851 123.88 35.247C124.862 34.1165 125.918 33.0525 127.041 32.0619C130.63 31.0139 134.954 34.067 138.725 31.3852C141.258 29.5864 140.573 27.3089 142.62 25.3698C145.182 25.1635 147.759 25.2743 150.294 25.6999C153.076 26.1682 155.793 26.9631 158.389 28.0681C159.577 28.5797 160.765 29.149 161.937 29.7844C164.096 30.9604 166.148 32.3244 168.068 33.8607Z" fill="#1A293F"/>
<path d="M192.179 68.9797C191.519 70.6768 190.503 72.2126 189.199 73.4837C187.895 74.7548 186.334 75.7317 184.621 76.3484C182.467 77.0333 179.431 77.1736 178.737 75.7296C178.044 74.2855 180.643 72.1731 179.86 69.8957C179.232 68.0721 177.145 68.2453 176.782 66.5208C176.419 64.7962 178.374 63.6492 177.896 62.2216C177.417 60.7941 174.909 61.4873 174.257 59.7462C173.473 57.6585 175.676 55.7771 174.818 53.6069C174.166 51.9566 172.54 52.2289 171.459 50.5373C170.775 49.4646 170.279 47.5255 171.459 43.7792C170.139 43.9318 168.801 43.7888 167.542 43.3607C166.283 42.9326 165.135 42.23 164.181 41.3037C163.8 40.9143 163.457 40.4887 163.158 40.033C162.213 38.5108 161.613 36.7994 161.402 35.0198C161.191 33.2403 161.374 31.4361 161.937 29.735C162.181 28.9506 162.673 28.267 163.34 27.7876C164.165 27.2842 165.584 27.2925 167.243 27.6885C167.754 28.9593 168.068 30.2383 169.644 31.3358C171.798 32.8706 174.133 32.5323 176.41 32.1609C177.862 33.1858 179.203 34.3583 180.412 35.6596C186.585 42.525 195.942 58.8797 192.179 68.9797Z" fill="#1A293F"/>
<path d="M149.873 96.2597L147.1 93.7842L142.975 95.4345C141.718 95.9712 140.663 96.8929 139.963 98.0668L138.717 100.121C138.366 100.703 137.879 101.19 137.297 101.541C136.373 102.085 135.383 102.737 134.599 102.498C135.005 103.106 135.577 103.584 136.247 103.877C136.917 104.169 137.657 104.264 138.378 104.148C140.136 103.802 140.491 102.432 142.273 102.209C143.775 102.028 145.318 103.637 147.876 103.983C148.082 103.983 148.289 104.041 148.495 104.057C148.998 104.123 149.477 104.165 149.939 104.206L151.251 104.28C151.853 104.28 152.415 104.28 152.901 104.28C153.388 104.28 154.065 104.206 154.552 104.14C155.295 104.041 156.028 103.884 156.747 103.67C157.204 103.528 157.654 103.36 158.092 103.166C159.692 102.448 160.402 101.689 161.219 101.896C162.242 102.16 162.869 103.298 164.016 103.958C165.477 104.784 167.424 104.33 168.86 103.331C167.991 103.005 167.178 102.546 166.451 101.97C166.01 101.605 165.683 101.121 165.51 100.575L164.643 98.3721C164.176 97.4091 163.451 96.595 162.548 96.0204C160.948 94.9027 159.127 94.1403 157.209 93.7842L154.948 96.2019C154.195 96.6939 153.318 96.9607 152.419 96.9709C151.52 96.9811 150.637 96.7344 149.873 96.2597Z" fill="#1A293F"/>
<path d="M161.227 68.5918C164.396 66.3391 168.943 62.9229 172.441 65.2499C174.182 66.3404 175.655 67.81 176.749 69.549C177.257 70.3265 177.68 71.1565 178.011 72.0245C177.863 73.8233 176.526 72.9734 175.651 71.8594C173.786 69.4912 171.641 67.8739 169.751 68.435C167.012 69.0704 158.81 74.2111 157.737 74.731C156.664 75.2508 155.501 73.5675 155.633 73.0807C155.864 72.2638 160.105 69.3922 161.227 68.5918Z" fill="#1A293F"/>
<path d="M143.395 68.8806C140.095 66.8424 135.259 63.7398 131.95 66.2978C130.302 67.5063 128.948 69.0719 127.99 70.8775C127.543 71.6843 127.184 72.5363 126.917 73.419C127.206 75.2013 128.468 74.2441 129.252 73.0972C130.902 70.6217 132.949 68.8476 134.88 69.2849C137.652 69.7222 146.234 74.3184 147.34 74.7392C148.446 75.1601 149.485 73.4272 149.32 72.9734C149.04 72.173 144.584 69.5985 143.395 68.8806Z" fill="#1A293F"/>
<path d="M150.508 78.7498C150.516 78.8514 150.516 78.9535 150.508 79.0551V79.2614V79.6904V80.5156L150.574 82.1659L150.706 85.5244L150.929 92.2494V93.2561L149.898 93.0168L146.836 91.7956L147.298 91.5398L146.803 93.0416V92.7528C147.328 93.691 147.984 94.5495 148.751 95.3025C149.512 96.0593 150.389 96.6889 151.35 97.1674C151.783 97.4023 152.278 97.4975 152.767 97.4399C153.256 97.3823 153.715 97.1747 154.081 96.8456C154.907 96.1937 155.484 95.2448 156.384 94.4361L156.887 95.022C156.119 95.7069 155.501 96.6723 154.56 97.448C154.083 97.8675 153.49 98.1324 152.86 98.2076C152.229 98.2827 151.59 98.1646 151.028 97.8688C149.987 97.3514 149.034 96.6718 148.206 95.8554C147.377 95.0406 146.671 94.1094 146.11 93.0911L146.036 92.9591L146.086 92.8023L146.581 91.3005L146.638 90.9952L147.043 91.0447L150.343 91.482L149.345 92.2494L149.535 85.5326L149.609 82.1742L149.658 78.923L150.508 78.7498Z" fill="#1A293F"/>
<path d="M168.893 95.3849C169.949 96.295 170.775 97.4426 171.301 98.7337C171.827 100.025 172.04 101.422 171.921 102.811" fill="#1A293F"/>
<path d="M174.158 78.7413C174.658 78.6033 175.186 78.5993 175.689 78.7296C176.191 78.86 176.651 79.1201 177.021 79.4839" fill="#1A293F"/>
<path d="M174.215 78.56C174.644 78.2701 175.141 78.0984 175.657 78.0621C176.172 78.0259 176.689 78.1265 177.153 78.3537" fill="#1A293F"/>
<path d="M130.713 79.4923C130.274 79.2202 129.771 79.0692 129.255 79.0547C128.739 79.0402 128.228 79.1628 127.775 79.4098" fill="#1A293F"/>
<path d="M130.705 79.3026C130.369 78.9062 129.936 78.6036 129.449 78.4243C128.962 78.2449 128.436 78.195 127.924 78.2794" fill="#1A293F"/>
<path d="M172.417 76.4556C172.417 76.4556 166.64 75.5232 164.454 76.3319C162.984 76.9717 161.642 77.8718 160.493 78.9889C159.981 79.3355 158.95 80.1771 159.313 80.5567C159.676 80.9363 160.592 80.7795 161.302 81.1178C162.011 81.4561 167.903 82.8176 170.667 80.7217C173.432 78.6258 172.417 76.4556 172.417 76.4556Z" fill="#F5F6F7"/>
<path d="M165.708 81.415C167.139 81.415 168.299 80.3251 168.299 78.9807C168.299 77.6363 167.139 76.5465 165.708 76.5465C164.277 76.5465 163.117 77.6363 163.117 78.9807C163.117 80.3251 164.277 81.415 165.708 81.415Z" fill="#28323A"/>
<path d="M158.479 77.1819C158.948 76.3997 159.501 75.6718 160.13 75.0117C160.287 74.8467 160.452 74.6817 160.633 74.5249C160.815 74.3681 161.021 74.2113 161.186 74.0876C161.554 73.809 161.94 73.5554 162.341 73.3284C162.75 73.1053 163.171 72.9069 163.604 72.7343C164.039 72.5603 164.485 72.4169 164.94 72.3052C165.835 72.0901 166.746 71.952 167.664 71.8926C168.588 71.8281 169.516 71.8502 170.436 71.9586C171.41 72.056 172.359 72.3213 173.242 72.7425C173.764 72.9924 174.226 73.3527 174.595 73.7987C174.822 74.0746 174.984 74.3983 175.068 74.7455C175.152 75.0928 175.157 75.4546 175.082 75.8039C175.004 76.154 174.85 76.483 174.632 76.7679C174.414 77.0529 174.137 77.2871 173.819 77.4542C173.256 77.7292 172.625 77.8325 172.004 77.7513H171.905H171.822C170.778 77.422 169.718 77.1465 168.645 76.9261C167.583 76.7002 166.494 76.6252 165.411 76.7033C164.319 76.7962 163.269 77.1716 162.366 77.7925C161.9 78.1138 161.459 78.4696 161.046 78.857C160.587 79.2199 160.101 79.5481 159.593 79.839C159.404 80.0205 159.263 80.3175 159.379 80.4001C159.494 80.4826 159.816 80.5733 160.138 80.6476C160.765 80.7879 161.359 80.9777 161.97 81.1015C163.17 81.3792 164.407 81.4655 165.634 81.3573C166.846 81.2255 168.034 80.9284 169.165 80.4743C170.23 80.0926 171.166 79.4175 171.864 78.5269L173.291 79.8224C172.196 80.7059 170.906 81.3167 169.528 81.6048C168.263 81.9062 166.968 82.0695 165.667 82.0916C164.377 82.0882 163.095 81.9077 161.854 81.5553C161.244 81.3903 160.641 81.2005 160.047 81.0519C159.684 80.9938 159.345 80.8303 159.074 80.5816C159.006 80.488 158.966 80.3776 158.957 80.2626C158.948 80.1476 158.972 80.0324 159.024 79.9297C159.1 79.7635 159.21 79.6146 159.346 79.4924C159.835 79.2193 160.294 78.8957 160.716 78.5269C161.128 78.1556 161.541 77.7018 161.995 77.3552C162.923 76.5836 164.007 76.0208 165.172 75.7049C166.347 75.4124 167.561 75.3066 168.769 75.3913C169.969 75.4455 171.158 75.6309 172.317 75.9442L172.136 75.9029C172.755 75.9524 173.11 75.6636 173.159 75.4161C173.209 75.1685 173.011 74.8055 172.334 74.4506C170.871 73.825 169.285 73.5427 167.697 73.6255C166.867 73.6295 166.039 73.7012 165.221 73.84C164.823 73.9085 164.429 73.9994 164.041 74.1123C163.648 74.2289 163.262 74.3695 162.886 74.5331C162.509 74.6971 162.142 74.8845 161.788 75.0943C161.59 75.2098 161.434 75.2923 161.268 75.4078L160.782 75.7791C160.129 76.3165 159.522 76.9071 158.966 77.545L158.479 77.1819Z" fill="#1A293F"/>
<path d="M159.239 81.1592C159.941 81.6066 160.611 82.1029 161.244 82.6445C161.819 83.1855 162.51 83.5865 163.266 83.8162C164.009 83.9978 164.784 84.0147 165.535 83.8657C166.285 83.7345 167.009 83.4838 167.68 83.1231C167.771 83.0758 167.87 83.0468 167.971 83.0378C168.073 83.0288 168.175 83.0399 168.273 83.0706C168.37 83.1012 168.46 83.1508 168.539 83.2165C168.617 83.2821 168.681 83.3625 168.728 83.4531C168.776 83.5425 168.805 83.6403 168.814 83.741C168.824 83.8417 168.813 83.9433 168.783 84.0399C168.754 84.1365 168.705 84.2263 168.64 84.304C168.575 84.3818 168.496 84.4459 168.406 84.4928C168.372 84.5176 168.332 84.5345 168.291 84.5424C167.438 84.8397 166.545 85.0012 165.642 85.021C164.741 85.0488 163.844 84.8857 163.01 84.5424C162.596 84.3654 162.212 84.1261 161.871 83.8327C161.558 83.5496 161.26 83.2493 160.98 82.9333C160.442 82.3018 159.86 81.709 159.239 81.1592Z" fill="#1A293F"/>
<path d="M132.479 77.4625C132.479 77.4625 138.255 76.4476 140.441 77.1572C141.909 77.7168 143.269 78.5264 144.46 79.5502C144.98 79.872 146.036 80.6311 145.681 80.9942C145.326 81.3573 144.41 81.2418 143.701 81.5718C142.991 81.9019 137.182 83.3129 134.335 81.415C131.488 79.5172 132.479 77.4625 132.479 77.4625Z" fill="#F5F6F7"/>
<path d="M139.279 81.9347C140.71 81.9172 141.857 80.8834 141.842 79.6257C141.827 78.368 140.654 77.3626 139.223 77.3801C137.792 77.3976 136.645 78.4313 136.66 79.689C136.676 80.9467 137.848 81.9521 139.279 81.9347Z" fill="#28323A"/>
<path d="M145.929 78.1804C145.354 77.5735 144.724 77.0211 144.048 76.5301C143.886 76.4088 143.718 76.2959 143.544 76.1917L143.016 75.9112C142.656 75.7248 142.284 75.5622 141.902 75.4243C141.525 75.2815 141.139 75.163 140.747 75.0695C140.358 74.9766 139.964 74.905 139.567 74.855C138.747 74.7402 137.919 74.6933 137.091 74.7147C135.515 74.6717 133.948 74.9672 132.495 75.5811C132.222 75.7031 131.973 75.8737 131.761 76.0845C131.637 76.2495 131.621 76.3568 131.645 76.4393C131.67 76.5218 132.066 76.9096 132.685 76.8436H132.52C133.664 76.5351 134.836 76.3389 136.019 76.2578C137.214 76.1593 138.418 76.2343 139.592 76.4805C140.755 76.7489 141.852 77.2484 142.818 77.9493C143.288 78.2877 143.717 78.692 144.147 79.0386C144.582 79.3839 145.052 79.6826 145.549 79.9297C145.693 80.0447 145.811 80.188 145.896 80.3506C145.945 80.4506 145.967 80.5613 145.962 80.6724C145.956 80.7972 145.903 80.9151 145.813 81.0024C145.525 81.2005 145.195 81.3278 144.848 81.3738L143.049 81.8936C141.824 82.2429 140.56 82.4396 139.286 82.4795C137.999 82.4915 136.714 82.3754 135.449 82.1329C134.075 81.9096 132.771 81.3732 131.637 80.5651L132.99 79.1953C133.732 80.0384 134.691 80.6608 135.763 80.9942C136.906 81.3931 138.096 81.6454 139.303 81.7451C140.522 81.8262 141.746 81.7204 142.934 81.4315C143.544 81.3078 144.13 81.118 144.749 80.9694C145.021 80.9436 145.285 80.8622 145.525 80.7301C145.657 80.6641 145.525 80.3918 145.31 80.2185C144.795 79.9536 144.298 79.653 143.825 79.3191C143.393 78.9591 142.935 78.6309 142.455 78.3372C141.518 77.7819 140.457 77.4672 139.369 77.4212C138.29 77.3863 137.211 77.4918 136.159 77.7348C135.098 77.9563 134.048 78.2317 133.015 78.56H132.941H132.85C132.249 78.6503 131.636 78.5732 131.076 78.3372C130.745 78.197 130.451 77.9827 130.217 77.7109C129.982 77.439 129.813 77.1169 129.723 76.7694C129.639 76.4129 129.643 76.0415 129.733 75.6867C129.824 75.3319 129.998 75.0041 130.243 74.7312C130.433 74.5019 130.659 74.3042 130.911 74.1453C131.122 73.9904 131.349 73.8576 131.588 73.7493C132.456 73.3458 133.384 73.0866 134.335 72.9818C135.238 72.8612 136.149 72.8225 137.058 72.8663C137.959 72.9037 138.856 73.0113 139.74 73.1881C140.19 73.2839 140.634 73.408 141.069 73.5595C141.498 73.7072 141.92 73.878 142.331 74.0711C142.738 74.2761 143.132 74.5048 143.511 74.756C143.685 74.8715 143.883 75.0035 144.081 75.152C144.279 75.3006 144.435 75.4491 144.6 75.6059C145.247 76.2208 145.826 76.9042 146.325 77.644L145.929 78.1804Z" fill="#1A293F"/>
<path d="M145.772 81.5718C145.158 82.1096 144.582 82.6886 144.047 83.3046C143.764 83.6153 143.464 83.9101 143.148 84.1875C142.81 84.4743 142.428 84.7055 142.017 84.8724C141.2 85.207 140.326 85.378 139.443 85.3758C138.555 85.3751 137.672 85.2502 136.819 85.0045C136.714 84.9833 136.614 84.9405 136.526 84.8789C136.439 84.8173 136.365 84.7381 136.309 84.6465C136.253 84.5548 136.217 84.4525 136.203 84.3462C136.189 84.2399 136.197 84.1318 136.227 84.0288C136.257 83.9258 136.307 83.83 136.376 83.7476C136.445 83.6652 136.53 83.5979 136.626 83.5501C136.722 83.5022 136.827 83.4747 136.934 83.4694C137.041 83.4641 137.148 83.481 137.248 83.5192L137.364 83.5604C138.047 83.8814 138.772 84.1037 139.517 84.2206C140.266 84.3404 141.031 84.3152 141.77 84.1463C142.518 83.9303 143.206 83.5464 143.783 83.0241C144.411 82.4933 145.075 82.008 145.772 81.5718Z" fill="#1A293F"/>
<path d="M132.338 127.005C132.338 127.005 95.4866 155.671 84.2891 162.099C73.0916 168.527 53.362 190.328 45.3661 203.688C37.3703 217.047 14.9754 246.786 18.7051 260.467C22.4348 274.148 21.0733 289.043 18.2925 301.305C15.5117 313.567 7.50761 329.525 8.06872 339.122C8.62983 348.719 35.2579 415.367 35.2579 415.367L72.58 344.981C72.58 344.981 67.2495 335.904 64.5842 334.856C64.5842 334.856 75.7817 326.324 62.4553 324.186C62.4553 324.186 62.9834 315.11 58.7173 316.76C58.7173 316.76 74.7172 318.889 77.9188 306.627C81.1205 294.365 77.3825 278.901 80.5841 276.772C83.7858 274.644 90.7089 271.97 91.2452 266.639C91.7816 261.309 92.8461 281.039 98.1766 281.567C103.507 282.095 107.773 297.567 106.172 302.897C104.572 308.228 110.975 314.623 118.971 315.695C126.967 316.768 191.486 319.425 195.711 317.824C199.936 316.224 209.046 314.623 212.775 309.292C216.505 303.962 217.578 318.889 212.775 319.953C207.973 321.018 251.698 379.142 251.698 379.142C251.698 379.142 258.63 350.352 259.694 342.348C260.759 334.344 252.268 319.953 250.617 313.558C248.967 307.163 252.218 296.494 252.218 290.635C252.218 284.777 241.59 243.139 240.509 229.284C239.428 215.43 231.432 201.559 231.977 191.962C232.522 182.365 226.11 173.297 220.251 174.37C214.393 175.442 213.32 182.894 213.848 179.164C214.376 175.434 192.27 140.134 176.006 132.006C176.006 132.006 145.665 145.662 132.338 127.005Z" fill="#EFE5B9"/>
<path d="M132.314 114.628C132.314 114.628 132.503 132.295 132.033 137.477C131.563 142.659 139.336 157.025 153.941 158.436C168.547 159.847 174.661 151.133 176.08 148.311C177.5 145.489 174.9 124.282 176.08 122.162C177.26 120.041 165.716 129.233 164.528 131.824L162.407 133.706C162.407 133.706 150.855 124.753 145.45 122.153C140.045 119.554 132.314 114.628 132.314 114.628Z" fill="#EACE48"/>
<path d="M183.284 307.023C183.284 307.023 147.984 244.261 142.273 211.453C136.563 178.644 132.017 140.134 132.017 140.134L176.08 148.311C176.08 148.311 187.567 175.079 190.059 195.057C192.551 215.034 191.841 275.32 183.284 307.023Z" fill="#EACE48"/>
<mask id="mask0_337_526" style="mask-type:alpha" maskUnits="userSpaceOnUse" x="132" y="114" width="60" height="194">
<path fill-rule="evenodd" clip-rule="evenodd" d="M132.033 137.477C132.503 132.295 132.314 114.628 132.314 114.628C132.314 114.628 140.045 119.554 145.45 122.153C150.855 124.753 162.407 133.706 162.407 133.706L164.528 131.824C165.716 129.233 177.26 120.041 176.08 122.162C175.519 123.17 175.813 128.499 176.123 134.113C176.464 140.299 176.824 146.832 176.08 148.311C176.08 148.311 187.567 175.079 190.059 195.057C192.551 215.034 191.841 275.32 183.284 307.023C183.284 307.023 147.984 244.261 142.273 211.453C136.563 178.644 132.017 140.134 132.017 140.134L132.331 140.192C132.067 139.143 131.966 138.216 132.033 137.477Z" fill="#EACE48"/>
</mask>
<g mask="url(#mask0_337_526)">
<path d="M127.38 101.664L138.247 115.329L128.832 130.042L117.964 116.369L127.38 101.664Z" fill="#D55944"/>
<path d="M147.67 100.625L158.538 114.298L149.114 129.002L138.247 115.329L147.67 100.625Z" fill="#D55944"/>
<path d="M167.953 99.5851L178.82 113.258L169.405 127.962L158.538 114.298L167.953 99.5851Z" fill="#D55944"/>
<path d="M188.235 98.5536L199.103 112.218L189.687 126.931L178.82 113.258L188.235 98.5536Z" fill="#D55944"/>
<path d="M128.831 130.042L139.699 143.707L130.284 158.411L119.416 144.746L128.831 130.042Z" fill="#D55944"/>
<path d="M149.114 129.002L159.99 142.675L150.567 157.38L139.699 143.707L149.114 129.002Z" fill="#D55944"/>
<path d="M169.405 127.963L180.273 141.635L170.857 156.34L159.99 142.675L169.405 127.963Z" fill="#D55944"/>
<path d="M189.688 126.931L200.555 140.596L191.14 155.308L180.272 141.635L189.688 126.931Z" fill="#D55944"/>
<path d="M130.284 158.411L141.151 172.084L131.736 186.788L120.869 173.124L130.284 158.411Z" fill="#D55944"/>
<path d="M150.567 157.38L161.434 171.044L152.019 185.757L141.151 172.084L150.567 157.38Z" fill="#D55944"/>
<path d="M170.857 156.34L181.725 170.013L172.301 184.717L161.434 171.044L170.857 156.34Z" fill="#D55944"/>
<path d="M191.14 155.308L202.007 168.973L192.592 183.677L181.725 170.013L191.14 155.308Z" fill="#D55944"/>
<path d="M131.736 186.788L142.604 200.461L133.189 215.174L122.321 201.501L131.736 186.788Z" fill="#D55944"/>
<path d="M152.019 185.757L162.886 199.422L153.471 214.134L142.604 200.461L152.019 185.757Z" fill="#D55944"/>
<path d="M172.301 184.717L183.177 198.39L173.754 213.095L162.886 199.422L172.301 184.717Z" fill="#D55944"/>
<path d="M192.592 183.677L203.46 197.35L194.045 212.055L183.177 198.39L192.592 183.677Z" fill="#D55944"/>
<path d="M173.754 213.095L184.621 226.768L175.206 241.472L164.339 227.799L173.754 213.095Z" fill="#D55944"/>
<path d="M194.044 212.055L204.912 225.728L195.488 240.432L184.621 226.768L194.044 212.055Z" fill="#D55944"/>
</g>
<path d="M182.789 307.105C182.789 307.006 180.685 296.997 180.256 294.241C179.777 291.147 179.678 287.087 181.906 285.313C183.804 283.795 182.426 278.481 180.091 274.016C178.77 271.491 178.655 257.266 178.539 242.198C178.449 229.911 178.358 218.31 177.582 214.522L176.889 211.221C175.354 203.968 173.77 196.467 174.141 189.165C174.488 182.407 173.316 178.017 170.692 176.449C169.149 175.525 168.588 171.333 167.969 165.516C167.754 163.552 167.556 161.687 167.301 160.35C166.525 156.299 164.074 156.579 164 156.587H163.761L163.62 156.389C162.086 154.046 160.716 147.23 163.084 143.137C165.304 139.317 162.152 133.92 162.119 133.871L162.779 133.474C162.919 133.714 166.195 139.308 163.752 143.525C161.59 147.263 162.754 153.427 164.157 155.787C164.982 155.787 167.325 156.183 168.084 160.169C168.34 161.547 168.547 163.42 168.761 165.4C169.215 169.658 169.784 174.955 171.113 175.756C174.017 177.505 175.305 182.011 174.942 189.165C174.579 196.319 176.146 203.82 177.665 211.032C177.904 212.137 178.135 213.235 178.358 214.332C179.183 218.186 179.241 229.829 179.34 242.149C179.447 255.797 179.563 271.26 180.8 273.62C183.276 278.373 184.753 284.001 182.451 285.874C180.52 287.417 180.652 291.188 181.089 294.076C181.518 296.824 183.565 306.808 183.622 306.907L182.789 307.105Z" fill="white"/>
<path d="M163.604 156.596C160.732 156.596 139.501 156.051 131.67 140.307V140.224L131.975 113.951L138.882 118.077C139.919 118.693 140.994 119.244 142.1 119.727C150.022 123.242 160.501 131.593 162.399 133.136C169.355 124.612 175.701 121.897 175.973 121.782L176.897 121.394L176.468 122.302C176.188 123.127 176.353 134.564 176.526 141.578C176.526 141.627 178.267 152.602 164.058 156.554H163.967L163.604 156.596ZM132.404 140.051C140.408 155.985 162.688 155.869 163.851 155.82C177.326 152.057 175.791 142.097 175.717 141.677C175.618 137.757 175.362 126.097 175.602 122.822C173.811 123.737 168.398 126.89 162.721 133.945L162.473 134.25L162.168 134.003C162.052 133.904 150.352 124.274 141.745 120.462C140.609 119.967 139.507 119.399 138.445 118.762L132.668 115.304L132.404 140.051Z" fill="white"/>
<path d="M126.628 218.31C126.628 218.31 124.466 212.954 124.607 211.659C124.747 210.363 128.922 207.756 130.02 208.045C131.117 208.333 132.561 215.851 132.561 215.851L126.628 218.31Z" fill="#EACE48"/>
<path d="M126.422 218.813L126.273 218.45C126.051 217.897 124.07 212.971 124.227 211.617C124.326 210.71 125.671 209.662 126.463 209.142C127.635 208.317 129.302 207.492 130.119 207.698C131.274 208.003 132.38 212.905 132.941 215.801L132.999 216.106L126.422 218.813ZM129.805 208.399C128.749 208.631 127.757 209.093 126.901 209.753C125.638 210.578 125.027 211.403 124.994 211.7C124.895 212.525 126.001 215.677 126.843 217.798L132.124 215.611C131.464 212.311 130.474 208.696 129.904 208.408L129.805 208.399Z" fill="#1A293F"/>
<path d="M120.67 221.685C120.67 221.685 118.335 216.412 118.434 215.083C118.533 213.755 122.626 211.04 123.732 211.296C124.837 211.551 126.521 219.019 126.521 219.019L120.67 221.685Z" fill="#EACE48"/>
<path d="M120.481 222.155L120.316 221.8C120.076 221.255 117.947 216.395 118.055 215.034C118.121 214.126 119.433 213.037 120.208 212.467C121.355 211.642 122.981 210.71 123.814 210.9C124.978 211.172 126.29 216.04 126.892 218.912L126.967 219.217L120.481 222.155ZM123.592 211.642C122.533 211.9 121.545 212.394 120.703 213.086C119.474 213.994 118.888 214.737 118.863 215.091C118.797 215.917 119.994 219.036 120.91 221.132L126.117 218.78C125.349 215.479 124.227 211.915 123.641 211.651L123.592 211.642Z" fill="#1A293F"/>
<path d="M202.725 215.694C202.725 215.694 203.591 211.263 203.286 210.281C202.981 209.299 199.383 207.921 198.591 208.309C197.799 208.697 197.766 214.687 197.766 214.687L202.725 215.694Z" fill="#EACE48"/>
<path d="M203.022 216.156L197.411 215.001V214.687C197.411 211.84 197.576 208.367 198.417 207.962C199.259 207.558 201.289 208.433 201.52 208.532C202.221 208.837 203.434 209.456 203.657 210.182C203.971 211.205 203.245 215.034 203.096 215.785L203.022 216.156ZM198.186 214.374L202.419 215.24C202.733 213.532 203.104 210.991 202.914 210.396C202.857 210.198 202.353 209.736 201.215 209.241C200.455 208.834 199.601 208.632 198.739 208.655C198.417 208.994 198.195 211.824 198.186 214.374Z" fill="#1A293F"/>
<path d="M208.105 217.154C208.105 217.154 209.07 212.74 208.781 211.758C208.493 210.776 204.936 209.282 204.128 209.679C203.319 210.075 203.203 216.049 203.203 216.049L208.105 217.154Z" fill="#EACE48"/>
<path d="M208.394 217.617L202.807 216.354V216.04C202.865 213.194 203.113 209.72 203.954 209.332C204.796 208.944 206.818 209.86 207.049 209.967C207.742 210.289 208.938 210.933 209.145 211.618C209.442 212.641 208.633 216.453 208.468 217.204L208.394 217.617ZM203.632 215.735L207.849 216.692C208.204 214.992 208.625 212.467 208.451 211.865C208.394 211.667 207.907 211.188 206.801 210.669C206.048 210.238 205.193 210.018 204.326 210.033C203.946 210.363 203.632 213.194 203.632 215.735Z" fill="#1A293F"/>
<path d="M213.361 218.277C213.361 218.277 214.417 213.878 214.186 212.888C213.955 211.898 210.39 210.413 209.582 210.718C208.773 211.023 208.517 217.064 208.517 217.064L213.361 218.277Z" fill="#EACE48"/>
<path d="M213.65 218.747L208.088 217.361V217.047C208.204 214.2 208.526 210.735 209.384 210.363C210.242 209.992 212.231 210.957 212.453 211.065C213.147 211.403 214.327 212.071 214.525 212.789C214.797 213.821 213.914 217.616 213.699 218.367L213.65 218.747ZM208.889 216.767L213.081 217.806C213.468 216.115 213.906 213.598 213.782 212.987C213.732 212.797 213.246 212.302 212.132 211.758C211.395 211.326 210.56 211.09 209.706 211.073C209.351 211.395 209.004 214.258 208.889 216.734V216.767Z" fill="#1A293F"/>
<path d="M218.716 219.836C218.716 219.836 219.83 215.455 219.583 214.464C219.335 213.474 215.812 211.89 214.995 212.236C214.178 212.583 213.856 218.565 213.856 218.565L218.716 219.836Z" fill="#EACE48"/>
<path d="M218.997 220.306L213.452 218.854V218.541C213.609 215.702 213.972 212.236 214.83 211.873C215.688 211.51 217.66 212.5 217.883 212.616C218.576 212.954 219.756 213.639 219.938 214.365C220.202 215.405 219.261 219.184 219.113 219.935L218.997 220.306ZM214.261 218.268L218.436 219.366C218.849 217.715 219.36 215.166 219.203 214.555C219.154 214.357 218.675 213.862 217.553 213.301C216.835 212.874 216.02 212.635 215.185 212.608C214.789 212.913 214.409 215.727 214.261 218.268Z" fill="#1A293F"/>
</svg>
