<svg id="Layer_1" data-name="Layer 1" xmlns="http://www.w3.org/2000/svg" xmlns:xlink="http://www.w3.org/1999/xlink" viewBox="0 0 264 214"><defs><style>.cls-1,.cls-12,.cls-7{fill:none;}.cls-2{fill:#cce7ff;isolation:isolate;}.cls-3{fill:#fff;}.cls-4{fill:#4a1b28;}.cls-5{fill:#3b1520;}.cls-6{fill:#a62017;}.cls-7{stroke:#a67684;stroke-linecap:round;stroke-width:3.01px;}.cls-12,.cls-7{stroke-miterlimit:10;}.cls-8{fill:#e0d7c3;}.cls-9{fill:#f9efde;}.cls-10{fill:#f2e8d7;}.cls-11{opacity:0.68;}.cls-12{stroke:#8f8f8f;stroke-width:0.97px;}.cls-13{fill:#a88080;}.cls-14{fill:#7a7a7a;}.cls-15{fill:#3b3b3b;}.cls-16{fill:#a8a8a8;}.cls-17{fill:#8f8f8f;}.cls-18{clip-path:url(#clip-path);}.cls-19{fill:#a67684;}.cls-20{fill:#632536;}.cls-21{fill:#7d3248;}.cls-22{fill:#6c283b;}</style><clipPath id="clip-path"><path class="cls-1" d="M94.49,98.26c2.79-10.83,3-22.13,4.63-33.2s3.69-22.47,11.23-30.73A35.58,35.58,0,0,1,129.56,23.5c11.88-2.35,26,3.26,32.27,13.6a40.53,40.53,0,0,1,5.67,17.46c1.76,16.81,3.33,34.48,10.05,50,7.76,17.89,21.94,29.71,33.31,45.55-7.49-4-23.69-19.27-34-22.84-1.3-.46-2.4-.33-5.31-1.21-9.14-2.76-7.1,13.45-16.35,11.77-1.87-.34,10.08-56.71,4.37-84.51A36,36,0,0,0,157.67,46a30.57,30.57,0,0,0-5-7.9,22.5,22.5,0,0,0-21-7.29,27.86,27.86,0,0,0-7.93,3c-3.68,2.07-6.76,4.87-10.29,8.58-18.39,19.35.43,97.57-1.9,98-4.83.85-9.26-16.06-15.26-14.36-2.62.75-7.12,1.55-10.37,2.13-6,1.07-9.14,19.86-14.22,19.71-2.7-.07-9.74,3.14-9.27-.36s4.5-8.64,6.84-10.5a74.47,74.47,0,0,0,19-22.79A70.78,70.78,0,0,0,94.49,98.26Z"/></clipPath></defs><path class="cls-2" d="M75,0H264V217H95Z"/><path class="cls-3" d="M213.72,316.52l-6.33-26.18c-1.86-7.69-3.76-15.44-6.85-22.71,3-1.75,5.94-3.42,8.92-5.07,3.5-1.95,7.07-3.93,11-4.84,1.31-.3,2.81-.58,3.48-1.67.86-1.4-.19-3.24.35-4.77s2.27-2.15,3.39-3.27c1.9-1.88,1.88-4.79,1.66-7.38-.93-11-2.12-22.53-4.45-33.33-3.13-14.49-6.44-28-9.57-42.48A132.07,132.07,0,0,0,208,141.94c-1.18-2.82-7.17-9.15-9.59-8.4v0c-.09-.12-.16-.24-.26-.35a6.7,6.7,0,0,0-2.29-1.54c-7.07-8.31-13.81-16.69-18.34-27.14-6.72-15.51-8.29-33.18-10.05-50a40.53,40.53,0,0,0-5.67-17.46c-6.3-10.34-20.39-16-32.27-13.6a35.58,35.58,0,0,0-19.21,10.83C102.81,42.59,100.7,54,99.12,65.06s-1.84,22.37-4.63,33.2a70.78,70.78,0,0,1-6.25,15.95,74.14,74.14,0,0,1-11.49,15.86c-1.27.35-2.52.72-3.76,1.17a8.32,8.32,0,0,0-3.42,2c-2.42-.8-8.18,6-9.39,8.93C57,150,53.5,158,51.83,166.27c-3.14,15.46-4.7,31.17-7.84,46.63-2.33,11.53-4.68,23.1-5.61,34.83-.21,2.76-.24,5.87,1.66,7.88,1.13,1.2,2.87,1.93,3.39,3.49s-.51,3.6.35,5.09c.67,1.16,2.18,1.47,3.48,1.79,4,1,7.53,3.08,11,5.16,5.08,3,10.22,6.12,15.07,9.56-1.25,5.27-2.28,10.6-3.14,15.95-3.31,20.62-4.29,41.53-7.49,62.16a184.67,184.67,0,0,1-8.36,34.48c17.91,10.81,39.81,12,60.71,12.93q24.21,1.06,48.43,2.08c20,.85,40.24,1.62,60-1.76,1.91.65,3.82,1.3,5.74,1.91C228.39,377.33,221,346.79,213.72,316.52ZM86.67,256l-.29-.39c.89.3,1.79.58,2.68.87C88.29,256.32,87.49,256.16,86.67,256Z"/><path class="cls-3" d="M226.29,417.62l-2.49-.81-1.13-.38-1.18.18a218.6,218.6,0,0,1-31.78,2.05c-9.2,0-18-.38-26.6-.74l-48.44-2.08c-20-.87-44.79-1.95-65.27-14.31l-6.76-4.08L45.32,390a172.15,172.15,0,0,0,7.91-32.68c1.52-9.8,2.5-19.49,3.55-29.76C57.87,316.9,59,306,60.73,295.13c.37-2.32.77-4.59,1.18-6.77l.64-3.38-2.93-1.8c-2.16-1.34-4.37-2.66-6.24-3.77-2.85-1.69-5.81-3.44-8.42-4.08-2.22-.54-6.82-1.67-9.51-6.33a12.15,12.15,0,0,1-1.52-4.48l-.2-1.51-1-1.14c-4.69-5.28-4.16-12-3.93-14.89,1-12.32,3.4-24.32,5.75-35.92,1.54-7.56,2.66-15,3.85-22.9s2.39-15.84,4-23.8c1.74-8.57,5.16-16.85,8.18-24.14l.71-1.73c1.24-3,6.91-12,14.2-14.42l.46-.15.42-.23a23.59,23.59,0,0,1,3.33-1.5l1.8-.64.9-1a64.23,64.23,0,0,0,7.37-10.85,61.05,61.05,0,0,0,5.41-13.79c1.64-6.36,2.32-13.08,3-20.19.4-3.93.8-8,1.38-12,1.8-12.55,4.34-25.66,13.65-35.86a45.24,45.24,0,0,1,24.45-13.78,38.56,38.56,0,0,1,7.48-.72c14.24,0,27.94,7.36,34.88,18.75a50.2,50.2,0,0,1,7,21.46l.27,2.55c1.59,15.36,3.24,31.24,9,44.62,3.49,8,8.53,14.85,15,22.59l.82,1,1.18.47c6.65,2.61,12.07,10.06,13.5,13.47a140.81,140.81,0,0,1,7.84,24.56c1.57,7.23,3.19,14.29,4.76,21.12s3.23,14,4.82,21.36c2.47,11.43,3.68,23.36,4.63,34.56.22,2.55.8,9.3-4,14.5l-1,1.09-.25,1.45a11.85,11.85,0,0,1-1.6,4.24c-2.76,4.47-7.37,5.52-9.33,6A28.53,28.53,0,0,0,216,270l-3.54,1.92,1.13,3.86c1.24,4.3,2.27,8.57,3.18,12.34l6.33,26.18c7.33,30.31,14.91,61.65,15.77,93.94l.37,13.55Z"/><path class="cls-4" d="M94.49,98.26c2.79-10.83,3-22.13,4.63-33.2s3.69-22.47,11.23-30.73A35.58,35.58,0,0,1,129.56,23.5c11.88-2.35,26,3.26,32.27,13.6a40.53,40.53,0,0,1,5.67,17.46c1.76,16.81,3.33,34.48,10.05,50,7.76,17.89,21.94,29.71,33.31,45.55-8.46-4.51-18.43-4.91-28-5.2-11.94-.37-22.72-8.25-34.65-7.58-11.38.65-18.6,1.49-30,2.21-13.74.87-32.79,8.73-46.54,8.33-2.7-.07-9.74,3.14-9.27-.36s4.5-8.64,6.84-10.5a74.47,74.47,0,0,0,19-22.79A70.78,70.78,0,0,0,94.49,98.26Z"/><rect class="cls-5" x="103.27" y="121.46" width="58.69" height="149.24"/><path class="cls-6" d="M115.1,113.59c-6.1,49.33-11,99.74-2,148.57-14.45-2-28.12-6.57-41.71-12.2-.63-.26-7.31,1.54-7,.9-8.06-16.88-5.93-39-5.89-58s3.6-37.74,9.15-55.72a10.16,10.16,0,0,1,1.89-3.94,8.32,8.32,0,0,1,3.42-2c7.24-2.64,15-3.1,22.44-5S111.33,120.67,115.1,113.59Z"/><path class="cls-7" d="M115.1,113.59s-14.62,99-2,148.57"/><path class="cls-6" d="M152.65,113.59c6.1,49.33,11,99.74,2,148.57,14.45-2,28.12-6.57,41.71-12.2.63-.26,7.32,1.54,7,.9,8-16.88,5.93-39,5.88-58s-3.6-37.74-9.15-55.72a10,10,0,0,0-1.89-3.94,8.32,8.32,0,0,0-3.42-2c-7.23-2.64-15-3.1-22.44-5S156.42,120.67,152.65,113.59Z"/><path class="cls-7" d="M152.65,113.59s14.63,99,2,148.57"/><path class="cls-3" d="M154.29,34.64A37.9,37.9,0,0,1,166.56,55a58.11,58.11,0,0,1,.95,12.57A145,145,0,0,1,163,103.83c-.61,2.3-1.37,4.7-3.13,6.32-2.73,2.49-7.25,2.23-10.24.06s-4.62-5.8-5.24-9.45-.36-7.36-.31-11.06a112.53,112.53,0,0,0-3.63-29.21,30,30,0,0,0-3.83-9.7,20.87,20.87,0,0,0-8.94-7.16c-1.86-.82-3.89-1.47-5.28-3-2-2.16-2.18-5.5-1.52-8.39.51-2.24.94-1.76,2.58-3.37,4.2-4.14,11.06-4.61,15.85-2.92A46.37,46.37,0,0,1,154.29,34.64Z"/><path class="cls-3" d="M117.27,99.21a5.08,5.08,0,0,0-6.27-1,7.1,7.1,0,0,0-3.38,5.7,12.07,12.07,0,0,0,1.68,6.6,14.92,14.92,0,0,0,8.51,7.22,7.27,7.27,0,0,0,5.08-.1,6.18,6.18,0,0,0,3.31-5.7,9.61,9.61,0,0,0-2.76-6.24c-2-2.17-4.68-3.6-7-5.49"/><path class="cls-8" d="M119.52,118.5c2.14,6.08,8.29,10.34,14.71,10.83a21.37,21.37,0,0,0,17.16-7.3,30.79,30.79,0,0,0,6.84-14.44A14.48,14.48,0,0,1,154.86,97c-.27,3-14,6.27-16.41,6.76-6.16,1.23-11.95.72-18.11.16C120.06,108.94,121.47,113.35,119.52,118.5Z"/><path class="cls-9" d="M161.41,74.34q-.69,7.41-1.37,14.81a26.37,26.37,0,0,1-1.61,8c-1.7,3.91-12.34,16.41-23.39,16.31-6.89-.07-14-1.64-18.95-6.49-6.38-6.29-8.62-15.55-10.58-24.29-.84-3.76-1.69-7.63-1.14-11.45.26-1.79.83-3.52,1.1-5.31a68.24,68.24,0,0,0,.3-7.57,30.92,30.92,0,0,1,2.34-10.77h0a25.91,25.91,0,0,1,5.54-8.36,22.48,22.48,0,0,1,9.48-5.6,28.2,28.2,0,0,1,11.82-.9,30.91,30.91,0,0,1,7.36,1.85c3.49,1.36,7.08,2.89,9.57,5.7,5.47,6.15,8.07,13.49,11.45,21,.78,1.73-.85,5.67-.39,7.52S161.58,72.51,161.41,74.34Z"/><path class="cls-10" d="M134.25,105c-1.84,1.56-1.36,5.72.59,7.61.22.22.11.6.2.89A24.1,24.1,0,0,1,116.09,107c-6.38-6.29-8.62-15.55-10.58-24.29-.84-3.76-1.69-7.63-1.14-11.45.26-1.79.83-3.52,1.1-5.31a68.24,68.24,0,0,0,.3-7.57,30.92,30.92,0,0,1,2.34-10.77h0a36,36,0,0,1,8.75-9.85,39.31,39.31,0,0,1,6.27-4.11,28.57,28.57,0,0,1,12.38-3.39c-.2.83-.38,1.65-.56,2.49-2.07,9.72-3.9,19.1-3,29,.12,1.32,1.52,3.31,1.37,4.63-.08.83-.29,1.65-.33,2.48-.08,1.48-.5,2.39-.31,3.86a13.53,13.53,0,0,1-1.4,7.35c-.44,1-.58,3.49.43,3.82a16.39,16.39,0,0,0,2.19.46c1.19,0,1.73.39,1.75,1.58a8.94,8.94,0,0,1-1,3.41,5,5,0,0,0-.41,3.48c.27.75.88,1.49.62,2.25a10.79,10.79,0,0,0-.46,1,1.87,1.87,0,0,0,.29,1.11C136,99.71,135.7,103.76,134.25,105Z"/><path class="cls-3" d="M115.35,47.73c-7.41,7.45-10.17,19.12-11.81,29.51-.88-10.1-.78-21.59,3.4-30.82s12.59-17,22.65-18.26c2.11-.26,6-.13,7.24,2.09,1.34,2.47-3.59,4.86-5.42,6.09C126,40,120,43,115.35,47.73Z"/><g class="cls-11"><path class="cls-12" d="M102.68,67.81a77.35,77.35,0,0,1,4.69-11.11,41.24,41.24,0,0,1,8.16-11.44,41.87,41.87,0,0,1,4.1-3.29c3.31-2.39,6.8-4.52,10.28-6.65,3.66-2.23,7.41-4.5,11.62-5.29"/><path class="cls-12" d="M138.66,28.92c-8.5,4-17.13,8.09-24.08,14.4a47.85,47.85,0,0,0-14.5,25.15"/><path class="cls-12" d="M158.54,46.7a30.7,30.7,0,0,0,2.11,16.21A47.19,47.19,0,0,1,162.73,68c1,3.26.6,6.73.24,10.11l-1,9.26a50.51,50.51,0,0,1-1.83,10.38,10.32,10.32,0,0,1-4.26,6"/></g><path class="cls-3" d="M151.41,47.73c7.42,7.45,10.18,19.12,11.81,29.51.89-10.1.79-21.59-3.39-30.82s-12.6-17-22.65-18.26c-2.12-.26-6-.13-7.24,2.09-1.34,2.47,3.59,4.86,5.42,6.09C140.79,40,146.75,43,151.41,47.73Z"/><g class="cls-11"><path class="cls-12" d="M164.09,67.81A79.68,79.68,0,0,0,159.4,56.7a41.48,41.48,0,0,0-8.17-11.44A41.75,41.75,0,0,0,147.14,42c-3.32-2.39-6.8-4.52-10.29-6.65-3.65-2.23-7.41-4.5-11.62-5.29"/><path class="cls-12" d="M128.11,28.92c8.49,4,17.12,8.09,24.07,14.4a47.8,47.8,0,0,1,14.51,25.15"/></g><path class="cls-13" d="M135.83,95.24l-2.35-2.12s-.91-.89-1-.91a11.62,11.62,0,0,0-1.67,0c-.14.06-4.67,2.89-5,2.81a25.6,25.6,0,0,1-2.57-1.75l-1,2,3.86,0Z"/><path class="cls-13" d="M132.11,95.24l2.49-2.12s1-.89,1-.91a13.2,13.2,0,0,1,1.78,0c.15.06,4.71,2.7,5.07,2.62a28.83,28.83,0,0,0,2.62-1.43l1,1.86-3.65.08Z"/><path class="cls-14" d="M140.33,60.38a15.7,15.7,0,0,1,14.91,1.2c0-1-1.67-2.19-2.55-2.69-3.36-1.91-7.21-2-11-1.67a4,4,0,0,0-2.82,1.2C137.76,59.8,138.38,61.27,140.33,60.38Z"/><path class="cls-15" d="M146.06,67.31a1.43,1.43,0,0,0,.58.49,1.71,1.71,0,0,0,.67.1,2.25,2.25,0,0,0,.68-.11,1.91,1.91,0,0,0,1.08-1.42,1.53,1.53,0,0,0-.5-1.67,2.64,2.64,0,0,0-2.4,0A2,2,0,0,0,146.06,67.31Z"/><path class="cls-16" d="M143.16,62.71A4.39,4.39,0,0,0,141,65.79c-.06.71.48,1,1.11.82a18.19,18.19,0,0,0,2.12-.82,10.84,10.84,0,0,1,4.82-.76,8.19,8.19,0,0,1,2.56.7A11.09,11.09,0,0,1,153.75,67a6.84,6.84,0,0,0-4.47-2.76,12.57,12.57,0,0,0-5.27.5c.69-1.3,3.17-2.15,4.46-2.16a7.93,7.93,0,0,1,3.78,1.07c.54.26,1.22.1,1-.41-.32-.93-3.68-1.92-5.47-1.92A8.56,8.56,0,0,0,143.16,62.71Z"/><path class="cls-16" d="M156.58,69.74a2.8,2.8,0,0,0-1.05-1.47,1.78,1.78,0,0,1,1.43.59c-.63-.54-1.85-1.41-2.71-.69.24.19.66.19.95.3A3.66,3.66,0,0,1,156.58,69.74Z"/><path class="cls-16" d="M150.07,95.06c.44-1.51,1.17-4.8-1.95-6.86A7.86,7.86,0,0,1,150.07,95.06Z"/><path class="cls-16" d="M151.26,90.64A5.71,5.71,0,0,0,151,88.8a1.79,1.79,0,0,0-1.32-1.18C150.87,88.42,151,89.52,151.26,90.64Z"/><path class="cls-14" d="M128.35,60.38a15.7,15.7,0,0,0-14.91,1.2c0-1,1.79-2.25,2.68-2.75,3.36-1.91,7.08-1.92,10.89-1.61a4.51,4.51,0,0,1,2.82,1.2C131.08,59.68,130.3,61.27,128.35,60.38Z"/><path class="cls-15" d="M121.83,67.31a1.31,1.31,0,0,1-.58.49,1.68,1.68,0,0,1-.67.1,2.14,2.14,0,0,1-.67-.11,1.93,1.93,0,0,1-1.09-1.42,1.54,1.54,0,0,1,.51-1.67,2.64,2.64,0,0,1,2.4,0A2,2,0,0,1,121.83,67.31Z"/><path class="cls-16" d="M125.52,62.71a4.39,4.39,0,0,1,2.14,3.08c.06.71-.48,1-1.11.82a17.53,17.53,0,0,1-2.12-.82,10.84,10.84,0,0,0-4.82-.76,8.19,8.19,0,0,0-2.56.7A11.09,11.09,0,0,0,114.93,67a6.78,6.78,0,0,1,4.38-2.84,14.78,14.78,0,0,1,5.62.71,5,5,0,0,0-4.21-2.28,9.92,9.92,0,0,0-4.29,1.06c-.47.24-1.15,0-1-.41s2-1.76,5.47-1.92A7.94,7.94,0,0,1,125.52,62.71Z"/><path class="cls-16" d="M112.1,69.74a2.8,2.8,0,0,1,1.05-1.47,1.78,1.78,0,0,0-1.43.59c.63-.54,1.85-1.41,2.71-.69-.24.19-.66.19-1,.3A3.66,3.66,0,0,0,112.1,69.74Z"/><path class="cls-16" d="M118.61,95.06c-1.19-4.31,1.06-6.44,2-6.86A8.7,8.7,0,0,0,118.61,95.06Z"/><path class="cls-16" d="M117.42,90.64a5.41,5.41,0,0,1,.29-1.84A1.94,1.94,0,0,1,119,87.62,4.31,4.31,0,0,0,117.42,90.64Z"/><path class="cls-17" d="M132.21,61.63a13.53,13.53,0,0,1,1.63,3.22,6.3,6.3,0,0,1,.31,1.9,4.77,4.77,0,0,1-.46,1.94,6.59,6.59,0,0,0-.59,1.47,3.3,3.3,0,0,0,.17,1.4,9.75,9.75,0,0,1,.38,1.85,8.36,8.36,0,0,1-.05,1.94c-.33,2.54-1.44,4.69-1.91,6.84-.08.29-.08.44-.09.39a.75.75,0,0,0,.23.26,2.93,2.93,0,0,0,1.14.66,4,4,0,0,0,2.95-.28l.34.35a3.75,3.75,0,0,1-3.59,1.48,4.07,4.07,0,0,1-2-.82,2.4,2.4,0,0,1-.83-1.12,2.5,2.5,0,0,1,0-1.35c.6-2.42,1.66-4.53,2-6.66a8.34,8.34,0,0,0,.1-1.57,9.47,9.47,0,0,0-.25-1.61,4.59,4.59,0,0,1-.06-2.07,6.64,6.64,0,0,1,.83-1.75,4.23,4.23,0,0,0,.4-3,16.58,16.58,0,0,0-1.13-3.23Z"/><path class="cls-4" d="M60.18,142.16C57,150,53.5,158,51.83,166.27c-3.14,15.46-4.7,31.17-7.84,46.63-2.33,11.53-4.67,23.1-5.61,34.83-.21,2.76-.24,5.87,1.66,7.88,1.13,1.2,2.87,1.93,3.39,3.49s-.51,3.6.35,5.09c.67,1.16,2.18,1.47,3.48,1.79,4,1,7.53,3.08,11,5.16,11.84,7,24.06,14.4,31.86,25.74,3.2,4.65,6.57,10.5,12.21,10.71,3.73.13,7-2.4,9.83-4.81l8.59-7.21c2-1.7,4.24-4.43,2.79-6.64-.93-1.42-2.85-1.66-4.5-2-5.42-1.23-9.73-5.21-13.62-9.17a228,228,0,0,1-24-28.87,35.07,35.07,0,0,0-6.12-7.32c-2.48-2-5.77-3.28-8.88-2.56a44.85,44.85,0,0,0,.1-9.83c-1.39-19.32-5.86-38.55-4.3-57.85a129.56,129.56,0,0,1,5.3-26.36c.53-1.81,2.32-8,2-11.71C67.15,132.43,61.39,139.23,60.18,142.16Z"/><path class="cls-4" d="M208,141.94a132.07,132.07,0,0,1,7.32,22.88c3.13,14.48,6.44,28,9.57,42.48,2.34,10.8,3.52,22.34,4.45,33.33.22,2.59.24,5.5-1.66,7.38-1.12,1.12-2.87,1.81-3.39,3.27s.51,3.37-.35,4.77c-.67,1.09-2.17,1.37-3.48,1.67-4,.91-7.53,2.89-11,4.84-11.84,6.58-24.06,13.48-31.87,24.11-3.19,4.35-6.57,9.84-12.2,10-3.74.13-7-2.25-9.84-4.5L147,285.45c-2-1.6-2.69-3.71-2.79-6.23-.13-3.2,8.16-10.11,12.05-13.82C165,257,190,236.72,192.44,234.83s5.78-3.07,8.88-2.39a40,40,0,0,1-.1-9.22c1.39-18.09,5.87-36.1,4.3-54.19a114.72,114.72,0,0,0-5.3-24.69,70.52,70.52,0,0,1-1.78-10.8C200.86,132.79,206.85,139.12,208,141.94Z"/><path class="cls-4" d="M112.11,44.15c4.2-6.09,14.56-14.62,25.26-13.71a23.17,23.17,0,0,1,14.79,7,29.26,29.26,0,0,1,7.27,14.85c.59,3.16.75,6.42,1.84,9.44.47,1.33,1.53,2.82,2.92,2.57.62-.11,2,23.63,2.34,23.08,2.87-5.2,1.09-28.12,1-30.31a38.44,38.44,0,0,0-6.45-18.63,33.15,33.15,0,0,0-14.68-12.57,26.9,26.9,0,0,0-19.16-.78,41.55,41.55,0,0,0-8.52,4.49,31.8,31.8,0,0,0-6.87,5.55,33.63,33.63,0,0,0-4.69,7.93,51.84,51.84,0,0,0-2.24,5.39c-1.57,4.67-6.48,17-5.59,21.9.13.69,3.59.83,4,1.35,2.09,2.36,3.06-8.39,3.07-9.4a31.86,31.86,0,0,1,.68-6.38A32.5,32.5,0,0,1,112.11,44.15Z"/><g class="cls-18"><path class="cls-19" d="M90.67,115.83a1.3,1.3,0,0,0,.91-2.1A2.08,2.08,0,0,0,89.1,113,2.4,2.4,0,0,0,88,115.24a2.56,2.56,0,0,0,1.22,2.18,3.75,3.75,0,0,0,2.73.56,3,3,0,0,0,1.85-1.42,4.59,4.59,0,0,0-.12-4.83,7.58,7.58,0,0,0-2.52-1.7c-.34-.2-.76-.49-.75-.93,0-.18.06-.31.24-.35s.11,0,.2,0,.06.11.07,0c-.09.69,1,.86,1.06.17a1.18,1.18,0,0,0-1.37-1.25,1.42,1.42,0,0,0-1.27,1.55c.08,1.71,2.2,1.94,3.21,2.88a3.35,3.35,0,0,1,.39,3.79A1.78,1.78,0,0,1,91.44,117a2.56,2.56,0,0,1-2-.7,1.65,1.65,0,0,1-.06-2.12.85.85,0,0,1,1,0c.24.14.62.6.14.67-.68.11-.57,1.18.12,1.07Z"/><path class="cls-19" d="M98.17,117.05a1.31,1.31,0,0,1-.21-2.28,2.1,2.1,0,0,1,2.59.1,2.4,2.4,0,0,1,.39,2.47A2.57,2.57,0,0,1,99.1,119a3.76,3.76,0,0,1-2.77-.34A2.85,2.85,0,0,1,95,116.76a4.58,4.58,0,0,1,1.64-4.54,7.47,7.47,0,0,1,2.93-.82c.38-.08.87-.23,1-.65a.32.32,0,0,0-.12-.41c-.08,0-.11,0-.19,0s-.09.08-.06,0c-.14.68-1.2.51-1.07-.17a1.17,1.17,0,0,1,1.7-.75,1.41,1.41,0,0,1,.72,1.87c-.61,1.59-2.7,1.14-4,1.72a3.35,3.35,0,0,0-1.56,3.47,1.78,1.78,0,0,0,1,1.48,2.59,2.59,0,0,0,2.13,0,1.65,1.65,0,0,0,.72-2,.86.86,0,0,0-1-.37c-.26.06-.77.37-.34.59.61.32.17,1.3-.45,1Z"/><path class="cls-19" d="M97.39,121.88a1.31,1.31,0,0,0-.92,2.1,2.11,2.11,0,0,0,2.49.72,2.43,2.43,0,0,0,1.15-2.23,2.56,2.56,0,0,0-1.22-2.18,3.75,3.75,0,0,0-2.73-.55,2.88,2.88,0,0,0-1.85,1.42,4.59,4.59,0,0,0,.12,4.83,7.73,7.73,0,0,0,2.52,1.7c.34.19.76.49.75.93,0,.17-.06.3-.24.35s-.11,0-.2,0-.06-.1-.07,0c.09-.68-1-.86-1.06-.17a1.17,1.17,0,0,0,1.37,1.25,1.41,1.41,0,0,0,1.27-1.55c-.08-1.71-2.2-1.93-3.21-2.88a3.32,3.32,0,0,1-.39-3.78,1.77,1.77,0,0,1,1.45-1.08,2.54,2.54,0,0,1,2,.71,1.63,1.63,0,0,1,.06,2.11.85.85,0,0,1-1,0c-.24-.14-.62-.6-.14-.68.68-.1.57-1.18-.12-1.07Z"/><path class="cls-19" d="M89.89,120.67a1.3,1.3,0,0,1,.2,2.28,2.09,2.09,0,0,1-2.58-.1,2.41,2.41,0,0,1-.39-2.48A2.57,2.57,0,0,1,89,118.68a3.81,3.81,0,0,1,2.77.34A2.89,2.89,0,0,1,93,121a4.58,4.58,0,0,1-1.64,4.54,7.48,7.48,0,0,1-2.93.83c-.38.07-.87.22-1,.64a.32.32,0,0,0,.12.41c.08,0,.11,0,.19.06s.09-.08.06,0c.14-.68,1.2-.51,1.07.17a1.18,1.18,0,0,1-1.7.76,1.43,1.43,0,0,1-.72-1.88c.61-1.59,2.7-1.14,4-1.71A3.37,3.37,0,0,0,92,121.32a1.78,1.78,0,0,0-1-1.47,2.56,2.56,0,0,0-2.13,0,1.65,1.65,0,0,0-.72,2,.85.85,0,0,0,1,.37c.27-.06.78-.37.35-.59-.61-.32-.17-1.3.45-1Z"/><path class="cls-19" d="M169.9,117.69a1.3,1.3,0,0,0-.14-2.28,2.09,2.09,0,0,0-2.54.49,2.41,2.41,0,0,0,0,2.51,2.57,2.57,0,0,0,2.08,1.39A3.71,3.71,0,0,0,172,119a2.84,2.84,0,0,0,1-2.1,4.6,4.6,0,0,0-2.31-4.25,7.52,7.52,0,0,0-3-.36c-.39,0-.9-.09-1.09-.49-.07-.16-.09-.3.06-.42s.1,0,.18-.09.09.07.05,0c.24.65,1.27.32,1-.33a1.18,1.18,0,0,0-1.79-.49,1.42,1.42,0,0,0-.43,2c.85,1.48,2.84.72,4.17,1.1a3.36,3.36,0,0,1,2.08,3.19,1.81,1.81,0,0,1-.81,1.62,2.58,2.58,0,0,1-2.11.29,1.65,1.65,0,0,1-1-1.85.87.87,0,0,1,.91-.52c.28,0,.83.25.44.53-.56.41,0,1.31.59.9Z"/><path class="cls-19" d="M177.13,115.36a1.31,1.31,0,0,1-1.23-1.94,2.08,2.08,0,0,1,2.35-1.08,2.4,2.4,0,0,1,1.48,2,2.57,2.57,0,0,1-.88,2.34,3.74,3.74,0,0,1-2.61,1,2.83,2.83,0,0,1-2-1.12,4.59,4.59,0,0,1-.62-4.79,7.6,7.6,0,0,1,2.23-2.07c.31-.24.68-.59.6-1,0-.17-.1-.29-.29-.31s-.11,0-.2,0,0,.11-.07,0c.19.66-.83,1-1,.33a1.17,1.17,0,0,1,1.16-1.44,1.41,1.41,0,0,1,1.5,1.34c.18,1.69-1.89,2.24-2.74,3.33a3.35,3.35,0,0,0,.19,3.8,1.8,1.8,0,0,0,1.6.84,2.56,2.56,0,0,0,1.88-1,1.66,1.66,0,0,0-.26-2.1.86.86,0,0,0-1,.11c-.22.18-.52.69,0,.69.69,0,.74,1.08,0,1.08Z"/><path class="cls-19" d="M178.63,120a1.3,1.3,0,0,0,.15,2.28,2.08,2.08,0,0,0,2.53-.49,2.43,2.43,0,0,0,0-2.51,2.58,2.58,0,0,0-2.08-1.38,3.73,3.73,0,0,0-2.68.75,2.85,2.85,0,0,0-1,2.11,4.57,4.57,0,0,0,2.3,4.24,7.55,7.55,0,0,0,3,.37c.39,0,.9.08,1.09.48.07.16.09.3,0,.42s-.11,0-.19.09-.09-.07-.05,0c-.24-.65-1.27-.32-1,.33a1.17,1.17,0,0,0,1.79.49,1.41,1.41,0,0,0,.43-2c-.85-1.48-2.84-.72-4.17-1.1a3.34,3.34,0,0,1-2.07-3.19,1.79,1.79,0,0,1,.8-1.62,2.58,2.58,0,0,1,2.11-.29,1.66,1.66,0,0,1,1,1.86.88.88,0,0,1-.91.52c-.28,0-.82-.26-.43-.54.56-.41,0-1.31-.6-.9Z"/><path class="cls-19" d="M171.41,122.36a1.3,1.3,0,0,1,1.22,1.93,2.1,2.1,0,0,1-2.35,1.09,2.43,2.43,0,0,1-1.48-2,2.58,2.58,0,0,1,.88-2.34,3.76,3.76,0,0,1,2.61-1,2.94,2.94,0,0,1,2.05,1.12A4.61,4.61,0,0,1,175,126a7.6,7.6,0,0,1-2.23,2.07c-.31.24-.68.6-.6,1,0,.17.1.29.29.31s.11,0,.2,0,0-.11.07,0c-.19-.67.83-1,1-.34a1.16,1.16,0,0,1-1.16,1.44,1.41,1.41,0,0,1-1.5-1.33c-.18-1.7,1.89-2.25,2.74-3.33a3.37,3.37,0,0,0-.19-3.81,1.8,1.8,0,0,0-1.6-.84,2.58,2.58,0,0,0-1.88,1,1.66,1.66,0,0,0,.26,2.1.86.86,0,0,0,1-.11c.21-.17.51-.69,0-.69-.69,0-.74-1.08,0-1.07Z"/><path class="cls-19" d="M96.23,91.37a1,1,0,0,0,.45-1.74,1.65,1.65,0,0,0-2-.24,1.9,1.9,0,0,0-.61,1.86,2,2,0,0,0,1.21,1.53,2.94,2.94,0,0,0,2.18.09,2.25,2.25,0,0,0,1.25-1.33,3.59,3.59,0,0,0-.7-3.71,5.88,5.88,0,0,0-2.15-1c-.29-.11-.65-.28-.7-.62,0-.14,0-.25.14-.3s.09,0,.16,0,0,.07,0,0c0,.54.86.54.84,0a.91.91,0,0,0-1.21-.79,1.09,1.09,0,0,0-.79,1.35c.27,1.31,1.94,1.22,2.84,1.82A2.63,2.63,0,0,1,98,91.13a1.43,1.43,0,0,1-1,1,2,2,0,0,1-1.65-.3A1.3,1.3,0,0,1,95,90.22a.7.7,0,0,1,.81-.17c.2.08.55.39.19.5-.51.17-.29,1,.22.82Z"/><path class="cls-19" d="M102.17,91.37a1,1,0,0,1-.44-1.74,1.65,1.65,0,0,1,2-.24,1.9,1.9,0,0,1,.61,1.86,2,2,0,0,1-1.21,1.53,2.94,2.94,0,0,1-2.18.09,2.25,2.25,0,0,1-1.25-1.33,3.59,3.59,0,0,1,.69-3.71,5.93,5.93,0,0,1,2.16-1c.29-.11.65-.28.69-.62,0-.14,0-.25-.14-.3s-.08,0-.15,0-.06.07,0,0c0,.54-.87.54-.85,0a.92.92,0,0,1,1.22-.79,1.1,1.1,0,0,1,.79,1.35c-.28,1.31-1.94,1.22-2.84,1.82a2.63,2.63,0,0,0-.78,2.88,1.44,1.44,0,0,0,1,1,2,2,0,0,0,1.64-.3,1.28,1.28,0,0,0,.31-1.62.69.69,0,0,0-.8-.17c-.2.08-.55.39-.19.5s.29,1-.23.82Z"/><path class="cls-19" d="M102.17,95.2a1,1,0,0,0-.44,1.73,1.64,1.64,0,0,0,2,.25,1.91,1.91,0,0,0,.61-1.87,2,2,0,0,0-1.21-1.53A2.94,2.94,0,0,0,101,93.7,2.23,2.23,0,0,0,99.71,95a3.61,3.61,0,0,0,.69,3.72,6.09,6.09,0,0,0,2.16,1c.29.1.65.28.69.62,0,.14,0,.24-.14.3s-.08,0-.15,0-.06-.07,0,0c0-.54-.87-.55-.85,0a.93.93,0,0,0,1.22.79,1.11,1.11,0,0,0,.79-1.36c-.28-1.3-1.94-1.21-2.84-1.81a2.64,2.64,0,0,1-.78-2.88,1.41,1.41,0,0,1,1-1,2,2,0,0,1,1.64.29,1.29,1.29,0,0,1,.31,1.63.67.67,0,0,1-.8.16c-.2-.08-.55-.38-.19-.5s.29-1-.23-.81Z"/><path class="cls-19" d="M96.23,95.2a1,1,0,0,1,.45,1.73,1.64,1.64,0,0,1-2,.25,1.91,1.91,0,0,1-.61-1.87,2,2,0,0,1,1.21-1.53,2.94,2.94,0,0,1,2.18-.08A2.23,2.23,0,0,1,98.7,95a3.61,3.61,0,0,1-.7,3.72,6,6,0,0,1-2.15,1c-.29.1-.65.28-.7.62,0,.14,0,.24.14.3s.09,0,.16,0,0-.07,0,0c0-.54.86-.55.84,0a.92.92,0,0,1-1.21.79,1.11,1.11,0,0,1-.79-1.36c.27-1.3,1.94-1.21,2.84-1.81A2.63,2.63,0,0,0,98,95.44a1.39,1.39,0,0,0-1-1,2,2,0,0,0-1.65.29A1.32,1.32,0,0,0,95,96.35a.68.68,0,0,0,.81.16c.2-.08.55-.38.19-.5-.51-.17-.29-1,.22-.81Z"/><path class="cls-19" d="M166.12,91.37a1,1,0,0,0,.45-1.74,1.65,1.65,0,0,0-2-.24,1.9,1.9,0,0,0-.61,1.86,2,2,0,0,0,1.21,1.53,2.91,2.91,0,0,0,2.17.09,2.24,2.24,0,0,0,1.26-1.33,3.59,3.59,0,0,0-.7-3.71,5.93,5.93,0,0,0-2.16-1c-.28-.11-.64-.28-.69-.62,0-.14,0-.25.14-.3s.09,0,.16,0,0,.07,0,0c0,.54.86.54.84,0a.91.91,0,0,0-1.21-.79,1.09,1.09,0,0,0-.79,1.35c.27,1.31,1.94,1.22,2.84,1.82a2.63,2.63,0,0,1,.77,2.88,1.42,1.42,0,0,1-1,1,2,2,0,0,1-1.64-.3,1.29,1.29,0,0,1-.31-1.62.7.7,0,0,1,.81-.17c.2.08.55.39.19.5-.52.17-.3,1,.22.82Z"/><path class="cls-19" d="M172.06,91.37a1,1,0,0,1-.44-1.74,1.64,1.64,0,0,1,2-.24,1.88,1.88,0,0,1,.62,1.86A2,2,0,0,1,173,92.78a2.91,2.91,0,0,1-2.17.09,2.25,2.25,0,0,1-1.25-1.33,3.57,3.57,0,0,1,.69-3.71,5.93,5.93,0,0,1,2.16-1c.29-.11.65-.28.69-.62,0-.14,0-.25-.14-.3s-.09,0-.16,0-.05.07-.05,0c0,.54-.86.54-.84,0a.91.91,0,0,1,1.22-.79,1.1,1.1,0,0,1,.79,1.35c-.28,1.31-2,1.22-2.84,1.82a2.62,2.62,0,0,0-.78,2.88,1.44,1.44,0,0,0,1,1,2,2,0,0,0,1.64-.3,1.28,1.28,0,0,0,.31-1.62.69.69,0,0,0-.8-.17c-.2.08-.55.39-.19.5.51.17.29,1-.23.82Z"/><path class="cls-19" d="M172.06,95.2a1,1,0,0,0-.44,1.73,1.62,1.62,0,0,0,2,.25,1.89,1.89,0,0,0,.62-1.87A2,2,0,0,0,173,93.78a2.91,2.91,0,0,0-2.17-.08A2.23,2.23,0,0,0,169.6,95a3.59,3.59,0,0,0,.69,3.72,6.09,6.09,0,0,0,2.16,1c.29.1.65.28.69.62,0,.14,0,.24-.14.3s-.09,0-.16,0-.05-.07-.05,0c0-.54-.86-.55-.84,0a.92.92,0,0,0,1.22.79,1.11,1.11,0,0,0,.79-1.36c-.28-1.3-2-1.21-2.84-1.81a2.62,2.62,0,0,1-.78-2.88,1.41,1.41,0,0,1,1-1,2,2,0,0,1,1.64.29,1.29,1.29,0,0,1,.31,1.63.67.67,0,0,1-.8.16c-.2-.08-.55-.38-.19-.5.51-.17.29-1-.23-.81Z"/><path class="cls-19" d="M166.12,95.2a1,1,0,0,1,.45,1.73,1.64,1.64,0,0,1-2,.25,1.91,1.91,0,0,1-.61-1.87,2,2,0,0,1,1.21-1.53,2.91,2.91,0,0,1,2.17-.08A2.22,2.22,0,0,1,168.59,95a3.61,3.61,0,0,1-.7,3.72,6.09,6.09,0,0,1-2.16,1c-.28.1-.64.28-.69.62a.25.25,0,0,0,.14.3c.07,0,.09,0,.16,0s0-.07,0,0c0-.54.86-.55.84,0a.92.92,0,0,1-1.21.79,1.11,1.11,0,0,1-.79-1.36c.27-1.3,1.94-1.21,2.84-1.81a2.63,2.63,0,0,0,.77-2.88,1.39,1.39,0,0,0-1-1,2,2,0,0,0-1.64.29,1.3,1.3,0,0,0-.31,1.63.68.68,0,0,0,.81.16c.2-.08.55-.38.19-.5-.52-.17-.3-1,.22-.81Z"/><path class="cls-19" d="M99,62.52a1,1,0,0,0,.44-1.74,1.65,1.65,0,0,0-2-.24,1.9,1.9,0,0,0-.61,1.86A2,2,0,0,0,98,63.93a2.94,2.94,0,0,0,2.18.09,2.25,2.25,0,0,0,1.25-1.33,3.57,3.57,0,0,0-.69-3.71,5.93,5.93,0,0,0-2.16-1c-.29-.11-.65-.28-.69-.62,0-.14,0-.25.14-.3s.08,0,.15,0,.06.07,0,0c0,.54.87.54.85,0a.91.91,0,0,0-1.22-.79,1.1,1.1,0,0,0-.79,1.35c.28,1.31,1.94,1.22,2.84,1.82a2.62,2.62,0,0,1,.78,2.88,1.44,1.44,0,0,1-1,1,2,2,0,0,1-1.64-.3,1.28,1.28,0,0,1-.31-1.62.67.67,0,0,1,.8-.17c.2.08.55.39.19.5-.51.17-.29,1,.23.82Z"/><path class="cls-19" d="M104.9,62.52a1,1,0,0,1-.45-1.74,1.65,1.65,0,0,1,2-.24,1.9,1.9,0,0,1,.61,1.86,2,2,0,0,1-1.21,1.53,2.93,2.93,0,0,1-2.18.09,2.25,2.25,0,0,1-1.25-1.33,3.59,3.59,0,0,1,.7-3.71,5.88,5.88,0,0,1,2.15-1c.29-.11.65-.28.7-.62,0-.14,0-.25-.14-.3s-.09,0-.16,0-.05.07-.05,0c0,.54-.86.54-.84,0a.91.91,0,0,1,1.21-.79,1.09,1.09,0,0,1,.79,1.35c-.27,1.31-1.94,1.22-2.84,1.82a2.63,2.63,0,0,0-.77,2.88,1.42,1.42,0,0,0,1,1,2,2,0,0,0,1.64-.3,1.29,1.29,0,0,0,.31-1.62.68.68,0,0,0-.81-.17c-.2.08-.55.39-.19.5.52.17.3,1-.22.82Z"/><path class="cls-19" d="M104.9,66.35a1,1,0,0,0-.45,1.73,1.65,1.65,0,0,0,2,.25,1.91,1.91,0,0,0,.61-1.87,2,2,0,0,0-1.21-1.53,2.93,2.93,0,0,0-2.18-.08,2.23,2.23,0,0,0-1.25,1.32,3.61,3.61,0,0,0,.7,3.72,6,6,0,0,0,2.15,1c.29.1.65.28.7.62a.26.26,0,0,1-.14.3c-.07,0-.09,0-.16,0s-.05-.07-.05,0c0-.54-.86-.55-.84,0a.92.92,0,0,0,1.21.79,1.11,1.11,0,0,0,.79-1.36c-.27-1.3-1.94-1.21-2.84-1.81a2.63,2.63,0,0,1-.77-2.88,1.39,1.39,0,0,1,1-1,2,2,0,0,1,1.64.29,1.3,1.3,0,0,1,.31,1.63.68.68,0,0,1-.81.16c-.2-.08-.55-.38-.19-.5.52-.17.3-1-.22-.81Z"/><path class="cls-19" d="M99,66.35a1,1,0,0,1,.44,1.73,1.65,1.65,0,0,1-2,.25,1.91,1.91,0,0,1-.61-1.87A2,2,0,0,1,98,64.93a2.94,2.94,0,0,1,2.18-.08,2.23,2.23,0,0,1,1.25,1.32,3.59,3.59,0,0,1-.69,3.72,6.09,6.09,0,0,1-2.16,1c-.29.1-.65.28-.69.62a.24.24,0,0,0,.14.3c.06,0,.08,0,.15,0s.06-.07,0,0c0-.54.87-.55.85,0a.92.92,0,0,1-1.22.79,1.11,1.11,0,0,1-.79-1.36c.28-1.3,1.94-1.21,2.84-1.81a2.62,2.62,0,0,0,.78-2.88,1.41,1.41,0,0,0-1-1,2,2,0,0,0-1.64.29,1.29,1.29,0,0,0-.31,1.63.67.67,0,0,0,.8.16c.2-.08.55-.38.19-.5-.51-.17-.29-1,.23-.81Z"/><path class="cls-19" d="M162,62.52a1,1,0,0,0,.45-1.74,1.65,1.65,0,0,0-2-.24,1.9,1.9,0,0,0-.61,1.86A2,2,0,0,0,161,63.93a2.93,2.93,0,0,0,2.18.09,2.25,2.25,0,0,0,1.25-1.33,3.59,3.59,0,0,0-.7-3.71,5.88,5.88,0,0,0-2.15-1c-.29-.11-.65-.28-.7-.62,0-.14,0-.25.14-.3s.09,0,.16,0,.05.07.05,0c0,.54.86.54.84,0a.91.91,0,0,0-1.21-.79,1.09,1.09,0,0,0-.79,1.35c.27,1.31,1.94,1.22,2.84,1.82a2.63,2.63,0,0,1,.77,2.88,1.42,1.42,0,0,1-1,1,2,2,0,0,1-1.64-.3,1.29,1.29,0,0,1-.31-1.62.68.68,0,0,1,.81-.17c.2.08.55.39.19.5-.52.17-.3,1,.22.82Z"/><path class="cls-19" d="M167.92,62.52a1,1,0,0,1-.44-1.74,1.65,1.65,0,0,1,2-.24,1.9,1.9,0,0,1,.61,1.86,2,2,0,0,1-1.21,1.53,2.94,2.94,0,0,1-2.18.09,2.25,2.25,0,0,1-1.25-1.33,3.57,3.57,0,0,1,.69-3.71,5.93,5.93,0,0,1,2.16-1c.29-.11.65-.28.69-.62,0-.14,0-.25-.14-.3s-.08,0-.15,0-.06.07-.05,0c0,.54-.87.54-.85,0a.91.91,0,0,1,1.22-.79,1.1,1.1,0,0,1,.79,1.35c-.28,1.31-1.94,1.22-2.84,1.82a2.62,2.62,0,0,0-.78,2.88,1.44,1.44,0,0,0,1,1,2,2,0,0,0,1.64-.3,1.28,1.28,0,0,0,.31-1.62.67.67,0,0,0-.8-.17c-.2.08-.55.39-.19.5s.29,1-.23.82Z"/><path class="cls-19" d="M167.92,66.35a1,1,0,0,0-.44,1.73,1.65,1.65,0,0,0,2,.25,1.91,1.91,0,0,0,.61-1.87,2,2,0,0,0-1.21-1.53,2.94,2.94,0,0,0-2.18-.08,2.23,2.23,0,0,0-1.25,1.32,3.59,3.59,0,0,0,.69,3.72,6.09,6.09,0,0,0,2.16,1c.29.1.65.28.69.62a.24.24,0,0,1-.14.3c-.06,0-.08,0-.15,0s-.06-.07-.05,0c0-.54-.87-.55-.85,0a.92.92,0,0,0,1.22.79,1.11,1.11,0,0,0,.79-1.36c-.28-1.3-1.94-1.21-2.84-1.81a2.62,2.62,0,0,1-.78-2.88,1.41,1.41,0,0,1,1-1,2,2,0,0,1,1.64.29,1.29,1.29,0,0,1,.31,1.63.67.67,0,0,1-.8.16c-.2-.08-.55-.38-.19-.5s.29-1-.23-.81Z"/><path class="cls-19" d="M162,66.35a1,1,0,0,1,.45,1.73,1.65,1.65,0,0,1-2,.25,1.91,1.91,0,0,1-.61-1.87A2,2,0,0,1,161,64.93a2.93,2.93,0,0,1,2.18-.08,2.23,2.23,0,0,1,1.25,1.32,3.61,3.61,0,0,1-.7,3.72,6,6,0,0,1-2.15,1c-.29.1-.65.28-.7.62a.26.26,0,0,0,.14.3c.07,0,.09,0,.16,0s.05-.07.05,0c0-.54.86-.55.84,0a.92.92,0,0,1-1.21.79,1.11,1.11,0,0,1-.79-1.36c.27-1.3,1.94-1.21,2.84-1.81a2.63,2.63,0,0,0,.77-2.88,1.39,1.39,0,0,0-1-1,2,2,0,0,0-1.64.29,1.3,1.3,0,0,0-.31,1.63.68.68,0,0,0,.81.16c.2-.08.55-.38.19-.5-.52-.17-.3-1,.22-.81Z"/><path class="cls-19" d="M106.22,39.85a1,1,0,0,0,1.19-1.33,1.63,1.63,0,0,0-1.67-1.14,1.89,1.89,0,0,0-1.4,1.37,2,2,0,0,0,.37,1.92,2.93,2.93,0,0,0,1.89,1.08,2.26,2.26,0,0,0,1.73-.61,3.6,3.6,0,0,0,1.09-3.61A5.79,5.79,0,0,0,108,35.65c-.21-.23-.45-.55-.33-.87,0-.13.11-.22.26-.21s.08,0,.15.06,0,.09,0,0c-.23.49.52.88.75.38a.92.92,0,0,0-.71-1.26,1.1,1.1,0,0,0-1.33.84c-.36,1.29,1.17,2,1.68,2.92a2.61,2.61,0,0,1-.63,2.91,1.44,1.44,0,0,1-1.35.45,2,2,0,0,1-1.32-1,1.31,1.31,0,0,1,.48-1.59.7.7,0,0,1,.79.22c.14.17.31.6-.07.54-.53-.09-.71.74-.17.82Z"/><path class="cls-19" d="M111.49,42.59a1,1,0,0,1,.41-1.74,1.63,1.63,0,0,1,1.89.7,1.89,1.89,0,0,1-.31,1.94,2,2,0,0,1-1.79.8,2.93,2.93,0,0,1-2-.93,2.29,2.29,0,0,1-.5-1.75,3.6,3.6,0,0,1,2.33-3,5.79,5.79,0,0,1,2.38.1.92.92,0,0,0,.9-.23c.08-.12.11-.22,0-.33s-.07,0-.13-.09-.08,0,0,0c-.26.47-1,.08-.74-.39a.91.91,0,0,1,1.44-.15,1.11,1.11,0,0,1,.08,1.57c-.85,1-2.29.19-3.36.31a2.61,2.61,0,0,0-2,2.19,1.4,1.4,0,0,0,.41,1.36,2,2,0,0,0,1.59.49,1.28,1.28,0,0,0,1-1.3.67.67,0,0,0-.63-.52c-.22,0-.67.09-.4.36s-.2,1-.58.62Z"/><path class="cls-19" d="M109.73,46a1,1,0,0,0-1.19,1.34,1.64,1.64,0,0,0,1.66,1.14,1.9,1.9,0,0,0,1.41-1.38,2,2,0,0,0-.38-1.91,2.9,2.9,0,0,0-1.89-1.08,2.24,2.24,0,0,0-1.72.6,3.59,3.59,0,0,0-1.09,3.62A6,6,0,0,0,108,50.2c.21.22.45.54.33.87,0,.13-.12.21-.26.2s-.08,0-.15-.05,0-.09-.06,0c.24-.49-.51-.88-.74-.39a.91.91,0,0,0,.71,1.26,1.09,1.09,0,0,0,1.32-.84c.36-1.28-1.16-2-1.68-2.92a2.62,2.62,0,0,1,.64-2.91,1.41,1.41,0,0,1,1.34-.44,2,2,0,0,1,1.32,1,1.28,1.28,0,0,1-.47,1.58.68.68,0,0,1-.79-.22c-.14-.16-.31-.6.06-.53.54.08.72-.74.18-.83Z"/><path class="cls-19" d="M104.45,43.25a1,1,0,0,1-.4,1.75,1.63,1.63,0,0,1-1.89-.71,1.89,1.89,0,0,1,.31-1.94,2,2,0,0,1,1.78-.8,2.94,2.94,0,0,1,2,.93,2.21,2.21,0,0,1,.5,1.75,3.58,3.58,0,0,1-2.32,3A5.79,5.79,0,0,1,102,47.1a.9.9,0,0,0-.9.24.25.25,0,0,0,0,.33c.05.06.08,0,.14.09s.08,0,0,0c.27-.47,1-.09.75.39a.92.92,0,0,1-1.44.14,1.11,1.11,0,0,1-.08-1.57c.84-1,2.28-.18,3.36-.3a2.64,2.64,0,0,0,2-2.2,1.41,1.41,0,0,0-.41-1.35,2,2,0,0,0-1.59-.5,1.31,1.31,0,0,0-1,1.3.68.68,0,0,0,.64.52c.21,0,.67-.09.4-.36s.19-1,.57-.62Z"/><path class="cls-19" d="M123.69,25.46a1,1,0,0,0,1.78-.19,1.62,1.62,0,0,0-.47-2,1.87,1.87,0,0,0-2,.08,2,2,0,0,0-1,1.67,3,3,0,0,0,.68,2.07,2.22,2.22,0,0,0,1.68.7,3.59,3.59,0,0,0,3.24-1.95,6.11,6.11,0,0,0,.18-2.37.9.9,0,0,1,.34-.87.25.25,0,0,1,.33,0c.05,0,0,.08.07.14s-.05.08,0,0c-.5.21-.21,1,.29.79a.92.92,0,0,0,.32-1.41,1.11,1.11,0,0,0-1.55-.27c-1.13.71-.46,2.24-.71,3.3A2.63,2.63,0,0,1,124.52,27a1.4,1.4,0,0,1-1.29-.57,2,2,0,0,1-.3-1.64,1.29,1.29,0,0,1,1.41-.86.68.68,0,0,1,.44.69c0,.22-.17.65-.4.36s-1,.07-.69.49Z"/><path class="cls-19" d="M125.78,31a1,1,0,0,1,1.47-1,1.66,1.66,0,0,1,.93,1.8A1.9,1.9,0,0,1,126.65,33a2,2,0,0,1-1.86-.59,2.93,2.93,0,0,1-.84-2,2.22,2.22,0,0,1,.8-1.64,3.6,3.6,0,0,1,3.72-.65,5.85,5.85,0,0,1,1.69,1.67c.2.23.49.51.83.43.13,0,.22-.09.23-.24s0-.08,0-.15-.08,0,0-.06a.42.42,0,0,1-.29-.79.93.93,0,0,1,1.17.86,1.11,1.11,0,0,1-1,1.22c-1.32.2-1.82-1.39-2.7-2a2.62,2.62,0,0,0-3,.28,1.42,1.42,0,0,0-.6,1.28,2,2,0,0,0,.85,1.44,1.3,1.3,0,0,0,1.63-.28.67.67,0,0,0-.13-.81c-.14-.16-.55-.38-.53,0,0,.54-.82.62-.84.08Z"/><path class="cls-19" d="M122.19,32.37a1,1,0,0,0-1.78.19,1.64,1.64,0,0,0,.48,2,1.88,1.88,0,0,0,2-.08,2,2,0,0,0,1-1.67,2.92,2.92,0,0,0-.68-2.07,2.27,2.27,0,0,0-1.68-.71,3.59,3.59,0,0,0-3.23,2,5.73,5.73,0,0,0-.18,2.37c0,.3,0,.7-.34.86-.13.07-.23.09-.34,0s0-.08-.07-.14,0-.08,0,0c.5-.21.2-1-.3-.79a.92.92,0,0,0-.32,1.41,1.11,1.11,0,0,0,1.55.27c1.13-.72.46-2.25.71-3.3a2.61,2.61,0,0,1,2.42-1.73,1.38,1.38,0,0,1,1.29.57,2,2,0,0,1,.3,1.64,1.29,1.29,0,0,1-1.41.86.68.68,0,0,1-.44-.7c0-.21.17-.65.41-.35s1-.07.68-.5Z"/><path class="cls-19" d="M120.11,26.81a1,1,0,0,1-1.47,1,1.61,1.61,0,0,1-.93-1.79,1.88,1.88,0,0,1,1.52-1.23,2,2,0,0,1,1.86.6,3,3,0,0,1,.85,2,2.26,2.26,0,0,1-.81,1.64,3.6,3.6,0,0,1-3.72.65A6,6,0,0,1,115.72,28c-.2-.23-.49-.51-.83-.43-.13,0-.22.09-.23.23s0,.09,0,.16.08,0,0,.05c.51-.17.81.62.29.79a.91.91,0,0,1-1.16-.86,1.1,1.1,0,0,1,1-1.21c1.32-.21,1.82,1.39,2.7,2a2.61,2.61,0,0,0,3-.29,1.39,1.39,0,0,0,.6-1.28,2,2,0,0,0-.85-1.43,1.29,1.29,0,0,0-1.63.28.67.67,0,0,0,.13.81c.14.16.55.38.54,0,0-.54.81-.62.84-.07Z"/><path class="cls-19" d="M161.17,39.85A1,1,0,0,1,160,38.52a1.64,1.64,0,0,1,1.67-1.14,1.89,1.89,0,0,1,1.4,1.37,2,2,0,0,1-.37,1.92,2.9,2.9,0,0,1-1.89,1.08,2.24,2.24,0,0,1-1.72-.61A3.55,3.55,0,0,1,158,37.53a5.79,5.79,0,0,1,1.45-1.88c.2-.23.44-.55.33-.87,0-.13-.12-.22-.27-.21s-.08,0-.15.06,0,.09-.05,0c.23.49-.51.88-.75.38a.92.92,0,0,1,.72-1.26,1.1,1.1,0,0,1,1.32.84c.36,1.29-1.16,2-1.68,2.92a2.62,2.62,0,0,0,.64,2.91,1.42,1.42,0,0,0,1.34.45,2,2,0,0,0,1.32-1,1.3,1.3,0,0,0-.47-1.59.69.69,0,0,0-.79.22c-.14.17-.31.6.06.54.53-.09.71.74.17.82Z"/><path class="cls-19" d="M155.9,42.59a1,1,0,0,0-.4-1.74,1.64,1.64,0,0,0-1.9.7,1.91,1.91,0,0,0,.32,1.94,2,2,0,0,0,1.78.8,2.91,2.91,0,0,0,2-.93,2.21,2.21,0,0,0,.5-1.75,3.56,3.56,0,0,0-2.33-3,5.74,5.74,0,0,0-2.37.1c-.31,0-.71,0-.9-.23-.08-.12-.11-.22,0-.33s.08,0,.13-.09.08,0,0,0c.27.47,1,.08.75-.39a.91.91,0,0,0-1.44-.15,1.1,1.1,0,0,0-.08,1.57c.84,1,2.28.19,3.36.31a2.64,2.64,0,0,1,2,2.19,1.42,1.42,0,0,1-.41,1.36,2,2,0,0,1-1.6.49,1.29,1.29,0,0,1-1-1.3.69.69,0,0,1,.64-.52c.21,0,.66.09.4.36s.19,1,.57.62Z"/><path class="cls-19" d="M157.67,46a1,1,0,0,1,1.19,1.34,1.65,1.65,0,0,1-1.67,1.14,1.89,1.89,0,0,1-1.4-1.38,2,2,0,0,1,.37-1.91,2.93,2.93,0,0,1,1.89-1.08,2.23,2.23,0,0,1,1.72.6,3.59,3.59,0,0,1,1.1,3.62,6.19,6.19,0,0,1-1.46,1.88c-.2.22-.44.54-.32.87a.23.23,0,0,0,.26.2c.07,0,.08,0,.15-.05s0-.09.05,0c-.23-.49.52-.88.75-.39a.91.91,0,0,1-.71,1.26,1.1,1.1,0,0,1-1.33-.84c-.36-1.28,1.16-2,1.68-2.92a2.62,2.62,0,0,0-.64-2.91A1.41,1.41,0,0,0,158,45a2,2,0,0,0-1.32,1,1.29,1.29,0,0,0,.47,1.58.67.67,0,0,0,.79-.22c.14-.16.31-.6-.06-.53-.53.08-.71-.74-.17-.83Z"/><path class="cls-19" d="M162.94,43.25a1,1,0,0,0,.4,1.75,1.65,1.65,0,0,0,1.9-.71,1.89,1.89,0,0,0-.32-1.94,2,2,0,0,0-1.78-.8,3,3,0,0,0-2,.93,2.21,2.21,0,0,0-.5,1.75,3.58,3.58,0,0,0,2.33,3,5.75,5.75,0,0,0,2.37-.11c.31,0,.71-.05.9.24a.25.25,0,0,1,0,.33c0,.06-.08,0-.13.09s-.08,0,0,0c-.26-.47-1-.09-.75.39a.93.93,0,0,0,1.45.14,1.11,1.11,0,0,0,.07-1.57c-.84-1-2.28-.18-3.35-.3a2.64,2.64,0,0,1-2-2.2,1.43,1.43,0,0,1,.41-1.35,2,2,0,0,1,1.6-.5,1.29,1.29,0,0,1,1,1.3.67.67,0,0,1-.64.52c-.21,0-.66-.09-.4-.36s-.19-1-.57-.62Z"/><path class="cls-19" d="M143.7,25.46a1,1,0,0,1-1.78-.19,1.64,1.64,0,0,1,.48-2,1.87,1.87,0,0,1,2,.08,2,2,0,0,1,1,1.67,3,3,0,0,1-.69,2.07,2.22,2.22,0,0,1-1.68.7,3.56,3.56,0,0,1-3.23-1.95,5.75,5.75,0,0,1-.18-2.37.94.94,0,0,0-.34-.87.25.25,0,0,0-.33,0s0,.08-.08.14,0,.08,0,0c.5.21.2,1-.3.79a.91.91,0,0,1-.31-1.41,1.1,1.1,0,0,1,1.54-.27c1.13.71.46,2.24.71,3.3A2.64,2.64,0,0,0,142.87,27a1.42,1.42,0,0,0,1.3-.57,2,2,0,0,0,.3-1.64,1.3,1.3,0,0,0-1.42-.86.67.67,0,0,0-.43.69c0,.22.16.65.4.36s1,.07.68.49Z"/><path class="cls-19" d="M141.62,31a1,1,0,0,0-1.47-1,1.65,1.65,0,0,0-.93,1.8A1.87,1.87,0,0,0,140.75,33a2,2,0,0,0,1.86-.59,2.93,2.93,0,0,0,.84-2,2.25,2.25,0,0,0-.8-1.64,3.6,3.6,0,0,0-3.72-.65,6,6,0,0,0-1.7,1.67c-.2.23-.49.51-.82.43-.14,0-.23-.09-.24-.24s0-.08,0-.15.09,0,0-.06c.51.18.81-.61.3-.79a.92.92,0,0,0-1.17.86,1.11,1.11,0,0,0,1,1.22c1.32.2,1.82-1.39,2.7-2a2.62,2.62,0,0,1,3,.28,1.41,1.41,0,0,1,.61,1.28,2,2,0,0,1-.86,1.44,1.3,1.3,0,0,1-1.63-.28.69.69,0,0,1,.13-.81c.14-.16.55-.38.54,0,0,.54.81.62.84.08Z"/><path class="cls-19" d="M145.2,32.37a1,1,0,0,1,1.78.19,1.64,1.64,0,0,1-.47,2,1.9,1.9,0,0,1-2-.08,2,2,0,0,1-1-1.67,3,3,0,0,1,.68-2.07,2.27,2.27,0,0,1,1.69-.71,3.6,3.6,0,0,1,3.23,2,5.91,5.91,0,0,1,.18,2.37c0,.3,0,.7.34.86.12.07.23.09.33,0s0-.08.07-.14-.05-.08,0,0c-.5-.21-.21-1,.29-.79a.91.91,0,0,1,.32,1.41,1.11,1.11,0,0,1-1.55.27c-1.12-.72-.45-2.25-.7-3.3A2.63,2.63,0,0,0,146,30.85a1.38,1.38,0,0,0-1.29.57,2,2,0,0,0-.3,1.64,1.3,1.3,0,0,0,1.41.86.67.67,0,0,0,.44-.7c0-.21-.17-.65-.4-.35s-1-.07-.69-.5Z"/><path class="cls-19" d="M147.29,26.81a1,1,0,0,0,1.47,1,1.64,1.64,0,0,0,.93-1.79,1.9,1.9,0,0,0-1.53-1.23,2,2,0,0,0-1.86.6,2.93,2.93,0,0,0-.84,2,2.25,2.25,0,0,0,.8,1.64,3.6,3.6,0,0,0,3.72.65A5.85,5.85,0,0,0,151.67,28c.2-.23.49-.51.83-.43.13,0,.23.09.23.23s0,.09,0,.16-.09,0,0,.05c-.52-.17-.82.62-.3.79a.92.92,0,0,0,1.17-.86,1.1,1.1,0,0,0-1-1.21c-1.32-.21-1.82,1.39-2.7,2a2.62,2.62,0,0,1-3-.29,1.41,1.41,0,0,1-.6-1.28,2,2,0,0,1,.85-1.43,1.29,1.29,0,0,1,1.63.28.67.67,0,0,1-.12.81c-.15.16-.56.38-.54,0,0-.54-.82-.62-.84-.07Z"/></g><path class="cls-20" d="M100.52,121.93a1.7,1.7,0,0,1-.38-.87,1.39,1.39,0,0,1,1-1.31,4.11,4.11,0,0,1,1.75-.1c0-1-1-1.56-1.7-2.16s-1.37-1.7-.77-2.43c.35.48,1.16-.09,1.12-.67a3.35,3.35,0,0,0-.84-1.51,3.61,3.61,0,0,1-.24-3.62c.29-.56.72-1,1-1.61a8.67,8.67,0,0,0,.39-4c0-1.36.2-2.89,1.29-3.69a127.86,127.86,0,0,1,6.08,15.67,24,24,0,0,0,2.32,5.77,7.63,7.63,0,0,0,4.81,3.51c-2.56,1.11-4.77,0-7.32-.19C105.71,124.49,102.74,125,100.52,121.93Z"/><path class="cls-20" d="M165.56,121.93a1.89,1.89,0,0,0,.38-.87,1.4,1.4,0,0,0-1-1.31,4.11,4.11,0,0,0-1.75-.1c0-1,1-1.56,1.69-2.16s1.38-1.7.77-2.43c-.34.48-1.15-.09-1.11-.67a3.35,3.35,0,0,1,.84-1.51,3.64,3.64,0,0,0,.24-3.62c-.29-.56-.73-1-1-1.61a8.54,8.54,0,0,1-.39-4c0-1.36-.2-2.89-1.3-3.69a129.44,129.44,0,0,0-6.07,15.67,24,24,0,0,1-2.32,5.77,7.66,7.66,0,0,1-4.81,3.51c2.56,1.11,4.77,0,7.32-.19C160.37,124.49,163.34,125,165.56,121.93Z"/><path class="cls-21" d="M107.19,79.35c.49,8.21,1.3,16.64,5,24S123,116.58,131.26,117c10.83.6,22.52-11.32,24.73-17.08.19.81.91,2,1.1,2.85,0,.37.68.43.77.07a41,41,0,0,1-16.51,19.71c-7.51,4.44-16.89,5.91-25.18,3.21a18.77,18.77,0,0,1-5.6-2.81c-5.6-4.28-7.2-12-7.46-19.06-.21-5.5-.36-11.05-.43-16.55a201.86,201.86,0,0,1,.42-20.79c.2-3.22,1.46-2.1,1.51-1.62.19,1.63.51-1.86,1.12-3.67.33-1,1.18-.8,1.13.28A164.62,164.62,0,0,0,107.19,79.35Z"/><path class="cls-21" d="M160.36,78.82a96,96,0,0,1-2.54,14.06,69.92,69.92,0,0,1-3.55,11.84c-4.83,11.11-19.74,20.89-31.76,22.33,5.75,2.94,15.8,4.18,21.73,1.61,12.72-5.5,18.94-16.46,20.41-22.18s1.81-13.19,1.88-19.1c.08-7-.24-17.36-1.25-23.24-.53-3.14-1.84-2.39-1.94-.76-1.66-4.89-2.22-2.08-2.15.76C161.3,68.82,160.59,76,160.36,78.82Z"/><path class="cls-22" d="M145.16,123.45a10.65,10.65,0,0,0,2.75-1.59A39.65,39.65,0,0,0,163.44,95.3c-.68,1.3-.84,2.7-1.85,4,.28-2,1-4.24.86-6-.35,1-1.45,5.06-1.7,6a51.78,51.78,0,0,1-2.26,6.74,43.4,43.4,0,0,1-7.44,12A36.19,36.19,0,0,1,145.16,123.45Z"/><path class="cls-22" d="M106.49,96.94c2.2,9.42,7.49,18.57,16,23.2-1,.48-2.16,0-3.12-.57a30.35,30.35,0,0,1-6.72-5.21,9,9,0,0,0,2.51,3.94c-.22.29-.68.12-1-.07a16.07,16.07,0,0,1-5.28-6.8c-4.91-10.36-5.19-22.24-5.1-33.7a76.22,76.22,0,0,1,.56-10.14l.41.74c-.19-.34.36-.79.66-.47.11.12-.17,1-.19,1.14-.15,1.35-.14,2.74-.19,4.1-.11,2.64-.19,5.28-.18,7.92A71.62,71.62,0,0,0,106.49,96.94Z"/></svg>