<svg id="Layer_1" data-name="Layer 1" xmlns="http://www.w3.org/2000/svg" xmlns:xlink="http://www.w3.org/1999/xlink" viewBox="0 0 264 214"><defs><style>.cls-1,.cls-11,.cls-18,.cls-29,.cls-7{fill:none;}.cls-2{fill:#6243cf;}.cls-3{fill:#fff;}.cls-4{fill:#4a1b28;}.cls-5{fill:#3b1520;}.cls-6{fill:#a62017;}.cls-7{stroke:#a67684;stroke-linecap:round;stroke-width:1.31px;}.cls-11,.cls-18,.cls-29,.cls-7{stroke-miterlimit:10;}.cls-8{fill:#c6b377;}.cls-9{fill:#c4b18c;}.cls-10{clip-path:url(#clip-path);}.cls-11{stroke:#998650;stroke-width:0.64px;}.cls-12{fill:#f2ddb5;}.cls-13{fill:#faf7f3;}.cls-14{fill:#e0d7c3;}.cls-15{fill:#f9efde;}.cls-16{fill:#f2e8d7;}.cls-17{opacity:0.68;}.cls-18{stroke:#8f8f8f;stroke-width:0.42px;}.cls-19{fill:#a88080;}.cls-20{fill:#7a7a7a;}.cls-21{fill:#3b3b3b;}.cls-22{fill:#a8a8a8;}.cls-23{fill:#8f8f8f;}.cls-24{clip-path:url(#clip-path-2);}.cls-25{fill:#a67684;}.cls-26{fill:#632536;}.cls-27{fill:#7d3248;}.cls-28{fill:#6c283b;}.cls-29{stroke:#c6b377;stroke-width:0.21px;}</style><clipPath id="clip-path"><path class="cls-1" d="M115.49,154.25A60.27,60.27,0,0,0,148.66,152a12.58,12.58,0,0,1,5-1.16c3.26.2,5.7,3.1,7.17,6a53.39,53.39,0,0,1,3.74,11.55l2.76,11.39c3.18,13.17,6.38,26.46,6.74,40-8.62-2.76-17-6.34-25.26-9.91l-16.76-7.2a73.88,73.88,0,0,1-13-6.64c-4-2.77-7.56-6.45-9.34-11-1.91-4.83-1.7-10.18-1.93-15.36a35.61,35.61,0,0,0-1-7.55c-.47-1.82-2.15-4.12-1.92-6C105.44,151.41,112.62,153.62,115.49,154.25Z"/></clipPath><clipPath id="clip-path-2"><path class="cls-1" d="M115.48,84.85c1.22-4.71,1.32-9.63,2-14.45s1.6-9.78,4.88-13.37a15.51,15.51,0,0,1,8.36-4.71c5.17-1,11.3,1.41,14,5.92a17.7,17.7,0,0,1,2.46,7.59c.77,7.32,1.45,15,4.38,21.76,3.37,7.78,9.54,12.93,14.49,19.82-3.26-1.74-10.31-8.39-14.78-9.94-.56-.2-1-.14-2.3-.52-4-1.21-3.1,5.85-7.12,5.11-.82-.14,4.39-24.67,1.9-36.77A15.55,15.55,0,0,0,143,62.1a13.55,13.55,0,0,0-2.16-3.44A9.8,9.8,0,0,0,137,56a9.5,9.5,0,0,0-5.37-.52,11.92,11.92,0,0,0-3.45,1.32,19,19,0,0,0-4.48,3.73c-8,8.42.18,42.46-.83,42.64-2.1.37-4-7-6.64-6.25-1.14.33-3.1.68-4.51.93-2.63.46-4,8.64-6.19,8.58-1.18,0-4.24,1.36-4-.16s2-3.76,3-4.57a32.51,32.51,0,0,0,8.26-9.92A30.9,30.9,0,0,0,115.48,84.85Z"/></clipPath></defs><rect class="cls-2" x="24.95" y="-25.05" width="214" height="264.1" transform="translate(238.95 -24.95) rotate(90)"/><path class="cls-3" d="M167.37,179.83l-2.76-11.39a62.61,62.61,0,0,0-3-9.89c1.28-.76,2.59-1.48,3.88-2.2a18.85,18.85,0,0,1,4.8-2.11c.57-.13,1.23-.25,1.52-.73s-.09-1.4.15-2.07,1-.93,1.48-1.42a4,4,0,0,0,.72-3.21,116,116,0,0,0-1.94-14.51c-1.36-6.3-2.8-12.18-4.16-18.49a57.88,57.88,0,0,0-3.19-10c-.51-1.23-3.12-4-4.17-3.66v0s-.07-.11-.11-.15a2.93,2.93,0,0,0-1-.67c-3.08-3.62-6-7.27-8-11.81-2.93-6.75-3.61-14.44-4.38-21.76a17.57,17.57,0,0,0-2.46-7.59c-2.75-4.51-8.88-7-14-5.92A15.48,15.48,0,0,0,122.38,57c-3.28,3.59-4.19,8.56-4.88,13.37s-.8,9.74-2,14.45a30.9,30.9,0,0,1-2.72,6.94,32.32,32.32,0,0,1-5,6.9c-.55.15-1.1.31-1.63.51a3.62,3.62,0,0,0-1.49.87c-1.06-.35-3.56,2.61-4.09,3.88a58,58,0,0,0-3.63,10.5c-1.37,6.73-2,13.56-3.41,20.29a125.58,125.58,0,0,0-2.44,15.16,4.38,4.38,0,0,0,.72,3.43c.49.52,1.25.84,1.47,1.51s-.22,1.57.16,2.22a2.23,2.23,0,0,0,1.51.78,18.1,18.1,0,0,1,4.8,2.24c2.22,1.31,4.45,2.67,6.56,4.16-.54,2.3-1,4.62-1.37,6.94-1.44,9-1.86,18.07-3.25,27a80.74,80.74,0,0,1-3.64,15c7.79,4.7,17.32,5.23,26.42,5.63l21.07.9c8.71.37,17.51.7,26.09-.76l2.5.83C173.75,206.29,170.55,193,167.37,179.83ZM112.08,153.5a1.09,1.09,0,0,0-.13-.17l1.17.38C112.78,153.63,112.44,153.56,112.08,153.5Z"/><path class="cls-3" d="M180.72,228.63l-8.55-2.73-1.1-.36c-8.91,1.31-17.86.93-25.82.59l-21.08-.9c-8.93-.39-20-.88-29.43-6.54L90.27,216,92,211.08a73.17,73.17,0,0,0,3.34-13.82c.65-4.21,1.08-8.41,1.53-12.85.47-4.65,1-9.45,1.73-14.24.16-1,.34-2,.53-3l-2.69-1.62A14,14,0,0,0,93.41,164a8.2,8.2,0,0,1-5.51-3.78,7.52,7.52,0,0,1-.93-2.75c-2.65-3-2.36-6.68-2.25-8.09a133.05,133.05,0,0,1,2.55-15.93c.65-3.2,1.13-6.42,1.65-9.83s1-6.94,1.76-10.46a59.57,59.57,0,0,1,3.68-10.9l.31-.75c.61-1.5,3.43-6.17,7.51-7.51a10.84,10.84,0,0,1,1.77-.8l.25-.09a26.29,26.29,0,0,0,3-4.35,24.9,24.9,0,0,0,2.16-5.52,58.83,58.83,0,0,0,1.27-8.48c.17-1.71.35-3.48.61-5.28.83-5.8,2-11.86,6.48-16.76a21.88,21.88,0,0,1,11.83-6.66c7.91-1.57,16.63,2.15,20.71,8.84a24,24,0,0,1,3.36,10.25l.12,1.11c.68,6.52,1.38,13.26,3.77,18.78a38.49,38.49,0,0,0,6.21,9.29c3.63,1.43,6.34,5.28,7.08,7.05a63.84,63.84,0,0,1,3.54,11.07c.67,3.12,1.37,6.14,2.06,9.16s1.41,6.14,2.1,9.32a121.66,121.66,0,0,1,2.06,15.32,10.19,10.19,0,0,1-2.29,8,7.32,7.32,0,0,1-1,2.62,8.12,8.12,0,0,1-5.44,3.58,10.07,10.07,0,0,0-2.42,1c.54,1.89,1,3.73,1.41,5.46l2.75,11.4c3.22,13.3,6.54,27,6.93,41.33Zm-75-18.77c5.88,2.08,12.75,2.38,19,2.65l21.07.9c6.78.29,14.35.61,21.53-.22-1-10.69-3.62-21.43-6.14-31.86h0l-2.75-11.4a58.71,58.71,0,0,0-2.65-8.88l-2.18-5.13,4.78-2.84c1.35-.8,2.68-1.54,4-2.3a33.71,33.71,0,0,1,3.71-1.85,7.74,7.74,0,0,1,1.63-2.44A104.1,104.1,0,0,0,166,133.65c-.68-3.13-1.37-6.15-2.06-9.17s-1.42-6.14-2.11-9.32a42.73,42.73,0,0,0-1.22-4.51l-4.37-5.77-.56-.25-.94-1.11c-3.26-3.83-6.64-8-9-13.4-3.17-7.31-4-15.39-4.75-22.53l-.12-1.1a11.42,11.42,0,0,0-1.56-4.94,7.73,7.73,0,0,0-7.38-3,9.08,9.08,0,0,0-4.9,2.76c-2,2.23-2.71,6-3.29,10-.21,1.53-.37,3.09-.54,4.75a68.88,68.88,0,0,1-1.6,10.38,37.52,37.52,0,0,1-3.28,8.36,38.66,38.66,0,0,1-6,8.27l-1.23,1.3-1.72.47q-.42.1-.72.21l-2.17,2.35-.46-.16a48.33,48.33,0,0,0-2.93,8.47c-.65,3.21-1.13,6.43-1.65,9.83s-1,6.94-1.75,10.46c-.43,2.09-.84,4.12-1.2,6.13L114,147.3l.83.27.23.07-1.12,4.22,3.14-2.32.1.14-3.32,2.49-2.06,7.76-.8-.16,2.48,1.76-1,4.18c-.48,2-.91,4.22-1.27,6.48-.71,4.42-1.16,8.84-1.64,13.51-.45,4.41-.91,9-1.61,13.51A98.25,98.25,0,0,1,105.75,209.86ZM99.22,152.6a34.79,34.79,0,0,1,3.76,2c1.19.7,2.41,1.44,3.65,2.21L98.07,145c-.26,1.63-.47,3.26-.61,4.89A7.82,7.82,0,0,1,99.22,152.6Zm56.22-48.83s0,0,0,0Z"/><path class="cls-4" d="M115.48,84.85c1.22-4.71,1.32-9.63,2-14.45s1.6-9.78,4.88-13.37a15.51,15.51,0,0,1,8.36-4.71c5.17-1,11.3,1.41,14,5.92a17.7,17.7,0,0,1,2.46,7.59c.77,7.32,1.45,15,4.38,21.76,3.37,7.78,9.54,12.93,14.49,19.82-3.68-2-8-2.14-12.19-2.26-5.19-.16-9.88-3.59-15.07-3.3-5,.28-8.1.65-13.05,1-6,.38-14.26,3.8-20.25,3.63-1.18,0-4.24,1.36-4-.16s2-3.76,3-4.57a32.51,32.51,0,0,0,8.26-9.92A30.9,30.9,0,0,0,115.48,84.85Z"/><rect class="cls-5" x="119.3" y="94.95" width="25.54" height="64.95"/><path class="cls-6" d="M124.45,91.52c-2.65,21.47-4.78,43.41-.86,64.66a74.62,74.62,0,0,1-18.15-5.31c-.27-.12-3.18.67-3,.39-3.5-7.35-2.58-17-2.56-25.23a83.15,83.15,0,0,1,4-24.25,4.31,4.31,0,0,1,.82-1.71,3.62,3.62,0,0,1,1.49-.87c3.15-1.15,6.52-1.35,9.76-2.17S122.81,94.6,124.45,91.52Z"/><path class="cls-4" d="M98,213.24c7.79,4.7,17.32,5.23,26.42,5.63l21.07.9c9.19.39,18.49.77,27.52-1-5.18-21-10.37-42-18-62.17a4.84,4.84,0,0,0-1.38-2.25,4.78,4.78,0,0,0-2.53-.69c-11.2-.9-9.62,3.4-30.95,1.93-2-.14-6.74-2.08-8.66-1.4-2.43.87-2.77,1.62-3.56,4a81.61,81.61,0,0,0-3.08,13c-1.44,9-1.86,18.06-3.25,27A80.74,80.74,0,0,1,98,213.24Z"/><path class="cls-7" d="M124.45,91.52s-6.36,43.07-.86,64.66"/><path class="cls-6" d="M140.79,91.52c2.66,21.47,4.78,43.41.86,64.66a74.62,74.62,0,0,0,18.15-5.31c.28-.12,3.19.67,3,.39,3.51-7.35,2.58-17,2.56-25.23a83.47,83.47,0,0,0-4-24.25,4.45,4.45,0,0,0-.82-1.71,3.62,3.62,0,0,0-1.49-.87c-3.15-1.15-6.53-1.35-9.77-2.17S142.43,94.6,140.79,91.52Z"/><path class="cls-7" d="M140.79,91.52s6.37,43.07.86,64.66"/><path class="cls-8" d="M115.49,154.25A60.27,60.27,0,0,0,148.66,152a12.58,12.58,0,0,1,5-1.16c3.26.2,5.7,3.1,7.17,6a53.39,53.39,0,0,1,3.74,11.55l2.76,11.39c3.18,13.17,6.38,26.46,6.74,40-8.62-2.76-17-6.34-25.26-9.91l-16.76-7.2a73.88,73.88,0,0,1-13-6.64c-4-2.77-7.56-6.45-9.34-11-1.91-4.83-1.7-10.18-1.93-15.36a35.61,35.61,0,0,0-1-7.55c-.47-1.82-2.15-4.12-1.92-6C105.44,151.41,112.62,153.62,115.49,154.25Z"/><path class="cls-9" d="M133.43,186.16c-.47-.89-1.06-1.71-1.48-2.63a18.24,18.24,0,0,0-1.09-2.52,2.45,2.45,0,0,0-2.26-1.29,2,2,0,0,0-1.49,1.2,3.2,3.2,0,0,0-.17,2,8.58,8.58,0,0,0,1,2.44,12.05,12.05,0,0,0,1.92,2.72,5.19,5.19,0,0,0,2.88,1.56C135,189.94,134.06,187.35,133.43,186.16Z"/><g class="cls-10"><path class="cls-11" d="M108.54,153.08c3.57,3.45,3.64,9,3.68,14,0,8.73,1,18.13,6.69,24.72,4.59,5.29,11.5,7.86,18.1,10.22l41.63,14.91"/><path class="cls-11" d="M111.21,152.21c3.8,4.37,4.52,10.58,4.76,16.37s.27,11.88,3.1,16.94c3.11,5.57,9.07,8.87,14.94,11.37,14.67,6.26,30.56,9.31,45.11,15.83"/><path class="cls-11" d="M115.86,153.21a45.18,45.18,0,0,1,4,14c.55,4.75.37,9.69,2.16,14.12,2.2,5.45,7.13,9.4,12.46,11.87s11.13,3.69,16.79,5.25c9.83,2.72,19.31,6.53,28.77,10.34"/><path class="cls-11" d="M119.72,153.59c3.23,5.08,4,11.28,5.11,17.19s2.9,12.13,7.45,16.07a24.88,24.88,0,0,0,5.76,3.51,68.11,68.11,0,0,0,11.52,4.2c9.7,2.57,20.09,3.05,29,7.65"/><path class="cls-11" d="M123.25,153.79A21.35,21.35,0,0,1,128,161.7c1.08,3.2,1.38,6.62,2.32,9.87A26.16,26.16,0,0,0,140,185.36c5.38,3.95,12,5.68,18.58,7s13.23,2.36,19.28,5.18"/><path class="cls-11" d="M127.55,153.27c3.16,2.87,4.73,7.08,5.92,11.18s2.16,8.38,4.49,12c4,6.1,11.2,9.2,18.25,11s14.43,2.62,21,5.75"/><path class="cls-11" d="M132.56,152.93a21.63,21.63,0,0,1,5.53,8.17c1.1,2.89,1.57,6,2.68,8.87,2.68,6.95,9.1,12.11,16.27,14.12,6,1.68,12.48,1.37,18.28,3.63"/><path class="cls-11" d="M137.65,153.14c3,1.86,4.87,5.13,6.24,8.41s2.42,6.72,4.4,9.66c2.79,4.13,7.21,6.89,11.81,8.78s9.68,3.06,14.51,1.95"/><path class="cls-11" d="M141.66,151.32a15.24,15.24,0,0,1,6.05,6.1c1.49,2.49,2.6,5.19,4.07,7.7a26.67,26.67,0,0,0,8.6,9.19,19.92,19.92,0,0,0,12.08,3.17"/><path class="cls-11" d="M148.29,149.82c3.56,3.67,5.89,8.33,8.78,12.55s6.68,8.22,11.65,9.45"/></g><path class="cls-9" d="M133.71,176a2.68,2.68,0,0,1-.67,2.18,8.49,8.49,0,0,1-1.19.94,2.53,2.53,0,0,0-.94,1.16,1.92,1.92,0,0,0,.6,1.9,3.84,3.84,0,0,0,1.88.87,5.57,5.57,0,0,0,2,.09,5.24,5.24,0,0,0,3.09-1.87,10.8,10.8,0,0,0,1.76-3.21,6.63,6.63,0,0,0,.53-2.39,2.72,2.72,0,0,0-1-2.16,3.25,3.25,0,0,0-3-.15c-1.64.62-1.33,1.21-2.11,2.78"/><path class="cls-12" d="M137.91,165a4.37,4.37,0,0,0-.72,1.07q-.66,1.24-1.29,2.52a15.78,15.78,0,0,0-1.41,3.43c-.21.91-.27,1.85-.49,2.76-.42,1.64-1.39,3.12-1.62,4.8a2,2,0,0,0,.33,1.64,1.24,1.24,0,0,0,1.2.39,2.49,2.49,0,0,0,1.21-.9,8.66,8.66,0,0,0,1.82-2.72c.13-.35.21-.72.37-1.06a8.48,8.48,0,0,1,.62-.94,8.6,8.6,0,0,0,.72-1.61c.44-1.19.88-2.38,1.27-3.59a14.29,14.29,0,0,0,.84-4.79c0-.41-.06-2.54-.64-2.5-.25,0-.81.59-1.05.73A5.57,5.57,0,0,0,137.91,165Z"/><path class="cls-12" d="M138.43,175.69a.84.84,0,0,0,.28,1.32l-.37-.11c-.36.5-.37,1.17-.67,1.7-.43.76-1.38,1.11-1.76,1.89a3.24,3.24,0,0,0-.08,1.88l-.37-.92a.51.51,0,0,0-.16-.24c-.12-.08-.29,0-.42,0l-.82.35c-.34.14-.72.33-.8.69a.66.66,0,0,0-.4-.59,2,2,0,0,0-.73-.15,12.86,12.86,0,0,0-3.1.05,2,2,0,0,0-.87.33.8.8,0,0,0-.33.82c1.14.73,2.62.65,3.87,1.16a7.29,7.29,0,0,0,1.31.52,8.87,8.87,0,0,0,2-.16,10.59,10.59,0,0,0,2.58,0c1.15-.34,1.76-1.54,2.55-2.44,1-1.17,2.48-1.95,3.31-3.27,1-1.56.9-3.54,1.11-5.37a26,26,0,0,1,.93-4.27.81.81,0,0,0,0-.46.82.82,0,0,0-.16-.22l-2.7-2.85a3.76,3.76,0,0,0-1.87-1.29.79.79,0,0,0-.43,0,.93.93,0,0,0-.38.33,7.32,7.32,0,0,0-1,1.94,20.93,20.93,0,0,0-1.24,7.84c0,.27.06.53.07.8S137.89,175.74,138.43,175.69Z"/><path class="cls-13" d="M129.16,182.62a5.26,5.26,0,0,0-1.15-.35.5.5,0,0,0-.21,0,.33.33,0,0,0-.13.13.39.39,0,0,0,.11.42,1.11,1.11,0,0,0,.39.24c.26.11.9.48,1.2.37C129.9,183.26,129.44,182.74,129.16,182.62Z"/><path class="cls-13" d="M132.89,180a1.37,1.37,0,0,1,.45-.56.81.81,0,0,1,1.06.2,1.59,1.59,0,0,1,.09,1.27l-.09.42a.4.4,0,0,1-.1.23.43.43,0,0,1-.2.06l-.39,0a1.36,1.36,0,0,1-.45,0,1.42,1.42,0,0,1-.57-.33C132.29,181,132.7,180.35,132.89,180Z"/><path class="cls-12" d="M128.73,171.36a4.46,4.46,0,0,1,.73,1.08c.44.83.86,1.67,1.29,2.51a15.53,15.53,0,0,1,1.4,3.44c.22.9.27,1.85.5,2.75.41,1.64,1.38,3.13,1.62,4.81a2,2,0,0,1-.33,1.63,1.25,1.25,0,0,1-1.21.4,2.53,2.53,0,0,1-1.2-.91,8.7,8.7,0,0,1-1.83-2.71,9.6,9.6,0,0,0-.36-1.07c-.17-.33-.42-.62-.62-.94a8.64,8.64,0,0,1-.73-1.61c-.44-1.19-.87-2.38-1.26-3.59a14.28,14.28,0,0,1-.84-4.78c0-.41.06-2.55.64-2.51.24,0,.8.59,1,.73A5.25,5.25,0,0,1,128.73,171.36Z"/><path class="cls-12" d="M128.21,182a.84.84,0,0,1-.27,1.33l.37-.11c.36.49.36,1.16.67,1.7.42.75,1.38,1.11,1.75,1.89a3.13,3.13,0,0,1,.09,1.87l.37-.92a.41.41,0,0,1,.15-.23.47.47,0,0,1,.43,0l.81.34c.34.14.73.34.81.7a.64.64,0,0,1,.39-.59,1.72,1.72,0,0,1,.74-.15,12.37,12.37,0,0,1,3.1,0,1.91,1.91,0,0,1,.87.32.84.84,0,0,1,.33.83c-1.14.72-2.62.65-3.87,1.16a6.58,6.58,0,0,1-1.31.51,8.26,8.26,0,0,1-2-.15,11.2,11.2,0,0,1-2.59,0c-1.14-.35-1.75-1.55-2.54-2.45-1-1.17-2.48-1.95-3.31-3.26-1-1.56-.9-3.54-1.11-5.38a26,26,0,0,0-.93-4.27.7.7,0,0,1,0-.45.73.73,0,0,1,.16-.23l2.7-2.84a3.8,3.8,0,0,1,1.86-1.3.72.72,0,0,1,.82.35,7.11,7.11,0,0,1,1,1.93,20.72,20.72,0,0,1,1.23,7.84c0,.27,0,.53-.06.8S128.75,182.1,128.21,182Z"/><path class="cls-13" d="M137.49,189a5.83,5.83,0,0,1,1.15-.34.3.3,0,0,1,.21,0,.24.24,0,0,1,.13.13.42.42,0,0,1-.11.42,1.09,1.09,0,0,1-.39.23c-.27.11-.9.48-1.2.38C136.75,189.61,137.2,189.1,137.49,189Z"/><path class="cls-13" d="M133.76,186.33a1.41,1.41,0,0,0-.45-.57.82.82,0,0,0-1.06.2,1.59,1.59,0,0,0-.09,1.27l.08.43a.36.36,0,0,0,.11.22.39.39,0,0,0,.19.06l.4.05a1.36,1.36,0,0,0,.45,0,1.15,1.15,0,0,0,.56-.33C134.36,187.32,134,186.7,133.76,186.33Z"/><path class="cls-3" d="M141.51,57.17A16.51,16.51,0,0,1,146.84,66a25,25,0,0,1,.42,5.46,63.61,63.61,0,0,1-2,15.79A5.48,5.48,0,0,1,143.92,90a3.63,3.63,0,0,1-4.45,0,6.31,6.31,0,0,1-2.28-4.11,26.65,26.65,0,0,1-.14-4.81,49.2,49.2,0,0,0-1.57-12.72,13.45,13.45,0,0,0-1.67-4.22,9.13,9.13,0,0,0-3.89-3.11,6.67,6.67,0,0,1-2.3-1.29,4,4,0,0,1-.66-3.65c.22-1,.41-.76,1.12-1.47a6.92,6.92,0,0,1,6.9-1.26A20,20,0,0,1,141.51,57.17Z"/><path class="cls-3" d="M125.4,85.26a2.23,2.23,0,0,0-2.73-.45,3.09,3.09,0,0,0-1.47,2.49,5.15,5.15,0,0,0,.73,2.87,6.47,6.47,0,0,0,3.7,3.14,3.17,3.17,0,0,0,2.21,0,2.69,2.69,0,0,0,1.44-2.49,4.14,4.14,0,0,0-1.2-2.71,28.44,28.44,0,0,0-3-2.39"/><path class="cls-14" d="M126.38,93.66a7.43,7.43,0,0,0,6.39,4.71,9.28,9.28,0,0,0,7.47-3.18,13.28,13.28,0,0,0,3-6.28,6.37,6.37,0,0,1-1.47-4.6c-.11,1.29-6.09,2.73-7.14,2.94a26.69,26.69,0,0,1-7.88.07C126.61,89.5,127.22,91.42,126.38,93.66Z"/><path class="cls-15" d="M144.6,74.44c-.2,2.15-.39,4.3-.59,6.45a11.46,11.46,0,0,1-.7,3.49c-.74,1.71-5.37,7.15-10.18,7.1-3,0-6.11-.71-8.25-2.82-2.78-2.74-3.75-6.77-4.6-10.57a13.83,13.83,0,0,1-.5-5c.12-.78.36-1.54.48-2.32a27.68,27.68,0,0,0,.13-3.29,13.52,13.52,0,0,1,1-4.69h0a11.56,11.56,0,0,1,2.41-3.64A10,10,0,0,1,128,56.73a12.4,12.4,0,0,1,5.15-.39,13.46,13.46,0,0,1,3.19.81,10.31,10.31,0,0,1,4.17,2.48c2.38,2.68,3.51,5.87,5,9.14.34.75-.36,2.47-.17,3.27S144.68,73.64,144.6,74.44Z"/><path class="cls-16" d="M132.79,87.78c-.8.68-.6,2.49.25,3.32.1.09.05.26.09.38a10.47,10.47,0,0,1-8.25-2.82c-2.78-2.74-3.75-6.77-4.6-10.57a13.83,13.83,0,0,1-.5-5c.12-.78.36-1.54.48-2.32a27.68,27.68,0,0,0,.13-3.29,13.52,13.52,0,0,1,1-4.69h0a15.79,15.79,0,0,1,3.81-4.29A18.31,18.31,0,0,1,128,56.73a12.44,12.44,0,0,1,5.39-1.47q-.14.54-.24,1.08c-.91,4.23-1.71,8.31-1.3,12.62.06.58.67,1.44.6,2,0,.36-.12.71-.14,1.08a7.94,7.94,0,0,0-.14,1.68,5.86,5.86,0,0,1-.61,3.2c-.19.41-.25,1.52.19,1.65a6.2,6.2,0,0,0,1,.21c.52,0,.76.16.77.68A4,4,0,0,1,133,81a2.16,2.16,0,0,0-.18,1.51c.12.33.38.65.27,1a3.36,3.36,0,0,0-.2.43.78.78,0,0,0,.13.48C133.55,85.48,133.42,87.24,132.79,87.78Z"/><path class="cls-3" d="M124.56,62.86c-3.23,3.24-4.43,8.32-5.14,12.84-.38-4.39-.34-9.39,1.48-13.41s5.48-7.39,9.86-7.94c.92-.12,2.62-.06,3.15.9s-1.57,2.12-2.36,2.66C129.18,59.5,126.59,60.82,124.56,62.86Z"/><g class="cls-17"><path class="cls-18" d="M119,71.6a33.65,33.65,0,0,1,2-4.83,17.6,17.6,0,0,1,3.55-5,19,19,0,0,1,1.78-1.44c1.44-1,3-2,4.48-2.89a15.38,15.38,0,0,1,5-2.3"/><path class="cls-18" d="M134.7,54.67c-3.69,1.75-7.45,3.53-10.48,6.27a20.94,20.94,0,0,0-6.31,11"/><path class="cls-18" d="M143.36,62.41a13.42,13.42,0,0,0,.91,7.06,20,20,0,0,1,.91,2.2,11.41,11.41,0,0,1,.1,4.4l-.42,4a22.09,22.09,0,0,1-.8,4.51,4.53,4.53,0,0,1-1.85,2.63"/></g><path class="cls-3" d="M140.25,62.86c3.23,3.24,4.43,8.32,5.14,12.84.39-4.39.34-9.39-1.47-13.41s-5.49-7.39-9.86-7.94c-.92-.12-2.63-.06-3.15.9s1.56,2.12,2.36,2.66C135.63,59.5,138.22,60.82,140.25,62.86Z"/><g class="cls-17"><path class="cls-18" d="M145.77,71.6a34.77,34.77,0,0,0-2-4.83,15.66,15.66,0,0,0-5.34-6.42c-1.44-1-3-2-4.47-2.89a15.43,15.43,0,0,0-5.06-2.3"/><path class="cls-18" d="M130.11,54.67c3.7,1.75,7.45,3.53,10.48,6.27a20.81,20.81,0,0,1,6.31,11"/></g><path class="cls-19" d="M133.47,83.54l-1-.92-.42-.4a4.44,4.44,0,0,0-.73,0,21.61,21.61,0,0,1-2.18,1.22,10.23,10.23,0,0,1-1.12-.76l-.44.88,1.68,0Z"/><path class="cls-19" d="M131.85,83.54l1.09-.92s.42-.39.45-.4a4.94,4.94,0,0,1,.77,0,22.84,22.84,0,0,0,2.21,1.14c.15,0,1.14-.63,1.14-.63l.43.81-1.59,0Z"/><path class="cls-20" d="M135.43,68.37a6.82,6.82,0,0,1,6.49.52c0-.44-.73-1-1.11-1.17A8.11,8.11,0,0,0,136,67a1.72,1.72,0,0,0-1.23.52C134.31,68.12,134.58,68.75,135.43,68.37Z"/><path class="cls-21" d="M137.93,71.38a.6.6,0,0,0,.25.22.92.92,0,0,0,.29,0,1.35,1.35,0,0,0,.29,0,.85.85,0,0,0,.48-.62.68.68,0,0,0-.23-.73,1.15,1.15,0,0,0-1,0A.86.86,0,0,0,137.93,71.38Z"/><path class="cls-22" d="M136.66,69.38a1.91,1.91,0,0,0-.93,1.34c0,.31.21.43.48.36a7.45,7.45,0,0,0,.93-.36,4.65,4.65,0,0,1,2.09-.33,3.65,3.65,0,0,1,1.12.3,5,5,0,0,1,.92.55,3,3,0,0,0-2-1.2,5.4,5.4,0,0,0-2.29.21,2.66,2.66,0,0,1,1.94-.94,3.47,3.47,0,0,1,1.65.47c.23.11.53,0,.45-.18-.14-.4-1.6-.83-2.38-.83A3.66,3.66,0,0,0,136.66,69.38Z"/><path class="cls-22" d="M142.5,72.44a1.18,1.18,0,0,0-.45-.64.76.76,0,0,1,.62.26c-.28-.24-.81-.62-1.18-.3.1.08.28.08.41.13A1.51,1.51,0,0,1,142.5,72.44Z"/><path class="cls-22" d="M139.67,83.46a2.48,2.48,0,0,0-.85-3A3.43,3.43,0,0,1,139.67,83.46Z"/><path class="cls-22" d="M140.19,81.53a2.68,2.68,0,0,0-.13-.8.77.77,0,0,0-.58-.51C140,80.57,140.05,81.05,140.19,81.53Z"/><path class="cls-20" d="M130.22,68.37a6.81,6.81,0,0,0-6.49.52c0-.44.78-1,1.16-1.2a8,8,0,0,1,4.74-.7,1.92,1.92,0,0,1,1.23.52C131.4,68.06,131.06,68.75,130.22,68.37Z"/><path class="cls-21" d="M127.38,71.38a.75.75,0,0,1-.25.22.92.92,0,0,1-.29,0,1.57,1.57,0,0,1-.3,0,.86.86,0,0,1-.47-.62.68.68,0,0,1,.22-.73,1.18,1.18,0,0,1,1,0A.86.86,0,0,1,127.38,71.38Z"/><path class="cls-22" d="M129,69.38a1.94,1.94,0,0,1,.93,1.34c0,.31-.21.43-.49.36a8,8,0,0,1-.92-.36,4.67,4.67,0,0,0-2.09-.33,3.57,3.57,0,0,0-1.12.3,4.66,4.66,0,0,0-.92.55,2.94,2.94,0,0,1,1.9-1.24,6.39,6.39,0,0,1,2.45.31,2.16,2.16,0,0,0-1.83-1,4.37,4.37,0,0,0-1.87.46c-.21.1-.5,0-.45-.18s.89-.76,2.38-.83A3.46,3.46,0,0,1,129,69.38Z"/><path class="cls-22" d="M123.15,72.44a1.13,1.13,0,0,1,.45-.64.75.75,0,0,0-.62.26c.28-.24.81-.62,1.18-.3a2,2,0,0,1-.41.13A1.51,1.51,0,0,0,123.15,72.44Z"/><path class="cls-22" d="M126,83.46c-.52-1.88.46-2.81.85-3A3.79,3.79,0,0,0,126,83.46Z"/><path class="cls-22" d="M125.46,81.53a2.17,2.17,0,0,1,.13-.8.82.82,0,0,1,.57-.51A1.86,1.86,0,0,0,125.46,81.53Z"/><path class="cls-23" d="M131.9,68.91a5.94,5.94,0,0,1,.71,1.4,2.25,2.25,0,0,1-.07,1.67,1.35,1.35,0,0,0-.19,1.25,3.52,3.52,0,0,1,.15,1.65,28.2,28.2,0,0,1-.83,3c0,.13,0,.19,0,.17a.37.37,0,0,0,.1.11,1.37,1.37,0,0,0,.5.29,1.66,1.66,0,0,0,1.28-.13l.15.16a1.64,1.64,0,0,1-1.57.64,1.75,1.75,0,0,1-.87-.36,1,1,0,0,1-.36-.48,1.11,1.11,0,0,1,0-.59c.26-1,.73-2,.89-2.9a3.41,3.41,0,0,0-.06-1.38,1.92,1.92,0,0,1,0-.9,3.61,3.61,0,0,1,.36-.76c.47-.78.09-1.81-.32-2.72Z"/><path class="cls-1" d="M185.77,169.07l-1.27,1.35"/><path class="cls-4" d="M100.55,104a58,58,0,0,0-3.63,10.5c-1.37,6.73-2,13.56-3.41,20.29a125.58,125.58,0,0,0-2.44,15.16,4.38,4.38,0,0,0,.72,3.43c.49.52,1.25.84,1.47,1.51s-.22,1.57.16,2.22a2.23,2.23,0,0,0,1.51.78,18.1,18.1,0,0,1,4.8,2.24c5.15,3.06,10.47,6.27,13.87,11.2,1.39,2,2.86,4.57,5.31,4.66,1.63.06,3-1,4.28-2.09l3.74-3.13c.88-.74,1.84-1.94,1.21-2.9-.4-.61-1.24-.72-2-.88-2.35-.53-4.23-2.26-5.93-4a99.59,99.59,0,0,1-10.45-12.56,15.45,15.45,0,0,0-2.66-3.19,4.66,4.66,0,0,0-3.87-1.11,19.13,19.13,0,0,0,0-4.28c-.6-8.41-2.55-16.77-1.87-25.17a56.86,56.86,0,0,1,2.31-11.48,18.19,18.19,0,0,0,.89-5.09C103.58,99.72,101.08,102.68,100.55,104Z"/><path class="cls-4" d="M164.89,103.86a57.88,57.88,0,0,1,3.19,10c1.36,6.31,2.8,12.19,4.16,18.49a116,116,0,0,1,1.94,14.51,4,4,0,0,1-.72,3.21c-.49.49-1.25.79-1.48,1.42s.22,1.47-.15,2.07-1,.6-1.52.73a18.85,18.85,0,0,0-4.8,2.11c-5.15,2.86-10.47,5.87-13.86,10.49-1.39,1.89-2.86,4.28-5.32,4.37-1.62,0-3-1-4.27-2l-3.74-2.94a3.36,3.36,0,0,1-1.22-2.71c0-1.39,3.55-4.4,5.24-6,3.83-3.65,14.69-12.49,15.77-13.31a4.84,4.84,0,0,1,3.86-1,17.34,17.34,0,0,1,0-4c.6-7.87,2.55-15.71,1.87-23.58a49.81,49.81,0,0,0-2.31-10.75,30,30,0,0,1-.77-4.7C161.77,99.87,164.38,102.63,164.89,103.86Z"/><path class="cls-4" d="M123.15,61.31c1.83-2.66,6.34-6.37,11-6a10.09,10.09,0,0,1,6.44,3,12.77,12.77,0,0,1,3.16,6.46,26.66,26.66,0,0,0,.8,4.11c.21.58.67,1.23,1.27,1.12.27,0,.89,10.28,1,10,1.25-2.26.48-12.23.43-13.18a16.7,16.7,0,0,0-2.81-8.11,14.33,14.33,0,0,0-6.39-5.47,11.68,11.68,0,0,0-8.33-.34A18,18,0,0,0,126,55a13.74,13.74,0,0,0-3,2.42,14.08,14.08,0,0,0-2,3.45,22.69,22.69,0,0,0-1,2.34c-.68,2-2.82,7.43-2.43,9.54,0,.3,1.56.36,1.76.58.91,1,1.34-3.65,1.34-4.09a13.74,13.74,0,0,1,.29-2.78A14.06,14.06,0,0,1,123.15,61.31Z"/><g class="cls-24"><path class="cls-25" d="M113.82,92.5a.57.57,0,0,0,.4-.92.91.91,0,0,0-1.08-.31,1,1,0,0,0-.5,1,1.1,1.1,0,0,0,.53,1,1.64,1.64,0,0,0,1.18.24,1.24,1.24,0,0,0,.81-.62,2,2,0,0,0,0-2.1A3.28,3.28,0,0,0,114,90c-.15-.08-.33-.21-.32-.4s0-.14.1-.16,0,0,.09,0,0,0,0,0c0,.3.42.38.46.08a.52.52,0,0,0-.6-.55.61.61,0,0,0-.55.68c0,.74,1,.84,1.4,1.25a1.46,1.46,0,0,1,.17,1.65.82.82,0,0,1-.64.47,1.12,1.12,0,0,1-.87-.31.71.71,0,0,1,0-.92.37.37,0,0,1,.46,0c.1.06.27.26.06.29s-.25.51,0,.47Z"/><path class="cls-25" d="M117.08,93a.57.57,0,0,1-.09-1,.92.92,0,0,1,1.13,0,1.05,1.05,0,0,1,.17,1.08,1.13,1.13,0,0,1-.8.73,1.64,1.64,0,0,1-1.21-.15,1.26,1.26,0,0,1-.57-.84,2,2,0,0,1,.72-2,3.09,3.09,0,0,1,1.27-.35c.17,0,.38-.1.44-.28s0-.14,0-.18l-.09,0s0,0,0,0c0,.29-.52.22-.46-.08a.51.51,0,0,1,.74-.32.6.6,0,0,1,.31.81c-.26.69-1.17.5-1.72.75a1.46,1.46,0,0,0-.68,1.51.77.77,0,0,0,.45.64,1.12,1.12,0,0,0,.93,0,.73.73,0,0,0,.32-.87.4.4,0,0,0-.43-.16c-.12,0-.34.16-.15.26s.07.56-.2.42Z"/><path class="cls-25" d="M116.74,95.13a.56.56,0,0,0-.39.91.9.9,0,0,0,1.08.31,1,1,0,0,0,.5-1,1.12,1.12,0,0,0-.53-1,1.61,1.61,0,0,0-1.19-.24,1.21,1.21,0,0,0-.8.61,2,2,0,0,0,0,2.11,3.4,3.4,0,0,0,1.09.74c.15.08.33.21.33.4a.13.13,0,0,1-.11.15s0,0-.08,0,0,0,0,0c0-.3-.43-.38-.47-.08a.51.51,0,0,0,.6.54.6.6,0,0,0,.55-.67c0-.74-1-.84-1.39-1.25a1.45,1.45,0,0,1-.17-1.65.76.76,0,0,1,.63-.47,1.16,1.16,0,0,1,.88.31.72.72,0,0,1,0,.92.37.37,0,0,1-.45,0c-.11-.06-.27-.26-.07-.29s.25-.52-.05-.47Z"/><path class="cls-25" d="M113.48,94.6a.57.57,0,0,1,.09,1,.9.9,0,0,1-1.12,0,1,1,0,0,1-.17-1.08,1.1,1.1,0,0,1,.8-.73,1.62,1.62,0,0,1,1.2.14,1.27,1.27,0,0,1,.57.84,2,2,0,0,1-.71,2,3.36,3.36,0,0,1-1.28.36c-.16,0-.38.1-.43.28a.14.14,0,0,0,0,.18s0,0,.08,0,0,0,0,0c.06-.3.52-.22.46.07a.5.5,0,0,1-.73.33.61.61,0,0,1-.32-.81c.27-.7,1.18-.5,1.72-.75a1.46,1.46,0,0,0,.68-1.51.8.8,0,0,0-.45-.65,1.12,1.12,0,0,0-.93,0,.72.72,0,0,0-.31.86.37.37,0,0,0,.42.17c.12,0,.34-.17.15-.26s-.07-.57.2-.43Z"/><path class="cls-25" d="M148.3,93.31a.57.57,0,0,0-.06-1,.92.92,0,0,0-1.11.22,1,1,0,0,0,0,1.09,1.11,1.11,0,0,0,.9.6,1.6,1.6,0,0,0,1.17-.33,1.22,1.22,0,0,0,.43-.91,2,2,0,0,0-1-1.85,3.24,3.24,0,0,0-1.31-.16c-.17,0-.4,0-.48-.21s0-.13,0-.18,0,0,.08,0,0,0,0,0c.1.28.55.14.45-.14a.52.52,0,0,0-.78-.22.62.62,0,0,0-.19.86c.37.64,1.24.31,1.81.47a1.49,1.49,0,0,1,.91,1.4.78.78,0,0,1-.35.7,1.11,1.11,0,0,1-.92.12.69.69,0,0,1-.44-.8.36.36,0,0,1,.39-.23c.12,0,.36.11.19.24s0,.57.26.39Z"/><path class="cls-25" d="M151.44,92.29a.57.57,0,0,1-.53-.84.91.91,0,0,1,1-.47,1.06,1.06,0,0,1,.65.88,1.16,1.16,0,0,1-.38,1,1.61,1.61,0,0,1-1.14.41,1.22,1.22,0,0,1-.89-.49,2,2,0,0,1-.27-2.08,3.21,3.21,0,0,1,1-.9c.14-.1.3-.26.26-.45a.13.13,0,0,0-.12-.13s0,0-.09,0,0,0,0,0c.08.29-.36.44-.45.15a.51.51,0,0,1,.51-.63.62.62,0,0,1,.65.58c.08.74-.82,1-1.19,1.45a1.46,1.46,0,0,0,.08,1.66.8.8,0,0,0,.7.36,1.15,1.15,0,0,0,.82-.43.74.74,0,0,0-.12-.92.38.38,0,0,0-.45,0c-.09.08-.23.3,0,.3s.33.47,0,.47Z"/><path class="cls-25" d="M152.1,94.32a.57.57,0,0,0,.06,1,.9.9,0,0,0,1.1-.21,1,1,0,0,0,0-1.09,1.12,1.12,0,0,0-.9-.61,1.68,1.68,0,0,0-1.17.33,1.3,1.3,0,0,0-.44.92,2,2,0,0,0,1,1.84,3.25,3.25,0,0,0,1.31.17c.17,0,.39,0,.47.21a.13.13,0,0,1,0,.18s0,0-.08,0,0,0,0,0c-.11-.29-.55-.14-.45.14a.51.51,0,0,0,.78.21.61.61,0,0,0,.19-.85c-.37-.65-1.24-.31-1.82-.48a1.46,1.46,0,0,1-.9-1.39.78.78,0,0,1,.35-.7,1.15,1.15,0,0,1,.92-.13.72.72,0,0,1,.44.81.38.38,0,0,1-.4.22c-.11,0-.35-.11-.18-.23s0-.57-.26-.39Z"/><path class="cls-25" d="M149,95.34a.57.57,0,0,1,.54.84.93.93,0,0,1-1,.47,1.07,1.07,0,0,1-.64-.88,1.1,1.1,0,0,1,.38-1,1.64,1.64,0,0,1,1.14-.42,1.25,1.25,0,0,1,.89.49,2,2,0,0,1,.27,2.09,3.34,3.34,0,0,1-1,.89c-.13.11-.29.26-.25.45s0,.13.12.14l.09,0c.05,0,0-.05,0,0-.08-.29.36-.43.44-.14a.51.51,0,0,1-.5.63.61.61,0,0,1-.65-.59c-.08-.73.82-1,1.19-1.44a1.48,1.48,0,0,0-.08-1.66.81.81,0,0,0-.7-.37,1.11,1.11,0,0,0-.82.44.71.71,0,0,0,.11.91.38.38,0,0,0,.46-.05c.09-.07.22-.29,0-.3s-.32-.46,0-.46Z"/><path class="cls-25" d="M116.24,81.85a.44.44,0,0,0,.19-.75.71.71,0,0,0-.87-.11.82.82,0,0,0-.27.81.93.93,0,0,0,.53.67,1.25,1.25,0,0,0,1,0,1,1,0,0,0,.54-.57,1.57,1.57,0,0,0-.3-1.62,2.44,2.44,0,0,0-.94-.43c-.12,0-.28-.13-.3-.27a.12.12,0,0,1,.06-.14s0,0,.07,0,0,0,0,0c0,.23.38.23.37,0a.4.4,0,0,0-.53-.35.48.48,0,0,0-.34.59c.12.57.84.53,1.23.79a1.15,1.15,0,0,1,.34,1.26.63.63,0,0,1-.43.44.89.89,0,0,1-.71-.13.56.56,0,0,1-.14-.71.29.29,0,0,1,.35-.07c.09,0,.24.17.08.22s-.12.42.1.35Z"/><path class="cls-25" d="M118.83,81.85a.44.44,0,0,1-.2-.75.73.73,0,0,1,.88-.11.84.84,0,0,1,.26.81.88.88,0,0,1-.53.67,1.23,1.23,0,0,1-.94,0,1,1,0,0,1-.55-.57,1.57,1.57,0,0,1,.31-1.62,2.47,2.47,0,0,1,.93-.43c.13,0,.29-.13.31-.27a.14.14,0,0,0-.06-.14s0,0-.07,0,0,0,0,0c0,.23-.37.23-.36,0a.4.4,0,0,1,.53-.35.49.49,0,0,1,.34.59c-.12.57-.84.53-1.24.79a1.16,1.16,0,0,0-.33,1.26.62.62,0,0,0,.43.44.89.89,0,0,0,.71-.13.57.57,0,0,0,.14-.71.29.29,0,0,0-.35-.07c-.09,0-.24.17-.09.22s.13.42-.09.35Z"/><path class="cls-25" d="M118.83,83.52a.44.44,0,0,0-.2.75.73.73,0,0,0,.88.11.84.84,0,0,0,.26-.81.87.87,0,0,0-.53-.67,1.27,1.27,0,0,0-.94,0,1,1,0,0,0-.55.58,1.57,1.57,0,0,0,.31,1.62,2.47,2.47,0,0,0,.93.43c.13.05.29.12.31.27s0,.11-.06.13,0,0-.07,0,0,0,0,0c0-.23-.37-.24-.36,0a.41.41,0,0,0,.53.35.49.49,0,0,0,.34-.59c-.12-.57-.84-.53-1.24-.8a1.14,1.14,0,0,1-.33-1.25.62.62,0,0,1,.43-.44.89.89,0,0,1,.71.13.57.57,0,0,1,.14.71.29.29,0,0,1-.35.07c-.09,0-.24-.17-.09-.22s.13-.43-.09-.35Z"/><path class="cls-25" d="M116.24,83.52a.44.44,0,0,1,.19.75.71.71,0,0,1-.87.11.82.82,0,0,1-.27-.81.91.91,0,0,1,.53-.67,1.3,1.3,0,0,1,1,0,1,1,0,0,1,.54.58,1.57,1.57,0,0,1-.3,1.62,2.44,2.44,0,0,1-.94.43c-.12.05-.28.12-.3.27s0,.11.06.13,0,0,.07,0,0,0,0,0c0-.23.38-.24.37,0a.41.41,0,0,1-.53.35.48.48,0,0,1-.34-.59c.12-.57.84-.53,1.23-.8a1.13,1.13,0,0,0,.34-1.25.63.63,0,0,0-.43-.44.89.89,0,0,0-.71.13.56.56,0,0,0-.14.71.29.29,0,0,0,.35.07c.09,0,.24-.17.08-.22s-.12-.43.1-.35Z"/><path class="cls-25" d="M146.65,81.85a.44.44,0,0,0,.2-.75A.73.73,0,0,0,146,81a.84.84,0,0,0-.26.81.88.88,0,0,0,.53.67,1.23,1.23,0,0,0,.94,0,1,1,0,0,0,.55-.57,1.57,1.57,0,0,0-.31-1.62,2.47,2.47,0,0,0-.93-.43c-.13,0-.29-.13-.31-.27a.13.13,0,0,1,.07-.14s0,0,.06,0,0,0,0,0c0,.23.37.23.36,0a.4.4,0,0,0-.53-.35.49.49,0,0,0-.34.59c.12.57.85.53,1.24.79a1.16,1.16,0,0,1,.33,1.26.62.62,0,0,1-.43.44.89.89,0,0,1-.71-.13.57.57,0,0,1-.14-.71.29.29,0,0,1,.35-.07c.09,0,.24.17.09.22s-.13.42.09.35Z"/><path class="cls-25" d="M149.24,81.85a.44.44,0,0,1-.19-.75.71.71,0,0,1,.87-.11.82.82,0,0,1,.27.81.93.93,0,0,1-.53.67,1.25,1.25,0,0,1-.95,0,1,1,0,0,1-.54-.57,1.57,1.57,0,0,1,.3-1.62,2.44,2.44,0,0,1,.94-.43c.12,0,.28-.13.3-.27a.12.12,0,0,0-.06-.14s0,0-.07,0,0,0,0,0c0,.23-.38.23-.37,0a.4.4,0,0,1,.53-.35.48.48,0,0,1,.34.59c-.12.57-.84.53-1.23.79a1.15,1.15,0,0,0-.34,1.26.63.63,0,0,0,.43.44.92.92,0,0,0,.72-.13.57.57,0,0,0,.13-.71.29.29,0,0,0-.35-.07c-.09,0-.24.17-.08.22s.12.42-.1.35Z"/><path class="cls-25" d="M149.24,83.52a.44.44,0,0,0-.19.75.71.71,0,0,0,.87.11.82.82,0,0,0,.27-.81.91.91,0,0,0-.53-.67,1.3,1.3,0,0,0-.95,0,1,1,0,0,0-.54.58,1.57,1.57,0,0,0,.3,1.62,2.44,2.44,0,0,0,.94.43c.12.05.28.12.3.27s0,.11-.06.13,0,0-.07,0,0,0,0,0c0-.23-.38-.24-.37,0a.41.41,0,0,0,.53.35.48.48,0,0,0,.34-.59c-.12-.57-.84-.53-1.23-.8a1.13,1.13,0,0,1-.34-1.25.63.63,0,0,1,.43-.44.92.92,0,0,1,.72.13.57.57,0,0,1,.13.71.29.29,0,0,1-.35.07c-.09,0-.24-.17-.08-.22s.12-.43-.1-.35Z"/><path class="cls-25" d="M146.65,83.52a.44.44,0,0,1,.2.75.73.73,0,0,1-.88.11.84.84,0,0,1-.26-.81.87.87,0,0,1,.53-.67,1.27,1.27,0,0,1,.94,0,1,1,0,0,1,.55.58,1.57,1.57,0,0,1-.31,1.62,2.47,2.47,0,0,1-.93.43c-.13.05-.29.12-.31.27s0,.11.07.13,0,0,.06,0,0,0,0,0c0-.23.37-.24.36,0a.41.41,0,0,1-.53.35.49.49,0,0,1-.34-.59c.12-.57.85-.53,1.24-.8a1.14,1.14,0,0,0,.33-1.25.62.62,0,0,0-.43-.44.89.89,0,0,0-.71.13.57.57,0,0,0-.14.71.29.29,0,0,0,.35.07c.09,0,.24-.17.09-.22s-.13-.43.09-.35Z"/><path class="cls-25" d="M117.43,69.3a.45.45,0,0,0,.19-.76.7.7,0,0,0-.87-.1.81.81,0,0,0-.27.81.85.85,0,0,0,.53.66,1.28,1.28,0,0,0,.94,0,1,1,0,0,0,.55-.58,1.55,1.55,0,0,0-.3-1.61,2.61,2.61,0,0,0-.94-.44c-.13,0-.28-.12-.3-.27s0-.11.06-.13h.07s0,0,0,0a.18.18,0,1,0,.36,0,.39.39,0,0,0-.52-.34.49.49,0,0,0-.35.59c.12.57.85.53,1.24.79a1.14,1.14,0,0,1,.33,1.25.58.58,0,0,1-.43.44.85.85,0,0,1-.71-.13.55.55,0,0,1-.13-.7.29.29,0,0,1,.34-.08c.09,0,.24.17.09.22a.19.19,0,0,0,.1.36Z"/><path class="cls-25" d="M120,69.3a.45.45,0,0,1-.19-.76.7.7,0,0,1,.87-.1.81.81,0,0,1,.27.81.85.85,0,0,1-.53.66,1.3,1.3,0,0,1-1,0,1,1,0,0,1-.54-.58,1.55,1.55,0,0,1,.3-1.61,2.53,2.53,0,0,1,.94-.44c.12,0,.28-.12.3-.27s0-.11-.06-.13h-.07s0,0,0,0c0,.24-.38.24-.37,0a.4.4,0,0,1,.53-.34.47.47,0,0,1,.34.59c-.11.57-.84.53-1.23.79a1.15,1.15,0,0,0-.34,1.25.62.62,0,0,0,.43.44.88.88,0,0,0,.72-.13.55.55,0,0,0,.13-.7.3.3,0,0,0-.35-.08c-.08,0-.24.17-.08.22s.13.43-.1.36Z"/><path class="cls-25" d="M120,71a.45.45,0,0,0-.19.76.7.7,0,0,0,.87.1A.81.81,0,0,0,121,71a.85.85,0,0,0-.53-.66,1.3,1.3,0,0,0-1,0,1,1,0,0,0-.54.58,1.55,1.55,0,0,0,.3,1.61,2.7,2.7,0,0,0,.94.44c.12,0,.28.12.3.27a.1.1,0,0,1-.06.13h-.07s0,0,0,0c0-.24-.38-.24-.37,0a.4.4,0,0,0,.53.34.47.47,0,0,0,.34-.59c-.11-.57-.84-.53-1.23-.79a1.15,1.15,0,0,1-.34-1.25.62.62,0,0,1,.43-.44.88.88,0,0,1,.72.13.55.55,0,0,1,.13.7.3.3,0,0,1-.35.08c-.08,0-.24-.17-.08-.22s.13-.43-.1-.36Z"/><path class="cls-25" d="M117.43,71a.45.45,0,0,1,.19.76.7.7,0,0,1-.87.1.81.81,0,0,1-.27-.81.85.85,0,0,1,.53-.66,1.28,1.28,0,0,1,.94,0,1,1,0,0,1,.55.58,1.55,1.55,0,0,1-.3,1.61,2.79,2.79,0,0,1-.94.44c-.13,0-.28.12-.3.27a.1.1,0,0,0,.06.13h.07s0,0,0,0a.18.18,0,1,1,.36,0,.39.39,0,0,1-.52.34.49.49,0,0,1-.35-.59c.12-.57.85-.53,1.24-.79a1.14,1.14,0,0,0,.33-1.25.58.58,0,0,0-.43-.44.85.85,0,0,0-.71.13.55.55,0,0,0-.13.7.29.29,0,0,0,.34.08c.09,0,.24-.17.09-.22s-.13-.43.1-.36Z"/><path class="cls-25" d="M144.85,69.3a.45.45,0,0,0,.2-.76.71.71,0,0,0-.88-.1.81.81,0,0,0-.26.81.86.86,0,0,0,.52.66,1.3,1.3,0,0,0,.95,0,1,1,0,0,0,.55-.58,1.56,1.56,0,0,0-.31-1.61,2.46,2.46,0,0,0-.94-.44c-.12,0-.28-.12-.3-.27s0-.11.06-.13h.07s0,0,0,0c0,.24.38.24.37,0a.4.4,0,0,0-.53-.34.47.47,0,0,0-.34.59c.12.57.84.53,1.23.79a1.13,1.13,0,0,1,.34,1.25.62.62,0,0,1-.43.44.85.85,0,0,1-.71-.13.56.56,0,0,1-.14-.7.31.31,0,0,1,.35-.08c.09,0,.24.17.09.22s-.13.43.09.36Z"/><path class="cls-25" d="M147.44,69.3a.45.45,0,0,1-.19-.76.69.69,0,0,1,.87-.1.81.81,0,0,1,.26.81.86.86,0,0,1-.52.66,1.3,1.3,0,0,1-1,0,1,1,0,0,1-.54-.58,1.53,1.53,0,0,1,.3-1.61,2.46,2.46,0,0,1,.94-.44c.12,0,.28-.12.3-.27s0-.11-.06-.13h-.07s0,0,0,0c0,.24-.38.24-.37,0a.4.4,0,0,1,.53-.34.47.47,0,0,1,.34.59c-.12.57-.84.53-1.23.79a1.13,1.13,0,0,0-.34,1.25.62.62,0,0,0,.43.44.85.85,0,0,0,.71-.13.56.56,0,0,0,.14-.7.31.31,0,0,0-.35-.08c-.09,0-.24.17-.08.22s.12.43-.1.36Z"/><path class="cls-25" d="M147.44,71a.45.45,0,0,0-.19.76.69.69,0,0,0,.87.1.81.81,0,0,0,.26-.81.86.86,0,0,0-.52-.66,1.3,1.3,0,0,0-1,0,1,1,0,0,0-.54.58,1.53,1.53,0,0,0,.3,1.61,2.62,2.62,0,0,0,.94.44c.12,0,.28.12.3.27a.1.1,0,0,1-.06.13h-.07s0,0,0,0c0-.24-.38-.24-.37,0a.4.4,0,0,0,.53.34.47.47,0,0,0,.34-.59c-.12-.57-.84-.53-1.23-.79a1.13,1.13,0,0,1-.34-1.25.62.62,0,0,1,.43-.44.85.85,0,0,1,.71.13.56.56,0,0,1,.14.7.31.31,0,0,1-.35.08c-.09,0-.24-.17-.08-.22s.12-.43-.1-.36Z"/><path class="cls-25" d="M144.85,71a.45.45,0,0,1,.2.76.71.71,0,0,1-.88.1.81.81,0,0,1-.26-.81.86.86,0,0,1,.52-.66,1.3,1.3,0,0,1,.95,0,1,1,0,0,1,.55.58,1.56,1.56,0,0,1-.31,1.61,2.62,2.62,0,0,1-.94.44c-.12,0-.28.12-.3.27s0,.1.06.13h.07s0,0,0,0c0-.24.38-.24.37,0a.4.4,0,0,1-.53.34.47.47,0,0,1-.34-.59c.12-.57.84-.53,1.23-.79a1.13,1.13,0,0,0,.34-1.25.62.62,0,0,0-.43-.44.85.85,0,0,0-.71.13.56.56,0,0,0-.14.7.31.31,0,0,0,.35.08c.09,0,.24-.17.09-.22s-.13-.43.09-.36Z"/><path class="cls-25" d="M120.59,59.43a.44.44,0,0,0,.52-.58.71.71,0,0,0-.73-.49.81.81,0,0,0-.61.59.88.88,0,0,0,.16.84,1.35,1.35,0,0,0,.82.47,1,1,0,0,0,.75-.26,1.57,1.57,0,0,0,.48-1.58,2.65,2.65,0,0,0-.63-.82c-.09-.09-.2-.24-.15-.38a.1.1,0,0,1,.12-.08l.06,0s0,0,0,0c-.1.22.22.39.32.17a.4.4,0,0,0-.31-.55.49.49,0,0,0-.58.37c-.15.56.51.86.74,1.27a1.13,1.13,0,0,1-.28,1.26.63.63,0,0,1-.59.2.88.88,0,0,1-.57-.44.56.56,0,0,1,.21-.69.28.28,0,0,1,.34.09c.06.07.13.26,0,.23s-.31.32-.07.36Z"/><path class="cls-25" d="M122.88,60.62a.44.44,0,0,1,.18-.75.7.7,0,0,1,.82.3.83.83,0,0,1-.14.85.87.87,0,0,1-.77.34,1.22,1.22,0,0,1-.86-.4,1,1,0,0,1-.22-.76,1.57,1.57,0,0,1,1-1.3,2.56,2.56,0,0,1,1,.05c.13,0,.31,0,.39-.1a.11.11,0,0,0,0-.15l-.06,0s0,0,0,0c-.12.2-.45,0-.33-.17a.39.39,0,0,1,.63-.06.48.48,0,0,1,0,.68c-.37.45-1,.08-1.46.13a1.13,1.13,0,0,0-.87,1,.62.62,0,0,0,.17.59.93.93,0,0,0,.7.21.55.55,0,0,0,.44-.56.28.28,0,0,0-.27-.23c-.1,0-.29,0-.18.16s-.08.43-.25.26Z"/><path class="cls-25" d="M122.11,62.1a.45.45,0,0,0-.52.59.71.71,0,0,0,.73.49.81.81,0,0,0,.61-.6.87.87,0,0,0-.16-.83,1.3,1.3,0,0,0-.82-.47,1,1,0,0,0-.75.26,1.57,1.57,0,0,0-.48,1.58,2.61,2.61,0,0,0,.63.81c.09.1.2.24.15.38s0,.1-.12.09,0,0-.06,0,0,0,0,0c.1-.22-.22-.39-.32-.17a.4.4,0,0,0,.31.55.48.48,0,0,0,.57-.37c.16-.56-.5-.86-.73-1.27a1.15,1.15,0,0,1,.28-1.27.63.63,0,0,1,.58-.19.87.87,0,0,1,.58.44.56.56,0,0,1-.21.69.28.28,0,0,1-.34-.09c-.06-.07-.13-.26,0-.24s.31-.32.07-.36Z"/><path class="cls-25" d="M119.82,60.91a.45.45,0,0,1-.18.76.71.71,0,0,1-.82-.31.81.81,0,0,1,.14-.84.88.88,0,0,1,.77-.35,1.28,1.28,0,0,1,.86.41,1,1,0,0,1,.22.76,1.56,1.56,0,0,1-1,1.29,2.56,2.56,0,0,1-1,0c-.13,0-.31,0-.39.1s-.05.09,0,.14,0,0,.06,0,0,0,0,0c.12-.2.45,0,.33.17a.4.4,0,0,1-.63.06.48.48,0,0,1,0-.68c.36-.45,1-.08,1.46-.13a1.13,1.13,0,0,0,.87-1,.61.61,0,0,0-.17-.59.86.86,0,0,0-.7-.21.55.55,0,0,0-.44.56.29.29,0,0,0,.27.23c.1,0,.29,0,.18-.16s.08-.44.25-.27Z"/><path class="cls-25" d="M128.19,53.17a.44.44,0,0,0,.77-.08.72.72,0,0,0-.2-.86.81.81,0,0,0-.85,0,.85.85,0,0,0-.44.73,1.28,1.28,0,0,0,.29.9,1,1,0,0,0,.74.3,1.55,1.55,0,0,0,1.4-.85,2.55,2.55,0,0,0,.08-1c0-.13,0-.31.15-.38s.1,0,.14,0a.11.11,0,0,1,0,.06s0,0,0,0c-.22.09-.09.44.13.35a.41.41,0,0,0,.14-.62.48.48,0,0,0-.68-.11c-.49.31-.2,1-.3,1.43a1.16,1.16,0,0,1-1.06.76.61.61,0,0,1-.56-.25.87.87,0,0,1-.13-.72.56.56,0,0,1,.61-.37.3.3,0,0,1,.19.3c0,.1-.07.28-.17.16s-.45,0-.3.21Z"/><path class="cls-25" d="M129.1,55.59a.44.44,0,0,1,.64-.44.71.71,0,0,1,.4.78.81.81,0,0,1-.66.53.85.85,0,0,1-.81-.26,1.28,1.28,0,0,1-.37-.87.94.94,0,0,1,.35-.71,1.56,1.56,0,0,1,1.62-.29,2.71,2.71,0,0,1,.74.73c.08.1.21.22.35.18s.1,0,.11-.1,0,0,0-.07,0,0,0,0c-.22.08-.35-.27-.13-.34a.4.4,0,0,1,.51.37.48.48,0,0,1-.43.53c-.58.09-.79-.6-1.18-.88a1.14,1.14,0,0,0-1.29.13.6.6,0,0,0-.26.55A.92.92,0,0,0,129,56a.56.56,0,0,0,.71-.13.29.29,0,0,0-.05-.35c-.07-.07-.24-.16-.24,0s-.35.27-.36,0Z"/><path class="cls-25" d="M127.54,56.18a.45.45,0,0,0-.78.08.71.71,0,0,0,.21.86.81.81,0,0,0,.85,0,.87.87,0,0,0,.44-.73,1.29,1.29,0,0,0-.3-.9.94.94,0,0,0-.73-.3,1.56,1.56,0,0,0-1.41.85,2.55,2.55,0,0,0-.07,1,.43.43,0,0,1-.15.38.12.12,0,0,1-.15,0s0,0,0-.06,0,0,0,0c.21-.1.09-.44-.13-.35a.4.4,0,0,0-.14.62.47.47,0,0,0,.67.11c.49-.31.2-1,.31-1.43a1.16,1.16,0,0,1,1.06-.76.61.61,0,0,1,.56.25.91.91,0,0,1,.13.72.57.57,0,0,1-.62.37.3.3,0,0,1-.19-.3c0-.1.08-.29.18-.16s.44,0,.3-.21Z"/><path class="cls-25" d="M126.63,53.76a.44.44,0,0,1-.64.44.71.71,0,0,1-.41-.78.84.84,0,0,1,.67-.53.85.85,0,0,1,.81.26,1.28,1.28,0,0,1,.37.87,1,1,0,0,1-.35.71,1.56,1.56,0,0,1-1.62.29,2.57,2.57,0,0,1-.74-.73c-.09-.1-.21-.22-.36-.19s-.1,0-.1.11,0,0,0,.06,0,0,0,0c.22-.08.35.27.13.34a.4.4,0,0,1-.51-.37.48.48,0,0,1,.43-.53c.57-.09.79.6,1.17.88a1.14,1.14,0,0,0,1.29-.13.58.58,0,0,0,.26-.55.85.85,0,0,0-.37-.63.54.54,0,0,0-.7.13.29.29,0,0,0,0,.35c.06.07.24.16.23,0s.36-.27.37,0Z"/><path class="cls-25" d="M144.5,59.43a.44.44,0,0,1-.52-.58.7.7,0,0,1,.73-.49.81.81,0,0,1,.61.59.88.88,0,0,1-.16.84,1.34,1.34,0,0,1-.83.47,1,1,0,0,1-.75-.26,1.59,1.59,0,0,1-.47-1.58,2.65,2.65,0,0,1,.63-.82c.09-.09.2-.24.14-.38s0-.09-.11-.08l-.07,0s0,0,0,0c.1.22-.22.39-.32.17a.4.4,0,0,1,.31-.55.48.48,0,0,1,.57.37c.16.56-.5.86-.73,1.27a1.13,1.13,0,0,0,.28,1.26.62.62,0,0,0,.58.2.87.87,0,0,0,.58-.44.56.56,0,0,0-.21-.69.28.28,0,0,0-.34.09c-.06.07-.14.26,0,.23s.31.32.07.36Z"/><path class="cls-25" d="M142.21,60.62a.44.44,0,0,0-.18-.75.7.7,0,0,0-.82.3.85.85,0,0,0,.13.85.9.9,0,0,0,.78.34A1.24,1.24,0,0,0,143,61a1,1,0,0,0,.21-.76,1.56,1.56,0,0,0-1-1.3,2.55,2.55,0,0,0-1,.05c-.13,0-.31,0-.39-.1a.11.11,0,0,1,0-.15l.06,0s0,0,0,0c.12.2.44,0,.33-.17a.39.39,0,0,0-.63-.06.48.48,0,0,0,0,.68c.36.45,1,.08,1.46.13a1.13,1.13,0,0,1,.87,1,.6.6,0,0,1-.18.59A.91.91,0,0,1,142,61a.55.55,0,0,1-.44-.56.28.28,0,0,1,.27-.23c.1,0,.29,0,.18.16s.08.43.25.26Z"/><path class="cls-25" d="M143,62.1a.45.45,0,0,1,.52.59.69.69,0,0,1-.72.49.8.8,0,0,1-.61-.6.87.87,0,0,1,.16-.83,1.3,1.3,0,0,1,.82-.47,1,1,0,0,1,.75.26,1.57,1.57,0,0,1,.48,1.58,2.64,2.64,0,0,1-.64.81.4.4,0,0,0-.14.38c0,.06,0,.1.12.09s0,0,.06,0,0,0,0,0c-.1-.22.23-.39.33-.17a.4.4,0,0,1-.31.55.49.49,0,0,1-.58-.37c-.15-.56.51-.86.73-1.27a1.13,1.13,0,0,0-.27-1.27.65.65,0,0,0-.59-.19.88.88,0,0,0-.57.44.55.55,0,0,0,.2.69.29.29,0,0,0,.35-.09c.06-.07.13-.26,0-.24s-.31-.32-.08-.36Z"/><path class="cls-25" d="M145.27,60.91a.45.45,0,0,0,.18.76.71.71,0,0,0,.82-.31.81.81,0,0,0-.14-.84.88.88,0,0,0-.77-.35,1.28,1.28,0,0,0-.86.41,1,1,0,0,0-.22.76,1.54,1.54,0,0,0,1,1.29,2.56,2.56,0,0,0,1,0,.4.4,0,0,1,.39.1c0,.05.05.09,0,.14s0,0-.06,0,0,0,0,0c-.11-.2-.44,0-.32.17a.4.4,0,0,0,.63.06.48.48,0,0,0,0-.68c-.37-.45-1-.08-1.46-.13a1.15,1.15,0,0,1-.88-1,.61.61,0,0,1,.18-.59.86.86,0,0,1,.7-.21.55.55,0,0,1,.44.56.29.29,0,0,1-.28.23c-.09,0-.29,0-.17-.16s-.08-.44-.25-.27Z"/><path class="cls-25" d="M136.9,53.17a.45.45,0,0,1-.78-.08.73.73,0,0,1,.21-.86.81.81,0,0,1,.85,0,.87.87,0,0,1,.44.73,1.25,1.25,0,0,1-.3.9.94.94,0,0,1-.73.3,1.55,1.55,0,0,1-1.4-.85,2.55,2.55,0,0,1-.08-1c0-.13,0-.31-.15-.38s-.1,0-.14,0,0,0,0,.06,0,0,0,0c.22.09.09.44-.13.35a.41.41,0,0,1-.14-.62.47.47,0,0,1,.67-.11c.5.31.2,1,.31,1.43a1.16,1.16,0,0,0,1.06.76.61.61,0,0,0,.56-.25.87.87,0,0,0,.13-.72.56.56,0,0,0-.61-.37.28.28,0,0,0-.19.3c0,.1.07.28.17.16s.45,0,.3.21Z"/><path class="cls-25" d="M136,55.59a.44.44,0,0,0-.64-.44.69.69,0,0,0-.4.78.81.81,0,0,0,.66.53.85.85,0,0,0,.81-.26,1.28,1.28,0,0,0,.37-.87,1,1,0,0,0-.35-.71,1.56,1.56,0,0,0-1.62-.29,2.57,2.57,0,0,0-.74.73c-.08.1-.21.22-.36.18s-.1,0-.1-.1,0,0,0-.07,0,0,0,0c.22.08.35-.27.13-.34a.4.4,0,0,0-.51.37.48.48,0,0,0,.43.53c.57.09.79-.6,1.17-.88a1.14,1.14,0,0,1,1.29.13.61.61,0,0,1,.27.55.92.92,0,0,1-.37.63.56.56,0,0,1-.71-.13.29.29,0,0,1,0-.35c.06-.07.24-.16.24,0s.35.27.36,0Z"/><path class="cls-25" d="M137.55,56.18a.45.45,0,0,1,.78.08.73.73,0,0,1-.21.86.81.81,0,0,1-.85,0,.87.87,0,0,1-.44-.73,1.25,1.25,0,0,1,.3-.9.94.94,0,0,1,.73-.3,1.55,1.55,0,0,1,1.4.85,2.55,2.55,0,0,1,.08,1,.43.43,0,0,0,.15.38s.1,0,.14,0,0,0,0-.06,0,0,0,0c-.22-.1-.09-.44.13-.35a.41.41,0,0,1,.14.62.48.48,0,0,1-.68.11c-.49-.31-.19-1-.3-1.43a1.16,1.16,0,0,0-1.06-.76.61.61,0,0,0-.56.25.87.87,0,0,0-.13.72.56.56,0,0,0,.61.37.28.28,0,0,0,.19-.3c0-.1-.07-.29-.17-.16s-.45,0-.3-.21Z"/><path class="cls-25" d="M138.46,53.76a.44.44,0,0,0,.64.44.71.71,0,0,0,.4-.78.81.81,0,0,0-.66-.53.85.85,0,0,0-.81.26,1.28,1.28,0,0,0-.37.87,1,1,0,0,0,.35.71,1.56,1.56,0,0,0,1.62.29,2.71,2.71,0,0,0,.74-.73.4.4,0,0,1,.36-.19c.05,0,.1,0,.1.11s0,0,0,.06,0,0,0,0c-.22-.08-.35.27-.13.34a.4.4,0,0,0,.51-.37.48.48,0,0,0-.43-.53c-.57-.09-.79.6-1.18.88a1.14,1.14,0,0,1-1.29-.13.63.63,0,0,1-.26-.55.92.92,0,0,1,.37-.63.56.56,0,0,1,.71.13.29.29,0,0,1-.05.35c-.06.07-.24.16-.24,0a.18.18,0,0,0-.36,0Z"/></g><path class="cls-26" d="M118.11,95.15a.77.77,0,0,1-.17-.38.62.62,0,0,1,.43-.57,1.94,1.94,0,0,1,.76,0c0-.41-.42-.68-.74-.94s-.59-.74-.33-1.06c.15.21.5,0,.48-.29s-.22-.45-.36-.66a1.57,1.57,0,0,1-.1-1.57c.12-.25.31-.46.43-.71a3.75,3.75,0,0,0,.18-1.74,1.84,1.84,0,0,1,.56-1.6,55.24,55.24,0,0,1,2.64,6.82,10.55,10.55,0,0,0,1,2.51,3.34,3.34,0,0,0,2.1,1.53c-1.12.48-2.08,0-3.19-.09C120.36,96.27,119.07,96.5,118.11,95.15Z"/><path class="cls-26" d="M146.41,95.15a.87.87,0,0,0,.17-.38.61.61,0,0,0-.44-.57,1.93,1.93,0,0,0-.76,0c0-.41.42-.68.74-.94s.6-.74.34-1.06c-.16.21-.51,0-.49-.29a1.46,1.46,0,0,1,.37-.66,1.57,1.57,0,0,0,.1-1.57c-.13-.25-.32-.46-.44-.71a3.75,3.75,0,0,1-.17-1.74,1.9,1.9,0,0,0-.56-1.6,55.29,55.29,0,0,0-2.65,6.82,10.15,10.15,0,0,1-1,2.51,3.32,3.32,0,0,1-2.09,1.53c1.11.48,2.08,0,3.19-.09C144.15,96.27,145.44,96.5,146.41,95.15Z"/><path class="cls-27" d="M121,76.62c.21,3.58.57,7.24,2.17,10.44s4.73,5.76,8.3,6c4.72.26,9.8-4.92,10.77-7.43.08.35.39.89.48,1.24a.17.17,0,0,0,.33,0,17.83,17.83,0,0,1-7.19,8.58,13.61,13.61,0,0,1-11,1.4,8.24,8.24,0,0,1-2.44-1.23c-2.44-1.86-3.13-5.22-3.25-8.29-.09-2.4-.15-4.81-.19-7.21a90,90,0,0,1,.19-9c.09-1.4.63-.92.66-.7.08.7.22-.82.48-1.6.15-.43.52-.35.49.12A71.18,71.18,0,0,0,121,76.62Z"/><path class="cls-27" d="M144.15,76.39A42.46,42.46,0,0,1,143,82.51a30.26,30.26,0,0,1-1.54,5.15c-2.11,4.84-8.59,9.09-13.83,9.72,2.51,1.28,6.88,1.82,9.46.7A15.86,15.86,0,0,0,146,88.43a38,38,0,0,0,.81-8.32A67.69,67.69,0,0,0,146.29,70c-.23-1.36-.8-1-.85-.33-.72-2.13-1-.9-.93.33C144.56,72,144.25,75.14,144.15,76.39Z"/><path class="cls-28" d="M137.53,95.81a4.36,4.36,0,0,0,1.2-.69,17.3,17.3,0,0,0,6.76-11.56,9.38,9.38,0,0,1-.81,1.74,12.74,12.74,0,0,0,.38-2.62c-.16.44-.64,2.2-.74,2.61a22.08,22.08,0,0,1-1,2.94,18.86,18.86,0,0,1-3.23,5.24A15.84,15.84,0,0,1,137.53,95.81Z"/><path class="cls-28" d="M120.7,84.27c1,4.1,3.26,8.09,7,10.1a1.52,1.52,0,0,1-1.36-.25,12.83,12.83,0,0,1-2.92-2.26,3.84,3.84,0,0,0,1.09,1.71c-.1.13-.3.06-.43,0a7,7,0,0,1-2.3-3c-2.14-4.51-2.26-9.68-2.22-14.67a32.51,32.51,0,0,1,.24-4.41l.18.32c-.08-.14.16-.34.29-.2s-.08.42-.08.5c-.07.59-.06,1.19-.09,1.78,0,1.15-.08,2.3-.07,3.45A30.92,30.92,0,0,0,120.7,84.27Z"/><path class="cls-29" d="M108.57,178.2a6.76,6.76,0,0,1-2.09,1.49"/><path class="cls-29" d="M108.61,177.29a7.67,7.67,0,0,1-1.93,1.19"/><path class="cls-29" d="M108.39,176.32a6.3,6.3,0,0,1-2,1.29"/><path class="cls-29" d="M108,175.78a7.37,7.37,0,0,1-1.36.85"/><path class="cls-29" d="M108.18,174.83a9.63,9.63,0,0,1-1.69,1.14"/><path class="cls-29" d="M159.9,213.87a4.58,4.58,0,0,0,.07,1.33,1,1,0,0,0,.38.62"/><path class="cls-29" d="M158.86,213.47a6.1,6.1,0,0,0,0,1.21.64.64,0,0,0,.28.55"/><path class="cls-29" d="M157.68,213.19a2.93,2.93,0,0,0,.17,1.73"/><path class="cls-29" d="M156.2,212.61a3.94,3.94,0,0,0,.06,1.53.67.67,0,0,0,.17.36.26.26,0,0,0,.35,0"/><path class="cls-29" d="M154.63,212a5.8,5.8,0,0,0,.16,1.61c0,.18.14.39.32.39"/><path class="cls-29" d="M153.76,212.11a3.24,3.24,0,0,0,0,1.24c0,.17.08.35.24.41"/><path class="cls-29" d="M152.7,211.1v1.76a.69.69,0,0,0,0,.32.3.3,0,0,0,.22.2"/><path class="cls-29" d="M151.58,210.74a18.57,18.57,0,0,0,.25,1.95"/><path class="cls-29" d="M150.5,210.28a4,4,0,0,0,.26,2"/><path class="cls-29" d="M149.53,209.63c0,.66,0,1.32,0,2"/><path class="cls-29" d="M149.14,209.27l-.29,1.83"/><path class="cls-29" d="M147.64,209a9.32,9.32,0,0,0-.33,2"/><path class="cls-29" d="M143.44,206.94c-.14.53-.56,1-.62,1.52a1.69,1.69,0,0,0,.16.88"/><path class="cls-29" d="M146.4,208.23l-.05,1.15a1.06,1.06,0,0,1-.21.68"/><path class="cls-29" d="M144.88,207.46a1,1,0,0,0-.41.44.32.32,0,0,0,0,.27c.05.14.22.19.31.3a.42.42,0,0,1-.05.49,1.06,1.06,0,0,1-.43.29"/><path class="cls-29" d="M142.37,206.83a4.17,4.17,0,0,0-.21,1.4"/><path class="cls-29" d="M141.34,206.47a6.33,6.33,0,0,0-.26,1c0,.15,0,.35.11.43"/><path class="cls-29" d="M139.94,206.22a3.08,3.08,0,0,0,.11,1.62"/><path class="cls-29" d="M138.89,205.36a9.07,9.07,0,0,0-.08,1.28.52.52,0,0,0,.19.48"/><path class="cls-29" d="M137.88,204.71c0,.33-.14.65-.19,1a1.36,1.36,0,0,0,.15,1"/><path class="cls-29" d="M136.61,204.46a4.36,4.36,0,0,1-.19.94,1.29,1.29,0,0,0,.09.93"/><path class="cls-29" d="M135.76,203.53a6,6,0,0,1-.27,1.07,1.7,1.7,0,0,0,0,1.09"/><path class="cls-29" d="M134.71,203.48c-.24.73-1,1.23-1.08,2"/><path class="cls-29" d="M133.11,202.63a.92.92,0,0,0-.28.53c0,.17,0,.35,0,.53-.08.43-.5.71-.88.94"/><path class="cls-29" d="M131.89,202.25c-.21-.06-.42.14-.47.35a2.42,2.42,0,0,0,0,.66.63.63,0,0,1-.25.57"/><path class="cls-29" d="M130.53,201.59c-.48.38-.59,1.14-1.13,1.42"/><path class="cls-29" d="M129.28,201.25c-.45.24-.43,1-.89,1.22"/><path class="cls-29" d="M128.51,200.51c-.29.6-.55,1.21-.8,1.83"/><path class="cls-29" d="M127.72,200l-.64,1.65c0,.08-.07.19,0,.27a.38.38,0,0,0,.18-.12"/><path class="cls-29" d="M127.09,199.62l-.61,1.92"/><path class="cls-29" d="M126.29,199.26c-.27.64-.52,1.3-.74,2"/><path class="cls-29" d="M125.39,199l-.71,2.06s0,.05,0,.07.06,0,0,0"/><path class="cls-29" d="M124.74,198.93c-.27.68-.54,1.35-.79,2a.11.11,0,0,0,0,.08s.06,0,.07,0"/><path class="cls-29" d="M124.28,198.54l-.86,2"/><path class="cls-29" d="M123.64,197.89l-.82,2.4"/><path class="cls-29" d="M122.87,198c-.27.77-.56,1.54-.87,2.29l.16-.06"/><path class="cls-29" d="M122.23,197.28l-.84,2.47"/><path class="cls-29" d="M121.63,197c-.25.92-.55,1.83-.89,2.72"/><path class="cls-29" d="M120.83,196.92l-.83,2.34c0,.06,0,.16,0,.17"/><path class="cls-29" d="M120.4,196.46l-.72,1.83a.89.89,0,0,0-.09.39"/><path class="cls-29" d="M119.9,195.81c-.33.76-.64,1.54-.92,2.32"/><path class="cls-29" d="M119.51,195.52a23.16,23.16,0,0,0-.83,2.29"/><path class="cls-29" d="M118.67,195.23a15.94,15.94,0,0,0-.75,2.34"/><path class="cls-29" d="M118.17,194.8a17.09,17.09,0,0,0-.76,1.69"/><path class="cls-29" d="M117.59,194.22a10,10,0,0,0-1,2.13"/><path class="cls-29" d="M116.71,193.8a1.08,1.08,0,0,1-.24.52l-.72,1.05"/><path class="cls-29" d="M116.35,193.19a15.29,15.29,0,0,0-1.36,2"/><path class="cls-29" d="M115.59,192.68l-1.3,2"/><path class="cls-29" d="M114.87,192.07a8.82,8.82,0,0,1-1.5,2"/><path class="cls-29" d="M114.41,191.29c-.34.51-.69,1-1.06,1.49"/><path class="cls-29" d="M113.77,191.05a3.27,3.27,0,0,0-.65,1"/><path class="cls-29" d="M113.36,190.28a6.36,6.36,0,0,0-1.1,1.27"/><path class="cls-29" d="M112.56,189.34a10.78,10.78,0,0,0-1.67,1.77"/><path class="cls-29" d="M112.18,188.77a.86.86,0,0,1-.29.6c-.38.4-.77.77-1.18,1.13"/><path class="cls-29" d="M111.68,188.16a11.86,11.86,0,0,1-1.44,1.48"/><path class="cls-29" d="M111.31,187.51c0,.15-.08.28-.2.37l-1.23.93"/><path class="cls-29" d="M110.89,187.16l-1.22.83"/><path class="cls-29" d="M110.65,186.48a4.1,4.1,0,0,1-1.28,1.1"/><path class="cls-29" d="M110.42,186.24c-.42,0-.67.49-1.06.65"/><path class="cls-29" d="M110,185.29a.6.6,0,0,1-.23.45,2.57,2.57,0,0,1-.89.59"/><path class="cls-29" d="M109.7,184.64a2.84,2.84,0,0,0-1,1.11"/><path class="cls-29" d="M109.58,183.65c-.52.3-1,.63-1.51,1"/><path class="cls-29" d="M109.41,182.2a5.57,5.57,0,0,1-1.9,1.36"/><path class="cls-29" d="M109.19,181.69a4.11,4.11,0,0,1-1.28.95"/><path class="cls-29" d="M108.9,180.72l-1.14,1.05"/><path class="cls-29" d="M108.87,180a13.53,13.53,0,0,1-1.47,1.15"/><path class="cls-29" d="M108.66,179.22l-1.55,1.26"/><path class="cls-29" d="M108.18,173.92l-1.69,1"/><path class="cls-29" d="M108.09,172.86l-1.27.8"/><path class="cls-29" d="M108.14,172.06a5.36,5.36,0,0,0-1,.56"/><path class="cls-29" d="M108.18,171.26a3.9,3.9,0,0,1-2.15,1,.09.09,0,0,1,.12,0,.19.19,0,0,1-.14.26"/><path class="cls-29" d="M107.86,170.32l-1.51.85"/><path class="cls-29" d="M108,169.65a7.37,7.37,0,0,1-1,.62"/><path class="cls-29" d="M108.14,168.85a5.25,5.25,0,0,1-1.18.66"/><path class="cls-29" d="M108.14,168.05a7,7,0,0,1-1.61.94"/><path class="cls-29" d="M108.09,167.25l-2.07.85"/><path class="cls-29" d="M108.2,166.34a17.78,17.78,0,0,1-2.61,1.14"/></svg>