<svg id="Layer_1" data-name="Layer 1" xmlns="http://www.w3.org/2000/svg" xmlns:xlink="http://www.w3.org/1999/xlink" viewBox="0 0 331 438"><defs><style>.cls-1,.cls-11,.cls-17,.cls-8{fill:none;}.cls-2{clip-path:url(#clip-path);}.cls-3{fill:#7541ee;}.cls-4{fill:#fff;}.cls-5{fill:#4a1b28;}.cls-6{fill:#3b1520;}.cls-7{fill:#a62017;}.cls-8{stroke:#a67684;stroke-linecap:round;stroke-width:4.19px;}.cls-11,.cls-17,.cls-8{stroke-miterlimit:10;}.cls-9{fill:#c6b377;}.cls-10{clip-path:url(#clip-path-2);}.cls-11{stroke:#998650;stroke-width:2.03px;}.cls-12{fill:#f2ddb5;}.cls-13{fill:#e0d7c3;}.cls-14{fill:#f9efde;}.cls-15{fill:#f2e8d7;}.cls-16{opacity:0.68;}.cls-17{stroke:#8f8f8f;stroke-width:1.35px;}.cls-18{fill:#a88080;}.cls-19{fill:#7a7a7a;}.cls-20{fill:#3b3b3b;}.cls-21{fill:#a8a8a8;}.cls-22{fill:#8f8f8f;}.cls-23{clip-path:url(#clip-path-3);}.cls-24{fill:#a67684;}.cls-25{fill:#632536;}.cls-26{fill:#7d3248;}.cls-27{fill:#6c283b;}</style><clipPath id="clip-path"><rect class="cls-1" width="331" height="438"/></clipPath><clipPath id="clip-path-2"><path class="cls-1" d="M114.14,404a192.31,192.31,0,0,0,106.06-7.11c5.23-1.9,10.58-4.06,16.13-3.71,10.45.66,18.25,9.93,22.95,19.28,5.82,11.59,8.91,24.32,12,36.93l8.81,36.44c10.18,42.12,20.42,84.63,21.58,128-27.57-8.81-54.21-20.26-80.81-31.68l-53.6-23c-14.34-6.16-28.79-12.38-41.65-21.24s-24.17-20.64-29.89-35.16c-6.08-15.44-5.43-32.55-6.16-49.13a115.42,115.42,0,0,0-3.18-24.13c-1.52-5.83-6.88-13.2-6.17-19.2C82,394.89,105,402,114.14,404Z"/></clipPath><clipPath id="clip-path-3"><path class="cls-1" d="M114.1,182c3.88-15.07,4.22-30.8,6.44-46.21s5.13-31.28,15.63-42.77a49.53,49.53,0,0,1,26.74-15.08c16.54-3.27,36.14,4.53,44.92,18.93a56.4,56.4,0,0,1,7.89,24.3c2.45,23.4,4.63,48,14,69.58,10.8,24.9,30.53,41.36,46.37,63.4-10.44-5.57-33-26.82-47.28-31.79-1.81-.64-3.34-.46-7.38-1.68-12.74-3.84-9.89,18.72-22.77,16.38-2.6-.48,14-78.94,6.09-117.63-.78-3.81-1.4-7.26-2.71-10.19a43.26,43.26,0,0,0-6.93-11A30.87,30.87,0,0,0,183,89.76a30.41,30.41,0,0,0-17.2-1.66,38.39,38.39,0,0,0-11,4.21c-5.13,2.88-9.42,6.77-14.33,11.93-25.59,26.93.6,135.81-2.65,136.38-6.72,1.18-12.88-22.35-21.23-20-3.65,1-9.92,2.16-14.43,3-8.42,1.49-12.73,27.64-19.8,27.44-3.76-.11-13.56,4.36-12.9-.51.63-4.68,6.27-12,9.51-14.62a103.2,103.2,0,0,0,26.42-31.72A98.44,98.44,0,0,0,114.1,182Z"/></clipPath></defs><g class="cls-2"><rect class="cls-3" width="331" height="438"/><path class="cls-4" d="M280.05,485.8q-4.41-18.23-8.81-36.44c-2.59-10.71-5.23-21.51-9.53-31.62,4.1-2.43,8.27-4.76,12.41-7.06C279,408,284,405.22,289.48,404c1.82-.42,3.9-.81,4.84-2.33,1.2-1.95-.27-4.5.49-6.63s3.15-3,4.72-4.55c2.64-2.63,2.61-6.68,2.3-10.28-1.29-15.29-2.94-31.36-6.19-46.4-4.36-20.16-9-39-13.32-59.12a184,184,0,0,0-10.18-31.85c-1.65-3.92-10-12.74-13.36-11.69,0,0,0,0,0,.06-.13-.16-.23-.34-.37-.49a9.39,9.39,0,0,0-3.18-2.14C245.39,217,236,205.3,229.71,190.75c-9.36-21.59-11.54-46.18-14-69.58a56.4,56.4,0,0,0-7.89-24.3c-8.78-14.4-28.38-22.2-44.92-18.93A49.53,49.53,0,0,0,136.17,93c-10.5,11.49-13.42,27.36-15.63,42.77S118,166.93,114.1,182a98.44,98.44,0,0,1-8.71,22.19,103.12,103.12,0,0,1-16,22.09c-1.76.47-3.51,1-5.23,1.62a11.61,11.61,0,0,0-4.76,2.77C76,229.55,68,239,66.34,243.09,61.87,254,57,265.16,54.71,276.66c-4.36,21.52-6.54,43.38-10.9,64.9-3.25,16.06-6.51,32.16-7.81,48.49-.3,3.84-.33,8.16,2.31,11,1.57,1.66,4,2.68,4.72,4.85s-.71,5,.49,7.08c.93,1.62,3,2.05,4.84,2.49,5.51,1.35,10.48,4.29,15.36,7.18,7.08,4.21,14.23,8.53,21,13.31-1.74,7.34-3.18,14.76-4.37,22.21-4.61,28.69-6,57.8-10.43,86.51-2.52,16.29-6,32.47-11.64,48,24.93,15.05,55.41,16.74,84.51,18q33.71,1.47,67.41,2.89c27.86,1.18,56,2.25,83.46-2.45,2.66.91,5.31,1.81,8,2.66C300.47,570.43,290.23,527.92,280.05,485.8ZM103.21,401.57c-.14-.18-.26-.37-.4-.55,1.24.42,2.49.81,3.73,1.21C105.46,402,104.35,401.77,103.21,401.57Z"/><path class="cls-4" d="M297.55,626.51c-1.15-.37-2.32-.74-3.47-1.13l-1.57-.52-1.64.24A304.41,304.41,0,0,1,246.63,628c-12.8,0-25.11-.52-37-1L142.19,624c-27.78-1.21-62.35-2.71-90.85-19.93l-9.41-5.68,3.73-10.34c4.72-13.07,8.22-27.53,11-45.49,2.11-13.63,3.48-27.12,4.94-41.41,1.52-14.87,3.07-30.11,5.49-45.18.52-3.22,1.07-6.39,1.65-9.41l.88-4.7-4.06-2.52c-3-1.86-6.09-3.69-8.69-5.24-4-2.35-8.09-4.8-11.72-5.69-3.09-.75-9.5-2.31-13.25-8.8a16.89,16.89,0,0,1-2.1-6.24l-.29-2.1-1.41-1.59C21.59,402.37,22.33,393,22.65,389c1.36-17.13,4.74-33.84,8-50,2.13-10.52,3.69-20.89,5.35-31.87s3.33-22,5.57-33.13C44,262.07,48.76,250.55,53,240.39L54,238c1.73-4.2,9.62-16.74,19.77-20.07l.64-.21.59-.33a31.63,31.63,0,0,1,4.63-2.08l2.51-.89L83.34,213A90.4,90.4,0,0,0,93.6,197.85a86.53,86.53,0,0,0,7.53-19.19c2.28-8.86,3.22-18.21,4.22-28.1.56-5.47,1.12-11.07,1.92-16.67,2.51-17.47,6-35.71,19-49.91a63,63,0,0,1,34-19.18,54.43,54.43,0,0,1,10.41-1c19.84,0,38.89,10.24,48.56,26.09A70,70,0,0,1,229,119.77l.37,3.54c2.22,21.38,4.52,43.49,12.59,62.11,4.85,11.19,11.87,20.66,20.92,31.44l1.13,1.36,1.65.65c9.26,3.64,16.81,14,18.8,18.75a197.16,197.16,0,0,1,10.91,34.19c2.18,10.06,4.44,19.88,6.62,29.39s4.5,19.54,6.71,29.73c3.43,15.91,5.12,32.52,6.44,48.1.31,3.55,1.11,13-5.51,20.19l-1.38,1.51-.35,2a16.47,16.47,0,0,1-2.21,5.9c-3.85,6.23-10.26,7.68-13,8.3a39.46,39.46,0,0,0-9.54,4l-4.93,2.67,1.56,5.38c1.74,6,3.17,11.93,4.44,17.18l8.81,36.44c10.2,42.19,20.75,85.81,21.95,130.75l.51,18.86Z"/><path class="cls-5" d="M114.1,182c3.88-15.07,4.22-30.8,6.44-46.21s5.13-31.28,15.63-42.77a49.53,49.53,0,0,1,26.74-15.08c16.54-3.27,36.14,4.53,44.92,18.93a56.4,56.4,0,0,1,7.89,24.3c2.45,23.4,4.63,48,14,69.58,10.8,24.9,30.53,41.36,46.37,63.4-11.78-6.28-25.66-6.83-39-7.24-16.62-.51-31.62-11.48-48.22-10.54-15.84.89-25.89,2.07-41.72,3.07C128,240.66,101.51,251.59,82.36,251c-3.76-.11-13.56,4.36-12.9-.51.63-4.68,6.27-12,9.51-14.62a103.2,103.2,0,0,0,26.42-31.72A98.44,98.44,0,0,0,114.1,182Z"/><rect class="cls-6" x="126.31" y="214.29" width="81.69" height="207.73"/><path class="cls-7" d="M142.79,203.33C134.3,272,127.51,342.17,140,410.13c-20.11-2.85-39.14-9.15-58-17-.88-.37-10.19,2.14-9.74,1.26C61,370.91,64,340.06,64,313.71s5-52.52,12.74-77.56a14,14,0,0,1,2.63-5.48,11.61,11.61,0,0,1,4.76-2.77c10.07-3.67,20.88-4.31,31.23-7S137.54,213.19,142.79,203.33Z"/><path class="cls-5" d="M58.26,592.65c24.93,15.05,55.41,16.74,84.51,18q33.71,1.47,67.41,2.89c29.4,1.25,59.13,2.45,88-3.2-16.54-67-33.15-134.24-57.44-198.86-1-2.67-2.12-5.47-4.4-7.18s-5.27-2-8.1-2.21c-35.81-2.87-30.75,10.86-99,6.18-6.44-.45-21.58-6.65-27.69-4.47-7.77,2.76-8.86,5.18-11.39,12.71a259.46,259.46,0,0,0-9.85,41.63c-4.61,28.69-6,57.8-10.43,86.51C67.38,560.94,63.87,577.12,58.26,592.65Z"/><path class="cls-8" d="M142.79,203.33S122.43,341.08,140,410.13"/><path class="cls-7" d="M195.05,203.33c8.49,68.67,15.28,138.84,2.75,206.8,20.12-2.85,39.15-9.15,58.06-17,.88-.37,10.19,2.14,9.74,1.26,11.22-23.5,8.25-54.35,8.19-80.7s-5-52.52-12.74-77.56a13.89,13.89,0,0,0-2.63-5.48,11.58,11.58,0,0,0-4.75-2.77c-10.08-3.67-20.88-4.31-31.23-7S200.3,213.19,195.05,203.33Z"/><path class="cls-8" d="M195.05,203.33s20.36,137.75,2.75,206.8"/><path class="cls-9" d="M114.14,404a192.31,192.31,0,0,0,106.06-7.11c5.23-1.9,10.58-4.06,16.13-3.71,10.45.66,18.25,9.93,22.95,19.28,5.82,11.59,8.91,24.32,12,36.93l8.81,36.44c10.18,42.12,20.42,84.63,21.58,128-27.57-8.81-54.21-20.26-80.81-31.68l-53.6-23c-14.34-6.16-28.79-12.38-41.65-21.24s-24.17-20.64-29.89-35.16c-6.08-15.44-5.43-32.55-6.16-49.13a115.42,115.42,0,0,0-3.18-24.13c-1.52-5.83-6.88-13.2-6.17-19.2C82,394.89,105,402,114.14,404Z"/><g class="cls-10"><path class="cls-11" d="M91.89,400.22c11.41,11,11.66,28.89,11.76,44.77.18,27.9,3.15,58,21.42,79,14.69,16.94,36.77,25.15,57.87,32.7l133.17,47.68"/><path class="cls-11" d="M100.43,397.45c12.17,14,14.46,33.84,15.24,52.37s.84,38,9.89,54.18c10,17.8,29,28.37,47.8,36.37,46.91,20,97.74,29.76,144.27,50.62"/><path class="cls-11" d="M115.3,400.64a144.17,144.17,0,0,1,12.82,44.76c1.78,15.19,1.21,31,6.93,45.17,7,17.42,22.79,30.05,39.83,38s35.61,11.79,53.72,16.8c31.43,8.69,61.76,20.89,92,33"/><path class="cls-11" d="M127.66,401.85c10.33,16.25,12.77,36.08,16.34,55s9.26,38.79,23.81,51.39c5.46,4.73,11.9,8.16,18.43,11.24A218.39,218.39,0,0,0,223.1,532.9c31,8.23,64.27,9.77,92.78,24.48"/><path class="cls-11" d="M138.94,402.51a68.09,68.09,0,0,1,15.31,25.29c3.45,10.25,4.4,21.18,7.39,31.58a84,84,0,0,0,30.75,44.11c17.2,12.63,38.5,18.17,59.42,22.41s42.33,7.54,61.66,16.58"/><path class="cls-11" d="M152.68,400.83c10.13,9.19,15.15,22.64,19,35.77s6.89,26.8,14.35,38.26c12.67,19.5,35.82,29.41,58.37,35.1s46.15,8.39,67.14,18.39"/><path class="cls-11" d="M168.71,399.75a68.93,68.93,0,0,1,17.7,26.13c3.52,9.24,5,19.16,8.57,28.38C203.56,476.48,224.1,493,247,499.42,266.2,504.8,287,503.8,305.49,511"/><path class="cls-11" d="M185,400.42c9.66,6,15.58,16.42,20,26.89s7.71,21.52,14.07,30.92c8.91,13.2,23.06,22,37.78,28.09s30.95,9.76,46.41,6.21"/><path class="cls-11" d="M197.83,394.61c8.35,4.07,14.57,11.54,19.34,19.51s8.34,16.6,13,24.63c6.82,11.7,16.08,22.13,27.52,29.38s25.14,11.21,38.64,10.13"/><path class="cls-11" d="M219,389.8c11.39,11.74,18.85,26.64,28.09,40.14s21.37,26.31,37.26,30.22"/></g><path class="cls-12" d="M185.84,438.38a13.83,13.83,0,0,0-2.3,3.43c-1.42,2.67-2.78,5.36-4.14,8.05a50.89,50.89,0,0,0-4.49,11c-.69,2.9-.87,5.91-1.59,8.81-1.32,5.25-4.43,10-5.17,15.37-.26,1.82-.17,3.85,1,5.24a4,4,0,0,0,3.87,1.25c1.59-.37,2.77-1.66,3.85-2.89,2.32-2.64,4.69-5.36,5.84-8.68a14.79,14.79,0,0,1,3.14-6.42,26,26,0,0,0,2.33-5.15c1.41-3.81,2.81-7.61,4-11.47,1.58-5,2.9-10.11,2.69-15.31-.06-1.32-.19-8.15-2-8-.79.06-2.58,1.89-3.36,2.33A17.06,17.06,0,0,0,185.84,438.38Z"/><path class="cls-12" d="M187.5,472.55a2.68,2.68,0,0,0,.9,4.23l-1.2-.35c-1.15,1.58-1.17,3.73-2.13,5.43-1.37,2.42-4.41,3.56-5.62,6.06-.89,1.82-.59,4-.28,6L178,491a1.41,1.41,0,0,0-.5-.75,1.5,1.5,0,0,0-1.36.1l-2.6,1.09c-1.09.46-2.32,1.08-2.56,2.23a2.15,2.15,0,0,0-1.28-1.89,6.39,6.39,0,0,0-2.34-.48,41.14,41.14,0,0,0-9.92.17,6.22,6.22,0,0,0-2.79,1,2.61,2.61,0,0,0-1.06,2.64c3.66,2.32,8.38,2.07,12.39,3.71a22.38,22.38,0,0,0,4.19,1.65c2.15.39,4.33-.37,6.51-.5,2.77-.16,5.63.72,8.28-.09,3.66-1.12,5.62-4.95,8.14-7.83,3.26-3.75,7.93-6.24,10.59-10.44,3.16-5,2.88-11.32,3.54-17.2a84.27,84.27,0,0,1,3-13.66,2.27,2.27,0,0,0,.1-1.45,2.41,2.41,0,0,0-.52-.71l-8.64-9.11c-1.69-1.78-3.54-3.66-6-4.13a2.58,2.58,0,0,0-1.38,0,2.9,2.9,0,0,0-1.22,1.06,22.91,22.91,0,0,0-3.08,6.18,66.71,66.71,0,0,0-3.94,25.08c0,.86.17,1.7.21,2.56C185.83,471.55,185.78,472.72,187.5,472.55Z"/><path class="cls-4" d="M197.33,93.45a52.75,52.75,0,0,1,17.08,28.31,80.55,80.55,0,0,1,1.32,17.48c-.14,17-1.91,34.07-6.3,50.5-.86,3.21-1.91,6.56-4.36,8.8-3.79,3.47-10.08,3.11-14.25.09s-6.43-8.08-7.3-13.15-.5-10.25-.42-15.39A157.16,157.16,0,0,0,178,129.43c-1.19-4.72-2.61-9.48-5.33-13.51a29.08,29.08,0,0,0-12.44-10c-2.59-1.14-5.41-2-7.36-4.11-2.82-3-3-7.66-2.11-11.68.71-3.12,1.31-2.44,3.6-4.69,5.84-5.76,15.39-6.42,22-4.06A64.47,64.47,0,0,1,197.33,93.45Z"/><path class="cls-4" d="M145.81,183.31c-2-2.51-5.92-3-8.73-1.43a9.88,9.88,0,0,0-4.71,7.94,16.69,16.69,0,0,0,2.35,9.18,20.75,20.75,0,0,0,11.84,10.06,10.11,10.11,0,0,0,7.07-.15,8.61,8.61,0,0,0,4.61-7.93,13.39,13.39,0,0,0-3.84-8.68c-2.81-3-6.52-5-9.69-7.64"/><path class="cls-13" d="M148.94,210.17c3,8.46,11.53,14.38,20.47,15.07s17.91-3.47,23.89-10.16c5-5.59,8-12.75,9.51-20.1a20.19,20.19,0,0,1-4.69-14.72c-.37,4.14-19.48,8.73-22.83,9.4-8.58,1.72-16.64,1-25.21.23C149.69,196.86,151.65,203,148.94,210.17Z"/><path class="cls-14" d="M207.24,148.7q-.94,10.32-1.91,20.61c-.35,3.81-.72,7.69-2.23,11.2-2.37,5.44-17.19,22.84-32.57,22.69-9.58-.09-19.52-2.28-26.37-9-8.88-8.75-12-21.63-14.72-33.8-1.18-5.24-2.36-10.62-1.58-15.93.35-2.5,1.14-4.91,1.53-7.4.52-3.49.27-7,.4-10.54a42.9,42.9,0,0,1,3.27-15h0a36.39,36.39,0,0,1,7.71-11.63A31.32,31.32,0,0,1,154,92.07a39.3,39.3,0,0,1,16.45-1.26,43,43,0,0,1,10.23,2.58c4.87,1.89,9.87,4,13.34,7.93,7.6,8.57,11.22,18.78,15.93,29.23,1.08,2.4-1.18,7.9-.55,10.47S207.48,146.15,207.24,148.7Z"/><path class="cls-15" d="M169.44,191.37c-2.56,2.18-1.89,8,.82,10.6.31.3.15.84.27,1.23a33.53,33.53,0,0,1-26.37-9c-8.88-8.75-12-21.63-14.72-33.8-1.18-5.24-2.36-10.62-1.58-15.93.35-2.5,1.14-4.91,1.53-7.4.52-3.49.27-7,.4-10.54a42.9,42.9,0,0,1,3.27-15h0a50.18,50.18,0,0,1,12.19-13.71A54.39,54.39,0,0,1,154,92.07a39.56,39.56,0,0,1,17.23-4.72c-.28,1.15-.53,2.3-.78,3.46-2.89,13.53-5.44,26.58-4.13,40.36.17,1.84,2.12,4.62,1.92,6.45-.12,1.16-.41,2.29-.47,3.46-.11,2.06-.69,3.32-.43,5.37a18.88,18.88,0,0,1-1.94,10.23c-.62,1.33-.81,4.86.59,5.31a23,23,0,0,0,3.05.65c1.66,0,2.42.53,2.44,2.19a12.33,12.33,0,0,1-1.37,4.75,6.91,6.91,0,0,0-.57,4.84c.38,1.05,1.22,2.09.87,3.14a13,13,0,0,0-.65,1.36,2.56,2.56,0,0,0,.41,1.54C171.9,184,171.46,189.65,169.44,191.37Z"/><path class="cls-4" d="M143.13,111.66C132.82,122,129,138.28,126.7,152.74c-1.24-14.05-1.09-30.05,4.72-42.9S149,86.19,163,84.43c3-.37,8.4-.19,10.07,2.91,1.87,3.43-5,6.76-7.54,8.48C157.91,100.91,149.63,105.13,143.13,111.66Z"/><g class="cls-16"><path class="cls-17" d="M125.49,139.61A109.82,109.82,0,0,1,132,124.15c3-5.82,6.58-11.44,11.37-15.92a58.67,58.67,0,0,1,5.7-4.59c4.61-3.32,9.46-6.28,14.31-9.25,5.09-3.1,10.32-6.27,16.17-7.36"/><path class="cls-17" d="M175.57,85.48c-11.82,5.57-23.83,11.27-33.51,20a66.6,66.6,0,0,0-20.19,35"/><path class="cls-17" d="M203.25,110.23a42.74,42.74,0,0,0,2.93,22.57,63.16,63.16,0,0,1,2.9,7c1.32,4.53.83,9.37.34,14.07l-1.37,12.89a69.7,69.7,0,0,1-2.55,14.44c-1.52,4.66-3.22,6.42-5.93,8.41"/></g><path class="cls-4" d="M193.33,111.66c10.32,10.38,14.16,26.62,16.43,41.08,1.24-14.05,1.1-30.05-4.72-42.9s-17.53-23.65-31.53-25.41c-2.94-.37-8.39-.19-10.07,2.91-1.87,3.43,5,6.76,7.54,8.48C178.55,100.91,186.84,105.13,193.33,111.66Z"/><g class="cls-16"><path class="cls-17" d="M211,139.61a109.82,109.82,0,0,0-6.53-15.46c-3-5.82-6.58-11.44-11.36-15.92a60,60,0,0,0-5.71-4.59c-4.61-3.32-9.46-6.28-14.31-9.25-5.08-3.1-10.31-6.27-16.17-7.36"/><path class="cls-17" d="M160.89,85.48c11.82,5.57,23.83,11.27,33.51,20a66.6,66.6,0,0,1,20.19,35"/></g><path class="cls-18" d="M171.64,177.79l-3.27-2.94s-1.27-1.25-1.35-1.27a15,15,0,0,0-2.32,0c-.2.08-6.51,4-7,3.91a35.9,35.9,0,0,1-3.58-2.43l-1.4,2.82,5.36.05Z"/><path class="cls-18" d="M166.46,177.79l3.47-2.94s1.35-1.25,1.44-1.27a16.94,16.94,0,0,1,2.47,0c.2.08,6.56,3.76,7.06,3.64a40.06,40.06,0,0,0,3.65-2l1.36,2.59-5.07.11Z"/><path class="cls-19" d="M177.91,129.27A21.81,21.81,0,0,1,198.65,131c0-1.42-2.32-3.06-3.55-3.76-4.67-2.66-10-2.74-15.33-2.31a5.54,5.54,0,0,0-3.93,1.66C174.33,128.47,175.19,130.51,177.91,129.27Z"/><path class="cls-20" d="M185.88,138.92a2,2,0,0,0,.81.69,2.25,2.25,0,0,0,.93.12,2.72,2.72,0,0,0,.94-.15,2.65,2.65,0,0,0,1.51-2,2.14,2.14,0,0,0-.7-2.32,3.73,3.73,0,0,0-3.35.06A2.78,2.78,0,0,0,185.88,138.92Z"/><path class="cls-21" d="M181.84,132.52a6.1,6.1,0,0,0-3,4.28c-.08,1,.67,1.36,1.55,1.15a24,24,0,0,0,3-1.15,15.17,15.17,0,0,1,6.7-1.06,11.62,11.62,0,0,1,3.57,1,16,16,0,0,1,3,1.73,9.66,9.66,0,0,0-6.23-3.84,17.53,17.53,0,0,0-7.33.7c.95-1.81,4.4-3,6.2-3a11.07,11.07,0,0,1,5.26,1.5c.75.35,1.7.13,1.45-.57-.45-1.3-5.12-2.67-7.62-2.67A11.77,11.77,0,0,0,181.84,132.52Z"/><path class="cls-21" d="M200.51,142.3a3.91,3.91,0,0,0-1.45-2.05,2.52,2.52,0,0,1,2,.82c-.88-.75-2.58-1.95-3.77-1,.33.27.91.27,1.32.43A4.82,4.82,0,0,1,200.51,142.3Z"/><path class="cls-21" d="M191.46,177.54c.61-2.09,1.63-6.67-2.72-9.55A10.92,10.92,0,0,1,191.46,177.54Z"/><path class="cls-21" d="M193.11,171.39a7.84,7.84,0,0,0-.4-2.56,2.48,2.48,0,0,0-1.84-1.65C192.57,168.29,192.68,169.84,193.11,171.39Z"/><path class="cls-19" d="M161.22,129.27A21.83,21.83,0,0,0,140.47,131c0-1.42,2.5-3.14,3.73-3.84,4.68-2.66,9.86-2.66,15.16-2.23a6.27,6.27,0,0,1,3.93,1.66C165,128.29,163.94,130.51,161.22,129.27Z"/><path class="cls-20" d="M152.15,138.92a2,2,0,0,1-.8.69,2.3,2.3,0,0,1-.94.12A2.37,2.37,0,0,1,148,137.6a2.14,2.14,0,0,1,.71-2.32,3.71,3.71,0,0,1,3.34.06A2.76,2.76,0,0,1,152.15,138.92Z"/><path class="cls-21" d="M157.29,132.52a6.13,6.13,0,0,1,3,4.28c.08,1-.67,1.36-1.55,1.15a24.8,24.8,0,0,1-3-1.15,15.1,15.1,0,0,0-6.69-1.06,11.62,11.62,0,0,0-3.57,1,15.72,15.72,0,0,0-3,1.73,9.55,9.55,0,0,1,6.11-3.95c2.37-.36,5.5.33,7.81,1a6.92,6.92,0,0,0-5.85-3.19,13.76,13.76,0,0,0-6,1.49c-.67.32-1.61,0-1.46-.57s2.86-2.45,7.63-2.67A11,11,0,0,1,157.29,132.52Z"/><path class="cls-21" d="M138.61,142.3a3.87,3.87,0,0,1,1.46-2.05,2.51,2.51,0,0,0-2,.82c.88-.75,2.58-1.95,3.77-1-.34.27-.91.27-1.32.43A4.91,4.91,0,0,0,138.61,142.3Z"/><path class="cls-21" d="M147.67,177.54c-1.65-6,1.47-9,2.72-9.55A12.1,12.1,0,0,0,147.67,177.54Z"/><path class="cls-21" d="M146,171.39a7.12,7.12,0,0,1,.4-2.56,2.66,2.66,0,0,1,1.84-1.65A6,6,0,0,0,146,171.39Z"/><path class="cls-22" d="M166.6,131a18.56,18.56,0,0,1,2.27,4.49,8.85,8.85,0,0,1,.43,2.64,6.53,6.53,0,0,1-.64,2.7,9.55,9.55,0,0,0-.82,2,4.54,4.54,0,0,0,.23,2,14,14,0,0,1,.54,2.57,12.79,12.79,0,0,1-.07,2.7c-.46,3.54-2,6.53-2.66,9.52a3,3,0,0,0-.11.53s.06.17.3.37a4,4,0,0,0,1.59.92,5.44,5.44,0,0,0,4.11-.39l.47.49a5.24,5.24,0,0,1-5,2.06,5.59,5.59,0,0,1-2.79-1.15,3.17,3.17,0,0,1-1.16-1.54,3.4,3.4,0,0,1,.05-1.89c.83-3.37,2.31-6.31,2.82-9.27a10.07,10.07,0,0,0,.14-2.18,12.41,12.41,0,0,0-.35-2.24,6.44,6.44,0,0,1-.08-2.89A10,10,0,0,1,167,140a5.82,5.82,0,0,0,.57-4.19,22.79,22.79,0,0,0-1.58-4.5Z"/><path class="cls-5" d="M66.34,243.09C61.87,254,57,265.16,54.71,276.66c-4.36,21.52-6.54,43.38-10.9,64.9-3.25,16.06-6.51,32.16-7.81,48.49-.3,3.84-.33,8.16,2.31,11,1.57,1.66,4,2.68,4.72,4.85s-.71,5,.49,7.08c.93,1.62,3,2.05,4.84,2.49,5.51,1.35,10.48,4.29,15.36,7.18,16.48,9.78,33.49,20.05,44.35,35.83,4.45,6.47,9.15,14.62,17,14.91,5.2.19,9.7-3.35,13.69-6.69l12-10c2.81-2.37,5.9-6.18,3.88-9.26-1.29-2-4-2.3-6.27-2.82-7.54-1.71-13.54-7.24-19-12.75a318.94,318.94,0,0,1-33.44-40.19c-2.55-3.64-5.08-7.38-8.52-10.19s-8-4.57-12.36-3.56a62.64,62.64,0,0,0,.14-13.69c-1.94-26.89-8.16-53.65-6-80.52,1-12.47,3.83-24.72,7.38-36.7.74-2.5,3.23-11.15,2.84-16.29C76,229.55,68,239,66.34,243.09Z"/><path class="cls-5" d="M272.14,242.79a184,184,0,0,1,10.18,31.85c4.36,20.16,9,39,13.32,59.12,3.25,15,4.9,31.11,6.19,46.4.31,3.6.34,7.65-2.3,10.28-1.57,1.56-4,2.51-4.72,4.55s.71,4.68-.49,6.63c-.94,1.52-3,1.91-4.84,2.33-5.51,1.27-10.48,4-15.36,6.73-16.48,9.16-33.49,18.77-44.35,33.56-4.45,6.06-9.15,13.69-17,14-5.2.18-9.71-3.13-13.69-6.26l-12-9.4c-2.82-2.22-3.74-5.15-3.88-8.67-.18-4.45,11.35-14.06,16.76-19.23,12.23-11.66,47-39.92,50.43-42.55s8-4.28,12.36-3.33a55,55,0,0,1-.14-12.83c1.93-25.18,8.16-50.25,6-75.42-1-11.69-3.83-23.16-7.38-34.38a97,97,0,0,1-2.49-15C262.16,230.05,270.49,238.87,272.14,242.79Z"/><path class="cls-5" d="M138.62,106.69c5.85-8.49,20.27-20.36,35.16-19.09a32.3,32.3,0,0,1,20.58,9.74A40.77,40.77,0,0,1,204.49,118c.82,4.39,1,8.93,2.55,13.14.67,1.86,2.13,3.93,4.07,3.58.86-.16,2.83,32.88,3.26,32.12,4-7.23,1.52-39.14,1.37-42.18-.45-9.13-4-18.28-9-25.94a46.13,46.13,0,0,0-20.44-17.49,37.39,37.39,0,0,0-26.66-1.08A57,57,0,0,0,147.8,86.4a43.86,43.86,0,0,0-9.56,7.73c-2.81,3.24-4.72,7.15-6.53,11a71.24,71.24,0,0,0-3.13,7.51c-2.18,6.5-9,23.73-7.77,30.48.17,1,5,1.15,5.64,1.88,2.91,3.28,4.26-11.68,4.27-13.08a44.21,44.21,0,0,1,.94-8.89A45.19,45.19,0,0,1,138.62,106.69Z"/><g class="cls-23"><path class="cls-24" d="M108.78,206.46a1.82,1.82,0,0,0,1.27-2.93,2.89,2.89,0,0,0-3.45-1,3.36,3.36,0,0,0-1.61,3.1,3.59,3.59,0,0,0,1.7,3,5.21,5.21,0,0,0,3.8.77,4,4,0,0,0,2.57-2c1.13-1.91,1.26-4.92-.17-6.72-.93-1.18-2.23-1.65-3.5-2.37-.47-.26-1.06-.68-1-1.29,0-.24.08-.43.33-.49s.16,0,.28,0,.08.14.1,0c-.12,1,1.36,1.2,1.48.24a1.63,1.63,0,0,0-1.91-1.73,2,2,0,0,0-1.77,2.15c.1,2.38,3.06,2.69,4.47,4s1.34,3.67.54,5.27a2.52,2.52,0,0,1-2,1.5,3.57,3.57,0,0,1-2.8-1,2.3,2.3,0,0,1-.08-2.94,1.18,1.18,0,0,1,1.45-.06c.33.19.86.83.2.93-1,.15-.8,1.64.16,1.5Z"/><path class="cls-24" d="M119.22,208.14a1.82,1.82,0,0,1-.29-3.17,2.92,2.92,0,0,1,3.6.14,3.36,3.36,0,0,1,.54,3.45,3.57,3.57,0,0,1-2.56,2.35,5.26,5.26,0,0,1-3.85-.47,4,4,0,0,1-1.82-2.69,6.39,6.39,0,0,1,2.28-6.33c1.26-.83,2.64-.86,4.07-1.14.53-.1,1.22-.31,1.39-.9.07-.23.07-.43-.16-.57s-.15,0-.27-.07-.11.11-.08-.05c-.19.94-1.67.71-1.48-.24a1.62,1.62,0,0,1,2.35-1,2,2,0,0,1,1,2.61c-.85,2.21-3.76,1.58-5.51,2.39s-2.43,3.06-2.17,4.83a2.52,2.52,0,0,0,1.44,2.06,3.62,3.62,0,0,0,3,0,2.31,2.31,0,0,0,1-2.77,1.2,1.2,0,0,0-1.36-.52c-.38.08-1.08.52-.49.83.86.44.24,1.81-.62,1.36Z"/><path class="cls-24" d="M118.13,214.87a1.82,1.82,0,0,0-1.27,2.93,2.9,2.9,0,0,0,3.45,1,3.34,3.34,0,0,0,1.61-3.1,3.55,3.55,0,0,0-1.7-3,5.17,5.17,0,0,0-3.79-.77,4,4,0,0,0-2.58,2c-1.13,1.91-1.26,4.92.17,6.72.94,1.18,2.24,1.65,3.5,2.37.48.26,1.06.68,1,1.29,0,.24-.07.42-.33.49s-.15,0-.28,0-.08-.14-.1,0c.12-1-1.36-1.2-1.48-.24a1.64,1.64,0,0,0,1.91,1.73,2,2,0,0,0,1.77-2.15c-.1-2.38-3.06-2.69-4.47-4s-1.34-3.67-.54-5.27a2.52,2.52,0,0,1,2-1.5,3.57,3.57,0,0,1,2.8,1,2.3,2.3,0,0,1,.09,2.94,1.2,1.2,0,0,1-1.46.06c-.33-.19-.86-.83-.2-.93.95-.15.8-1.64-.16-1.5Z"/><path class="cls-24" d="M107.69,213.19a1.81,1.81,0,0,1,.29,3.17,2.9,2.9,0,0,1-3.59-.14,3.34,3.34,0,0,1-.55-3.45,3.59,3.59,0,0,1,2.57-2.35,5.24,5.24,0,0,1,3.84.47,4,4,0,0,1,1.82,2.69c.47,2.17-.35,5.06-2.27,6.32-1.27.84-2.65.87-4.08,1.15-.53.1-1.21.31-1.39.9a.44.44,0,0,0,.16.57c.11.07.15,0,.27.07s.12-.11.08,0c.19-.94,1.68-.71,1.49.24a1.63,1.63,0,0,1-2.36,1.05,2,2,0,0,1-1-2.61c.84-2.21,3.75-1.58,5.5-2.39s2.43-3.06,2.18-4.83A2.51,2.51,0,0,0,109.2,212a3.62,3.62,0,0,0-3,.05,2.31,2.31,0,0,0-1,2.77,1.22,1.22,0,0,0,1.37.52c.37-.08,1.07-.52.48-.83-.86-.44-.24-1.81.62-1.36Z"/><path class="cls-24" d="M219.06,209.05a1.82,1.82,0,0,0-.2-3.18,2.9,2.9,0,0,0-3.53.68,3.37,3.37,0,0,0,0,3.49A3.57,3.57,0,0,0,218.2,212a5.23,5.23,0,0,0,3.73-1,4,4,0,0,0,1.4-2.94c.13-2.21-1.13-5-3.21-5.9a10.32,10.32,0,0,0-4.2-.51c-.55,0-1.25-.13-1.52-.68a.45.45,0,0,1,.08-.59c.09-.08.14-.05.25-.12s.13.1.08-.06c.33.91,1.76.45,1.43-.46a1.63,1.63,0,0,0-2.49-.67,2,2,0,0,0-.6,2.72c1.17,2.07,3.95,1,5.8,1.53s2.87,2.66,2.89,4.45a2.5,2.5,0,0,1-1.12,2.25,3.55,3.55,0,0,1-2.94.4,2.3,2.3,0,0,1-1.42-2.58,1.21,1.21,0,0,1,1.27-.72c.38,0,1.15.35.6.74-.78.57,0,1.83.83,1.26Z"/><path class="cls-24" d="M229.12,205.79a1.81,1.81,0,0,1-1.7-2.69,2.9,2.9,0,0,1,3.26-1.51,3.34,3.34,0,0,1,2.06,2.82,3.57,3.57,0,0,1-1.22,3.26,5.23,5.23,0,0,1-3.63,1.33,4,4,0,0,1-2.85-1.56c-1.4-1.72-2-4.67-.85-6.67.74-1.31,2-2,3.1-2.87.43-.34.94-.83.83-1.44,0-.24-.14-.41-.4-.43s-.15,0-.28.05-.05.15-.09,0c.26.93-1.17,1.39-1.43.46a1.62,1.62,0,0,1,1.62-2,2,2,0,0,1,2.08,1.86c.26,2.36-2.62,3.12-3.81,4.63s-.77,3.84.26,5.3a2.51,2.51,0,0,0,2.23,1.17,3.58,3.58,0,0,0,2.62-1.4,2.31,2.31,0,0,0-.36-2.92,1.21,1.21,0,0,0-1.46.16c-.29.24-.72.95,0,.95,1,0,1,1.51.07,1.5Z"/><path class="cls-24" d="M231.22,212.28a1.81,1.81,0,0,0,.19,3.18,2.9,2.9,0,0,0,3.53-.68,3.32,3.32,0,0,0,0-3.49,3.54,3.54,0,0,0-2.89-1.93,5.25,5.25,0,0,0-3.73,1,4,4,0,0,0-1.39,2.94c-.14,2.21,1.12,4.95,3.21,5.9,1.37.63,2.74.46,4.2.51.54,0,1.25.13,1.51.68a.45.45,0,0,1-.07.59c-.1.08-.15,0-.26.12s-.13-.1-.07.06c-.33-.91-1.76-.45-1.43.46a1.63,1.63,0,0,0,2.49.67,2,2,0,0,0,.59-2.72c-1.17-2.07-4-1-5.8-1.53s-2.87-2.66-2.88-4.45a2.49,2.49,0,0,1,1.11-2.25,3.57,3.57,0,0,1,2.95-.4,2.3,2.3,0,0,1,1.41,2.58,1.21,1.21,0,0,1-1.27.72c-.38,0-1.14-.35-.6-.74.78-.57,0-1.83-.82-1.26Z"/><path class="cls-24" d="M221.16,215.54a1.81,1.81,0,0,1,1.7,2.69,2.92,2.92,0,0,1-3.27,1.51,3.37,3.37,0,0,1-2.06-2.82,3.59,3.59,0,0,1,1.22-3.26,5.24,5.24,0,0,1,3.64-1.33,4,4,0,0,1,2.84,1.56,6.38,6.38,0,0,1,.86,6.67c-.75,1.31-2,2-3.11,2.87-.42.34-.94.83-.83,1.44,0,.24.14.41.4.43s.16,0,.28-.05,0-.15.1,0c-.27-.93,1.16-1.39,1.43-.46a1.63,1.63,0,0,1-1.63,2,2,2,0,0,1-2.08-1.86c-.25-2.36,2.62-3.12,3.81-4.63s.77-3.84-.26-5.3a2.51,2.51,0,0,0-2.23-1.17,3.58,3.58,0,0,0-2.61,1.4,2.3,2.3,0,0,0,.36,2.92,1.2,1.2,0,0,0,1.45-.16c.3-.24.72-1,.05-1-1,0-1-1.5-.06-1.49Z"/><path class="cls-24" d="M116.52,172.4a1.42,1.42,0,0,0,.62-2.41,2.27,2.27,0,0,0-2.79-.34,2.61,2.61,0,0,0-.85,2.59,2.8,2.8,0,0,0,1.68,2.14,4.07,4.07,0,0,0,3,.11,3.1,3.1,0,0,0,1.74-1.84,5,5,0,0,0-1-5.17,8.19,8.19,0,0,0-3-1.39c-.4-.15-.9-.39-1-.87,0-.19,0-.34.2-.42s.12,0,.22,0,.07.1.06,0c0,.75,1.21.76,1.18,0a1.27,1.27,0,0,0-1.69-1.1,1.52,1.52,0,0,0-1.1,1.88c.38,1.82,2.7,1.69,4,2.53a3.67,3.67,0,0,1,1.08,4,2,2,0,0,1-1.38,1.41,2.82,2.82,0,0,1-2.28-.41,1.8,1.8,0,0,1-.43-2.27.94.94,0,0,1,1.11-.23c.28.11.77.54.27.7-.71.23-.41,1.37.31,1.13Z"/><path class="cls-24" d="M124.79,172.4a1.41,1.41,0,0,1-.61-2.41,2.27,2.27,0,0,1,2.79-.34,2.63,2.63,0,0,1,.85,2.59,2.83,2.83,0,0,1-1.69,2.14,4.07,4.07,0,0,1-3,.11,3.13,3.13,0,0,1-1.74-1.84,5,5,0,0,1,1-5.17,8.08,8.08,0,0,1,3-1.39c.4-.15.9-.39,1-.87,0-.19,0-.34-.19-.42s-.12,0-.22,0-.07.1-.07,0c0,.75-1.2.76-1.17,0a1.27,1.27,0,0,1,1.69-1.1,1.54,1.54,0,0,1,1.1,1.88c-.38,1.82-2.7,1.69-4,2.53a3.65,3.65,0,0,0-1.08,4,2,2,0,0,0,1.37,1.41,2.85,2.85,0,0,0,2.29-.41,1.82,1.82,0,0,0,.43-2.27,1,1,0,0,0-1.12-.23c-.28.11-.76.54-.27.7.72.23.41,1.37-.31,1.13Z"/><path class="cls-24" d="M124.79,177.74a1.41,1.41,0,0,0-.61,2.41,2.27,2.27,0,0,0,2.79.34,2.64,2.64,0,0,0,.85-2.6,2.83,2.83,0,0,0-1.69-2.13,4.07,4.07,0,0,0-3-.11,3.13,3.13,0,0,0-1.74,1.84,5,5,0,0,0,1,5.17,8.08,8.08,0,0,0,3,1.39c.4.15.9.39,1,.87,0,.19,0,.34-.19.42s-.12,0-.22,0-.07-.1-.07,0c0-.75-1.2-.76-1.17,0a1.28,1.28,0,0,0,1.69,1.1,1.54,1.54,0,0,0,1.1-1.88c-.38-1.82-2.7-1.7-4-2.53a3.65,3.65,0,0,1-1.08-4,2,2,0,0,1,1.37-1.41,2.85,2.85,0,0,1,2.29.41,1.81,1.81,0,0,1,.43,2.26.94.94,0,0,1-1.12.24c-.28-.11-.76-.54-.27-.7.72-.24.41-1.37-.31-1.13Z"/><path class="cls-24" d="M116.52,177.74a1.42,1.42,0,0,1,.62,2.41,2.27,2.27,0,0,1-2.79.34,2.62,2.62,0,0,1-.85-2.6,2.8,2.8,0,0,1,1.68-2.13,4.07,4.07,0,0,1,3-.11,3.1,3.1,0,0,1,1.74,1.84,5,5,0,0,1-1,5.17,8.19,8.19,0,0,1-3,1.39c-.4.15-.9.39-1,.87,0,.19,0,.34.2.42s.12,0,.22,0,.07-.1.06,0c0-.75,1.21-.76,1.18,0a1.28,1.28,0,0,1-1.69,1.1,1.53,1.53,0,0,1-1.1-1.88c.38-1.82,2.7-1.7,4-2.53a3.67,3.67,0,0,0,1.08-4,2,2,0,0,0-1.38-1.41,2.82,2.82,0,0,0-2.28.41,1.79,1.79,0,0,0-.43,2.26.93.93,0,0,0,1.11.24c.28-.11.77-.54.27-.7-.71-.24-.41-1.37.31-1.13Z"/><path class="cls-24" d="M213.8,172.4a1.42,1.42,0,0,0,.62-2.41,2.27,2.27,0,0,0-2.79-.34,2.64,2.64,0,0,0-.86,2.59,2.83,2.83,0,0,0,1.69,2.14,4.07,4.07,0,0,0,3,.11,3.1,3.1,0,0,0,1.74-1.84,5,5,0,0,0-1-5.17,8.08,8.08,0,0,0-3-1.39c-.4-.15-.9-.39-1-.87,0-.19,0-.34.19-.42s.13,0,.22,0,.08.1.07,0c0,.75,1.2.76,1.18,0a1.28,1.28,0,0,0-1.69-1.1,1.52,1.52,0,0,0-1.1,1.88c.38,1.82,2.7,1.69,4,2.53a3.65,3.65,0,0,1,1.07,4,2,2,0,0,1-1.37,1.41,2.82,2.82,0,0,1-2.28-.41,1.81,1.81,0,0,1-.44-2.27,1,1,0,0,1,1.12-.23c.28.11.77.54.27.7-.72.23-.41,1.37.31,1.13Z"/><path class="cls-24" d="M222.07,172.4a1.42,1.42,0,0,1-.62-2.41,2.27,2.27,0,0,1,2.79-.34,2.64,2.64,0,0,1,.86,2.59,2.83,2.83,0,0,1-1.69,2.14,4.07,4.07,0,0,1-3,.11,3.1,3.1,0,0,1-1.74-1.84,5,5,0,0,1,1-5.17,8.08,8.08,0,0,1,3-1.39c.4-.15.9-.39,1-.87,0-.19,0-.34-.19-.42s-.12,0-.22,0-.08.1-.07,0c0,.75-1.2.76-1.18,0a1.28,1.28,0,0,1,1.69-1.1,1.52,1.52,0,0,1,1.1,1.88c-.37,1.82-2.7,1.69-3.95,2.53a3.65,3.65,0,0,0-1.07,4,2,2,0,0,0,1.37,1.41,2.85,2.85,0,0,0,2.29-.41,1.82,1.82,0,0,0,.43-2.27,1,1,0,0,0-1.12-.23c-.28.11-.77.54-.27.7.72.23.41,1.37-.31,1.13Z"/><path class="cls-24" d="M222.07,177.74a1.42,1.42,0,0,0-.62,2.41,2.27,2.27,0,0,0,2.79.34,2.65,2.65,0,0,0,.86-2.6,2.83,2.83,0,0,0-1.69-2.13,4.07,4.07,0,0,0-3-.11,3.1,3.1,0,0,0-1.74,1.84,5,5,0,0,0,1,5.17,8.08,8.08,0,0,0,3,1.39c.4.15.9.39,1,.87,0,.19,0,.34-.19.42s-.12,0-.22,0-.08-.1-.07,0c0-.75-1.2-.76-1.18,0a1.28,1.28,0,0,0,1.69,1.1,1.53,1.53,0,0,0,1.1-1.88c-.37-1.82-2.7-1.7-3.95-2.53a3.65,3.65,0,0,1-1.07-4,2,2,0,0,1,1.37-1.41,2.85,2.85,0,0,1,2.29.41,1.81,1.81,0,0,1,.43,2.26.94.94,0,0,1-1.12.24c-.28-.11-.77-.54-.27-.7.72-.24.41-1.37-.31-1.13Z"/><path class="cls-24" d="M213.8,177.74a1.42,1.42,0,0,1,.62,2.41,2.27,2.27,0,0,1-2.79.34,2.65,2.65,0,0,1-.86-2.6,2.83,2.83,0,0,1,1.69-2.13,4.07,4.07,0,0,1,3-.11,3.1,3.1,0,0,1,1.74,1.84,5,5,0,0,1-1,5.17,8.08,8.08,0,0,1-3,1.39c-.4.15-.9.39-1,.87,0,.19,0,.34.19.42s.13,0,.22,0,.08-.1.07,0c0-.75,1.2-.76,1.18,0a1.28,1.28,0,0,1-1.69,1.1,1.53,1.53,0,0,1-1.1-1.88c.38-1.82,2.7-1.7,4-2.53a3.65,3.65,0,0,0,1.07-4,2,2,0,0,0-1.37-1.41,2.82,2.82,0,0,0-2.28.41,1.8,1.8,0,0,0-.44,2.26,1,1,0,0,0,1.12.24c.28-.11.77-.54.27-.7-.72-.24-.41-1.37.31-1.13Z"/><path class="cls-24" d="M120.31,132.25a1.42,1.42,0,0,0,.62-2.42,2.27,2.27,0,0,0-2.79-.34,2.63,2.63,0,0,0-.85,2.6,2.77,2.77,0,0,0,1.69,2.13,4.1,4.1,0,0,0,3,.12,3.14,3.14,0,0,0,1.74-1.85,5,5,0,0,0-1-5.17,8.19,8.19,0,0,0-3-1.39c-.39-.15-.9-.39-1-.87a.35.35,0,0,1,.2-.42c.09,0,.12,0,.22,0s.07.1.07,0c0,.75,1.2.76,1.17,0a1.28,1.28,0,0,0-1.69-1.1,1.53,1.53,0,0,0-1.1,1.89c.38,1.81,2.7,1.69,3.95,2.53a3.66,3.66,0,0,1,1.08,4,2,2,0,0,1-1.38,1.41,2.82,2.82,0,0,1-2.28-.41,1.79,1.79,0,0,1-.43-2.26.91.91,0,0,1,1.11-.23c.28.11.77.53.27.69-.71.24-.41,1.37.31,1.14Z"/><path class="cls-24" d="M128.58,132.25a1.42,1.42,0,0,1-.61-2.42,2.27,2.27,0,0,1,2.79-.34,2.65,2.65,0,0,1,.85,2.6,2.79,2.79,0,0,1-1.69,2.13,4.12,4.12,0,0,1-3,.12,3.17,3.17,0,0,1-1.74-1.85,5,5,0,0,1,1-5.17,8.08,8.08,0,0,1,3-1.39c.4-.15.9-.39,1-.87a.35.35,0,0,0-.2-.42c-.09,0-.12,0-.22,0s-.07.1-.07,0c0,.75-1.2.76-1.17,0a1.28,1.28,0,0,1,1.69-1.1,1.55,1.55,0,0,1,1.1,1.89c-.38,1.81-2.7,1.69-4,2.53a3.64,3.64,0,0,0-1.08,4,2,2,0,0,0,1.37,1.41,2.85,2.85,0,0,0,2.29-.41,1.8,1.8,0,0,0,.43-2.26.93.93,0,0,0-1.12-.23c-.28.11-.76.53-.27.69.72.24.41,1.37-.31,1.14Z"/><path class="cls-24" d="M128.58,137.58A1.41,1.41,0,0,0,128,140a2.27,2.27,0,0,0,2.79.34,2.63,2.63,0,0,0,.85-2.59,2.78,2.78,0,0,0-1.69-2.13,4.07,4.07,0,0,0-3-.12,3.12,3.12,0,0,0-1.74,1.85,5,5,0,0,0,1,5.16,8.08,8.08,0,0,0,3,1.39c.4.15.9.4,1,.87,0,.19,0,.34-.2.42s-.12,0-.22,0-.07-.1-.07,0c0-.75-1.2-.75-1.17,0a1.28,1.28,0,0,0,1.69,1.11,1.55,1.55,0,0,0,1.1-1.89c-.38-1.82-2.7-1.69-4-2.53a3.65,3.65,0,0,1-1.08-4,2,2,0,0,1,1.37-1.4,2.77,2.77,0,0,1,2.29.41,1.8,1.8,0,0,1,.43,2.26,1,1,0,0,1-1.12.23c-.28-.11-.76-.54-.27-.7.72-.23.41-1.37-.31-1.13Z"/><path class="cls-24" d="M120.31,137.58a1.42,1.42,0,0,1,.62,2.41,2.27,2.27,0,0,1-2.79.34,2.61,2.61,0,0,1-.85-2.59,2.76,2.76,0,0,1,1.69-2.13,4,4,0,0,1,3-.12,3.09,3.09,0,0,1,1.74,1.85,5,5,0,0,1-1,5.16,8.19,8.19,0,0,1-3,1.39c-.39.15-.9.4-1,.87,0,.19,0,.34.2.42s.12,0,.22,0,.07-.1.07,0c0-.75,1.2-.75,1.17,0a1.28,1.28,0,0,1-1.69,1.11,1.54,1.54,0,0,1-1.1-1.89c.38-1.82,2.7-1.69,3.95-2.53a3.67,3.67,0,0,0,1.08-4,2,2,0,0,0-1.38-1.4,2.75,2.75,0,0,0-2.28.41,1.78,1.78,0,0,0-.43,2.26.94.94,0,0,0,1.11.23c.28-.11.77-.54.27-.7-.71-.23-.41-1.37.31-1.13Z"/><path class="cls-24" d="M208,132.25a1.42,1.42,0,0,0,.62-2.42,2.27,2.27,0,0,0-2.79-.34,2.65,2.65,0,0,0-.86,2.6,2.81,2.81,0,0,0,1.69,2.13,4.12,4.12,0,0,0,3,.12,3.14,3.14,0,0,0,1.74-1.85,5,5,0,0,0-1-5.17,8.08,8.08,0,0,0-3-1.39c-.4-.15-.9-.39-1-.87a.34.34,0,0,1,.19-.42c.1,0,.12,0,.22,0s.08.1.07,0c0,.75,1.2.76,1.18,0a1.28,1.28,0,0,0-1.69-1.1,1.53,1.53,0,0,0-1.1,1.89c.37,1.81,2.7,1.69,4,2.53a3.63,3.63,0,0,1,1.07,4,2,2,0,0,1-1.37,1.41,2.85,2.85,0,0,1-2.29-.41,1.81,1.81,0,0,1-.43-2.26.93.93,0,0,1,1.12-.23c.28.11.77.53.27.69-.72.24-.41,1.37.31,1.14Z"/><path class="cls-24" d="M216.31,132.25a1.42,1.42,0,0,1-.62-2.42,2.27,2.27,0,0,1,2.79-.34,2.65,2.65,0,0,1,.86,2.6,2.81,2.81,0,0,1-1.69,2.13,4.12,4.12,0,0,1-3,.12,3.14,3.14,0,0,1-1.74-1.85,5,5,0,0,1,1-5.17,8.08,8.08,0,0,1,3-1.39c.4-.15.9-.39,1-.87a.34.34,0,0,0-.19-.42c-.1,0-.13,0-.22,0s-.08.1-.07,0c0,.75-1.2.76-1.18,0a1.28,1.28,0,0,1,1.69-1.1,1.53,1.53,0,0,1,1.1,1.89c-.38,1.81-2.7,1.69-3.95,2.53a3.63,3.63,0,0,0-1.07,4,2,2,0,0,0,1.37,1.41,2.82,2.82,0,0,0,2.28-.41,1.8,1.8,0,0,0,.44-2.26.93.93,0,0,0-1.12-.23c-.28.11-.77.53-.27.69.72.24.41,1.37-.31,1.14Z"/><path class="cls-24" d="M216.31,137.58a1.42,1.42,0,0,0-.62,2.41,2.27,2.27,0,0,0,2.79.34,2.64,2.64,0,0,0,.86-2.59,2.8,2.8,0,0,0-1.69-2.13,4.07,4.07,0,0,0-3-.12,3.09,3.09,0,0,0-1.74,1.85,5,5,0,0,0,1,5.16,8.08,8.08,0,0,0,3,1.39c.4.15.9.4,1,.87,0,.19,0,.34-.19.42s-.13,0-.22,0-.08-.1-.07,0c0-.75-1.2-.75-1.18,0a1.28,1.28,0,0,0,1.69,1.11,1.54,1.54,0,0,0,1.1-1.89c-.38-1.82-2.7-1.69-3.95-2.53a3.65,3.65,0,0,1-1.07-4,1.94,1.94,0,0,1,1.37-1.4,2.75,2.75,0,0,1,2.28.41,1.8,1.8,0,0,1,.44,2.26,1,1,0,0,1-1.12.23c-.28-.11-.77-.54-.27-.7.72-.23.41-1.37-.31-1.13Z"/><path class="cls-24" d="M208,137.58a1.42,1.42,0,0,1,.62,2.41,2.27,2.27,0,0,1-2.79.34,2.64,2.64,0,0,1-.86-2.59,2.8,2.8,0,0,1,1.69-2.13,4.07,4.07,0,0,1,3-.12,3.09,3.09,0,0,1,1.74,1.85,5,5,0,0,1-1,5.16,8.08,8.08,0,0,1-3,1.39c-.4.15-.9.4-1,.87,0,.19,0,.34.19.42s.12,0,.22,0,.08-.1.07,0c0-.75,1.2-.75,1.18,0a1.28,1.28,0,0,1-1.69,1.11,1.54,1.54,0,0,1-1.1-1.89c.37-1.82,2.7-1.69,4-2.53a3.65,3.65,0,0,0,1.07-4,1.94,1.94,0,0,0-1.37-1.4,2.78,2.78,0,0,0-2.29.41,1.81,1.81,0,0,0-.43,2.26,1,1,0,0,0,1.12.23c.28-.11.77-.54.27-.7-.72-.23-.41-1.37.31-1.13Z"/><path class="cls-24" d="M130.42,100.7a1.42,1.42,0,0,0,1.66-1.86,2.27,2.27,0,0,0-2.32-1.58,2.61,2.61,0,0,0-1.95,1.91,2.77,2.77,0,0,0,.52,2.67,4.07,4.07,0,0,0,2.63,1.49,3.14,3.14,0,0,0,2.4-.83,5,5,0,0,0,1.52-5,8.22,8.22,0,0,0-2-2.62c-.28-.32-.62-.77-.45-1.22a.34.34,0,0,1,.36-.28c.11,0,.12.05.21.08s0,.12.07,0c-.32.68.72,1.22,1.05.54a1.28,1.28,0,0,0-1-1.76,1.53,1.53,0,0,0-1.84,1.17c-.5,1.79,1.62,2.75,2.34,4.07a3.65,3.65,0,0,1-.89,4.05,2,2,0,0,1-1.87.61,2.79,2.79,0,0,1-1.83-1.41,1.79,1.79,0,0,1,.65-2.21.94.94,0,0,1,1.1.31c.2.23.43.83-.08.74-.74-.12-1,1-.25,1.15Z"/><path class="cls-24" d="M137.76,104.51a1.42,1.42,0,0,1,.57-2.43,2.28,2.28,0,0,1,2.63,1,2.61,2.61,0,0,1-.44,2.69,2.77,2.77,0,0,1-2.48,1.12,4.1,4.1,0,0,1-2.74-1.29,3.13,3.13,0,0,1-.69-2.44A5,5,0,0,1,137.85,99a8.17,8.17,0,0,1,3.3.14,1.26,1.26,0,0,0,1.25-.32c.11-.16.16-.31,0-.46s-.11-.07-.19-.13-.11.05-.05,0c-.37.65-1.41.11-1-.55a1.28,1.28,0,0,1,2-.2,1.55,1.55,0,0,1,.11,2.19c-1.18,1.43-3.18.25-4.68.42a3.66,3.66,0,0,0-2.8,3.06,2,2,0,0,0,.57,1.88,2.79,2.79,0,0,0,2.22.69,1.8,1.8,0,0,0,1.43-1.81,1,1,0,0,0-.89-.72c-.3,0-.93.13-.56.5.53.54-.27,1.4-.8.86Z"/><path class="cls-24" d="M135.31,109.24a1.42,1.42,0,0,0-1.66,1.86,2.27,2.27,0,0,0,2.32,1.59,2.63,2.63,0,0,0,1.95-1.91,2.79,2.79,0,0,0-.52-2.67,4.07,4.07,0,0,0-2.63-1.5,3.15,3.15,0,0,0-2.4.84,5,5,0,0,0-1.52,5,8.22,8.22,0,0,0,2,2.62c.28.31.62.76.45,1.21-.06.18-.16.3-.36.28s-.12,0-.21-.07,0-.13-.08,0c.33-.68-.71-1.23-1-.54a1.27,1.27,0,0,0,1,1.75,1.52,1.52,0,0,0,1.85-1.17c.5-1.78-1.62-2.74-2.34-4.06a3.64,3.64,0,0,1,.89-4,2,2,0,0,1,1.87-.62,2.77,2.77,0,0,1,1.83,1.42,1.78,1.78,0,0,1-.65,2.2.94.94,0,0,1-1.1-.3c-.2-.23-.43-.83.08-.75.74.12,1-1,.25-1.15Z"/><path class="cls-24" d="M128,105.43a1.42,1.42,0,0,1-.57,2.43,2.27,2.27,0,0,1-2.63-1,2.62,2.62,0,0,1,.44-2.7,2.79,2.79,0,0,1,2.48-1.11,4.1,4.1,0,0,1,2.74,1.29,3.11,3.11,0,0,1,.69,2.44,5,5,0,0,1-3.24,4.14,8.17,8.17,0,0,1-3.3-.15c-.42-.05-1-.07-1.25.33-.11.16-.16.3,0,.46s.11.06.19.12.11,0,.05.06c.37-.66,1.41-.12,1,.54a1.28,1.28,0,0,1-2,.2,1.54,1.54,0,0,1-.11-2.18c1.18-1.44,3.18-.26,4.68-.43a3.65,3.65,0,0,0,2.8-3,2,2,0,0,0-.57-1.89,2.84,2.84,0,0,0-2.22-.69,1.81,1.81,0,0,0-1.43,1.81,1,1,0,0,0,.89.72c.3,0,.93-.12.56-.49-.53-.54.26-1.41.8-.87Z"/><path class="cls-24" d="M154.74,80.67a1.42,1.42,0,0,0,2.48-.27,2.27,2.27,0,0,0-.66-2.73,2.63,2.63,0,0,0-2.73.11,2.8,2.8,0,0,0-1.4,2.33,4.07,4.07,0,0,0,.95,2.88,3.13,3.13,0,0,0,2.34,1,5,5,0,0,0,4.5-2.72,8.15,8.15,0,0,0,.25-3.3c0-.42.05-1,.47-1.2.17-.09.32-.12.46,0s0,.11.11.2-.07.1.05,0c-.7.29-.29,1.39.41,1.1a1.28,1.28,0,0,0,.44-2,1.55,1.55,0,0,0-2.16-.36c-1.57,1-.63,3.12-1,4.58a3.66,3.66,0,0,1-3.37,2.42,1.94,1.94,0,0,1-1.8-.8,2.77,2.77,0,0,1-.42-2.28,1.81,1.81,0,0,1,2-1.2,1,1,0,0,1,.61,1c0,.3-.24.9-.57.49-.46-.58-1.42.1-.95.69Z"/><path class="cls-24" d="M157.64,88.42A1.42,1.42,0,0,1,159.69,87a2.3,2.3,0,0,1,1.3,2.5,2.64,2.64,0,0,1-2.13,1.71,2.79,2.79,0,0,1-2.59-.84,4.08,4.08,0,0,1-1.17-2.79,3.11,3.11,0,0,1,1.11-2.28,5,5,0,0,1,5.18-.91,8.06,8.06,0,0,1,2.36,2.33c.28.32.68.7,1.15.59.18,0,.31-.12.32-.33s0-.11-.05-.21-.12,0,0-.07c-.71.23-1.13-.86-.41-1.1a1.26,1.26,0,0,1,1.62,1.19A1.53,1.53,0,0,1,165,88.47c-1.83.29-2.53-1.93-3.75-2.81a3.65,3.65,0,0,0-4.13.4,2,2,0,0,0-.84,1.78,2.8,2.8,0,0,0,1.19,2,1.81,1.81,0,0,0,2.27-.38.93.93,0,0,0-.18-1.13c-.2-.23-.77-.53-.75,0,0,.75-1.13.86-1.17.11Z"/><path class="cls-24" d="M152.65,90.29a1.42,1.42,0,0,0-2.48.27,2.29,2.29,0,0,0,.67,2.73,2.61,2.61,0,0,0,2.72-.11A2.81,2.81,0,0,0,155,90.85,4.12,4.12,0,0,0,154,88a3.13,3.13,0,0,0-2.34-1,5,5,0,0,0-4.5,2.72,8,8,0,0,0-.25,3.3c0,.42-.05,1-.48,1.2-.17.09-.32.12-.46,0s-.05-.11-.1-.2.07-.1,0,0c.7-.29.29-1.39-.41-1.1a1.27,1.27,0,0,0-.44,2,1.54,1.54,0,0,0,2.15.36c1.57-1,.64-3.12,1-4.58a3.65,3.65,0,0,1,3.37-2.42,1.94,1.94,0,0,1,1.8.8,2.8,2.8,0,0,1,.42,2.28,1.82,1.82,0,0,1-2,1.2,1,1,0,0,1-.61-1c0-.3.23-.9.56-.49.47.58,1.42-.1,1-.69Z"/><path class="cls-24" d="M149.75,82.54a1.42,1.42,0,0,1-2,1.43,2.27,2.27,0,0,1-1.3-2.5,2.65,2.65,0,0,1,2.13-1.71,2.81,2.81,0,0,1,2.59.84,4.08,4.08,0,0,1,1.17,2.79,3.12,3.12,0,0,1-1.12,2.28,5,5,0,0,1-5.18.91,8.15,8.15,0,0,1-2.35-2.33c-.28-.32-.69-.7-1.15-.59-.19,0-.32.12-.33.33s0,.11.06.21.11,0,0,.08c.71-.24,1.13.85.41,1.09A1.27,1.27,0,0,1,141,84.18a1.53,1.53,0,0,1,1.38-1.69c1.84-.29,2.53,1.93,3.76,2.81a3.66,3.66,0,0,0,4.13-.4,1.93,1.93,0,0,0,.83-1.78,2.79,2.79,0,0,0-1.18-2,1.8,1.8,0,0,0-2.27.39.93.93,0,0,0,.17,1.12c.2.23.77.53.75,0,0-.75,1.14-.86,1.17-.11Z"/><path class="cls-24" d="M206.92,100.7a1.42,1.42,0,0,1-1.66-1.86,2.26,2.26,0,0,1,2.32-1.58,2.61,2.61,0,0,1,1.95,1.91,2.82,2.82,0,0,1-.52,2.67,4.1,4.1,0,0,1-2.63,1.49,3.14,3.14,0,0,1-2.4-.83,5,5,0,0,1-1.52-5,8.22,8.22,0,0,1,2-2.62c.28-.32.61-.77.45-1.22-.07-.18-.16-.29-.36-.28s-.12.05-.21.08,0,.12-.08,0c.33.68-.71,1.22-1,.54a1.28,1.28,0,0,1,1-1.76,1.54,1.54,0,0,1,1.85,1.17c.5,1.79-1.62,2.75-2.34,4.07a3.65,3.65,0,0,0,.89,4.05,2,2,0,0,0,1.86.61,2.78,2.78,0,0,0,1.84-1.41,1.79,1.79,0,0,0-.65-2.21.94.94,0,0,0-1.1.31c-.2.23-.44.83.08.74.74-.12,1,1,.25,1.15Z"/><path class="cls-24" d="M199.58,104.51a1.42,1.42,0,0,0-.57-2.43,2.28,2.28,0,0,0-2.63,1,2.61,2.61,0,0,0,.44,2.69,2.77,2.77,0,0,0,2.48,1.12,4.12,4.12,0,0,0,2.74-1.29,3.13,3.13,0,0,0,.69-2.44A5,5,0,0,0,199.49,99a8.17,8.17,0,0,0-3.3.14,1.29,1.29,0,0,1-1.26-.32c-.11-.16-.15-.31,0-.46s.11-.07.19-.13.11.05.05,0c.37.65,1.41.11,1-.55a1.28,1.28,0,0,0-2-.2,1.55,1.55,0,0,0-.11,2.19c1.18,1.43,3.18.25,4.68.42a3.66,3.66,0,0,1,2.8,3.06A2,2,0,0,1,201,105a2.77,2.77,0,0,1-2.21.69,1.8,1.8,0,0,1-1.43-1.81,1,1,0,0,1,.89-.72c.3,0,.93.13.56.5-.53.54.26,1.4.8.86Z"/><path class="cls-24" d="M202,109.24a1.42,1.42,0,0,1,1.66,1.86,2.27,2.27,0,0,1-2.32,1.59,2.61,2.61,0,0,1-2-1.91,2.76,2.76,0,0,1,.52-2.67,4,4,0,0,1,2.63-1.5,3.11,3.11,0,0,1,2.39.84,5,5,0,0,1,1.53,5,8.22,8.22,0,0,1-2,2.62c-.28.31-.62.76-.45,1.21.06.18.16.3.36.28s.11,0,.21-.07,0-.13.07,0c-.32-.68.72-1.23,1-.54a1.28,1.28,0,0,1-1,1.75,1.52,1.52,0,0,1-1.84-1.17c-.5-1.78,1.62-2.74,2.34-4.06a3.64,3.64,0,0,0-.89-4,2,2,0,0,0-1.87-.62,2.81,2.81,0,0,0-1.84,1.42,1.8,1.8,0,0,0,.66,2.2.94.94,0,0,0,1.1-.3c.2-.23.43-.83-.08-.75-.75.12-1-1-.25-1.15Z"/><path class="cls-24" d="M209.37,105.43a1.42,1.42,0,0,0,.57,2.43,2.28,2.28,0,0,0,2.63-1,2.65,2.65,0,0,0-.44-2.7,2.8,2.8,0,0,0-2.48-1.11,4.07,4.07,0,0,0-2.74,1.29,3.15,3.15,0,0,0-.7,2.44,5,5,0,0,0,3.24,4.14,8.21,8.21,0,0,0,3.31-.15c.42-.05,1-.07,1.25.33.11.16.16.3,0,.46s-.1.06-.18.12-.11,0,0,.06c-.37-.66-1.41-.12-1,.54a1.28,1.28,0,0,0,2,.2,1.53,1.53,0,0,0,.1-2.18c-1.17-1.44-3.17-.26-4.67-.43a3.65,3.65,0,0,1-2.8-3A2,2,0,0,1,208,105a2.82,2.82,0,0,1,2.22-.69,1.79,1.79,0,0,1,1.42,1.81.93.93,0,0,1-.88.72c-.3,0-.93-.12-.56-.49.53-.54-.27-1.41-.8-.87Z"/><path class="cls-24" d="M182.59,80.67a1.41,1.41,0,0,1-2.47-.27,2.27,2.27,0,0,1,.66-2.73,2.63,2.63,0,0,1,2.73.11,2.82,2.82,0,0,1,1.4,2.33A4.12,4.12,0,0,1,184,83a3.13,3.13,0,0,1-2.34,1,5,5,0,0,1-4.5-2.72,8.15,8.15,0,0,1-.25-3.3c0-.42-.05-1-.47-1.2a.35.35,0,0,0-.47,0c-.07.08,0,.11-.1.2s.07.1-.05,0c.7.29.29,1.39-.41,1.1a1.28,1.28,0,0,1-.44-2,1.54,1.54,0,0,1,2.15-.36c1.57,1,.64,3.12,1,4.58a3.65,3.65,0,0,0,3.37,2.42,1.94,1.94,0,0,0,1.8-.8,2.8,2.8,0,0,0,.42-2.28,1.81,1.81,0,0,0-2-1.2,1,1,0,0,0-.61,1c0,.3.24.9.56.49.47-.58,1.43.1,1,.69Z"/><path class="cls-24" d="M179.69,88.42a1.42,1.42,0,0,0-2-1.43,2.28,2.28,0,0,0-1.3,2.5,2.63,2.63,0,0,0,2.13,1.71,2.81,2.81,0,0,0,2.59-.84,4.08,4.08,0,0,0,1.17-2.79,3.12,3.12,0,0,0-1.12-2.28,5,5,0,0,0-5.17-.91,8.06,8.06,0,0,0-2.36,2.33c-.28.32-.68.7-1.15.59-.19,0-.32-.12-.32-.33s0-.11,0-.21.12,0,0-.07c.71.23,1.13-.86.41-1.1A1.28,1.28,0,0,0,171,86.78a1.54,1.54,0,0,0,1.39,1.69c1.83.29,2.53-1.93,3.75-2.81a3.66,3.66,0,0,1,4.13.4,2,2,0,0,1,.84,1.78,2.8,2.8,0,0,1-1.19,2,1.81,1.81,0,0,1-2.27-.38.93.93,0,0,1,.18-1.13c.2-.23.77-.53.74,0,0,.75,1.14.86,1.17.11Z"/><path class="cls-24" d="M184.69,90.29a1.41,1.41,0,0,1,2.47.27,2.27,2.27,0,0,1-.66,2.73,2.63,2.63,0,0,1-2.73-.11,2.82,2.82,0,0,1-1.4-2.33,4.12,4.12,0,0,1,.95-2.88,3.13,3.13,0,0,1,2.34-1,5,5,0,0,1,4.5,2.72,8.15,8.15,0,0,1,.25,3.3c0,.42.05,1,.48,1.2.17.09.31.12.46,0s.05-.11.1-.2-.07-.1.05,0c-.7-.29-.29-1.39.41-1.1a1.27,1.27,0,0,1,.44,2,1.54,1.54,0,0,1-2.15.36c-1.57-1-.64-3.12-1-4.58a3.65,3.65,0,0,0-3.37-2.42,1.94,1.94,0,0,0-1.8.8,2.8,2.8,0,0,0-.42,2.28,1.81,1.81,0,0,0,2,1.2,1,1,0,0,0,.61-1c0-.3-.24-.9-.56-.49-.47.58-1.43-.1-.95-.69Z"/><path class="cls-24" d="M187.59,82.54a1.42,1.42,0,0,0,2,1.43,2.27,2.27,0,0,0,1.3-2.5,2.65,2.65,0,0,0-2.13-1.71,2.81,2.81,0,0,0-2.59.84A4.08,4.08,0,0,0,185,83.39a3.12,3.12,0,0,0,1.12,2.28,5,5,0,0,0,5.17.91,8.06,8.06,0,0,0,2.36-2.33c.28-.32.68-.7,1.15-.59.19,0,.32.12.33.33s0,.11-.06.21-.12,0,0,.08c-.71-.24-1.13.85-.41,1.09a1.27,1.27,0,0,0,1.63-1.19A1.53,1.53,0,0,0,195,82.49c-1.84-.29-2.54,1.93-3.76,2.81a3.66,3.66,0,0,1-4.13-.4,1.93,1.93,0,0,1-.83-1.78,2.76,2.76,0,0,1,1.18-2,1.8,1.8,0,0,1,2.27.39.93.93,0,0,1-.17,1.12c-.21.23-.78.53-.75,0,0-.75-1.14-.86-1.17-.11Z"/></g><path class="cls-25" d="M122.49,214.94a2.4,2.4,0,0,1-.53-1.21,1.94,1.94,0,0,1,1.38-1.82,5.67,5.67,0,0,1,2.43-.14c0-1.32-1.34-2.18-2.36-3s-1.91-2.36-1.07-3.37c.48.65,1.61-.13,1.55-.94a4.69,4.69,0,0,0-1.17-2.1,5.05,5.05,0,0,1-.33-5c.4-.78,1-1.46,1.4-2.25.84-1.69.59-3.68.55-5.57s.28-4,1.8-5.12a176.88,176.88,0,0,1,8.46,21.81,33,33,0,0,0,3.23,8,10.58,10.58,0,0,0,6.7,4.89c-3.57,1.55-6.65,0-10.19-.27C129.71,218.51,125.58,219.27,122.49,214.94Z"/><path class="cls-25" d="M213,214.94a2.59,2.59,0,0,0,.53-1.21,2,2,0,0,0-1.38-1.82,5.68,5.68,0,0,0-2.43-.14c0-1.32,1.33-2.18,2.35-3s1.92-2.36,1.07-3.37c-.48.65-1.6-.13-1.55-.94a4.69,4.69,0,0,1,1.17-2.1,5.05,5.05,0,0,0,.33-5c-.4-.78-1-1.46-1.4-2.25-.83-1.69-.58-3.68-.55-5.57s-.27-4-1.8-5.12a176.82,176.82,0,0,0-8.45,21.81,33.35,33.35,0,0,1-3.23,8,10.6,10.6,0,0,1-6.7,4.89c3.56,1.55,6.64,0,10.19-.27C205.8,218.51,209.92,219.27,213,214.94Z"/><path class="cls-26" d="M131.78,155.68c.67,11.43,1.81,23.15,6.93,33.39s15.13,18.42,26.56,19.06c15.08.84,31.35-15.75,34.43-23.76.27,1.12,1.26,2.83,1.53,4,0,.51,1,.6,1.08.1-4.65,11.21-12.55,21.24-23,27.42s-23.5,8.24-35,4.48a26,26,0,0,1-7.8-3.91c-7.8-6-10-16.71-10.38-26.53-.29-7.66-.51-15.38-.61-23a285.56,285.56,0,0,1,.59-28.93c.28-4.49,2-2.93,2.1-2.25.26,2.26.71-2.6,1.56-5.12.46-1.35,1.64-1.11,1.57.4A229.34,229.34,0,0,0,131.78,155.68Z"/><path class="cls-26" d="M205.78,154.94a133,133,0,0,1-3.54,19.57A95.93,95.93,0,0,1,197.3,191c-6.72,15.46-27.47,29.07-44.21,31.09,8,4.08,22,5.8,30.25,2.24,17.71-7.66,26.37-22.91,28.42-30.89s2.51-18.35,2.61-26.58c.11-9.73-.34-24.17-1.74-32.35-.74-4.37-2.56-3.33-2.7-1.05-2.31-6.81-3.09-2.9-3,1.05C207.1,141,206.11,151,205.78,154.94Z"/><path class="cls-27" d="M184.62,217.06a14.56,14.56,0,0,0,3.83-2.22,55.13,55.13,0,0,0,21.61-37c-.93,1.8-1.16,3.75-2.57,5.56.39-2.82,1.46-5.89,1.21-8.37-.5,1.39-2,7-2.37,8.34a69.07,69.07,0,0,1-3.16,9.39,60.26,60.26,0,0,1-10.35,16.78A50.6,50.6,0,0,1,184.62,217.06Z"/><path class="cls-27" d="M130.8,180.15c3.06,13.12,10.42,25.85,22.25,32.3-1.39.66-3,0-4.35-.79a42.22,42.22,0,0,1-9.36-7.25,12.49,12.49,0,0,0,3.49,5.48c-.3.4-.94.17-1.36-.1-3.39-2.23-5.63-5.81-7.36-9.47-6.84-14.41-7.22-30.95-7.1-46.9a105.39,105.39,0,0,1,.78-14.11l.57,1c-.26-.47.51-1.09.92-.65.16.17-.24,1.34-.27,1.59-.2,1.88-.18,3.82-.26,5.71-.16,3.67-.26,7.34-.24,11A99.31,99.31,0,0,0,130.8,180.15Z"/></g></svg>