<svg xmlns="http://www.w3.org/2000/svg" xmlns:xlink="http://www.w3.org/1999/xlink" viewBox="0 0 331 438"><defs><style>.cls-1,.cls-11,.cls-18,.cls-29,.cls-7{fill:none;}.cls-2{fill:#6243cf;}.cls-3{fill:#fff;}.cls-4{fill:#4a1b28;}.cls-5{fill:#3b1520;}.cls-6{fill:#a62017;}.cls-7{stroke:#a67684;stroke-linecap:round;stroke-width:2.21px;}.cls-11,.cls-18,.cls-29,.cls-7{stroke-miterlimit:10;}.cls-8{fill:#c6b377;}.cls-9{fill:#c4b18c;}.cls-10{clip-path:url(#clip-path);}.cls-11{stroke:#998650;stroke-width:1.07px;}.cls-12{fill:#f2ddb5;}.cls-13{fill:#faf7f3;}.cls-14{fill:#e0d7c3;}.cls-15{fill:#f9efde;}.cls-16{fill:#f2e8d7;}.cls-17{opacity:0.68;}.cls-18{stroke:#8f8f8f;stroke-width:0.71px;}.cls-19{fill:#a88080;}.cls-20{fill:#7a7a7a;}.cls-21{fill:#3b3b3b;}.cls-22{fill:#a8a8a8;}.cls-23{fill:#8f8f8f;}.cls-24{clip-path:url(#clip-path-2);}.cls-25{fill:#a67684;}.cls-26{fill:#632536;}.cls-27{fill:#7d3248;}.cls-28{fill:#6c283b;}.cls-29{stroke:#c6b377;stroke-width:0.36px;}</style><clipPath id="clip-path"><path class="cls-1" d="M141,341a101.31,101.31,0,0,0,55.85-3.74c2.75-1,5.57-2.14,8.49-1.95,5.5.34,9.61,5.22,12.08,10.15,3.07,6.1,4.7,12.8,6.3,19.44l4.64,19.19c5.37,22.18,10.76,44.56,11.37,67.38-14.52-4.64-28.55-10.67-42.55-16.69L169,422.65c-7.55-3.25-15.16-6.52-21.93-11.19S134.31,400.6,131.3,393c-3.2-8.13-2.86-17.14-3.25-25.87a60.5,60.5,0,0,0-1.67-12.71c-.8-3.07-3.62-6.95-3.25-10.11C124.08,336.21,136.18,339.94,141,341Z"/></clipPath><clipPath id="clip-path-2"><path class="cls-1" d="M141,224.11c2-7.94,2.22-16.22,3.39-24.33s2.7-16.48,8.23-22.53a26.07,26.07,0,0,1,14.08-7.94c8.71-1.72,19,2.39,23.66,10a29.8,29.8,0,0,1,4.15,12.79c1.29,12.33,2.44,25.28,7.36,36.65,5.69,13.11,16.08,21.77,24.42,33.38-5.49-2.93-17.37-14.12-24.89-16.74-1-.33-1.76-.24-3.89-.88-6.71-2-5.21,9.85-12,8.62-1.37-.25,7.39-41.56,3.21-61.94a27,27,0,0,0-1.43-5.36,22.66,22.66,0,0,0-3.65-5.8,16.25,16.25,0,0,0-6.36-4.46,15.92,15.92,0,0,0-9-.88,20.38,20.38,0,0,0-5.81,2.22,32.24,32.24,0,0,0-7.54,6.28c-13.48,14.18.31,71.52-1.4,71.82-3.54.62-6.78-11.77-11.18-10.53-1.93.55-5.22,1.14-7.6,1.56-4.43.79-6.7,14.56-10.43,14.45-2,0-7.14,2.3-6.79-.27s3.3-6.33,5-7.69a54.41,54.41,0,0,0,13.91-16.71A52.16,52.16,0,0,0,141,224.11Z"/></clipPath></defs><g id="Layer_1" data-name="Layer 1"><rect class="cls-2" x="-57.89" y="45.94" width="452.21" height="342.54" transform="translate(385.42 48.99) rotate(90)"/></g><g id="Layer_2" data-name="Layer 2"><path class="cls-3" d="M223.74,364.89a106.13,106.13,0,0,0-5-16.65c2.15-1.28,4.35-2.5,6.53-3.72a31.88,31.88,0,0,1,8.09-3.54c1-.22,2.05-.43,2.55-1.23.63-1-.14-2.37.26-3.49s1.65-1.57,2.48-2.39c1.39-1.39,1.37-3.52,1.21-5.42A195.24,195.24,0,0,0,236.59,304c-2.29-10.61-4.72-20.51-7-31.13a96.78,96.78,0,0,0-5.37-16.77c-.86-2.07-5.25-6.71-7-6.16v0c-.07-.08-.12-.18-.2-.26a5,5,0,0,0-1.67-1.12c-5.19-6.1-10.12-12.24-13.45-19.89-4.92-11.37-6.07-24.32-7.36-36.65a29.8,29.8,0,0,0-4.15-12.79c-4.63-7.58-15-11.69-23.66-10a26.07,26.07,0,0,0-14.08,7.94c-5.53,6.05-7.07,14.41-8.23,22.53S143,216.17,141,224.11a52.16,52.16,0,0,1-4.59,11.68A54.17,54.17,0,0,1,128,247.42c-.92.25-1.84.53-2.75.86a6.16,6.16,0,0,0-2.51,1.45c-1.77-.58-6,4.4-6.88,6.55C113.5,262,111,267.9,109.73,274c-2.3,11.34-3.45,22.85-5.74,34.18a214.39,214.39,0,0,0-4.12,25.53c-.16,2-.17,4.3,1.22,5.78.82.87,2.1,1.41,2.48,2.55s-.37,2.64.26,3.73c.49.85,1.59,1.08,2.55,1.31a30.59,30.59,0,0,1,8.09,3.78c3.73,2.22,7.49,4.49,11,7-.92,3.87-1.68,7.77-2.31,11.7-2.42,15.11-3.14,30.43-5.48,45.55a135.19,135.19,0,0,1-6.13,25.27c13.12,7.93,29.17,8.82,44.49,9.48l35.5,1.53c14.67.62,29.49,1.18,43.95-1.29,1.4.47,2.8.95,4.21,1.4-.61-22.82-6-45.2-11.37-67.38Q226.07,374.48,223.74,364.89Zm-88.48-25.16a3.06,3.06,0,0,0-.21-.29l2,.64C136.45,340,135.86,339.84,135.26,339.73Z"/><path class="cls-3" d="M250.86,466.27l-14.38-4.6-1.87-.61c-15,2.2-30.07,1.56-43.47,1q-17.76-.75-35.51-1.53c-15-.65-33.76-1.46-49.58-11L98.52,445l3-8.27a122.64,122.64,0,0,0,5.62-23.27c1.1-7.09,1.82-14.16,2.58-21.65.8-7.82,1.63-15.91,2.92-24,.28-1.7.57-3.39.88-5.05-1.51-.94-3-1.85-4.51-2.73a24.3,24.3,0,0,0-5.17-2.59l-.14,0a13.65,13.65,0,0,1-9.14-6.33A12.52,12.52,0,0,1,93,346.45c-4.47-5-4-11.27-3.79-13.64.73-9.25,2.54-18.18,4.29-26.81,1.09-5.41,1.91-10.83,2.78-16.56s1.76-11.69,3-17.61c1.34-6.61,3.91-12.85,6.19-18.35l.53-1.28c1-2.53,5.78-10.39,12.65-12.65a19.37,19.37,0,0,1,3-1.35l.42-.15a43.24,43.24,0,0,0,5-7.33,41.52,41.52,0,0,0,3.65-9.29,97.57,97.57,0,0,0,2.13-14.29c.29-2.88.59-5.86,1-8.89,1.4-9.76,3.39-20,10.92-28.23a36.83,36.83,0,0,1,19.92-11.22c13.33-2.64,28,3.62,34.89,14.9A40.56,40.56,0,0,1,205.17,191l.19,1.88c1.15,11,2.33,22.33,6.35,31.61,2.49,5.75,6.32,10.73,10.46,15.66,6.12,2.41,10.69,8.89,11.93,11.87a106.24,106.24,0,0,1,6,18.64c1.14,5.24,2.33,10.42,3.48,15.43s2.38,10.33,3.54,15.71a205.29,205.29,0,0,1,3.47,25.79c.17,2.12.71,8.42-3.85,13.41a12.44,12.44,0,0,1-1.67,4.43,13.73,13.73,0,0,1-9.14,6l-.13,0a17.8,17.8,0,0,0-4,1.74c.93,3.18,1.68,6.29,2.38,9.2h0l4.64,19.19c5.42,22.4,11,45.57,11.66,69.61ZM124.61,434.65c9.89,3.51,21.47,4,32,4.46L192,440.64c11.43.48,24.18,1,36.27-.38-1.73-18-6.1-36.08-10.35-53.66l-4.64-19.19a97.47,97.47,0,0,0-4.46-15l-3.67-8.63,8.07-4.79c2.25-1.34,4.5-2.59,6.79-3.87A57.69,57.69,0,0,1,226.3,332a12.86,12.86,0,0,1,2.75-4.1,176.85,176.85,0,0,0-2.94-21.64c-1.13-5.24-2.32-10.42-3.47-15.43s-2.38-10.33-3.54-15.7a77.22,77.22,0,0,0-2.17-7.93l-7.22-9.38-1-.43-1.59-1.86C201.66,249.1,196,242,192,233c-5.34-12.31-6.75-25.92-8-37.93l-.2-1.86a19,19,0,0,0-2.64-8.33c-2.17-3.56-8-5.91-12.42-5a15.45,15.45,0,0,0-8.24,4.65c-3.43,3.75-4.58,10.09-5.54,16.82-.37,2.58-.64,5.21-.92,8a114.87,114.87,0,0,1-2.7,17.49,63.43,63.43,0,0,1-5.52,14.09,65.5,65.5,0,0,1-10.08,13.92l-2.07,2.2-2.92.78c-.47.13-.86.24-1.2.35l-3.65,4-.78-.26c-2.07,5-4,9.72-4.93,14.26-1.09,5.4-1.91,10.82-2.77,16.55s-1.77,11.7-3,17.63c-.71,3.49-1.4,6.9-2,10.26l26,8.76,1.27.41.54.18-1.87,7,5.17-3.93.26.36-.08-.11-5.49,4.22-3.51,13.14c-.44-.1-.88-.19-1.34-.27l4.18,3-1.66,7c-.82,3.43-1.54,7.11-2.15,10.92-1.2,7.45-2,14.88-2.76,22.75-.75,7.43-1.54,15.11-2.72,22.75A164.8,164.8,0,0,1,124.61,434.65Zm-11-96.43a56.33,56.33,0,0,1,6.33,3.37c2,1.18,4,2.41,6.11,3.71l-14.52-19.08c-.37,2.45-.67,4.89-.89,7.34A13.28,13.28,0,0,1,113.61,338.22ZM208.32,256l0,.05Z"/><path class="cls-4" d="M141,224.11c2-7.94,2.22-16.22,3.39-24.33s2.7-16.48,8.23-22.53a26.07,26.07,0,0,1,14.08-7.94c8.71-1.72,19,2.39,23.66,10a29.8,29.8,0,0,1,4.15,12.79c1.29,12.33,2.44,25.28,7.36,36.65,5.69,13.11,16.08,21.77,24.42,33.38-6.2-3.31-13.51-3.6-20.53-3.81-8.76-.27-16.66-6.05-25.4-5.55-8.34.47-13.63,1.09-22,1.62-10.07.63-24,6.39-34.12,6.1-2,0-7.14,2.3-6.79-.27s3.3-6.33,5-7.69a54.41,54.41,0,0,0,13.91-16.71A52.16,52.16,0,0,0,141,224.11Z"/><rect class="cls-5" x="147.43" y="241.11" width="43.02" height="109.38"/><path class="cls-6" d="M156.1,235.34c-4.47,36.16-8,73.11-1.45,108.9-10.59-1.5-20.61-4.82-30.57-8.95-.46-.19-5.36,1.13-5.13.67-5.9-12.38-4.34-28.62-4.31-42.5a140.08,140.08,0,0,1,6.71-40.84,7.52,7.52,0,0,1,1.38-2.89,6.16,6.16,0,0,1,2.51-1.45c5.3-1.93,11-2.27,16.44-3.66S153.34,240.53,156.1,235.34Z"/><path class="cls-4" d="M111.6,440.34c13.12,7.93,29.17,8.82,44.49,9.48l35.5,1.53c15.48.65,31.13,1.29,46.34-1.69-8.71-35.3-17.45-70.69-30.25-104.72a7.86,7.86,0,0,0-2.31-3.77A8,8,0,0,0,201.1,340c-18.86-1.51-16.19,5.72-52.12,3.25-3.39-.23-11.36-3.5-14.58-2.35-4.09,1.45-4.67,2.73-6,6.7a138.33,138.33,0,0,0-5.19,21.92c-2.42,15.11-3.14,30.43-5.48,45.55A135.19,135.19,0,0,1,111.6,440.34Z"/><path class="cls-7" d="M156.1,235.34s-10.72,72.54-1.45,108.9"/><path class="cls-6" d="M183.63,235.34c4.46,36.16,8,73.11,1.44,108.9,10.6-1.5,20.62-4.82,30.58-8.95.46-.19,5.36,1.13,5.12.67,5.91-12.38,4.35-28.62,4.32-42.5a140.08,140.08,0,0,0-6.71-40.84,7.4,7.4,0,0,0-1.39-2.89,6.06,6.06,0,0,0-2.5-1.45c-5.3-1.93-11-2.27-16.45-3.66S186.39,240.53,183.63,235.34Z"/><path class="cls-7" d="M183.63,235.34s10.71,72.54,1.44,108.9"/><path class="cls-8" d="M141,341a101.31,101.31,0,0,0,55.85-3.74c2.75-1,5.57-2.14,8.49-1.95,5.5.34,9.61,5.22,12.08,10.15,3.07,6.1,4.7,12.8,6.3,19.44l4.64,19.19c5.37,22.18,10.76,44.56,11.37,67.38-14.52-4.64-28.55-10.67-42.55-16.69L169,422.65c-7.55-3.25-15.16-6.52-21.93-11.19S134.31,400.6,131.3,393c-3.2-8.13-2.86-17.14-3.25-25.87a60.5,60.5,0,0,0-1.67-12.71c-.8-3.07-3.62-6.95-3.25-10.11C124.08,336.21,136.18,339.94,141,341Z"/><path class="cls-9" d="M171.22,394.74c-.79-1.5-1.79-2.89-2.48-4.44a33.93,33.93,0,0,0-1.84-4.24,4.15,4.15,0,0,0-3.81-2.17,3.41,3.41,0,0,0-2.51,2,5.47,5.47,0,0,0-.29,3.3,14.13,14.13,0,0,0,1.68,4.11,20.12,20.12,0,0,0,3.22,4.58,8.86,8.86,0,0,0,4.86,2.64C173.91,401.11,172.29,396.73,171.22,394.74Z"/><g class="cls-10"><path class="cls-11" d="M129.3,339c6,5.81,6.14,15.21,6.2,23.57.09,14.69,1.65,30.52,11.28,41.63,7.73,8.92,19.35,13.24,30.47,17.22l70.12,25.1"/><path class="cls-11" d="M133.8,337.56c6.41,7.36,7.61,17.82,8,27.57s.44,20,5.21,28.53c5.25,9.38,15.29,14.94,25.17,19.16,24.7,10.53,51.47,15.67,76,26.65"/><path class="cls-11" d="M141.63,339.24a75.69,75.69,0,0,1,6.75,23.57c.94,8,.64,16.31,3.65,23.78,3.7,9.18,12,15.83,21,20s18.76,6.21,28.29,8.85c16.55,4.57,32.52,11,48.45,17.4"/><path class="cls-11" d="M148.14,339.88c5.44,8.55,6.72,19,8.6,28.95s4.88,20.43,12.54,27.06a42,42,0,0,0,9.7,5.92,114.66,114.66,0,0,0,19.41,7.07c16.34,4.34,33.85,5.14,48.86,12.9"/><path class="cls-11" d="M154.08,340.22a35.88,35.88,0,0,1,8.06,13.32c1.82,5.4,2.32,11.15,3.89,16.63a44.32,44.32,0,0,0,16.19,23.23c9.06,6.65,20.28,9.56,31.29,11.79s22.29,4,32.47,8.74"/><path class="cls-11" d="M161.31,339.34c5.34,4.84,8,11.92,10,18.84s3.63,14.1,7.55,20.14c6.68,10.27,18.87,15.49,30.74,18.49s24.3,4.41,35.35,9.68"/><path class="cls-11" d="M169.75,338.77a36.24,36.24,0,0,1,9.33,13.76c1.85,4.86,2.63,10.09,4.51,14.94,4.51,11.7,15.33,20.39,27.4,23.78,10.1,2.83,21,2.31,30.79,6.12"/><path class="cls-11" d="M178.33,339.12c5.09,3.14,8.21,8.65,10.52,14.16s4.06,11.33,7.41,16.29c4.69,6.94,12.14,11.59,19.89,14.78s16.3,5.14,24.44,3.28"/><path class="cls-11" d="M185.09,336.06c4.39,2.14,7.67,6.08,10.18,10.28s4.39,8.74,6.85,13a44.91,44.91,0,0,0,14.5,15.48A33.43,33.43,0,0,0,237,380.11"/><path class="cls-11" d="M196.25,333.53c6,6.18,9.92,14,14.79,21.14s11.25,13.85,19.62,15.91"/></g><path class="cls-9" d="M171.7,377.63a4.54,4.54,0,0,1-1.13,3.67,14.63,14.63,0,0,1-2,1.58,4.11,4.11,0,0,0-1.58,1.95,3.2,3.2,0,0,0,1,3.2,6.49,6.49,0,0,0,3.17,1.47,9.34,9.34,0,0,0,3.29.14,8.81,8.81,0,0,0,5.2-3.14,18.26,18.26,0,0,0,3-5.41,11,11,0,0,0,.89-4,4.57,4.57,0,0,0-1.66-3.64c-1.44-1.07-3.47-.88-5.14-.25-2.76,1-2.25,2-3.55,4.69"/><path class="cls-12" d="M178.78,359.11a7,7,0,0,0-1.22,1.81c-.74,1.4-1.46,2.82-2.17,4.24a26.14,26.14,0,0,0-2.37,5.78c-.36,1.53-.46,3.12-.84,4.64-.7,2.77-2.33,5.27-2.72,8.1a3.43,3.43,0,0,0,.54,2.75,2.12,2.12,0,0,0,2,.66,4.14,4.14,0,0,0,2-1.52,14.42,14.42,0,0,0,3.07-4.57,15.76,15.76,0,0,1,.62-1.79,16.7,16.7,0,0,1,1-1.59,14,14,0,0,0,1.22-2.71c.74-2,1.48-4,2.13-6a23.81,23.81,0,0,0,1.41-8.07c0-.69-.1-4.28-1.07-4.21-.41,0-1.35,1-1.77,1.22A9,9,0,0,0,178.78,359.11Z"/><path class="cls-12" d="M179.65,377.1a1.41,1.41,0,0,0,.47,2.23l-.63-.18c-.61.83-.61,2-1.12,2.86-.72,1.27-2.33,1.87-3,3.18a5.38,5.38,0,0,0-.15,3.16l-.62-1.55a.85.85,0,0,0-.26-.4.81.81,0,0,0-.72.06l-1.37.57c-.57.24-1.22.57-1.35,1.17a1.12,1.12,0,0,0-.67-1A3.22,3.22,0,0,0,169,387a21.7,21.7,0,0,0-5.22.08,3.49,3.49,0,0,0-1.48.55,1.4,1.4,0,0,0-.55,1.39c1.92,1.23,4.41,1.09,6.52,2a11.24,11.24,0,0,0,2.21.86,14.25,14.25,0,0,0,3.43-.26c1.45-.08,3,.38,4.36-.05,1.92-.58,3-2.6,4.28-4.12,1.72-2,4.18-3.28,5.58-5.49,1.66-2.64,1.51-6,1.86-9.06a45.43,45.43,0,0,1,1.57-7.19,1.14,1.14,0,0,0,.05-.77,1.07,1.07,0,0,0-.27-.37l-4.55-4.8a6.36,6.36,0,0,0-3.14-2.18,1.39,1.39,0,0,0-.73,0,1.6,1.6,0,0,0-.64.55,12.12,12.12,0,0,0-1.62,3.26,35.15,35.15,0,0,0-2.08,13.21c0,.45.1.89.12,1.34C178.77,376.58,178.74,377.19,179.65,377.1Z"/><path class="cls-13" d="M164,388.77a9.23,9.23,0,0,0-1.94-.58.53.53,0,0,0-.35,0,.41.41,0,0,0-.21.22.7.7,0,0,0,.17.71,2,2,0,0,0,.66.39c.45.19,1.52.81,2,.64C165.28,389.85,164.51,389,164,388.77Z"/><path class="cls-13" d="M170.32,384.31a2.31,2.31,0,0,1,.75-.94,1.38,1.38,0,0,1,1.79.33,2.72,2.72,0,0,1,.15,2.14l-.15.71a.64.64,0,0,1-.17.38.72.72,0,0,1-.33.11l-.66.08a2.49,2.49,0,0,1-.77,0,2.15,2.15,0,0,1-.94-.55C169.3,386,170,384.94,170.32,384.31Z"/><path class="cls-12" d="M163.31,369.81a7.2,7.2,0,0,1,1.22,1.81c.74,1.4,1.46,2.82,2.18,4.24a26.6,26.6,0,0,1,2.36,5.78c.37,1.53.46,3.12.84,4.64.7,2.77,2.33,5.27,2.72,8.1a3.44,3.44,0,0,1-.54,2.76,2.14,2.14,0,0,1-2,.66,4.27,4.27,0,0,1-2-1.53A14.31,14.31,0,0,1,165,391.7a7.87,7.87,0,0,0-1.65-3.38,13.5,13.5,0,0,1-1.23-2.71c-.74-2-1.48-4-2.13-6a23.71,23.71,0,0,1-1.41-8.06c0-.69.1-4.29,1.07-4.22.41,0,1.36,1,1.77,1.23A8.74,8.74,0,0,1,163.31,369.81Z"/><path class="cls-12" d="M162.44,387.81A1.4,1.4,0,0,1,162,390l.63-.18c.61.83.62,2,1.12,2.86.72,1.27,2.33,1.87,3,3.19a5.27,5.27,0,0,1,.15,3.15l.62-1.55a.6.6,0,0,1,1-.34l1.37.57c.57.24,1.22.57,1.35,1.18a1.12,1.12,0,0,1,.67-1,3.43,3.43,0,0,1,1.24-.25,21.6,21.6,0,0,1,5.21.09,3.21,3.21,0,0,1,1.48.55,1.35,1.35,0,0,1,.55,1.39c-1.92,1.22-4.41,1.09-6.52,1.95a11.94,11.94,0,0,1-2.21.87,14.66,14.66,0,0,1-3.42-.26c-1.46-.09-3,.37-4.36-.05-1.93-.59-3-2.61-4.29-4.13-1.72-2-4.17-3.28-5.58-5.49-1.66-2.63-1.51-6-1.86-9.06a44.34,44.34,0,0,0-1.57-7.19,1.2,1.2,0,0,1-.05-.77,1.07,1.07,0,0,1,.27-.37l4.55-4.8a6.34,6.34,0,0,1,3.14-2.17,1.29,1.29,0,0,1,.73,0,1.56,1.56,0,0,1,.64.56,12.06,12.06,0,0,1,1.62,3.25,35.15,35.15,0,0,1,2.08,13.21c0,.45-.1.89-.12,1.34C163.32,387.28,163.35,387.9,162.44,387.81Z"/><path class="cls-13" d="M178.07,399.48a8.62,8.62,0,0,1,1.93-.59.73.73,0,0,1,.36,0,.45.45,0,0,1,.21.22.72.72,0,0,1-.18.71,1.86,1.86,0,0,1-.66.4c-.45.18-1.52.8-2,.63C176.81,400.55,177.58,399.68,178.07,399.48Z"/><path class="cls-13" d="M171.77,395a2.2,2.2,0,0,0-.75-.95,1.38,1.38,0,0,0-1.79.33,2.74,2.74,0,0,0-.15,2.15l.15.71a.63.63,0,0,0,.17.37.62.62,0,0,0,.33.11l.67.08a2.16,2.16,0,0,0,.76,0,2.11,2.11,0,0,0,.94-.56C172.79,396.69,172.1,395.65,171.77,395Z"/><path class="cls-3" d="M184.83,177.48a27.8,27.8,0,0,1,9,14.9,42.4,42.4,0,0,1,.69,9.21,106.4,106.4,0,0,1-3.31,26.6,9.32,9.32,0,0,1-2.3,4.63c-2,1.83-5.31,1.63-7.5.05a10.62,10.62,0,0,1-3.85-6.93,44.79,44.79,0,0,1-.22-8.11,82.81,82.81,0,0,0-2.66-21.41,22.49,22.49,0,0,0-2.81-7.11,15.31,15.31,0,0,0-6.55-5.24,11.16,11.16,0,0,1-3.87-2.17c-1.49-1.58-1.6-4-1.12-6.15.38-1.64.69-1.28,1.9-2.47,3.08-3,8.1-3.38,11.61-2.13A34,34,0,0,1,184.83,177.48Z"/><path class="cls-3" d="M157.69,224.8a3.71,3.71,0,0,0-4.59-.75,5.19,5.19,0,0,0-2.48,4.17,8.81,8.81,0,0,0,1.23,4.84,11,11,0,0,0,6.24,5.3,5.34,5.34,0,0,0,3.72-.08,4.52,4.52,0,0,0,2.43-4.18,7,7,0,0,0-2-4.57c-1.48-1.59-3.43-2.64-5.11-4"/><path class="cls-14" d="M159.34,238.94a12.56,12.56,0,0,0,10.78,7.94,15.68,15.68,0,0,0,12.58-5.35,22.6,22.6,0,0,0,5-10.58,10.65,10.65,0,0,1-2.47-7.76c-.19,2.18-10.26,4.6-12,4.95-4.52.91-8.76.53-13.28.12C159.74,231.93,160.77,235.17,159.34,238.94Z"/><path class="cls-15" d="M190,206.57c-.33,3.62-.67,7.24-1,10.86a19.28,19.28,0,0,1-1.18,5.89c-1.24,2.87-9.05,12-17.15,12-5,0-10.27-1.2-13.88-4.75-4.68-4.61-6.32-11.4-7.75-17.8a23,23,0,0,1-.84-8.39c.19-1.32.6-2.59.81-3.9a51.29,51.29,0,0,0,.21-5.55A22.52,22.52,0,0,1,151,187h0a19.35,19.35,0,0,1,4.06-6.12,16.52,16.52,0,0,1,7-4.11,20.71,20.71,0,0,1,8.66-.66,22.55,22.55,0,0,1,5.39,1.36c2.56,1,5.19,2.12,7,4.17,4,4.52,5.91,9.89,8.39,15.4.57,1.26-.62,4.16-.29,5.51S190.17,205.23,190,206.57Z"/><path class="cls-16" d="M170.14,229c-1.35,1.15-1,4.2.43,5.58.16.16.08.44.14.65a17.64,17.64,0,0,1-13.88-4.75c-4.68-4.61-6.32-11.4-7.75-17.8a23,23,0,0,1-.84-8.39c.19-1.32.6-2.59.81-3.9a51.29,51.29,0,0,0,.21-5.55A22.52,22.52,0,0,1,151,187h0a26.69,26.69,0,0,1,6.42-7.22,29.56,29.56,0,0,1,4.6-3,20.77,20.77,0,0,1,9.07-2.48c-.14.6-.28,1.21-.41,1.82-1.52,7.13-2.86,14-2.17,21.25.08,1,1.11,2.43,1,3.4-.07.61-.22,1.21-.25,1.82a14.23,14.23,0,0,0-.23,2.83,9.93,9.93,0,0,1-1,5.39c-.33.7-.43,2.55.31,2.79a11,11,0,0,0,1.61.34c.87,0,1.27.28,1.28,1.16a6.46,6.46,0,0,1-.72,2.5,3.67,3.67,0,0,0-.3,2.55c.2.55.65,1.09.46,1.65a5.23,5.23,0,0,0-.34.72,1.33,1.33,0,0,0,.21.81C171.43,225.17,171.2,228.13,170.14,229Z"/><path class="cls-3" d="M156.29,187.07c-5.44,5.46-7.46,14-8.66,21.63-.65-7.4-.57-15.83,2.49-22.59s9.23-12.45,16.6-13.38c1.55-.19,4.42-.1,5.31,1.53,1,1.81-2.64,3.56-4,4.47C164.07,181.41,159.71,183.63,156.29,187.07Z"/><g class="cls-17"><path class="cls-18" d="M147,201.79a57,57,0,0,1,3.43-8.14,30.3,30.3,0,0,1,6-8.39,31.63,31.63,0,0,1,3-2.41c2.43-1.75,5-3.31,7.54-4.87s5.43-3.31,8.51-3.88"/><path class="cls-18" d="M173.37,173.28c-6.23,2.94-12.55,5.93-17.65,10.56a35,35,0,0,0-10.63,18.43"/><path class="cls-18" d="M187.94,186.32a22.47,22.47,0,0,0,1.55,11.88,33.84,33.84,0,0,1,1.52,3.7,19.22,19.22,0,0,1,.18,7.41l-.72,6.79a37.45,37.45,0,0,1-1.34,7.61,7.56,7.56,0,0,1-3.12,4.42"/></g><path class="cls-3" d="M182.72,187.07c5.43,5.46,7.46,14,8.65,21.63.65-7.4.58-15.83-2.49-22.59s-9.23-12.45-16.6-13.38c-1.55-.19-4.42-.1-5.3,1.53-1,1.81,2.63,3.56,4,4.47C174.93,181.41,179.3,183.63,182.72,187.07Z"/><g class="cls-17"><path class="cls-18" d="M192,201.79a58.22,58.22,0,0,0-3.44-8.14,30.1,30.1,0,0,0-6-8.39,30.42,30.42,0,0,0-3-2.41c-2.43-1.75-5-3.31-7.54-4.87s-5.43-3.31-8.51-3.88"/><path class="cls-18" d="M165.64,173.28c6.22,2.94,12.55,5.93,17.64,10.56a35,35,0,0,1,10.63,18.43"/></g><path class="cls-19" d="M171.3,221.89l-1.72-1.55s-.67-.65-.72-.67a9.92,9.92,0,0,0-1.22,0,35.93,35.93,0,0,1-3.67,2.06,17.5,17.5,0,0,1-1.89-1.28l-.74,1.49,2.83,0Z"/><path class="cls-19" d="M168.57,221.89l1.83-1.55s.71-.65.75-.67a11.26,11.26,0,0,1,1.3,0,35.1,35.1,0,0,0,3.72,1.92,20.6,20.6,0,0,0,1.92-1.05l.72,1.37-2.67.06Z"/><path class="cls-20" d="M174.6,196.34a11.47,11.47,0,0,1,10.92.89c0-.75-1.22-1.62-1.87-2-2.46-1.4-5.28-1.45-8.07-1.22a2.85,2.85,0,0,0-2.07.88C172.71,195.92,173.17,197,174.6,196.34Z"/><path class="cls-21" d="M178.8,201.43a1,1,0,0,0,.42.35,1,1,0,0,0,.49.07,1.24,1.24,0,0,0,1.29-1.12,1.12,1.12,0,0,0-.37-1.22,2,2,0,0,0-1.76,0A1.47,1.47,0,0,0,178.8,201.43Z"/><path class="cls-22" d="M176.67,198.05a3.22,3.22,0,0,0-1.57,2.26c0,.52.35.71.81.6a12.25,12.25,0,0,0,1.56-.6,8,8,0,0,1,3.53-.56,6,6,0,0,1,1.87.51,8.68,8.68,0,0,1,1.56.92,5.09,5.09,0,0,0-3.28-2,9.38,9.38,0,0,0-3.86.37c.51-1,2.32-1.58,3.27-1.58a5.78,5.78,0,0,1,2.77.79c.4.18.89.06.76-.3-.23-.69-2.69-1.41-4-1.41A6.18,6.18,0,0,0,176.67,198.05Z"/><path class="cls-22" d="M186.5,203.2a2,2,0,0,0-.76-1.08,1.28,1.28,0,0,1,1,.44c-.46-.4-1.36-1-2-.51.17.14.48.14.69.22A2.58,2.58,0,0,1,186.5,203.2Z"/><path class="cls-22" d="M181.74,221.76c.31-1.1.85-3.52-1.44-5A5.78,5.78,0,0,1,181.74,221.76Z"/><path class="cls-22" d="M182.6,218.52a4.1,4.1,0,0,0-.21-1.35,1.28,1.28,0,0,0-1-.86C182.32,216.89,182.37,217.7,182.6,218.52Z"/><path class="cls-20" d="M165.81,196.34a11.47,11.47,0,0,0-10.92.89c0-.75,1.31-1.66,2-2,2.46-1.4,5.19-1.4,8-1.17a3.32,3.32,0,0,1,2.07.88C167.81,195.83,167.24,197,165.81,196.34Z"/><path class="cls-21" d="M161,201.43a1.11,1.11,0,0,1-.43.35,1,1,0,0,1-.49.07,1.33,1.33,0,0,1-.49-.08,1.41,1.41,0,0,1-.8-1,1.12,1.12,0,0,1,.37-1.22,2,2,0,0,1,1.76,0A1.47,1.47,0,0,1,161,201.43Z"/><path class="cls-22" d="M163.74,198.05a3.22,3.22,0,0,1,1.57,2.26c0,.52-.35.71-.82.6a12.71,12.71,0,0,1-1.55-.6,8,8,0,0,0-3.53-.56,6.18,6.18,0,0,0-1.88.51,8.68,8.68,0,0,0-1.56.92,5,5,0,0,1,3.22-2.08,10.49,10.49,0,0,1,4.11.52,3.63,3.63,0,0,0-3.08-1.68,7.15,7.15,0,0,0-3.14.79c-.35.17-.85,0-.77-.3s1.51-1.3,4-1.41A5.8,5.8,0,0,1,163.74,198.05Z"/><path class="cls-22" d="M153.91,203.2a2,2,0,0,1,.76-1.08,1.32,1.32,0,0,0-1,.44c.47-.4,1.36-1,2-.51a2.65,2.65,0,0,1-.69.22A2.58,2.58,0,0,0,153.91,203.2Z"/><path class="cls-22" d="M158.67,221.76c-.87-3.16.78-4.72,1.43-5A6.42,6.42,0,0,0,158.67,221.76Z"/><path class="cls-22" d="M157.8,218.52a3.83,3.83,0,0,1,.22-1.35,1.38,1.38,0,0,1,1-.86A3.13,3.13,0,0,0,157.8,218.52Z"/><path class="cls-23" d="M168.64,197.26a9.53,9.53,0,0,1,1.2,2.36,4.59,4.59,0,0,1,.22,1.39,3.45,3.45,0,0,1-.34,1.42,4.62,4.62,0,0,0-.44,1.08,2.47,2.47,0,0,0,.13,1,6.55,6.55,0,0,1,.29,1.35,6.19,6.19,0,0,1,0,1.43,49.73,49.73,0,0,1-1.4,5,2.38,2.38,0,0,0-.06.28s0,.09.16.19a2.06,2.06,0,0,0,.84.48,2.8,2.8,0,0,0,2.16-.2l.25.26a2.73,2.73,0,0,1-2.63,1.08,3,3,0,0,1-1.47-.6,1.69,1.69,0,0,1-.61-.82,1.83,1.83,0,0,1,0-1c.44-1.77,1.22-3.32,1.48-4.88a5.44,5.44,0,0,0-.1-2.33,3.48,3.48,0,0,1,0-1.52,5.19,5.19,0,0,1,.61-1.27,3.14,3.14,0,0,0,.29-2.21,11.54,11.54,0,0,0-.83-2.37Z"/><path class="cls-1" d="M259.37,366l-2.13,2.27"/><path class="cls-4" d="M115.85,256.28C113.5,262,111,267.9,109.73,274c-2.3,11.34-3.45,22.85-5.74,34.18a214.39,214.39,0,0,0-4.12,25.53c-.16,2-.17,4.3,1.22,5.78.82.87,2.1,1.41,2.48,2.55s-.37,2.64.26,3.73c.49.85,1.59,1.08,2.55,1.31a30.59,30.59,0,0,1,8.09,3.78c8.68,5.15,17.63,10.56,23.35,18.87,2.34,3.41,4.82,7.7,9,7.85,2.74.1,5.11-1.76,7.21-3.52l6.29-5.29c1.49-1.24,3.11-3.25,2-4.87-.68-1-2.09-1.21-3.3-1.48-4-.9-7.13-3.82-10-6.72a168.92,168.92,0,0,1-17.61-21.16,25.48,25.48,0,0,0-4.48-5.37,7.85,7.85,0,0,0-6.51-1.87,32.79,32.79,0,0,0,.07-7.21c-1-14.16-4.29-28.25-3.15-42.4a95,95,0,0,1,3.89-19.32c.39-1.32,1.7-5.88,1.49-8.59C121,249.15,116.73,254.13,115.85,256.28Z"/><path class="cls-4" d="M224.22,256.12a97.61,97.61,0,0,1,5.36,16.77c2.29,10.62,4.72,20.52,7,31.13a195.24,195.24,0,0,1,3.26,24.43c.16,1.9.18,4-1.21,5.42-.83.82-2.1,1.32-2.48,2.39s.37,2.47-.26,3.49c-.5.8-1.6,1-2.55,1.23a31.88,31.88,0,0,0-8.09,3.54c-8.68,4.83-17.63,9.89-23.35,17.68-2.35,3.19-4.82,7.21-8.95,7.35-2.74.09-5.11-1.65-7.21-3.3l-6.3-4.95a5.61,5.61,0,0,1-2-4.56c-.1-2.35,6-7.41,8.83-10.13,6.43-6.14,24.74-21,26.55-22.4a8.15,8.15,0,0,1,6.51-1.76,28.75,28.75,0,0,1-.08-6.75c1-13.27,4.3-26.47,3.16-39.72a84,84,0,0,0-3.89-18.1,51.35,51.35,0,0,1-1.31-7.92C219,249.41,223.35,254.05,224.22,256.12Z"/><path class="cls-4" d="M153.91,184.45c3.08-4.47,10.67-10.72,18.52-10a17,17,0,0,1,10.83,5.13,21.49,21.49,0,0,1,5.34,10.88,44.31,44.31,0,0,0,1.34,6.92c.35,1,1.12,2.07,2.14,1.89.45-.09,1.49,17.31,1.71,16.91,2.11-3.81.81-20.61.73-22.21a28.29,28.29,0,0,0-4.73-13.66A24.26,24.26,0,0,0,179,171.05a19.67,19.67,0,0,0-14-.57,29.86,29.86,0,0,0-6.25,3.29,23,23,0,0,0-5,4.07,24.07,24.07,0,0,0-3.44,5.81,39.14,39.14,0,0,0-1.65,3.95c-1.15,3.42-4.74,12.5-4.09,16.05.09.51,2.63.61,3,1,1.53,1.73,2.24-6.15,2.25-6.89a24,24,0,0,1,4.16-13.3Z"/><g class="cls-24"><path class="cls-25" d="M138.2,237a1,1,0,0,0,.67-1.54,1.53,1.53,0,0,0-1.82-.53,1.78,1.78,0,0,0-.85,1.63,1.88,1.88,0,0,0,.9,1.6,2.76,2.76,0,0,0,2,.41,2.11,2.11,0,0,0,1.35-1,3.35,3.35,0,0,0-.09-3.54,5.41,5.41,0,0,0-1.84-1.25c-.25-.14-.56-.36-.55-.68,0-.13,0-.23.17-.26s.09,0,.15,0,0,.07.05,0c-.06.5.72.63.78.12a.85.85,0,0,0-1-.91,1,1,0,0,0-.94,1.14c.06,1.24,1.62,1.41,2.36,2.1a2.46,2.46,0,0,1,.28,2.78,1.3,1.3,0,0,1-1.06.79,1.89,1.89,0,0,1-1.47-.52,1.21,1.21,0,0,1,0-1.55.63.63,0,0,1,.77,0c.17.1.45.44.1.49-.5.08-.42.86.09.79Z"/><path class="cls-25" d="M143.69,237.87a1,1,0,0,1-.15-1.67,1.55,1.55,0,0,1,1.9.08,1.74,1.74,0,0,1,.28,1.81,1.88,1.88,0,0,1-1.35,1.24,2.74,2.74,0,0,1-2-.25,2,2,0,0,1-1-1.41,3.34,3.34,0,0,1,1.2-3.33,5.49,5.49,0,0,1,2.14-.61c.28,0,.64-.16.73-.47a.23.23,0,0,0-.08-.3c-.06,0-.08,0-.14,0s-.06.06-.05,0c-.1.49-.88.37-.78-.13a.87.87,0,0,1,1.25-.55,1,1,0,0,1,.52,1.37c-.44,1.17-2,.83-2.89,1.26a2.45,2.45,0,0,0-1.15,2.54,1.34,1.34,0,0,0,.76,1.09,1.89,1.89,0,0,0,1.56,0A1.2,1.2,0,0,0,145,237a.62.62,0,0,0-.71-.27c-.2,0-.57.27-.26.44s.13,1-.33.71Z"/><path class="cls-25" d="M143.12,241.42a1,1,0,0,0-.67,1.54,1.54,1.54,0,0,0,1.82.52,1.78,1.78,0,0,0,.85-1.63,1.89,1.89,0,0,0-.9-1.6,2.77,2.77,0,0,0-2-.4,2.08,2.08,0,0,0-1.35,1,3.37,3.37,0,0,0,.08,3.54,5.53,5.53,0,0,0,1.85,1.24c.25.15.56.36.55.68,0,.13,0,.23-.18.26s-.08,0-.15,0,0-.08,0,0c.06-.51-.72-.64-.79-.13a.86.86,0,0,0,1,.91,1,1,0,0,0,.93-1.13c0-1.25-1.61-1.42-2.35-2.11a2.46,2.46,0,0,1-.29-2.78,1.34,1.34,0,0,1,1.07-.78,1.86,1.86,0,0,1,1.47.51,1.21,1.21,0,0,1,.05,1.55.64.64,0,0,1-.77,0c-.17-.11-.45-.44-.1-.5.5-.07.42-.86-.09-.78Z"/><path class="cls-25" d="M137.62,240.53a1,1,0,0,1,.16,1.67,1.55,1.55,0,0,1-1.9-.07,1.79,1.79,0,0,1-.29-1.82,1.91,1.91,0,0,1,1.36-1.24,2.79,2.79,0,0,1,2,.25,2.12,2.12,0,0,1,1,1.42,3.36,3.36,0,0,1-1.2,3.33,5.66,5.66,0,0,1-2.14.6c-.28.05-.64.16-.74.47,0,.13,0,.23.09.3s.08,0,.14,0,.06,0,0,0c.1-.5.88-.38.78.12a.86.86,0,0,1-1.24.56,1,1,0,0,1-.53-1.38c.45-1.16,2-.83,2.9-1.25a2.47,2.47,0,0,0,1.15-2.55,1.32,1.32,0,0,0-.76-1.08,1.87,1.87,0,0,0-1.57,0,1.23,1.23,0,0,0-.53,1.46.63.63,0,0,0,.72.27c.2,0,.57-.27.26-.43-.46-.23-.13-.95.32-.72Z"/><path class="cls-25" d="M196.27,238.35a1,1,0,0,0-.11-1.67,1.52,1.52,0,0,0-1.86.36,1.79,1.79,0,0,0,0,1.84,1.89,1.89,0,0,0,1.53,1,2.76,2.76,0,0,0,2-.55,2.08,2.08,0,0,0,.73-1.54,3.35,3.35,0,0,0-1.69-3.11,5.32,5.32,0,0,0-2.21-.27c-.28,0-.66-.07-.79-.36a.23.23,0,0,1,0-.31.84.84,0,0,1,.14-.06c.08-.05.07.05,0,0,.17.47.92.23.75-.25a.85.85,0,0,0-1.31-.35,1,1,0,0,0-.32,1.43c.62,1.09,2.09.53,3.06.81a2.45,2.45,0,0,1,1.52,2.34,1.33,1.33,0,0,1-.59,1.19,1.92,1.92,0,0,1-1.55.21,1.2,1.2,0,0,1-.74-1.36.62.62,0,0,1,.66-.38c.21,0,.61.18.32.39s0,1,.44.66Z"/><path class="cls-25" d="M201.56,236.64a1,1,0,0,1-.89-1.42,1.54,1.54,0,0,1,1.72-.8,1.78,1.78,0,0,1,1.08,1.49,1.89,1.89,0,0,1-.64,1.71,2.77,2.77,0,0,1-1.92.71,2.11,2.11,0,0,1-1.49-.83A3.35,3.35,0,0,1,199,234a5.47,5.47,0,0,1,1.63-1.51c.23-.18.5-.44.44-.76,0-.12-.07-.21-.21-.22s-.08,0-.15,0,0,.08-.05,0c.14.49-.61.74-.75.24a.85.85,0,0,1,.85-1,1,1,0,0,1,1.1,1c.13,1.24-1.38,1.64-2,2.44a2.46,2.46,0,0,0,.14,2.79,1.33,1.33,0,0,0,1.17.62,1.89,1.89,0,0,0,1.38-.74,1.22,1.22,0,0,0-.19-1.54.63.63,0,0,0-.76.08c-.16.13-.38.51,0,.51.51,0,.54.79,0,.79Z"/><path class="cls-25" d="M202.67,240.05a1,1,0,0,0,.1,1.68,1.54,1.54,0,0,0,1.86-.36,1.76,1.76,0,0,0,0-1.84,1.9,1.9,0,0,0-1.52-1,2.78,2.78,0,0,0-2,.55,2.13,2.13,0,0,0-.73,1.55,3.35,3.35,0,0,0,1.69,3.11,5.52,5.52,0,0,0,2.21.27c.29,0,.66.06.8.35,0,.12.07.22,0,.31s-.08,0-.13.07-.07-.05,0,0c-.18-.48-.93-.24-.76.24a.87.87,0,0,0,1.32.36,1,1,0,0,0,.31-1.44c-.62-1.09-2.08-.52-3.06-.8a2.48,2.48,0,0,1-1.52-2.35,1.35,1.35,0,0,1,.59-1.18,1.89,1.89,0,0,1,1.55-.21,1.22,1.22,0,0,1,.75,1.36.66.66,0,0,1-.67.38c-.2,0-.6-.19-.32-.4s0-1-.43-.66Z"/><path class="cls-25" d="M197.37,241.77a1,1,0,0,1,.9,1.42,1.54,1.54,0,0,1-1.72.79,1.76,1.76,0,0,1-1.09-1.48,1.9,1.9,0,0,1,.64-1.72,2.78,2.78,0,0,1,1.92-.7,2.11,2.11,0,0,1,1.5.82,3.37,3.37,0,0,1,.45,3.51,5.39,5.39,0,0,1-1.64,1.51c-.22.18-.49.44-.43.76,0,.13.07.22.21.23a.58.58,0,0,0,.14,0c.1,0,0-.08.05,0-.13-.49.62-.73.76-.24a.87.87,0,0,1-.86,1.06,1,1,0,0,1-1.09-1c-.14-1.24,1.38-1.64,2-2.44a2.43,2.43,0,0,0-.14-2.78,1.3,1.3,0,0,0-1.17-.62,1.88,1.88,0,0,0-1.38.73,1.22,1.22,0,0,0,.19,1.54.64.64,0,0,0,.77-.08c.15-.13.38-.5,0-.5s-.54-.79,0-.79Z"/><path class="cls-25" d="M142.27,219.05a.75.75,0,0,0,.33-1.27,1.21,1.21,0,0,0-1.47-.18,1.38,1.38,0,0,0-.45,1.37,1.44,1.44,0,0,0,.89,1.12,2.09,2.09,0,0,0,1.59.06,1.63,1.63,0,0,0,.92-1,2.63,2.63,0,0,0-.51-2.72,4.39,4.39,0,0,0-1.58-.73c-.21-.08-.47-.21-.51-.46a.18.18,0,0,1,.11-.22s.06,0,.11,0,0,.05,0,0a.31.31,0,0,0,.62,0,.68.68,0,0,0-.89-.58.81.81,0,0,0-.58,1c.2.95,1.42.89,2.08,1.33a1.93,1.93,0,0,1,.56,2.11,1,1,0,0,1-.72.74,1.46,1.46,0,0,1-1.2-.22,1,1,0,0,1-.23-1.19.5.5,0,0,1,.59-.12c.15.06.4.28.14.37s-.22.72.16.59Z"/><path class="cls-25" d="M146.63,219.05a.75.75,0,0,1-.33-1.27,1.21,1.21,0,0,1,1.47-.18,1.38,1.38,0,0,1,.45,1.37,1.44,1.44,0,0,1-.89,1.12,2.09,2.09,0,0,1-1.59.06,1.63,1.63,0,0,1-.92-1,2.63,2.63,0,0,1,.51-2.72,4.39,4.39,0,0,1,1.58-.73c.21-.08.48-.21.51-.46s0-.18-.1-.22-.07,0-.12,0,0,.05,0,0c0,.4-.63.4-.61,0a.67.67,0,0,1,.89-.58.82.82,0,0,1,.58,1c-.2.95-1.43.89-2.08,1.33a1.92,1.92,0,0,0-.57,2.11,1,1,0,0,0,.72.74,1.46,1.46,0,0,0,1.2-.22.94.94,0,0,0,.23-1.19.5.5,0,0,0-.59-.12c-.14.06-.4.28-.14.37s.22.72-.16.59Z"/><path class="cls-25" d="M146.63,221.86a.75.75,0,0,0-.33,1.27,1.18,1.18,0,0,0,1.47.18,1.36,1.36,0,0,0,.45-1.36,1.47,1.47,0,0,0-.89-1.13,2.18,2.18,0,0,0-1.59-.06,1.66,1.66,0,0,0-.92,1,2.62,2.62,0,0,0,.51,2.72,4.24,4.24,0,0,0,1.58.74c.21.07.48.2.51.45s0,.18-.1.22-.07,0-.12,0,0,0,0,0c0-.39-.63-.4-.61,0a.67.67,0,0,0,.89.58.81.81,0,0,0,.58-1c-.2-1-1.43-.89-2.08-1.33a1.92,1.92,0,0,1-.57-2.11,1,1,0,0,1,.72-.74,1.45,1.45,0,0,1,1.2.21.94.94,0,0,1,.23,1.19.5.5,0,0,1-.59.13c-.14-.06-.4-.29-.14-.37s.22-.72-.16-.6Z"/><path class="cls-25" d="M142.27,221.86a.75.75,0,0,1,.33,1.27,1.18,1.18,0,0,1-1.47.18,1.36,1.36,0,0,1-.45-1.36,1.47,1.47,0,0,1,.89-1.13,2.18,2.18,0,0,1,1.59-.06,1.66,1.66,0,0,1,.92,1,2.62,2.62,0,0,1-.51,2.72,4.24,4.24,0,0,1-1.58.74c-.21.07-.47.2-.51.45a.18.18,0,0,0,.11.22s.06,0,.11,0,0,0,0,0c0-.39.63-.4.62,0a.67.67,0,0,1-.89.58.8.8,0,0,1-.58-1c.2-1,1.42-.89,2.08-1.33a1.94,1.94,0,0,0,.56-2.11,1,1,0,0,0-.72-.74,1.45,1.45,0,0,0-1.2.21,1,1,0,0,0-.23,1.19.51.51,0,0,0,.59.13c.15-.06.4-.29.14-.37s-.22-.72.16-.6Z"/><path class="cls-25" d="M193.5,219.05a.74.74,0,0,0,.32-1.27,1.21,1.21,0,0,0-1.47-.18,1.42,1.42,0,0,0-.45,1.37,1.46,1.46,0,0,0,.89,1.12,2.11,2.11,0,0,0,1.6.06,1.59,1.59,0,0,0,.91-1,2.61,2.61,0,0,0-.51-2.72,4.24,4.24,0,0,0-1.58-.73c-.21-.08-.47-.21-.5-.46a.17.17,0,0,1,.1-.22c.05,0,.06,0,.11,0s0,.05,0,0a.31.31,0,0,0,.62,0,.68.68,0,0,0-.89-.58.81.81,0,0,0-.58,1c.2.95,1.42.89,2.08,1.33a1.92,1.92,0,0,1,.57,2.11,1,1,0,0,1-.73.74,1.46,1.46,0,0,1-1.2-.22,1,1,0,0,1-.23-1.19.5.5,0,0,1,.59-.12c.15.06.41.28.14.37s-.21.72.17.59Z"/><path class="cls-25" d="M197.85,219.05a.74.74,0,0,1-.32-1.27,1.21,1.21,0,0,1,1.47-.18,1.42,1.42,0,0,1,.45,1.37,1.46,1.46,0,0,1-.89,1.12,2.11,2.11,0,0,1-1.6.06,1.59,1.59,0,0,1-.91-1,2.61,2.61,0,0,1,.51-2.72,4.24,4.24,0,0,1,1.58-.73c.21-.08.47-.21.5-.46a.17.17,0,0,0-.1-.22s-.06,0-.11,0,0,.05,0,0a.31.31,0,0,1-.62,0,.68.68,0,0,1,.89-.58.81.81,0,0,1,.58,1c-.2.95-1.42.89-2.08,1.33a1.92,1.92,0,0,0-.57,2.11,1,1,0,0,0,.73.74,1.46,1.46,0,0,0,1.2-.22,1,1,0,0,0,.23-1.19.5.5,0,0,0-.59-.12c-.15.06-.41.28-.14.37s.21.72-.17.59Z"/><path class="cls-25" d="M197.85,221.86a.74.74,0,0,0-.32,1.27,1.18,1.18,0,0,0,1.47.18,1.4,1.4,0,0,0,.45-1.36,1.49,1.49,0,0,0-.89-1.13,2.21,2.21,0,0,0-1.6-.06,1.61,1.61,0,0,0-.91,1,2.6,2.6,0,0,0,.51,2.72,4.1,4.1,0,0,0,1.58.74c.21.07.47.2.5.45a.17.17,0,0,1-.1.22s-.06,0-.11,0,0,0,0,0c0-.39-.63-.4-.62,0a.67.67,0,0,0,.89.58.8.8,0,0,0,.58-1c-.2-1-1.42-.89-2.08-1.33a1.92,1.92,0,0,1-.57-2.11,1,1,0,0,1,.73-.74,1.46,1.46,0,0,1,1.2.21,1,1,0,0,1,.23,1.19.51.51,0,0,1-.59.13c-.15-.06-.41-.29-.14-.37s.21-.72-.17-.6Z"/><path class="cls-25" d="M193.5,221.86a.74.74,0,0,1,.32,1.27,1.18,1.18,0,0,1-1.47.18,1.4,1.4,0,0,1-.45-1.36,1.49,1.49,0,0,1,.89-1.13,2.21,2.21,0,0,1,1.6-.06,1.61,1.61,0,0,1,.91,1,2.6,2.6,0,0,1-.51,2.72,4.1,4.1,0,0,1-1.58.74c-.21.07-.47.2-.5.45a.17.17,0,0,0,.1.22c.05,0,.06,0,.11,0s0,0,0,0c0-.39.63-.4.62,0a.67.67,0,0,1-.89.58.8.8,0,0,1-.58-1c.2-1,1.42-.89,2.08-1.33a1.92,1.92,0,0,0,.57-2.11,1,1,0,0,0-.73-.74,1.46,1.46,0,0,0-1.2.21,1,1,0,0,0-.23,1.19.51.51,0,0,0,.59.13c.15-.06.41-.29.14-.37s-.21-.72.17-.6Z"/><path class="cls-25" d="M144.27,197.91a.75.75,0,0,0,.33-1.27,1.18,1.18,0,0,0-1.47-.18,1.37,1.37,0,0,0-.45,1.36,1.47,1.47,0,0,0,.89,1.13,2.18,2.18,0,0,0,1.59.06,1.66,1.66,0,0,0,.92-1,2.64,2.64,0,0,0-.51-2.72,4.41,4.41,0,0,0-1.58-.74c-.21-.07-.48-.2-.51-.45,0-.1,0-.18.1-.22s.07,0,.12,0,0,.05,0,0c0,.39.64.4.62,0a.67.67,0,0,0-.89-.58.81.81,0,0,0-.58,1c.2,1,1.43.89,2.08,1.33a1.92,1.92,0,0,1,.57,2.11,1,1,0,0,1-.72.74,1.48,1.48,0,0,1-1.21-.21.94.94,0,0,1-.22-1.19.49.49,0,0,1,.58-.13c.15.06.41.29.15.37s-.22.72.16.6Z"/><path class="cls-25" d="M148.62,197.91a.75.75,0,0,1-.32-1.27,1.18,1.18,0,0,1,1.47-.18,1.39,1.39,0,0,1,.45,1.36,1.49,1.49,0,0,1-.89,1.13,2.19,2.19,0,0,1-1.59.06,1.63,1.63,0,0,1-.92-1,2.62,2.62,0,0,1,.51-2.72,4.41,4.41,0,0,1,1.58-.74c.21-.07.47-.2.51-.45a.18.18,0,0,0-.11-.22c-.05,0-.06,0-.11,0s0,.05,0,0c0,.39-.63.4-.62,0a.67.67,0,0,1,.89-.58.8.8,0,0,1,.58,1c-.2,1-1.42.89-2.08,1.33a1.92,1.92,0,0,0-.57,2.11,1,1,0,0,0,.73.74,1.45,1.45,0,0,0,1.2-.21,1,1,0,0,0,.23-1.19.51.51,0,0,0-.59-.13c-.15.06-.4.29-.14.37s.21.72-.17.6Z"/><path class="cls-25" d="M148.62,200.72a.75.75,0,0,0-.32,1.27,1.21,1.21,0,0,0,1.47.18,1.4,1.4,0,0,0,.45-1.37,1.46,1.46,0,0,0-.89-1.12,2.09,2.09,0,0,0-1.59-.06,1.63,1.63,0,0,0-.92,1,2.63,2.63,0,0,0,.51,2.72,4.22,4.22,0,0,0,1.58.73c.21.08.47.21.51.46a.18.18,0,0,1-.11.22c-.05,0-.06,0-.11,0s0,0,0,0a.31.31,0,0,0-.62,0,.68.68,0,0,0,.89.58.81.81,0,0,0,.58-1c-.2-1-1.42-.89-2.08-1.33a1.92,1.92,0,0,1-.57-2.11,1,1,0,0,1,.73-.74,1.49,1.49,0,0,1,1.2.22,1,1,0,0,1,.23,1.19.5.5,0,0,1-.59.12c-.15-.06-.4-.28-.14-.37s.21-.72-.17-.59Z"/><path class="cls-25" d="M144.27,200.72a.75.75,0,0,1,.33,1.27,1.21,1.21,0,0,1-1.47.18,1.38,1.38,0,0,1-.45-1.37,1.44,1.44,0,0,1,.89-1.12,2.09,2.09,0,0,1,1.59-.06,1.66,1.66,0,0,1,.92,1,2.65,2.65,0,0,1-.51,2.72A4.22,4.22,0,0,1,144,204c-.21.08-.48.21-.51.46,0,.1,0,.18.1.22s.07,0,.12,0,0,0,0,0c0-.4.64-.4.62,0a.67.67,0,0,1-.89.58.82.82,0,0,1-.58-1c.2-1,1.43-.89,2.08-1.33a1.92,1.92,0,0,0,.57-2.11,1,1,0,0,0-.72-.74,1.53,1.53,0,0,0-1.21.22.94.94,0,0,0-.22,1.19.49.49,0,0,0,.58.12c.15-.06.41-.28.15-.37s-.22-.72.16-.59Z"/><path class="cls-25" d="M190.46,197.91a.75.75,0,0,0,.33-1.27,1.18,1.18,0,0,0-1.47-.18,1.37,1.37,0,0,0-.45,1.36,1.49,1.49,0,0,0,.89,1.13,2.18,2.18,0,0,0,1.59.06,1.66,1.66,0,0,0,.92-1,2.62,2.62,0,0,0-.51-2.72,4.41,4.41,0,0,0-1.58-.74c-.21-.07-.47-.2-.51-.45a.18.18,0,0,1,.11-.22c.05,0,.06,0,.11,0s0,.05,0,0c0,.39.63.4.62,0a.67.67,0,0,0-.89-.58.8.8,0,0,0-.58,1c.2,1,1.42.89,2.08,1.33a1.94,1.94,0,0,1,.56,2.11,1,1,0,0,1-.72.74,1.45,1.45,0,0,1-1.2-.21,1,1,0,0,1-.23-1.19.51.51,0,0,1,.59-.13c.15.06.4.29.14.37s-.22.72.16.6Z"/><path class="cls-25" d="M194.82,197.91a.75.75,0,0,1-.33-1.27,1.18,1.18,0,0,1,1.47-.18,1.37,1.37,0,0,1,.45,1.36,1.47,1.47,0,0,1-.89,1.13,2.18,2.18,0,0,1-1.59.06,1.66,1.66,0,0,1-.92-1,2.62,2.62,0,0,1,.51-2.72,4.41,4.41,0,0,1,1.58-.74c.21-.07.48-.2.51-.45,0-.1,0-.18-.1-.22s-.07,0-.12,0,0,.05,0,0c0,.39-.63.4-.61,0a.67.67,0,0,1,.89-.58.81.81,0,0,1,.58,1c-.2,1-1.43.89-2.08,1.33a1.92,1.92,0,0,0-.57,2.11,1,1,0,0,0,.72.74,1.45,1.45,0,0,0,1.2-.21.94.94,0,0,0,.23-1.19.5.5,0,0,0-.59-.13c-.14.06-.4.29-.14.37s.22.72-.16.6Z"/><path class="cls-25" d="M194.82,200.72a.75.75,0,0,0-.33,1.27,1.21,1.21,0,0,0,1.47.18,1.38,1.38,0,0,0,.45-1.37,1.44,1.44,0,0,0-.89-1.12,2.09,2.09,0,0,0-1.59-.06,1.66,1.66,0,0,0-.92,1,2.63,2.63,0,0,0,.51,2.72,4.22,4.22,0,0,0,1.58.73c.21.08.48.21.51.46,0,.1,0,.18-.1.22s-.07,0-.12,0,0,0,0,0c0-.4-.63-.4-.61,0a.67.67,0,0,0,.89.58.82.82,0,0,0,.58-1c-.2-1-1.43-.89-2.08-1.33a1.92,1.92,0,0,1-.57-2.11,1,1,0,0,1,.72-.74,1.49,1.49,0,0,1,1.2.22.94.94,0,0,1,.23,1.19.5.5,0,0,1-.59.12c-.14-.06-.4-.28-.14-.37s.22-.72-.16-.59Z"/><path class="cls-25" d="M190.46,200.72a.75.75,0,0,1,.33,1.27,1.21,1.21,0,0,1-1.47.18,1.38,1.38,0,0,1-.45-1.37,1.46,1.46,0,0,1,.89-1.12,2.09,2.09,0,0,1,1.59-.06,1.66,1.66,0,0,1,.92,1,2.63,2.63,0,0,1-.51,2.72,4.22,4.22,0,0,1-1.58.73c-.21.08-.47.21-.51.46a.18.18,0,0,0,.11.22c.05,0,.06,0,.11,0s0,0,0,0a.31.31,0,0,1,.62,0,.68.68,0,0,1-.89.58.81.81,0,0,1-.58-1c.2-1,1.42-.89,2.08-1.33a1.93,1.93,0,0,0,.56-2.11,1,1,0,0,0-.72-.74,1.49,1.49,0,0,0-1.2.22,1,1,0,0,0-.23,1.19.5.5,0,0,0,.59.12c.15-.06.4-.28.14-.37s-.22-.72.16-.59Z"/><path class="cls-25" d="M149.59,181.3a.75.75,0,0,0,.88-1,1.22,1.22,0,0,0-1.23-.84,1.38,1.38,0,0,0-1,1,1.48,1.48,0,0,0,.27,1.41,2.11,2.11,0,0,0,1.39.78,1.6,1.6,0,0,0,1.26-.44,2.63,2.63,0,0,0,.8-2.65,4.31,4.31,0,0,0-1.07-1.37c-.15-.17-.32-.41-.24-.64s.09-.16.2-.15,0,0,.1,0,0,.06,0,0c-.17.36.38.65.55.29a.67.67,0,0,0-.52-.93.81.81,0,0,0-1,.62c-.27.94.85,1.44,1.23,2.14a1.91,1.91,0,0,1-.47,2.13,1,1,0,0,1-1,.33,1.5,1.5,0,0,1-1-.75,1,1,0,0,1,.35-1.16.51.51,0,0,1,.58.16c.1.12.22.44-.05.39s-.52.54-.13.61Z"/><path class="cls-25" d="M153.46,183.3a.74.74,0,0,1,.29-1.27,1.2,1.2,0,0,1,1.39.51,1.37,1.37,0,0,1-.23,1.42,1.47,1.47,0,0,1-1.3.59,2.18,2.18,0,0,1-1.45-.68,1.64,1.64,0,0,1-.36-1.28,2.6,2.6,0,0,1,1.7-2.18,4.25,4.25,0,0,1,1.74.07c.22,0,.52,0,.66-.17a.17.17,0,0,0,0-.24s0,0-.09-.07-.06,0,0,0c-.19.35-.74.07-.55-.28a.68.68,0,0,1,1.06-.11.82.82,0,0,1,.06,1.15c-.62.76-1.68.14-2.46.23a1.91,1.91,0,0,0-1.48,1.61,1,1,0,0,0,.3,1,1.51,1.51,0,0,0,1.17.36.94.94,0,0,0,.75-.95.5.5,0,0,0-.47-.38c-.15,0-.49.06-.29.26s-.14.74-.42.45Z"/><path class="cls-25" d="M152.16,185.8a.74.74,0,0,0-.87,1,1.2,1.2,0,0,0,1.22.84,1.39,1.39,0,0,0,1-1,1.46,1.46,0,0,0-.27-1.4,2.15,2.15,0,0,0-1.39-.79,1.64,1.64,0,0,0-1.26.44,2.63,2.63,0,0,0-.8,2.65,4.21,4.21,0,0,0,1.07,1.38.66.66,0,0,1,.23.64.18.18,0,0,1-.19.15l-.11,0c-.07,0,0-.07,0,0,.17-.36-.37-.64-.54-.28a.67.67,0,0,0,.52.92.81.81,0,0,0,1-.61c.26-.94-.85-1.45-1.23-2.14a1.94,1.94,0,0,1,.46-2.14,1.05,1.05,0,0,1,1-.32,1.48,1.48,0,0,1,1,.74,1,1,0,0,1-.35,1.16.49.49,0,0,1-.58-.16c-.1-.12-.23-.43,0-.39s.52-.54.12-.6Z"/><path class="cls-25" d="M148.3,183.79a.75.75,0,0,1-.3,1.28,1.18,1.18,0,0,1-1.38-.52,1.37,1.37,0,0,1,.23-1.42,1.46,1.46,0,0,1,1.3-.59,2.22,2.22,0,0,1,1.45.68,1.67,1.67,0,0,1,.36,1.29,2.62,2.62,0,0,1-1.7,2.18,4.26,4.26,0,0,1-1.74-.08.68.68,0,0,0-.66.17.2.2,0,0,0,0,.25s.06,0,.1.06.06,0,0,0c.19-.34.74-.06.55.29a.67.67,0,0,1-1.06.1.82.82,0,0,1-.06-1.15c.62-.75,1.68-.13,2.46-.22a1.93,1.93,0,0,0,1.48-1.61,1,1,0,0,0-.3-1,1.49,1.49,0,0,0-1.17-.37,1,1,0,0,0-.75,1c0,.22.26.35.46.38s.49-.07.3-.27.14-.73.42-.45Z"/><path class="cls-25" d="M162.4,170.75a.74.74,0,0,0,1.3-.14,1.19,1.19,0,0,0-.34-1.44,1.38,1.38,0,0,0-1.44.06,1.47,1.47,0,0,0-.74,1.23,2.18,2.18,0,0,0,.5,1.51,1.69,1.69,0,0,0,1.23.52,2.63,2.63,0,0,0,2.37-1.43,4.09,4.09,0,0,0,.13-1.74c0-.22,0-.52.25-.64s.17-.06.25,0,0,.06.05.11,0,.05,0,0c-.37.15-.15.73.21.57a.66.66,0,0,0,.23-1,.8.8,0,0,0-1.13-.2c-.82.53-.33,1.65-.52,2.42a1.92,1.92,0,0,1-1.77,1.27,1,1,0,0,1-.95-.42,1.46,1.46,0,0,1-.22-1.2.94.94,0,0,1,1-.63.5.5,0,0,1,.33.51c0,.16-.13.47-.3.26s-.75.05-.5.36Z"/><path class="cls-25" d="M163.93,174.83a.74.74,0,0,1,1.07-.75,1.2,1.2,0,0,1,.69,1.31,1.38,1.38,0,0,1-1.12.9,1.47,1.47,0,0,1-1.37-.44,2.11,2.11,0,0,1-.61-1.47,1.65,1.65,0,0,1,.58-1.2,2.63,2.63,0,0,1,2.73-.47,4.12,4.12,0,0,1,1.24,1.22c.15.17.36.37.61.31.1,0,.16-.06.17-.17s0-.06,0-.11-.06,0,0,0c-.38.12-.59-.46-.22-.58a.67.67,0,0,1,.86.63.81.81,0,0,1-.73.89c-1,.15-1.33-1-2-1.48a1.89,1.89,0,0,0-2.17.21,1,1,0,0,0-.44.93,1.52,1.52,0,0,0,.62,1.06,1,1,0,0,0,1.2-.21.49.49,0,0,0-.09-.59c-.11-.12-.41-.28-.4,0s-.59.46-.61.06Z"/><path class="cls-25" d="M161.3,175.81A.75.75,0,0,0,160,176a1.19,1.19,0,0,0,.35,1.43,1.38,1.38,0,0,0,1.44,0,1.48,1.48,0,0,0,.74-1.23,2.18,2.18,0,0,0-.5-1.51,1.62,1.62,0,0,0-1.24-.52,2.59,2.59,0,0,0-2.36,1.43,4.26,4.26,0,0,0-.14,1.74c0,.22,0,.51-.25.63a.17.17,0,0,1-.24,0s0-.06,0-.1,0-.06,0,0a.31.31,0,0,0-.22-.58.68.68,0,0,0-.23,1,.81.81,0,0,0,1.14.19c.82-.52.33-1.64.51-2.41a1.93,1.93,0,0,1,1.78-1.27,1.05,1.05,0,0,1,.95.41,1.49,1.49,0,0,1,.22,1.21,1,1,0,0,1-1,.63.52.52,0,0,1-.32-.51c0-.16.13-.48.3-.26s.75-.05.5-.37Z"/><path class="cls-25" d="M159.77,171.74a.75.75,0,0,1-1.08.75,1.21,1.21,0,0,1-.68-1.32,1.4,1.4,0,0,1,1.12-.9,1.5,1.5,0,0,1,1.37.44,2.14,2.14,0,0,1,.61,1.47,1.6,1.6,0,0,1-.59,1.2,2.61,2.61,0,0,1-2.72.48,4.24,4.24,0,0,1-1.24-1.22c-.15-.17-.36-.37-.61-.32-.1,0-.16.07-.17.18s0,.06,0,.11.06,0,0,0a.31.31,0,0,1,.21.58.67.67,0,0,1-.85-.63.81.81,0,0,1,.73-.89c1-.15,1.33,1,2,1.48a1.94,1.94,0,0,0,2.18-.21,1.06,1.06,0,0,0,.44-.94,1.49,1.49,0,0,0-.63-1,.94.94,0,0,0-1.19.21.49.49,0,0,0,.09.59c.11.12.41.28.4,0s.59-.45.61,0Z"/><path class="cls-25" d="M189.87,181.3a.75.75,0,0,1-.87-1,1.2,1.2,0,0,1,1.22-.84,1.39,1.39,0,0,1,1,1,1.5,1.5,0,0,1-.27,1.41,2.13,2.13,0,0,1-1.39.78,1.6,1.6,0,0,1-1.26-.44,2.61,2.61,0,0,1-.8-2.65,4.28,4.28,0,0,1,1.06-1.37c.15-.17.33-.41.24-.64s-.08-.16-.19-.15-.06,0-.11,0,0,.06,0,0c.17.36-.38.65-.55.29a.68.68,0,0,1,.53-.93.82.82,0,0,1,1,.62c.26.94-.86,1.44-1.24,2.14a1.92,1.92,0,0,0,.47,2.13,1,1,0,0,0,1,.33,1.49,1.49,0,0,0,1-.75.94.94,0,0,0-.34-1.16.5.5,0,0,0-.58.16c-.1.12-.23.44,0,.39s.53.54.13.61Z"/><path class="cls-25" d="M186,183.3a.74.74,0,0,0-.3-1.27,1.2,1.2,0,0,0-1.39.51,1.39,1.39,0,0,0,.23,1.42,1.48,1.48,0,0,0,1.31.59,2.13,2.13,0,0,0,1.44-.68,1.61,1.61,0,0,0,.37-1.28,2.62,2.62,0,0,0-1.71-2.18,4.26,4.26,0,0,0-1.74.07.67.67,0,0,1-.66-.17c-.05-.08-.08-.16,0-.24s.06,0,.1-.07.06,0,0,0c.2.35.75.07.55-.28a.67.67,0,0,0-1.05-.11.8.8,0,0,0-.06,1.15c.62.76,1.67.14,2.46.23a1.9,1.9,0,0,1,1.47,1.61,1,1,0,0,1-.3,1,1.49,1.49,0,0,1-1.16.36.94.94,0,0,1-.75-.95.49.49,0,0,1,.46-.38c.16,0,.49.06.3.26s.14.74.42.45Z"/><path class="cls-25" d="M187.3,185.8a.74.74,0,0,1,.87,1,1.19,1.19,0,0,1-1.22.84,1.41,1.41,0,0,1-1-1,1.46,1.46,0,0,1,.28-1.4,2.12,2.12,0,0,1,1.38-.79,1.62,1.62,0,0,1,1.26.44,2.63,2.63,0,0,1,.81,2.65,4.5,4.5,0,0,1-1.07,1.38c-.15.16-.33.4-.24.64a.18.18,0,0,0,.19.15c.06,0,.06,0,.11,0s0-.07,0,0c-.17-.36.38-.64.55-.28a.67.67,0,0,1-.52.92.81.81,0,0,1-1-.61c-.27-.94.85-1.45,1.23-2.14a1.94,1.94,0,0,0-.47-2.14,1,1,0,0,0-1-.32,1.44,1.44,0,0,0-1,.74.94.94,0,0,0,.34,1.16.48.48,0,0,0,.58-.16c.11-.12.23-.43,0-.39s-.52-.54-.13-.6Z"/><path class="cls-25" d="M191.17,183.79a.75.75,0,0,0,.29,1.28,1.2,1.2,0,0,0,1.39-.52,1.39,1.39,0,0,0-.23-1.42,1.48,1.48,0,0,0-1.31-.59,2.18,2.18,0,0,0-1.44.68,1.68,1.68,0,0,0-.37,1.29,2.65,2.65,0,0,0,1.71,2.18,4.26,4.26,0,0,0,1.74-.08.68.68,0,0,1,.66.17.18.18,0,0,1,0,.25s-.06,0-.1.06-.05,0,0,0c-.2-.34-.75-.06-.55.29a.67.67,0,0,0,1.06.1.81.81,0,0,0,.05-1.15c-.61-.75-1.67-.13-2.46-.22a1.93,1.93,0,0,1-1.47-1.61,1,1,0,0,1,.3-1,1.47,1.47,0,0,1,1.17-.37,1,1,0,0,1,.75,1,.52.52,0,0,1-.47.38c-.16,0-.49-.07-.29-.27s-.14-.73-.42-.45Z"/><path class="cls-25" d="M177.07,170.75a.75.75,0,0,1-1.31-.14,1.2,1.2,0,0,1,.35-1.44,1.39,1.39,0,0,1,1.44.06,1.49,1.49,0,0,1,.74,1.23,2.14,2.14,0,0,1-.51,1.51,1.65,1.65,0,0,1-1.23.52,2.66,2.66,0,0,1-2.37-1.43,4.44,4.44,0,0,1-.13-1.74c0-.22,0-.52-.25-.64s-.17-.06-.24,0,0,.06-.06.11,0,.05,0,0c.36.15.15.73-.22.57a.67.67,0,0,1-.23-1,.81.81,0,0,1,1.13-.2c.83.53.34,1.65.52,2.42a1.92,1.92,0,0,0,1.78,1.27,1,1,0,0,0,.95-.42,1.5,1.5,0,0,0,.22-1.2,1,1,0,0,0-1-.63.5.5,0,0,0-.32.51c0,.16.12.47.29.26s.75.05.51.36Z"/><path class="cls-25" d="M175.54,174.83a.75.75,0,0,0-1.08-.75,1.19,1.19,0,0,0-.68,1.31,1.38,1.38,0,0,0,1.12.9,1.45,1.45,0,0,0,1.36-.44,2.07,2.07,0,0,0,.62-1.47,1.62,1.62,0,0,0-.59-1.2,2.62,2.62,0,0,0-2.73-.47,4.24,4.24,0,0,0-1.24,1.22c-.14.17-.36.37-.6.31s-.17-.06-.17-.17,0-.06,0-.11.07,0,0,0c.38.12.6-.46.22-.58a.67.67,0,0,0-.85.63.8.8,0,0,0,.72.89c1,.15,1.34-1,2-1.48a1.89,1.89,0,0,1,2.17.21,1,1,0,0,1,.44.93,1.45,1.45,0,0,1-.62,1.06,1,1,0,0,1-1.19-.21.49.49,0,0,1,.09-.59c.1-.12.4-.28.39,0s.6.46.62.06Z"/><path class="cls-25" d="M178.17,175.81a.75.75,0,0,1,1.3.15,1.19,1.19,0,0,1-.35,1.43,1.37,1.37,0,0,1-1.43,0,1.48,1.48,0,0,1-.74-1.23,2.13,2.13,0,0,1,.5-1.51,1.6,1.6,0,0,1,1.23-.52,2.6,2.6,0,0,1,2.37,1.43,4.26,4.26,0,0,1,.13,1.74c0,.22,0,.51.25.63s.17.06.24,0,0-.06.06-.1,0-.06,0,0c-.36-.15-.15-.73.22-.58a.68.68,0,0,1,.23,1,.8.8,0,0,1-1.13.19c-.83-.52-.34-1.64-.52-2.41a1.92,1.92,0,0,0-1.77-1.27,1,1,0,0,0-.95.41,1.49,1.49,0,0,0-.22,1.21,1,1,0,0,0,1,.63.49.49,0,0,0,.32-.51c0-.16-.12-.48-.29-.26s-.75-.05-.5-.37Z"/><path class="cls-25" d="M179.69,171.74a.75.75,0,0,0,1.08.75,1.2,1.2,0,0,0,.68-1.32,1.38,1.38,0,0,0-1.12-.9,1.48,1.48,0,0,0-1.36.44,2.2,2.2,0,0,0-.62,1.47,1.64,1.64,0,0,0,.59,1.2,2.63,2.63,0,0,0,2.73.48,4.37,4.37,0,0,0,1.24-1.22c.14-.17.36-.37.6-.32s.17.07.17.18,0,.06,0,.11-.07,0,0,0c-.38-.13-.6.45-.22.58a.68.68,0,0,0,.86-.63.81.81,0,0,0-.73-.89c-1-.15-1.33,1-2,1.48a1.93,1.93,0,0,1-2.17-.21A1,1,0,0,1,179,172a1.45,1.45,0,0,1,.62-1,1,1,0,0,1,1.2.21.49.49,0,0,1-.1.59c-.1.12-.4.28-.39,0s-.6-.45-.62,0Z"/></g><path class="cls-26" d="M145.42,241.45a1.2,1.2,0,0,1-.28-.63,1,1,0,0,1,.72-1,3.06,3.06,0,0,1,1.28-.08c0-.69-.7-1.14-1.24-1.58s-1-1.24-.56-1.78c.25.35.84-.07.81-.49a2.5,2.5,0,0,0-.61-1.11,2.65,2.65,0,0,1-.18-2.65c.22-.41.54-.77.74-1.18a6.31,6.31,0,0,0,.29-2.94,3.18,3.18,0,0,1,1-2.7,94.72,94.72,0,0,1,4.45,11.49,17.85,17.85,0,0,0,1.7,4.22,5.6,5.6,0,0,0,3.53,2.58c-1.88.81-3.5,0-5.37-.14C149.22,243.33,147,243.73,145.42,241.45Z"/><path class="cls-26" d="M193.08,241.45a1.2,1.2,0,0,0,.28-.63,1,1,0,0,0-.72-1,3.06,3.06,0,0,0-1.28-.08c0-.69.7-1.14,1.24-1.58s1-1.24.56-1.78c-.25.35-.84-.07-.81-.49a2.5,2.5,0,0,1,.61-1.11,2.65,2.65,0,0,0,.18-2.65c-.22-.41-.54-.77-.74-1.18a6.31,6.31,0,0,1-.29-2.94,3.18,3.18,0,0,0-1-2.7,94.72,94.72,0,0,0-4.45,11.49,17.85,17.85,0,0,1-1.7,4.22,5.6,5.6,0,0,1-3.53,2.58c1.88.81,3.5,0,5.37-.14C189.28,243.33,191.46,243.73,193.08,241.45Z"/><path class="cls-27" d="M150.31,210.25c.35,6,.95,12.19,3.65,17.58s8,9.7,14,10c7.94.44,16.51-8.3,18.13-12.52.14.6.67,1.5.81,2.09a.3.3,0,0,0,.57.05,30,30,0,0,1-12.11,14.44,22.87,22.87,0,0,1-18.45,2.36,13.34,13.34,0,0,1-4.11-2.06c-4.11-3.14-5.27-8.8-5.47-14-.15-4-.26-8.09-.31-12.13a149.15,149.15,0,0,1,.3-15.23c.16-2.37,1.07-1.55,1.11-1.19.14,1.19.37-1.37.82-2.69.25-.72.87-.59.83.21A120.38,120.38,0,0,0,150.31,210.25Z"/><path class="cls-27" d="M189.28,209.86a69.55,69.55,0,0,1-1.87,10.3,49.88,49.88,0,0,1-2.6,8.68c-3.54,8.14-14.46,15.31-23.28,16.37,4.22,2.15,11.58,3.06,15.93,1.18,9.32-4,13.88-12.06,15-16.26a63.15,63.15,0,0,0,1.37-14,115.16,115.16,0,0,0-.91-17c-.39-2.3-1.35-1.76-1.42-.56-1.22-3.58-1.63-1.52-1.58.56C190,202.53,189.45,207.76,189.28,209.86Z"/><path class="cls-28" d="M178.13,242.57a7.71,7.71,0,0,0,2-1.17,29,29,0,0,0,11.38-19.46,15,15,0,0,1-1.36,2.93c.21-1.49.78-3.11.64-4.41-.26.73-1.07,3.7-1.25,4.39a37.85,37.85,0,0,1-1.66,5,32.06,32.06,0,0,1-5.45,8.83A26.93,26.93,0,0,1,178.13,242.57Z"/><path class="cls-28" d="M149.79,223.14c1.62,6.9,5.49,13.61,11.72,17a2.56,2.56,0,0,1-2.29-.41,22.61,22.61,0,0,1-4.93-3.82,6.44,6.44,0,0,0,1.84,2.88c-.16.21-.5.1-.72,0a11.87,11.87,0,0,1-3.88-5c-3.6-7.6-3.8-16.3-3.73-24.7a54.08,54.08,0,0,1,.41-7.43l.3.54c-.14-.25.27-.58.48-.35s-.12.71-.14.84c-.1,1-.1,2-.14,3-.08,1.93-.14,3.86-.13,5.8A53.29,53.29,0,0,0,149.79,223.14Z"/><path class="cls-29" d="M129.36,381.33a11.27,11.27,0,0,1-3.52,2.51"/><path class="cls-29" d="M129.41,379.79a13,13,0,0,1-3.24,2"/><path class="cls-29" d="M129.06,378.17a10.69,10.69,0,0,1-3.38,2.17"/><path class="cls-29" d="M128.47,377.26a13.69,13.69,0,0,1-2.31,1.43"/><path class="cls-29" d="M128.7,375.66a16.55,16.55,0,0,1-2.85,1.92"/><path class="cls-29" d="M203.69,436.74l0,3a1.35,1.35,0,0,0,.05.53.52.52,0,0,0,.38.35"/><path class="cls-29" d="M201.79,436.14a32.49,32.49,0,0,0,.43,3.27"/><path class="cls-29" d="M200,435.36a6.59,6.59,0,0,0,.45,3.39"/><path class="cls-29" d="M198.34,434.27c0,1.11,0,2.22.07,3.32"/><path class="cls-29" d="M197.68,433.67l-.48,3.07"/><path class="cls-29" d="M195.16,433.19a16.84,16.84,0,0,0-.56,3.31"/><path class="cls-29" d="M188.09,429.73c-.24.9-1,1.64-1.06,2.56a3,3,0,0,0,.29,1.49"/><path class="cls-29" d="M193.08,431.91l-.1,1.94a1.69,1.69,0,0,1-.35,1.14"/><path class="cls-29" d="M190.51,430.62a1.57,1.57,0,0,0-.69.73.6.6,0,0,0-.06.45c.09.24.38.32.53.52a.71.71,0,0,1-.08.82,2,2,0,0,1-.73.49"/><path class="cls-29" d="M186.28,429.55a7,7,0,0,0-.35,2.36"/><path class="cls-29" d="M184.54,429a13,13,0,0,0-.44,1.74c0,.26,0,.6.19.72"/><path class="cls-29" d="M182.18,428.52a5.38,5.38,0,0,0,.2,2.73"/><path class="cls-29" d="M180.42,427.07a14.24,14.24,0,0,0-.13,2.16c0,.3.05.66.31.8"/><path class="cls-29" d="M178.71,426c-.05.56-.23,1.1-.31,1.65a2.35,2.35,0,0,0,.25,1.63"/><path class="cls-29" d="M176.58,425.56a7.89,7.89,0,0,1-.31,1.58,2,2,0,0,0,.15,1.57"/><path class="cls-29" d="M175.14,424a8.72,8.72,0,0,1-.45,1.81,2.8,2.8,0,0,0,0,1.83"/><path class="cls-29" d="M173.38,423.91c-.4,1.22-1.68,2.07-1.82,3.34"/><path class="cls-29" d="M170.69,422.48a1.42,1.42,0,0,0-.47.88c-.05.3,0,.6-.05.9-.14.73-.84,1.2-1.49,1.59"/><path class="cls-29" d="M168.64,421.84c-.36-.1-.71.23-.81.59a4.48,4.48,0,0,0,0,1.1,1.08,1.08,0,0,1-.42,1"/><path class="cls-29" d="M166.33,420.72c-.8.64-1,1.93-1.89,2.4"/><path class="cls-29" d="M164.24,420.15c-.77.41-.72,1.67-1.5,2.06"/><path class="cls-29" d="M163,418.91c-.49,1-.95,2-1.36,3.07"/><path class="cls-29" d="M161.6,418l-1.07,2.77c-.06.15-.11.33,0,.45a.52.52,0,0,0,.3-.2"/><path class="cls-29" d="M160.55,417.41l-1,3.24"/><path class="cls-29" d="M159.2,416.79c-.46,1.09-.87,2.2-1.25,3.32"/><path class="cls-29" d="M157.69,416.37l-1.2,3.46a.11.11,0,0,0,0,.12s.1,0,.07,0"/><path class="cls-29" d="M156.59,416.25c-.46,1.13-.9,2.28-1.33,3.42a.17.17,0,0,0,0,.14c0,.05.1.05.11,0"/><path class="cls-29" d="M155.82,415.59,154.37,419"/><path class="cls-29" d="M154.73,414.5l-1.38,4"/><path class="cls-29" d="M153.45,414.61c-.46,1.3-.95,2.59-1.47,3.86l.26-.11"/><path class="cls-29" d="M152.37,413.47l-1.43,4.16"/><path class="cls-29" d="M151.34,413a45.45,45.45,0,0,1-1.48,4.59"/><path class="cls-29" d="M150,412.86l-1.41,3.94c0,.11,0,.27.07.29"/><path class="cls-29" d="M149.28,412.08l-1.21,3.08a1.56,1.56,0,0,0-.15.67"/><path class="cls-29" d="M148.44,411c-.56,1.29-1.08,2.59-1.56,3.91"/><path class="cls-29" d="M147.77,410.51a36.7,36.7,0,0,0-1.38,3.85"/><path class="cls-29" d="M146.37,410a28.18,28.18,0,0,0-1.28,3.93"/><path class="cls-29" d="M145.53,409.29a29,29,0,0,0-1.29,2.84"/><path class="cls-29" d="M144.54,408.32a16.82,16.82,0,0,0-1.73,3.57"/><path class="cls-29" d="M143.07,407.6a2,2,0,0,1-.4.87l-1.22,1.77"/><path class="cls-29" d="M142.45,406.58a26.07,26.07,0,0,0-2.28,3.42"/><path class="cls-29" d="M141.17,405.72,139,409.11"/><path class="cls-29" d="M140,404.7a14.17,14.17,0,0,1-2.52,3.34"/><path class="cls-29" d="M139.19,403.37c-.56.87-1.16,1.71-1.78,2.52"/><path class="cls-29" d="M138.11,403A6,6,0,0,0,137,404.7"/><path class="cls-29" d="M137.42,401.67a10.52,10.52,0,0,0-1.85,2.15"/><path class="cls-29" d="M136.08,400.09a19.4,19.4,0,0,0-2.82,3"/><path class="cls-29" d="M135.43,399.13a1.38,1.38,0,0,1-.49,1,27.43,27.43,0,0,1-2,1.91"/><path class="cls-29" d="M134.59,398.11a18.91,18.91,0,0,1-2.42,2.48"/><path class="cls-29" d="M134,397c.08.24-.14.46-.34.61l-2.07,1.57"/><path class="cls-29" d="M133.26,396.42l-2.06,1.39"/><path class="cls-29" d="M132.85,395.28a6.83,6.83,0,0,1-2.15,1.85"/><path class="cls-29" d="M132.47,394.87c-.71,0-1.12.82-1.78,1.09"/><path class="cls-29" d="M131.74,393.26a1,1,0,0,1-.38.77,4.31,4.31,0,0,1-1.5,1"/><path class="cls-29" d="M131.25,392.18a4.77,4.77,0,0,0-1.75,1.87"/><path class="cls-29" d="M131.05,390.51c-.87.51-1.71,1.06-2.53,1.65"/><path class="cls-29" d="M130.77,388.07a9.39,9.39,0,0,1-3.21,2.29"/><path class="cls-29" d="M130.4,387.21a7.07,7.07,0,0,1-2.16,1.6"/><path class="cls-29" d="M129.92,385.58,128,387.33"/><path class="cls-29" d="M129.86,384.31a23.28,23.28,0,0,1-2.48,1.94"/><path class="cls-29" d="M129.5,383.05l-2.6,2.12"/><path class="cls-29" d="M128.7,374.12l-2.86,1.67"/><path class="cls-29" d="M128.55,372.33l-2.15,1.35"/><path class="cls-29" d="M128.63,371a10.2,10.2,0,0,0-1.67,1"/><path class="cls-29" d="M128.7,369.63a6.45,6.45,0,0,1-3.62,1.64.14.14,0,0,1,.19,0,.32.32,0,0,1-.22.44"/><path class="cls-29" d="M128.15,368.05l-2.54,1.43"/><path class="cls-29" d="M128.39,366.93a11.14,11.14,0,0,1-1.59,1"/><path class="cls-29" d="M128.63,365.59a8.41,8.41,0,0,1-2,1.1"/><path class="cls-29" d="M128.63,364.24a12,12,0,0,1-2.7,1.58"/><path class="cls-29" d="M128.55,362.88l-3.5,1.43"/><path class="cls-29" d="M128.73,361.35a29.54,29.54,0,0,1-4.39,1.93"/></g></svg>