<svg xmlns="http://www.w3.org/2000/svg" xmlns:xlink="http://www.w3.org/1999/xlink" viewBox="0 0 331 438"><defs><style>.cls-1,.cls-6{fill:none;}.cls-2{fill:#6243cf;}.cls-3{fill:#fff;}.cls-4{fill:#6b84b5;}.cls-5{fill:#cfd5e0;}.cls-6{stroke:#cfd5e0;stroke-miterlimit:10;stroke-width:0.4px;}.cls-7{fill:#ccb48d;}.cls-8{opacity:0.35;}.cls-9{fill:#d6c5a9;}.cls-10{fill:#1a293f;}.cls-11{fill:#f5f6f7;}.cls-12{fill:#28323a;}.cls-13{fill:#f9efde;}.cls-14{fill:#ebdeca;}.cls-15{fill:#ffa445;}.cls-16{fill:#7d7f9e;}.cls-17{clip-path:url(#clip-path);}.cls-18{fill:#595b85;}.cls-19{fill:#221f10;}.cls-20{fill:#504e42;}.cls-21{fill:#404040;}.cls-22{fill:#0a0a0a;}.cls-23{fill:#d1e7fd;}.cls-24{fill:#729fcc;}</style><clipPath id="clip-path"><path class="cls-1" d="M267.86,321.1l-24.39-67.86a83.15,83.15,0,0,0-13.29-11.49,85.55,85.55,0,0,0-13.46-7.66c-2.32-1.05-4.69-2-7.09-2.84-1-.35-2.8-1.21-4.47-1.74-.58-.23-1.21-.46-1.88-.67-16.58-5.16-14.95,3.09-19.35,4.49-4,1.27-1.53,3.75-5.7,3.88-4.45.13-2.93-16.68-27.76-8.05h0a41.73,41.73,0,0,0-5.82,2.09q-3.62,1.26-7.09,2.84a85.55,85.55,0,0,0-13.46,7.66,83.15,83.15,0,0,0-13.29,11.49Q98.61,287.17,86.4,321.1c-1.34,3.73-2.7,7.59-2.53,11.56.16,3.45,1.46,6.72,2.75,9.93q3.91,9.75,7.84,19.5a193.31,193.31,0,0,0,7.83,17.74c2.13,4.06,5.38,6.73,9.33,9.62.07-3.32,3.27-5.5,6.19-7.08,2.59-1.39,8.65-2.6,11.63-1.14A136.64,136.64,0,0,0,127.77,361a21.82,21.82,0,0,0,3,1c11.09,2.89,19.42-.46,27.41.36,17.76,1.84,31.66,7.56,49,3.11,8.9-2.28,16.89-8.5,20.87-13.22-1.13,8.91-1.4,18-2.11,28,3-1.46,7.93.71,10.52,2.1,2.92,1.58,6.12,3.76,6.19,7.08,3.95-2.89,7.2-5.56,9.33-9.62a193.31,193.31,0,0,0,7.83-17.74l7.84-19.5c1.29-3.21,2.59-6.48,2.75-9.93C270.57,328.69,269.21,324.83,267.86,321.1Zm-32.55,4.61a1.23,1.23,0,0,1,0-.19l.07,0Z"/></clipPath></defs><g id="Layer_1" data-name="Layer 1"><rect class="cls-2" x="-57.89" y="45.94" width="452.21" height="342.54" transform="translate(385.42 48.99) rotate(90)"/></g><g id="Layer_2" data-name="Layer 2"><path class="cls-3" d="M267.86,321.1l-24.39-67.86a83.15,83.15,0,0,0-13.29-11.49,85.55,85.55,0,0,0-13.46-7.66c-2.32-1.05-4.69-2-7.09-2.84-1-.36-2.89-1.25-4.58-1.77-.56-.22-1.14-.44-1.77-.64a34.77,34.77,0,0,0-7.76-1.63c0-.23,0-.47-.09-.69,0-.05,0-.09,0-.13a6,6,0,0,0-.87-1.94,2.14,2.14,0,0,0-.13-.19c-.09-.12-.18-.23-.28-.34a4.13,4.13,0,0,0-.65-.6,2.85,2.85,0,0,1-.06.49,16.32,16.32,0,0,0-.63-2.17l.36-8.59a28.31,28.31,0,0,0,3.61-6.89,37.8,37.8,0,0,0,1-4.26h0a1.34,1.34,0,0,0,.9-.33,5.14,5.14,0,0,0,1.61-2.92,12,12,0,0,1,1-3.23,6.38,6.38,0,0,0,.61-1.08,3.54,3.54,0,0,0,.14-1.26,21,21,0,0,0-.57-4.59c-.21-.9-.69-1.95-1.62-2a1.89,1.89,0,0,0-1.56,1.12s0-.08,0-.12a4.27,4.27,0,0,0,.76-1,3.23,3.23,0,0,0,.21-.93,48.73,48.73,0,0,0-.05-8.28,30.56,30.56,0,0,0-1.27-6.18,25.35,25.35,0,0,0-1.74-4.71,8.56,8.56,0,0,1,1.13,2.43c0-3.21-.55-7.11-3.24-9.87a12.05,12.05,0,0,0-2.14-1.65,18.07,18.07,0,0,0-4.34-3,27.92,27.92,0,0,0-12.34-2.52,26.72,26.72,0,0,0-8.71,1.26,21.32,21.32,0,0,0-10.45,8.19,26.74,26.74,0,0,0-4,9.62,20.23,20.23,0,0,0-.35,10.77c.25,1,.9,2.9,2,3.1-.06.61-.17,1.59-.25,2.52a1.23,1.23,0,0,0-.78-.25c-.93,0-1.41,1.1-1.62,2a20.82,20.82,0,0,0-.57,4.59,3.57,3.57,0,0,0,.14,1.26,6.79,6.79,0,0,0,.61,1.08,12,12,0,0,1,1,3.23,5.17,5.17,0,0,0,1.61,2.92,1.45,1.45,0,0,0,.9.33l0,0a39.12,39.12,0,0,0,1.9,5.52,27.75,27.75,0,0,0,5.67,8.61c0,1.52,0,3.33,0,5.16a18.43,18.43,0,0,0-.5,2.32,3,3,0,0,1-.1-.5,4,4,0,0,0-.62.68,3.09,3.09,0,0,0-.26.37,1.37,1.37,0,0,0-.13.2,6.41,6.41,0,0,0-.75,2.08v.07a44.26,44.26,0,0,0-9.63,2.32h0a41.46,41.46,0,0,0-5.8,2.08q-3.62,1.26-7.09,2.84a85.55,85.55,0,0,0-13.46,7.66,83.15,83.15,0,0,0-13.29,11.49Q98.61,287.17,86.4,321.1c-1.34,3.73-2.7,7.59-2.53,11.56.16,3.45,1.46,6.72,2.75,9.93q3.91,9.75,7.84,19.5a193.31,193.31,0,0,0,7.83,17.74c2.13,4.06,5.38,6.73,9.33,9.62a5.44,5.44,0,0,1,1.12-3.13c.06.1.12.19.16.27a13.38,13.38,0,0,1,.58,1.35c.26-.22.55-.41.83-.62.11.26.25.51.36.77.63,1.59,1.08,3.25,1.61,4.87a86.93,86.93,0,0,0,5,11.75,9.78,9.78,0,0,1-.64,2.62,6.77,6.77,0,0,0-.79,1.54l-.42-.1a7.82,7.82,0,0,1-.6,2.61.34.34,0,0,0,.11.3c-.12.38-.24.76-.38,1.09a26.79,26.79,0,0,0-2.35,11.05c0,1,.23,1.92.16,2.88a13.17,13.17,0,0,1-.88,3.28,113.36,113.36,0,0,0-2.83,13h59.09c.8-5,1.63-10.14,2.55-15.73.44.89.9,7.67,1.46,15.73h54.77c-.67-11.18-1.46-21-1.19-22.28a30,30,0,0,0,.32-7.21c0-1.29-.09-2.57-.13-3.85.41,0,.85-.2.82-.58a8.09,8.09,0,0,1-.43-1.53,4.21,4.21,0,0,0,1-1.48,104,104,0,0,0,6.38-14.42c.52-1.62,1-3.27,1.61-4.86.06-.17.16-.32.23-.49a6.86,6.86,0,0,1,1,.86l1-1.08,0,0a5.59,5.59,0,0,1,1.34,3.42c3.95-2.89,7.2-5.56,9.33-9.62a193.31,193.31,0,0,0,7.83-17.74l7.84-19.5c1.29-3.21,2.59-6.48,2.75-9.93C270.57,328.69,269.21,324.83,267.86,321.1Zm-41.27,48.7q-.42-2.07-.87-4.14a95,95,0,0,1-1.33-9.67,36.11,36.11,0,0,0,3.66-3.7C227.33,358,227,363.77,226.59,369.8Zm8.71-44.07,0-.23h.07C235.37,325.57,235.34,325.65,235.3,325.73Z"/><path class="cls-3" d="M242.21,453.94H99.63l2.28-12.87a113.93,113.93,0,0,1,3.24-14.59c.07-.23.16-.48.25-.74h0c0-.45-.08-1-.1-1.64A36.9,36.9,0,0,1,108,409.69l.1-1,.43-1,.06-1.19,0,0-2.83-7.74-.6-.43c-4.35-3.18-9.27-7.1-12.57-13.39a199.42,199.42,0,0,1-8.29-18.74l-7.85-19.5C75,343,73.17,338.5,72.93,333.14c-.27-6.18,1.63-11.48,3.17-15.75l25.16-70,1.54-1.65a94.84,94.84,0,0,1,15-13A96.87,96.87,0,0,1,133,224.12c2.62-1.19,5.31-2.27,8-3.21l.88-.37a37.46,37.46,0,0,1,5.56-1.93c.77-.26,1.52-.5,2.26-.72a44.29,44.29,0,0,1-2.95-5.61c-.44-1-.86-2.05-1.25-3.17a16.58,16.58,0,0,1-3.81-7.32c-.08-.29-.15-.58-.21-.88l0-.1a13.93,13.93,0,0,1-1.1-2.33,14.34,14.34,0,0,1-.79-5.1,31.78,31.78,0,0,1,.88-7,15.86,15.86,0,0,1,.65-2.09,31.36,31.36,0,0,1,.38-16.42A37.54,37.54,0,0,1,147,155,32.34,32.34,0,0,1,163,142.64a37,37,0,0,1,12.25-1.86h0a38.52,38.52,0,0,1,17.2,3.65,29.22,29.22,0,0,1,6.19,4.14,21.71,21.71,0,0,1,3.28,2.71c5.37,5.51,6.16,12.51,6.31,16l.22.76a41,41,0,0,1,1.66,8.39q.21,2.82.24,5.16a14.77,14.77,0,0,1,1.77,4.33,32,32,0,0,1,.88,7,13.52,13.52,0,0,1-1.89,7.43l0,.1c-.06.29-.13.59-.21.88a18,18,0,0,1-2,4.87l.22,13.05c1.24.42,2.39.9,3.26,1.26.35.15.66.28.91.37,2.68.94,5.37,2,8,3.21a96.87,96.87,0,0,1,15.19,8.64,94.84,94.84,0,0,1,15,13L253,247.4l25.16,70c1.53,4.27,3.44,9.57,3.17,15.76-.24,5.35-2.06,9.88-3.53,13.52L270,366.17a200.26,200.26,0,0,1-8.29,18.74c-3.3,6.29-8.22,10.21-12.57,13.39l-3.49,2.54c-1.34,3.17-2.83,6.18-4.31,9.11a10.8,10.8,0,0,1-.67,3.09v.07a43.39,43.39,0,0,1-.37,8.88c0,1.78.35,6.7.64,11.09.18,2.86.39,6,.59,9.25ZM186,432H218.9c-.63-9.75-.67-11.5-.25-13.54a23.29,23.29,0,0,0,.1-4.62l-.29-8.27L218,403l.38-.3-.11-3.13,3.26-.26-2.32-11.23-1.56,3.45.75-7.38L215.87,372c-.28-1.34-.57-2.69-.86-4a85.17,85.17,0,0,1-1.33-9.19l-.79-7.23,4.24-3.76a25.31,25.31,0,0,0,2.55-2.57l3-3.55,1.76-17.42.93-8.09,6-1.08,18.5-11.68L234,259.15a73.1,73.1,0,0,0-10-8.41,74.24,74.24,0,0,0-11.73-6.68c-.89-.4-1.79-.79-2.7-1.16l.22,13.52-4.06-15-1.71-.69c-.48-.2-1.05-.44-1.54-.62l-5.9,47.41-13.78-61.35c-.07-.28-.14-.52-.21-.73l-.78-2.08.32-7.69L181.14,200l4.82,3.73a7.26,7.26,0,0,0,.32-.78,23.39,23.39,0,0,0,.63-2.88l1.08-6.21-1.18-9.59,1.62-2c0-1-.05-2.41-.18-4.17a21.94,21.94,0,0,0-.88-4,18.1,18.1,0,0,0-.92-2.64l4.31-2.54-4.42.07a10.26,10.26,0,0,0-.25-2.42l-.9-.56-.79-.74a7,7,0,0,0-1.69-1.18,17.06,17.06,0,0,0-7.49-1.38h0a15.69,15.69,0,0,0-5.1.66,10.35,10.35,0,0,0-5,4,15.79,15.79,0,0,0-2.33,5.7l-.15.71-.24.69a3.61,3.61,0,0,0-.15.57l3.45.61-1.09,10.68c-.05.52-.12,1.19-.18,1.83l-.49,5.61,1.53,5.74a27.6,27.6,0,0,0,1.34,3.91c.09.22.19.44.29.65l5.32-4.76.2,11.82.8.8v11.25L173,224.7a5.16,5.16,0,0,0-.17.84l-9.16,61.94L154,239.55l-.69.24-.74.14c-.48.13-1.6.59-2.21.85-.8.33-1.52.62-2.06.81-2.08.72-4.15,1.56-6.17,2.47a73.79,73.79,0,0,0-11.73,6.68,72.51,72.51,0,0,0-10,8.41L96.71,324.8c-1,2.71-2,5.51-1.89,7.38.07,1.61,1,4,2,6.32l7.84,19.5c1.84,4.58,3.6,9,5.58,13.15l3-4.21,3.21,5,2.22-1.7,5.59,12.57c.22.44.4.83.56,1.23.62,1.56,1.06,3,1.45,4.26l.42,1.31a75.56,75.56,0,0,0,4.43,10.27l1.55,3.12-.54,3.45A17.2,17.2,0,0,1,130,413l-.62,1.94a19.68,19.68,0,0,1-.74,2.07,16.09,16.09,0,0,0-1.48,6.49c0,.07,0,.2,0,.34a19.61,19.61,0,0,1,.11,3.55,18.42,18.42,0,0,1-.94,4.61h36.06c.34-2.13.7-4.31,1.07-6.56L169,392l15.1,30.37C185.09,424.29,185.47,425.88,186,432Zm51.49-60.61,1.59,1.16,3-3.12,1.75,2.18c2.09-4.34,3.91-8.88,5.83-13.65l7.84-19.5c.93-2.31,1.89-4.71,2-6.32.09-1.87-.92-4.67-1.89-7.38L253.31,313l-8,17.24-4.73,10.47-1.65,13c-.67,5.32-1,10.74-1.38,16.78Zm-51-204.63Z"/><path class="cls-4" d="M230.57,443H175.8c-.56-8.06-1-14.84-1.46-15.73-.92,5.59-1.75,10.72-2.55,15.73H112.7a113.36,113.36,0,0,1,2.83-13,13.17,13.17,0,0,0,.88-3.28c.07-1-.14-1.92-.16-2.88a26.79,26.79,0,0,1,2.35-11.05c.7-1.65,1-4,2.08-5.44a17.68,17.68,0,0,0,.87-4.58c.13-2.49-1.16-4.78-.75-7.24l2-11.57c1.36-8,3.49-18.45,5.07-26.42,5.17.94,9.64,3.59,14.89,3.23,3.27-.23,6.5-1,9.77-1.14,8.41-.46,16.73,2.74,25.12,2,5.64-.5,11-2.78,16.61-3.44,2.62-.3,5.26-.25,7.88-.46a41.15,41.15,0,0,0,21.34-8.05c1.18,5.44,1.11,10.57,2.29,16,.92,4.24,1.84,8.48,2.37,12.79s.68,8.55.83,12.84l.78,22.21a30,30,0,0,1-.32,7.21C229.11,422,229.9,431.81,230.57,443Z"/><path class="cls-5" d="M138.41,406.22c-2.46,2.12-5.4,4.23-8.62,4.88A57.87,57.87,0,0,1,120,412c-.48,0-1.13-.14-1.08-.59a7.82,7.82,0,0,0,.6-2.61,17.57,17.57,0,0,0,13.71-1.9c.94-.58,1.82-1.25,2.69-1.91a17.93,17.93,0,0,0,5.21-6.66,35.34,35.34,0,0,0,2.63-8.1c.36-2.22,1-4.84,1.41-7.05.84-4.16.22-8.21.57-12.44a9.7,9.7,0,0,0,3,0c.52,5.4-.55,10.82-1.62,16.15C145.73,393.71,144,401.4,138.41,406.22Z"/><path class="cls-5" d="M211.76,404c2.34,2.12,5.14,4.22,8.21,4.87a54.55,54.55,0,0,0,9.39.84c.45,0,1.07-.14,1-.59a7.78,7.78,0,0,1-.57-2.61,16,16,0,0,1-13.07-1.87,31.66,31.66,0,0,1-2.57-1.91,17.67,17.67,0,0,1-5-6.64,36.91,36.91,0,0,1-2.49-8.09c-.34-2.22-.91-4.84-1.33-7.05-.79-4.16-.18-8.21-.51-12.44a8.56,8.56,0,0,1-2.9,0c-.51,5.41.5,10.82,1.5,16.14C204.8,391.46,206.44,399.15,211.76,404Z"/><path class="cls-5" d="M149.67,359.78a2,2,0,0,0,0,.92,33.09,33.09,0,0,1,.33,4.66c-.05,2-.47,4.05-.4,6.08a24.53,24.53,0,0,0,.28,2.69l.26,1.87a.51.51,0,0,0,.07.24.62.62,0,0,0,.29.21,4,4,0,0,0,3.12,0,3.42,3.42,0,0,1-.12-2.39,39.08,39.08,0,0,0,0-5.19c0-1.79.31-3.57.27-5.36a39.67,39.67,0,0,1,.09-4.64,5.91,5.91,0,0,0-2.42.07C150.78,359,149.93,359.11,149.67,359.78Z"/><path class="cls-5" d="M200.77,357.9a1.9,1.9,0,0,1,0,.92,34.65,34.65,0,0,0-.33,4.66c.05,2,.47,4,.41,6.08a26.94,26.94,0,0,1-.28,2.69l-.27,1.87a.51.51,0,0,1-.07.24.62.62,0,0,1-.29.21,4,4,0,0,1-3.12,0,3.48,3.48,0,0,0,.13-2.39,37.45,37.45,0,0,1,0-5.19c0-1.79-.31-3.57-.27-5.36a37.6,37.6,0,0,0-.09-4.64A5.91,5.91,0,0,1,199,357C199.66,357.16,200.51,357.23,200.77,357.9Z"/><path class="cls-6" d="M125.2,370.72c6.49.89,9.27,1.28,15.8.81,2-.14,4-.41,6-.45,1.34,0,2.67.05,4,.12,3,.18,6.23.05,9.3.05,4.63,0,9.2.16,13.83.1,9.51-.13,39.37-2.16,51.5-6.23"/><path class="cls-6" d="M184.52,371.42c-3.19,11-1.37,21-1.6,30.15,0,2.28-.28,4.7-1.67,6.49-1.93,2.48-5.45,3-8.59,2.95a12.3,12.3,0,0,1-.44,2.93,16.85,16.85,0,0,0,6.36-1.22,9.84,9.84,0,0,0,4.81-4.21c1.43-2.65,1.28-5.83,1.09-8.84l-.61-9.51a34.29,34.29,0,0,1-.08-4.86c.12-1.51.45-3,.58-4.49a31.23,31.23,0,0,1,.55-5.48c.36-1.33,1.06-2.61,1-4"/><path class="cls-1" d="M244.24,258l-2.91,7.64"/><path class="cls-7" d="M193.2,211.18l-.79,18.93-8.72,33.13-21.18-33.13s-.11-16.83,0-17.29l22.56-1.21Z"/><g class="cls-8"><polygon class="cls-9" points="193.2 211.18 192.41 230.11 183.77 237.58 174.62 230.11 163.01 217.86 185.07 211.61 193.2 211.18"/></g><path class="cls-9" d="M198.54,196.24a74.86,74.86,0,0,1-1.8,9.92,28.36,28.36,0,0,1-6.09,9.88s-5.35,5.12-8.53,6.28a21.38,21.38,0,0,1-6.94.67,1.67,1.67,0,0,1-1.73-1.27c-.82,0-1.48-1.56-2.16-2.06l-4.85-4.35c-2.47-1.84-3.77-3-4.15-6.2l-2.63-3.42c-.09-.7,3.68-2,3.3-2.58l-4.33-5.39c-.5-.76,1.56-5.27,1.48-6.29-.11-1.33-4.82-7.54-4.79-9.83a4.68,4.68,0,0,1,.24-1.44l2.7-7.88a4.27,4.27,0,0,1,1.55-2.12l14.77-10.61a4,4,0,0,1,1.36-.63,3.87,3.87,0,0,1,1.66,0l12.65,2.64a4.18,4.18,0,0,1,3.14,3.13l3.15,12.5a4.06,4.06,0,0,1,.13,1S199.38,190.57,198.54,196.24Z"/><path class="cls-7" d="M175.18,223a29.17,29.17,0,0,1-4-.88c-1.4-.49-7-4.1-6.7-3.87-2.47-1.84-5.31-5-7.71-10.39-2.93-6.63-3.63-15.06-3.72-16.09-.11-1.33,1.3-8.19,1.33-10.48,0-.49,1-.66,1.16-1.12l2.7-7.88a4.27,4.27,0,0,1,1.55-2.12l14.77-10.61a4,4,0,0,1,1.36-.63c0,4-2,6.44-1.67,12.1,0,.64.13,2.77.21,6.09,0,.35-.65.46-.6,1.41,0,.6.64,1,.65,1.31,0,.65,0,.13,0,.83,0,.29-.42.58-.48,1.12-.1.88.5,1.08.5,1.38,0,2.9,0,6,0,8.83a74.86,74.86,0,0,0,.08,10c.06.5-3.17-1.74-2.57.92.29,1.28,3.52,3.86,3.25,4.62-.73,2.11.84,4.07.64,5.2s-1,2.36-1.17,3.68A16.1,16.1,0,0,0,175.18,223Z"/><path class="cls-10" d="M174.35,204.93l-2.07-1.82-3.09,1.22a4.83,4.83,0,0,0-2.24,2l-.93,1.53a3,3,0,0,1-1.06,1.05c-.69.41-1.42.89-2,.72a2.86,2.86,0,0,0,2.81,1.24c1.31-.26,1.57-1.28,2.9-1.44,1.11-.14,2.26,1.05,4.16,1.31l.46.06c.38.05.74.08,1.08.11l1,0c.44,0,.86,0,1.25,0s.87-.06,1.25-.11a9.79,9.79,0,0,0,1.63-.35,7.57,7.57,0,0,0,1-.37c1.2-.54,1.73-1.1,2.33-1,.77.2,1.24,1.05,2.08,1.54a3.48,3.48,0,0,0,3.6-.47,6.88,6.88,0,0,1-1.79-1,2.25,2.25,0,0,1-.69-1l-.65-1.64a4.32,4.32,0,0,0-1.56-1.75,10.12,10.12,0,0,0-4-1.66l-1.71,1.79A3.52,3.52,0,0,1,174.35,204.93Z"/><path class="cls-10" d="M182.79,184.35c2.36-1.68,5.74-4.22,8.35-2.49a10.18,10.18,0,0,1,3.2,3.2,9.51,9.51,0,0,1,.94,1.83c-.11,1.34-1.1.71-1.75-.12-1.39-1.76-3-3-4.39-2.55-2,.47-8.14,4.32-8.94,4.68s-1.66-.86-1.57-1.21C178.8,187.08,182,185,182.79,184.35Z"/><path class="cls-10" d="M169.54,184.56c-2.48-1.51-6.06-3.82-8.52-1.91a10.09,10.09,0,0,0-3,3.4,10,10,0,0,0-.79,1.89c.21,1.33,1.15.63,1.74-.24,1.24-1.85,2.75-3.16,4.18-2.84,2.07.33,8.45,3.75,9.28,4.07s1.59-1,1.46-1.32C173.73,187,170.41,185.1,169.54,184.56Z"/><path class="cls-10" d="M174.82,191.91l0,.22v.16l0,.32,0,.63.05,1.25.09,2.5.17,5,0,.75-.77-.18h0l-2.28-.91.35-.19h0l-.37,1.12,0-.22a8.55,8.55,0,0,0,1.45,1.9,7.51,7.51,0,0,0,1.94,1.39,1.88,1.88,0,0,0,1,.2,1.93,1.93,0,0,0,1-.44c.61-.48,1-1.19,1.71-1.79l.38.43c-.57.51-1,1.25-1.73,1.81a2.36,2.36,0,0,1-2.63.31,7.88,7.88,0,0,1-2.1-1.5,8.75,8.75,0,0,1-1.56-2l-.05-.1,0-.12.37-1.12h0l.05-.22.3,0,2.43.32h0L174,202l.14-5,.06-2.5,0-2.41Z"/><path class="cls-11" d="M191.12,189.72s-4.33-.6-5.93-.08a10.31,10.31,0,0,0-2.94,1.69c-.38.23-1.15.76-.88,1s.95.14,1.48.36,4.89,1.08,7-.26S191.12,189.72,191.12,189.72Z"/><ellipse class="cls-12" cx="186.13" cy="191.33" rx="1.93" ry="1.56"/><path class="cls-10" d="M180.75,190.18A8.74,8.74,0,0,1,182,188.8l.37-.31a4.37,4.37,0,0,1,.42-.28,8.61,8.61,0,0,1,.85-.49,8.51,8.51,0,0,1,1.94-.65,13.76,13.76,0,0,1,2-.27,11.87,11.87,0,0,1,2.06,0,6.92,6.92,0,0,1,2.09.5,2.88,2.88,0,0,1,1,.67,1.39,1.39,0,0,1,.37,1.28,1.6,1.6,0,0,1-1,1,2.69,2.69,0,0,1-1.35.19h-.07l-.06,0c-.75-.2-1.57-.38-2.36-.52a10.31,10.31,0,0,0-2.41-.14,5.28,5.28,0,0,0-2.27.69,9.5,9.5,0,0,0-1,.68,7.8,7.8,0,0,1-1.08.63h0c-.15.11-.25.3-.17.36a1.32,1.32,0,0,0,.57.15c.47.1.91.22,1.36.29a10,10,0,0,0,2.73.17,11.12,11.12,0,0,0,2.63-.57,4.45,4.45,0,0,0,2-1.24l1.07.83A7.31,7.31,0,0,1,189,193a16.37,16.37,0,0,1-2.88.31,12.11,12.11,0,0,1-2.83-.34l-1.35-.33a1.48,1.48,0,0,1-.73-.25.37.37,0,0,1,0-.42,1.08,1.08,0,0,1,.24-.28h0a5.55,5.55,0,0,0,1-.62c.31-.23.61-.51.95-.75a6.92,6.92,0,0,1,2.36-1.05,10.07,10.07,0,0,1,2.68-.2,14.93,14.93,0,0,1,2.64.35l-.13,0c.45,0,.72-.16.75-.31s-.1-.4-.62-.62a8.85,8.85,0,0,0-3.45-.53,12.45,12.45,0,0,0-1.84.14,8.55,8.55,0,0,0-.88.17,7,7,0,0,0-.85.27,6.58,6.58,0,0,0-.82.36l-.39.2-.36.24a10.5,10.5,0,0,0-1.35,1.13Z"/><path class="cls-10" d="M181.31,192.73a12.58,12.58,0,0,1,1.49,1,4.28,4.28,0,0,0,1.51.75,4.8,4.8,0,0,0,1.69,0,6,6,0,0,0,1.6-.47.61.61,0,0,1,.77.2.46.46,0,0,1-.24.67l-.08,0a7.36,7.36,0,0,1-2,.31,5.2,5.2,0,0,1-2-.31,3.29,3.29,0,0,1-.85-.45c-.24-.19-.45-.38-.66-.58A12.84,12.84,0,0,0,181.31,192.73Z"/><path class="cls-11" d="M161.4,190.36s4.31-.64,5.93-.19a10.55,10.55,0,0,1,3,1.53c.39.21,1.17.69.91.92s-.95.16-1.48.37-4.85,1.12-7-.1S161.4,190.36,161.4,190.36Z"/><ellipse class="cls-12" cx="166.44" cy="191.78" rx="1.93" ry="1.46" transform="translate(-1.06 0.92) rotate(-0.32)"/><path class="cls-10" d="M171.41,190.82a11.29,11.29,0,0,0-1.4-1l-.37-.21-.39-.18c-.28-.12-.56-.23-.83-.32s-.57-.16-.86-.22a8.49,8.49,0,0,0-.88-.14,13.78,13.78,0,0,0-1.82-.09,9.52,9.52,0,0,0-3.42.56,1.69,1.69,0,0,0-.54.32c-.1.1-.11.17-.09.22s.31.31.77.26l-.12,0a14.44,14.44,0,0,1,2.6-.38,10.81,10.81,0,0,1,2.66.14,7.21,7.21,0,0,1,2.4.94c.35.22.67.48,1,.7a6.46,6.46,0,0,0,1,.57h0a.84.84,0,0,1,.25.28.32.32,0,0,1,.06.2.35.35,0,0,1-.12.21,1.75,1.75,0,0,1-.71.24l-1.34.33a13.68,13.68,0,0,1-2.8.38,17.24,17.24,0,0,1-2.86-.23,7.4,7.4,0,0,1-2.84-1l1-.88a4.64,4.64,0,0,0,2.07,1.15,12.1,12.1,0,0,0,2.63.49,10.66,10.66,0,0,0,2.7-.2c.45-.08.89-.2,1.35-.3a1.63,1.63,0,0,0,.58-.16c.1,0,0-.21-.16-.32h0a8.2,8.2,0,0,1-1.1-.57,9,9,0,0,0-1-.63,5.5,5.5,0,0,0-2.29-.58,10.81,10.81,0,0,0-2.4.2c-.78.14-1.59.33-2.34.53l-.05,0h-.07a2.91,2.91,0,0,1-1.32-.14,1.6,1.6,0,0,1-1-1,1.29,1.29,0,0,1,.38-1.3,2.36,2.36,0,0,1,.5-.38,3.89,3.89,0,0,1,.5-.25,7.29,7.29,0,0,1,2.05-.49,13.71,13.71,0,0,1,2-.08,16.74,16.74,0,0,1,2,.21,8.9,8.9,0,0,1,1,.24,8.77,8.77,0,0,1,.94.33,7.07,7.07,0,0,1,.87.44c.13.07.28.15.43.25a4,4,0,0,1,.39.29,8.27,8.27,0,0,1,1.28,1.3Z"/><path class="cls-10" d="M171.29,193A13.58,13.58,0,0,0,170,194.1a6.27,6.27,0,0,1-.67.57,3.18,3.18,0,0,1-.84.43,5.45,5.45,0,0,1-1.92.32,7.59,7.59,0,0,1-2-.23.49.49,0,0,1-.39-.62.6.6,0,0,1,.71-.34l.09,0a6.38,6.38,0,0,0,1.6.42,4.93,4.93,0,0,0,1.67,0,3.86,3.86,0,0,0,1.5-.72A16,16,0,0,1,171.29,193Z"/><path class="cls-13" d="M150.39,410.12a.81.81,0,0,1-.26.35c-1.75,1.52-4.65,1-6.29-.58a12.55,12.55,0,0,1-1.18-1.44l-3.06-4.17a29.9,29.9,0,0,1-11.88,4.85l-1.08.17a3.91,3.91,0,0,1-2.94-.44,4,4,0,0,1-1-1.48A102.77,102.77,0,0,1,116.28,393c-.53-1.62-1-3.28-1.61-4.87a39.54,39.54,0,0,0-2.7-5.21c-1-1.62-.53-2.44.48-4a11.77,11.77,0,0,1,1.64-1.95,11.51,11.51,0,0,1,5.82-3,1.14,1.14,0,0,1,.45,0c.31.06.5.35.67.62l3.65,5.87a25.74,25.74,0,0,0,2.82,4,12.92,12.92,0,0,0,3.63,2.77,52.67,52.67,0,0,1,4.92,2.32c3.4,2.21,4.83,6.39,7.29,9.61,1.13,1.48,2.5,2.77,3.61,4.26a20.5,20.5,0,0,1,1.5,2.4c.68,1.26,1.27,2.58,1.84,3.89h0A.87.87,0,0,1,150.39,410.12Z"/><path class="cls-14" d="M127.72,409.13l-1.08.17a3.91,3.91,0,0,1-2.94-.44,4,4,0,0,1-1-1.48A102.77,102.77,0,0,1,116.28,393c-.53-1.62-1-3.28-1.61-4.87a39.54,39.54,0,0,0-2.7-5.21c-1-1.62-.53-2.44.48-4a11.77,11.77,0,0,1,1.64-1.95c0,.12,0,.21,0,.3-.16,3.94,2.63,7.36,3.6,11.18.82,3.28.32,6.91,1.9,9.9.47.91,1.12,1.7,1.66,2.57.79,1.25,1.34,2.64,2.18,3.85A27.46,27.46,0,0,0,127.72,409.13Z"/><path class="cls-3" d="M147.35,409.32a4.73,4.73,0,0,1-.66-.75,3.07,3.07,0,0,1-.49-.79,1.09,1.09,0,0,1,0-.9,1.66,1.66,0,0,1,.89-.64l1.1-.47a.41.41,0,0,1,.62.22l1.21,1.83a3,3,0,0,1,.44.82C151,410.38,148.12,410,147.35,409.32Z"/><path class="cls-15" d="M113.48,387.94a33.06,33.06,0,0,1,9.68-5.26,10.2,10.2,0,0,1,3.27-.85l-.16-1.48a.62.62,0,0,0-.12-.38.68.68,0,0,0-.47-.14,20.53,20.53,0,0,0-7.34,1.12,15.74,15.74,0,0,0-4.61,2.58c-.47.39-1.6,1.13-1.52,1.79,0,.37.52.92.69,1.27A13.38,13.38,0,0,1,113.48,387.94Z"/><path class="cls-13" d="M203.27,408.78a.74.74,0,0,0,.26.35c1.74,1.52,4.64,1.06,6.29-.57a11.5,11.5,0,0,0,1.17-1.44l3.07-4.17a30,30,0,0,0,11.88,4.86c.36.06.71.12,1.07.16a3.89,3.89,0,0,0,3-.43,4.12,4.12,0,0,0,1-1.48,104,104,0,0,0,6.38-14.42c.52-1.62,1-3.27,1.61-4.86a39.66,39.66,0,0,1,2.7-5.22c1-1.62.53-2.43-.48-4a11.64,11.64,0,0,0-1.63-1.94,11.49,11.49,0,0,0-5.82-3.05,1.19,1.19,0,0,0-.46,0,1.22,1.22,0,0,0-.67.62c-1.22,2-2.43,3.92-3.65,5.87a26.24,26.24,0,0,1-2.82,3.95,13.11,13.11,0,0,1-3.63,2.77,54,54,0,0,0-4.93,2.31c-3.39,2.21-4.82,6.39-7.29,9.61-1.13,1.48-2.5,2.77-3.61,4.26a19.21,19.21,0,0,0-1.51,2.39c-.68,1.26-1.26,2.58-1.83,3.89h0A.72.72,0,0,0,203.27,408.78Z"/><path class="cls-14" d="M225.94,407.81c.36.06.71.12,1.07.16a3.89,3.89,0,0,0,3-.43,4.12,4.12,0,0,0,1-1.48,104,104,0,0,0,6.38-14.42c.52-1.62,1-3.27,1.61-4.86a39.66,39.66,0,0,1,2.7-5.22c1-1.62.53-2.43-.48-4a11.64,11.64,0,0,0-1.63-1.94c0,.11,0,.21,0,.3.16,3.94-2.63,7.35-3.6,11.18-.83,3.27-.33,6.91-1.9,9.9-.48.9-1.13,1.7-1.67,2.56-.79,1.25-1.35,2.64-2.19,3.85A27,27,0,0,1,225.94,407.81Z"/><path class="cls-3" d="M206.3,408a4.74,4.74,0,0,0,.67-.75,2.93,2.93,0,0,0,.48-.79,1.13,1.13,0,0,0,0-.9,1.72,1.72,0,0,0-.9-.65l-1.1-.46a.51.51,0,0,0-.3-.06c-.14,0-.23.15-.31.27l-1.22,1.83a3.67,3.67,0,0,0-.44.83C202.65,409,205.53,408.65,206.3,408Z"/><path class="cls-15" d="M227.23,381.15a33.29,33.29,0,0,1,10.26,4,10.13,10.13,0,0,1,2.75,2l1-1.08a.69.69,0,0,0,.21-.33.62.62,0,0,0-.2-.45,20.58,20.58,0,0,0-5.57-4.91,15.66,15.66,0,0,0-4.94-1.87c-.6-.11-1.9-.5-2.35,0a5.83,5.83,0,0,0-.53,1.36C227.69,380.29,227.47,380.73,227.23,381.15Z"/><path class="cls-16" d="M110.8,253.24,86.4,321.1c-1.34,3.73-2.7,7.59-2.53,11.56.16,3.45,1.46,6.72,2.75,9.93l7.84,19.5a193.31,193.31,0,0,0,7.83,17.74c2.13,4.06,5.38,6.73,9.33,9.62.07-3.32,3.27-5.5,6.19-7.08,2.59-1.39,8.65-2.6,11.63-1.14-.47-21.65-3.37-31.54-11.76-49.71,2.64-3.8,11-23.17,12.45-24.08,13.79-8.67,11.91-3.06,16.91-18.56,2.81-8.71,3.88-17.88,4.7-27q.81-9,1.31-18c.15-2.72,2.31-13.76-1.07-14.72-1.74-.5-5.67,1.51-7.34,2.1q-3.62,1.26-7.09,2.84a85.55,85.55,0,0,0-13.46,7.66A83.15,83.15,0,0,0,110.8,253.24Z"/><path class="cls-16" d="M243.47,253.24l24.39,67.86c1.35,3.73,2.71,7.59,2.54,11.56-.16,3.45-1.46,6.72-2.75,9.93l-7.84,19.5A193.31,193.31,0,0,1,252,379.83c-2.13,4.06-5.38,6.73-9.33,9.62-.07-3.32-3.27-5.5-6.19-7.08-2.59-1.39-7.54-3.56-10.52-2.1,1.42-20,1.07-36.6,9.46-54.77-1.44.91-23.17-21.12-28.17-36.62-2.81-8.71-3.88-17.88-4.7-27q-.81-9-1.31-18c-.16-2.72-2.32-13.76,1.07-14.72,1.74-.5,5.67,1.51,7.34,2.1,2.4.84,4.77,1.79,7.09,2.84a85.55,85.55,0,0,1,13.46,7.66A83.15,83.15,0,0,1,243.47,253.24Z"/><path class="cls-16" d="M119.91,300.53c-.48,15.84-6.35,42.33,2.06,55.76,2,3.24,5.15,4.78,8.85,5.75,11.09,2.89,19.42-.46,27.41.36,17.76,1.84,31.66,7.56,49,3.11,11.86-3.05,22.12-13.09,23.39-17.23,3.46-11.26,6.48-27.36,4.83-39s-9.58-23.64-9.77-35.41-8.58-17.83-1.26-27.05c-11.68-5.35-8.83-14.15-21.09-18-16.58-5.16-14.95,3.09-19.35,4.49-4,1.27-1.53,3.75-5.7,3.88-4.45.13-2.93-16.68-27.76-8.05-8.59,3-2.61,10-7.84,13.47a56.81,56.81,0,0,1-14.26,6.58c-3.49,1.12-9.51,1.49-11.71,4.87s.82,8.58,1.59,12.06a88,88,0,0,1,1.86,16.26C120.3,288.44,120.09,294.49,119.91,300.53Z"/><g class="cls-17"><polygon class="cls-18" points="76.54 218.05 84.16 227.63 77.56 237.94 69.94 228.35 76.54 218.05"/><polygon class="cls-18" points="90.76 217.32 98.38 226.9 91.78 237.21 84.16 227.63 90.76 217.32"/><polygon class="cls-18" points="104.98 216.59 112.6 226.17 106 236.48 98.38 226.9 104.98 216.59"/><polygon class="cls-18" points="119.2 215.87 126.81 225.45 120.21 235.76 112.6 226.17 119.2 215.87"/><polygon class="cls-18" points="133.41 215.14 141.03 224.72 134.43 235.03 126.81 225.45 133.41 215.14"/><polygon class="cls-18" points="147.63 214.41 155.25 223.99 148.65 234.3 141.03 224.72 147.63 214.41"/><polygon class="cls-18" points="161.85 213.68 169.47 223.27 162.87 233.57 155.25 223.99 161.85 213.68"/><polygon class="cls-18" points="77.56 237.94 85.17 247.52 78.58 257.83 70.96 248.25 77.56 237.94"/><polygon class="cls-18" points="91.78 237.21 99.39 246.79 92.79 257.1 85.17 247.52 91.78 237.21"/><polygon class="cls-18" points="106 236.48 113.61 246.06 107.01 256.37 99.39 246.79 106 236.48"/><polygon class="cls-18" points="120.21 235.76 127.83 245.34 121.23 255.65 113.61 246.06 120.21 235.76"/><polygon class="cls-18" points="134.43 235.03 142.05 244.61 135.45 254.92 127.83 245.34 134.43 235.03"/><polygon class="cls-18" points="148.65 234.3 156.27 243.88 149.67 254.19 142.05 244.61 148.65 234.3"/><polygon class="cls-18" points="162.87 233.57 170.49 243.16 163.89 253.47 156.27 243.88 162.87 233.57"/><polygon class="cls-18" points="78.58 257.83 86.19 267.41 79.59 277.72 71.97 268.14 78.58 257.83"/><polygon class="cls-18" points="92.79 257.1 100.41 266.68 93.81 276.99 86.19 267.41 92.79 257.1"/><polygon class="cls-18" points="107.01 256.37 114.63 265.95 108.03 276.26 100.41 266.68 107.01 256.37"/><polygon class="cls-18" points="121.23 255.65 128.85 265.23 122.25 275.54 114.63 265.95 121.23 255.65"/><polygon class="cls-18" points="135.45 254.92 143.07 264.5 136.47 274.81 128.85 265.23 135.45 254.92"/><polygon class="cls-18" points="149.67 254.19 157.28 263.77 150.68 274.08 143.07 264.5 149.67 254.19"/><polygon class="cls-18" points="163.89 253.47 171.5 263.05 164.9 273.36 157.28 263.77 163.89 253.47"/><polygon class="cls-18" points="79.59 277.72 87.21 287.3 80.61 297.61 72.99 288.03 79.59 277.72"/><polygon class="cls-18" points="93.81 276.99 101.43 286.57 94.83 296.88 87.21 287.3 93.81 276.99"/><polygon class="cls-18" points="108.03 276.26 115.65 285.85 109.05 296.15 101.43 286.57 108.03 276.26"/><polygon class="cls-18" points="122.25 275.54 129.87 285.12 123.26 295.43 115.65 285.85 122.25 275.54"/><polygon class="cls-18" points="136.47 274.81 144.08 284.39 137.48 294.7 129.87 285.12 136.47 274.81"/><polygon class="cls-18" points="150.68 274.08 158.3 283.66 151.7 293.97 144.08 284.39 150.68 274.08"/><polygon class="cls-18" points="164.9 273.36 172.52 282.94 165.92 293.25 158.3 283.66 164.9 273.36"/><polygon class="cls-18" points="80.61 297.61 88.23 307.19 81.63 317.5 74.01 307.92 80.61 297.61"/><polygon class="cls-18" points="94.83 296.88 102.44 306.46 95.84 316.77 88.23 307.19 94.83 296.88"/><polygon class="cls-18" points="109.05 296.15 116.66 305.74 110.06 316.04 102.44 306.46 109.05 296.15"/><polygon class="cls-18" points="123.26 295.43 130.88 305.01 124.28 315.32 116.66 305.74 123.26 295.43"/><polygon class="cls-18" points="137.48 294.7 145.1 304.28 138.5 314.59 130.88 305.01 137.48 294.7"/><polygon class="cls-18" points="151.7 293.97 159.32 303.55 152.72 313.86 145.1 304.28 151.7 293.97"/><polygon class="cls-18" points="165.92 293.25 173.54 302.83 166.94 313.14 159.32 303.55 165.92 293.25"/><polygon class="cls-18" points="175.93 213.03 183.55 222.61 176.95 232.92 169.33 223.34 175.93 213.03"/><polygon class="cls-18" points="190.15 212.31 197.77 221.89 191.17 232.2 183.55 222.61 190.15 212.31"/><polygon class="cls-18" points="204.37 211.58 211.99 221.16 205.39 231.47 197.77 221.89 204.37 211.58"/><polygon class="cls-18" points="218.59 210.85 226.21 220.43 219.61 230.74 211.99 221.16 218.59 210.85"/><polygon class="cls-18" points="232.81 210.12 240.43 219.71 233.83 230.01 226.21 220.43 232.81 210.12"/><polygon class="cls-18" points="247.03 209.4 254.65 218.98 248.04 229.29 240.43 219.71 247.03 209.4"/><polygon class="cls-18" points="261.25 208.67 268.86 218.25 262.26 228.56 254.65 218.98 261.25 208.67"/><polygon class="cls-18" points="176.95 232.92 184.57 242.5 177.97 252.81 170.35 243.23 176.95 232.92"/><polygon class="cls-18" points="191.17 232.2 198.79 241.78 192.19 252.09 184.57 242.5 191.17 232.2"/><polygon class="cls-18" points="205.39 231.47 213.01 241.05 206.41 251.36 198.79 241.78 205.39 231.47"/><polygon class="cls-18" points="219.61 230.74 227.22 240.32 220.62 250.63 213.01 241.05 219.61 230.74"/><polygon class="cls-18" points="233.83 230.01 241.44 239.6 234.84 249.91 227.22 240.32 233.83 230.01"/><polygon class="cls-18" points="248.04 229.29 255.66 238.87 249.06 249.18 241.44 239.6 248.04 229.29"/><polygon class="cls-18" points="262.26 228.56 269.88 238.14 263.28 248.45 255.66 238.87 262.26 228.56"/><polygon class="cls-18" points="177.97 252.81 185.59 262.39 178.99 272.7 171.37 263.12 177.97 252.81"/><polygon class="cls-18" points="192.19 252.09 199.81 261.67 193.2 271.98 185.59 262.39 192.19 252.09"/><polygon class="cls-18" points="206.41 251.36 214.02 260.94 207.42 271.25 199.81 261.67 206.41 251.36"/><polygon class="cls-18" points="220.62 250.63 228.24 260.21 221.64 270.52 214.02 260.94 220.62 250.63"/><polygon class="cls-18" points="234.84 249.91 242.46 259.49 235.86 269.8 228.24 260.21 234.84 249.91"/><polygon class="cls-18" points="249.06 249.18 256.68 258.76 250.08 269.07 242.46 259.49 249.06 249.18"/><polygon class="cls-18" points="263.28 248.45 270.9 258.03 264.3 268.34 256.68 258.76 263.28 248.45"/><polygon class="cls-18" points="178.99 272.7 186.6 282.29 180 292.59 172.38 283.01 178.99 272.7"/><polygon class="cls-18" points="193.2 271.98 200.82 281.56 194.22 291.87 186.6 282.29 193.2 271.98"/><polygon class="cls-18" points="207.42 271.25 215.04 280.83 208.44 291.14 200.82 281.56 207.42 271.25"/><polygon class="cls-18" points="221.64 270.52 229.26 280.1 222.66 290.41 215.04 280.83 221.64 270.52"/><polygon class="cls-18" points="235.86 269.8 243.48 279.38 236.88 289.69 229.26 280.1 235.86 269.8"/><polygon class="cls-18" points="250.08 269.07 257.7 278.65 251.09 288.96 243.48 279.38 250.08 269.07"/><polygon class="cls-18" points="264.3 268.34 271.92 277.92 265.31 288.23 257.7 278.65 264.3 268.34"/><polygon class="cls-18" points="180 292.59 187.62 302.18 181.02 312.48 173.4 302.9 180 292.59"/><polygon class="cls-18" points="194.22 291.87 201.84 301.45 195.24 311.76 187.62 302.18 194.22 291.87"/><polygon class="cls-18" points="208.44 291.14 216.06 300.72 209.46 311.03 201.84 301.45 208.44 291.14"/><polygon class="cls-18" points="222.66 290.41 230.28 300 223.68 310.3 216.06 300.72 222.66 290.41"/><polygon class="cls-18" points="236.88 289.69 244.49 299.27 237.89 309.58 230.28 300 236.88 289.69"/><polygon class="cls-18" points="251.09 288.96 258.71 298.54 252.11 308.85 244.49 299.27 251.09 288.96"/><polygon class="cls-18" points="265.31 288.23 272.93 297.81 266.33 308.12 258.71 298.54 265.31 288.23"/><polygon class="cls-18" points="81.59 317 89.2 326.59 82.6 336.89 74.98 327.31 81.59 317"/><polygon class="cls-18" points="95.81 316.28 103.42 325.86 96.82 336.17 89.2 326.59 95.81 316.28"/><polygon class="cls-18" points="110.02 315.55 117.64 325.13 111.04 335.44 103.42 325.86 110.02 315.55"/><polygon class="cls-18" points="124.24 314.82 131.86 324.41 125.26 334.71 117.64 325.13 124.24 314.82"/><polygon class="cls-18" points="138.46 314.1 146.08 323.68 139.48 333.99 131.86 324.41 138.46 314.1"/><polygon class="cls-18" points="152.68 313.37 160.3 322.95 153.7 333.26 146.08 323.68 152.68 313.37"/><polygon class="cls-18" points="166.9 312.64 174.51 322.23 167.91 332.53 160.3 322.95 166.9 312.64"/><polygon class="cls-18" points="82.6 336.89 90.22 346.48 83.62 356.79 76 347.2 82.6 336.89"/><polygon class="cls-18" points="96.82 336.17 104.44 345.75 97.84 356.06 90.22 346.48 96.82 336.17"/><polygon class="cls-18" points="111.04 335.44 118.66 345.02 112.06 355.33 104.44 345.75 111.04 335.44"/><polygon class="cls-18" points="125.26 334.71 132.88 344.3 126.28 354.61 118.66 345.02 125.26 334.71"/><polygon class="cls-18" points="139.48 333.99 147.09 343.57 140.49 353.88 132.88 344.3 139.48 333.99"/><polygon class="cls-18" points="153.7 333.26 161.31 342.84 154.71 353.15 147.09 343.57 153.7 333.26"/><polygon class="cls-18" points="167.91 332.53 175.53 342.12 168.93 352.42 161.31 342.84 167.91 332.53"/><polygon class="cls-18" points="83.62 356.79 91.24 366.37 84.64 376.68 77.02 367.09 83.62 356.79"/><polygon class="cls-18" points="97.84 356.06 105.46 365.64 98.86 375.95 91.24 366.37 97.84 356.06"/><polygon class="cls-18" points="112.06 355.33 119.67 364.91 113.07 375.22 105.46 365.64 112.06 355.33"/><polygon class="cls-18" points="126.28 354.61 133.89 364.19 127.29 374.5 119.67 364.91 126.28 354.61"/><polygon class="cls-18" points="140.49 353.88 148.11 363.46 141.51 373.77 133.89 364.19 140.49 353.88"/><polygon class="cls-18" points="154.71 353.15 162.33 362.73 155.73 373.04 148.11 363.46 154.71 353.15"/><polygon class="cls-18" points="168.93 352.42 176.55 362 169.95 372.31 162.33 362.73 168.93 352.42"/><polygon class="cls-18" points="84.64 376.68 92.25 386.26 85.65 396.57 78.04 386.99 84.64 376.68"/><polygon class="cls-18" points="98.86 375.95 106.47 385.53 99.87 395.84 92.25 386.26 98.86 375.95"/><polygon class="cls-18" points="113.07 375.22 120.69 384.8 114.09 395.11 106.47 385.53 113.07 375.22"/><polygon class="cls-18" points="127.29 374.5 134.91 384.08 128.31 394.38 120.69 384.8 127.29 374.5"/><polygon class="cls-18" points="141.51 373.77 149.13 383.35 142.53 393.66 134.91 384.08 141.51 373.77"/><polygon class="cls-18" points="155.73 373.04 163.35 382.62 156.75 392.93 149.13 383.35 155.73 373.04"/><polygon class="cls-18" points="169.95 372.31 177.57 381.9 170.97 392.2 163.35 382.62 169.95 372.31"/><polygon class="cls-18" points="85.65 396.57 93.27 406.15 86.67 416.46 79.05 406.88 85.65 396.57"/><polygon class="cls-18" points="99.87 395.84 107.49 405.42 100.89 415.73 93.27 406.15 99.87 395.84"/><polygon class="cls-18" points="114.09 395.11 121.71 404.69 115.11 415 107.49 405.42 114.09 395.11"/><polygon class="cls-18" points="128.31 394.38 135.93 403.97 129.33 414.28 121.71 404.69 128.31 394.38"/><polygon class="cls-18" points="142.53 393.66 150.15 403.24 143.54 413.55 135.93 403.97 142.53 393.66"/><polygon class="cls-18" points="156.75 392.93 164.37 402.51 157.76 412.82 150.15 403.24 156.75 392.93"/><polygon class="cls-18" points="170.97 392.2 178.58 401.79 171.98 412.1 164.37 402.51 170.97 392.2"/><polygon class="cls-18" points="180.98 311.99 188.6 321.57 182 331.88 174.38 322.3 180.98 311.99"/><polygon class="cls-18" points="195.2 311.26 202.82 320.85 196.22 331.15 188.6 321.57 195.2 311.26"/><polygon class="cls-18" points="209.42 310.54 217.03 320.12 210.43 330.43 202.82 320.85 209.42 310.54"/><polygon class="cls-18" points="223.64 309.81 231.25 319.39 224.65 329.7 217.03 320.12 223.64 309.81"/><polygon class="cls-18" points="237.85 309.08 245.47 318.67 238.87 328.97 231.25 319.39 237.85 309.08"/><polygon class="cls-18" points="252.07 308.36 259.69 317.94 253.09 328.25 245.47 318.67 252.07 308.36"/><polygon class="cls-18" points="266.29 307.63 273.91 317.21 267.31 327.52 259.69 317.94 266.29 307.63"/><polygon class="cls-18" points="182 331.88 189.62 341.46 183.01 351.77 175.4 342.19 182 331.88"/><polygon class="cls-18" points="196.22 331.15 203.83 340.74 197.23 351.05 189.62 341.46 196.22 331.15"/><polygon class="cls-18" points="210.43 330.43 218.05 340.01 211.45 350.32 203.83 340.74 210.43 330.43"/><polygon class="cls-18" points="224.65 329.7 232.27 339.28 225.67 349.59 218.05 340.01 224.65 329.7"/><polygon class="cls-18" points="238.87 328.97 246.49 338.56 239.89 348.86 232.27 339.28 238.87 328.97"/><polygon class="cls-18" points="253.09 328.25 260.71 337.83 254.11 348.14 246.49 338.56 253.09 328.25"/><polygon class="cls-18" points="267.31 327.52 274.93 337.1 268.32 347.41 260.71 337.83 267.31 327.52"/><polygon class="cls-18" points="183.01 351.77 190.63 361.35 184.03 371.66 176.41 362.08 183.01 351.77"/><polygon class="cls-18" points="197.23 351.05 204.85 360.63 198.25 370.94 190.63 361.35 197.23 351.05"/><polygon class="cls-18" points="211.45 350.32 219.07 359.9 212.47 370.21 204.85 360.63 211.45 350.32"/><polygon class="cls-18" points="225.67 349.59 233.29 359.17 226.69 369.48 219.07 359.9 225.67 349.59"/><polygon class="cls-18" points="239.89 348.86 247.51 358.45 240.91 368.75 233.29 359.17 239.89 348.86"/><polygon class="cls-18" points="254.11 348.14 261.72 357.72 255.12 368.03 247.51 358.45 254.11 348.14"/><polygon class="cls-18" points="268.32 347.41 275.94 356.99 269.34 367.3 261.72 357.72 268.32 347.41"/><polygon class="cls-18" points="184.03 371.66 191.65 381.24 185.05 391.55 177.43 381.97 184.03 371.66"/><polygon class="cls-18" points="198.25 370.94 205.87 380.52 199.27 390.83 191.65 381.24 198.25 370.94"/><polygon class="cls-18" points="212.47 370.21 220.09 379.79 213.49 390.1 205.87 380.52 212.47 370.21"/><polygon class="cls-18" points="226.69 369.48 234.3 379.06 227.7 389.37 220.09 379.79 226.69 369.48"/><polygon class="cls-18" points="240.91 368.75 248.52 378.34 241.92 388.64 234.3 379.06 240.91 368.75"/><polygon class="cls-18" points="255.12 368.03 262.74 377.61 256.14 387.92 248.52 378.34 255.12 368.03"/><polygon class="cls-18" points="269.34 367.3 276.96 376.88 270.36 387.19 262.74 377.61 269.34 367.3"/><polygon class="cls-18" points="185.05 391.55 192.67 401.13 186.06 411.44 178.45 401.86 185.05 391.55"/><polygon class="cls-18" points="199.27 390.83 206.88 400.41 200.28 410.72 192.67 401.13 199.27 390.83"/><polygon class="cls-18" points="213.49 390.1 221.1 399.68 214.5 409.99 206.88 400.41 213.49 390.1"/><polygon class="cls-18" points="227.7 389.37 235.32 398.95 228.72 409.26 221.1 399.68 227.7 389.37"/><polygon class="cls-18" points="241.92 388.64 249.54 398.23 242.94 408.54 235.32 398.95 241.92 388.64"/><polygon class="cls-18" points="256.14 387.92 263.76 397.5 257.16 407.81 249.54 398.23 256.14 387.92"/><polygon class="cls-18" points="270.36 387.19 277.98 396.77 271.38 407.08 263.76 397.5 270.36 387.19"/></g><circle class="cls-19" cx="177.83" cy="252.83" r="2.4"/><circle class="cls-20" cx="177.83" cy="252.83" r="1.8"/><circle class="cls-19" cx="177.35" cy="252.39" r="0.21"/><circle class="cls-19" cx="178.31" cy="252.39" r="0.21"/><circle class="cls-19" cx="177.35" cy="253.28" r="0.21"/><circle class="cls-19" cx="178.31" cy="253.28" r="0.21"/><circle class="cls-19" cx="177.83" cy="268.09" r="2.4"/><circle class="cls-20" cx="177.83" cy="268.09" r="1.8"/><circle class="cls-19" cx="177.35" cy="267.64" r="0.21"/><circle class="cls-19" cx="178.31" cy="267.64" r="0.21"/><circle class="cls-19" cx="177.35" cy="268.54" r="0.21"/><circle class="cls-19" cx="178.31" cy="268.54" r="0.21"/><circle class="cls-19" cx="177.83" cy="283.35" r="2.4"/><circle class="cls-20" cx="177.83" cy="283.35" r="1.8"/><circle class="cls-19" cx="177.35" cy="282.9" r="0.21"/><circle class="cls-19" cx="178.31" cy="282.9" r="0.21"/><circle class="cls-19" cx="177.35" cy="283.8" r="0.21"/><circle class="cls-19" cx="178.31" cy="283.8" r="0.21"/><circle class="cls-19" cx="177.83" cy="298.6" r="2.4"/><circle class="cls-20" cx="177.83" cy="298.6" r="1.8"/><circle class="cls-19" cx="177.35" cy="298.16" r="0.21"/><circle class="cls-19" cx="178.31" cy="298.16" r="0.21"/><circle class="cls-19" cx="177.35" cy="299.05" r="0.21"/><circle class="cls-19" cx="178.31" cy="299.05" r="0.21"/><circle class="cls-19" cx="177.83" cy="313.86" r="2.4"/><circle class="cls-20" cx="177.83" cy="313.86" r="1.8"/><circle class="cls-19" cx="177.35" cy="313.41" r="0.21"/><circle class="cls-19" cx="178.31" cy="313.41" r="0.21"/><circle class="cls-19" cx="177.35" cy="314.31" r="0.21"/><circle class="cls-19" cx="178.31" cy="314.31" r="0.21"/><circle class="cls-19" cx="177.83" cy="329.12" r="2.4"/><circle class="cls-20" cx="177.83" cy="329.12" r="1.8"/><circle class="cls-19" cx="177.35" cy="328.67" r="0.21"/><circle class="cls-19" cx="178.31" cy="328.67" r="0.21"/><circle class="cls-19" cx="177.35" cy="329.57" r="0.21"/><circle class="cls-19" cx="178.31" cy="329.57" r="0.21"/><circle class="cls-19" cx="177.83" cy="344.37" r="2.4"/><circle class="cls-20" cx="177.83" cy="344.37" r="1.8"/><circle class="cls-19" cx="177.35" cy="343.93" r="0.21"/><circle class="cls-19" cx="178.31" cy="343.93" r="0.21"/><circle class="cls-19" cx="177.35" cy="344.82" r="0.21"/><circle class="cls-19" cx="178.31" cy="344.82" r="0.21"/><path class="cls-9" d="M198.21,187.71a1.94,1.94,0,0,1,1.62-1.21c.93.05,1.41,1.1,1.62,2a21,21,0,0,1,.57,4.59,3.54,3.54,0,0,1-.14,1.26,6.38,6.38,0,0,1-.61,1.08,12,12,0,0,0-1,3.23,5.14,5.14,0,0,1-1.61,2.92,1.34,1.34,0,0,1-.9.33,1.22,1.22,0,0,1-1-1.25,4.43,4.43,0,0,1,.45-1.69,12.22,12.22,0,0,0,.75-5.8C197.71,191.21,197.2,189.58,198.21,187.71Z"/><path class="cls-7" d="M154.36,188.14a1.94,1.94,0,0,0-1.62-1.2c-.93,0-1.41,1.1-1.62,2a20.82,20.82,0,0,0-.57,4.59,3.57,3.57,0,0,0,.14,1.26,6.79,6.79,0,0,0,.61,1.08,12,12,0,0,1,1,3.23,5.17,5.17,0,0,0,1.61,2.92,1.45,1.45,0,0,0,.9.33,1.22,1.22,0,0,0,1-1.26,4.38,4.38,0,0,0-.45-1.68,12.25,12.25,0,0,1-.75-5.81C154.86,191.65,155.37,190,154.36,188.14Z"/><path class="cls-10" d="M162.54,164.7c3.38.72,6.24,2.91,9.49,4.08a20.88,20.88,0,0,0,6.23,1.11l-.45-.43a.56.56,0,0,1,.53.07c-.15-.3.36-.63.57-.37l.31-.82c.48-.12,1.15.42,1.39,0a.56.56,0,0,0,0-.44,2.07,2.07,0,0,0-.94-1.19c1.51,1.16,3.58,1.05,5.44,1.43,3.3.67,6.38,3,9.69,2.37a7.74,7.74,0,0,1-2.05-3.77,21,21,0,0,0-2.55-5.6,24.76,24.76,0,0,0-4-4.11,19.21,19.21,0,0,0-3.77-2.84A13.68,13.68,0,0,0,177,152.8a24.07,24.07,0,0,0-14.82,3.88c-2.08,1.38-4,3.22-4.68,5.63a.28.28,0,0,0,.45.08,3.28,3.28,0,0,0-.61,1,.58.58,0,0,0,0,.53c.09.15.39.15.41,0a4,4,0,0,0-.32,2c.63-.26,1-.91,1.77-1.14A6.59,6.59,0,0,1,162.54,164.7Z"/><path class="cls-10" d="M169,168.1a9.06,9.06,0,0,0-4.08,0,5.28,5.28,0,0,0-3.24,2.36,16.35,16.35,0,0,0-.86,2.13,17.61,17.61,0,0,1-2.67,4.17l1.68-.44a1.32,1.32,0,0,0,.2,1.11,1.61,1.61,0,0,1,.3.45,1,1,0,0,1-.27.73c-2.9,4-5.67,8.47-4.21,13.6a22,22,0,0,1,.67,4.65c0,.81.07,1.63.06,2.44s-.17,1.63-.1,2.45a2.66,2.66,0,0,0,.75,1.7,8.55,8.55,0,0,1-2.49-5.7,21.42,21.42,0,0,0-.24-3.29c-.26-1.21-.66-2.39-.9-3.6a9.47,9.47,0,0,1-.21-1.91c0-1.47.43-4.78.4-4.93-.46-1.88-1-3.74,0-5.41a1.28,1.28,0,0,1-.68.48l0-5.51a21.56,21.56,0,0,1,.2-3.85A11.11,11.11,0,0,1,155,165.5a9.91,9.91,0,0,0,.86-1.38c.12-.26.2-.52.33-.77a4.11,4.11,0,0,1,1-1.15,14,14,0,0,1,17.6-.46,2.61,2.61,0,0,1,1.07,1.35,2.32,2.32,0,0,1,0,1.11,7.24,7.24,0,0,1-2.26,3.89C172.3,169,170.41,168.37,169,168.1Z"/><path class="cls-10" d="M187.62,157.4a1.83,1.83,0,0,1-.15.83,3.36,3.36,0,0,1,1.35-.44l0,1c.54-.17,1,.72.54,1.06a18.39,18.39,0,0,1,4.57-.05,17.84,17.84,0,0,0-2.63,1.2l-.11.62,1.2.09-.27.55A8.63,8.63,0,0,1,196,166a23,23,0,0,1,2,5.11,30.56,30.56,0,0,1,1.27,6.18,48.73,48.73,0,0,1,.05,8.28,3.23,3.23,0,0,1-.21.93,5.16,5.16,0,0,1-.84,1.14c-1.52,1.88-.68,3-.55,5.39s0,5.54-1.69,7.28c1.6-3.24-.45-7.29-.35-10.9a38.51,38.51,0,0,0,.14-4.68c-.29-2.83-1.88-5.36-2.64-8.11-.51-1.87-.63-3.82-1.09-5.7a7.9,7.9,0,0,0-2.92-4.86,19.7,19.7,0,0,1-2.33-1.44,4.61,4.61,0,0,1-1.35-3,7.88,7.88,0,0,1,.15-3.21C185.73,158,187.61,157.1,187.62,157.4Z"/><path class="cls-21" d="M151.58,173.77a27.73,27.73,0,0,1,4.49-12.59A21.32,21.32,0,0,1,166.52,153a26.72,26.72,0,0,1,8.71-1.26,27.92,27.92,0,0,1,12.34,2.52,16,16,0,0,1,8.32,9.15,17.53,17.53,0,0,0-7.29-3,25.83,25.83,0,0,0-5-.29c-10.12.26-20.46,4.17-26.87,12-1.82,2.23-3,4.88-4.69,7.15C150.93,178.59,151.46,174.89,151.58,173.77Z"/><path class="cls-22" d="M160.05,170.94c4.08-3.72,9.34-5.92,14.61-7.67,4.15-1.39,8.52-2.56,12.86-2s8.64,3.34,9.77,7.5c0-3.21-.55-7.11-3.24-9.87a13.81,13.81,0,0,0-6-3.32c-7.88-1.37-16.69,1.72-23.85,5.24-3.7,1.82-7.84,4.09-10.57,7.15s-2.93,9.64-1.91,13.58c.26,1,1,3.08,2.18,3.13.58-2.47.33-4.85,1.44-7.34A19.7,19.7,0,0,1,160.05,170.94Z"/><path class="cls-1" d="M219.72,203.82l-.78.92"/><path class="cls-3" d="M162.5,221.49a17.61,17.61,0,0,0-.73,4.39,1.62,1.62,0,0,0,.1.73,1.55,1.55,0,0,0,.68.61c5,3,10.91,4.66,14.81,9-.47-1.43-.45-3-.94-4.4-.88-2.58-4.08-3.51-6.22-4.76C169.33,226.53,162.23,222.39,162.5,221.49Z"/><path class="cls-23" d="M177.23,241.88a21.59,21.59,0,0,1-2.07,4.69c-1.4,2.38-4.24,6.41-7.06,7.12-.87-2.83-1.23-5.85-2.1-8.71a62,62,0,0,0-3.27-8.47,27.74,27.74,0,0,1-2.61-6.55,10.5,10.5,0,0,1-.14-1.27,8.24,8.24,0,0,1,.1-1.79l0-.13a6.41,6.41,0,0,1,.75-2.08,1.37,1.37,0,0,1,.13-.2,3.09,3.09,0,0,1,.26-.37,4,4,0,0,1,.62-.68,4.15,4.15,0,0,0,2.26,3.29,24,24,0,0,0,3.88,1.51,16.91,16.91,0,0,1,7.36,5.34,27.54,27.54,0,0,0,2.72,3.36C178.65,237.44,177.43,241.22,177.23,241.88Z"/><path class="cls-24" d="M169.11,242c-2.26-3.88-3.46-8.49-6.67-11.62a9.6,9.6,0,0,1-1.26-1.29,7.19,7.19,0,0,1-1.07-2.34,6.41,6.41,0,0,1,.75-2.08,6.74,6.74,0,0,0,.28,1.46,8.75,8.75,0,0,0,2,2.44,18.91,18.91,0,0,1,4.41,7.29,22.79,22.79,0,0,0-4.88-6.75A36.38,36.38,0,0,1,169.11,242Z"/><path class="cls-24" d="M176.16,242.25c-.14.3-.29.6-.43.91-1.53,3.3-3.53,7-6.81,9.2l-.26.18,0-.32a54.61,54.61,0,0,0-5.92-17.31l-.18-.32a26.55,26.55,0,0,1-2.54-5.9,8.24,8.24,0,0,1,.1-1.79c.18,2.59,1.55,5.17,2.79,7.5l.17.32A55.34,55.34,0,0,1,169,251.86c3-2.2,4.95-5.7,6.41-8.86l.44-.92c1-2,1.68-3.42.21-5.35l0,0c-3.48-4.58-5.24-6.05-6.1-6.47a17.28,17.28,0,0,0-2.5-.91,10.71,10.71,0,0,1-3.6-1.59,8.25,8.25,0,0,1-2.79-3.22,3.09,3.09,0,0,1,.26-.37A8,8,0,0,0,164,227.4a10.92,10.92,0,0,0,3.48,1.53,16.94,16.94,0,0,1,2.56.93c1.31.64,3.41,2.85,6.25,6.59l0,.05C178,238.62,177.12,240.3,176.16,242.25Z"/><path class="cls-3" d="M192.72,221.49a17,17,0,0,1,1,4.17,1.69,1.69,0,0,1,0,.71,1.48,1.48,0,0,1-.61.63c-4.58,3.21-10.16,5.26-13.59,9.67.34-1.4.22-2.89.58-4.29.67-2.54,3.68-3.66,5.65-5C186.51,226.82,193,222.34,192.72,221.49Z"/><path class="cls-23" d="M180,242.13a20.81,20.81,0,0,0,2.32,4.37c1.52,2.19,4.54,5.85,7.3,6.33.63-2.78.76-5.7,1.39-8.51a59.51,59.51,0,0,1,2.54-8.38,26.37,26.37,0,0,0,2-6.48,8.47,8.47,0,0,0,0-1.24,7.47,7.47,0,0,0-.22-1.7.93.93,0,0,1,0-.13,6,6,0,0,0-.87-1.94,2.14,2.14,0,0,0-.13-.19c-.09-.12-.18-.23-.28-.34a4.13,4.13,0,0,0-.65-.6,4,4,0,0,1-1.93,3.32,23.7,23.7,0,0,1-3.63,1.73,16.4,16.4,0,0,0-6.69,5.66,21.83,21.83,0,0,1-2.43,3C178.29,237.56,179.78,241.51,180,242.13Z"/><path class="cls-24" d="M187.83,241.69c1.9-3.89,2.72-8.4,5.58-11.64a10.11,10.11,0,0,0,1.12-1.33,7,7,0,0,0,.86-2.33,6,6,0,0,0-.87-1.94,6.33,6.33,0,0,1-.16,1.42,8.22,8.22,0,0,1-1.71,2.48,18.33,18.33,0,0,0-3.71,7.33,22.05,22.05,0,0,1,4.21-6.84A35,35,0,0,0,187.83,241.69Z"/><path class="cls-24" d="M181.07,242.42l.48.84c1.71,3.06,3.89,6.44,7.21,8.36l.26.15v-.31a52.49,52.49,0,0,1,4.46-17.06l.14-.32a25.41,25.41,0,0,0,2-5.86,7.47,7.47,0,0,0-.22-1.7c0,2.49-1.12,5.07-2.14,7.41l-.15.32a53,53,0,0,0-4.46,16.88c-3.09-1.89-5.17-5.12-6.8-8-.16-.3-.32-.58-.48-.85-1.08-1.84-1.86-3.17-.59-5.13l0,0c3-4.65,4.6-6.19,5.4-6.65a14.54,14.54,0,0,1,2.34-1.05,10.65,10.65,0,0,0,3.34-1.79,8.07,8.07,0,0,0,2.46-3.3c-.09-.12-.18-.23-.28-.34a7.8,7.8,0,0,1-2.42,3.35,10.13,10.13,0,0,1-3.23,1.72,15.74,15.74,0,0,0-2.4,1.08c-1.21.71-3.07,3-5.53,6.78l0,.05C179.1,239.05,180,240.61,181.07,242.42Z"/></g></svg>