<svg id="Layer_1" data-name="Layer 1" xmlns="http://www.w3.org/2000/svg" xmlns:xlink="http://www.w3.org/1999/xlink" viewBox="0 0 264 214"><defs><style>.cls-1,.cls-6{fill:none;}.cls-2{fill:#6243cf;}.cls-3{fill:#fff;}.cls-4{fill:#6b84b5;}.cls-5{fill:#cfd5e0;}.cls-6{stroke:#cfd5e0;stroke-miterlimit:10;stroke-width:0.24px;}.cls-7{fill:#ccb48d;}.cls-8{opacity:0.35;}.cls-9{fill:#d6c5a9;}.cls-10{fill:#1a293f;}.cls-11{fill:#f5f6f7;}.cls-12{fill:#28323a;}.cls-13{fill:#f9efde;}.cls-14{fill:#ebdeca;}.cls-15{fill:#ffa445;}.cls-16{fill:#7d7f9e;}.cls-17{clip-path:url(#clip-path);}.cls-18{fill:#595b85;}.cls-19{fill:#221f10;}.cls-20{fill:#504e42;}.cls-21{fill:#404040;}.cls-22{fill:#0a0a0a;}.cls-23{fill:#d1e7fd;}.cls-24{fill:#729fcc;}</style><clipPath id="clip-path"><path class="cls-1" d="M187.16,143.06l-14.48-40.29A49.29,49.29,0,0,0,164.79,96a50.13,50.13,0,0,0-8-4.55c-1.37-.63-2.78-1.19-4.2-1.69-.6-.21-1.67-.71-2.66-1-.34-.14-.71-.27-1.12-.4-9.84-3.06-8.87,1.84-11.48,2.67-2.36.75-.91,2.23-3.38,2.3-2.65.08-1.75-9.9-16.49-4.78h0A25.5,25.5,0,0,0,114,89.71c-1.43.5-2.83,1.06-4.21,1.69a50.37,50.37,0,0,0-15.88,11.37L79.42,143.06a18.29,18.29,0,0,0-1.5,6.86,18.09,18.09,0,0,0,1.63,5.9L84.2,167.4c1.44,3.56,2.87,7.13,4.65,10.53,1.27,2.41,3.2,4,5.54,5.71,0-2,1.94-3.26,3.68-4.2,1.53-.83,5.13-1.54,6.91-.68a81.77,81.77,0,0,0-1-12,16,16,0,0,0,1.81.6c6.59,1.71,11.54-.28,16.28.22,10.54,1.08,18.8,4.48,29.06,1.84a26.14,26.14,0,0,0,12.39-7.85c-.67,5.29-.83,10.71-1.25,16.62,1.77-.87,4.71.41,6.24,1.24,1.74.94,3.64,2.23,3.68,4.2,2.35-1.71,4.27-3.3,5.54-5.71a114.85,114.85,0,0,0,4.65-10.53q2.33-5.79,4.66-11.58a18.32,18.32,0,0,0,1.62-5.9A18.1,18.1,0,0,0,187.16,143.06Zm-19.33,2.74v-.11l0,0Z"/></clipPath></defs><rect class="cls-2" x="24.95" y="-25.05" width="214" height="264.1" transform="translate(238.95 -24.95) rotate(90)"/><path class="cls-3" d="M187.16,143.06l-14.48-40.29A49.29,49.29,0,0,0,164.79,96a50.13,50.13,0,0,0-8-4.55c-1.37-.63-2.78-1.19-4.2-1.69-.61-.21-1.72-.74-2.72-1-.34-.13-.68-.26-1.06-.38a20.51,20.51,0,0,0-4.6-1,2.7,2.7,0,0,0-.06-.41.19.19,0,0,0,0-.08,3.4,3.4,0,0,0-.51-1.15l-.08-.11-.17-.21A2.6,2.6,0,0,0,143,85c0,.1,0,.2,0,.3a9.55,9.55,0,0,0-.38-1.29l.22-5.1a16.48,16.48,0,0,0,2.14-4.09,22.82,22.82,0,0,0,.57-2.53h0a.81.81,0,0,0,.53-.2,3,3,0,0,0,1-1.74,7,7,0,0,1,.61-1.91,4,4,0,0,0,.36-.64,2.12,2.12,0,0,0,.09-.75,12.59,12.59,0,0,0-.34-2.73c-.13-.53-.41-1.16-1-1.19a1.13,1.13,0,0,0-.93.67v-.07a2.46,2.46,0,0,0,.45-.62,2,2,0,0,0,.13-.55,30,30,0,0,0,0-4.92,19.3,19.3,0,0,0-.76-3.67,14.6,14.6,0,0,0-1-2.79,5,5,0,0,1,.67,1.44c0-1.91-.33-4.23-1.92-5.86a7.38,7.38,0,0,0-1.27-1A10.64,10.64,0,0,0,139.49,44a16.45,16.45,0,0,0-7.33-1.5,15.84,15.84,0,0,0-5.17.75,12.6,12.6,0,0,0-6.2,4.86,16,16,0,0,0-2.38,5.71,12.06,12.06,0,0,0-.2,6.4c.14.56.54,1.72,1.21,1.84,0,.36-.1.94-.15,1.49a.77.77,0,0,0-.46-.15c-.55,0-.84.66-1,1.19a11.93,11.93,0,0,0-.34,2.73,2.11,2.11,0,0,0,.08.75,4.6,4.6,0,0,0,.37.64,7.75,7.75,0,0,1,.61,1.91,3.06,3.06,0,0,0,1,1.74.9.9,0,0,0,.54.2h0a23,23,0,0,0,1.12,3.27,16.88,16.88,0,0,0,3.37,5.12c0,.9,0,2,0,3a9.57,9.57,0,0,0-.3,1.39,1.55,1.55,0,0,1-.06-.31,2.86,2.86,0,0,0-.37.41,1.07,1.07,0,0,0-.15.22l-.08.12a3.87,3.87,0,0,0-.45,1.23v0a26.06,26.06,0,0,0-5.72,1.37h0A25.33,25.33,0,0,0,114,89.71c-1.43.5-2.83,1.06-4.21,1.69a50.37,50.37,0,0,0-15.88,11.37L79.42,143.06a18.29,18.29,0,0,0-1.5,6.86,18.09,18.09,0,0,0,1.63,5.9L84.2,167.4c1.44,3.56,2.87,7.13,4.65,10.53,1.27,2.41,3.2,4,5.54,5.71a3.34,3.34,0,0,1,.67-1.86l.1.17c.12.26.24.52.34.8.15-.14.33-.24.49-.37.07.16.15.3.21.46.38.94.65,1.92,1,2.89a51.61,51.61,0,0,0,3,7,6,6,0,0,1-.37,1.55,3.41,3.41,0,0,0-.47.91l-.26,0a4.79,4.79,0,0,1-.35,1.54.21.21,0,0,0,.06.18c-.07.23-.14.45-.22.65a15.89,15.89,0,0,0-1.4,6.56,16.34,16.34,0,0,1,.1,1.71,7.53,7.53,0,0,1-.53,2A69,69,0,0,0,95,215.43h35.09c.48-3,1-6,1.51-9.34.26.53.54,4.55.87,9.34H165c-.4-6.64-.87-12.48-.71-13.23a18,18,0,0,0,.19-4.28c0-.76-.05-1.52-.08-2.28.25,0,.51-.12.49-.35a4.71,4.71,0,0,1-.25-.91,2.42,2.42,0,0,0,.62-.88,62,62,0,0,0,3.79-8.55c.31-1,.58-1.95,1-2.89,0-.1.1-.19.14-.29a3.6,3.6,0,0,1,.6.51c.2-.22.41-.43.61-.64l0,0a3.34,3.34,0,0,1,.8,2c2.35-1.71,4.27-3.3,5.54-5.71a114.85,114.85,0,0,0,4.65-10.53q2.33-5.79,4.66-11.58a18.32,18.32,0,0,0,1.62-5.9A18.1,18.1,0,0,0,187.16,143.06Zm-19.27,2.61-.06.14s0-.09,0-.13ZM162.66,172c-.17-.82-.34-1.63-.52-2.45a56,56,0,0,1-.79-5.74,21.17,21.17,0,0,0,2.17-2.2C163.09,165,162.87,168.39,162.66,172Z"/><path class="cls-3" d="M171.93,221.93H87.27l1.36-7.64a67.8,67.8,0,0,1,1.92-8.66l.15-.43h0c0-.32,0-.65-.06-1a21.92,21.92,0,0,1,1.62-8.57l.07-.62.24-.59,0-.74,0,0-1.67-4.57-.35-.26A23.18,23.18,0,0,1,83.09,181c-1.93-3.7-3.45-7.47-4.92-11.13l-4.66-11.58a24.12,24.12,0,0,1-2.09-8,23.92,23.92,0,0,1,1.88-9.35L88.24,99.31l.92-1a55.83,55.83,0,0,1,8.92-7.72,57.76,57.76,0,0,1,9-5.13c1.55-.71,3.15-1.35,4.75-1.91l.53-.21a21.6,21.6,0,0,1,3.3-1.15c.46-.16.9-.3,1.34-.43a27.48,27.48,0,0,1-1.75-3.33c-.27-.6-.51-1.22-.75-1.88a9.94,9.94,0,0,1-2.25-4.34l-.13-.52v-.07a7.17,7.17,0,0,1-.66-1.38,8.57,8.57,0,0,1-.47-3,18.8,18.8,0,0,1,.52-4.16,8.15,8.15,0,0,1,.39-1.24,18.58,18.58,0,0,1,.23-9.75,22,22,0,0,1,3.28-7.65,19.2,19.2,0,0,1,9.45-7.34,22.1,22.1,0,0,1,7.28-1.1h0a22.81,22.81,0,0,1,10.21,2.17,16.78,16.78,0,0,1,3.68,2.46,12.26,12.26,0,0,1,1.94,1.6,14.28,14.28,0,0,1,3.75,9.51c0,.16.09.31.13.46a24,24,0,0,1,1,5c.08,1.11.13,2.14.14,3.06a8.58,8.58,0,0,1,1.05,2.58,18.23,18.23,0,0,1,.52,4.16,7.81,7.81,0,0,1-1.12,4.4v.06c0,.18-.09.35-.13.53a10.61,10.61,0,0,1-1.17,2.88l.13,7.76c.73.25,1.41.53,1.93.75l.54.22c1.59.55,3.19,1.19,4.74,1.9a57.4,57.4,0,0,1,9,5.13,56.27,56.27,0,0,1,8.92,7.72l.91,1,14.94,41.55a23.92,23.92,0,0,1,1.88,9.35,23.88,23.88,0,0,1-2.09,8l-4.65,11.58c-1.48,3.66-3,7.44-4.93,11.13a23.25,23.25,0,0,1-7.46,7.94L174,190.41c-.79,1.88-1.68,3.66-2.55,5.41a6.73,6.73,0,0,1-.4,1.83v0a25,25,0,0,1-.22,5.27c0,1.06.21,4,.38,6.62.11,1.68.24,3.54.35,5.46Zm-33.39-13h19.55c-.38-5.79-.4-6.83-.15-8a13.24,13.24,0,0,0,.06-2.74l-.17-4.89-.29-1.57.23-.18-.06-1.78,1.95-.19-1.37-6.61L157,185.71l.62-5.81-1.37-6.61c-.16-.8-.33-1.6-.51-2.39a50.76,50.76,0,0,1-.79-5.47l-.47-4.28,2.52-2.23a16.73,16.73,0,0,0,1.51-1.53l1.72-2,1.63-15.18,3.7-.69L176.65,133,167,106.28a43.3,43.3,0,0,0-6-5,44.33,44.33,0,0,0-7-4c-.53-.24-1.06-.47-1.6-.69l.13,8-2.4-8.86-1-.41-.87-.36-3.42,28.46-8.31-36.74a3.52,3.52,0,0,0-.13-.45L136,85.05l.19-4.53-.55-9.37,2.87,2.2a3.82,3.82,0,0,0,.19-.47,12.3,12.3,0,0,0,.38-1.71l.64-3.69-.39-3.2-.22-2.67.87-1c0-.64,0-1.47-.11-2.44a13,13,0,0,0-.52-2.36,9.83,9.83,0,0,0-.55-1.57l2.56-1.51-2.62.05a6.8,6.8,0,0,0-.15-1.44l-.53-.33-.47-.44a4.06,4.06,0,0,0-1-.7,10,10,0,0,0-4.44-.82h0a9.35,9.35,0,0,0-3,.39,6.19,6.19,0,0,0-3,2.38,9.21,9.21,0,0,0-1.38,3.38l-.09.43-.15.41a2.14,2.14,0,0,0-.08.34l2.05.36L125.86,63c0,.31-.08.71-.11,1.09l-.29,3.34.91,3.4a16.56,16.56,0,0,0,.79,2.33c0,.12.11.24.16.35l3.15-2.83.13,7,.49.49v2.7c0,.89,0,2,0,3v1l-.26.9a4,4,0,0,0-.11.51l-5.43,36.53-5.75-28.22-.47.15-.44.09c-.2.05-.89.33-1.26.49s-.91.37-1.23.48c-1.23.43-2.46.93-3.66,1.47a44.43,44.43,0,0,0-7,4,42.62,42.62,0,0,0-6,5l-14,39a14.22,14.22,0,0,0-1.12,4.38,14,14,0,0,0,1.16,3.75L90.24,165c1.09,2.72,2.14,5.32,3.31,7.81l1.87-2.58,1.89,3,1.28-1,3.32,7.49c.13.26.23.49.33.72.37.94.63,1.79.86,2.55.08.26.16.51.25.77a43.91,43.91,0,0,0,2.63,6.09l.92,1.85-.32,2.05a10.22,10.22,0,0,1-1.25,3.93l-.37,1.17c-.14.44-.28.86-.44,1.23a9.6,9.6,0,0,0-.88,3.84l0,.2a13.14,13.14,0,0,1,.06,2.11,11,11,0,0,1-.56,2.74h21.41c.2-1.26.41-2.56.63-3.89l3.27-19.83,9,18C138,204.32,138.24,205.27,138.54,208.93Zm32.24-6.21Zm-1.66-29.79,1,.74,1.8-1.79,1,1.2c1.23-2.57,2.32-5.28,3.45-8.1L181,153.39a14,14,0,0,0,1.17-3.75,14.3,14.3,0,0,0-1.13-4.38l-2.46-6.85-4.82,10.07-2.82,6.27-1,7.65c-.4,3.15-.61,6.38-.82,10Z"/><path class="cls-4" d="M165,215.43H132.5c-.33-4.79-.61-8.81-.87-9.34-.55,3.32-1,6.37-1.51,9.34H95a69,69,0,0,1,1.68-7.72,7.53,7.53,0,0,0,.53-2,16.34,16.34,0,0,0-.1-1.71,15.89,15.89,0,0,1,1.4-6.56,15.19,15.19,0,0,1,1.24-3.23,10.72,10.72,0,0,0,.51-2.72c.08-1.48-.69-2.84-.44-4.3.38-2.29.77-4.58,1.15-6.87.81-4.76,2.07-11,3-15.69,3.07.57,5.73,2.14,8.84,1.92,2-.13,3.86-.57,5.81-.67,5-.28,9.93,1.62,14.91,1.18,3.35-.3,6.52-1.65,9.86-2,1.56-.18,3.12-.16,4.68-.28A24.41,24.41,0,0,0,160.78,160c.7,3.23.66,6.28,1.36,9.51.54,2.51,1.09,5,1.41,7.59s.4,5.08.49,7.62q.24,6.6.46,13.19a18,18,0,0,1-.19,4.28C164.15,203,164.62,208.79,165,215.43Z"/><path class="cls-5" d="M110.3,193.6a11.92,11.92,0,0,1-5.12,2.9,34.63,34.63,0,0,1-5.84.51c-.28,0-.67-.08-.64-.35a4.79,4.79,0,0,0,.35-1.54,10.45,10.45,0,0,0,8.14-1.13c.56-.35,1.08-.75,1.6-1.14a10.58,10.58,0,0,0,3.1-3.95,21.45,21.45,0,0,0,1.56-4.81c.21-1.32.57-2.87.84-4.19.49-2.47.12-4.87.33-7.39a5.72,5.72,0,0,0,1.8,0,32.69,32.69,0,0,1-1,9.58C114.65,186.17,113.62,190.74,110.3,193.6Z"/><path class="cls-5" d="M153.85,192.25a11.11,11.11,0,0,0,4.88,2.89,30.45,30.45,0,0,0,5.57.5c.27,0,.64-.08.61-.35a4.84,4.84,0,0,1-.34-1.55,9.52,9.52,0,0,1-7.76-1.11,16.62,16.62,0,0,1-1.52-1.13,10.41,10.41,0,0,1-2.94-3.95,21.5,21.5,0,0,1-1.48-4.8c-.2-1.32-.54-2.87-.79-4.18-.47-2.47-.11-4.88-.3-7.39a5.23,5.23,0,0,1-1.72,0,34.42,34.42,0,0,0,.89,9.58C149.72,184.84,150.69,189.4,153.85,192.25Z"/><path class="cls-5" d="M117,166a1.1,1.1,0,0,0,0,.54,19.74,19.74,0,0,1,.2,2.77c0,1.2-.28,2.4-.24,3.61a14.47,14.47,0,0,0,.17,1.6l.15,1.11a.74.74,0,0,0,0,.14.32.32,0,0,0,.18.12,2.33,2.33,0,0,0,1.85,0,2,2,0,0,1-.08-1.42,22.6,22.6,0,0,0,0-3.08c0-1.06.18-2.12.16-3.18a21.1,21.1,0,0,1,0-2.76,3.5,3.5,0,0,0-1.43,0C117.65,165.59,117.14,165.63,117,166Z"/><path class="cls-5" d="M147.33,164.91a1.27,1.27,0,0,1,0,.55,18.29,18.29,0,0,0-.19,2.76c0,1.21.27,2.41.23,3.61a14.21,14.21,0,0,1-.16,1.6l-.16,1.11a.33.33,0,0,1,0,.14.36.36,0,0,1-.17.13,2.4,2.4,0,0,1-1.86,0,2,2,0,0,0,.08-1.41,21.11,21.11,0,0,1,0-3.08c0-1.07-.19-2.13-.16-3.19a22.77,22.77,0,0,0-.06-2.75,3.55,3.55,0,0,1,1.44,0C146.67,164.47,147.17,164.51,147.33,164.91Z"/><path class="cls-6" d="M102.46,172.52a36.43,36.43,0,0,0,9.38.48c1.18-.08,2.36-.24,3.55-.27.79,0,1.58,0,2.37.08,1.8.1,3.71,0,5.53,0,2.75,0,5.46.09,8.21,0,5.65-.07,23.37-1.27,30.57-3.69"/><path class="cls-6" d="M137.68,172.94c-1.9,6.5-.81,12.46-1,17.9a6.45,6.45,0,0,1-1,3.85c-1.15,1.48-3.24,1.78-5.1,1.75a7.33,7.33,0,0,1-.27,1.74,9.93,9.93,0,0,0,3.78-.72A5.87,5.87,0,0,0,137,195a9.61,9.61,0,0,0,.64-5.25l-.36-5.64a19.94,19.94,0,0,1,0-2.89c.07-.9.26-1.78.34-2.67a18.45,18.45,0,0,1,.32-3.25,8,8,0,0,0,.6-2.37"/><path class="cls-7" d="M142.83,77.8,142.36,89l-5.18,19.67L124.61,89s-.07-10,0-10.27L138,78.05Z"/><g class="cls-8"><polygon class="cls-9" points="142.83 77.8 142.36 89.04 137.23 93.47 131.8 89.04 124.91 81.76 138 78.06 142.83 77.8"/></g><path class="cls-9" d="M146,68.93a42.84,42.84,0,0,1-1.07,5.89,16.81,16.81,0,0,1-3.61,5.86s-3.18,3-5.07,3.73a12.65,12.65,0,0,1-4.12.4,1,1,0,0,1-1-.76c-.48,0-.87-.92-1.28-1.22l-2.88-2.58c-1.46-1.1-2.23-1.78-2.46-3.68l-1.57-2c0-.42,2.19-1.19,2-1.54l-2.58-3.19c-.29-.45.93-3.13.88-3.74-.06-.79-2.86-4.48-2.84-5.83a2.77,2.77,0,0,1,.14-.86l1.61-4.68a2.54,2.54,0,0,1,.92-1.26l8.77-6.3a2.24,2.24,0,0,1,.8-.37,2.36,2.36,0,0,1,1,0l7.51,1.56a2.48,2.48,0,0,1,1.86,1.86l1.87,7.43a2.18,2.18,0,0,1,.08.57S146.5,65.56,146,68.93Z"/><path class="cls-7" d="M132.13,84.81a18.3,18.3,0,0,1-2.36-.52c-.83-.29-4.15-2.44-4-2.3a15.13,15.13,0,0,1-4.58-6.17A33.57,33.57,0,0,1,119,66.27c-.06-.79.78-4.86.79-6.22,0-.3.6-.39.69-.67l1.61-4.68a2.54,2.54,0,0,1,.92-1.26l8.77-6.3a2.24,2.24,0,0,1,.8-.37c0,2.37-1.2,3.83-1,7.18,0,.39.08,1.65.13,3.62,0,.21-.39.27-.36.84,0,.35.38.61.38.77,0,.39,0,.08,0,.49,0,.18-.25.35-.28.67-.06.53.29.64.3.82,0,1.72,0,3.55,0,5.24a44.27,44.27,0,0,0,.05,5.94c0,.3-1.89-1-1.53.55.17.76,2.09,2.29,1.93,2.74-.43,1.25.5,2.41.38,3.09s-.59,1.4-.69,2.18A9.47,9.47,0,0,0,132.13,84.81Z"/><path class="cls-10" d="M131.64,74.09,130.41,73l-1.84.73a2.9,2.9,0,0,0-1.32,1.16l-.56.91a1.87,1.87,0,0,1-.62.63c-.41.24-.85.53-1.19.42a1.69,1.69,0,0,0,1.66.74c.78-.16.94-.76,1.73-.86s1.34.63,2.47.78l.27,0,.64.06.58,0c.27,0,.51,0,.74,0s.52,0,.75-.06a5.64,5.64,0,0,0,1-.21,4.92,4.92,0,0,0,.59-.22c.71-.32,1-.65,1.38-.56s.74.62,1.24.91a2.08,2.08,0,0,0,2.14-.28,4.05,4.05,0,0,1-1.07-.6,1.33,1.33,0,0,1-.41-.62l-.38-1a2.59,2.59,0,0,0-.93-1,6.2,6.2,0,0,0-2.36-1l-1,1.07A2.09,2.09,0,0,1,131.64,74.09Z"/><path class="cls-10" d="M136.65,61.87c1.4-1,3.41-2.51,5-1.48a6.15,6.15,0,0,1,1.9,1.9,5.89,5.89,0,0,1,.56,1.09c-.07.79-.66.41-1-.08-.83-1-1.78-1.76-2.61-1.51-1.21.28-4.83,2.56-5.31,2.78s-1-.51-.93-.72A13.25,13.25,0,0,1,136.65,61.87Z"/><path class="cls-10" d="M128.78,62c-1.47-.9-3.59-2.26-5.06-1.13a6,6,0,0,0-1.75,2A6.68,6.68,0,0,0,121.5,64c.13.79.69.37,1-.14.75-1.1,1.64-1.88,2.49-1.69,1.23.2,5,2.23,5.51,2.41s.94-.57.87-.78A13.7,13.7,0,0,0,128.78,62Z"/><path class="cls-10" d="M131.92,66.35c0,.05,0,.1,0,.14v.28l0,.37,0,.75.06,1.48.1,3v.44l-.45-.1h0l-1.36-.54.21-.11h0l-.22.66v-.13a5,5,0,0,0,.86,1.13,4.39,4.39,0,0,0,1.15.82,1.08,1.08,0,0,0,.63.12,1.16,1.16,0,0,0,.58-.26c.36-.28.62-.7,1-1.06l.23.26c-.34.3-.62.73-1,1.07A1.55,1.55,0,0,1,133,75a1.56,1.56,0,0,1-.81-.14A5.12,5.12,0,0,1,130,72.71l0-.06,0-.06.21-.67h0l0-.13.18,0,1.44.19h0l-.43.34.08-3,0-1.48,0-1.43Z"/><path class="cls-11" d="M141.6,65.05a12.42,12.42,0,0,0-3.52,0,5.91,5.91,0,0,0-1.75,1c-.23.14-.68.46-.52.6s.56.08.88.21,2.9.65,4.13-.15S141.6,65.05,141.6,65.05Z"/><ellipse class="cls-12" cx="138.63" cy="66.01" rx="1.15" ry="0.92"/><path class="cls-10" d="M135.44,65.33a4.28,4.28,0,0,1,.72-.82l.22-.19.24-.16a4.21,4.21,0,0,1,.51-.29c.19-.09.38-.16.56-.23a5.69,5.69,0,0,1,.59-.16,9.77,9.77,0,0,1,1.21-.16,8.32,8.32,0,0,1,1.22,0,4.32,4.32,0,0,1,1.24.3,1.66,1.66,0,0,1,.6.4.81.81,0,0,1,.21.76.93.93,0,0,1-.56.62,1.5,1.5,0,0,1-.8.11h-.08c-.44-.12-.93-.23-1.4-.31a5.76,5.76,0,0,0-1.43-.08,3.08,3.08,0,0,0-1.35.41c-.2.12-.39.26-.58.4a5.14,5.14,0,0,1-.64.38h0c-.09.07-.15.18-.1.21s.19.07.34.1l.8.17a5.92,5.92,0,0,0,1.62.1,6.78,6.78,0,0,0,1.56-.34,2.65,2.65,0,0,0,1.2-.74l.63.49a4.13,4.13,0,0,1-1.67.68,9.71,9.71,0,0,1-1.7.18,7.3,7.3,0,0,1-1.69-.2l-.8-.19a.93.93,0,0,1-.43-.15.21.21,0,0,1,0-.25.58.58,0,0,1,.14-.17h0a4,4,0,0,0,.6-.36c.18-.14.36-.31.56-.45a4,4,0,0,1,1.41-.62,6.07,6.07,0,0,1,1.59-.13,9.14,9.14,0,0,1,1.56.21h-.07c.27,0,.43-.09.45-.18s-.07-.24-.37-.37a5.35,5.35,0,0,0-2-.32,7.75,7.75,0,0,0-1.09.09,4.94,4.94,0,0,0-.53.1l-.5.16a4.25,4.25,0,0,0-.49.21l-.23.12-.21.14a5.79,5.79,0,0,0-.8.67Z"/><path class="cls-10" d="M135.77,66.84a7.48,7.48,0,0,1,.89.57,2.39,2.39,0,0,0,.89.44,2.64,2.64,0,0,0,1,0,3.66,3.66,0,0,0,.94-.28.38.38,0,0,1,.47.12.28.28,0,0,1-.15.4l0,0a4.6,4.6,0,0,1-1.17.18,3.27,3.27,0,0,1-1.16-.18,2,2,0,0,1-.5-.27,4.55,4.55,0,0,1-.4-.35A7.11,7.11,0,0,0,135.77,66.84Z"/><path class="cls-11" d="M124,65.44a13.17,13.17,0,0,1,3.52-.12,6.26,6.26,0,0,1,1.78.91c.23.12.69.41.53.55s-.56.09-.87.22-2.88.66-4.14-.06S124,65.44,124,65.44Z"/><ellipse class="cls-12" cx="126.94" cy="66.28" rx="1.15" ry="0.87" transform="translate(-0.36 0.7) rotate(-0.32)"/><path class="cls-10" d="M129.9,65.71a8.67,8.67,0,0,0-.84-.62,1.55,1.55,0,0,0-.22-.12l-.23-.11-.49-.19-.51-.13a4.85,4.85,0,0,0-.53-.08A7.59,7.59,0,0,0,126,64.4a5.71,5.71,0,0,0-2,.33,1.41,1.41,0,0,0-.32.19c-.06.07-.06.11-.05.14s.18.18.46.15l-.07,0a8.07,8.07,0,0,1,1.54-.23,6.48,6.48,0,0,1,1.58.09,4.2,4.2,0,0,1,1.42.55c.21.13.4.29.59.42a4.1,4.1,0,0,0,.62.34h0a.46.46,0,0,1,.15.16.21.21,0,0,1,0,.12.16.16,0,0,1-.07.12.87.87,0,0,1-.42.14l-.8.2a8.2,8.2,0,0,1-1.66.23,9.75,9.75,0,0,1-1.7-.14,4.46,4.46,0,0,1-1.68-.59l.6-.52a2.81,2.81,0,0,0,1.22.68,7.5,7.5,0,0,0,1.57.29,6.64,6.64,0,0,0,1.6-.12c.27,0,.53-.12.8-.18a1.09,1.09,0,0,0,.35-.09c.05,0,0-.13-.1-.19h0a4.12,4.12,0,0,1-.66-.34,6.18,6.18,0,0,0-.61-.37,3.3,3.3,0,0,0-1.36-.35,6.81,6.81,0,0,0-1.42.12c-.47.09-1,.2-1.39.32h-.07a1.62,1.62,0,0,1-.78-.08.94.94,0,0,1-.6-.6.78.78,0,0,1,.23-.77,1.11,1.11,0,0,1,.29-.22,2.1,2.1,0,0,1,.3-.15,4.51,4.51,0,0,1,1.22-.29,8,8,0,0,1,1.2,0,9.26,9.26,0,0,1,1.18.13,3.9,3.9,0,0,1,.59.14,3.69,3.69,0,0,1,.56.19,5,5,0,0,1,.52.26l.25.15.23.17a4.66,4.66,0,0,1,.76.78Z"/><path class="cls-10" d="M129.82,67a8,8,0,0,0-.76.66,4.24,4.24,0,0,1-.39.33,1.83,1.83,0,0,1-.5.26,3.18,3.18,0,0,1-1.14.19,4.55,4.55,0,0,1-1.16-.14.29.29,0,0,1-.24-.36.36.36,0,0,1,.43-.2h0a3.69,3.69,0,0,0,1,.25,2.8,2.8,0,0,0,1,0,2.53,2.53,0,0,0,.89-.43A8.54,8.54,0,0,1,129.82,67Z"/><path class="cls-13" d="M117.41,195.91a.45.45,0,0,1-.15.21,2.87,2.87,0,0,1-3.74-.34,6.34,6.34,0,0,1-.69-.86L111,192.45a18,18,0,0,1-7.06,2.88l-.64.1a2.31,2.31,0,0,1-1.74-.26,2.41,2.41,0,0,1-.63-.88,61.51,61.51,0,0,1-3.78-8.56c-.31-1-.58-1.95-1-2.89a24,24,0,0,0-1.61-3.1c-.57-1-.31-1.44.29-2.35a6.29,6.29,0,0,1,1-1.15,6.79,6.79,0,0,1,3.46-1.81.82.82,0,0,1,.27,0c.18,0,.29.22.39.37l2.17,3.49a15,15,0,0,0,1.67,2.34,7.71,7.71,0,0,0,2.16,1.65,30,30,0,0,1,2.92,1.38c2,1.31,2.87,3.79,4.33,5.7.67.88,1.48,1.65,2.14,2.53a11.2,11.2,0,0,1,.89,1.42c.41.75.75,1.54,1.09,2.32h0A.41.41,0,0,1,117.41,195.91Z"/><path class="cls-14" d="M104,195.33l-.64.1a2.31,2.31,0,0,1-1.74-.26,2.41,2.41,0,0,1-.63-.88,61.51,61.51,0,0,1-3.78-8.56c-.31-1-.58-1.95-1-2.89a24,24,0,0,0-1.61-3.1c-.57-1-.31-1.44.29-2.35a6.29,6.29,0,0,1,1-1.15,1.11,1.11,0,0,0,0,.17c-.1,2.34,1.56,4.37,2.13,6.64.49,1.95.19,4.1,1.13,5.88.28.54.67,1,1,1.52.47.75.8,1.57,1.3,2.29A16.49,16.49,0,0,0,104,195.33Z"/><path class="cls-3" d="M115.61,195.44a4.18,4.18,0,0,1-.4-.44,1.89,1.89,0,0,1-.28-.47.64.64,0,0,1,0-.54,1,1,0,0,1,.53-.38l.65-.28a.38.38,0,0,1,.18,0c.08,0,.14.09.19.16l.72,1.09a2.09,2.09,0,0,1,.26.49C117.78,196.07,116.07,195.83,115.61,195.44Z"/><path class="cls-15" d="M95.5,182.75a19.57,19.57,0,0,1,5.75-3.13,6,6,0,0,1,1.94-.5l-.1-.88A.38.38,0,0,0,103,178a.39.39,0,0,0-.28-.09,12.2,12.2,0,0,0-4.36.67,9.08,9.08,0,0,0-2.73,1.53c-.28.23-1,.67-.91,1.06a3.37,3.37,0,0,0,.42.76C95.28,182.21,95.4,182.47,95.5,182.75Z"/><path class="cls-13" d="M148.81,195.12a.51.51,0,0,0,.15.21,2.87,2.87,0,0,0,3.74-.34,7.29,7.29,0,0,0,.7-.86l1.82-2.47a17.59,17.59,0,0,0,7.05,2.88l.64.1a2.34,2.34,0,0,0,1.75-.25,2.55,2.55,0,0,0,.62-.89,62,62,0,0,0,3.79-8.55c.31-1,.58-1.95,1-2.89a23.33,23.33,0,0,1,1.61-3.1c.57-1,.31-1.44-.29-2.35a6.29,6.29,0,0,0-1-1.15,6.89,6.89,0,0,0-3.45-1.82.82.82,0,0,0-.27,0,.72.72,0,0,0-.4.37l-2.17,3.49a16,16,0,0,1-1.67,2.34,7.68,7.68,0,0,1-2.16,1.64c-1,.5-2,.79-2.92,1.38-2,1.31-2.87,3.79-4.33,5.7-.68.88-1.49,1.65-2.15,2.53a13,13,0,0,0-.89,1.42c-.41.75-.75,1.54-1.09,2.31h0A.4.4,0,0,0,148.81,195.12Z"/><path class="cls-14" d="M162.27,194.54l.64.1a2.34,2.34,0,0,0,1.75-.25,2.55,2.55,0,0,0,.62-.89,62,62,0,0,0,3.79-8.55c.31-1,.58-1.95,1-2.89a23.33,23.33,0,0,1,1.61-3.1c.57-1,.31-1.44-.29-2.35a6.29,6.29,0,0,0-1-1.15,1.11,1.11,0,0,1,0,.17c.1,2.34-1.56,4.37-2.13,6.64-.5,1.94-.2,4.1-1.14,5.88-.28.53-.66,1-1,1.52-.46.74-.79,1.56-1.29,2.28A15.74,15.74,0,0,1,162.27,194.54Z"/><path class="cls-3" d="M150.61,194.65a2.86,2.86,0,0,0,.4-.45,1.67,1.67,0,0,0,.28-.46.68.68,0,0,0,0-.54,1,1,0,0,0-.54-.38l-.65-.28a.29.29,0,0,0-.18,0c-.08,0-.14.09-.19.16l-.72,1.09a2.09,2.09,0,0,0-.26.49C148.44,195.28,150.15,195,150.61,194.65Z"/><path class="cls-15" d="M163,178.72a19.74,19.74,0,0,1,6.1,2.39,6.31,6.31,0,0,1,1.63,1.17l.61-.64a.35.35,0,0,0,.12-.2.36.36,0,0,0-.11-.27,12.11,12.11,0,0,0-3.31-2.91,9.15,9.15,0,0,0-2.93-1.11c-.36-.07-1.13-.3-1.4,0a3.33,3.33,0,0,0-.31.8A7.16,7.16,0,0,1,163,178.72Z"/><path class="cls-16" d="M93.91,102.77,79.42,143.06a18.29,18.29,0,0,0-1.5,6.86,18.09,18.09,0,0,0,1.63,5.9L84.2,167.4c1.44,3.56,2.87,7.13,4.65,10.53,1.27,2.41,3.2,4,5.54,5.71,0-2,1.94-3.26,3.68-4.2,1.53-.83,5.13-1.54,6.91-.68-.29-12.85-2-18.72-7-29.51,1.57-2.26,6.54-13.76,7.4-14.3,8.18-5.14,7.06-1.81,10-11a73.45,73.45,0,0,0,2.8-16q.48-5.34.77-10.69c.09-1.62,1.38-8.17-.63-8.74-1-.3-3.37.9-4.36,1.24-1.43.5-2.83,1.06-4.21,1.69a50.37,50.37,0,0,0-15.88,11.37Z"/><path class="cls-16" d="M172.68,102.77l14.48,40.29a18.1,18.1,0,0,1,1.5,6.86,18.32,18.32,0,0,1-1.62,5.9l-4.66,11.58a114.85,114.85,0,0,1-4.65,10.53c-1.27,2.41-3.19,4-5.54,5.71,0-2-1.94-3.26-3.68-4.2-1.53-.83-4.47-2.11-6.24-1.24.84-11.86.64-21.74,5.62-32.53-.86.55-13.76-12.53-16.73-21.74a73.44,73.44,0,0,1-2.79-16q-.48-5.34-.78-10.69c-.09-1.62-1.37-8.17.64-8.74,1-.3,3.36.9,4.36,1.24,1.42.5,2.83,1.06,4.2,1.69a50.13,50.13,0,0,1,8,4.55A49.29,49.29,0,0,1,172.68,102.77Z"/><path class="cls-16" d="M99.31,130.85C99,140.25,95.55,156,100.54,164a8.17,8.17,0,0,0,5.25,3.41c6.59,1.71,11.54-.28,16.28.22,10.54,1.08,18.8,4.48,29.06,1.84,7.05-1.81,13.14-7.77,13.89-10.23,2-6.68,3.84-16.25,2.87-23.17s-5.69-14-5.8-21-5.1-10.59-.75-16.07c-6.94-3.17-5.24-8.39-12.53-10.66-9.84-3.06-8.87,1.84-11.48,2.67-2.36.75-.91,2.23-3.38,2.3-2.65.08-1.75-9.9-16.49-4.78-5.1,1.78-1.55,5.93-4.65,8a33.93,33.93,0,0,1-8.47,3.91c-2.07.66-5.65.88-7,2.89s.48,5.09.94,7.16a51.33,51.33,0,0,1,1.1,9.65C99.55,123.67,99.42,127.26,99.31,130.85Z"/><g class="cls-17"><polygon class="cls-18" points="73.57 81.87 78.09 87.56 74.17 93.68 69.65 88 73.57 81.87"/><polygon class="cls-18" points="82.01 81.44 86.53 87.13 82.61 93.25 78.09 87.56 82.01 81.44"/><polygon class="cls-18" points="90.45 81.01 94.97 86.7 91.05 92.82 86.53 87.13 90.45 81.01"/><polygon class="cls-18" points="98.89 80.58 103.42 86.27 99.5 92.39 94.97 86.7 98.89 80.58"/><polygon class="cls-18" points="107.33 80.15 111.86 85.84 107.94 91.96 103.42 86.27 107.33 80.15"/><polygon class="cls-18" points="115.78 79.72 120.3 85.41 116.38 91.53 111.86 85.84 115.78 79.72"/><polygon class="cls-18" points="124.22 79.28 128.74 84.97 124.82 91.09 120.3 85.41 124.22 79.28"/><polygon class="cls-18" points="74.17 93.68 78.69 99.37 74.77 105.49 70.25 99.81 74.17 93.68"/><polygon class="cls-18" points="82.61 93.25 87.14 98.94 83.22 105.06 78.69 99.37 82.61 93.25"/><polygon class="cls-18" points="91.05 92.82 95.58 98.51 91.66 104.63 87.14 98.94 91.05 92.82"/><polygon class="cls-18" points="99.5 92.39 104.02 98.08 100.1 104.2 95.58 98.51 99.5 92.39"/><polygon class="cls-18" points="107.94 91.96 112.46 97.65 108.54 103.77 104.02 98.08 107.94 91.96"/><polygon class="cls-18" points="116.38 91.53 120.9 97.22 116.98 103.33 112.46 97.65 116.38 91.53"/><polygon class="cls-18" points="124.82 91.09 129.35 96.78 125.43 102.9 120.9 97.22 124.82 91.09"/><polygon class="cls-18" points="74.77 105.49 79.3 111.18 75.38 117.3 70.86 111.61 74.77 105.49"/><polygon class="cls-18" points="83.22 105.06 87.74 110.75 83.82 116.87 79.3 111.18 83.22 105.06"/><polygon class="cls-18" points="91.66 104.63 96.18 110.32 92.26 116.44 87.74 110.75 91.66 104.63"/><polygon class="cls-18" points="100.1 104.2 104.62 109.89 100.7 116.01 96.18 110.32 100.1 104.2"/><polygon class="cls-18" points="108.54 103.77 113.06 109.46 109.15 115.58 104.62 109.89 108.54 103.77"/><polygon class="cls-18" points="116.98 103.33 121.51 109.02 117.59 115.14 113.06 109.46 116.98 103.33"/><polygon class="cls-18" points="125.43 102.9 129.95 108.59 126.03 114.71 121.51 109.02 125.43 102.9"/><polygon class="cls-18" points="75.38 117.3 79.9 122.99 75.98 129.11 71.46 123.42 75.38 117.3"/><polygon class="cls-18" points="83.82 116.87 88.34 122.56 84.42 128.68 79.9 122.99 83.82 116.87"/><polygon class="cls-18" points="92.26 116.44 96.78 122.13 92.87 128.25 88.34 122.56 92.26 116.44"/><polygon class="cls-18" points="100.7 116.01 105.23 121.7 101.31 127.82 96.78 122.13 100.7 116.01"/><polygon class="cls-18" points="109.15 115.58 113.67 121.27 109.75 127.39 105.23 121.7 109.15 115.58"/><polygon class="cls-18" points="117.59 115.14 122.11 120.83 118.19 126.95 113.67 121.27 117.59 115.14"/><polygon class="cls-18" points="126.03 114.71 130.55 120.4 126.63 126.52 122.11 120.83 126.03 114.71"/><polygon class="cls-18" points="75.98 129.11 80.5 134.8 76.58 140.92 72.06 135.23 75.98 129.11"/><polygon class="cls-18" points="84.42 128.68 88.95 134.37 85.03 140.49 80.5 134.8 84.42 128.68"/><polygon class="cls-18" points="92.87 128.25 97.39 133.94 93.47 140.06 88.95 134.37 92.87 128.25"/><polygon class="cls-18" points="101.31 127.82 105.83 133.51 101.91 139.63 97.39 133.94 101.31 127.82"/><polygon class="cls-18" points="109.75 127.39 114.27 133.07 110.35 139.2 105.83 133.51 109.75 127.39"/><polygon class="cls-18" points="118.19 126.95 122.72 132.64 118.8 138.76 114.27 133.07 118.19 126.95"/><polygon class="cls-18" points="126.63 126.52 131.16 132.21 127.24 138.33 122.72 132.64 126.63 126.52"/><polygon class="cls-18" points="132.58 78.9 137.1 84.59 133.18 90.71 128.66 85.02 132.58 78.9"/><polygon class="cls-18" points="141.02 78.47 145.54 84.16 141.63 90.28 137.1 84.59 141.02 78.47"/><polygon class="cls-18" points="149.46 78.03 153.99 83.72 150.07 89.84 145.54 84.16 149.46 78.03"/><polygon class="cls-18" points="157.91 77.6 162.43 83.29 158.51 89.41 153.99 83.72 157.91 77.6"/><polygon class="cls-18" points="166.35 77.17 170.87 82.86 166.95 88.98 162.43 83.29 166.35 77.17"/><polygon class="cls-18" points="174.79 76.74 179.31 82.43 175.39 88.55 170.87 82.86 174.79 76.74"/><polygon class="cls-18" points="183.23 76.31 187.75 82 183.84 88.12 179.31 82.43 183.23 76.31"/><polygon class="cls-18" points="133.18 90.71 137.71 96.4 133.79 102.52 129.26 96.83 133.18 90.71"/><polygon class="cls-18" points="141.63 90.28 146.15 95.96 142.23 102.08 137.71 96.4 141.63 90.28"/><polygon class="cls-18" points="150.07 89.84 154.59 95.53 150.67 101.65 146.15 95.96 150.07 89.84"/><polygon class="cls-18" points="158.51 89.41 163.03 95.1 159.11 101.22 154.59 95.53 158.51 89.41"/><polygon class="cls-18" points="166.95 88.98 171.47 94.67 167.56 100.79 163.03 95.1 166.95 88.98"/><polygon class="cls-18" points="175.39 88.55 179.92 94.24 176 100.36 171.47 94.67 175.39 88.55"/><polygon class="cls-18" points="183.84 88.12 188.36 93.81 184.44 99.93 179.92 94.24 183.84 88.12"/><polygon class="cls-18" points="133.79 102.52 138.31 108.21 134.39 114.33 129.87 108.64 133.79 102.52"/><polygon class="cls-18" points="142.23 102.08 146.75 107.77 142.83 113.89 138.31 108.21 142.23 102.08"/><polygon class="cls-18" points="150.67 101.65 155.19 107.34 151.28 113.46 146.75 107.77 150.67 101.65"/><polygon class="cls-18" points="159.11 101.22 163.64 106.91 159.72 113.03 155.19 107.34 159.11 101.22"/><polygon class="cls-18" points="167.56 100.79 172.08 106.48 168.16 112.6 163.64 106.91 167.56 100.79"/><polygon class="cls-18" points="176 100.36 180.52 106.05 176.6 112.17 172.08 106.48 176 100.36"/><polygon class="cls-18" points="184.44 99.93 188.96 105.62 185.04 111.74 180.52 106.05 184.44 99.93"/><polygon class="cls-18" points="134.39 114.33 138.91 120.02 135 126.14 130.47 120.45 134.39 114.33"/><polygon class="cls-18" points="142.83 113.89 147.36 119.58 143.44 125.7 138.91 120.02 142.83 113.89"/><polygon class="cls-18" points="151.28 113.46 155.8 119.15 151.88 125.27 147.36 119.58 151.28 113.46"/><polygon class="cls-18" points="159.72 113.03 164.24 118.72 160.32 124.84 155.8 119.15 159.72 113.03"/><polygon class="cls-18" points="168.16 112.6 172.68 118.29 168.76 124.41 164.24 118.72 168.16 112.6"/><polygon class="cls-18" points="176.6 112.17 181.13 117.86 177.21 123.98 172.68 118.29 176.6 112.17"/><polygon class="cls-18" points="185.04 111.74 189.57 117.43 185.65 123.55 181.13 117.86 185.04 111.74"/><polygon class="cls-18" points="135 126.14 139.52 131.82 135.6 137.95 131.08 132.26 135 126.14"/><polygon class="cls-18" points="143.44 125.7 147.96 131.39 144.04 137.51 139.52 131.82 143.44 125.7"/><polygon class="cls-18" points="151.88 125.27 156.4 130.96 152.48 137.08 147.96 131.39 151.88 125.27"/><polygon class="cls-18" points="160.32 124.84 164.84 130.53 160.93 136.65 156.4 130.96 160.32 124.84"/><polygon class="cls-18" points="168.76 124.41 173.29 130.1 169.37 136.22 164.84 130.53 168.76 124.41"/><polygon class="cls-18" points="177.21 123.98 181.73 129.67 177.81 135.79 173.29 130.1 177.21 123.98"/><polygon class="cls-18" points="185.65 123.55 190.17 129.24 186.25 135.36 181.73 129.67 185.65 123.55"/><polygon class="cls-18" points="76.56 140.63 81.08 146.32 77.17 152.44 72.64 146.75 76.56 140.63"/><polygon class="cls-18" points="85 140.2 89.53 145.89 85.61 152.01 81.08 146.32 85 140.2"/><polygon class="cls-18" points="93.45 139.77 97.97 145.46 94.05 151.58 89.53 145.89 93.45 139.77"/><polygon class="cls-18" points="101.89 139.34 106.41 145.02 102.49 151.14 97.97 145.46 101.89 139.34"/><polygon class="cls-18" points="110.33 138.9 114.85 144.59 110.93 150.71 106.41 145.02 110.33 138.9"/><polygon class="cls-18" points="118.77 138.47 123.3 144.16 119.38 150.28 114.85 144.59 118.77 138.47"/><polygon class="cls-18" points="127.21 138.04 131.74 143.73 127.82 149.85 123.3 144.16 127.21 138.04"/><polygon class="cls-18" points="77.17 152.44 81.69 158.13 77.77 164.25 73.25 158.56 77.17 152.44"/><polygon class="cls-18" points="85.61 152.01 90.13 157.7 86.21 163.82 81.69 158.13 85.61 152.01"/><polygon class="cls-18" points="94.05 151.58 98.57 157.26 94.65 163.39 90.13 157.7 94.05 151.58"/><polygon class="cls-18" points="102.49 151.14 107.02 156.83 103.1 162.95 98.57 157.26 102.49 151.14"/><polygon class="cls-18" points="110.93 150.71 115.46 156.4 111.54 162.52 107.02 156.83 110.93 150.71"/><polygon class="cls-18" points="119.38 150.28 123.9 155.97 119.98 162.09 115.46 156.4 119.38 150.28"/><polygon class="cls-18" points="127.82 149.85 132.34 155.54 128.42 161.66 123.9 155.97 127.82 149.85"/><polygon class="cls-18" points="77.77 164.25 82.29 169.94 78.37 176.06 73.85 170.37 77.77 164.25"/><polygon class="cls-18" points="86.21 163.82 90.73 169.51 86.82 175.63 82.29 169.94 86.21 163.82"/><polygon class="cls-18" points="94.65 163.39 99.18 169.07 95.26 175.19 90.73 169.51 94.65 163.39"/><polygon class="cls-18" points="103.1 162.95 107.62 168.64 103.7 174.76 99.18 169.07 103.1 162.95"/><polygon class="cls-18" points="111.54 162.52 116.06 168.21 112.14 174.33 107.62 168.64 111.54 162.52"/><polygon class="cls-18" points="119.98 162.09 124.5 167.78 120.58 173.9 116.06 168.21 119.98 162.09"/><polygon class="cls-18" points="128.42 161.66 132.94 167.35 129.03 173.47 124.5 167.78 128.42 161.66"/><polygon class="cls-18" points="78.37 176.06 82.9 181.75 78.98 187.87 74.45 182.18 78.37 176.06"/><polygon class="cls-18" points="86.82 175.63 91.34 181.32 87.42 187.44 82.9 181.75 86.82 175.63"/><polygon class="cls-18" points="95.26 175.19 99.78 180.88 95.86 187 91.34 181.32 95.26 175.19"/><polygon class="cls-18" points="103.7 174.76 108.22 180.45 104.3 186.57 99.78 180.88 103.7 174.76"/><polygon class="cls-18" points="112.14 174.33 116.67 180.02 112.75 186.14 108.22 180.45 112.14 174.33"/><polygon class="cls-18" points="120.58 173.9 125.11 179.59 121.19 185.71 116.67 180.02 120.58 173.9"/><polygon class="cls-18" points="129.03 173.47 133.55 179.16 129.63 185.28 125.11 179.59 129.03 173.47"/><polygon class="cls-18" points="78.98 187.87 83.5 193.56 79.58 199.68 75.06 193.99 78.98 187.87"/><polygon class="cls-18" points="87.42 187.44 91.94 193.13 88.02 199.25 83.5 193.56 87.42 187.44"/><polygon class="cls-18" points="95.86 187 100.38 192.69 96.47 198.81 91.94 193.13 95.86 187"/><polygon class="cls-18" points="104.3 186.57 108.83 192.26 104.91 198.38 100.38 192.69 104.3 186.57"/><polygon class="cls-18" points="112.75 186.14 117.27 191.83 113.35 197.95 108.83 192.26 112.75 186.14"/><polygon class="cls-18" points="121.19 185.71 125.71 191.4 121.79 197.52 117.27 191.83 121.19 185.71"/><polygon class="cls-18" points="129.63 185.28 134.15 190.97 130.23 197.09 125.71 191.4 129.63 185.28"/><polygon class="cls-18" points="135.58 137.65 140.1 143.34 136.18 149.46 131.66 143.77 135.58 137.65"/><polygon class="cls-18" points="144.02 137.22 148.54 142.91 144.62 149.03 140.1 143.34 144.02 137.22"/><polygon class="cls-18" points="152.46 136.79 156.98 142.48 153.06 148.6 148.54 142.91 152.46 136.79"/><polygon class="cls-18" points="160.9 136.36 165.43 142.05 161.51 148.17 156.98 142.48 160.9 136.36"/><polygon class="cls-18" points="169.34 135.93 173.87 141.62 169.95 147.74 165.43 142.05 169.34 135.93"/><polygon class="cls-18" points="177.79 135.5 182.31 141.18 178.39 147.3 173.87 141.62 177.79 135.5"/><polygon class="cls-18" points="186.23 135.06 190.75 140.75 186.83 146.87 182.31 141.18 186.23 135.06"/><polygon class="cls-18" points="136.18 149.46 140.7 155.15 136.78 161.27 132.26 155.58 136.18 149.46"/><polygon class="cls-18" points="144.62 149.03 149.15 154.72 145.22 160.84 140.7 155.15 144.62 149.03"/><polygon class="cls-18" points="153.06 148.6 157.59 154.29 153.67 160.41 149.15 154.72 153.06 148.6"/><polygon class="cls-18" points="161.51 148.17 166.03 153.86 162.11 159.98 157.59 154.29 161.51 148.17"/><polygon class="cls-18" points="169.95 147.74 174.47 153.43 170.55 159.55 166.03 153.86 169.95 147.74"/><polygon class="cls-18" points="178.39 147.3 182.91 152.99 178.99 159.11 174.47 153.43 178.39 147.3"/><polygon class="cls-18" points="186.83 146.87 191.35 152.56 187.44 158.68 182.91 152.99 186.83 146.87"/><polygon class="cls-18" points="136.78 161.27 141.31 166.96 137.39 173.08 132.86 167.39 136.78 161.27"/><polygon class="cls-18" points="145.22 160.84 149.75 166.53 145.83 172.65 141.31 166.96 145.22 160.84"/><polygon class="cls-18" points="153.67 160.41 158.19 166.1 154.27 172.22 149.75 166.53 153.67 160.41"/><polygon class="cls-18" points="162.11 159.98 166.63 165.67 162.71 171.79 158.19 166.1 162.11 159.98"/><polygon class="cls-18" points="170.55 159.55 175.07 165.24 171.16 171.35 166.63 165.67 170.55 159.55"/><polygon class="cls-18" points="178.99 159.11 183.52 164.8 179.6 170.92 175.07 165.24 178.99 159.11"/><polygon class="cls-18" points="187.44 158.68 191.96 164.37 188.04 170.49 183.52 164.8 187.44 158.68"/><polygon class="cls-18" points="137.39 173.08 141.91 178.77 137.99 184.89 133.47 179.2 137.39 173.08"/><polygon class="cls-18" points="145.83 172.65 150.35 178.34 146.43 184.46 141.91 178.77 145.83 172.65"/><polygon class="cls-18" points="154.27 172.22 158.79 177.91 154.88 184.03 150.35 178.34 154.27 172.22"/><polygon class="cls-18" points="162.71 171.79 167.24 177.48 163.32 183.6 158.79 177.91 162.71 171.79"/><polygon class="cls-18" points="171.16 171.35 175.68 177.04 171.76 183.16 167.24 177.48 171.16 171.35"/><polygon class="cls-18" points="179.6 170.92 184.12 176.61 180.2 182.73 175.68 177.04 179.6 170.92"/><polygon class="cls-18" points="188.04 170.49 192.56 176.18 188.64 182.3 184.12 176.61 188.04 170.49"/><polygon class="cls-18" points="137.99 184.89 142.51 190.58 138.59 196.7 134.07 191.01 137.99 184.89"/><polygon class="cls-18" points="146.43 184.46 150.96 190.15 147.04 196.27 142.51 190.58 146.43 184.46"/><polygon class="cls-18" points="154.88 184.03 159.4 189.72 155.48 195.84 150.96 190.15 154.88 184.03"/><polygon class="cls-18" points="163.32 183.6 167.84 189.29 163.92 195.41 159.4 189.72 163.32 183.6"/><polygon class="cls-18" points="171.76 183.16 176.28 188.85 172.36 194.97 167.84 189.29 171.76 183.16"/><polygon class="cls-18" points="180.2 182.73 184.72 188.42 180.81 194.54 176.28 188.85 180.2 182.73"/><polygon class="cls-18" points="188.64 182.3 193.17 187.99 189.25 194.11 184.72 188.42 188.64 182.3"/></g><circle class="cls-19" cx="133.71" cy="102.53" r="1.43"/><circle class="cls-20" cx="133.71" cy="102.53" r="1.07"/><circle class="cls-19" cx="133.42" cy="102.26" r="0.13"/><circle class="cls-19" cx="133.99" cy="102.26" r="0.13"/><circle class="cls-19" cx="133.42" cy="102.8" r="0.13"/><circle class="cls-19" cx="133.99" cy="102.8" r="0.13"/><circle class="cls-19" cx="133.71" cy="111.59" r="1.43"/><circle class="cls-20" cx="133.71" cy="111.59" r="1.07"/><circle class="cls-19" cx="133.42" cy="111.32" r="0.13"/><circle class="cls-19" cx="133.99" cy="111.32" r="0.13"/><circle class="cls-19" cx="133.42" cy="111.85" r="0.13"/><circle class="cls-19" cx="133.99" cy="111.85" r="0.13"/><circle class="cls-19" cx="133.71" cy="120.65" r="1.43"/><circle class="cls-20" cx="133.71" cy="120.65" r="1.07"/><circle class="cls-19" cx="133.42" cy="120.38" r="0.13"/><circle class="cls-19" cx="133.99" cy="120.38" r="0.13"/><circle class="cls-19" cx="133.42" cy="120.91" r="0.13"/><circle class="cls-19" cx="133.99" cy="120.91" r="0.13"/><circle class="cls-19" cx="133.71" cy="129.7" r="1.43"/><circle class="cls-20" cx="133.71" cy="129.7" r="1.07"/><circle class="cls-19" cx="133.42" cy="129.44" r="0.13"/><circle class="cls-19" cx="133.99" cy="129.44" r="0.13"/><circle class="cls-19" cx="133.42" cy="129.97" r="0.13"/><circle class="cls-19" cx="133.99" cy="129.97" r="0.13"/><circle class="cls-19" cx="133.71" cy="138.76" r="1.43"/><circle class="cls-20" cx="133.71" cy="138.76" r="1.07"/><circle class="cls-19" cx="133.42" cy="138.5" r="0.13"/><circle class="cls-19" cx="133.99" cy="138.5" r="0.13"/><circle class="cls-19" cx="133.42" cy="139.03" r="0.13"/><circle class="cls-19" cx="133.99" cy="139.03" r="0.13"/><circle class="cls-19" cx="133.71" cy="147.82" r="1.43"/><circle class="cls-20" cx="133.71" cy="147.82" r="1.07"/><circle class="cls-19" cx="133.42" cy="147.56" r="0.13"/><circle class="cls-19" cx="133.99" cy="147.56" r="0.13"/><circle class="cls-19" cx="133.42" cy="148.09" r="0.13"/><circle class="cls-19" cx="133.99" cy="148.09" r="0.13"/><circle class="cls-19" cx="133.71" cy="156.88" r="1.43"/><circle class="cls-20" cx="133.71" cy="156.88" r="1.07"/><circle class="cls-19" cx="133.42" cy="156.61" r="0.13"/><circle class="cls-19" cx="133.99" cy="156.61" r="0.13"/><circle class="cls-19" cx="133.42" cy="157.15" r="0.13"/><circle class="cls-19" cx="133.99" cy="157.15" r="0.13"/><path class="cls-1" d="M228.38,103.08a16.38,16.38,0,0,0-.83,1.68"/><path class="cls-9" d="M145.81,63.86a1.16,1.16,0,0,1,1-.72c.55,0,.83.66,1,1.19a12.59,12.59,0,0,1,.34,2.73,2.12,2.12,0,0,1-.09.75,4,4,0,0,1-.36.64,7,7,0,0,0-.61,1.91,3,3,0,0,1-1,1.74.81.81,0,0,1-.53.2.74.74,0,0,1-.59-.75,2.71,2.71,0,0,1,.27-1,7.13,7.13,0,0,0,.44-3.45C145.51,65.94,145.21,65,145.81,63.86Z"/><path class="cls-7" d="M119.77,64.12a1.16,1.16,0,0,0-1-.72c-.55,0-.84.66-1,1.19a11.93,11.93,0,0,0-.34,2.73,2.11,2.11,0,0,0,.08.75,4.6,4.6,0,0,0,.37.64,7.75,7.75,0,0,1,.61,1.91,3,3,0,0,0,1,1.74.9.9,0,0,0,.54.2.75.75,0,0,0,.59-.75,2.72,2.72,0,0,0-.28-1,7.38,7.38,0,0,1-.44-3.45C120.07,66.2,120.37,65.23,119.77,64.12Z"/><path class="cls-10" d="M124.63,50.2c2,.43,3.7,1.73,5.63,2.42a12,12,0,0,0,3.7.66l-.27-.25a.33.33,0,0,1,.32,0c-.09-.18.21-.38.34-.22l.18-.49c.29-.07.68.25.83,0a.36.36,0,0,0,0-.27,1.24,1.24,0,0,0-.55-.7c.89.68,2.12.62,3.22.85,2,.4,3.79,1.78,5.75,1.41a4.7,4.7,0,0,1-1.21-2.25,12.47,12.47,0,0,0-1.51-3.32,14.67,14.67,0,0,0-2.35-2.44A11.41,11.41,0,0,0,136.47,44a8.05,8.05,0,0,0-3.24-.83,14.28,14.28,0,0,0-8.8,2.31,6.27,6.27,0,0,0-2.78,3.34.17.17,0,0,0,.27,0,2.06,2.06,0,0,0-.36.56.4.4,0,0,0,0,.32c.06.09.24.09.25,0a2.38,2.38,0,0,0-.19,1.2c.38-.15.61-.54,1.05-.68A3.91,3.91,0,0,1,124.63,50.2Z"/><path class="cls-10" d="M128.48,52.22a5.34,5.34,0,0,0-2.42,0,3.14,3.14,0,0,0-1.93,1.4,11.45,11.45,0,0,0-.51,1.26A10.43,10.43,0,0,1,122,57.38l1-.26a.75.75,0,0,0,.12.66.73.73,0,0,1,.17.26.54.54,0,0,1-.16.43c-1.72,2.37-3.36,5-2.5,8.08a12.86,12.86,0,0,1,.4,2.76c0,.49,0,1,0,1.45s-.1,1-.06,1.45a1.59,1.59,0,0,0,.44,1A5.17,5.17,0,0,1,120,69.84a11.56,11.56,0,0,0-.14-2c-.15-.72-.39-1.42-.54-2.14a6.1,6.1,0,0,1-.12-1.13c0-.87.26-2.84.24-2.93-.27-1.12-.59-2.22,0-3.21a.72.72,0,0,1-.4.28l0-3.27a13.36,13.36,0,0,1,.12-2.28,6.52,6.52,0,0,1,1-2.54,7.39,7.39,0,0,0,.51-.81c.07-.16.12-.31.19-.46a2.3,2.3,0,0,1,.6-.68,8.29,8.29,0,0,1,10.45-.27,1.59,1.59,0,0,1,.64.79,1.52,1.52,0,0,1,0,.67,4.25,4.25,0,0,1-1.34,2.3C130.42,52.77,129.3,52.38,128.48,52.22Z"/><path class="cls-10" d="M139.52,45.86a1.06,1.06,0,0,1-.09.5,2,2,0,0,1,.8-.26l0,.56c.32-.1.59.43.32.63a11.17,11.17,0,0,1,2.71,0,11,11,0,0,0-1.56.72l-.06.36.71.06-.16.32a5.06,5.06,0,0,1,2.3,2.23,13.55,13.55,0,0,1,1.16,3,19.3,19.3,0,0,1,.76,3.67,30,30,0,0,1,0,4.92,2,2,0,0,1-.13.55,3,3,0,0,1-.5.68c-.9,1.12-.4,1.77-.32,3.2s0,3.29-1,4.32c1-1.93-.26-4.33-.21-6.47a21.58,21.58,0,0,0,.09-2.78c-.17-1.68-1.12-3.18-1.57-4.82-.3-1.11-.37-2.27-.64-3.38A4.75,4.75,0,0,0,140.38,51a11.34,11.34,0,0,1-1.38-.85,2.67,2.67,0,0,1-.8-1.75,4.72,4.72,0,0,1,.08-1.91C138.4,46.2,139.51,45.69,139.52,45.86Z"/><path class="cls-21" d="M118.12,55.58a16.49,16.49,0,0,1,2.67-7.47,12.6,12.6,0,0,1,6.2-4.86,15.84,15.84,0,0,1,5.17-.75,16.45,16.45,0,0,1,7.33,1.5,9.49,9.49,0,0,1,4.94,5.43,10.56,10.56,0,0,0-4.33-1.81,16.18,16.18,0,0,0-2.95-.17c-6,.16-12.15,2.48-16,7.13-1.08,1.32-1.76,2.9-2.78,4.24C117.73,58.45,118.05,56.25,118.12,55.58Z"/><path class="cls-22" d="M123.15,53.9a23.73,23.73,0,0,1,8.67-4.55,17.19,17.19,0,0,1,7.64-1.17c2.58.35,5.13,2,5.8,4.45,0-1.91-.33-4.23-1.92-5.86a8.24,8.24,0,0,0-3.56-2c-4.68-.82-9.91,1-14.16,3.11a20.44,20.44,0,0,0-6.27,4.25c-1.62,1.82-1.75,5.72-1.14,8.06.15.59.56,1.82,1.29,1.86.35-1.47.2-2.89.86-4.36A11.56,11.56,0,0,1,123.15,53.9Z"/><path class="cls-1" d="M158.58,73.43l-.47.54"/><path class="cls-3" d="M124.6,83.92a10.4,10.4,0,0,0-.43,2.61,1,1,0,0,0,.06.43.88.88,0,0,0,.4.36c3,1.76,6.48,2.77,8.79,5.33-.27-.85-.26-1.77-.55-2.62-.52-1.53-2.42-2.08-3.7-2.82C128.66,86.91,124.44,84.45,124.6,83.92Z"/><path class="cls-23" d="M133.35,96a12.87,12.87,0,0,1-1.23,2.79c-.83,1.42-2.52,3.81-4.19,4.23-.52-1.68-.73-3.47-1.25-5.17a36.65,36.65,0,0,0-1.94-5A16.39,16.39,0,0,1,123.19,89a6.31,6.31,0,0,1-.08-.76,4.72,4.72,0,0,1,.06-1.06s0,0,0-.08a3.87,3.87,0,0,1,.45-1.23l.08-.12a1.07,1.07,0,0,1,.15-.22,2.86,2.86,0,0,1,.37-.41,2.47,2.47,0,0,0,1.34,2,14,14,0,0,0,2.31.9,10,10,0,0,1,4.36,3.17,17.36,17.36,0,0,0,1.62,2C134.19,93.39,133.47,95.63,133.35,96Z"/><path class="cls-24" d="M128.53,96.11c-1.35-2.3-2-5-4-6.9a6.06,6.06,0,0,1-.75-.77,4.45,4.45,0,0,1-.64-1.39,3.87,3.87,0,0,1,.45-1.23,4.55,4.55,0,0,0,.16.87A5,5,0,0,0,125,88.13a11.35,11.35,0,0,1,2.61,4.34,13.34,13.34,0,0,0-2.9-4A21.51,21.51,0,0,1,128.53,96.11Z"/><path class="cls-24" d="M132.72,96.25c-.09.17-.18.35-.26.54a13,13,0,0,1-4.05,5.46l-.15.1,0-.18a32.3,32.3,0,0,0-3.52-10.28l-.1-.19a15.57,15.57,0,0,1-1.51-3.51,4.72,4.72,0,0,1,.06-1.06,11.84,11.84,0,0,0,1.65,4.46l.1.19A32.74,32.74,0,0,1,128.44,102a13,13,0,0,0,3.81-5.26c.08-.19.17-.37.26-.54.57-1.18,1-2,.12-3.18l0,0c-2.07-2.72-3.11-3.59-3.62-3.84a9,9,0,0,0-1.49-.54,6.54,6.54,0,0,1-2.14-1,5,5,0,0,1-1.65-1.91,1.07,1.07,0,0,1,.15-.22,4.82,4.82,0,0,0,1.64,2,6.44,6.44,0,0,0,2.06.9,10.18,10.18,0,0,1,1.53.56c.77.38,2,1.69,3.7,3.91l0,0C133.77,94.09,133.28,95.09,132.72,96.25Z"/><path class="cls-1" d="M223.79,129.15l-4.44,4.63"/><path class="cls-3" d="M142.54,83.92a10,10,0,0,1,.61,2.47,1,1,0,0,1,0,.43.85.85,0,0,1-.36.37c-2.72,1.91-6,3.12-8.07,5.74.21-.83.13-1.71.35-2.55.39-1.5,2.18-2.17,3.35-3C138.86,87.08,142.74,84.42,142.54,83.92Z"/><path class="cls-23" d="M135,96.18a12.88,12.88,0,0,0,1.38,2.59c.9,1.3,2.7,3.47,4.33,3.76.38-1.65.46-3.39.84-5.06a34.28,34.28,0,0,1,1.5-5,15.65,15.65,0,0,0,1.21-3.85,4.46,4.46,0,0,0,0-.73,4.24,4.24,0,0,0-.14-1,.19.19,0,0,0,0-.08,3.4,3.4,0,0,0-.51-1.15l-.08-.11-.17-.21A2.6,2.6,0,0,0,143,85a2.41,2.41,0,0,1-1.15,2,15.16,15.16,0,0,1-2.15,1,9.66,9.66,0,0,0-4,3.35,12.32,12.32,0,0,1-1.44,1.78C134,93.46,134.86,95.81,135,96.18Z"/><path class="cls-24" d="M139.64,95.91c1.13-2.3,1.62-5,3.32-6.91a5.53,5.53,0,0,0,.66-.79,4.2,4.2,0,0,0,.51-1.38,3.4,3.4,0,0,0-.51-1.15,3.57,3.57,0,0,1-.1.84,4.88,4.88,0,0,1-1,1.47,10.77,10.77,0,0,0-2.21,4.35,13.25,13.25,0,0,1,2.5-4.06A20.82,20.82,0,0,0,139.64,95.91Z"/><path class="cls-24" d="M135.63,96.35l.29.5a12.48,12.48,0,0,0,4.27,5l.16.09v-.19A31.25,31.25,0,0,1,143,91.58l.09-.19a15.17,15.17,0,0,0,1.2-3.47,4.24,4.24,0,0,0-.14-1,11.28,11.28,0,0,1-1.27,4.39l-.08.19a31.44,31.44,0,0,0-2.65,10,12.46,12.46,0,0,1-4-4.78c-.09-.18-.19-.35-.29-.51-.64-1.09-1.1-1.88-.34-3l0,0c1.79-2.76,2.73-3.68,3.2-4a10.54,10.54,0,0,1,1.39-.63,6,6,0,0,0,2-1.06,4.8,4.8,0,0,0,1.46-2l-.17-.21a4.49,4.49,0,0,1-1.44,2,5.76,5.76,0,0,1-1.92,1,9.85,9.85,0,0,0-1.42.65c-.72.41-1.82,1.77-3.28,4l0,0C134.46,94.35,135,95.27,135.63,96.35Z"/></svg>