<svg id="Layer_1" data-name="Layer 1" xmlns="http://www.w3.org/2000/svg" xmlns:xlink="http://www.w3.org/1999/xlink" viewBox="0 0 331 438"><defs><style>.cls-1{fill:none;}.cls-2{clip-path:url(#clip-path);}.cls-3{fill:#7541ee;}.cls-4{fill:#fff;}.cls-5{fill:#6b84b5;}.cls-6{fill:#cfd5e0;}.cls-7{fill:#ccb48d;}.cls-8{opacity:0.35;}.cls-9{fill:#d6c5a9;}.cls-10{fill:#1a293f;}.cls-11{fill:#f5f6f7;}.cls-12{fill:#28323a;}.cls-13{fill:#7d7f9e;}.cls-14{clip-path:url(#clip-path-2);}.cls-15{fill:#595b85;}.cls-16{fill:#221f10;}.cls-17{fill:#504e42;}.cls-18{fill:#404040;}.cls-19{fill:#0a0a0a;}.cls-20{fill:#d1e7fd;}.cls-21{fill:#729fcc;}.cls-22{clip-path:url(#clip-path-3);}</style><clipPath id="clip-path"><rect class="cls-1" width="331" height="438"/></clipPath><clipPath id="clip-path-2"><path class="cls-1" d="M322.33,364.43l-42-116.83a144.57,144.57,0,0,0-22.87-19.77,146.65,146.65,0,0,0-23.19-13.19q-6-2.73-12.2-4.9c-1.72-.6-4.83-2.07-7.69-3-1-.41-2.08-.8-3.25-1.16-28.54-8.88-25.73,5.32-33.3,7.73-6.84,2.18-2.64,6.46-9.81,6.68-7.66.23-5.05-28.72-47.8-13.86h0c-3.32.61-7.81,2.81-10,3.58q-6.21,2.17-12.2,4.9A146.11,146.11,0,0,0,74.8,227.83,144.2,144.2,0,0,0,51.92,247.6l-42,116.83c-2.31,6.44-4.66,13.08-4.35,19.91.26,5.93,2.5,11.58,4.72,17.09L23.79,435c4.15,10.33,8.31,20.68,13.48,30.54,3.67,7,9.26,11.6,16.07,16.57.11-5.72,5.62-9.47,10.65-12.19,4.45-2.4,14.89-4.48,20-2a235.07,235.07,0,0,0-2.89-34.79,39.54,39.54,0,0,0,5.26,1.74c19.09,5,33.44-.78,47.2.64,30.56,3.16,54.5,13,84.26,5.35,15.32-3.94,29.08-14.64,35.93-22.76-1.95,15.33-2.41,31-3.63,48.17,5.14-2.51,13.66,1.21,18.11,3.61,5,2.72,10.54,6.47,10.66,12.19,6.8-5,12.39-9.57,16.06-16.57,5.17-9.86,9.33-20.21,13.48-30.54L322,401.43c2.22-5.51,4.46-11.16,4.73-17.09C327,377.51,324.64,370.87,322.33,364.43Zm-56.05,7.95,0-.33a.25.25,0,0,0,.13-.05C266.39,372.13,266.33,372.25,266.28,372.38Z"/></clipPath><clipPath id="clip-path-3"><rect class="cls-1" x="-398.04" width="331" height="438"/></clipPath></defs><g class="cls-2"><rect class="cls-3" width="331" height="438"/><path class="cls-4" d="M322.33,364.43l-42-116.83a144.57,144.57,0,0,0-22.87-19.77,146.65,146.65,0,0,0-23.19-13.19q-6-2.73-12.2-4.9c-1.76-.61-5-2.14-7.89-3-1-.38-2-.76-3.05-1.1a59.12,59.12,0,0,0-13.35-2.8c-.06-.4-.07-.81-.16-1.19l-.06-.22a10.29,10.29,0,0,0-1.5-3.34,3.88,3.88,0,0,0-.23-.33c-.15-.2-.31-.39-.48-.58a7.88,7.88,0,0,0-1.11-1,6,6,0,0,1-.1.85,30.11,30.11,0,0,0-1.1-3.73l.62-14.8a48.11,48.11,0,0,0,6.21-11.85,61.73,61.73,0,0,0,1.66-7.33l.05,0a2.39,2.39,0,0,0,1.55-.58,8.92,8.92,0,0,0,2.77-5,21,21,0,0,1,1.77-5.55,11.81,11.81,0,0,0,1.05-1.86,6.11,6.11,0,0,0,.26-2.17,36.2,36.2,0,0,0-1-7.9c-.37-1.55-1.2-3.37-2.79-3.45a3.22,3.22,0,0,0-2.69,1.93l0-.21a7.84,7.84,0,0,0,1.31-1.79,5.74,5.74,0,0,0,.36-1.59,84,84,0,0,0-.09-14.27,52.66,52.66,0,0,0-2.19-10.64,42.11,42.11,0,0,0-3-8.1,14.36,14.36,0,0,1,2,4.17c-.1-5.52-1-12.24-5.57-17a20.39,20.39,0,0,0-3.7-2.84,30.62,30.62,0,0,0-7.47-5.2c-6.54-3.24-14-4.33-21.25-4.34a46.06,46.06,0,0,0-15,2.17,36.66,36.66,0,0,0-18,14.09A46,46,0,0,0,123,105.67c-2,5.74-1.93,13.43-.6,18.55.42,1.64,1.56,5,3.51,5.33-.1,1.06-.29,2.74-.43,4.35a2.14,2.14,0,0,0-1.35-.44c-1.59.08-2.41,1.9-2.78,3.45a35.6,35.6,0,0,0-1,7.9,6.11,6.11,0,0,0,.26,2.17,12.59,12.59,0,0,0,1,1.86,20.7,20.7,0,0,1,1.78,5.55,8.83,8.83,0,0,0,2.77,5,2.39,2.39,0,0,0,1.55.58.24.24,0,0,1,.09,0,66.47,66.47,0,0,0,3.26,9.49,48,48,0,0,0,9.77,14.84c0,2.61,0,5.73,0,8.86a30.79,30.79,0,0,0-.86,4,4.32,4.32,0,0,1-.17-.87,7.39,7.39,0,0,0-1.07,1.17,5.31,5.31,0,0,0-.45.64,2.56,2.56,0,0,0-.22.35,10.91,10.91,0,0,0-1.3,3.58.5.5,0,0,1,0,.12,75.51,75.51,0,0,0-16.57,4l0,0c-3.32.62-7.79,2.8-10,3.57q-6.21,2.17-12.2,4.9A146.11,146.11,0,0,0,74.8,227.83,144.2,144.2,0,0,0,51.92,247.6l-42,116.83c-2.31,6.44-4.66,13.08-4.35,19.91.26,5.93,2.5,11.58,4.72,17.09L23.79,435c4.15,10.33,8.31,20.68,13.48,30.54,3.68,7,9.26,11.6,16.07,16.57a9.39,9.39,0,0,1,1.92-5.39,5.23,5.23,0,0,1,.28.47,23.77,23.77,0,0,1,1,2.32c.46-.38,1-.7,1.43-1.06.2.45.44.87.63,1.32,1.08,2.74,1.86,5.59,2.77,8.38A150.3,150.3,0,0,0,70,508.39a17.12,17.12,0,0,1-1.09,4.5,11.22,11.22,0,0,0-1.36,2.65l-.74-.16a13.35,13.35,0,0,1-1,4.48.66.66,0,0,0,.19.53c-.2.65-.41,1.3-.65,1.87a46.12,46.12,0,0,0-4,19c0,1.65.39,3.3.28,4.94a23.05,23.05,0,0,1-1.53,5.66c-1.42,4.23-3.15,12.71-4.87,22.39H156.92c1.38-8.61,2.8-17.46,4.39-27.08.76,1.53,1.55,13.2,2.51,27.08h94.31c-1.17-19.25-2.52-36.18-2.07-38.36a51.5,51.5,0,0,0,.56-12.41q-.11-3.32-.23-6.63c.71,0,1.48-.33,1.41-1a14.62,14.62,0,0,1-.73-2.63,7.15,7.15,0,0,0,1.81-2.55c4.08-8.09,8.17-16.21,11-24.81.91-2.8,1.68-5.65,2.77-8.38.12-.29.27-.55.39-.84a11.19,11.19,0,0,1,1.74,1.47l1.78-1.85.07-.08a9.66,9.66,0,0,1,2.31,5.9c6.8-5,12.39-9.57,16.06-16.57,5.17-9.86,9.33-20.21,13.48-30.54L322,401.43c2.22-5.51,4.46-11.16,4.72-17.09C327,377.51,324.64,370.87,322.33,364.43ZM266.44,372c-.06.14-.11.28-.17.41,0-.13,0-.26,0-.39S266.41,372,266.44,372Zm-15.16,76.27c-.49-2.37-1-4.75-1.51-7.11a159,159,0,0,1-2.28-16.65,63.27,63.27,0,0,0,6.29-6.37C252.53,427.93,251.9,437.89,251.28,448.27Z"/><path class="cls-4" d="M181.35,555.43H238c-1.08-16.79-1.15-19.81-.42-23.32a40.66,40.66,0,0,0,.18-8l-.5-14.16-.84-4.55.67-.53-.18-5.17,5.66-.53-4-19.17L235,488.1l1.79-16.84-4-19.16q-.72-3.48-1.47-7A142.92,142.92,0,0,1,229,429.3l-1.36-12.42,7.29-6.47a43.37,43.37,0,0,0,4.4-4.43l5-5.92,4.71-44,10.72-2,32-18.69L264,257.78a126.64,126.64,0,0,0-17.27-14.48,128.25,128.25,0,0,0-20.2-11.49c-1.53-.7-3.08-1.36-4.63-2l.39,23.22-7-25.7c-.84-.31-1.86-.72-3-1.19-.79-.33-1.72-.71-2.53-1l-9.91,82.52L175.74,201.1a10.41,10.41,0,0,0-.38-1.31L174,196.23l.55-13.13L173,155.91l8.32,6.4a11,11,0,0,0,.56-1.37,43.18,43.18,0,0,0,1.09-5l1.87-10.7L183.69,136l-.64-7.75,2.51-3c0-1.86-.09-4.27-.3-7.08a38.12,38.12,0,0,0-1.52-6.84,29.13,29.13,0,0,0-1.58-4.56l7.42-4.37-7.61.13a17.79,17.79,0,0,0-.43-4.17l-1.55-1-1.34-1.26a12.1,12.1,0,0,0-2.92-2c-3.19-1.58-7.52-2.38-12.9-2.38h0A27.18,27.18,0,0,0,154,92.85a18,18,0,0,0-8.58,6.9,27.42,27.42,0,0,0-4,9.81l-.26,1.23-.42,1.19a6.47,6.47,0,0,0-.25,1l5.94,1-1.88,18.36c-.1.91-.22,2.06-.31,3.18l-.86,9.68,2.65,9.85a45.88,45.88,0,0,0,2.3,6.75c.15.34.31.69.47,1l9.11-8.21.38,20.4,1.42,1.42v7.85c0,2.58,0,5.67,0,8.78v2.74l-.77,2.63a10.09,10.09,0,0,0-.31,1.47L142.93,305.87,126.25,224l-1.36.46-1.29.24c-.56.15-2.57,1-3.65,1.43-1.39.58-2.62,1.07-3.56,1.4-3.57,1.25-7.14,2.68-10.61,4.26a126.8,126.8,0,0,0-37.48,26l-40.63,113c-1.68,4.66-3.41,9.48-3.26,12.69.12,2.79,1.77,6.91,3.37,10.89L41.29,428c3.16,7.88,6.2,15.43,9.61,22.63l5.41-7.48,5.47,8.64,3.73-2.86,9.62,21.73c.36.75.67,1.41.94,2.09,1.08,2.7,1.85,5.18,2.52,7.37.23.75.46,1.5.7,2.24A130,130,0,0,0,86.92,500l2.67,5.36-.93,5.93c-.7,4.54-1.59,8.13-3.6,11.4L84,526.1c-.4,1.26-.82,2.47-1.29,3.56a27.61,27.61,0,0,0-2.53,11.13l.06.59a35.63,35.63,0,0,1,.18,6.11,32.14,32.14,0,0,1-1.61,7.94h62.07q.88-5.49,1.84-11.29l9.46-57.49,26,52.13C179.82,542.07,180.47,544.81,181.35,555.43Zm93.48-18ZM270,451,273,453.2l5.2-5.2,2.79,3.47c3.57-7.45,6.72-15.29,10-23.49l13.51-33.59c1.6-4,3.25-8.1,3.37-10.88.15-3.23-1.66-8.26-3.26-12.7L297.44,351l-14,29.19-8.17,18.19-2.81,22.18c-1.16,9.14-1.77,18.49-2.39,28.88Z"/><path class="cls-4" d="M213,95.69c-1-7.86-3.93-14.31-8.72-19.22a30.9,30.9,0,0,0-4.67-3.84l-.32-.21-.28-.25a43.34,43.34,0,0,0-9.32-6.23c-7.54-3.73-16.56-5.63-26.85-5.63a57.83,57.83,0,0,0-19.05,2.85A49.26,49.26,0,0,0,119.51,82a58.12,58.12,0,0,0-8.58,20l-.06.26-.08.26a47.55,47.55,0,0,0-.56,24.77l.52,2-.75,1.91a20.77,20.77,0,0,0-.87,2.77,49.14,49.14,0,0,0-1.33,10.66,18.41,18.41,0,0,0,1,6.56,17.09,17.09,0,0,0,1.37,2.91l.53.93.22,1,.35,1.47a22.39,22.39,0,0,0,5.06,9.85l.89,1,.44,1.24c.61,1.74,1.27,3.43,2,5a72.41,72.41,0,0,0,4.67,8.85l4.37,7-7.9,2.39c-1.21.36-2.44.76-3.69,1.18l-.28.1-.28.06a58.6,58.6,0,0,0-8.62,3l-.43.18c-.51.21-1,.4-1.43.57-4.45,1.55-8.91,3.34-13.25,5.31a160.39,160.39,0,0,0-25.17,14.32A156.91,156.91,0,0,0,42.76,239L41,240.92-1.88,360.19c-2.58,7.17-5.51,15.3-5.09,24.7C-6.61,393-3.82,400-1.35,406.1l13.5,33.59c4.19,10.43,8.53,21.22,14,31.68C31.21,481,39,487.19,45.94,492.24l2.57,1.89,2.35,6.43,4.39-3.81-1,18.11-.77,1.84-.19,1.74-.31.79a57.26,57.26,0,0,0-4.27,22.38c0,.67.07,1.43.16,2.39l.11,1.17-.38,1.33-.48,1.39c-1.5,4.46-3.15,11.92-5.33,24.2l-2.62,14.74H271.46l-.81-13.3c-.34-5.55-.69-10.91-1-15.81-.52-8-1.06-16.26-1.11-19.49v-.58l.09-.58a66.62,66.62,0,0,0,.55-14l0-1.37.42-1.14a13.32,13.32,0,0,0,.78-3.59l.09-1.25.56-1.13c2.54-5.05,5-10,7.24-15.3l.68-1.61,7.42-5.42c6.92-5.05,14.72-11.24,19.77-20.87,5.46-10.41,9.81-21.22,14-31.68l13.5-33.59c2.46-6.13,5.25-13.08,5.61-21.21.42-9.4-2.5-17.52-5.08-24.7L291.26,240.92,289.5,239a157.43,157.43,0,0,0-24.87-21.5,159.94,159.94,0,0,0-25.17-14.32q-6.48-2.94-13.32-5.34c-.44-.16-1-.38-1.54-.62l-.31-.13c-1.45-.6-3.26-1.35-5.18-2l-4.19-1.43L214.44,165l.92-1.54a25,25,0,0,0,2.7-6.71c.09-.35.18-.71.26-1.06l.07-.31.2-1,.55-.93a17.4,17.4,0,0,0,1.4-2.93,18.36,18.36,0,0,0,1-6.56,48,48,0,0,0-1.33-10.67,19.39,19.39,0,0,0-2.3-5.65l-.9-1.48,0-1.74c0-2.55-.16-5.41-.39-8.5a64.85,64.85,0,0,0-2.64-13.16s-.25-.88-.36-1.22l-.23-.77,0-.8Z"/><path class="cls-4" d="M189.81,109.59a43.2,43.2,0,0,1,1.74,8.12c.2,2.72.31,5.32.32,7.51v2.32l-2.33,2.78.42,5,1.24,10.08-2,11.63a49.71,49.71,0,0,1-1.27,5.73A16.9,16.9,0,0,1,187,165l-3.33,7.12-3.59-2.76.8,13.7-.51,12.17.88,2.37a15.37,15.37,0,0,1,.63,2.12l16,70.89,6.51-54.25,7.55,2.87c.87.33,1.87.74,2.71,1.09l.68.29v-.24l8.85,3.61c1.64.67,3.27,1.37,4.86,2.09a135.15,135.15,0,0,1,21.19,12.07,131.14,131.14,0,0,1,18.14,15.2l1,1,41.11,114.34c1.88,5.24,3.83,10.65,3.63,15.12-.17,3.85-1.94,8.25-3.83,12.95l-13.51,33.59c-3.35,8.34-6.51,16.21-10.18,23.87l-4.34,9.05-4.66-5.81-4.05,4.06-10.08-7.42.31-5.06c.62-10.51,1.23-20,2.42-29.3l2.93-23.12,8.55-19,17.7-37L262,360.05l-7.18,1.35-4.42,41.25-6.25,7.41a50.64,50.64,0,0,1-5,5.06l-4.85,4.32,1,9.23a140.75,140.75,0,0,0,2.2,15.14c.5,2.33,1,4.67,1.48,7l11.21,54-6.76.63.09,2.44-.19.14.23,1.25.52,14.67a42.8,42.8,0,0,1-.31,9.4c-.56,2.71-.49,5.75.54,21.64l.43,6.72h-69.2l-.48-5.79c-.85-10.12-1.39-12.06-2.54-14.35l-17.31-34.69-6.3,38.26q-.94,5.79-1.84,11.27l-.86,5.3H70.08l2.71-8.28a26,26,0,0,0,1.32-6.38,29.25,29.25,0,0,0-.17-5l-.08-.84V541a33.9,33.9,0,0,1,3-13.76c.33-.78.67-1.74,1.07-3l1.32-4.13.4-.66c1.31-2.12,2-4.58,2.75-9.07l.61-3.95-1.77-3.56a135.72,135.72,0,0,1-8-18.52c-.21-.63-.4-1.26-.6-1.89l-.14-.45c-.64-2.07-1.36-4.4-2.34-6.88-.19-.48-.42-1-.75-1.65l-.06-.12L63,458.78,60.14,461,56,454.36l-6.2,8.57-4.57-9.63c-3.49-7.37-6.53-14.95-9.76-23l-13.5-33.59c-1.88-4.67-3.66-9.09-3.83-13-.19-4.47,1.75-9.88,3.63-15.11L62.84,254.33l1-1A131.85,131.85,0,0,1,82,238.13a134.11,134.11,0,0,1,21.2-12.07c3.63-1.65,7.38-3.15,11.15-4.47.9-.31,2.26-.87,3.27-1.29a39.66,39.66,0,0,1,4.35-1.67l.25-.07,1.12-.21,7.7-2.57,11,53.72L152.43,199a16.36,16.36,0,0,1,.49-2.33l.52-1.75v-1.82c0-3.12,0-6.21,0-8.81v-5.22l-1.37-1.37-.17-9.13-5.15,4.63-3.62-7.67c-.18-.38-.36-.77-.53-1.17a53.25,53.25,0,0,1-2.63-7.67L137,145.78,138,135c.1-1.13.22-2.29.32-3.28l1.28-12.52-6.39-1.12,1.12-6.24a13.5,13.5,0,0,1,.51-2l.28-.79.17-.82a33.54,33.54,0,0,1,5-12.07A24.42,24.42,0,0,1,152,86.88a33.72,33.72,0,0,1,10.89-1.48c6.35,0,11.63,1,15.68,3A18.49,18.49,0,0,1,183,91.53l.89.84L187,94.32l.49,1.81"/><path class="cls-5" d="M258.13,574.28H163.82c-1-13.88-1.75-25.55-2.51-27.08-1.59,9.62-3,18.47-4.39,27.08H55.19c1.72-9.68,3.45-18.16,4.87-22.39a23.05,23.05,0,0,0,1.53-5.66c.11-1.64-.24-3.29-.28-4.94a46,46,0,0,1,4-19c1.21-2.86,1.72-6.85,3.59-9.38.61-.82,1.41-6.1,1.5-7.89.22-4.27-2-8.22-1.3-12.45l3.36-19.93c2.33-13.8,6-31.76,8.73-45.49,8.9,1.63,16.6,6.19,25.63,5.57,5.63-.39,11.19-1.65,16.82-2,14.48-.79,28.81,4.73,43.24,3.43,9.71-.87,18.92-4.78,28.61-5.92,4.5-.52,9-.44,13.56-.79a70.89,70.89,0,0,0,36.74-13.87c2,9.38,1.91,18.2,3.94,27.58,1.58,7.29,3.16,14.6,4.08,22s1.17,14.73,1.43,22.11q.67,19.13,1.34,38.24a51.5,51.5,0,0,1-.56,12.41C255.61,538.1,257,555,258.13,574.28Z"/><path class="cls-6" d="M118.85,431a3.37,3.37,0,0,0-.07,1.58,58.33,58.33,0,0,1,.56,8c-.08,3.5-.81,7-.69,10.47a42.49,42.49,0,0,0,.48,4.63l.45,3.22a1.14,1.14,0,0,0,.12.41,1,1,0,0,0,.51.37,6.9,6.9,0,0,0,5.37-.08c-.78-1.17-.42-2.71-.22-4.1.42-2.95,0-5.95,0-8.94s.54-6.15.46-9.23a68.13,68.13,0,0,1,.16-8,10,10,0,0,0-4.16.11C120.76,429.75,119.29,429.87,118.85,431Z"/><path class="cls-6" d="M206.82,427.79a3.41,3.41,0,0,1,.07,1.59,58.12,58.12,0,0,0-.57,8c.09,3.49.81,7,.7,10.46a42.43,42.43,0,0,1-.49,4.64l-.45,3.21a.8.8,0,0,1-.62.78,7,7,0,0,1-5.38-.07c.78-1.17.42-2.72.22-4.11-.42-2.95,0-5.95,0-8.93s-.53-6.15-.46-9.23a66.18,66.18,0,0,0-.16-8,10.11,10.11,0,0,1,4.17.12C204.9,426.51,206.37,426.63,206.82,427.79Z"/><path class="cls-7" d="M193.79,175.2l-1.36,32.59-15,57-36.45-57s-.2-29,0-29.78l38.82-2.07Z"/><g class="cls-8"><polygon class="cls-9" points="193.79 175.2 192.43 207.79 177.55 220.65 161.8 207.79 141.81 186.69 179.78 175.94 193.79 175.2"/></g><path class="cls-9" d="M203,149.48c-.39,2.61-1.43,11.74-3.1,17.08s-6.57,13.27-10.48,17c0,0-9.2,8.82-14.67,10.81-3.21,1.16-8.3,1.27-12,1.16a2.89,2.89,0,0,1-3-2.19c-1.41,0-2.55-2.68-3.71-3.55l-8.36-7.49c-4.25-3.17-6.48-5.15-7.13-10.67L136,165.75c-.14-1.21,6.34-3.45,5.69-4.45L134.26,152c-.86-1.3,2.7-9.07,2.55-10.83-.19-2.29-8.29-13-8.24-16.92a7.67,7.67,0,0,1,.42-2.47l4.64-13.58a7.45,7.45,0,0,1,2.67-3.64l25.43-18.27a6.64,6.64,0,0,1,2.34-1.08,6.52,6.52,0,0,1,2.85,0l21.79,4.54a7.22,7.22,0,0,1,5.4,5.4l5.42,21.52a7.31,7.31,0,0,1,.23,1.68S204.43,139.71,203,149.48Z"/><path class="cls-7" d="M162.76,195.53a48.85,48.85,0,0,1-6.84-1.52c-2.42-.83-12-7.06-11.54-6.66-4.26-3.17-9.14-8.55-13.28-17.89-5-11.41-6.26-25.93-6.4-27.69-.19-2.29,2.24-14.1,2.29-18,0-.85,1.73-1.14,2-1.93l4.64-13.58a7.45,7.45,0,0,1,2.67-3.64l25.43-18.27a6.64,6.64,0,0,1,2.34-1.08c0,6.87-3.49,11.09-2.87,20.82.07,1.12.22,4.78.35,10.5,0,.59-1.11.78-1,2.43.05,1,1.1,1.78,1.1,2.24,0,1.13.05.23.06,1.43,0,.51-.73,1-.83,1.94-.16,1.51.86,1.85.87,2.37.05,5,0,10.27-.06,15.2-.17,8.07-.41,12.57.15,17.22.1.86-5.46-3-4.43,1.58.5,2.21,6.06,6.64,5.6,8-1.26,3.62,1.44,7,1.1,8.94s-1.71,4.07-2,6.34A27.5,27.5,0,0,0,162.76,195.53Z"/><path class="cls-10" d="M161.32,164.43l-3.55-3.13-5.33,2.1a8.37,8.37,0,0,0-3.85,3.37l-1.6,2.64a5.34,5.34,0,0,1-1.82,1.81c-1.18.71-2.45,1.53-3.45,1.23a4.92,4.92,0,0,0,4.84,2.14c2.25-.45,2.71-2.21,5-2.48,1.92-.24,3.9,1.82,7.17,2.26l.79.1c.65.08,1.26.14,1.85.19l1.69.09c.77,0,1.48,0,2.15,0s1.5-.09,2.16-.18a16.53,16.53,0,0,0,2.81-.6,15.77,15.77,0,0,0,1.72-.64c2.05-.92,3-1.89,4-1.63,1.31.33,2.13,1.8,3.58,2.64,1.88,1.09,4.37.48,6.2-.8a11.79,11.79,0,0,1-3.08-1.74,3.9,3.9,0,0,1-1.2-1.79l-1.11-2.82c-.41-1.26-1.73-2.26-2.69-3a17.6,17.6,0,0,0-6.84-2.86l-2.94,3.08A6,6,0,0,1,161.32,164.43Z"/><path class="cls-10" d="M175.87,129c4-2.89,9.88-7.26,14.37-4.29a18.36,18.36,0,0,1,7.13,8.66c-.19,2.3-1.9,1.21-3-.21-2.39-3-5.14-5.1-7.56-4.38-3.51.81-14,7.42-15.39,8.06s-2.86-1.49-2.7-2.09C169,133.71,174.44,130,175.87,129Z"/><path class="cls-10" d="M153.05,129.37c-4.27-2.61-10.43-6.57-14.67-3.3a17.37,17.37,0,0,0-5.07,5.87,16.66,16.66,0,0,0-1.37,3.25c.36,2.28,2,1.08,3-.41,2.15-3.19,4.74-5.44,7.21-4.89,3.56.57,14.55,6.46,16,7s2.75-1.68,2.53-2.26C160.26,133.59,154.55,130.29,153.05,129.37Z"/><path class="cls-10" d="M162.14,142c0,.12,0,.26.05.39l0,.27,0,.54.06,1.08.09,2.16.16,4.3.28,8.61,0,1.29-1.31-.3h0l-3.93-1.57.6-.32h0l-.63,1.92,0-.37a14,14,0,0,0,2.5,3.26,13.13,13.13,0,0,0,3.32,2.4,3.38,3.38,0,0,0,1.82.34,3.25,3.25,0,0,0,1.68-.76c1.05-.83,1.8-2,3-3.08l.65.75c-1,.87-1.78,2.14-3,3.1a4,4,0,0,1-4.53.55,14.17,14.17,0,0,1-3.61-2.59,15.34,15.34,0,0,1-2.69-3.53l-.09-.17.07-.21.63-1.92h0l.07-.39.52.07,4.19.55h0l-1.27,1,.24-8.61.1-4.3.06-4.16Z"/><path class="cls-11" d="M190.21,138.25s-7.46-1-10.21-.14a17.39,17.39,0,0,0-5.07,2.92c-.66.39-2,1.31-1.51,1.72s1.63.25,2.55.63,8.41,1.86,12-.44S190.21,138.25,190.21,138.25Z"/><ellipse class="cls-12" cx="181.61" cy="141.03" rx="3.32" ry="2.68"/><path class="cls-10" d="M172.35,139.05a14.21,14.21,0,0,1,2.08-2.39c.2-.18.42-.36.64-.53s.5-.35.72-.49a13.73,13.73,0,0,1,1.47-.83,14.8,14.8,0,0,1,1.62-.65,12.91,12.91,0,0,1,1.72-.48,25.5,25.5,0,0,1,3.48-.46,22.19,22.19,0,0,1,3.55.08,12.44,12.44,0,0,1,3.6.87,5,5,0,0,1,1.73,1.15,2.4,2.4,0,0,1,.63,2.22,2.81,2.81,0,0,1-1.62,1.8,4.59,4.59,0,0,1-2.33.33h-.13l-.1,0c-1.29-.35-2.7-.66-4.07-.89a16.51,16.51,0,0,0-4.14-.25,9.15,9.15,0,0,0-3.91,1.19,15.58,15.58,0,0,0-1.69,1.18,16.24,16.24,0,0,1-1.85,1.08l0,0c-.25.21-.42.53-.28.62a2.31,2.31,0,0,0,1,.27c.81.16,1.57.37,2.35.5a17.23,17.23,0,0,0,4.69.29,19.55,19.55,0,0,0,4.53-1,7.62,7.62,0,0,0,3.45-2.14l1.83,1.43a12.33,12.33,0,0,1-4.82,2,26.57,26.57,0,0,1-4.94.53,21.3,21.3,0,0,1-4.88-.58c-.79-.19-1.56-.4-2.33-.56a2.52,2.52,0,0,1-1.24-.44.6.6,0,0,1-.07-.72,1.57,1.57,0,0,1,.41-.48l0,0h0a9.85,9.85,0,0,0,1.75-1.07c.54-.41,1.05-.88,1.64-1.29a11.57,11.57,0,0,1,4.07-1.81,17.09,17.09,0,0,1,4.61-.35,24.17,24.17,0,0,1,4.54.61l-.22,0c.78.05,1.24-.27,1.3-.54s-.18-.68-1.07-1.07a15.42,15.42,0,0,0-6-.9,20.82,20.82,0,0,0-3.16.24,12.21,12.21,0,0,0-1.51.29c-.51.14-1,.28-1.47.46s-.94.39-1.42.62c-.25.13-.45.23-.65.35s-.42.26-.63.41a18.2,18.2,0,0,0-2.32,1.94Z"/><path class="cls-10" d="M173.32,143.43a23.37,23.37,0,0,1,2.57,1.64,7,7,0,0,0,2.59,1.28,7.9,7.9,0,0,0,2.91.06,10.53,10.53,0,0,0,2.75-.81,1.09,1.09,0,0,1,1.34.35.8.8,0,0,1-.42,1.15l-.14.06a13.09,13.09,0,0,1-3.4.52,9.36,9.36,0,0,1-3.37-.52,6,6,0,0,1-1.45-.79,12.41,12.41,0,0,1-1.15-1A20.76,20.76,0,0,0,173.32,143.43Z"/><path class="cls-11" d="M139,139.36s7.43-1.11,10.2-.33a17.9,17.9,0,0,1,5.15,2.63c.67.35,2,1.19,1.56,1.59s-1.62.27-2.53.64-8.35,1.91-12-.18S139,139.36,139,139.36Z"/><ellipse class="cls-12" cx="147.71" cy="141.79" rx="3.32" ry="2.51" transform="translate(-0.78 0.82) rotate(-0.32)"/><path class="cls-10" d="M156.28,140.15a18,18,0,0,0-2.42-1.79c-.21-.13-.43-.26-.64-.37l-.67-.31c-.49-.2-1-.39-1.43-.54s-1-.28-1.48-.39-1-.18-1.51-.24a25.14,25.14,0,0,0-3.13-.15,16.4,16.4,0,0,0-5.89.95,3.29,3.29,0,0,0-.94.56c-.17.18-.19.3-.15.39s.54.52,1.33.45l-.21,0a26.28,26.28,0,0,1,4.48-.64,18.47,18.47,0,0,1,4.57.24,12.17,12.17,0,0,1,4.13,1.62c.61.37,1.16.82,1.71,1.2a11.06,11.06,0,0,0,1.8,1h0a1.52,1.52,0,0,1,.44.47.6.6,0,0,1,.09.36.51.51,0,0,1-.2.36,2.89,2.89,0,0,1-1.23.4l-2.3.58a23.32,23.32,0,0,1-4.82.65,29.06,29.06,0,0,1-4.92-.39,12.71,12.71,0,0,1-4.89-1.72l1.74-1.51a8,8,0,0,0,3.56,2,21.31,21.31,0,0,0,4.53.83,17.74,17.74,0,0,0,4.65-.35c.78-.14,1.53-.34,2.32-.51a2.77,2.77,0,0,0,1-.27c.17-.06,0-.36-.28-.56l.05,0a17.27,17.27,0,0,1-1.91-1,14.46,14.46,0,0,0-1.75-1.08,9.28,9.28,0,0,0-3.95-1,18.55,18.55,0,0,0-4.12.34c-1.35.25-2.74.56-4,.92l-.09,0h-.12a4.87,4.87,0,0,1-2.27-.24,2.78,2.78,0,0,1-1.73-1.73,2.28,2.28,0,0,1,.66-2.25,4,4,0,0,1,.86-.64,7.11,7.11,0,0,1,.87-.44,12.8,12.8,0,0,1,3.52-.84,22.6,22.6,0,0,1,3.48-.13,26.57,26.57,0,0,1,3.44.36,16.76,16.76,0,0,1,1.7.4c.54.17,1.09.35,1.62.57a12.52,12.52,0,0,1,1.51.76c.22.12.48.26.73.43s.46.33.67.5a14.24,14.24,0,0,1,2.21,2.25Z"/><path class="cls-10" d="M156.07,143.89a20.19,20.19,0,0,0-2.21,1.91,14,14,0,0,1-1.15,1,6,6,0,0,1-1.45.75,9.69,9.69,0,0,1-3.3.55,13.21,13.21,0,0,1-3.36-.41.84.84,0,0,1-.68-1,1,1,0,0,1,1.23-.59l.15,0a11.25,11.25,0,0,0,2.75.73,8.75,8.75,0,0,0,2.89-.08,6.84,6.84,0,0,0,2.58-1.24A22.75,22.75,0,0,1,156.07,143.89Z"/><path class="cls-13" d="M51.92,247.6l-42,116.83c-2.31,6.44-4.66,13.08-4.35,19.91.26,5.93,2.5,11.58,4.72,17.09L23.79,435c4.15,10.33,8.31,20.68,13.48,30.54,3.67,7,9.26,11.6,16.07,16.57.11-5.72,5.62-9.47,10.65-12.19,4.45-2.4,14.89-4.48,20-2-.82-37.27-5.8-54.3-20.25-85.58,4.54-6.55,18.95-39.9,21.44-41.47C109,326,105.7,335.66,114.31,309c4.84-15,6.68-30.78,8.1-46.48q1.4-15.48,2.26-31c.26-4.69,4-23.7-1.85-25.35-3-.85-9.76,2.61-12.64,3.61q-6.21,2.17-12.2,4.9A146.11,146.11,0,0,0,74.8,227.83,144.2,144.2,0,0,0,51.92,247.6Z"/><path class="cls-13" d="M280.33,247.6l42,116.83c2.31,6.44,4.66,13.08,4.36,19.91-.27,5.93-2.51,11.58-4.73,17.09L308.46,435c-4.15,10.33-8.31,20.68-13.48,30.54-3.67,7-9.26,11.6-16.06,16.57-.12-5.72-5.63-9.47-10.66-12.19-4.45-2.4-13-6.12-18.11-3.61,2.45-34.37,1.84-63,16.29-94.31-2.48,1.59-39.89-36.34-48.5-63-4.83-15-6.68-30.78-8.1-46.48q-1.4-15.48-2.25-31c-.27-4.69-4-23.7,1.84-25.35,3-.85,9.76,2.61,12.64,3.61q6.21,2.17,12.2,4.9a146.65,146.65,0,0,1,23.19,13.19A144.57,144.57,0,0,1,280.33,247.6Z"/><path class="cls-13" d="M67.6,329c-.81,27.27-10.92,72.89,3.56,96,3.48,5.57,8.87,8.23,15.23,9.88,19.09,5,33.44-.78,47.2.64,30.56,3.16,54.5,13,84.26,5.35,20.43-5.25,38.09-22.53,40.28-29.67,5.94-19.38,11.14-47.1,8.31-67.18s-16.5-40.69-16.82-61-14.78-30.69-2.18-46.58c-20.11-9.2-15.19-24.35-36.31-30.91-28.54-8.88-25.73,5.32-33.3,7.73-6.84,2.18-2.64,6.46-9.81,6.68-7.66.23-5.05-28.72-47.8-13.86-14.79,5.14-4.49,17.19-13.49,23.19a98.22,98.22,0,0,1-24.57,11.33c-6,1.93-16.36,2.57-20.15,8.39s1.41,14.77,2.74,20.76a150.33,150.33,0,0,1,3.2,28C68.28,308.21,67.91,318.62,67.6,329Z"/><g class="cls-14"><polygon class="cls-15" points="-7.06 187.02 6.06 203.51 -5.31 221.26 -18.42 204.76 -7.06 187.02"/><polygon class="cls-15" points="17.42 185.77 30.54 202.26 19.17 220.01 6.06 203.51 17.42 185.77"/><polygon class="cls-15" points="41.9 184.51 55.02 201.01 43.65 218.76 30.54 202.26 41.9 184.51"/><polygon class="cls-15" points="66.38 183.26 79.49 199.76 68.13 217.51 55.02 201.01 66.38 183.26"/><polygon class="cls-15" points="90.86 182.01 103.97 198.51 92.61 216.25 79.49 199.76 90.86 182.01"/><polygon class="cls-15" points="115.34 180.76 128.45 197.26 117.09 215 103.97 198.51 115.34 180.76"/><polygon class="cls-15" points="139.81 179.51 152.93 196 141.57 213.75 128.45 197.26 139.81 179.51"/><polygon class="cls-15" points="-5.31 221.26 7.81 237.76 -3.56 255.5 -16.67 239.01 -5.31 221.26"/><polygon class="cls-15" points="19.17 220.01 32.29 236.51 20.92 254.25 7.81 237.76 19.17 220.01"/><polygon class="cls-15" points="43.65 218.76 56.77 235.25 45.4 253 32.29 236.51 43.65 218.76"/><polygon class="cls-15" points="68.13 217.51 81.24 234 69.88 251.75 56.77 235.25 68.13 217.51"/><polygon class="cls-15" points="92.61 216.25 105.72 232.75 94.36 250.5 81.24 234 92.61 216.25"/><polygon class="cls-15" points="117.09 215 130.2 231.5 118.84 249.25 105.72 232.75 117.09 215"/><polygon class="cls-15" points="141.57 213.75 154.68 230.25 143.32 248 130.2 231.5 141.57 213.75"/><polygon class="cls-15" points="-3.56 255.5 9.56 272 -1.8 289.75 -14.92 273.25 -3.56 255.5"/><polygon class="cls-15" points="20.92 254.25 34.04 270.75 22.67 288.5 9.56 272 20.92 254.25"/><polygon class="cls-15" points="45.4 253 58.52 269.5 47.15 287.25 34.04 270.75 45.4 253"/><polygon class="cls-15" points="69.88 251.75 83 268.25 71.63 285.99 58.52 269.5 69.88 251.75"/><polygon class="cls-15" points="94.36 250.5 107.47 267 96.11 284.74 83 268.25 94.36 250.5"/><polygon class="cls-15" points="118.84 249.25 131.95 265.74 120.59 283.49 107.47 267 118.84 249.25"/><polygon class="cls-15" points="143.32 248 156.43 264.49 145.07 282.24 131.95 265.74 143.32 248"/><polygon class="cls-15" points="-1.8 289.75 11.31 306.25 -0.05 323.99 -13.17 307.5 -1.8 289.75"/><polygon class="cls-15" points="22.67 288.5 35.79 304.99 24.42 322.74 11.31 306.25 22.67 288.5"/><polygon class="cls-15" points="47.15 287.25 60.27 303.74 48.9 321.49 35.79 304.99 47.15 287.25"/><polygon class="cls-15" points="71.63 285.99 84.75 302.49 73.38 320.24 60.27 303.74 71.63 285.99"/><polygon class="cls-15" points="96.11 284.74 109.22 301.24 97.86 318.99 84.75 302.49 96.11 284.74"/><polygon class="cls-15" points="120.59 283.49 133.7 299.99 122.34 317.73 109.22 301.24 120.59 283.49"/><polygon class="cls-15" points="145.07 282.24 158.18 298.74 146.82 316.48 133.7 299.99 145.07 282.24"/><polygon class="cls-15" points="-0.05 323.99 13.06 340.49 1.7 358.24 -11.42 341.74 -0.05 323.99"/><polygon class="cls-15" points="24.42 322.74 37.54 339.24 26.18 356.98 13.06 340.49 24.42 322.74"/><polygon class="cls-15" points="48.9 321.49 62.02 337.99 50.65 355.73 37.54 339.24 48.9 321.49"/><polygon class="cls-15" points="73.38 320.24 86.5 336.73 75.13 354.48 62.02 337.99 73.38 320.24"/><polygon class="cls-15" points="97.86 318.99 110.98 335.48 99.61 353.23 86.5 336.73 97.86 318.99"/><polygon class="cls-15" points="122.34 317.73 135.46 334.23 124.09 351.98 110.98 335.48 122.34 317.73"/><polygon class="cls-15" points="146.82 316.48 159.93 332.98 148.57 350.73 135.46 334.23 146.82 316.48"/><polygon class="cls-15" points="164.06 178.39 177.18 194.88 165.81 212.63 152.7 196.13 164.06 178.39"/><polygon class="cls-15" points="188.54 177.13 201.65 193.63 190.29 211.38 177.18 194.88 188.54 177.13"/><polygon class="cls-15" points="213.02 175.88 226.13 192.38 214.77 210.13 201.65 193.63 213.02 175.88"/><polygon class="cls-15" points="237.5 174.63 250.61 191.13 239.25 208.88 226.13 192.38 237.5 174.63"/><polygon class="cls-15" points="261.98 173.38 275.09 189.88 263.73 207.62 250.61 191.13 261.98 173.38"/><polygon class="cls-15" points="286.45 172.13 299.57 188.62 288.2 206.37 275.09 189.88 286.45 172.13"/><polygon class="cls-15" points="310.93 170.88 324.05 187.37 312.68 205.12 299.57 188.62 310.93 170.88"/><polygon class="cls-15" points="165.81 212.63 178.93 229.13 167.56 246.87 154.45 230.38 165.81 212.63"/><polygon class="cls-15" points="190.29 211.38 203.4 227.87 192.04 245.62 178.93 229.13 190.29 211.38"/><polygon class="cls-15" points="214.77 210.13 227.88 226.62 216.52 244.37 203.4 227.87 214.77 210.13"/><polygon class="cls-15" points="239.25 208.88 252.36 225.37 241 243.12 227.88 226.62 239.25 208.88"/><polygon class="cls-15" points="263.73 207.62 276.84 224.12 265.48 241.87 252.36 225.37 263.73 207.62"/><polygon class="cls-15" points="288.2 206.37 301.32 222.87 289.96 240.62 276.84 224.12 288.2 206.37"/><polygon class="cls-15" points="312.68 205.12 325.8 221.62 314.44 239.36 301.32 222.87 312.68 205.12"/><polygon class="cls-15" points="167.56 246.87 180.68 263.37 169.31 281.12 156.2 264.62 167.56 246.87"/><polygon class="cls-15" points="192.04 245.62 205.16 262.12 193.79 279.87 180.68 263.37 192.04 245.62"/><polygon class="cls-15" points="216.52 244.37 229.63 260.87 218.27 278.61 205.16 262.12 216.52 244.37"/><polygon class="cls-15" points="241 243.12 254.11 259.61 242.75 277.36 229.63 260.87 241 243.12"/><polygon class="cls-15" points="265.48 241.87 278.59 258.36 267.23 276.11 254.11 259.61 265.48 241.87"/><polygon class="cls-15" points="289.96 240.62 303.07 257.11 291.71 274.86 278.59 258.36 289.96 240.62"/><polygon class="cls-15" points="314.44 239.36 327.55 255.86 316.19 273.61 303.07 257.11 314.44 239.36"/><polygon class="cls-15" points="169.31 281.12 182.43 297.61 171.06 315.36 157.95 298.86 169.31 281.12"/><polygon class="cls-15" points="193.79 279.87 206.91 296.36 195.54 314.11 182.43 297.61 193.79 279.87"/><polygon class="cls-15" points="218.27 278.61 231.38 295.11 220.02 312.86 206.91 296.36 218.27 278.61"/><polygon class="cls-15" points="242.75 277.36 255.86 293.86 244.5 311.61 231.38 295.11 242.75 277.36"/><polygon class="cls-15" points="267.23 276.11 280.34 292.61 268.98 310.35 255.86 293.86 267.23 276.11"/><polygon class="cls-15" points="291.71 274.86 304.82 291.36 293.46 309.1 280.34 292.61 291.71 274.86"/><polygon class="cls-15" points="316.19 273.61 329.3 290.1 317.94 307.85 304.82 291.36 316.19 273.61"/><polygon class="cls-15" points="171.06 315.36 184.18 331.86 172.81 349.6 159.7 333.11 171.06 315.36"/><polygon class="cls-15" points="195.54 314.11 208.66 330.61 197.29 348.35 184.18 331.86 195.54 314.11"/><polygon class="cls-15" points="220.02 312.86 233.14 329.35 221.77 347.1 208.66 330.61 220.02 312.86"/><polygon class="cls-15" points="244.5 311.61 257.62 328.1 246.25 345.85 233.14 329.35 244.5 311.61"/><polygon class="cls-15" points="268.98 310.35 282.09 326.85 270.73 344.6 257.62 328.1 268.98 310.35"/><polygon class="cls-15" points="293.46 309.1 306.57 325.6 295.21 343.35 282.09 326.85 293.46 309.1"/><polygon class="cls-15" points="317.94 307.85 331.05 324.35 319.69 342.09 306.57 325.6 317.94 307.85"/><polygon class="cls-15" points="1.63 357.39 14.74 373.88 3.38 391.63 -9.74 375.13 1.63 357.39"/><polygon class="cls-15" points="26.11 356.13 39.22 372.63 27.86 390.38 14.74 373.88 26.11 356.13"/><polygon class="cls-15" points="50.59 354.88 63.7 371.38 52.34 389.13 39.22 372.63 50.59 354.88"/><polygon class="cls-15" points="75.06 353.63 88.18 370.13 76.82 387.88 63.7 371.38 75.06 353.63"/><polygon class="cls-15" points="99.54 352.38 112.66 368.88 101.3 386.62 88.18 370.13 99.54 352.38"/><polygon class="cls-15" points="124.02 351.13 137.14 367.63 125.77 385.37 112.66 368.88 124.02 351.13"/><polygon class="cls-15" points="148.5 349.88 161.62 366.37 150.25 384.12 137.14 367.63 148.5 349.88"/><polygon class="cls-15" points="3.38 391.63 16.49 408.13 5.13 425.87 -7.99 409.38 3.38 391.63"/><polygon class="cls-15" points="27.86 390.38 40.97 406.88 29.61 424.62 16.49 408.13 27.86 390.38"/><polygon class="cls-15" points="52.34 389.13 65.45 405.62 54.09 423.37 40.97 406.88 52.34 389.13"/><polygon class="cls-15" points="76.82 387.88 89.93 404.37 78.57 422.12 65.45 405.62 76.82 387.88"/><polygon class="cls-15" points="101.3 386.62 114.41 403.12 103.05 420.87 89.93 404.37 101.3 386.62"/><polygon class="cls-15" points="125.77 385.37 138.89 401.87 127.53 419.62 114.41 403.12 125.77 385.37"/><polygon class="cls-15" points="150.25 384.12 163.37 400.62 152 418.36 138.89 401.87 150.25 384.12"/><polygon class="cls-15" points="5.13 425.87 18.25 442.37 6.88 460.12 -6.23 443.62 5.13 425.87"/><polygon class="cls-15" points="29.61 424.62 42.72 441.12 31.36 458.87 18.25 442.37 29.61 424.62"/><polygon class="cls-15" points="54.09 423.37 67.2 439.87 55.84 457.61 42.72 441.12 54.09 423.37"/><polygon class="cls-15" points="78.57 422.12 91.68 438.62 80.32 456.36 67.2 439.87 78.57 422.12"/><polygon class="cls-15" points="103.05 420.87 116.16 437.36 104.8 455.11 91.68 438.62 103.05 420.87"/><polygon class="cls-15" points="127.53 419.62 140.64 436.11 129.28 453.86 116.16 437.36 127.53 419.62"/><polygon class="cls-15" points="152 418.36 165.12 434.86 153.75 452.61 140.64 436.11 152 418.36"/><polygon class="cls-15" points="172.75 348.75 185.86 365.25 174.5 383 161.38 366.5 172.75 348.75"/><polygon class="cls-15" points="197.22 347.5 210.34 364 198.98 381.75 185.86 365.25 197.22 347.5"/><polygon class="cls-15" points="221.7 346.25 234.82 362.75 223.46 380.5 210.34 364 221.7 346.25"/><polygon class="cls-15" points="246.18 345 259.3 361.5 247.93 379.24 234.82 362.75 246.18 345"/><polygon class="cls-15" points="270.66 343.75 283.78 360.24 272.41 377.99 259.3 361.5 270.66 343.75"/><polygon class="cls-15" points="295.14 342.5 308.26 358.99 296.89 376.74 283.78 360.24 295.14 342.5"/><polygon class="cls-15" points="319.62 341.25 332.73 357.74 321.37 375.49 308.26 358.99 319.62 341.25"/><polygon class="cls-15" points="174.5 383 187.61 399.49 176.25 417.24 163.13 400.75 174.5 383"/><polygon class="cls-15" points="198.98 381.75 212.09 398.24 200.73 415.99 187.61 399.49 198.98 381.75"/><polygon class="cls-15" points="223.46 380.5 236.57 396.99 225.21 414.74 212.09 398.24 223.46 380.5"/><polygon class="cls-15" points="247.93 379.24 261.05 395.74 249.69 413.49 236.57 396.99 247.93 379.24"/><polygon class="cls-15" points="272.41 377.99 285.53 394.49 274.16 412.24 261.05 395.74 272.41 377.99"/><polygon class="cls-15" points="296.89 376.74 310.01 393.24 298.64 410.98 285.53 394.49 296.89 376.74"/><polygon class="cls-15" points="321.37 375.49 334.49 391.99 323.12 409.73 310.01 393.24 321.37 375.49"/><polygon class="cls-15" points="176.25 417.24 189.36 433.74 178 451.49 164.88 434.99 176.25 417.24"/><polygon class="cls-15" points="200.73 415.99 213.84 432.49 202.48 450.23 189.36 433.74 200.73 415.99"/><polygon class="cls-15" points="225.21 414.74 238.32 431.24 226.96 448.98 213.84 432.49 225.21 414.74"/><polygon class="cls-15" points="249.69 413.49 262.8 429.98 251.44 447.73 238.32 431.24 249.69 413.49"/><polygon class="cls-15" points="274.16 412.24 287.28 428.73 275.91 446.48 262.8 429.98 274.16 412.24"/><polygon class="cls-15" points="298.64 410.98 311.76 427.48 300.39 445.23 287.28 428.73 298.64 410.98"/><polygon class="cls-15" points="323.12 409.73 336.24 426.23 324.87 443.98 311.76 427.48 323.12 409.73"/></g><circle class="cls-16" cx="167.33" cy="246.91" r="4.14"/><circle class="cls-17" cx="167.33" cy="246.91" r="3.1"/><circle class="cls-16" cx="166.5" cy="246.14" r="0.37"/><circle class="cls-16" cx="168.15" cy="246.14" r="0.37"/><circle class="cls-16" cx="166.5" cy="247.68" r="0.37"/><circle class="cls-16" cx="168.15" cy="247.68" r="0.37"/><circle class="cls-16" cx="167.33" cy="273.18" r="4.14"/><circle class="cls-17" cx="167.33" cy="273.18" r="3.1"/><circle class="cls-16" cx="166.5" cy="272.4" r="0.37"/><circle class="cls-16" cx="168.15" cy="272.4" r="0.37"/><circle class="cls-16" cx="166.5" cy="273.95" r="0.37"/><circle class="cls-16" cx="168.15" cy="273.95" r="0.37"/><circle class="cls-16" cx="167.33" cy="299.44" r="4.14"/><circle class="cls-17" cx="167.33" cy="299.44" r="3.1"/><circle class="cls-16" cx="166.5" cy="298.67" r="0.37"/><circle class="cls-16" cx="168.15" cy="298.67" r="0.37"/><circle class="cls-16" cx="166.5" cy="300.22" r="0.37"/><circle class="cls-16" cx="168.15" cy="300.22" r="0.37"/><circle class="cls-16" cx="167.33" cy="325.71" r="4.14"/><circle class="cls-17" cx="167.33" cy="325.71" r="3.1"/><circle class="cls-16" cx="166.5" cy="324.94" r="0.37"/><circle class="cls-16" cx="168.15" cy="324.94" r="0.37"/><circle class="cls-16" cx="166.5" cy="326.48" r="0.37"/><circle class="cls-16" cx="168.15" cy="326.48" r="0.37"/><circle class="cls-16" cx="167.33" cy="351.97" r="4.14"/><circle class="cls-17" cx="167.33" cy="351.97" r="3.1"/><circle class="cls-16" cx="166.5" cy="351.2" r="0.37"/><circle class="cls-16" cx="168.15" cy="351.2" r="0.37"/><circle class="cls-16" cx="166.5" cy="352.75" r="0.37"/><circle class="cls-16" cx="168.15" cy="352.75" r="0.37"/><circle class="cls-16" cx="167.33" cy="378.24" r="4.14"/><circle class="cls-17" cx="167.33" cy="378.24" r="3.1"/><circle class="cls-16" cx="166.5" cy="377.47" r="0.37"/><circle class="cls-16" cx="168.15" cy="377.47" r="0.37"/><circle class="cls-16" cx="166.5" cy="379.01" r="0.37"/><circle class="cls-16" cx="168.15" cy="379.01" r="0.37"/><circle class="cls-16" cx="167.33" cy="404.51" r="4.14"/><circle class="cls-17" cx="167.33" cy="404.51" r="3.1"/><circle class="cls-16" cx="166.5" cy="403.73" r="0.37"/><circle class="cls-16" cx="168.15" cy="403.73" r="0.37"/><circle class="cls-16" cx="166.5" cy="405.28" r="0.37"/><circle class="cls-16" cx="168.15" cy="405.28" r="0.37"/><path class="cls-9" d="M202.41,134.79c.58-1.08,1.57-2.14,2.79-2.08,1.59.08,2.42,1.9,2.79,3.45a36.2,36.2,0,0,1,1,7.9,6.11,6.11,0,0,1-.26,2.17,11.81,11.81,0,0,1-1.05,1.86,21,21,0,0,0-1.77,5.55,8.87,8.87,0,0,1-2.78,5,2.34,2.34,0,0,1-1.54.58,2.14,2.14,0,0,1-1.71-2.17,7.7,7.7,0,0,1,.79-2.9,21.15,21.15,0,0,0,1.28-10C201.55,140.82,200.67,138,202.41,134.79Z"/><path class="cls-7" d="M126.92,135.54c-.59-1.08-1.57-2.14-2.8-2.08-1.59.08-2.41,1.9-2.78,3.45a35.6,35.6,0,0,0-1,7.9,6.11,6.11,0,0,0,.26,2.17,12.59,12.59,0,0,0,1,1.86,20.7,20.7,0,0,1,1.78,5.55,8.83,8.83,0,0,0,2.77,5,2.39,2.39,0,0,0,1.55.58,2.13,2.13,0,0,0,1.7-2.17,7.69,7.69,0,0,0-.78-2.9,21,21,0,0,1-1.28-10C127.78,141.57,128.66,138.76,126.92,135.54Z"/><path class="cls-10" d="M141,95.17c5.81,1.25,10.75,5,16.34,7a35.5,35.5,0,0,0,10.72,1.91l-.77-.73a1,1,0,0,1,.91.11c-.26-.52.62-1.08,1-.63l.53-1.42c.83-.21,2,.73,2.41,0a1,1,0,0,0,0-.75,3.65,3.65,0,0,0-1.61-2.06c2.58,2,6.16,1.82,9.36,2.47,5.67,1.16,11,5.17,16.67,4.09-1.94-1.58-2.74-4.13-3.51-6.5a36.6,36.6,0,0,0-4.4-9.64A42.17,42.17,0,0,0,181.83,82a33.08,33.08,0,0,0-6.49-4.89A23.57,23.57,0,0,0,166,74.69a41.33,41.33,0,0,0-25.51,6.68c-3.59,2.37-6.94,5.54-8.06,9.69a.47.47,0,0,0,.77.14,5.64,5.64,0,0,0-1,1.64,1,1,0,0,0-.05.9c.16.27.68.26.71,0a7,7,0,0,0-.55,3.49c1.09-.45,1.76-1.57,3.05-2A11.46,11.46,0,0,1,141,95.17Z"/><path class="cls-10" d="M152.17,101a15.69,15.69,0,0,0-7,0,9.13,9.13,0,0,0-5.58,4.07,28.71,28.71,0,0,0-1.48,3.67,30.19,30.19,0,0,1-4.6,7.17l2.9-.75a2.25,2.25,0,0,0,.35,1.91,2.37,2.37,0,0,1,.5.77,1.61,1.61,0,0,1-.46,1.25c-5,6.85-9.76,14.59-7.25,23.41a37.4,37.4,0,0,1,1.16,8c.08,1.4.11,2.81.1,4.21s-.29,2.81-.17,4.21a4.54,4.54,0,0,0,1.29,2.93,14.81,14.81,0,0,1-4.29-9.81,37.19,37.19,0,0,0-.4-5.67c-.46-2.08-1.15-4.1-1.57-6.19a17.26,17.26,0,0,1-.36-3.29c0-2.53.76-8.23.7-8.48-.79-3.24-1.71-6.45,0-9.32a2.24,2.24,0,0,1-1.16.82l-.07-9.48a38.63,38.63,0,0,1,.35-6.63A19,19,0,0,1,128,96.55a17.25,17.25,0,0,0,1.49-2.38c.2-.43.34-.89.57-1.32a7,7,0,0,1,1.72-2,24.07,24.07,0,0,1,30.32-.79,4.62,4.62,0,0,1,1.84,2.31,4.16,4.16,0,0,1-.08,1.92c-.52,2.28-2,5.25-3.89,6.69C157.81,102.61,154.54,101.49,152.17,101Z"/><path class="cls-10" d="M184.19,82.6a3.31,3.31,0,0,1-.27,1.45,5.79,5.79,0,0,1,2.32-.77l-.08,1.63c.93-.29,1.7,1.25.92,1.83a31.41,31.41,0,0,1,7.87-.08,29.72,29.72,0,0,0-4.52,2.06l-.2,1.07,2.07.16-.46.94a14.88,14.88,0,0,1,6.68,6.45,39.35,39.35,0,0,1,3.35,8.8,52.66,52.66,0,0,1,2.19,10.64,84,84,0,0,1,.09,14.27,5.74,5.74,0,0,1-.36,1.59,9.21,9.21,0,0,1-1.45,2c-2.61,3.24-1.17,5.13-1,9.29s0,9.53-2.9,12.52c2.75-5.58-.78-12.54-.61-18.76a63.79,63.79,0,0,0,.24-8.05c-.49-4.89-3.24-9.24-4.54-14-.88-3.22-1.09-6.58-1.87-9.82s-2.28-6.5-5-8.37c-1.3-.88-2.83-1.41-4-2.46a7.9,7.9,0,0,1-2.33-5.09c-.15-1.48-.34-4.11.25-5.52C180.92,83.57,184.16,82.1,184.19,82.6Z"/><path class="cls-18" d="M122.14,110.78a47.61,47.61,0,0,1,7.73-21.67,36.66,36.66,0,0,1,18-14.09,46.06,46.06,0,0,1,15-2.17c7.3,0,14.71,1.1,21.25,4.34S196.22,86,198.42,92.94a30.39,30.39,0,0,0-12.56-5.24,44.44,44.44,0,0,0-8.55-.49c-17.42.45-35.23,7.17-46.26,20.66-3.14,3.84-5.13,8.4-8.07,12.3C121,119.09,121.92,112.71,122.14,110.78Z"/><path class="cls-19" d="M136.71,105.91c7-6.4,16.09-10.17,25.15-13.2,7.14-2.38,14.68-4.41,22.15-3.4s14.87,6.27,16.82,13.43c-.1-5.52-1-12.77-5.57-17.51-2.25-2.3-7.14-5.16-10.33-5.71-13.57-2.37-28.73,3-41.05,9-6.37,3.14-13.51,7-18.2,12.32s-5.05,16.58-3.29,23.37c.44,1.71,1.64,5.3,3.75,5.39,1-4.26.57-8.36,2.48-12.64A33.88,33.88,0,0,1,136.71,105.91Z"/><path class="cls-1" d="M239.45,162.53l-1.35,1.57"/><path class="cls-4" d="M140.93,192.94a30,30,0,0,0-1.25,7.57,2.82,2.82,0,0,0,.17,1.26,2.75,2.75,0,0,0,1.16,1c8.59,5.1,18.8,8,25.5,15.43-.8-2.46-.78-5.13-1.61-7.58-1.52-4.43-7-6-10.72-8.18C152.69,201.62,140.47,194.5,140.93,192.94Z"/><path class="cls-20" d="M166.29,228a36.44,36.44,0,0,1-3.56,8.08c-2.41,4.11-7.31,11-12.16,12.26-1.49-4.87-2.12-10.06-3.62-15a104.41,104.41,0,0,0-5.63-14.59c-1.73-3.66-3.73-7.28-4.48-11.27a16.1,16.1,0,0,1-.25-2.2,14.19,14.19,0,0,1,.18-3.06,2.23,2.23,0,0,0,0-.23,10.91,10.91,0,0,1,1.3-3.58,2.56,2.56,0,0,1,.22-.35,5.31,5.31,0,0,1,.45-.64,7.39,7.39,0,0,1,1.07-1.17c0,2.39,1.81,4.46,3.89,5.67a40.57,40.57,0,0,0,6.68,2.6,29.18,29.18,0,0,1,12.67,9.19,45.82,45.82,0,0,0,4.68,5.78C168.73,220.41,166.63,226.91,166.29,228Z"/><path class="cls-21" d="M152.32,228.28c-3.91-6.66-6-14.6-11.5-20a19.68,19.68,0,0,1-2.16-2.22,12.76,12.76,0,0,1-1.85-4,10.91,10.91,0,0,1,1.3-3.58,11.85,11.85,0,0,0,.47,2.51,15.25,15.25,0,0,0,3.37,4.2,32.62,32.62,0,0,1,7.59,12.56c-2.3-4.23-4.74-8.51-8.41-11.63A62.7,62.7,0,0,1,152.32,228.28Z"/><path class="cls-21" d="M164.45,228.7c-.24.5-.49,1-.74,1.56-2.63,5.67-6.08,12-11.73,15.84l-.44.3-.08-.54c-1.3-9.29-4.92-19.88-10.19-29.81l-.3-.56a45.27,45.27,0,0,1-4.38-10.16,14.19,14.19,0,0,1,.18-3.06c.3,4.44,2.66,8.88,4.79,12.91l.3.55a95,95,0,0,1,10.19,29.5c5.25-3.78,8.53-9.82,11-15.26.24-.54.5-1.07.75-1.57,1.67-3.42,2.89-5.89.36-9.21l-.07-.09c-6-7.89-9-10.42-10.5-11.13a25.94,25.94,0,0,0-4.31-1.57,18.67,18.67,0,0,1-6.19-2.75,14.38,14.38,0,0,1-4.81-5.54,5.31,5.31,0,0,1,.45-.64,13.71,13.71,0,0,0,4.76,5.64,18.11,18.11,0,0,0,6,2.64,29.4,29.4,0,0,1,4.42,1.61c2.24,1.1,5.86,4.91,10.74,11.34l.07.08C167.52,222.43,166.1,225.33,164.45,228.7Z"/><path class="cls-4" d="M193,192.94a28.72,28.72,0,0,1,1.74,7.19,2.52,2.52,0,0,1-.07,1.22,2.59,2.59,0,0,1-1,1.09c-7.89,5.52-17.49,9.05-23.4,16.65.59-2.42.38-5,1-7.4,1.14-4.37,6.32-6.3,9.71-8.63C182.27,202.12,193.51,194.4,193,192.94Z"/><path class="cls-20" d="M171.09,228.48a35,35,0,0,0,4,7.52c2.61,3.77,7.81,10.08,12.56,10.91,1.08-4.79,1.32-9.82,2.41-14.67a99.4,99.4,0,0,1,4.37-14.42c1.4-3.64,3.06-7.27,3.5-11.15a15,15,0,0,0-.31-5.06l-.06-.22a10.29,10.29,0,0,0-1.5-3.34,3.88,3.88,0,0,0-.23-.33c-.15-.2-.31-.39-.48-.58a7.88,7.88,0,0,0-1.11-1c.13,2.3-1.43,4.42-3.34,5.73a39.62,39.62,0,0,1-6.23,3,28,28,0,0,0-11.52,9.73A37.74,37.74,0,0,1,169,219.7C168.11,220.61,170.68,227.42,171.09,228.48Z"/><path class="cls-21" d="M184.54,227.72c3.27-6.69,4.68-14.46,9.61-20a17.47,17.47,0,0,0,1.92-2.3,12,12,0,0,0,1.49-4,10.29,10.29,0,0,0-1.5-3.34,10.7,10.7,0,0,1-.28,2.44,14.31,14.31,0,0,1-2.94,4.27,31.54,31.54,0,0,0-6.39,12.62c1.91-4.23,4-8.52,7.25-11.78A60.45,60.45,0,0,0,184.54,227.72Z"/><path class="cls-21" d="M172.9,229c.27.47.55,1,.83,1.45,2.93,5.26,6.7,11.09,12.4,14.38l.45.26,0-.52c.59-9,3.31-19.45,7.67-29.38l.25-.55A44.39,44.39,0,0,0,198,204.54a13.68,13.68,0,0,0-.39-2.93c0,4.29-1.92,8.73-3.69,12.75l-.24.55A91.57,91.57,0,0,0,186,244c-5.32-3.26-8.9-8.82-11.71-13.87-.28-.5-.56-1-.84-1.46-1.85-3.16-3.19-5.46-1-8.82l0-.09c5.21-8,7.93-10.66,9.3-11.45a26,26,0,0,1,4-1.82,18,18,0,0,0,5.75-3.08,13.77,13.77,0,0,0,4.23-5.67c-.15-.2-.31-.39-.48-.58a13.23,13.23,0,0,1-4.17,5.76,17.33,17.33,0,0,1-5.56,3,27.14,27.14,0,0,0-4.13,1.87c-2.09,1.21-5.29,5.13-9.52,11.66l-.06.09C169.51,223.18,171.08,225.87,172.9,229Z"/></g><g class="cls-22"><path class="cls-1" d="M149.7,334.84l-5.44,14.29"/></g></svg>