<svg id="Layer_1" data-name="Layer 1" xmlns="http://www.w3.org/2000/svg" xmlns:xlink="http://www.w3.org/1999/xlink" viewBox="0 0 264 214"><defs><style>.cls-1{fill:none;}.cls-2{fill:#7541ee;isolation:isolate;opacity:0.2;}.cls-3{fill:#fff;}.cls-4{fill:#ccb48d;}.cls-5{opacity:0.35;}.cls-6{fill:#d6c5a9;}.cls-7{fill:#1a293f;}.cls-8{fill:#f5f6f7;}.cls-9{fill:#28323a;}.cls-10{fill:#7d7f9e;}.cls-11{clip-path:url(#clip-path);}.cls-12{fill:#595b85;}.cls-13{fill:#221f10;}.cls-14{fill:#504e42;}.cls-15{fill:#404040;}.cls-16{fill:#0a0a0a;}.cls-17{fill:#d1e7fd;}.cls-18{fill:#729fcc;}</style><clipPath id="clip-path"><path class="cls-1" d="M255.14,256.13l-33.28-92.58a113.73,113.73,0,0,0-18.13-15.67,117,117,0,0,0-18.37-10.46c-3.16-1.43-6.39-2.73-9.67-3.87-1.37-.48-3.83-1.65-6.09-2.37-.81-.32-1.66-.63-2.58-.92-22.62-7-20.39,4.22-26.39,6.13-5.42,1.73-2.09,5.12-7.78,5.29-6.07.19-4-22.76-37.88-11h0c-2.64.48-6.19,2.22-7.94,2.84-3.28,1.14-6.51,2.44-9.68,3.87A117,117,0,0,0,59,147.88a113.66,113.66,0,0,0-18.12,15.67L7.56,256.13c-1.83,5.11-3.69,10.37-3.45,15.78.21,4.7,2,9.18,3.74,13.54l10.7,26.61a261,261,0,0,0,10.69,24.2c2.91,5.55,7.34,9.2,12.73,13.13.09-4.53,4.45-7.5,8.44-9.65,3.53-1.9,11.8-3.55,15.88-1.56A187.31,187.31,0,0,0,64,310.61,31.35,31.35,0,0,0,68.16,312c15.13,3.94,26.5-.62,37.4.5,24.22,2.51,43.2,10.31,66.78,4.25,12.14-3.13,23-11.61,28.48-18-1.55,12.15-1.91,24.6-2.88,38.18,4.07-2,10.82,1,14.35,2.86,4,2.15,8.36,5.12,8.45,9.65,5.39-3.93,9.82-7.58,12.73-13.13a260.92,260.92,0,0,0,10.68-24.2q5.35-13.31,10.7-26.61c1.76-4.36,3.54-8.84,3.75-13.54C258.83,266.5,257,261.24,255.14,256.13Zm-44.42,6.3,0-.26.1,0C210.81,262.23,210.77,262.33,210.72,262.43Z"/></clipPath></defs><path class="cls-2" d="M75,0H264V217H95Z"/><path class="cls-3" d="M255.14,256.13l-33.28-92.58a113.73,113.73,0,0,0-18.13-15.67,117,117,0,0,0-18.37-10.46c-3.16-1.43-6.39-2.73-9.67-3.87-1.4-.49-3.94-1.7-6.25-2.42-.77-.3-1.55-.6-2.42-.87A46.89,46.89,0,0,0,156.44,128c-.05-.31-.05-.64-.13-.94,0-.07,0-.12-.05-.18a8.07,8.07,0,0,0-1.18-2.64,2.48,2.48,0,0,0-.19-.26,4.22,4.22,0,0,0-.38-.46,6.37,6.37,0,0,0-.88-.84,3.83,3.83,0,0,1-.08.68,23.85,23.85,0,0,0-.87-3l.49-11.73a38.26,38.26,0,0,0,4.93-9.39,49,49,0,0,0,1.31-5.81l0,0a1.87,1.87,0,0,0,1.22-.46,7,7,0,0,0,2.2-4,16.76,16.76,0,0,1,1.41-4.4,9.71,9.71,0,0,0,.83-1.47,4.75,4.75,0,0,0,.2-1.72,28.68,28.68,0,0,0-.78-6.26c-.29-1.23-.95-2.67-2.21-2.74A2.57,2.57,0,0,0,160.19,74l0-.16a6,6,0,0,0,1-1.42,4.82,4.82,0,0,0,.29-1.26,67.82,67.82,0,0,0-.07-11.31,42.24,42.24,0,0,0-1.74-8.43A33.64,33.64,0,0,0,157.3,45a11.4,11.4,0,0,1,1.55,3.31c-.07-4.38-.75-9.71-4.41-13.46a16.1,16.1,0,0,0-2.93-2.25,24.31,24.31,0,0,0-5.92-4.13,38,38,0,0,0-16.84-3.43,36.42,36.42,0,0,0-11.88,1.72,29,29,0,0,0-14.25,11.16,36.53,36.53,0,0,0-5.46,13.13,27.75,27.75,0,0,0-.47,14.7c.34,1.3,1.23,4,2.79,4.22-.09.84-.24,2.17-.35,3.45a1.71,1.71,0,0,0-1.06-.35c-1.26.06-1.92,1.51-2.21,2.73a27.58,27.58,0,0,0-.78,6.26,4.73,4.73,0,0,0,.2,1.72,8.61,8.61,0,0,0,.83,1.48,16.52,16.52,0,0,1,1.41,4.4,6.94,6.94,0,0,0,2.19,4,1.85,1.85,0,0,0,1.23.46l.07,0a51,51,0,0,0,2.59,7.52,37.77,37.77,0,0,0,7.74,11.76c0,2.07,0,4.54,0,7a23,23,0,0,0-.69,3.17,4,4,0,0,1-.13-.69,8.06,8.06,0,0,0-1.21,1.43,2.75,2.75,0,0,0-.17.29,8.51,8.51,0,0,0-1,2.83.44.44,0,0,1,0,.1A58.91,58.91,0,0,0,95,130.7h0c-2.63.49-6.17,2.23-7.91,2.84-3.28,1.14-6.51,2.44-9.68,3.87A117,117,0,0,0,59,147.88a113.66,113.66,0,0,0-18.12,15.67L7.56,256.13c-1.83,5.11-3.69,10.37-3.45,15.78.21,4.7,2,9.18,3.74,13.54l10.7,26.61a261,261,0,0,0,10.69,24.2c2.91,5.55,7.34,9.2,12.73,13.13a7.4,7.4,0,0,1,1.53-4.27l.22.37c.29.6.55,1.22.78,1.85.36-.31.76-.56,1.13-.85.16.36.35.69.5,1.05.86,2.17,1.47,4.43,2.19,6.64a118,118,0,0,0,6.88,16,13.56,13.56,0,0,1-.87,3.57,9,9,0,0,0-1.08,2.1l-.58-.13a10.38,10.38,0,0,1-.82,3.55.53.53,0,0,0,.16.42c-.17.52-.33,1-.53,1.49a36.76,36.76,0,0,0-3.2,15.07c0,1.31.32,2.62.23,3.92a18.79,18.79,0,0,1-1.21,4.49c-1.13,3.34-2.5,10.07-3.86,17.74h80.62c1.09-6.83,2.22-13.84,3.47-21.46.61,1.21,1.24,10.46,2,21.46h74.73c-.92-15.26-2-28.67-1.63-30.4a41,41,0,0,0,.44-9.84l-.18-5.25c.56,0,1.17-.26,1.12-.79a10.7,10.7,0,0,1-.58-2.08,5.63,5.63,0,0,0,1.43-2c3.23-6.41,6.48-12.84,8.7-19.66.72-2.22,1.33-4.47,2.2-6.64.09-.23.21-.44.31-.66a8.49,8.49,0,0,1,1.38,1.16l1.41-1.47,0-.06a7.66,7.66,0,0,1,1.83,4.67c5.39-3.93,9.82-7.58,12.73-13.13a260.92,260.92,0,0,0,10.68-24.2q5.35-13.31,10.7-26.61c1.76-4.36,3.54-8.84,3.75-13.54C258.83,266.5,257,261.24,255.14,256.13Zm-44.29,6c0,.1-.09.21-.14.32,0-.1,0-.21,0-.31Zm-12,60.44q-.57-2.82-1.19-5.64a126.38,126.38,0,0,1-1.81-13.19,51,51,0,0,0,5-5.05C199.83,306.46,199.32,314.35,198.83,322.58Z"/><path class="cls-3" d="M143.42,407.5h44.91c-.86-13.3-.91-15.7-.34-18.48a32,32,0,0,0,.15-6.3l-.39-11.22-.68-3.61.54-.42-.14-4.1L192,363l-3.15-15.2-2.87,6.38,1.42-13.34-3.15-15.19q-.57-2.76-1.17-5.51a114.41,114.41,0,0,1-1.82-12.55l-1.08-9.85,5.78-5.13a35.28,35.28,0,0,0,3.49-3.51l3.95-4.69,3.74-34.87,8.49-1.59L231,233.1l-22.1-61.49A100.88,100.88,0,0,0,179.18,151c-1.21-.55-2.44-1.08-3.67-1.58l.31,18.4-5.53-20.37c-.67-.24-1.47-.57-2.36-.94-.63-.26-1.36-.57-2-.81l-7.85,65.4L139,126.7a6.89,6.89,0,0,0-.3-1l-1-2.82.44-10.41-1.27-21.55L143.38,96a10.82,10.82,0,0,0,.45-1.09,33,33,0,0,0,.86-3.94l1.49-8.48-.91-7.35L144.76,69l2-2.37c0-1.48-.08-3.39-.24-5.61a30.74,30.74,0,0,0-1.21-5.43,23.88,23.88,0,0,0-1.25-3.61l5.88-3.46-6,.1a14,14,0,0,0-.34-3.31l-1.23-.76-1.06-1A9.69,9.69,0,0,0,139,41.89c-2.52-1.25-6-1.88-10.22-1.88h0a21.9,21.9,0,0,0-7,.89,14.32,14.32,0,0,0-6.8,5.48,21.55,21.55,0,0,0-3.16,7.77l-.21,1-.33.94a5.49,5.49,0,0,0-.2.78l4.71.83-1.49,14.54c-.08.73-.17,1.64-.25,2.53l-.67,7.67,2.09,7.8a37.65,37.65,0,0,0,1.82,5.35c.12.28.25.55.38.82l7.22-6.5.3,16.16,1.13,1.12v6.22c0,2,0,4.5,0,7v2.17l-.61,2.09a8.1,8.1,0,0,0-.25,1.17L113,209.73,99.75,144.86l-1.08.36-1,.19c-.44.12-2,.78-2.89,1.14-1.1.45-2.08.85-2.82,1.11-2.83,1-5.66,2.12-8.41,3.37a101.29,101.29,0,0,0-16,9.11,100,100,0,0,0-13.68,11.47l-32.2,89.58c-1.33,3.69-2.7,7.51-2.59,10.06.1,2.21,1.41,5.47,2.68,8.62l10.7,26.62c2.51,6.25,4.91,12.22,7.61,17.93l4.29-5.93,4.34,6.85,3-2.26,7.63,17.22c.29.59.53,1.11.75,1.65.85,2.14,1.46,4.11,2,5.84.18.6.37,1.19.56,1.78a102.82,102.82,0,0,0,6,14l2.11,4.25-.73,4.7c-.56,3.6-1.26,6.44-2.85,9l-.86,2.69c-.32,1-.65,2-1,2.83a21.91,21.91,0,0,0-2,8.82l.05.47a28.64,28.64,0,0,1,.15,4.84,25.08,25.08,0,0,1-1.29,6.29h49.2c.47-2.9,1-5.88,1.46-8.95L120.28,353l20.62,41.32C142.21,396.92,142.72,399.08,143.42,407.5Zm74.08-14.27Zm-3.82-68.46,2.33,1.72,4.12-4.13,2.21,2.75c2.83-5.9,5.33-12.11,7.94-18.61L241,279.88c1.26-3.16,2.58-6.42,2.67-8.62.12-2.56-1.32-6.55-2.58-10.07l-5.66-15.74-11.07,23.13L217.87,283l-2.23,17.58c-.92,7.24-1.4,14.65-1.89,22.89Z"/><path class="cls-3" d="M168.47,43.16a26,26,0,0,0-6.91-15.24,24.64,24.64,0,0,0-3.7-3l-.25-.17-.23-.2A35.07,35.07,0,0,0,150,19.58c-6-3-13.13-4.46-21.28-4.46a45.85,45.85,0,0,0-15.1,2.26,39,39,0,0,0-19.21,15,46.12,46.12,0,0,0-6.8,15.87l0,.21-.07.2a37.63,37.63,0,0,0-.44,19.63l.4,1.57-.59,1.51a17.08,17.08,0,0,0-.69,2.2A38.78,38.78,0,0,0,85.13,82a14.58,14.58,0,0,0,.79,5.19A13.13,13.13,0,0,0,87,89.47l.42.74.17.76.28,1.17a17.8,17.8,0,0,0,4,7.8l.71.76.34,1c.49,1.38,1,2.72,1.57,4a56.62,56.62,0,0,0,3.69,7l3.47,5.54-6.26,1.89c-1,.29-1.94.6-2.93.94l-.22.07-.22.06a46.36,46.36,0,0,0-6.83,2.39l-.34.15c-.41.17-.77.32-1.14.45-3.53,1.23-7.06,2.65-10.5,4.21a126.24,126.24,0,0,0-19.94,11.35,124.57,124.57,0,0,0-19.71,17l-1.4,1.5-34,94.52c-2,5.69-4.36,12.13-4,19.58.28,6.45,2.49,11.95,4.45,16.81L9.32,315.77a270.74,270.74,0,0,0,11.11,25.11c4,7.63,10.19,12.54,15.67,16.54l2,1.5L40,364l3.47-3-.75,14.35-.61,1.46L42,378.18l-.25.64a45.37,45.37,0,0,0-3.38,17.73c0,.53,0,1.13.13,1.89l.08.93-.3,1.05-.38,1.1c-1.19,3.54-2.49,9.45-4.22,19.18l-2.08,11.69H214.83l-.64-10.55c-.27-4.4-.55-8.64-.8-12.52-.41-6.34-.84-12.89-.88-15.45v-.46l.07-.46a52.69,52.69,0,0,0,.44-11.11l0-1.09.33-.9a10.24,10.24,0,0,0,.62-2.84l.07-1,.45-.89c2-4,4-7.94,5.73-12.13l.54-1.27,5.88-4.3c5.49-4,11.67-8.91,15.67-16.54a269,269,0,0,0,11.11-25.11l10.7-26.61c1.95-4.86,4.16-10.37,4.45-16.81.33-7.45-2-13.89-4-19.58l-34-94.52-1.4-1.49a123.61,123.61,0,0,0-19.71-17,126.24,126.24,0,0,0-19.94-11.35q-5.15-2.34-10.56-4.23c-.34-.13-.76-.3-1.22-.5l-.24-.1c-1.15-.47-2.59-1.07-4.1-1.59L170,120.81l-.38-22.75.73-1.23a19.79,19.79,0,0,0,2.14-5.31l.21-.85.05-.24.16-.81.44-.73a13.66,13.66,0,0,0,1.1-2.33,14.76,14.76,0,0,0,.79-5.2,38.87,38.87,0,0,0-1.06-8.45,15.61,15.61,0,0,0-1.82-4.48l-.72-1.18,0-1.37c0-2-.12-4.29-.31-6.74a50.37,50.37,0,0,0-2.09-10.42l-.28-1-.18-.6,0-.64Z"/><path class="cls-3" d="M150.12,54.17a34.16,34.16,0,0,1,1.38,6.44c.16,2.15.25,4.21.26,6V68.4l-1.85,2.2.33,4,1,8-1.61,9.21a39.65,39.65,0,0,1-1,4.54,14.64,14.64,0,0,1-.7,1.74l-2.64,5.65-2.84-2.19.63,10.86-.4,9.65.7,1.87a14.16,14.16,0,0,1,.49,1.68l12.71,56.19,5.16-43,6,2.28c.69.26,1.48.58,2.15.86l.54.23V142l7,2.86c1.3.53,2.59,1.09,3.85,1.66a106.36,106.36,0,0,1,16.8,9.56,104.6,104.6,0,0,1,14.37,12.05l.79.79,32.57,90.62c1.49,4.14,3,8.43,2.88,12-.13,3-1.54,6.54-3,10.26l-10.71,26.62c-2.65,6.61-5.16,12.85-8.07,18.92l-3.44,7.17-3.69-4.61-3.21,3.22-8-5.88.24-4c.5-8.32,1-15.81,1.92-23.22L213,281.63l6.78-15.09,14-29.31-26.45,15.44-5.7,1.06-3.5,32.7-4.95,5.86a39.4,39.4,0,0,1-4,4l-3.84,3.42.79,7.31a111.68,111.68,0,0,0,1.74,12q.6,2.77,1.18,5.56L198,367.42l-5.35.5.06,1.93-.14.11.18,1,.41,11.62a34.16,34.16,0,0,1-.25,7.46c-.44,2.15-.38,4.55.43,17.15l.34,5.32H138.82l-.38-4.59c-.67-8-1.1-9.56-2-11.37l-13.72-27.49-5,30.32c-.5,3.06-1,6-1.46,8.93l-.68,4.2H55.23l2.15-6.56a20.09,20.09,0,0,0,1-5.06,22.83,22.83,0,0,0-.13-4l-.07-.67V396a27,27,0,0,1,2.41-10.91c.26-.62.54-1.38.85-2.38l1.05-3.28.32-.52c1-1.68,1.62-3.63,2.17-7.19l.49-3.13L64.1,365.8a109.29,109.29,0,0,1-6.32-14.68c-.16-.5-.31-1-.47-1.5l-.11-.36c-.5-1.63-1.07-3.48-1.85-5.44-.16-.38-.33-.78-.6-1.31l0-.09-5.1-11.51-2.25,1.72-3.31-5.23-4.92,6.8-3.62-7.64c-2.76-5.84-5.18-11.85-7.73-18.21L17.07,281.73c-1.48-3.7-2.89-7.2-3-10.26-.15-3.54,1.39-7.83,2.88-12L49.5,168.88l.78-.79a105.88,105.88,0,0,1,31.18-21.61c2.88-1.31,5.85-2.5,8.83-3.55.72-.24,1.8-.69,2.6-1a31.13,31.13,0,0,1,3.45-1.32l.2-.06.88-.16,6.1-2,8.68,42.57L120.5,125a13.43,13.43,0,0,1,.39-1.84l.41-1.38v-1.45c0-2.47,0-4.92,0-7v-4.14l-1.08-1.09-.14-7.23L116,104.6l-2.87-6.08q-.21-.45-.42-.93a41.47,41.47,0,0,1-2.08-6.07l-2.32-8.66.75-8.54c.08-.89.17-1.82.26-2.6l1-9.92-5.07-.89.89-4.94a9.51,9.51,0,0,1,.41-1.58l.22-.62.13-.65a26.55,26.55,0,0,1,3.94-9.56,19.3,19.3,0,0,1,9.29-7.38A26.51,26.51,0,0,1,128.74,35c5,0,9.22.82,12.44,2.41a14.64,14.64,0,0,1,3.52,2.45l.71.67,2.47,1.54.39,1.43"/><path class="cls-4" d="M153.28,106.17,152.2,132l-11.9,45.19L111.4,132s-.15-23,0-23.6l30.77-1.64Z"/><g class="cls-5"><polygon class="cls-6" points="153.28 106.17 152.2 132 140.41 142.19 127.92 132 112.08 115.28 142.17 106.76 153.28 106.17"/></g><path class="cls-6" d="M160.55,85.78c-.31,2.07-1.13,9.31-2.45,13.54a38.74,38.74,0,0,1-8.31,13.47s-7.29,7-11.63,8.57c-2.54.92-6.57,1-9.48.92a2.3,2.3,0,0,1-2.36-1.73c-1.12,0-2-2.13-2.94-2.82l-6.62-5.93c-3.37-2.51-5.14-4.08-5.65-8.46l-3.61-4.66c-.11-1,5-2.74,4.51-3.53L106.1,87.8c-.68-1,2.14-7.19,2-8.58-.15-1.82-6.57-10.29-6.53-13.41a6.2,6.2,0,0,1,.33-2l3.68-10.76a5.84,5.84,0,0,1,2.12-2.89l20.15-14.47a5.16,5.16,0,0,1,1.86-.86,5.33,5.33,0,0,1,2.25,0l17.27,3.61a5.72,5.72,0,0,1,4.28,4.27l4.3,17.06A6.55,6.55,0,0,1,158,61.1S161.7,78.05,160.55,85.78Z"/><path class="cls-4" d="M128.68,122.28a40.16,40.16,0,0,1-5.42-1.2c-1.91-.66-9.53-5.6-9.14-5.28-3.37-2.52-7.25-6.78-10.52-14.18-4-9-5-20.55-5.08-22-.15-1.81,1.78-11.17,1.81-14.29,0-.67,1.38-.9,1.59-1.53l3.68-10.76a5.84,5.84,0,0,1,2.12-2.89l20.15-14.47a5.16,5.16,0,0,1,1.86-.86c0,5.44-2.77,8.79-2.28,16.5,0,.88.17,3.79.28,8.32,0,.47-.88.62-.81,1.92,0,.81.87,1.42.87,1.78,0,.9,0,.18,0,1.13,0,.41-.58.8-.66,1.54-.13,1.2.68,1.47.69,1.88,0,4,0,8.14-.05,12-.14,6.39-.32,10,.12,13.64.08.69-4.33-2.37-3.51,1.25.39,1.76,4.8,5.27,4.44,6.31-1,2.87,1.14,5.54.87,7.09s-1.36,3.22-1.59,5A21.75,21.75,0,0,0,128.68,122.28Z"/><path class="cls-7" d="M127.55,97.64l-2.82-2.49-4.22,1.67a6.57,6.57,0,0,0-3.05,2.67l-1.27,2.09a4.31,4.31,0,0,1-1.44,1.44c-.94.56-2,1.21-2.74,1a3.91,3.91,0,0,0,3.83,1.7c1.79-.36,2.15-1.75,4-2,1.52-.19,3.09,1.44,5.69,1.79l.62.08c.51.07,1,.11,1.47.15s.91.06,1.33.07q.92,0,1.71,0t1.71-.15a13.59,13.59,0,0,0,2.22-.47,11.09,11.09,0,0,0,1.37-.51c1.63-.73,2.35-1.5,3.18-1.29,1,.26,1.69,1.42,2.84,2.09,1.48.86,3.46.38,4.91-.63a9.6,9.6,0,0,1-2.44-1.38,3.08,3.08,0,0,1-.95-1.42l-.89-2.24a5.83,5.83,0,0,0-2.12-2.39A14.16,14.16,0,0,0,135,95.15l-2.33,2.44A4.79,4.79,0,0,1,127.55,97.64Z"/><path class="cls-7" d="M139.07,69.57c3.22-2.3,7.84-5.76,11.39-3.4a13.89,13.89,0,0,1,4.37,4.36,13.56,13.56,0,0,1,1.28,2.5c-.15,1.82-1.5,1-2.39-.17-1.89-2.4-4.08-4-6-3.47-2.78.64-11.11,5.88-12.2,6.39s-2.27-1.19-2.13-1.66C133.63,73.29,137.94,70.37,139.07,69.57Z"/><path class="cls-7" d="M121,69.85c-3.39-2.07-8.26-5.21-11.62-2.61a13.69,13.69,0,0,0-4,4.65,13.25,13.25,0,0,0-1.08,2.57c.29,1.81,1.57.86,2.37-.33,1.7-2.52,3.75-4.31,5.71-3.87,2.82.45,11.53,5.12,12.66,5.54s2.17-1.33,2-1.79C126.7,73.19,122.18,70.58,121,69.85Z"/><path class="cls-7" d="M128.2,79.87c0,.1,0,.21,0,.31v.22l0,.43,0,.85.07,1.71.12,3.41.23,6.83,0,1-1-.24h0l-3.11-1.24.47-.26h0l-.5,1.52,0-.29a11.42,11.42,0,0,0,2,2.59,10.14,10.14,0,0,0,2.64,1.89,2.64,2.64,0,0,0,1.44.28,2.6,2.6,0,0,0,1.33-.61c.83-.65,1.43-1.62,2.34-2.44l.51.6c-.78.68-1.41,1.69-2.36,2.45a3.43,3.43,0,0,1-1.73.78,3.54,3.54,0,0,1-1.86-.34,11.3,11.3,0,0,1-2.86-2,12.48,12.48,0,0,1-2.13-2.8l-.07-.14,0-.16.5-1.52h0l.06-.32.41.06,3.32.44h0l-1,.78.19-6.82.08-3.41,0-3.3Z"/><path class="cls-8" d="M150.44,76.88s-5.91-.81-8.09-.1a13.74,13.74,0,0,0-4,2.31c-.52.31-1.57,1-1.2,1.37s1.3.19,2,.49,6.67,1.48,9.51-.35S150.44,76.88,150.44,76.88Z"/><ellipse class="cls-9" cx="143.62" cy="79.09" rx="2.63" ry="2.12"/><path class="cls-7" d="M136.29,77.52a11.3,11.3,0,0,1,1.65-1.89,5.34,5.34,0,0,1,.5-.43c.19-.14.4-.27.57-.38a10.82,10.82,0,0,1,1.17-.66,12.71,12.71,0,0,1,1.28-.52,10.5,10.5,0,0,1,1.36-.37,18.3,18.3,0,0,1,2.76-.37,17.77,17.77,0,0,1,2.82.07,9.54,9.54,0,0,1,2.85.68,4,4,0,0,1,1.37.92,1.92,1.92,0,0,1,.5,1.75,2.23,2.23,0,0,1-1.29,1.43A3.64,3.64,0,0,1,150,78h-.1l-.08,0c-1-.28-2.14-.52-3.23-.71a13.43,13.43,0,0,0-3.28-.19,7.14,7.14,0,0,0-3.1.94,12.88,12.88,0,0,0-1.34.93,12,12,0,0,1-1.47.86l0,0c-.2.16-.34.42-.23.49a2,2,0,0,0,.78.21c.63.13,1.24.29,1.86.4a13.64,13.64,0,0,0,3.71.23,15.94,15.94,0,0,0,3.59-.77,6,6,0,0,0,2.74-1.71l1.45,1.14a9.71,9.71,0,0,1-3.82,1.55,21.58,21.58,0,0,1-3.92.43,17.15,17.15,0,0,1-3.87-.47c-.62-.15-1.24-.31-1.84-.44a2.08,2.08,0,0,1-1-.35.47.47,0,0,1,0-.57,1.3,1.3,0,0,1,.32-.38h0a8.46,8.46,0,0,0,1.39-.85c.42-.32.83-.7,1.29-1a9,9,0,0,1,3.23-1.44,13.61,13.61,0,0,1,3.65-.28,20.08,20.08,0,0,1,3.6.48l-.18,0c.63,0,1-.21,1-.42s-.15-.54-.85-.85a12.23,12.23,0,0,0-4.72-.72,18.86,18.86,0,0,0-2.5.19c-.41.07-.81.14-1.2.24s-.79.22-1.17.36a12.06,12.06,0,0,0-1.12.5c-.2.1-.36.17-.52.27l-.49.32a15.31,15.31,0,0,0-1.84,1.54Z"/><path class="cls-7" d="M137.05,81a18.58,18.58,0,0,1,2,1.3,5.38,5.38,0,0,0,2.06,1,6.13,6.13,0,0,0,2.3,0,8.14,8.14,0,0,0,2.17-.64.86.86,0,0,1,1.07.28.63.63,0,0,1-.33.91l-.11,0a10.33,10.33,0,0,1-2.7.41,7.32,7.32,0,0,1-2.67-.42,4.4,4.4,0,0,1-1.15-.62,11.62,11.62,0,0,1-.91-.78A15.47,15.47,0,0,0,137.05,81Z"/><path class="cls-8" d="M109.89,77.76s5.88-.88,8.08-.26a14.12,14.12,0,0,1,4.08,2.09c.53.28,1.6.94,1.24,1.26s-1.29.21-2,.5-6.62,1.52-9.51-.14S109.89,77.76,109.89,77.76Z"/><ellipse class="cls-9" cx="116.76" cy="79.7" rx="2.63" ry="1.99" transform="translate(-0.44 0.65) rotate(-0.32)"/><path class="cls-7" d="M123.55,78.39A15.12,15.12,0,0,0,121.63,77l-.5-.29-.54-.24a11.29,11.29,0,0,0-1.13-.43c-.38-.12-.77-.22-1.18-.31s-.78-.14-1.19-.19a18.64,18.64,0,0,0-2.48-.12,13,13,0,0,0-4.67.75,2.37,2.37,0,0,0-.74.45c-.13.14-.15.23-.12.3s.42.42,1,.36l-.16,0a20.39,20.39,0,0,1,3.55-.51,14.7,14.7,0,0,1,3.62.19,9.81,9.81,0,0,1,3.28,1.28c.48.3.91.65,1.35,1a8.45,8.45,0,0,0,1.42.78h0a1.2,1.2,0,0,1,.34.37.51.51,0,0,1,.08.28.52.52,0,0,1-.16.29,2.34,2.34,0,0,1-1,.32l-1.82.45a17.94,17.94,0,0,1-3.82.52,23.31,23.31,0,0,1-3.9-.31,10.1,10.1,0,0,1-3.87-1.36l1.37-1.2a6.43,6.43,0,0,0,2.82,1.57,16.6,16.6,0,0,0,3.59.66,14.33,14.33,0,0,0,3.69-.28c.62-.11,1.21-.27,1.84-.4a2.58,2.58,0,0,0,.79-.21c.13,0,0-.29-.22-.45l0,0a12,12,0,0,1-1.51-.78,10.56,10.56,0,0,0-1.39-.85,7.33,7.33,0,0,0-3.13-.8,14.36,14.36,0,0,0-3.26.27c-1.08.2-2.18.45-3.2.73l-.07,0h-.1a3.92,3.92,0,0,1-1.8-.19,2.19,2.19,0,0,1-1.37-1.37,1.81,1.81,0,0,1,.53-1.78,2.57,2.57,0,0,1,.68-.51,4.86,4.86,0,0,1,.68-.35,10.57,10.57,0,0,1,2.8-.67,18.11,18.11,0,0,1,2.75-.1,20.71,20.71,0,0,1,2.73.29,12.6,12.6,0,0,1,1.35.32A12.16,12.16,0,0,1,120,75a10.33,10.33,0,0,1,1.2.6c.17.1.38.21.58.34l.53.39A10.83,10.83,0,0,1,124,78.06Z"/><path class="cls-7" d="M123.38,81.35a16.87,16.87,0,0,0-1.75,1.52,11.86,11.86,0,0,1-.91.77,4.46,4.46,0,0,1-1.15.59,7.71,7.71,0,0,1-2.62.44,10.94,10.94,0,0,1-2.66-.32.67.67,0,0,1-.53-.84.8.8,0,0,1,1-.46l.12,0a9.07,9.07,0,0,0,2.18.57,6.77,6.77,0,0,0,2.29-.06,5.62,5.62,0,0,0,2.05-1A17.09,17.09,0,0,1,123.38,81.35Z"/><path class="cls-10" d="M40.85,163.55,7.56,256.13c-1.83,5.11-3.69,10.37-3.45,15.78.21,4.7,2,9.18,3.74,13.54l10.7,26.61a261,261,0,0,0,10.69,24.2c2.91,5.55,7.34,9.2,12.73,13.13.09-4.53,4.45-7.5,8.44-9.65,3.53-1.9,11.8-3.55,15.88-1.56-.66-29.54-4.61-43-16.06-67.82,3.6-5.19,15-31.62,17-32.86,18.82-11.82,16.25-4.17,23.07-25.32,3.83-11.88,5.3-24.39,6.42-36.83q1.1-12.27,1.78-24.58c.21-3.72,3.16-18.78-1.46-20.09-2.37-.67-7.73,2.07-10,2.87-3.28,1.14-6.51,2.44-9.68,3.87A117,117,0,0,0,59,147.88,113.66,113.66,0,0,0,40.85,163.55Z"/><path class="cls-10" d="M221.86,163.55l33.28,92.58c1.84,5.11,3.69,10.37,3.46,15.78-.21,4.7-2,9.18-3.75,13.54q-5.34,13.31-10.7,26.61a260.92,260.92,0,0,1-10.68,24.2c-2.91,5.55-7.34,9.2-12.73,13.13-.09-4.53-4.46-7.5-8.45-9.65-3.53-1.9-10.28-4.86-14.35-2.86,1.94-27.24,1.46-49.95,12.91-74.74-2,1.25-31.61-28.81-38.43-50-3.84-11.88-5.3-24.39-6.42-36.83q-1.11-12.27-1.79-24.58c-.21-3.72-3.15-18.78,1.46-20.09,2.38-.67,7.74,2.07,10,2.87,3.28,1.14,6.51,2.44,9.67,3.87a117,117,0,0,1,18.37,10.46A113.73,113.73,0,0,1,221.86,163.55Z"/><path class="cls-10" d="M53.27,228.07c-.64,21.61-8.66,57.76,2.82,76.09,2.76,4.41,7,6.52,12.07,7.83,15.13,3.94,26.5-.62,37.4.5,24.22,2.51,43.2,10.31,66.78,4.25,16.19-4.17,30.19-17.86,31.92-23.52,4.72-15.35,8.84-37.33,6.59-53.23s-13.07-32.25-13.33-48.32-11.71-24.32-1.73-36.91c-15.93-7.29-12-19.3-28.77-24.5-22.62-7-20.39,4.22-26.39,6.13-5.42,1.73-2.09,5.12-7.78,5.29-6.07.19-4-22.76-37.88-11-11.72,4.07-3.56,13.62-10.69,18.38a77.84,77.84,0,0,1-19.47,9c-4.75,1.53-13,2-16,6.66S50,176.41,51,181.16a119.64,119.64,0,0,1,2.54,22.17C53.81,211.58,53.52,219.83,53.27,228.07Z"/><g class="cls-11"><polygon class="cls-12" points="-5.9 115.53 4.5 128.61 -4.51 142.67 -14.9 129.6 -5.9 115.53"/><polygon class="cls-12" points="13.5 114.54 23.9 127.62 14.89 141.68 4.5 128.61 13.5 114.54"/><polygon class="cls-12" points="32.9 113.55 43.3 126.62 34.29 140.69 23.9 127.62 32.9 113.55"/><polygon class="cls-12" points="52.3 112.56 62.7 125.63 53.69 139.7 43.3 126.62 52.3 112.56"/><polygon class="cls-12" points="71.7 111.57 82.1 124.64 73.09 138.71 62.7 125.63 71.7 111.57"/><polygon class="cls-12" points="91.1 110.58 101.5 123.65 92.49 137.71 82.1 124.64 91.1 110.58"/><polygon class="cls-12" points="110.5 109.58 120.89 122.66 111.89 136.72 101.5 123.65 110.5 109.58"/><polygon class="cls-12" points="-4.51 142.67 5.89 155.75 -3.12 169.81 -13.51 156.74 -4.51 142.67"/><polygon class="cls-12" points="14.89 141.68 25.29 154.75 16.28 168.82 5.89 155.75 14.89 141.68"/><polygon class="cls-12" points="34.29 140.69 44.69 153.76 35.68 167.83 25.29 154.75 34.29 140.69"/><polygon class="cls-12" points="53.69 139.7 64.08 152.77 55.08 166.84 44.69 153.76 53.69 139.7"/><polygon class="cls-12" points="73.09 138.71 83.48 151.78 74.48 165.84 64.08 152.77 73.09 138.71"/><polygon class="cls-12" points="92.49 137.71 102.88 150.79 93.88 164.85 83.48 151.78 92.49 137.71"/><polygon class="cls-12" points="111.89 136.72 122.28 149.79 113.28 163.86 102.88 150.79 111.89 136.72"/><polygon class="cls-12" points="-3.12 169.81 7.27 182.88 -1.73 196.95 -12.13 183.88 -3.12 169.81"/><polygon class="cls-12" points="16.28 168.82 26.67 181.89 17.67 195.96 7.27 182.88 16.28 168.82"/><polygon class="cls-12" points="35.68 167.83 46.07 180.9 37.07 194.97 26.67 181.89 35.68 167.83"/><polygon class="cls-12" points="55.08 166.84 65.47 179.91 56.47 193.97 46.07 180.9 55.08 166.84"/><polygon class="cls-12" points="74.48 165.84 84.87 178.92 75.86 192.98 65.47 179.91 74.48 165.84"/><polygon class="cls-12" points="93.88 164.85 104.27 177.93 95.27 191.99 84.87 178.92 93.88 164.85"/><polygon class="cls-12" points="113.28 163.86 123.67 176.93 114.66 191 104.27 177.93 113.28 163.86"/><polygon class="cls-12" points="-1.73 196.95 8.66 210.02 -0.34 224.09 -10.74 211.01 -1.73 196.95"/><polygon class="cls-12" points="17.67 195.96 28.06 209.03 19.05 223.09 8.66 210.02 17.67 195.96"/><polygon class="cls-12" points="37.07 194.97 47.46 208.04 38.45 222.1 28.06 209.03 37.07 194.97"/><polygon class="cls-12" points="56.47 193.97 66.86 207.05 57.85 221.11 47.46 208.04 56.47 193.97"/><polygon class="cls-12" points="75.86 192.98 86.26 206.06 77.25 220.12 66.86 207.05 75.86 192.98"/><polygon class="cls-12" points="95.27 191.99 105.66 205.06 96.65 219.13 86.26 206.06 95.27 191.99"/><polygon class="cls-12" points="114.66 191 125.06 204.07 116.05 218.14 105.66 205.06 114.66 191"/><polygon class="cls-12" points="129.72 108.69 140.11 121.77 131.1 135.83 120.71 122.76 129.72 108.69"/><polygon class="cls-12" points="149.11 107.7 159.51 120.78 150.5 134.84 140.11 121.77 149.11 107.7"/><polygon class="cls-12" points="168.51 106.71 178.91 119.78 169.9 133.85 159.51 120.78 168.51 106.71"/><polygon class="cls-12" points="187.91 105.72 198.31 118.79 189.3 132.86 178.91 119.78 187.91 105.72"/><polygon class="cls-12" points="207.31 104.73 217.71 117.8 208.7 131.87 198.31 118.79 207.31 104.73"/><polygon class="cls-12" points="226.71 103.73 237.11 116.81 228.1 130.87 217.71 117.8 226.71 103.73"/><polygon class="cls-12" points="246.11 102.74 256.5 115.82 247.5 129.88 237.11 116.81 246.11 102.74"/><polygon class="cls-12" points="131.1 135.83 141.5 148.91 132.49 162.97 122.1 149.9 131.1 135.83"/><polygon class="cls-12" points="150.5 134.84 160.9 147.91 151.89 161.98 141.5 148.91 150.5 134.84"/><polygon class="cls-12" points="169.9 133.85 180.29 146.92 171.29 160.99 160.9 147.91 169.9 133.85"/><polygon class="cls-12" points="189.3 132.86 199.69 145.93 190.69 160 180.29 146.92 189.3 132.86"/><polygon class="cls-12" points="208.7 131.87 219.09 144.94 210.09 159 199.69 145.93 208.7 131.87"/><polygon class="cls-12" points="228.1 130.87 238.49 143.95 229.49 158.01 219.09 144.94 228.1 130.87"/><polygon class="cls-12" points="247.5 129.88 257.89 142.95 248.89 157.02 238.49 143.95 247.5 129.88"/><polygon class="cls-12" points="132.49 162.97 142.88 176.04 133.88 190.11 123.48 177.03 132.49 162.97"/><polygon class="cls-12" points="151.89 161.98 162.28 175.05 153.28 189.12 142.88 176.04 151.89 161.98"/><polygon class="cls-12" points="171.29 160.99 181.68 174.06 172.68 188.13 162.28 175.05 171.29 160.99"/><polygon class="cls-12" points="190.69 160 201.08 173.07 192.08 187.13 181.68 174.06 190.69 160"/><polygon class="cls-12" points="210.09 159 220.48 172.08 211.48 186.14 201.08 173.07 210.09 159"/><polygon class="cls-12" points="229.49 158.01 239.88 171.08 230.88 185.15 220.48 172.08 229.49 158.01"/><polygon class="cls-12" points="248.89 157.02 259.28 170.09 250.27 184.16 239.88 171.08 248.89 157.02"/><polygon class="cls-12" points="133.88 190.11 144.27 203.18 135.26 217.25 124.87 204.17 133.88 190.11"/><polygon class="cls-12" points="153.28 189.12 163.67 202.19 154.66 216.25 144.27 203.18 153.28 189.12"/><polygon class="cls-12" points="172.68 188.13 183.07 201.2 174.06 215.26 163.67 202.19 172.68 188.13"/><polygon class="cls-12" points="192.08 187.13 202.47 200.21 193.46 214.27 183.07 201.2 192.08 187.13"/><polygon class="cls-12" points="211.48 186.14 221.87 199.21 212.86 213.28 202.47 200.21 211.48 186.14"/><polygon class="cls-12" points="230.88 185.15 241.27 198.22 232.26 212.29 221.87 199.21 230.88 185.15"/><polygon class="cls-12" points="250.27 184.16 260.67 197.23 251.66 211.29 241.27 198.22 250.27 184.16"/><polygon class="cls-12" points="212.86 213.28 223.26 226.35 214.25 240.42 203.86 227.34 212.86 213.28"/><polygon class="cls-12" points="232.26 212.29 242.66 225.36 233.65 239.43 223.26 226.35 232.26 212.29"/><polygon class="cls-12" points="251.66 211.29 262.06 224.37 253.05 238.43 242.66 225.36 251.66 211.29"/></g><circle class="cls-13" cx="132.31" cy="163" r="3.28"/><circle class="cls-14" cx="132.31" cy="163" r="2.45"/><circle class="cls-13" cx="131.65" cy="162.39" r="0.29"/><circle class="cls-13" cx="132.96" cy="162.39" r="0.29"/><circle class="cls-13" cx="131.65" cy="163.61" r="0.29"/><circle class="cls-13" cx="132.96" cy="163.61" r="0.29"/><circle class="cls-13" cx="132.31" cy="183.82" r="3.28"/><circle class="cls-14" cx="132.31" cy="183.82" r="2.45"/><circle class="cls-13" cx="131.65" cy="183.2" r="0.29"/><circle class="cls-13" cx="132.96" cy="183.2" r="0.29"/><circle class="cls-13" cx="131.65" cy="184.43" r="0.29"/><circle class="cls-13" cx="132.96" cy="184.43" r="0.29"/><circle class="cls-13" cx="132.31" cy="204.63" r="3.28"/><circle class="cls-14" cx="132.31" cy="204.63" r="2.45"/><circle class="cls-13" cx="131.65" cy="204.02" r="0.29"/><circle class="cls-13" cx="132.96" cy="204.02" r="0.29"/><circle class="cls-13" cx="131.65" cy="205.24" r="0.29"/><circle class="cls-13" cx="132.96" cy="205.24" r="0.29"/><path class="cls-6" d="M160.11,74.14a2.66,2.66,0,0,1,2.21-1.65c1.26.07,1.92,1.51,2.21,2.74a28.68,28.68,0,0,1,.78,6.26,4.75,4.75,0,0,1-.2,1.72,9.71,9.71,0,0,1-.83,1.47,16.76,16.76,0,0,0-1.41,4.4,7,7,0,0,1-2.2,4,1.87,1.87,0,0,1-1.22.46,1.69,1.69,0,0,1-1.35-1.72,6.06,6.06,0,0,1,.62-2.3,16.59,16.59,0,0,0,1-7.92C159.43,78.92,158.73,76.69,160.11,74.14Z"/><path class="cls-4" d="M100.28,74.74a2.64,2.64,0,0,0-2.21-1.65c-1.26.06-1.92,1.51-2.21,2.73a27.58,27.58,0,0,0-.78,6.26,4.73,4.73,0,0,0,.2,1.72,8.61,8.61,0,0,0,.83,1.48,16.89,16.89,0,0,1,1.41,4.4,6.94,6.94,0,0,0,2.19,4,1.85,1.85,0,0,0,1.23.46,1.7,1.7,0,0,0,1.35-1.72,6.11,6.11,0,0,0-.62-2.3,16.66,16.66,0,0,1-1-7.91C101,79.52,101.66,77.29,100.28,74.74Z"/><path class="cls-7" d="M111.44,42.75c4.61,1,8.52,4,13,5.57a28.19,28.19,0,0,0,8.49,1.51l-.6-.58a.75.75,0,0,1,.71.09c-.2-.41.5-.86.78-.5l.43-1.12c.65-.17,1.56.57,1.9,0a.78.78,0,0,0,0-.6,2.83,2.83,0,0,0-1.28-1.62c2,1.58,4.88,1.44,7.42,2,4.49.92,8.71,4.1,13.21,3.24-1.53-1.25-2.17-3.27-2.78-5.15a28.91,28.91,0,0,0-3.49-7.64,33.65,33.65,0,0,0-5.39-5.61,26.74,26.74,0,0,0-5.14-3.87,19,19,0,0,0-7.45-1.89A32.81,32.81,0,0,0,111,31.81c-2.84,1.88-5.5,4.39-6.38,7.68a.37.37,0,0,0,.61.11,4.43,4.43,0,0,0-.83,1.3.81.81,0,0,0,0,.71c.13.22.54.21.57,0a5.53,5.53,0,0,0-.44,2.77c.87-.36,1.4-1.25,2.42-1.57A9.18,9.18,0,0,1,111.44,42.75Z"/><path class="cls-7" d="M120.29,47.39a12.42,12.42,0,0,0-5.56,0,7.2,7.2,0,0,0-4.42,3.22,23,23,0,0,0-1.18,2.91,24,24,0,0,1-3.64,5.69l2.3-.6a1.76,1.76,0,0,0,.27,1.51,1.88,1.88,0,0,1,.4.62,1.23,1.23,0,0,1-.37,1c-4,5.43-7.73,11.57-5.74,18.56a29.58,29.58,0,0,1,.92,6.35c.06,1.11.09,2.22.08,3.34s-.23,2.22-.14,3.33a3.57,3.57,0,0,0,1,2.32,11.68,11.68,0,0,1-3.4-7.77,30.86,30.86,0,0,0-.32-4.5c-.36-1.65-.91-3.25-1.24-4.9A13.46,13.46,0,0,1,99,75.88c0-2,.6-6.52.55-6.72-.62-2.57-1.35-5.11,0-7.39a1.69,1.69,0,0,1-.92.65l0-7.51a30.7,30.7,0,0,1,.27-5.25,15,15,0,0,1,2.31-5.82A14.78,14.78,0,0,0,102.32,42c.15-.35.27-.71.45-1.05a5.54,5.54,0,0,1,1.37-1.57,19.07,19.07,0,0,1,24-.62,3.63,3.63,0,0,1,1.46,1.83,3.4,3.4,0,0,1-.06,1.52,9.8,9.8,0,0,1-3.09,5.3C124.76,48.64,122.17,47.76,120.29,47.39Z"/><path class="cls-7" d="M145.67,32.78a2.65,2.65,0,0,1-.22,1.15,4.64,4.64,0,0,1,1.84-.6l-.06,1.28c.73-.22,1.35,1,.73,1.45a25,25,0,0,1,6.23-.06,25.12,25.12,0,0,0-3.58,1.64l-.15.85,1.63.12-.36.75a11.79,11.79,0,0,1,5.3,5.11,31.22,31.22,0,0,1,2.65,7,42.24,42.24,0,0,1,1.74,8.43,67.82,67.82,0,0,1,.07,11.31,4.82,4.82,0,0,1-.29,1.26A6.93,6.93,0,0,1,160.05,74c-2.06,2.57-.92,4.07-.75,7.36s0,7.56-2.3,9.93c2.18-4.42-.62-9.94-.48-14.87A48.62,48.62,0,0,0,156.7,70c-.38-3.87-2.56-7.32-3.59-11.07-.7-2.55-.86-5.22-1.48-7.78s-1.81-5.15-4-6.63a28.41,28.41,0,0,1-3.17-2,6.25,6.25,0,0,1-1.84-4,10.94,10.94,0,0,1,.2-4.38C143.08,33.55,145.65,32.39,145.67,32.78Z"/><path class="cls-15" d="M96.49,55.12a37.85,37.85,0,0,1,6.13-17.18,29,29,0,0,1,14.25-11.16,36.42,36.42,0,0,1,11.88-1.72,38,38,0,0,1,16.84,3.43c5.18,2.57,9.61,7,11.35,12.49A24,24,0,0,0,147,36.82a34.89,34.89,0,0,0-6.78-.38c-13.8.35-27.92,5.68-36.66,16.37-2.48,3-4.06,6.66-6.39,9.75C95.59,61.7,96.32,56.65,96.49,55.12Z"/><path class="cls-16" d="M108,51.26c5.57-5.08,12.75-8.07,19.94-10.46,5.65-1.89,11.62-3.5,17.54-2.7s11.79,5,13.33,10.64c-.07-4.37-.75-10.12-4.41-13.87a18.81,18.81,0,0,0-8.18-4.53c-10.76-1.88-22.77,2.34-32.54,7.14-5,2.49-10.7,5.58-14.42,9.76s-4,13.15-2.61,18.53C97,67.12,98,70,99.66,70c.79-3.37.45-6.62,2-10A26.84,26.84,0,0,1,108,51.26Z"/><path class="cls-1" d="M189.46,96.13l-1.07,1.25"/><path class="cls-3" d="M111.39,120.23a23.53,23.53,0,0,0-1,6,1.94,1.94,0,0,0,.13,1,2.2,2.2,0,0,0,.92.84c6.81,4,14.9,6.35,20.21,12.23-.64-1.95-.62-4.07-1.28-6-1.2-3.51-5.57-4.78-8.5-6.48C120.71,127.11,111,121.46,111.39,120.23Z"/><path class="cls-17" d="M131.48,148.05a28.78,28.78,0,0,1-2.82,6.4c-1.91,3.25-5.79,8.75-9.63,9.72-1.19-3.86-1.68-8-2.87-11.88a83.51,83.51,0,0,0-4.46-11.57c-1.38-2.9-3-5.77-3.56-8.93a12.52,12.52,0,0,1-.19-1.74,11,11,0,0,1,.14-2.43l0-.18a8.51,8.51,0,0,1,1-2.83,2.75,2.75,0,0,1,.17-.29,8.06,8.06,0,0,1,1.21-1.43,5.66,5.66,0,0,0,3.08,4.49,32.62,32.62,0,0,0,5.29,2.07,23.12,23.12,0,0,1,10,7.28,36.4,36.4,0,0,0,3.71,4.58C133.41,142,131.76,147.15,131.48,148.05Z"/><path class="cls-18" d="M120.41,148.24c-3.09-5.28-4.72-11.58-9.11-15.84a14.28,14.28,0,0,1-1.71-1.77,9.85,9.85,0,0,1-1.47-3.19,8.51,8.51,0,0,1,1-2.83,9.59,9.59,0,0,0,.37,2,12,12,0,0,0,2.68,3.32,25.88,25.88,0,0,1,6,10c-1.82-3.35-3.76-6.74-6.66-9.21A49.79,49.79,0,0,1,120.41,148.24Z"/><path class="cls-18" d="M130,148.56c-.19.4-.4.81-.59,1.24-2.09,4.5-4.82,9.5-9.3,12.55l-.35.24-.06-.42a74.3,74.3,0,0,0-8.08-23.63l-.23-.44a35.86,35.86,0,0,1-3.47-8,11,11,0,0,1,.14-2.43c.23,3.52,2.11,7,3.8,10.23l.23.44a74.81,74.81,0,0,1,8.07,23.38c4.17-3,6.77-7.78,8.76-12.09.2-.43.4-.85.6-1.25,1.33-2.71,2.29-4.67.29-7.3l-.06-.07c-4.75-6.25-7.15-8.25-8.32-8.82a21.25,21.25,0,0,0-3.42-1.25,14.91,14.91,0,0,1-4.91-2.17,11.47,11.47,0,0,1-3.81-4.4,5.74,5.74,0,0,1,.36-.5,10.91,10.91,0,0,0,3.77,4.47,14.31,14.31,0,0,0,4.74,2.09,21.64,21.64,0,0,1,3.5,1.28c1.78.87,4.65,3.89,8.52,9l0,.07C132.46,143.6,131.33,145.9,130,148.56Z"/><path class="cls-3" d="M152.61,120.23a22.85,22.85,0,0,1,1.38,5.69,2,2,0,0,1-.05,1,2.11,2.11,0,0,1-.83.87c-6.25,4.37-13.86,7.17-18.54,13.19.47-1.92.3-3.95.79-5.86.91-3.46,5-5,7.7-6.84C144.15,127.51,153.06,121.39,152.61,120.23Z"/><path class="cls-17" d="M135.29,148.4a28.52,28.52,0,0,0,3.16,5.95c2.08,3,6.19,8,10,8.65.86-3.8,1-7.79,1.91-11.62a78.9,78.9,0,0,1,3.46-11.44c1.11-2.88,2.43-5.75,2.78-8.83a11.83,11.83,0,0,0,.06-1.69,10.62,10.62,0,0,0-.31-2.32c0-.06,0-.12-.05-.18a8.07,8.07,0,0,0-1.18-2.64,2.48,2.48,0,0,0-.19-.26,5.45,5.45,0,0,0-.38-.46,6.37,6.37,0,0,0-.88-.84,5.47,5.47,0,0,1-2.64,4.54,32.51,32.51,0,0,1-4.94,2.37,22.19,22.19,0,0,0-9.13,7.71,31.06,31.06,0,0,1-3.32,4.09C132.92,142.15,135,147.55,135.29,148.4Z"/><path class="cls-18" d="M145.94,147.79c2.6-5.3,3.71-11.46,7.62-15.87a13.84,13.84,0,0,0,1.52-1.82,9.41,9.41,0,0,0,1.18-3.18,8.07,8.07,0,0,0-1.18-2.64,9.79,9.79,0,0,1-.22,1.93,11.46,11.46,0,0,1-2.33,3.39,24.94,24.94,0,0,0-5.07,10c1.51-3.34,3.13-6.75,5.75-9.33A47.7,47.7,0,0,0,145.94,147.79Z"/><path class="cls-18" d="M136.72,148.79c.22.37.44.75.66,1.15,2.32,4.17,5.31,8.79,9.83,11.4l.35.2,0-.41a71.35,71.35,0,0,1,6.08-23.29l.19-.43a34.84,34.84,0,0,0,2.76-8,10.62,10.62,0,0,0-.31-2.32c0,3.4-1.52,6.92-2.92,10.1l-.19.44a72.4,72.4,0,0,0-6.09,23c-4.22-2.58-7.06-7-9.28-11-.22-.4-.45-.79-.66-1.16-1.47-2.51-2.54-4.32-.8-7l0-.07c4.12-6.35,6.28-8.45,7.36-9.08A21.25,21.25,0,0,1,147,131a14.36,14.36,0,0,0,4.56-2.44,11,11,0,0,0,3.35-4.49,5.45,5.45,0,0,0-.38-.46,10.47,10.47,0,0,1-3.3,4.56,13.78,13.78,0,0,1-4.41,2.35,21.8,21.8,0,0,0-3.28,1.48c-1.65,1-4.18,4.07-7.54,9.24l0,.07C134,144.19,135.28,146.32,136.72,148.79Z"/></svg>