<?xml version="1.0" encoding="utf-8"?>
<!-- Generator: Adobe Illustrator 27.4.0, SVG Export Plug-In . SVG Version: 6.00 Build 0)  -->
<svg version="1.1" id="Layer_1" xmlns="http://www.w3.org/2000/svg" xmlns:xlink="http://www.w3.org/1999/xlink" x="0px" y="0px"
	 viewBox="0 0 264 214" style="enable-background:new 0 0 264 214;" xml:space="preserve">
<style type="text/css">
	.st0{opacity:0.2;fill:#7541EE;enable-background:new    ;}
	.st1{fill:#FFFFFF;}
	.st2{fill:#7A7A72;}
	.st3{fill:#BAA88B;}
	.st4{fill:#D6C5A9;}
	.st5{fill:#C7B495;}
	.st6{fill:#1A293F;}
	.st7{fill:#755A39;}
	.st8{fill:#FFFDFA;}
	.st9{fill:#1E6840;}
	.st10{fill:#A87171;}
	.st11{fill:#CED4D9;}
	.st12{fill:#D3D3C5;}
	.st13{fill:#C4C4B7;}
	.st14{fill:#B3986E;}
	.st15{fill:#585E47;}
	.st16{fill:#AB9B80;}
	.st17{clip-path:url(#SVGID_00000085972816200559457220000017385869608872305571_);}
	.st18{fill:#998666;}
	.st19{fill:#727B5C;}
	.st20{fill:#787B55;}
	.st21{fill:#CFD5E0;}
	.st22{clip-path:url(#SVGID_00000155110060015851214600000016710245149156539525_);}
	.st23{fill:#7A6644;}
</style>
<path class="st0" d="M75,0h189v217H95L75,0z"/>
<g>
	<g>
		<path class="st1" d="M69.1,349.7c-4.9,0-9.8-0.6-14.3-1.4C29,344,3.7,334.4-16.7,326.7c-1.9-0.7-5.5-2.1-7.9-5.5
			c-3.9-5.5-2.1-11.7-1.3-14.3L-5.7,237c3.8-13.2,7.8-26.9,15.2-39.5c2.9-5,6.3-9.6,9.5-14c2.7-3.7,5.3-7.2,7.5-10.9
			c0.9-1.4,1.7-2.8,2.6-4.3c2.9-5,5.9-10.1,10.4-14.6c9.6-9.7,22.4-12.9,34.8-16.1c9.4-2.4,18.4-4.7,24.7-9.7l-11.1-21.2
			c-0.6-1.1-1.6-3-2.2-3.5c-0.1-0.1-0.3-0.2-0.5-0.3c-1.2-0.8-3.2-2-4.7-4.4c-2.6-4.2-1.7-8.6-1.3-10.5l3.6-17.3
			c0.4-1.8,0.9-3.6,1.3-5.4c0.8-3,1.6-6,1.6-8.2v-0.8l0.2-0.8c1-4.6,2.1-10.4,6-15.4c3.4-4.4,7.9-7.1,12.3-9.4
			c7-3.7,15.2-7.7,24.4-9.1c6.2-1,12.5-0.6,18,1.2c2.7,0.9,6.2,2.1,9,4.5c1.6,1.4,2.6,2.8,3.4,3.9c0.2,0.3,0.5,0.7,0.6,0.8
			c4.8,5.4,10.1,10.7,15.3,15.8c2.6,2.6,5.4,5.3,8,8c1.9,2,5.2,5.3,5.9,10.3c0.4,2.6,0.6,10.5-9.2,16c0.1,1.4,0.1,2.8,0,4.1
			c1.6,1.7,2.6,3.9,3,6.3c0.7,4.5-1.2,8.2-2.3,10.4l-12.4,25c0.7,1.2,1.2,2.4,1.5,3.2c0.8,2,7.4,3.2,10.2,3.7
			c8.6,1.6,17.2,3.9,25.5,6.9c6.5,2.4,14,5.7,20,11.6c4.6,4.5,7.5,9.8,10.3,14.8c1,1.8,1.9,3.5,2.9,5.1c2.3,3.8,5,7.3,7.9,11.1
			c3.4,4.4,6.9,9,9.8,14.2c5,8.6,7.9,18,10.1,26l0,0c0.7,2.5,1.4,5.1,2,7.6c0.7,2.6,1.4,5.3,2.1,7.9c2.3,8.4,5.2,16.9,7.9,25.1
			c4.9,14.8,10.1,30,12.7,45.9c0.3,1.7,1,5.7-1.2,9.6c-2.3,4.1-6.4,5.5-8.1,6.1c-18.7,6.5-38.2,11.3-57.8,14.1
			c-8.7,1.2-19,2.3-29.2,0.9c-5-0.7-9.7-1.9-14.3-3c-6.4-1.6-12.5-3.2-18.3-3c-2.4,0.1-5,0.3-7.8,0.7c-8.5,0.9-18.9,2.1-27.1-3.9
			l-34.4,0.6l0,10.7l-4.5,2.2C81.8,348.7,75.4,349.7,69.1,349.7z M-10.4,311.7c24.8,9.4,45.7,16.9,67.9,20.6
			c6.1,1,12.8,1.8,18.7,0.4l0-15.9l56.9-1l2.4,2.5c2.8,2.9,8.1,2.5,16.6,1.6c3-0.3,6.1-0.7,9.2-0.7c8.1-0.2,15.5,1.7,22.7,3.5
			c4.3,1.1,8.4,2.1,12.5,2.7c8.2,1.1,16.8,0.2,24.7-0.9c18-2.6,35.9-6.9,53.1-12.7c-2.5-14-7-27.4-11.8-41.6
			c-2.8-8.4-5.7-17.1-8.2-25.9c-0.8-2.7-1.5-5.5-2.2-8.1c-0.6-2.4-1.3-5-2-7.4l0,0c-1.9-7-4.5-15.2-8.5-22.3
			c-2.4-4.2-5.5-8.2-8.7-12.4c-3-3.9-6.1-8-8.8-12.5c-1.2-1.9-2.2-3.8-3.2-5.7c-2.4-4.3-4.6-8.3-7.5-11.2c-3.8-3.8-9.3-6.1-14.2-7.9
			c-7.4-2.7-15-4.8-22.7-6.2c-6.1-1.1-15.9-2.9-20.9-10.7l-16,7.8l22.4-45.1l-6.2,2.6l6.7-17.6c0.9-2.5,0.9-5.3,0-7.7l-3.1-8.1
			l8.3-2.5c1.8-0.5,3-1.1,3.9-1.6c-0.2-0.2-0.4-0.5-0.6-0.6c-2.6-2.6-5.2-5.3-7.8-7.9c-5.3-5.3-10.9-10.8-16-16.5
			c-0.8-0.9-1.4-1.7-1.9-2.4c-0.2-0.2-0.4-0.6-0.5-0.7c-0.3-0.2-1.2-0.7-3.3-1.4c-3.2-1-6.8-1.2-10.6-0.6c-6.7,1-13.5,4.4-19.3,7.5
			c-2.9,1.5-5.6,3-7,4.8c-1.4,1.9-2.2,5-2.8,8.1c-0.1,4-1.2,8-2.2,11.6c-0.4,1.6-0.8,3.1-1.1,4.4L95.3,90c3.7,2.7,5.6,6.4,7,9.1
			l16.2,31.1l-3.3,4.1c-9.4,11.9-24,15.7-36.9,19c-10.7,2.7-20.8,5.3-27.3,11.8c-3,3-5.4,7.1-7.9,11.4c-0.9,1.5-1.8,3.1-2.8,4.7
			c-2.6,4.2-5.4,8.1-8.2,11.9c-3.1,4.3-6.1,8.4-8.6,12.7c-6.3,10.8-10,23.5-13.6,35.8l-20.2,69.8C-10.4,311.5-10.4,311.6-10.4,311.7
			z M274.8,314.3L274.8,314.3L274.8,314.3z M276.8,310.9L276.8,310.9C276.8,310.9,276.8,310.9,276.8,310.9z M144.9,39.3L144.9,39.3
			C144.9,39.3,144.9,39.3,144.9,39.3z"/>
	</g>
	<g>
		<path class="st2" d="M98.4,95.3c7.1-0.9,14.1-2.4,21.1-3.9c12.8-2.8,25.6-5.6,38.1-9.4c7.5-2.3,15-5,21.3-9.7
			c1.2-0.9,2.5-2.1,2.6-3.6c0.1-1.6-1.1-2.9-2.2-3.9c-7.4-6.8-17.1-10.9-27.1-12.3s-20.2-0.1-29.8,3.1c-6,2-11.8,4.8-16.7,8.8
			c-5.8,4.9-10,11.4-14,17.9c-2.2,3.5-5.7,7.7-6.6,11.8C88.9,96.4,94.2,95.9,98.4,95.3z"/>
	</g>
	<g>
		<path class="st3" d="M133.8,153.8L133.8,153.8c-12.8,0-23.2-10.4-23.2-23.2v-7.4H157v7.4C157,143.5,146.6,153.8,133.8,153.8z"/>
	</g>
	<g>
		<path class="st4" d="M165,103.9l-1.4,5.9l-1.6,10.6c-0.5,3.2-1.9,6.2-4.1,8.5l-2.1,2.3c-1.5,1.6-3.3,2.9-5.3,3.8l-7.8,3.5
			c-2.2,1-4.5,1.5-6.9,1.4l-0.9,0l-1.6,0l-2.5,0c-2.4,0-4.7-0.5-6.9-1.4l-7.8-3.5c-2-0.9-3.8-2.2-5.3-3.8l-2.1-2.3
			c-2.2-2.4-3.6-5.4-4.1-8.5l-1.6-10.6l-1.4-5.9c-0.5-2.3-0.6-4.6-0.1-6.9l0.9-4.8V64.9l28.2-11.3v-2.2l2.7,1.1l2-0.8l0.6-0.3v2.2
			l28.2,11.3v27.3l0.9,4.8C165.6,99.3,165.5,101.6,165,103.9z"/>
	</g>
	<g>
		<path class="st5" d="M165,103.9l-1.4,5.9l-1.6,10.6c-0.5,3.2-1.9,6.2-4.1,8.5l-2.1,2.3c-1.5,1.6-3.3,2.9-5.3,3.8l-7.8,3.5
			c-2.2,1-4.5,1.5-6.9,1.4l-0.9,0l-2-3.5c-0.5-0.9-0.8-2-0.8-3.1v-2.1c0-0.9,0.2-1.8,0.5-2.6l2-4.4v-6.9l-0.1-5.6
			c-1.2-2,0-4.5,0-4.5s0.8-0.2,2.2-1c1.4-0.7,1.2-4.8,0.5-5.9c-0.7-1.2-1-3.2-1-3.2c0.6-3.1-0.2-8.7-0.5-11
			c-0.3-2.2-0.3-5.2-0.3-5.2V51.8l0.6-0.3v2.2l28.2,11.3v27.3l0.9,4.8C165.6,99.3,165.5,101.6,165,103.9z"/>
	</g>
	<g>
		<path class="st6" d="M133.7,107.8c-1.4,0-3.3-0.3-4.7-1.9c-1.3-1.5-2.5-1.6-3.2-1.1c-0.4,0.2-0.5,0.6-0.5,0.8
			c0.1,0.2,0,0.4-0.2,0.5c-0.2,0.1-0.4,0-0.5-0.2c-0.2-0.5,0.1-1.2,0.7-1.7c1-0.6,2.5-0.6,4.1,1.2c2,2.3,5.5,1.5,5.5,1.5
			c2.6-0.9,2.5-3.5,2.4-4.6c-0.2-1.4-0.6-2.1-0.9-2.7c-0.2-0.4-0.5-0.8-0.6-1.4c-0.2-0.9-0.1-2.6-0.1-4.6c0-0.8,0-1.7,0-2.6
			c0-1.5-0.3-3.1-0.5-4.4c-0.2-1.1-0.4-2.2-0.4-3.1c0-0.2,0.2-0.4,0.4-0.4c0.2,0,0.4,0.2,0.4,0.4c0,0.8,0.2,1.9,0.4,3
			c0.2,1.4,0.5,3,0.5,4.6c0,0.9,0,1.7,0,2.6c0,1.9-0.1,3.6,0.1,4.4c0.1,0.4,0.3,0.7,0.5,1.2c0.4,0.6,0.8,1.4,1,2.9
			c0.4,2.6-0.7,4.6-2.9,5.3C135.2,107.7,134.6,107.8,133.7,107.8z"/>
	</g>
	<g>
		<path class="st6" d="M138.4,107.3c-0.2,0-0.4-0.2-0.4-0.4s0.2-0.4,0.4-0.4c0.5,0,0.7-0.3,1-0.7c0.1-0.1,0.1-0.2,0.2-0.2
			c1.2-1.6,2.9-1.7,3.9-1.1c0.6,0.4,0.9,1,0.7,1.4c-0.1,0.2-0.3,0.3-0.5,0.2c-0.2-0.1-0.3-0.3-0.2-0.5c0.1-0.1-0.1-0.4-0.4-0.5
			c-0.5-0.3-1.9-0.5-3,0.9c-0.1,0.1-0.1,0.1-0.2,0.2C139.7,106.7,139.3,107.3,138.4,107.3z"/>
	</g>
	<g>
		<path class="st7" d="M141.8,81.3c2.5-0.9,5-1.6,7.7-1.9c1.3-0.2,3-0.1,4.3,0.5c1.3,0.5,2.5,1.2,3.5,2c0.2,0.1,0.2,0.3,0.1,0.5
			c-0.1,0.1-0.3,0.2-0.4,0.1c-1.2-0.3-2.5-0.7-3.7-0.9c-1.2-0.2-2.2-0.2-3.4,0.1c-2.4,0.6-4.9,1.4-7.2,2.2
			C141,84.5,140.1,82,141.8,81.3L141.8,81.3z"/>
	</g>
	<g>
		<path class="st7" d="M124.6,84c-2.4-0.6-5.6-1.7-7.9-1.8c-0.9,0-1.7,0.4-2.6,0.9c-1.1,0.6-2.2,1.3-3.3,2c-0.3,0.2-0.7-0.2-0.5-0.5
			c1.3-1.6,2.8-3.1,4.7-4c0.5-0.2,1.1-0.4,1.7-0.5c3-0.2,5.8,0.5,8.6,1.3C127.1,81.9,126.4,84.4,124.6,84L124.6,84z"/>
	</g>
	<g>
		<g>
			<path class="st8" d="M113.4,89.5c0,0,5,0.9,7.7,0.4c2.7-0.5,4.5-1.6,4.5-1.6s-4.3-3.6-7.2-2.1C115.5,87.6,113.4,89.5,113.4,89.5z
				"/>
		</g>
		<g>
			<circle class="st9" cx="119.4" cy="88.2" r="1.8"/>
		</g>
		<g>
			<path class="st6" d="M125.5,88.9c-1.6-1.4-4-3-6.2-2.5c-2.3,0.6-4.2,2.2-5.9,3.9c-0.8,0.8-2-0.5-1.2-1.3c2.1-1.4,4.3-3,6.9-3.5
				c2.6-0.4,5,1.2,7,2.7C126.6,88.7,126,89.4,125.5,88.9L125.5,88.9z"/>
		</g>
	</g>
	<g>
		<g>
			<path class="st8" d="M154,89.4c0,0-5,1-7.7,0.6c-2.7-0.4-4.5-1.5-4.5-1.5s4.2-3.7,7.1-2.3C151.8,87.5,154,89.4,154,89.4z"/>
		</g>
		<g>
			<circle class="st9" cx="146.7" cy="88.1" r="1.8"/>
		</g>
		<g>
			<path class="st6" d="M141.2,88.5c2-1.5,4.3-3.2,6.9-2.9c2.5,0.4,4.8,1.6,7,3c0.4,0.3,0.5,0.8,0.3,1.2c-0.3,0.4-0.8,0.5-1.2,0.3
				c-0.5-0.4-0.9-0.9-1.5-1.3c-1.4-1.1-3-1.9-4.7-2.3c-1.1-0.2-2.2,0.1-3.3,0.6c-1.1,0.5-2.1,1.2-2.9,2.1
				C141.4,89.5,140.8,88.8,141.2,88.5L141.2,88.5z"/>
		</g>
	</g>
	<g>
		<path class="st7" d="M136,109.9c0.2-0.1,0.3-0.1,0.5-0.1c1.7-0.3,3.4,0.5,4.8,1.3c1.3,0.7,2.4,1.5,3.4,2.4c1,0.8,1.8,1.7,2.9,2.4
			c1,0.6,2.1,1.1,3.3,1.3c0.3,0,0.4,0.3,0.4,0.6c0,0.2-0.2,0.4-0.4,0.4c-1.3,0.1-2.7-0.1-4.1-0.5c-2.8-1.1-5.5-3-8.5-3.2
			c-0.3,0-0.6,0-0.8,0.1c0,0,0,0,0,0c0.1,0,0.2,0,0.3-0.1C134.9,115.5,133.1,111.2,136,109.9L136,109.9z"/>
	</g>
	<g>
		<path class="st7" d="M131,114.4c0.1,0,0.2,0.1,0.3,0.1c0,0,0,0,0,0c-0.3-0.1-0.5-0.1-0.8-0.1c-1.7,0.1-3.3,0.8-4.9,1.5
			c-1.2,0.5-2.3,1.3-3.6,1.7c-1.3,0.5-2.7,0.6-4.1,0.5c-0.6,0-0.6-0.8,0-0.9c1.2-0.2,2.3-0.7,3.3-1.3c1-0.7,1.9-1.6,2.9-2.4
			c1-0.8,2.1-1.7,3.4-2.4c1.4-0.8,3.2-1.5,4.8-1.3c0.2,0,0.4,0.1,0.5,0.1C135.8,111.2,134,115.5,131,114.4L131,114.4z"/>
	</g>
	<g>
		<g>
			<g>
				<g>
					<path class="st10" d="M136.6,119.1l-2.5-2.2c0,0-1-0.9-1-1c-0.1,0-1.6-0.1-1.8,0c-0.1,0.1-4.9,3-5.3,3
						c-0.4-0.1-2.1-1.1-2.1-1.1l-1.6,3.2c0,0,3.8-1.8,4-1.8S136.6,119.1,136.6,119.1z"/>
				</g>
			</g>
		</g>
		<g>
			<g>
				<g>
					<path class="st10" d="M132.7,119.1l2.6-2.2c0,0,1-0.9,1.1-1c0.1,0,1.7-0.1,1.9,0c0.2,0.1,5.4,2.8,5.4,2.8l2.5-1l1.7,3.2
						c0,0-4-1.8-4.3-1.8S132.7,119.1,132.7,119.1z"/>
				</g>
			</g>
		</g>
	</g>
	<g>
		<path class="st7" d="M125.8,84.2c0.7-0.5,1.2-1.4,0.8-2.2c-0.1-0.1,0-0.3,0.2-0.3c0.1,0,0.3,0,0.3,0.2c0.2,0.8-0.1,1.6-0.6,2.1
			c-0.2,0.2-0.4,0.3-0.6,0.4c0,0-0.1,0-0.1,0C125.7,84.3,125.8,84.2,125.8,84.2L125.8,84.2z"/>
	</g>
	<g>
		<path class="st7" d="M126.5,84.4c0.4-0.3,0.7-0.7,0.8-1.1c0-0.1,0.2-0.2,0.3-0.2c0.7,0.3-0.7,1.3-1,1.5
			C126.5,84.6,126.4,84.4,126.5,84.4L126.5,84.4z"/>
	</g>
	<g>
		<path class="st7" d="M141.1,84.5c0,0-0.1,0-0.1,0c-0.6-0.3-1.6-1.3-1.1-2.7c0-0.1,0.2-0.2,0.3-0.2c0.1,0,0.2,0.2,0.2,0.3
			c-0.4,1.3,0.9,2.1,0.9,2.1c0.1,0.1,0.2,0.2,0.1,0.4C141.3,84.5,141.2,84.5,141.1,84.5z"/>
	</g>
	<g>
		<path class="st7" d="M140.4,84.5c-0.3-0.1-1.6-1.1-1.1-1.4c0.1-0.1,0.3,0,0.4,0.1c0.1,0.4,0.4,0.9,0.8,1.2
			C140.5,84.4,140.5,84.6,140.4,84.5L140.4,84.5z"/>
	</g>
	<g>
		<path class="st4" d="M98.3,91.7c0,0-4.4-3.6-6.2,0.5c-1.9,4.1,4.2,11.7,4.6,13.8c0.4,2.1,2.1,10.2,7.5,9.6l-2-19.6L98.3,91.7z"/>
	</g>
	<g>
		<path class="st5" d="M167.8,91.7c0,0,4.4-3.6,6.2,0.5c1.9,4.1-4.2,11.7-4.6,13.8c-0.4,2.1-2.1,10.2-7.5,9.6l2-19.6L167.8,91.7z"/>
	</g>
	<g>
		<path class="st3" d="M92.9,93.8c0,0,3.2-1.8,7,4.5c0,0,1.4,3.5,1,5.7c-0.4,2.2,0.9,4.2,1.2,4.8c0.3,0.6-2.2,2.4-3.5-1.4
			s-1.8-5.3-3.8-7.4S92.9,93.8,92.9,93.8z"/>
	</g>
	<g>
		<path class="st3" d="M172.7,93.8c0,0-3.2-1.8-7,4.5c0,0-1.4,3.5-1,5.7c0.4,2.2-0.9,4.2-1.2,4.8c-0.3,0.6,2.2,2.4,3.5-1.4
			s1.8-5.3,3.8-7.4S172.7,93.8,172.7,93.8z"/>
	</g>
	<g>
		<path class="st7" d="M95,80.7c-0.6-2.8-1.4-5.5-1.5-8.3s0.4-5.8,2-8.1c1-1.5,2.4-2.6,3.8-3.7c2.4-2,4.9-3.9,7.3-5.9
			c3.4-2.8,6.9-5.6,10.9-7.4c3.9-1.8,8.3-2.7,12.6-2.5c4,0.2,7.8,1.2,11.7,2.3c3.9,1.1,7.9,2.2,11.8,3.2c0.8,0.2,1.6,0.4,2.3,0.9
			c1.3,0.9,1.9,2.7,1.7,4.4c-0.2,1.6-1.2,3.1-2.3,4.2c-3.1,3.2-7.7,4.7-12.2,5.2c-4.5,0.5-9,0.3-13.5,0.8c-5.6,0.6-11.1,2.5-16,5.4
			c-4.2,2.5-8.1,6.1-9.2,10.8c-1,3.9,0,8.1-1.1,12c-0.2,0.7-0.6,1.6-1.4,1.6c-0.4,0-0.8-0.2-1.1-0.4c-0.8-0.5-2.7-1.1-3.3-1.9
			c-0.6-0.8-0.5-3-0.7-3.9C96.2,86.4,95.6,83.5,95,80.7z"/>
	</g>
	<g>
		<path class="st7" d="M150.8,64.9c0.7,1.8,2.2,3.2,3.6,4.5c2.1,2,4.1,4.3,5.1,7.1c1,2.8,0.9,5.9,1,9c0.1,3,0.4,6.2,2.2,8.6
			c0.4,0.6,0.9,1.1,1.6,1.2c0.8,0.2,1.7-0.3,2.4-0.9s1.3-1.2,2.1-1.5c0.5-0.2,1.1-0.3,1.3-0.7c0.1-0.2,0.1-0.5,0.1-0.8
			c0-3.2,2-6.2,1.5-9.4c-0.2-1.8-1.2-3.4-1.6-5.1c-0.4-1.8-0.2-3.6-0.2-5.5c0.1-2.9-0.3-5.9-1-8.8c-0.4-1.8-1.1-3.6-2.2-5
			c-0.5-0.6-1.1-1.1-1.7-1.5c-1.9-1.3-4.1-2.2-6.4-2.1c-2.6,0.1-4.6,1.6-5.8,3.8C151.4,60.2,149.7,62.1,150.8,64.9z"/>
	</g>
	<g>
		<path class="st11" d="M109.9,133.7c0,0-15.4,52.3,23.6,108.6c0,0,39.2-78.5,24.9-108.6C158.4,133.7,136.9,167,109.9,133.7z"/>
	</g>
	<g>
		<path class="st12" d="M163.4,48.6c-2.9,0-5.9-1.1-8.9-1.2c-3.2-0.1-6.3,0.1-9.5,0.5c-6.3,0.8-12.4,2.4-18.4,4.2
			c-3.9,1.2-7.8,2.5-11.7,4.2h0c-6,2.5-11.7,5.7-16.3,10c0,0,0,0,0,0c-2.4,2.2-4.5,4.8-6.3,7.7c-0.1,0.2-0.4,0.6-0.8,0.5L92,72
			c0-0.1,0-0.3,0.1-0.4c0.1-0.3,0.1-0.6,0.2-0.9v0c0.6-3.8,1.2-7.5,1.4-11.4c0.2-4.9,0-9.5,3.2-13.6c2.3-2.9,5.4-5.1,8.6-6.9
			c4.9-2.8,10.2-5.1,15.6-6.9c0.2-0.1,0.4-0.1,0.6-0.2c1.2-0.4,2.3-0.7,3.5-1c6.8-1.9,14.3-2.9,20.7,0.1c3.8,1.8,6.8,4.8,9.5,8
			c1.9,2.2,3.9,4.5,5.8,6.9c0.2,0.2,0.3,0.4,0.5,0.6C162.2,47,162.8,47.8,163.4,48.6z"/>
	</g>
	<g>
		<path class="st13" d="M94.8,68.8c6.1-7.6,14.8-12.6,24.1-15.7c9.2-3.1,18.9-4.3,28.6-5.4c4.1-0.5,8.3-0.9,12.4-0.5
			c0.6,0.1,1.2,0.1,1.8,0.3c0.7,0.3,1.2,0.7,1.8,1.2c6.8,5.6,13.8,11.4,18.2,19.1c-0.8-1.3-2.1-2.2-3.4-3c-4.7-2.9-9.6-5.7-15-7.3
			c-5.3-1.7-11.1-2.2-16.4-0.7c-10.3,2.9-17.5,12.6-27.6,16.2c-5.3,1.9-11.1,2-16.4,4C97,79.2,89.2,89.2,85.2,93.5
			c2.1-5.7,1.5-10.4,6.2-19C92.8,72,93,71,94.8,68.8z"/>
	</g>
	<g>
		<g>
			<path class="st13" d="M98.6,54.5l-0.7-0.1c0.1-1.1,0.2-2.2,0.4-3.2l0.7,0.1C98.9,52.3,98.7,53.4,98.6,54.5z"/>
		</g>
		<g>
			<path class="st13" d="M100.1,55.7l-0.7-0.1c0.2-1,0.3-2,0.3-3l0.7,0C100.4,53.6,100.4,54.7,100.1,55.7z"/>
		</g>
		<g>
			
				<rect x="97.9" y="57.2" transform="matrix(0.997 -7.687464e-02 7.687464e-02 0.997 -4.123 7.7215)" class="st13" width="0.7" height="0.5"/>
		</g>
		<g>
			
				<rect x="101.7" y="52.8" transform="matrix(0.2415 -0.9704 0.9704 0.2415 25.7683 139.3173)" class="st13" width="0.6" height="0.7"/>
		</g>
		<g>
			
				<rect x="99.1" y="46.9" transform="matrix(8.866046e-02 -0.9961 0.9961 8.866046e-02 44.3807 143.0189)" class="st13" width="2.5" height="0.7"/>
		</g>
		<g>
			
				<rect x="97.6" y="60.8" transform="matrix(5.692509e-02 -0.9984 0.9984 5.692509e-02 32.0676 156.2872)" class="st13" width="2.3" height="0.7"/>
		</g>
	</g>
	<g>
		<g>
			<path class="st14" d="M110.9,90.5c-0.4,0.5-1.3,0.9-1.8,0.6"/>
		</g>
		<g>
			<path class="st14" d="M111.2,90.5c0,0.4-0.2,0.8-0.7,1.2c-0.3,0.2-0.9,0.4-1.4,0.2"/>
		</g>
	</g>
	<g>
		<g>
			<path class="st14" d="M155.7,90.5c0.5,0.4,1.5,0.5,1.9,0"/>
		</g>
		<g>
			<path class="st14" d="M155.4,90.6c0.1,0.4,0.4,0.7,1,0.9c0.4,0.1,1,0.2,1.4-0.2"/>
		</g>
	</g>
	<g>
		<path class="st15" d="M130.1,205.6c0.6-5.3-0.3-10.7-1.1-16c-1.4-8.5-2.8-17.3-7.2-24.7c-3.9-6.5-10.6-11.8-18.1-11.7
			c-0.6,0-1.2,0.1-1.7,0.4c-0.6,0.4-0.9,1-1.2,1.6c-7.7,15.9-12.1,33.2-16.5,50.3c-1.1,4.4-20.3,10.5-20.9,15
			c-0.5,3.8-16,98-14.9,101.6c14.8,2.8,73.2,4.3,87.9,0.8c0.4-0.1,0-97.9,0-98.3C135.9,217.3,129.3,212.8,130.1,205.6z"/>
	</g>
	<g>
		<g>
			<path class="st16" d="M7,226.8c2-9.3,4-18.7,9.2-26.7c4.1-6.3,9.9-11.3,14.1-17.5c3.2-4.7,5.4-10,8.2-15c2.8-5,6.3-9.8,11.3-12.6
				c4.3-2.4,9.4-3.2,14-4.9c4.1-1.5,7.9-3.8,11.9-5.5c6.5-2.7,13.6-3.7,20.6-2.9c0.2,1.1,1.3,1.1,2.1,1.8c1.2,1,1.7,2.7,1.9,4.3
				c2.3,13.9-2.5,27.9-6.4,41.5c-3.9,13.2-7,26.7-9.3,40.3c-0.2,0.9,0,79.3-0.5,80c-0.4,0.5,0.6,28.5,0.1,28.8
				c-18.8,11.7-81.8-12.9-102.3-21C-23.1,315.3,5.9,232.1,7,226.8z"/>
		</g>
		<g>
			<defs>
				<path id="SVGID_1_" d="M7,226.8c2-9.3,4-18.7,9.2-26.7c4.1-6.3,9.9-11.3,14.1-17.5c3.2-4.7,5.4-10,8.2-15
					c2.8-5,6.3-9.8,11.3-12.6c4.3-2.4,9.4-3.2,14-4.9c4.1-1.5,7.9-3.8,11.9-5.5c6.5-2.7,13.6-3.7,20.6-2.9c0.2,1.1,1.3,1.1,2.1,1.8
					c1.2,1,1.7,2.7,1.9,4.3c2.3,13.9-2.5,27.9-6.4,41.5c-3.9,13.2-7,26.7-9.3,40.3c-0.2,0.9-0.3,92.6-0.9,93.3
					c-0.4,0.5-0.9,0.8-1.3,1.1c-18.8,11.7-81.7,4.3-102.3-3.9C-24.9,318,5.9,232.1,7,226.8z"/>
			</defs>
			<clipPath id="SVGID_00000094582603949275603250000012529726068972250776_">
				<use xlink:href="#SVGID_1_"  style="overflow:visible;"/>
			</clipPath>
			<g style="clip-path:url(#SVGID_00000094582603949275603250000012529726068972250776_);">
				<g>
					<g>
						<g>
							<polygon class="st18" points="-49.6,134.3 -41.9,143.9 -48.6,154.3 -56.2,144.7 							"/>
						</g>
					</g>
					<g>
						<g>
							<polygon class="st18" points="-35.3,133.6 -27.6,143.2 -34.3,153.6 -41.9,143.9 							"/>
						</g>
					</g>
					<g>
						<g>
							<polygon class="st18" points="-21,132.8 -13.3,142.5 -20,152.8 -27.6,143.2 							"/>
						</g>
					</g>
					<g>
						<g>
							<polygon class="st18" points="-6.7,132.1 1,141.7 -5.6,152.1 -13.3,142.5 							"/>
						</g>
					</g>
					<g>
						<g>
							<polygon class="st18" points="7.6,131.4 15.3,141 8.7,151.4 1,141.7 							"/>
						</g>
					</g>
					<g>
						<g>
							<polygon class="st18" points="21.9,130.6 29.6,140.3 23,150.6 15.3,141 							"/>
						</g>
					</g>
					<g>
						<g>
							<polygon class="st18" points="36.2,129.9 43.9,139.5 37.3,149.9 29.6,140.3 							"/>
						</g>
					</g>
					<g>
						<g>
							<polygon class="st18" points="-48.6,154.3 -40.9,163.9 -47.5,174.3 -55.2,164.7 							"/>
						</g>
					</g>
					<g>
						<g>
							<polygon class="st18" points="-34.3,153.6 -26.6,163.2 -33.2,173.6 -40.9,163.9 							"/>
						</g>
					</g>
					<g>
						<g>
							<polygon class="st18" points="-20,152.8 -12.3,162.5 -18.9,172.8 -26.6,163.2 							"/>
						</g>
					</g>
					<g>
						<g>
							<polygon class="st18" points="-5.6,152.1 2,161.7 -4.6,172.1 -12.3,162.5 							"/>
						</g>
					</g>
					<g>
						<g>
							<polygon class="st18" points="8.7,151.4 16.3,161 9.7,171.4 2,161.7 							"/>
						</g>
					</g>
					<g>
						<g>
							<polygon class="st18" points="23,150.6 30.6,160.3 24,170.6 16.3,161 							"/>
						</g>
					</g>
					<g>
						<g>
							<polygon class="st18" points="37.3,149.9 44.9,159.5 38.3,169.9 30.6,160.3 							"/>
						</g>
					</g>
					<g>
						<g>
							<polygon class="st18" points="-47.5,174.3 -39.9,183.9 -46.5,194.3 -54.2,184.7 							"/>
						</g>
					</g>
					<g>
						<g>
							<polygon class="st18" points="-33.2,173.6 -25.6,183.2 -32.2,193.6 -39.9,183.9 							"/>
						</g>
					</g>
					<g>
						<g>
							<polygon class="st18" points="-18.9,172.8 -11.3,182.5 -17.9,192.8 -25.6,183.2 							"/>
						</g>
					</g>
					<g>
						<g>
							<polygon class="st18" points="-4.6,172.1 3,181.7 -3.6,192.1 -11.3,182.5 							"/>
						</g>
					</g>
					<g>
						<g>
							<polygon class="st18" points="9.7,171.4 17.3,181 10.7,191.4 3,181.7 							"/>
						</g>
					</g>
					<g>
						<g>
							<polygon class="st18" points="24,170.6 31.6,180.3 25,190.7 17.3,181 							"/>
						</g>
					</g>
					<g>
						<g>
							<polygon class="st18" points="38.3,169.9 45.9,179.6 39.3,189.9 31.6,180.3 							"/>
						</g>
					</g>
					<g>
						<g>
							<polygon class="st18" points="-46.5,194.3 -38.8,203.9 -45.5,214.3 -53.2,204.7 							"/>
						</g>
					</g>
					<g>
						<g>
							<polygon class="st18" points="-32.2,193.6 -24.5,203.2 -31.2,213.6 -38.8,203.9 							"/>
						</g>
					</g>
					<g>
						<g>
							<polygon class="st18" points="-17.9,192.8 -10.2,202.5 -16.9,212.9 -24.5,203.2 							"/>
						</g>
					</g>
					<g>
						<g>
							<polygon class="st18" points="-3.6,192.1 4.1,201.8 -2.6,212.1 -10.2,202.5 							"/>
						</g>
					</g>
					<g>
						<g>
							<polygon class="st18" points="10.7,191.4 18.4,201 11.7,211.4 4.1,201.8 							"/>
						</g>
					</g>
					<g>
						<g>
							<polygon class="st18" points="25,190.7 32.7,200.3 26,210.7 18.4,201 							"/>
						</g>
					</g>
					<g>
						<g>
							<polygon class="st18" points="39.3,189.9 47,199.6 40.3,209.9 32.7,200.3 							"/>
						</g>
					</g>
					<g>
						<g>
							<polygon class="st18" points="-45.5,214.3 -37.8,224 -44.5,234.3 -52.1,224.7 							"/>
						</g>
					</g>
					<g>
						<g>
							<polygon class="st18" points="-31.2,213.6 -23.5,223.2 -30.2,233.6 -37.8,224 							"/>
						</g>
					</g>
					<g>
						<g>
							<polygon class="st18" points="-16.9,212.9 -9.2,222.5 -15.9,232.9 -23.5,223.2 							"/>
						</g>
					</g>
					<g>
						<g>
							<polygon class="st18" points="-2.6,212.1 5.1,221.8 -1.6,232.1 -9.2,222.5 							"/>
						</g>
					</g>
					<g>
						<g>
							<polygon class="st18" points="11.7,211.4 19.4,221 12.7,231.4 5.1,221.8 							"/>
						</g>
					</g>
					<g>
						<g>
							<polygon class="st18" points="26,210.7 33.7,220.3 27.1,230.7 19.4,221 							"/>
						</g>
					</g>
					<g>
						<g>
							<polygon class="st18" points="40.3,209.9 48,219.6 41.4,229.9 33.7,220.3 							"/>
						</g>
					</g>
				</g>
				<g>
					<g>
						<g>
							<polygon class="st18" points="50.4,129.2 58.1,138.9 51.4,149.2 43.8,139.6 							"/>
						</g>
					</g>
					<g>
						<g>
							<polygon class="st18" points="64.7,128.5 72.4,138.1 65.7,148.5 58.1,138.9 							"/>
						</g>
					</g>
					<g>
						<g>
							<polygon class="st18" points="79,127.8 86.7,137.4 80,147.8 72.4,138.1 							"/>
						</g>
					</g>
					<g>
						<g>
							<polygon class="st18" points="93.3,127 101,136.7 94.3,147.1 86.7,137.4 							"/>
						</g>
					</g>
					<g>
						<g>
							<polygon class="st18" points="107.6,126.3 115.3,136 108.6,146.3 101,136.7 							"/>
						</g>
					</g>
					<g>
						<g>
							<polygon class="st18" points="121.9,125.6 129.6,135.2 122.9,145.6 115.3,136 							"/>
						</g>
					</g>
					<g>
						<g>
							<polygon class="st18" points="136.2,124.9 143.9,134.5 137.2,144.9 129.6,135.2 							"/>
						</g>
					</g>
					<g>
						<g>
							<polygon class="st18" points="51.4,149.2 59.1,158.9 52.5,169.3 44.8,159.6 							"/>
						</g>
					</g>
					<g>
						<g>
							<polygon class="st18" points="65.7,148.5 73.4,158.2 66.8,168.5 59.1,158.9 							"/>
						</g>
					</g>
					<g>
						<g>
							<polygon class="st18" points="80,147.8 87.7,157.4 81.1,167.8 73.4,158.2 							"/>
						</g>
					</g>
					<g>
						<g>
							<polygon class="st18" points="94.3,147.1 102,156.7 95.4,167.1 87.7,157.4 							"/>
						</g>
					</g>
					<g>
						<g>
							<polygon class="st18" points="108.6,146.3 116.3,156 109.7,166.3 102,156.7 							"/>
						</g>
					</g>
					<g>
						<g>
							<polygon class="st18" points="122.9,145.6 130.6,155.2 124,165.6 116.3,156 							"/>
						</g>
					</g>
					<g>
						<g>
							<polygon class="st18" points="137.2,144.9 144.9,154.5 138.3,164.9 130.6,155.2 							"/>
						</g>
					</g>
					<g>
						<g>
							<polygon class="st18" points="52.5,169.3 60.1,178.9 53.5,189.3 45.8,179.6 							"/>
						</g>
					</g>
					<g>
						<g>
							<polygon class="st18" points="66.8,168.5 74.4,178.2 67.8,188.5 60.1,178.9 							"/>
						</g>
					</g>
					<g>
						<g>
							<polygon class="st18" points="81.1,167.8 88.7,177.4 82.1,187.8 74.4,178.2 							"/>
						</g>
					</g>
					<g>
						<g>
							<polygon class="st18" points="95.4,167.1 103,176.7 96.4,187.1 88.7,177.4 							"/>
						</g>
					</g>
					<g>
						<g>
							<polygon class="st18" points="109.7,166.3 117.3,176 110.7,186.3 103,176.7 							"/>
						</g>
					</g>
					<g>
						<g>
							<polygon class="st18" points="124,165.6 131.6,175.2 125,185.6 117.3,176 							"/>
						</g>
					</g>
					<g>
						<g>
							<polygon class="st18" points="138.3,164.9 145.9,174.5 139.3,184.9 131.6,175.2 							"/>
						</g>
					</g>
					<g>
						<g>
							<polygon class="st18" points="53.5,189.3 61.1,198.9 54.5,209.3 46.8,199.6 							"/>
						</g>
					</g>
					<g>
						<g>
							<polygon class="st18" points="67.8,188.5 75.4,198.2 68.8,208.5 61.1,198.9 							"/>
						</g>
					</g>
					<g>
						<g>
							<polygon class="st18" points="82.1,187.8 89.7,197.4 83.1,207.8 75.4,198.2 							"/>
						</g>
					</g>
					<g>
						<g>
							<polygon class="st18" points="96.4,187.1 104,196.7 97.4,207.1 89.7,197.4 							"/>
						</g>
					</g>
					<g>
						<g>
							<polygon class="st18" points="110.7,186.3 118.4,196 111.7,206.4 104,196.7 							"/>
						</g>
					</g>
					<g>
						<g>
							<polygon class="st18" points="125,185.6 132.7,195.2 126,205.6 118.4,196 							"/>
						</g>
					</g>
					<g>
						<g>
							<polygon class="st18" points="139.3,184.9 147,194.5 140.3,204.9 132.7,195.2 							"/>
						</g>
					</g>
					<g>
						<g>
							<polygon class="st18" points="54.5,209.3 62.2,218.9 55.5,229.3 47.9,219.6 							"/>
						</g>
					</g>
					<g>
						<g>
							<polygon class="st18" points="68.8,208.5 76.5,218.2 69.8,228.6 62.2,218.9 							"/>
						</g>
					</g>
					<g>
						<g>
							<polygon class="st18" points="83.1,207.8 90.8,217.5 84.1,227.8 76.5,218.2 							"/>
						</g>
					</g>
					<g>
						<g>
							<polygon class="st18" points="97.4,207.1 105.1,216.7 98.4,227.1 90.8,217.5 							"/>
						</g>
					</g>
					<g>
						<g>
							<polygon class="st18" points="111.7,206.4 119.4,216 112.7,226.4 105.1,216.7 							"/>
						</g>
					</g>
					<g>
						<g>
							<polygon class="st18" points="126,205.6 133.7,215.3 127,225.6 119.4,216 							"/>
						</g>
					</g>
					<g>
						<g>
							<polygon class="st18" points="140.3,204.9 148,214.5 141.3,224.9 133.7,215.3 							"/>
						</g>
					</g>
				</g>
				<g>
					<g>
						<g>
							<polygon class="st18" points="-44.5,233.8 -36.8,243.5 -43.5,253.8 -51.1,244.2 							"/>
						</g>
					</g>
					<g>
						<g>
							<polygon class="st18" points="-30.2,233.1 -22.5,242.7 -29.2,253.1 -36.8,243.5 							"/>
						</g>
					</g>
					<g>
						<g>
							<polygon class="st18" points="-15.9,232.4 -8.2,242 -14.9,252.4 -22.5,242.7 							"/>
						</g>
					</g>
					<g>
						<g>
							<polygon class="st18" points="-1.6,231.6 6.1,241.3 -0.6,251.6 -8.2,242 							"/>
						</g>
					</g>
					<g>
						<g>
							<polygon class="st18" points="12.7,230.9 20.4,240.5 13.7,250.9 6.1,241.3 							"/>
						</g>
					</g>
					<g>
						<g>
							<polygon class="st18" points="27,230.2 34.7,239.8 28,250.2 20.4,240.5 							"/>
						</g>
					</g>
					<g>
						<g>
							<polygon class="st18" points="41.3,229.4 49,239.1 42.3,249.5 34.7,239.8 							"/>
						</g>
					</g>
					<g>
						<g>
							<polygon class="st18" points="-43.5,253.8 -35.8,263.5 -42.5,273.9 -50.1,264.2 							"/>
						</g>
					</g>
					<g>
						<g>
							<polygon class="st18" points="-29.2,253.1 -21.5,262.7 -28.2,273.1 -35.8,263.5 							"/>
						</g>
					</g>
					<g>
						<g>
							<polygon class="st18" points="-14.9,252.4 -7.2,262 -13.9,272.4 -21.5,262.7 							"/>
						</g>
					</g>
					<g>
						<g>
							<polygon class="st18" points="-0.6,251.6 7.1,261.3 0.5,271.7 -7.2,262 							"/>
						</g>
					</g>
					<g>
						<g>
							<polygon class="st18" points="13.7,250.9 21.4,260.6 14.8,270.9 7.1,261.3 							"/>
						</g>
					</g>
					<g>
						<g>
							<polygon class="st18" points="28,250.2 35.7,259.8 29.1,270.2 21.4,260.6 							"/>
						</g>
					</g>
					<g>
						<g>
							<polygon class="st18" points="42.3,249.5 50,259.1 43.4,269.5 35.7,259.8 							"/>
						</g>
					</g>
					<g>
						<g>
							<polygon class="st18" points="-42.5,273.9 -34.8,283.5 -41.4,293.9 -49.1,284.2 							"/>
						</g>
					</g>
					<g>
						<g>
							<polygon class="st18" points="-28.2,273.1 -20.5,282.8 -27.1,293.1 -34.8,283.5 							"/>
						</g>
					</g>
					<g>
						<g>
							<polygon class="st18" points="-13.9,272.4 -6.2,282 -12.8,292.4 -20.5,282.8 							"/>
						</g>
					</g>
					<g>
						<g>
							<polygon class="st18" points="0.5,271.7 8.1,281.3 1.5,291.7 -6.2,282 							"/>
						</g>
					</g>
					<g>
						<g>
							<polygon class="st18" points="14.8,270.9 22.4,280.6 15.8,290.9 8.1,281.3 							"/>
						</g>
					</g>
					<g>
						<g>
							<polygon class="st18" points="29.1,270.2 36.7,279.8 30.1,290.2 22.4,280.6 							"/>
						</g>
					</g>
					<g>
						<g>
							<polygon class="st18" points="43.4,269.5 51,279.1 44.4,289.5 36.7,279.8 							"/>
						</g>
					</g>
					<g>
						<g>
							<polygon class="st18" points="-41.4,293.9 -33.8,303.5 -40.4,313.9 -48.1,304.2 							"/>
						</g>
					</g>
					<g>
						<g>
							<polygon class="st18" points="-27.1,293.1 -19.5,302.8 -26.1,313.1 -33.8,303.5 							"/>
						</g>
					</g>
					<g>
						<g>
							<polygon class="st18" points="-12.8,292.4 -5.2,302 -11.8,312.4 -19.5,302.8 							"/>
						</g>
					</g>
					<g>
						<g>
							<polygon class="st18" points="1.5,291.7 9.1,301.3 2.5,311.7 -5.2,302 							"/>
						</g>
					</g>
					<g>
						<g>
							<polygon class="st18" points="15.8,290.9 23.4,300.6 16.8,310.9 9.1,301.3 							"/>
						</g>
					</g>
					<g>
						<g>
							<polygon class="st18" points="30.1,290.2 37.7,299.8 31.1,310.2 23.4,300.6 							"/>
						</g>
					</g>
					<g>
						<g>
							<polygon class="st18" points="44.4,289.5 52,299.1 45.4,309.5 37.7,299.8 							"/>
						</g>
					</g>
					<g>
						<g>
							<polygon class="st18" points="-40.4,313.9 -32.7,323.5 -39.4,333.9 -47.1,324.2 							"/>
						</g>
					</g>
					<g>
						<g>
							<polygon class="st18" points="-26.1,313.1 -18.4,322.8 -25.1,333.1 -32.7,323.5 							"/>
						</g>
					</g>
					<g>
						<g>
							<polygon class="st18" points="-11.8,312.4 -4.1,322 -10.8,332.4 -18.4,322.8 							"/>
						</g>
					</g>
					<g>
						<g>
							<polygon class="st18" points="2.5,311.7 10.2,321.3 3.5,331.7 -4.1,322 							"/>
						</g>
					</g>
					<g>
						<g>
							<polygon class="st18" points="16.8,310.9 24.5,320.6 17.8,331 10.2,321.3 							"/>
						</g>
					</g>
					<g>
						<g>
							<polygon class="st18" points="31.1,310.2 38.8,319.9 32.1,330.2 24.5,320.6 							"/>
						</g>
					</g>
					<g>
						<g>
							<polygon class="st18" points="45.4,309.5 53.1,319.1 46.4,329.5 38.8,319.9 							"/>
						</g>
					</g>
				</g>
				<g>
					<g>
						<g>
							<polygon class="st18" points="55.5,228.8 63.1,238.4 56.5,248.8 48.8,239.2 							"/>
						</g>
					</g>
					<g>
						<g>
							<polygon class="st18" points="69.8,228.1 77.4,237.7 70.8,248.1 63.1,238.4 							"/>
						</g>
					</g>
					<g>
						<g>
							<polygon class="st18" points="84.1,227.3 91.8,237 85.1,247.3 77.4,237.7 							"/>
						</g>
					</g>
					<g>
						<g>
							<polygon class="st18" points="98.4,226.6 106.1,236.2 99.4,246.6 91.8,237 							"/>
						</g>
					</g>
					<g>
						<g>
							<polygon class="st18" points="112.7,225.9 120.4,235.5 113.7,245.9 106.1,236.2 							"/>
						</g>
					</g>
					<g>
						<g>
							<polygon class="st18" points="127,225.1 134.7,234.8 128,245.1 120.4,235.5 							"/>
						</g>
					</g>
					<g>
						<g>
							<polygon class="st18" points="141.3,224.4 149,234 142.3,244.4 134.7,234.8 							"/>
						</g>
					</g>
					<g>
						<g>
							<polygon class="st18" points="56.5,248.8 64.2,258.4 57.5,268.8 49.9,259.2 							"/>
						</g>
					</g>
					<g>
						<g>
							<polygon class="st18" points="70.8,248.1 78.5,257.7 71.8,268.1 64.2,258.4 							"/>
						</g>
					</g>
					<g>
						<g>
							<polygon class="st18" points="85.1,247.3 92.8,257 86.1,267.3 78.5,257.7 							"/>
						</g>
					</g>
					<g>
						<g>
							<polygon class="st18" points="99.4,246.6 107.1,256.2 100.4,266.6 92.8,257 							"/>
						</g>
					</g>
					<g>
						<g>
							<polygon class="st18" points="113.7,245.9 121.4,255.5 114.7,265.9 107.1,256.2 							"/>
						</g>
					</g>
					<g>
						<g>
							<polygon class="st18" points="128,245.1 135.7,254.8 129,265.2 121.4,255.5 							"/>
						</g>
					</g>
					<g>
						<g>
							<polygon class="st18" points="142.3,244.4 150,254 143.3,264.4 135.7,254.8 							"/>
						</g>
					</g>
					<g>
						<g>
							<polygon class="st18" points="57.5,268.8 65.2,278.4 58.6,288.8 50.9,279.2 							"/>
						</g>
					</g>
					<g>
						<g>
							<polygon class="st18" points="71.8,268.1 79.5,277.7 72.9,288.1 65.2,278.4 							"/>
						</g>
					</g>
					<g>
						<g>
							<polygon class="st18" points="86.1,267.3 93.8,277 87.2,287.4 79.5,277.7 							"/>
						</g>
					</g>
					<g>
						<g>
							<polygon class="st18" points="100.4,266.6 108.1,276.3 101.5,286.6 93.8,277 							"/>
						</g>
					</g>
					<g>
						<g>
							<polygon class="st18" points="114.7,265.9 122.4,275.5 115.8,285.9 108.1,276.3 							"/>
						</g>
					</g>
					<g>
						<g>
							<polygon class="st18" points="129,265.2 136.7,274.8 130.1,285.2 122.4,275.5 							"/>
						</g>
					</g>
					<g>
						<g>
							<polygon class="st18" points="143.3,264.4 151,274.1 144.4,284.4 136.7,274.8 							"/>
						</g>
					</g>
					<g>
						<g>
							<polygon class="st18" points="58.6,288.8 66.2,298.5 59.6,308.8 51.9,299.2 							"/>
						</g>
					</g>
					<g>
						<g>
							<polygon class="st18" points="72.9,288.1 80.5,297.7 73.9,308.1 66.2,298.5 							"/>
						</g>
					</g>
					<g>
						<g>
							<polygon class="st18" points="87.2,287.4 94.8,297 88.2,307.4 80.5,297.7 							"/>
						</g>
					</g>
					<g>
						<g>
							<polygon class="st18" points="101.5,286.6 109.1,296.3 102.5,306.6 94.8,297 							"/>
						</g>
					</g>
					<g>
						<g>
							<polygon class="st18" points="115.8,285.9 123.4,295.5 116.8,305.9 109.1,296.3 							"/>
						</g>
					</g>
					<g>
						<g>
							<polygon class="st18" points="130.1,285.2 137.7,294.8 131.1,305.2 123.4,295.5 							"/>
						</g>
					</g>
					<g>
						<g>
							<polygon class="st18" points="144.4,284.4 152,294.1 145.4,304.4 137.7,294.8 							"/>
						</g>
					</g>
					<g>
						<g>
							<polygon class="st18" points="59.6,308.8 67.2,318.5 60.6,328.8 52.9,319.2 							"/>
						</g>
					</g>
					<g>
						<g>
							<polygon class="st18" points="73.9,308.1 81.5,317.7 74.9,328.1 67.2,318.5 							"/>
						</g>
					</g>
					<g>
						<g>
							<polygon class="st18" points="88.2,307.4 95.8,317 89.2,327.4 81.5,317.7 							"/>
						</g>
					</g>
					<g>
						<g>
							<polygon class="st18" points="102.5,306.6 110.1,316.3 103.5,326.6 95.8,317 							"/>
						</g>
					</g>
					<g>
						<g>
							<polygon class="st18" points="116.8,305.9 124.5,315.5 117.8,325.9 110.1,316.3 							"/>
						</g>
					</g>
					<g>
						<g>
							<polygon class="st18" points="131.1,305.2 138.8,314.8 132.1,325.2 124.5,315.5 							"/>
						</g>
					</g>
					<g>
						<g>
							<polygon class="st18" points="145.4,304.4 153.1,314.1 146.4,324.4 138.8,314.8 							"/>
						</g>
					</g>
				</g>
			</g>
		</g>
		<g>
			<path class="st5" d="M71.3,157.1c3.8,5.3,8.6,9.8,14.2,13.2c0.4,0.2,0.8,0.5,1.3,0.5c0.6,0,1.1-0.2,1.6-0.5
				c6.1-3.4,11.5-8.1,15-14c2.3-3.8,3.7-8.1,4.1-12.5c0.3-3.1,0.6-9.5-4.1-7.5c-7.4,3.2-13.5,10-20,14.6
				C79.7,153.5,75.7,155.8,71.3,157.1z"/>
		</g>
		<g>
			<path class="st5" d="M86.1,167.8c-0.9,0.6-1.7,1.2-2.2,2.1c-0.4,0.8-0.5,1.7-0.6,2.5c-1.7,15.6-3.4,31.1-5.1,46.7
				c-0.3,2.8-0.6,5.7,0.4,8.3c1,2.6,3.8,4.8,6.5,4.2c3.2-18.1,7.7-36,13.7-53.4c2-5.9,4.9-13.5,2.2-19.6
				C96.1,161.8,90.9,164.5,86.1,167.8z"/>
		</g>
	</g>
	<g>
		<path class="st19" d="M104.9,132.7c-5.9,8.4-4.9,18.7-10.2,27.5c7.9-2.1,16.4-2.1,24.3,0c-2.7-1.8-4.5-4.7-5.7-7.7
			c-1.1-3-1.6-6.3-2.1-9.5c-0.4-2.5-0.3-4.6-0.1-7.1c0.2-2.1,0.4-4.9-1.6-6.7C108.4,128.2,105.8,131.4,104.9,132.7z"/>
	</g>
	<g>
		<path class="st20" d="M122.8,158.1c-0.4,1,0.1,2.2,0.8,2.9c0.8,0.8,1.7,1.3,2.6,2c1.8,1.6,2.7,4,3.5,6.3c0.8,2.4,1.6,4.8,2.4,7.2
			c0.7,2.2,1.4,4.3,1.8,6.6c0.4,2.2,0.4,4.5,0.3,6.8c0,5.3-0.1,36.4-0.1,41.6c0,0.3,0,0.7-0.2,1c-0.3,0.5-0.8,0.6-1.4,0.7
			c-1.6,0.3-3.2,0.4-4.8,0.4c-0.3,0-0.6,0-0.8-0.2c-0.4-0.3-0.5-0.8-0.5-1.2c-0.7-4.7-0.2-35.2-0.7-39.8c-0.5-4.2-0.4-8.7-1.4-13
			c-0.7-3.3-1.6-6.4-2.8-9.6c-0.6-1.6-1.4-3-2.4-4.3c-0.8-1-3.4-2.3-3.6-3.4C114.6,158.8,120.7,157.4,122.8,158.1z"/>
	</g>
	<g>
		<g>
			<g>
				<circle class="st15" cx="123.8" cy="166.3" r="2.1"/>
			</g>
			<g>
				<circle class="st21" cx="123.8" cy="166.3" r="1.9"/>
			</g>
			<g>
				<g>
					<circle class="st15" cx="123.3" cy="165.9" r="0.2"/>
				</g>
				<g>
					<circle class="st15" cx="124.2" cy="165.9" r="0.2"/>
				</g>
				<g>
					<circle class="st15" cx="123.3" cy="166.7" r="0.2"/>
				</g>
				<g>
					<circle class="st15" cx="124.2" cy="166.7" r="0.2"/>
				</g>
			</g>
		</g>
		<g>
			<g>
				<circle class="st15" cx="127.9" cy="176.8" r="2.1"/>
			</g>
			<g>
				<circle class="st21" cx="127.9" cy="176.8" r="1.9"/>
			</g>
			<g>
				<g>
					<circle class="st15" cx="127.5" cy="176.5" r="0.2"/>
				</g>
				<g>
					<circle class="st15" cx="128.3" cy="176.5" r="0.2"/>
				</g>
				<g>
					<circle class="st15" cx="127.5" cy="177.2" r="0.2"/>
				</g>
				<g>
					<circle class="st15" cx="128.3" cy="177.2" r="0.2"/>
				</g>
			</g>
		</g>
		<g>
			<g>
				<circle class="st15" cx="130" cy="187.4" r="2.1"/>
			</g>
			<g>
				<circle class="st21" cx="130" cy="187.4" r="1.9"/>
			</g>
			<g>
				<g>
					<circle class="st15" cx="129.5" cy="187" r="0.2"/>
				</g>
				<g>
					<circle class="st15" cx="130.4" cy="187" r="0.2"/>
				</g>
				<g>
					<circle class="st15" cx="129.5" cy="187.7" r="0.2"/>
				</g>
				<g>
					<circle class="st15" cx="130.4" cy="187.7" r="0.2"/>
				</g>
			</g>
		</g>
		<g>
			<g>
				<circle class="st15" cx="130.4" cy="200.9" r="2.1"/>
			</g>
			<g>
				<circle class="st21" cx="130.4" cy="200.9" r="1.9"/>
			</g>
			<g>
				<g>
					<circle class="st15" cx="130" cy="200.6" r="0.2"/>
				</g>
				<g>
					<circle class="st15" cx="130.8" cy="200.6" r="0.2"/>
				</g>
				<g>
					<circle class="st15" cx="130" cy="201.3" r="0.2"/>
				</g>
				<g>
					<circle class="st15" cx="130.8" cy="201.3" r="0.2"/>
				</g>
			</g>
		</g>
		<g>
			<g>
				<circle class="st15" cx="130.4" cy="214.2" r="2.1"/>
			</g>
			<g>
				<circle class="st21" cx="130.4" cy="214.2" r="1.9"/>
			</g>
			<g>
				<g>
					<circle class="st15" cx="130" cy="213.8" r="0.2"/>
				</g>
				<g>
					<circle class="st15" cx="130.8" cy="213.8" r="0.2"/>
				</g>
				<g>
					<circle class="st15" cx="130" cy="214.6" r="0.2"/>
				</g>
				<g>
					<circle class="st15" cx="130.8" cy="214.6" r="0.2"/>
				</g>
			</g>
		</g>
		<g>
			<g>
				<circle class="st15" cx="130.4" cy="228.8" r="2.1"/>
			</g>
			<g>
				<circle class="st21" cx="130.4" cy="228.8" r="1.9"/>
			</g>
			<g>
				<g>
					<circle class="st15" cx="130" cy="228.4" r="0.2"/>
				</g>
				<g>
					<circle class="st15" cx="130.8" cy="228.4" r="0.2"/>
				</g>
				<g>
					<circle class="st15" cx="130" cy="229.1" r="0.2"/>
				</g>
				<g>
					<circle class="st15" cx="130.8" cy="229.1" r="0.2"/>
				</g>
			</g>
		</g>
	</g>
	<g>
		<path class="st15" d="M135.9,205.6c-0.6-5.3,0.3-10.7,1.1-16c1.4-8.5,2.8-17.3,7.2-24.7c3.9-6.5,10.6-11.8,18.1-11.7
			c0.6,0,1.2,0.1,1.7,0.4c0.6,0.4,0.9,1,1.2,1.6c7.7,15.9,12.1,33.2,16.5,50.3c1.1,4.4,16.7,8.1,17.3,12.6
			c0.5,3.8,10,103.5,8.9,107.1c-14.8,2.8-62.5,5.2-77.2,1.7c-0.4-0.1,1.2-87.7,1.2-88.1C132.2,231.5,136.7,212.8,135.9,205.6z"/>
	</g>
	<g>
		<g>
			<path class="st16" d="M257.4,226.8c-2-9.3-4-18.7-9.2-26.7c-4.1-6.3-9.9-11.3-14.1-17.5c-3.2-4.7-5.4-10-8.2-15
				c-2.8-5-6.3-9.8-11.3-12.6c-4.3-2.4-9.4-3.2-14-4.9c-4.1-1.5-7.9-3.8-11.9-5.5c-6.5-2.7-13.6-3.7-20.6-2.9
				c-0.2,1.1-1.3,1.1-2.1,1.8c-1.2,1-1.7,2.7-1.9,4.3c-2.3,13.9,2.5,27.9,6.4,41.5c3.9,13.2,7,26.7,9.3,40.3c0.2,0.9,0,79.3,0.5,80
				c0.4,0.5-0.2,20.1,0.3,20.4c18.8,11.7,81.4-4.5,101.9-12.6C287.5,315.3,258.6,232.1,257.4,226.8z"/>
		</g>
		<g>
			<defs>
				<path id="SVGID_00000118381387811319437240000005651881767857793687_" d="M257.4,226.8c-2-9.3-4-18.7-9.2-26.7
					c-4.1-6.3-9.9-11.3-14.1-17.5c-3.2-4.7-5.4-10-8.2-15c-2.8-5-6.3-9.8-11.3-12.6c-4.3-2.4-9.4-3.2-14-4.9
					c-4.1-1.5-7.9-3.8-11.9-5.5c-6.5-2.7-13.6-3.7-20.6-2.9c-0.2,1.1-1.3,1.1-2.1,1.8c-1.2,1-1.7,2.7-1.9,4.3
					c-2.3,13.9,2.5,27.9,6.4,41.5c3.9,13.2,7,26.7,9.3,40.3c0.2,0.9,0.3,92.6,0.9,93.3c0.4,0.5,0.9,0.8,1.3,1.1
					c18.8,11.7,81.7,4.3,102.3-3.9C289.3,318,258.6,232.1,257.4,226.8z"/>
			</defs>
			<clipPath id="SVGID_00000103263594649680570940000001553123175878576514_">
				<use xlink:href="#SVGID_00000118381387811319437240000005651881767857793687_"  style="overflow:visible;"/>
			</clipPath>
			<g style="clip-path:url(#SVGID_00000103263594649680570940000001553123175878576514_);">
				<g>
					<g>
						<g>
							<polygon class="st18" points="314,134.3 306.3,143.9 313,154.3 320.6,144.7 							"/>
						</g>
					</g>
					<g>
						<g>
							<polygon class="st18" points="299.7,133.6 292,143.2 298.7,153.6 306.3,143.9 							"/>
						</g>
					</g>
					<g>
						<g>
							<polygon class="st18" points="285.4,132.8 277.7,142.5 284.4,152.8 292,143.2 							"/>
						</g>
					</g>
					<g>
						<g>
							<polygon class="st18" points="271.1,132.1 263.4,141.7 270.1,152.1 277.7,142.5 							"/>
						</g>
					</g>
					<g>
						<g>
							<polygon class="st18" points="256.8,131.4 249.1,141 255.8,151.4 263.4,141.7 							"/>
						</g>
					</g>
					<g>
						<g>
							<polygon class="st18" points="242.5,130.6 234.8,140.3 241.5,150.6 249.1,141 							"/>
						</g>
					</g>
					<g>
						<g>
							<polygon class="st18" points="228.2,129.9 220.5,139.5 227.2,149.9 234.8,140.3 							"/>
						</g>
					</g>
					<g>
						<g>
							<polygon class="st18" points="313,154.3 305.3,163.9 312,174.3 319.6,164.7 							"/>
						</g>
					</g>
					<g>
						<g>
							<polygon class="st18" points="298.7,153.6 291,163.2 297.7,173.6 305.3,163.9 							"/>
						</g>
					</g>
					<g>
						<g>
							<polygon class="st18" points="284.4,152.8 276.7,162.5 283.4,172.8 291,163.2 							"/>
						</g>
					</g>
					<g>
						<g>
							<polygon class="st18" points="270.1,152.1 262.4,161.7 269.1,172.1 276.7,162.5 							"/>
						</g>
					</g>
					<g>
						<g>
							<polygon class="st18" points="255.8,151.4 248.1,161 254.7,171.4 262.4,161.7 							"/>
						</g>
					</g>
					<g>
						<g>
							<polygon class="st18" points="241.5,150.6 233.8,160.3 240.4,170.6 248.1,161 							"/>
						</g>
					</g>
					<g>
						<g>
							<polygon class="st18" points="227.2,149.9 219.5,159.5 226.1,169.9 233.8,160.3 							"/>
						</g>
					</g>
					<g>
						<g>
							<polygon class="st18" points="312,174.3 304.3,183.9 310.9,194.3 318.6,184.7 							"/>
						</g>
					</g>
					<g>
						<g>
							<polygon class="st18" points="297.7,173.6 290,183.2 296.6,193.6 304.3,183.9 							"/>
						</g>
					</g>
					<g>
						<g>
							<polygon class="st18" points="283.4,172.8 275.7,182.5 282.3,192.8 290,183.2 							"/>
						</g>
					</g>
					<g>
						<g>
							<polygon class="st18" points="269.1,172.1 261.4,181.7 268,192.1 275.7,182.5 							"/>
						</g>
					</g>
					<g>
						<g>
							<polygon class="st18" points="254.7,171.4 247.1,181 253.7,191.4 261.4,181.7 							"/>
						</g>
					</g>
					<g>
						<g>
							<polygon class="st18" points="240.4,170.6 232.8,180.3 239.4,190.7 247.1,181 							"/>
						</g>
					</g>
					<g>
						<g>
							<polygon class="st18" points="226.1,169.9 218.5,179.6 225.1,189.9 232.8,180.3 							"/>
						</g>
					</g>
					<g>
						<g>
							<polygon class="st18" points="310.9,194.3 303.3,203.9 309.9,214.3 317.6,204.7 							"/>
						</g>
					</g>
					<g>
						<g>
							<polygon class="st18" points="296.6,193.6 289,203.2 295.6,213.6 303.3,203.9 							"/>
						</g>
					</g>
					<g>
						<g>
							<polygon class="st18" points="282.3,192.8 274.7,202.5 281.3,212.9 289,203.2 							"/>
						</g>
					</g>
					<g>
						<g>
							<polygon class="st18" points="268,192.1 260.4,201.8 267,212.1 274.7,202.5 							"/>
						</g>
					</g>
					<g>
						<g>
							<polygon class="st18" points="253.7,191.4 246.1,201 252.7,211.4 260.4,201.8 							"/>
						</g>
					</g>
					<g>
						<g>
							<polygon class="st18" points="239.4,190.7 231.8,200.3 238.4,210.7 246.1,201 							"/>
						</g>
					</g>
					<g>
						<g>
							<polygon class="st18" points="225.1,189.9 217.5,199.6 224.1,209.9 231.8,200.3 							"/>
						</g>
					</g>
					<g>
						<g>
							<polygon class="st18" points="309.9,214.3 302.3,224 308.9,234.3 316.6,224.7 							"/>
						</g>
					</g>
					<g>
						<g>
							<polygon class="st18" points="295.6,213.6 288,223.2 294.6,233.6 302.3,224 							"/>
						</g>
					</g>
					<g>
						<g>
							<polygon class="st18" points="281.3,212.9 273.6,222.5 280.3,232.9 288,223.2 							"/>
						</g>
					</g>
					<g>
						<g>
							<polygon class="st18" points="267,212.1 259.3,221.8 266,232.1 273.6,222.5 							"/>
						</g>
					</g>
					<g>
						<g>
							<polygon class="st18" points="252.7,211.4 245,221 251.7,231.4 259.3,221.8 							"/>
						</g>
					</g>
					<g>
						<g>
							<polygon class="st18" points="238.4,210.7 230.7,220.3 237.4,230.7 245,221 							"/>
						</g>
					</g>
					<g>
						<g>
							<polygon class="st18" points="224.1,209.9 216.4,219.6 223.1,229.9 230.7,220.3 							"/>
						</g>
					</g>
				</g>
				<g>
					<g>
						<g>
							<polygon class="st18" points="214,129.2 206.4,138.9 213,149.2 220.7,139.6 							"/>
						</g>
					</g>
					<g>
						<g>
							<polygon class="st18" points="199.7,128.5 192.1,138.1 198.7,148.5 206.4,138.9 							"/>
						</g>
					</g>
					<g>
						<g>
							<polygon class="st18" points="185.4,127.8 177.8,137.4 184.4,147.8 192.1,138.1 							"/>
						</g>
					</g>
					<g>
						<g>
							<polygon class="st18" points="171.1,127 163.4,136.7 170.1,147.1 177.8,137.4 							"/>
						</g>
					</g>
					<g>
						<g>
							<polygon class="st18" points="156.8,126.3 149.1,136 155.8,146.3 163.4,136.7 							"/>
						</g>
					</g>
					<g>
						<g>
							<polygon class="st18" points="142.5,125.6 134.8,135.2 141.5,145.6 149.1,136 							"/>
						</g>
					</g>
					<g>
						<g>
							<polygon class="st18" points="128.2,124.9 120.5,134.5 127.2,144.9 134.8,135.2 							"/>
						</g>
					</g>
					<g>
						<g>
							<polygon class="st18" points="213,149.2 205.3,158.9 212,169.3 219.6,159.6 							"/>
						</g>
					</g>
					<g>
						<g>
							<polygon class="st18" points="198.7,148.5 191,158.2 197.7,168.5 205.3,158.9 							"/>
						</g>
					</g>
					<g>
						<g>
							<polygon class="st18" points="184.4,147.8 176.7,157.4 183.4,167.8 191,158.2 							"/>
						</g>
					</g>
					<g>
						<g>
							<polygon class="st18" points="170.1,147.1 162.4,156.7 169.1,167.1 176.7,157.4 							"/>
						</g>
					</g>
					<g>
						<g>
							<polygon class="st18" points="155.8,146.3 148.1,156 154.8,166.3 162.4,156.7 							"/>
						</g>
					</g>
					<g>
						<g>
							<polygon class="st18" points="141.5,145.6 133.8,155.2 140.5,165.6 148.1,156 							"/>
						</g>
					</g>
					<g>
						<g>
							<polygon class="st18" points="127.2,144.9 119.5,154.5 126.2,164.9 133.8,155.2 							"/>
						</g>
					</g>
					<g>
						<g>
							<polygon class="st18" points="212,169.3 204.3,178.9 211,189.3 218.6,179.6 							"/>
						</g>
					</g>
					<g>
						<g>
							<polygon class="st18" points="197.7,168.5 190,178.2 196.7,188.5 204.3,178.9 							"/>
						</g>
					</g>
					<g>
						<g>
							<polygon class="st18" points="183.4,167.8 175.7,177.4 182.3,187.8 190,178.2 							"/>
						</g>
					</g>
					<g>
						<g>
							<polygon class="st18" points="169.1,167.1 161.4,176.7 168,187.1 175.7,177.4 							"/>
						</g>
					</g>
					<g>
						<g>
							<polygon class="st18" points="154.8,166.3 147.1,176 153.7,186.3 161.4,176.7 							"/>
						</g>
					</g>
					<g>
						<g>
							<polygon class="st18" points="140.5,165.6 132.8,175.2 139.4,185.6 147.1,176 							"/>
						</g>
					</g>
					<g>
						<g>
							<polygon class="st18" points="126.2,164.9 118.5,174.5 125.1,184.9 132.8,175.2 							"/>
						</g>
					</g>
					<g>
						<g>
							<polygon class="st18" points="211,189.3 203.3,198.9 209.9,209.3 217.6,199.6 							"/>
						</g>
					</g>
					<g>
						<g>
							<polygon class="st18" points="196.7,188.5 189,198.2 195.6,208.5 203.3,198.9 							"/>
						</g>
					</g>
					<g>
						<g>
							<polygon class="st18" points="182.3,187.8 174.7,197.4 181.3,207.8 189,198.2 							"/>
						</g>
					</g>
					<g>
						<g>
							<polygon class="st18" points="168,187.1 160.4,196.7 167,207.1 174.7,197.4 							"/>
						</g>
					</g>
					<g>
						<g>
							<polygon class="st18" points="153.7,186.3 146.1,196 152.7,206.4 160.4,196.7 							"/>
						</g>
					</g>
					<g>
						<g>
							<polygon class="st18" points="139.4,185.6 131.8,195.2 138.4,205.6 146.1,196 							"/>
						</g>
					</g>
					<g>
						<g>
							<polygon class="st18" points="125.1,184.9 117.5,194.5 124.1,204.9 131.8,195.2 							"/>
						</g>
					</g>
					<g>
						<g>
							<polygon class="st18" points="209.9,209.3 202.3,218.9 208.9,229.3 216.6,219.6 							"/>
						</g>
					</g>
					<g>
						<g>
							<polygon class="st18" points="195.6,208.5 188,218.2 194.6,228.6 202.3,218.9 							"/>
						</g>
					</g>
					<g>
						<g>
							<polygon class="st18" points="181.3,207.8 173.7,217.5 180.3,227.8 188,218.2 							"/>
						</g>
					</g>
					<g>
						<g>
							<polygon class="st18" points="167,207.1 159.4,216.7 166,227.1 173.7,217.5 							"/>
						</g>
					</g>
					<g>
						<g>
							<polygon class="st18" points="152.7,206.4 145.1,216 151.7,226.4 159.4,216.7 							"/>
						</g>
					</g>
					<g>
						<g>
							<polygon class="st18" points="138.4,205.6 130.8,215.3 137.4,225.6 145.1,216 							"/>
						</g>
					</g>
					<g>
						<g>
							<polygon class="st18" points="124.1,204.9 116.4,214.5 123.1,224.9 130.8,215.3 							"/>
						</g>
					</g>
				</g>
				<g>
					<g>
						<g>
							<polygon class="st18" points="308.9,233.8 301.3,243.5 307.9,253.8 315.6,244.2 							"/>
						</g>
					</g>
					<g>
						<g>
							<polygon class="st18" points="294.6,233.1 287,242.7 293.6,253.1 301.3,243.5 							"/>
						</g>
					</g>
					<g>
						<g>
							<polygon class="st18" points="280.3,232.4 272.7,242 279.3,252.4 287,242.7 							"/>
						</g>
					</g>
					<g>
						<g>
							<polygon class="st18" points="266,231.6 258.4,241.3 265,251.6 272.7,242 							"/>
						</g>
					</g>
					<g>
						<g>
							<polygon class="st18" points="251.7,230.9 244.1,240.5 250.7,250.9 258.4,241.3 							"/>
						</g>
					</g>
					<g>
						<g>
							<polygon class="st18" points="237.4,230.2 229.8,239.8 236.4,250.2 244.1,240.5 							"/>
						</g>
					</g>
					<g>
						<g>
							<polygon class="st18" points="223.1,229.4 215.5,239.1 222.1,249.5 229.8,239.8 							"/>
						</g>
					</g>
					<g>
						<g>
							<polygon class="st18" points="307.9,253.8 300.2,263.5 306.9,273.9 314.6,264.2 							"/>
						</g>
					</g>
					<g>
						<g>
							<polygon class="st18" points="293.6,253.1 285.9,262.7 292.6,273.1 300.2,263.5 							"/>
						</g>
					</g>
					<g>
						<g>
							<polygon class="st18" points="279.3,252.4 271.6,262 278.3,272.4 285.9,262.7 							"/>
						</g>
					</g>
					<g>
						<g>
							<polygon class="st18" points="265,251.6 257.3,261.3 264,271.7 271.6,262 							"/>
						</g>
					</g>
					<g>
						<g>
							<polygon class="st18" points="250.7,250.9 243,260.6 249.7,270.9 257.3,261.3 							"/>
						</g>
					</g>
					<g>
						<g>
							<polygon class="st18" points="236.4,250.2 228.7,259.8 235.4,270.2 243,260.6 							"/>
						</g>
					</g>
					<g>
						<g>
							<polygon class="st18" points="222.1,249.5 214.4,259.1 221.1,269.5 228.7,259.8 							"/>
						</g>
					</g>
					<g>
						<g>
							<polygon class="st18" points="306.9,273.9 299.2,283.5 305.9,293.9 313.5,284.2 							"/>
						</g>
					</g>
					<g>
						<g>
							<polygon class="st18" points="292.6,273.1 284.9,282.8 291.6,293.1 299.2,283.5 							"/>
						</g>
					</g>
					<g>
						<g>
							<polygon class="st18" points="278.3,272.4 270.6,282 277.3,292.4 284.9,282.8 							"/>
						</g>
					</g>
					<g>
						<g>
							<polygon class="st18" points="264,271.7 256.3,281.3 263,291.7 270.6,282 							"/>
						</g>
					</g>
					<g>
						<g>
							<polygon class="st18" points="249.7,270.9 242,280.6 248.7,290.9 256.3,281.3 							"/>
						</g>
					</g>
					<g>
						<g>
							<polygon class="st18" points="235.4,270.2 227.7,279.8 234.3,290.2 242,280.6 							"/>
						</g>
					</g>
					<g>
						<g>
							<polygon class="st18" points="221.1,269.5 213.4,279.1 220,289.5 227.7,279.8 							"/>
						</g>
					</g>
					<g>
						<g>
							<polygon class="st18" points="305.9,293.9 298.2,303.5 304.8,313.9 312.5,304.2 							"/>
						</g>
					</g>
					<g>
						<g>
							<polygon class="st18" points="291.6,293.1 283.9,302.8 290.5,313.1 298.2,303.5 							"/>
						</g>
					</g>
					<g>
						<g>
							<polygon class="st18" points="277.3,292.4 269.6,302 276.2,312.4 283.9,302.8 							"/>
						</g>
					</g>
					<g>
						<g>
							<polygon class="st18" points="263,291.7 255.3,301.3 261.9,311.7 269.6,302 							"/>
						</g>
					</g>
					<g>
						<g>
							<polygon class="st18" points="248.7,290.9 241,300.6 247.6,310.9 255.3,301.3 							"/>
						</g>
					</g>
					<g>
						<g>
							<polygon class="st18" points="234.3,290.2 226.7,299.8 233.3,310.2 241,300.6 							"/>
						</g>
					</g>
					<g>
						<g>
							<polygon class="st18" points="220,289.5 212.4,299.1 219,309.5 226.7,299.8 							"/>
						</g>
					</g>
					<g>
						<g>
							<polygon class="st18" points="304.8,313.9 297.2,323.5 303.8,333.9 311.5,324.2 							"/>
						</g>
					</g>
					<g>
						<g>
							<polygon class="st18" points="290.5,313.1 282.9,322.8 289.5,333.1 297.2,323.5 							"/>
						</g>
					</g>
					<g>
						<g>
							<polygon class="st18" points="276.2,312.4 268.6,322 275.2,332.4 282.9,322.8 							"/>
						</g>
					</g>
					<g>
						<g>
							<polygon class="st18" points="261.9,311.7 254.3,321.3 260.9,331.7 268.6,322 							"/>
						</g>
					</g>
					<g>
						<g>
							<polygon class="st18" points="247.6,310.9 240,320.6 246.6,331 254.3,321.3 							"/>
						</g>
					</g>
					<g>
						<g>
							<polygon class="st18" points="233.3,310.2 225.7,319.9 232.3,330.2 240,320.6 							"/>
						</g>
					</g>
					<g>
						<g>
							<polygon class="st18" points="219,309.5 211.4,319.1 218,329.5 225.7,319.9 							"/>
						</g>
					</g>
				</g>
				<g>
					<g>
						<g>
							<polygon class="st18" points="208.9,228.8 201.3,238.4 207.9,248.8 215.6,239.2 							"/>
						</g>
					</g>
					<g>
						<g>
							<polygon class="st18" points="194.6,228.1 187,237.7 193.6,248.1 201.3,238.4 							"/>
						</g>
					</g>
					<g>
						<g>
							<polygon class="st18" points="180.3,227.3 172.7,237 179.3,247.3 187,237.7 							"/>
						</g>
					</g>
					<g>
						<g>
							<polygon class="st18" points="166,226.6 158.4,236.2 165,246.6 172.7,237 							"/>
						</g>
					</g>
					<g>
						<g>
							<polygon class="st18" points="151.7,225.9 144.1,235.5 150.7,245.9 158.4,236.2 							"/>
						</g>
					</g>
					<g>
						<g>
							<polygon class="st18" points="137.4,225.1 129.8,234.8 136.4,245.1 144.1,235.5 							"/>
						</g>
					</g>
					<g>
						<g>
							<polygon class="st18" points="123.1,224.4 115.5,234 122.1,244.4 129.8,234.8 							"/>
						</g>
					</g>
					<g>
						<g>
							<polygon class="st18" points="207.9,248.8 200.3,258.4 206.9,268.8 214.6,259.2 							"/>
						</g>
					</g>
					<g>
						<g>
							<polygon class="st18" points="193.6,248.1 186,257.7 192.6,268.1 200.3,258.4 							"/>
						</g>
					</g>
					<g>
						<g>
							<polygon class="st18" points="179.3,247.3 171.7,257 178.3,267.3 186,257.7 							"/>
						</g>
					</g>
					<g>
						<g>
							<polygon class="st18" points="165,246.6 157.4,256.2 164,266.6 171.7,257 							"/>
						</g>
					</g>
					<g>
						<g>
							<polygon class="st18" points="150.7,245.9 143,255.5 149.7,265.9 157.4,256.2 							"/>
						</g>
					</g>
					<g>
						<g>
							<polygon class="st18" points="136.4,245.1 128.7,254.8 135.4,265.2 143,255.5 							"/>
						</g>
					</g>
					<g>
						<g>
							<polygon class="st18" points="122.1,244.4 114.4,254 121.1,264.4 128.7,254.8 							"/>
						</g>
					</g>
					<g>
						<g>
							<polygon class="st18" points="206.9,268.8 199.2,278.4 205.9,288.8 213.5,279.2 							"/>
						</g>
					</g>
					<g>
						<g>
							<polygon class="st18" points="192.6,268.1 184.9,277.7 191.6,288.1 199.2,278.4 							"/>
						</g>
					</g>
					<g>
						<g>
							<polygon class="st18" points="178.3,267.3 170.6,277 177.3,287.4 184.9,277.7 							"/>
						</g>
					</g>
					<g>
						<g>
							<polygon class="st18" points="164,266.6 156.3,276.3 163,286.6 170.6,277 							"/>
						</g>
					</g>
					<g>
						<g>
							<polygon class="st18" points="149.7,265.9 142,275.5 148.7,285.9 156.3,276.3 							"/>
						</g>
					</g>
					<g>
						<g>
							<polygon class="st18" points="135.4,265.2 127.7,274.8 134.4,285.2 142,275.5 							"/>
						</g>
					</g>
					<g>
						<g>
							<polygon class="st18" points="121.1,264.4 113.4,274.1 120.1,284.4 127.7,274.8 							"/>
						</g>
					</g>
					<g>
						<g>
							<polygon class="st18" points="205.9,288.8 198.2,298.5 204.9,308.8 212.5,299.2 							"/>
						</g>
					</g>
					<g>
						<g>
							<polygon class="st18" points="191.6,288.1 183.9,297.7 190.6,308.1 198.2,298.5 							"/>
						</g>
					</g>
					<g>
						<g>
							<polygon class="st18" points="177.3,287.4 169.6,297 176.2,307.4 183.9,297.7 							"/>
						</g>
					</g>
					<g>
						<g>
							<polygon class="st18" points="163,286.6 155.3,296.3 161.9,306.6 169.6,297 							"/>
						</g>
					</g>
					<g>
						<g>
							<polygon class="st18" points="148.7,285.9 141,295.5 147.6,305.9 155.3,296.3 							"/>
						</g>
					</g>
					<g>
						<g>
							<polygon class="st18" points="134.4,285.2 126.7,294.8 133.3,305.2 141,295.5 							"/>
						</g>
					</g>
					<g>
						<g>
							<polygon class="st18" points="120.1,284.4 112.4,294.1 119,304.4 126.7,294.8 							"/>
						</g>
					</g>
					<g>
						<g>
							<polygon class="st18" points="204.9,308.8 197.2,318.5 203.8,328.8 211.5,319.2 							"/>
						</g>
					</g>
					<g>
						<g>
							<polygon class="st18" points="190.6,308.1 182.9,317.7 189.5,328.1 197.2,318.5 							"/>
						</g>
					</g>
					<g>
						<g>
							<polygon class="st18" points="176.2,307.4 168.6,317 175.2,327.4 182.9,317.7 							"/>
						</g>
					</g>
					<g>
						<g>
							<polygon class="st18" points="161.9,306.6 154.3,316.3 160.9,326.6 168.6,317 							"/>
						</g>
					</g>
					<g>
						<g>
							<polygon class="st18" points="147.6,305.9 140,315.5 146.6,325.9 154.3,316.3 							"/>
						</g>
					</g>
					<g>
						<g>
							<polygon class="st18" points="133.3,305.2 125.7,314.8 132.3,325.2 140,315.5 							"/>
						</g>
					</g>
					<g>
						<g>
							<polygon class="st18" points="119,304.4 111.4,314.1 118,324.4 125.7,314.8 							"/>
						</g>
					</g>
				</g>
			</g>
		</g>
		<g>
			<path class="st5" d="M193.1,157.1c-3.8,5.3-8.6,9.8-14.2,13.2c-0.4,0.2-0.8,0.5-1.3,0.5c-0.6,0-1.1-0.2-1.6-0.5
				c-6.1-3.4-11.5-8.1-15-14c-2.3-3.8-3.7-8.1-4.1-12.5c-0.3-3.1-0.6-9.5,4.1-7.5c7.4,3.2,13.5,10,20,14.6
				C184.7,153.5,188.7,155.8,193.1,157.1z"/>
		</g>
		<g>
			<path class="st5" d="M178.3,167.8c0.9,0.6,1.7,1.2,2.2,2.1c0.4,0.8,0.5,1.7,0.6,2.5c1.7,15.6,3.4,31.1,5.1,46.7
				c0.3,2.8,0.6,5.7-0.4,8.3c-1,2.6-3.8,4.8-6.5,4.2c-3.2-18.1-7.7-36-13.7-53.4c-2-5.9-4.9-13.5-2.2-19.6
				C168.3,161.8,173.6,164.5,178.3,167.8z"/>
		</g>
	</g>
	<g>
		<path class="st23" d="M246.6,310.8c-4.5-16.4-8.9-32.7-12.6-49.3c-3.5-15.8-6.7-32.7-18-44.3c2.9,0.3,2.3-4.1,2.3-5.4
			c0.6,1.7,0.1,5.2,1.8,6.4c0.8,0.6,1.4,0.5,2,0.4c5,11,10.1,22.1,13,33.9c1.7,6.9,2.6,14,4,21c1.8,8.7,4.3,17.2,6.8,25.7
			c2.6,8.8,8,19.9,8.2,28.9C249.3,326.9,247.7,315,246.6,310.8z"/>
	</g>
	<g>
		<path class="st20" d="M142.6,158.1c0.4,1-0.1,2.2-0.8,2.9c-0.8,0.8-1.7,1.3-2.6,2c-1.8,1.6-2.7,4-3.5,6.3
			c-0.8,2.4-1.6,4.8-2.4,7.2c-0.7,2.2-1.4,4.3-1.8,6.6c-0.4,2.2-0.4,4.5-0.3,6.8c0,3.3,0,6.6,0,9.9c0,2,0,30.8,0,32.8
			c0,0.3,0,0.7,0.2,1c0.3,0.5,0.8,0.6,1.4,0.7c1.6,0.3,3.2,0.4,4.8,0.4c0.3,0,0.6,0,0.8-0.2c0.4-0.3,0.5-0.8,0.5-1.2
			c0.2-1.6-0.2-28.9-0.2-30.5c-0.1-9.6,0.8-17,2.3-23.4c0.8-3.3,1.9-6.4,3-9.6c0.6-1.6,1.4-3,2.4-4.3c0.8-1,3.4-2.3,3.6-3.4
			C150.7,158.8,144.6,157.4,142.6,158.1z"/>
	</g>
	<g>
		<path class="st19" d="M161.5,132.8c4.8,10.1,3.5,18.6,8.7,27.4c-7.9-2.1-16.4-2.1-24.3,0c2.7-1.8,4.5-4.7,5.7-7.7s1.6-6.3,2.1-9.5
			c0.4-2.5,0.8-6.2,1.4-8.6c0.5-2.2,0.5-3.9,3-4.9C159.7,128.8,160.8,131.4,161.5,132.8z"/>
	</g>
	<g>
		<path class="st23" d="M17.9,310.8c4.5-16.4,8.9-32.7,12.6-49.3c3.5-15.8,6.7-32.7,18-44.3c-2.9,0.3-2.3-4.1-2.3-5.4
			c-0.6,1.7-0.1,5.2-1.8,6.4c-0.8,0.6-1.4,0.5-2,0.4c-5,11-10.1,22.1-13,33.9c-1.7,6.9-2.6,14-4,21c-1.8,8.7-4.3,17.2-6.8,25.7
			c-2.6,8.8-8,19.9-8.2,28.9C15.1,326.9,16.7,315,17.9,310.8z"/>
	</g>
</g>
</svg>
