<?xml version="1.0" encoding="UTF-8"?><svg id="Layer_1" xmlns="http://www.w3.org/2000/svg" xmlns:xlink="http://www.w3.org/1999/xlink" viewBox="0 0 331 438"><defs><style>.cls-1,.cls-2{fill:none;}.cls-3{clip-path:url(#clippath);}.cls-4{fill:#fffdfa;}.cls-5{fill:#998666;}.cls-6{fill:#baa88b;}.cls-7{fill:#ced4d9;}.cls-8{fill:#ab9b80;}.cls-9{fill:#b3986e;}.cls-10{fill:#cfd5e0;}.cls-11{fill:#c4c4b7;}.cls-12{fill:#d3d3c5;}.cls-13{fill:#c7b495;}.cls-14{fill:#d6c5a9;}.cls-15{fill:#a87171;}.cls-16{fill:#1e6840;}.cls-17{fill:#1a293f;}.cls-18{fill:#545454;}.cls-19{fill:#585e47;}.cls-20{fill:#755a39;}.cls-21{fill:#7541ee;}.cls-22{fill:#787b55;}.cls-23{fill:#7a7a72;}.cls-24{fill:#7a6644;}.cls-25{fill:#727b5c;}.cls-26{clip-path:url(#clippath-1);}.cls-27{clip-path:url(#clippath-3);}.cls-28{clip-path:url(#clippath-2);}.cls-2{stroke:#fff;stroke-miterlimit:10;stroke-width:20px;}</style><clipPath id="clippath"><path class="cls-1" d="m38.71,271.92c2.13-9.81,4.26-19.9,9.72-28.32,4.35-6.66,10.46-11.94,15-18.51,3.42-5,5.74-10.64,8.7-15.92s6.66-10.37,11.94-13.33c4.63-2.59,9.9-3.33,14.9-5.18,4.35-1.57,8.33-4.07,12.59-5.83,6.85-2.87,14.44-3.89,21.84-3.05.28,1.11,1.39,1.2,2.31,1.94,1.3,1.11,1.76,2.87,2.04,4.54,2.5,14.81-2.59,29.62-6.76,44.06-4.07,14.07-7.4,28.32-9.9,42.67-.19.93,0,84.14-.56,84.88-.37.46,4.35,92.28,3.8,92.47-71.27,26.19-102.28-12.31-127.74-7.22-3.24-22.21,12.31-66.46,11.39-79.14-.37-5.74,29.53-88.4,30.73-94.04Z"/></clipPath><clipPath id="clippath-1"><path class="cls-1" d="m38.71,271.92c2.13-9.81,4.26-19.9,9.72-28.32,4.35-6.66,10.46-11.94,15-18.51,3.42-5,5.74-10.64,8.7-15.92s6.66-10.37,11.94-13.33c4.63-2.59,9.9-3.33,14.9-5.18,4.35-1.57,8.33-4.07,12.59-5.83,6.85-2.87,14.44-3.89,21.84-3.05.28,1.11,1.39,1.2,2.31,1.94,1.3,1.11,1.76,2.87,2.04,4.54,2.5,14.81-2.59,29.62-6.76,44.06-4.07,14.07-7.4,28.32-9.9,42.67-.19.93,0,84.14-.56,84.88-.37.46,4.35,92.28,3.8,92.47-71.27,26.19-102.28-12.31-127.74-7.22-3.24-22.21,12.31-66.46,11.39-79.14-.37-5.74,29.53-88.4,30.73-94.04Z"/></clipPath><clipPath id="clippath-2"><path class="cls-1" d="m309.55,267.85c-2.13-9.81-4.26-19.9-9.72-28.32-4.35-6.66-10.46-11.94-15-18.51-3.42-5-5.74-10.64-8.7-15.92s-6.66-10.37-11.94-13.33c-4.63-2.59-9.9-3.33-14.9-5.18-4.35-1.57-8.33-4.07-12.59-5.83-6.85-2.87-14.44-3.89-21.84-3.05-.28,1.11-1.39,1.2-2.31,1.94-1.3,1.11-1.76,2.87-2.04,4.54-2.5,14.81,2.59,29.62,6.76,44.06,4.07,14.07,7.4,28.32,9.9,42.67.19.93,0,84.14.56,84.88.37.46-4.35,92.28-3.8,92.47,71.27,26.19,102.28-12.31,127.74-7.22,3.24-22.21-12.31-66.46-11.39-79.14.37-5.74-29.53-88.4-30.73-94.04Z"/></clipPath><clipPath id="clippath-3"><path class="cls-1" d="m309.55,267.85c-2.13-9.81-4.26-19.9-9.72-28.32-4.35-6.66-10.46-11.94-15-18.51-3.42-5-5.74-10.64-8.7-15.92s-6.66-10.37-11.94-13.33c-4.63-2.59-9.9-3.33-14.9-5.18-4.35-1.57-8.33-4.07-12.59-5.83-6.85-2.87-14.44-3.89-21.84-3.05-.28,1.11-1.39,1.2-2.31,1.94-1.3,1.11-1.76,2.87-2.04,4.54-2.5,14.81,2.59,29.62,6.76,44.06,4.07,14.07,7.4,28.32,9.9,42.67.19.93,0,84.14.56,84.88.37.46-4.35,92.28-3.8,92.47,71.27,26.19,102.28-12.31,127.74-7.22,3.24-22.21-12.31-66.46-11.39-79.14.37-5.74-29.53-88.4-30.73-94.04Z"/></clipPath></defs><rect class="cls-21" x="-6.52" width="344.64" height="456.05"/><path class="cls-2" d="m350.39,440.58c.47-3.98.75-7.97.79-11.98.11-11.88-1.97-23.66-4.4-35.29-8.32-39.86-20.83-78.7-33.32-117.46-4.16-12.9-8.38-25.95-15.5-37.49-5.6-9.06-12.88-17.01-18.32-26.17-3.6-6.05-6.46-12.71-11.55-17.57-5.99-5.73-14.27-8.23-22.22-10.55-14.21-4.14-28.42-8.29-42.63-12.43-1.24-1.32-2.89-2.25-4.65-2.64,5.27-10.67,10.55-21.34,15.82-32.01,1.88-3.81,1.51-10.76-2.61-9.71,1.34-4.96,1.59-10.2.73-15.27,4.42,2.34,9.75-2.97,9.43-7.96-.32-5-4.01-9.04-7.5-12.63-5.84-6.01-11.68-12.03-17.51-18.04-4.04-4.16-8.29-8.46-13.76-10.37-5.29-1.85-11.12-1.24-16.58,0-6.79,1.54-13.35,4.03-19.47,7.36-4.88,2.65-12.96,6.6-14.8,12.01-2.44,7.18-2.22,16.29-3.81,23.81-1.71,8.14-3.83,16.19-6.36,24.11,11.01,10.23,19.19,23.48,23.4,37.9-5.17,12.94-22.76,13.35-36.3,16.65-21.23,5.17-37.76,22.04-49.48,40.48-16.06,25.28-25.09,54.27-33.96,82.87-9.66,31.17-19.33,62.42-25.42,94.48-2.01,10.61-3.64,21.36-3.35,32.15.29,10.99,2.55,21.82,5.15,32.5,1.62,6.66,3.87,13.97,9.81,17.39s15.8-1.25,14.07-7.88c-.6-2.28-2.36-4.07-3.27-6.25s-.43-5.37,1.86-5.92c1.06,6.47,4.07,12.61,8.55,17.4,2.72-7.73,2.17-16.55-1.48-23.89,1.74-1.26,3.48-2.53,5.21-3.79,9.7,3.76,20,5.98,30.4,6.55-.02,11.78-.04,23.56-.06,35.35,70.62,0,141.25,0,211.87,0l-.05-39.07c10.95-.93,21.79-3.26,32.15-6.91,1.74,1.27,3.47,2.54,5.21,3.8-3.51,7.27-4.15,15.88-1.76,23.6,4.83-4.31,8-10.43,8.72-16.86,2.27.49,2.8,3.65,1.92,5.8s-2.62,3.91-3.23,6.16c-1.79,6.59,7.99,11.36,13.95,8.02,5.96-3.34,8.28-10.62,9.91-17.26,1.86-7.58,3.47-15.25,4.39-22.99Z"/><path class="cls-1" d="m4.83,437.61c.28,5.18-4.07,10.46-4.91,15.55-1.48,8.89,1.48,17.31,4.35,25.64"/><path class="cls-14" d="m26.86,439.28c-.19,6.94,2.68,13.7,5.37,19.99,1.3,2.96,1.85,6.11,2.31,9.26.56,4.07,1.39,7.87-.46,11.76-1.39,2.78-5.18-1.57-5.74-3.15-.56-1.48-.28-3.24-.74-4.81-.37-1.67-1.11-3.42-1.76-4.91-.56-1.39-2.04-3.7-3.42-1.67-.65.93.28,3.05.56,4.17,1.11,3.89,2.22,7.59,2.87,11.66.74,4.54-5.83,4.81-10.09,4.26-3.24-.46-6.76-3.8-8.89-6.2-2.59-2.87-4.81-7.59-5.65-11.39-1.3-5.83-.19-12.77,1.11-18.51,1.3-5.74,2.59-11.11,6.94-15.37,5.74,2.22,11.48,5,17.59,4.91Z"/><rect class="cls-17" x="67.31" y="430.21" width="211.87" height="66.09"/><path class="cls-23" d="m135.62,132.53c7.59-.93,15-2.59,22.4-4.17,13.61-2.96,27.12-5.92,40.45-10,7.96-2.41,15.92-5.37,22.59-10.27,1.3-.93,2.68-2.22,2.78-3.8.09-1.67-1.2-3.05-2.41-4.17-7.87-7.22-18.14-11.57-28.69-13.05s-21.47-.09-31.56,3.33c-6.39,2.13-12.59,5.09-17.68,9.35-6.2,5.18-10.64,12.13-14.9,18.98-2.31,3.8-6.02,8.15-6.94,12.5,3.89,2.41,9.53,1.85,13.98,1.3Z"/><path class="cls-6" d="m173.2,194.64h0c-13.61,0-24.62-11.01-24.62-24.62v-7.87h49.24v7.78c-.09,13.7-11.11,24.71-24.62,24.71Z"/><path class="cls-14" d="m206.34,141.6l-1.48,6.29-1.67,11.29c-.46,3.42-2.04,6.57-4.35,9.07l-2.22,2.41c-1.57,1.76-3.52,3.15-5.65,4.07l-8.24,3.7c-2.31,1.02-4.81,1.57-7.31,1.48h-5.37c-2.5,0-5-.46-7.31-1.48l-8.24-3.7c-2.13-.93-4.07-2.31-5.65-4.07l-2.22-2.41c-2.31-2.5-3.8-5.65-4.35-9.07l-1.67-11.29-1.39-6.29c-.56-2.41-.56-4.91-.09-7.31l.93-5.09v-28.97l29.9-11.94v-2.31l2.87,1.11,2.13-.83.65-.28v2.31l29.9,11.94v28.97l.93,5.09c.46,2.41.46,4.91-.09,7.31Z"/><rect x="67.31" y="430.21" width="211.87" height="26.01"/><path class="cls-13" d="m206.34,141.6l-1.48,6.29-1.67,11.29c-.46,3.42-2.04,6.57-4.35,9.07l-2.22,2.41c-1.57,1.76-3.52,3.15-5.65,4.07l-8.24,3.7c-2.31,1.02-4.81,1.57-7.31,1.48h-1.02l-2.13-3.7c-.56-1.02-.83-2.13-.83-3.24v-2.22c0-.93.19-1.85.56-2.68l2.04-4.63v-7.31l-.09-5.92c-1.3-2.13,0-4.72,0-4.72,0,0,.93-.28,2.31-1.02,1.48-.83,1.3-5.09.56-6.29-.74-1.3-1.11-3.42-1.11-3.42.65-3.33-.19-9.26-.56-11.66-.37-2.41-.28-5.46-.28-5.46v-31.29l.65-.28v2.31l29.9,11.94v28.97l.93,5.09c.56,2.31.56,4.81,0,7.22Z"/><path class="cls-17" d="m173.02,145.76c-1.48,0-3.52-.37-4.91-2.04-1.39-1.57-2.68-1.67-3.42-1.2-.37.28-.56.65-.46.83.09.19,0,.37-.19.46s-.37,0-.46-.19c-.28-.56.09-1.3.74-1.76,1.02-.65,2.68-.65,4.35,1.3,2.13,2.41,5.83,1.67,5.83,1.67,2.78-.93,2.68-3.7,2.5-4.81-.19-1.48-.65-2.22-1.02-2.87-.28-.46-.46-.93-.56-1.48-.19-.93-.09-2.78-.09-4.81v-2.68c0-1.57-.28-3.24-.46-4.72-.19-1.2-.37-2.41-.37-3.33,0-.19.19-.37.37-.37s.37.19.37.37c0,.93.19,2.04.37,3.15.28,1.48.56,3.15.56,4.81v2.78c0,1.94-.09,3.89.09,4.72.09.46.28.83.56,1.2.37.65.83,1.57,1.11,3.15.37,2.78-.74,4.91-3.05,5.65-.19.09-.83.19-1.85.19Z"/><path class="cls-17" d="m178.11,145.21c-.19,0-.37-.19-.37-.37s.19-.37.37-.37c.46,0,.74-.28,1.11-.83.09-.09.09-.19.19-.28,1.3-1.76,3.05-1.85,4.17-1.2.65.37.93,1.02.65,1.48-.09.19-.28.28-.46.19-.19-.09-.28-.28-.19-.46s-.09-.37-.37-.56c-.56-.37-1.94-.56-3.15,1.02-.09.09-.09.19-.19.19-.37.56-.83,1.2-1.76,1.2Z"/><path class="cls-20" d="m181.72,117.62c2.68-.93,5.37-1.67,8.24-2.04,1.39-.19,3.24-.09,4.54.56,1.39.56,2.59,1.2,3.7,2.13.19.09.19.37.09.56-.09.09-.28.19-.37.09-1.3-.37-2.59-.74-3.89-.93-1.3-.28-2.31-.28-3.61.09-2.59.65-5.18,1.57-7.68,2.31-1.94.65-2.87-2.04-1.02-2.78h0Z"/><path class="cls-20" d="m163.39,120.49c-2.5-.65-5.92-1.76-8.42-1.94-.93,0-1.85.46-2.78.93-1.2.65-2.31,1.39-3.52,2.13-.37.28-.74-.19-.46-.56,1.39-1.76,2.96-3.33,5-4.26.56-.28,1.2-.46,1.85-.46,3.15-.19,6.2.56,9.16,1.39,1.85.56,1.11,3.24-.83,2.78h0Z"/><path class="cls-4" d="m151.54,126.42s5.28.93,8.15.46,4.72-1.67,4.72-1.67c0,0-4.63-3.8-7.59-2.31-2.96,1.48-5.28,3.52-5.28,3.52Z"/><circle class="cls-16" cx="157.93" cy="124.94" r="1.85"/><path class="cls-17" d="m164.41,125.77c-1.76-1.57-4.26-3.15-6.66-2.68-2.5.65-4.44,2.31-6.2,4.17-.93.83-2.13-.46-1.3-1.3,2.22-1.48,4.54-3.15,7.31-3.7,2.78-.46,5.28,1.3,7.4,2.87.56.37-.09,1.11-.56.65h0Z"/><path class="cls-4" d="m194.59,126.23s-5.28,1.11-8.15.65c-2.87-.37-4.81-1.57-4.81-1.57,0,0,4.54-3.89,7.59-2.5,3.05,1.48,5.37,3.42,5.37,3.42Z"/><circle class="cls-16" cx="186.81" cy="124.84" r="1.85"/><path class="cls-17" d="m181.07,125.21c2.13-1.67,4.54-3.42,7.31-3.05,2.68.46,5.09,1.67,7.4,3.15.46.28.56.83.28,1.3s-.83.56-1.3.28c-.56-.46-1.02-.93-1.57-1.39-1.48-1.11-3.15-2.04-5-2.41-1.11-.28-2.41.09-3.52.65s-2.22,1.3-3.05,2.22c-.37.37-1.02-.28-.56-.74h0Z"/><path class="cls-20" d="m175.52,147.98c.19-.09.37-.09.56-.19,1.76-.28,3.61.56,5.18,1.3,1.3.74,2.5,1.57,3.61,2.5,1.02.83,1.94,1.85,3.05,2.5,1.02.65,2.22,1.2,3.52,1.39.28.09.46.28.37.56,0,.28-.28.37-.46.46-1.39.09-2.87-.09-4.35-.56-2.96-1.2-5.83-3.15-8.98-3.42-.37,0-.56,0-.83.09h0c.09,0,.19,0,.37-.09-3.24,1.39-5.09-3.15-2.04-4.54h0Z"/><path class="cls-20" d="m170.24,152.71c.09,0,.19.09.37.09h0c-.28-.09-.56-.09-.83-.09-1.76.19-3.52.83-5.18,1.57-1.3.56-2.5,1.3-3.8,1.76-1.39.46-2.87.65-4.35.56-.56-.09-.65-.93-.09-1.02,1.3-.19,2.5-.74,3.52-1.39,1.11-.74,2.04-1.76,3.05-2.5,1.11-.93,2.22-1.76,3.61-2.5,1.48-.83,3.33-1.57,5.18-1.3.19,0,.37.09.56.19,2.96,1.3,1.11,5.83-2.04,4.63h0Z"/><path class="cls-15" d="m176.17,157.8l-2.59-2.31s-1.02-1.02-1.11-1.02-1.67-.09-1.85,0-5.18,3.24-5.55,3.15-2.31-1.2-2.31-1.2l-1.67,3.42s3.98-1.85,4.26-1.85,10.83-.19,10.83-.19Z"/><path class="cls-15" d="m172,157.8l2.78-2.31,1.11-1.02s1.85-.09,1.94,0c.19.09,5.65,2.96,5.65,2.96l2.68-1.11,1.85,3.42s-4.26-1.85-4.54-1.85-11.48-.09-11.48-.09Z"/><path class="cls-20" d="m164.69,120.68c.74-.56,1.2-1.48.83-2.41-.09-.19,0-.28.19-.37s.28.09.37.19c.19.83-.09,1.67-.65,2.22-.19.19-.37.37-.65.46h-.09s0,0,0-.09h0Z"/><path class="cls-20" d="m165.52,120.96c.37-.28.74-.74.83-1.2,0-.19.19-.19.37-.19.74.28-.74,1.39-1.11,1.57-.19,0-.19-.19-.09-.19h0Z"/><path class="cls-20" d="m180.98,121.05h-.09c-.65-.37-1.67-1.39-1.2-2.87,0-.19.19-.19.37-.19s.19.19.19.37c-.46,1.39.93,2.22.93,2.22.09.09.19.28.09.37-.09.09-.19.09-.28.09Z"/><path class="cls-20" d="m180.15,121.05c-.37-.19-1.67-1.11-1.11-1.48.09-.09.28,0,.37.09.19.46.46.93.83,1.3.09,0,0,.19-.09.09h0Z"/><path class="cls-14" d="m135.53,128.73s-4.63-3.8-6.57.56c-1.94,4.35,4.44,12.4,4.91,14.72.46,2.22,2.31,10.74,7.96,10.18l-2.13-20.83-4.17-4.63Z"/><path class="cls-13" d="m209.21,128.73s4.63-3.8,6.57.56-4.44,12.4-4.91,14.72c-.46,2.22-2.31,10.74-7.96,10.18l2.13-20.83,4.17-4.63Z"/><path class="cls-6" d="m129.79,130.95s3.33-1.94,7.5,4.81c0,0,1.48,3.7,1.02,6.02s.93,4.44,1.2,5.09-2.41,2.59-3.7-1.48c-1.3-4.07-1.85-5.65-3.98-7.87-2.13-2.22-2.04-6.57-2.04-6.57Z"/><path class="cls-6" d="m214.49,130.95s-3.33-1.94-7.5,4.81c0,0-1.48,3.7-1.02,6.02s-.93,4.44-1.2,5.09,2.41,2.59,3.7-1.48c1.3-4.07,1.85-5.65,3.98-7.87,2.13-2.22,2.04-6.57,2.04-6.57Z"/><path class="cls-20" d="m132.01,116.98c-.65-2.96-1.48-5.83-1.57-8.89s.37-6.11,2.13-8.61c1.11-1.57,2.59-2.78,4.07-3.98,2.59-2.13,5.18-4.17,7.78-6.29,3.61-2.96,7.31-5.92,11.57-7.87,4.17-1.94,8.79-2.87,13.33-2.68,4.26.19,8.33,1.3,12.4,2.41,4.17,1.11,8.33,2.31,12.59,3.42.83.28,1.76.46,2.5,1.02,1.39,1.02,2.04,2.96,1.76,4.63-.28,1.76-1.3,3.24-2.5,4.54-3.33,3.42-8.24,4.91-12.96,5.46-4.72.56-9.63.28-14.35.83-6.02.65-11.85,2.68-16.94,5.74-4.44,2.68-8.52,6.48-9.81,11.48-1.02,4.17,0,8.61-1.11,12.77-.19.74-.65,1.67-1.48,1.67-.37,0-.83-.19-1.2-.37-.93-.56-2.87-1.2-3.52-2.04-.65-.83-.56-3.15-.74-4.17-.65-2.96-1.2-6.02-1.94-9.07Z"/><path class="cls-20" d="m191.16,100.32c.74,1.94,2.31,3.33,3.89,4.81,2.22,2.13,4.35,4.54,5.37,7.5,1.11,3.05.93,6.29,1.02,9.53.09,3.24.46,6.57,2.31,9.16.46.56,1.02,1.2,1.67,1.3.93.19,1.76-.28,2.5-.93.74-.56,1.39-1.3,2.22-1.67.56-.19,1.11-.28,1.39-.83.09-.28.09-.56.09-.83,0-3.42,2.04-6.66,1.67-10-.28-1.85-1.3-3.61-1.67-5.46-.46-1.85-.28-3.89-.19-5.83.09-3.15-.28-6.29-1.02-9.26-.46-1.85-1.11-3.8-2.41-5.28-.56-.65-1.2-1.2-1.85-1.67-1.94-1.39-4.35-2.31-6.85-2.22-2.78.19-4.81,1.67-6.2,4.07-1.3,2.5-3.05,4.63-1.94,7.59Z"/><path class="cls-7" d="m147.84,173.25s-16.38,55.54,24.99,115.15c0,0,41.56-83.31,26.38-115.15.09,0-22.77,35.27-51.37,0Z"/><path class="cls-12" d="m204.58,82.91c-3.15,0-6.29-1.2-9.44-1.3-3.33-.09-6.76.09-10.09.56-6.66.83-13.14,2.5-19.53,4.44-4.07,1.3-8.33,2.68-12.4,4.44h0c-6.39,2.68-12.4,6.02-17.31,10.64h0c-2.59,2.41-4.81,5.09-6.66,8.15-.09.19-.37.65-.83.46l.65-2.68c0-.19.09-.28.09-.46.09-.37.09-.65.19-1.02h0c.65-3.98,1.3-7.96,1.48-12.03.19-5.28,0-10,3.42-14.44,2.41-3.05,5.74-5.37,9.16-7.31,5.18-2.96,10.83-5.46,16.48-7.31.19-.09.46-.19.65-.19,1.2-.37,2.41-.74,3.7-1.11,7.22-2.04,15.18-3.15,22.03.09,4.07,1.85,7.22,5.09,10,8.42,1.94,2.31,4.17,4.81,6.2,7.31.19.19.37.46.46.65.56,1.02,1.11,1.85,1.76,2.68Z"/><path class="cls-11" d="m131.83,104.39c6.48-8.05,15.74-13.42,25.55-16.66s20.09-4.63,30.27-5.74c4.35-.46,8.79-.93,13.14-.56.65.09,1.3.09,1.85.37.74.28,1.3.74,1.85,1.2,7.22,5.92,14.72,12.13,19.35,20.27-.83-1.39-2.22-2.41-3.61-3.24-5-3.15-10.18-6.02-15.83-7.78-5.65-1.76-11.76-2.31-17.49-.74-10.92,3.05-18.51,13.33-29.25,17.22-5.65,2.04-11.85,2.13-17.31,4.26-6.11,2.41-14.44,13.05-18.7,17.59,2.22-6.11,1.57-11.01,6.57-20.18,1.48-2.59,1.76-3.7,3.61-6.02Z"/><path class="cls-11" d="m135.9,89.21l-.74-.09c.09-1.11.28-2.31.37-3.42l.74.09c-.19,1.2-.28,2.31-.37,3.42Z"/><path class="cls-11" d="m137.47,90.5l-.74-.19c.19-1.02.28-2.13.28-3.24h.74c.09,1.2,0,2.31-.28,3.42Z"/><rect class="cls-11" x="135.1" y="92.08" width=".74" height=".56" transform="translate(-6.7 10.69) rotate(-4.41)"/><rect class="cls-11" x="139.15" y="87.45" width=".65" height=".74" transform="translate(20.57 201.95) rotate(-76.02)"/><rect class="cls-11" x="136.35" y="81.2" width="2.68" height=".74" transform="translate(44.24 211.49) rotate(-84.91)"/><rect class="cls-11" x="134.86" y="95.98" width="2.41" height=".74" transform="translate(32.12 226.7) rotate(-86.74)"/><path class="cls-9" d="m148.95,127.34c-.37.56-1.39,1.02-1.94.65l1.94-.65Z"/><path class="cls-9" d="m149.23,127.44c0,.37-.19.83-.74,1.3-.37.28-.93.46-1.48.19l2.22-1.48Z"/><path class="cls-9" d="m196.44,127.44c.56.46,1.57.56,2.04,0h-2.04Z"/><path class="cls-9" d="m196.16,127.53c.09.37.46.74,1.11,1.02.37.09,1.02.19,1.48-.19l-2.59-.83Z"/><path class="cls-18" d="m185.14,449.55c-1.85-7.5-.46-21.38-10.74-23.05-3.52-.56-10.27.09-10.55.19h0c-2.31-.37-4.72.09-6.85,1.02-3.7,1.57-3.7,5.28-3.7,8.79,0,5.65,1.3,11.29,1.39,16.94.09,3.7-1.67,7.87,3.42,8.89,2.13.46,4.44-.28,6.66,0,2.59.37,5.46.46,8.05.19,3.42-.37,9.16-.37,11.85-2.96,2.68-2.5,1.11-7.03.46-10Zm-3.61,6.57c-1.11.93-5.09,1.3-7.22,1.48-.74.09-1.39.09-1.94.19-.83.09-1.76.19-2.68.19-1.39,0-2.78-.09-4.17-.28-.56-.09-1.2-.09-1.85-.09-.83,0-1.67.09-2.31.09-.56,0-1.11.09-1.57.09h-.65c0-.46.09-1.11.09-1.57.09-.83.19-1.85.09-2.87,0-2.96-.37-5.92-.74-8.7-.37-2.87-.65-5.55-.65-8.15,0-3.7.28-4.26.93-4.54,1.11-.46,2.31-.74,3.42-.74.28,0,.65,0,.93.09l.65.09.65-.09c.37,0,3.52-.37,6.29-.37,1.57,0,2.5.09,2.96.19,3.8.65,4.91,4.54,5.92,13.05.28,2.31.56,4.54,1.02,6.57.09.37.19.65.28,1.02.19,1.02.83,3.7.56,4.35Z"/><path class="cls-19" d="m169.22,249.52c.65-5.65-.28-11.39-1.2-16.94-1.48-9.07-2.96-18.33-7.68-26.19-4.07-6.85-11.2-12.59-19.16-12.4-.65,0-1.2.09-1.76.37-.65.37-.93,1.02-1.3,1.67-8.15,16.85-12.87,35.17-17.49,53.32-1.2,4.63-21.57,11.2-22.21,15.92-.56,3.98-17.03,172.16-15.83,176.05,15.74,2.96,77.66,4.63,93.21.83.37-.09,0-172.16,0-172.54-.37-7.68-7.4-12.4-6.57-20.09Z"/><path class="cls-8" d="m138.4,195.56c0,1.39,0,2.87-.09,4.26v.19c0,.37-.09.74-.09,1.11h0c-.83,10.46-4.26,20.92-7.22,31.1-4.07,14.07-7.4,28.32-9.9,42.67v2.31c-.09,13.51,0,81.92-.56,82.57-.09.09.19,6.57.56,16.01.65,15,1.76,37.67,2.5,54.33.56,12.68.93,22.03.74,22.03-4.17,1.48-8.15,2.78-12.03,3.89-17.4,5-32.21,6.02-44.99,4.91-5.28-.46-10.18-1.2-14.72-2.22-1.94-.37-3.8-.83-5.65-1.39-1.67-.46-3.33-.93-5-1.39-1.76-.56-3.42-1.11-5.09-1.57l-.46-.19c-1.76-.56-3.42-1.11-5-1.76-13.79-4.91-24.71-9.63-34.71-7.68-3.24-22.21,12.31-66.46,11.39-79.14-.37-5.74,29.53-88.4,30.73-94.04,2.04-9.81,4.26-19.9,9.72-28.32,4.35-6.66,10.55-11.94,15-18.51,3.42-5,5.74-10.64,8.7-15.92s6.66-10.37,11.94-13.33c4.54-2.59,9.9-3.33,14.9-5.18,4.35-1.67,8.33-4.07,12.59-5.83,6.39-2.68,13.42-3.8,20.27-3.24.56,0,1.02.09,1.57.19.28,1.11,1.39,1.2,2.31,1.94.65.46,1.02,1.2,1.39,1.94.37.83.56,1.76.74,2.59.28,2.78.46,5.18.46,7.68Z"/><g class="cls-3"><polygon class="cls-5" points="-3.4 183.44 4.74 193.62 -2.29 204.63 -10.44 194.45 -3.4 183.44"/><polygon class="cls-5" points="11.78 182.6 19.92 192.88 12.89 203.89 4.74 193.62 11.78 182.6"/><polygon class="cls-5" points="26.96 181.86 35.1 192.14 28.07 203.06 19.92 192.88 26.96 181.86"/><polygon class="cls-5" points="42.14 181.12 50.28 191.3 43.25 202.32 35.1 192.14 42.14 181.12"/><polygon class="cls-5" points="57.32 180.29 65.46 190.56 58.43 201.58 50.28 191.3 57.32 180.29"/><polygon class="cls-5" points="72.5 179.55 80.64 189.73 73.61 200.74 65.46 190.56 72.5 179.55"/><polygon class="cls-5" points="-2.29 204.63 5.85 214.91 -1.18 225.83 -9.33 215.65 -2.29 204.63"/><polygon class="cls-5" points="12.89 203.89 21.03 214.07 14 225.09 5.85 214.91 12.89 203.89"/><polygon class="cls-5" points="28.07 203.06 36.21 213.33 29.18 224.35 21.03 214.07 28.07 203.06"/><polygon class="cls-5" points="43.25 202.32 51.39 212.5 44.27 223.52 36.21 213.33 43.25 202.32"/><polygon class="cls-5" points="58.43 201.58 66.48 211.76 59.45 222.77 51.39 212.5 58.43 201.58"/><polygon class="cls-5" points="73.61 200.74 81.66 211.02 74.63 222.03 66.48 211.76 73.61 200.74"/><polygon class="cls-5" points="-1.18 225.83 6.96 236.1 -.16 247.12 -8.22 236.84 -1.18 225.83"/><polygon class="cls-5" points="14 225.09 22.05 235.36 15.02 246.29 6.96 236.1 14 225.09"/><polygon class="cls-5" points="29.18 224.35 37.23 234.53 30.2 245.54 22.05 235.36 29.18 224.35"/><polygon class="cls-5" points="44.27 223.52 52.41 233.79 45.38 244.8 37.23 234.53 44.27 223.52"/><polygon class="cls-5" points="59.45 222.77 67.59 232.96 60.56 243.97 52.41 233.79 59.45 222.77"/><polygon class="cls-5" points="74.63 222.03 82.77 232.22 75.74 243.23 67.59 232.96 74.63 222.03"/><polygon class="cls-5" points="-.16 247.12 7.98 257.3 .95 268.31 -7.2 258.13 -.16 247.12"/><polygon class="cls-5" points="15.02 246.29 23.16 256.56 16.13 267.57 7.98 257.3 15.02 246.29"/><polygon class="cls-5" points="30.2 245.54 38.34 255.73 31.31 266.74 23.16 256.56 30.2 245.54"/><polygon class="cls-5" points="45.38 244.8 53.52 254.99 46.49 266 38.34 255.73 45.38 244.8"/><polygon class="cls-5" points="60.56 243.97 68.7 254.25 61.67 265.26 53.52 254.99 60.56 243.97"/><polygon class="cls-5" points="75.74 243.23 83.88 253.41 76.85 264.43 68.7 254.25 75.74 243.23"/><polygon class="cls-5" points=".95 268.31 9.09 278.59 2.06 289.51 -6.09 279.33 .95 268.31"/><polygon class="cls-5" points="16.13 267.57 24.27 277.76 17.24 288.77 9.09 278.59 16.13 267.57"/><polygon class="cls-5" points="31.31 266.74 39.45 277.02 32.42 288.03 24.27 277.76 31.31 266.74"/><polygon class="cls-5" points="46.49 266 54.63 276.18 47.6 287.2 39.45 277.02 46.49 266"/><polygon class="cls-5" points="61.67 265.26 69.81 275.44 62.78 286.46 54.63 276.18 61.67 265.26"/><polygon class="cls-5" points="76.85 264.43 84.99 274.7 77.87 285.62 69.81 275.44 76.85 264.43"/><polygon class="cls-5" points="87.49 178.81 95.64 189.08 88.6 200.1 80.46 189.82 87.49 178.81"/><polygon class="cls-5" points="102.67 178.07 110.82 188.34 103.78 199.26 95.64 189.08 102.67 178.07"/><polygon class="cls-5" points="117.85 177.33 126 187.51 118.96 198.52 110.82 188.34 117.85 177.33"/><polygon class="cls-5" points="133.03 176.49 141.18 186.77 134.14 197.78 126 187.51 133.03 176.49"/><polygon class="cls-5" points="148.21 175.75 156.36 185.93 149.32 196.95 141.18 186.77 148.21 175.75"/><polygon class="cls-5" points="163.39 175.01 171.54 185.19 164.41 196.21 156.36 185.93 163.39 175.01"/><polygon class="cls-5" points="178.57 174.18 186.63 184.45 179.59 195.38 171.54 185.19 178.57 174.18"/><polygon class="cls-5" points="88.6 200.1 96.75 210.28 89.71 221.29 81.57 211.11 88.6 200.1"/><polygon class="cls-5" points="103.78 199.26 111.93 209.54 104.89 220.55 96.75 210.28 103.78 199.26"/><polygon class="cls-5" points="118.96 198.52 127.11 208.71 119.98 219.72 111.93 209.54 118.96 198.52"/><polygon class="cls-5" points="134.14 197.78 142.2 207.96 135.16 218.98 127.11 208.71 134.14 197.78"/><polygon class="cls-5" points="149.32 196.95 157.38 207.22 150.34 218.24 142.2 207.96 149.32 196.95"/><polygon class="cls-5" points="164.41 196.21 172.56 206.39 165.52 217.41 157.38 207.22 164.41 196.21"/><polygon class="cls-5" points="179.59 195.38 187.74 205.65 180.7 216.67 172.56 206.39 179.59 195.38"/><polygon class="cls-5" points="89.71 221.29 97.77 231.57 90.73 242.49 82.68 232.31 89.71 221.29"/><polygon class="cls-5" points="104.89 220.55 112.95 230.73 105.91 241.75 97.77 231.57 104.89 220.55"/><polygon class="cls-5" points="119.98 219.72 128.13 229.99 121.09 241.01 112.95 230.73 119.98 219.72"/><polygon class="cls-5" points="135.16 218.98 143.31 229.16 136.27 240.18 128.13 229.99 135.16 218.98"/><polygon class="cls-5" points="150.34 218.24 158.49 228.42 151.45 239.44 143.31 229.16 150.34 218.24"/><polygon class="cls-5" points="165.52 217.41 173.67 227.68 166.63 238.6 158.49 228.42 165.52 217.41"/><polygon class="cls-5" points="180.7 216.67 188.85 226.85 181.81 237.86 173.67 227.68 180.7 216.67"/><polygon class="cls-5" points="90.73 242.49 98.88 252.76 91.84 263.78 83.7 253.51 90.73 242.49"/><polygon class="cls-5" points="105.91 241.75 114.06 251.93 107.02 262.95 98.88 252.76 105.91 241.75"/><polygon class="cls-5" points="121.09 241.01 129.24 251.19 122.2 262.21 114.06 251.93 121.09 241.01"/><polygon class="cls-5" points="136.27 240.18 144.42 250.45 137.38 261.47 129.24 251.19 136.27 240.18"/><polygon class="cls-5" points="151.45 239.44 159.6 249.62 152.56 260.63 144.42 250.45 151.45 239.44"/><polygon class="cls-5" points="166.63 238.6 174.78 248.88 167.74 259.89 159.6 249.62 166.63 238.6"/><polygon class="cls-5" points="181.81 237.86 189.96 248.14 182.92 259.06 174.78 248.88 181.81 237.86"/><polygon class="cls-5" points="91.84 263.78 99.99 273.96 92.95 284.98 84.81 274.7 91.84 263.78"/><polygon class="cls-5" points="107.02 262.95 115.17 273.22 108.13 284.24 99.99 273.96 107.02 262.95"/><polygon class="cls-5" points="122.2 262.21 130.35 272.39 123.31 283.4 115.17 273.22 122.2 262.21"/><polygon class="cls-5" points="137.38 261.47 145.53 271.65 138.49 282.66 130.35 272.39 137.38 261.47"/><polygon class="cls-5" points="152.56 260.63 160.71 270.91 153.58 281.83 145.53 271.65 152.56 260.63"/><polygon class="cls-5" points="167.74 259.89 175.8 270.07 168.76 281.09 160.71 270.91 167.74 259.89"/><polygon class="cls-5" points="182.92 259.06 190.98 269.33 183.94 280.35 175.8 270.07 182.92 259.06"/><polygon class="cls-5" points="1.96 289.05 10.11 299.23 3.08 310.25 -5.07 300.06 1.96 289.05"/><polygon class="cls-5" points="17.14 288.22 25.29 298.49 18.26 309.5 10.11 299.23 17.14 288.22"/><polygon class="cls-5" points="32.32 287.48 40.47 297.66 33.44 308.67 25.29 298.49 32.32 287.48"/><polygon class="cls-5" points="47.5 286.73 55.65 296.92 48.62 307.93 40.47 297.66 47.5 286.73"/><polygon class="cls-5" points="62.68 285.9 70.83 296.18 63.8 307.1 55.65 296.92 62.68 285.9"/><polygon class="cls-5" points="77.87 285.16 86.01 295.34 78.98 306.36 70.83 296.18 77.87 285.16"/><polygon class="cls-5" points="3.08 310.25 11.22 320.43 4.19 331.44 -3.96 321.26 3.08 310.25"/><polygon class="cls-5" points="18.26 309.5 26.4 319.69 19.37 330.7 11.22 320.43 18.26 309.5"/><polygon class="cls-5" points="33.44 308.67 41.58 318.95 34.55 329.96 26.4 319.69 33.44 308.67"/><polygon class="cls-5" points="48.62 307.93 56.76 318.11 49.73 329.13 41.58 318.95 48.62 307.93"/><polygon class="cls-5" points="63.8 307.1 71.94 317.37 64.91 328.39 56.76 318.11 63.8 307.1"/><polygon class="cls-5" points="78.98 306.36 87.12 316.63 79.99 327.55 71.94 317.37 78.98 306.36"/><polygon class="cls-5" points="4.19 331.44 12.33 341.72 5.3 352.73 -2.85 342.46 4.19 331.44"/><polygon class="cls-5" points="19.37 330.7 27.51 340.88 20.48 351.9 12.33 341.72 19.37 330.7"/><polygon class="cls-5" points="34.55 329.96 42.69 340.14 35.56 351.16 27.51 340.88 34.55 329.96"/><polygon class="cls-5" points="49.73 329.13 57.78 339.4 50.74 350.32 42.69 340.14 49.73 329.13"/><polygon class="cls-5" points="64.91 328.39 72.96 338.57 65.92 349.58 57.78 339.4 64.91 328.39"/><polygon class="cls-5" points="79.99 327.55 88.14 337.83 81.1 348.84 72.96 338.57 79.99 327.55"/><polygon class="cls-5" points="5.3 352.73 13.35 362.91 6.31 373.93 -1.74 363.65 5.3 352.73"/><polygon class="cls-5" points="20.48 351.9 28.53 362.17 21.49 373.19 13.35 362.91 20.48 351.9"/><polygon class="cls-5" points="35.56 351.16 43.71 361.34 36.68 372.35 28.53 362.17 35.56 351.16"/><polygon class="cls-5" points="50.74 350.32 58.89 360.6 51.86 371.61 43.71 361.34 50.74 350.32"/><polygon class="cls-5" points="65.92 349.58 74.07 359.86 67.04 370.78 58.89 360.6 65.92 349.58"/><polygon class="cls-5" points="81.1 348.84 89.25 359.03 82.22 370.04 74.07 359.86 81.1 348.84"/><polygon class="cls-5" points="6.31 373.93 14.46 384.11 7.43 395.12 -.72 384.94 6.31 373.93"/><polygon class="cls-5" points="21.49 373.19 29.64 383.37 22.61 394.38 14.46 384.11 21.49 373.19"/><polygon class="cls-5" points="36.68 372.35 44.82 382.63 37.79 393.55 29.64 383.37 36.68 372.35"/><polygon class="cls-5" points="51.86 371.61 60 381.8 52.97 392.81 44.82 382.63 51.86 371.61"/><polygon class="cls-5" points="67.04 370.78 75.18 381.06 68.15 392.07 60 381.8 67.04 370.78"/><polygon class="cls-5" points="82.22 370.04 90.36 380.22 83.33 391.24 75.18 381.06 82.22 370.04"/><polygon class="cls-5" points="92.86 284.42 101.01 294.7 93.97 305.71 85.83 295.44 92.86 284.42"/><polygon class="cls-5" points="108.04 283.68 116.19 293.86 109.15 304.88 101.01 294.7 108.04 283.68"/><polygon class="cls-5" points="123.22 282.94 131.37 293.12 124.33 304.14 116.19 293.86 123.22 282.94"/><polygon class="cls-5" points="138.4 282.11 146.55 292.38 139.51 303.3 131.37 293.12 138.4 282.11"/><polygon class="cls-5" points="153.58 281.37 161.73 291.55 154.69 302.56 146.55 292.38 153.58 281.37"/><polygon class="cls-5" points="168.76 280.53 176.91 290.81 169.87 301.82 161.73 291.55 168.76 280.53"/><polygon class="cls-5" points="183.94 279.79 192.09 289.97 185.05 300.99 176.91 290.81 183.94 279.79"/><polygon class="cls-5" points="93.97 305.71 102.12 315.89 95.08 326.91 86.94 316.63 93.97 305.71"/><polygon class="cls-5" points="109.15 304.88 117.3 315.15 110.26 326.07 102.12 315.89 109.15 304.88"/><polygon class="cls-5" points="124.33 304.14 132.48 314.32 125.44 325.33 117.3 315.15 124.33 304.14"/><polygon class="cls-5" points="139.51 303.3 147.66 313.58 140.62 324.59 132.48 314.32 139.51 303.3"/><polygon class="cls-5" points="154.69 302.56 162.84 312.84 155.71 323.76 147.66 313.58 154.69 302.56"/><polygon class="cls-5" points="169.87 301.82 177.92 312 170.89 323.02 162.84 312.84 169.87 301.82"/><polygon class="cls-5" points="185.05 300.99 193.1 311.26 186.07 322.28 177.92 312 185.05 300.99"/><polygon class="cls-5" points="95.08 326.91 103.23 337.09 96.19 348.1 88.05 337.92 95.08 326.91"/><polygon class="cls-5" points="110.26 326.07 118.41 336.35 111.28 347.36 103.23 337.09 110.26 326.07"/><polygon class="cls-5" points="125.44 325.33 133.49 335.61 126.46 346.53 118.41 336.35 125.44 325.33"/><polygon class="cls-5" points="140.62 324.59 148.67 334.77 141.64 345.79 133.49 335.61 140.62 324.59"/><polygon class="cls-5" points="155.71 323.76 163.85 334.03 156.82 345.05 148.67 334.77 155.71 323.76"/><polygon class="cls-5" points="170.89 323.02 179.04 333.2 172 344.22 163.85 334.03 170.89 323.02"/><polygon class="cls-5" points="186.07 322.28 194.22 332.46 187.18 343.48 179.04 333.2 186.07 322.28"/><polygon class="cls-5" points="96.19 348.1 104.25 358.38 97.21 369.3 89.07 359.12 96.19 348.1"/><polygon class="cls-5" points="111.28 347.36 119.43 357.54 112.39 368.56 104.25 358.38 111.28 347.36"/><polygon class="cls-5" points="126.46 346.53 134.61 356.8 127.57 367.82 119.43 357.54 126.46 346.53"/><polygon class="cls-5" points="141.64 345.79 149.79 355.97 142.75 366.99 134.61 356.8 141.64 345.79"/><polygon class="cls-5" points="156.82 345.05 164.97 355.23 157.93 366.25 149.79 355.97 156.82 345.05"/><polygon class="cls-5" points="172 344.22 180.15 354.49 173.11 365.5 164.97 355.23 172 344.22"/><polygon class="cls-5" points="187.18 343.48 195.33 353.66 188.29 364.67 180.15 354.49 187.18 343.48"/><polygon class="cls-5" points="97.21 369.3 105.36 379.57 98.32 390.59 90.18 380.31 97.21 369.3"/><polygon class="cls-5" points="112.39 368.56 120.54 378.83 113.5 389.76 105.36 379.57 112.39 368.56"/><polygon class="cls-5" points="127.57 367.82 135.72 378 128.68 389.02 120.54 378.83 127.57 367.82"/><polygon class="cls-5" points="142.75 366.99 150.9 377.26 143.86 388.28 135.72 378 142.75 366.99"/><polygon class="cls-5" points="157.93 366.25 166.08 376.43 159.04 387.44 150.9 377.26 157.93 366.25"/><polygon class="cls-5" points="173.11 365.5 181.26 375.69 174.22 386.7 166.08 376.43 173.11 365.5"/><polygon class="cls-5" points="188.29 364.67 196.44 374.95 189.31 385.87 181.26 375.69 188.29 364.67"/></g><g class="cls-26"><polygon class="cls-5" points="-7.48 395.49 .67 405.68 -6.37 416.69 -14.51 406.51 -7.48 395.49"/><polygon class="cls-5" points="7.7 394.75 15.85 404.94 8.81 415.95 .67 405.68 7.7 394.75"/><polygon class="cls-5" points="22.88 393.92 31.03 404.2 23.9 415.21 15.85 404.94 22.88 393.92"/><polygon class="cls-5" points="38.06 393.18 46.12 403.36 39.08 414.38 31.03 404.2 38.06 393.18"/><polygon class="cls-5" points="-6.37 416.69 1.69 426.97 -5.35 437.98 -13.4 427.71 -6.37 416.69"/><polygon class="cls-5" points="8.81 415.95 16.87 426.13 9.83 437.15 1.69 426.97 8.81 415.95"/><polygon class="cls-5" points="23.9 415.21 32.05 425.39 25.01 436.41 16.87 426.13 23.9 415.21"/><polygon class="cls-5" points="39.08 414.38 47.23 424.65 40.19 435.57 32.05 425.39 39.08 414.38"/><polygon class="cls-5" points="-5.35 437.98 2.8 448.16 -4.24 459.18 -12.38 448.9 -5.35 437.98"/><polygon class="cls-5" points="9.83 437.15 17.98 447.42 10.94 458.34 2.8 448.16 9.83 437.15"/><polygon class="cls-5" points="25.01 436.41 33.16 446.59 26.12 457.6 17.98 447.42 25.01 436.41"/><polygon class="cls-5" points="40.19 435.57 48.34 445.85 41.3 456.86 33.16 446.59 40.19 435.57"/><polygon class="cls-5" points="53.06 392.44 61.2 402.71 54.17 413.73 46.02 403.46 53.06 392.44"/><polygon class="cls-5" points="68.24 391.7 76.38 401.88 69.35 412.9 61.2 402.71 68.24 391.7"/><polygon class="cls-5" points="83.42 390.96 91.56 401.14 84.53 412.16 76.38 401.88 83.42 390.96"/><polygon class="cls-5" points="98.6 390.13 106.74 400.4 99.62 411.32 91.56 401.14 98.6 390.13"/><polygon class="cls-5" points="113.78 389.39 121.83 399.57 114.8 410.58 106.74 400.4 113.78 389.39"/><polygon class="cls-5" points="128.96 388.55 137.01 398.83 129.98 409.84 121.83 399.57 128.96 388.55"/><polygon class="cls-5" points="144.05 387.81 152.19 397.99 145.16 409.01 137.01 398.83 144.05 387.81"/><polygon class="cls-5" points="54.17 413.73 62.22 423.91 55.19 434.93 47.13 424.65 54.17 413.73"/><polygon class="cls-5" points="69.35 412.9 77.4 423.17 70.37 434.19 62.22 423.91 69.35 412.9"/><polygon class="cls-5" points="84.53 412.16 92.58 422.34 85.55 433.35 77.4 423.17 84.53 412.16"/><polygon class="cls-5" points="99.62 411.32 107.76 421.6 100.73 432.61 92.58 422.34 99.62 411.32"/><polygon class="cls-5" points="114.8 410.58 122.94 420.86 115.91 431.78 107.76 421.6 114.8 410.58"/><polygon class="cls-5" points="129.98 409.84 138.12 420.02 131.09 431.04 122.94 420.86 129.98 409.84"/><polygon class="cls-5" points="145.16 409.01 153.3 419.28 146.27 430.3 138.12 420.02 145.16 409.01"/><polygon class="cls-5" points="55.19 434.93 63.33 445.11 56.3 456.12 48.15 445.94 55.19 434.93"/><polygon class="cls-5" points="70.37 434.19 78.51 444.37 71.48 455.38 63.33 445.11 70.37 434.19"/><polygon class="cls-5" points="85.55 433.35 93.69 443.63 86.66 454.55 78.51 444.37 85.55 433.35"/><polygon class="cls-5" points="100.73 432.61 108.87 442.79 101.84 453.81 93.69 443.63 100.73 432.61"/><polygon class="cls-5" points="115.91 431.78 124.05 442.05 117.02 453.07 108.87 442.79 115.91 431.78"/><polygon class="cls-5" points="131.09 431.04 139.23 441.22 132.2 452.24 124.05 442.05 131.09 431.04"/><polygon class="cls-5" points="146.27 430.3 154.41 440.48 147.38 451.49 139.23 441.22 146.27 430.3"/></g><path class="cls-13" d="m122.57,209.35c-.93.65-1.85,1.3-2.41,2.31-.46.83-.56,1.76-.65,2.68-1.85,16.48-3.61,33.04-5.46,49.52-.37,2.96-.65,6.11.46,8.89s3.98,5.09,6.94,4.44c3.33-19.25,8.24-38.14,14.44-56.65,2.13-6.29,5.18-14.35,2.31-20.83-5,3.33-10.55,6.11-15.64,9.63Z"/><path class="cls-13" d="m106.93,198.06c3.98,5.65,9.16,10.37,15.09,13.98.46.28.93.56,1.39.56.56,0,1.11-.28,1.67-.56,6.39-3.52,12.13-8.61,15.92-14.9,2.41-4.07,3.98-8.61,4.35-13.33.28-3.33.56-10.09-4.35-7.96-7.87,3.33-14.25,10.64-21.2,15.55-3.98,2.78-8.24,5.28-12.87,6.66Z"/><path class="cls-25" d="m142.47,172.14c-6.2,8.89-5.28,19.81-10.83,29.16,8.42-2.22,17.4-2.31,25.73-.09-2.87-1.94-4.81-5-6.02-8.24s-1.67-6.66-2.22-10.09c-.37-2.59-.37-4.91-.09-7.5.19-2.22.46-5.18-1.67-7.03-1.11-1.02-3.89,2.41-4.91,3.8Z"/><path class="cls-22" d="m161.45,199.17c-.46,1.02.09,2.31.83,3.05.83.83,1.85,1.39,2.68,2.13,1.94,1.67,2.87,4.26,3.7,6.66.83,2.59,1.67,5.09,2.59,7.68.74,2.31,1.48,4.63,1.85,6.94.37,2.41.37,4.81.37,7.22,0,5.55-.09,38.6-.09,44.15,0,.37,0,.74-.19,1.02-.28.46-.93.65-1.48.74-1.67.37-3.33.46-5.09.37-.28,0-.65,0-.93-.19-.37-.28-.46-.83-.56-1.3-.74-4.91-.19-37.3-.74-42.3-.56-4.54-.46-9.16-1.48-13.79-.74-3.42-1.76-6.85-2.96-10.18-.56-1.67-1.48-3.24-2.5-4.63-.83-1.02-3.61-2.5-3.89-3.61-.74-3.24,5.74-4.72,7.87-3.98Z"/><circle class="cls-19" cx="162.56" cy="207.87" r="2.22"/><circle class="cls-10" cx="162.56" cy="207.87" r="1.94"/><circle class="cls-19" cx="162.1" cy="207.41" r=".28"/><circle class="cls-19" cx="163.02" cy="207.41" r=".28"/><circle class="cls-19" cx="162.1" cy="208.24" r=".28"/><circle class="cls-19" cx="163.02" cy="208.24" r=".28"/><circle class="cls-19" cx="166.91" cy="218.98" r="2.22"/><circle class="cls-10" cx="166.91" cy="218.98" r="1.94"/><circle class="cls-19" cx="166.45" cy="218.61" r=".28"/><circle class="cls-19" cx="167.37" cy="218.61" r=".28"/><circle class="cls-19" cx="166.45" cy="219.35" r=".28"/><circle class="cls-19" cx="167.37" cy="219.35" r=".28"/><circle class="cls-19" cx="169.13" cy="230.18" r="2.22"/><circle class="cls-10" cx="169.13" cy="230.18" r="1.94"/><circle class="cls-19" cx="168.67" cy="229.72" r=".28"/><circle class="cls-19" cx="169.59" cy="229.72" r=".28"/><circle class="cls-19" cx="168.67" cy="230.55" r=".28"/><circle class="cls-19" cx="169.59" cy="230.55" r=".28"/><circle class="cls-19" cx="169.59" cy="244.53" r="2.22"/><circle class="cls-10" cx="169.59" cy="244.53" r="1.94"/><circle class="cls-19" cx="169.13" cy="244.16" r=".28"/><circle class="cls-19" cx="170.06" cy="244.16" r=".28"/><circle class="cls-19" cx="169.13" cy="244.99" r=".28"/><circle class="cls-19" cx="170.06" cy="244.99" r=".28"/><circle class="cls-19" cx="169.59" cy="258.6" r="2.22"/><circle class="cls-10" cx="169.59" cy="258.6" r="1.94"/><circle class="cls-19" cx="169.13" cy="258.23" r=".28"/><circle class="cls-19" cx="170.06" cy="258.23" r=".28"/><circle class="cls-19" cx="169.13" cy="258.97" r=".28"/><circle class="cls-19" cx="170.06" cy="258.97" r=".28"/><circle class="cls-19" cx="169.59" cy="274.05" r="2.22"/><circle class="cls-10" cx="169.59" cy="274.05" r="1.94"/><circle class="cls-19" cx="169.13" cy="273.68" r=".28"/><circle class="cls-19" cx="170.06" cy="273.68" r=".28"/><circle class="cls-19" cx="169.13" cy="274.52" r=".28"/><circle class="cls-19" cx="170.06" cy="274.52" r=".28"/><path class="cls-19" d="m175.43,249.52c-.65-5.65.28-11.39,1.2-16.94,1.48-9.07,2.96-18.33,7.68-26.19,4.07-6.85,11.2-12.59,19.16-12.4.65,0,1.2.09,1.76.37.65.37.93,1.02,1.3,1.67,8.15,16.85,12.87,35.17,17.49,53.32,1.2,4.63,17.68,8.61,18.33,13.42.56,3.98,10.55,174.39,9.44,178.27-15.74,2.96-66.37,5.55-81.92,1.76-.37-.09,1.3-157.63,1.3-158.1.37-7.68,5.09-27.49,4.26-35.17Z"/><path class="cls-22" d="m182.46,199.17c.46,1.02-.09,2.31-.83,3.05-.83.83-1.85,1.39-2.68,2.13-1.94,1.67-2.87,4.26-3.7,6.66-.83,2.59-1.67,5.09-2.59,7.68-.74,2.31-1.48,4.63-1.85,6.94-.37,2.41-.37,4.81-.37,7.22v45.36c0,.37,0,.74.19,1.02.28.46.93.65,1.48.74,1.67.37,3.33.46,5.09.37.28,0,.65,0,.93-.19.37-.28.46-.83.56-1.3.28-1.76-.19-30.64-.28-32.4-.09-10.18.83-18.05,2.41-24.81.83-3.42,1.94-6.85,3.15-10.18.56-1.67,1.48-3.24,2.5-4.63.83-1.02,3.61-2.5,3.89-3.61.74-3.33-5.65-4.81-7.87-4.07Z"/><path class="cls-24" d="m78.33,293.21c-10.27,13.7-11.48,31.93-13.05,49.06-1.67,17.86-4.17,35.73-6.76,53.5-.28,2.13-1.11,5-1.57,7.13-.83,3.52-1.57,7.13-1.85,10.64-.46,7.31,0,14.53-.93,21.84-.37,2.78-1.3,5.65-1.48,8.42-.09,1.11.65,2.41.46,3.52-.37,3.33-2.5,3.24.65,6.2-.56.83-2.13,1.94-2.31,2.96-.09,1.02.56,1.67,1.02,2.5-1.94-.37-3.8-.83-5.65-1.39.28-4.26.93-8.42,1.39-12.77.65-6.29,1.76-12.59,1.94-18.98.09-5.55-.09-11.01.74-16.48.83-5.37,2.59-10.55,3.98-15.83.37-1.48,2.41-10.37,2.78-10.09,1.48-9.26,3.05-18.51,3.8-27.95.56-7.59.56-15.18,1.48-22.68,1.48-12.77,5.37-25.08,9.16-37.3.65,0,1.3,0,2.04-.65,1.67-1.48.65-5.18,1.02-6.94.19,1.3.19,6.02,3.15,5.28Z"/><path class="cls-14" d="m321.4,435.3c.19,6.94-2.68,13.7-5.37,19.99-1.3,2.96-1.85,6.11-2.31,9.26-.56,4.07-1.39,7.87.46,11.76,1.39,2.78,5.18-1.57,5.74-3.15.56-1.48.28-3.24.74-4.81.37-1.67,1.11-3.42,1.76-4.91.56-1.39,2.04-3.7,3.42-1.67.65.93-.28,3.05-.56,4.17-1.11,3.89-2.22,7.59-2.87,11.66-.74,4.54,5.83,4.81,10.09,4.26,3.24-.46,6.76-3.8,8.89-6.2,2.59-2.87,4.81-7.59,5.65-11.39,1.3-5.83.19-12.77-1.11-18.51-1.3-5.74-2.59-11.11-6.94-15.37-5.74,2.13-11.48,5-17.59,4.91Z"/><path class="cls-8" d="m209.86,191.49c0,1.39,0,2.87.09,4.26v.19c0,.37.09.74.09,1.11h0c.83,10.46,4.26,20.92,7.22,31.1,4.07,14.07,7.4,28.32,9.9,42.67v2.31c.09,13.51,0,81.92.56,82.57.09.09-.19,6.57-.56,16.01-.65,15-1.76,37.67-2.5,54.33-.56,12.68-.93,22.03-.74,22.03,4.17,1.48,8.15,2.78,12.03,3.89,17.4,5,32.21,6.02,44.99,4.91,5.28-.46,10.18-1.2,14.72-2.22,1.94-.37,3.8-.83,5.65-1.39,1.67-.46,3.33-.93,5-1.39,1.76-.56,3.42-1.11,5.09-1.57l.46-.19c1.76-.56,3.42-1.11,5-1.76,13.79-4.91,24.71-9.63,34.71-7.68,3.24-22.21-12.31-66.46-11.39-79.14.37-5.74-29.53-88.4-30.73-94.04-2.04-9.81-4.26-19.9-9.72-28.32-4.35-6.66-10.55-11.94-15-18.51-3.42-5-5.74-10.64-8.7-15.92s-6.66-10.37-11.94-13.33c-4.54-2.59-9.9-3.33-14.9-5.18-4.35-1.67-8.33-4.07-12.59-5.83-6.39-2.68-13.42-3.8-20.27-3.24-.56,0-1.02.09-1.57.19-.28,1.11-1.39,1.2-2.31,1.94-.65.46-1.02,1.2-1.39,1.94-.37.83-.56,1.76-.74,2.59-.28,2.78-.46,5.18-.46,7.68Z"/><g class="cls-28"><polygon class="cls-5" points="336.48 178.62 328.34 188.8 335.37 199.82 343.52 189.54 336.48 178.62"/><polygon class="cls-5" points="321.3 177.79 313.16 188.06 320.19 199.08 328.34 188.8 321.3 177.79"/><polygon class="cls-5" points="306.12 177.05 297.98 187.23 305.01 198.25 313.16 188.06 306.12 177.05"/><polygon class="cls-5" points="290.94 176.22 282.8 186.49 289.83 197.51 297.98 187.23 290.94 176.22"/><polygon class="cls-5" points="275.76 175.48 267.62 185.75 274.65 196.67 282.8 186.49 275.76 175.48"/><polygon class="cls-5" points="335.37 199.82 327.23 210 334.26 221.02 342.41 210.83 335.37 199.82"/><polygon class="cls-5" points="320.19 199.08 312.05 209.26 319.17 220.28 327.23 210 320.19 199.08"/><polygon class="cls-5" points="305.01 198.25 296.87 208.52 303.99 219.44 312.05 209.26 305.01 198.25"/><polygon class="cls-5" points="289.83 197.51 281.78 207.69 288.81 218.7 296.87 208.52 289.83 197.51"/><polygon class="cls-5" points="274.65 196.67 266.6 206.95 273.63 217.96 281.78 207.69 274.65 196.67"/><polygon class="cls-5" points="334.26 221.02 326.21 231.29 333.24 242.31 341.39 232.03 334.26 221.02"/><polygon class="cls-5" points="319.17 220.28 311.03 230.46 318.06 241.47 326.21 231.29 319.17 220.28"/><polygon class="cls-5" points="303.99 219.44 295.85 229.72 302.88 240.73 311.03 230.46 303.99 219.44"/><polygon class="cls-5" points="288.81 218.7 280.67 228.98 287.7 239.9 295.85 229.72 288.81 218.7"/><polygon class="cls-5" points="273.63 217.96 265.49 228.14 272.52 239.16 280.67 228.98 273.63 217.96"/><polygon class="cls-5" points="333.24 242.31 325.1 252.49 332.13 263.5 340.28 253.23 333.24 242.31"/><polygon class="cls-5" points="318.06 241.47 309.92 251.75 316.95 262.67 325.1 252.49 318.06 241.47"/><polygon class="cls-5" points="302.88 240.73 294.74 250.91 301.77 261.93 309.92 251.75 302.88 240.73"/><polygon class="cls-5" points="287.7 239.9 279.56 250.17 286.59 261.19 294.74 250.91 287.7 239.9"/><polygon class="cls-5" points="272.52 239.16 264.38 249.34 271.41 260.35 279.56 250.17 272.52 239.16"/><polygon class="cls-5" points="332.13 263.5 323.99 273.68 331.02 284.7 339.17 274.52 332.13 263.5"/><polygon class="cls-5" points="316.95 262.67 308.81 272.94 315.84 283.96 323.99 273.68 316.95 262.67"/><polygon class="cls-5" points="301.77 261.93 293.63 272.2 300.66 283.12 308.81 272.94 301.77 261.93"/><polygon class="cls-5" points="286.59 261.19 278.45 271.37 285.57 282.38 293.63 272.2 286.59 261.19"/><polygon class="cls-5" points="271.41 260.35 263.27 270.63 270.39 281.64 278.45 271.37 271.41 260.35"/><polygon class="cls-5" points="260.77 174.83 252.62 185.01 259.66 196.02 267.8 185.75 260.77 174.83"/><polygon class="cls-5" points="245.59 173.99 237.44 184.27 244.48 195.28 252.62 185.01 245.59 173.99"/><polygon class="cls-5" points="230.41 173.25 222.26 183.44 229.3 194.45 237.44 184.27 230.41 173.25"/><polygon class="cls-5" points="215.23 172.42 207.08 182.7 214.12 193.71 222.26 183.44 215.23 172.42"/><polygon class="cls-5" points="200.05 171.68 191.9 181.95 198.94 192.88 207.08 182.7 200.05 171.68"/><polygon class="cls-5" points="184.87 170.94 176.72 181.12 183.85 192.14 191.9 181.95 184.87 170.94"/><polygon class="cls-5" points="169.69 170.11 161.63 180.38 168.67 191.4 176.72 181.12 169.69 170.11"/><polygon class="cls-5" points="259.66 196.02 251.51 206.21 258.55 217.22 266.69 207.04 259.66 196.02"/><polygon class="cls-5" points="244.48 195.28 236.33 205.47 243.46 216.48 251.51 206.21 244.48 195.28"/><polygon class="cls-5" points="229.3 194.45 221.15 204.72 228.28 215.65 236.33 205.47 229.3 194.45"/><polygon class="cls-5" points="214.12 193.71 206.06 203.89 213.1 214.91 221.15 204.72 214.12 193.71"/><polygon class="cls-5" points="198.94 192.88 190.88 203.15 197.92 214.17 206.06 203.89 198.94 192.88"/><polygon class="cls-5" points="183.85 192.14 175.7 202.32 182.74 213.33 190.88 203.15 183.85 192.14"/><polygon class="cls-5" points="168.67 191.4 160.52 201.58 167.56 212.59 175.7 202.32 168.67 191.4"/><polygon class="cls-5" points="258.55 217.22 250.49 227.5 257.53 238.42 265.67 228.24 258.55 217.22"/><polygon class="cls-5" points="243.46 216.48 235.31 226.66 242.35 237.68 250.49 227.5 243.46 216.48"/><polygon class="cls-5" points="228.28 215.65 220.13 225.92 227.17 236.94 235.31 226.66 228.28 215.65"/><polygon class="cls-5" points="213.1 214.91 204.95 225.18 211.99 236.1 220.13 225.92 213.1 214.91"/><polygon class="cls-5" points="197.92 214.17 189.77 224.35 196.81 235.36 204.95 225.18 197.92 214.17"/><polygon class="cls-5" points="182.74 213.33 174.59 223.61 181.63 234.62 189.77 224.35 182.74 213.33"/><polygon class="cls-5" points="167.56 212.59 159.41 222.77 166.45 233.79 174.59 223.61 167.56 212.59"/><polygon class="cls-5" points="257.53 238.42 249.38 248.69 256.42 259.71 264.56 249.43 257.53 238.42"/><polygon class="cls-5" points="242.35 237.68 234.2 247.95 241.24 258.87 249.38 248.69 242.35 237.68"/><polygon class="cls-5" points="227.17 236.94 219.02 247.12 226.06 258.13 234.2 247.95 227.17 236.94"/><polygon class="cls-5" points="211.99 236.1 203.84 246.38 210.88 257.39 219.02 247.12 211.99 236.1"/><polygon class="cls-5" points="196.81 235.36 188.66 245.54 195.7 256.56 203.84 246.38 196.81 235.36"/><polygon class="cls-5" points="181.63 234.62 173.48 244.8 180.52 255.82 188.66 245.54 181.63 234.62"/><polygon class="cls-5" points="166.45 233.79 158.3 244.06 165.34 255.08 173.48 244.8 166.45 233.79"/><polygon class="cls-5" points="256.42 259.71 248.27 269.89 255.31 280.9 263.45 270.72 256.42 259.71"/><polygon class="cls-5" points="241.24 258.87 233.09 269.15 240.13 280.16 248.27 269.89 241.24 258.87"/><polygon class="cls-5" points="226.06 258.13 217.91 268.31 224.95 279.33 233.09 269.15 226.06 258.13"/><polygon class="cls-5" points="210.88 257.39 202.73 267.57 209.86 278.59 217.91 268.31 210.88 257.39"/><polygon class="cls-5" points="195.7 256.56 187.55 266.83 194.68 277.85 202.73 267.57 195.7 256.56"/><polygon class="cls-5" points="180.52 255.82 172.46 266 179.5 277.02 187.55 266.83 180.52 255.82"/><polygon class="cls-5" points="165.34 255.08 157.28 265.26 164.32 276.28 172.46 266 165.34 255.08"/><polygon class="cls-5" points="331.11 284.14 322.97 294.42 330 305.43 338.15 295.16 331.11 284.14"/><polygon class="cls-5" points="315.93 283.4 307.79 293.68 314.82 304.6 322.97 294.42 315.93 283.4"/><polygon class="cls-5" points="300.75 282.66 292.61 292.84 299.64 303.86 307.79 293.68 300.75 282.66"/><polygon class="cls-5" points="285.57 281.83 277.43 292.1 284.46 303.12 292.61 292.84 285.57 281.83"/><polygon class="cls-5" points="270.39 281.09 262.25 291.27 269.28 302.29 277.43 292.1 270.39 281.09"/><polygon class="cls-5" points="330 305.43 321.86 315.61 328.89 326.63 337.04 316.45 330 305.43"/><polygon class="cls-5" points="314.82 304.6 306.68 314.87 313.71 325.89 321.86 315.61 314.82 304.6"/><polygon class="cls-5" points="299.64 303.86 291.5 314.04 298.53 325.06 306.68 314.87 299.64 303.86"/><polygon class="cls-5" points="284.46 303.12 276.32 313.3 283.44 324.31 291.5 314.04 284.46 303.12"/><polygon class="cls-5" points="269.28 302.29 261.23 312.56 268.26 323.57 276.32 313.3 269.28 302.29"/><polygon class="cls-5" points="328.89 326.63 320.75 336.9 327.87 347.83 335.93 337.64 328.89 326.63"/><polygon class="cls-5" points="313.71 325.89 305.66 336.07 312.69 347.09 320.75 336.9 313.71 325.89"/><polygon class="cls-5" points="298.53 325.06 290.48 335.33 297.51 346.34 305.66 336.07 298.53 325.06"/><polygon class="cls-5" points="283.44 324.31 275.3 334.5 282.33 345.51 290.48 335.33 283.44 324.31"/><polygon class="cls-5" points="268.26 323.57 260.12 333.76 267.15 344.77 275.3 334.5 268.26 323.57"/><polygon class="cls-5" points="327.87 347.83 319.73 358.1 326.76 369.11 334.91 358.84 327.87 347.83"/><polygon class="cls-5" points="312.69 347.09 304.55 357.27 311.58 368.28 319.73 358.1 312.69 347.09"/><polygon class="cls-5" points="297.51 346.34 289.37 356.53 296.4 367.54 304.55 357.27 297.51 346.34"/><polygon class="cls-5" points="282.33 345.51 274.19 355.79 281.22 366.8 289.37 356.53 282.33 345.51"/><polygon class="cls-5" points="267.15 344.77 259.01 354.95 266.04 365.97 274.19 355.79 267.15 344.77"/><polygon class="cls-5" points="326.76 369.11 318.62 379.3 325.65 390.31 333.8 380.04 326.76 369.11"/><polygon class="cls-5" points="311.58 368.28 303.44 378.56 310.47 389.57 318.62 379.3 311.58 368.28"/><polygon class="cls-5" points="296.4 367.54 288.26 377.72 295.29 388.74 303.44 378.56 296.4 367.54"/><polygon class="cls-5" points="281.22 366.8 273.08 376.98 280.11 388 288.26 377.72 281.22 366.8"/><polygon class="cls-5" points="266.04 365.97 257.9 376.24 264.93 387.16 273.08 376.98 266.04 365.97"/><polygon class="cls-5" points="255.4 280.35 247.25 290.62 254.29 301.64 262.43 291.36 255.4 280.35"/><polygon class="cls-5" points="240.22 279.61 232.07 289.79 239.11 300.8 247.25 290.62 240.22 279.61"/><polygon class="cls-5" points="225.04 278.87 216.89 289.05 223.93 300.06 232.07 289.79 225.04 278.87"/><polygon class="cls-5" points="209.86 278.03 201.71 288.31 208.75 299.32 216.89 289.05 209.86 278.03"/><polygon class="cls-5" points="194.68 277.29 186.53 287.48 193.57 298.49 201.71 288.31 194.68 277.29"/><polygon class="cls-5" points="179.5 276.55 171.35 286.73 178.39 297.75 186.53 287.48 179.5 276.55"/><polygon class="cls-5" points="164.32 275.72 156.17 285.99 163.21 296.92 171.35 286.73 164.32 275.72"/><polygon class="cls-5" points="254.29 301.64 246.14 311.82 253.18 322.83 261.32 312.65 254.29 301.64"/><polygon class="cls-5" points="239.11 300.8 230.96 311.08 238 322.09 246.14 311.82 239.11 300.8"/><polygon class="cls-5" points="223.93 300.06 215.78 310.25 222.82 321.26 230.96 311.08 223.93 300.06"/><polygon class="cls-5" points="208.75 299.32 200.6 309.5 207.73 320.52 215.78 310.25 208.75 299.32"/><polygon class="cls-5" points="193.57 298.49 185.51 308.76 192.55 319.69 200.6 309.5 193.57 298.49"/><polygon class="cls-5" points="178.39 297.75 170.33 307.93 177.37 318.95 185.51 308.76 178.39 297.75"/><polygon class="cls-5" points="163.21 296.92 155.15 307.19 162.19 318.21 170.33 307.93 163.21 296.92"/><polygon class="cls-5" points="253.18 322.83 245.03 333.02 252.16 344.03 260.21 333.85 253.18 322.83"/><polygon class="cls-5" points="238 322.09 229.94 332.28 236.98 343.29 245.03 333.02 238 322.09"/><polygon class="cls-5" points="222.82 321.26 214.76 331.53 221.8 342.55 229.94 332.28 222.82 321.26"/><polygon class="cls-5" points="207.73 320.52 199.58 330.7 206.62 341.72 214.76 331.53 207.73 320.52"/><polygon class="cls-5" points="192.55 319.69 184.4 329.96 191.44 340.98 199.58 330.7 192.55 319.69"/><polygon class="cls-5" points="177.37 318.95 169.22 329.22 176.26 340.14 184.4 329.96 177.37 318.95"/><polygon class="cls-5" points="162.19 318.21 154.04 328.39 161.08 339.4 169.22 329.22 162.19 318.21"/><polygon class="cls-5" points="252.16 344.03 244.01 354.3 251.05 365.32 259.19 355.05 252.16 344.03"/><polygon class="cls-5" points="236.98 343.29 228.83 353.47 235.87 364.49 244.01 354.3 236.98 343.29"/><polygon class="cls-5" points="221.8 342.55 213.65 352.73 220.69 363.75 228.83 353.47 221.8 342.55"/><polygon class="cls-5" points="206.62 341.72 198.47 351.99 205.51 362.91 213.65 352.73 206.62 341.72"/><polygon class="cls-5" points="191.44 340.98 183.29 351.16 190.33 362.17 198.47 351.99 191.44 340.98"/><polygon class="cls-5" points="176.26 340.14 168.11 350.42 175.15 361.43 183.29 351.16 176.26 340.14"/><polygon class="cls-5" points="161.08 339.4 152.93 349.58 159.97 360.6 168.11 350.42 161.08 339.4"/><polygon class="cls-5" points="251.05 365.32 242.9 375.5 249.94 386.52 258.08 376.24 251.05 365.32"/><polygon class="cls-5" points="235.87 364.49 227.72 374.76 234.76 385.78 242.9 375.5 235.87 364.49"/><polygon class="cls-5" points="220.69 363.75 212.54 373.93 219.58 384.94 227.72 374.76 220.69 363.75"/><polygon class="cls-5" points="205.51 362.91 197.36 373.19 204.4 384.2 212.54 373.93 205.51 362.91"/><polygon class="cls-5" points="190.33 362.17 182.18 372.45 189.22 383.37 197.36 373.19 190.33 362.17"/><polygon class="cls-5" points="175.15 361.43 167 371.61 174.13 382.63 182.18 372.45 175.15 361.43"/><polygon class="cls-5" points="159.97 360.6 151.91 370.87 158.95 381.89 167 371.61 159.97 360.6"/></g><g class="cls-27"><polygon class="cls-5" points="325.38 389.85 317.32 400.12 324.36 411.14 332.41 400.86 325.38 389.85"/><polygon class="cls-5" points="310.2 389.11 302.14 399.29 309.18 410.3 317.32 400.12 310.2 389.11"/><polygon class="cls-5" points="324.36 411.14 316.21 421.32 323.25 432.33 331.39 422.06 324.36 411.14"/><polygon class="cls-5" points="309.18 410.3 301.03 420.58 308.07 431.59 316.21 421.32 309.18 410.3"/><polygon class="cls-5" points="338.43 433.07 330.28 443.35 337.32 454.36 345.46 444.09 338.43 433.07"/><polygon class="cls-5" points="323.25 432.33 315.1 442.52 322.14 453.53 330.28 443.35 323.25 432.33"/><polygon class="cls-5" points="308.07 431.59 299.92 441.78 306.96 452.79 315.1 442.52 308.07 431.59"/><polygon class="cls-5" points="295.2 388.37 287.05 398.64 294.09 409.66 302.23 399.38 295.2 388.37"/><polygon class="cls-5" points="280.02 387.63 271.87 397.9 278.91 408.82 287.05 398.64 280.02 387.63"/><polygon class="cls-5" points="264.84 386.89 256.69 397.07 263.82 408.08 271.87 397.9 264.84 386.89"/><polygon class="cls-5" points="249.66 386.05 241.61 396.33 248.64 407.34 256.69 397.07 249.66 386.05"/><polygon class="cls-5" points="234.48 385.31 226.43 395.49 233.46 406.51 241.61 396.33 234.48 385.31"/><polygon class="cls-5" points="219.39 384.57 211.25 394.75 218.28 405.77 226.43 395.49 219.39 384.57"/><polygon class="cls-5" points="204.21 383.74 196.07 394.01 203.1 404.94 211.25 394.75 204.21 383.74"/><polygon class="cls-5" points="294.09 409.66 286.04 419.84 293.07 430.85 301.12 420.67 294.09 409.66"/><polygon class="cls-5" points="278.91 408.82 270.86 419.1 277.89 430.11 286.04 419.84 278.91 408.82"/><polygon class="cls-5" points="263.82 408.08 255.68 418.27 262.71 429.28 270.86 419.1 263.82 408.08"/><polygon class="cls-5" points="248.64 407.34 240.5 417.52 247.53 428.54 255.68 418.27 248.64 407.34"/><polygon class="cls-5" points="233.46 406.51 225.32 416.78 232.35 427.8 240.5 417.52 233.46 406.51"/><polygon class="cls-5" points="218.28 405.77 210.14 415.95 217.17 426.97 225.32 416.78 218.28 405.77"/><polygon class="cls-5" points="203.1 404.94 194.96 415.21 201.99 426.23 210.14 415.95 203.1 404.94"/><polygon class="cls-5" points="293.07 430.85 284.93 441.13 291.96 452.05 300.11 441.87 293.07 430.85"/><polygon class="cls-5" points="277.89 430.11 269.75 440.29 276.78 451.31 284.93 441.13 277.89 430.11"/><polygon class="cls-5" points="262.71 429.28 254.57 439.55 261.6 450.57 269.75 440.29 262.71 429.28"/><polygon class="cls-5" points="247.53 428.54 239.39 438.72 246.42 449.74 254.57 439.55 247.53 428.54"/><polygon class="cls-5" points="232.35 427.8 224.21 437.98 231.24 449 239.39 438.72 232.35 427.8"/><polygon class="cls-5" points="217.17 426.97 209.03 437.24 216.06 448.16 224.21 437.98 217.17 426.97"/><polygon class="cls-5" points="201.99 426.23 193.85 436.41 200.88 447.42 209.03 437.24 201.99 426.23"/></g><path class="cls-13" d="m225.69,205.28c.93.65,1.85,1.3,2.41,2.31.46.83.56,1.76.65,2.68,1.85,16.48,3.61,33.04,5.46,49.52.37,2.96.65,6.11-.46,8.89-1.11,2.78-3.98,5.09-6.94,4.44-3.33-19.25-8.24-38.14-14.44-56.65-2.13-6.29-5.18-14.35-2.31-20.83,5,3.33,10.55,6.11,15.64,9.63Z"/><path class="cls-13" d="m241.33,193.99c-3.98,5.65-9.16,10.37-15.09,13.98-.46.28-.93.56-1.39.56-.56,0-1.11-.28-1.67-.56-6.39-3.52-12.13-8.61-15.92-14.9-2.41-4.07-3.98-8.61-4.35-13.33-.28-3.33-.56-10.09,4.35-7.96,7.87,3.33,14.25,10.64,21.2,15.55,3.98,2.78,8.24,5.28,12.87,6.66Z"/><path class="cls-24" d="m269.93,289.14c10.27,13.7,11.48,31.93,13.05,49.06,1.67,17.86,4.17,35.73,6.76,53.5.28,2.13,1.11,5,1.57,7.13.83,3.52,1.57,7.13,1.85,10.64.46,7.31,0,14.53.93,21.84.37,2.78,1.3,5.65,1.48,8.42.09,1.11-.65,2.41-.46,3.52.37,3.33,2.5,3.24-.65,6.2.56.83,2.13,1.94,2.31,2.96.09,1.02-.56,1.67-1.02,2.5,1.94-.37,3.8-.83,5.65-1.39-.28-4.26-.93-8.42-1.39-12.77-.65-6.29-1.76-12.59-1.94-18.98-.09-5.55.09-11.01-.74-16.48-.83-5.37-2.59-10.55-3.98-15.83-.37-1.48-2.41-10.37-2.78-10.09-1.48-9.26-3.05-18.51-3.8-27.95-.56-7.59-.56-15.18-1.48-22.68-1.48-12.77-5.37-25.08-9.16-37.3-.65,0-1.3,0-2.04-.65-1.67-1.48-.65-5.18-1.02-6.94-.19,1.3-.19,6.02-3.15,5.28Z"/><path class="cls-25" d="m202.55,172.33c5,10.74,3.7,19.81,9.26,29.06-8.42-2.22-17.4-2.31-25.73-.09,2.87-1.94,4.81-5,6.02-8.24s1.67-6.66,2.22-10.09c.37-2.59.93-6.57,1.48-9.16.56-2.31.56-4.17,3.15-5.18,1.67-.56,2.87,2.13,3.61,3.7Z"/></svg>