<svg xmlns="http://www.w3.org/2000/svg" xmlns:xlink="http://www.w3.org/1999/xlink" viewBox="0 0 331 438"><defs><style>.cls-1,.cls-15,.cls-29,.cls-30{fill:none;}.cls-2{fill:#6243cf;}.cls-3{fill:#fff;}.cls-4{fill:#1a293f;}.cls-5{fill:#9ac0e6;}.cls-6{fill:#d1e7fd;}.cls-7{clip-path:url(#clip-path);}.cls-8{fill:#729fcc;}.cls-9{fill:#f9efde;}.cls-10,.cls-13{fill:#dbc4b4;}.cls-10{opacity:0.63;}.cls-11{fill:#9e4a26;}.cls-12{fill:#121c2b;}.cls-13{opacity:0.32;}.cls-14{clip-path:url(#clip-path-2);}.cls-15{stroke:#852d07;stroke-width:0.51px;}.cls-15,.cls-29,.cls-30{stroke-miterlimit:10;}.cls-16{fill:#93c8fd;}.cls-17{fill:#4485c7;}.cls-18{opacity:0.84;}.cls-19{clip-path:url(#clip-path-3);}.cls-20{fill:#1c5d9c;}.cls-21{fill:#10161c;}.cls-22{fill:#202c38;}.cls-23{clip-path:url(#clip-path-4);}.cls-24{fill:#9e3636;}.cls-25{fill:#872f2f;}.cls-26{clip-path:url(#clip-path-5);}.cls-27{clip-path:url(#clip-path-6);}.cls-28{clip-path:url(#clip-path-7);}.cls-29,.cls-30{stroke:#729fcc;}.cls-29{stroke-width:0.42px;}.cls-30{stroke-width:0.84px;}</style><clipPath id="clip-path"><path class="cls-1" d="M146.36,245.84c-1.69,5.13.84,8.55-3.83,11.29-.69.4-9,1.34-8.67,2.07a1.67,1.67,0,0,0,.31.44c6.9,7.65,14.56,14.59,21.81,21.91,3.18,3.21,6.28,6.5,9.38,9.78l13.7,14.5c5.48,5.8,11,11.65,15.3,18.37,4-3.11,6.11-8.19,6.63-13.24s-.36-10.12-1.38-15.09c-3.74-18.17-9.64-36.44-21.49-50.71a7,7,0,0,0-2.33-2,7.67,7.67,0,0,0-3.34-.42,67.13,67.13,0,0,1-16.59-1.8C150.91,239.7,146.85,244.37,146.36,245.84Z"/></clipPath><clipPath id="clip-path-2"><path class="cls-1" d="M180.12,436.2l-11.67-1a232.79,232.79,0,0,0-15.38-105.75c-1.76-4.44-3.71-8.95-5.6-13.31-3.45-8-7-16.23-9.75-24.79-4.74-14.8-6.27-24-4.15-35.16a4.91,4.91,0,0,1,3.46-3.79l1.42.18a3.89,3.89,0,0,0,2.73-.67l1.75-1.2a1.91,1.91,0,0,1,2.42,2.17c-1.68,10-.54,22.2,3.52,34.9,2.57,8,6,16,9.36,23.71,1.91,4.44,3.9,9,5.73,13.65A244.52,244.52,0,0,1,180.12,436.2Z"/></clipPath><clipPath id="clip-path-3"><circle class="cls-1" cx="184.02" cy="197.67" r="1.66"/></clipPath><clipPath id="clip-path-4"><circle class="cls-1" cx="163.12" cy="198.66" r="1.66"/></clipPath><clipPath id="clip-path-5"><path class="cls-1" d="M152.55,190.19c-1.14,2.38-4.78,5.36-5.64,7.85-.94,2.73-2.85,5.82-2.77,8.71.29,11.18,4.92,18.12,6,19.15a5,5,0,0,1,1.14,4.76c-3.61-1-7.27-4.25-9.38-7.35A31.83,31.83,0,0,1,137.63,213a61.64,61.64,0,0,1-1.56-9.35,41.69,41.69,0,0,1,0-7.82,33.39,33.39,0,0,1,10.89-21.15,37.37,37.37,0,0,1,22-9.24,4,4,0,0,1,2.46.38c1.31.85,1.24,2.75,1,4.29-.3,2.1-.1,8.4-2.05,9.49-.89.49-2.92-.61-6.55-.17C158.93,180,154.83,185.45,152.55,190.19Z"/></clipPath><clipPath id="clip-path-6"><path class="cls-1" d="M172.9,165.63a4.16,4.16,0,0,1,3.46-.27,29.17,29.17,0,0,1,12.82,7.8c1.77,2.28,7.09,7.14,8.34,17.83.23,1.95,2.48,7-1.42,19.68-.45-1.09-1.75-3.71-1.7-4.9a16.39,16.39,0,0,0-.26-4.63c-.34-1.63-1.55-3-1.9-4.6-.27-1.29-.29-2.61-.46-3.91-.88-6.57-4.92-12.54-10.64-13.56-1.74-.31-7.9.92-8.92.46a2.26,2.26,0,0,1-1-2.27,40.35,40.35,0,0,1,.78-6.57A17.91,17.91,0,0,0,172,168,3.11,3.11,0,0,1,172.9,165.63Z"/></clipPath><clipPath id="clip-path-7"><path class="cls-1" d="M158.26,165.1a46.36,46.36,0,0,0-26.62,25,105,105,0,0,0-4.25,14.66c-.8,4.17-4.47,17.42-5,20-.37,1.76-1.59,4.95-1.34,6.69s2.55,3.9,3.45,5.38c1.34,2.17,2.45,4.49,3.83,6.63a7.71,7.71,0,0,1-.42-4.56,36.18,36.18,0,0,0,1-13.49c-.78-5,.34-19.67,2.28-26s4.35-18.23,16.65-28Z"/></clipPath></defs><g id="Layer_1" data-name="Layer 1"><rect class="cls-2" x="-57.89" y="45.94" width="452.21" height="342.54" transform="translate(385.42 48.99) rotate(90)"/></g><g id="Layer_2" data-name="Layer 2"><path class="cls-3" d="M306.73,477.79A126.9,126.9,0,0,0,304.56,456c-2.94-14.9-9.82-29.55-21.74-39-6.64-5.24-14.92-9-19.18-16.33-3.57-6.12-3.63-13.57-4.59-20.59-3.2-23.29-17-43.56-25.53-65.46-5.28-13.51-8.66-27.9-16.11-40.35s-20.38-23-34.87-22.35A13,13,0,0,1,188,238.51c1.74,1.32,4.17,4.87,7.71,5.46,5.42,4,4.38-24.26,4.74-36.55s-2.34-25.34-10.78-34.29-25.85-13.75-38.7-5.88c-21.38,13.1-31.9,41.31-30.17,66.32.16,2.25,3.09,5.5,4.61,7.16s4.66,2,5.82,0a35.84,35.84,0,0,0,9.88,9.87c-6.88,9.17-21.11,6.77-31.78,10.94C98,266,91.46,277.54,85,287.83a238.79,238.79,0,0,1-29.29,37.52c-5.54,5.81-11.77,10.86-17.43,16.51-4,4-2.54,12.41-1.06,17.33,3,9.94,10.4,18.34,18.63,24.42,12.3,9.09,27,14.93,38.14,25.38a55.39,55.39,0,0,0-7.74,25c-.22,3.49.1,7.44,2.77,9.7,3.8,3.23,9.49,1,14.46.61,14-1.13,24,13,36.73,19,18.4,8.7,39.81-.45,60.14-1.45a74.88,74.88,0,0,1,55.35,21C265,492,272,503.61,282.41,511.5c6,4.56,15.48,7.33,20.56,1.71,2.8-3.1,3.12-7.65,3.29-11.83C306.58,493.53,306.9,485.64,306.73,477.79Z"/><path class="cls-3" d="M295.43,526.85c-6.72,0-13.76-2.71-19.36-6.94-7.24-5.46-12.71-12.1-18-18.52a140.49,140.49,0,0,0-9.77-11.06,64.39,64.39,0,0,0-47.46-18,154,154,0,0,0-18.13,2.41c-14.73,2.54-31.42,5.42-47-2-5.53-2.61-10.22-6.16-14.75-9.6-6.24-4.73-11.63-8.8-16.63-8.4-.8.06-1.83.23-2.92.41-4.72.78-12.63,2.09-19.21-3.49-4.79-4.07-7-10.25-6.46-18.38a65.74,65.74,0,0,1,5.06-21.52c-4.39-3.18-9.26-6-14.32-9a184.44,184.44,0,0,1-16.89-10.72c-7.9-5.84-18.21-15.76-22.46-29.86-2.08-6.92-4.37-19.73,3.71-27.81,2.71-2.71,5.51-5.25,8.21-7.71,3.21-2.92,6.25-5.69,9-8.62a228.49,228.49,0,0,0,28-35.87l1.4-2.22c6.7-10.71,14.29-22.85,28.06-28.23a61.5,61.5,0,0,1,12.93-3.13c-.27-.25-.53-.51-.77-.78-3.61-3.93-7-8.29-7.36-13.55-1.81-26,8.37-59.61,35.17-76,17.48-10.7,40.53-4.37,51.86,7.64,6.58,7,14.28,19.87,13.64,41.81-.06,2.14-.08,4.92-.1,7.87-.11,16.9-.36,27.07-3.68,33a63,63,0,0,1,19.24,20.27c5.66,9.46,9.08,19.56,12.4,29.33,1.48,4.39,2.89,8.53,4.47,12.59,2.71,6.92,6,13.65,9.38,20.77,7.09,14.71,14.43,29.91,16.78,47.09.21,1.55.39,3.11.56,4.68.51,4.69,1,9.12,2.69,12,1.81,3.1,5.56,5.63,9.89,8.57,2.2,1.49,4.48,3,6.73,4.8,12.7,10,21.77,26.08,25.54,45.19a137.8,137.8,0,0,1,2.37,23.64h0c.18,8.26-.16,16.4-.48,24.26-.19,4.63-.51,12.38-6,18.46A20.06,20.06,0,0,1,295.43,526.85Zm-.38-20.56Zm-91.33-55.12A86,86,0,0,1,263,475.28,158.47,158.47,0,0,1,274.32,488c4.72,5.73,9.18,11.14,14.43,15.1a12.91,12.91,0,0,0,6.48,2.73,27.85,27.85,0,0,0,.51-4.89c.31-7.53.63-15.33.46-22.92a117.05,117.05,0,0,0-2-20c-2.8-14.19-9.17-25.82-17.94-32.74-1.63-1.3-3.49-2.56-5.47-3.89-5.65-3.82-12.05-8.15-16.28-15.4-4-6.79-4.75-14-5.44-20.36-.15-1.38-.3-2.75-.48-4.11-1.91-13.88-8.21-27-14.89-40.8-3.45-7.17-7-14.59-10-22.26-1.77-4.51-3.31-9.07-4.81-13.49-3.09-9.12-6-17.75-10.52-25.28-4.95-8.27-14.55-17.74-25.35-17.24l-8.81.41-1.95-8.61a23.53,23.53,0,0,1,10-24.57l6.21-4,1.14.87c.12-4.07.14-8.24.16-11.07,0-3.07,0-6,.11-8.34.19-6.66-.58-19-7.91-26.75-4.93-5.23-17-9.33-25.54-4.13-13.88,8.51-23.42,26.44-25.07,45.83L140,234.91a25.65,25.65,0,0,0,7,7l9.26,6.17-6.67,8.9c-7,9.33-17.68,10.95-26.27,12.25a51,51,0,0,0-10.12,2.19c-7.26,2.84-12.41,11.07-17.86,19.78l-1.43,2.29A250.78,250.78,0,0,1,63.3,332.63c-3.31,3.46-6.77,6.61-10.11,9.65-2.43,2.21-4.74,4.31-6.94,6.48a19.59,19.59,0,0,0,1,7.39c2,6.68,7.27,13.42,14.8,19a166.93,166.93,0,0,0,15,9.48c8.18,4.77,16.63,9.71,24.08,16.68l6.21,5.8L103,414.4a44.81,44.81,0,0,0-6.26,20.19l1.21-.2c1.4-.23,3-.49,4.66-.63,13-1,22.6,6.21,31.05,12.62,3.84,2.91,7.48,5.66,11,7.34,9.59,4.54,21.66,2.45,34.45.25a171.11,171.11,0,0,1,20.67-2.7C201.11,451.21,202.42,451.17,203.72,451.17Z"/><path class="cls-4" d="M305.42,512.27c-.21,1.44-.55,3.05-1.78,3.82a5.23,5.23,0,0,1-3.42.36l-5.38-.67-2.16-.27a26.62,26.62,0,0,1-2.65-.44,31.18,31.18,0,0,1-21.38-16.38,65,65,0,0,0-27.95-27.77c-16.41-8.49-35.77-10.3-54-7.24-7.53,1.27-15,3.34-22.59,3.77A54,54,0,0,1,121.62,450a21.54,21.54,0,0,0-4.77-4.48c-8.21-4.75-20.32,4.85-27.44-1.41-2.69-2.36-3.45-6.24-3.44-9.82,0-12.32,7.13-23.34,13.37-34,3.83-7.67,8.36-15,12.07-22.7,2.43-5.07,4.12-13.7,9.38-16.2,6.6-3.14,20-1.35,27.33-1.82l27.43-1.74c16.92-1.07,35.45-1.69,49,8.51,9.33,7,14.69,18.12,23,26.29,12.55,12.28,31.1,17.26,42.84,30.31,13,14.43,14.91,35.42,15.75,54.82C306.69,489.3,307,500.87,305.42,512.27Z"/><path class="cls-5" d="M156.54,264.42a2.5,2.5,0,0,0,1.32.78,2.43,2.43,0,0,0,1.25-.3c4.44-2,8-5.55,11.43-9,6.28-6.3,12.56-12.61,18.56-19.17a8.76,8.76,0,0,0,1.88-2.66,9,9,0,0,0,.43-2.41c1.1-13.22,2.21-26.51,1.25-39.74-.23-3.22-.64-6.56-2.41-9.25s-4.66-4.37-7.46-5.92c-3.67-2-7.44-4-11.56-4.8-8.36-1.6-6.85-5.64-14.39-1.68-7,3.68-19.58,14.91-21.73,22.55a112.14,112.14,0,0,0-3.06,14.72c-.75,8.83,3.06,21.27,0,32.53-1.33,4.94,8.46,8.72,12,12.39Q150.12,258.63,156.54,264.42Z"/><path class="cls-4" d="M206.39,260.16c7.1,4.63,11.89,12.13,15.18,19.94s5.27,16.11,8.09,24.11c5.63,16,14.52,30.64,20.85,46.36,6.18,15.31,11,27.94,11,51.46-1.34.2-4.84-5.14-6.17-4.94.6-16.48-2.61-30.56-10.65-45S226,325,215.28,312.45c-.85,12.4-7.51,23.54-11.66,35.26A89.71,89.71,0,0,0,199,386.5c-16.79-3.84-34.27,1.62-51.48.8A51.85,51.85,0,0,0,134,356.75c-2.35-2.55-5-4.87-7-7.69-4.24-5.94-5.39-13.51-5.86-20.79a145,145,0,0,1,4.43-46.06,65.47,65.47,0,0,1,6.35-16.51c1.07-1.82,2.57-3.75,4.67-3.87a6.47,6.47,0,0,1,3.05.81c17.4,8.22,26.13,28,41.39,39.71,1.23.94,2.76,1.88,4.22,1.38a4.61,4.61,0,0,0,2.4-3c3.06-8.08,2.27-17.09.51-25.55a119.16,119.16,0,0,0-3.67-13.63c-.75-2.26-5.05-9.87-2.44-10.88,1.77-.68,10.12,3.48,12.22,4.17A50.72,50.72,0,0,1,206.39,260.16Z"/><path class="cls-6" d="M146.36,245.84c-1.69,5.13.84,8.55-3.83,11.29-.69.4-9,1.34-8.67,2.07a1.67,1.67,0,0,0,.31.44c6.9,7.65,14.56,14.59,21.81,21.91,3.18,3.21,6.28,6.5,9.38,9.78l13.7,14.5c5.48,5.8,11,11.65,15.3,18.37,4-3.11,6.11-8.19,6.63-13.24s-.36-10.12-1.38-15.09c-3.74-18.17-9.64-36.44-21.49-50.71a7,7,0,0,0-2.33-2,7.67,7.67,0,0,0-3.34-.42,67.13,67.13,0,0,1-16.59-1.8C150.91,239.7,146.85,244.37,146.36,245.84Z"/><g class="cls-7"><polygon class="cls-8" points="101.96 251.49 109.33 257.19 106.33 266.01 98.95 260.31 101.96 251.49"/><polygon class="cls-8" points="112.34 248.37 119.71 254.07 116.7 262.89 109.33 257.19 112.34 248.37"/><polygon class="cls-8" points="122.72 245.25 130.09 250.95 127.08 259.77 119.71 254.07 122.72 245.25"/><polygon class="cls-8" points="133.1 242.13 140.47 247.83 137.47 256.65 130.09 250.95 133.1 242.13"/><polygon class="cls-8" points="143.48 239.01 150.85 244.71 147.84 253.53 140.47 247.83 143.48 239.01"/><polygon class="cls-8" points="153.86 235.89 161.23 241.59 158.22 250.41 150.85 244.71 153.86 235.89"/><polygon class="cls-8" points="164.24 232.77 171.61 238.47 168.6 247.29 161.23 241.59 164.24 232.77"/><polygon class="cls-8" points="106.33 266.01 113.7 271.71 110.69 280.53 103.32 274.83 106.33 266.01"/><polygon class="cls-8" points="116.7 262.89 124.08 268.59 121.07 277.41 113.7 271.71 116.7 262.89"/><polygon class="cls-8" points="127.08 259.77 134.46 265.47 131.45 274.29 124.08 268.59 127.08 259.77"/><polygon class="cls-8" points="137.47 256.65 144.84 262.35 141.83 271.17 134.46 265.47 137.47 256.65"/><polygon class="cls-8" points="147.84 253.53 155.22 259.23 152.21 268.05 144.84 262.35 147.84 253.53"/><polygon class="cls-8" points="158.22 250.41 165.6 256.11 162.59 264.93 155.22 259.23 158.22 250.41"/><polygon class="cls-8" points="168.6 247.29 175.98 252.99 172.97 261.81 165.6 256.11 168.6 247.29"/><polygon class="cls-8" points="110.69 280.53 118.06 286.23 115.06 295.05 107.68 289.35 110.69 280.53"/><polygon class="cls-8" points="121.07 277.41 128.44 283.11 125.43 291.93 118.06 286.23 121.07 277.41"/><polygon class="cls-8" points="131.45 274.29 138.82 279.99 135.81 288.81 128.44 283.11 131.45 274.29"/><polygon class="cls-8" points="141.83 271.17 149.2 276.87 146.19 285.69 138.82 279.99 141.83 271.17"/><polygon class="cls-8" points="152.21 268.05 159.58 273.75 156.57 282.57 149.2 276.87 152.21 268.05"/><polygon class="cls-8" points="162.59 264.93 169.96 270.63 166.95 279.45 159.58 273.75 162.59 264.93"/><polygon class="cls-8" points="172.97 261.81 180.34 267.51 177.33 276.33 169.96 270.63 172.97 261.81"/><polygon class="cls-8" points="115.06 295.05 122.43 300.75 119.42 309.57 112.05 303.87 115.06 295.05"/><polygon class="cls-8" points="125.43 291.93 132.81 297.63 129.8 306.45 122.43 300.75 125.43 291.93"/><polygon class="cls-8" points="135.81 288.81 143.19 294.51 140.18 303.33 132.81 297.63 135.81 288.81"/><polygon class="cls-8" points="146.19 285.69 153.57 291.39 150.56 300.21 143.19 294.51 146.19 285.69"/><polygon class="cls-8" points="156.57 282.57 163.95 288.27 160.94 297.09 153.57 291.39 156.57 282.57"/><polygon class="cls-8" points="166.95 279.45 174.32 285.15 171.32 293.97 163.95 288.27 166.95 279.45"/><polygon class="cls-8" points="177.33 276.33 184.71 282.03 181.7 290.85 174.32 285.15 177.33 276.33"/><polygon class="cls-8" points="119.42 309.57 126.79 315.27 123.78 324.09 116.41 318.39 119.42 309.57"/><polygon class="cls-8" points="129.8 306.45 137.17 312.15 134.16 320.97 126.79 315.27 129.8 306.45"/><polygon class="cls-8" points="140.18 303.33 147.55 309.03 144.54 317.85 137.17 312.15 140.18 303.33"/><polygon class="cls-8" points="150.56 300.21 157.93 305.91 154.92 314.73 147.55 309.03 150.56 300.21"/><polygon class="cls-8" points="160.94 297.09 168.31 302.79 165.3 311.61 157.93 305.91 160.94 297.09"/><polygon class="cls-8" points="171.32 293.97 178.69 299.67 175.68 308.49 168.31 302.79 171.32 293.97"/><polygon class="cls-8" points="181.7 290.85 189.07 296.55 186.06 305.37 178.69 299.67 181.7 290.85"/><polygon class="cls-8" points="174.53 229.73 181.9 235.43 178.9 244.25 171.52 238.55 174.53 229.73"/><polygon class="cls-8" points="184.91 226.61 192.28 232.31 189.28 241.13 181.9 235.43 184.91 226.61"/><polygon class="cls-8" points="195.29 223.49 202.66 229.19 199.66 238.01 192.28 232.31 195.29 223.49"/><polygon class="cls-8" points="205.67 220.37 213.04 226.07 210.04 234.89 202.66 229.19 205.67 220.37"/><polygon class="cls-8" points="216.05 217.25 223.42 222.95 220.41 231.77 213.04 226.07 216.05 217.25"/><polygon class="cls-8" points="226.43 214.13 233.8 219.83 230.79 228.65 223.42 222.95 226.43 214.13"/><polygon class="cls-8" points="236.81 211.01 244.18 216.71 241.18 225.53 233.8 219.83 236.81 211.01"/><polygon class="cls-8" points="178.9 244.25 186.27 249.95 183.26 258.77 175.89 253.07 178.9 244.25"/><polygon class="cls-8" points="189.28 241.13 196.65 246.83 193.64 255.65 186.27 249.95 189.28 241.13"/><polygon class="cls-8" points="199.66 238.01 207.03 243.71 204.02 252.53 196.65 246.83 199.66 238.01"/><polygon class="cls-8" points="210.04 234.89 217.41 240.59 214.4 249.41 207.03 243.71 210.04 234.89"/><polygon class="cls-8" points="220.41 231.77 227.79 237.47 224.78 246.29 217.41 240.59 220.41 231.77"/><polygon class="cls-8" points="230.79 228.65 238.17 234.35 235.16 243.17 227.79 237.47 230.79 228.65"/><polygon class="cls-8" points="241.18 225.53 248.55 231.23 245.54 240.05 238.17 234.35 241.18 225.53"/><polygon class="cls-8" points="183.26 258.77 190.63 264.47 187.63 273.29 180.25 267.59 183.26 258.77"/><polygon class="cls-8" points="193.64 255.65 201.01 261.35 198 270.17 190.63 264.47 193.64 255.65"/><polygon class="cls-8" points="204.02 252.53 211.39 258.23 208.38 267.05 201.01 261.35 204.02 252.53"/><polygon class="cls-8" points="214.4 249.41 221.77 255.11 218.76 263.93 211.39 258.23 214.4 249.41"/><polygon class="cls-8" points="224.78 246.29 232.15 251.99 229.15 260.81 221.77 255.11 224.78 246.29"/><polygon class="cls-8" points="235.16 243.17 242.53 248.87 239.52 257.69 232.15 251.99 235.16 243.17"/><polygon class="cls-8" points="245.54 240.05 252.91 245.75 249.9 254.57 242.53 248.87 245.54 240.05"/><polygon class="cls-8" points="187.63 273.29 195 279 191.99 287.81 184.62 282.11 187.63 273.29"/><polygon class="cls-8" points="198 270.17 205.38 275.88 202.37 284.69 195 279 198 270.17"/><polygon class="cls-8" points="208.38 267.05 215.76 272.75 212.75 281.57 205.38 275.88 208.38 267.05"/><polygon class="cls-8" points="218.76 263.93 226.14 269.63 223.13 278.45 215.76 272.75 218.76 263.93"/><polygon class="cls-8" points="229.15 260.81 236.52 266.51 233.51 275.33 226.14 269.63 229.15 260.81"/><polygon class="cls-8" points="239.52 257.69 246.9 263.39 243.89 272.21 236.52 266.51 239.52 257.69"/><polygon class="cls-8" points="249.9 254.57 257.28 260.27 254.27 269.1 246.9 263.39 249.9 254.57"/><polygon class="cls-8" points="191.99 287.81 199.36 293.51 196.35 302.33 188.98 296.63 191.99 287.81"/><polygon class="cls-8" points="202.37 284.69 209.74 290.39 206.73 299.21 199.36 293.51 202.37 284.69"/><polygon class="cls-8" points="212.75 281.57 220.12 287.27 217.11 296.1 209.74 290.39 212.75 281.57"/><polygon class="cls-8" points="223.13 278.45 230.5 284.15 227.49 292.98 220.12 287.27 223.13 278.45"/><polygon class="cls-8" points="233.51 275.33 240.88 281.04 237.87 289.86 230.5 284.15 233.51 275.33"/><polygon class="cls-8" points="243.89 272.21 251.26 277.92 248.25 286.74 240.88 281.04 243.89 272.21"/><polygon class="cls-8" points="254.27 269.1 261.64 274.8 258.63 283.62 251.26 277.92 254.27 269.1"/><polygon class="cls-8" points="123.67 323.74 131.04 329.44 128.03 338.26 120.66 332.56 123.67 323.74"/><polygon class="cls-8" points="134.04 320.62 141.42 326.32 138.41 335.14 131.04 329.44 134.04 320.62"/><polygon class="cls-8" points="144.42 317.5 151.8 323.2 148.79 332.02 141.42 326.32 144.42 317.5"/><polygon class="cls-8" points="154.8 314.38 162.18 320.08 159.17 328.9 151.8 323.2 154.8 314.38"/><polygon class="cls-8" points="165.18 311.26 172.56 316.96 169.55 325.78 162.18 320.08 165.18 311.26"/><polygon class="cls-8" points="175.56 308.14 182.94 313.84 179.93 322.66 172.56 316.96 175.56 308.14"/><polygon class="cls-8" points="185.94 305.02 193.31 310.72 190.31 319.54 182.94 313.84 185.94 305.02"/><polygon class="cls-8" points="128.03 338.26 135.4 343.96 132.39 352.78 125.02 347.08 128.03 338.26"/><polygon class="cls-8" points="138.41 335.14 145.78 340.84 142.77 349.66 135.4 343.96 138.41 335.14"/><polygon class="cls-8" points="148.79 332.02 156.16 337.72 153.15 346.54 145.78 340.84 148.79 332.02"/><polygon class="cls-8" points="159.17 328.9 166.54 334.6 163.53 343.42 156.16 337.72 159.17 328.9"/><polygon class="cls-8" points="169.55 325.78 176.92 331.48 173.91 340.3 166.54 334.6 169.55 325.78"/><polygon class="cls-8" points="179.93 322.66 187.3 328.36 184.29 337.18 176.92 331.48 179.93 322.66"/><polygon class="cls-8" points="190.31 319.54 197.68 325.24 194.67 334.06 187.3 328.36 190.31 319.54"/><polygon class="cls-8" points="132.39 352.78 139.77 358.48 136.76 367.3 129.39 361.6 132.39 352.78"/><polygon class="cls-8" points="142.77 349.66 150.15 355.36 147.14 364.18 139.77 358.48 142.77 349.66"/><polygon class="cls-8" points="153.15 346.54 160.53 352.24 157.52 361.06 150.15 355.36 153.15 346.54"/><polygon class="cls-8" points="163.53 343.42 170.91 349.12 167.9 357.94 160.53 352.24 163.53 343.42"/><polygon class="cls-8" points="173.91 340.3 181.28 346 178.28 354.82 170.91 349.12 173.91 340.3"/><polygon class="cls-8" points="184.29 337.18 191.66 342.88 188.66 351.7 181.28 346 184.29 337.18"/><polygon class="cls-8" points="194.67 334.06 202.04 339.76 199.04 348.58 191.66 342.88 194.67 334.06"/><polygon class="cls-8" points="136.76 367.3 144.13 373 141.12 381.82 133.75 376.12 136.76 367.3"/><polygon class="cls-8" points="147.14 364.18 154.51 369.88 151.5 378.7 144.13 373 147.14 364.18"/><polygon class="cls-8" points="157.52 361.06 164.89 366.76 161.88 375.58 154.51 369.88 157.52 361.06"/><polygon class="cls-8" points="167.9 357.94 175.27 363.64 172.26 372.46 164.89 366.76 167.9 357.94"/><polygon class="cls-8" points="178.28 354.82 185.65 360.52 182.64 369.34 175.27 363.64 178.28 354.82"/><polygon class="cls-8" points="188.66 351.7 196.03 357.4 193.02 366.22 185.65 360.52 188.66 351.7"/><polygon class="cls-8" points="199.04 348.58 206.41 354.28 203.4 363.1 196.03 357.4 199.04 348.58"/><polygon class="cls-8" points="141.12 381.82 148.5 387.52 145.49 396.34 138.12 390.64 141.12 381.82"/><polygon class="cls-8" points="151.5 378.7 158.88 384.4 155.87 393.22 148.5 387.52 151.5 378.7"/><polygon class="cls-8" points="161.88 375.58 169.25 381.28 166.25 390.1 158.88 384.4 161.88 375.58"/><polygon class="cls-8" points="172.26 372.46 179.63 378.16 176.63 386.98 169.25 381.28 172.26 372.46"/><polygon class="cls-8" points="182.64 369.34 190.01 375.04 187.01 383.86 179.63 378.16 182.64 369.34"/><polygon class="cls-8" points="193.02 366.22 200.39 371.92 197.39 380.74 190.01 375.04 193.02 366.22"/><polygon class="cls-8" points="203.4 363.1 210.77 368.8 207.77 377.62 200.39 371.92 203.4 363.1"/><polygon class="cls-8" points="196.24 301.98 203.61 307.68 200.6 316.5 193.23 310.8 196.24 301.98"/><polygon class="cls-8" points="206.62 298.86 213.99 304.56 210.98 313.38 203.61 307.68 206.62 298.86"/><polygon class="cls-8" points="217 295.74 224.37 301.44 221.36 310.26 213.99 304.56 217 295.74"/><polygon class="cls-8" points="227.38 292.62 234.75 298.32 231.74 307.14 224.37 301.44 227.38 292.62"/><polygon class="cls-8" points="237.75 289.5 245.13 295.2 242.12 304.02 234.75 298.32 237.75 289.5"/><polygon class="cls-8" points="248.13 286.38 255.51 292.08 252.5 300.9 245.13 295.2 248.13 286.38"/><polygon class="cls-8" points="258.51 283.26 265.89 288.96 262.88 297.78 255.51 292.08 258.51 283.26"/><polygon class="cls-8" points="200.6 316.5 207.97 322.2 204.97 331.02 197.59 325.32 200.6 316.5"/><polygon class="cls-8" points="210.98 313.38 218.35 319.08 215.34 327.9 207.97 322.2 210.98 313.38"/><polygon class="cls-8" points="221.36 310.26 228.73 315.96 225.72 324.78 218.35 319.08 221.36 310.26"/><polygon class="cls-8" points="231.74 307.14 239.11 312.84 236.1 321.66 228.73 315.96 231.74 307.14"/><polygon class="cls-8" points="242.12 304.02 249.49 309.72 246.48 318.54 239.11 312.84 242.12 304.02"/><polygon class="cls-8" points="252.5 300.9 259.87 306.6 256.86 315.42 249.49 309.72 252.5 300.9"/><polygon class="cls-8" points="262.88 297.78 270.25 303.48 267.24 312.3 259.87 306.6 262.88 297.78"/><polygon class="cls-8" points="204.97 331.02 212.34 336.72 209.33 345.54 201.96 339.84 204.97 331.02"/><polygon class="cls-8" points="215.34 327.9 222.72 333.6 219.71 342.42 212.34 336.72 215.34 327.9"/><polygon class="cls-8" points="225.72 324.78 233.1 330.48 230.09 339.3 222.72 333.6 225.72 324.78"/><polygon class="cls-8" points="236.1 321.66 243.48 327.36 240.47 336.18 233.1 330.48 236.1 321.66"/><polygon class="cls-8" points="246.48 318.54 253.86 324.24 250.85 333.06 243.48 327.36 246.48 318.54"/><polygon class="cls-8" points="256.86 315.42 264.24 321.12 261.23 329.94 253.86 324.24 256.86 315.42"/><polygon class="cls-8" points="267.24 312.3 274.62 318 271.61 326.82 264.24 321.12 267.24 312.3"/><polygon class="cls-8" points="209.33 345.54 216.7 351.24 213.69 360.06 206.32 354.36 209.33 345.54"/><polygon class="cls-8" points="219.71 342.42 227.08 348.12 224.07 356.94 216.7 351.24 219.71 342.42"/><polygon class="cls-8" points="230.09 339.3 237.46 345 234.45 353.82 227.08 348.12 230.09 339.3"/><polygon class="cls-8" points="240.47 336.18 247.84 341.88 244.83 350.7 237.46 345 240.47 336.18"/><polygon class="cls-8" points="250.85 333.06 258.22 338.76 255.21 347.58 247.84 341.88 250.85 333.06"/><polygon class="cls-8" points="261.23 329.94 268.6 335.64 265.59 344.46 258.22 338.76 261.23 329.94"/><polygon class="cls-8" points="271.61 326.82 278.98 332.52 275.97 341.34 268.6 335.64 271.61 326.82"/><polygon class="cls-8" points="213.69 360.06 221.07 365.76 218.06 374.58 210.69 368.88 213.69 360.06"/><polygon class="cls-8" points="224.07 356.94 231.45 362.64 228.44 371.46 221.07 365.76 224.07 356.94"/><polygon class="cls-8" points="234.45 353.82 241.83 359.52 238.82 368.34 231.45 362.64 234.45 353.82"/><polygon class="cls-8" points="244.83 350.7 252.21 356.4 249.2 365.22 241.83 359.52 244.83 350.7"/><polygon class="cls-8" points="255.21 347.58 262.58 353.28 259.58 362.1 252.21 356.4 255.21 347.58"/><polygon class="cls-8" points="265.59 344.46 272.96 350.16 269.96 358.98 262.58 353.28 265.59 344.46"/><polygon class="cls-8" points="275.97 341.34 283.35 347.04 280.34 355.86 272.96 350.16 275.97 341.34"/></g><path class="cls-9" d="M182.07,251.81l-3,7.91a7.47,7.47,0,0,1-11.16,3.53l-17-11.44V218.7h31.16Z"/><path class="cls-6" d="M194.58,243.76l-14.15-12.23,15.63-41.95s3.36,11.18.34,28.45S191.24,241.57,194.58,243.76Z"/><path class="cls-10" d="M182.07,251.81l-3,7.91a7.47,7.47,0,0,1-11.16,3.53l-17-11.44V218.7h31.16Z"/><path class="cls-11" d="M174.58,166.14a6.29,6.29,0,0,1,3.28,0c4.11,1,7.39,4,10,7.32,7,8.79,10.92,20.37,9.25,31.5-.33,2.2-.87,4.36-1.16,6.55-.26,1.94-.34,3.9-.74,5.81a17.42,17.42,0,0,1-11.57,12.72,57.59,57.59,0,0,0-3-16.86c-.75-2.22-1.63-4.68-.68-6.83a18.54,18.54,0,0,1-7.74-8.31,31.44,31.44,0,0,1-2.86-11.13,37.72,37.72,0,0,1,.66-11.61,35.81,35.81,0,0,1,1.89-5.6C172.59,168.15,172.67,166.73,174.58,166.14Z"/><path class="cls-9" d="M194.53,202.67,194,214.9a21.15,21.15,0,0,1-1.1,6.86c-1.08,2.71-3.21,4.84-5.3,6.86-3.91,3.81-8.33,7.8-13.78,8.17a15.32,15.32,0,0,1-2.71-.08c-1.08-.13-2.16-.34-3.23-.55-3.27.48-6.82-.9-9.61-2.68a39.5,39.5,0,0,1-7.37-6.61c-2.47-2.64-5-5.39-6.23-8.76a26.28,26.28,0,0,1-1.29-7.75c-.41-7-.35-14.14,2.22-20.62,2.06-5.21,5.62-9.66,9.18-14,3.79-4.62,13.48-8.83,18.92-8.81,2.14,0,3.76,2,5.42,3.32a51.16,51.16,0,0,1,7.49,7.79c3.21,3.95,6.41,8.59,5.9,13.66-.09.92,1.07,1.78,1.25,2.68.25,1.19-.25,2.2.26,3.31A10.67,10.67,0,0,1,194.53,202.67Z"/><path class="cls-4" d="M105.58,262.09c-8.27,4.05-12.87,12.86-17.22,21-5.1,9.53-10.66,18.94-18.07,26.8-6.9,7.32-15.26,13.13-22.2,20.4S35.48,346.94,36,357c.44,8.81,5.68,16.9,12.63,22.32,3.2,2.5,21.19,16.91,33.47,7.37,3.39-2.63,1.05-15.29,3.84-18.55C90.75,362.46,95.1,355.81,102,353a11.32,11.32,0,0,1,4.75-1,13.78,13.78,0,0,1,5.36,1.58,39.69,39.69,0,0,1,10.23,7.07c1.13,1.09,2.37,2.32,3.93,2.36,2.17.05,3.66-2.17,4.35-4.22a20,20,0,0,0,.45-11.28c-.85-3.36-2.58-6.5-3-9.94-.47-3.78.68-7.55,1-11.34a27.86,27.86,0,0,0-1.44-11.91,35.6,35.6,0,0,1-1.8-5.46c-.58-3.2.29-6.46,1.16-9.59l7.84-28.48c.76-2.76,2.48-8.14.64-10.82s-5.55-1.05-8.31-.92C119.94,259.38,112.29,258.81,105.58,262.09Z"/><path class="cls-12" d="M294.84,515.78l-2.16-.27a26.62,26.62,0,0,1-2.65-.44q-1.9-22.26-3.78-44.51c-.61-7.18-1.22-14.41-3.29-21.32s-5.74-13.51-11.46-17.9c-6.32-4.86-14.48-6.53-22.39-7.56a225,225,0,0,0-43.81-1.09c-5,.33-10.5.67-14.64-2.2-3.53-2.44-5.27-6.68-6.82-10.68a2.65,2.65,0,0,1-.26-1.32c.18-1.15,1.64-1.46,2.75-1.81s2.21-1.79,1.31-2.52c5.86,1.79,10.4-2,15.8-3.25a62.67,62.67,0,0,1,18.18-1.11,71.24,71.24,0,0,1,34.26,11.37c5.72,3.76,10.86,8.33,16.6,12,4.06,2.61,8.44,4.82,11.94,8.15,5.26,5,8.06,12.15,9.19,19.33s.74,14.49.51,21.75Q293.46,494.12,294.84,515.78Z"/><path class="cls-9" d="M214,419.26c-.92,1.89-2.13,3.64-2.92,5.59-2.3,5.66-.89,12.4-3.59,17.87-.19.38-.4.83.05,1.18a1.17,1.17,0,0,0,1.36,0,8.58,8.58,0,0,0,3.67-4.19,8.49,8.49,0,0,0,.55-5.72c.71,2.87,2.08,5.3,2.54,7.95.66,3.86,1.6,8,2.73,13.38a3.08,3.08,0,0,0,2.08,2.15,1.69,1.69,0,0,0,1.74-1.3,4.93,4.93,0,0,0-.08-2.35c-.92-4.59-1.42-9.78-2.33-14.38.34.07.7.45,1,1a15,15,0,0,1,1.58,5.16c.09.55.22,2.9.34,3.45s.43,1.86.56,2.48c.42,2,.71,3.61,1.07,5.71a2.36,2.36,0,0,0,.47,1.13,1.42,1.42,0,0,0,2.54-.43,4.41,4.41,0,0,0,.22-2c-.07-1.57-.32-3.19-.47-4.76-.07-.76,0-1.54-.12-2.3s-.32-1.43-.42-2.12c-.18-1.33-.47-2.6-.72-3.91a13.92,13.92,0,0,1-.14-3.46.45.45,0,0,1,.82-.21,9.36,9.36,0,0,1,1,3.76c.5,4.54,1.81,8.27,2.16,12.83.08,1,1.42,2.56,2.64,1.48,1.86-1.65.13-4-.05-6.32a59,59,0,0,0-1.12-7,32.55,32.55,0,0,1-.48-5.62.56.56,0,0,1,1.08-.13c1.46,3.51,1.4,7.51,2.07,11.29.16.9.83,1.77,1.69,1.48A23.83,23.83,0,0,0,236,444a52.85,52.85,0,0,0-.78-5.32l-1.28-7.06a67,67,0,0,0-1.91-8.42c-.62-1.94-1.41-3.82-1.92-5.78a33.16,33.16,0,0,1-.88-7,78.08,78.08,0,0,1,1.23-17,58.27,58.27,0,0,0-8.23,1.86c-1.56.48-4.65,1.24-5.54,2.78s0,4.81,0,6.51C216.71,409.58,216.24,414.71,214,419.26Z"/><path class="cls-6" d="M213.77,314.32c-4.56,7.71.85,12.11-8.31,25.77-2.75,4.09-9.76,25.11-10.88,35.1-.83,7.39-3.85,22.85-2.72,30,1,6.4,4.85,12.84,11.32,13.27,4,.26,7.84-1.44,11-3.89a48.7,48.7,0,0,0,8-8.76c0,4.28.42,8.82,2.95,12.28,2.69,3.7,7.51,5.49,12.07,5.18a21.76,21.76,0,0,0,12.34-5.44c1.2-1,3-2.14,4.14-1.09a6.75,6.75,0,0,1,.77,1.05,3.59,3.59,0,0,0,4.39.72,7,7,0,0,0,3-3.66c2.8-6.71-.16-14.5-4.49-20.33A7.44,7.44,0,0,0,258.5,390c.58-24.24-15.73-50.49-31.38-68C224.71,319.36,217.41,308.15,213.77,314.32Z"/><path class="cls-13" d="M194.53,202.67,194,214.9a21.15,21.15,0,0,1-1.1,6.86c-1.08,2.71-3.21,4.84-5.3,6.86-3.91,3.81-8.33,7.8-13.78,8.17a15.32,15.32,0,0,1-2.71-.08c3.14-4.23-1.12-7.91-.18-11a13.75,13.75,0,0,0,.86-4.62,12.64,12.64,0,0,0-.78-4.4c2.26.08,4.84-1,5.38-3.24a7.2,7.2,0,0,0-.53-3.89,80.93,80.93,0,0,1-2.55-9.94,83.5,83.5,0,0,1-1.45-17.86c.06-2.49-.12-4.87,1.24-7.05a10.41,10.41,0,0,1,5.36-4.24c.22-.08.43-.14.66-.2a51.16,51.16,0,0,1,7.49,7.79c3.21,3.95,6.41,8.59,5.9,13.66-.09.92,1.07,1.78,1.25,2.68.25,1.19-.25,2.2.26,3.31A10.67,10.67,0,0,1,194.53,202.67Z"/><path class="cls-11" d="M180.12,436.2l-11.67-1a232.79,232.79,0,0,0-15.38-105.75c-1.76-4.44-3.71-8.95-5.6-13.31-3.45-8-7-16.23-9.75-24.79-4.74-14.8-6.27-24-4.15-35.16a4.91,4.91,0,0,1,3.46-3.79l1.42.18a3.89,3.89,0,0,0,2.73-.67l1.75-1.2a1.91,1.91,0,0,1,2.42,2.17c-1.68,10-.54,22.2,3.52,34.9,2.57,8,6,16,9.36,23.71,1.91,4.44,3.9,9,5.73,13.65A244.52,244.52,0,0,1,180.12,436.2Z"/><g class="cls-14"><path class="cls-15" d="M142.32,250c-2.48,3.88-5,7.9-5.84,12.43"/><path class="cls-15" d="M136.45,251.81l2.28,4.23"/><path class="cls-15" d="M132.23,259.28a37.88,37.88,0,0,0,3.9,2.68,15.92,15.92,0,0,1,3,2.66"/><path class="cls-15" d="M146.16,256.56a36,36,0,0,0-5.88,6.21,20.37,20.37,0,0,0-3.55,7.74"/><path class="cls-15" d="M131.79,267.84a19.57,19.57,0,0,1,9.3,8.05"/><path class="cls-15" d="M146.93,267a41.5,41.5,0,0,0-4.77,6.45,15,15,0,0,0-2.12,7.65"/><path class="cls-15" d="M132.25,276.49a25.56,25.56,0,0,1,7.16,4,12.43,12.43,0,0,1,4.32,6.84"/><path class="cls-15" d="M143,293.26a17.1,17.1,0,0,1,1.9-8.2,37.61,37.61,0,0,1,4.63-6.2"/><path class="cls-15" d="M136.55,292a11.47,11.47,0,0,1,11.27,6.05"/><path class="cls-15" d="M147,303.71A11.48,11.48,0,0,1,153,292.45"/><path class="cls-15" d="M139.86,304.22a11.52,11.52,0,0,1,6.5-.64A14.19,14.19,0,0,1,153,307.2"/><path class="cls-15" d="M153.7,314.7a11.47,11.47,0,0,1,2.58-12.53"/><path class="cls-15" d="M141.45,314.09c2.38.85,3.65-1.61,8.53-.9,2.22.33,4.59,1.51,7.44,4.61"/><path class="cls-15" d="M160.2,312.23a17.56,17.56,0,0,0-3.42,12.64"/><path class="cls-15" d="M147.52,322.05c2,0,6.72,1.54,8,2.11,2.54,1.15,4.24,3.56,5.81,5.86"/><path class="cls-15" d="M165,322.54a29.18,29.18,0,0,0-3.2,5.75c-.77,2-.56,6.82.13,8.91"/><path class="cls-15" d="M168.87,335.61a6.73,6.73,0,0,0-2.33,1.84,10.29,10.29,0,0,0-2.08,5.09,30.25,30.25,0,0,0-.13,5.55"/><path class="cls-15" d="M156.36,345.94a12.29,12.29,0,0,1,8.44,2.63,11.25,11.25,0,0,1,3,3.93"/><path class="cls-15" d="M172.5,345.1a13,13,0,0,0-4.83,11.48"/><path class="cls-15" d="M159.71,354.46a10.17,10.17,0,0,1,7.87,2.05,9.9,9.9,0,0,1,3.36,5.65"/><path class="cls-15" d="M175.29,357.28a12.21,12.21,0,0,0-4.18,4.42c-.92,1.68-.77,4.26-.91,5.29"/><path class="cls-15" d="M152.49,335a21.55,21.55,0,0,1,7.58,1.33,27.54,27.54,0,0,1,5.26,3.15"/><path class="cls-15" d="M162.31,363.57a11.42,11.42,0,0,1,5.57,1.51,12.93,12.93,0,0,1,4.62,5.33"/><path class="cls-15" d="M177.91,365.93a10,10,0,0,0-4.54,3.12c-2.43,3-1.86,7.53-1.8,8.32"/><path class="cls-15" d="M164.2,373a13.44,13.44,0,0,1,7.37,4.35,13.26,13.26,0,0,1,2.93,6.24"/><path class="cls-15" d="M179.52,378.7a12.13,12.13,0,0,0-5.87,6.61,11.85,11.85,0,0,0-.38,6.34"/><path class="cls-15" d="M166.2,385.8a15.26,15.26,0,0,1,9.15,11.39"/><path class="cls-15" d="M181.56,392.25a11.65,11.65,0,0,0-5.23,3.41,12,12,0,0,0-2.85,8.24"/><path class="cls-15" d="M167.08,399.67a10.75,10.75,0,0,1,5.71,3.25,10.88,10.88,0,0,1,2.77,6.65"/><path class="cls-15" d="M181.82,406a9.44,9.44,0,0,0-4.83,2.3,9.87,9.87,0,0,0-3.09,6.89"/><path class="cls-15" d="M168.11,411.17A10.07,10.07,0,0,1,175.4,422"/><path class="cls-15" d="M182.42,418.61c-.46,0-5.3.39-7.77,4.51a9.37,9.37,0,0,0-1.18,5.87"/><path class="cls-15" d="M168.43,425.42a11.67,11.67,0,0,1,5.78,5.15,11.42,11.42,0,0,1,1.35,5.63"/></g><path class="cls-16" d="M184,199.39a1.72,1.72,0,1,1,1.72-1.72A1.73,1.73,0,0,1,184,199.39Z"/><path class="cls-4" d="M184,196a1.66,1.66,0,1,1-1.65,1.66A1.66,1.66,0,0,1,184,196m0-.13a1.79,1.79,0,1,0,1.79,1.79,1.79,1.79,0,0,0-1.79-1.79Z"/><circle class="cls-17" cx="184.02" cy="197.67" r="1.54"/><g class="cls-18"><g class="cls-19"><polygon class="cls-20" points="184.07 197.84 184.11 198.91 183.9 197.86 184.07 197.84"/><polygon class="cls-20" points="183.66 197.82 182.87 198.47 183.53 197.7 183.66 197.82"/><polygon class="cls-20" points="183.35 197.57 182.94 197.63 183.3 197.4 183.35 197.57"/><path class="cls-20" d="M184.39,197.62a.42.42,0,0,1,.2.08l.15.1.29.19-.33-.11-.17-.06a.26.26,0,0,0-.13,0Z"/><polygon class="cls-20" points="184.38 197.79 184.71 198.21 184.26 197.91 184.38 197.79"/><polygon class="cls-20" points="183.91 197.89 183.62 199.06 183.74 197.86 183.91 197.89"/><path class="cls-20" d="M184.44,197.16a1.91,1.91,0,0,1,.71,0,1.85,1.85,0,0,0-.65.22Z"/><polygon class="cls-20" points="183.72 197.98 183.32 198.38 183.58 197.88 183.72 197.98"/><path class="cls-20" d="M183.41,197.68a1.32,1.32,0,0,0-.45.21,1.49,1.49,0,0,1,.38-.37Z"/><path class="cls-20" d="M184.48,197.39a.69.69,0,0,1,.45.13.57.57,0,0,0-.41,0Z"/><polygon class="cls-20" points="184.29 197.91 184.43 198.37 184.13 197.98 184.29 197.91"/><polygon class="cls-20" points="183.45 197.45 182.38 197.35 183.46 197.28 183.45 197.45"/><polygon class="cls-20" points="183.53 197.04 182.99 196.18 183.66 196.93 183.53 197.04"/><polygon class="cls-20" points="183.81 196.77 183.81 196.36 183.99 196.74 183.81 196.77"/><path class="cls-20" d="M183.63,197.8a.43.43,0,0,1-.1.18l-.12.14-.23.27.16-.32.07-.16s.06-.11.05-.13Z"/><polygon class="cls-20" points="183.47 197.77 183 198.04 183.36 197.63 183.47 197.77"/><polygon class="cls-20" points="183.43 197.28 182.3 196.85 183.48 197.12 183.43 197.28"/><path class="cls-20" d="M184.08,197.9a1.92,1.92,0,0,1,0,.72,1.91,1.91,0,0,0-.13-.68Z"/><polygon class="cls-20" points="183.36 197.09 183.01 196.64 183.48 196.96 183.36 197.09"/><path class="cls-20" d="M183.7,196.82a1.41,1.41,0,0,0-.15-.48,1.67,1.67,0,0,1,.32.42Z"/><path class="cls-20" d="M183.85,197.91a.64.64,0,0,1-.19.43.53.53,0,0,0,0-.41Z"/><polygon class="cls-20" points="183.35 197.66 182.89 197.74 183.31 197.49 183.35 197.66"/><polygon class="cls-20" points="183.92 196.89 184.15 195.84 184.09 196.92 183.92 196.89"/><polygon class="cls-20" points="184.31 197.01 185.24 196.59 184.41 197.16 184.31 197.01"/><polygon class="cls-20" points="184.55 197.33 184.96 197.39 184.55 197.51 184.55 197.33"/><path class="cls-20" d="M183.55,197a.4.4,0,0,1-.17-.13l-.11-.13-.24-.26.29.19.15.1c.05,0,.1.07.12.06Z"/><polygon class="cls-20" points="183.6 196.86 183.39 196.36 183.75 196.77 183.6 196.86"/><polygon class="cls-20" points="184.09 196.88 184.66 195.82 184.25 196.96 184.09 196.88"/><path class="cls-20" d="M183.39,197.45a2.07,2.07,0,0,1-.7-.13,1.94,1.94,0,0,0,.68,0Z"/><polygon class="cls-20" points="184.29 196.84 184.78 196.56 184.4 196.98 184.29 196.84"/><path class="cls-20" d="M184.52,197.21a1.4,1.4,0,0,0,.49-.08,1.48,1.48,0,0,1-.46.26Z"/><path class="cls-20" d="M183.41,197.22a.63.63,0,0,1-.4-.24.67.67,0,0,0,.41.07Z"/><polygon class="cls-20" points="183.72 196.76 183.71 196.29 183.9 196.74 183.72 196.76"/><polygon class="cls-20" points="184.42 197.42 185.43 197.79 184.37 197.59 184.42 197.42"/><polygon class="cls-20" points="184.24 197.8 184.54 198.77 184.08 197.87 184.24 197.8"/><polygon class="cls-20" points="183.9 197.99 183.79 198.39 183.72 197.97 183.9 197.99"/><path class="cls-20" d="M184.33,197c0-.09.11-.11.15-.15l.15-.1.29-.2-.23.27-.12.13a.24.24,0,0,0-.07.11Z"/><polygon class="cls-20" points="184.48 197.11 185 196.97 184.56 197.27 184.48 197.11"/><polygon class="cls-20" points="184.4 197.59 185.38 198.3 184.31 197.74 184.4 197.59"/><path class="cls-20" d="M183.93,196.83a2.22,2.22,0,0,1,.21-.69,2.31,2.31,0,0,0,0,.69Z"/><polygon class="cls-20" points="184.42 197.8 184.64 198.32 184.27 197.89 184.42 197.8"/><path class="cls-20" d="M184,198a1.37,1.37,0,0,0,0,.49,1.53,1.53,0,0,1-.2-.49Z"/><path class="cls-20" d="M184.15,196.88a.72.72,0,0,1,.29-.37.57.57,0,0,0-.11.39Z"/><polygon class="cls-20" points="184.57 197.25 185.04 197.29 184.57 197.42 184.57 197.25"/><polygon class="cls-20" points="183.82 197.85 183.33 198.8 183.66 197.78 183.82 197.85"/><polygon class="cls-20" points="183.47 197.63 182.47 197.8 183.42 197.46 183.47 197.63"/><polygon class="cls-20" points="183.33 197.26 182.94 197.1 183.37 197.09 183.33 197.26"/><path class="cls-20" d="M184.21,197.81a.45.45,0,0,1,.13.17l.08.16.16.32-.23-.27-.11-.13a.25.25,0,0,0-.11-.09Z"/><polygon class="cls-20" points="184.12 197.95 184.2 198.49 183.95 198.01 184.12 197.95"/><polygon class="cls-20" points="183.66 197.81 182.83 198.69 183.52 197.7 183.66 197.81"/><path class="cls-20" d="M184.48,197.44a2.26,2.26,0,0,1,.65.3,2.28,2.28,0,0,0-.68-.13Z"/><polygon class="cls-20" points="183.45 197.8 182.91 197.95 183.38 197.64 183.45 197.8"/><path class="cls-20" d="M183.33,197.38a1.4,1.4,0,0,0-.5,0,1.48,1.48,0,0,1,.51-.13Z"/><path class="cls-20" d="M184.4,197.66a.66.66,0,0,1,.33.33.66.66,0,0,0-.38-.17Z"/><polygon class="cls-20" points="183.98 198.02 183.88 198.48 183.81 198 183.98 198.02"/></g></g><circle class="cls-21" cx="183.86" cy="197.28" r="0.87"/><circle class="cls-22" cx="183.47" cy="197.28" r="0.16"/><circle class="cls-22" cx="183.78" cy="196.89" r="0.31"/><path class="cls-4" d="M180.46,196.54a5.48,5.48,0,0,1,2.07-1.65,5.74,5.74,0,0,1,2.62-.55,5.51,5.51,0,0,1,2.62.69,3,3,0,0,1,1.62,2.19h0l.05.46-.38-.25a7.13,7.13,0,0,0-4.86-1.33,4.47,4.47,0,0,0-2.27,1,12.52,12.52,0,0,0-1.71,2,4.1,4.1,0,0,0-.65,1c0,.13,0,.09.1.14a.92.92,0,0,0,.49,0,6,6,0,0,0,.58-.29.93.93,0,0,1,.52,0,2.1,2.1,0,0,1,.35.14,4.44,4.44,0,0,0,1.19.31,4.75,4.75,0,0,0,4.33-1.87l.61.44a5.35,5.35,0,0,1-6.39,1.72c-.24-.11-.33-.15-.39-.12a4,4,0,0,1-.62.3,1.66,1.66,0,0,1-.83,0,.82.82,0,0,1-.45-.31.8.8,0,0,1-.09-.55,1.66,1.66,0,0,1,.38-.71l.41-.52a12.32,12.32,0,0,1,1.82-2,5,5,0,0,1,2.56-1.06,7.55,7.55,0,0,1,5.16,1.48l-.33.22h0a3.33,3.33,0,0,0-1.57-1.62,5.43,5.43,0,0,0-2.27-.63,5.78,5.78,0,0,0-2.36.39,5.58,5.58,0,0,0-2,1.34Z"/><path class="cls-11" d="M177.66,194.35a8.49,8.49,0,0,1,2.81-2.27,11.65,11.65,0,0,1,3.46-1.1,10.4,10.4,0,0,1,7,1.29l-.37.84a14.87,14.87,0,0,0-6.35-.38A14.63,14.63,0,0,0,178.3,195Z"/><path class="cls-16" d="M163.12,200.38a1.72,1.72,0,0,1-1.17-3,1.69,1.69,0,0,1,1.17-.46,1.71,1.71,0,0,1,1.72,1.78,1.68,1.68,0,0,1-.54,1.2,1.72,1.72,0,0,1-1.18.46Z"/><path class="cls-4" d="M163.12,197a1.63,1.63,0,0,1,1.21.53,1.65,1.65,0,1,1-1.21-.53m0-.12a1.8,1.8,0,0,0-1.22.48,1.71,1.71,0,0,0-.56,1.24,1.74,1.74,0,0,0,.48,1.28,1.8,1.8,0,0,0,1.3.57,1.79,1.79,0,1,0,0-3.57Z"/><circle class="cls-17" cx="163.12" cy="198.66" r="1.54"/><g class="cls-18"><g class="cls-23"><polygon class="cls-20" points="163.21 198.82 163.91 199.63 163.35 198.71 163.21 198.82"/><polygon class="cls-20" points="163.5 198.52 164.51 198.46 163.51 198.35 163.5 198.52"/><polygon class="cls-20" points="163.55 198.13 163.89 197.89 163.47 197.97 163.55 198.13"/><path class="cls-20" d="M162.82,198.88a.34.34,0,0,0-.08.19l-.05.17-.08.35.17-.31.08-.16c0-.05.06-.11.08-.11Z"/><polygon class="cls-20" points="162.94 198.99 162.99 199.53 163.12 199 162.94 198.99"/><polygon class="cls-20" points="163.36 198.74 164.37 199.4 163.47 198.6 163.36 198.74"/><path class="cls-20" d="M162.48,198.58a1.89,1.89,0,0,0-.56.44,1.83,1.83,0,0,1,.62-.28Z"/><polygon class="cls-20" points="163.56 198.68 164.12 198.7 163.59 198.51 163.56 198.68"/><path class="cls-20" d="M163.58,198.25a1.45,1.45,0,0,1,.47-.16,1.51,1.51,0,0,0-.52,0Z"/><path class="cls-20" d="M162.6,198.77a.7.7,0,0,0-.24.4.58.58,0,0,1,.33-.25Z"/><polygon class="cls-20" points="163.1 199.02 163.3 199.45 163.26 198.96 163.1 199.02"/><polygon class="cls-20" points="163.4 198.11 164.11 197.31 163.27 197.99 163.4 198.11"/><polygon class="cls-20" points="163.06 197.87 162.86 196.86 162.88 197.88 163.06 197.87"/><polygon class="cls-20" points="162.66 197.86 162.38 197.56 162.52 197.96 162.66 197.86"/><path class="cls-20" d="M163.5,198.49a.45.45,0,0,0,.2.06l.18,0,.35,0-.33-.13-.16-.06c-.06,0-.12,0-.12-.06Z"/><polygon class="cls-20" points="163.6 198.35 164.13 198.23 163.59 198.18 163.6 198.35"/><polygon class="cls-20" points="163.3 197.97 163.82 196.89 163.15 197.88 163.3 197.97"/><path class="cls-20" d="M163.25,198.87a2,2,0,0,0,.51.5,1.91,1.91,0,0,1-.36-.59Z"/><polygon class="cls-20" points="163.21 197.78 163.16 197.22 163.04 197.77 163.21 197.78"/><path class="cls-20" d="M162.78,197.82a1.45,1.45,0,0,1-.22-.45,1.54,1.54,0,0,0,.06.52Z"/><path class="cls-20" d="M163.42,198.72a.67.67,0,0,0,.43.19.6.6,0,0,1-.29-.3Z"/><polygon class="cls-20" points="163.61 198.2 164 197.94 163.53 198.04 163.61 198.2"/><polygon class="cls-20" points="162.67 198.02 161.78 197.41 162.56 198.16 162.67 198.02"/><polygon class="cls-20" points="162.47 198.38 161.5 198.71 162.5 198.55 162.47 198.38"/><polygon class="cls-20" points="162.51 198.78 162.25 199.09 162.63 198.91 162.51 198.78"/><path class="cls-20" d="M163,197.87a.44.44,0,0,0,0-.21v-.54l-.08.35,0,.17c0,.06,0,.12-.05.13Z"/><polygon class="cls-20" points="162.88 197.78 162.69 197.28 162.71 197.82 162.88 197.78"/><polygon class="cls-20" points="162.54 198.13 161.4 197.75 162.47 198.29 162.54 198.13"/><path class="cls-20" d="M163.44,198.07a2.19,2.19,0,0,0,.43-.58,2,2,0,0,1-.54.44Z"/><polygon class="cls-20" points="162.36 198.24 161.81 198.37 162.38 198.42 162.36 198.24"/><path class="cls-20" d="M162.45,198.67a1.46,1.46,0,0,1-.41.27,1.37,1.37,0,0,0,.51-.13Z"/><path class="cls-20" d="M163.27,197.92a.72.72,0,0,0,.13-.46.63.63,0,0,1-.26.33Z"/><polygon class="cls-20" points="162.72 197.79 162.41 197.44 162.58 197.9 162.72 197.79"/><polygon class="cls-20" points="162.67 198.75 162.18 199.71 162.82 198.84 162.67 198.75"/><polygon class="cls-20" points="163.05 198.9 163.5 199.82 163.22 198.85 163.05 198.9"/><polygon class="cls-20" points="163.44 198.81 163.79 199.03 163.55 198.68 163.44 198.81"/><path class="cls-20" d="M162.47,198.42a.31.31,0,0,0-.21,0l-.18,0-.35.06.35,0,.18,0c.06,0,.12,0,.13,0Z"/><polygon class="cls-20" points="162.41 198.57 161.93 198.82 162.46 198.74 162.41 198.57"/><polygon class="cls-20" points="162.8 198.86 162.57 200.05 162.97 198.91 162.8 198.86"/><path class="cls-20" d="M162.62,198a2.16,2.16,0,0,0-.63-.35,1.88,1.88,0,0,1,.5.47Z"/><polygon class="cls-20" points="162.93 199.03 163.12 199.56 163.1 198.99 162.93 199.03"/><path class="cls-20" d="M163.34,198.88a1.5,1.5,0,0,1,.32.38,1.28,1.28,0,0,0-.19-.49Z"/><path class="cls-20" d="M162.49,198.17a.71.71,0,0,0-.47-.07.62.62,0,0,1,.36.21Z"/><polygon class="cls-20" points="162.44 198.72 162.12 199.08 162.56 198.85 162.44 198.72"/><polygon class="cls-20" points="163.4 198.66 164.41 199.01 163.46 198.5 163.4 198.66"/><polygon class="cls-20" points="163.5 198.25 164.35 197.69 163.42 198.1 163.5 198.25"/><polygon class="cls-20" points="163.35 197.88 163.53 197.51 163.21 197.79 163.35 197.88"/><path class="cls-20" d="M163.09,198.89a.31.31,0,0,0,0,.22l0,.17.09.34v-.53a.28.28,0,0,1,0-.14Z"/><polyline class="cls-20" points="163.56 199.38 163.41 198.86 163.25 198.94 163.56 199.38"/><polygon class="cls-20" points="163.49 198.51 164.69 198.59 163.51 198.34 163.49 198.51"/><path class="cls-20" d="M162.64,198.8a2.14,2.14,0,0,0-.27.67,2,2,0,0,1,.4-.56Z"/><polygon class="cls-20" points="163.63 198.36 164.13 198.1 163.57 198.2 163.63 198.36"/><path class="cls-20" d="M163.44,198a1.16,1.16,0,0,1,.33-.37,1.3,1.3,0,0,0-.46.25Z"/><path class="cls-20" d="M162.84,198.91a.69.69,0,0,0,0,.47A.6.6,0,0,1,163,199Z"/><polygon class="cls-20" points="163.4 198.89 163.79 199.16 163.51 198.75 163.4 198.89"/></g></g><circle class="cls-21" cx="162.98" cy="198.27" r="0.87"/><circle class="cls-22" cx="162.92" cy="197.88" r="0.16"/><circle class="cls-22" cx="162.57" cy="198.24" r="0.31"/><path class="cls-4" d="M166.21,197.26a5.54,5.54,0,0,0-2.21-1,5.83,5.83,0,0,0-2.39,0,5.31,5.31,0,0,0-2.14,1,3.37,3.37,0,0,0-1.29,1.85h0l-.36-.16a7.58,7.58,0,0,1,4.86-2.3,5,5,0,0,1,2.69.63,12.82,12.82,0,0,1,2.13,1.7l.49.45a1.69,1.69,0,0,1,.48.63.72.72,0,0,1,0,.56.79.79,0,0,1-.39.38,1.67,1.67,0,0,1-.82.11,3.05,3.05,0,0,1-.66-.19c-.07,0-.15,0-.37.18a5.19,5.19,0,0,1-1.29.59,5.44,5.44,0,0,1-5.3-1.25l.54-.53a4.74,4.74,0,0,0,4.57,1.14,4.58,4.58,0,0,0,1.13-.5,2.07,2.07,0,0,1,.32-.19.84.84,0,0,1,.52-.07c.34.09.44.18.62.2a1,1,0,0,0,.48-.06c.12-.07.1,0,.08-.15s-.5-.56-.8-.87a11.76,11.76,0,0,0-2-1.65,4.4,4.4,0,0,0-2.41-.61,7.13,7.13,0,0,0-4.58,2.11l-.33.3,0-.47h0a3,3,0,0,1,1.24-2.41,5.48,5.48,0,0,1,2.47-1.11,5.65,5.65,0,0,1,2.68.12,5.42,5.42,0,0,1,2.31,1.3Z"/><path class="cls-11" d="M168.35,195.11A15.87,15.87,0,0,0,162,193.7a17.34,17.34,0,0,0-6.49,1.12l-.44-.8a11.58,11.58,0,0,1,6.95-2.09,12.19,12.19,0,0,1,3.65.6,8.67,8.67,0,0,1,3.22,1.83Z"/><path class="cls-4" d="M172.87,196.11a60.82,60.82,0,0,0,2.83,11.77c.32,1,.72,1.89,1,2.91a5,5,0,0,1-.1,3.22,5.09,5.09,0,0,1-2.24,2.32c-.23.14-.47.26-.7.38l-.18.09a1.44,1.44,0,0,1-.25.08l-.42.09a6,6,0,0,1-1.65,0l.15-.88a5.81,5.81,0,0,0,1.38,0l.32-.06.11,0,.17-.07.65-.33a4.39,4.39,0,0,0,2-1.91A4.28,4.28,0,0,0,176,211c-.21-1-.58-1.9-.88-2.88a60.83,60.83,0,0,1-2.53-11.92Z"/><path class="cls-24" d="M174.21,222.14l-1.6-1.44s-.62-.61-.66-.63a8.66,8.66,0,0,0-1.14,0,34.19,34.19,0,0,1-3.43,1.92,13.07,13.07,0,0,1-1.4-.74l-1,2.1s2.47-1.14,2.63-1.14Z"/><path class="cls-24" d="M171.67,222.14l1.7-1.44s.67-.61.71-.63a9.76,9.76,0,0,1,1.21,0,35.65,35.65,0,0,0,3.64,1.92,13.73,13.73,0,0,0,1.49-.74l1.11,2.1s-2.63-1.14-2.8-1.14Z"/><polygon class="cls-25" points="169.58 222.19 171.48 224.09 174.85 224.09 176.92 222.02 169.58 222.19"/><path class="cls-11" d="M154.86,188.55c-.66,2.55-3.14,6.19-5.87,8.89-2,2-4.93,6.42-4.85,9.31.29,11.18,5.07,18,6,19.15A4.29,4.29,0,0,1,151,227c.55,1.46.57,3.6-.08,4.51a20.6,20.6,0,0,1-10-7.44A33,33,0,0,1,136.65,214c-1.9-6.88-.22-15.12.53-17.62,2.61-8.65,5.58-15,11.35-20.7C155,169.3,160.87,166,169,165.39a4,4,0,0,1,2.46.38c1.31.85,1.24,2.75,1,4.29-.3,2.1-.1,8.4-2.05,9.49-.89.49-2.92-.61-6.55-.17C158.93,180,156,184.1,154.86,188.55Z"/><path class="cls-11" d="M176.74,165.71a25.42,25.42,0,0,1,12.56,8c1.49,1.91,5.87,3.93,7,12.68.2,1.46,1.63,4,1.84,5.75.23,1.95,1.81,5.85-2.09,18.48-.45-1.09-1.75-3.71-1.7-4.9.09-2.23-.06-3.89-.88-5.12a28.34,28.34,0,0,1-2.79-7.46c-1.55-9.25-5.42-12.07-11.14-13.09-1.74-.31-6.35-.11-7.37-.57a2.26,2.26,0,0,1-1-2.27,40.35,40.35,0,0,1,.78-6.57A17.91,17.91,0,0,0,172,168C172,167.2,173.28,164.76,176.74,165.71Z"/><g class="cls-26"><path class="cls-15" d="M152.22,229.13c-6.35-5.21-9.51-13.65-9.51-21.86a18.25,18.25,0,0,1,.39-4.11c.33-1.4.9-6.27,3.91-9.39,4.51-4.67,2.74-6.28,6.41-10.86,4-5,8.79-5.18,14.68-5.25a2.71,2.71,0,0,0,2.68-2.5q.24-3.34.27-6.71a1.88,1.88,0,0,0-.41-1.44,1.78,1.78,0,0,0-1.18-.33c-6.87-.15-11.49,3.58-17.86,7.71-5.52,3.58-16.51,20-14.38,33.83a32.32,32.32,0,0,0,4,12.17,23.14,23.14,0,0,0,11.85,10.28"/><path class="cls-15" d="M152.45,230c-6.52-4.33-10.35-12.06-11.47-19.81-1.25-8.58,1.52-13.58,3.1-15.47,4-4.83,2.69-7.38,5.41-11.19s9.68-7.21,16.61-7.67c1.05-.07,2.28-.17,2.84-1.07a3,3,0,0,0,.34-1.26,18,18,0,0,0,.05-2.65,2.93,2.93,0,0,0-1.08-2.47,3,3,0,0,0-2.38,0,41.72,41.72,0,0,0-10.6,5.44,50.74,50.74,0,0,0-5.81,4.41c-7.65,6.85-10.89,17.53-10.49,28.11a32.81,32.81,0,0,0,4.46,15.33c2.71,4.52,7.09,7.65,12,9.66"/><path class="cls-15" d="M140.32,199.14c1.2-5.57,3.87-13.17,7.68-17.4a34.56,34.56,0,0,1,6.1-5.49c3.32-2.31,6.79-4.62,10.75-5.42a2.15,2.15,0,0,1,1.83.21,1.61,1.61,0,0,1-.17,2.32,5,5,0,0,1-2.42,1,33,33,0,0,0-13.18,6.24c-4.06,3.05-8.45,11.05-10.59,18.57"/></g><g class="cls-27"><path class="cls-15" d="M194.42,222.3a11,11,0,0,0,1.43-6.16c0-2.14-.31-4.28-.15-6.42.13-1.85.61-3.67.71-5.53a13.77,13.77,0,0,0-.89-5.65c-.45-1.16-1.06-2.25-1.46-3.43a36.34,36.34,0,0,1-.95-4.13,19.19,19.19,0,0,0-4.47-9,13.18,13.18,0,0,0-8.88-4.35c-1.71-.08-3.64.17-4.95-.94a4.91,4.91,0,0,1-1.39-3.61,14.38,14.38,0,0,1,.57-4.79,2.67,2.67,0,0,1,.65-1.26c.84-.79,2.2-.39,3.24.1a36.6,36.6,0,0,1,14,11.29,15.75,15.75,0,0,1,2.19,3.84c.43,1.18.64,2.42,1,3.63.5,1.82,1.28,3.55,1.73,5.39a27.47,27.47,0,0,1,.65,4.44,141.09,141.09,0,0,1,.34,19.18"/><path class="cls-15" d="M196.55,211.15l.5-6.23a18.26,18.26,0,0,0-.21-6.13c-.31-1.16-.86-2.24-1.18-3.4a28.45,28.45,0,0,1-.64-3.69,22,22,0,0,0-3.26-9,14.89,14.89,0,0,0-7.38-5.93,58.12,58.12,0,0,0-6-1.32,5.32,5.32,0,0,1-1.86-.71,3,3,0,0,1,.12-5.08,2.25,2.25,0,0,1,1.12-.36,2.93,2.93,0,0,1,1.25.32c2.71,1.23,4.52,3.8,6.81,5.7a49.17,49.17,0,0,1,4.66,3.67,19.22,19.22,0,0,1,3.6,6.68,35.88,35.88,0,0,1,1.46,4.47c.37,1.61.52,3.26.87,4.86.23,1.08.56,2.14.76,3.22,1,5.41-1,11-.22,16.47"/><path class="cls-15" d="M181.62,172.82a5,5,0,0,0-2.74-1.68,1.65,1.65,0,0,0-1.13.27,1,1,0,0,0-.42,1,1.49,1.49,0,0,0,1.16.88c.57.15,1.17.21,1.75.32a10.76,10.76,0,0,1,3.81,1.63C183.38,174.67,182.07,173.27,181.62,172.82Z"/></g><path class="cls-4" d="M178.81,172.51A37.08,37.08,0,0,0,158,173.84c-7.84,2.8-14.82,10-18.33,17.77-1.69,3.74-2.29,7.89-2.83,12a31,31,0,0,0,.28,10.11c-2-1.94-2.52-9.67-1.46-16.81,1.27-8.6,4.48-16.78,10.59-23,6.68-6.85,18.7-11.61,28.37-9.62,4.55.94,12.23,1.72,20.43,16.61a34.05,34.05,0,0,1,3.25,19c-.85-4-1.61-7.94-2.21-10.2a26.47,26.47,0,0,0-3.53-7.92A21.78,21.78,0,0,0,178.81,172.51Z"/><path class="cls-3" d="M128.56,236.83a12,12,0,0,0-1,4V241c.22,3.08,2.28,3.8,3.7.93,2.43-4.92,1.79-11.71,1.32-17-.67-7.59-1.38-14.05,0-21.73,2.51-14,10.37-28.32,23.81-34.62,14.09-6.61,30.79-3.64,37.39,11.12,7.42,16.62,2.61,36.26.32,53.47-.34,2.58-1.46,6.82-.18,9.32a2.08,2.08,0,0,0,3.55.28c.51-.76,0-3.47,0-4.56.63-12.88,3.09-26,2.19-38.93-.49-6.92-.75-15-4.4-21-10.13-16.8-24.75-14.86-31.58-13.82-11.92,1.82-20.57,9.53-26.53,19.81-7,12.06-8.7,26.09-8.36,39.63.08,2.87.42,5.74.3,8.62A28,28,0,0,1,128.56,236.83Z"/><path class="cls-6" d="M128,236.67c-.65,2-2.12,6.17.55,7.51,2.47,1.25,3.88-2.9,4.35-4.54,1.95-6.88.31-14.5-.17-21.48a58.92,58.92,0,0,1,2.45-22.44,49.62,49.62,0,0,1,9.5-17.31c8-9.25,21.08-14.9,33.29-11.64a23.07,23.07,0,0,1,13.63,10c3.9,6.23,5.3,14,5.57,21.22.29,7.78-.7,15.55-1.85,23.24-.54,3.65-1.12,7.29-1.62,11-.41,2.95-1.33,6.11-.75,9.1a3.49,3.49,0,0,0,2,2.78,2.58,2.58,0,0,0,2.89-.57c.77-.81.65-2,.58-3a36,36,0,0,1,0-4.87c.56-8.44,1.73-16.82,2.11-25.27a111.54,111.54,0,0,0-.17-12.4,93.91,93.91,0,0,0-1.08-10.45,30.51,30.51,0,0,0-9.59-17.35,26.29,26.29,0,0,0-13.55-6.58,38.09,38.09,0,0,0-11.33.12,34.82,34.82,0,0,0-16.08,6.43,45.41,45.41,0,0,0-12.06,14c-7.66,13.33-8.94,29-8.11,44.07a26.32,26.32,0,0,1-.53,8.49.62.62,0,0,0,1.2.33,24.12,24.12,0,0,0,.65-7.38c-.14-3.86-.39-7.68-.3-11.55a80.59,80.59,0,0,1,3.19-21.72c3.71-12.21,11.73-24.45,24-29.35a39.67,39.67,0,0,1,12.94-2.57,27.51,27.51,0,0,1,12.72,2.3,29.16,29.16,0,0,1,12.87,12.52c3.35,6.1,3.49,13.49,3.94,20.27.52,8-.21,16.07-1,24.06-.39,4.08-.81,8.16-1.07,12.25a31.75,31.75,0,0,0,0,4.47,6.1,6.1,0,0,1,0,1.81,1.29,1.29,0,0,1-2.08.61c-1.27-.92-1.06-3.32-.94-4.67.13-1.54.46-3,.67-4.57.5-3.47,1-6.95,1.54-10.42a153.88,153.88,0,0,0,2.16-21.62c.11-12.1-2.61-26.56-13.87-33.24-9.45-5.62-21.68-4.16-30.93,1.13-10.75,6.15-17.57,17.5-20.63,29.24a64.08,64.08,0,0,0-1.41,21.65c.29,3.5.7,7,.83,10.53s0,7.07-1.37,10.27c-.49,1.15-1.89,3.27-2.61,1.07-.57-1.74.19-3.45.72-5.09C129.41,236.23,128.2,235.9,128,236.67Z"/><path class="cls-6" d="M158.26,165.1a46.36,46.36,0,0,0-26.62,25,105,105,0,0,0-4.25,14.66c-.8,4.17-4.47,17.42-5,20-.37,1.76-1.59,4.95-1.34,6.69s2.55,3.9,3.45,5.38c1.34,2.17,2.45,4.49,3.83,6.63a7.71,7.71,0,0,1-.42-4.56,36.18,36.18,0,0,0,1-13.49c-.78-5,.34-19.67,2.28-26s4.35-18.23,16.65-28Z"/><path class="cls-8" d="M192.13,241.06c-.13,0-.7-1.13-.56-1.38l-.23.09c.45.17.69.75,1.23.69a.79.79,0,0,0,.64-.83.83.83,0,0,0-.61-.79c-.29-.11-.7-.11-.84-.44s0-.59.29-.46a2.16,2.16,0,0,1,.31.24c.78.5,1.27-.27.83-1-.24-.39-.53-.46-.92-.64-.22-.11-.56-.61-.2-.68.17,0,.48.19.69.2a.81.81,0,0,0,.59-1.42,1.36,1.36,0,0,0-.48-.2c-.23-.07-.88-.38-.69-.75s.66.31,1,.29.55-.48.6-.76-.16-.62-.49-.83c-.16-.09-.45-.21-.52-.4-.26-.61.45-.17.68-.07a.56.56,0,0,0,.77-.25,1.32,1.32,0,0,0-.11-1.06.9.9,0,0,0-.4-.44,1.6,1.6,0,0,0-.21,0A.89.89,0,0,1,193,230c-.16-.25-.09-.45.22-.6s.59.23.9.1.33-.68.31-1a.81.81,0,0,0-.41-.75,2.76,2.76,0,0,0-.27-.08l-.1,0q-.51-.12,0-.75c.19-.05.43.09.63.06.77-.11.55-1.24-.05-1.45-.19-.07-.82-.16-.52-.54.09-.12.44-.12.58-.16a1.13,1.13,0,0,0,.87-.86c.06-.48-.31-.74-.65-1-.75-.56.33-.75.72-1a1,1,0,0,0,.36-.89.92.92,0,0,0-.28-.53c-.15-.15-.59-.33-.44-.56s.54-.14.68-.2a.79.79,0,0,0,.38-.34A.6.6,0,0,0,196,219c0-.23-.41-.47-.36-.69s.43-.37.55-.52a.7.7,0,0,0,.2-.4c0-.39-.46-.42-.48-.73,0-.15.43-.46.51-.63a1.07,1.07,0,0,0,0-.84c0-.06-.1-.12-.11-.17s-.14-.21,0-.37a1.8,1.8,0,0,0,.19-.2,1,1,0,0,0,.25-.54c0-.16-.1-.21-.15-.33-.24-.57,0-.39.26-.74a.68.68,0,0,0,.15-.47c0-.2-.38-.41-.33-.61s.3-.22.35-.37a.56.56,0,0,0-.06-.49c-.05-.08-.15-.12-.19-.19s0-.22,0-.4a.72.72,0,0,0,.08-.59.21.21,0,0,0-.4.11c.06.23-.19.4-.23.6a.6.6,0,0,0,.11.45c.16.23.27.2.09.52-.06.1-.16.12-.19.27a.83.83,0,0,0,.13.53c.14.26.21.29-.05.53s-.45.37-.28.8c.06.15.21.27.22.42s-.38.44-.49.67a.53.53,0,0,0,0,.41s0,.05.06.09c.21.49.37.37-.09,1-.17.24-.36.43-.23.75s.58.34.26.74-.65.33-.56.85a1.47,1.47,0,0,0,.15.34s.12.1.14.15c.14.36-.23.42-.48.48s-.62.18-.67.5.29.55.53.77c1.09,1-1.5,1.08-1.14,2.14.14.41.74.41.91.8.35.82-.92.72-1.27,1a.64.64,0,0,0-.07.83c.22.37.9.31,1,.73s-.71.21-1,.32a.72.72,0,0,0-.53.78c.07.46.49.6.85.76s.41.33.38.72-.13.3-.45.23c-.7-.15-1.3.32-1,1.06.25.58.92.36,1.16.88.16.34.15.72-.33.54a1.69,1.69,0,0,0-.55-.23c-.93-.08-.72.83-.26,1.25a2.57,2.57,0,0,0,.44.29c.2.13.53.26.18.63s-.07.12-.23.05c-.33-.14-.45-.5-.88-.31-.69.3-.25,1.32.24,1.58.19.11.53.1.7.24a.39.39,0,0,1-.23.71,1.19,1.19,0,0,1-.42-.11c-.27-.08-.61-.27-.82,0a1.18,1.18,0,0,0,.15,1.16c.33.34,1,.2,1.17.78s-.42.18-.64,0a.8.8,0,0,0-.53-.17.62.62,0,0,0-.48.82,1.17,1.17,0,0,0,.88.91,2.15,2.15,0,0,1,.36.11c.63.36.23.91-.38.57-.25-.14-.38-.35-.66-.45a.22.22,0,0,0-.24.09,1.45,1.45,0,0,0,.24,1.34c.13.22.45.78.79.66s.14-.5-.11-.4Z"/><g class="cls-28"><path class="cls-8" d="M126.63,240.81a2.24,2.24,0,0,0,.36-2.22,4.63,4.63,0,0,0-.49-.9c-.15-.22-.49-.56-.53-.84s.41-.11.54.11a4.36,4.36,0,0,0,.35.59.57.57,0,0,0,.74.17c.5-.32.39-1.23.14-1.66a3.25,3.25,0,0,0-.73-.75,3.17,3.17,0,0,1-.48-.49.66.66,0,0,1-.17-.39c-.08-.23.08-.32.46-.27l.17.17c.43.31.92.45,1.11-.22a1.26,1.26,0,0,0,0-.79c-.18-.43-.67-.53-1-.83s-.4-.64.1-.57c0,0,.09.1.14.11a2,2,0,0,0,.35.1.6.6,0,0,0,.61-.37c.36-.92-.72-1.24-1.19-1.73-.06-.07-.27-.26-.28-.37-.06-.51.14-.25.29-.23s.25.14.39.16a.5.5,0,0,0,.55-.26c.41-.69-.33-1.15-.82-1.48a.89.89,0,0,1-.29-.22c-.38-.64,0-.55.26-.7s.38-.14.55-.26a1.1,1.1,0,0,0,.47-.88,1.52,1.52,0,0,0-.42-1.07,3.1,3.1,0,0,0-.46-.35,1.49,1.49,0,0,1-.31-.2c-.55-.7,0-.69.26-.72.56,0,1.08-.31.85-1-.11-.34-.44-.47-.73-.64-.08-.05-.43-.22-.44-.31,0-.34.47-.11.63-.11.74,0,.74-.9.45-1.38a2.06,2.06,0,0,0-.5-.52c-.22-.18-.47-.32-.1-.59s.63-.16.75-.6c.19-.68-.37-1.13-.86-1.43,0,0-.23-.11-.26-.17-.42-.8.32-.49.51-.53s.33,0,.51-.08a.65.65,0,0,0,.27-.73,1.73,1.73,0,0,0-.75-1l-.15-.12c-.15-.11-.35-.49-.17-.69s.5-.07.62-.13a.71.71,0,0,0,.45-.65c0-.44-.46-.53-.62-.87-.31-.69.45-.3.7-.61s.06-.67-.07-.92-1-1-.43-1.2c.26-.11.53.06.75-.21a.93.93,0,0,0,0-.9c-.06-.17-.26-.35-.31-.51l0-.37c-.1-.29,0-.43.24-.4s.28,0,.41-.12a.52.52,0,0,0,.22-.54c-.05-.4-.35-.53-.55-.82-.34-.52.45-.75.68-1.13a1.09,1.09,0,0,0,.07-1c-.19-.45-.81-1.08-.06-1.32.32-.11.72-.25.8-.63s-.16-.53-.34-.75c-.44-.57,0-.63.42-.86a.94.94,0,0,0,.52-.55c.12-.41-.17-.6-.33-.92-.42-.89.43-.75.86-1a1,1,0,0,0,.4-1,1.82,1.82,0,0,0-.16-.55c-.09-.22-.4-.53-.44-.75-.07-.42.17-.13.33,0a.7.7,0,0,0,.41.16c.67,0,.68-1,.47-1.41a1.76,1.76,0,0,0-.35-.41c-.14-.17-.23,0-.14-.27s.07-.11.28-.12c.36,0,.62,0,.87-.28a.88.88,0,0,0,.09-.9c-.07-.13-.18-.17-.25-.29s-.24-.37-.11-.61a.41.41,0,0,1,.46-.26l.09.08c.25,0,.38.1.61-.1a1,1,0,0,0,.34-.86c-.05-.39-.27-.4-.51-.61s-.08-.66.33-.53c.14.05.22.17.39.17.8,0,.79-1.26.71-1.77a1.13,1.13,0,0,0-.16-.5c0-.05-.26-.2-.26-.22-.1-.34.8-.2,1-.25a1,1,0,0,0,.64-1.44c-.09-.11-.22-.14-.31-.24s-.15,0-.13-.26.4-.16.65-.19a1,1,0,0,0,.74-.34,1.42,1.42,0,0,0-.12-1.64l-.12.31c.31-.11.65.11,1,0a.71.71,0,0,0,.35-.57c0-.33-.28-.65.18-.75.23,0,.4.06.61-.12a.61.61,0,0,0,.16-.64c-.06-.25-.25-.34,0-.42s.35.06.55,0a.7.7,0,0,0,.55-1c-.09-.24-.4-.42-.09-.63a4,4,0,0,1,.64-.2c.29-.12.68-.37.48-.75,0-.06-.1-.09-.13-.15s-.12,0,0,0h.13c.21,0,.53.1.71,0s.14-.53.24-.74a1.16,1.16,0,0,1,.49-.56c.21-.12.53-.1.72-.24s.17-.41.25-.64c.15-.46.34-.51.75-.54a1.79,1.79,0,0,0,1.45-1.1c.13-.23-.23-.44-.36-.21a1.55,1.55,0,0,1-.86.86c-.21.06-.42,0-.63.05a1.2,1.2,0,0,0-.78.89c-.12.35-.19.33-.52.47a1.6,1.6,0,0,0-.73.55c-.16.22-.15.49-.28.7s-.47.07-.76.15a.46.46,0,0,0-.33.29c0,.22.11.25.16.38s.09.1-.1.23a2.43,2.43,0,0,1-.38.13,3,3,0,0,0-.48.15.52.52,0,0,0-.29.46c0,.22.23.35.24.52a.62.62,0,0,1-.4.39s-.11-.06-.15-.06-.23-.08-.39,0a.49.49,0,0,0-.29.35c-.08.35.37.87-.19,1-.22,0-.38-.13-.6,0s-.2.37-.18.61c0,.06.1.13.09.19l-.33.53-.17,0a1.57,1.57,0,0,0-.43,0,.22.22,0,0,0-.13.31c.2.28.42.8.18,1.13s-1,.05-1.45.4c-.76.64.56,1,.49,1.51-.11.85-1.39.13-1.71.81a.57.57,0,0,0,.07.6c.15.22.33.31.36.64s.09,1.13-.41,1.09c-.1,0-.23-.18-.35-.22a.69.69,0,0,0-.35,0,.83.83,0,0,0-.52.72.63.63,0,0,0,.19.58c.22.18.59.09.47.61l-.16.16c-.07.19-.15.22-.24.07s-.11-.08-.17-.1c-.56-.17-1,.63-1,1.09a.63.63,0,0,0,.09.35c.2.32.29,0,0,.59s-.25.28-.7.32a.58.58,0,0,0-.34.11.55.55,0,0,0-.11.62c.18.47.91.49.85,1.13s-.53,0-.87,0a.44.44,0,0,0-.5.27c-.15.35.13.7.3,1s.57,1,.1,1.33a3.4,3.4,0,0,1-.7.24.85.85,0,0,0-.59.66c-.05.48.41.64.56,1,.27.71-1,.66-1.15,1.28a.87.87,0,0,0,.22.63,2.43,2.43,0,0,1,.2.25c.27.79-.1.49-.33.63s-.36.09-.52.25c-.68.71.63,1.4.35,2.09s-1.48.85-.9,1.63c.11.14.27.23.39.36s.23.25.22.35-.42.26-.53.3a.85.85,0,0,0-.57.58.91.91,0,0,0,.27.78c.24.32.61.84,0,1-.15,0-.31,0-.46,0-.74.2-.3.93,0,1.31.15.18.73.75.25.94-.13,0-.29,0-.44,0a.57.57,0,0,0-.33.61c.07.42.53.55.71.89.31.6-.69.5-1,.76-.67.63.39,1.19.76,1.56s.54.73,0,.84a4.4,4.4,0,0,0-.51.05.78.78,0,0,0-.52.65c-.06.77,1.06.78,1.22,1.45s-.75.54-1,.93a.45.45,0,0,0,.1.66c.19.18.43.3.62.49s.33.35.32.5l-.14.24c0,.22-.13.29-.29.2s-.55-.19-.82.08c-.43.45.26.95.61,1.15s.48.16.44.57-.16.28-.48.33a.78.78,0,0,0-.67.39c-.5.87.77,1.18,1.14,1.71a.81.81,0,0,1-.18,1.24c-.17.1-.38.14-.56.24a.8.8,0,0,0-.49.59.94.94,0,0,0,.43.83,3.71,3.71,0,0,0,.41.28,2.61,2.61,0,0,1,.27.19.84.84,0,0,1,.23.23l-.13.43c-.18,0-.53-.27-.76-.25a.5.5,0,0,0-.47.4,1.08,1.08,0,0,0,.35.87c.23.26,1.41.86,1.22,1.25-.07.16-.48.08-.56.05a.56.56,0,0,1-.14-.1.56.56,0,0,0-.28-.05.6.6,0,0,0-.57.65,1.29,1.29,0,0,0,.59.91c.19.15.53.25.67.45s.23.66,0,.78-.74-.52-1-.53a.62.62,0,0,0-.59.38c-.32.67.33,1.27.77,1.66a1.66,1.66,0,0,1,.75,1.11c0,.08,0,.3,0,.35l-.19,0c-.16.09-.25,0-.28-.11s-.19-.38-.32-.54c-.33-.39-1.11-.56-1.18.13,0,.51.42,1,.68,1.38a2,2,0,0,1,.06,2.59c-.16.22.21.43.36.21Z"/><path class="cls-29" d="M146,172.92s-.13-1.15.45-1.35,1.13.2,1.29.06a5.43,5.43,0,0,0,.79-1.14c.12-.29,0-.12.32-.24s.24-.24.38-.39,0-.27.31-.14.8.29.62-.18.13-.91.4-.6,1.07.6.79.1.22-.56.55-.55.68.36.65-.16-.06-1,.27-.68.83.33.76-.07,0-.68.23-.52.44.08.45-.12-.23-.32.16-.27.63-.09.58-.27.18-.41.18-.41"/></g><path class="cls-9" d="M158.92,392.19c2.09.28,4.22.25,6.28.67,6,1.23,10.8,6.14,16.86,6.92.42.05.91.13.95.69a1.18,1.18,0,0,1-.74,1.15,9.24,9.24,0,0,1-10.59-2c2,2.17,3.26,4.67,5.22,6.52,2.84,2.69,5.79,5.77,9.62,9.68a3.1,3.1,0,0,1,.64,2.93,1.7,1.7,0,0,1-2,.73,5,5,0,0,1-1.91-1.37c-3.32-3.31-7.36-6.61-10.68-9.91a1.82,1.82,0,0,0,.29,1.39,15.26,15.26,0,0,0,3.42,4.18c.41.38,2.3,1.79,2.69,2.2s1.31,1.38,1.76,1.84c1.43,1.45,2.6,2.59,4.15,4.05a2.45,2.45,0,0,1,.68,1c.47,1.45-.78,2.07-1.77,1.88a4.45,4.45,0,0,1-1.76-.92c-1.28-.92-2.48-2-3.71-3-.59-.48-1.26-.88-1.84-1.38s-1-1.05-1.54-1.52c-1-.89-1.89-1.83-2.85-2.76a14,14,0,0,0-2.8-2,.45.45,0,0,0-.63.57,9.3,9.3,0,0,0,2.56,2.92c3.51,2.95,5.88,6.1,9.48,8.92.79.62,1.34,2.6-.23,3-2.4.63-3.36-2.09-5.24-3.55a62,62,0,0,1-5.21-4.82,33.21,33.21,0,0,0-4.41-3.52.57.57,0,0,0-.71.84c2.11,3.16,5.47,5.32,8.25,8,.66.63,1,1.67.29,2.23a23.81,23.81,0,0,1-6-3.5,52.61,52.61,0,0,1-4-3.6l-5.16-5a66.45,66.45,0,0,1-6-6.26c-1.27-1.58-2.39-3.29-3.75-4.8a33.32,33.32,0,0,0-5.35-4.63,78.3,78.3,0,0,0-14.83-8.4,58.86,58.86,0,0,1,6.11-5.81c1.26-1,3.61-3.18,5.38-3.07s4,2.65,5.43,3.61C149.38,389.07,153.91,391.52,158.92,392.19Z"/><path class="cls-3" d="M187.19,417.67a3.24,3.24,0,0,0-1-.81,1.09,1.09,0,0,0-.68-.13,1.26,1.26,0,0,0-.69.39,1.12,1.12,0,0,0-.29.49,1.31,1.31,0,0,0,.24.89,5,5,0,0,0,1.14,1.29.55.55,0,0,0,.26.14.61.61,0,0,0,.37-.1,2.69,2.69,0,0,0,1-1c.09-.17.23-.39.17-.57S187.32,417.81,187.19,417.67Z"/><path class="cls-3" d="M182.24,400.67a1.64,1.64,0,0,1-.92-.28,1,1,0,0,1-.42-.84.06.06,0,0,1,0,0H181l.91.07a3.17,3.17,0,0,1,.92.16.36.36,0,0,1,.12.08.75.75,0,0,1,.06.13c0,.17.24.59.13.69S182.4,400.68,182.24,400.67Z"/><path class="cls-3" d="M185.07,423a1.2,1.2,0,0,0-.89-.09.75.75,0,0,0-.52.69.93.93,0,0,0,.15.45,2.74,2.74,0,0,0,.8.86.56.56,0,0,0,.35.13.62.62,0,0,0,.25-.11c.28-.2.86-.7.79-1.1S185.34,423.11,185.07,423Z"/><path class="cls-3" d="M180.79,426.81a1.36,1.36,0,0,0-.57-.35,1,1,0,0,0-.35,0,1.18,1.18,0,0,0-.75.43.81.81,0,0,0-.09.83,1.39,1.39,0,0,0,.21.27,6.35,6.35,0,0,0,1,.83.65.65,0,0,0,.17.08.45.45,0,0,0,.23,0c.4-.12,1-.6,1-1.06S181.06,427.05,180.79,426.81Z"/><path class="cls-3" d="M173.17,427a1.4,1.4,0,0,0-.9-.1c-.14,0-.3.14-.26.28s.1.12.17.16l.73.39a.9.9,0,0,0,.67.16C174.37,427.62,173.47,427.09,173.17,427Z"/><path class="cls-30" d="M238.75,393.63l1.13-3.9"/><path class="cls-30" d="M241.92,392.54l1.64-5.87"/><path class="cls-30" d="M243.8,393.37a6,6,0,0,1,.9-2.5"/><path class="cls-30" d="M246.11,393.66l.86-2.5"/><path class="cls-30" d="M249.14,393.93,250,392"/><path class="cls-11" d="M179.53,436.78c.88,1.53,2,3.59,1,6.08-.63,1.65-2.44,3-2.73,4.65a3.59,3.59,0,0,0,2.07,4.09,2.77,2.77,0,0,0,2-.15c.53-.26,1-.85.88-1.41-.6.26-1.24-.6-.92-1.18a1.24,1.24,0,0,1,1.72-.29,2.43,2.43,0,0,1,.93,1.66c.62,3.42-2.06,5.94-5.13,7.07-4.38,1.61-9.89-.49-12.46-3.94-3.64-4.88-3.07-10-2.23-11.89,1.43-3.22,3.21-4.56,5.12-5a36.6,36.6,0,0,1,4.91-.47,12.89,12.89,0,0,1,1.86-.1,9,9,0,0,1,2.7.61C179.16,436.47,179.62,436.78,179.53,436.78Z"/><rect class="cls-6" x="167.31" y="434.23" width="13.79" height="3.93" rx="1.79" transform="translate(39.34 -13.72) rotate(5.08)"/><path class="cls-6" d="M72.51,386.59A27.92,27.92,0,0,1,73.67,371c3.21-9.3,10.4-17.41,19.71-20.59s20.57-.82,27,6.6c2.43-4.06,7.87-5.72,12.44-4.5s8.24,4.84,10.4,9.05,3,9,3.37,13.7a9.32,9.32,0,0,0,.66,3.24,8.74,8.74,0,0,0,2,2.43l7.54,7.07c-4.7-1.37-9.65,2.49-11.27,7.12s-.81,9.71,0,14.55c-6.74-2.78-13.92-5.62-21.12-4.43-3.49.58-6.76,2.09-10.11,3.24a51.41,51.41,0,0,1-12.2,2.58c-2.92.25-6,.23-8.61-1.05-4.59-2.22-8-7.42-11.9-10.71C77.42,395.71,73.86,392.18,72.51,386.59Z"/><path class="cls-30" d="M130.08,401.09a16.86,16.86,0,0,0-5.48-.52"/><path class="cls-30" d="M130.54,399a22.76,22.76,0,0,1-4.1-1.67"/><path class="cls-30" d="M131,397.12a5.78,5.78,0,0,1-2.06-.91"/><path class="cls-30" d="M131.25,395.06l-.23-.69"/></g></svg>