<svg id="Layer_1" data-name="Layer 1" xmlns="http://www.w3.org/2000/svg" xmlns:xlink="http://www.w3.org/1999/xlink" viewBox="0 0 331 438"><defs><style>.cls-1,.cls-15,.cls-29,.cls-30{fill:none;}.cls-2{clip-path:url(#clip-path);}.cls-3{fill:#7541ee;}.cls-4{fill:#fff;}.cls-5{fill:#1a293f;}.cls-6{fill:#9ac0e6;}.cls-7{fill:#d1e7fd;}.cls-8{clip-path:url(#clip-path-2);}.cls-9{fill:#729fcc;}.cls-10{fill:#f9efde;}.cls-11,.cls-13{fill:#dbc4b4;}.cls-11{opacity:0.63;}.cls-12{fill:#9e4a26;}.cls-13{opacity:0.32;}.cls-14{clip-path:url(#clip-path-3);}.cls-15{stroke:#852d07;stroke-width:0.84px;}.cls-15,.cls-29,.cls-30{stroke-miterlimit:10;}.cls-16{fill:#93c8fd;}.cls-17{fill:#4485c7;}.cls-18{opacity:0.84;}.cls-19{clip-path:url(#clip-path-4);}.cls-20{fill:#1c5d9c;}.cls-21{fill:#10161c;}.cls-22{fill:#202c38;}.cls-23{clip-path:url(#clip-path-5);}.cls-24{fill:#9e3636;}.cls-25{fill:#872f2f;}.cls-26{clip-path:url(#clip-path-6);}.cls-27{clip-path:url(#clip-path-7);}.cls-28{clip-path:url(#clip-path-8);}.cls-29,.cls-30{stroke:#729fcc;}.cls-29{stroke-width:0.69px;}.cls-30{stroke-width:1.38px;}</style><clipPath id="clip-path"><rect class="cls-1" width="331" height="438"/></clipPath><clipPath id="clip-path-2"><path class="cls-1" d="M147.65,203.13c-2.81,8.51,1.39,14.18-6.34,18.71-1.14.67-14.89,2.21-14.38,3.43a2.65,2.65,0,0,0,.52.72c11.44,12.68,24.12,24.18,36.14,36.32,5.26,5.32,10.4,10.76,15.54,16.2l22.7,24c9.08,9.62,18.22,19.3,25.35,30.44,6.63-5.16,10.12-13.57,11-21.93s-.6-16.78-2.29-25c-6.2-30.1-16-60.38-35.62-84a11.64,11.64,0,0,0-3.85-3.38,12.88,12.88,0,0,0-5.53-.7,110.54,110.54,0,0,1-27.49-3C155.19,193,148.46,200.7,147.65,203.13Z"/></clipPath><clipPath id="clip-path-3"><path class="cls-1" d="M203.58,518.53l-19.33-1.71a385.54,385.54,0,0,0-25.49-175.2c-2.92-7.37-6.14-14.84-9.27-22.06-5.71-13.22-11.62-26.89-16.16-41.06-7.85-24.53-10.39-39.77-6.86-58.27A8.1,8.1,0,0,1,132.2,214l2.35.29a6.48,6.48,0,0,0,4.52-1.1l2.9-2a3.18,3.18,0,0,1,4,3.59c-2.78,16.53-.9,36.79,5.83,57.84,4.25,13.26,10,26.49,15.5,39.28,3.18,7.36,6.47,15,9.5,22.61A405.12,405.12,0,0,1,203.58,518.53Z"/></clipPath><clipPath id="clip-path-4"><circle class="cls-1" cx="210.06" cy="123.32" r="2.75"/></clipPath><clipPath id="clip-path-5"><circle class="cls-1" cx="175.42" cy="124.97" r="2.75"/></clipPath><clipPath id="clip-path-6"><path class="cls-1" d="M157.91,110.94c-1.89,3.94-7.92,8.87-9.35,13-1.56,4.52-4.72,9.64-4.59,14.42.48,18.53,8.16,30,9.93,31.74a8.27,8.27,0,0,1,1.89,7.89c-6-1.7-12.06-7-15.55-12.18s-5.57-11.13-7.06-17.16a101.83,101.83,0,0,1-2.58-15.51,68.33,68.33,0,0,1-.06-12.95,55.24,55.24,0,0,1,18-35A61.8,61.8,0,0,1,185.1,69.85a6.52,6.52,0,0,1,4.08.62c2.16,1.41,2,4.55,1.68,7.11-.49,3.48-.16,13.93-3.4,15.72-1.48.81-4.84-1-10.84-.28C168.47,94,161.69,103.08,157.91,110.94Z"/></clipPath><clipPath id="clip-path-7"><path class="cls-1" d="M191.62,70.24c2-1.41,4.69-.76,5.74-.45,12,3.67,19.83,11.12,21.24,12.93,2.93,3.77,11.74,11.82,13.82,29.54.38,3.23,4.1,11.68-2.35,32.61-.75-1.81-2.9-6.15-2.82-8.12a26.87,26.87,0,0,0-.44-7.67c-.56-2.71-2.56-4.92-3.14-7.63-.45-2.13-.48-4.32-.77-6.48-1.46-10.88-8.15-20.77-17.63-22.46-2.87-.51-13.09,1.53-14.77.76-1.34-.61-1.68-2.28-1.63-3.76a67.46,67.46,0,0,1,1.29-10.88c.3-1.47-.16-3.07-.09-4.55C190.12,72.83,190.5,71,191.62,70.24Z"/></clipPath><clipPath id="clip-path-8"><path class="cls-1" d="M167.36,69.37c-13.29,4.41-33.55,17.28-44.1,41.33-2.21,5-6,18.9-7,24.3-1.32,6.9-7.41,28.85-8.29,33.07-.61,2.93-2.62,8.21-2.21,11.08s4.22,6.48,5.72,8.92c2.21,3.61,4,7.45,6.34,11,0,0-1.79-4.28-.7-7.56s3-14.05,1.73-22.34.55-32.6,3.76-43.09,7.21-30.2,27.6-46.45Z"/></clipPath></defs><g class="cls-2"><rect class="cls-3" width="331" height="438"/><path class="cls-4" d="M413.36,587.43a211.07,211.07,0,0,0-3.6-36.18c-4.87-24.69-16.27-49-36-64.56C362.73,478,349,471.75,342,459.64c-5.91-10.15-6-22.49-7.6-34.12-5.3-38.59-28.14-72.18-42.31-108.46-8.74-22.38-14.34-46.22-26.68-66.85s-33.76-38.16-57.77-37A21.47,21.47,0,0,1,216.68,191c2.87,2.19,6.9,8.08,12.76,9.06,9,6.65,7.26-40.2,7.86-60.57s-3.87-42-17.85-56.8-42.83-22.79-64.13-9.74c-35.42,21.7-52.86,68.44-50,109.88.25,3.72,5.11,9.11,7.63,11.86s7.72,3.24,9.65,0A59.39,59.39,0,0,0,139,211.07c-11.39,15.2-35,11.22-52.66,18.13-18.78,7.33-29.63,26.46-40.39,43.51A395.12,395.12,0,0,1-2.59,334.87c-9.19,9.63-19.5,18-28.88,27.36-6.65,6.65-4.22,20.56-1.76,28.7,5,16.48,17.23,30.39,30.86,40.47,20.39,15.06,44.68,24.74,63.2,42.05A91.73,91.73,0,0,0,48,514.81c-.36,5.77.17,12.32,4.58,16.06,6.3,5.35,15.73,1.68,24,1,23.22-1.88,39.78,21.49,60.84,31.45,30.49,14.41,66-.76,99.65-2.41a124.11,124.11,0,0,1,91.71,34.82c15.5,15.18,27,34.47,44.3,47.55,10,7.55,25.65,12.14,34.06,2.83,4.65-5.14,5.17-12.68,5.46-19.61C413.11,613.52,413.64,600.44,413.36,587.43Z"/><path class="cls-4" d="M242.69,543.34c36.14,0,72.46,14.67,98.27,39.94a263.5,263.5,0,0,1,18.7,21.07c7.83,9.5,15.22,18.46,23.91,25,4.21,3.18,8.64,4.48,10.73,4.53a45.3,45.3,0,0,0,.84-8.09c.52-12.49,1.05-25.4.77-38h0a192.93,192.93,0,0,0-3.27-33.19c-4.63-23.51-15.19-42.77-29.71-54.25-2.71-2.14-5.8-4.22-9.06-6.44-9.36-6.33-20-13.5-27-25.51-6.56-11.26-7.87-23.2-9-33.74-.24-2.28-.49-4.55-.8-6.8-3.15-23-13.6-44.67-24.65-67.6-5.73-11.88-11.65-24.17-16.62-36.88-2.92-7.47-5.48-15-8-22.34-5.13-15.13-10-29.42-17.44-41.9-8.2-13.7-24.09-29.39-42-28.57l-14.6.68L190.58,217a39,39,0,0,1,16.66-40.71l10.28-6.62,1.89,1.44c.19-6.75.24-13.66.27-18.36,0-5.18.06-10,.18-13.81.32-11-1-31.44-13.1-44.31-8.19-8.67-28.25-15.47-42.32-6.84-23,14.09-38.81,43.8-41.55,75.92L137.12,185a42.25,42.25,0,0,0,11.55,11.53L164,206.78l-11.06,14.75c-11.58,15.46-29.28,18.14-43.51,20.3-6.28.95-12.22,1.85-16.76,3.62-12,4.7-20.57,18.34-29.6,32.78L60.69,282A413.69,413.69,0,0,1,10,346.92c-5.48,5.74-11.2,10.95-16.73,16-4,3.67-7.87,7.15-11.52,10.75-.25,1.76-.13,6.19,1.69,12.24C-13.19,397-4.48,408.14,8,417.36c7.61,5.63,16,10.52,24.85,15.7C46.4,441,60.41,449.17,72.74,460.7L83,470.32l-7.24,12.09a74.35,74.35,0,0,0-10.37,33.45l2-.32c2.32-.39,4.95-.82,7.72-1,21.58-1.72,37.44,10.29,51.44,20.9,6.37,4.83,12.39,9.39,18.27,12.17,15.9,7.52,35.9,4.07,57.08.41,11.11-1.92,22.59-3.9,34.26-4.47C238.36,543.39,240.53,543.34,242.69,543.34Z"/><path class="cls-4" d="M394.63,663c-9.48,0-19.9-3.77-28.61-10.33-11.43-8.63-20.27-19.35-28.82-29.72a233,233,0,0,0-16.62-18.81,112,112,0,0,0-77.8-31.63c-1.72,0-3.45,0-5.15.13-9.91.48-20,2.23-30.73,4.08-12.74,2.2-25.91,4.47-39.23,4.47s-24.94-2.37-35.26-7.25c-8.62-4.07-16.14-9.78-23.42-15.29-10.75-8.15-20-15.14-29.88-15.14-.54,0-1.07,0-1.61.06-1.5.12-3.26.41-5.11.71l-.2,0a65.18,65.18,0,0,1-10.62,1.11c-6.69,0-12.09-1.84-16.54-5.61-6.47-5.49-9.4-14.13-8.69-25.69a103.29,103.29,0,0,1,7.94-33.78l1.78-4.21-3.71-2.69c-7.5-5.44-15.6-10.17-24.17-15.18C9,452.88-.41,447.37-9.31,440.79c-12.39-9.15-28.53-24.64-35.11-46.49C-47.5,384.07-51,365.22-39.73,354c4.38-4.38,8.92-8.51,13.32-12.51l.1-.1c5.38-4.9,10.47-9.52,15.27-14.55a384.9,384.9,0,0,0,47.09-60.33l2.32-3.7c10.64-17,22.69-36.26,43.7-44.46,6.78-2.65,14-3.9,20.21-4.87l11.7-1.81-8.64-8.09c-.34-.32-.66-.64-1-1-5.26-5.73-10.2-12-10.68-18.95C90.81,142.26,106.87,88.91,149.22,63a56.83,56.83,0,0,1,30.19-8.22c18.08,0,37.13,7.81,48.53,19.9,18.38,19.48,21.59,46.19,21,65.16-.1,3.75-.13,8.32-.16,13.16-.18,26.55-.53,43.26-5.36,51.9l-2.64,4.72,4.54,2.93a98.39,98.39,0,0,1,30,31.69c9.05,15.14,14.63,31.57,20,47.46,2.48,7.34,4.82,14.24,7.52,21.14,4.55,11.67,10,22.92,15.71,34.82,11.56,24,23.5,48.75,27.28,76.3.35,2.5.63,5.09.9,7.6.92,8.4,1.79,16.32,5.22,22.22,3.67,6.28,10.37,10.81,18.14,16.06,3.61,2.45,7.27,4.92,10.79,7.71,20,15.78,34.26,41.16,40.24,71.47A222,222,0,0,1,425,587.13v0c.29,13.48-.26,26.83-.79,39.74-.3,7.42-.76,18.51-8.46,27C410.4,659.93,403.28,663,394.63,663ZM242.69,549.1c34.52,0,69.75,14.32,94.24,38.3A256.29,256.29,0,0,1,355.22,608c8,9.76,15.64,19,24.88,26,5.42,4.09,11,5.62,14.07,5.69l4.44.1,1.23-4.27A43.26,43.26,0,0,0,400.9,626c.52-12.56,1.05-25.55.78-38.35a200.38,200.38,0,0,0-3.38-34.17c-4.91-24.86-16.2-45.34-31.8-57.66-2.86-2.26-6-4.39-9.35-6.65-9.34-6.32-18.94-12.81-25.28-23.69-5.95-10.19-7.13-21-8.27-31.45l0-.3c-.24-2.18-.48-4.44-.79-6.66-3.28-23.91-13.91-46-25.17-69.32-5.69-11.8-11.56-24-16.44-36.47-2.87-7.35-5.41-14.84-7.87-22.09-5.23-15.44-10.17-30-18-43-13.86-23.15-32.63-31.4-45.58-31.4-.54,0-1.08,0-1.62,0l-9.79.45-2.16-9.55a33.13,33.13,0,0,1,14.16-34.59l6.88-4.43,7.6,5.79.33-11.23c.19-6.93.24-14.16.27-18.48,0-4.81.06-9.78.18-13.68.34-11.92-1.1-34.06-14.67-48.44-7.14-7.56-19.77-12.64-31.44-12.64a34,34,0,0,0-18.08,4.84c-24.36,14.92-41.33,45.71-44.28,80.35l-.17,2,15.35,23a47.88,47.88,0,0,0,13.14,13.13l10.27,6.85-7.41,9.88c-10.17,13.57-25.89,15.95-39.76,18-6.61,1-12.86,2-18,4-13.81,5.39-22.83,19.81-32.39,35.08L55.81,279a407.66,407.66,0,0,1-49.95,64c-5.32,5.57-10.94,10.69-16.37,15.64l-.12.11c-4.07,3.71-7.92,7.21-11.63,10.87l-1.39,1.36-.28,1.93c-.39,2.78-.11,8.1,1.88,14.71C-18.35,399.81-8.9,412,4.58,422c7.86,5.81,16.36,10.78,25.36,16,13.28,7.77,27,15.79,38.87,26.88l6.89,6.44-4.85,8.1a80,80,0,0,0-11.18,36.06l-.44,7.14,7.07-1.09,2.08-.34c2.19-.36,4.69-.78,7.24-1,1.21-.1,2.45-.15,3.67-.15,17.57,0,30.91,10.12,43.82,19.9,6.61,5,12.86,9.75,19.28,12.78,7.15,3.38,15.44,5,25.35,5,11.17,0,22.82-2,35.16-4.15,10.95-1.89,22.25-3.84,33.58-4.4C238.52,549.15,240.61,549.1,242.69,549.1Z"/><path class="cls-5" d="M411.18,644.57c-.34,2.38-.9,5-2.95,6.33-1.64,1-3.73.83-5.65.59l-8.92-1.1-3.58-.45c-1.48-.18-2.94-.43-4.38-.74a51.61,51.61,0,0,1-35.43-27.13c-9.93-19.58-26.69-35.86-46.31-46-27.2-14.06-59.27-17.07-89.47-12-12.48,2.1-24.79,5.52-37.43,6.24a89.45,89.45,0,0,1-70.4-28.91c-2.43-2.7-4.77-5.6-7.91-7.42-13.59-7.87-33.67,8-45.45-2.34-4.46-3.91-5.72-10.34-5.71-16.27.06-20.42,11.82-38.67,22.16-56.29,6.35-12.7,13.84-24.78,20-37.61,4-8.39,6.82-22.69,15.54-26.84,10.94-5.21,33.07-2.24,45.28-3L196,388.74c28-1.77,58.74-2.8,81.18,14.09,15.47,11.64,24.35,30,38.2,43.56,20.8,20.35,51.52,28.59,71,50.22,21.52,23.91,24.71,58.69,26.09,90.84C413.29,606.5,413.85,625.68,411.18,644.57Z"/><path class="cls-6" d="M164.51,233.93a4.36,4.36,0,0,0,2.19,1.28,4,4,0,0,0,2.07-.5c7.36-3.34,13.24-9.19,18.94-14.92,10.41-10.44,20.82-20.89,30.76-31.77a10.91,10.91,0,0,0,3.81-8.4c1.84-21.9,3.68-43.92,2.08-65.85-.38-5.32-1.05-10.85-4-15.31s-7.71-7.24-12.37-9.81c-6.07-3.36-12.32-6.66-19.14-8C175,78,177.51,71.35,165,77.91c-11.63,6.11-32.44,24.71-36,37.36-1.6,5.64-4.58,18.55-5.07,24.39-1.24,14.64,5.07,35.24,0,53.9-2.2,8.18,14,14.45,19.93,20.53Q153.89,224.33,164.51,233.93Z"/><path class="cls-5" d="M247.1,226.87c11.77,7.67,19.71,20.08,25.16,33s8.73,26.7,13.4,40c9.33,26.49,24,50.75,34.56,76.8,10.23,25.38,18.16,46.29,18.16,85.27-2.21.34-8-8.52-10.22-8.19,1-27.3-4.33-50.63-17.64-74.48s-30.92-45-48.67-65.76c-1.41,20.56-12.45,39-19.33,58.43a148.54,148.54,0,0,0-7.72,64.27c-27.82-6.36-56.78,2.69-85.29,1.32a86,86,0,0,0-22.38-50.62c-3.9-4.21-8.25-8.06-11.59-12.74-7-9.84-8.92-22.37-9.7-34.44a240,240,0,0,1,7.33-76.32c2.49-9.47,5.59-18.88,10.53-27.35,1.76-3,4.25-6.21,7.74-6.41a10.43,10.43,0,0,1,5,1.35c28.84,13.62,43.29,46.37,68.58,65.79,2,1.56,4.58,3.11,7,2.27,2.07-.71,3.2-2.91,4-5,5.06-13.38,3.75-28.32.85-42.33a198.12,198.12,0,0,0-6.09-22.59c-1.25-3.73-8.37-16.34-4-18,2.94-1.14,16.77,5.76,20.25,6.89C234,220.32,240.92,222.84,247.1,226.87Z"/><path class="cls-7" d="M147.65,203.13c-2.81,8.51,1.39,14.18-6.34,18.71-1.14.67-14.89,2.21-14.38,3.43a2.65,2.65,0,0,0,.52.72c11.44,12.68,24.12,24.18,36.14,36.32,5.26,5.32,10.4,10.76,15.54,16.2l22.7,24c9.08,9.62,18.22,19.3,25.35,30.44,6.63-5.16,10.12-13.57,11-21.93s-.6-16.78-2.29-25c-6.2-30.1-16-60.38-35.62-84a11.64,11.64,0,0,0-3.85-3.38,12.88,12.88,0,0,0-5.53-.7,110.54,110.54,0,0,1-27.49-3C155.19,193,148.46,200.7,147.65,203.13Z"/><g class="cls-8"><polygon class="cls-9" points="74.09 212.5 86.3 221.95 81.32 236.56 69.11 227.12 74.09 212.5"/><polygon class="cls-9" points="91.29 207.33 103.5 216.78 98.52 231.39 86.3 221.95 91.29 207.33"/><polygon class="cls-9" points="108.48 202.16 120.7 211.61 115.72 226.22 103.5 216.78 108.48 202.16"/><polygon class="cls-9" points="125.68 196.99 137.9 206.44 132.91 221.05 120.7 211.61 125.68 196.99"/><polygon class="cls-9" points="142.88 191.82 155.09 201.27 150.11 215.88 137.9 206.44 142.88 191.82"/><polygon class="cls-9" points="160.08 186.66 172.29 196.1 167.31 210.71 155.09 201.27 160.08 186.66"/><polygon class="cls-9" points="177.27 181.49 189.49 190.93 184.5 205.54 172.29 196.1 177.27 181.49"/><polygon class="cls-9" points="81.32 236.56 93.53 246 88.55 260.62 76.34 251.17 81.32 236.56"/><polygon class="cls-9" points="98.52 231.39 110.73 240.83 105.75 255.45 93.53 246 98.52 231.39"/><polygon class="cls-9" points="115.72 226.22 127.93 235.66 122.95 250.28 110.73 240.83 115.72 226.22"/><polygon class="cls-9" points="132.91 221.05 145.13 230.5 140.14 245.11 127.93 235.66 132.91 221.05"/><polygon class="cls-9" points="150.11 215.88 162.32 225.33 157.34 239.94 145.13 230.5 150.11 215.88"/><polygon class="cls-9" points="167.31 210.71 179.52 220.16 174.54 234.77 162.32 225.33 167.31 210.71"/><polygon class="cls-9" points="184.5 205.54 196.72 214.99 191.74 229.6 179.52 220.16 184.5 205.54"/><polygon class="cls-9" points="88.55 260.62 100.77 270.06 95.78 284.68 83.57 275.23 88.55 260.62"/><polygon class="cls-9" points="105.75 255.45 117.96 264.89 112.98 279.51 100.77 270.06 105.75 255.45"/><polygon class="cls-9" points="122.95 250.28 135.16 259.72 130.18 274.34 117.96 264.89 122.95 250.28"/><polygon class="cls-9" points="140.14 245.11 152.36 254.55 147.38 269.17 135.16 259.72 140.14 245.11"/><polygon class="cls-9" points="157.34 239.94 169.56 249.38 164.57 264 152.36 254.55 157.34 239.94"/><polygon class="cls-9" points="174.54 234.77 186.75 244.22 181.77 258.83 169.56 249.38 174.54 234.77"/><polygon class="cls-9" points="191.74 229.6 203.95 239.05 198.97 253.66 186.75 244.22 191.74 229.6"/><polygon class="cls-9" points="95.78 284.68 108 294.12 103.01 308.73 90.8 299.29 95.78 284.68"/><polygon class="cls-9" points="112.98 279.51 125.19 288.95 120.21 303.56 108 294.12 112.98 279.51"/><polygon class="cls-9" points="130.18 274.34 142.39 283.78 137.41 298.39 125.19 288.95 130.18 274.34"/><polygon class="cls-9" points="147.38 269.17 159.59 278.61 154.61 293.23 142.39 283.78 147.38 269.17"/><polygon class="cls-9" points="164.57 264 176.79 273.44 171.8 288.06 159.59 278.61 164.57 264"/><polygon class="cls-9" points="181.77 258.83 193.99 268.27 189 282.89 176.79 273.44 181.77 258.83"/><polygon class="cls-9" points="198.97 253.66 211.18 263.1 206.2 277.72 193.99 268.27 198.97 253.66"/><polygon class="cls-9" points="103.01 308.73 115.23 318.18 110.25 332.79 98.03 323.35 103.01 308.73"/><polygon class="cls-9" points="120.21 303.56 132.43 313.01 127.44 327.62 115.23 318.18 120.21 303.56"/><polygon class="cls-9" points="137.41 298.39 149.62 307.84 144.64 322.45 132.43 313.01 137.41 298.39"/><polygon class="cls-9" points="154.61 293.23 166.82 302.67 161.84 317.28 149.62 307.84 154.61 293.23"/><polygon class="cls-9" points="171.8 288.06 184.02 297.5 179.03 312.11 166.82 302.67 171.8 288.06"/><polygon class="cls-9" points="189 282.89 201.22 292.33 196.23 306.94 184.02 297.5 189 282.89"/><polygon class="cls-9" points="206.2 277.72 218.41 287.16 213.43 301.77 201.22 292.33 206.2 277.72"/><polygon class="cls-9" points="194.33 176.45 206.54 185.89 201.56 200.51 189.34 191.06 194.33 176.45"/><polygon class="cls-9" points="211.53 171.28 223.74 180.72 218.76 195.34 206.54 185.89 211.53 171.28"/><polygon class="cls-9" points="228.72 166.11 240.94 175.56 235.95 190.17 223.74 180.72 228.72 166.11"/><polygon class="cls-9" points="245.92 160.94 258.13 170.39 253.15 185 240.94 175.56 245.92 160.94"/><polygon class="cls-9" points="263.12 155.77 275.33 165.22 270.35 179.83 258.13 170.39 263.12 155.77"/><polygon class="cls-9" points="280.31 150.6 292.53 160.05 287.55 174.66 275.33 165.22 280.31 150.6"/><polygon class="cls-9" points="297.51 145.43 309.73 154.88 304.74 169.49 292.53 160.05 297.51 145.43"/><polygon class="cls-9" points="201.56 200.51 213.77 209.95 208.79 224.56 196.57 215.12 201.56 200.51"/><polygon class="cls-9" points="218.76 195.34 230.97 204.78 225.99 219.4 213.77 209.95 218.76 195.34"/><polygon class="cls-9" points="235.95 190.17 248.17 199.61 243.19 214.23 230.97 204.78 235.95 190.17"/><polygon class="cls-9" points="253.15 185 265.37 194.44 260.38 209.06 248.17 199.61 253.15 185"/><polygon class="cls-9" points="270.35 179.83 282.56 189.28 277.58 203.89 265.37 194.44 270.35 179.83"/><polygon class="cls-9" points="287.55 174.66 299.76 184.1 294.78 198.72 282.56 189.28 287.55 174.66"/><polygon class="cls-9" points="304.74 169.49 316.96 178.94 311.98 193.55 299.76 184.1 304.74 169.49"/><polygon class="cls-9" points="208.79 224.56 221 234.01 216.02 248.62 203.81 239.18 208.79 224.56"/><polygon class="cls-9" points="225.99 219.4 238.2 228.84 233.22 243.45 221 234.01 225.99 219.4"/><polygon class="cls-9" points="243.19 214.23 255.4 223.67 250.42 238.28 238.2 228.84 243.19 214.23"/><polygon class="cls-9" points="260.38 209.06 272.6 218.5 267.61 233.12 255.4 223.67 260.38 209.06"/><polygon class="cls-9" points="277.58 203.89 289.79 213.33 284.81 227.95 272.6 218.5 277.58 203.89"/><polygon class="cls-9" points="294.78 198.72 306.99 208.16 302.01 222.78 289.79 213.33 294.78 198.72"/><polygon class="cls-9" points="311.98 193.55 324.19 202.99 319.21 217.61 306.99 208.16 311.98 193.55"/><polygon class="cls-9" points="216.02 248.62 228.24 258.07 223.25 272.68 211.04 263.24 216.02 248.62"/><polygon class="cls-9" points="233.22 243.45 245.43 252.9 240.45 267.51 228.24 258.07 233.22 243.45"/><polygon class="cls-9" points="250.42 238.28 262.63 247.73 257.65 262.34 245.43 252.9 250.42 238.28"/><polygon class="cls-9" points="267.61 233.12 279.83 242.56 274.85 257.17 262.63 247.73 267.61 233.12"/><polygon class="cls-9" points="284.81 227.95 297.03 237.39 292.04 252 279.83 242.56 284.81 227.95"/><polygon class="cls-9" points="302.01 222.78 314.22 232.22 309.24 246.83 297.03 237.39 302.01 222.78"/><polygon class="cls-9" points="319.21 217.61 331.42 227.05 326.44 241.66 314.22 232.22 319.21 217.61"/><polygon class="cls-9" points="223.25 272.68 235.47 282.13 230.48 296.74 218.27 287.29 223.25 272.68"/><polygon class="cls-9" points="240.45 267.51 252.66 276.96 247.68 291.57 235.47 282.13 240.45 267.51"/><polygon class="cls-9" points="257.65 262.34 269.86 271.79 264.88 286.4 252.66 276.96 257.65 262.34"/><polygon class="cls-9" points="274.85 257.17 287.06 266.62 282.08 281.23 269.86 271.79 274.85 257.17"/><polygon class="cls-9" points="292.04 252 304.26 261.45 299.27 276.06 287.06 266.62 292.04 252"/><polygon class="cls-9" points="309.24 246.83 321.45 256.28 316.47 270.89 304.26 261.45 309.24 246.83"/><polygon class="cls-9" points="326.44 241.66 338.65 251.11 333.67 265.72 321.45 256.28 326.44 241.66"/><polygon class="cls-9" points="110.05 332.2 122.26 341.64 117.28 356.26 105.06 346.81 110.05 332.2"/><polygon class="cls-9" points="127.25 327.03 139.46 336.47 134.48 351.09 122.26 341.64 127.25 327.03"/><polygon class="cls-9" points="144.44 321.86 156.66 331.3 151.68 345.92 139.46 336.47 144.44 321.86"/><polygon class="cls-9" points="161.64 316.69 173.85 326.13 168.87 340.75 156.66 331.3 161.64 316.69"/><polygon class="cls-9" points="178.84 311.52 191.05 320.96 186.07 335.58 173.85 326.13 178.84 311.52"/><polygon class="cls-9" points="196.04 306.35 208.25 315.8 203.27 330.41 191.05 320.96 196.04 306.35"/><polygon class="cls-9" points="213.23 301.18 225.45 310.63 220.47 325.24 208.25 315.8 213.23 301.18"/><polygon class="cls-9" points="117.28 356.26 129.49 365.7 124.51 380.31 112.3 370.87 117.28 356.26"/><polygon class="cls-9" points="134.48 351.09 146.69 360.53 141.71 375.14 129.49 365.7 134.48 351.09"/><polygon class="cls-9" points="151.68 345.92 163.89 355.36 158.91 369.98 146.69 360.53 151.68 345.92"/><polygon class="cls-9" points="168.87 340.75 181.09 350.19 176.1 364.81 163.89 355.36 168.87 340.75"/><polygon class="cls-9" points="186.07 335.58 198.28 345.02 193.3 359.64 181.09 350.19 186.07 335.58"/><polygon class="cls-9" points="203.27 330.41 215.48 339.85 210.5 354.47 198.28 345.02 203.27 330.41"/><polygon class="cls-9" points="220.47 325.24 232.68 334.68 227.7 349.3 215.48 339.85 220.47 325.24"/><polygon class="cls-9" points="124.51 380.31 136.72 389.76 131.74 404.37 119.53 394.93 124.51 380.31"/><polygon class="cls-9" points="141.71 375.14 153.92 384.59 148.94 399.2 136.72 389.76 141.71 375.14"/><polygon class="cls-9" points="158.91 369.98 171.12 379.42 166.14 394.03 153.92 384.59 158.91 369.98"/><polygon class="cls-9" points="176.1 364.81 188.32 374.25 183.34 388.86 171.12 379.42 176.1 364.81"/><polygon class="cls-9" points="193.3 359.64 205.52 369.08 200.53 383.69 188.32 374.25 193.3 359.64"/><polygon class="cls-9" points="210.5 354.47 222.71 363.91 217.73 378.52 205.52 369.08 210.5 354.47"/><polygon class="cls-9" points="227.7 349.3 239.91 358.74 234.93 373.36 222.71 363.91 227.7 349.3"/><polygon class="cls-9" points="131.74 404.37 143.96 413.82 138.97 428.43 126.76 418.99 131.74 404.37"/><polygon class="cls-9" points="148.94 399.2 161.15 408.65 156.17 423.26 143.96 413.82 148.94 399.2"/><polygon class="cls-9" points="166.14 394.03 178.35 403.48 173.37 418.09 161.15 408.65 166.14 394.03"/><polygon class="cls-9" points="183.34 388.86 195.55 398.31 190.57 412.92 178.35 403.48 183.34 388.86"/><polygon class="cls-9" points="200.53 383.69 212.75 393.14 207.76 407.75 195.55 398.31 200.53 383.69"/><polygon class="cls-9" points="217.73 378.52 229.94 387.97 224.96 402.58 212.75 393.14 217.73 378.52"/><polygon class="cls-9" points="234.93 373.36 247.14 382.8 242.16 397.41 229.94 387.97 234.93 373.36"/><polygon class="cls-9" points="138.97 428.43 151.19 437.87 146.21 452.49 133.99 443.04 138.97 428.43"/><polygon class="cls-9" points="156.17 423.26 168.39 432.7 163.4 447.32 151.19 437.87 156.17 423.26"/><polygon class="cls-9" points="173.37 418.09 185.58 427.54 180.6 442.15 168.39 432.7 173.37 418.09"/><polygon class="cls-9" points="190.57 412.92 202.78 422.37 197.8 436.98 185.58 427.54 190.57 412.92"/><polygon class="cls-9" points="207.76 407.75 219.98 417.2 215 431.81 202.78 422.37 207.76 407.75"/><polygon class="cls-9" points="224.96 402.58 237.18 412.03 232.19 426.64 219.98 417.2 224.96 402.58"/><polygon class="cls-9" points="242.16 397.41 254.37 406.86 249.39 421.47 237.18 412.03 242.16 397.41"/><polygon class="cls-9" points="230.29 296.15 242.5 305.59 237.52 320.2 225.3 310.76 230.29 296.15"/><polygon class="cls-9" points="247.49 290.98 259.7 300.42 254.72 315.04 242.5 305.59 247.49 290.98"/><polygon class="cls-9" points="264.68 285.81 276.9 295.25 271.91 309.87 259.7 300.42 264.68 285.81"/><polygon class="cls-9" points="281.88 280.64 294.09 290.08 289.11 304.7 276.9 295.25 281.88 280.64"/><polygon class="cls-9" points="299.08 275.47 311.29 284.91 306.31 299.53 294.09 290.08 299.08 275.47"/><polygon class="cls-9" points="316.27 270.3 328.49 279.74 323.51 294.36 311.29 284.91 316.27 270.3"/><polygon class="cls-9" points="333.47 265.13 345.69 274.57 340.7 289.19 328.49 279.74 333.47 265.13"/><polygon class="cls-9" points="237.52 320.2 249.73 329.65 244.75 344.26 232.53 334.82 237.52 320.2"/><polygon class="cls-9" points="254.72 315.04 266.93 324.48 261.95 339.09 249.73 329.65 254.72 315.04"/><polygon class="cls-9" points="271.91 309.87 284.13 319.31 279.14 333.92 266.93 324.48 271.91 309.87"/><polygon class="cls-9" points="289.11 304.7 301.32 314.14 296.34 328.75 284.13 319.31 289.11 304.7"/><polygon class="cls-9" points="306.31 299.53 318.52 308.97 313.54 323.58 301.32 314.14 306.31 299.53"/><polygon class="cls-9" points="323.51 294.36 335.72 303.8 330.74 318.42 318.52 308.97 323.51 294.36"/><polygon class="cls-9" points="244.75 344.26 256.96 353.71 251.98 368.32 239.77 358.88 244.75 344.26"/><polygon class="cls-9" points="261.95 339.09 274.16 348.54 269.18 363.15 256.96 353.71 261.95 339.09"/><polygon class="cls-9" points="279.14 333.92 291.36 343.37 286.38 357.98 274.16 348.54 279.14 333.92"/><polygon class="cls-9" points="296.34 328.75 308.56 338.2 303.57 352.81 291.36 343.37 296.34 328.75"/><polygon class="cls-9" points="313.54 323.58 325.75 333.03 320.77 347.64 308.56 338.2 313.54 323.58"/><polygon class="cls-9" points="330.74 318.42 342.95 327.86 337.97 342.47 325.75 333.03 330.74 318.42"/><polygon class="cls-9" points="251.98 368.32 264.19 377.76 259.21 392.38 247 382.93 251.98 368.32"/><polygon class="cls-9" points="269.18 363.15 281.39 372.59 276.41 387.21 264.19 377.76 269.18 363.15"/><polygon class="cls-9" points="286.38 357.98 298.59 367.43 293.61 382.04 281.39 372.59 286.38 357.98"/><polygon class="cls-9" points="303.57 352.81 315.79 362.26 310.81 376.87 298.59 367.43 303.57 352.81"/><polygon class="cls-9" points="320.77 347.64 332.99 357.09 328 371.7 315.79 362.26 320.77 347.64"/><polygon class="cls-9" points="259.21 392.38 271.43 401.82 266.44 416.44 254.23 406.99 259.21 392.38"/><polygon class="cls-9" points="276.41 387.21 288.62 396.65 283.64 411.26 271.43 401.82 276.41 387.21"/><polygon class="cls-9" points="293.61 382.04 305.82 391.48 300.84 406.1 288.62 396.65 293.61 382.04"/><polygon class="cls-9" points="310.81 376.87 323.02 386.31 318.04 400.93 305.82 391.48 310.81 376.87"/><polygon class="cls-9" points="328 371.7 340.22 381.14 335.23 395.76 323.02 386.31 328 371.7"/></g><path class="cls-10" d="M206.82,213l-5,13.11A12.39,12.39,0,0,1,183.3,232L155.19,213V158.18h51.63Z"/><path class="cls-7" d="M227.54,199.69,204.1,179.42,230,109.93s5.57,18.51.58,47.13S222,196.06,227.54,199.69Z"/><path class="cls-11" d="M206.82,213l-5,13.11A12.39,12.39,0,0,1,183.3,232L155.19,213V158.18h51.63Z"/><path class="cls-12" d="M194.41,71.08a10.46,10.46,0,0,1,5.44,0c6.8,1.59,12.23,6.68,16.6,12.13,11.67,14.56,18.1,33.74,15.33,52.19-.55,3.64-1.43,7.22-1.92,10.86-.43,3.2-.56,6.45-1.23,9.61A28.85,28.85,0,0,1,209.47,177a95.16,95.16,0,0,0-5-27.93c-1.24-3.69-2.7-7.77-1.12-11.31A30.8,30.8,0,0,1,190.56,124a51.94,51.94,0,0,1-4.73-18.44,62.4,62.4,0,0,1,1.09-19.23A59.22,59.22,0,0,1,190.05,77C191.1,74.41,191.24,72.05,194.41,71.08Z"/><path class="cls-10" d="M227.46,131.62q-.47,10.13-1,20.26c-.19,3.84-.38,7.79-1.82,11.36-1.79,4.49-5.32,8-8.78,11.37-6.48,6.3-13.81,12.91-22.83,13.53a25,25,0,0,1-4.49-.14c-1.79-.2-3.57-.55-5.35-.91-5.42.81-11.3-1.49-15.93-4.43s-8.46-6.95-12.21-10.95c-4.08-4.37-8.21-8.93-10.31-14.53-1.53-4.07-1.9-8.48-2.15-12.82-.68-11.53-.58-23.44,3.68-34.17,3.42-8.63,9.32-16,15.21-23.19,6.28-7.64,22.34-14.62,31.35-14.6,3.55,0,6.23,3.3,9,5.51a84.77,84.77,0,0,1,12.41,12.91c5.33,6.54,10.62,14.23,9.77,22.63-.15,1.52,1.78,2.94,2.08,4.44.4,2-.41,3.65.42,5.48C227.71,125.91,227.6,128.82,227.46,131.62Z"/><path class="cls-5" d="M80.08,230.06c-13.7,6.7-21.32,21.31-28.52,34.76-8.45,15.79-17.66,31.38-29.95,44.41C10.18,321.35-3.67,331-15.18,343s-20.88,27.62-20.06,44.26c.72,14.59,9.39,28,20.91,37,5.3,4.14,35.11,28,55.47,12.21,5.62-4.36,1.74-25.33,6.36-30.74,8-9.37,15.23-20.39,26.62-25.09A19,19,0,0,1,82,379a23,23,0,0,1,8.89,2.62,65.78,65.78,0,0,1,16.94,11.72c1.87,1.8,3.92,3.83,6.51,3.9,3.59.09,6.06-3.59,7.21-7a33.1,33.1,0,0,0,.75-18.68c-1.41-5.57-4.28-10.77-5-16.48-.77-6.26,1.13-12.51,1.74-18.78a46.28,46.28,0,0,0-2.38-19.74c-1.06-3-2.43-5.91-3-9-1-5.3.49-10.7,1.92-15.9l13-47.17c1.26-4.57,4.12-13.49,1.06-17.93-2.9-4.2-9.18-1.75-13.76-1.53C103.88,225.57,91.2,224.63,80.08,230.06Z"/><path class="cls-7" d="M259.34,316.6c-7.55,12.78,1.41,20.07-13.77,42.69-4.55,6.78-16.18,41.6-18,58.15-1.37,12.24-6.38,37.86-4.51,49.76,1.67,10.61,8,21.27,18.76,22,6.56.43,13-2.39,18.16-6.45s9.25-9.31,13.28-14.5c0,7.09.7,14.61,4.87,20.34,4.47,6.12,12.46,9.09,20,8.58s14.66-4.13,20.45-9c2-1.68,4.93-3.55,6.86-1.81a11.49,11.49,0,0,1,1.27,1.73c1.62,2.13,4.9,2.42,7.27,1.2a11.53,11.53,0,0,0,5-6.06c4.64-11.11-.26-24-7.44-33.69,1.64-2,1.89-4.87,1.95-7.5,1-40.16-26.06-83.65-52-112.62C277.46,325,265.37,306.37,259.34,316.6Z"/><path class="cls-13" d="M227.46,131.62q-.47,10.13-1,20.26c-.19,3.84-.38,7.79-1.82,11.36-1.79,4.49-5.32,8-8.78,11.37-6.48,6.3-13.81,12.91-22.83,13.53a25,25,0,0,1-4.49-.14c5.21-7-1.86-13.1-.29-18.23a23.25,23.25,0,0,0,1.43-7.66,21,21,0,0,0-1.31-7.28c3.75.13,8-1.72,8.92-5.38.53-2.13-.21-4.35-.88-6.44a135.26,135.26,0,0,1-4.22-16.47A137.79,137.79,0,0,1,189.83,97c.11-4.13-.2-8.07,2.06-11.69a17.25,17.25,0,0,1,8.88-7c.36-.12.72-.23,1.09-.33a84.77,84.77,0,0,1,12.41,12.91c5.33,6.54,10.62,14.23,9.77,22.63-.15,1.52,1.78,2.94,2.08,4.44.4,2-.41,3.65.42,5.48C227.71,125.91,227.6,128.82,227.46,131.62Z"/><path class="cls-12" d="M203.58,518.53l-19.33-1.71a385.54,385.54,0,0,0-25.49-175.2c-2.92-7.37-6.14-14.84-9.27-22.06-5.71-13.22-11.62-26.89-16.16-41.06-7.85-24.53-10.39-39.77-6.86-58.27A8.1,8.1,0,0,1,132.2,214l2.35.29a6.48,6.48,0,0,0,4.52-1.1l2.9-2a3.18,3.18,0,0,1,4,3.59c-2.78,16.53-.9,36.79,5.83,57.84,4.25,13.26,10,26.49,15.5,39.28,3.18,7.36,6.47,15,9.5,22.61A405.12,405.12,0,0,1,203.58,518.53Z"/><g class="cls-14"><path class="cls-15" d="M141,210c-4.11,6.43-8.3,13.08-9.67,20.58"/><path class="cls-15" d="M131.23,213l3.79,7"/><path class="cls-15" d="M124.24,225.4c1.93,1.76,4.31,2.94,6.46,4.44a26.69,26.69,0,0,1,4.9,4.41"/><path class="cls-15" d="M147.33,220.9a59.8,59.8,0,0,0-9.76,10.29A33.88,33.88,0,0,0,131.69,244"/><path class="cls-15" d="M123.51,239.58a32.42,32.42,0,0,1,15.41,13.34"/><path class="cls-15" d="M148.59,238.13a69.11,69.11,0,0,0-7.9,10.69,24.79,24.79,0,0,0-3.51,12.67"/><path class="cls-15" d="M124.27,253.91a42.15,42.15,0,0,1,11.86,6.64,20.57,20.57,0,0,1,7.16,11.33"/><path class="cls-15" d="M142,281.71a28.07,28.07,0,0,1,3.15-13.59,62.62,62.62,0,0,1,7.66-10.27"/><path class="cls-15" d="M131.4,279.66a19,19,0,0,1,18.67,10"/><path class="cls-15" d="M148.68,299a19,19,0,0,1,10-18.67"/><path class="cls-15" d="M136.88,299.87a19.11,19.11,0,0,1,10.77-1.08,23.72,23.72,0,0,1,11.06,6"/><path class="cls-15" d="M159.81,317.23a19,19,0,0,1,4.28-20.76"/><path class="cls-15" d="M139.51,316.21c3.94,1.41,6.05-2.67,14.14-1.48,3.68.54,7.6,2.5,12.32,7.64"/><path class="cls-15" d="M170.58,313.13a29.11,29.11,0,0,0-5.66,20.95"/><path class="cls-15" d="M149.57,329.4c3.26,0,11.13,2.55,13.26,3.51,4.21,1.89,7,5.88,9.63,9.7"/><path class="cls-15" d="M178.56,330.21a49.06,49.06,0,0,0-5.3,9.52c-1.27,3.41-.92,11.32.22,14.78"/><path class="cls-15" d="M185,351.87a11.23,11.23,0,0,0-3.87,3,17,17,0,0,0-3.44,8.43,49.71,49.71,0,0,0-.22,9.21"/><path class="cls-15" d="M164.22,369a20.25,20.25,0,0,1,14,4.35,19,19,0,0,1,5,6.52"/><path class="cls-15" d="M191,367.6a21.49,21.49,0,0,0-6,7.47,21.84,21.84,0,0,0-2,11.54"/><path class="cls-15" d="M169.77,383.1a16.81,16.81,0,0,1,13,3.4,16.42,16.42,0,0,1,5.57,9.36"/><path class="cls-15" d="M195.58,387.77a20.33,20.33,0,0,0-6.92,7.33c-1.53,2.77-1.28,7-1.51,8.76"/><path class="cls-15" d="M157.81,350.79a36.2,36.2,0,0,1,12.56,2.2c3.18,1.16,6.76,3.93,8.7,5.23"/><path class="cls-15" d="M174.07,398.19a19,19,0,0,1,9.24,2.51c4.41,2.53,6.86,7.3,7.66,8.83"/><path class="cls-15" d="M199.92,402.11a16.48,16.48,0,0,0-7.52,5.17c-4,4.93-3.08,12.47-3,13.78"/><path class="cls-15" d="M177.2,413.86a22.15,22.15,0,0,1,12.22,7.2,21.86,21.86,0,0,1,4.86,10.34"/><path class="cls-15" d="M202.58,423.26a20.11,20.11,0,0,0-9.71,11,19.56,19.56,0,0,0-.63,10.5"/><path class="cls-15" d="M180.53,435a25.35,25.35,0,0,1,15.16,18.86"/></g><circle class="cls-16" cx="210.05" cy="123.32" r="2.85"/><path class="cls-5" d="M210.06,120.57a2.75,2.75,0,1,1-2.75,2.75,2.75,2.75,0,0,1,2.75-2.75m0-.21a3,3,0,1,0,2.95,3,3,3,0,0,0-2.95-3Z"/><circle class="cls-17" cx="210.06" cy="123.32" r="2.56"/><g class="cls-18"><g class="cls-19"><polygon class="cls-20" points="210.14 123.61 210.2 125.39 209.85 123.64 210.14 123.61"/><polygon class="cls-20" points="209.45 123.57 208.14 124.65 209.24 123.38 209.45 123.57"/><polygon class="cls-20" points="208.93 123.16 208.26 123.25 208.85 122.88 208.93 123.16"/><path class="cls-20" d="M210.66,123.24a.6.6,0,0,1,.33.14l.24.16.5.32-.56-.19-.27-.09c-.09,0-.19-.07-.22,0Z"/><polygon class="cls-20" points="210.65 123.52 211.2 124.23 210.45 123.73 210.65 123.52"/><polygon class="cls-20" points="209.86 123.69 209.39 125.63 209.57 123.64 209.86 123.69"/><path class="cls-20" d="M210.74,122.49a3.69,3.69,0,0,1,1.19-.1,3.21,3.21,0,0,0-1.08.37Z"/><polygon class="cls-20" points="209.55 123.84 208.89 124.51 209.32 123.67 209.55 123.84"/><path class="cls-20" d="M209,123.34a2.23,2.23,0,0,0-.75.35,2.29,2.29,0,0,1,.63-.61Z"/><path class="cls-20" d="M210.81,122.86a1.15,1.15,0,0,1,.74.21,1.11,1.11,0,0,0-.68.07Z"/><polygon class="cls-20" points="210.5 123.73 210.73 124.48 210.23 123.84 210.5 123.73"/><polygon class="cls-20" points="209.1 122.97 207.34 122.8 209.12 122.68 209.1 122.97"/><polygon class="cls-20" points="209.23 122.29 208.34 120.85 209.46 122.1 209.23 122.29"/><polygon class="cls-20" points="209.7 121.83 209.71 121.15 209.99 121.79 209.7 121.83"/><path class="cls-20" d="M209.4,123.54a.57.57,0,0,1-.17.3l-.19.23-.39.44.26-.52.13-.26a.45.45,0,0,0,.08-.22Z"/><polygon class="cls-20" points="209.13 123.49 208.36 123.94 208.95 123.26 209.13 123.49"/><polygon class="cls-20" points="209.06 122.68 207.2 121.97 209.15 122.41 209.06 122.68"/><path class="cls-20" d="M210.14,123.71a3.64,3.64,0,0,1,0,1.19,3.49,3.49,0,0,0-.23-1.12Z"/><polygon class="cls-20" points="208.95 122.36 208.38 121.62 209.15 122.15 208.95 122.36"/><path class="cls-20" d="M209.51,121.91a2.27,2.27,0,0,0-.24-.78,2.37,2.37,0,0,1,.52.69Z"/><path class="cls-20" d="M209.76,123.73a1.15,1.15,0,0,1-.3.71.94.94,0,0,0,0-.68Z"/><polygon class="cls-20" points="208.94 123.31 208.17 123.44 208.87 123.03 208.94 123.31"/><polygon class="cls-20" points="209.88 122.03 210.27 120.29 210.16 122.08 209.88 122.03"/><polygon class="cls-20" points="210.53 122.24 212.07 121.53 210.69 122.49 210.53 122.24"/><polygon class="cls-20" points="210.93 122.77 211.6 122.86 210.93 123.06 210.93 122.77"/><path class="cls-20" d="M209.27,122.25A.64.64,0,0,1,209,122l-.19-.22-.4-.44.49.33.24.16c.08,0,.17.11.21.1Z"/><polygon class="cls-20" points="209.36 121.99 209.01 121.16 209.6 121.83 209.36 121.99"/><polygon class="cls-20" points="210.16 122.02 211.11 120.27 210.43 122.14 210.16 122.02"/><path class="cls-20" d="M209,123a3.47,3.47,0,0,1-1.17-.21,3.29,3.29,0,0,0,1.13-.08Z"/><polygon class="cls-20" points="210.5 121.95 211.31 121.48 210.68 122.18 210.5 121.95"/><path class="cls-20" d="M210.87,122.57a2.51,2.51,0,0,0,.81-.14,2.25,2.25,0,0,1-.76.42Z"/><path class="cls-20" d="M209,122.58a1.1,1.1,0,0,1-.67-.4,1,1,0,0,0,.68.11Z"/><polygon class="cls-20" points="209.56 121.82 209.53 121.04 209.84 121.78 209.56 121.82"/><polygon class="cls-20" points="210.71 122.91 212.38 123.53 210.63 123.19 210.71 122.91"/><polygon class="cls-20" points="210.41 123.54 210.92 125.15 210.15 123.66 210.41 123.54"/><polygon class="cls-20" points="209.84 123.86 209.67 124.52 209.55 123.83 209.84 123.86"/><path class="cls-20" d="M210.57,122.29a.58.58,0,0,1,.24-.25l.25-.17.48-.33-.38.44-.2.22c-.06.07-.13.15-.12.18Z"/><polygon class="cls-20" points="210.82 122.4 211.68 122.16 210.94 122.67 210.82 122.4"/><polygon class="cls-20" points="210.68 123.2 212.3 124.36 210.52 123.44 210.68 123.2"/><path class="cls-20" d="M209.9,121.93a3.31,3.31,0,0,1,.35-1.13,3.33,3.33,0,0,0-.06,1.13Z"/><polygon class="cls-20" points="210.71 123.54 211.07 124.4 210.46 123.69 210.71 123.54"/><path class="cls-20" d="M210.05,123.83a2.28,2.28,0,0,0,0,.82,2.41,2.41,0,0,1-.32-.81Z"/><path class="cls-20" d="M210.27,122a1.14,1.14,0,0,1,.48-.61,1,1,0,0,0-.2.65Z"/><polygon class="cls-20" points="210.96 122.62 211.74 122.69 210.96 122.91 210.96 122.62"/><polygon class="cls-20" points="209.72 123.63 208.9 125.2 209.46 123.5 209.72 123.63"/><polygon class="cls-20" points="209.14 123.25 207.48 123.54 209.06 122.97 209.14 123.25"/><polygon class="cls-20" points="208.9 122.64 208.27 122.39 208.97 122.36 208.9 122.64"/><path class="cls-20" d="M210.36,123.56a.72.72,0,0,1,.22.28l.13.26.27.53-.38-.44-.2-.22c-.06-.08-.13-.15-.17-.15Z"/><polygon class="cls-20" points="210.22 123.8 210.34 124.68 209.94 123.88 210.22 123.8"/><polygon class="cls-20" points="209.45 123.56 208.08 125.01 209.22 123.37 209.45 123.56"/><path class="cls-20" d="M210.81,122.94a3.41,3.41,0,0,1,1.07.51,3.33,3.33,0,0,0-1.12-.22Z"/><polygon class="cls-20" points="209.1 123.54 208.2 123.79 208.99 123.27 209.1 123.54"/><path class="cls-20" d="M208.9,122.85a2.25,2.25,0,0,0-.82-.07,2.37,2.37,0,0,1,.84-.22Z"/><path class="cls-20" d="M210.68,123.3a1.17,1.17,0,0,1,.54.56,1,1,0,0,0-.62-.28Z"/><polygon class="cls-20" points="209.98 123.91 209.81 124.67 209.69 123.87 209.98 123.91"/></g></g><circle class="cls-21" cx="209.79" cy="122.69" r="1.44"/><circle class="cls-22" cx="209.14" cy="122.69" r="0.26"/><circle class="cls-22" cx="209.65" cy="122.03" r="0.51"/><path class="cls-5" d="M204.15,121.46a8.84,8.84,0,0,1,3.43-2.74,9.68,9.68,0,0,1,4.34-.92,9.46,9.46,0,0,1,4.34,1.15,6.36,6.36,0,0,1,1.76,1.47,4,4,0,0,1,.92,2.15h0l.09.78-.63-.42a11.81,11.81,0,0,0-8.05-2.21,7.31,7.31,0,0,0-3.77,1.64,19.76,19.76,0,0,0-2.82,3.24,5.9,5.9,0,0,0-1.08,1.63c0,.1,0,.14,0,.15s0,.05.15.08a1.72,1.72,0,0,0,.81,0,10.48,10.48,0,0,0,.95-.48,1.37,1.37,0,0,1,.87,0c.25.07.43.17.59.22a7.34,7.34,0,0,0,2,.52,7.85,7.85,0,0,0,7.17-3.1l1,.73a9,9,0,0,1-8.33,3.47,8.25,8.25,0,0,1-2.27-.63,4.65,4.65,0,0,0-.43-.18.28.28,0,0,0-.22,0,7.32,7.32,0,0,1-1,.48,2.65,2.65,0,0,1-1.37,0,1.25,1.25,0,0,1-.75-.51,1.27,1.27,0,0,1-.15-.91,3,3,0,0,1,.62-1.17L203,125a21,21,0,0,1,3-3.35,8.35,8.35,0,0,1,4.24-1.76,12.57,12.57,0,0,1,8.55,2.46l-.54.36h0a5.54,5.54,0,0,0-2.61-2.67,8.45,8.45,0,0,0-3.76-1.05,9.55,9.55,0,0,0-3.91.64,12.1,12.1,0,0,0-1.79.92,10.15,10.15,0,0,0-1.55,1.31Z"/><path class="cls-12" d="M199.5,117.83a13.77,13.77,0,0,1,4.67-3.76,18.56,18.56,0,0,1,5.72-1.82,18.87,18.87,0,0,1,6,0,15.2,15.2,0,0,1,5.58,2.08l-.63,1.39a24.5,24.5,0,0,0-10.51-.63,25.43,25.43,0,0,0-5.07,1.34,23.34,23.34,0,0,0-4.7,2.44Z"/><path class="cls-16" d="M175.42,127.82a2.86,2.86,0,1,1,2-.77,2.82,2.82,0,0,1-2,.77Z"/><path class="cls-5" d="M175.42,122.22a2.74,2.74,0,1,1-1.87.74,2.73,2.73,0,0,1,1.87-.74m0-.21a2.93,2.93,0,0,0-2,.8,3,3,0,0,0-.14,4.18,3,3,0,0,0,5.12-1.93,3,3,0,0,0-3-3Z"/><circle class="cls-17" cx="175.42" cy="124.97" r="2.56"/><g class="cls-18"><g class="cls-23"><polygon class="cls-20" points="175.56 125.23 176.73 126.58 175.79 125.06 175.56 125.23"/><polygon class="cls-20" points="176.04 124.73 177.73 124.63 176.06 124.44 176.04 124.73"/><polygon class="cls-20" points="176.14 124.08 176.69 123.69 176 123.83 176.14 124.08"/><path class="cls-20" d="M174.93,125.32a.74.74,0,0,0-.15.32l-.07.29-.13.57.27-.51.13-.26c.05-.09.1-.18.14-.19Z"/><polygon class="cls-20" points="175.13 125.52 175.21 126.41 175.42 125.54 175.13 125.52"/><polygon class="cls-20" points="175.82 125.1 177.49 126.2 175.99 124.87 175.82 125.1"/><path class="cls-20" d="M174.35,124.83a3.34,3.34,0,0,0-.93.74,3.34,3.34,0,0,1,1-.47Z"/><polygon class="cls-20" points="176.15 125 177.08 125.04 176.2 124.72 176.15 125"/><path class="cls-20" d="M176.18,124.29A2.32,2.32,0,0,1,177,124a2.31,2.31,0,0,0-.87,0Z"/><path class="cls-20" d="M174.56,125.14a1.18,1.18,0,0,0-.4.67,1,1,0,0,1,.55-.41Z"/><polygon class="cls-20" points="175.38 125.57 175.72 126.27 175.65 125.46 175.38 125.57"/><polygon class="cls-20" points="175.88 124.06 177.06 122.73 175.67 123.85 175.88 124.06"/><polygon class="cls-20" points="175.32 123.65 174.99 121.99 175.03 123.67 175.32 123.65"/><polygon class="cls-20" points="174.66 123.64 174.2 123.14 174.42 123.81 174.66 123.64"/><path class="cls-20" d="M176.05,124.68a.61.61,0,0,0,.33.1l.3,0,.58.07-.55-.21-.27-.1c-.09,0-.19-.07-.2-.11Z"/><polygon class="cls-20" points="176.21 124.46 177.09 124.26 176.19 124.17 176.21 124.46"/><polygon class="cls-20" points="175.71 123.83 176.58 122.03 175.46 123.68 175.71 123.83"/><path class="cls-20" d="M175.63,125.31a3.52,3.52,0,0,0,.85.83,3.27,3.27,0,0,1-.6-1Z"/><polygon class="cls-20" points="175.57 123.51 175.49 122.58 175.28 123.5 175.57 123.51"/><path class="cls-20" d="M174.86,123.57a2.21,2.21,0,0,1-.36-.74,2.52,2.52,0,0,0,.09.86Z"/><path class="cls-20" d="M175.91,125.06a1.18,1.18,0,0,0,.72.32,1,1,0,0,1-.48-.49Z"/><polygon class="cls-20" points="176.23 124.2 176.88 123.77 176.09 123.94 176.23 124.2"/><polygon class="cls-20" points="174.67 123.9 173.2 122.9 174.49 124.13 174.67 123.9"/><polygon class="cls-20" points="174.34 124.5 172.73 125.04 174.39 124.79 174.34 124.5"/><polygon class="cls-20" points="174.41 125.16 173.97 125.69 174.6 125.37 174.41 125.16"/><path class="cls-20" d="M175.26,123.65a.59.59,0,0,0,.06-.35v-.88l-.13.57-.07.29c0,.09,0,.19-.08.21Z"/><polygon class="cls-20" points="175.02 123.52 174.71 122.67 174.74 123.57 175.02 123.52"/><polygon class="cls-20" points="174.46 124.09 172.56 123.46 174.35 124.36 174.46 124.09"/><path class="cls-20" d="M175.94,124a3.5,3.5,0,0,0,.72-1,3.21,3.21,0,0,1-.89.72Z"/><polygon class="cls-20" points="174.16 124.27 173.25 124.48 174.19 124.56 174.16 124.27"/><path class="cls-20" d="M174.31,125a2.06,2.06,0,0,1-.69.45,2.3,2.3,0,0,0,.85-.2Z"/><path class="cls-20" d="M175.66,123.73a1.11,1.11,0,0,0,.22-.74,1.09,1.09,0,0,1-.42.54Z"/><polygon class="cls-20" points="174.76 123.53 174.25 122.94 174.53 123.7 174.76 123.53"/><polygon class="cls-20" points="174.67 125.12 173.87 126.7 174.92 125.26 174.67 125.12"/><polygon class="cls-20" points="175.31 125.37 176.05 126.89 175.59 125.28 175.31 125.37"/><polygon class="cls-20" points="175.95 125.21 176.53 125.58 176.14 124.99 175.95 125.21"/><path class="cls-20" d="M174.35,124.56a.64.64,0,0,0-.36,0l-.29,0-.58.09.58.06.29,0a.35.35,0,0,1,.22,0Z"/><polygon class="cls-20" points="174.24 124.82 173.45 125.23 174.33 125.09 174.24 124.82"/><polygon class="cls-20" points="174.89 125.3 174.5 127.26 175.17 125.38 174.89 125.3"/><path class="cls-20" d="M174.59,123.84a3.45,3.45,0,0,0-1-.58,3.26,3.26,0,0,1,.83.78Z"/><polygon class="cls-20" points="175.1 125.57 175.42 126.45 175.39 125.51 175.1 125.57"/><path class="cls-20" d="M175.78,125.33a2.17,2.17,0,0,1,.53.63,2.35,2.35,0,0,0-.31-.82Z"/><path class="cls-20" d="M174.37,124.15a1.23,1.23,0,0,0-.77-.12,1,1,0,0,1,.59.35Z"/><polygon class="cls-20" points="174.29 125.07 173.77 125.66 174.49 125.28 174.29 125.07"/><polygon class="cls-20" points="175.87 124.96 177.55 125.55 175.99 124.69 175.87 124.96"/><polygon class="cls-20" points="176.04 124.29 177.46 123.36 175.92 124.03 176.04 124.29"/><polygon class="cls-20" points="175.81 123.68 176.09 123.06 175.56 123.52 175.81 123.68"/><path class="cls-20" d="M175.36,125.35a.6.6,0,0,0,0,.35l.08.29.16.56,0-.58v-.29c0-.1,0-.2,0-.23Z"/><polyline class="cls-20" points="176.15 126.16 175.89 125.3 175.63 125.42 176.15 126.16"/><polygon class="cls-20" points="176.03 124.72 178.02 124.85 176.07 124.44 176.03 124.72"/><path class="cls-20" d="M174.62,125.2a3.81,3.81,0,0,0-.45,1.11,3.33,3.33,0,0,1,.68-.92Z"/><polygon class="cls-20" points="176.27 124.47 177.1 124.04 176.17 124.2 176.27 124.47"/><path class="cls-20" d="M176,123.83a2.24,2.24,0,0,1,.55-.61,2.42,2.42,0,0,0-.77.42Z"/><path class="cls-20" d="M175,125.38a1.16,1.16,0,0,0,0,.78,1,1,0,0,1,.27-.63Z"/><polygon class="cls-20" points="175.88 125.34 176.53 125.79 176.06 125.12 175.88 125.34"/></g></g><circle class="cls-21" cx="175.18" cy="124.32" r="1.44"/><circle class="cls-22" cx="175.09" cy="123.68" r="0.26"/><circle class="cls-22" cx="174.51" cy="124.28" r="0.51"/><path class="cls-5" d="M180.54,122.64a10.21,10.21,0,0,0-1.74-1,10.75,10.75,0,0,0-1.92-.62,9.78,9.78,0,0,0-4,0,8.68,8.68,0,0,0-3.54,1.66,5.5,5.5,0,0,0-2.14,3h0l-.6-.27a12.62,12.62,0,0,1,8.05-3.81,8.31,8.31,0,0,1,4.46,1,20.93,20.93,0,0,1,3.52,2.82l.82.74a3,3,0,0,1,.8,1,1.22,1.22,0,0,1,0,.92,1.24,1.24,0,0,1-.65.63,2.64,2.64,0,0,1-1.35.19,6.57,6.57,0,0,1-1.09-.31.28.28,0,0,0-.21,0,3.26,3.26,0,0,0-.4.25,8.85,8.85,0,0,1-2.14,1,9,9,0,0,1-8.78-2.09l.89-.88a7.86,7.86,0,0,0,7.57,1.9,7.46,7.46,0,0,0,1.87-.83,5.15,5.15,0,0,1,.54-.32,1.39,1.39,0,0,1,.86-.1,9.28,9.28,0,0,0,1,.31,1.63,1.63,0,0,0,.8-.09c.11,0,.13-.07.14-.1s0,0,0-.15c-.14-.42-.83-.93-1.33-1.44a20.57,20.57,0,0,0-3.31-2.74,7.39,7.39,0,0,0-4-1,11.76,11.76,0,0,0-7.58,3.49l-.6.55v-.82h0a4,4,0,0,1,.56-2.27,6.29,6.29,0,0,1,1.5-1.74,9.46,9.46,0,0,1,4.1-1.84,9.75,9.75,0,0,1,4.43.2,8.88,8.88,0,0,1,3.83,2.15Z"/><path class="cls-12" d="M184.08,119.09a24.94,24.94,0,0,0-5.17-1.73,28.58,28.58,0,0,0-16.13,1.25l-.74-1.34a16.91,16.91,0,0,1,5.47-2.64,20.65,20.65,0,0,1,6.06-.81,20.12,20.12,0,0,1,6.05,1,14.37,14.37,0,0,1,5.33,3Z"/><path class="cls-5" d="M191.58,120.75a99.39,99.39,0,0,0,4.68,19.49c.53,1.58,1.19,3.14,1.61,4.83a8.31,8.31,0,0,1-.16,5.32,8.56,8.56,0,0,1-3.73,3.86c-.37.22-.76.42-1.15.62l-.29.14a2.32,2.32,0,0,1-.41.15,4.94,4.94,0,0,1-.71.14,10.74,10.74,0,0,1-2.73.06l.25-1.46a9.2,9.2,0,0,0,2.28,0,4.05,4.05,0,0,0,.54-.09l.18-.06.27-.13c.37-.17.73-.35,1.08-.55a7.24,7.24,0,0,0,3.27-3.15,7.16,7.16,0,0,0,.22-4.57c-.35-1.58-1-3.15-1.46-4.76a100.49,100.49,0,0,1-4.2-19.76Z"/><path class="cls-24" d="M193.8,163.87l-2.66-2.39s-1-1-1.1-1a14.88,14.88,0,0,0-1.89,0c-.15.07-5.29,3.28-5.67,3.19a22.88,22.88,0,0,1-2.32-1.24l-1.73,3.49s4.1-1.89,4.36-1.89Z"/><path class="cls-24" d="M189.59,163.87l2.82-2.39s1.1-1,1.17-1a16.66,16.66,0,0,1,2,0c.17.07,5.63,3.28,6,3.19a24.32,24.32,0,0,0,2.47-1.24l1.84,3.49s-4.35-1.89-4.64-1.89Z"/><polygon class="cls-25" points="186.12 163.95 189.26 167.1 194.85 167.1 198.28 163.67 186.12 163.95"/><path class="cls-12" d="M161.73,108.21c-1.09,4.23-5.19,10.25-9.71,14.74-3.4,3.37-8.18,10.63-8.05,15.41.48,18.53,8.41,29.8,9.93,31.74a7.27,7.27,0,0,1,1.43,1.85c.91,2.42.94,6-.14,7.47-6-1.7-13-7.17-16.51-12.32s-5.46-10.66-7.11-16.65c-3.16-11.41-.38-25.06.87-29.2,4.32-14.33,9.25-24.84,18.8-34.29C162,76.31,171.7,70.85,185.1,69.85a6.52,6.52,0,0,1,4.08.62c2.16,1.41,2,4.55,1.68,7.11-.49,3.48-.16,13.93-3.4,15.72-1.48.81-4.84-1-10.84-.28C168.47,94,163.64,100.85,161.73,108.21Z"/><path class="cls-12" d="M198,70.38A42.12,42.12,0,0,1,218.8,83.72c2.46,3.15,9.72,6.5,11.68,21,.32,2.41,2.7,6.65,3,9.53.38,3.23,3,9.69-3.45,30.62-.75-1.81-2.9-6.15-2.82-8.12.15-3.71-.11-6.45-1.46-8.48-2-3-4.28-10.22-4.63-12.36-2.56-15.34-9-20-18.45-21.69-2.88-.51-10.53-.18-12.21-1-1.34-.61-1.68-2.28-1.63-3.76a67.46,67.46,0,0,1,1.29-10.88c.3-1.47-.16-3.07-.09-4.55C190.12,72.83,192.26,68.8,198,70.38Z"/><g class="cls-26"><path class="cls-15" d="M157.36,175.46c-10.52-8.64-15.76-22.63-15.76-36.24a29.73,29.73,0,0,1,.65-6.79c.55-2.32,1.49-10.4,6.48-15.56,7.47-7.74,4.54-10.41,10.62-18,6.59-8.22,14.56-8.58,24.33-8.69A4.49,4.49,0,0,0,188.11,86q.4-5.55.44-11.13a3.07,3.07,0,0,0-.67-2.38,3,3,0,0,0-2-.54c-11.38-.25-19,5.93-29.59,12.77-9.15,5.93-27.35,33.11-23.82,56.06,1.31,8.53,2.6,12.51,6.59,20.17s11.6,13.87,19.63,17"/><path class="cls-15" d="M157.74,176.83c-10.81-7.19-17.15-20-19-32.82-2.07-14.23,2.53-22.5,5.14-25.63,6.68-8,4.46-12.23,9-18.54s16-12,27.52-12.71c1.74-.12,3.78-.29,4.7-1.77a4.86,4.86,0,0,0,.56-2.09,28.09,28.09,0,0,0,.08-4.4c-.09-1.55-.44-3.31-1.79-4.09-1.17-.68-2.65-.34-3.94.07-6.73,2.11-11.64,5.18-17.56,9a86.3,86.3,0,0,0-9.62,7.3c-12.68,11.36-18,29.05-17.38,46.57a54.58,54.58,0,0,0,7.38,25.41c4.49,7.48,11.75,12.67,19.82,16"/><path class="cls-15" d="M137.65,125.76c2-9.23,6.4-21.81,12.71-28.82a58,58,0,0,1,10.12-9.11c5.5-3.83,11.25-7.65,17.81-9a3.61,3.61,0,0,1,3,.35c1.12.92.79,2.85-.28,3.84a8.32,8.32,0,0,1-4,1.61A54.66,54.66,0,0,0,155.19,95c-6.73,5.06-14,18.3-17.54,30.76"/></g><g class="cls-27"><path class="cls-15" d="M227.27,164.14c1.94-3,2.41-6.67,2.37-10.21s-.51-7.1-.25-10.63c.23-3.08,1-6.09,1.19-9.17a22.65,22.65,0,0,0-1.49-9.36c-.74-1.92-1.74-3.74-2.4-5.69a61.1,61.1,0,0,1-1.58-6.84,32,32,0,0,0-7.4-14.87A21.92,21.92,0,0,0,203,90.17c-2.84-.13-6,.28-8.2-1.55-1.68-1.42-2.2-3.78-2.31-6a24.19,24.19,0,0,1,.94-7.94,4.57,4.57,0,0,1,1.09-2.09c1.39-1.31,3.64-.64,5.37.17a60.65,60.65,0,0,1,23.18,18.71,25.88,25.88,0,0,1,3.62,6.36c.71,1.94,1.06,4,1.62,6,.83,3,2.13,5.9,2.88,8.93a46.79,46.79,0,0,1,1.06,7.36,234,234,0,0,1,.58,31.77"/><path class="cls-15" d="M230.81,145.67l.82-10.33c.28-3.39.54-6.87-.35-10.15-.51-1.92-1.41-3.72-2-5.64a48.12,48.12,0,0,1-1-6.11,36.64,36.64,0,0,0-5.41-14.9,24.68,24.68,0,0,0-12.23-9.83c-3.22-1.11-6.65-1.42-10-2.18a8.93,8.93,0,0,1-3.09-1.18,5,5,0,0,1,.21-8.42,3.71,3.71,0,0,1,1.85-.59,4.75,4.75,0,0,1,2.07.53c4.49,2,7.49,6.3,11.29,9.44,2.53,2.09,5.46,3.7,7.73,6.09,2.9,3.06,4.46,7.12,6,11.07a58.72,58.72,0,0,1,2.43,7.4c.61,2.66.85,5.39,1.43,8,.38,1.79.93,3.54,1.27,5.34,1.71,9-1.63,18.24-.37,27.28"/><path class="cls-15" d="M206.07,82.16c-1.3-1.27-2.74-2.61-4.55-2.78a2.63,2.63,0,0,0-1.86.43,1.67,1.67,0,0,0-.69,1.71c.21.81,1.1,1.24,1.91,1.46,1,.25,1.94.35,2.91.54a17.53,17.53,0,0,1,6.3,2.69C209,85.22,206.81,82.89,206.07,82.16Z"/></g><path class="cls-5" d="M201.41,81.63a61.46,61.46,0,0,0-34.53,2.22c-13,4.63-24.55,16.49-30.37,29.43-2.79,6.2-3.78,13.08-4.68,19.81-.31,2.35-1.13,10.38.47,16.77-3.23-3.22-4.18-16-2.43-27.86,2.11-14.25,7.42-27.8,17.54-38.17,11.07-11.35,31-19.23,47-15.94,7.54,1.55,20.27,2.84,33.85,27.51,4.53,8.23,6.89,22.13,5.39,31.42-1.42-6.68-2.67-13.16-3.67-16.89a44.12,44.12,0,0,0-5.84-13.13A36.07,36.07,0,0,0,201.41,81.63Z"/><path class="cls-4" d="M118.16,188.21c-.68,2.21-1.67,4.31-1.58,6.68,0,.09,0,.17,0,.26.36,5.11,3.77,6.3,6.13,1.54,4-8.15,3-19.4,2.18-28.19-1.11-12.59-2.28-23.29,0-36,4.17-23.29,17.18-46.92,39.45-57.37,23.35-11,51-6,62,18.44,12.3,27.54,4.32,60.06.53,88.58-.57,4.29-2.42,11.31-.3,15.44,1,1.88,4.19,3,5.89.47.84-1.25,0-5.74.08-7.55,1-21.34,5.11-43.12,3.62-64.51-.8-11.46-1.24-24.8-7.29-34.84-16.77-27.84-41-24.62-52.32-22.9-19.75,3-34.07,15.79-44,32.82-11.61,20-14.4,43.24-13.84,65.66.12,4.76.69,9.52.49,14.29A46,46,0,0,1,118.16,188.21Z"/><path class="cls-7" d="M117.16,187.94c-.92,2.87-2,5.58-1.42,8.65.33,1.76,1.33,3.87,3.32,4.11,2.16.26,3.7-1.79,4.56-3.49a27.4,27.4,0,0,0,2.46-8,72.37,72.37,0,0,0,.16-17.28c-.53-6.37-1.23-12.72-1.5-19.11-.95-22.46,6-46.09,21.39-62.86,13.37-14.53,34.6-23.12,54.18-17.7a38,38,0,0,1,21.74,15.71c6.46,9.84,9,22.19,9.62,33.77.72,12.58-.72,25.18-2.52,37.62-.88,6.14-1.87,12.27-2.75,18.41-.37,2.56-.71,5.12-1.14,7.67a37.13,37.13,0,0,0-.74,8c.11,2,.49,4.5,2.1,5.92a4.49,4.49,0,0,0,5.65.38c1.69-1.31,1.63-3.28,1.51-5.23a60.32,60.32,0,0,1,0-7.84c.9-13.94,2.83-27.8,3.5-41.75a177.13,177.13,0,0,0-.2-20.48,168.63,168.63,0,0,0-1.78-17.67,46.68,46.68,0,0,0-5.66-16.3A57.15,57.15,0,0,0,219.13,77.5a43.5,43.5,0,0,0-22.32-10.73A63,63,0,0,0,178,67a57.49,57.49,0,0,0-26.44,10.56c-8.47,6.26-15.18,14.64-20.36,23.76a103.77,103.77,0,0,0-11.81,35.26c-2,12.64-2,25.3-1.32,38,.22,4.36.32,9.08-.92,13.33a1,1,0,0,0,2,.55c1.19-4.09,1.23-8.68,1-12.89-.28-6.44-.62-12.82-.45-19.26a131.73,131.73,0,0,1,5.56-36.15c6.31-20.07,19.75-40.11,40.07-47.92a65.52,65.52,0,0,1,21.17-4,45.11,45.11,0,0,1,20.88,3.89c9,4.25,16.3,11.89,21.1,20.57,5.59,10.1,5.81,22.29,6.57,33.52.91,13.53-.37,27.08-1.68,40.55-.67,6.77-1.35,13.55-1.77,20.35a56.33,56.33,0,0,0,0,7.35,7.47,7.47,0,0,1-.07,2.79,2.05,2.05,0,0,1-2.56,1.1c-2.27-.67-2.47-3.72-2.49-5.68a43.08,43.08,0,0,1,.86-7.76c.93-5.55,1.62-11.15,2.47-16.71,1.83-12,3.64-24,4-36.16.55-20.47-3.38-45.42-22.25-57.16-15.9-9.88-36.85-7.37-52.46,1.78-18,10.52-29.2,29.81-34,49.63a90.2,90.2,0,0,0-2.51,17.46,149.45,149.45,0,0,0,.73,19c.51,5.84,1.19,11.69,1.24,17.56,0,5.45-.3,11.71-3.17,16.52-.38.64-1.14,1.79-2,1.76s-1.2-1-1.41-1.61c-1-2.94.29-5.78,1.17-8.55C119.56,187.21,117.56,186.67,117.16,187.94Z"/><path class="cls-7" d="M167.36,69.37c-13.29,4.41-33.55,17.28-44.1,41.33-2.21,5-6,18.9-7,24.3-1.32,6.9-7.41,28.85-8.29,33.07-.61,2.93-2.62,8.21-2.21,11.08s4.22,6.48,5.72,8.92c2.21,3.61,4,7.45,6.34,11,0,0-1.79-4.28-.7-7.56s3-14.05,1.73-22.34.55-32.6,3.76-43.09,7.21-30.2,27.6-46.45Z"/><path class="cls-9" d="M223.4,195.24c.34-.18.18.09.11-.08s-.14-.14-.19-.2a4.9,4.9,0,0,1-.45-.67c-.18-.34-.54-1-.31-1.37l-.39.16c.81.25,1.22,1.39,2.22,1.11a1.39,1.39,0,0,0,.86-1.61c-.18-.9-1-1-1.71-1.25a1.21,1.21,0,0,1-.86-1.09c0-.82.83-.06,1.11.15.5.36,1.26.55,1.66-.09s-.06-1.32-.43-1.77a1.91,1.91,0,0,0-.78-.59c-.31-.13-.76-.13-1-.41a1.41,1.41,0,0,1-.15-.83c0-.18,0-.11.16-.08.35.07.66.28,1,.34a1.32,1.32,0,0,0,1.58-.79,1.34,1.34,0,0,0-.74-1.74,5,5,0,0,1-1.09-.37c-.28-.2-.65-.82-.47-1.17.29-.58,1,.57,1.4.63.67.12,1.14-.89,1.19-1.42.06-.8-.66-1-1.21-1.41-.23-.15-.69-.5-.71-.8,0-.59.89,0,1.12.1.56.32,1.21.35,1.52-.33a2.35,2.35,0,0,0-.44-2.1,1.23,1.23,0,0,0-.88-.44c-.28,0-.46,0-.64-.27a.87.87,0,0,1-.12-.7c.24-.7,1.23-.05,1.72-.1.74-.07.78-1,.76-1.54a1.37,1.37,0,0,0-.93-1.48c-.39-.11-.88-.22-1.07-.64-.29-.68.71-.72,1.11-.66.59.08,1.21.1,1.39-.6a1.38,1.38,0,0,0-.72-1.71c-.28-.1-.66-.08-.89-.29-.46-.44-.1-.68.31-.78.74-.19,1.52-.37,1.88-1.13a1.52,1.52,0,0,0-.7-1.91c-.34-.24-1-.39-.69-.88a2,2,0,0,1,1-.68,1.67,1.67,0,0,0,1.18-1.44c.08-.87-.5-1.21-1.08-1.72-.43-.39,0-.49.41-.59a2.25,2.25,0,0,0,.94-.36,1.05,1.05,0,0,0,.07-1.66c-.11-.14-.31-.35-.23-.55s.23-.19.31-.25a3,3,0,0,0,.85-.89c.25-.5,0-.83-.38-1.15-.73-.6.22-.83.51-1.41a1.63,1.63,0,0,0,.09-1.21,1.41,1.41,0,0,0-.18-.44c-.2-.27-.35-.31-.08-.64.41-.51,1.05-1.09.56-1.74-.2-.26-.53-.52-.23-.83.1-.1.3-.15.41-.24a1.32,1.32,0,0,0,.34-.47.78.78,0,0,0-.05-.83,5.65,5.65,0,0,1-.34-.51c-.15-.28-.11-.14.09-.27a1,1,0,0,0,.15-1.55c-.35-.36-.3-.44-.05-.82a1,1,0,0,0,.1-.94c-.15-.42-.82-.24-.67.18s-.21.53-.33.87a1,1,0,0,0,.15.89c.2.26.66.46.28.78-.22.18-.39.16-.46.48a1.54,1.54,0,0,0,.32,1.07c.15.19.3.21.12.48s-.32.21-.49.33a1.11,1.11,0,0,0-.07,1.62c0,.05.23.19.24.25s-.24.42-.32.51c-.26.32-.67.59-.68,1s.34.55.48.85a.9.9,0,0,1,0,.86c-.15.24-.42.34-.6.55a1.06,1.06,0,0,0,0,1.42c.12.13.4.25.48.4s-.29.53-.48.7-.53.31-.66.56a1.22,1.22,0,0,0,0,.92c.09.24.45.45.5.68.11.51-.7.6-1,.68-.54.15-1.19.5-1,1.17s1.27.84,1.29,1.62-1,1-1.61,1.39-1,1.08-.57,1.67,2.12,1,1.24,1.95c-.52.56-1.35.36-1.93.79a1.1,1.1,0,0,0,0,1.62c.49.54,1.55.23,1.48,1.17,0,.48-.29.35-.67.3a2.15,2.15,0,0,0-1.07.07,1.15,1.15,0,0,0-.7,1.63,1.81,1.81,0,0,0,.87.77,3.76,3.76,0,0,1,.82.27c.29.23.3,1.08.17,1.4s-.28.15-.56.07a1.51,1.51,0,0,0-1.69.35,1.53,1.53,0,0,0,.24,1.88,1.23,1.23,0,0,0,.82.31c.59.08.76.47.88,1,0,.16.1.44,0,.59s-.34.1-.53,0a2.73,2.73,0,0,0-1-.45c-.63-.07-1.33.32-1.19,1a2.49,2.49,0,0,0,1.24,1.43c.41.25.84.38.6.95a3.05,3.05,0,0,0-.26.5c-.09,0-.23-.22-.29-.28a1.23,1.23,0,0,0-1.52-.4c-.58.34-.51,1.12-.28,1.66.33.78.93,1,1.68,1.19a.71.71,0,0,1,.47.29.83.83,0,0,1-.07.83c-.26.28-.74.14-1.06,0s-1.12-.54-1.49,0a1.9,1.9,0,0,0,.25,1.94,1.35,1.35,0,0,0,.69.33,1.75,1.75,0,0,1,1,.63c.17.22.57.84.14,1s-.79-.45-1-.61a1,1,0,0,0-1.59.33,1.85,1.85,0,0,0,.68,2c.57.42,2.21.38,1.8,1.45-.25.63-.78.28-1.12,0a2.87,2.87,0,0,0-1.07-.71.36.36,0,0,0-.39.16c-.41.69,0,1.63.41,2.23.23.39.79,1.36,1.38,1,.39-.21,0-.81-.35-.6Z"/><g class="cls-28"><path class="cls-9" d="M115,194.8a3.72,3.72,0,0,0,.61-3.68c-.4-1-1.19-1.76-1.64-2.72-.08-.19-.17-.36,0-.54.35-.42.88.58,1,.84.26.49.64,1.2,1.3,1.12,1.22-.14,1-2.14.59-2.87a6.22,6.22,0,0,0-1.33-1.38,4.15,4.15,0,0,1-.69-.7,1.62,1.62,0,0,1-.22-.41.82.82,0,0,1-.07-.31c0-.38,0-.42.43-.4s.42.13.7.38a1.83,1.83,0,0,0,.42.31.89.89,0,0,0,.64.09,1.11,1.11,0,0,0,.73-.94,2,2,0,0,0-.18-1.41c-.41-.67-1.33-.82-1.81-1.45a.8.8,0,0,1-.21-.42l0-.16.43-.3c.09,0,.27.24.35.3a1.18,1.18,0,0,0,.76.27,1,1,0,0,0,1-.84,1.79,1.79,0,0,0-.61-1.64c-.61-.51-1.55-.8-1.88-1.61-.4-1,.71-.2,1.12-.12a.84.84,0,0,0,1-.6c.54-1.39-1.09-1.86-1.85-2.58-1-.93.53-1.22,1.14-1.57a1.82,1.82,0,0,0,.92-1.66,2.58,2.58,0,0,0-1-1.91,11.09,11.09,0,0,0-1-.65c-.43-.3-.66-1,0-1.15.49-.15,1,0,1.48-.28a1.3,1.3,0,0,0,.34-1.5c-.23-.55-.79-.77-1.28-1.05a2.52,2.52,0,0,1-.67-.49c-.45-.49.35-.29.63-.23.6.14,1.13.09,1.41-.53a2,2,0,0,0-.41-1.94,4.84,4.84,0,0,0-.86-.77c-.1-.08-.5-.29-.53-.41s.5-.36.65-.41c.62-.2,1.15-.48,1.22-1.19a2,2,0,0,0-.63-1.62c-.37-.36-1.14-.5-1.38-1-.46-.92,1.42-.63,1.81-.84a1.24,1.24,0,0,0,.33-1.63,4,4,0,0,0-1.4-1.41c-.29-.23-.86-.63-.49-1s.8-.17,1.14-.29a1.16,1.16,0,0,0,.85-1.22c-.09-.6-.66-1-1.06-1.41a.58.58,0,0,1-.14-.13,1.12,1.12,0,0,1,.12-.59c.09-.06.38,0,.5,0a.94.94,0,0,0,.69-.22c.44-.44.11-1.27-.16-1.71s-1.57-1.61-1-1.83,1,.11,1.42-.18.47-1.15.26-1.68a3.1,3.1,0,0,0-.55-.88c-.43-.52-.43-1,.3-1.2.56-.12,1.24-.21,1.25-.94a2.07,2.07,0,0,0-.77-1.42c-.21-.18-.55-.38-.51-.67s.77-.62,1.06-.85a1.84,1.84,0,0,0,.66-1.74c-.12-.64-.61-1.11-.82-1.72-.34-1,1-.87,1.57-1.39a1,1,0,0,0,.05-1.48c-.32-.43-1.05-1-.36-1.37a7.18,7.18,0,0,0,1.23-.64,1.29,1.29,0,0,0,.33-1.53,4.16,4.16,0,0,0-.65-.85c-.52-.66,0-1.05.67-1.19s1.15-.25,1.45-.86a2.59,2.59,0,0,0-.33-2.37c-.17-.31-.6-.71-.53-1.08s.19-.06.36.08a2.78,2.78,0,0,0,.34.26.93.93,0,0,0,1.31-.28,2,2,0,0,0,0-1.8,1.69,1.69,0,0,0-.58-.74c-.2-.14-1.08-.54-.58-.76.24-.12.79.12,1,.14a1.34,1.34,0,0,0,.91-.24,1.42,1.42,0,0,0,.43-1.71,1.77,1.77,0,0,0-.51-.58c-.34-.3-.29-.58-.09-1s.36-.63.66-.5.3.34.61.34c.56,0,1-.6,1.13-1.08a1.28,1.28,0,0,0-.45-1.48c-.28-.19-.62-.18-.63-.58a.61.61,0,0,1,.45-.62c.2,0,.29.1.45.2a.94.94,0,0,0,1.35-.15,2.62,2.62,0,0,0,.47-2,3.12,3.12,0,0,0-.23-1.28c-.15-.29-.35-.29-.54-.49,0-.05-.13,0,0-.18s.18-.15.34-.18a4.71,4.71,0,0,1,.84,0,1.61,1.61,0,0,0,1.37-.64,1.52,1.52,0,0,0,.23-1.73,1.63,1.63,0,0,0-.55-.46,1.19,1.19,0,0,1-.35-.2c-.34-.41.24-.53.53-.55.66,0,1.3.07,1.81-.44a2.32,2.32,0,0,0-.1-2.84l-.12.48c.47-.21,1,.24,1.54,0a1.27,1.27,0,0,0,.57-1.17,1.63,1.63,0,0,0-.19-.59s-.16-.26-.14-.32c.12-.44.48-.1.65-.07A1,1,0,0,0,136,94.8c.29-.5,0-.87-.11-1.35-.05-.2-.26-.44.27-.41.11,0,.27.16.37.2a1,1,0,0,0,.65.09,1.16,1.16,0,0,0,.84-.89,1.29,1.29,0,0,0-.33-1.11c-.16-.22-.32-.41,0-.59a1.5,1.5,0,0,1,.35-.09,5.76,5.76,0,0,0,1.08-.38c.65-.34.81-.83.34-1.39-.15-.17-.11,0,0,0l.26,0a4,4,0,0,0,.69,0c.44,0,.58-.26.63-.69a2,2,0,0,1,.9-1.54c.4-.26,1.14-.22,1.44-.59a1.14,1.14,0,0,0,.18-.6,1.58,1.58,0,0,1,.48-1c.25-.24.48-.18.81-.2a2.92,2.92,0,0,0,2.42-1.82c.21-.39-.38-.74-.59-.35a2.79,2.79,0,0,1-1.21,1.35,2.6,2.6,0,0,1-1,.14A1.74,1.74,0,0,0,142.94,85c-.05.16,0,.34-.07.5s0,.16-.19.25a3.4,3.4,0,0,1-.34.07,2.88,2.88,0,0,0-1.32.81,2.68,2.68,0,0,0-.63,1.23,2.51,2.51,0,0,1,0,.27c-.06.29.13.11-.08.17a2.65,2.65,0,0,1-.68-.06c-.38,0-.84,0-1,.44a.57.57,0,0,0,0,.48c0,.08.43.3.43.33,0,.31-1.45.56-1.69.66a.91.91,0,0,0-.6.83c0,.46.38.66.53,1s-.24.68-.65.54a3.1,3.1,0,0,0-.63-.26.81.81,0,0,0-.9.65,1.36,1.36,0,0,0,.12.79c0,.1.1.21.12.31.13.25,0,.44-.34.56l-.19-.09c-.47-.07-.92-.19-1.23.32s.17.93.21,1.47-.59.5-1,.45a1.25,1.25,0,0,0-.76.11.34.34,0,0,0-.13.47A2,2,0,0,1,132.3,99c-.27.82-1.27.49-1.93.62a1,1,0,0,0-.88,1.23c.18.6,1,.62,1.15,1.14a1.1,1.1,0,0,1-.69,1.13,3.06,3.06,0,0,1-.8,0,1.49,1.49,0,0,0-1.24.36.9.9,0,0,0,0,1.25c.07,0,.17.06.24.11a.82.82,0,0,1,.27.58,4.09,4.09,0,0,1,0,1.52,1,1,0,0,1-.29.55c-.21.17-.28.07-.46,0a1.77,1.77,0,0,0-.71-.32,1.22,1.22,0,0,0-1.17,1,1.05,1.05,0,0,0,.52,1.3c.38.18.67.32.55.82a1,1,0,0,1-.25.48c-.22.22-.2.11-.39,0a1,1,0,0,0-1.29.1,2.36,2.36,0,0,0-.69,1.49,1,1,0,0,0,.22.69c.21.26.55.36.65.7.22.76-.51.9-1.05.81a2.76,2.76,0,0,0-.95-.07.82.82,0,0,0-.57,1.14c.24.76,1.19.73,1.38,1.55.07.31.12.92-.26,1s-.58-.37-.82-.52a.76.76,0,0,0-1.18.39c-.21.7.45,1.34.74,1.9s.61,1.32.14,1.8a1.82,1.82,0,0,1-1,.33,1.56,1.56,0,0,0-1.34,1.21c-.1.87.85,1.15,1,1.9.19,1-1.74.91-2,1.89a1.76,1.76,0,0,0,.6,1.41c.13.16.3.3.32.51,0,.39-.47.52-.78.62a1.69,1.69,0,0,0-.89.45c-1,1.09.77,2.2.62,3.3-.11.89-1.19,1-1.6,1.67a1,1,0,0,0,.19,1.27c.31.33,1.59,1.31.48,1.5-.63.11-1.22.32-1.39,1s.47,1.19.81,1.79c.2.35.42,1.07-.13,1.14-.26,0-.53,0-.79,0a.89.89,0,0,0-.88.78c-.08.66.52,1.18.91,1.64.23.26.67.73.62,1.12s-.55.17-.86.21a.93.93,0,0,0-.76,1.25c.22.64,1,.9,1.26,1.49.4.76-1.17.7-1.56.94-1.47.91.42,2.14,1.08,2.73.27.23,1,1.06.42,1.37-.25.13-.71,0-1,0a1.34,1.34,0,0,0-1.18,1.21c0,1.34,2,1.22,2.08,2.58,0,.84-1.3.73-1.74,1.31s0,1,.48,1.32a3.59,3.59,0,0,1,1.1,1.06,1.24,1.24,0,0,1,.19.71c0,.46-.36.46-.72.38s-1.11-.29-1.47.2c-.69.95.94,1.71,1.55,2.07.32.19.69.52.5,1s-.51.26-.8.27a1.47,1.47,0,0,0-1.32.63,1.21,1.21,0,0,0,.24,1.59c.65.6,1.6.83,1.9,1.76.68,2.06-2.47,1.43-2.32,3.2a2,2,0,0,0,1.06,1.38c.42.27,1.56.8,1.18,1.46-.17.28-.38.11-.63,0a2.4,2.4,0,0,0-.68-.24.85.85,0,0,0-1,.83,2.37,2.37,0,0,0,1,1.69c.59.5,1.63.78,1.59,1.71s-1.08-.18-1.49-.23a1,1,0,0,0-1.08.94,2.11,2.11,0,0,0,1,1.69c.62.46,1.35.61,1.27,1.52,0,.17-.05.53-.26.59s-.76-.61-1-.76a1.06,1.06,0,0,0-1.56.28c-.74,1.23.67,2.37,1.47,3.08a2.44,2.44,0,0,1,1,1.6,1.62,1.62,0,0,1,0,.54c0,.29,0,.4-.36.34s-.52-.6-.72-.94a1.57,1.57,0,0,0-1.51-.91.89.89,0,0,0-.67,1.11c.14.92,1,1.71,1.44,2.48a3.2,3.2,0,0,1-.22,3.77c-.27.36.33.71.59.35Z"/><path class="cls-29" d="M147,82.31s-.21-1.9.75-2.23,1.86.33,2.13.11a8.56,8.56,0,0,0,1.31-1.9c.2-.47,0-.19.53-.39s.41-.41.63-.66,0-.44.52-.22,1.32.47,1-.3.22-1.52.66-1,1.78,1,1.32.16.36-.93.91-.91,1.12.59,1.07-.27-.1-1.71.44-1.13,1.38.55,1.27-.11,0-1.13.39-.85.72.12.74-.22-.39-.53.26-.44,1.05-.14,1-.44.29-.69.29-.69"/></g><path class="cls-10" d="M168.47,445.62c3.45.46,7,.41,10.39,1.11,9.92,2,17.91,10.16,27.94,11.46.69.09,1.51.21,1.58,1.15a2,2,0,0,1-1.23,1.9c-4.18,1.8-5.93,1.58-9.15,1.21a14.1,14.1,0,0,1-8.39-4.49c3.31,3.6,5.4,7.73,8.64,10.8,4.7,4.45,9.59,9.57,15.95,16.05a5.13,5.13,0,0,1,1.05,4.85,2.82,2.82,0,0,1-3.4,1.2,8.29,8.29,0,0,1-3.16-2.27c-5.5-5.48-12.19-10.94-17.69-16.42a3,3,0,0,0,.48,2.31c.56,1,1.73,3.24,5.66,6.92.69.64,3.8,3,4.45,3.64s2.17,2.29,2.92,3c2.37,2.41,4.31,4.29,6.88,6.71a4.08,4.08,0,0,1,1.12,1.69c.79,2.42-1.28,3.43-2.92,3.12a7.69,7.69,0,0,1-2.93-1.52c-2.11-1.53-4.11-3.37-6.13-5-1-.79-2.1-1.46-3.06-2.29s-1.69-1.74-2.55-2.51c-1.65-1.48-3.14-3-4.72-4.59a22.93,22.93,0,0,0-4.64-3.37.75.75,0,0,0-1.05.95c.78,1.84,2.89,3.7,4.25,4.84,5.81,4.87,9.73,10.1,15.7,14.77,1.31,1,2.23,4.31-.38,5-4,1-5.57-3.46-8.67-5.87a98.79,98.79,0,0,1-8.64-8,55.42,55.42,0,0,0-7.31-5.82.94.94,0,0,0-1.18,1.38c3.5,5.24,9.08,8.82,13.67,13.21,1.09,1.05,1.68,2.77.48,3.7a39.72,39.72,0,0,1-10-5.81,85.12,85.12,0,0,1-6.63-6l-8.55-8.25a109.82,109.82,0,0,1-9.87-10.37c-2.1-2.63-4-5.45-6.21-7.95a54.19,54.19,0,0,0-8.88-7.67,128.75,128.75,0,0,0-24.56-13.91,96.92,96.92,0,0,1,10.12-9.63c2.09-1.72,6-5.28,8.92-5.09s6.65,4.39,9,6C152.65,440.44,160.16,444.5,168.47,445.62Z"/><path class="cls-30" d="M306,446.2l2.71-9.73"/><path class="cls-7" d="M25.3,436.33c-2.05-8.5-.95-17.55,1.91-25.81,5.32-15.41,17.24-28.84,32.66-34.11S94,375,104.64,387.34c4-6.73,13-9.47,20.62-7.46s13.65,8,17.22,15,4.92,14.88,5.59,22.7a15.16,15.16,0,0,0,1.09,5.36,14.53,14.53,0,0,0,3.36,4L165,438.69c-7.8-2.27-16,4.13-18.67,11.8s-1.35,16.09,0,24.1c-11.16-4.61-23.06-9.32-35-7.34-5.8,1-11.2,3.46-16.76,5.37a84.64,84.64,0,0,1-20.21,4.27c-4.83.42-9.91.38-14.27-1.73-7.6-3.68-13.31-12.3-19.71-17.75C33.43,451.45,27.53,445.6,25.3,436.33Z"/></g></svg>