<svg id="Layer_1" data-name="Layer 1" xmlns="http://www.w3.org/2000/svg" xmlns:xlink="http://www.w3.org/1999/xlink" viewBox="0 0 264 214"><defs><style>.cls-1,.cls-14,.cls-28{fill:none;}.cls-2{fill:#7541ee;isolation:isolate;opacity:0.2;}.cls-3{fill:#fff;}.cls-4{fill:#9ac0e6;}.cls-5{fill:#1a293f;}.cls-6{fill:#d1e7fd;}.cls-7{clip-path:url(#clip-path);}.cls-8{fill:#729fcc;}.cls-9{fill:#f9efde;}.cls-10,.cls-12{fill:#dbc4b4;}.cls-10{opacity:0.63;}.cls-11{fill:#9e4a26;}.cls-12{opacity:0.32;}.cls-13{clip-path:url(#clip-path-2);}.cls-14{stroke:#852d07;stroke-width:0.62px;}.cls-14,.cls-28{stroke-miterlimit:10;}.cls-15{fill:#93c8fd;}.cls-16{fill:#4485c7;}.cls-17{opacity:0.84;}.cls-18{clip-path:url(#clip-path-3);}.cls-19{fill:#1c5d9c;}.cls-20{fill:#10161c;}.cls-21{fill:#202c38;}.cls-22{clip-path:url(#clip-path-4);}.cls-23{fill:#9e3636;}.cls-24{fill:#872f2f;}.cls-25{clip-path:url(#clip-path-5);}.cls-26{clip-path:url(#clip-path-6);}.cls-27{clip-path:url(#clip-path-7);}.cls-28{stroke:#729fcc;stroke-width:0.51px;}</style><clipPath id="clip-path"><path class="cls-1" d="M139.68,127.05c-2.07,6.26,1,10.43-4.66,13.76-.84.49-11,1.63-10.58,2.53a2.23,2.23,0,0,0,.38.53c8.42,9.32,17.74,17.78,26.58,26.71,3.88,3.91,7.66,7.91,11.44,11.91l16.69,17.67c6.68,7.07,13.4,14.2,18.64,22.39,4.88-3.8,7.45-10,8.09-16.13s-.44-12.34-1.69-18.39c-4.56-22.14-11.75-44.42-26.19-61.8a8.57,8.57,0,0,0-2.84-2.49,9.43,9.43,0,0,0-4.07-.51A81.79,81.79,0,0,1,151.26,121C145.23,119.57,140.27,125.27,139.68,127.05Z"/></clipPath><clipPath id="clip-path-2"><path class="cls-1" d="M180.82,359l-14.22-1.26a283.59,283.59,0,0,0-18.75-128.86c-2.14-5.42-4.52-10.91-6.81-16.22-4.21-9.73-8.55-19.78-11.89-30.21-5.78-18-7.64-29.24-5.05-42.85a6,6,0,0,1,4.21-4.62l1.74.22a4.77,4.77,0,0,0,3.32-.81L135.5,133a2.33,2.33,0,0,1,2.95,2.64c-2,12.16-.66,27.06,4.29,42.54,3.13,9.75,7.33,19.48,11.4,28.89,2.34,5.41,4.76,11,7,16.63A298.11,298.11,0,0,1,180.82,359Z"/></clipPath><clipPath id="clip-path-3"><circle class="cls-1" cx="185.58" cy="68.35" r="2.02"/></clipPath><clipPath id="clip-path-4"><circle class="cls-1" cx="160.11" cy="69.56" r="2.02"/></clipPath><clipPath id="clip-path-5"><path class="cls-1" d="M147.22,59.25c-1.39,2.89-5.82,6.52-6.87,9.56-1.15,3.32-3.47,7.09-3.38,10.61.36,13.62,6,22.08,7.3,23.34a6.07,6.07,0,0,1,1.4,5.8c-4.4-1.25-8.87-5.18-11.44-9A38.62,38.62,0,0,1,129,87a74.51,74.51,0,0,1-1.9-11.4,51.42,51.42,0,0,1,0-9.53,40.61,40.61,0,0,1,13.28-25.76A45.31,45.31,0,0,1,167.22,29a4.72,4.72,0,0,1,3,.46c1.59,1,1.51,3.34,1.24,5.22-.36,2.56-.12,10.24-2.5,11.56-1.09.6-3.56-.73-8-.2C155,46.79,150,53.46,147.22,59.25Z"/></clipPath><clipPath id="clip-path-6"><path class="cls-1" d="M172,29.31a5.11,5.11,0,0,1,4.22-.33c8.85,2.7,14.58,8.18,15.62,9.52C194,41.26,200.5,47.19,202,60.22c.28,2.38,3,8.59-1.72,24-.56-1.33-2.13-4.52-2.08-6a19.73,19.73,0,0,0-.32-5.64c-.41-2-1.88-3.62-2.31-5.61-.33-1.57-.35-3.18-.57-4.76-1.07-8-6-15.28-13-16.53-2.12-.37-9.63,1.13-10.86.56-1-.45-1.24-1.68-1.2-2.76a48,48,0,0,1,.95-8,23.32,23.32,0,0,0-.07-3.34A3.79,3.79,0,0,1,172,29.31Z"/></clipPath><clipPath id="clip-path-7"><path class="cls-1" d="M154.18,28.67c-9.78,3.25-24.68,12.71-32.44,30.4-1.62,3.71-4.42,13.9-5.18,17.87-1,5.08-5.45,21.22-6.1,24.33-.44,2.15-1.92,6-1.62,8.15s3.1,4.76,4.21,6.56c1.63,2.65,3,5.48,4.66,8.08,0,0-1.31-3.15-.52-5.56a44,44,0,0,0,1.28-16.43c-1-6.11.41-24,2.77-31.7s5.3-22.21,20.29-34.16Z"/></clipPath></defs><path class="cls-2" d="M75,0H264V217H95Z"/><path class="cls-3" d="M335.1,409.7a154.14,154.14,0,0,0-2.64-26.61c-3.58-18.16-12-36-26.49-47.48-8.1-6.4-18.18-11-23.38-19.9-4.35-7.46-4.42-16.54-5.59-25.09-3.89-28.38-20.69-53.09-31.11-79.77-6.44-16.47-10.55-34-19.63-49.17s-24.83-28.06-42.49-27.24a15.79,15.79,0,0,1,6.68-16.32c2.11,1.61,5.07,5.94,9.39,6.66,6.61,4.89,5.34-29.57,5.77-44.55s-2.84-30.88-13.13-41.77S161,21.7,145.32,31.29c-26,16-38.88,50.34-36.76,80.81.19,2.74,3.76,6.71,5.62,8.73s5.67,2.38,7.09,0a43.63,43.63,0,0,0,12,12c-8.38,11.18-25.72,8.26-38.74,13.34-13.81,5.39-21.79,19.46-29.7,32A290.58,290.58,0,0,1,29.18,224C22.42,231,14.84,237.18,7.94,244.07c-4.89,4.89-3.1,15.12-1.3,21.11,3.65,12.12,12.68,22.35,22.7,29.76,15,11.08,32.87,18.2,46.48,30.93a67.51,67.51,0,0,0-9.43,30.42c-.26,4.24.13,9.06,3.37,11.81,4.64,3.94,11.58,1.24,17.63.75,17.08-1.38,29.26,15.81,44.75,23.13,22.43,10.6,48.52-.56,73.3-1.77a91.24,91.24,0,0,1,67.44,25.61c11.41,11.17,19.84,25.36,32.59,35,7.36,5.56,18.86,8.93,25,2.08,3.41-3.78,3.8-9.33,4-14.42C334.92,428.89,335.31,419.27,335.1,409.7Z"/><path class="cls-3" d="M209.58,377.27a104.8,104.8,0,0,1,72.28,29.38,191.67,191.67,0,0,1,13.75,15.5c5.76,7,11.19,13.57,17.59,18.4a15.76,15.76,0,0,0,7.89,3.33,34,34,0,0,0,.62-5.95c.38-9.19.77-18.68.57-27.94h0a143.15,143.15,0,0,0-2.41-24.41c-3.41-17.29-11.17-31.46-21.86-39.9-2-1.58-4.26-3.11-6.66-4.74-6.89-4.65-14.69-9.93-19.84-18.76-4.83-8.28-5.79-17.07-6.63-24.82-.19-1.67-.37-3.35-.59-5-2.32-16.92-10-32.85-18.14-49.72-4.21-8.74-8.56-17.77-12.22-27.12-2.14-5.5-4-11.06-5.85-16.44-3.77-11.12-7.34-21.63-12.83-30.81-6-10.08-17.72-21.62-30.88-21l-10.74.5-2.37-10.49a28.67,28.67,0,0,1,12.24-29.94l7.57-4.87,1.38,1.06c.15-5,.18-10,.2-13.5,0-3.82,0-7.33.14-10.16.23-8.11-.71-23.13-9.64-32.6-6-6.37-20.77-11.37-31.12-5-16.92,10.37-28.55,32.22-30.56,55.84l10.46,15.66a31.22,31.22,0,0,0,8.5,8.49l11.27,7.52-8.13,10.85c-8.52,11.36-21.54,13.34-32,14.92-4.62.71-9,1.37-12.33,2.67-8.85,3.46-15.13,13.49-21.77,24.11l-1.75,2.78a303.84,303.84,0,0,1-37.26,47.74c-4,4.22-8.24,8.05-12.31,11.76-3,2.7-5.78,5.26-8.47,7.91a24,24,0,0,0,1.25,9c2.45,8.13,8.86,16.35,18,23.14a202.36,202.36,0,0,0,18.28,11.55c10,5.82,20.26,11.84,29.34,20.32l7.56,7.08-5.32,8.89a54.67,54.67,0,0,0-7.63,24.6l1.48-.24c1.7-.28,3.64-.6,5.67-.76,15.88-1.27,27.54,7.56,37.84,15.37,4.69,3.55,9.11,6.9,13.44,8.95,11.69,5.53,26.41,3,42,.3a208,208,0,0,1,25.2-3.29Q207.2,377.27,209.58,377.27Z"/><path class="cls-3" d="M321.33,465.25c-7,0-14.64-2.77-21-7.6-8.41-6.34-14.91-14.23-21.2-21.86A174.59,174.59,0,0,0,266.87,422a82.41,82.41,0,0,0-57.23-23.26c-1.26,0-2.53,0-3.78.09a189.85,189.85,0,0,0-22.61,3c-9.36,1.62-19.05,3.29-28.85,3.29s-18.34-1.74-25.93-5.33c-6.34-3-11.87-7.19-17.22-11.25-7.91-6-14.7-11.13-22-11.13-.4,0-.79,0-1.18,0-1.11.09-2.4.3-3.77.53l-.14,0a46.85,46.85,0,0,1-7.81.82,18,18,0,0,1-12.16-4.12c-4.77-4-6.92-10.4-6.39-18.9a75.57,75.57,0,0,1,5.83-24.84l1.31-3.1-2.73-2c-5.51-4-11.47-7.48-17.78-11.17a222.42,222.42,0,0,1-20.22-12.82c-9.1-6.73-21-18.13-25.82-34.19-2.26-7.53-4.83-21.39,3.46-29.67,3.21-3.21,6.55-6.26,9.79-9.2l.07-.07c4-3.6,7.7-7,11.24-10.71A282.48,282.48,0,0,0,57.6,173.64l1.7-2.71c7.83-12.51,16.69-26.67,32.15-32.71a71.09,71.09,0,0,1,14.86-3.58l8.6-1.33-6.35-6q-.37-.35-.72-.72c-3.87-4.21-7.5-8.82-7.85-13.94C97.87,82.28,109.69,43,140.83,24a41.86,41.86,0,0,1,22.21-6c13.29,0,27.3,5.75,35.7,14.64,13.51,14.32,15.87,34,15.46,47.92-.08,2.76-.1,6.12-.12,9.68-.13,19.53-.39,31.82-3.94,38.17l-1.94,3.47,3.33,2.16a72.21,72.21,0,0,1,22.11,23.31c6.66,11.13,10.76,23.21,14.72,34.9,1.83,5.4,3.55,10.47,5.53,15.55,3.35,8.58,7.34,16.85,11.56,25.61,8.5,17.64,17.28,35.86,20.06,56.12.26,1.84.46,3.74.67,5.59.67,6.18,1.31,12,3.84,16.34,2.69,4.62,7.62,7.95,13.33,11.82,2.66,1.79,5.35,3.61,7.94,5.66,14.69,11.61,25.2,30.27,29.6,52.57a163.22,163.22,0,0,1,2.8,28.05v0c.21,9.92-.19,19.74-.58,29.23-.23,5.46-.56,13.62-6.22,19.89A20.1,20.1,0,0,1,321.33,465.25ZM209.58,381.51a101.21,101.21,0,0,1,69.32,28.17,188.29,188.29,0,0,1,13.44,15.16c5.92,7.18,11.51,14,18.3,19.09A19.63,19.63,0,0,0,321,448.12l3.27.07.9-3.14a31.36,31.36,0,0,0,.78-6.95c.38-9.24.78-18.79.57-28.21A146.66,146.66,0,0,0,324,384.76c-3.61-18.28-11.91-33.34-23.39-42.41-2.1-1.66-4.42-3.23-6.88-4.89-6.87-4.65-13.93-9.42-18.59-17.42-4.37-7.5-5.24-15.45-6.08-23.14l0-.21c-.18-1.61-.36-3.27-.58-4.91-2.41-17.58-10.24-33.8-18.52-51-4.18-8.68-8.5-17.63-12.09-26.82-2.11-5.4-4-10.92-5.78-16.25-3.85-11.35-7.48-22.06-13.21-31.64-10.19-17-24-23.09-33.52-23.09l-1.19,0-7.2.34-1.59-7a24.35,24.35,0,0,1,10.41-25.44l5.06-3.26,5.59,4.27.24-8.26c.15-5.1.18-10.42.2-13.6,0-3.53.05-7.19.13-10.06.26-8.76-.8-25.05-10.78-35.62-5.25-5.56-14.54-9.3-23.12-9.3a25.07,25.07,0,0,0-13.31,3.56c-17.91,11-30.39,33.62-32.56,59.09l-.13,1.48,11.29,16.9a35.25,35.25,0,0,0,9.67,9.65l7.55,5-5.45,7.27c-7.48,10-19,11.73-29.24,13.27-4.87.74-9.46,1.44-13.24,2.91-10.16,4-16.8,14.58-23.82,25.81l-1.75,2.78A300.14,300.14,0,0,1,35.4,229.88c-3.92,4.1-8,7.87-12,11.51l-.09.08c-3,2.72-5.82,5.3-8.55,8l-1,1-.2,1.42a27.8,27.8,0,0,0,1.38,10.82c2.71,9,9.67,18,19.58,25.33A206.29,206.29,0,0,0,53.1,299.82c9.77,5.71,19.87,11.61,28.59,19.77l5.07,4.74-3.57,5.95A59,59,0,0,0,75,356.8l-.32,5.25,5.2-.8,1.53-.25c1.61-.26,3.45-.57,5.32-.72.9-.07,1.81-.11,2.7-.11,12.92,0,22.74,7.44,32.23,14.64,4.87,3.68,9.46,7.17,14.18,9.4,5.26,2.49,11.36,3.69,18.65,3.69,8.21,0,16.78-1.47,25.85-3a205.65,205.65,0,0,1,24.7-3.24C206.52,381.55,208.05,381.51,209.58,381.51Z"/><path class="cls-4" d="M152.08,149.7a3,3,0,0,0,1.61.94,2.82,2.82,0,0,0,1.52-.36c5.42-2.46,9.74-6.76,13.93-11,7.66-7.68,15.31-15.37,22.63-23.37a10.7,10.7,0,0,0,2.28-3.24,10.74,10.74,0,0,0,.52-2.94c1.35-16.11,2.71-32.3,1.53-48.43-.28-3.91-.78-8-2.93-11.26s-5.68-5.32-9.1-7.22C179.6,40.38,175,38,170,37c-10.19-2-8.35-6.87-17.53-2C143.9,39.44,128.59,53.13,126,62.43c-1.17,4.15-3.37,13.64-3.73,17.94-.91,10.77,3.73,25.92,0,39.64-1.62,6,10.31,10.63,14.66,15.1Q144.26,142.65,152.08,149.7Z"/><path class="cls-5" d="M212.83,144.51c8.65,5.64,14.49,14.77,18.5,24.3s6.42,19.63,9.85,29.38c6.87,19.48,17.7,37.33,25.42,56.49,7.52,18.66,13.36,34,13.36,62.71-1.63.25-5.89-6.27-7.52-6,.73-20.07-3.18-37.23-13-54.77s-22.74-33.1-35.8-48.37c-1,15.12-9.16,28.69-14.21,43a109.06,109.06,0,0,0-5.68,47.26c-20.46-4.68-41.77,2-62.73,1a63.33,63.33,0,0,0-16.46-37.22c-2.87-3.1-6.07-5.93-8.53-9.37-5.16-7.24-6.56-16.46-7.13-25.33a176.38,176.38,0,0,1,5.39-56.13c1.83-7,4.11-13.89,7.74-20.12,1.3-2.22,3.13-4.57,5.7-4.72a7.8,7.8,0,0,1,3.71,1c21.2,10,31.83,34.11,50.43,48.39,1.5,1.15,3.37,2.29,5.15,1.67,1.53-.52,2.36-2.14,2.93-3.64,3.72-9.85,2.75-20.83.62-31.14a148.52,148.52,0,0,0-4.48-16.61c-.92-2.75-6.15-12-3-13.25,2.16-.84,12.34,4.23,14.9,5.07C203.16,139.7,208.28,141.55,212.83,144.51Z"/><path class="cls-6" d="M139.68,127.05c-2.07,6.26,1,10.43-4.66,13.76-.84.49-11,1.63-10.58,2.53a2.23,2.23,0,0,0,.38.53c8.42,9.32,17.74,17.78,26.58,26.71,3.88,3.91,7.66,7.91,11.44,11.91l16.69,17.67c6.68,7.07,13.4,14.2,18.64,22.39,4.88-3.8,7.45-10,8.09-16.13s-.44-12.34-1.69-18.39c-4.56-22.14-11.75-44.42-26.19-61.8a8.57,8.57,0,0,0-2.84-2.49,9.43,9.43,0,0,0-4.07-.51A81.79,81.79,0,0,1,151.26,121C145.23,119.57,140.27,125.27,139.68,127.05Z"/><g class="cls-7"><polygon class="cls-8" points="85.58 133.94 94.56 140.89 90.89 151.64 81.91 144.69 85.58 133.94"/><polygon class="cls-8" points="98.22 130.14 107.21 137.09 103.54 147.84 94.56 140.89 98.22 130.14"/><polygon class="cls-8" points="110.87 126.34 119.86 133.29 116.19 144.04 107.21 137.09 110.87 126.34"/><polygon class="cls-8" points="123.52 122.54 132.5 129.49 128.84 140.23 119.86 133.29 123.52 122.54"/><polygon class="cls-8" points="136.17 118.74 145.15 125.68 141.49 136.43 132.5 129.49 136.17 118.74"/><polygon class="cls-8" points="148.82 114.94 157.8 121.88 154.14 132.63 145.15 125.68 148.82 114.94"/><polygon class="cls-8" points="161.47 111.13 170.45 118.08 166.79 128.83 157.8 121.88 161.47 111.13"/><polygon class="cls-8" points="90.89 151.64 99.88 158.59 96.21 169.33 87.23 162.39 90.89 151.64"/><polygon class="cls-8" points="103.54 147.84 112.53 154.78 108.86 165.53 99.88 158.59 103.54 147.84"/><polygon class="cls-8" points="116.19 144.04 125.17 150.98 121.51 161.73 112.53 154.78 116.19 144.04"/><polygon class="cls-8" points="128.84 140.23 137.82 147.18 134.16 157.93 125.17 150.98 128.84 140.23"/><polygon class="cls-8" points="141.49 136.43 150.47 143.38 146.81 154.13 137.82 147.18 141.49 136.43"/><polygon class="cls-8" points="154.14 132.63 163.12 139.58 159.46 150.32 150.47 143.38 154.14 132.63"/><polygon class="cls-8" points="166.79 128.83 175.77 135.77 172.1 146.52 163.12 139.58 166.79 128.83"/><polygon class="cls-8" points="96.21 169.33 105.2 176.28 101.53 187.03 92.55 180.08 96.21 169.33"/><polygon class="cls-8" points="108.86 165.53 117.84 172.48 114.18 183.23 105.2 176.28 108.86 165.53"/><polygon class="cls-8" points="121.51 161.73 130.49 168.68 126.83 179.42 117.84 172.48 121.51 161.73"/><polygon class="cls-8" points="134.16 157.93 143.14 164.87 139.48 175.62 130.49 168.68 134.16 157.93"/><polygon class="cls-8" points="146.81 154.13 155.79 161.07 152.13 171.82 143.14 164.87 146.81 154.13"/><polygon class="cls-8" points="159.46 150.32 168.44 157.27 164.77 168.02 155.79 161.07 159.46 150.32"/><polygon class="cls-8" points="172.1 146.52 181.09 153.47 177.42 164.22 168.44 157.27 172.1 146.52"/><polygon class="cls-8" points="101.53 187.03 110.52 193.97 106.85 204.72 97.87 197.78 101.53 187.03"/><polygon class="cls-8" points="114.18 183.23 123.16 190.17 119.5 200.92 110.52 193.97 114.18 183.23"/><polygon class="cls-8" points="126.83 179.42 135.81 186.37 132.15 197.12 123.16 190.17 126.83 179.42"/><polygon class="cls-8" points="139.48 175.62 148.46 182.57 144.8 193.32 135.81 186.37 139.48 175.62"/><polygon class="cls-8" points="152.13 171.82 161.11 178.77 157.44 189.51 148.46 182.57 152.13 171.82"/><polygon class="cls-8" points="164.77 168.02 173.76 174.96 170.09 185.71 161.11 178.77 164.77 168.02"/><polygon class="cls-8" points="177.42 164.22 186.41 171.16 182.74 181.91 173.76 174.96 177.42 164.22"/><polygon class="cls-8" points="106.85 204.72 115.83 211.67 112.17 222.42 103.19 215.47 106.85 204.72"/><polygon class="cls-8" points="119.5 200.92 128.48 207.87 124.82 218.61 115.83 211.67 119.5 200.92"/><polygon class="cls-8" points="132.15 197.12 141.13 204.06 137.47 214.81 128.48 207.87 132.15 197.12"/><polygon class="cls-8" points="144.8 193.32 153.78 200.26 150.11 211.01 141.13 204.06 144.8 193.32"/><polygon class="cls-8" points="157.44 189.51 166.43 196.46 162.76 207.21 153.78 200.26 157.44 189.51"/><polygon class="cls-8" points="170.09 185.71 179.08 192.66 175.41 203.41 166.43 196.46 170.09 185.71"/><polygon class="cls-8" points="182.74 181.91 191.72 188.86 188.06 199.6 179.08 192.66 182.74 181.91"/><polygon class="cls-8" points="174.01 107.43 182.99 114.38 179.33 125.12 170.34 118.18 174.01 107.43"/><polygon class="cls-8" points="186.66 103.63 195.64 110.57 191.98 121.32 182.99 114.38 186.66 103.63"/><polygon class="cls-8" points="199.31 99.83 208.29 106.77 204.63 117.52 195.64 110.57 199.31 99.83"/><polygon class="cls-8" points="211.96 96.02 220.94 102.97 217.27 113.72 208.29 106.77 211.96 96.02"/><polygon class="cls-8" points="224.6 92.22 233.59 99.17 229.92 109.92 220.94 102.97 224.6 92.22"/><polygon class="cls-8" points="237.25 88.42 246.24 95.37 242.57 106.11 233.59 99.17 237.25 88.42"/><polygon class="cls-8" points="249.9 84.62 258.88 91.56 255.22 102.31 246.24 95.37 249.9 84.62"/><polygon class="cls-8" points="179.33 125.12 188.31 132.07 184.65 142.82 175.66 135.87 179.33 125.12"/><polygon class="cls-8" points="191.98 121.32 200.96 128.27 197.3 139.02 188.31 132.07 191.98 121.32"/><polygon class="cls-8" points="204.63 117.52 213.61 124.47 209.94 135.21 200.96 128.27 204.63 117.52"/><polygon class="cls-8" points="217.27 113.72 226.26 120.66 222.59 131.41 213.61 124.47 217.27 113.72"/><polygon class="cls-8" points="229.92 109.92 238.91 116.86 235.24 127.61 226.26 120.66 229.92 109.92"/><polygon class="cls-8" points="242.57 106.11 251.56 113.06 247.89 123.81 238.91 116.86 242.57 106.11"/><polygon class="cls-8" points="255.22 102.31 264.2 109.26 260.54 120.01 251.56 113.06 255.22 102.31"/><polygon class="cls-8" points="184.65 142.82 193.63 149.76 189.97 160.51 180.98 153.57 184.65 142.82"/><polygon class="cls-8" points="197.3 139.02 206.28 145.96 202.61 156.71 193.63 149.76 197.3 139.02"/><polygon class="cls-8" points="209.94 135.21 218.93 142.16 215.26 152.91 206.28 145.96 209.94 135.21"/><polygon class="cls-8" points="222.59 131.41 231.58 138.36 227.91 149.11 218.93 142.16 222.59 131.41"/><polygon class="cls-8" points="235.24 127.61 244.22 134.56 240.56 145.3 231.58 138.36 235.24 127.61"/><polygon class="cls-8" points="247.89 123.81 256.87 130.75 253.21 141.5 244.22 134.56 247.89 123.81"/><polygon class="cls-8" points="260.54 120.01 269.52 126.95 265.86 137.7 256.87 130.75 260.54 120.01"/><polygon class="cls-8" points="189.97 160.51 198.95 167.46 195.28 178.21 186.3 171.26 189.97 160.51"/><polygon class="cls-8" points="202.61 156.71 211.6 163.66 207.93 174.4 198.95 167.46 202.61 156.71"/><polygon class="cls-8" points="215.26 152.91 224.25 159.85 220.58 170.6 211.6 163.66 215.26 152.91"/><polygon class="cls-8" points="227.91 149.11 236.9 156.05 233.23 166.8 224.25 159.85 227.91 149.11"/><polygon class="cls-8" points="240.56 145.3 249.54 152.25 245.88 163 236.9 156.05 240.56 145.3"/><polygon class="cls-8" points="253.21 141.5 262.19 148.45 258.53 159.2 249.54 152.25 253.21 141.5"/><polygon class="cls-8" points="265.86 137.7 274.84 144.65 271.18 155.39 262.19 148.45 265.86 137.7"/><polygon class="cls-8" points="195.28 178.21 204.27 185.15 200.6 195.9 191.62 188.95 195.28 178.21"/><polygon class="cls-8" points="207.93 174.4 216.92 181.35 213.25 192.1 204.27 185.15 207.93 174.4"/><polygon class="cls-8" points="220.58 170.6 229.56 177.55 225.9 188.3 216.92 181.35 220.58 170.6"/><polygon class="cls-8" points="233.23 166.8 242.21 173.75 238.55 184.5 229.56 177.55 233.23 166.8"/><polygon class="cls-8" points="245.88 163 254.86 169.94 251.2 180.69 242.21 173.75 245.88 163"/><polygon class="cls-8" points="258.53 159.2 267.51 166.14 263.85 176.89 254.86 169.94 258.53 159.2"/><polygon class="cls-8" points="149.97 210.57 158.95 217.52 155.29 228.27 146.31 221.32 149.97 210.57"/><polygon class="cls-8" points="162.62 206.77 171.6 213.72 167.94 224.47 158.95 217.52 162.62 206.77"/><polygon class="cls-8" points="175.27 202.97 184.25 209.92 180.59 220.66 171.6 213.72 175.27 202.97"/><polygon class="cls-8" points="187.91 199.17 196.9 206.12 193.23 216.86 184.25 209.92 187.91 199.17"/><polygon class="cls-8" points="200.46 195.47 209.44 202.41 205.78 213.16 196.79 206.21 200.46 195.47"/><polygon class="cls-8" points="213.11 191.66 222.09 198.61 218.43 209.36 209.44 202.41 213.11 191.66"/><polygon class="cls-8" points="225.75 187.86 234.74 194.81 231.07 205.56 222.09 198.61 225.75 187.86"/><polygon class="cls-8" points="238.4 184.06 247.39 191 243.72 201.75 234.74 194.81 238.4 184.06"/><polygon class="cls-8" points="251.05 180.26 260.04 187.2 256.37 197.95 247.39 191 251.05 180.26"/><polygon class="cls-8" points="263.7 176.46 272.69 183.4 269.02 194.15 260.04 187.2 263.7 176.46"/><polygon class="cls-8" points="205.78 213.16 214.76 220.1 211.09 230.85 202.11 223.91 205.78 213.16"/><polygon class="cls-8" points="218.43 209.36 227.41 216.3 223.74 227.05 214.76 220.1 218.43 209.36"/><polygon class="cls-8" points="231.07 205.56 240.06 212.5 236.39 223.25 227.41 216.3 231.07 205.56"/><polygon class="cls-8" points="243.72 201.75 252.71 208.7 249.04 219.45 240.06 212.5 243.72 201.75"/><polygon class="cls-8" points="256.37 197.95 265.35 204.9 261.69 215.65 252.71 208.7 256.37 197.95"/></g><path class="cls-9" d="M183.2,134.34,179.51,144a9.12,9.12,0,0,1-13.61,4.29l-20.67-13.93V94h38Z"/><path class="cls-6" d="M198.44,124.52l-17.25-14.91L200.24,58.5s4.1,13.62.42,34.67S194.37,121.85,198.44,124.52Z"/><path class="cls-10" d="M183.2,134.34,179.51,144a9.12,9.12,0,0,1-13.61,4.29l-20.67-13.93V94h38Z"/><path class="cls-11" d="M174.07,29.93a7.65,7.65,0,0,1,4,0c5,1.17,9,4.91,12.21,8.92,8.58,10.71,13.31,24.82,11.28,38.39-.41,2.67-1.06,5.3-1.42,8-.32,2.36-.41,4.75-.9,7.07a21.19,21.19,0,0,1-14.1,15.5,70.14,70.14,0,0,0-3.64-20.54c-.91-2.71-2-5.71-.82-8.32a22.54,22.54,0,0,1-9.44-10.13,38.2,38.2,0,0,1-3.48-13.56,46,46,0,0,1,.8-14.14,44.22,44.22,0,0,1,2.3-6.83C171.64,32.38,171.74,30.65,174.07,29.93Z"/><path class="cls-9" d="M198.38,74.45c-.23,5-.47,9.93-.7,14.91a25.64,25.64,0,0,1-1.34,8.36c-1.31,3.3-3.91,5.89-6.46,8.36-4.76,4.63-10.15,9.49-16.78,9.94a18.29,18.29,0,0,1-3.31-.09c-1.32-.15-2.63-.41-3.93-.67-4,.59-8.32-1.1-11.72-3.26a48.7,48.7,0,0,1-9-8.06c-3-3.21-6-6.57-7.58-10.68A32,32,0,0,1,136,83.83c-.49-8.48-.42-17.24,2.71-25.13,2.51-6.35,6.86-11.78,11.19-17.06C154.51,36,166.32,30.88,173,30.9c2.6,0,4.58,2.43,6.6,4.05a63.18,63.18,0,0,1,9.13,9.5c3.92,4.81,7.81,10.47,7.19,16.64-.12,1.12,1.3,2.17,1.52,3.27.3,1.45-.3,2.68.31,4A12.91,12.91,0,0,1,198.38,74.45Z"/><path class="cls-5" d="M90,146.86c-10.08,4.93-15.68,15.67-21,25.56C62.79,184,56,195.5,47,205.09c-8.41,8.91-18.59,16-27.06,24.85S4.56,250.25,5.17,262.49c.53,10.73,6.91,20.59,15.38,27.2,3.89,3,25.82,20.6,40.79,9,4.13-3.2,1.28-18.63,4.68-22.6,5.89-6.9,11.2-15,19.58-18.46a13.85,13.85,0,0,1,5.79-1.19,16.86,16.86,0,0,1,6.53,1.92A48.14,48.14,0,0,1,110.38,267c1.38,1.32,2.89,2.81,4.8,2.86,2.64.07,4.45-2.64,5.3-5.14A24.35,24.35,0,0,0,121,251c-1-4.1-3.15-7.92-3.66-12.12-.57-4.6.83-9.2,1.28-13.81a34.1,34.1,0,0,0-1.76-14.52,43.85,43.85,0,0,1-2.19-6.65c-.71-3.89.36-7.87,1.41-11.69l9.55-34.7c.93-3.36,3-9.92.78-13.18-2.13-3.09-6.75-1.29-10.12-1.13C107.49,143.56,98.16,142.86,90,146.86Z"/><path class="cls-6" d="M221.83,210.5c-5.56,9.41,1,14.77-10.13,31.41-3.35,5-11.9,30.59-13.26,42.77-1,9-4.7,27.84-3.32,36.59,1.23,7.8,5.92,15.65,13.8,16.17,4.82.32,9.56-1.75,13.36-4.74s6.8-6.85,9.76-10.66c0,5.21.51,10.74,3.59,15,3.28,4.5,9.15,6.68,14.71,6.31s10.78-3,15-6.63c1.46-1.23,3.63-2.61,5.05-1.33a9.1,9.1,0,0,1,.93,1.28,4.36,4.36,0,0,0,5.35.87,8.5,8.5,0,0,0,3.66-4.45c3.4-8.18-.2-17.67-5.48-24.78,1.21-1.51,1.39-3.58,1.44-5.52.71-29.53-19.17-61.52-38.24-82.82C235.15,216.65,226.26,203,221.83,210.5Z"/><path class="cls-12" d="M198.38,74.45c-.23,5-.47,9.93-.7,14.91a25.64,25.64,0,0,1-1.34,8.36c-1.31,3.3-3.91,5.89-6.46,8.36-4.76,4.63-10.15,9.49-16.78,9.94a18.29,18.29,0,0,1-3.31-.09c3.83-5.15-1.37-9.64-.21-13.41a17.23,17.23,0,0,0,1-5.64,15.23,15.23,0,0,0-1-5.35c2.76.09,5.91-1.27,6.57-4a9,9,0,0,0-.65-4.75,100.48,100.48,0,0,1-3.11-12.11A102.43,102.43,0,0,1,170.7,49c.08-3-.14-5.93,1.51-8.6a12.7,12.7,0,0,1,6.54-5.16l.8-.25a63.18,63.18,0,0,1,9.13,9.5c3.92,4.81,7.81,10.47,7.19,16.64-.12,1.12,1.3,2.17,1.52,3.27.3,1.45-.3,2.68.31,4A12.91,12.91,0,0,1,198.38,74.45Z"/><path class="cls-11" d="M180.82,359l-14.22-1.26a283.59,283.59,0,0,0-18.75-128.86c-2.14-5.42-4.52-10.91-6.81-16.22-4.21-9.73-8.55-19.78-11.89-30.21-5.78-18-7.64-29.24-5.05-42.85a6,6,0,0,1,4.21-4.62l1.74.22a4.77,4.77,0,0,0,3.32-.81L135.5,133a2.33,2.33,0,0,1,2.95,2.64c-2,12.16-.66,27.06,4.29,42.54,3.13,9.75,7.33,19.48,11.4,28.89,2.34,5.41,4.76,11,7,16.63A298.11,298.11,0,0,1,180.82,359Z"/><g class="cls-13"><path class="cls-14" d="M134.75,132.07c-3,4.73-6.1,9.62-7.11,15.14"/><path class="cls-14" d="M127.6,134.33l2.79,5.16"/><path class="cls-14" d="M122.46,143.43a45,45,0,0,0,4.76,3.27,19.45,19.45,0,0,1,3.6,3.24"/><path class="cls-14" d="M139.44,140.12a43.92,43.92,0,0,0-7.17,7.57,25,25,0,0,0-4.33,9.43"/><path class="cls-14" d="M121.92,153.86a23.89,23.89,0,0,1,11.34,9.81"/><path class="cls-14" d="M140.37,152.8a50.66,50.66,0,0,0-5.81,7.86A18.14,18.14,0,0,0,132,170"/><path class="cls-14" d="M122.48,164.4a30.72,30.72,0,0,1,8.73,4.89,15.09,15.09,0,0,1,5.26,8.33"/><path class="cls-14" d="M135.54,184.84a20.63,20.63,0,0,1,2.32-10,45.74,45.74,0,0,1,5.63-7.55"/><path class="cls-14" d="M127.73,183.34a14,14,0,0,1,13.73,7.37"/><path class="cls-14" d="M140.44,197.58a14,14,0,0,1,7.37-13.73"/><path class="cls-14" d="M131.76,198.2a14.13,14.13,0,0,1,7.92-.79,17.4,17.4,0,0,1,8.13,4.42"/><path class="cls-14" d="M148.62,211a14,14,0,0,1,3.15-15.27"/><path class="cls-14" d="M133.69,210.22c2.9,1,4.45-2,10.4-1.09,2.71.4,5.59,1.84,9.06,5.62"/><path class="cls-14" d="M156.55,208a21.35,21.35,0,0,0-4.17,15.4"/></g><circle class="cls-15" cx="185.58" cy="68.35" r="2.1"/><path class="cls-5" d="M185.58,66.33a2,2,0,1,1-2,2,2,2,0,0,1,2-2m0-.15a2.18,2.18,0,1,0,2.17,2.17,2.18,2.18,0,0,0-2.17-2.17Z"/><circle class="cls-16" cx="185.58" cy="68.35" r="1.88"/><g class="cls-17"><g class="cls-18"><polygon class="cls-19" points="185.64 68.57 185.68 69.87 185.42 68.59 185.64 68.57"/><polygon class="cls-19" points="185.13 68.54 184.17 69.33 184.97 68.39 185.13 68.54"/><polygon class="cls-19" points="184.75 68.24 184.25 68.3 184.69 68.03 184.75 68.24"/><path class="cls-19" d="M186,68.3a.41.41,0,0,1,.24.1l.19.12.36.23-.41-.14-.2-.07a.43.43,0,0,0-.17,0Z"/><polygon class="cls-19" points="186.01 68.5 186.42 69.02 185.87 68.66 186.01 68.5"/><polygon class="cls-19" points="185.44 68.62 185.09 70.05 185.22 68.59 185.44 68.62"/><path class="cls-19" d="M186.08,67.74a2.59,2.59,0,0,1,.87-.07,2.39,2.39,0,0,0-.79.27Z"/><polygon class="cls-19" points="185.21 68.74 184.72 69.23 185.04 68.61 185.21 68.74"/><path class="cls-19" d="M184.83,68.37a1.7,1.7,0,0,0-.55.25,1.75,1.75,0,0,1,.46-.44Z"/><path class="cls-19" d="M186.13,68a.79.79,0,0,1,.55.15.76.76,0,0,0-.5,0Z"/><polygon class="cls-19" points="185.9 68.65 186.07 69.21 185.71 68.73 185.9 68.65"/><polygon class="cls-19" points="184.88 68.09 183.58 67.97 184.89 67.88 184.88 68.09"/><polygon class="cls-19" points="184.97 67.59 184.31 66.54 185.14 67.46 184.97 67.59"/><polygon class="cls-19" points="185.32 67.26 185.32 66.76 185.53 67.23 185.32 67.26"/><path class="cls-19" d="M185.1,68.51a.61.61,0,0,1-.13.23l-.14.16-.28.33.19-.39.09-.19a.26.26,0,0,0,.06-.16Z"/><polygon class="cls-19" points="184.9 68.48 184.33 68.81 184.76 68.31 184.9 68.48"/><polygon class="cls-19" points="184.85 67.89 183.48 67.36 184.91 67.68 184.85 67.89"/><path class="cls-19" d="M185.64,68.64a2.53,2.53,0,0,1,0,.87,2.55,2.55,0,0,0-.17-.82Z"/><polygon class="cls-19" points="184.76 67.64 184.34 67.1 184.91 67.49 184.76 67.64"/><path class="cls-19" d="M185.18,67.32a1.51,1.51,0,0,0-.18-.58,1.94,1.94,0,0,1,.38.51Z"/><path class="cls-19" d="M185.36,68.65a.85.85,0,0,1-.22.53.81.81,0,0,0,0-.51Z"/><polygon class="cls-19" points="184.76 68.35 184.19 68.44 184.71 68.14 184.76 68.35"/><polygon class="cls-19" points="185.45 67.4 185.74 66.13 185.66 67.44 185.45 67.4"/><polygon class="cls-19" points="185.93 67.56 187.06 67.04 186.04 67.74 185.93 67.56"/><polygon class="cls-19" points="186.22 67.95 186.72 68.01 186.22 68.16 186.22 67.95"/><path class="cls-19" d="M185,67.57a.48.48,0,0,1-.2-.16l-.15-.16-.29-.32.36.24.18.11a.31.31,0,0,0,.15.08Z"/><polygon class="cls-19" points="185.06 67.37 184.81 66.77 185.25 67.26 185.06 67.37"/><polygon class="cls-19" points="185.66 67.4 186.36 66.11 185.85 67.49 185.66 67.4"/><path class="cls-19" d="M184.81,68.09a2.43,2.43,0,0,1-.86-.16,2.57,2.57,0,0,0,.83-.05Z"/><polygon class="cls-19" points="185.91 67.35 186.5 67 186.04 67.52 185.91 67.35"/><path class="cls-19" d="M186.18,67.8a1.54,1.54,0,0,0,.59-.11,1.64,1.64,0,0,1-.56.32Z"/><path class="cls-19" d="M184.83,67.81a.84.84,0,0,1-.49-.29.74.74,0,0,0,.5.08Z"/><polygon class="cls-19" points="185.21 67.25 185.19 66.67 185.42 67.22 185.21 67.25"/><polygon class="cls-19" points="186.06 68.05 187.29 68.5 186 68.26 186.06 68.05"/><polygon class="cls-19" points="185.84 68.51 186.21 69.7 185.65 68.6 185.84 68.51"/><polygon class="cls-19" points="185.42 68.75 185.29 69.23 185.21 68.73 185.42 68.75"/><path class="cls-19" d="M186,67.59a.45.45,0,0,1,.19-.18l.17-.12.36-.25-.28.33-.14.16a.4.4,0,0,0-.1.13Z"/><polygon class="cls-19" points="186.14 67.68 186.77 67.5 186.23 67.87 186.14 67.68"/><polygon class="cls-19" points="186.03 68.26 187.23 69.12 185.92 68.44 186.03 68.26"/><path class="cls-19" d="M185.46,67.33a2.52,2.52,0,0,1,.26-.83,2.6,2.6,0,0,0-.05.83Z"/><polygon class="cls-19" points="186.06 68.52 186.32 69.15 185.87 68.63 186.06 68.52"/><path class="cls-19" d="M185.57,68.73a1.53,1.53,0,0,0,0,.6,1.71,1.71,0,0,1-.24-.59Z"/><path class="cls-19" d="M185.73,67.39a.86.86,0,0,1,.36-.45.74.74,0,0,0-.15.48Z"/><polygon class="cls-19" points="186.24 67.84 186.81 67.89 186.24 68.05 186.24 67.84"/><polygon class="cls-19" points="185.33 68.58 184.73 69.74 185.14 68.49 185.33 68.58"/><polygon class="cls-19" points="184.91 68.3 183.68 68.52 184.84 68.1 184.91 68.3"/><polygon class="cls-19" points="184.73 67.86 184.26 67.67 184.78 67.65 184.73 67.86"/><path class="cls-19" d="M185.8,68.53a.4.4,0,0,1,.16.21l.1.19.2.38L186,69l-.15-.16s-.09-.11-.12-.11Z"/><polygon class="cls-19" points="185.7 68.7 185.79 69.36 185.49 68.77 185.7 68.7"/><polygon class="cls-19" points="185.13 68.53 184.13 69.6 184.96 68.39 185.13 68.53"/><path class="cls-19" d="M186.13,68.08a2.39,2.39,0,0,1,.79.37,2.17,2.17,0,0,0-.82-.16Z"/><polygon class="cls-19" points="184.88 68.51 184.21 68.7 184.79 68.32 184.88 68.51"/><path class="cls-19" d="M184.73,68a1.52,1.52,0,0,0-.6-.05,1.78,1.78,0,0,1,.62-.17Z"/><path class="cls-19" d="M186,68.34a.86.86,0,0,1,.41.41.7.7,0,0,0-.47-.2Z"/><polygon class="cls-19" points="185.52 68.78 185.4 69.35 185.31 68.76 185.52 68.78"/></g></g><circle class="cls-20" cx="185.38" cy="67.89" r="1.06"/><circle class="cls-21" cx="184.9" cy="67.89" r="0.19"/><circle class="cls-21" cx="185.28" cy="67.4" r="0.38"/><path class="cls-5" d="M181.24,67a6.39,6.39,0,0,1,2.52-2,7.13,7.13,0,0,1,3.19-.68,6.88,6.88,0,0,1,3.19.85,3.66,3.66,0,0,1,2,2.66h0l.07.57-.46-.3a8.73,8.73,0,0,0-5.92-1.63,5.49,5.49,0,0,0-2.78,1.2A14.58,14.58,0,0,0,181,70c-.31.43-.75.88-.8,1.2,0,.15,0,.1.12.17a1.23,1.23,0,0,0,.6,0,6.27,6.27,0,0,0,.7-.35,1,1,0,0,1,.64,0c.18.05.31.13.43.17a5.54,5.54,0,0,0,1.45.38,5.8,5.8,0,0,0,5.27-2.28l.75.53A6.64,6.64,0,0,1,184,72.35a6.47,6.47,0,0,1-1.67-.46c-.29-.14-.4-.18-.48-.14a5.39,5.39,0,0,1-.75.36,2,2,0,0,1-1,0,.87.87,0,0,1-.55-.38.92.92,0,0,1-.11-.67,2.08,2.08,0,0,1,.46-.86l.5-.63a15.06,15.06,0,0,1,2.22-2.46,6,6,0,0,1,3.11-1.3A9.19,9.19,0,0,1,192,67.64l-.39.26h0a4.1,4.1,0,0,0-1.92-2,6.39,6.39,0,0,0-2.77-.77,7.12,7.12,0,0,0-2.88.47,7,7,0,0,0-2.45,1.64Z"/><path class="cls-11" d="M177.82,64.32a10.14,10.14,0,0,1,3.43-2.77,13.62,13.62,0,0,1,4.21-1.34A12.67,12.67,0,0,1,194,61.78l-.46,1a18,18,0,0,0-7.73-.46,18.66,18.66,0,0,0-3.73,1,16.63,16.63,0,0,0-3.45,1.79Z"/><path class="cls-15" d="M160.11,71.66a2.13,2.13,0,0,1-1.54-.66,2.1,2.1,0,0,1,3.07-2.87,2.11,2.11,0,0,1-.1,3,2.11,2.11,0,0,1-1.43.56Z"/><path class="cls-5" d="M160.11,67.54a2,2,0,1,1-1.38.55,2,2,0,0,1,1.38-.55m0-.15a2.18,2.18,0,0,0-1.59,3.66,2.18,2.18,0,0,0,1.59.69,2.15,2.15,0,0,0,1.48-.59,2.12,2.12,0,0,0,.69-1.51,2.17,2.17,0,0,0-2.17-2.25Z"/><circle class="cls-16" cx="160.11" cy="69.56" r="1.88"/><g class="cls-17"><g class="cls-22"><polygon class="cls-19" points="160.21 69.76 161.07 70.75 160.38 69.63 160.21 69.76"/><polygon class="cls-19" points="160.56 69.39 161.8 69.31 160.57 69.18 160.56 69.39"/><polygon class="cls-19" points="160.63 68.92 161.04 68.62 160.53 68.73 160.63 68.92"/><path class="cls-19" d="M159.74,69.83a.52.52,0,0,0-.11.23l0,.21-.1.42.2-.38.1-.19c0-.06.07-.12.1-.13Z"/><polygon class="cls-19" points="159.89 69.97 159.95 70.63 160.1 69.98 159.89 69.97"/><polygon class="cls-19" points="160.4 69.66 161.62 70.47 160.53 69.49 160.4 69.66"/><path class="cls-19" d="M159.32,69.46a2.62,2.62,0,0,0-.69.55,2.32,2.32,0,0,1,.77-.35Z"/><polygon class="cls-19" points="160.64 69.59 161.33 69.62 160.68 69.38 160.64 69.59"/><path class="cls-19" d="M160.66,69.06a1.88,1.88,0,0,1,.58-.19,2,2,0,0,0-.64,0Z"/><path class="cls-19" d="M159.47,69.69a.86.86,0,0,0-.29.5.75.75,0,0,1,.4-.31Z"/><polygon class="cls-19" points="160.07 70.01 160.33 70.53 160.27 69.93 160.07 70.01"/><polygon class="cls-19" points="160.44 68.9 161.31 67.92 160.29 68.75 160.44 68.9"/><polygon class="cls-19" points="160.03 68.6 159.79 67.38 159.82 68.61 160.03 68.6"/><polygon class="cls-19" points="159.55 68.59 159.2 68.22 159.37 68.71 159.55 68.59"/><path class="cls-19" d="M160.56,69.35a.48.48,0,0,0,.25.08l.22,0,.43,0-.41-.15-.2-.08c-.06,0-.13,0-.14-.08Z"/><polygon class="cls-19" points="160.69 69.19 161.33 69.04 160.67 68.98 160.69 69.19"/><polygon class="cls-19" points="160.32 68.72 160.96 67.4 160.13 68.62 160.32 68.72"/><path class="cls-19" d="M160.26,69.82a2.56,2.56,0,0,0,.62.61,2.45,2.45,0,0,1-.44-.72Z"/><polygon class="cls-19" points="160.22 68.49 160.15 67.81 160 68.48 160.22 68.49"/><path class="cls-19" d="M159.69,68.53a1.43,1.43,0,0,1-.26-.54,1.56,1.56,0,0,0,.07.64Z"/><path class="cls-19" d="M160.47,69.64a.91.91,0,0,0,.52.23.76.76,0,0,1-.35-.36Z"/><polygon class="cls-19" points="160.7 69 161.18 68.68 160.6 68.81 160.7 69"/><polygon class="cls-19" points="159.55 68.78 158.47 68.05 159.42 68.95 159.55 68.78"/><polygon class="cls-19" points="159.31 69.22 158.13 69.62 159.35 69.43 159.31 69.22"/><polygon class="cls-19" points="159.36 69.7 159.04 70.09 159.5 69.86 159.36 69.7"/><path class="cls-19" d="M160,68.6a.53.53,0,0,0,0-.26v-.65l-.1.42,0,.21a.27.27,0,0,1-.06.16Z"/><polygon class="cls-19" points="159.81 68.5 159.58 67.88 159.6 68.54 159.81 68.5"/><polygon class="cls-19" points="159.4 68.92 158 68.45 159.31 69.12 159.4 68.92"/><path class="cls-19" d="M160.49,68.84a2.37,2.37,0,0,0,.52-.7,2.33,2.33,0,0,1-.65.53Z"/><polygon class="cls-19" points="159.18 69.05 158.51 69.2 159.2 69.27 159.18 69.05"/><path class="cls-19" d="M159.29,69.57a1.5,1.5,0,0,1-.51.33,1.81,1.81,0,0,0,.63-.15Z"/><path class="cls-19" d="M160.28,68.66a.88.88,0,0,0,.16-.55.72.72,0,0,1-.31.39Z"/><polygon class="cls-19" points="159.62 68.51 159.24 68.07 159.45 68.63 159.62 68.51"/><polygon class="cls-19" points="159.55 69.67 158.96 70.84 159.74 69.78 159.55 69.67"/><polygon class="cls-19" points="160.02 69.86 160.57 70.98 160.23 69.79 160.02 69.86"/><polygon class="cls-19" points="160.49 69.75 160.92 70.01 160.63 69.58 160.49 69.75"/><path class="cls-19" d="M159.31,69.27a.39.39,0,0,0-.26,0l-.21,0-.43.06.43.05.21,0c.07,0,.15,0,.17,0Z"/><polygon class="cls-19" points="159.24 69.45 158.65 69.76 159.3 69.66 159.24 69.45"/><polygon class="cls-19" points="159.71 69.81 159.43 71.25 159.92 69.87 159.71 69.81"/><path class="cls-19" d="M159.49,68.74a2.4,2.4,0,0,0-.76-.43,2.25,2.25,0,0,1,.61.58Z"/><polygon class="cls-19" points="159.87 70.01 160.1 70.66 160.08 69.96 159.87 70.01"/><path class="cls-19" d="M160.37,69.83a1.73,1.73,0,0,1,.39.46,1.77,1.77,0,0,0-.23-.6Z"/><path class="cls-19" d="M159.33,69a.8.8,0,0,0-.56-.09.72.72,0,0,1,.43.25Z"/><polygon class="cls-19" points="159.27 69.64 158.89 70.07 159.42 69.8 159.27 69.64"/><polygon class="cls-19" points="160.44 69.56 161.67 70 160.52 69.36 160.44 69.56"/><polygon class="cls-19" points="160.56 69.07 161.6 68.39 160.47 68.88 160.56 69.07"/><polygon class="cls-19" points="160.39 68.62 160.6 68.16 160.21 68.5 160.39 68.62"/><path class="cls-19" d="M160.06,69.85a.5.5,0,0,0,0,.26l.06.21.12.41,0-.43v-.21a.29.29,0,0,1,0-.17Z"/><polyline class="cls-19" points="160.64 70.44 160.45 69.81 160.26 69.9 160.64 70.44"/><polygon class="cls-19" points="160.55 69.39 162.02 69.48 160.58 69.17 160.55 69.39"/><path class="cls-19" d="M159.51,69.74a2.69,2.69,0,0,0-.32.81,2.41,2.41,0,0,1,.49-.68Z"/><polygon class="cls-19" points="160.73 69.2 161.34 68.89 160.66 69 160.73 69.2"/><path class="cls-19" d="M160.49,68.73a1.58,1.58,0,0,1,.41-.45,1.86,1.86,0,0,0-.57.31Z"/><path class="cls-19" d="M159.76,69.87a.86.86,0,0,0,0,.57A.72.72,0,0,1,160,70Z"/><polygon class="cls-19" points="160.44 69.84 160.92 70.17 160.58 69.68 160.44 69.84"/></g></g><circle class="cls-20" cx="159.93" cy="69.09" r="1.06"/><circle class="cls-21" cx="159.86" cy="68.62" r="0.19"/><circle class="cls-21" cx="159.44" cy="69.06" r="0.38"/><path class="cls-5" d="M163.87,67.86a6.84,6.84,0,0,0-2.69-1.22,7,7,0,0,0-2.92,0,6.27,6.27,0,0,0-2.6,1.21,4.06,4.06,0,0,0-1.58,2.25h0l-.43-.2a9.21,9.21,0,0,1,5.91-2.8,6,6,0,0,1,3.29.77,15.58,15.58,0,0,1,2.59,2.07l.6.55a2.09,2.09,0,0,1,.59.77.87.87,0,0,1-.49,1.14,2,2,0,0,1-1,.14,5.35,5.35,0,0,1-.8-.23c-.09,0-.19,0-.45.21a6.29,6.29,0,0,1-1.58.73,6.63,6.63,0,0,1-6.45-1.53l.65-.65a5.76,5.76,0,0,0,5.57,1.39,5,5,0,0,0,1.37-.61c.11-.06.23-.15.4-.23a1,1,0,0,1,.63-.08c.41.11.54.22.75.24a1.33,1.33,0,0,0,.6-.07c.13-.09.11,0,.09-.19-.11-.31-.61-.68-1-1a14.72,14.72,0,0,0-2.43-2,5.48,5.48,0,0,0-2.94-.74A8.73,8.73,0,0,0,154,70.28l-.4.37,0-.57h0a3.67,3.67,0,0,1,1.51-3,7,7,0,0,1,3-1.35,7.08,7.08,0,0,1,3.27.15,6.49,6.49,0,0,1,2.81,1.58Z"/><path class="cls-11" d="M166.47,65.24a17.33,17.33,0,0,0-3.8-1.27,20.28,20.28,0,0,0-4-.45,21,21,0,0,0-7.9,1.37l-.55-1a14.1,14.1,0,0,1,8.48-2.54,14.91,14.91,0,0,1,4.45.72,10.77,10.77,0,0,1,3.92,2.23Z"/><path class="cls-5" d="M172,66.46a73.27,73.27,0,0,0,3.44,14.34c.39,1.16.88,2.3,1.19,3.55a6.17,6.17,0,0,1-.12,3.91,6.39,6.39,0,0,1-2.74,2.84l-.85.46-.21.1a2,2,0,0,1-.31.11,3.52,3.52,0,0,1-.51.1,7.53,7.53,0,0,1-2,0l.19-1.07a6.8,6.8,0,0,0,1.68,0,2.26,2.26,0,0,0,.39-.07l.13,0,.21-.09c.27-.13.53-.26.79-.41a5.29,5.29,0,0,0,2.4-2.32,5.23,5.23,0,0,0,.16-3.35c-.25-1.17-.7-2.32-1.07-3.51a73.73,73.73,0,0,1-3.09-14.53Z"/><path class="cls-23" d="M173.62,98.18l-2-1.76s-.76-.75-.81-.76a9.2,9.2,0,0,0-1.39,0A41.69,41.69,0,0,1,165.3,98a17.74,17.74,0,0,1-1.71-.91l-1.27,2.56s3-1.39,3.21-1.39Z"/><path class="cls-23" d="M170.52,98.18l2.08-1.76s.81-.75.86-.76a10.29,10.29,0,0,1,1.47,0A45.31,45.31,0,0,0,179.37,98a18.73,18.73,0,0,0,1.81-.91l1.35,2.56s-3.2-1.39-3.41-1.39Z"/><polygon class="cls-24" points="167.97 98.24 170.29 100.56 174.4 100.56 176.92 98.03 167.97 98.24"/><path class="cls-11" d="M150,57.24c-.81,3.11-3.83,7.54-7.15,10.84-2.5,2.48-6,7.82-5.92,11.34.36,13.62,6.19,21.92,7.3,23.34a5.31,5.31,0,0,1,1.06,1.36c.67,1.78.69,4.39-.1,5.49-4.4-1.24-9.58-5.27-12.15-9a40.1,40.1,0,0,1-5.23-12.25c-2.32-8.39-.28-18.43.64-21.48,3.18-10.54,6.8-18.27,13.83-25.22,7.92-7.83,15-11.85,24.9-12.58a4.72,4.72,0,0,1,3,.46c1.59,1,1.51,3.34,1.24,5.22-.36,2.56-.12,10.24-2.5,11.56-1.09.6-3.56-.73-8-.2C155,46.79,151.44,51.83,150,57.24Z"/><path class="cls-11" d="M176.7,29.41A31.09,31.09,0,0,1,192,39.23c1.81,2.31,7.15,4.78,8.59,15.44.24,1.78,2,4.9,2.24,7,.27,2.38,2.2,7.13-2.54,22.52-.56-1.33-2.13-4.52-2.08-6,.11-2.72-.07-4.74-1.07-6.24a34.91,34.91,0,0,1-3.41-9.09c-1.88-11.28-6.6-14.71-13.57-15.95-2.11-.38-7.74-.13-9-.7-1-.45-1.24-1.68-1.2-2.76a48,48,0,0,1,.95-8,23.32,23.32,0,0,0-.07-3.34C170.92,31.22,172.49,28.26,176.7,29.41Z"/><g class="cls-25"><path class="cls-14" d="M146.82,106.7c-7.74-6.35-11.59-16.64-11.59-26.65a22,22,0,0,1,.48-5c.4-1.7,1.1-7.65,4.76-11.44,5.5-5.69,3.35-7.66,7.82-13.24,4.84-6,10.7-6.31,17.89-6.39a3.31,3.31,0,0,0,3.26-3q.3-4.09.32-8.19a2.27,2.27,0,0,0-.49-1.75,2.25,2.25,0,0,0-1.44-.4c-8.37-.18-14,4.36-21.76,9.39-6.73,4.37-20.12,24.36-17.53,41.23a39.56,39.56,0,0,0,4.85,14.84,28.22,28.22,0,0,0,14.44,12.52"/><path class="cls-14" d="M147.1,107.71c-7.95-5.29-12.61-14.7-14-24.14C131.6,73.1,135,67,136.9,64.72c4.91-5.89,3.28-9,6.6-13.64s11.79-8.79,20.23-9.35c1.28-.08,2.78-.21,3.46-1.3a3.49,3.49,0,0,0,.41-1.53,20.63,20.63,0,0,0,.07-3.24c-.07-1.14-.33-2.44-1.32-3a3.66,3.66,0,0,0-2.9.05c-4.95,1.56-8.56,3.82-12.92,6.63a63.54,63.54,0,0,0-7.07,5.37c-9.33,8.36-13.27,21.37-12.79,34.25a40.23,40.23,0,0,0,5.43,18.69c3.31,5.51,8.65,9.32,14.58,11.77"/><path class="cls-14" d="M132.32,70.15c1.46-6.79,4.71-16.05,9.35-21.2a42.7,42.7,0,0,1,7.45-6.7c4-2.81,8.27-5.62,13.1-6.6a2.63,2.63,0,0,1,2.22.25,2,2,0,0,1-.21,2.83,5.94,5.94,0,0,1-2.94,1.18,40.18,40.18,0,0,0-16.06,7.61c-4.95,3.72-10.3,13.47-12.91,22.63"/></g><g class="cls-26"><path class="cls-14" d="M198.24,98.38A13.37,13.37,0,0,0,200,90.86c0-2.6-.38-5.21-.18-7.81.17-2.26.75-4.48.87-6.74a16.68,16.68,0,0,0-1.09-6.89c-.54-1.41-1.28-2.75-1.77-4.18a45.44,45.44,0,0,1-1.16-5,23.38,23.38,0,0,0-5.45-10.93A16.08,16.08,0,0,0,180.38,44c-2.08-.1-4.43.21-6-1.14a6,6,0,0,1-1.7-4.4,17.5,17.5,0,0,1,.7-5.84,3.3,3.3,0,0,1,.79-1.53c1-1,2.68-.48,4,.12a44.67,44.67,0,0,1,17,13.76,19,19,0,0,1,2.66,4.68c.53,1.43.79,2.94,1.2,4.42.61,2.21,1.56,4.33,2.11,6.56A35.1,35.1,0,0,1,201.9,66a172,172,0,0,1,.42,23.37"/><path class="cls-14" d="M200.84,84.79l.61-7.6a22,22,0,0,0-.26-7.46c-.38-1.42-1-2.74-1.44-4.15a35.69,35.69,0,0,1-.77-4.49,26.74,26.74,0,0,0-4-11,18.11,18.11,0,0,0-9-7.23,69.85,69.85,0,0,0-7.33-1.61,6.44,6.44,0,0,1-2.27-.86,3.7,3.7,0,0,1,.15-6.2,2.72,2.72,0,0,1,1.35-.43,3.58,3.58,0,0,1,1.53.39c3.3,1.49,5.51,4.63,8.3,6.94,1.86,1.54,4,2.73,5.69,4.48,2.13,2.25,3.28,5.24,4.38,8.14a43.9,43.9,0,0,1,1.78,5.45c.45,1.95.62,4,1,5.92.29,1.31.69,2.6.94,3.92,1.26,6.59-1.2,13.42-.28,20.07"/><path class="cls-14" d="M182.64,38.08a6,6,0,0,0-3.34-2,2,2,0,0,0-1.37.32,1.24,1.24,0,0,0-.51,1.26,1.81,1.81,0,0,0,1.41,1.07c.7.19,1.43.26,2.14.4a12.92,12.92,0,0,1,4.64,2C184.79,40.33,183.19,38.62,182.64,38.08Z"/></g><path class="cls-5" d="M179.22,37.69a45.22,45.22,0,0,0-25.39,1.63c-9.56,3.41-18.06,12.13-22.34,21.65-2.05,4.56-2.78,9.62-3.44,14.57-.23,1.73-.83,7.63.34,12.33-2.38-2.37-3.07-11.79-1.78-20.49,1.55-10.48,5.45-20.45,12.89-28.07,8.15-8.35,22.8-14.15,34.58-11.72C179.62,28.73,189,29.68,199,47.82c3.34,6,5.07,16.27,4,23.11-1-4.92-2-9.68-2.7-12.43a32.19,32.19,0,0,0-4.3-9.65A26.55,26.55,0,0,0,179.22,37.69Z"/><path class="cls-3" d="M118,116.08c-.5,1.63-1.23,3.17-1.16,4.91a1.15,1.15,0,0,0,0,.19c.26,3.76,2.77,4.64,4.5,1.14,3-6,2.18-14.27,1.61-20.74-.82-9.26-1.68-17.13,0-26.48C126,58,135.58,40.59,152,32.91c17.18-8.06,37.53-4.43,45.56,13.55,9,20.26,3.19,44.18.4,65.15-.42,3.16-1.79,8.32-.22,11.36a2.52,2.52,0,0,0,4.32.35c.62-.93,0-4.23.06-5.56.77-15.69,3.77-31.71,2.67-47.45-.59-8.42-.91-18.23-5.36-25.62-12.34-20.47-30.16-18.1-38.49-16.84C146.38,30.06,135.85,39.47,128.58,52,120,66.69,118,83.79,118.4,100.28c.08,3.5.5,7,.36,10.51A35.05,35.05,0,0,1,118,116.08Z"/><path class="cls-6" d="M117.25,115.88c-.62,1.94-1.4,3.81-1.11,5.9.17,1.28.68,2.85,2,3.36,3.25,1.24,4.84-4.52,5.33-6.61a43.41,43.41,0,0,0,.58-12.72c-.32-4.63-.86-9.24-1.13-13.88a70.35,70.35,0,0,1,3.28-26.57,59.85,59.85,0,0,1,11.68-20.82c9.78-11.06,25.53-17.76,40.23-13.85a28.05,28.05,0,0,1,16.41,11.84c4.8,7.43,6.58,16.74,7,25.45.43,9.34-.69,18.67-2.05,27.9-.66,4.49-1.38,9-2,13.48-.52,3.71-1.63,7.67-1.16,11.43a5,5,0,0,0,1.87,3.78,3.23,3.23,0,0,0,3.73,0c1.22-.92,1.21-2.3,1.14-3.7a43.71,43.71,0,0,1-.06-5.49c.64-10.36,2.09-20.65,2.59-31a130.66,130.66,0,0,0-.14-15.2,125.43,125.43,0,0,0-1.28-12.84,34.64,34.64,0,0,0-4.11-12,41.85,41.85,0,0,0-7.64-9.53,32,32,0,0,0-16.5-8,46.67,46.67,0,0,0-13.91.15,42.47,42.47,0,0,0-19.52,7.83A55.82,55.82,0,0,0,127.69,52c-9.38,16.4-10.72,35.55-9.76,54a30.61,30.61,0,0,1-.68,9.87.76.76,0,0,0,1.47.4,29.77,29.77,0,0,0,.78-9.31c-.19-4.69-.46-9.34-.35-14a97.69,97.69,0,0,1,4-26.54c4.58-14.79,14.38-29.61,29.29-35.49a48.48,48.48,0,0,1,15.77-3.06,33.25,33.25,0,0,1,15.43,2.86,35.51,35.51,0,0,1,15.59,15.23c4.1,7.48,4.26,16.55,4.8,24.86.64,10-.34,20.07-1.31,30.05-.49,5-1,10-1.29,15a41.85,41.85,0,0,0,.09,5,4.53,4.53,0,0,1-.11,2,1.62,1.62,0,0,1-2.35.46c-1.49-.94-1.37-3.53-1.29-5a57.41,57.41,0,0,1,.78-5.7c.65-4.14,1.2-8.3,1.83-12.45,1.34-8.79,2.62-17.64,2.75-26.55.23-14.83-2.94-32.7-16.69-41-11.68-7.07-26.94-5.18-38.33,1.52-13,7.66-21.25,21.62-24.86,36-2.18,8.71-2.25,17.46-1.51,26.36.37,4.33.88,8.67,1,13,.1,4.15-.11,8.69-2,12.47-.3.6-.87,1.72-1.66,1.81s-1-.79-1.21-1.33c-.64-2.11.28-4.14.91-6.13C119,115.35,117.55,114.94,117.25,115.88Z"/><path class="cls-6" d="M154.18,28.67c-9.78,3.25-24.68,12.71-32.44,30.4-1.62,3.71-4.42,13.9-5.18,17.87-1,5.08-5.45,21.22-6.1,24.33-.44,2.15-1.92,6-1.62,8.15s3.1,4.76,4.21,6.56c1.63,2.65,3,5.48,4.66,8.08,0,0-1.31-3.15-.52-5.56a44,44,0,0,0,1.28-16.43c-1-6.11.41-24,2.77-31.7s5.3-22.21,20.29-34.16Z"/><path class="cls-8" d="M195.39,121.25c.19-.08.09,0,0-.18a5.11,5.11,0,0,1-.33-.48c-.15-.26-.43-.75-.25-1l-.29.12c.58.2.86,1,1.57.83a1,1,0,0,0,.71-1c0-.59-.42-.86-.93-1s-.76-.21-.92-.66c-.08-.24,0-.51.26-.48s.34.23.46.32c.93.67,1.71-.17,1.11-1.11a1.88,1.88,0,0,0-1.16-.79c-.26-.09-.3-.18-.36-.45s-.08-.35.08-.39.57.22.76.25a1,1,0,0,0,1.13-.51,1.06,1.06,0,0,0-.3-1.24,2.23,2.23,0,0,0-.71-.25c-.35-.12-.93-.65-.53-1s.6.52,1,.46.72-.7.74-1.07c0-.54-.45-.72-.84-1-.14-.09-.64-.45-.59-.65.1-.44.79.1,1,.19a.69.69,0,0,0,1-.35,1.74,1.74,0,0,0-.29-1.46.93.93,0,0,0-.55-.37c-.18-.06-.46,0-.6-.19a.48.48,0,0,1,.16-.77c.37-.11.75.27,1.14.13s.44-.82.42-1.2a1,1,0,0,0-.6-1c-.21-.09-.82-.17-.85-.48,0-.15.25-.48.37-.52a.57.57,0,0,1,.29,0l.36,0c1,.08,1.15-1.33.34-1.7-.19-.09-.48-.06-.65-.19a.34.34,0,0,1-.05-.57,1.58,1.58,0,0,1,.44-.11,1.52,1.52,0,0,0,1.21-.94,1.22,1.22,0,0,0-.66-1.3c-.1-.07-.32-.14-.39-.23-.19-.25.05-.49.24-.63s.5-.21.74-.35a1.13,1.13,0,0,0,.62-1.12,1,1,0,0,0-.24-.61c-.14-.17-.52-.33-.62-.53-.18-.36.39-.37.63-.45a1,1,0,0,0,.59-.39c.3-.42.13-.67-.12-1s0-.5.29-.76a1.4,1.4,0,0,0,.45-.6c.1-.35-.12-.52-.35-.73s-.28-.32,0-.59.41-.33.49-.65a1.31,1.31,0,0,0-.07-.83c0-.08-.12-.16-.15-.24-.13-.34,0-.39.21-.61.33-.39.44-.69.18-1.1s-.3-.43,0-.65a1,1,0,0,0,.44-.53.58.58,0,0,0-.05-.5c0-.1-.15-.18-.21-.28-.17-.3-.08-.19.05-.35.25-.32.45-.63.16-1-.06-.07-.22-.15-.25-.24s.07-.32.13-.47a.85.85,0,0,0,.06-.68c-.1-.31-.59-.18-.49.14s-.21.46-.27.7a.73.73,0,0,0,.14.59c.05.08.19.15.23.23.1.23,0,.28-.14.39s-.21.16-.23.37a1.16,1.16,0,0,0,.21.68c0,.06.17.15.18.21s-.22.3-.35.39a.74.74,0,0,0-.24,1c.15.29.34.32.12.66s-.47.42-.54.73a.64.64,0,0,0,.13.5c.12.2.25.3.25.56s-.26.47-.48.7a.79.79,0,0,0-.13,1c.25.39.7.33.23.79s-.79.47-.64,1.08c0,.2.2.3.28.47.24.51-.24.57-.61.67s-.75.27-.74.7.57.65.83,1c.83,1.11-1.94,1.18-1.57,2.41.17.58,1.17.58,1.19,1.24s-1.12.64-1.56.94a.75.75,0,0,0-.15,1,.86.86,0,0,0,.42.38c.2.09.54.07.69.23s.16.58,0,.68-.26,0-.34,0a1.63,1.63,0,0,0-.66,0,.89.89,0,0,0-.75,1c.1.55.62.76,1.08.92s.4.32.4.72c0,.12,0,.42-.08.5s-.22,0-.33,0a1.26,1.26,0,0,0-1.12.09,1,1,0,0,0-.18,1.25c.32.64,1.15.37,1.38,1,.12.32.21.89-.27.7a3.08,3.08,0,0,0-.76-.35c-.36,0-.82.12-.89.51s.32.84.61,1.08.45.23.62.39a.46.46,0,0,1,.06.66c-.15.24-.09.18-.25.11s-.25-.28-.41-.37a.84.84,0,0,0-.62-.08c-1,.29-.32,1.74.35,2,.33.14.77.11.88.5.16.58-.4.64-.81.52s-.75-.38-1.07-.12-.18,1,0,1.3c.24.48.71.38,1.11.63.19.12.63.58.55.83s-.41.1-.53,0-.25-.2-.39-.29a.76.76,0,0,0-1.1.13,1.32,1.32,0,0,0,.76,1.73c.33.13.89.14,1,.54.07.23-.08.62-.35.64s-.44-.26-.59-.4a1.91,1.91,0,0,0-.69-.43.25.25,0,0,0-.28.12c-.3.52,0,1.2.31,1.67.19.31.56.93,1,.73s0-.57-.26-.44Z"/><g class="cls-27"><path class="cls-8" d="M115.64,120.93a2.76,2.76,0,0,0,.43-2.73c-.29-.73-.87-1.28-1.18-2,0,0-.11-.19-.09-.25s.35-.12.46-.06.33.54.46.75.54.73,1,.56c.69-.26.61-1.41.36-1.94a3.29,3.29,0,0,0-.87-1,4.88,4.88,0,0,1-.53-.49,1.33,1.33,0,0,1-.28-.39c-.11-.24-.26-.93.48-.59.36.16.5.64,1,.56a.73.73,0,0,0,.55-.52,1.55,1.55,0,0,0,0-1c-.19-.54-.77-.65-1.17-1-.08-.07-.33-.28-.35-.4-.16-1,.39-.35.51-.27a.71.71,0,0,0,.42.17.73.73,0,0,0,.8-.39c.55-1.15-.9-1.6-1.48-2.21-.2-.22-.54-.93,0-.69a3.62,3.62,0,0,0,.45.2.63.63,0,0,0,.73-.32c.5-.87-.46-1.42-1.06-1.82-.29-.21-.3-.2-.31-.59s0-.35.33-.51a4.07,4.07,0,0,0,.67-.31,1.34,1.34,0,0,0,.57-1.21,1.87,1.87,0,0,0-.61-1.26,6.2,6.2,0,0,0-.67-.47c-.23-.16-.87-.48-.31-.9a.85.85,0,0,1,.42-.08,1.33,1.33,0,0,0,.89-.25,1,1,0,0,0,.15-1.06c-.16-.36-.51-.5-.83-.69a2.59,2.59,0,0,1-.52-.34c-.48-.44.32-.24.55-.2,1.06.16,1.13-1.09.65-1.76a2.65,2.65,0,0,0-.56-.55,2.33,2.33,0,0,1-.35-.27c-.24-.39,0-.28.15-.4s.47-.13.67-.28a.87.87,0,0,0,.36-.55,1.44,1.44,0,0,0-.3-1.11c-.27-.35-.66-.45-1-.71s-.43-.35,0-.64c.18-.13.36-.06.54-.07a1.15,1.15,0,0,0,.52-.06.85.85,0,0,0,.35-1.16,2.45,2.45,0,0,0-.9-1c-.23-.17-.86-.54-.5-.89.16-.15.62-.11.82-.18,1-.36.57-1.25,0-1.78-.23-.22-.62-.57,0-.68.19,0,.37,0,.57,0s.34-.53.26-.86a3.4,3.4,0,0,0-.82-1.24c-.64-.77.09-.55.59-.64a.69.69,0,0,0,.61-.6,1.55,1.55,0,0,0-.1-.74c-.1-.25-.73-.92-.67-1.11.19-.63,1-.3,1.32-.81a1,1,0,0,0-.21-1.06,4.07,4.07,0,0,0-.42-.41c-.22-.2-.25-.16-.08-.45s.23-.27.47-.43a1.41,1.41,0,0,0,.67-1.18,2.51,2.51,0,0,0-.45-1.11c-.14-.27-.37-.66,0-.93s.69-.17,1-.41a.74.74,0,0,0,.22-1c-.21-.42-1-.86-.35-1.22s1.47-.61,1.13-1.52a2,2,0,0,0-.38-.54c-.45-.63-.06-.91.46-1a1.18,1.18,0,0,0,1-.71,1.73,1.73,0,0,0-.14-1.37c-.12-.26-.48-.63-.52-.91s0-.24.23-.13.16.15.25.2c.85.53,1.28-.57,1.11-1.26a1.46,1.46,0,0,0-.28-.59c-.14-.16-.38-.22-.5-.36-.5-.58.19-.36.48-.33a1.13,1.13,0,0,0,.63,0,1,1,0,0,0,.57-1.09c-.08-.51-.71-.71-.6-1.22a1.06,1.06,0,0,1,.16-.34c.19-.25.27-.2.51-.12s.18.14.33.14c.39,0,.7-.38.82-.7a1,1,0,0,0-.19-1.1c-.13-.12-.4-.15-.5-.27s0-.52.23-.58.25,0,.5.14c.94.42,1.21-1,1.2-1.58,0-.4,0-1-.38-1.29l-.2-.09c-.08-.17.11-.23.26-.27a3.37,3.37,0,0,1,.71,0,1.26,1.26,0,0,0,1.11-1.65.81.81,0,0,0-.35-.36c-.07,0-.35-.15-.38-.23l.07-.18q0-.33.42-.21c.48,0,.94,0,1.29-.37a1.75,1.75,0,0,0-.11-2l-.16.37c.41-.15.83.18,1.23-.06a.91.91,0,0,0,.38-.71c0-.4-.43-.83.24-.86.32,0,.57,0,.81-.26a.83.83,0,0,0,.08-.78c-.06-.19-.31-.57.09-.59.12,0,.37.21.53.23A.86.86,0,0,0,132.5,45c-.17-.31-.41-.47,0-.68.24-.13.55-.15.81-.28s.73-.52.43-.93a1.2,1.2,0,0,0-.12-.11c-.08-.11-.21,0,0,0l.48,0c.22,0,.5,0,.64-.19s.07-.41.11-.58a1.47,1.47,0,0,1,.41-.7,1.56,1.56,0,0,1,.73-.38c.16,0,.35,0,.48-.15.28-.24.2-.77.4-1.07s.41-.31.8-.34a2.21,2.21,0,0,0,1.73-1.34c.15-.28-.29-.54-.44-.25a1.74,1.74,0,0,1-1.66,1.09,1.29,1.29,0,0,0-1.08,1c0,.11,0,.28-.06.38s-.25.18-.47.25a2.06,2.06,0,0,0-.9.58,2.09,2.09,0,0,0-.43.82c-.07.23,0,.34-.26.39a2.61,2.61,0,0,1-.48-.05.64.64,0,0,0-.59.32c-.14.33.13.36.23.56s0,.14-.15.22a2,2,0,0,1-.41.15,5.72,5.72,0,0,0-.59.17.7.7,0,0,0-.44.61c0,.28.4.55.39.75l-.22.22c-.1.24-.22.28-.37.13s-.12-.06-.18-.08a.85.85,0,0,0-.32,0,.57.57,0,0,0-.51.5,1.06,1.06,0,0,0,.06.5,1.1,1.1,0,0,1,.11.29l-.34.37-.13-.06c-.33,0-.6-.09-.82.27s0,.5,0,.78.16.32.08.48-.44.18-.67.15a1.1,1.1,0,0,0-.54.05.26.26,0,0,0-.15.38,1.32,1.32,0,0,1,.21,1.38c-.35.51-1.14.11-1.64.39a.7.7,0,0,0-.33.87c.19.49,1.12.59.71,1.26s-1.66-.05-2,.83a.61.61,0,0,0,.22.76c.3.24.31.41.33.82s.09,1.27-.51,1.2c-.15,0-.31-.23-.47-.26a.61.61,0,0,0-.4,0,1,1,0,0,0-.62,1c0,.42.2.51.49.72s.42,0,.34.56c0,.17-.23.44-.43.42s-.26-.23-.49-.22a1.36,1.36,0,0,0-1,1.67,1.19,1.19,0,0,0,.29.34c.17.18.33.13.31.51,0,.62-.47.49-.76.44s-.83-.18-1.09.16a.74.74,0,0,0,0,.82c.11.18.27.23.44.34a1,1,0,0,1,.43.48c.09.23.22,1-.36.79-.3-.1-.39-.46-.77-.44a.6.6,0,0,0-.49.75c.11.67.79,1.11.81,1.82,0,.9-.92.67-1.44,1a.88.88,0,0,0-.4.94c.13.53,1.19,1.17.4,1.64-.45.27-1.22.4-1.14,1.09.06.49,1,1.13.31,1.57-.38.24-.84.16-1,.67-.4,1.15,1.51,1.87.07,2.85-.33.23-.75.47-.73.93s.36.6.6.84.5.63,0,.79c-.24.09-.46.05-.68.22a.91.91,0,0,0-.36,1c.12.47,1.32,1.46.47,1.74-.33.1-.67-.1-1,.14-.85.69.67,1.69.86,2.28s-.57.23-.9.45a.71.71,0,0,0-.19,1,2,2,0,0,0,.44.47l.22.21c.21.23.26.23.08.52s-.39.23-.71.31a1,1,0,0,0-.51.3c-.72.85.71,1.49,1.15,2a.8.8,0,0,1,.26.45c0,.6-.35.38-.58.41a1.79,1.79,0,0,0-.51.07.92.92,0,0,0-.61,1c.12.86,1.88.94,1.46,2-.18.46-1,.35-1.26.82s.13.72.46,1a2.39,2.39,0,0,1,.78.8l.1.38c0,.37-.2.49-.47.37a1.57,1.57,0,0,1-.31-.08.76.76,0,0,0-.84.24c-.4.61.51,1.15.94,1.39.25.13.9.52.52.91-.13.14-.47.09-.64.1a1.06,1.06,0,0,0-.82.39c-.83,1.13,1,1.59,1.45,2.34.87,1.64-1.74,1.21-1.62,2.54a1.45,1.45,0,0,0,.76,1c.18.12.38.23.56.37s.59.82.06.8c-.31,0-.54-.33-.9-.27a.65.65,0,0,0-.51.74,2,2,0,0,0,.82,1.17c.2.16.42.28.63.42s.5.36.47.7-.2.45-.52.25-.48-.45-.89-.3a.77.77,0,0,0-.47.88,1.87,1.87,0,0,0,.79,1.06c.25.18.65.3.81.58a1,1,0,0,1,0,.81c-.21.25-.92-.59-1.3-.61a.8.8,0,0,0-.79.66c-.21.86.64,1.49,1.2,2a1.78,1.78,0,0,1,.72,1.23c0,.38-.14.84-.56.37-.18-.19-.24-.5-.42-.71-.46-.56-1.53-.65-1.44.32,0,.63.63,1.18,1,1.7a2.42,2.42,0,0,1,0,3c-.19.27.25.52.44.26Z"/><path class="cls-28" d="M139.18,38.19s-.16-1.4.55-1.64,1.37.24,1.57.08a6.13,6.13,0,0,0,1-1.4c.14-.34,0-.14.39-.28s.3-.3.46-.49,0-.32.39-.16,1,.35.75-.22.16-1.11.48-.73,1.31.73,1,.12.26-.68.67-.67.82.43.79-.2-.07-1.26.33-.83,1,.41.93-.08,0-.83.28-.63.54.09.55-.16-.29-.38.19-.32.77-.1.7-.33.22-.5.22-.5"/></g></svg>