<svg id="Layer_1" data-name="Layer 1" xmlns="http://www.w3.org/2000/svg" xmlns:xlink="http://www.w3.org/1999/xlink" viewBox="0 0 264 214"><defs><style>.cls-1,.cls-15,.cls-29,.cls-30{fill:none;}.cls-2{fill:#6243cf;}.cls-3{fill:#fff;}.cls-4{fill:#1a293f;}.cls-5{fill:#9ac0e6;}.cls-6{fill:#d1e7fd;}.cls-7{clip-path:url(#clip-path);}.cls-8{fill:#729fcc;}.cls-9{fill:#f9efde;}.cls-10,.cls-13{fill:#dbc4b4;}.cls-10{opacity:0.63;}.cls-11{fill:#9e4a26;}.cls-12{fill:#121c2b;}.cls-13{opacity:0.32;}.cls-14{clip-path:url(#clip-path-2);}.cls-15{stroke:#852d07;stroke-width:0.32px;}.cls-15,.cls-29,.cls-30{stroke-miterlimit:10;}.cls-16{fill:#93c8fd;}.cls-17{fill:#4485c7;}.cls-18{opacity:0.84;}.cls-19{clip-path:url(#clip-path-3);}.cls-20{fill:#1c5d9c;}.cls-21{fill:#10161c;}.cls-22{fill:#202c38;}.cls-23{clip-path:url(#clip-path-4);}.cls-24{fill:#9e3636;}.cls-25{fill:#872f2f;}.cls-26{clip-path:url(#clip-path-5);}.cls-27{clip-path:url(#clip-path-6);}.cls-28{clip-path:url(#clip-path-7);}.cls-29,.cls-30{stroke:#729fcc;}.cls-29{stroke-width:0.26px;}.cls-30{stroke-width:0.52px;}</style><clipPath id="clip-path"><path class="cls-1" d="M122.6,91.44c-1.06,3.21.53,5.35-2.39,7.06-.43.25-5.63.84-5.43,1.3a1,1,0,0,0,.19.27c4.32,4.79,9.11,9.13,13.65,13.71,2,2,3.93,4.06,5.87,6.12l8.57,9.07a80,80,0,0,1,9.57,11.49,12,12,0,0,0,4.15-8.28,31,31,0,0,0-.87-9.44c-2.34-11.37-6-22.8-13.44-31.73A4.43,4.43,0,0,0,141,89.74a4.74,4.74,0,0,0-2.09-.27,41.65,41.65,0,0,1-10.38-1.12C125.45,87.6,122.9,90.52,122.6,91.44Z"/></clipPath><clipPath id="clip-path-2"><path class="cls-1" d="M143.72,210.53l-7.3-.65a145.72,145.72,0,0,0-9.62-66.15c-1.11-2.78-2.32-5.6-3.5-8.33-2.16-5-4.39-10.16-6.11-15.51-3-9.26-3.92-15-2.59-22a3.09,3.09,0,0,1,2.17-2.37l.88.12a2.51,2.51,0,0,0,1.71-.42l1.1-.76A1.2,1.2,0,0,1,122,95.82c-1,6.24-.34,13.89,2.2,21.84,1.61,5,3.77,10,5.85,14.83,1.2,2.78,2.45,5.65,3.59,8.54A153,153,0,0,1,143.72,210.53Z"/></clipPath><clipPath id="clip-path-3"><circle class="cls-1" cx="146.16" cy="61.3" r="1.04"/></clipPath><clipPath id="clip-path-4"><circle class="cls-1" cx="133.09" cy="61.92" r="1.04"/></clipPath><clipPath id="clip-path-5"><path class="cls-1" d="M126.47,56.63c-.71,1.48-3,3.35-3.52,4.9-.59,1.71-1.79,3.65-1.74,5.45.18,7,3.08,11.34,3.75,12a3.1,3.1,0,0,1,.71,3,11.81,11.81,0,0,1-5.87-4.6,20,20,0,0,1-2.66-6.48,38.62,38.62,0,0,1-1-5.85,26.63,26.63,0,0,1,0-4.89A20.88,20.88,0,0,1,123,46.89a23.37,23.37,0,0,1,13.79-5.78,2.45,2.45,0,0,1,1.54.24c.82.53.77,1.72.64,2.68-.19,1.32-.06,5.26-1.29,5.94-.56.3-1.82-.38-4.09-.11C130.46,50.23,127.9,53.66,126.47,56.63Z"/></clipPath><clipPath id="clip-path-6"><path class="cls-1" d="M139.2,41.26a2.62,2.62,0,0,1,2.17-.17,18.31,18.31,0,0,1,8,4.88,19.07,19.07,0,0,1,5.22,11.16c.14,1.22,1.55,4.4-.89,12.31a11.81,11.81,0,0,1-1.07-3.07,10,10,0,0,0-.16-2.89c-.21-1-1-1.86-1.19-2.88-.17-.81-.18-1.64-.29-2.45-.55-4.11-3.07-7.84-6.65-8.48-1.09-.19-5,.58-5.58.29a1.42,1.42,0,0,1-.61-1.42,24.65,24.65,0,0,1,.48-4.11,12.35,12.35,0,0,0,0-1.72A1.94,1.94,0,0,1,139.2,41.26Z"/></clipPath><clipPath id="clip-path-7"><path class="cls-1" d="M130,40.93a29,29,0,0,0-16.65,15.61,65.92,65.92,0,0,0-2.66,9.17c-.49,2.61-2.8,10.9-3.13,12.49-.23,1.1-1,3.1-.83,4.18s1.59,2.45,2.16,3.37c.83,1.36,1.53,2.81,2.39,4.15a4.88,4.88,0,0,1-.26-2.86,22.68,22.68,0,0,0,.65-8.43c-.49-3.13.21-12.31,1.42-16.27s2.72-11.4,10.42-17.54Z"/></clipPath></defs><rect class="cls-2" x="24.95" y="-25.05" width="214" height="264.1" transform="translate(238.95 -24.95) rotate(90)"/><path class="cls-3" d="M222.93,236.54a80.16,80.16,0,0,0-1.36-13.66c-1.84-9.32-6.14-18.49-13.6-24.38-4.16-3.28-9.33-5.64-12-10.21-2.23-3.83-2.27-8.49-2.87-12.88-2-14.57-10.63-27.26-16-40.95-3.3-8.46-5.41-17.46-10.07-25.25s-12.75-14.4-21.81-14a8.1,8.1,0,0,1,3.42-8.38c1.09.83,2.61,3.05,4.82,3.42,3.4,2.51,2.75-15.18,3-22.87S155,51.55,149.71,46s-16.17-8.6-24.21-3.67c-13.38,8.19-20,25.84-18.88,41.48.1,1.41,1.94,3.44,2.89,4.48s2.91,1.22,3.64,0a22.27,22.27,0,0,0,6.18,6.17c-4.3,5.74-13.2,4.24-19.89,6.85-7.09,2.77-11.18,10-15.25,16.43a149,149,0,0,1-18.32,23.47C62.4,144.81,58.51,148,55,151.51c-2.51,2.51-1.59,7.76-.67,10.84,1.88,6.22,6.51,11.47,11.66,15.27,7.69,5.69,16.87,9.35,23.86,15.88A34.57,34.57,0,0,0,85,209.12c-.14,2.18.06,4.65,1.73,6.07,2.38,2,5.94.63,9.05.38,8.76-.71,15,8.12,23,11.87,11.51,5.44,24.91-.28,37.63-.91A46.89,46.89,0,0,1,191,239.68c5.86,5.74,10.19,13,16.73,17.95,3.78,2.86,9.69,4.59,12.86,1.07,1.76-1.94,2-4.78,2.06-7.4C222.83,246.39,223,241.45,222.93,236.54Z"/><path class="cls-3" d="M215.85,267.23a20.73,20.73,0,0,1-12.11-4.34c-4.52-3.41-7.94-7.56-11.25-11.58a88.27,88.27,0,0,0-6.12-6.92,40.33,40.33,0,0,0-29.69-11.28,97.93,97.93,0,0,0-11.34,1.51c-9.21,1.59-19.65,3.4-29.42-1.22a52.94,52.94,0,0,1-9.23-6c-3.9-2.95-7.27-5.51-10.4-5.26-.5,0-1.15.15-1.83.26-3,.49-7.9,1.31-12-2.18-3-2.54-4.36-6.41-4-11.49a41.41,41.41,0,0,1,3.17-13.47c-2.75-2-5.8-3.77-9-5.62A116.45,116.45,0,0,1,62,182.92c-4.94-3.65-11.39-9.85-14-18.67-1.3-4.33-2.73-12.35,2.32-17.4,1.7-1.7,3.45-3.29,5.14-4.83,2-1.83,3.91-3.56,5.66-5.39a142.06,142.06,0,0,0,17.51-22.44l.87-1.39c4.2-6.7,9-14.29,17.56-17.66a38.51,38.51,0,0,1,8.09-2,5.44,5.44,0,0,1-.48-.48c-2.26-2.46-4.38-5.19-4.61-8.48-1.13-16.27,5.24-37.29,22-47.56C133,30,147.41,33.92,154.5,41.43,162,49.33,163.25,60,163,67.59c0,1.37-.05,3.07-.06,4.92-.07,10.57-.23,16.94-2.3,20.65a39.28,39.28,0,0,1,12,12.67c3.54,5.92,5.69,12.24,7.76,18.35.93,2.75,1.81,5.34,2.8,7.88,1.69,4.33,3.72,8.54,5.87,13,4.43,9.2,9,18.72,10.49,29.46.14,1,.24,2,.35,2.93.32,2.93.62,5.7,1.69,7.53s3.47,3.53,6.19,5.36c1.37.93,2.8,1.89,4.2,3,7.95,6.28,13.62,16.32,16,28.28a85.1,85.1,0,0,1,1.48,14.79h0c.12,5.17-.09,10.25-.3,15.17-.12,2.9-.32,7.75-3.75,11.55A12.56,12.56,0,0,1,215.85,267.23Zm-57.36-47.34A53.8,53.8,0,0,1,195.59,235a99,99,0,0,1,7.06,8c3,3.58,5.75,7,9,9.45a8.12,8.12,0,0,0,4,1.71,17.6,17.6,0,0,0,.32-3.06c.19-4.71.39-9.59.29-14.34h0a73,73,0,0,0-1.24-12.53c-1.75-8.88-5.73-16.16-11.21-20.49-1-.8-2.19-1.59-3.43-2.43-3.53-2.39-7.54-5.1-10.18-9.63-2.48-4.25-3-8.76-3.41-12.74-.09-.86-.18-1.72-.3-2.57-1.19-8.68-5.13-16.86-9.31-25.52-2.16-4.49-4.4-9.13-6.27-13.93-1.1-2.82-2.07-5.67-3-8.43-1.93-5.72-3.76-11.11-6.58-15.83-3.1-5.17-9.1-11.09-15.86-10.78l-5.51.26-1.22-5.39a14.72,14.72,0,0,1,6.29-15.37l3.88-2.5.71.54c.08-2.55.09-5.15.11-6.93,0-2,0-3.76.06-5.21.12-4.17-.36-11.88-4.94-16.73-3.09-3.28-10.67-5.84-16-2.59-8.69,5.32-14.65,16.54-15.69,28.67l5.37,8A16,16,0,0,0,123,89l5.79,3.87-4.17,5.57c-4.38,5.83-11.06,6.84-16.43,7.66a31.69,31.69,0,0,0-6.33,1.37c-4.54,1.77-7.77,6.92-11.18,12.37l-.89,1.43a156.66,156.66,0,0,1-19.13,24.51c-2.07,2.17-4.23,4.13-6.32,6-1.52,1.39-3,2.71-4.35,4.07a12.32,12.32,0,0,0,.64,4.62c1.26,4.17,4.55,8.39,9.26,11.88a104.15,104.15,0,0,0,9.39,5.92c5.11,3,10.4,6.08,15.06,10.44l3.88,3.63-2.73,4.57a28.11,28.11,0,0,0-3.92,12.63l.76-.12c.88-.15,1.87-.31,2.91-.4,8.16-.65,14.14,3.89,19.43,7.89a41.73,41.73,0,0,0,6.9,4.6c6,2.84,13.55,1.53,21.55.15A108.47,108.47,0,0,1,156,220Q157.26,219.89,158.49,219.89Z"/><path class="cls-4" d="M222.1,258.12a3.18,3.18,0,0,1-1.11,2.39,3.29,3.29,0,0,1-2.13.22l-3.37-.42-1.35-.17a15.54,15.54,0,0,1-1.66-.28,19.47,19.47,0,0,1-13.37-10.24,40.63,40.63,0,0,0-17.49-17.37c-10.27-5.31-22.38-6.45-33.78-4.53-4.72.79-9.36,2.08-14.13,2.36a33.81,33.81,0,0,1-26.59-10.92,13.39,13.39,0,0,0-3-2.8c-5.13-3-12.72,3-17.17-.89-1.68-1.47-2.15-3.9-2.15-6.14,0-7.71,4.46-14.6,8.37-21.25,2.39-4.8,5.22-9.36,7.55-14.2,1.52-3.17,2.57-8.57,5.87-10.14,4.13-2,12.48-.84,17.09-1.13l17.16-1.09c10.58-.67,22.18-1.06,30.65,5.32,5.84,4.4,9.2,11.33,14.42,16.45,7.86,7.68,19.46,10.79,26.81,19,8.12,9,9.33,22.16,9.85,34.3C222.9,243.74,223.11,251,222.1,258.12Z"/><path class="cls-5" d="M129,103.06a1.59,1.59,0,0,0,.82.49,1.53,1.53,0,0,0,.78-.19c2.78-1.26,5-3.47,7.16-5.63,3.93-4,7.86-7.89,11.61-12a5.33,5.33,0,0,0,1.17-1.66,5.51,5.51,0,0,0,.27-1.51c.69-8.27,1.39-16.58.79-24.86a11.94,11.94,0,0,0-1.51-5.78,12.45,12.45,0,0,0-4.67-3.71,25,25,0,0,0-7.23-3c-5.23-1-4.28-3.52-9-1.05-4.39,2.31-12.25,9.34-13.6,14.11a69.07,69.07,0,0,0-1.91,9.21c-.47,5.53,1.91,13.31,0,20.35-.83,3.09,5.29,5.46,7.53,7.75Q125,99.44,129,103.06Z"/><path class="cls-4" d="M160.15,100.4c4.45,2.9,7.44,7.58,9.5,12.47S173,123,174.71,128c3.52,10,9.08,19.16,13,29,3.86,9.59,6.86,17.48,6.86,32.2-.84.13-3-3.22-3.86-3.09a51.22,51.22,0,0,0-6.66-28.12c-5-9-11.68-17-18.38-24.83-.53,7.76-4.7,14.72-7.3,22.06a56,56,0,0,0-2.91,24.26c-10.51-2.4-21.44,1-32.21.5a32.48,32.48,0,0,0-8.45-19.11,51,51,0,0,1-4.37-4.81c-2.65-3.71-3.37-8.45-3.67-13a90.61,90.61,0,0,1,2.77-28.82,40.86,40.86,0,0,1,4-10.33c.66-1.14,1.6-2.34,2.92-2.42a4,4,0,0,1,1.9.51c10.89,5.14,16.35,17.51,25.9,24.84a3,3,0,0,0,2.64.86,2.88,2.88,0,0,0,1.5-1.87c1.91-5.06,1.42-10.7.32-16a76,76,0,0,0-2.3-8.52c-.47-1.41-3.16-6.18-1.53-6.81,1.11-.43,6.34,2.18,7.65,2.61A31.72,31.72,0,0,1,160.15,100.4Z"/><path class="cls-6" d="M122.6,91.44c-1.06,3.21.53,5.35-2.39,7.06-.43.25-5.63.84-5.43,1.3a1,1,0,0,0,.19.27c4.32,4.79,9.11,9.13,13.65,13.71,2,2,3.93,4.06,5.87,6.12l8.57,9.07a80,80,0,0,1,9.57,11.49,12,12,0,0,0,4.15-8.28,31,31,0,0,0-.87-9.44c-2.34-11.37-6-22.8-13.44-31.73A4.43,4.43,0,0,0,141,89.74a4.74,4.74,0,0,0-2.09-.27,41.65,41.65,0,0,1-10.38-1.12C125.45,87.6,122.9,90.52,122.6,91.44Z"/><g class="cls-7"><polygon class="cls-8" points="94.83 94.97 99.44 98.54 97.56 104.06 92.94 100.49 94.83 94.97"/><polygon class="cls-8" points="101.32 93.02 105.93 96.59 104.05 102.11 99.44 98.54 101.32 93.02"/><polygon class="cls-8" points="107.81 91.07 112.42 94.64 110.54 100.16 105.93 96.59 107.81 91.07"/><polygon class="cls-8" points="114.31 89.12 118.92 92.69 117.04 98.2 112.42 94.64 114.31 89.12"/><polygon class="cls-8" points="120.8 87.17 125.41 90.73 123.53 96.25 118.92 92.69 120.8 87.17"/><polygon class="cls-8" points="127.29 85.22 131.9 88.78 130.02 94.3 125.41 90.73 127.29 85.22"/><polygon class="cls-8" points="133.79 83.26 138.4 86.83 136.52 92.35 131.9 88.78 133.79 83.26"/><polygon class="cls-8" points="97.56 104.06 102.17 107.63 100.29 113.14 95.67 109.58 97.56 104.06"/><polygon class="cls-8" points="104.05 102.11 108.66 105.67 106.78 111.19 102.17 107.63 104.05 102.11"/><polygon class="cls-8" points="110.54 100.16 115.15 103.72 113.27 109.24 108.66 105.67 110.54 100.16"/><polygon class="cls-8" points="117.04 98.2 121.65 101.77 119.77 107.29 115.15 103.72 117.04 98.2"/><polygon class="cls-8" points="123.53 96.25 128.14 99.82 126.26 105.33 121.65 101.77 123.53 96.25"/><polygon class="cls-8" points="130.02 94.3 134.63 97.87 132.75 103.38 128.14 99.82 130.02 94.3"/><polygon class="cls-8" points="136.52 92.35 141.13 95.91 139.25 101.43 134.63 97.87 136.52 92.35"/><polygon class="cls-8" points="100.29 113.14 104.9 116.71 103.02 122.23 98.4 118.66 100.29 113.14"/><polygon class="cls-8" points="106.78 111.19 111.39 114.76 109.51 120.27 104.9 116.71 106.78 111.19"/><polygon class="cls-8" points="113.27 109.24 117.89 112.81 116 118.32 111.39 114.76 113.27 109.24"/><polygon class="cls-8" points="119.77 107.29 124.38 110.85 122.5 116.37 117.89 112.81 119.77 107.29"/><polygon class="cls-8" points="126.26 105.33 130.87 108.9 128.99 114.42 124.38 110.85 126.26 105.33"/><polygon class="cls-8" points="132.75 103.38 137.37 106.95 135.48 112.47 130.87 108.9 132.75 103.38"/><polygon class="cls-8" points="139.25 101.43 143.86 105 141.98 110.52 137.37 106.95 139.25 101.43"/><polygon class="cls-8" points="103.02 122.23 107.63 125.79 105.75 131.31 101.14 127.74 103.02 122.23"/><polygon class="cls-8" points="109.51 120.27 114.12 123.84 112.24 129.36 107.63 125.79 109.51 120.27"/><polygon class="cls-8" points="116 118.32 120.61 121.89 118.73 127.41 114.12 123.84 116 118.32"/><polygon class="cls-8" points="122.5 116.37 127.11 119.94 125.23 125.45 120.61 121.89 122.5 116.37"/><polygon class="cls-8" points="128.99 114.42 133.6 117.98 131.72 123.5 127.11 119.94 128.99 114.42"/><polygon class="cls-8" points="135.48 112.47 140.09 116.03 138.21 121.55 133.6 117.98 135.48 112.47"/><polygon class="cls-8" points="141.98 110.52 146.59 114.08 144.71 119.6 140.09 116.03 141.98 110.52"/><polygon class="cls-8" points="105.75 131.31 110.36 134.88 108.48 140.39 103.86 136.83 105.75 131.31"/><polygon class="cls-8" points="112.24 129.36 116.85 132.92 114.97 138.44 110.36 134.88 112.24 129.36"/><polygon class="cls-8" points="118.73 127.41 123.34 130.97 121.46 136.49 116.85 132.92 118.73 127.41"/><polygon class="cls-8" points="125.23 125.45 129.84 129.02 127.96 134.54 123.34 130.97 125.23 125.45"/><polygon class="cls-8" points="131.72 123.5 136.33 127.07 134.45 132.59 129.84 129.02 131.72 123.5"/><polygon class="cls-8" points="138.21 121.55 142.83 125.12 140.94 130.63 136.33 127.07 138.21 121.55"/><polygon class="cls-8" points="144.71 119.6 149.32 123.17 147.44 128.68 142.83 125.12 144.71 119.6"/><polygon class="cls-8" points="140.22 81.36 144.84 84.93 142.96 90.45 138.34 86.88 140.22 81.36"/><polygon class="cls-8" points="146.72 79.41 151.33 82.98 149.45 88.49 144.84 84.93 146.72 79.41"/><polygon class="cls-8" points="153.21 77.46 157.82 81.03 155.94 86.54 151.33 82.98 153.21 77.46"/><polygon class="cls-8" points="159.71 75.51 164.32 79.07 162.44 84.59 157.82 81.03 159.71 75.51"/><polygon class="cls-8" points="166.2 73.56 170.81 77.12 168.93 82.64 164.32 79.07 166.2 73.56"/><polygon class="cls-8" points="172.69 71.6 177.3 75.17 175.42 80.69 170.81 77.12 172.69 71.6"/><polygon class="cls-8" points="179.19 69.65 183.8 73.22 181.92 78.73 177.3 75.17 179.19 69.65"/><polygon class="cls-8" points="142.96 90.45 147.57 94.01 145.69 99.53 141.07 95.96 142.96 90.45"/><polygon class="cls-8" points="149.45 88.49 154.06 92.06 152.18 97.58 147.57 94.01 149.45 88.49"/><polygon class="cls-8" points="155.94 86.54 160.55 90.11 158.67 95.63 154.06 92.06 155.94 86.54"/><polygon class="cls-8" points="162.44 84.59 167.05 88.16 165.17 93.67 160.55 90.11 162.44 84.59"/><polygon class="cls-8" points="168.93 82.64 173.54 86.2 171.66 91.72 167.05 88.16 168.93 82.64"/><polygon class="cls-8" points="175.42 80.69 180.03 84.25 178.15 89.77 173.54 86.2 175.42 80.69"/><polygon class="cls-8" points="181.92 78.73 186.53 82.3 184.65 87.82 180.03 84.25 181.92 78.73"/><polygon class="cls-8" points="145.69 99.53 150.3 103.1 148.42 108.61 143.8 105.05 145.69 99.53"/><polygon class="cls-8" points="152.18 97.58 156.79 101.14 154.91 106.66 150.3 103.1 152.18 97.58"/><polygon class="cls-8" points="158.67 95.63 163.28 99.19 161.4 104.71 156.79 101.14 158.67 95.63"/><polygon class="cls-8" points="165.17 93.67 169.78 97.24 167.9 102.76 163.28 99.19 165.17 93.67"/><polygon class="cls-8" points="171.66 91.72 176.27 95.29 174.39 100.81 169.78 97.24 171.66 91.72"/><polygon class="cls-8" points="178.15 89.77 182.76 93.34 180.88 98.86 176.27 95.29 178.15 89.77"/><polygon class="cls-8" points="184.65 87.82 189.26 91.39 187.38 96.9 182.76 93.34 184.65 87.82"/><polygon class="cls-8" points="148.42 108.61 153.03 112.18 151.15 117.7 146.53 114.13 148.42 108.61"/><polygon class="cls-8" points="154.91 106.66 159.52 110.23 157.64 115.75 153.03 112.18 154.91 106.66"/><polygon class="cls-8" points="161.4 104.71 166.01 108.28 164.13 113.79 159.52 110.23 161.4 104.71"/><polygon class="cls-8" points="167.9 102.76 172.51 106.32 170.63 111.84 166.01 108.28 167.9 102.76"/><polygon class="cls-8" points="174.39 100.81 179 104.37 177.12 109.89 172.51 106.32 174.39 100.81"/><polygon class="cls-8" points="180.88 98.86 185.5 102.42 183.61 107.94 179 104.37 180.88 98.86"/><polygon class="cls-8" points="187.38 96.9 191.99 100.47 190.11 105.99 185.5 102.42 187.38 96.9"/><polygon class="cls-8" points="151.15 117.7 155.76 121.26 153.88 126.78 149.26 123.22 151.15 117.7"/><polygon class="cls-8" points="157.64 115.75 162.25 119.31 160.37 124.83 155.76 121.26 157.64 115.75"/><polygon class="cls-8" points="164.13 113.79 168.75 117.36 166.86 122.88 162.25 119.31 164.13 113.79"/><polygon class="cls-8" points="170.63 111.84 175.24 115.41 173.36 120.93 168.75 117.36 170.63 111.84"/><polygon class="cls-8" points="177.12 109.89 181.73 113.46 179.85 118.97 175.24 115.41 177.12 109.89"/><polygon class="cls-8" points="183.61 107.94 188.23 111.5 186.34 117.02 181.73 113.46 183.61 107.94"/><polygon class="cls-8" points="190.11 105.99 194.72 109.55 192.84 115.07 188.23 111.5 190.11 105.99"/><polygon class="cls-8" points="108.4 140.17 113.02 143.74 111.13 149.25 106.52 145.69 108.4 140.17"/><polygon class="cls-8" points="114.9 138.22 119.51 141.78 117.63 147.3 113.02 143.74 114.9 138.22"/><polygon class="cls-8" points="121.39 136.27 126 139.83 124.12 145.35 119.51 141.78 121.39 136.27"/><polygon class="cls-8" points="127.88 134.31 132.5 137.88 130.61 143.4 126 139.83 127.88 134.31"/><polygon class="cls-8" points="134.38 132.36 138.99 135.93 137.11 141.45 132.5 137.88 134.38 132.36"/><polygon class="cls-8" points="140.87 130.41 145.48 133.98 143.6 139.5 138.99 135.93 140.87 130.41"/><polygon class="cls-8" points="147.36 128.46 151.97 132.03 150.09 137.54 145.48 133.98 147.36 128.46"/><polygon class="cls-8" points="111.13 149.25 115.75 152.82 113.86 158.34 109.25 154.77 111.13 149.25"/><polygon class="cls-8" points="117.63 147.3 122.24 150.87 120.36 156.39 115.75 152.82 117.63 147.3"/><polygon class="cls-8" points="124.12 145.35 128.73 148.92 126.85 154.43 122.24 150.87 124.12 145.35"/><polygon class="cls-8" points="130.61 143.4 135.22 146.96 133.34 152.48 128.73 148.92 130.61 143.4"/><polygon class="cls-8" points="137.11 141.45 141.72 145.01 139.84 150.53 135.22 146.96 137.11 141.45"/><polygon class="cls-8" points="143.6 139.5 148.21 143.06 146.33 148.58 141.72 145.01 143.6 139.5"/><polygon class="cls-8" points="150.09 137.54 154.71 141.11 152.82 146.63 148.21 143.06 150.09 137.54"/><polygon class="cls-8" points="113.86 158.34 118.47 161.9 116.59 167.42 111.98 163.85 113.86 158.34"/><polygon class="cls-8" points="120.36 156.39 124.97 159.95 123.09 165.47 118.47 161.9 120.36 156.39"/><polygon class="cls-8" points="126.85 154.43 131.46 158 129.58 163.52 124.97 159.95 126.85 154.43"/><polygon class="cls-8" points="133.34 152.48 137.96 156.05 136.07 161.57 131.46 158 133.34 152.48"/><polygon class="cls-8" points="139.84 150.53 144.45 154.1 142.57 159.61 137.96 156.05 139.84 150.53"/><polygon class="cls-8" points="146.33 148.58 150.94 152.14 149.06 157.66 144.45 154.1 146.33 148.58"/><polygon class="cls-8" points="152.82 146.63 157.44 150.19 155.56 155.71 150.94 152.14 152.82 146.63"/><polygon class="cls-8" points="116.59 167.42 121.21 170.99 119.32 176.5 114.71 172.94 116.59 167.42"/><polygon class="cls-8" points="123.09 165.47 127.7 169.03 125.82 174.55 121.21 170.99 123.09 165.47"/><polygon class="cls-8" points="129.58 163.52 134.19 167.08 132.31 172.6 127.7 169.03 129.58 163.52"/><polygon class="cls-8" points="136.07 161.57 140.69 165.13 138.81 170.65 134.19 167.08 136.07 161.57"/><polygon class="cls-8" points="142.57 159.61 147.18 163.18 145.3 168.7 140.69 165.13 142.57 159.61"/><polygon class="cls-8" points="149.06 157.66 153.67 161.23 151.79 166.75 147.18 163.18 149.06 157.66"/><polygon class="cls-8" points="155.56 155.71 160.17 159.28 158.28 164.79 153.67 161.23 155.56 155.71"/><polygon class="cls-8" points="119.32 176.5 123.94 180.07 122.06 185.59 117.44 182.02 119.32 176.5"/><polygon class="cls-8" points="125.82 174.55 130.43 178.12 128.55 183.64 123.94 180.07 125.82 174.55"/><polygon class="cls-8" points="132.31 172.6 136.92 176.17 135.04 181.69 130.43 178.12 132.31 172.6"/><polygon class="cls-8" points="138.81 170.65 143.42 174.22 141.53 179.73 136.92 176.17 138.81 170.65"/><polygon class="cls-8" points="145.3 168.7 149.91 172.26 148.03 177.78 143.42 174.22 145.3 168.7"/><polygon class="cls-8" points="151.79 166.75 156.4 170.31 154.52 175.83 149.91 172.26 151.79 166.75"/><polygon class="cls-8" points="158.28 164.79 162.9 168.36 161.02 173.88 156.4 170.31 158.28 164.79"/><polygon class="cls-8" points="153.8 126.56 158.41 130.12 156.53 135.64 151.92 132.07 153.8 126.56"/><polygon class="cls-8" points="160.3 124.61 164.91 128.17 163.03 133.69 158.41 130.12 160.3 124.61"/><polygon class="cls-8" points="166.79 122.65 171.4 126.22 169.52 131.74 164.91 128.17 166.79 122.65"/><polygon class="cls-8" points="173.28 120.7 177.9 124.27 176.01 129.79 171.4 126.22 173.28 120.7"/><polygon class="cls-8" points="179.78 118.75 184.39 122.32 182.51 127.83 177.9 124.27 179.78 118.75"/><polygon class="cls-8" points="186.27 116.8 190.88 120.36 189 125.88 184.39 122.32 186.27 116.8"/><polygon class="cls-8" points="192.76 114.85 197.38 118.41 195.49 123.93 190.88 120.36 192.76 114.85"/><polygon class="cls-8" points="156.53 135.64 161.15 139.21 159.26 144.72 154.65 141.16 156.53 135.64"/><polygon class="cls-8" points="163.03 133.69 167.64 137.25 165.76 142.77 161.15 139.21 163.03 133.69"/><polygon class="cls-8" points="169.52 131.74 174.13 135.3 172.25 140.82 167.64 137.25 169.52 131.74"/><polygon class="cls-8" points="176.01 129.79 180.63 133.35 178.74 138.87 174.13 135.3 176.01 129.79"/><polygon class="cls-8" points="182.51 127.83 187.12 131.4 185.24 136.92 180.63 133.35 182.51 127.83"/><polygon class="cls-8" points="189 125.88 193.61 129.45 191.73 134.97 187.12 131.4 189 125.88"/><polygon class="cls-8" points="195.49 123.93 200.11 127.5 198.22 133.01 193.61 129.45 195.49 123.93"/><polygon class="cls-8" points="159.26 144.72 163.88 148.29 161.99 153.81 157.38 150.24 159.26 144.72"/><polygon class="cls-8" points="165.76 142.77 170.37 146.34 168.49 151.86 163.88 148.29 165.76 142.77"/><polygon class="cls-8" points="172.25 140.82 176.86 144.39 174.98 149.91 170.37 146.34 172.25 140.82"/><polygon class="cls-8" points="178.74 138.87 183.36 142.44 181.47 147.95 176.86 144.39 178.74 138.87"/><polygon class="cls-8" points="185.24 136.92 189.85 140.48 187.97 146 183.36 142.44 185.24 136.92"/><polygon class="cls-8" points="191.73 134.97 196.34 138.53 194.46 144.05 189.85 140.48 191.73 134.97"/><polygon class="cls-8" points="198.22 133.01 202.84 136.58 200.95 142.1 196.34 138.53 198.22 133.01"/><polygon class="cls-8" points="161.99 153.81 166.61 157.38 164.72 162.89 160.11 159.33 161.99 153.81"/><polygon class="cls-8" points="168.49 151.86 173.1 155.42 171.22 160.94 166.61 157.38 168.49 151.86"/><polygon class="cls-8" points="174.98 149.91 179.59 153.47 177.71 158.99 173.1 155.42 174.98 149.91"/><polygon class="cls-8" points="181.47 147.95 186.09 151.52 184.2 157.04 179.59 153.47 181.47 147.95"/><polygon class="cls-8" points="187.97 146 192.58 149.57 190.7 155.09 186.09 151.52 187.97 146"/><polygon class="cls-8" points="194.46 144.05 199.07 147.62 197.19 153.13 192.58 149.57 194.46 144.05"/><polygon class="cls-8" points="200.95 142.1 205.57 145.66 203.69 151.18 199.07 147.62 200.95 142.1"/><polygon class="cls-8" points="164.72 162.89 169.34 166.46 167.46 171.98 162.84 168.41 164.72 162.89"/><polygon class="cls-8" points="171.22 160.94 175.83 164.51 173.95 170.02 169.34 166.46 171.22 160.94"/><polygon class="cls-8" points="177.71 158.99 182.32 162.56 180.44 168.07 175.83 164.51 177.71 158.99"/><polygon class="cls-8" points="184.2 157.04 188.82 160.6 186.94 166.12 182.32 162.56 184.2 157.04"/><polygon class="cls-8" points="190.7 155.09 195.31 158.65 193.43 164.17 188.82 160.6 190.7 155.09"/><polygon class="cls-8" points="197.19 153.13 201.8 156.7 199.92 162.22 195.31 158.65 197.19 153.13"/><polygon class="cls-8" points="203.69 151.18 208.3 154.75 206.41 160.26 201.8 156.7 203.69 151.18"/></g><path class="cls-9" d="M144.94,95.18l-1.89,4.94a4.68,4.68,0,0,1-7,2.21l-10.61-7.15V74.46h19.49Z"/><path class="cls-6" d="M152.77,90.14l-8.86-7.66,9.78-26.24s2.1,7,.22,17.8S150.68,88.77,152.77,90.14Z"/><path class="cls-10" d="M144.94,95.18l-1.89,4.94a4.68,4.68,0,0,1-7,2.21l-10.61-7.15V74.46h19.49Z"/><path class="cls-11" d="M140.26,41.58a3.86,3.86,0,0,1,2.05,0c2.57.6,4.62,2.52,6.27,4.58,4.4,5.5,6.83,12.74,5.79,19.71-.21,1.37-.54,2.72-.73,4.1-.16,1.21-.21,2.43-.46,3.63a10.9,10.9,0,0,1-7.24,8A35.74,35.74,0,0,0,144.07,71c-.47-1.39-1-2.93-.42-4.27a11.63,11.63,0,0,1-4.85-5.2,19.65,19.65,0,0,1-1.78-7,23.35,23.35,0,0,1,.41-7.27,21.5,21.5,0,0,1,1.18-3.5C139,42.83,139.06,42,140.26,41.58Z"/><path class="cls-9" d="M152.74,64.43l-.36,7.65a13.22,13.22,0,0,1-.69,4.3,13,13,0,0,1-3.32,4.29c-2.44,2.38-5.21,4.87-8.61,5.11a9.64,9.64,0,0,1-1.7-.06,19.8,19.8,0,0,1-2-.34,9.25,9.25,0,0,1-6-1.67,25.12,25.12,0,0,1-4.61-4.14,17.31,17.31,0,0,1-3.89-5.48,16.15,16.15,0,0,1-.81-4.84c-.26-4.36-.22-8.85,1.39-12.91a34.2,34.2,0,0,1,5.74-8.75c2.37-2.89,8.44-5.52,11.84-5.51,1.34,0,2.35,1.24,3.39,2.07A32.85,32.85,0,0,1,147.76,49c2,2.47,4,5.37,3.69,8.54-.06.58.66,1.12.78,1.68.15.75-.16,1.38.16,2.07A6.66,6.66,0,0,1,152.74,64.43Z"/><path class="cls-4" d="M97.09,101.61c-5.18,2.53-8,8-10.77,13.12-3.19,6-6.67,11.85-11.31,16.77-4.32,4.57-9.54,8.21-13.89,12.76S53.23,154.69,53.54,161c.28,5.51,3.55,10.57,7.9,14,2,1.56,13.26,10.58,20.94,4.61,2.12-1.64.66-9.56,2.4-11.6,3-3.54,5.76-7.7,10.06-9.48a7.09,7.09,0,0,1,3-.61,8.53,8.53,0,0,1,3.35,1,24.35,24.35,0,0,1,6.4,4.43,4.11,4.11,0,0,0,2.46,1.47c1.36,0,2.29-1.36,2.72-2.64A12.57,12.57,0,0,0,113,155c-.54-2.1-1.62-4.06-1.88-6.22-.3-2.36.42-4.72.65-7.09a17.31,17.31,0,0,0-.9-7.45,23.61,23.61,0,0,1-1.13-3.42,13.72,13.72,0,0,1,.73-6l4.9-17.81c.48-1.73,1.56-5.09.4-6.77s-3.46-.66-5.19-.58C106.07,99.91,101.28,99.55,97.09,101.61Z"/><path class="cls-12" d="M215.49,260.31l-1.35-.17a15.54,15.54,0,0,1-1.66-.28L210.11,232a64.24,64.24,0,0,0-2.06-13.33,21.77,21.77,0,0,0-7.16-11.2c-4-3-9.06-4.09-14-4.74a141.81,141.81,0,0,0-27.41-.68c-3.14.21-6.57.43-9.16-1.37-2.2-1.53-3.29-4.18-4.26-6.68a1.63,1.63,0,0,1-.17-.83c.12-.72,1-.91,1.72-1.13s1.39-1.12.82-1.58c3.67,1.12,6.51-1.23,9.89-2a39.1,39.1,0,0,1,11.37-.7,44.61,44.61,0,0,1,21.44,7.12c3.57,2.35,6.79,5.21,10.38,7.53,2.54,1.64,5.28,3,7.47,5.1,3.29,3.13,5,7.6,5.75,12.09s.46,9.07.32,13.61Q214.62,246.76,215.49,260.31Z"/><path class="cls-9" d="M164.93,199.93c-.58,1.18-1.33,2.28-1.83,3.5-1.44,3.54-.55,7.75-2.25,11.18-.11.23-.24.52,0,.73a.72.72,0,0,0,.85,0,5.79,5.79,0,0,0,2.64-6.2c.44,1.8,1.3,3.32,1.59,5,.41,2.41,1,5,1.7,8.37a2,2,0,0,0,1.31,1.35,1.05,1.05,0,0,0,1.08-.82,3.06,3.06,0,0,0-.05-1.47c-.57-2.87-.88-6.12-1.46-9,.22,0,.45.28.63.63a9.44,9.44,0,0,1,1,3.23c.06.35.14,1.81.21,2.16s.27,1.16.35,1.55c.26,1.25.45,2.26.67,3.57a1.5,1.5,0,0,0,.3.71.89.89,0,0,0,1.59-.27,2.86,2.86,0,0,0,.13-1.24c0-1-.2-2-.29-3,0-.48,0-1-.08-1.45s-.2-.89-.26-1.32c-.11-.83-.3-1.62-.45-2.45a8.43,8.43,0,0,1-.09-2.16.28.28,0,0,1,.52-.13,5.89,5.89,0,0,1,.63,2.35c.32,2.84,1.14,5.17,1.36,8,0,.63.89,1.61,1.65.93,1.16-1,.08-2.47,0-3.95a37.67,37.67,0,0,0-.71-4.39,22.47,22.47,0,0,1-.3-3.52.36.36,0,0,1,.68-.08c.92,2.2.88,4.7,1.3,7.06.1.56.51,1.11,1.06.93a15.48,15.48,0,0,0,.26-4.35c-.09-1.12-.29-2.22-.49-3.33l-.8-4.41a42.37,42.37,0,0,0-1.2-5.27c-.38-1.21-.88-2.39-1.2-3.62a20.93,20.93,0,0,1-.55-4.39,48.68,48.68,0,0,1,.77-10.64,38,38,0,0,0-5.15,1.17c-1,.3-2.91.77-3.46,1.74s0,3,0,4.07A20.45,20.45,0,0,1,164.93,199.93Z"/><path class="cls-6" d="M164.77,134.28c-2.85,4.82.53,7.58-5.2,16.12-1.72,2.56-6.1,15.71-6.8,22-.52,4.62-2.42,14.29-1.71,18.78.63,4,3,8,7.08,8.31A10.26,10.26,0,0,0,165,197a30.36,30.36,0,0,0,5-5.47c0,2.67.26,5.51,1.84,7.68a8.67,8.67,0,0,0,7.55,3.24,13.58,13.58,0,0,0,7.72-3.41c.75-.63,1.87-1.34,2.59-.68a4,4,0,0,1,.48.66,2.25,2.25,0,0,0,2.75.45,4.4,4.4,0,0,0,1.88-2.29c1.75-4.2-.1-9.07-2.82-12.72a4.55,4.55,0,0,0,.74-2.83c.37-15.17-9.84-31.59-19.63-42.52C171.61,137.43,167.05,130.42,164.77,134.28Z"/><path class="cls-13" d="M152.74,64.43l-.36,7.65a13.22,13.22,0,0,1-.69,4.3,13,13,0,0,1-3.32,4.29c-2.44,2.38-5.21,4.87-8.61,5.11a9.64,9.64,0,0,1-1.7-.06c2-2.64-.7-4.94-.11-6.88a8.91,8.91,0,0,0,.54-2.89,7.91,7.91,0,0,0-.5-2.75c1.42,0,3-.65,3.37-2a4.55,4.55,0,0,0-.33-2.43,51.55,51.55,0,0,1-1.59-6.22,52.34,52.34,0,0,1-.91-11.17c0-1.56-.08-3.05.77-4.42a6.54,6.54,0,0,1,3.36-2.65l.41-.13A32.85,32.85,0,0,1,147.76,49c2,2.47,4,5.37,3.69,8.54-.06.58.66,1.12.78,1.68.15.75-.16,1.38.16,2.07A6.66,6.66,0,0,1,152.74,64.43Z"/><path class="cls-11" d="M143.72,210.53l-7.3-.65a145.72,145.72,0,0,0-9.62-66.15c-1.11-2.78-2.32-5.6-3.5-8.33-2.16-5-4.39-10.16-6.11-15.51-3-9.26-3.92-15-2.59-22a3.09,3.09,0,0,1,2.17-2.37l.88.12a2.51,2.51,0,0,0,1.71-.42l1.1-.76A1.2,1.2,0,0,1,122,95.82c-1,6.24-.34,13.89,2.2,21.84,1.61,5,3.77,10,5.85,14.83,1.2,2.78,2.45,5.65,3.59,8.54A153,153,0,0,1,143.72,210.53Z"/><g class="cls-14"><path class="cls-15" d="M120.07,94c-1.55,2.43-3.13,4.94-3.65,7.77"/><path class="cls-15" d="M116.4,95.17l1.43,2.65"/><path class="cls-15" d="M113.76,99.84a21.54,21.54,0,0,0,2.44,1.68,10.13,10.13,0,0,1,1.85,1.67"/><path class="cls-15" d="M122.48,98.15a22.59,22.59,0,0,0-3.69,3.88,13,13,0,0,0-2.22,4.84"/><path class="cls-15" d="M113.48,105.2a12.17,12.17,0,0,1,5.82,5"/><path class="cls-15" d="M123,104.65a26,26,0,0,0-3,4,9.33,9.33,0,0,0-1.32,4.78"/><path class="cls-15" d="M113.77,110.61a15.79,15.79,0,0,1,4.48,2.51,7.71,7.71,0,0,1,2.7,4.28"/><path class="cls-15" d="M120.47,121.11a10.64,10.64,0,0,1,1.19-5.13,22.8,22.8,0,0,1,2.9-3.88"/><path class="cls-15" d="M116.46,120.33a7.21,7.21,0,0,1,7.05,3.79"/><path class="cls-15" d="M123,127.64a7.32,7.32,0,0,1,.77-4,7.24,7.24,0,0,1,3-3"/><path class="cls-15" d="M118.54,128a7.26,7.26,0,0,1,4.06-.4,8.88,8.88,0,0,1,4.18,2.27"/><path class="cls-15" d="M127.19,134.52a7.2,7.2,0,0,1,1.62-7.84"/><path class="cls-15" d="M119.53,134.13c1.48.54,2.28-1,5.34-.56,1.38.21,2.86,1,4.65,2.89"/><path class="cls-15" d="M131.26,133a11,11,0,0,0-2.14,7.91"/><path class="cls-15" d="M123.32,139.11a19.48,19.48,0,0,1,5,1.33A9.62,9.62,0,0,1,132,144.1"/><path class="cls-15" d="M134.27,139.42a18.65,18.65,0,0,0-2,3.6,11.54,11.54,0,0,0,.08,5.57"/><path class="cls-15" d="M136.68,147.6a4.17,4.17,0,0,0-1.46,1.15,6.4,6.4,0,0,0-1.3,3.18,20.21,20.21,0,0,0-.08,3.48"/><path class="cls-15" d="M128.86,154.06a7.66,7.66,0,0,1,5.28,1.64,7.17,7.17,0,0,1,1.89,2.46"/><path class="cls-15" d="M139,153.54a8.11,8.11,0,0,0-3,7.17"/><path class="cls-15" d="M131,159.39a6.38,6.38,0,0,1,4.93,1.28,6.27,6.27,0,0,1,2.1,3.54"/><path class="cls-15" d="M140.7,161.15a7.69,7.69,0,0,0-2.62,2.77,9,9,0,0,0-.56,3.31"/><path class="cls-15" d="M126.44,147.19a13.88,13.88,0,0,1,4.74.83,17,17,0,0,1,3.29,2"/><path class="cls-15" d="M132.58,165.09a7.18,7.18,0,0,1,3.49.94,8.24,8.24,0,0,1,2.89,3.34"/><path class="cls-15" d="M142.34,166.57a6.13,6.13,0,0,0-2.84,2c-1.52,1.86-1.17,4.71-1.13,5.2"/><path class="cls-15" d="M133.76,171a8.22,8.22,0,0,1,6.45,6.63"/><path class="cls-15" d="M143.34,174.55a7.68,7.68,0,0,0-3.67,4.14,7.48,7.48,0,0,0-.23,4"/><path class="cls-15" d="M135,179a9.64,9.64,0,0,1,3.4,2.39,9.79,9.79,0,0,1,2.33,4.73"/><path class="cls-15" d="M144.62,183a7.33,7.33,0,0,0-3.27,2.13,7.48,7.48,0,0,0-1.78,5.16"/><path class="cls-15" d="M135.56,187.67a6.67,6.67,0,0,1,5.31,6.2"/><path class="cls-15" d="M144.79,191.64a5.85,5.85,0,0,0-3,1.44,6.16,6.16,0,0,0-1.93,4.31"/><path class="cls-15" d="M136.21,194.87a6.41,6.41,0,0,1,3.37,2.33,6.49,6.49,0,0,1,1.19,4.46"/><path class="cls-15" d="M145.16,199.52a6.35,6.35,0,0,0-4.86,2.83,5.83,5.83,0,0,0-.74,3.66"/><path class="cls-15" d="M136.41,203.78A7.33,7.33,0,0,1,140,207a7.15,7.15,0,0,1,.85,3.52"/></g><path class="cls-16" d="M146.16,62.38a1.08,1.08,0,1,1,1.08-1.08A1.07,1.07,0,0,1,146.16,62.38Z"/><path class="cls-4" d="M146.16,60.26a1,1,0,1,1-1,1,1,1,0,0,1,1-1m0-.07a1.12,1.12,0,1,0,1.12,1.11,1.11,1.11,0,0,0-1.12-1.11Z"/><circle class="cls-17" cx="146.16" cy="61.3" r="0.97"/><g class="cls-18"><g class="cls-19"><polygon class="cls-20" points="146.19 61.41 146.22 62.08 146.09 61.42 146.19 61.41"/><polygon class="cls-20" points="145.93 61.4 145.44 61.8 145.85 61.32 145.93 61.4"/><polygon class="cls-20" points="145.74 61.24 145.48 61.28 145.71 61.14 145.74 61.24"/><path class="cls-20" d="M146.39,61.27a.39.39,0,0,1,.13,0l.09.06.18.13-.21-.08-.1,0-.08,0Z"/><polygon class="cls-20" points="146.39 61.38 146.59 61.64 146.31 61.46 146.39 61.38"/><polygon class="cls-20" points="146.09 61.44 145.91 62.17 145.98 61.42 146.09 61.44"/><path class="cls-20" d="M146.42,61a1.38,1.38,0,0,1,.45,0,1.17,1.17,0,0,0-.41.14Z"/><polygon class="cls-20" points="145.97 61.5 145.72 61.75 145.88 61.43 145.97 61.5"/><path class="cls-20" d="M145.78,61.31a.72.72,0,0,0-.28.13.84.84,0,0,1,.23-.23Z"/><path class="cls-20" d="M146.45,61.13a.4.4,0,0,1,.28.08.39.39,0,0,0-.26,0Z"/><polygon class="cls-20" points="146.33 61.46 146.42 61.74 146.23 61.5 146.33 61.46"/><polygon class="cls-20" points="145.81 61.17 145.14 61.11 145.81 61.06 145.81 61.17"/><polygon class="cls-20" points="145.85 60.91 145.51 60.37 145.94 60.84 145.85 60.91"/><polygon class="cls-20" points="146.03 60.74 146.03 60.48 146.14 60.72 146.03 60.74"/><path class="cls-20" d="M145.92,61.38a.42.42,0,0,1-.07.12l-.07.08-.15.17.1-.2.05-.09a.23.23,0,0,0,0-.09Z"/><polygon class="cls-20" points="145.81 61.37 145.52 61.54 145.75 61.28 145.81 61.37"/><polygon class="cls-20" points="145.79 61.06 145.09 60.79 145.82 60.96 145.79 61.06"/><path class="cls-20" d="M146.2,61.45a1.14,1.14,0,0,1,0,.45,1.16,1.16,0,0,0-.08-.42Z"/><polygon class="cls-20" points="145.75 60.94 145.53 60.66 145.82 60.86 145.75 60.94"/><path class="cls-20" d="M146,60.77a.86.86,0,0,0-.09-.3,1,1,0,0,1,.19.27Z"/><path class="cls-20" d="M146.05,61.46a.44.44,0,0,1-.11.27.39.39,0,0,0,0-.26Z"/><polygon class="cls-20" points="145.74 61.3 145.45 61.35 145.72 61.19 145.74 61.3"/><polygon class="cls-20" points="146.1 60.81 146.24 60.16 146.2 60.83 146.1 60.81"/><polygon class="cls-20" points="146.34 60.89 146.93 60.63 146.4 60.99 146.34 60.89"/><polygon class="cls-20" points="146.49 61.09 146.75 61.13 146.49 61.2 146.49 61.09"/><path class="cls-20" d="M145.87,60.9c-.06,0-.08-.06-.11-.08l-.07-.09-.15-.16.18.12.09.06.08,0Z"/><polygon class="cls-20" points="145.9 60.8 145.77 60.49 145.99 60.74 145.9 60.8"/><polygon class="cls-20" points="146.2 60.81 146.56 60.15 146.3 60.86 146.2 60.81"/><path class="cls-20" d="M145.77,61.17a1.23,1.23,0,0,1-.44-.08,1.46,1.46,0,0,0,.42,0Z"/><polygon class="cls-20" points="146.33 60.78 146.64 60.61 146.4 60.87 146.33 60.78"/><path class="cls-20" d="M146.47,61a.85.85,0,0,0,.31-.06.92.92,0,0,1-.29.17Z"/><path class="cls-20" d="M145.78,61a.41.41,0,0,1-.25-.15.32.32,0,0,0,.25,0Z"/><polygon class="cls-20" points="145.97 60.74 145.96 60.44 146.08 60.72 145.97 60.74"/><polygon class="cls-20" points="146.41 61.15 147.04 61.38 146.38 61.25 146.41 61.15"/><polygon class="cls-20" points="146.3 61.38 146.49 61.99 146.2 61.43 146.3 61.38"/><polygon class="cls-20" points="146.08 61.51 146.02 61.76 145.97 61.49 146.08 61.51"/><path class="cls-20" d="M146.36,60.91a.19.19,0,0,1,.09-.09l.09-.07.18-.12-.14.16-.07.09a.1.1,0,0,0,0,.07Z"/><polygon class="cls-20" points="146.45 60.96 146.78 60.87 146.5 61.05 146.45 60.96"/><polygon class="cls-20" points="146.4 61.26 147.01 61.7 146.34 61.35 146.4 61.26"/><path class="cls-20" d="M146.1,60.78a1.21,1.21,0,0,1,.14-.43,1.25,1.25,0,0,0,0,.43Z"/><polygon class="cls-20" points="146.41 61.39 146.55 61.71 146.31 61.44 146.41 61.39"/><path class="cls-20" d="M146.16,61.49a1.08,1.08,0,0,0,0,.31,1,1,0,0,1-.12-.3Z"/><path class="cls-20" d="M146.24,60.81a.47.47,0,0,1,.18-.23.42.42,0,0,0-.07.24Z"/><polygon class="cls-20" points="146.5 61.04 146.8 61.06 146.5 61.15 146.5 61.04"/><polygon class="cls-20" points="146.04 61.42 145.73 62.01 145.94 61.37 146.04 61.42"/><polygon class="cls-20" points="145.82 61.28 145.19 61.38 145.79 61.17 145.82 61.28"/><polygon class="cls-20" points="145.73 61.05 145.49 60.95 145.75 60.94 145.73 61.05"/><path class="cls-20" d="M146.28,61.39a.33.33,0,0,1,.08.11l0,.1.1.2-.14-.17-.08-.08s0-.06-.06-.06Z"/><polygon class="cls-20" points="146.22 61.48 146.27 61.82 146.12 61.52 146.22 61.48"/><polygon class="cls-20" points="145.93 61.39 145.42 61.94 145.85 61.32 145.93 61.39"/><path class="cls-20" d="M146.45,61.16a1.47,1.47,0,0,1,.4.19,1.2,1.2,0,0,0-.42-.08Z"/><polygon class="cls-20" points="145.8 61.38 145.46 61.48 145.76 61.28 145.8 61.38"/><path class="cls-20" d="M145.73,61.12a1.08,1.08,0,0,0-.31,0,.8.8,0,0,1,.32-.09Z"/><path class="cls-20" d="M146.4,61.29a.45.45,0,0,1,.2.21.34.34,0,0,0-.23-.1Z"/><polygon class="cls-20" points="146.14 61.52 146.07 61.81 146.03 61.51 146.14 61.52"/></g></g><circle class="cls-21" cx="146.06" cy="61.06" r="0.54"/><circle class="cls-22" cx="145.82" cy="61.06" r="0.1"/><circle class="cls-22" cx="146.01" cy="60.81" r="0.19"/><path class="cls-4" d="M143.93,60.6a3.58,3.58,0,0,1,2.94-1.38,3.48,3.48,0,0,1,1.63.43,1.9,1.9,0,0,1,1,1.37h0l0,.29-.24-.15a4.41,4.41,0,0,0-3-.84,2.76,2.76,0,0,0-1.43.62,7.37,7.37,0,0,0-1.06,1.22,2.26,2.26,0,0,0-.41.62c0,.07,0,0,.06.08a.55.55,0,0,0,.31,0c.1,0,.16-.09.36-.18a.68.68,0,0,1,.54.07,3.19,3.19,0,0,0,.75.2,3,3,0,0,0,2.71-1.17l.38.27a3.4,3.4,0,0,1-3.14,1.31,2.82,2.82,0,0,1-.86-.24c-.15-.06-.21-.09-.25-.06a3.63,3.63,0,0,1-.38.18,1.14,1.14,0,0,1-.52,0,.46.46,0,0,1-.28-.19.51.51,0,0,1-.06-.35,2.38,2.38,0,0,1,.49-.76,8,8,0,0,1,1.14-1.27,3.19,3.19,0,0,1,1.6-.66,4.65,4.65,0,0,1,3.23.93l-.2.13h0a2.07,2.07,0,0,0-1-1,3.31,3.31,0,0,0-1.42-.39,3.53,3.53,0,0,0-1.47.24,3.36,3.36,0,0,0-1.26.84Z"/><path class="cls-11" d="M142.18,59.23a5.16,5.16,0,0,1,1.76-1.42,7.17,7.17,0,0,1,2.16-.69,6.52,6.52,0,0,1,4.37.81l-.23.52a9.22,9.22,0,0,0-4-.24,9.7,9.7,0,0,0-1.92.51,8.28,8.28,0,0,0-1.77.92Z"/><path class="cls-16" d="M133.09,63a1.07,1.07,0,1,1,.73-.29,1.05,1.05,0,0,1-.73.29Z"/><path class="cls-4" d="M133.09,60.89a1,1,0,0,1,.71,1.79,1,1,0,1,1-1.42-1.51,1,1,0,0,1,.71-.28m0-.08a1.1,1.1,0,0,0-.77.3,1.12,1.12,0,0,0,1.53,1.63,1.12,1.12,0,0,0-.76-1.93Z"/><circle class="cls-17" cx="133.09" cy="61.92" r="0.97"/><g class="cls-18"><g class="cls-23"><polygon class="cls-20" points="133.14 62.02 133.58 62.53 133.23 61.96 133.14 62.02"/><polygon class="cls-20" points="133.32 61.84 133.96 61.8 133.33 61.73 133.32 61.84"/><polygon class="cls-20" points="133.36 61.59 133.56 61.44 133.31 61.49 133.36 61.59"/><path class="cls-20" d="M132.9,62.06a.23.23,0,0,0-.06.12l0,.11,0,.21.1-.19,0-.1.05-.07Z"/><polygon class="cls-20" points="132.97 62.13 133.01 62.47 133.08 62.14 132.97 62.13"/><polygon class="cls-20" points="133.24 61.98 133.87 62.39 133.3 61.89 133.24 61.98"/><path class="cls-20" d="M132.68,61.87a1.35,1.35,0,0,0-.35.28,1.53,1.53,0,0,1,.39-.18Z"/><polygon class="cls-20" points="133.36 61.94 133.71 61.95 133.38 61.83 133.36 61.94"/><path class="cls-20" d="M133.37,61.67a.76.76,0,0,1,.3-.1.92.92,0,0,0-.33,0Z"/><path class="cls-20" d="M132.76,62a.47.47,0,0,0-.15.25.35.35,0,0,1,.21-.15Z"/><polygon class="cls-20" points="133.07 62.15 133.2 62.42 133.17 62.11 133.07 62.15"/><polygon class="cls-20" points="133.26 61.58 133.7 61.08 133.18 61.5 133.26 61.58"/><polygon class="cls-20" points="133.05 61.43 132.93 60.8 132.94 61.43 133.05 61.43"/><polygon class="cls-20" points="132.8 61.42 132.62 61.23 132.71 61.48 132.8 61.42"/><path class="cls-20" d="M133.32,61.81a.18.18,0,0,0,.13,0l.11,0,.22,0-.21-.08-.1,0s-.07,0-.07,0Z"/><polygon class="cls-20" points="133.38 61.73 133.72 61.66 133.38 61.62 133.38 61.73"/><polygon class="cls-20" points="133.2 61.49 133.53 60.81 133.1 61.44 133.2 61.49"/><path class="cls-20" d="M133.16,62.05a1.26,1.26,0,0,0,.33.32,1.2,1.2,0,0,1-.23-.37Z"/><polygon class="cls-20" points="133.14 61.37 133.11 61.02 133.03 61.37 133.14 61.37"/><path class="cls-20" d="M132.87,61.39a.84.84,0,0,1-.13-.27.89.89,0,0,0,0,.32Z"/><path class="cls-20" d="M133.27,62a.5.5,0,0,0,.27.12.37.37,0,0,1-.18-.19Z"/><polygon class="cls-20" points="133.39 61.63 133.64 61.47 133.34 61.54 133.39 61.63"/><polygon class="cls-20" points="132.8 61.52 132.25 61.14 132.74 61.61 132.8 61.52"/><polygon class="cls-20" points="132.68 61.75 132.07 61.95 132.7 61.86 132.68 61.75"/><polygon class="cls-20" points="132.7 62 132.54 62.2 132.78 62.08 132.7 62"/><path class="cls-20" d="M133,61.43a.23.23,0,0,0,0-.13V61l0,.22,0,.1s0,.08,0,.08Z"/><polygon class="cls-20" points="132.94 61.38 132.82 61.06 132.83 61.4 132.94 61.38"/><polygon class="cls-20" points="132.72 61.59 132.01 61.35 132.68 61.7 132.72 61.59"/><path class="cls-20" d="M133.28,61.55a1,1,0,0,0,.27-.36,1.26,1.26,0,0,1-.33.28Z"/><polygon class="cls-20" points="132.61 61.66 132.27 61.74 132.62 61.77 132.61 61.66"/><path class="cls-20" d="M132.67,61.93a1.17,1.17,0,0,1-.26.17,1.36,1.36,0,0,0,.32-.08Z"/><path class="cls-20" d="M133.18,61.46a.43.43,0,0,0,.08-.28.4.4,0,0,1-.16.2Z"/><polygon class="cls-20" points="132.84 61.38 132.64 61.16 132.75 61.45 132.84 61.38"/><polygon class="cls-20" points="132.8 61.98 132.5 62.58 132.9 62.03 132.8 61.98"/><polygon class="cls-20" points="133.04 62.08 133.32 62.65 133.15 62.04 133.04 62.08"/><polygon class="cls-20" points="133.28 62.02 133.5 62.15 133.36 61.93 133.28 62.02"/><path class="cls-20" d="M132.68,61.77a.19.19,0,0,0-.13,0h-.11l-.22,0,.22,0h.11l.08,0Z"/><polygon class="cls-20" points="132.64 61.87 132.34 62.02 132.68 61.97 132.64 61.87"/><polygon class="cls-20" points="132.88 62.05 132.74 62.79 132.99 62.08 132.88 62.05"/><path class="cls-20" d="M132.77,61.5a1.26,1.26,0,0,0-.39-.22,1.23,1.23,0,0,1,.31.29Z"/><polygon class="cls-20" points="132.97 62.15 133.09 62.48 133.07 62.13 132.97 62.15"/><path class="cls-20" d="M133.22,62.06a.68.68,0,0,1,.2.24.91.91,0,0,0-.12-.31Z"/><path class="cls-20" d="M132.69,61.62a.43.43,0,0,0-.29,0,.41.41,0,0,1,.22.13Z"/><polygon class="cls-20" points="132.66 61.96 132.46 62.18 132.73 62.04 132.66 61.96"/><polygon class="cls-20" points="133.26 61.92 133.89 62.15 133.3 61.82 133.26 61.92"/><polygon class="cls-20" points="133.32 61.67 133.85 61.32 133.27 61.57 133.32 61.67"/><polygon class="cls-20" points="133.23 61.44 133.34 61.2 133.14 61.38 133.23 61.44"/><path class="cls-20" d="M133.06,62.07a.24.24,0,0,0,0,.13l0,.11.06.21v-.33a.17.17,0,0,1,0-.08Z"/><polyline class="cls-20" points="133.36 62.37 133.26 62.05 133.17 62.1 133.36 62.37"/><polygon class="cls-20" points="133.32 61.83 134.07 61.88 133.33 61.72 133.32 61.83"/><path class="cls-20" d="M132.78,62a1.35,1.35,0,0,0-.16.42,1.24,1.24,0,0,1,.25-.35Z"/><polygon class="cls-20" points="133.41 61.74 133.72 61.58 133.37 61.63 133.41 61.74"/><path class="cls-20" d="M133.28,61.5a.93.93,0,0,1,.21-.23.89.89,0,0,0-.29.15Z"/><path class="cls-20" d="M132.91,62.08a.42.42,0,0,0,0,.29.41.41,0,0,1,.11-.24Z"/><polygon class="cls-20" points="133.26 62.07 133.5 62.23 133.33 61.98 133.26 62.07"/></g></g><circle class="cls-21" cx="133" cy="61.68" r="0.54"/><circle class="cls-22" cx="132.96" cy="61.44" r="0.1"/><circle class="cls-22" cx="132.74" cy="61.66" r="0.19"/><path class="cls-4" d="M135,61.05a3.46,3.46,0,0,0-1.38-.63,3.79,3.79,0,0,0-1.5,0,3.35,3.35,0,0,0-1.34.62,2.07,2.07,0,0,0-.8,1.16h0l-.23-.1a4.71,4.71,0,0,1,3-1.44,3.12,3.12,0,0,1,1.69.39,8.22,8.22,0,0,1,1.32,1.07c.19.2.44.31.61.67a.43.43,0,0,1,0,.35.51.51,0,0,1-.24.24,1,1,0,0,1-.51.07,2,2,0,0,1-.42-.12s-.09,0-.23.11a2.76,2.76,0,0,1-.8.37,3.41,3.41,0,0,1-3.32-.78l.34-.33a3,3,0,0,0,2.86.71,2.72,2.72,0,0,0,.7-.31.74.74,0,0,1,.53-.16c.21.05.27.11.38.12a.63.63,0,0,0,.31,0c.07,0,.06,0,.05-.09s-.32-.35-.51-.54a7.19,7.19,0,0,0-1.25-1,2.77,2.77,0,0,0-1.5-.38A4.48,4.48,0,0,0,130,62.29l-.2.19,0-.29h0a1.88,1.88,0,0,1,.78-1.51,3.48,3.48,0,0,1,1.54-.7,3.57,3.57,0,0,1,3.12.89Z"/><path class="cls-11" d="M136.35,59.7a9.12,9.12,0,0,0-1.95-.65,10.7,10.7,0,0,0-2-.23,11,11,0,0,0-4.06.7L128,59a7.32,7.32,0,0,1,4.36-1.31,7.73,7.73,0,0,1,2.28.38,5.58,5.58,0,0,1,2,1.14Z"/><path class="cls-4" d="M139.19,60.33A37.76,37.76,0,0,0,141,67.69c.21.6.45,1.18.61,1.82a3.09,3.09,0,0,1-.06,2A3.2,3.2,0,0,1,140.1,73l-.44.23-.11.06a.58.58,0,0,1-.16,0l-.26.06a4,4,0,0,1-1,0l.1-.55a3.55,3.55,0,0,0,.86,0l.21,0,.06,0,.11,0a3,3,0,0,0,.4-.21,2.32,2.32,0,0,0,1.32-2.91c-.13-.6-.36-1.19-.55-1.8A38.13,38.13,0,0,1,139,60.35Z"/><path class="cls-24" d="M140,76.61l-1-.9-.41-.39a4.32,4.32,0,0,0-.72,0,20.84,20.84,0,0,1-2.14,1.2,8,8,0,0,1-.87-.47l-.66,1.32s1.55-.71,1.65-.71Z"/><path class="cls-24" d="M138.43,76.61l1.07-.9s.41-.38.44-.39a4.82,4.82,0,0,1,.76,0,22.21,22.21,0,0,0,2.28,1.2,8.76,8.76,0,0,0,.93-.47l.69,1.32s-1.64-.71-1.75-.71Z"/><polygon class="cls-25" points="137.12 76.64 138.31 77.83 140.42 77.83 141.72 76.54 137.12 76.64"/><path class="cls-11" d="M127.92,55.6a14.44,14.44,0,0,1-3.67,5.56c-1.28,1.27-3.09,4-3,5.82A21.14,21.14,0,0,0,125,79a2.86,2.86,0,0,1,.54.69,3.67,3.67,0,0,1,0,2.82,12.82,12.82,0,0,1-6.24-4.65,20.34,20.34,0,0,1-2.68-6.28c-1.19-4.31-.14-9.47.33-11,1.63-5.41,3.49-9.38,7.1-13,4.06-4,7.72-6.08,12.78-6.46a2.45,2.45,0,0,1,1.54.24c.82.53.77,1.72.64,2.68-.19,1.32-.06,5.26-1.29,5.94-.56.3-1.82-.38-4.09-.11C130.46,50.23,128.64,52.82,127.92,55.6Z"/><path class="cls-11" d="M141.61,41.31a16,16,0,0,1,7.86,5c.92,1.19,3.67,2.45,4.4,7.93.13.91,1,2.51,1.15,3.6s1.14,3.65-1.3,11.56a11.81,11.81,0,0,1-1.07-3.07,5.31,5.31,0,0,0-.54-3.2,17.88,17.88,0,0,1-1.76-4.67c-1-5.79-3.38-7.55-7-8.19-1.09-.19-4-.06-4.61-.35a1.42,1.42,0,0,1-.61-1.42,24.65,24.65,0,0,1,.48-4.11,12.35,12.35,0,0,0,0-1.72C138.64,42.24,139.44,40.72,141.61,41.31Z"/><g class="cls-26"><path class="cls-15" d="M126.27,81c-4-3.26-6-8.54-6-13.68a12.31,12.31,0,0,1,.25-2.57c.21-.87.57-3.93,2.45-5.88,2.82-2.92,1.71-3.93,4-6.79,2.49-3.1,5.49-3.24,9.18-3.28a1.71,1.71,0,0,0,1.68-1.57c.1-1.4.16-2.8.16-4.2a1.14,1.14,0,0,0-.25-.9,1.12,1.12,0,0,0-.74-.2c-4.29-.1-7.19,2.23-11.17,4.82-3.46,2.24-10.33,12.5-9,21.16a20.3,20.3,0,0,0,2.49,7.62A14.48,14.48,0,0,0,126.79,82"/><path class="cls-15" d="M126.41,81.51c-4.08-2.72-6.47-7.55-7.18-12.4-.78-5.37,1-8.49,1.94-9.67,2.53-3,1.69-4.62,3.39-7s6.05-4.52,10.39-4.8c.66,0,1.43-.11,1.77-.67a1.84,1.84,0,0,0,.22-.79,11.5,11.5,0,0,0,0-1.66,1.82,1.82,0,0,0-.68-1.55,1.93,1.93,0,0,0-1.49,0,26.33,26.33,0,0,0-6.63,3.4,34.7,34.7,0,0,0-3.63,2.76c-4.79,4.29-6.81,11-6.56,17.58a20.52,20.52,0,0,0,2.79,9.6,15.29,15.29,0,0,0,7.48,6"/><path class="cls-15" d="M118.82,62.22c.75-3.48,2.42-8.23,4.8-10.88a21.86,21.86,0,0,1,3.82-3.44,18.76,18.76,0,0,1,6.73-3.39,1.36,1.36,0,0,1,1.14.13,1,1,0,0,1-.1,1.45,3,3,0,0,1-1.52.61,20.64,20.64,0,0,0-8.24,3.91c-2.54,1.91-5.29,6.91-6.63,11.61"/></g><g class="cls-27"><path class="cls-15" d="M152.66,76.71a6.82,6.82,0,0,0,.9-3.85c0-1.34-.2-2.68-.1-4,.09-1.16.39-2.29.45-3.46a8.5,8.5,0,0,0-.56-3.53c-.28-.73-.66-1.41-.91-2.15a25.34,25.34,0,0,1-.59-2.58,12.06,12.06,0,0,0-2.8-5.62,8.27,8.27,0,0,0-5.55-2.72c-1.08-.05-2.28.11-3.1-.58a3.11,3.11,0,0,1-.87-2.26,9.21,9.21,0,0,1,.35-3,1.87,1.87,0,0,1,.41-.79c.53-.49,1.38-.24,2,.07a22.91,22.91,0,0,1,8.75,7.06,10.06,10.06,0,0,1,1.37,2.4c.27.74.4,1.52.61,2.27.32,1.14.8,2.23,1.09,3.37a17.41,17.41,0,0,1,.4,2.78,89,89,0,0,1,.22,12"/><path class="cls-15" d="M154,69.74l.31-3.9a11.44,11.44,0,0,0-.13-3.83c-.2-.73-.54-1.41-.74-2.13a19.91,19.91,0,0,1-.4-2.31A13.71,13.71,0,0,0,151,52a9.33,9.33,0,0,0-4.62-3.72,36.45,36.45,0,0,0-3.76-.82,3.45,3.45,0,0,1-1.17-.44,1.9,1.9,0,0,1,.08-3.18,1.45,1.45,0,0,1,.7-.23,1.92,1.92,0,0,1,.78.2c1.7.77,2.83,2.38,4.26,3.57a29.84,29.84,0,0,1,2.92,2.3,11.83,11.83,0,0,1,2.25,4.18,21.18,21.18,0,0,1,.92,2.79c.23,1,.32,2,.54,3,.14.68.35,1.34.48,2,.64,3.38-.62,6.88-.14,10.3"/><path class="cls-15" d="M144.66,45.76a3,3,0,0,0-1.72-1,1.07,1.07,0,0,0-.7.16.65.65,0,0,0-.26.65.91.91,0,0,0,.72.55c.36.09.73.13,1.1.2a6.79,6.79,0,0,1,2.38,1C145.76,46.92,144.94,46,144.66,45.76Z"/></g><path class="cls-4" d="M142.9,45.56a23.27,23.27,0,0,0-13,.84c-4.9,1.75-9.27,6.23-11.47,11.11A26.85,26.85,0,0,0,116.63,65a19.17,19.17,0,0,0,.17,6.33c-1.22-1.21-1.57-6-.91-10.52a25.56,25.56,0,0,1,6.62-14.41c4.18-4.28,11.7-7.26,17.75-6,2.85.59,7.65,1.08,12.78,10.39a21.39,21.39,0,0,1,2,11.86c-.54-2.52-1-5-1.39-6.38a16.66,16.66,0,0,0-2.2-5A13.69,13.69,0,0,0,142.9,45.56Z"/><path class="cls-3" d="M111.46,85.8a7.65,7.65,0,0,0-.59,2.53v.09c.14,1.93,1.43,2.38,2.32.58,1.52-3.07,1.11-7.32.82-10.64-.42-4.75-.86-8.79,0-13.59,1.57-8.8,6.49-17.72,14.9-21.67,8.81-4.13,19.26-2.27,23.39,7,4.64,10.4,1.63,22.68.2,33.45-.22,1.62-.92,4.27-.11,5.83a1.3,1.3,0,0,0,2.22.18c.31-.47,0-2.17,0-2.85.39-8.06,1.93-16.28,1.36-24.36-.3-4.33-.46-9.36-2.75-13.16-6.33-10.51-15.48-9.29-19.75-8.64-7.46,1.14-12.87,6-16.6,12.39-4.38,7.55-5.44,16.33-5.23,24.79,0,1.8.26,3.6.19,5.4A17,17,0,0,1,111.46,85.8Z"/><path class="cls-6" d="M111.09,85.7c-.42,1.26-1.26,3.61.19,4.6,1.14.78,2-.63,2.44-1.52,1.75-4,.81-8.81.46-13a39.79,39.79,0,0,1,1-14.5A31.89,31.89,0,0,1,121,49.86c5.06-6.19,13.57-10.08,21.55-7.83C151.7,44.6,154.35,54.49,154.39,63A95.47,95.47,0,0,1,153,77.77c-.35,2.25-.63,4.51-1,6.75-.25,1.53-.73,3.58.11,5a1.7,1.7,0,0,0,2.83.26,2.33,2.33,0,0,0,.25-1.47,28.94,28.94,0,0,1,0-3.09c.34-5.34,1.09-10.66,1.33-16a65.53,65.53,0,0,0-.76-14.2,19.16,19.16,0,0,0-6-11c-4.31-3.92-9.86-4.83-15.45-4.05-7.67,1.07-13.57,5.82-17.46,12.37-5,8.44-5.85,18.42-5.33,28a17.21,17.21,0,0,1-.33,5.31.39.39,0,0,0,.75.21c1-3.68.15-7.71.21-11.46a51.26,51.26,0,0,1,2-13.82c2.32-7.74,7.4-15.52,15.19-18.57,4.92-1.92,11.24-2.35,16.08,0a18.12,18.12,0,0,1,8.1,8.18c2,3.89,2,8.55,2.28,12.81A100,100,0,0,1,155,78.09c-.24,2.46-.49,4.92-.64,7.39a19.57,19.57,0,0,0,0,2.54c0,.51.18,1.41-.52,1.64s-1.23-.74-1.34-1.34c-.38-2,.35-4.36.63-6.35.32-2.19.67-4.37,1-6.55a79.22,79.22,0,0,0,1.07-13.31c-.17-7.27-2.18-15.64-9-19.44-5.8-3.24-13.13-2.36-18.78.78C120.76,47.13,116.48,54,114.45,61.1a37.21,37.21,0,0,0-1.21,12.69c.28,4.29,1.3,8.93.26,13.18-.16.64-.86,3.27-1.83,2.64s-.1-2.89.17-3.7C112,85.43,111.24,85.22,111.09,85.7Z"/><path class="cls-6" d="M130,40.93a29,29,0,0,0-16.65,15.61,65.92,65.92,0,0,0-2.66,9.17c-.49,2.61-2.8,10.9-3.13,12.49-.23,1.1-1,3.1-.83,4.18s1.59,2.45,2.16,3.37c.83,1.36,1.53,2.81,2.39,4.15a4.88,4.88,0,0,1-.26-2.86,22.68,22.68,0,0,0,.65-8.43c-.49-3.13.21-12.31,1.42-16.27s2.72-11.4,10.42-17.54Z"/><path class="cls-8" d="M151.23,88.45c-.17,0-.38-.79-.34-.87l-.18,0c.34.15.95.84,1.18.1a.55.55,0,0,0-.18-.58,1.27,1.27,0,0,0-.32-.13c-.12,0-.31,0-.37-.2l.17-.32.11.09c.22.06.33.28.58.1a.38.38,0,0,0,.1-.47.87.87,0,0,0-.39-.49c-.09,0-.65-.31-.49-.47s.33,0,.45.07a.51.51,0,0,0,.55-.77c-.12-.19-.73-.26-.75-.44-.07-.5.39-.07.54-.09.49-.07.39-.73.12-.94s-.51-.17-.23-.33.19,0,.4,0a.37.37,0,0,0,.37-.31.91.91,0,0,0-.16-.66c-.1-.12-.12-.07-.23-.18s-.12,0-.15,0-.1-.09,0-.24c0-.21,0-.28.14-.21s.24.1.4,0,.14-.53.09-.71-.22-.2-.35-.35-.14.3-.08-.27-.08-.13.21-.21c.1,0,.17,0,.27,0a.43.43,0,0,0,.17-.47c0-.3-.16-.26-.35-.41s-.26-.25-.16-.38.15,0,.2,0a2.48,2.48,0,0,0,.3-.13.58.58,0,0,0,.26-.6c-.09-.33-.75-.47-.38-.87.17-.18.46-.14.59-.4a.6.6,0,0,0,0-.62c-.06-.07-.19-.12-.23-.2-.17-.33.15-.26.33-.37a.48.48,0,0,0,.27-.4c0-.1-.06-.13-.09-.22-.12-.39-.11-.26.12-.49s.27-.29.18-.49-.12-.09-.14-.15c-.11-.26.07-.29.17-.51s0-.41,0-.68.28-.45.27-.75c0-.14-.19-.28-.12-.45s.2-.13.25-.25-.16-.39-.1-.61.2-.2.13-.48c0,0-.06-.06-.08-.1s0-.22,0-.34.06-.13,0-.33-.29-.09-.25.07-.17.37-.1.62.16.18.11.35-.12.06-.13.14.12.31.13.47-.29.3-.31.54a1.1,1.1,0,0,0,.06.26c.06.23.15,0,0,.3s-.25.24-.27.41,0,.13,0,.2a3.09,3.09,0,0,1-.06.67c-.06.15-.12.08-.15.26s.1.23.17.37.13.11,0,.3-.22.13-.28.23,0,.28,0,.43.1.3-.09.44-.23,0-.33.1a.34.34,0,0,0-.16.39c.1.35.87.39.21.95-.2.16-.48.17-.58.45a.35.35,0,0,0,.06.39c.07.08.21.1.27.18.56.69-.21.64-.44.75a.42.42,0,0,0,0,.76c.06,0,.26.05.29.09.35.5-.21.35-.33.37a.52.52,0,0,0-.45.31.48.48,0,0,0,.18.53c.07.06.16.07.23.12s.53.56.14.65c-.16,0-.32-.1-.5,0a.44.44,0,0,0-.25.46.62.62,0,0,0,.26.45c.11.1,1,.52.32.63-.06,0-.23-.12-.31-.14-.43-.06-.59.29-.36.62a1.73,1.73,0,0,0,.28.26c.05,0,.18.07.22.13s.08.35,0,.38-.29-.22-.48-.22c-.46,0-.43.55-.22.82a.6.6,0,0,0,.28.22l.09,0,.17,0-.22.44c-.18,0-.35-.21-.55-.06s-.1.49,0,.64.36.23.58.38.44.29.17.39-.16,0-.33-.11a.53.53,0,0,0-.29-.12.37.37,0,0,0-.36.34.77.77,0,0,0,.24.59c.1.08.36.11.41.18l-.08.42-.11-.11a1.75,1.75,0,0,1-.29-.18c-.06,0-.15,0-.18,0-.15.34.18,1.32.64,1.25.17,0,.1-.28-.07-.25Z"/><g class="cls-28"><path class="cls-8" d="M110.26,88.29a1.44,1.44,0,0,0,.22-1.41,3.61,3.61,0,0,0-.39-.65c0-.07-.17-.2-.18-.28s-.21-.12.14,0,.14.11.3.26.51.37.68,0a1,1,0,0,0-.38-1.14c-.08-.08-.29-.2-.33-.3s.05-.44.16-.45.09.1.13.1.2.12.36,0,.28-.59.17-.82-.4-.25-.55-.44-.19-.36,0-.42.08.08.1.08.13.06.19.07c.42,0,.54-.39.39-.72a1.12,1.12,0,0,0-.39-.36c-.21-.14-.28-.13-.29-.4,0-.43,0-.13.09-.15s.13,0,.2,0c.31,0,.4-.38.29-.63s-.27-.25-.41-.39-.14,0-.2-.35-.05-.24.2-.36a1,1,0,0,0,.27-.15.82.82,0,0,0-.05-1.18c-.07-.08-.19-.13-.26-.21s-.27-.47-.21-.56.2,0,.24,0,.29,0,.4-.17c.28-.37-.08-.66-.35-.83-.07,0-.32-.15-.32-.22s.35,0,.41-.07.28-.06.35-.26a.73.73,0,0,0-.06-.56c-.17-.32-.64-.38-.29-.77.13-.14.3-.12.36-.35a.71.71,0,0,0-.12-.55c-.1-.16-.36-.21-.44-.35a.47.47,0,0,1,.13-.42c.07,0,.12,0,.17,0s.16,0,.25-.1c.38-.33-.1-.81-.36-1s-.36-.36-.1-.52c.08,0,.21,0,.31-.08a.43.43,0,0,0,.26-.38c0-.24-.22-.32-.32-.5-.27-.46.15-.23.35-.42s-.23-.74-.34-1c-.22-.5.16-.25.4-.38a.39.39,0,0,0,.2-.36c0-.21-.15-.34-.18-.52a1.08,1.08,0,0,1,.16-.59s.08,0,.1,0,.13,0,.19-.14a.44.44,0,0,0,0-.37,1,1,0,0,0-.16-.25s-.13-.08-.14-.12.1-.35.2-.48c.28-.38.42-.57.17-1a.48.48,0,0,1,.13-.68c.07,0,.18-.06.25-.12a.42.42,0,0,0,.17-.41c-.05-.28-.43-.48-.15-.75.13-.13.35-.13.46-.3a.51.51,0,0,0,0-.48c0-.06-.1-.11-.11-.16s.06-.58.08-.6.3,0,.4-.12c.43-.29.19-.8,0-1.17-.06-.14-.2-.3,0-.31s.16.12.2.13a.36.36,0,0,0,.37-.09c.31-.31,0-.7-.11-1,0,0-.14-.06-.15-.09s.15-.17.2-.19.2,0,.29,0a.52.52,0,0,0,.33-.33c.06-.22,0-.34-.12-.52s-.27-.39,0-.52.11,0,.3,0a.59.59,0,0,0,.45-.74c-.06-.15-.27-.19-.31-.29l.08-.18c0-.17,0-.22.13-.14s.1.09.15.08.13,0,.2,0c.4-.11.39-.74.35-1a2,2,0,0,0-.18-.45c0-.09-.19-.1.12-.19.11,0,.24,0,.35,0a.65.65,0,0,0,.48-.86c-.11-.21-.39-.32,0-.48.19-.08.37,0,.54-.18a.87.87,0,0,0-.05-1.06l-.07.19c.26-.07.48.12.7-.1s0-.33.09-.52c.08-.36.61-.09.64-.57,0-.06-.1-.31-.09-.33.14-.25.24,0,.38,0s.31-.07.4-.26,0-.26-.05-.45c-.08-.36.09-.29.36-.4s.31-.13.35-.26-.06-.18-.07-.3-.28,0,0,0c.1,0,.23.06.32,0s.12-.08.21-.22c.18-.3.16-.56.53-.71.1,0,.25,0,.34-.11s0-.55.4-.7c.16-.06.34,0,.51-.08a1.32,1.32,0,0,0,.57-.62c.09-.14-.14-.27-.22-.13-.3.52-.49.44-.93.57a.54.54,0,0,0-.3.2c-.15.16-.13.44-.28.58s-.44.14-.6.31-.23.6-.3.64-.38-.09-.54,0c-.35.28.26.36-.23.58s-.48.1-.53.55c0,.05.09.1.09.14,0,.67-.21.19-.37.22s-.24,0-.34.16.11.35.06.5-.39.1-.55.19-.13.19-.16.33a.88.88,0,0,0,0,.15l-.24.36s-.27,0-.32,0a.13.13,0,0,0-.08.19.73.73,0,0,1,.15.6c-.15.44-.53.16-.77.27s-.26.11-.3.27.05.2.09.34.17.08.21.14c.4.74-.38.54-.59.58s-.41.16-.38.42.19.2.27.37a1.51,1.51,0,0,1,0,.67c-.23.41-.25.11-.48.06a.5.5,0,0,0-.53.55c0,.17.09.16.15.29l.09,0c.21.06.2.22,0,.49,0,0-.1-.1-.14-.09-.3.1-.55.18-.6.59,0,.14,0,.22.07.34l.08.09c0,.41-.12.57-.39.46-.11,0-.19,0-.3,0s-.12.39,0,.58,1,.31.4.66c-.38.22-.2,0-.41-.08s-.2-.11-.34,0c-.41.29.27.86.29,1.15,0,.68-1,.42-.94,1.05,0,.34.54.61.16,1-.13.11-.34.1-.45.25a.36.36,0,0,0-.08.28c0,.13.08.15.12.26a1.58,1.58,0,0,0,.12.15c0,.29-.13.46-.37.49-.2.23-.31.28-.21.61.18.59.47.36-.1,1.17-.13.17-.31.23-.26.48s.29.25.36.41c.16.39-.37.37-.52.6-.3.5.68,1,.06,1.24-.23.11-.52,0-.49.38,0,.22.22.38.34.54l.17.23q.12.34-.15.27c-.11.07-.17,0-.29.08-.29.25,0,.45.1.66l.11.11c.06.33,0,.49-.27.48,0,0-.13,0-.18.08a.38.38,0,0,0-.12.5c.09.22.35.3.49.46l.12.11c.07.35,0,.51-.26.47,0,0-.14,0-.19,0a.45.45,0,0,0-.12.73c.32.34,1,.29.29.95-.11.11-.28.08-.35.25s0,.22.1.35.62.36.59.62c0,.52-.34.19-.56.23a.31.31,0,0,0-.29.4c0,.16.23.28.36.36s.26.12.28.16c.32.55-.17.42-.35.48a.47.47,0,0,0-.24.75c.13.18.4.25.55.4.87.94-.26.87-.54,1.2s0,.64.26.84c.08,0,.37.19.39.27.13.6-.17.23-.28.24s-.26-.1-.4,0c-.37.34.24.75.41,1l.16.1c.15.49.13.64-.07.44-.06,0-.12-.08-.19-.08a.36.36,0,0,0-.34.18c-.38.6.65.81.79,1.18l0,.18c-.16.19-.28.2-.38,0s-.15-.15-.33-.15a.42.42,0,0,0-.37.23c-.26.51.39.91.67,1.2.1.11.39.42.29.6-.27.45-.35,0-.45-.14s-.29-.34-.51-.31c-.39.06-.3.47-.17.71.39.74.94,1.22.34,2.08-.09.14.13.27.23.13Z"/><path class="cls-29" d="M122.34,45.82s-.08-.72.29-.85.7.13.8.05a3.78,3.78,0,0,0,.5-.72c.07-.18,0-.07.19-.15s.16-.15.24-.25,0-.16.2-.08.5.18.39-.11.08-.58.24-.38.68.38.5.06.14-.35.35-.34.42.22.4-.1,0-.65.17-.43.52.21.48,0,0-.43.14-.32.28,0,.28-.08-.15-.2.1-.17.4,0,.36-.17.11-.26.11-.26"/></g><path class="cls-9" d="M130.46,183c1.31.17,2.64.15,3.93.41,3.74.77,6.76,3.84,10.54,4.33.27,0,.57.08.6.44a.72.72,0,0,1-.46.71,5.4,5.4,0,0,1-3.46.46,5.31,5.31,0,0,1-3.17-1.7c1.25,1.36,2,2.92,3.27,4.08,1.77,1.68,3.62,3.62,6,6.06a1.92,1.92,0,0,1,.39,1.83,1.06,1.06,0,0,1-1.28.46,3.14,3.14,0,0,1-1.19-.86c-2.08-2.07-4.6-4.13-6.68-6.2a1.14,1.14,0,0,0,.18.87,9.41,9.41,0,0,0,2.14,2.62c.26.24,1.43,1.12,1.68,1.37s.82.87,1.1,1.15c.89.91,1.63,1.62,2.6,2.54a1.49,1.49,0,0,1,.42.63c.3.92-.48,1.3-1.1,1.18a3,3,0,0,1-1.11-.57c-.79-.58-1.55-1.28-2.31-1.9-.38-.3-.8-.55-1.16-.86s-.64-.66-1-1c-.62-.56-1.19-1.15-1.78-1.73a9.08,9.08,0,0,0-1.76-1.28.28.28,0,0,0-.39.36,5.8,5.8,0,0,0,1.6,1.83c2.19,1.84,3.68,3.81,5.93,5.58.49.38.84,1.63-.14,1.88-1.5.4-2.1-1.3-3.28-2.21a38.86,38.86,0,0,1-3.26-3,21.22,21.22,0,0,0-2.76-2.2.35.35,0,0,0-.44.52c1.32,2,3.42,3.33,5.16,5,.41.4.63,1.05.18,1.4a15,15,0,0,1-3.76-2.2,33.18,33.18,0,0,1-2.5-2.25L130,197.66a41.85,41.85,0,0,1-3.73-3.92c-.79-1-1.49-2.05-2.34-3a21.08,21.08,0,0,0-3.35-2.9,49.34,49.34,0,0,0-9.28-5.25,36.37,36.37,0,0,1,3.82-3.63c.79-.65,2.26-2,3.37-1.93s2.51,1.66,3.4,2.26A20.46,20.46,0,0,0,130.46,183Z"/><path class="cls-3" d="M148.15,198.94a2,2,0,0,0-.61-.51.72.72,0,0,0-.43-.09.79.79,0,0,0-.42.25.58.58,0,0,0-.18.31.79.79,0,0,0,.14.55,3.09,3.09,0,0,0,.72.81.37.37,0,0,0,.16.09.33.33,0,0,0,.23-.07,1.52,1.52,0,0,0,.61-.62c.06-.11.15-.25.11-.36S148.23,199,148.15,198.94Z"/><path class="cls-3" d="M145.05,188.3a1,1,0,0,1-.58-.18.59.59,0,0,1-.26-.52s0,0,0,0,0,0,0,0l.57,0a2.2,2.2,0,0,1,.57.1l.08,0a.16.16,0,0,1,0,.08c0,.11.15.37.09.43S145.15,188.3,145.05,188.3Z"/><path class="cls-3" d="M146.82,202.25a.79.79,0,0,0-.56-.06.48.48,0,0,0-.33.43.67.67,0,0,0,.1.28,1.62,1.62,0,0,0,.5.54.3.3,0,0,0,.22.08.28.28,0,0,0,.15-.06c.18-.13.54-.44.5-.69S147,202.34,146.82,202.25Z"/><path class="cls-3" d="M144.14,204.65a.94.94,0,0,0-.35-.22.6.6,0,0,0-.23,0,.71.71,0,0,0-.46.27.49.49,0,0,0-.06.52.65.65,0,0,0,.13.16,3.23,3.23,0,0,0,.65.52.21.21,0,0,0,.1.06l.14,0c.25-.08.62-.38.64-.67S144.31,204.8,144.14,204.65Z"/><path class="cls-3" d="M139.37,204.75a.91.91,0,0,0-.56-.06c-.09,0-.19.09-.16.17s.06.08.1.1l.46.25a.59.59,0,0,0,.42.1C140.12,205.16,139.56,204.83,139.37,204.75Z"/><path class="cls-30" d="M180.4,183.89l.71-2.44"/><path class="cls-30" d="M182.38,183.22l1-3.68"/><path class="cls-30" d="M183.56,183.73a3.81,3.81,0,0,1,.56-1.56"/><path class="cls-30" d="M185,183.92l.53-1.57"/><path class="cls-30" d="M186.9,184.08l.52-1.22"/><path class="cls-11" d="M143.35,210.89a4.26,4.26,0,0,1,.64,3.8c-.39,1-1.53,1.9-1.71,2.91a2.26,2.26,0,0,0,1.29,2.56,1.75,1.75,0,0,0,1.25-.09c.33-.17.65-.54.55-.89-.38.17-.78-.37-.58-.73a.77.77,0,0,1,1.07-.19,1.52,1.52,0,0,1,.59,1c.38,2.14-1.29,3.72-3.21,4.43a7.28,7.28,0,0,1-7.8-2.47,8,8,0,0,1-1.39-7.44c.89-2,2-2.85,3.2-3.15a22.46,22.46,0,0,1,3.07-.29,7.66,7.66,0,0,1,1.17-.07,5.83,5.83,0,0,1,1.69.38C143.12,210.69,143.41,210.89,143.35,210.89Z"/><rect class="cls-6" x="135.7" y="209.3" width="8.62" height="2.46" rx="1.12" transform="translate(19.21 -11.58) rotate(5.08)"/><path class="cls-3" d="M161.26,215a1.12,1.12,0,0,0,.17-.58.62.62,0,0,0-.29-.51h0l0,0-.28.5a2.31,2.31,0,0,0-.23.54.27.27,0,0,0,0,.09.18.18,0,0,0,.05.07c.07.08.22.33.31.31S161.21,215.09,161.26,215Z"/><path class="cls-6" d="M76.4,179.49a17.65,17.65,0,0,1,.72-9.75c2-5.82,6.51-10.89,12.34-12.88s12.86-.51,16.9,4.13a7.09,7.09,0,0,1,7.79-2.82,10.74,10.74,0,0,1,6.5,5.67,23.14,23.14,0,0,1,2.11,8.57,5.83,5.83,0,0,0,.41,2,5.75,5.75,0,0,0,1.27,1.52l4.72,4.42c-3-.86-6,1.56-7,4.45s-.51,6.08,0,9.1c-4.22-1.74-8.71-3.51-13.21-2.77a40.9,40.9,0,0,0-6.33,2A31.53,31.53,0,0,1,95,194.8a10.26,10.26,0,0,1-5.39-.65c-2.87-1.39-5-4.65-7.44-6.7C79.47,185.2,77.25,183,76.4,179.49Z"/><path class="cls-30" d="M112.42,188.56a10.46,10.46,0,0,0-3.43-.33"/><path class="cls-30" d="M112.71,187.26a14,14,0,0,1-2.57-1"/><path class="cls-30" d="M113,186.08a3.83,3.83,0,0,1-1.29-.57"/><path class="cls-30" d="M113.15,184.79l-.15-.43"/></svg>