<svg id="Layer_1" data-name="Layer 1" xmlns="http://www.w3.org/2000/svg" xmlns:xlink="http://www.w3.org/1999/xlink" viewBox="0 0 264 214"><defs><style>.cls-1,.cls-19,.cls-24,.cls-26,.cls-27,.cls-9{fill:none;}.cls-2{fill:#6243cf;}.cls-3{fill:#fff;}.cls-4{fill:#d2d3c7;}.cls-5{fill:#6b84b5;}.cls-6{fill:#4867a3;opacity:0.58;}.cls-7{fill:#cfd5e0;}.cls-8{fill:#d1d1d1;}.cls-9{stroke:#cfd5e0;stroke-width:0.24px;}.cls-19,.cls-24,.cls-25,.cls-26,.cls-27,.cls-9{stroke-miterlimit:10;}.cls-10{fill:#f9efde;}.cls-11{fill:#ebdeca;}.cls-12{fill:#a5a69c;}.cls-13{fill:#dbd3b4;}.cls-13,.cls-17,.cls-20{opacity:0.59;}.cls-14{fill:#240e05;}.cls-15{opacity:0.46;}.cls-16,.cls-20{fill:#ccc5a3;}.cls-18{fill:#9e4a26;}.cls-19{stroke:#240e05;stroke-width:0.3px;}.cls-19,.cls-24{stroke-linecap:round;}.cls-21{fill:#28110c;}.cls-22{clip-path:url(#clip-path);}.cls-23{fill:#87726f;}.cls-24{stroke:#fff;stroke-width:0.45px;}.cls-25{fill:#d3d3c5;stroke-width:0.31px;}.cls-25,.cls-26{stroke:#000;}.cls-26{stroke-width:0.47px;}.cls-27{stroke:#ababa0;stroke-width:0.28px;}</style><clipPath id="clip-path"><path class="cls-1" d="M122,82.2c-1-2.52-3.17-1.66-5.45-1.26-3,.51-5.86,1.28-8.83,1.86-4.87.93-10.2.74-14.44,3.59-2.06,1.38-4.27,3.66-3.23,6.24.9,2.21,1.43,4.49,2.34,6.69,1.4,3.35,2,7,3.37,10.38,2.2,5.6,3.11,11.35,4,17.3.94,6.64-1.13,13-1.83,19.52a28.67,28.67,0,0,0,1.61,13.86c2.12,5.11,6.2,8.06,11,10.48,9.37,4.71,19.52,5.39,29.68,3.25,9.57-2,20.07-5.84,24.32-15.48A27.5,27.5,0,0,0,166.6,146c-.26-6.18-1-12.33-1.82-18.46-.4-3-1.24-5.92-1.49-9a44.3,44.3,0,0,1,.28-9.56,75.16,75.16,0,0,1,3.55-14.09c1.75-5,0-8-.4-8.61-1.51-2.28-6.44-3.57-9-4-4.21-.75-8.39-1.78-12.7-1.52-3.39.21-4.38,3.25-6.84,5.15-3.88,3-10.42,3.36-14-.13-.91-.89-1.34-2.34-2.11-3.13"/></clipPath></defs><rect class="cls-2" x="24.95" y="-25.05" width="214" height="264.1" transform="translate(238.95 -24.95) rotate(90)"/><path class="cls-3" d="M185.06,139.35c-2.81-6.48-3.24-13.69-4.71-20.6-.9-4.21-2.19-8.32-3.48-12.43-1.7-5.41-3.41-10.86-6.16-15.82-.71-1.28-1.64-2.64-3.08-3l-.28,0a6.87,6.87,0,0,0-.63-1.29c-1.51-2.28-6.44-3.57-9-4-4.21-.75-8.39-1.78-12.7-1.52a4.94,4.94,0,0,0-1.71.41,4.8,4.8,0,0,1,.8-.76c1-.79,2.61-1.21,2.93-2.48.11-.46-.06-1.06-.52-1.17.22.21-.14.62-.43.52a.88.88,0,0,1-.5-.73,7.08,7.08,0,0,1,.06-2.34,32.47,32.47,0,0,0,.57-5.89,11,11,0,0,0-.46-2.9A5.08,5.08,0,0,0,144.48,63a3.21,3.21,0,0,1-.92-1.62c0-.08,0-.15,0-.22a.27.27,0,0,0,0-.26,2.32,2.32,0,0,1,.83-1.73.82.82,0,0,0,.16-.22c.17.13.32-.21.11-.39a2.32,2.32,0,0,0-.09-.77l-.25-1.3a12,12,0,0,0-.28-3.95l.34-.12-.8-4.1a12.4,12.4,0,0,0-.4-1.51h0A13.05,13.05,0,0,0,128.23,38l-1.89.37a1.17,1.17,0,0,0-.54-.29,3.73,3.73,0,0,0-1.81.28,6.52,6.52,0,0,0-1.66,1A13.06,13.06,0,0,0,114,54.09l.8,4.1.3,0v.19h-.73a1.14,1.14,0,0,0-1.11.88l-.48,2s0,0,0,.06h0a2,2,0,0,0,.24,1.38l1.46,3.05a.14.14,0,0,1,0,.06l.81,4.23a2.26,2.26,0,0,0,.84,1.27l1.2.89a.43.43,0,0,0,.22.09,9,9,0,0,0,.15,1.94,6.48,6.48,0,0,0,2.37,4,4.06,4.06,0,0,1,1,.84.92.92,0,0,1,0,1.19c-.32.29-1,0-.86-.44a.57.57,0,0,0-.32.62,14.82,14.82,0,0,0-3.29.46c-3,.51-5.86,1.28-8.83,1.86-4.87.93-10.2.74-14.44,3.59-1.93,1.29-4,3.39-3.38,5.78a6.54,6.54,0,0,0-1.81,3c-1.93,5.33-2.77,11-3.59,16.6-.63,4.25-1.25,8.52-1.48,12.82-.36,7,.36,14.24-1.4,21.08-.37,1.44-.81,3.1.07,4.3.26.35.61.63.85,1,.7,1.06.34,2.63,1.2,3.56a1.84,1.84,0,0,0,1,.54,19.89,19.89,0,0,0,1.82,4.58c2.07,3.92,4.7,7.63,5.79,11.93.45,1.78.64,3.69,1.58,5.27,1.27,2.15,3.63,3.28,6.06,4.06.47.86,1,1.72,1.43,2.57.08.14.17.28.26.41h0a.75.75,0,0,0-.37.13l-.06.06,0,0h0l-.06.11h0a.32.32,0,0,0,0,.25.48.48,0,0,0,.11.09.77.77,0,0,1,.16.15.51.51,0,0,1,0,.35.43.43,0,0,0,0,.2s0,0,.08.08a.42.42,0,0,0,.18.11l.13,0c0,1.34,0,2.67,0,4q.09,6.56.19,13.09a17.6,17.6,0,0,0,.41,4.23c.18.72,0,6.24,0,12.61h32.19c.09-5.22.16-9.8.41-10.38A66.79,66.79,0,0,1,138,219.41h33c-2.27-12.88-5.16-29.71-5.36-30.62-.4-1.81-.79-3.62-1.19-5.42h0a.26.26,0,0,0,.15-.27,4.38,4.38,0,0,1-.33-1.35,3,3,0,0,0,.2-.4,57.94,57.94,0,0,0,3.18-8.3c.25-.93.46-1.87.77-2.79.08-.24.19-.46.29-.69a7.27,7.27,0,0,0,2.23-1.75c1.18-1.42,1.66-3.27,2.39-5,1.74-4.08,4.92-7.33,7.57-10.87a23,23,0,0,0,1.79-2.74,2,2,0,0,0,1.66-.83c.71-1,.1-2.55.62-3.7.19-.4.49-.73.69-1.12C186.35,142.28,185.65,140.71,185.06,139.35ZM99.26,137a7.61,7.61,0,0,1,.31-1.25c-.11.86-.25,1.72-.39,2.57A8.28,8.28,0,0,1,99.26,137Zm57.54,30.66,0,.06-.33.13Zm10.95-27.33a.55.55,0,0,0-.11.38c0,.58-.4,1.51-.45,2.23l-.66,1.8c-.23-4.41-.68-8.8-1.22-13.19a10,10,0,0,1,1,2.06c.49,1.54.34,3.24.93,4.73.18.46.43.89.6,1.35a3.75,3.75,0,0,1,.15.55A.3.3,0,0,0,167.75,140.36Zm-45.81-59-.2,0,.15.41v.13a2.91,2.91,0,0,0-.54-.77l.66-.19Z"/><path class="cls-3" d="M178.33,225.55h-82l.06-6.21c0-1.73.05-3.4.07-4.93,0-2.61.09-5.54,0-6.57a24.55,24.55,0,0,1-.48-5.18l-.19-13.37,0-1.89-.08-.24a6.3,6.3,0,0,1-.56-1.65,14.34,14.34,0,0,1-6.42-5.59,18,18,0,0,1-2-5.73c-.08-.39-.16-.79-.26-1.17A30.82,30.82,0,0,0,83,165.76c-.61-1.06-1.24-2.16-1.84-3.3A29.89,29.89,0,0,1,79.64,159c-.13-.11-.25-.24-.37-.36a9,9,0,0,1-2.19-4.7l-.34-.43c-2.56-3.52-1.55-7.48-1.06-9.39,1-4.07,1.07-8.49,1.09-13.18,0-2.19,0-4.45.14-6.74.24-4.58.89-9,1.53-13.37C79.3,105,80.18,99,82.33,93a15.72,15.72,0,0,1,1.4-3c.4-3.27,2.52-6.35,6.14-8.78,4.3-2.89,8.95-3.47,13-4,1.3-.16,2.53-.32,3.65-.54s2.5-.52,3.74-.8l1.4-.31v0a8.43,8.43,0,0,1-2.38-4.06l-.08-.35-.66-3.48-1.26-2.66a8.12,8.12,0,0,1-.71-4.15v-.49l.21-.69.45-1.92a7.22,7.22,0,0,1,.8-2l-.1-.55a19.07,19.07,0,0,1,11.39-21.36,11.73,11.73,0,0,1,2.42-1.28,9.69,9.69,0,0,1,5-.61h0l.25-.05a19.21,19.21,0,0,1,22,12.94h0a18,18,0,0,1,.59,2.22l1.84,9.42-.8.26c0,.19.07.38.09.59a6.47,6.47,0,0,1-.19,3.46,14.3,14.3,0,0,1,1.08,2.66,16.82,16.82,0,0,1,.74,4.51,30.82,30.82,0,0,1-.4,5.44,4,4,0,0,1,.22.34,6.22,6.22,0,0,1,.59,1.25c1.29.2,2.54.44,3.79.68l2.23.41c4.4.78,10.17,2.54,12.94,6.5a12.68,12.68,0,0,1,4.37,4.88c3.06,5.52,4.89,11.33,6.65,17,1.31,4.17,2.66,8.48,3.62,13,.48,2.24.85,4.48,1.21,6.64.76,4.62,1.48,9,3.13,12.8l-5.63,2.44,5.65-2.4c.79,1.8,2.42,5.55.43,9.44a5.42,5.42,0,0,1-.26.48,8.81,8.81,0,0,1-1.42,5,7.79,7.79,0,0,1-2.67,2.47c-.3.45-.62.91-1,1.36-.77,1-1.57,2-2.34,3a31.23,31.23,0,0,0-4.51,6.64c-.15.36-.3.74-.44,1.11a17.82,17.82,0,0,1-2.86,5.35,13,13,0,0,1-1.79,1.76l-.06.22-.24.94a55.7,55.7,0,0,1-2.87,7.77,7.7,7.7,0,0,1,0,1l.9,4.07c.12.55.53,2.91,2.11,12,1,5.77,2.22,12.77,3.3,18.87ZM142.9,213.27h20.8c-.71-4-1.41-8.1-2-11.69-1-5.59-1.89-10.88-2-11.52l-.79-3.62-.53-.53v-2.53a10.09,10.09,0,0,1-.15-1l-.18-1.88.9-1.66a64.86,64.86,0,0,0,2.51-6.26l-2.7,1.06-49.89,19,44.48-30,5-3.52,3,4.36-1-18.4c-.2-3.77-.58-7.82-1.19-12.75l-3.54-28.41,14.88,24.46a15.38,15.38,0,0,1,1.61,3.39,17.31,17.31,0,0,1,.65,3.32,9.47,9.47,0,0,0,.16,1.06l.09.19q.3.6.54,1.23A10.28,10.28,0,0,1,174,139l1.58,7.28-3.07.07c0,.1-.07.2-.11.31L166.13,164l.1-.08a10.29,10.29,0,0,0,.84-1.88c.2-.53.4-1,.62-1.57a41.22,41.22,0,0,1,6.24-9.51c.7-.86,1.4-1.73,2.07-2.62a19.59,19.59,0,0,0,1.33-2l1.65-3a8.15,8.15,0,0,1,.42-1.12,2,2,0,0,1,.1-.21.61.61,0,0,1-.05-.12l0,0c-2.26-5.21-3.14-10.54-4-15.69-.35-2.12-.68-4.12-1.1-6.08-.84-3.94-2.1-8-3.33-11.87-1.58-5-3.22-10.24-5.67-14.68h0l-2.44-.28-1.24-3.36a17.77,17.77,0,0,0-5-1.58l-2.39-.45a38.47,38.47,0,0,0-8.69-1L126.5,95.17l-.89,7.57-3-5.86-2.09.92L122.15,96l-4.57-9c-1.49.26-3,.6-4.57,1-1.37.3-2.73.61-4.12.88s-3,.48-4.43.66c-3.15.39-5.86.73-7.74,2l-.53.4.69,2.61-2.8,2.22c0,.1-.11.26-.2.5-1.72,4.77-2.52,10.17-3.29,15.4-.62,4.25-1.21,8.24-1.41,12.24-.11,2-.12,4-.13,6.17,0,5.23,0,10.63-1.46,16.13,0,.06,0,.11,0,.17l.13.2a8.33,8.33,0,0,1,.95,1.92l1.19.2,1,3.91a14.3,14.3,0,0,0,1.3,3.18c.51,1,1.07,2,1.63,2.92A40.94,40.94,0,0,1,98.37,170c.14.54.25,1.09.37,1.64a10.28,10.28,0,0,0,.54,2c0,.06.42.62,2.67,1.35l2.32.75,1.18,2.14c.39.72.79,1.43,1.19,2.14l1.47.24,0,1.88,4.34,6.12-4.36.72a.41.41,0,0,1,0,.11l.19,13.37a14.46,14.46,0,0,0,.21,2.77c.3,1.17.33,2.19.24,8h19.95c.12-4.48.28-5.48.8-6.69L135.39,193l5.43,13.77A57.2,57.2,0,0,1,142.9,213.27Zm-46.31-4.93v0Zm3-17.17.07,0Zm55-22-2.9,1.9Zm19.17-28.29h0ZM128,82.17l-1,8.14,11.29-12.92-12.56-12,14.27,3.44c0-.12,0-.25,0-.37a4.73,4.73,0,0,0-.19-1.28l-.05-.17a9.11,9.11,0,0,1-2.22-4.12l-.25-.44,0-1.41-.06-1.08.17-.36a8,8,0,0,1,.7-2.26l-.11-.6.1-.9A6.32,6.32,0,0,0,138,53.9l-1.26-5.45.41-.13A6.9,6.9,0,0,0,129.41,44l-4.37.85-.61.22a6.87,6.87,0,0,0-4.54,6.55l1.34-.1v6.72l.09,6.24h-.85l.39,2,2.87.36,0,5.24L129.86,70l-.72,2.2.31-.1Zm-.47-2.78v0Zm12.15-12.71Zm-19.92-.27ZM143.46,46.7h0l.73-.24Zm-38.22,92.66-12.2-1a13.5,13.5,0,0,1,.15-2.28h0a13.68,13.68,0,0,1,.55-2.26l11.92,2.76C105.54,137.53,105.39,138.44,105.24,139.36Z"/><path class="cls-1" d="M253.63,120.92l-1.73,4.54"/><path class="cls-4" d="M168.13,143c0,.56-.11,1.37.27,1.31a13.66,13.66,0,0,1,10.38,2.82,11.25,11.25,0,0,0,2.64,1.88,2.47,2.47,0,0,0,2.94-.62c.71-1,.1-2.55.63-3.7.18-.4.48-.73.68-1.12.68-1.32,0-2.89-.61-4.25-2.81-6.48-3.24-13.69-4.71-20.6-.9-4.21-2.19-8.32-3.48-12.43-1.7-5.41-3.41-10.86-6.16-15.82-.71-1.28-1.64-2.64-3.08-3-1.79-.39-3.44,1-4.6,2.43-5,6.09-7.24,14.24-6.83,22.14a26.83,26.83,0,0,0,1.67,8.55,14.37,14.37,0,0,0,2.18,3.8,12.91,12.91,0,0,0,1.51,1.54c.49.41,1.38.8,1.7,1.36a4.48,4.48,0,0,1,.3.87c.56,1.95,2.13,3.47,2.75,5.4.49,1.54.34,3.24.93,4.73.18.46.43.89.6,1.35a9.28,9.28,0,0,1,.34,2.82C168.18,142.61,168.16,142.8,168.13,143Z"/><path class="cls-5" d="M171,219.41H138A66.79,66.79,0,0,0,135.1,209c-.25.58-.32,5.16-.41,10.38H102.5c.07-6.37.22-11.89,0-12.61a17.6,17.6,0,0,1-.41-4.23q-.09-6.54-.19-13.09c0-1.33,0-2.67,0-4,0-.56,0-1.12,0-1.68s0-1.26.1-1.89c.19-2.55.6-5.07,1-7.59.53-3.24.34-6.25.87-9.49a24.22,24.22,0,0,0,12.79,4.11h2.87c.57,0,1.13,0,1.69,0h.09a28.05,28.05,0,0,1,3.53.51,40.44,40.44,0,0,0,6.34,1c4.17.17,8.23-1.31,12.36-1.77a20.62,20.62,0,0,1,2.36-.14h0c.34,0,.67,0,1,0,.79,0,1.57.12,2.35.19s1.58.14,2.37.16c3.1.06,6.31-2,9.32-2.72.52,2,1,4.43,1.42,6.87.07.35.13.71.19,1.06.37,2,.72,4,1.08,5.86.12.59.24,1.15.35,1.7h0a2.29,2.29,0,0,0,.07.28c.09.44.19.89.29,1.33.4,1.8.79,3.61,1.19,5.42C165.85,189.7,168.74,206.53,171,219.41Z"/><path class="cls-6" d="M146.45,219.41H138A66.79,66.79,0,0,0,135.1,209c-.25.58-.32,5.16-.41,10.38H102.5c.07-6.37.22-11.89,0-12.61a17.6,17.6,0,0,1-.41-4.23q-.09-6.54-.19-13.09c0-1.33,0-2.67,0-4a.49.49,0,0,1-.39-.24c-.07-.14,0-.43,0-.55s-.2-.14-.27-.24a.36.36,0,0,1,.12-.48,1,1,0,0,1,.51-.16H102c0-.63,0-1.26.1-1.89.19-2.55.6-5.07,1-7.59.53-3.24.34-6.25.87-9.49a24.22,24.22,0,0,0,12.79,4.11h.76l.15-.2a.75.75,0,0,1,.27-.23.93.93,0,0,1,.33,0c.27,0,1.25-.09,1.38.17v0a.39.39,0,0,1,0,.25c.57,0,1.13,0,1.69,0h.09a28.05,28.05,0,0,1,3.53.51c0,1.5-.27,2.93-.24,4.47,0,.83.06,1.65.11,2.48,0,0,0,.09,0,.14a76.33,76.33,0,0,1,.46,10.72c-.27,3.95-.84,8.23,1.25,11.58,2.86,4.6,9.3,5.3,13.46,8.76C143.49,210.56,144.94,215,146.45,219.41Z"/><path class="cls-7" d="M115.82,175.63v.07a8.05,8.05,0,0,1-2.06,4.66,13.12,13.12,0,0,1-4.16,3.36,23.74,23.74,0,0,1-7.34,1.78,2,2,0,0,1-.34,0,.49.49,0,0,1-.39-.24c-.07-.14,0-.43,0-.55s-.2-.14-.27-.24a.36.36,0,0,1,.12-.48,1.13,1.13,0,0,1,.51-.16H102a31.08,31.08,0,0,0,5.6-1.05,9.87,9.87,0,0,0,4.81-3.12,11.2,11.2,0,0,0,1.47-2.67c.13-.31.27-1.13.52-1.35S115.46,175.68,115.82,175.63Z"/><path class="cls-7" d="M154.44,180.71a10.24,10.24,0,0,0,4.61,2.52,27.16,27.16,0,0,0,5,.24c.24,0,.58-.11.54-.37a4.16,4.16,0,0,1-.33-1.39,8.12,8.12,0,0,1-7-.91,16.93,16.93,0,0,1-1.56-.88,9,9,0,0,1-2.44-3.16c-.46-.93-1-2-2.26-1.35A12.06,12.06,0,0,0,154.44,180.71Z"/><path class="cls-7" d="M146,168.59a1.2,1.2,0,0,1,.05.54c-.19,2.78.34,5.57.27,8.36,0,1.15-1.13,1.42-2.09,1a3.77,3.77,0,0,0,0-1.34c-.24-2.05-.45-4.21-.5-6.27a22.21,22.21,0,0,0-.19-2.73,3.47,3.47,0,0,1,1.42,0C145.33,168.18,145.84,168.2,146,168.59Z"/><path class="cls-7" d="M121.31,168.91v0c-.77,2.14-.62,4.45-.83,6.67-.07.73-.08,2.52-.81,2.71-.44.11-1.36,0-1.57-.47a1,1,0,0,1-.06-.43c0-1.55,0-3.11.15-4.66.1-1.33.24-2.91,1.2-3.94C119.65,168.53,121.57,168.08,121.31,168.91Z"/><path class="cls-8" d="M130.32,174a1.41,1.41,0,0,1-.3-1.69,1.55,1.55,0,0,1,1.56-.76,1.35,1.35,0,0,1,1.09.86,1.67,1.67,0,0,1-.1,1.18,1.47,1.47,0,0,1-.93.8A1.58,1.58,0,0,1,130.32,174Z"/><path class="cls-9" d="M120.05,176.13a36.81,36.81,0,0,0,9,.33c1.86-.17,3.79-.43,5.68-.53s3.88.13,5.84.11c3.41,0,5.66-1,9-.55,0,0,9.16.46,13.05-1.29"/><path class="cls-9" d="M127.47,176.49c2.2,6.35,1.42,12.3,1.83,17.69a6.43,6.43,0,0,0,1.17,3.77c1.21,1.4,3.29,1.6,5.14,1.48a7.32,7.32,0,0,0,.35,1.71,9.88,9.88,0,0,1-3.78-.53,5.82,5.82,0,0,1-3-2.34c-.92-1.51-.92-3.39-.89-5.16l.07-5.61a19.62,19.62,0,0,0-.1-2.87c-.11-.88-.34-1.74-.47-2.62a17.91,17.91,0,0,0-.48-3.2,7.94,7.94,0,0,1-.7-2.32"/><path class="cls-9" d="M118.72,176c-2.25-.25-6.6-.37-8.85-.58a13.25,13.25,0,0,1-6.4-2"/><path class="cls-10" d="M117.2,184.17a.49.49,0,0,1-.14.21,2.73,2.73,0,0,1-3.56-.15,6.49,6.49,0,0,1-.7-.78c-.62-.75-1.23-1.51-1.84-2.26a16.9,16.9,0,0,1-6.56,3.07l-.6.13a2.27,2.27,0,0,1-1.67-.16,2.42,2.42,0,0,1-.64-.81,58.36,58.36,0,0,1-4-7.94c-.35-.9-.65-1.82-1-2.7a22.21,22.21,0,0,0-1.67-2.86c-.59-.88-.37-1.35.16-2.24a7,7,0,0,1,.86-1.14,6.56,6.56,0,0,1,3.2-1.89.71.71,0,0,1,.25,0,.69.69,0,0,1,.4.33l2.22,3.21a15.21,15.21,0,0,0,1.7,2.14,7.61,7.61,0,0,0,2.13,1.46c.93.42,2,.65,2.84,1.16,2,1.15,2.9,3.47,4.38,5.21.67.8,1.48,1.49,2.15,2.3a11.74,11.74,0,0,1,.92,1.3c.41.69.78,1.42,1.14,2.14h0A.41.41,0,0,1,117.2,184.17Z"/><path class="cls-11" d="M104.4,184.26l-.6.13a2.27,2.27,0,0,1-1.67-.16,2.42,2.42,0,0,1-.64-.81,58.36,58.36,0,0,1-4-7.94c-.35-.9-.65-1.82-1-2.7a22.21,22.21,0,0,0-1.67-2.86c-.59-.88-.37-1.35.16-2.24a7,7,0,0,1,.86-1.14c0,.06,0,.12,0,.16,0,2.23,1.7,4.07,2.35,6.2.56,1.82.38,3.89,1.35,5.53.29.49.68.92,1,1.39.48.69.83,1.45,1.34,2.11A15,15,0,0,0,104.4,184.26Z"/><path class="cls-3" d="M115.47,183.81a3,3,0,0,1-.4-.4,2,2,0,0,1-.29-.43.65.65,0,0,1,0-.51.92.92,0,0,1,.49-.39l.6-.29a.34.34,0,0,1,.17,0,.31.31,0,0,1,.19.15l.73,1a1.59,1.59,0,0,1,.27.45C117.56,184.3,115.92,184.16,115.47,183.81Z"/><path class="cls-4" d="M98.94,146.59c.14.54.32,1.33-.06,1.33a13.64,13.64,0,0,0-9.8,4.42,11.54,11.54,0,0,1-2.31,2.27,2.48,2.48,0,0,1-3-.14c-.86-.93-.5-2.5-1.2-3.56-.24-.36-.59-.64-.85-1-.88-1.2-.44-2.86-.07-4.3,1.76-6.84,1-14,1.4-21.08.23-4.3.85-8.57,1.48-12.82.82-5.61,1.66-11.27,3.59-16.6.5-1.38,1.2-2.87,2.57-3.4,1.7-.66,3.56.47,4.93,1.67,5.92,5.23,9.39,12.93,10.23,20.79a26.74,26.74,0,0,1-.29,8.7A14.66,14.66,0,0,1,104,127a12,12,0,0,1-1.25,1.76c-.42.49-1.23,1-1.46,1.61a4,4,0,0,0-.16.91c-.24,2-1.56,3.76-1.86,5.77-.24,1.59.17,3.24-.18,4.82-.1.47-.28.94-.37,1.42a9,9,0,0,0,.11,2.84A3.93,3.93,0,0,0,98.94,146.59Z"/><path class="cls-4" d="M102.94,158.4c.78,1.9,2.41,3.34,3.22,5.22.67,1.57.75,3.4,1.72,4.8.68,1,1.75,1.66,2.37,2.69a5.09,5.09,0,0,1,0,4.68,14,14,0,0,1-3,3.83,5.92,5.92,0,0,1-3.14,2,5.81,5.81,0,0,1-2.44-.31c-3-.81-6.13-1.91-7.68-4.54-.94-1.58-1.13-3.49-1.58-5.27-1.09-4.3-3.72-8-5.79-11.93-1.57-3-2.85-6.48-1.74-9.66a3.88,3.88,0,0,1,1.22-1.87,5.57,5.57,0,0,1,2.07-.85c2.92-.73,8-2.39,10.64-.13C101.93,149.71,101.52,155,102.94,158.4Z"/><path class="cls-12" d="M95.91,148.85a.76.76,0,0,1-.41-.13,2.24,2.24,0,0,0-1.73.15A15.64,15.64,0,0,0,90,151a3.92,3.92,0,0,1,2.32-2.5,9.87,9.87,0,0,1,3.46-.64c.36-.31.06-1-.4-1.09a2,2,0,0,0-1.35.32.62.62,0,0,1,.54-.57.45.45,0,0,1-.07-.67,1.27,1.27,0,0,1,.67-.37,2,2,0,0,0-.69-.7c.28.15.57-.28.42-.56a.81.81,0,0,0-.83-.3,4.2,4.2,0,0,1-.92.15,2,2,0,0,1,1-.62c1.33-.33,2.69.77,4,.52.21,0,.45-.09.59.06a.61.61,0,0,1,.09.4c0,.84.75,2.49.08,3-.3.26-.94.26-1.3.4C97.1,148.08,96.45,148.8,95.91,148.85Z"/><path class="cls-10" d="M121.54,85.22a1.73,1.73,0,0,0,.75,2.14,20.54,20.54,0,0,0,6.15,3.75A7,7,0,0,0,135.26,90c.88-.81,5.64-4.88,6.09-6,.57-1.4-3.19.09-3.25-1.42a5.31,5.31,0,0,0-1.89-4,6.75,6.75,0,0,0-4.61-1,33.54,33.54,0,0,1-4.79.41c-.87-.06-2.73-1.14-3.48-.85C122,77.71,121.77,83.76,121.54,85.22Z"/><path class="cls-10" d="M117.76,72.28c-.05,4,6.25,7.69,8.86,9,2.26,1.13,6.25,1.5,10,1.36l1.31-.07.39,0c4.23-.33,4.88-3.59,5.21-5.21s2.23-10.77,1.95-12.38c-.32-1.88-1.62-2-1.95-3.58a2.3,2.3,0,0,1,.8-2.21c.49-.47.18-1.38.18-1.38l-1.28-6.86L141,48.28l-1.34-1.57L135,46.56l-15.23-.5-2.93,13.68S117.8,69.35,117.76,72.28Z"/><path class="cls-13" d="M134.79,48.23a22.72,22.72,0,0,0,.91,2.44,12.84,12.84,0,0,1,.37,2c0,.23.21.41.22.63s-.17.45-.18.64a2.13,2.13,0,0,0,.09.84,3.24,3.24,0,0,1,.18.45,3.54,3.54,0,0,1-.13.71c-.06.62.59,1,1,1.54a2,2,0,0,1,.2,2,4.9,4.9,0,0,0-.68,1.3,2.61,2.61,0,0,0,.5,1.53,15.21,15.21,0,0,1,1.33,5.43c.1.81,0,1.9-.79,2.07-.19,0-.4,0-.6,0A1.39,1.39,0,0,0,136.11,71a5.57,5.57,0,0,0,0,1.68c.19,2.42-.51,4.85-.34,7.28a5,5,0,0,0,.86,2.64l1.31-.07.39,0c4.23-.33,4.88-3.59,5.21-5.21s2.23-10.77,1.95-12.38c-.32-1.88-1.62-2-1.95-3.58a2.3,2.3,0,0,1,.8-2.21c.49-.47.18-1.38.18-1.38l-1.28-6.86L141,48.28l-1.34-1.57L135,46.56A3.57,3.57,0,0,0,134.79,48.23Z"/><path class="cls-14" d="M135.74,74l.9-.8.36-.35a4.55,4.55,0,0,1,.64,0,19.15,19.15,0,0,0,1.9,1.07,7.35,7.35,0,0,0,.78-.42l.58,1.17s-1.37-.63-1.46-.63Z"/><path class="cls-14" d="M137.16,74l-.95-.8-.39-.35a5,5,0,0,0-.67,0,21.54,21.54,0,0,1-2,1.07,8.6,8.6,0,0,1-.82-.42l-.62,1.17s1.46-.63,1.55-.63Z"/><path class="cls-10" d="M113,62.73l1.46,3.05a.14.14,0,0,1,0,.06l.81,4.23a2.26,2.26,0,0,0,.84,1.27l1.2.89a.43.43,0,0,0,.23.09c.23,0,.77.08,1.21.11.27,0,.73-.37.72-.65l-.4-4.22v-.13l-.06-1.5a6.86,6.86,0,0,1-1.59-3.79s0-.07,0-.11,0-.06,0-.1a1.11,1.11,0,0,1,0-.19l0-.09-.29-1.92-.25-.47a3,3,0,0,0-.2-.29,1.69,1.69,0,0,0-1.29-.61h-1a1.14,1.14,0,0,0-1.11.88l-.48,2s0,0,0,.06h0A2,2,0,0,0,113,62.73Z"/><g class="cls-15"><path class="cls-16" d="M115.36,62.45a8.36,8.36,0,0,0,.48,1.34l.06.18a1.22,1.22,0,0,1,.07.17l0,0a1.17,1.17,0,0,0,.05.11c0,.12.11.23.16.34l0,0c.17.34.33.61.33.61a3.46,3.46,0,0,0,.4,1.83h0a.86.86,0,0,0,.64.31h.1a1.12,1.12,0,0,0,1.15-.87,3.14,3.14,0,0,0,.12-1l-.17-.18a5.67,5.67,0,0,1-1.28-3.11l-.29-.29h0a2.25,2.25,0,0,0-.46-.3h0c-.5-.21-.69-.35-1.22,0h0a.29.29,0,0,0-.13.14h0A1,1,0,0,0,115.36,62.45Z"/></g><path class="cls-14" d="M115.1,62.1a.32.32,0,0,0,0,.16l0,.08,0,.14.23.62.22.63c.08.21.16.4.25.62l.17.35a1.63,1.63,0,0,0,.11.17l.08.09,0,.05a2.44,2.44,0,0,1,.2.66l.13.74a3.42,3.42,0,0,0,.19.73,0,0,0,0,0,0,0h0a.76.76,0,0,0,.12.19.8.8,0,0,0,.21.13.9.9,0,0,0,.43.06h0l.2,0,.1,0,.1,0a.11.11,0,0,0,0-.16.11.11,0,0,0-.15,0h0l-.07,0-.08,0-.16,0h0a.68.68,0,0,1-.32,0,.37.37,0,0,1-.2-.2h0s0,0,0,0l0,0h0L117,67h0s0,0,.08,0l0,0a3.38,3.38,0,0,1-.17-.68l-.12-.74a2.4,2.4,0,0,0-.23-.77.34.34,0,0,0-.08-.09.21.21,0,0,0,0-.06l-.09-.14-.15-.33h0a4.69,4.69,0,0,1-.24-.6l-.22-.63-.21-.62-.07-.17,0-.08h0a.52.52,0,0,1,.1-.22h0l.11-.13.13-.09a.53.53,0,0,1,.29-.1.54.54,0,0,1,.3.06l.17.08.08.05,0,0h0l.45.29h0l.28.21h0a.19.19,0,0,0,.13,0s0-.06,0-.09a.22.22,0,0,0,0-.08.77.77,0,0,0,0-.15V62l-.16-.11h0l-.47-.31,0,0,0,0h0l0,0-.09,0-.19-.09a.91.91,0,0,0-.44-.08,1,1,0,0,0-.44.15,1.52,1.52,0,0,0-.32.3h0v0A.83.83,0,0,0,115.1,62.1Zm.39-.18h0Z"/><g class="cls-17"><path class="cls-16" d="M132.15,59.84a6,6,0,0,0-2.87-.45,4.3,4.3,0,0,0-2.11,1.18,1.87,1.87,0,0,0,.22.64c.14.17.47.09.7,0A12,12,0,0,1,130.81,60a1.17,1.17,0,0,1,1.25.33c.47.41.78.86,1.45,1,.23-.1.17-.75.15-1S132.63,60.08,132.15,59.84Z"/></g><path class="cls-14" d="M128.6,61.48l.5.37a2.35,2.35,0,0,0,.64.3,3.9,3.9,0,0,0,1.4.12,2,2,0,0,0,.68-.22,4.26,4.26,0,0,0,.55-.34l.25-.18a.41.41,0,0,1,.23-.11,3.88,3.88,0,0,0,.63-.16h0l-.06-.1c-.19.11-.12.29.1.08,0,0,0-.06,0-.08h0a1.78,1.78,0,0,0-.69,0l-.19.06a.74.74,0,0,0-.16.1l-.25.18a2.19,2.19,0,0,1-1.06.51,3.39,3.39,0,0,1-1.24-.16,1.72,1.72,0,0,1-.5-.27l-.48-.38a.26.26,0,0,0-.3,0,.15.15,0,0,0,0,.24Z"/><ellipse class="cls-14" cx="131.04" cy="60.87" rx="0.96" ry="0.94"/><path class="cls-18" d="M133.39,61.06a.62.62,0,0,1-.26-.06l-.26-.22-.56-.46-.3-.23-.16-.12a.71.71,0,0,0-.28-.11,8,8,0,0,0-.85,0,6.19,6.19,0,0,0-1.64.32,3.65,3.65,0,0,0-1.39.89h0a.29.29,0,0,0,.09.46.47.47,0,0,0,.57-.07l0,0a2.41,2.41,0,0,1,1-.8,4.57,4.57,0,0,1,1.42-.38,6.44,6.44,0,0,1,.75,0s0,0,.07,0l.15.09.29.21.56.46.3.24a.87.87,0,0,0,.51.1.14.14,0,1,0,0-.28Z"/><path class="cls-19" d="M133.89,60.08a6.09,6.09,0,0,1-2.14-.43,4,4,0,0,0-4.46.76"/><path class="cls-20" d="M138.68,61.28a.26.26,0,0,1-.19-.19.94.94,0,0,1,0-.29c0-.15.06-.3.08-.46a.57.57,0,0,1,.46-.43,7.3,7.3,0,0,0,2-.48,1.27,1.27,0,0,1,.43-.09,1.73,1.73,0,0,1,.51.12,4.73,4.73,0,0,1,.91.34.84.84,0,0,1,.44.71c0,.09.18.48.12.55s-.2,0-.37,0a2.25,2.25,0,0,1-.47-.34,3.49,3.49,0,0,0-1.73-.6,2.89,2.89,0,0,0-.72,0,1.85,1.85,0,0,0-.9.51C139.18,60.73,138.82,61.3,138.68,61.28Z"/><path class="cls-14" d="M142.84,60.84l-.41.41a1.51,1.51,0,0,1-.42.32,2.89,2.89,0,0,1-1.13.28,1.73,1.73,0,0,1-1.07-.33l-.51-.32a1,1,0,0,0-.36-.1.93.93,0,0,0-.33,0h0a.06.06,0,0,0-.05.08v0c.07.1.32.13.13-.08l-.06.11c.18.09.41.07.52.15l.51.31a3.43,3.43,0,0,0,.58.27l.33.09a2.1,2.1,0,0,0,.35,0,3.42,3.42,0,0,0,1.29-.26,1.94,1.94,0,0,0,.55-.36l.43-.4a.17.17,0,0,0,0-.26.24.24,0,0,0-.3,0Z"/><ellipse class="cls-14" cx="141.22" cy="60.9" rx="0.85" ry="0.81"/><path class="cls-18" d="M138.85,61.34a.8.8,0,0,0,.19-.13l.12-.11.21-.22.44-.41.22-.19.08-.05s0,0,0,0h.12a4.44,4.44,0,0,1,.63,0,3.52,3.52,0,0,1,1.18.28,2.17,2.17,0,0,1,.87.66.47.47,0,0,0,.54.1.28.28,0,0,0,.07-.43l0,0h0a3.36,3.36,0,0,0-1.21-.71,5.16,5.16,0,0,0-1.39-.22l-.69,0H140a.54.54,0,0,0-.12.07l-.07,0a1.7,1.7,0,0,0-.24.22l-.44.43-.21.22-.1.1s0,0-.09,0a.19.19,0,0,0-.18.18.2.2,0,0,0,.21.16s.07,0,.09,0Z"/><path class="cls-18" d="M138.24,58.66a3.69,3.69,0,0,0,1.93-.1c.59-.15,1.2-.28,1.78-.41a2.47,2.47,0,0,1,1.62.18,7.06,7.06,0,0,1,1.46,1l.22-.25a9.82,9.82,0,0,0-1.47-1.15,3.21,3.21,0,0,0-.91-.39,3.11,3.11,0,0,0-1-.09c-.63,0-1.23.08-1.84.1a2.91,2.91,0,0,1-1.51-.17Z"/><path class="cls-18" d="M134.69,59.05a6.56,6.56,0,0,1-2.46-.26c-.71-.18-1.45-.39-2.13-.53a5.37,5.37,0,0,0-1-.16,3.48,3.48,0,0,0-1,.15,7.49,7.49,0,0,0-1.93.94l-.2-.31a10.65,10.65,0,0,1,2-1.1,4.37,4.37,0,0,1,1.14-.31,9,9,0,0,1,1.16,0c.78,0,1.49.13,2.23.18a4.24,4.24,0,0,0,1.92-.12Z"/><path class="cls-14" d="M137.34,70.16h.16a1.65,1.65,0,0,0,1.39-1.2,3.51,3.51,0,0,0,0-1.67c-.17-.91-.37-1.82-.56-2.7v0a6.35,6.35,0,0,0-1-2.58l-.14-.18a1.69,1.69,0,0,1-.39-.66c-.07-.42.29-.82.6-1.09l.26-.22a3.23,3.23,0,0,0,.85-.88,2.17,2.17,0,0,0,.11-1.56l-.4.07a1.87,1.87,0,0,1-.08,1.33,2.9,2.9,0,0,1-.75.78l-.28.22a1.61,1.61,0,0,0-.71,1.4,1.91,1.91,0,0,0,.46.82l.13.17a6.11,6.11,0,0,1,.92,2.45v0c.19.88.39,1.79.56,2.69a3.29,3.29,0,0,1,.05,1.52,1.3,1.3,0,0,1-1.05.93,2.35,2.35,0,0,1-1.24-.38,2.61,2.61,0,0,0-1.49-.42,2.75,2.75,0,0,0-.53.12,1.77,1.77,0,0,1-.58.12.65.65,0,0,1-.58-.46.56.56,0,0,1,.35-.61l-.17-.32a.92.92,0,0,0-.58,1,1,1,0,0,0,1,.74,2,2,0,0,0,.73-.13,4.2,4.2,0,0,1,.45-.11,2.3,2.3,0,0,1,1.24.38A3,3,0,0,0,137.34,70.16Z"/><path class="cls-19" d="M138.74,59.92a4.12,4.12,0,0,0,1.76-.38,2.19,2.19,0,0,1,2.5.31"/><path class="cls-18" d="M136.77,70.53a.94.94,0,0,1,.47-.16,3.2,3.2,0,0,1,1.79.34c1.18.56,1.95,1.65,3,2.35a3.3,3.3,0,0,0,2.8.5c.19-.07.46-.13.53,0s-.45.31-.58.33a13.53,13.53,0,0,1-5.94-.11,3.84,3.84,0,0,1-1.87-1,.94.94,0,0,1-.16-.23,1,1,0,0,1-.06-.35,5.75,5.75,0,0,0-.1-.93C136.62,71,136.52,70.73,136.77,70.53Z"/><path class="cls-18" d="M136.24,70.53a1,1,0,0,0-.47-.16,3.22,3.22,0,0,0-1.8.34c-1.17.56-1.94,1.65-3,2.35a3.3,3.3,0,0,1-2.8.5c-.18-.07-.46-.13-.53,0s.45.31.58.33a13.58,13.58,0,0,0,6-.11,3.85,3.85,0,0,0,1.86-1,.6.6,0,0,0,.16-.23,1,1,0,0,0,.06-.35,4.82,4.82,0,0,1,.11-.93C136.39,71,136.48,70.73,136.24,70.53Z"/><path class="cls-10" d="M148.93,183.68a.37.37,0,0,0,.16.19,2.7,2.7,0,0,0,3.52-.51,5.69,5.69,0,0,0,.62-.84c.54-.81,1.08-1.62,1.61-2.43a16.87,16.87,0,0,0,6.83,2.39l.61.07a2.27,2.27,0,0,0,1.65-.33,2.39,2.39,0,0,0,.55-.87,57.94,57.94,0,0,0,3.18-8.3c.25-.93.46-1.87.77-2.79a21,21,0,0,1,1.38-3c.49-.94.22-1.39-.39-2.22a6.9,6.9,0,0,0-1-1.05,6.58,6.58,0,0,0-3.37-1.55.76.76,0,0,0-.26,0c-.17,0-.27.22-.36.37l-1.89,3.41a15,15,0,0,1-1.47,2.31,7.32,7.32,0,0,1-2,1.66,29.19,29.19,0,0,0-2.71,1.44c-1.85,1.35-2.53,3.74-3.83,5.63-.6.86-1.33,1.62-1.92,2.5a11.79,11.79,0,0,0-.78,1.39c-.34.73-.63,1.49-.92,2.24h0A.42.42,0,0,0,148.93,183.68Z"/><path class="cls-11" d="M161.67,182.48l.61.07a2.27,2.27,0,0,0,1.65-.33,2.39,2.39,0,0,0,.55-.87,57.94,57.94,0,0,0,3.18-8.3c.25-.93.46-1.87.77-2.79a21,21,0,0,1,1.38-3c.49-.94.22-1.39-.39-2.22a6.9,6.9,0,0,0-1-1.05,1.11,1.11,0,0,1,0,.17c.2,2.21-1.27,4.22-1.71,6.4-.37,1.87,0,3.9-.79,5.63-.24.52-.58,1-.86,1.49-.41.73-.68,1.53-1.12,2.23A14.92,14.92,0,0,1,161.67,182.48Z"/><path class="cls-3" d="M150.62,183.14a3.08,3.08,0,0,0,.35-.44,1.66,1.66,0,0,0,.25-.45.6.6,0,0,0,0-.51,1,1,0,0,0-.53-.34l-.63-.23a.32.32,0,0,0-.17,0c-.08,0-.13.1-.17.17l-.63,1.06a1.74,1.74,0,0,0-.22.48C148.59,183.84,150.2,183.54,150.62,183.14Z"/><path class="cls-4" d="M165,148.26c-1.07,1.75-2.91,2.92-4,4.65-.91,1.44-1.27,3.24-2.45,4.47-.83.86-2,1.37-2.76,2.28a5.07,5.07,0,0,0-.73,4.63,14.15,14.15,0,0,0,2.34,4.25,4.56,4.56,0,0,0,5.26,2.57c3-.34,6.34-.94,8.29-3.29,1.18-1.42,1.66-3.27,2.39-5,1.74-4.08,4.92-7.33,7.57-10.87,2-2.7,3.83-6,3.24-9.28a4,4,0,0,0-.91-2,5.59,5.59,0,0,0-1.92-1.15c-2.76-1.19-7.5-3.62-10.49-1.8C167.35,139.83,166.94,145.09,165,148.26Z"/><path class="cls-12" d="M170.38,145.3a.81.81,0,0,0,.42-.12,2.26,2.26,0,0,1,1.71.23,15.62,15.62,0,0,1,3.68,2.31,3.88,3.88,0,0,0-2.2-2.61,10.29,10.29,0,0,0-3.43-.8c-.35-.32,0-1,.45-1.06a2,2,0,0,1,1.34.37.62.62,0,0,0-.52-.59.46.46,0,0,0,.11-.67,1.23,1.23,0,0,0-.66-.39,2,2,0,0,1,.72-.67c-.28.13-.56-.31-.39-.58a.8.8,0,0,1,.84-.26,4.85,4.85,0,0,0,.92.19,2.08,2.08,0,0,0-1-.67c-1.31-.39-2.72.65-4,.34-.2,0-.45-.11-.59,0a.55.55,0,0,0-.11.38c0,.84-.86,2.46-.22,3,.29.27.93.3,1.29.46C169.23,144.47,169.84,145.23,170.38,145.3Z"/><path class="cls-21" d="M122,82.2c-1-2.52-3.17-1.66-5.45-1.26-3,.51-5.86,1.28-8.83,1.86-4.87.93-10.2.74-14.44,3.59-2.06,1.38-4.27,3.66-3.23,6.24.9,2.21,1.43,4.49,2.34,6.69,1.4,3.35,2,7,3.37,10.38,2.2,5.6,3.11,11.35,4,17.3.94,6.64-1.13,13-1.83,19.52a28.67,28.67,0,0,0,1.61,13.86c2.12,5.11,6.2,8.06,11,10.48,9.37,4.71,19.52,5.39,29.68,3.25,9.57-2,20.07-5.84,24.32-15.48A27.5,27.5,0,0,0,166.6,146c-.26-6.18-1-12.33-1.82-18.46-.4-3-1.24-5.92-1.49-9a44.3,44.3,0,0,1,.28-9.56,75.16,75.16,0,0,1,3.55-14.09c1.75-5,0-8-.4-8.61-1.51-2.28-6.44-3.57-9-4-4.21-.75-8.39-1.78-12.7-1.52-3.39.21-4.38,3.25-6.84,5.15-3.88,3-10.42,3.36-14-.13-.91-.89-1.34-2.34-2.11-3.13"/><g class="cls-22"><polygon class="cls-23" points="76.81 70.29 81.09 75.66 77.39 81.44 73.11 76.07 76.81 70.29"/><polygon class="cls-23" points="84.79 69.88 89.06 75.26 85.36 81.04 81.09 75.66 84.79 69.88"/><polygon class="cls-23" points="92.76 69.48 97.03 74.85 93.33 80.63 89.06 75.26 92.76 69.48"/><polygon class="cls-23" points="100.73 69.07 105 74.44 101.3 80.22 97.03 74.85 100.73 69.07"/><polygon class="cls-23" points="108.7 68.66 112.97 74.03 109.27 79.81 105 74.44 108.7 68.66"/><polygon class="cls-23" points="116.67 68.25 120.95 73.63 117.25 79.41 112.97 74.03 116.67 68.25"/><polygon class="cls-23" points="124.65 67.84 128.92 73.22 125.22 79 120.95 73.63 124.65 67.84"/><polygon class="cls-23" points="77.39 81.44 81.66 86.81 77.96 92.59 73.69 87.22 77.39 81.44"/><polygon class="cls-23" points="85.36 81.04 89.63 86.41 85.93 92.19 81.66 86.81 85.36 81.04"/><polygon class="cls-23" points="93.33 80.63 97.6 86 93.9 91.78 89.63 86.41 93.33 80.63"/><polygon class="cls-23" points="101.3 80.22 105.57 85.59 101.87 91.37 97.6 86 101.3 80.22"/><polygon class="cls-23" points="109.27 79.81 113.55 85.19 109.84 90.97 105.57 85.59 109.27 79.81"/><polygon class="cls-23" points="117.25 79.41 121.52 84.78 117.82 90.56 113.55 85.19 117.25 79.41"/><polygon class="cls-23" points="125.22 79 129.49 84.37 125.79 90.15 121.52 84.78 125.22 79"/><polygon class="cls-23" points="77.96 92.59 82.23 97.97 78.53 103.75 74.25 98.38 77.96 92.59"/><polygon class="cls-23" points="85.93 92.19 90.2 97.56 86.5 103.34 82.23 97.97 85.93 92.19"/><polygon class="cls-23" points="93.9 91.78 98.17 97.15 94.47 102.93 90.2 97.56 93.9 91.78"/><polygon class="cls-23" points="101.87 91.37 106.14 96.75 102.44 102.52 98.17 97.15 101.87 91.37"/><polygon class="cls-23" points="109.84 90.97 114.11 96.34 110.41 102.12 106.14 96.75 109.84 90.97"/><polygon class="cls-23" points="117.82 90.56 122.09 95.93 118.39 101.71 114.11 96.34 117.82 90.56"/><polygon class="cls-23" points="125.79 90.15 130.06 95.52 126.36 101.3 122.09 95.93 125.79 90.15"/><polygon class="cls-23" points="78.53 103.75 82.8 109.12 79.1 114.9 74.83 109.53 78.53 103.75"/><polygon class="cls-23" points="86.5 103.34 90.77 108.71 87.07 114.49 82.8 109.12 86.5 103.34"/><polygon class="cls-23" points="94.47 102.93 98.74 108.3 95.04 114.08 90.77 108.71 94.47 102.93"/><polygon class="cls-23" points="102.44 102.52 106.71 107.9 103.01 113.68 98.74 108.3 102.44 102.52"/><polygon class="cls-23" points="110.41 102.12 114.69 107.49 110.98 113.27 106.71 107.9 110.41 102.12"/><polygon class="cls-23" points="118.39 101.71 122.66 107.08 118.96 112.86 114.69 107.49 118.39 101.71"/><polygon class="cls-23" points="126.36 101.3 130.63 106.67 126.93 112.45 122.66 107.08 126.36 101.3"/><polygon class="cls-23" points="79.1 114.9 83.37 120.27 79.67 126.05 75.39 120.68 79.1 114.9"/><polygon class="cls-23" points="87.07 114.49 91.34 119.86 87.64 125.64 83.37 120.27 87.07 114.49"/><polygon class="cls-23" points="95.04 114.08 99.31 119.46 95.61 125.24 91.34 119.86 95.04 114.08"/><polygon class="cls-23" points="103.01 113.68 107.28 119.05 103.58 124.83 99.31 119.46 103.01 113.68"/><polygon class="cls-23" points="110.98 113.27 115.25 118.64 111.55 124.42 107.28 119.05 110.98 113.27"/><polygon class="cls-23" points="118.96 112.86 123.23 118.23 119.53 124.01 115.25 118.64 118.96 112.86"/><polygon class="cls-23" points="126.93 112.45 131.2 117.83 127.5 123.61 123.23 118.23 126.93 112.45"/><polygon class="cls-23" points="132.54 67.48 136.81 72.85 133.11 78.63 128.84 73.26 132.54 67.48"/><polygon class="cls-23" points="140.51 67.07 144.79 72.44 141.09 78.22 136.81 72.85 140.51 67.07"/><polygon class="cls-23" points="148.49 66.67 152.76 72.04 149.06 77.82 144.79 72.44 148.49 66.67"/><polygon class="cls-23" points="156.46 66.26 160.73 71.63 157.03 77.41 152.76 72.04 156.46 66.26"/><polygon class="cls-23" points="164.43 65.85 168.7 71.22 165 77 160.73 71.63 164.43 65.85"/><polygon class="cls-23" points="172.4 65.44 176.67 70.81 172.97 76.59 168.7 71.22 172.4 65.44"/><polygon class="cls-23" points="180.38 65.03 184.65 70.41 180.94 76.19 176.67 70.81 180.38 65.03"/><polygon class="cls-23" points="133.11 78.63 137.38 84 133.68 89.78 129.41 84.41 133.11 78.63"/><polygon class="cls-23" points="141.09 78.22 145.36 83.6 141.66 89.38 137.38 84 141.09 78.22"/><polygon class="cls-23" points="149.06 77.82 153.33 83.19 149.63 88.97 145.36 83.6 149.06 77.82"/><polygon class="cls-23" points="157.03 77.41 161.3 82.78 157.6 88.56 153.33 83.19 157.03 77.41"/><polygon class="cls-23" points="165 77 169.27 82.37 165.57 88.15 161.3 82.78 165 77"/><polygon class="cls-23" points="172.97 76.59 177.24 81.97 173.54 87.75 169.27 82.37 172.97 76.59"/><polygon class="cls-23" points="180.94 76.19 185.22 81.56 181.51 87.34 177.24 81.97 180.94 76.19"/><polygon class="cls-23" points="133.68 89.78 137.95 95.16 134.25 100.94 129.98 95.56 133.68 89.78"/><polygon class="cls-23" points="141.66 89.38 145.93 94.75 142.23 100.53 137.95 95.16 141.66 89.38"/><polygon class="cls-23" points="149.63 88.97 153.9 94.34 150.2 100.12 145.93 94.75 149.63 88.97"/><polygon class="cls-23" points="157.6 88.56 161.87 93.93 158.17 99.71 153.9 94.34 157.6 88.56"/><polygon class="cls-23" points="165.57 88.15 169.84 93.53 166.14 99.31 161.87 93.93 165.57 88.15"/><polygon class="cls-23" points="173.54 87.75 177.81 93.12 174.11 98.9 169.84 93.53 173.54 87.75"/><polygon class="cls-23" points="181.51 87.34 185.79 92.71 182.09 98.49 177.81 93.12 181.51 87.34"/><polygon class="cls-23" points="134.25 100.94 138.53 106.31 134.82 112.09 130.55 106.72 134.25 100.94"/><polygon class="cls-23" points="142.23 100.53 146.5 105.9 142.8 111.68 138.53 106.31 142.23 100.53"/><polygon class="cls-23" points="150.2 100.12 154.47 105.49 150.77 111.27 146.5 105.9 150.2 100.12"/><polygon class="cls-23" points="158.17 99.71 162.44 105.09 158.74 110.86 154.47 105.49 158.17 99.71"/><polygon class="cls-23" points="166.14 99.31 170.41 104.68 166.71 110.46 162.44 105.09 166.14 99.31"/><polygon class="cls-23" points="174.11 98.9 178.38 104.27 174.68 110.05 170.41 104.68 174.11 98.9"/><polygon class="cls-23" points="182.09 98.49 186.36 103.86 182.66 109.64 178.38 104.27 182.09 98.49"/><polygon class="cls-23" points="134.82 112.09 139.09 117.46 135.39 123.24 131.12 117.87 134.82 112.09"/><polygon class="cls-23" points="142.8 111.68 147.07 117.05 143.37 122.83 139.09 117.46 142.8 111.68"/><polygon class="cls-23" points="150.77 111.27 155.04 116.64 151.34 122.42 147.07 117.05 150.77 111.27"/><polygon class="cls-23" points="158.74 110.86 163.01 116.24 159.31 122.02 155.04 116.64 158.74 110.86"/><polygon class="cls-23" points="166.71 110.46 170.98 115.83 167.28 121.61 163.01 116.24 166.71 110.46"/><polygon class="cls-23" points="174.68 110.05 178.96 115.42 175.25 121.2 170.98 115.83 174.68 110.05"/><polygon class="cls-23" points="182.66 109.64 186.93 115.02 183.23 120.8 178.96 115.42 182.66 109.64"/><polygon class="cls-23" points="79.64 125.78 83.92 131.15 80.21 136.93 75.94 131.56 79.64 125.78"/><polygon class="cls-23" points="87.62 125.37 91.89 130.74 88.19 136.52 83.92 131.15 87.62 125.37"/><polygon class="cls-23" points="95.59 124.96 99.86 130.33 96.16 136.11 91.89 130.74 95.59 124.96"/><polygon class="cls-23" points="103.56 124.55 107.83 129.92 104.13 135.7 99.86 130.33 103.56 124.55"/><polygon class="cls-23" points="111.53 124.14 115.8 129.52 112.1 135.3 107.83 129.92 111.53 124.14"/><polygon class="cls-23" points="119.5 123.74 123.78 129.11 120.07 134.89 115.8 129.52 119.5 123.74"/><polygon class="cls-23" points="127.48 123.33 131.75 128.7 128.05 134.48 123.78 129.11 127.48 123.33"/><polygon class="cls-23" points="80.21 136.93 84.48 142.3 80.78 148.08 76.51 142.71 80.21 136.93"/><polygon class="cls-23" points="88.19 136.52 92.46 141.89 88.76 147.67 84.48 142.3 88.19 136.52"/><polygon class="cls-23" points="96.16 136.11 100.43 141.48 96.73 147.26 92.46 141.89 96.16 136.11"/><polygon class="cls-23" points="104.13 135.7 108.4 141.08 104.7 146.86 100.43 141.48 104.13 135.7"/><polygon class="cls-23" points="112.1 135.3 116.37 140.67 112.67 146.45 108.4 141.08 112.1 135.3"/><polygon class="cls-23" points="120.07 134.89 124.35 140.26 120.64 146.04 116.37 140.67 120.07 134.89"/><polygon class="cls-23" points="128.05 134.48 132.32 139.85 128.62 145.63 124.35 140.26 128.05 134.48"/><polygon class="cls-23" points="80.78 148.08 85.06 153.45 81.36 159.23 77.08 153.86 80.78 148.08"/><polygon class="cls-23" points="88.76 147.67 93.03 153.04 89.33 158.82 85.06 153.45 88.76 147.67"/><polygon class="cls-23" points="96.73 147.26 101 152.64 97.3 158.42 93.03 153.04 96.73 147.26"/><polygon class="cls-23" points="104.7 146.86 108.97 152.23 105.27 158.01 101 152.64 104.7 146.86"/><polygon class="cls-23" points="112.67 146.45 116.94 151.82 113.24 157.6 108.97 152.23 112.67 146.45"/><polygon class="cls-23" points="120.64 146.04 124.92 151.41 121.22 157.19 116.94 151.82 120.64 146.04"/><polygon class="cls-23" points="128.62 145.63 132.89 151.01 129.19 156.79 124.92 151.41 128.62 145.63"/><polygon class="cls-23" points="81.36 159.23 85.63 164.6 81.92 170.38 77.65 165.01 81.36 159.23"/><polygon class="cls-23" points="89.33 158.82 93.6 164.2 89.9 169.98 85.63 164.6 89.33 158.82"/><polygon class="cls-23" points="97.3 158.42 101.57 163.79 97.87 169.57 93.6 164.2 97.3 158.42"/><polygon class="cls-23" points="105.27 158.01 109.54 163.38 105.84 169.16 101.57 163.79 105.27 158.01"/><polygon class="cls-23" points="113.24 157.6 117.51 162.97 113.81 168.75 109.54 163.38 113.24 157.6"/><polygon class="cls-23" points="121.22 157.19 125.49 162.56 121.78 168.34 117.51 162.97 121.22 157.19"/><polygon class="cls-23" points="129.19 156.79 133.46 162.16 129.76 167.94 125.49 162.56 129.19 156.79"/><polygon class="cls-23" points="81.92 170.38 86.2 175.75 82.5 181.53 78.22 176.16 81.92 170.38"/><polygon class="cls-23" points="89.9 169.98 94.17 175.35 90.47 181.13 86.2 175.75 89.9 169.98"/><polygon class="cls-23" points="97.87 169.57 102.14 174.94 98.44 180.72 94.17 175.35 97.87 169.57"/><polygon class="cls-23" points="105.84 169.16 110.11 174.53 106.41 180.31 102.14 174.94 105.84 169.16"/><polygon class="cls-23" points="113.81 168.75 118.08 174.13 114.38 179.91 110.11 174.53 113.81 168.75"/><polygon class="cls-23" points="121.78 168.34 126.06 173.72 122.36 179.5 118.08 174.13 121.78 168.34"/><polygon class="cls-23" points="129.76 167.94 134.03 173.31 130.33 179.09 126.06 173.72 129.76 167.94"/><polygon class="cls-23" points="135.37 122.96 139.64 128.34 135.94 134.12 131.67 128.74 135.37 122.96"/><polygon class="cls-23" points="143.34 122.56 147.62 127.93 143.91 133.71 139.64 128.34 143.34 122.56"/><polygon class="cls-23" points="151.32 122.15 155.59 127.52 151.89 133.3 147.62 127.93 151.32 122.15"/><polygon class="cls-23" points="159.29 121.74 163.56 127.11 159.86 132.89 155.59 127.52 159.29 121.74"/><polygon class="cls-23" points="167.26 121.33 171.53 126.71 167.83 132.49 163.56 127.11 167.26 121.33"/><polygon class="cls-23" points="175.23 120.93 179.5 126.3 175.8 132.08 171.53 126.71 175.23 120.93"/><polygon class="cls-23" points="183.2 120.52 187.47 125.89 183.77 131.67 179.5 126.3 183.2 120.52"/><polygon class="cls-23" points="135.94 134.12 140.21 139.49 136.51 145.27 132.24 139.9 135.94 134.12"/><polygon class="cls-23" points="143.91 133.71 148.19 139.08 144.48 144.86 140.21 139.49 143.91 133.71"/><polygon class="cls-23" points="151.89 133.3 156.16 138.67 152.46 144.45 148.19 139.08 151.89 133.3"/><polygon class="cls-23" points="159.86 132.89 164.13 138.26 160.43 144.04 156.16 138.67 159.86 132.89"/><polygon class="cls-23" points="167.83 132.49 172.1 137.86 168.4 143.64 164.13 138.26 167.83 132.49"/><polygon class="cls-23" points="175.8 132.08 180.07 137.45 176.37 143.23 172.1 137.86 175.8 132.08"/><polygon class="cls-23" points="183.77 131.67 188.04 137.04 184.34 142.82 180.07 137.45 183.77 131.67"/><polygon class="cls-23" points="136.51 145.27 140.78 150.64 137.08 156.42 132.81 151.05 136.51 145.27"/><polygon class="cls-23" points="144.48 144.86 148.75 150.23 145.06 156.01 140.78 150.64 144.48 144.86"/><polygon class="cls-23" points="152.46 144.45 156.73 149.82 153.03 155.6 148.75 150.23 152.46 144.45"/><polygon class="cls-23" points="160.43 144.04 164.7 149.42 161 155.2 156.73 149.82 160.43 144.04"/><polygon class="cls-23" points="168.4 143.64 172.67 149.01 168.97 154.79 164.7 149.42 168.4 143.64"/><polygon class="cls-23" points="176.37 143.23 180.64 148.6 176.94 154.38 172.67 149.01 176.37 143.23"/><polygon class="cls-23" points="184.34 142.82 188.62 148.19 184.91 153.97 180.64 148.6 184.34 142.82"/><polygon class="cls-23" points="137.08 156.42 141.35 161.79 137.65 167.57 133.38 162.2 137.08 156.42"/><polygon class="cls-23" points="145.06 156.01 149.33 161.38 145.63 167.16 141.35 161.79 145.06 156.01"/><polygon class="cls-23" points="153.03 155.6 157.3 160.98 153.6 166.76 149.33 161.38 153.03 155.6"/><polygon class="cls-23" points="161 155.2 165.27 160.57 161.57 166.35 157.3 160.98 161 155.2"/><polygon class="cls-23" points="168.97 154.79 173.24 160.16 169.54 165.94 165.27 160.57 168.97 154.79"/><polygon class="cls-23" points="176.94 154.38 181.21 159.75 177.51 165.53 173.24 160.16 176.94 154.38"/><polygon class="cls-23" points="184.91 153.97 189.19 159.35 185.49 165.13 181.21 159.75 184.91 153.97"/><polygon class="cls-23" points="137.65 167.57 141.92 172.94 138.22 178.72 133.95 173.35 137.65 167.57"/><polygon class="cls-23" points="145.63 167.16 149.9 172.54 146.19 178.32 141.92 172.94 145.63 167.16"/><polygon class="cls-23" points="153.6 166.76 157.87 172.13 154.17 177.91 149.9 172.54 153.6 166.76"/><polygon class="cls-23" points="161.57 166.35 165.84 171.72 162.14 177.5 157.87 172.13 161.57 166.35"/><polygon class="cls-23" points="169.54 165.94 173.81 171.31 170.11 177.09 165.84 171.72 169.54 165.94"/><polygon class="cls-23" points="177.51 165.53 181.78 170.91 178.08 176.69 173.81 171.31 177.51 165.53"/><polygon class="cls-23" points="185.49 165.13 189.76 170.5 186.06 176.28 181.78 170.91 185.49 165.13"/></g><path class="cls-24" d="M121.74,81.36a9.94,9.94,0,0,0,5.36,6.13,10.88,10.88,0,0,0,8.54-.23,13,13,0,0,0,5.49-4.37"/><path class="cls-18" d="M146.5,76.68c.22.21-.14.62-.43.52a.88.88,0,0,1-.5-.73,7.08,7.08,0,0,1,.06-2.34,32.47,32.47,0,0,0,.57-5.89,11,11,0,0,0-.46-2.9A5.09,5.09,0,0,0,144.47,63a15,15,0,0,1-.95,9.59,6.78,6.78,0,0,1-2,2.86,2.87,2.87,0,0,1-3.3.21A11.32,11.32,0,0,0,137,74.56a2.68,2.68,0,0,0-2.74.53,9.27,9.27,0,0,1-2.41,1.66,4.59,4.59,0,0,1-1.92.14c-2.55-.25-5.23-1.62-6-4.06-.19-.58-.27-1.19-.44-1.78a11.06,11.06,0,0,0-1.2-2.47c-1.17-2-2.21-3.84-3.46-5.75a6.43,6.43,0,0,1,1.29-7.17A11,11,0,0,1,122.45,54a44.93,44.93,0,0,1,9.38-3.88,14.84,14.84,0,0,1,3-.21,14.54,14.54,0,0,1,2.72,0,33.1,33.1,0,0,1,3.69.64,3.21,3.21,0,0,1,1.28.52,2.43,2.43,0,0,1,.74,1.12c.48,1.41.61,3,1,4.25.28-2.59-.45-6.09-2.24-8a11.35,11.35,0,0,0-4.77-2.78c-3.37-1.17-7.15-1.76-10.48-.48a20.42,20.42,0,0,0-5.15,3.32,14.1,14.1,0,0,0-2.32,2.18,12.63,12.63,0,0,0-1.52,2.8c-.94,2.23-1.9,1.62-2.71,3.91,0,.16,0,3.23.09,3.39s.42.39.69.49c1,.36,2.94,2,1.92,8.24a13.32,13.32,0,0,0-.11,4.75,6.48,6.48,0,0,0,2.37,4,4.06,4.06,0,0,1,1,.84.92.92,0,0,1,0,1.19c-.32.29-1,0-.86-.44a.67.67,0,0,0-.16,1,1.3,1.3,0,0,0,1.18.26c.41-.08.79-.26,1.2-.35a4.57,4.57,0,0,1,2.78.56c2.47,1.15,4.69,2.89,7.34,3.51a14.33,14.33,0,0,0,5.06.11,7,7,0,0,0,3.25-1.06c1.32-1,1.95-2.64,3.26-3.61,1-.79,2.61-1.21,2.93-2.48C147.13,77.39,147,76.79,146.5,76.68Z"/><path class="cls-25" d="M128.23,38l-3.93.77A13.06,13.06,0,0,0,114,54.09l.8,4.1,6.25-.47a76.76,76.76,0,0,0,18.37-3.67l4.94-1.64-.8-4.1A13.06,13.06,0,0,0,128.23,38Z"/><path class="cls-26" d="M126.27,38.39a26.87,26.87,0,0,1,3,12.37"/><path class="cls-26" d="M113.86,52.91c.15,0,15.46-.85,29.3-6.12"/><path d="M126.51,38.21a1.74,1.74,0,0,0-1-.39,4,4,0,0,0-1.29.19,6.48,6.48,0,0,0-2,1.11c-1.25,1-2.2,2.28-3.35,3.37-.22.21.11.54.33.33,1-1,1.88-2.11,3-3A6.55,6.55,0,0,1,124,38.6a4.08,4.08,0,0,1,1.19-.3,1.64,1.64,0,0,1,.66,0,2.44,2.44,0,0,1,.43.28c.25.17.48-.23.23-.4Z"/><path d="M119,42.43a1.54,1.54,0,0,0-.17.45,4.5,4.5,0,0,1-.16.48c-.13.33-.29.64-.45,1a.24.24,0,0,0,.09.32.22.22,0,0,0,.31-.09c.17-.33.33-.66.47-1a4.84,4.84,0,0,0,.18-.49,1.49,1.49,0,0,1,.13-.39c.16-.26-.25-.49-.4-.24Z"/><path d="M119,42.36a3,3,0,0,0-.67.7l-.26.37-.13.18s0,.06,0,0l0,0-.08.09a.23.23,0,0,0,.33.33,7.77,7.77,0,0,0,.54-.74l.07-.08,0-.05s0,0,0,0l.13-.17.16-.16.08-.07,0,0s0,0,0,0a.23.23,0,0,0,.09-.31.24.24,0,0,0-.32-.09Z"/><path d="M119,42.35a4.55,4.55,0,0,0-1.48.92.23.23,0,0,0,.33.33l.14-.12.08-.07,0,0h0l.33-.23.34-.19.19-.09h0l.1,0a.24.24,0,0,0,.16-.28.24.24,0,0,0-.29-.17Z"/><path class="cls-27" d="M116.27,47c-.06.43-.12.85-.15,1.28"/><path class="cls-27" d="M116.82,47.55a5.63,5.63,0,0,1-.11,1.23"/><path class="cls-27" d="M116.09,49.38v.2"/><path class="cls-27" d="M117.61,47.69l-.06.24"/><path class="cls-27" d="M117,45l-.09,1"/><path class="cls-27" d="M116.33,50.51l0,.91"/></svg>