<svg id="Layer_1" data-name="Layer 1" xmlns="http://www.w3.org/2000/svg" xmlns:xlink="http://www.w3.org/1999/xlink" viewBox="0 0 331 438"><defs><style>.cls-1,.cls-14,.cls-19,.cls-21,.cls-22{fill:none;}.cls-2{clip-path:url(#clip-path);}.cls-3{fill:#7541ee;}.cls-4{fill:#fff;}.cls-5{fill:#d2d3c7;}.cls-6{fill:#a5a69c;}.cls-7{fill:#f9efde;}.cls-8{fill:#dbd3b4;}.cls-12,.cls-15,.cls-8{opacity:0.59;}.cls-9{fill:#240e05;}.cls-10{opacity:0.46;}.cls-11,.cls-15{fill:#ccc5a3;}.cls-13{fill:#9e4a26;}.cls-14{stroke:#240e05;stroke-width:0.96px;}.cls-14,.cls-19{stroke-linecap:round;}.cls-14,.cls-19,.cls-20,.cls-21,.cls-22{stroke-miterlimit:10;}.cls-16{fill:#28110c;}.cls-17{clip-path:url(#clip-path-2);}.cls-18{fill:#87726f;}.cls-19{stroke:#fff;stroke-width:1.4px;}.cls-20{fill:#d3d3c5;stroke-width:0.98px;}.cls-20,.cls-21{stroke:#000;}.cls-21{stroke-width:1.47px;}.cls-22{stroke:#ababa0;stroke-width:0.88px;}.cls-23{clip-path:url(#clip-path-3);}.cls-24{fill:#1a293f;}</style><clipPath id="clip-path"><rect class="cls-1" width="331" height="438"/></clipPath><clipPath id="clip-path-2"><path class="cls-1" d="M133.46,213c-3.25-7.91-10-5.22-17.17-4-9.36,1.63-18.45,4.06-27.8,5.86-15.31,2.95-32.1,2.34-45.45,11.3-6.46,4.34-13.45,11.54-10.14,19.67,2.82,6.95,4.49,14.13,7.36,21,4.39,10.57,6.42,22,10.61,32.67,6.92,17.65,9.78,35.74,12.43,54.47,3,20.9-3.55,40.81-5.77,61.44C56,429.81,57,445.59,62.59,459.08c6.69,16.07,19.53,25.37,34.64,33,29.49,14.84,61.43,17,93.43,10.24,30.13-6.34,63.16-18.4,76.56-48.73,5.7-12.88,7.18-25.93,6.58-39.93-.82-19.43-3.18-38.81-5.74-58.08-1.27-9.6-3.91-18.65-4.7-28.35a139,139,0,0,1,.9-30.1c2.1-15.12,6.19-29.93,11.17-44.35,5.49-15.88-.09-25.29-1.28-27.09-4.73-7.17-20.25-11.26-28.38-12.7-13.26-2.35-26.39-5.61-40-4.78-10.69.65-13.8,10.23-21.52,16.21-12.23,9.47-32.82,10.58-44.17-.4-2.89-2.79-4.24-7.39-6.65-9.84"/></clipPath><clipPath id="clip-path-3"><rect class="cls-1" x="-407.6" width="331" height="438"/></clipPath></defs><g class="cls-2"><rect class="cls-3" width="331" height="438"/><path class="cls-4" d="M331.9,392.87c-8.85-20.39-10.2-43.11-14.83-64.85-2.83-13.25-6.89-26.2-10.95-39.12-5.35-17-10.75-34.19-19.4-49.8-2.24-4-5.17-8.32-9.69-9.3a8.94,8.94,0,0,0-.89-.09,20.44,20.44,0,0,0-2-4.05c-4.73-7.18-20.25-11.26-28.38-12.7-13.26-2.35-26.39-5.61-40-4.78a15.58,15.58,0,0,0-5.4,1.28,16.82,16.82,0,0,1,2.52-2.4c3.33-2.46,8.22-3.78,9.23-7.79.36-1.45-.19-3.34-1.64-3.68.71.67-.42,1.94-1.36,1.65a2.82,2.82,0,0,1-1.57-2.33,21.58,21.58,0,0,1,.21-7.34c.9-6.16,2-12.34,1.79-18.56a35,35,0,0,0-1.47-9.13c-.54-1.75-1.81-5.84-4-7.4a10.2,10.2,0,0,1-2.9-5.1c0-.25,0-.46,0-.69a.84.84,0,0,0,0-.8,7.23,7.23,0,0,1,2.6-5.45,2.38,2.38,0,0,0,.5-.7c.55.41,1-.65.34-1.21a6.45,6.45,0,0,0-.29-2.42l-.76-4.09a38.6,38.6,0,0,0-.88-12.46l1.07-.36-2.53-12.92a41.59,41.59,0,0,0-1.26-4.76h0a41.09,41.09,0,0,0-47-27.69l-6,1.17a3.53,3.53,0,0,0-1.71-.91,11.37,11.37,0,0,0-5.67.86A20.4,20.4,0,0,0,134.44,78a41.09,41.09,0,0,0-26.25,46.46l2.52,12.92.92-.07c0,.19,0,.4,0,.61h-2.31a3.58,3.58,0,0,0-3.49,2.76l-1.51,6.4a1.29,1.29,0,0,0,0,.19.43.43,0,0,1,0,.05c-.36,1.73.07,2.69.75,4.32l4.61,9.62a.89.89,0,0,1,.06.2l2.53,13.3a7.13,7.13,0,0,0,2.67,4l3.76,2.81a1.29,1.29,0,0,0,.68.28,30.49,30.49,0,0,0,.48,6.1c1,4.91,3.44,9.66,7.47,12.62a13.2,13.2,0,0,1,3.15,2.64c.8,1.13,1,2.86-.06,3.77s-3.14-.07-2.72-1.38a1.78,1.78,0,0,0-1,2c-3.05-.25-6.64.77-10.36,1.41-9.36,1.63-18.45,4.06-27.8,5.86-15.31,2.95-32.1,2.34-45.45,11.3-6.07,4.08-12.6,10.68-10.63,18.21-2.78,2.21-4.46,5.85-5.71,9.3-6.07,16.77-8.7,34.57-11.3,52.23-2,13.4-3.94,26.83-4.63,40.36-1.15,22.2,1.1,44.85-4.42,66.38-1.16,4.52-2.54,9.73.21,13.5.81,1.12,1.93,2,2.69,3.14,2.21,3.33,1.06,8.28,3.78,11.2a5.79,5.79,0,0,0,3.28,1.71,64.8,64.8,0,0,0,5.75,14.42c6.51,12.34,14.79,24,18.2,37.53,1.43,5.63,2,11.61,5,16.61,4,6.76,11.44,10.3,19.09,12.77q2.22,4.07,4.51,8.09c.25.44.51.88.8,1.29l-.16,0a2.73,2.73,0,0,0-1.16.41,1.62,1.62,0,0,0-.18.19.74.74,0,0,0-.12.13v0a1.27,1.27,0,0,0-.18.37h0a.93.93,0,0,0,.11.78,1.38,1.38,0,0,0,.34.3,2,2,0,0,1,.53.48c.18.23.1.68.06,1.08a1.45,1.45,0,0,0,0,.64c.06.11.17.17.26.26a1.61,1.61,0,0,0,.58.35,2.83,2.83,0,0,0,.41.14c0,4.21,0,8.42.09,12.61l.6,41.19c.07,4.47.15,9,1.28,13.33.59,2.25.09,19.62-.14,39.69H173.33c.31-16.43.52-30.86,1.31-32.67,4.34,11,6.88,21.9,9.25,32.67H287.68c-7.16-40.55-16.24-93.52-16.88-96.4l-3.75-17.06h0a.82.82,0,0,0,.49-.83,13.17,13.17,0,0,1-1-4.24c.22-.41.43-.84.62-1.27,3.78-8.54,7.57-17.12,10-26.13.79-2.93,1.44-5.9,2.42-8.77.26-.75.61-1.47.91-2.2a22.52,22.52,0,0,0,7-5.49c3.7-4.47,5.22-10.29,7.51-15.62,5.49-12.83,15.49-23.06,23.85-34.23a76.2,76.2,0,0,0,5.61-8.61,6.46,6.46,0,0,0,5.24-2.61c2.22-3.31.31-8,2-11.65.57-1.26,1.54-2.3,2.17-3.53C336,402.09,333.76,397.15,331.9,392.87ZM61.81,385.55a23.83,23.83,0,0,1,1-3.91c-.36,2.69-.79,5.39-1.24,8.08A26.39,26.39,0,0,1,61.81,385.55ZM243,482.07l.14.21-1,.4Zm34.46-86a1.74,1.74,0,0,0-.34,1.23c-.06,1.8-1.27,4.72-1.41,7-.72,1.89-1.4,3.8-2.08,5.68-.73-13.87-2.15-27.72-3.87-41.51a30.12,30.12,0,0,1,3.16,6.48c1.54,4.83,1.07,10.18,2.94,14.89.57,1.44,1.35,2.78,1.88,4.23a12.48,12.48,0,0,1,.47,1.74A1.07,1.07,0,0,0,277.41,396ZM133.2,210.37l-.61,0c.13.43.31.85.46,1.29,0,.13,0,.26,0,.39a9.3,9.3,0,0,0-1.68-2.41c.69-.18,1.37-.38,2-.6Z"/><path class="cls-4" d="M199.18,625.56h65.48c-2.22-12.7-4.45-25.51-6.41-36.81-3.06-17.6-5.95-34.23-6.36-36.25l-2.51-11.39-1.67-1.67v-8c-.23-1.22-.36-2.31-.45-3.21l-.58-5.93,2.84-5.23a205.3,205.3,0,0,0,7.91-19.68l-8.5,3.33-157,59.76,140-94.29,15.87-11.08,9.54,13.71-3-57.91c-.62-11.87-1.81-24.62-3.74-40.13l-11.14-89.44,46.84,77A49.54,49.54,0,0,1,291.29,369a54,54,0,0,1,2,10.45c.15,1.18.34,2.8.5,3.33,0,.07.17.33.3.61.61,1.27,1.2,2.56,1.69,3.89a33.37,33.37,0,0,1,1.24,4.35l5,22.92-9.66.21c-.12.33-.23.66-.35,1L272.3,470.38a1.83,1.83,0,0,0,.32-.25c.69-.82,1.82-3.78,2.64-5.94.63-1.66,1.27-3.31,2-4.93,5.06-11.85,12.8-21.45,19.63-29.93,2.21-2.73,4.41-5.47,6.51-8.27a57.29,57.29,0,0,0,4.19-6.41l5.2-9.37a25,25,0,0,1,1.31-3.53c.1-.23.21-.46.32-.67l-.16-.37-.06-.14c-7.11-16.38-9.88-33.16-12.56-49.39-1.09-6.66-2.13-13-3.45-19.13-2.64-12.4-6.63-25.09-10.49-37.36-5-15.86-10.12-32.25-17.86-46.22a0,0,0,0,1,0,0l-7.69-.89L258.22,237c-2.49-1.46-8.56-3.69-15.83-5q-3.75-.67-7.5-1.4c-9.68-1.84-18.84-3.57-27.37-3.15l-60,26.36-2.8,23.81-9.4-18.45-6.58,2.89,5.09-5.82-14.38-28.19c-4.69.82-9.41,1.88-14.4,3-4.29,1-8.59,1.93-12.94,2.76-4.78.92-9.45,1.51-14,2.08-9.9,1.25-18.45,2.32-24.35,6.29-.66.45-1.21.86-1.66,1.23l2.16,8.24-8.8,7c-.16.34-.36.84-.63,1.59-5.44,15-7.94,32-10.36,48.47-2,13.38-3.81,25.95-4.46,38.55-.32,6.29-.36,12.66-.39,19.42-.08,16.44-.17,33.46-4.61,50.76,0,.17-.09.35-.13.54.14.2.28.4.42.62a26.82,26.82,0,0,1,3,6l3.74.65,3,12.31a45.7,45.7,0,0,0,4.07,10c1.64,3.1,3.39,6.14,5.14,9.19C49.71,466.2,55.85,476.9,59,489.39c.43,1.7.8,3.43,1.16,5.16.48,2.27,1.13,5.37,1.7,6.32.11.19,1.32,1.95,8.4,4.24l7.32,2.36,3.7,6.75c1.23,2.25,2.48,4.5,3.74,6.73l4.64.77-.06,5.89,13.65,19.27-13.7,2.28v.34l.62,42.09a43.69,43.69,0,0,0,.65,8.74c1,3.65,1,6.89.77,25.23h62.79c.38-14.11.87-17.27,2.53-21.07l18.63-42.71,17.07,43.36A177.14,177.14,0,0,1,199.18,625.56ZM53.41,610s0,0,0,.06S53.41,610.05,53.41,610Zm9.42-54,.24.08Zm173.22-69.12-9.15,6Zm60.34-89.07v0Zm-144-184.94-3,25.65,35.53-40.68L145.34,160l44.93,10.83c0-.39,0-.78,0-1.16a15.76,15.76,0,0,0-.61-4c0-.14-.1-.34-.17-.55a29,29,0,0,1-7-13l-.77-1.38.1-4.44-.18-3.4.53-1.14a26.12,26.12,0,0,1,2.21-7.11l-.35-1.88.31-2.83a19.46,19.46,0,0,0-.5-6l-3.95-17.18,1.27-.42a21.75,21.75,0,0,0-24.45-13.49L143,95.5l-1.91.69a21.6,21.6,0,0,0-14.31,20.62l4.22-.32v21.16l.29,19.62h-2.68l1.22,6.42,9,1.15-.15,16.48,19.45-6.75-2.25,6.9,1-.31Zm-1.48-8.74,0,.06S150.9,204.14,150.89,204.12Zm38.25-40Zm-62.69-.85Zm74.49-62.06h0l2.31-.75ZM80.63,392.9l-38.39-3a44.77,44.77,0,0,1,.45-7.2v0a41.52,41.52,0,0,1,1.75-7.09L82,384.23C81.57,387.13,81.12,390,80.63,392.9Z"/><path class="cls-4" d="M59.38,657.37l.14-12.62c0-5,.12-9.83.19-14.3l0-1.73c.12-8.43.25-17.15.13-20.5V608l-5.64,1.75,5.57-2.16.06.16v-.18l-.14-.62a71.87,71.87,0,0,1-1.34-14.9L57.75,550c0-2,0-4-.07-5.92v-1.17l-.61-1.7-.16-.46-.22-.43a12.54,12.54,0,0,1-1.14-3.39l-.65-3.43L51.73,532c-7.85-3.7-13.49-8.57-17.23-14.89-3.24-5.47-4.42-11.05-5.45-16l-.08-.37c-.26-1.2-.51-2.39-.81-3.57-2.08-8.24-6.62-16.16-11.44-24.56l-.16-.27c-1.84-3.21-3.74-6.53-5.54-9.94a89.19,89.19,0,0,1-4.57-10l-.56-1.5L4.72,449.8c-.28-.27-.56-.55-.82-.84A21.36,21.36,0,0,1-1.26,437.7l-.31-1.79-1.16-1.4c-.26-.32-.54-.67-.82-1.06C-9.71,425-7.16,415-5.78,409.66c3.5-13.65,3.57-28,3.65-43.17,0-6.81.07-13.85.43-20.89.73-14.14,2.77-28,4.74-41.46C5.7,286.08,8.44,267.42,15,249.4a42.94,42.94,0,0,1,3.77-8.05l.78-1.28.19-1.48c1.05-8.43,6.71-16.32,16.37-22.81,12.17-8.18,25.35-9.84,38.1-11.44,4.21-.53,8.18-1,11.95-1.76,3.94-.76,7.84-1.63,11.61-2.48l4.73-1.06,6.76-1.5-1.57-6.76-.46-2-1.52-1.43a19.65,19.65,0,0,1-5.53-9.38L100,177l-2.23-11.7-4.29-9a18.71,18.71,0,0,1-1.67-9.57l0-.33v-.9l.42-1.41,1.47-6.24a16.13,16.13,0,0,1,1.78-4.46l1.3-2.23-.83-4.27a53,53,0,0,1,31.78-59.61l.63-.27.57-.38a30.07,30.07,0,0,1,6.26-3.3,25.58,25.58,0,0,1,9-1.8,18.87,18.87,0,0,1,3,.24l1.21.25,2.15-.42a54.25,54.25,0,0,1,10.31-1,53.36,53.36,0,0,1,50.93,37.11,52.45,52.45,0,0,1,1.63,6.2l4.64,23.72-2.54.84,1.18,5.93c.08.43.16.9.22,1.39l0,.29.06.3a13.5,13.5,0,0,1-.39,7.22l-1,2.84,1.44,2.63a40.12,40.12,0,0,1,2.87,7.14,46.76,46.76,0,0,1,2,12.4,89.65,89.65,0,0,1-1.18,15.92l-.39,2.63,1.5,2.2c.17.25.34.51.5.78a15.63,15.63,0,0,1,1.29,2.7l1.38,3.79,4,.63c4,.64,7.91,1.39,11.71,2.11l.18,0c2.31.44,4.62.88,6.94,1.29,17.66,3.13,30.55,9.4,36.3,17.64l.83,1.19,1.24.76c6.35,3.83,9.83,10.11,11.32,12.79,9.29,16.77,14.93,34.71,20.37,52.06l.06.16c4.06,12.94,8.26,26.32,11.2,40.15,1.48,6.93,2.63,13.87,3.73,20.58,2.07,12.52,4,24.46,7.87,35.51l-11.7,5.08,5.41,12.58,11.26-4.78c1.52,5,2.29,11.28-.89,17.52q-.31.61-.63,1.14l-.93,1.57,0,1.83a21,21,0,0,1-3.31,11.93A17.84,17.84,0,0,1,334,434l-1.42.8-.91,1.35c-.89,1.34-1.84,2.68-2.82,4-2.39,3.2-4.95,6.37-7.2,9.17-6.1,7.57-11.83,14.68-15.17,22.49-.48,1.11-.91,2.25-1.35,3.39l-.14.37c-1.8,4.71-3.83,10-7.88,14.91a32.4,32.4,0,0,1-4.65,4.56l-1.8,1.44-.73,2.93c-.24.93-.49,1.9-.75,2.86a164.33,164.33,0,0,1-8.7,23.49l-.74,1.69.21,1.82a13.07,13.07,0,0,1,.07,2l0,.88,3,13.69c.35,1.58,1.88,10.31,6.6,37.51l.4,2.31c3.08,17.69,6.73,38.68,10,57.11l2.59,14.65Zm126.87-49.72a172.47,172.47,0,0,1,6.3,19.64l1.34,5.11h78.92l-1.41-8c-1.69-9.66-3.37-19.38-4.95-28.46L265,587.58c-3.6-20.71-6-34.43-6.4-36.44l-3-13.46-1.08-1.08v-5.76l-.11-.61c-.16-.84-.28-1.68-.37-2.65l-.38-3.82,2-3.63.22-.51a206.19,206.19,0,0,0,8-20.12l4.4-13.73L265.11,487l-.18-3.45,11.19-7.53a8.59,8.59,0,0,0,1.46-1.2l.16-.17.15-.19c1.22-1.46,2.11-3.52,3.77-7.87.58-1.52,1.2-3.13,1.86-4.69,4.7-11,12.12-20.18,18.67-28.31,2.21-2.73,4.49-5.57,6.66-8.47a64.68,64.68,0,0,0,4.7-7.18l5.57-10,.21-.73a19.89,19.89,0,0,1,1-2.62l.24-.5,1.39-2.85-1.48-3.4c-6.77-15.59-9.47-31.94-12.08-47.75-1.06-6.44-2.15-13.07-3.51-19.47-2.72-12.74-6.75-25.57-10.65-38-5.06-16.13-10.3-32.8-18.35-47.37l-.16-.34L273.61,242l-6.53-.75-3.28-8.93-2.12-1.24c-3.17-1.86-10-4.38-18.09-5.82-2.48-.43-5-.91-7.42-1.38-9-1.71-17.56-3.34-26-3.34-1,0-2,0-3,.08l-1.26.06-51.77,22.75,40.21-46L168.43,172.6l28.6,6.9.09-8.61c0-.49,0-1,0-1.44a22.16,22.16,0,0,0-.91-5.85l-.63-2-.95-1.09a22.09,22.09,0,0,1-5.44-10l-.22-.94-.33-.58.06-2.83-.1-2,.21-.45.15-.95a19,19,0,0,1,1.63-5.22l1-2L191,132.5l.2-1.83a26.42,26.42,0,0,0-.63-8.32L188,111.27l2.17-.72-2.58-6.71a28.59,28.59,0,0,0-32.15-17.76l-14.28,2.8-2.42.88A28.53,28.53,0,0,0,119.9,116.9l.09,7.28,4.13-.3v13.77l.19,12.77h-4l1.48,7.82A6.85,6.85,0,0,0,124,169.65l0,.21,7.92,1L131.74,191l15.6-5.41-2.13,6.51,3.34-1.07-3,21.05-5,42.31-17.3-33.94-5,.87c-4.82.84-9.57,1.91-14.6,3-4.28,1-8.57,1.93-12.86,2.76-4.58.88-9.13,1.45-13.53,2-10.77,1.36-20.07,2.53-27.32,7.4-.79.54-1.53,1.09-2.2,1.64l-3.38,2.78,2.14,8.15L40,254.3l-.69,1.53c-.19.43-.46,1.09-.81,2-5.68,15.67-8.23,33-10.7,49.81-2,13.52-3.85,26.28-4.52,39.19-.33,6.5-.36,12.93-.4,19.74-.08,16.06-.16,32.63-4.39,49.1l-.91,3.59,1.79,2.56.32.48a19.64,19.64,0,0,1,2.24,4.52l1.32,3.82,3.3.57,1.94,7.94a51.6,51.6,0,0,0,4.67,11.57c1.62,3.07,3.35,6.1,5,9l.22.38c5.19,9.05,11.08,19.31,14,30.89.41,1.65.78,3.39,1.1,4.9.86,4.08,1.45,6.63,2.52,8.41,1.65,2.8,5.52,5.11,12.17,7.25l4.73,1.53,2.39,4.36q1.88,3.42,3.79,6.81l1.61,2.85,2.08.34,0,2.25,8.62,12.16-8.78,1.46.15,6.37v-.15l.61,42.09c.06,3.65.11,7.44.88,10.36s.8,6.05.54,23.4l-.1,6.95h76.41l.18-6.66c.36-13.65.82-15.91,1.95-18.51l12-27.58ZM60.31,562.35l.31.12,4.77-12.84-.16-.06Zm175.4-90.45,10.35-7.22,13.83,19.89-1.14,3.17,2.28-1.53,1.33,1.91-15.93,6.25L145.08,532.94Zm25.4-61.32c-.63-12-1.83-24.93-3.78-40.62l-7.2-57.75,30.25,49.72a42.82,42.82,0,0,1,4.38,9.18,47.38,47.38,0,0,1,1.77,9.19,28.58,28.58,0,0,0,.74,4.49l.23.73.31.55.13.27c.49,1,1,2.2,1.45,3.33a25.61,25.61,0,0,1,1,3.45l3.21,14.8-6,.13L286,412.41l-21.61,59.86Z"/><path class="cls-5" d="M278.62,404.45c-.19,1.77-.35,4.31.84,4.14a42.89,42.89,0,0,1,32.67,8.85c2.66,2.14,5.14,4.64,8.31,5.91s7.35.9,9.26-1.93c2.22-3.31.31-8,2-11.65.57-1.26,1.54-2.3,2.17-3.53,2.12-4.15-.07-9.09-1.93-13.37-8.85-20.39-10.2-43.11-14.83-64.85-2.83-13.25-6.89-26.2-10.95-39.12-5.35-17-10.75-34.19-19.4-49.8-2.24-4-5.17-8.32-9.69-9.3-5.62-1.22-10.82,3.21-14.48,7.65-15.83,19.19-22.78,44.84-21.5,69.69.48,9.13,1.85,18.38,5.25,26.91a45.74,45.74,0,0,0,6.87,12,36.36,36.36,0,0,0,4.76,4.85c1.55,1.31,4.34,2.53,5.34,4.29a12.6,12.6,0,0,1,1,2.75c1.76,6.13,6.71,10.92,8.65,17,1.54,4.83,1.07,10.18,2.94,14.89.57,1.44,1.35,2.78,1.88,4.23,1.08,2.92.9,5.85,1.07,8.9C278.77,403.14,278.69,403.73,278.62,404.45Z"/><path class="cls-5" d="M60.8,415.65c.45,1.71,1,4.19-.18,4.21a42.92,42.92,0,0,0-30.87,13.9c-2.29,2.53-4.34,5.39-7.27,7.15s-7.12,2-9.45-.45c-2.72-2.92-1.57-7.87-3.78-11.2-.76-1.15-1.88-2-2.69-3.14-2.75-3.77-1.37-9-.21-13.5,5.52-21.53,3.27-44.18,4.42-66.38.69-13.53,2.67-27,4.63-40.36,2.6-17.66,5.23-35.46,11.3-52.23,1.58-4.35,3.8-9,8.11-10.72,5.36-2.09,11.19,1.47,15.5,5.27C69,264.65,79.89,288.89,82.53,313.62c1,9.09,1.08,18.45-.93,27.41a45.77,45.77,0,0,1-4.9,12.89,37,37,0,0,1-3.93,5.54c-1.33,1.54-3.89,3.19-4.6,5.08a12.5,12.5,0,0,0-.5,2.87c-.77,6.33-4.91,11.84-5.86,18.14-.76,5,.55,10.22-.56,15.18-.33,1.5-.89,2.95-1.19,4.47-.6,3.06,0,5.92.35,8.95C60.44,414.37,60.61,414.94,60.8,415.65Z"/><path class="cls-5" d="M73.38,452.85c2.46,6,7.6,10.49,10.14,16.41,2.12,4.94,2.36,10.7,5.43,15.11,2.15,3.1,5.51,5.24,7.45,8.47,2.64,4.38,2.15,10.1,0,14.74S90.61,516,87,519.63c-2.82,2.84-6,5.78-9.9,6.37-2.57.39-5.18-.28-7.7-1-9.26-2.55-19.27-6-24.17-14.3-3-5-3.55-11-5-16.61-3.41-13.52-11.69-25.19-18.2-37.53-4.94-9.39-9-20.4-5.49-30.42a12.43,12.43,0,0,1,3.84-5.89,17.21,17.21,0,0,1,6.53-2.66c9.17-2.32,25.1-7.55,33.49-.43C70.21,425.48,68.92,442,73.38,452.85Z"/><path class="cls-6" d="M51.25,422.78a2.75,2.75,0,0,1-1.29-.43c-1.69-.79-3.68-.21-5.42.48a49.8,49.8,0,0,0-11.91,6.72c.88-3.61,3.91-6.39,7.31-7.87s7.18-1.83,10.89-2c1.14-1,.18-3-1.27-3.41s-2.93.32-4.25,1a2,2,0,0,1,1.71-1.8,1.44,1.44,0,0,1-.24-2.12,4.24,4.24,0,0,1,2.11-1.15A6.21,6.21,0,0,0,46.73,410c.87.46,1.8-.91,1.32-1.76a2.54,2.54,0,0,0-2.61-.95,17,17,0,0,1-2.9.48,6.16,6.16,0,0,1,3.16-2c4.19-1,8.45,2.44,12.69,1.65.64-.12,1.41-.29,1.85.19a1.75,1.75,0,0,1,.28,1.24c0,2.64,2.35,7.83.26,9.59-1,.79-3,.79-4.11,1.24C55,420.34,53,422.62,51.25,422.78Z"/><path class="cls-7" d="M131.93,222.46c-.24,1.53-.46,3.19.26,4.56a7.22,7.22,0,0,0,2.11,2.19c6,4.69,12.13,9.46,19.37,11.79s15.9,1.75,21.48-3.41c2.76-2.56,17.72-15.37,19.15-18.86,1.81-4.4-10,.29-10.24-4.47s-2.16-9.59-5.93-12.49c-4-3.08-9.45-3.58-14.5-3.19s-10.06,1.63-15.11,1.29c-2.73-.19-8.58-3.59-10.94-2.69C133.29,198.83,132.66,217.88,131.93,222.46Z"/><path class="cls-7" d="M120.05,181.75c-.15,12.55,19.67,24.18,27.88,28.28,7.12,3.56,19.67,4.72,31.57,4.29,1.39-.06,2.77-.13,4.14-.22.41,0,.82,0,1.21-.08,13.33-1,15.38-11.27,16.4-16.4s7-33.88,6.15-39c-1-5.92-5.11-6.21-6.15-11.27a7.34,7.34,0,0,1,2.53-6.94c1.55-1.48.55-4.33.55-4.33l-4-21.62-7.12-8.31L189,101.25l-14.6-.48-47.93-1.58-9.23,43.06S120.17,172.52,120.05,181.75Z"/><path class="cls-8" d="M173.67,106c.37,2.59,2.12,5.09,2.84,7.69a37,37,0,0,1,1.17,6.44c.06.71.66,1.26.68,2s-.53,1.4-.54,2a6.72,6.72,0,0,0,.27,2.65,7.1,7.1,0,0,1,.56,1.42,9.13,9.13,0,0,1-.41,2.22c-.19,2,1.87,3.27,3,4.85a6.16,6.16,0,0,1,.61,6.22c-.68,1.39-1.89,2.56-2.13,4.09-.27,1.7.74,3.3,1.55,4.82,2.78,5.21,3.52,11.23,4.21,17.09.31,2.55,0,6-2.49,6.52-.62.14-1.27,0-1.91.12-1.74.26-3,2-3.33,3.67a18.27,18.27,0,0,0,.06,5.27c.61,7.63-1.58,15.27-1.05,22.92a15.73,15.73,0,0,0,2.69,8.32c1.39-.06,2.77-.13,4.14-.22.41,0,.82,0,1.21-.08,13.33-1,15.38-11.27,16.4-16.4s7-33.88,6.15-39c-1-5.92-5.11-6.21-6.15-11.27a7.34,7.34,0,0,1,2.53-6.94c1.55-1.48.55-4.33.55-4.33l-4-21.62-7.12-8.31L189,101.25l-14.6-.48A10.84,10.84,0,0,0,173.67,106Z"/><path class="cls-9" d="M176.66,187.06l2.8-2.53s1.1-1.07,1.17-1.09a14.67,14.67,0,0,1,2,0c.17.07,5.59,3.46,6,3.36a22.51,22.51,0,0,0,2.45-1.3l1.83,3.68s-4.32-2-4.61-2Z"/><path class="cls-9" d="M181.11,187.06l-3-2.53s-1.16-1.07-1.24-1.09a16.64,16.64,0,0,0-2.12,0c-.17.07-5.94,3.46-6.36,3.36a24.91,24.91,0,0,1-2.6-1.3l-1.95,3.68s4.6-2,4.9-2Z"/><path class="cls-7" d="M105,151.66l4.61,9.62a.89.89,0,0,1,.06.2l2.53,13.3a7.13,7.13,0,0,0,2.67,4l3.76,2.81a1.36,1.36,0,0,0,.71.29c.75.08,2.43.26,3.81.35a2.64,2.64,0,0,0,2.29-2.06l-1.26-13.27,0-.41-.19-4.72c-2.25-2.5-4.2-6.29-5-11.93,0-.11,0-.23,0-.34s0-.22,0-.33,0-.39-.07-.59l0-.31-.93-6-.79-1.49a5,5,0,0,0-.63-.92,5.28,5.28,0,0,0-4.06-1.9h-3.06a3.58,3.58,0,0,0-3.49,2.76l-1.51,6.4a1.29,1.29,0,0,0,0,.19.43.43,0,0,1,0,.05C103.92,149.07,104.35,150,105,151.66Z"/><g class="cls-10"><path class="cls-11" d="M112.5,150.8A25.67,25.67,0,0,0,114,155l.21.55c.07.18.14.36.22.53l.06.15c0,.12.1.23.16.35.15.35.32.71.5,1.05l.06.13c.55,1.06,1,1.93,1,1.93.13,2.69.37,4.67,1.24,5.76h0a2.67,2.67,0,0,0,2,1h.34a3.54,3.54,0,0,0,3.61-2.73,10.66,10.66,0,0,0,.37-3.22c-.18-.17-.35-.36-.52-.55-1.83-2-3.42-5.13-4-9.79-.3-.33-.62-.63-.93-.91l0,0a5.27,5.27,0,0,0-1.44-1l0,0c-1.57-.66-2.15-1.08-3.81,0l0,0a1.05,1.05,0,0,0-.4.46l0,0A3.37,3.37,0,0,0,112.5,150.8Z"/></g><path class="cls-9" d="M111.68,149.7a.92.92,0,0,0,.09.51l.09.23.16.44.72,2,.7,2c.24.66.48,1.28.79,1.94l.53,1.11a4.62,4.62,0,0,0,.35.55,2,2,0,0,0,.24.28l.13.15a7.23,7.23,0,0,1,.62,2.09l.41,2.33a11.24,11.24,0,0,0,.6,2.29l0,.06h0v0a2,2,0,0,0,.38.58,2,2,0,0,0,.64.4,2.75,2.75,0,0,0,1.36.19h0a4.69,4.69,0,0,0,.65-.14,2.85,2.85,0,0,0,.31-.12l.32-.15a.36.36,0,0,0-.36-.62h0l-.22.1L120,166a2.3,2.3,0,0,1-.51.1h0a1.85,1.85,0,0,1-1-.14,1.38,1.38,0,0,1-.39-.24,1.53,1.53,0,0,1-.25-.41h0c0,.1,0,.13,0,.14l0-.14h0l-.34-.22h0a.45.45,0,0,1,.25.11l0,.08a10.94,10.94,0,0,1-.52-2.17l-.39-2.32a7.61,7.61,0,0,0-.72-2.41,3.76,3.76,0,0,0-.25-.31l-.13-.16a3,3,0,0,1-.28-.46l-.48-1h0v0c-.27-.59-.52-1.25-.75-1.91l-.68-2-.68-2-.2-.53-.08-.24v0a1.56,1.56,0,0,1,.32-.69v0l.35-.38a2.51,2.51,0,0,1,.41-.32,2,2,0,0,1,.91-.3,1.82,1.82,0,0,1,1,.19l.51.26.25.14.13.06.07,0h0l0,0,1.41.93,0,0,.87.64h0a.56.56,0,0,0,.39.1c0-.1,0-.19,0-.28s0-.17,0-.26,0-.31,0-.47l0-.25-.5-.36,0,0-1.49-1,.1.09a.45.45,0,0,0-.13-.11l0,0-.07,0-.15-.07-.28-.14-.57-.29a2.89,2.89,0,0,0-1.41-.25,3.07,3.07,0,0,0-1.36.47,4.39,4.39,0,0,0-1,1l0,0,0,.06A2.38,2.38,0,0,0,111.68,149.7Zm1.23-.58v0h0Z"/><g class="cls-12"><path class="cls-11" d="M165.33,142.59c-1.88-.94-6.9-2-9-1.41-3.75,1-6.67,3.34-6.66,3.69a6.21,6.21,0,0,0,.69,2c.46.54,1.5.3,2.2,0,2.83-1.31,5.41-3.1,8.57-3.76a4.82,4.82,0,0,1,2.17,0,4.62,4.62,0,0,1,1.79,1.09c1.46,1.28,2.45,2.72,4.56,3.06.71-.31.51-2.35.44-3S166.84,143.34,165.33,142.59Z"/></g><path class="cls-9" d="M154.18,147.74l1.57,1.15a6.56,6.56,0,0,0,2,1,12.23,12.23,0,0,0,4.41.36,5.66,5.66,0,0,0,2.15-.67,12.48,12.48,0,0,0,1.74-1.08l.79-.57a1.42,1.42,0,0,1,.72-.34,11.54,11.54,0,0,0,2-.51h0l-.2-.29c-.6.34-.35.89.33.24a.15.15,0,0,0,0-.25.22.22,0,0,0-.11-.05h-.06a5.53,5.53,0,0,0-2.18.14,2.77,2.77,0,0,0-.59.18,3.19,3.19,0,0,0-.5.31l-.78.58a7,7,0,0,1-3.34,1.6,10.76,10.76,0,0,1-3.92-.48,5.62,5.62,0,0,1-1.56-.87L155.08,147a.78.78,0,0,0-.94,0,.47.47,0,0,0,0,.76Z"/><ellipse class="cls-9" cx="161.84" cy="145.82" rx="3.03" ry="2.95"/><path class="cls-13" d="M169.25,146.42a1.72,1.72,0,0,1-.81-.2c-.2-.15-.55-.44-.83-.67l-1.77-1.46-.93-.73-.51-.36a1.87,1.87,0,0,0-.89-.35,19.59,19.59,0,0,0-2.65,0,18.16,18.16,0,0,0-5.19,1,11,11,0,0,0-4.37,2.8h0a.91.91,0,0,0,.26,1.45,1.49,1.49,0,0,0,1.8-.21l.08-.1a7.91,7.91,0,0,1,3.14-2.52,14.46,14.46,0,0,1,4.45-1.2,17.46,17.46,0,0,1,2.38-.14c-.15-.05.08,0,.21.11s.31.19.46.3c.31.2.61.43.91.66.61.47,1.19,1,1.78,1.43a11.13,11.13,0,0,0,1,.76,2.85,2.85,0,0,0,1.58.33.51.51,0,0,0,.55-.45.52.52,0,0,0-.55-.44Z"/><path class="cls-14" d="M170.83,143.35a19.35,19.35,0,0,1-6.75-1.38,12.71,12.71,0,0,0-14,2.4"/><path class="cls-15" d="M185.9,147.11a.75.75,0,0,1-.59-.61,2.23,2.23,0,0,1,0-.89c.08-.48.16-1,.25-1.45a1.82,1.82,0,0,1,1.43-1.37,22.42,22.42,0,0,0,6.41-1.51,4.11,4.11,0,0,1,1.38-.26,4.78,4.78,0,0,1,1.61.37,14.1,14.1,0,0,1,2.84,1.08,2.57,2.57,0,0,1,1.39,2.21c0,.3.56,1.51.37,1.75-.37.47-.61.16-1.16-.08a6.94,6.94,0,0,1-1.46-1.07,10.83,10.83,0,0,0-5.47-1.87,7.38,7.38,0,0,0-2.25,0,5.87,5.87,0,0,0-2.84,1.61C187.46,145.38,186.35,147.17,185.9,147.11Z"/><path class="cls-9" d="M199,145.72,197.71,147a4.73,4.73,0,0,1-1.32,1,9.07,9.07,0,0,1-3.55.89,5.51,5.51,0,0,1-3.38-1c-.54-.31-1-.66-1.6-1a3,3,0,0,0-1.13-.32,2.57,2.57,0,0,0-1.06.11h-.07a.21.21,0,0,0-.18.25.19.19,0,0,0,.05.09c.21.31,1,.4.4-.27l-.2.35c.59.27,1.32.23,1.66.46s1,.67,1.6,1a11.67,11.67,0,0,0,1.82.85,5.22,5.22,0,0,0,1.05.27,5.16,5.16,0,0,0,1.1,0,10.63,10.63,0,0,0,4.06-.82,6.07,6.07,0,0,0,1.72-1.14l1.34-1.25a.51.51,0,0,0-.05-.81.75.75,0,0,0-.95,0Z"/><ellipse class="cls-9" cx="193.89" cy="145.91" rx="2.66" ry="2.54"/><path class="cls-13" d="M186.44,147.3a2.85,2.85,0,0,0,.6-.4l.36-.35.67-.68c.45-.45.91-.89,1.38-1.31.24-.2.48-.41.71-.59s.29-.18.23-.15,0,0,0,0h.36a16.53,16.53,0,0,1,2,0,11.45,11.45,0,0,1,3.74.89,6.74,6.74,0,0,1,2.72,2.06,1.44,1.44,0,0,0,1.7.32.88.88,0,0,0,.23-1.36.63.63,0,0,0-.11-.12l0,0a10.11,10.11,0,0,0-3.82-2.22,15.57,15.57,0,0,0-4.36-.7,17.66,17.66,0,0,0-2.18.09l-.27,0h-.14c-.06,0-.06,0-.25.05a1.38,1.38,0,0,0-.38.2l-.23.17c-.27.23-.51.45-.75.68-.47.45-.92.91-1.36,1.37l-.68.68-.33.32c-.06.07-.11.07-.25.08a.55.55,0,0,0-.57.56.59.59,0,0,0,.65.49.82.82,0,0,0,.29-.08Z"/><path class="cls-13" d="M184.52,138.87c2.57.63,4.2.1,6.08-.32s3.77-.89,5.59-1.29a7.52,7.52,0,0,1,5.09.58,20.6,20.6,0,0,1,4.61,3.17l.68-.79a31.58,31.58,0,0,0-4.63-3.63,10.42,10.42,0,0,0-2.85-1.23,11,11,0,0,0-3.15-.28c-2,.1-3.86.25-5.79.33s-3.66.1-4.76-.55Z"/><path class="cls-13" d="M173.33,140.11a20.24,20.24,0,0,1-7.73-.87c-2.25-.61-4.52-1.16-6.74-1.7a12.46,12.46,0,0,0-3.21-.44,12.12,12.12,0,0,0-3.19.46,24.43,24.43,0,0,0-6.07,3l-.63-1a35.75,35.75,0,0,1,6.18-3.49,13.9,13.9,0,0,1,3.58-1,17.7,17.7,0,0,1,3.71,0c2.35.21,4.64.46,7,.63a14.12,14.12,0,0,0,6.05-.41Z"/><path class="cls-9" d="M181.7,175.08l.47,0a5.24,5.24,0,0,0,4.39-3.78,11.19,11.19,0,0,0-.12-5.26c-.55-2.84-1.17-5.71-1.77-8.48l0-.16c-.58-2.66-1.23-5.67-3.08-8.13l-.45-.57a5,5,0,0,1-1.21-2.08c-.23-1.31.89-2.58,1.86-3.42.27-.24.56-.46.84-.69a10,10,0,0,0,2.66-2.79,6.77,6.77,0,0,0,.35-4.9l-1.25.22a5.82,5.82,0,0,1-.25,4.19,8.81,8.81,0,0,1-2.37,2.44l-.87.72c-1.7,1.47-2.48,3-2.23,4.4a5.85,5.85,0,0,0,1.42,2.56c.15.18.29.36.43.55,1.71,2.27,2.34,5.16,2.89,7.71l0,.16c.6,2.77,1.22,5.63,1.76,8.45a10.34,10.34,0,0,1,.14,4.8,4,4,0,0,1-3.28,2.93,7.34,7.34,0,0,1-3.9-1.19,8.3,8.3,0,0,0-4.71-1.33,8.4,8.4,0,0,0-1.68.4,5.68,5.68,0,0,1-1.8.35,2,2,0,0,1-1.83-1.43,1.78,1.78,0,0,1,1.1-1.93l-.55-1a2.9,2.9,0,0,0-1.81,3.16,3.24,3.24,0,0,0,3,2.34,6.11,6.11,0,0,0,2.31-.41,7.89,7.89,0,0,1,1.4-.34,7.29,7.29,0,0,1,3.92,1.19A9.31,9.31,0,0,0,181.7,175.08Z"/><path class="cls-14" d="M186.1,142.82a13.11,13.11,0,0,0,5.53-1.17c3.11-1.53,5.32-.85,7.85,1"/><path class="cls-13" d="M179.88,176.24a2.93,2.93,0,0,1,1.48-.52,10.34,10.34,0,0,1,5.64,1.06c3.7,1.79,6.13,5.21,9.52,7.42,2.48,1.62,5.92,2.61,8.81,1.56.58-.21,1.45-.41,1.67.08.35.77-1.43,1-1.82,1a42.55,42.55,0,0,1-18.72-.35,12.13,12.13,0,0,1-5.88-3.29,2.88,2.88,0,0,1-.5-.73,3.19,3.19,0,0,1-.18-1.11,19.2,19.2,0,0,0-.34-2.93C179.4,177.65,179.12,176.86,179.88,176.24Z"/><path class="cls-13" d="M178.21,176.24a3,3,0,0,0-1.48-.52,10.36,10.36,0,0,0-5.65,1.06c-3.7,1.79-6.13,5.21-9.52,7.42-2.48,1.62-5.92,2.61-8.81,1.56-.57-.21-1.45-.41-1.67.08-.35.77,1.44,1,1.83,1a42.55,42.55,0,0,0,18.72-.35,12.18,12.18,0,0,0,5.88-3.29,2.83,2.83,0,0,0,.49-.73,3,3,0,0,0,.18-1.11,19.2,19.2,0,0,1,.34-2.93C178.68,177.65,179,176.86,178.21,176.24Z"/><path class="cls-5" d="M268.74,420.92c-3.36,5.5-9.14,9.17-12.58,14.63-2.86,4.54-4,10.19-7.72,14.07-2.61,2.72-6.26,4.31-8.68,7.19-3.3,3.92-3.71,9.65-2.3,14.57s4.38,9.22,7.38,13.37c2.34,3.24,5,6.64,8.77,7.84,2.49.79,5.17.53,7.76.24,9.55-1.07,20-2.94,26.12-10.34,3.7-4.47,5.22-10.29,7.51-15.62,5.49-12.83,15.49-23.06,23.85-34.23,6.35-8.49,12-18.74,10.19-29.18a12.53,12.53,0,0,0-2.88-6.42,17.37,17.37,0,0,0-6-3.65c-8.69-3.73-23.6-11.38-33-5.66C276.16,394.39,274.84,410.93,268.74,420.92Z"/><path class="cls-6" d="M285.69,411.59a2.5,2.5,0,0,0,1.31-.37c1.73-.7,3.69,0,5.4.73A50.12,50.12,0,0,1,304,419.2c-.72-3.64-3.61-6.56-6.95-8.19s-7.09-2.15-10.78-2.53c-1.09-1,0-3,1.42-3.35s2.91.45,4.21,1.19a2,2,0,0,0-1.63-1.87,1.45,1.45,0,0,0,.33-2.11,4.23,4.23,0,0,0-2-1.24A6.13,6.13,0,0,1,290.8,399c-.9.41-1.76-1-1.25-1.83a2.56,2.56,0,0,1,2.66-.82,16.78,16.78,0,0,0,2.88.61,6.17,6.17,0,0,0-3.08-2.11c-4.13-1.24-8.54,2.05-12.75,1.07-.63-.15-1.4-.36-1.85.1a1.74,1.74,0,0,0-.34,1.23c-.08,2.64-2.71,7.71-.69,9.57.91.83,2.91.93,4,1.43C282.06,409,284,411.36,285.69,411.59Z"/><path class="cls-16" d="M133.46,213c-3.25-7.91-10-5.22-17.17-4-9.36,1.63-18.45,4.06-27.8,5.86-15.31,2.95-32.1,2.34-45.45,11.3-6.46,4.34-13.45,11.54-10.14,19.67,2.82,6.95,4.49,14.13,7.36,21,4.39,10.57,6.42,22,10.61,32.67,6.92,17.65,9.78,35.74,12.43,54.47,3,20.9-3.55,40.81-5.77,61.44C56,429.81,57,445.59,62.59,459.08c6.69,16.07,19.53,25.37,34.64,33,29.49,14.84,61.43,17,93.43,10.24,30.13-6.34,63.16-18.4,76.56-48.73,5.7-12.88,7.18-25.93,6.58-39.93-.82-19.43-3.18-38.81-5.74-58.08-1.27-9.6-3.91-18.65-4.7-28.35a139,139,0,0,1,.9-30.1c2.1-15.12,6.19-29.93,11.17-44.35,5.49-15.88-.09-25.29-1.28-27.09-4.73-7.17-20.25-11.26-28.38-12.7-13.26-2.35-26.39-5.61-40-4.78-10.69.65-13.8,10.23-21.52,16.21-12.23,9.47-32.82,10.58-44.17-.4-2.89-2.79-4.24-7.39-6.65-9.84"/><g class="cls-17"><polygon class="cls-18" points="-8.84 175.48 4.6 192.39 -7.05 210.58 -20.49 193.67 -8.84 175.48"/><polygon class="cls-18" points="16.25 174.19 29.7 191.1 18.05 209.3 4.6 192.39 16.25 174.19"/><polygon class="cls-18" points="41.35 172.91 54.79 189.82 43.14 208.02 29.7 191.1 41.35 172.91"/><polygon class="cls-18" points="66.44 171.63 79.89 188.54 68.24 206.73 54.79 189.82 66.44 171.63"/><polygon class="cls-18" points="91.54 170.34 104.98 187.26 93.33 205.45 79.89 188.54 91.54 170.34"/><polygon class="cls-18" points="116.63 169.06 130.08 185.97 118.43 204.17 104.98 187.26 116.63 169.06"/><polygon class="cls-18" points="141.73 167.78 155.17 184.69 143.52 202.88 130.08 185.97 141.73 167.78"/><polygon class="cls-18" points="-7.05 210.58 6.4 227.49 -5.25 245.69 -18.7 228.78 -7.05 210.58"/><polygon class="cls-18" points="18.05 209.3 31.49 226.21 19.84 244.41 6.4 227.49 18.05 209.3"/><polygon class="cls-18" points="43.14 208.02 56.59 224.93 44.94 243.12 31.49 226.21 43.14 208.02"/><polygon class="cls-18" points="68.24 206.73 81.68 223.64 70.03 241.84 56.59 224.93 68.24 206.73"/><polygon class="cls-18" points="93.33 205.45 106.78 222.36 95.13 240.56 81.68 223.64 93.33 205.45"/><polygon class="cls-18" points="118.43 204.17 131.87 221.08 120.22 239.27 106.78 222.36 118.43 204.17"/><polygon class="cls-18" points="143.52 202.88 156.97 219.79 145.32 237.99 131.87 221.08 143.52 202.88"/><polygon class="cls-18" points="-5.25 245.69 8.19 262.6 -3.46 280.79 -16.9 263.88 -5.25 245.69"/><polygon class="cls-18" points="19.84 244.41 33.29 261.32 21.64 279.51 8.19 262.6 19.84 244.41"/><polygon class="cls-18" points="44.94 243.12 58.38 260.03 46.73 278.23 33.29 261.32 44.94 243.12"/><polygon class="cls-18" points="70.03 241.84 83.48 258.75 71.83 276.94 58.38 260.03 70.03 241.84"/><polygon class="cls-18" points="95.13 240.56 108.57 257.47 96.92 275.66 83.48 258.75 95.13 240.56"/><polygon class="cls-18" points="120.22 239.27 133.67 256.18 122.02 274.38 108.57 257.47 120.22 239.27"/><polygon class="cls-18" points="145.32 237.99 158.76 254.9 147.11 273.1 133.67 256.18 145.32 237.99"/><polygon class="cls-18" points="-3.46 280.79 9.99 297.7 -1.66 315.9 -15.11 298.99 -3.46 280.79"/><polygon class="cls-18" points="21.64 279.51 35.08 296.42 23.43 314.62 9.99 297.7 21.64 279.51"/><polygon class="cls-18" points="46.73 278.23 60.18 295.14 48.53 313.33 35.08 296.42 46.73 278.23"/><polygon class="cls-18" points="71.83 276.94 85.27 293.86 73.62 312.05 60.18 295.14 71.83 276.94"/><polygon class="cls-18" points="96.92 275.66 110.37 292.57 98.72 310.77 85.27 293.86 96.92 275.66"/><polygon class="cls-18" points="122.02 274.38 135.46 291.29 123.81 309.48 110.37 292.57 122.02 274.38"/><polygon class="cls-18" points="147.11 273.1 160.56 290.01 148.91 308.2 135.46 291.29 147.11 273.1"/><polygon class="cls-18" points="-1.66 315.9 11.78 332.81 0.13 351 -13.31 334.09 -1.66 315.9"/><polygon class="cls-18" points="23.43 314.62 36.88 331.53 25.23 349.72 11.78 332.81 23.43 314.62"/><polygon class="cls-18" points="48.53 313.33 61.97 330.24 50.32 348.44 36.88 331.53 48.53 313.33"/><polygon class="cls-18" points="73.62 312.05 87.07 328.96 75.42 347.15 61.97 330.24 73.62 312.05"/><polygon class="cls-18" points="98.72 310.77 112.16 327.68 100.51 345.87 87.07 328.96 98.72 310.77"/><polygon class="cls-18" points="123.81 309.48 137.26 326.39 125.61 344.59 112.16 327.68 123.81 309.48"/><polygon class="cls-18" points="148.91 308.2 162.35 325.11 150.7 343.31 137.26 326.39 148.91 308.2"/><polygon class="cls-18" points="166.58 166.63 180.03 183.54 168.38 201.73 154.93 184.82 166.58 166.63"/><polygon class="cls-18" points="191.68 165.34 205.12 182.26 193.47 200.45 180.03 183.54 191.68 165.34"/><polygon class="cls-18" points="216.77 164.06 230.22 180.97 218.57 199.17 205.12 182.26 216.77 164.06"/><polygon class="cls-18" points="241.87 162.78 255.31 179.69 243.66 197.88 230.22 180.97 241.87 162.78"/><polygon class="cls-18" points="266.96 161.5 280.41 178.41 268.76 196.6 255.31 179.69 266.96 161.5"/><polygon class="cls-18" points="292.06 160.21 305.5 177.12 293.85 195.32 280.41 178.41 292.06 160.21"/><polygon class="cls-18" points="317.15 158.93 330.6 175.84 318.95 194.03 305.5 177.12 317.15 158.93"/><polygon class="cls-18" points="168.38 201.73 181.82 218.65 170.17 236.84 156.73 219.93 168.38 201.73"/><polygon class="cls-18" points="193.47 200.45 206.92 217.36 195.27 235.56 181.82 218.65 193.47 200.45"/><polygon class="cls-18" points="218.57 199.17 232.01 216.08 220.36 234.27 206.92 217.36 218.57 199.17"/><polygon class="cls-18" points="243.66 197.88 257.11 214.79 245.46 232.99 232.01 216.08 243.66 197.88"/><polygon class="cls-18" points="268.76 196.6 282.2 213.51 270.55 231.71 257.11 214.79 268.76 196.6"/><polygon class="cls-18" points="293.85 195.32 307.3 212.23 295.65 230.42 282.2 213.51 293.85 195.32"/><polygon class="cls-18" points="318.95 194.03 332.39 210.95 320.74 229.14 307.3 212.23 318.95 194.03"/><polygon class="cls-18" points="170.17 236.84 183.62 253.75 171.97 271.94 158.52 255.03 170.17 236.84"/><polygon class="cls-18" points="195.27 235.56 208.71 252.47 197.06 270.66 183.62 253.75 195.27 235.56"/><polygon class="cls-18" points="220.36 234.27 233.81 251.18 222.16 269.38 208.71 252.47 220.36 234.27"/><polygon class="cls-18" points="245.46 232.99 258.9 249.9 247.25 268.1 233.81 251.18 245.46 232.99"/><polygon class="cls-18" points="270.55 231.71 284 248.62 272.35 266.81 258.9 249.9 270.55 231.71"/><polygon class="cls-18" points="295.65 230.42 309.09 247.34 297.44 265.53 284 248.62 295.65 230.42"/><polygon class="cls-18" points="320.74 229.14 334.19 246.05 322.54 264.25 309.09 247.34 320.74 229.14"/><polygon class="cls-18" points="171.97 271.94 185.41 288.86 173.76 307.05 160.32 290.14 171.97 271.94"/><polygon class="cls-18" points="197.06 270.66 210.51 287.57 198.86 305.77 185.41 288.86 197.06 270.66"/><polygon class="cls-18" points="222.16 269.38 235.6 286.29 223.95 304.48 210.51 287.57 222.16 269.38"/><polygon class="cls-18" points="247.25 268.1 260.7 285.01 249.05 303.2 235.6 286.29 247.25 268.1"/><polygon class="cls-18" points="272.35 266.81 285.79 283.72 274.14 301.92 260.7 285.01 272.35 266.81"/><polygon class="cls-18" points="297.44 265.53 310.89 282.44 299.24 300.63 285.79 283.72 297.44 265.53"/><polygon class="cls-18" points="322.54 264.25 335.98 281.16 324.33 299.35 310.89 282.44 322.54 264.25"/><polygon class="cls-18" points="173.76 307.05 187.21 323.96 175.56 342.15 162.11 325.24 173.76 307.05"/><polygon class="cls-18" points="198.86 305.77 212.3 322.68 200.65 340.87 187.21 323.96 198.86 305.77"/><polygon class="cls-18" points="223.95 304.48 237.4 321.39 225.75 339.59 212.3 322.68 223.95 304.48"/><polygon class="cls-18" points="249.05 303.2 262.49 320.11 250.84 338.31 237.4 321.39 249.05 303.2"/><polygon class="cls-18" points="274.14 301.92 287.59 318.83 275.94 337.02 262.49 320.11 274.14 301.92"/><polygon class="cls-18" points="299.24 300.63 312.68 317.55 301.03 335.74 287.59 318.83 299.24 300.63"/><polygon class="cls-18" points="324.33 299.35 337.78 316.26 326.13 334.46 312.68 317.55 324.33 299.35"/><polygon class="cls-18" points="0.06 350.13 13.51 367.05 1.86 385.24 -11.59 368.33 0.06 350.13"/><polygon class="cls-18" points="25.16 348.85 38.6 365.76 26.95 383.96 13.51 367.05 25.16 348.85"/><polygon class="cls-18" points="50.25 347.57 63.7 364.48 52.05 382.67 38.6 365.76 50.25 347.57"/><polygon class="cls-18" points="75.35 346.28 88.79 363.19 77.14 381.39 63.7 364.48 75.35 346.28"/><polygon class="cls-18" points="100.44 345 113.89 361.91 102.24 380.11 88.79 363.19 100.44 345"/><polygon class="cls-18" points="125.54 343.72 138.98 360.63 127.33 378.82 113.89 361.91 125.54 343.72"/><polygon class="cls-18" points="150.63 342.44 164.08 359.35 152.43 377.54 138.98 360.63 150.63 342.44"/><polygon class="cls-18" points="1.86 385.24 15.3 402.15 3.65 420.34 -9.79 403.43 1.86 385.24"/><polygon class="cls-18" points="26.95 383.96 40.4 400.87 28.75 419.06 15.3 402.15 26.95 383.96"/><polygon class="cls-18" points="52.05 382.67 65.49 399.58 53.84 417.78 40.4 400.87 52.05 382.67"/><polygon class="cls-18" points="77.14 381.39 90.59 398.3 78.94 416.5 65.49 399.58 77.14 381.39"/><polygon class="cls-18" points="102.24 380.11 115.68 397.02 104.03 415.21 90.59 398.3 102.24 380.11"/><polygon class="cls-18" points="127.33 378.82 140.78 395.73 129.13 413.93 115.68 397.02 127.33 378.82"/><polygon class="cls-18" points="152.43 377.54 165.87 394.45 154.22 412.65 140.78 395.73 152.43 377.54"/><polygon class="cls-18" points="3.65 420.34 17.1 437.25 5.45 455.45 -8 438.54 3.65 420.34"/><polygon class="cls-18" points="28.75 419.06 42.19 435.97 30.54 454.17 17.1 437.25 28.75 419.06"/><polygon class="cls-18" points="53.84 417.78 67.29 434.69 55.64 452.88 42.19 435.97 53.84 417.78"/><polygon class="cls-18" points="78.94 416.5 92.38 433.41 80.73 451.6 67.29 434.69 78.94 416.5"/><polygon class="cls-18" points="104.03 415.21 117.48 432.12 105.83 450.32 92.38 433.41 104.03 415.21"/><polygon class="cls-18" points="129.13 413.93 142.57 430.84 130.92 449.03 117.48 432.12 129.13 413.93"/><polygon class="cls-18" points="154.22 412.65 167.67 429.56 156.02 447.75 142.57 430.84 154.22 412.65"/><polygon class="cls-18" points="175.49 341.28 188.93 358.2 177.28 376.39 163.84 359.48 175.49 341.28"/><polygon class="cls-18" points="200.58 340 214.03 356.91 202.38 375.11 188.93 358.2 200.58 340"/><polygon class="cls-18" points="225.68 338.72 239.12 355.63 227.47 373.82 214.03 356.91 225.68 338.72"/><polygon class="cls-18" points="250.77 337.44 264.22 354.35 252.57 372.54 239.12 355.63 250.77 337.44"/><polygon class="cls-18" points="275.87 336.15 289.31 353.06 277.66 371.26 264.22 354.35 275.87 336.15"/><polygon class="cls-18" points="300.96 334.87 314.41 351.78 302.76 369.97 289.31 353.06 300.96 334.87"/><polygon class="cls-18" points="326.06 333.59 339.5 350.5 327.85 368.69 314.41 351.78 326.06 333.59"/><polygon class="cls-18" points="177.28 376.39 190.73 393.3 179.08 411.5 165.63 394.58 177.28 376.39"/><polygon class="cls-18" points="202.38 375.11 215.82 392.02 204.17 410.21 190.73 393.3 202.38 375.11"/><polygon class="cls-18" points="227.47 373.82 240.92 390.74 229.27 408.93 215.82 392.02 227.47 373.82"/><polygon class="cls-18" points="252.57 372.54 266.01 389.45 254.36 407.65 240.92 390.74 252.57 372.54"/><polygon class="cls-18" points="277.66 371.26 291.11 388.17 279.46 406.36 266.01 389.45 277.66 371.26"/><polygon class="cls-18" points="302.76 369.97 316.2 386.88 304.55 405.08 291.11 388.17 302.76 369.97"/><polygon class="cls-18" points="327.85 368.69 341.3 385.6 329.65 403.8 316.2 386.88 327.85 368.69"/><polygon class="cls-18" points="179.08 411.5 192.52 428.41 180.87 446.6 167.43 429.69 179.08 411.5"/><polygon class="cls-18" points="204.17 410.21 217.62 427.12 205.97 445.32 192.52 428.41 204.17 410.21"/><polygon class="cls-18" points="229.27 408.93 242.71 425.84 231.06 444.03 217.62 427.12 229.27 408.93"/><polygon class="cls-18" points="254.36 407.65 267.81 424.56 256.16 442.75 242.71 425.84 254.36 407.65"/><polygon class="cls-18" points="279.46 406.36 292.9 423.27 281.25 441.47 267.81 424.56 279.46 406.36"/><polygon class="cls-18" points="304.55 405.08 318 421.99 306.35 440.19 292.9 423.27 304.55 405.08"/><polygon class="cls-18" points="329.65 403.8 343.09 420.71 331.44 438.9 318 421.99 329.65 403.8"/></g><path class="cls-19" d="M132.59,210.33a31.21,31.21,0,0,0,16.85,19.29c8,3.62,18.9,3,26.89-.73,6.6-3,13.36-7.63,17.27-13.76"/><path class="cls-13" d="M210.51,195.59c.71.67-.42,1.94-1.36,1.65a2.82,2.82,0,0,1-1.57-2.33,21.58,21.58,0,0,1,.21-7.34c.9-6.16,2-12.34,1.79-18.56a35,35,0,0,0-1.47-9.13c-.54-1.75-1.82-5.86-4-7.41a47.4,47.4,0,0,1-3,30.17c-1.48,3.41-3.33,6.82-6.32,9s-7.41,2.87-10.4.66c-1.38-1-2.36-2.57-3.88-3.4-2.71-1.48-6.12-.17-8.61,1.67s-4.67,4.24-7.6,5.23a14.54,14.54,0,0,1-6,.44c-8.05-.79-16.47-5.12-19-12.8-.6-1.82-.84-3.75-1.39-5.6a34.29,34.29,0,0,0-3.77-7.78c-3.7-6.18-6.94-12.08-10.89-18.1a20.18,20.18,0,0,1,4.06-22.56,34.34,34.34,0,0,1,7.49-5.17,141.48,141.48,0,0,1,29.53-12.19c3.12-.89,6.18-.42,9.41-.66a43.72,43.72,0,0,1,8.56,0,104.06,104.06,0,0,1,11.61,2,9.69,9.69,0,0,1,4,1.64,7.62,7.62,0,0,1,2.35,3.52c1.5,4.44,1.91,9.3,3.27,13.39.88-8.16-1.42-19.2-7-25.33-4-4.31-9.5-6.82-15-8.74-10.61-3.68-22.48-5.55-33-1.52-6,2.32-11.17,6.42-16.2,10.45a43.2,43.2,0,0,0-7.31,6.85,38.77,38.77,0,0,0-4.78,8.82c-3,7-6,5.11-8.54,12.31-.18.5.12,10.18.26,10.68.26.9,1.33,1.22,2.2,1.54,3.07,1.14,9.26,6.24,6,25.95-.81,4.94-1.32,10-.36,14.93s3.44,9.66,7.47,12.62a13.2,13.2,0,0,1,3.15,2.64c.8,1.13,1,2.86-.06,3.77s-3.14-.07-2.72-1.38c-1.24.43-1.39,2.33-.49,3.28a4,4,0,0,0,3.69.84c1.29-.25,2.5-.83,3.79-1.1,3-.61,6,.46,8.76,1.74,7.76,3.63,14.76,9.11,23.1,11.08a44.8,44.8,0,0,0,15.92.32c3.59-.47,7.29-1.19,10.23-3.32,4.16-3,6.14-8.33,10.26-11.39,3.33-2.46,8.23-3.78,9.23-7.79C212.51,197.82,212,195.93,210.51,195.59Z"/><path class="cls-20" d="M153,73.83l-12.37,2.42a41.1,41.1,0,0,0-32.45,48.23l2.52,12.92,19.68-1.48a241.73,241.73,0,0,0,57.82-11.57l15.55-5.15-2.53-12.92A41.11,41.11,0,0,0,153,73.83Z"/><path class="cls-21" d="M146.82,75A84.62,84.62,0,0,1,156.25,114"/><path class="cls-21" d="M107.76,120.75c.5-.12,48.68-2.65,92.24-19.24"/><path d="M147.6,74.49a5.46,5.46,0,0,0-3-1.22,11.85,11.85,0,0,0-4.05.6,20.46,20.46,0,0,0-6.45,3.47c-4,3.09-6.92,7.2-10.55,10.62-.69.65.35,1.69,1,1,3.24-3,5.93-6.64,9.29-9.58a20.43,20.43,0,0,1,5.83-3.69,13.08,13.08,0,0,1,3.73-1,5.34,5.34,0,0,1,2.07.12,6,6,0,0,1,1.36.88c.79.53,1.52-.74.74-1.27Z"/><path d="M123.94,87.78a5.5,5.5,0,0,0-.52,1.42,13.14,13.14,0,0,1-.52,1.49c-.4,1-.91,2-1.4,3a.74.74,0,0,0,.26,1,.75.75,0,0,0,1-.26c.51-1,1-2.09,1.47-3.17.2-.5.39-1,.55-1.53a5,5,0,0,1,.42-1.24.74.74,0,0,0-1.27-.74Z"/><path d="M124,87.56a9.42,9.42,0,0,0-2.11,2.21l-.8,1.14-.42.58s-.14.18-.05.07l-.08.1-.26.31a.74.74,0,1,0,1,1c.63-.73,1.16-1.54,1.72-2.33l.2-.28a1.13,1.13,0,0,1,.1-.13l0,0c.13-.18.28-.35.43-.52a5.9,5.9,0,0,1,.49-.51l.25-.22.13-.1.07,0a.76.76,0,0,0,.26-1,.74.74,0,0,0-1-.26Z"/><path d="M123.93,87.53a13.73,13.73,0,0,0-4.67,2.9.74.74,0,0,0,0,1,.76.76,0,0,0,1,0l.44-.41.26-.21.12-.1c.1-.08-.07,0,0,0a12.2,12.2,0,0,1,1-.72,10.13,10.13,0,0,1,1.07-.6l.58-.28.08,0,.08,0,.31-.11a.76.76,0,0,0,.51-.91.74.74,0,0,0-.9-.51Z"/><path class="cls-22" d="M115.36,102.3c-.21,1.32-.37,2.66-.48,4"/><path class="cls-22" d="M117.08,103.9a17.91,17.91,0,0,1-.33,3.87"/><path class="cls-22" d="M114.78,109.66l0,.62"/><path class="cls-22" d="M119.59,104.32l-.19.76"/><path class="cls-22" d="M117.58,95.79l-.28,3.12"/><path class="cls-22" d="M115.54,113.21l-.16,2.86"/></g><g class="cls-23"><path class="cls-4" d="M5.76,587.43a211.07,211.07,0,0,0-3.6-36.18c-4.87-24.69-16.26-49-36-64.56-11-8.69-24.71-14.94-31.78-27.05-5.91-10.15-6-22.49-7.6-34.12-5.29-38.59-28.13-72.18-42.3-108.46-8.75-22.38-14.35-46.22-26.68-66.85s-33.77-38.16-57.78-37A21.49,21.49,0,0,1-190.92,191c2.88,2.19,6.9,8.08,12.76,9.06,9,6.65,7.27-40.2,7.86-60.57s-3.87-42-17.85-56.8S-231,59.88-252.27,72.93c-35.42,21.7-52.87,68.44-50,109.88.26,3.72,5.11,9.11,7.64,11.86s7.71,3.24,9.64,0a59.29,59.29,0,0,0,16.37,16.36c-11.4,15.2-35,11.22-52.66,18.13-18.78,7.33-29.64,26.46-40.39,43.51a396.3,396.3,0,0,1-48.52,62.16c-9.19,9.63-19.51,18-28.88,27.36-6.65,6.65-4.22,20.56-1.77,28.7,5,16.48,17.24,30.39,30.87,40.47,20.38,15.06,44.68,24.74,63.19,42.05a91.73,91.73,0,0,0-12.82,41.36c-.36,5.77.17,12.32,4.58,16.06,6.3,5.35,15.74,1.68,24,1,23.22-1.88,39.79,21.49,60.85,31.45,30.49,14.41,66-.76,99.65-2.41a124.08,124.08,0,0,1,91.7,34.82c15.51,15.18,27,34.47,44.3,47.55,10,7.55,25.66,12.14,34.06,2.83C4.17,641,4.69,633.45,5,626.52,5.51,613.52,6,600.44,5.76,587.43Z"/><path class="cls-4" d="M-13,663c-9.47,0-19.9-3.77-28.61-10.33C-53,644-61.84,633.28-70.39,622.91A237,237,0,0,0-87,604.1a112.06,112.06,0,0,0-77.81-31.63c-1.71,0-3.45,0-5.15.13-9.91.48-20,2.23-30.73,4.08-12.74,2.2-25.91,4.47-39.23,4.47s-24.94-2.37-35.26-7.25c-8.62-4.07-16.14-9.78-23.41-15.29-10.75-8.15-20-15.14-29.88-15.14q-.81,0-1.62.06c-1.5.12-3.25.41-5.11.71l-.2,0A65.06,65.06,0,0,1-346,545.39c-6.68,0-12.09-1.84-16.53-5.61-6.48-5.49-9.4-14.13-8.69-25.69a102.79,102.79,0,0,1,7.94-33.78l1.77-4.21-3.7-2.69c-7.5-5.44-15.6-10.17-24.18-15.18-9.15-5.35-18.59-10.86-27.49-17.44-12.38-9.15-28.53-24.64-35.11-46.49-3.08-10.23-6.57-29.08,4.7-40.33,4.37-4.38,8.91-8.51,13.31-12.51l.1-.1c5.38-4.9,10.47-9.52,15.27-14.55a385,385,0,0,0,47.1-60.33l2.31-3.7c10.64-17,22.69-36.26,43.71-44.46,6.78-2.65,14-3.9,20.21-4.87l11.69-1.81-8.64-8.09c-.34-.32-.66-.64-1-1-5.25-5.73-10.19-12-10.68-18.95-2.87-41.36,13.19-94.71,55.54-120.65a56.84,56.84,0,0,1,30.2-8.22c18.07,0,37.12,7.81,48.53,19.9,18.38,19.48,21.58,46.19,21,65.16-.11,3.75-.14,8.32-.17,13.16-.18,26.55-.53,43.26-5.36,51.9l-2.64,4.72,4.54,2.93a98.28,98.28,0,0,1,30.05,31.69c9.06,15.14,14.63,31.57,20,47.46,2.49,7.34,4.82,14.24,7.52,21.14,4.56,11.67,10,22.92,15.72,34.82,11.55,24,23.5,48.75,27.27,76.3.35,2.5.63,5.09.91,7.6.91,8.4,1.78,16.32,5.22,22.22,3.66,6.28,10.37,10.81,18.13,16.06,3.61,2.45,7.27,4.92,10.8,7.71,20,15.78,34.26,41.16,40.24,71.47a223,223,0,0,1,3.81,38.14v0c.3,13.48-.25,26.83-.78,39.74-.31,7.42-.76,18.51-8.46,27C2.8,659.93-4.32,663-13,663ZM-164.91,549.1c34.52,0,69.76,14.32,94.25,38.3A258.08,258.08,0,0,1-52.38,608c8.05,9.76,15.65,19,24.88,26,5.42,4.09,11,5.62,14.07,5.69l4.45.1,1.22-4.27A43.26,43.26,0,0,0-6.7,626c.52-12.56,1.06-25.55.78-38.35A199.37,199.37,0,0,0-9.3,553.52c-4.9-24.86-16.19-45.34-31.8-57.66-2.86-2.26-6-4.39-9.35-6.65-9.34-6.32-18.94-12.81-25.28-23.69-5.94-10.19-7.12-21-8.26-31.45l0-.3c-.23-2.18-.48-4.44-.79-6.66-3.27-23.91-13.91-46-25.17-69.32-5.69-11.8-11.56-24-16.44-36.47-2.86-7.35-5.41-14.84-7.86-22.09-5.24-15.44-10.17-30-18-43-13.85-23.15-32.63-31.4-45.58-31.4-.54,0-1.08,0-1.62,0l-9.78.45-2.16-9.55a33.13,33.13,0,0,1,14.15-34.59l6.88-4.43,7.61,5.79.32-11.23c.2-6.93.24-14.16.27-18.48,0-4.81.07-9.78.18-13.68.35-11.92-1.1-34.06-14.67-48.44-7.13-7.56-19.77-12.64-31.43-12.64a34.07,34.07,0,0,0-18.09,4.84c-24.36,14.92-41.32,45.71-44.28,80.35l-.17,2,15.35,23a48,48,0,0,0,13.14,13.13l10.27,6.85-7.4,9.88c-10.18,13.57-25.9,15.95-39.77,18-6.61,1-12.85,2-18,4-13.82,5.39-22.84,19.81-32.39,35.08l-2.38,3.78a407.66,407.66,0,0,1-49.95,64c-5.32,5.57-10.94,10.69-16.37,15.64l-.12.11c-4.07,3.71-7.91,7.21-11.63,10.87l-1.39,1.36-.27,1.93c-.4,2.78-.11,8.1,1.88,14.71C-425.95,399.81-416.5,412-403,422c7.86,5.81,16.36,10.78,25.36,16,13.28,7.77,27,15.79,38.87,26.88l6.89,6.44-4.85,8.1a80.15,80.15,0,0,0-11.18,36.06l-.44,7.14,7.07-1.09,2.08-.34c2.19-.36,4.69-.78,7.24-1,1.22-.1,2.46-.15,3.67-.15,17.57,0,30.92,10.12,43.82,19.9,6.62,5,12.86,9.75,19.29,12.78,7.15,3.38,15.44,5,25.35,5,11.16,0,22.81-2,35.15-4.15,10.95-1.89,22.25-3.84,33.59-4.4C-169.07,549.15-167,549.1-164.91,549.1Z"/><path class="cls-24" d="M3.58,644.57c-.33,2.38-.9,5-2.94,6.33-1.64,1-3.73.83-5.66.59l-8.92-1.1-3.57-.45c-1.48-.18-2.94-.43-4.39-.74a51.61,51.61,0,0,1-35.43-27.13c-9.93-19.58-26.69-35.86-46.31-46-27.19-14.06-59.27-17.07-89.46-12-12.49,2.1-24.8,5.52-37.43,6.24a89.47,89.47,0,0,1-70.41-28.91c-2.43-2.7-4.76-5.6-7.91-7.42-13.58-7.87-33.66,8-45.45-2.34-4.45-3.91-5.72-10.34-5.71-16.27.07-20.42,11.83-38.67,22.16-56.29,6.35-12.7,13.84-24.78,20-37.61,4-8.39,6.82-22.69,15.54-26.84,10.94-5.21,33.08-2.24,45.28-3l45.44-2.88c28-1.77,58.74-2.8,81.18,14.09,15.47,11.64,24.35,30,38.2,43.56,20.8,20.35,51.52,28.59,71,50.22C.3,520.52,3.48,555.3,4.87,587.45,5.69,606.5,6.25,625.68,3.58,644.57Z"/></g></svg>