<svg id="Layer_1" data-name="Layer 1" xmlns="http://www.w3.org/2000/svg" xmlns:xlink="http://www.w3.org/1999/xlink" viewBox="0 0 264 214"><defs><style>.cls-1,.cls-12,.cls-17,.cls-19,.cls-20{fill:none;}.cls-2{fill:#cce7ff;isolation:isolate;}.cls-3{fill:#fff;}.cls-4{fill:#d2d3c7;}.cls-5{fill:#f9efde;}.cls-6{fill:#dbd3b4;}.cls-10,.cls-13,.cls-6{opacity:0.59;}.cls-7{fill:#240e05;}.cls-8{opacity:0.46;}.cls-13,.cls-9{fill:#ccc5a3;}.cls-11{fill:#9e4a26;}.cls-12{stroke:#240e05;stroke-width:0.7px;}.cls-12,.cls-17{stroke-linecap:round;}.cls-12,.cls-17,.cls-18,.cls-19,.cls-20{stroke-miterlimit:10;}.cls-14{fill:#28110c;}.cls-15{clip-path:url(#clip-path);}.cls-16{fill:#87726f;}.cls-17{stroke:#fff;stroke-width:1.02px;}.cls-18{fill:#d3d3c5;stroke-width:0.71px;}.cls-18,.cls-19{stroke:#000;}.cls-19{stroke-width:1.07px;}.cls-20{stroke:#ababa0;stroke-width:0.64px;}</style><clipPath id="clip-path"><path class="cls-1" d="M112.9,128.93c-2.37-5.77-7.28-3.81-12.54-2.9-6.83,1.19-13.46,3-20.29,4.28-11.18,2.15-23.43,1.7-33.17,8.25-4.72,3.17-9.82,8.42-7.41,14.36,2.06,5.07,3.28,10.31,5.38,15.35,3.2,7.72,4.68,16,7.74,23.86,5,12.88,7.14,26.09,9.07,39.76,2.16,15.26-2.59,29.79-4.21,44.85-1.12,10.5-.4,22,3.7,31.86,4.88,11.73,14.25,18.52,25.29,24.08,21.52,10.83,44.84,12.38,68.2,7.47,22-4.63,46.1-13.44,55.89-35.58,4.16-9.4,5.24-18.93,4.8-29.14-.6-14.19-2.32-28.33-4.19-42.41-.93-7-2.85-13.61-3.43-20.69a101.55,101.55,0,0,1,.65-22A172.4,172.4,0,0,1,216.54,158c4-11.59-.07-18.46-.93-19.77-3.46-5.24-14.79-8.22-20.72-9.27-9.69-1.72-19.27-4.1-29.18-3.49-7.8.47-10.08,7.47-15.71,11.83-8.93,6.91-24,7.72-32.24-.29-2.11-2-3.1-5.39-4.86-7.19"/></clipPath></defs><path class="cls-2" d="M75,0H264V217H95Z"/><path class="cls-3" d="M257.76,260.27c-6.46-14.88-7.44-31.47-10.82-47.34-2.07-9.67-5-19.12-8-28.56-3.9-12.43-7.84-25-14.16-36.35-1.63-3-3.77-6.08-7.07-6.79a4.91,4.91,0,0,0-.65-.06,15.18,15.18,0,0,0-1.45-3c-3.46-5.24-14.79-8.22-20.72-9.27-9.68-1.72-19.27-4.1-29.18-3.49a11.24,11.24,0,0,0-3.94.93,12.18,12.18,0,0,1,1.84-1.75c2.43-1.8,6-2.76,6.73-5.69.27-1.06-.13-2.43-1.19-2.69.52.5-.31,1.42-1,1.21a2.06,2.06,0,0,1-1.15-1.7,15.85,15.85,0,0,1,.15-5.36c.66-4.49,1.46-9,1.31-13.54a25.53,25.53,0,0,0-1.07-6.67c-.4-1.28-1.33-4.26-2.9-5.4a7.45,7.45,0,0,1-2.11-3.73c0-.18,0-.33,0-.5a.62.62,0,0,0,0-.59,5.24,5.24,0,0,1,1.9-4,1.8,1.8,0,0,0,.36-.52c.4.3.73-.47.25-.88a5,5,0,0,0-.21-1.77l-.56-3a28.07,28.07,0,0,0-.64-9.1l.78-.26-1.84-9.43a32.72,32.72,0,0,0-.92-3.47h0a30,30,0,0,0-34.29-20.21l-4.35.85a2.74,2.74,0,0,0-1.24-.66,8.38,8.38,0,0,0-4.14.63,14.6,14.6,0,0,0-3.82,2.24A30,30,0,0,0,94.45,64.35l1.85,9.43.67,0v.44H95.29a2.61,2.61,0,0,0-2.55,2l-1.1,4.67s0,.09,0,.14v0a4.62,4.62,0,0,0,.55,3.15l3.36,7a.88.88,0,0,1,0,.15l1.84,9.71A5.31,5.31,0,0,0,99.35,104l2.75,2a1,1,0,0,0,.5.2,21.44,21.44,0,0,0,.35,4.45,14.88,14.88,0,0,0,5.44,9.22,9.8,9.8,0,0,1,2.31,1.93,2.14,2.14,0,0,1,0,2.75c-.76.67-2.3,0-2-1a1.31,1.31,0,0,0-.74,1.43c-2.23-.18-4.85.56-7.57,1-6.83,1.19-13.46,3-20.29,4.28-11.18,2.15-23.43,1.7-33.17,8.25-4.44,3-9.2,7.8-7.76,13.29-2,1.61-3.26,4.27-4.17,6.79-4.44,12.25-6.36,25.24-8.25,38.13-1.44,9.78-2.88,19.58-3.38,29.46-.84,16.2.8,32.74-3.23,48.46-.85,3.29-1.85,7.1.15,9.86.6.81,1.41,1.45,2,2.29,1.61,2.42.77,6,2.76,8.17a4.19,4.19,0,0,0,2.39,1.25,46.89,46.89,0,0,0,4.2,10.52c4.75,9,10.8,17.53,13.29,27.4,1,4.11,1.47,8.48,3.63,12.13,2.93,4.93,8.35,7.52,13.93,9.32q1.63,3,3.3,5.91a9.23,9.23,0,0,0,.59.94l-.12,0a1.88,1.88,0,0,0-.85.3.86.86,0,0,0-.13.14s-.07.05-.09.09h0a1.66,1.66,0,0,0-.13.27h0a.69.69,0,0,0,.08.58,1.31,1.31,0,0,0,.25.22,1.59,1.59,0,0,1,.39.34c.13.17.07.5,0,.79a1.16,1.16,0,0,0,0,.47c0,.08.13.13.19.19a1.19,1.19,0,0,0,.42.26c.1,0,.2.08.3.1,0,3.07,0,6.14.07,9.21q.21,15,.44,30.06a40.66,40.66,0,0,0,.93,9.73c.43,1.65.06,14.32-.1,29h74c.22-12,.37-22.52,1-23.84a154,154,0,0,1,6.76,23.84h75.76c-5.22-29.6-11.85-68.27-12.32-70.37q-1.38-6.22-2.74-12.45h0a.61.61,0,0,0,.35-.62,9.65,9.65,0,0,1-.75-3.09c.16-.3.31-.61.45-.92,2.76-6.24,5.53-12.5,7.31-19.08.58-2.14,1.05-4.31,1.77-6.4.19-.55.44-1.07.66-1.61a16.23,16.23,0,0,0,5.13-4c2.7-3.26,3.82-7.51,5.48-11.4,4-9.36,11.32-16.83,17.42-25a55.46,55.46,0,0,0,4.09-6.28,4.71,4.71,0,0,0,3.82-1.91c1.63-2.42.23-5.85,1.44-8.5.42-.92,1.12-1.68,1.58-2.58C260.72,267,259.12,263.4,257.76,260.27ZM60.6,254.93a16.64,16.64,0,0,1,.72-2.86q-.41,3-.9,5.9A18.12,18.12,0,0,1,60.6,254.93Zm132.23,70.46.1.15-.75.29ZM218,262.58a1.3,1.3,0,0,0-.25.89c0,1.32-.92,3.45-1,5.11-.53,1.38-1,2.77-1.52,4.14-.53-10.12-1.57-20.23-2.82-30.3a22.24,22.24,0,0,1,2.3,4.73c1.12,3.53.78,7.43,2.15,10.87.41,1.05,1,2,1.37,3.09a10,10,0,0,1,.35,1.27A.76.76,0,0,0,218,262.58ZM112.71,127.05l-.44,0c.09.32.22.63.33.94l0,.29a6.9,6.9,0,0,0-1.22-1.76c.5-.13,1-.27,1.49-.43C112.8,126.38,112.76,126.72,112.71,127.05Z"/><path class="cls-3" d="M160.88,430.13h47.79c-1.62-9.27-3.24-18.62-4.67-26.87-2.24-12.85-4.34-25-4.64-26.46l-1.83-8.32-1.22-1.21v-5.82c-.16-.89-.26-1.69-.32-2.35l-.43-4.32,2.08-3.82a150.7,150.7,0,0,0,5.77-14.37L197.2,339,82.55,382.65l102.2-68.83,11.59-8.09,7,10-2.21-42.28c-.45-8.66-1.32-18-2.73-29.3l-8.13-65.28,34.19,56.21a35.23,35.23,0,0,1,3.69,7.78,38.81,38.81,0,0,1,1.5,7.63c.1.86.25,2,.36,2.43,0,0,.13.24.22.44a29.68,29.68,0,0,1,1.23,2.84,23.08,23.08,0,0,1,.91,3.18L236,276.12l-7.05.15-.26.72-14.39,39.86a1.15,1.15,0,0,0,.23-.18,24,24,0,0,0,1.93-4.34c.46-1.21.93-2.41,1.43-3.6,3.7-8.64,9.35-15.65,14.33-21.84,1.61-2,3.23-4,4.75-6a40.08,40.08,0,0,0,3.06-4.68l3.8-6.84a18.59,18.59,0,0,1,1-2.58c.07-.16.15-.33.23-.49l-.12-.27,0-.1c-5.19-12-7.21-24.21-9.17-36.06-.8-4.86-1.56-9.45-2.52-14-1.92-9.05-4.84-18.31-7.65-27.27-3.64-11.58-7.39-23.54-13-33.74v0l-5.61-.64L204,146.47a40.39,40.39,0,0,0-11.55-3.64c-1.83-.32-3.65-.67-5.48-1-7.06-1.35-13.74-2.61-20-2.31l-43.78,19.24-2,17.39-6.87-13.47-4.8,2.11,3.71-4.25L102.7,140c-3.43.6-6.87,1.38-10.51,2.2-3.14.7-6.27,1.41-9.45,2-3.49.67-6.9,1.1-10.2,1.51-7.22.91-13.47,1.7-17.77,4.59-.49.33-.89.63-1.22.9l1.58,6-6.43,5.09c-.11.24-.26.61-.46,1.16-4,10.95-5.79,23.37-7.56,35.38-1.43,9.77-2.78,18.94-3.25,28.14-.24,4.59-.26,9.25-.29,14.17-.06,12-.12,24.43-3.36,37.06,0,.13-.07.26-.1.39s.21.3.31.46a19.36,19.36,0,0,1,2.18,4.41l2.73.47,2.19,9a33,33,0,0,0,3,7.29c1.19,2.26,2.47,4.49,3.74,6.71,4,6.89,8.44,14.7,10.74,23.82.32,1.24.59,2.51.85,3.77a24.27,24.27,0,0,0,1.24,4.61c.08.14,1,1.42,6.13,3.09l5.35,1.73,2.69,4.93c.9,1.64,1.82,3.28,2.74,4.91l3.39.56,0,4.3,10,14.07-10,1.66a2.09,2.09,0,0,1,0,.25l.45,30.72a31.47,31.47,0,0,0,.47,6.38c.7,2.67.76,5,.57,18.42h45.83c.27-10.29.63-12.6,1.85-15.38l13.6-31.17,12.46,31.65A130.23,130.23,0,0,1,160.88,430.13ZM54.46,418.8a.06.06,0,0,1,0,0A.06.06,0,0,0,54.46,418.8Zm6.89-39.45.17.06Zm126.44-50.46-6.68,4.36Zm44.05-65v0Zm-105.13-135-2.2,18.71,25.94-29.69L121.57,90.27l32.8,7.91c0-.29,0-.57,0-.85a11,11,0,0,0-.44-2.94c0-.11-.08-.26-.12-.41a21.12,21.12,0,0,1-5.1-9.46l-.56-1,.07-3.24-.13-2.48.39-.84a18.91,18.91,0,0,1,1.61-5.18l-.25-1.38.22-2.07a14.18,14.18,0,0,0-.36-4.4L146.8,51.38l.93-.3a15.88,15.88,0,0,0-17.85-9.86l-10,2-1.39.51a15.78,15.78,0,0,0-10.45,15l3.08-.23V74l.21,14.32h-2l.89,4.69,6.59.84-.11,12,14.2-4.93-1.65,5,.72-.23Zm-1.08-6.38v0S125.63,122.5,125.63,122.49Zm27.92-29.2Zm-45.77-.63Zm54.38-45.3h0l1.69-.55ZM74.34,260.29l-28-2.2a33,33,0,0,1,.33-5.25v0a31.11,31.11,0,0,1,1.28-5.17L75.31,254C75,256.08,74.69,258.18,74.34,260.29Z"/><path class="cls-3" d="M58.82,453.36l.1-9.22c0-3.65.09-7.17.14-10.44l0-1.26c.1-6.15.19-12.52.1-15v-.15l-4.11,1.28L59.13,417l0,.12V417l-.1-.45a51.68,51.68,0,0,1-1-10.88L57.64,375q0-2.16-.06-4.32v-.85l-.44-1.24L57,368.2l-.16-.31a9.06,9.06,0,0,1-.83-2.48l-.48-2.5-2.3-1.09c-5.73-2.7-9.85-6.26-12.58-10.87-2.36-4-3.22-8.06-4-11.66l-.06-.27c-.18-.87-.37-1.74-.59-2.61-1.51-6-4.83-11.79-8.35-17.92l-.11-.2c-1.35-2.34-2.74-4.77-4.05-7.26a64.15,64.15,0,0,1-3.34-7.32l-.41-1.09-.85-.79c-.21-.2-.41-.4-.6-.61A15.54,15.54,0,0,1,14.56,293l-.23-1.3-.85-1c-.19-.24-.39-.49-.59-.77-4.5-6.18-2.64-13.46-1.63-17.37,2.55-10,2.6-20.43,2.66-31.51,0-5,.05-10.12.31-15.26.54-10.32,2-20.45,3.47-30.26,1.93-13.18,3.94-26.81,8.7-40a31.8,31.8,0,0,1,2.75-5.88l.58-.93.13-1.08c.77-6.16,4.9-11.92,12-16.65,8.89-6,18.51-7.19,27.82-8.36,3.07-.39,6-.75,8.72-1.28s5.72-1.19,8.48-1.81l3.45-.78,4.94-1.09-1.15-4.93-.34-1.49-1.11-1.05a14.36,14.36,0,0,1-4-6.85l-.14-.67-1.63-8.54-3.13-6.59a13.62,13.62,0,0,1-1.22-7l0-.24v-.66l.31-1,1.07-4.56a11.76,11.76,0,0,1,1.3-3.25l1-1.63-.61-3.12a38.71,38.71,0,0,1,23.2-43.52l.46-.19.42-.28a22.19,22.19,0,0,1,4.56-2.41,18.74,18.74,0,0,1,6.6-1.31,14.68,14.68,0,0,1,2.22.17l.88.19,1.57-.31A39.86,39.86,0,0,1,133,17.7a39.33,39.33,0,0,1,38.37,31.62l3.38,17.31-1.85.61.86,4.34c.06.31.12.65.16,1l0,.22,0,.22a9.92,9.92,0,0,1-.29,5.27L173,80.36,174,82.29a28.36,28.36,0,0,1,2.1,5.2,34.08,34.08,0,0,1,1.47,9.06,64.89,64.89,0,0,1-.86,11.62l-.28,1.92,1.09,1.6c.12.19.25.38.36.57a11.66,11.66,0,0,1,1,2l1,2.76,2.91.46c2.9.47,5.77,1,8.54,1.54l.14,0c1.68.32,3.37.64,5.06.94,12.89,2.28,22.3,6.85,26.5,12.87l.6.87.91.55c4.63,2.8,7.17,7.38,8.26,9.34,6.79,12.25,10.9,25.34,14.88,38l0,.11c3,9.45,6,19.22,8.19,29.31,1.07,5.06,1.91,10.13,2.72,15,1.5,9.13,2.94,17.85,5.74,25.92l-8.54,3.7,4,9.19,8.22-3.49c1.11,3.65,1.67,8.23-.65,12.79-.15.3-.31.58-.46.83l-.68,1.15v1.33a15.44,15.44,0,0,1-2.42,8.71,13.09,13.09,0,0,1-4.43,4.1l-1,.58-.66,1c-.65,1-1.35,1.95-2.06,2.9-1.75,2.34-3.61,4.66-5.26,6.7-4.45,5.52-8.63,10.71-11.07,16.42-.35.81-.67,1.64-1,2.47l-.11.27c-1.31,3.44-2.79,7.32-5.75,10.88a22.82,22.82,0,0,1-3.4,3.33l-1.31,1.06-.53,2.13c-.18.68-.36,1.39-.55,2.09a120.47,120.47,0,0,1-6.35,17.15l-.54,1.23.15,1.33a10,10,0,0,1,0,1.45l0,.64,2.2,10c.25,1.15,1.37,7.52,4.82,27.38l.29,1.68c2.25,12.91,4.91,28.24,7.28,41.69l1.89,10.7Zm92.62-36.3A125.11,125.11,0,0,1,156,431.4l1,3.73h57.6l-1-5.86c-1.23-7-2.47-14.15-3.62-20.77l-1.06-6.09c-2.62-15.12-4.37-25.13-4.66-26.6L202.09,366l-.78-.79V361l-.09-.45c-.11-.61-.2-1.23-.27-1.93l-.27-2.79,1.44-2.65.16-.37a149.39,149.39,0,0,0,5.88-14.69l3.21-10L209,329l-.14-2.52,8.18-5.5a6.35,6.35,0,0,0,1.06-.88l.12-.12.11-.14c.89-1.07,1.54-2.57,2.75-5.74.42-1.11.88-2.29,1.36-3.42,3.43-8,8.85-14.74,13.63-20.67,1.61-2,3.27-4.07,4.86-6.19a45,45,0,0,0,3.42-5.24l4.07-7.33.16-.53a13.17,13.17,0,0,1,.71-1.91c.06-.14.11-.25.17-.37l1-2.08-1.08-2.48c-4.95-11.38-6.92-23.32-8.82-34.86-.78-4.7-1.57-9.54-2.57-14.21-2-9.3-4.92-18.67-7.77-27.73-3.7-11.77-7.52-23.94-13.39-34.58l-.13-.25-1.52-2.14-4.77-.55-2.39-6.51-1.55-.91a44.72,44.72,0,0,0-13.21-4.25c-1.8-.32-3.61-.66-5.41-1-6.6-1.25-12.82-2.43-19-2.43-.73,0-1.45,0-2.17.05l-.92,0L128,151.17l29.35-33.59-18.93-18.1,20.88,5,.06-6.28c0-.36,0-.71,0-1.06a16.49,16.49,0,0,0-.66-4.27l-.46-1.44-.7-.79a16.19,16.19,0,0,1-4-7.3l-.16-.69-.24-.42,0-2.07-.07-1.42.15-.34.11-.69a14.2,14.2,0,0,1,1.19-3.81l.71-1.47-.42-2.26.14-1.34a19.31,19.31,0,0,0-.46-6.07L152.7,54.7l1.58-.52-1.89-4.9a20.85,20.85,0,0,0-23.47-13l-10.42,2-1.76.65A20.85,20.85,0,0,0,103,58.81l.07,5.32,3-.23V74l.14,9.32H103.3L104.39,89A5,5,0,0,0,106,97.32l0,.16,5.78.73-.13,14.68,11.38-4-1.55,4.76,2.43-.78-2.17,15.36-3.63,30.88-12.63-24.77-3.64.64c-3.52.61-7,1.39-10.66,2.22-3.12.7-6.25,1.4-9.39,2-3.34.64-6.66,1.06-9.87,1.46-7.86,1-14.65,1.85-19.94,5.4a19.25,19.25,0,0,0-1.61,1.2l-2.47,2,1.56,6-4.82,3.82-.5,1.11c-.14.32-.34.8-.6,1.5-4.14,11.44-6,24.11-7.8,36.36-1.45,9.87-2.82,19.18-3.3,28.61-.25,4.74-.27,9.44-.3,14.41-.06,11.72-.12,23.82-3.2,35.84l-.67,2.62,1.31,1.87c.08.12.16.23.23.35a14.09,14.09,0,0,1,1.63,3.3l1,2.79,2.41.41,1.41,5.8a38.54,38.54,0,0,0,3.41,8.45c1.19,2.24,2.45,4.45,3.68,6.58l.16.28C47.27,316,51.57,323.5,53.7,332c.31,1.2.58,2.48.81,3.57.63,3,1.06,4.84,1.84,6.15,1.21,2,4,3.72,8.88,5.29l3.46,1.12,1.74,3.18q1.36,2.49,2.77,5l1.17,2.08,1.52.25,0,1.64,6.29,8.88-6.41,1.06.11,4.65v-.11l.45,30.73A34.06,34.06,0,0,0,77,413c.53,2,.58,4.42.4,17.09l-.08,5.07h55.78l.13-4.87c.26-10,.6-11.61,1.43-13.5l8.78-20.14ZM59.5,384l.23.09,3.48-9.37-.12,0Zm128.05-66,7.55-5.27,10.1,14.52-.84,2.32,1.67-1.12,1,1.4-11.63,4.56-74,28.15Zm18.54-44.76c-.46-8.78-1.34-18.2-2.77-29.65l-5.25-42.16,22.08,36.29a31.55,31.55,0,0,1,3.2,6.7,35.22,35.22,0,0,1,1.3,6.72,19,19,0,0,0,.54,3.27l.16.54.23.4.09.2c.36.74.76,1.6,1.06,2.42a19,19,0,0,1,.71,2.53l2.34,10.79-4.38.1-1.18,3.19-15.78,43.69Z"/><path class="cls-4" d="M218.87,268.73c-.14,1.28-.26,3.14.61,3a31.36,31.36,0,0,1,23.85,6.47c1.95,1.56,3.75,3.38,6.07,4.31s5.36.66,6.75-1.41c1.63-2.42.23-5.85,1.44-8.51.42-.91,1.12-1.67,1.58-2.57,1.55-3-.05-6.63-1.41-9.76-6.46-14.88-7.44-31.47-10.82-47.34-2.07-9.67-5-19.12-8-28.56-3.9-12.43-7.84-25-14.16-36.35-1.63-3-3.77-6.08-7.07-6.79-4.11-.89-7.9,2.35-10.57,5.59-11.56,14-16.64,32.73-15.69,50.86a61.24,61.24,0,0,0,3.83,19.65,33,33,0,0,0,5,8.73,26.4,26.4,0,0,0,3.47,3.54c1.14,1,3.17,1.85,3.9,3.14a8.68,8.68,0,0,1,.69,2c1.29,4.47,4.91,8,6.32,12.4,1.12,3.53.78,7.43,2.15,10.87.41,1.05,1,2,1.37,3.09.79,2.14.66,4.27.78,6.49C219,267.77,218.92,268.2,218.87,268.73Z"/><path class="cls-4" d="M59.86,276.9c.33,1.25.74,3.06-.13,3.07a31.37,31.37,0,0,0-22.54,10.15c-1.67,1.85-3.17,3.94-5.3,5.22s-5.2,1.49-6.9-.33c-2-2.13-1.15-5.75-2.76-8.17-.56-.84-1.37-1.48-2-2.29-2-2.76-1-6.56-.15-9.86,4-15.72,2.39-32.26,3.23-48.46.5-9.88,1.94-19.68,3.38-29.46,1.89-12.89,3.81-25.88,8.25-38.13,1.15-3.18,2.77-6.6,5.92-7.83,3.91-1.52,8.16,1.08,11.31,3.85,13.63,12,21.59,29.7,23.52,47.76a61.66,61.66,0,0,1-.68,20,33.43,33.43,0,0,1-3.57,9.41,26.63,26.63,0,0,1-2.87,4c-1,1.13-2.84,2.33-3.36,3.71a9.26,9.26,0,0,0-.37,2.09c-.56,4.62-3.58,8.65-4.27,13.25-.56,3.66.4,7.46-.41,11.08-.24,1.09-.65,2.15-.87,3.26-.44,2.23,0,4.32.26,6.54C59.6,276,59.72,276.38,59.86,276.9Z"/><path class="cls-5" d="M111.79,135.87a5.39,5.39,0,0,0,.18,3.33,5.46,5.46,0,0,0,1.54,1.6c4.37,3.42,8.86,6.91,14.15,8.61s11.6,1.27,15.67-2.49c2-1.87,12.94-11.23,14-13.77,1.32-3.21-7.32.21-7.48-3.26a12.15,12.15,0,0,0-4.33-9.12c-2.93-2.25-6.9-2.61-10.59-2.33s-7.34,1.19-11,.94c-2-.14-6.27-2.62-8-2C112.77,118.62,112.32,132.53,111.79,135.87Z"/><path class="cls-5" d="M103.11,106.15c-.11,9.16,14.36,17.66,20.35,20.65,5.2,2.59,14.36,3.44,23,3.13,1,0,2-.1,3-.16.3,0,.6,0,.89-.06,9.73-.74,11.22-8.23,12-12s5.13-24.73,4.49-28.45c-.74-4.32-3.74-4.53-4.49-8.23A5.31,5.31,0,0,1,164.24,76c1.13-1.09.4-3.17.4-3.17L161.7,57.06,156.5,51l-3.09-3.6L142.75,47l-35-1.14L101,77.32S103.2,99.42,103.11,106.15Z"/><path class="cls-6" d="M142.25,50.87c.27,1.89,1.55,3.71,2.08,5.62a27.45,27.45,0,0,1,.85,4.69c0,.53.48.93.5,1.45s-.39,1-.39,1.47a4.82,4.82,0,0,0,.19,1.93,5.35,5.35,0,0,1,.41,1,6.6,6.6,0,0,1-.3,1.62c-.14,1.43,1.37,2.39,2.22,3.54a4.47,4.47,0,0,1,.45,4.54c-.49,1-1.38,1.87-1.56,3s.55,2.4,1.14,3.51c2,3.81,2.57,8.21,3.07,12.48.23,1.86,0,4.37-1.82,4.76-.44.1-.92,0-1.39.09a3.26,3.26,0,0,0-2.43,2.68,13.36,13.36,0,0,0,0,3.84c.45,5.57-1.15,11.15-.76,16.73a11.44,11.44,0,0,0,2,6.08c1,0,2-.1,3-.16.3,0,.6,0,.89-.06,9.73-.74,11.22-8.23,12-12s5.13-24.73,4.49-28.45c-.74-4.32-3.74-4.53-4.49-8.23A5.31,5.31,0,0,1,164.24,76c1.13-1.09.4-3.17.4-3.17L161.7,57.06,156.5,51l-3.09-3.6L142.75,47A8,8,0,0,0,142.25,50.87Z"/><path class="cls-7" d="M144.44,110l2-1.85s.8-.78.85-.79a8.89,8.89,0,0,1,1.46,0,44.58,44.58,0,0,0,4.37,2.45,17.17,17.17,0,0,0,1.79-1l1.33,2.69s-3.15-1.46-3.36-1.46Z"/><path class="cls-7" d="M147.69,110l-2.18-1.85s-.85-.78-.9-.79a10,10,0,0,0-1.55,0,47.31,47.31,0,0,1-4.65,2.45,19.56,19.56,0,0,1-1.9-1l-1.41,2.69s3.35-1.46,3.57-1.46Z"/><path class="cls-5" d="M92.15,84.19l3.36,7a.88.88,0,0,1,0,.15l1.84,9.71A5.31,5.31,0,0,0,99.35,104l2.75,2a.93.93,0,0,0,.52.21c.54.06,1.77.19,2.78.26a1.94,1.94,0,0,0,1.67-1.51l-.92-9.68,0-.3L106,91.56a16,16,0,0,1-3.65-8.71,2.17,2.17,0,0,1,0-.25l0-.23c0-.15,0-.29,0-.44l0-.22-.68-4.39-.58-1.09a3.92,3.92,0,0,0-.45-.67,3.88,3.88,0,0,0-3-1.39H95.29a2.61,2.61,0,0,0-2.55,2l-1.1,4.67s0,.09,0,.14v0A4.62,4.62,0,0,0,92.15,84.19Z"/><g class="cls-8"><path class="cls-9" d="M97.6,83.56a18.17,18.17,0,0,0,1.09,3.08l.15.4.16.39,0,.11a2.72,2.72,0,0,0,.11.25c.11.26.24.52.36.77l0,.09c.4.78.77,1.41.77,1.41.09,2,.27,3.41.9,4.21,0,0,0,0,0,0a1.87,1.87,0,0,0,1.46.72H103a2.57,2.57,0,0,0,2.63-2,7.58,7.58,0,0,0,.27-2.35l-.38-.4a13,13,0,0,1-2.94-7.15,8.4,8.4,0,0,0-.68-.66s0,0,0,0a3.76,3.76,0,0,0-1.06-.69s0,0,0,0c-1.15-.48-1.58-.79-2.79,0h0a.87.87,0,0,0-.29.34s0,0,0,0A2.38,2.38,0,0,0,97.6,83.56Z"/></g><path class="cls-7" d="M97,82.76a.79.79,0,0,0,.07.37l.06.17.12.32.52,1.44.52,1.43c.17.48.35.94.57,1.42l.39.81a3.34,3.34,0,0,0,.25.4c.06.07.11.14.18.21l.09.11a5,5,0,0,1,.46,1.53l.3,1.69a8.09,8.09,0,0,0,.44,1.67.06.06,0,0,0,0,0h0a1.34,1.34,0,0,0,.27.43,1.59,1.59,0,0,0,.46.29,2,2,0,0,0,1,.14h0a4.1,4.1,0,0,0,.48-.1l.22-.09.23-.11a.26.26,0,0,0,.1-.36.27.27,0,0,0-.36-.09h0l-.16.08a.64.64,0,0,1-.18.06,1.53,1.53,0,0,1-.37.08h0a1.48,1.48,0,0,1-.73-.1,1,1,0,0,1-.28-.18,1.19,1.19,0,0,1-.19-.3h0c0,.07,0,.1,0,.1l0-.1h0l-.24-.16h0s0,0,.18.08l0,.06a8.49,8.49,0,0,1-.39-1.58l-.28-1.7a5.33,5.33,0,0,0-.52-1.76l-.18-.22-.1-.12a2.33,2.33,0,0,1-.2-.34l-.35-.74h0v0c-.2-.43-.38-.91-.55-1.39l-.49-1.43-.5-1.44L97.76,83l-.06-.18v0a1.21,1.21,0,0,1,.24-.51h0L98.2,82a2.37,2.37,0,0,1,.3-.23,1.44,1.44,0,0,1,.66-.22,1.4,1.4,0,0,1,.7.14l.37.19.18.1.1,0,0,0h0l0,0,1,.68,0,0,.63.47h0a.4.4,0,0,0,.29.07l0-.2,0-.19,0-.34,0-.18-.37-.27,0,0-1.09-.7.08.06-.1-.07,0,0,0,0-.1,0-.21-.1-.42-.21a2.06,2.06,0,0,0-1-.18,2,2,0,0,0-1,.34,3.08,3.08,0,0,0-.74.7l0,0,0,0A1.86,1.86,0,0,0,97,82.76Zm.9-.42v0h0Z"/><g class="cls-10"><path class="cls-9" d="M136.17,77.57c-1.38-.69-5-1.43-6.58-1-2.74.71-4.87,2.44-4.86,2.7a4.4,4.4,0,0,0,.5,1.48c.34.39,1.1.21,1.61,0,2.07-1,3.95-2.26,6.26-2.74a3.38,3.38,0,0,1,1.58,0,3.27,3.27,0,0,1,1.3.8c1.07.93,1.79,2,3.33,2.23.52-.23.37-1.72.33-2.19S137.27,78.12,136.17,77.57Z"/></g><path class="cls-7" d="M128,81.33l1.15.84a5.19,5.19,0,0,0,1.46.7,9,9,0,0,0,3.22.26,4.26,4.26,0,0,0,1.57-.49,9.4,9.4,0,0,0,1.27-.79l.57-.41a1.1,1.1,0,0,1,.53-.26,7.78,7.78,0,0,0,1.44-.36h0l-.14-.22c-.44.25-.26.65.24.18a.12.12,0,0,0,0-.19l-.08,0h0a4.25,4.25,0,0,0-1.59.1,2.35,2.35,0,0,0-.44.13,2.53,2.53,0,0,0-.36.23l-.57.42a5.08,5.08,0,0,1-2.44,1.17,7.92,7.92,0,0,1-2.86-.35,3.78,3.78,0,0,1-1.13-.64l-1.11-.86a.57.57,0,0,0-.69,0,.35.35,0,0,0,0,.56Z"/><ellipse class="cls-7" cx="133.62" cy="79.92" rx="2.21" ry="2.15"/><path class="cls-11" d="M139,80.36a1.16,1.16,0,0,1-.59-.14c-.15-.11-.4-.33-.61-.49l-1.29-1.07-.68-.53-.37-.26a1.31,1.31,0,0,0-.65-.26,14,14,0,0,0-1.94,0,13,13,0,0,0-3.79.74,8.14,8.14,0,0,0-3.19,2h0a.66.66,0,0,0,.19,1.06,1.08,1.08,0,0,0,1.31-.16l.06-.07a5.67,5.67,0,0,1,2.29-1.84,10.68,10.68,0,0,1,3.25-.88,12.88,12.88,0,0,1,1.74-.1c-.11,0,.06,0,.15.08l.34.22a8.05,8.05,0,0,1,.66.49c.44.33.87.69,1.3,1,.23.18.39.34.7.55a2.1,2.1,0,0,0,1.15.24c.23,0,.41-.14.4-.32a.37.37,0,0,0-.39-.33Z"/><path class="cls-12" d="M140.18,78.12a14.16,14.16,0,0,1-4.93-1A9.27,9.27,0,0,0,125,78.87"/><path class="cls-13" d="M151.19,80.87a.57.57,0,0,1-.44-.45,1.59,1.59,0,0,1,0-.65l.18-1a1.34,1.34,0,0,1,1-1,16.34,16.34,0,0,0,4.69-1.1,3.12,3.12,0,0,1,1-.19,3.44,3.44,0,0,1,1.17.27,10.25,10.25,0,0,1,2.08.79,1.87,1.87,0,0,1,1,1.61c0,.22.41,1.1.27,1.28-.27.35-.45.12-.85-.06a5.05,5.05,0,0,1-1.07-.78,7.84,7.84,0,0,0-4-1.36,5.08,5.08,0,0,0-1.65,0,4.29,4.29,0,0,0-2.07,1.17C152.32,79.6,151.51,80.91,151.19,80.87Z"/><path class="cls-7" d="M160.75,79.85l-.94.94a3.73,3.73,0,0,1-1,.74,6.6,6.6,0,0,1-2.59.65,4,4,0,0,1-2.46-.76c-.4-.23-.74-.48-1.18-.74a2.26,2.26,0,0,0-.82-.23,1.83,1.83,0,0,0-.77.08H151a.16.16,0,0,0-.13.18.16.16,0,0,0,0,.07c.15.22.72.29.29-.2l-.15.25c.44.2,1,.17,1.22.34s.76.49,1.17.72a8.59,8.59,0,0,0,1.33.63,4.45,4.45,0,0,0,.76.19,3.64,3.64,0,0,0,.8,0,7.92,7.92,0,0,0,3-.6,4.33,4.33,0,0,0,1.25-.83l1-.91a.39.39,0,0,0,0-.6.57.57,0,0,0-.7,0Z"/><ellipse class="cls-7" cx="157.02" cy="79.99" rx="1.94" ry="1.85"/><path class="cls-11" d="M151.58,81a2.45,2.45,0,0,0,.44-.3l.26-.26.49-.49c.33-.33.66-.65,1-.95a6.47,6.47,0,0,1,.51-.43c.07-.06.22-.14.17-.12s0,0,0,0h.26a11.7,11.7,0,0,1,1.45,0,8.1,8.1,0,0,1,2.73.65,4.78,4.78,0,0,1,2,1.5,1,1,0,0,0,1.24.24.66.66,0,0,0,.17-1l-.08-.09h0a7.39,7.39,0,0,0-2.79-1.63,11.54,11.54,0,0,0-3.18-.51,12.09,12.09,0,0,0-1.59.07l-.2,0-.1,0-.18,0a1.3,1.3,0,0,0-.28.15l-.16.12a6.84,6.84,0,0,0-.55.5c-.35.33-.67.66-1,1l-.49.49-.24.24s-.09,0-.19.06a.41.41,0,0,0-.42.4.45.45,0,0,0,.48.36.65.65,0,0,0,.21-.06Z"/><path class="cls-11" d="M150.18,74.85a8.46,8.46,0,0,0,4.43-.23c1.36-.34,2.76-.65,4.08-.94a5.47,5.47,0,0,1,3.72.42,15,15,0,0,1,3.36,2.31l.5-.57a22.86,22.86,0,0,0-3.38-2.65,7.62,7.62,0,0,0-2.08-.9,8.19,8.19,0,0,0-2.3-.21c-1.45.08-2.81.19-4.23.24a6.6,6.6,0,0,1-3.47-.39Z"/><path class="cls-11" d="M142,75.75a14.61,14.61,0,0,1-5.65-.63c-1.64-.44-3.3-.84-4.92-1.24a8.43,8.43,0,0,0-4.67,0,17.5,17.5,0,0,0-4.43,2.17l-.46-.71a26.41,26.41,0,0,1,4.51-2.55,10.54,10.54,0,0,1,2.62-.69,13.64,13.64,0,0,1,2.71,0c1.71.16,3.38.34,5.07.46a10.26,10.26,0,0,0,4.42-.3Z"/><path class="cls-7" d="M148.11,101.28h.35a3.8,3.8,0,0,0,3.2-2.76,8,8,0,0,0-.09-3.84c-.39-2.07-.85-4.17-1.28-6.19l0-.12A14.75,14.75,0,0,0,148,82.43q-.15-.21-.33-.42a3.72,3.72,0,0,1-.88-1.52c-.16-.95.65-1.88,1.36-2.49l.61-.51a7.11,7.11,0,0,0,1.95-2,5,5,0,0,0,.25-3.58l-.91.16a4.27,4.27,0,0,1-.18,3.06,6.61,6.61,0,0,1-1.73,1.78l-.64.52c-1.24,1.08-1.81,2.19-1.63,3.22a4.28,4.28,0,0,0,1,1.87l.32.4a14.16,14.16,0,0,1,2.1,5.62l0,.13c.44,2,.89,4.1,1.28,6.16a7.52,7.52,0,0,1,.11,3.51,3,3,0,0,1-2.4,2.14,5.38,5.38,0,0,1-2.84-.88,6.2,6.2,0,0,0-3.44-1,6.9,6.9,0,0,0-1.23.29,3.68,3.68,0,0,1-1.31.26,1.47,1.47,0,0,1-1.34-1A1.3,1.3,0,0,1,139,96.7l-.4-.75a2.13,2.13,0,0,0-1.33,2.31,2.38,2.38,0,0,0,2.2,1.71,4.49,4.49,0,0,0,1.69-.3,5.82,5.82,0,0,1,1-.25,5.4,5.4,0,0,1,2.86.87A6.83,6.83,0,0,0,148.11,101.28Z"/><path class="cls-12" d="M151.33,77.73a9.6,9.6,0,0,0,4-.85c2.27-1.11,3.88-.62,5.73.7"/><path class="cls-11" d="M146.78,102.13a2.2,2.2,0,0,1,1.09-.38,7.49,7.49,0,0,1,4.12.78c2.7,1.3,4.47,3.8,6.95,5.41a7.58,7.58,0,0,0,6.43,1.14c.42-.15,1.06-.3,1.22.06.25.56-1.05.7-1.33.75a31.07,31.07,0,0,1-13.67-.26,8.81,8.81,0,0,1-4.29-2.4,2.11,2.11,0,0,1-.37-.53,2.5,2.5,0,0,1-.13-.81,14,14,0,0,0-.24-2.14C146.44,103.16,146.23,102.58,146.78,102.13Z"/><path class="cls-11" d="M145.57,102.13a2.16,2.16,0,0,0-1.08-.38,7.46,7.46,0,0,0-4.12.78c-2.7,1.3-4.48,3.8-7,5.41-1.81,1.18-4.33,1.91-6.43,1.14-.43-.15-1.06-.3-1.22.06-.26.56,1,.7,1.33.75a31,31,0,0,0,13.66-.26,8.89,8.89,0,0,0,4.3-2.4,2.07,2.07,0,0,0,.36-.53,2.25,2.25,0,0,0,.13-.81,14,14,0,0,1,.25-2.14C145.91,103.16,146.12,102.58,145.57,102.13Z"/><path class="cls-14" d="M112.9,128.93c-2.37-5.77-7.28-3.81-12.54-2.9-6.83,1.19-13.46,3-20.29,4.28-11.18,2.15-23.43,1.7-33.17,8.25-4.72,3.17-9.82,8.42-7.41,14.36,2.06,5.07,3.28,10.31,5.38,15.35,3.2,7.72,4.68,16,7.74,23.86,5,12.88,7.14,26.09,9.07,39.76,2.16,15.26-2.59,29.79-4.21,44.85-1.12,10.5-.4,22,3.7,31.86,4.88,11.73,14.25,18.52,25.29,24.08,21.52,10.83,44.84,12.38,68.2,7.47,22-4.63,46.1-13.44,55.89-35.58,4.16-9.4,5.24-18.93,4.8-29.14-.6-14.19-2.32-28.33-4.19-42.41-.93-7-2.85-13.61-3.43-20.69a101.55,101.55,0,0,1,.65-22A172.4,172.4,0,0,1,216.54,158c4-11.59-.07-18.46-.93-19.77-3.46-5.24-14.79-8.22-20.72-9.27-9.69-1.72-19.27-4.1-29.18-3.49-7.8.47-10.08,7.47-15.71,11.83-8.93,6.91-24,7.72-32.24-.29-2.11-2-3.1-5.39-4.86-7.19"/><g class="cls-15"><polygon class="cls-16" points="9.02 101.57 18.84 113.92 10.33 127.2 0.52 114.86 9.02 101.57"/><polygon class="cls-16" points="27.34 100.64 37.16 112.98 28.65 126.26 18.84 113.92 27.34 100.64"/><polygon class="cls-16" points="45.66 99.7 55.47 112.05 46.97 125.33 37.16 112.98 45.66 99.7"/><polygon class="cls-16" points="63.98 98.76 73.79 111.11 65.29 124.39 55.47 112.05 63.98 98.76"/><polygon class="cls-16" points="82.3 97.83 92.11 110.17 83.61 123.45 73.79 111.11 82.3 97.83"/><polygon class="cls-16" points="100.62 96.89 110.43 109.24 101.93 122.52 92.11 110.17 100.62 96.89"/><polygon class="cls-16" points="118.94 95.95 128.75 108.3 120.25 121.58 110.43 109.24 118.94 95.95"/><polygon class="cls-16" points="10.33 127.2 20.15 139.55 11.64 152.83 1.83 140.48 10.33 127.2"/><polygon class="cls-16" points="28.65 126.26 38.47 138.61 29.96 151.89 20.15 139.55 28.65 126.26"/><polygon class="cls-16" points="46.97 125.33 56.78 137.67 48.28 150.96 38.47 138.61 46.97 125.33"/><polygon class="cls-16" points="65.29 124.39 75.1 136.74 66.6 150.02 56.78 137.67 65.29 124.39"/><polygon class="cls-16" points="83.61 123.45 93.42 135.8 84.92 149.08 75.1 136.74 83.61 123.45"/><polygon class="cls-16" points="101.93 122.52 111.74 134.86 103.24 148.15 93.42 135.8 101.93 122.52"/><polygon class="cls-16" points="120.25 121.58 130.06 133.93 121.56 147.21 111.74 134.86 120.25 121.58"/><polygon class="cls-16" points="11.64 152.83 21.46 165.17 12.95 178.46 3.14 166.11 11.64 152.83"/><polygon class="cls-16" points="29.96 151.89 39.78 164.24 31.27 177.52 21.46 165.17 29.96 151.89"/><polygon class="cls-16" points="48.28 150.96 58.09 163.3 49.59 176.58 39.78 164.24 48.28 150.96"/><polygon class="cls-16" points="66.6 150.02 76.41 162.36 67.91 175.65 58.09 163.3 66.6 150.02"/><polygon class="cls-16" points="84.92 149.08 94.73 161.43 86.23 174.71 76.41 162.36 84.92 149.08"/><polygon class="cls-16" points="103.24 148.15 113.05 160.49 104.55 173.77 94.73 161.43 103.24 148.15"/><polygon class="cls-16" points="121.56 147.21 131.37 159.55 122.87 172.84 113.05 160.49 121.56 147.21"/><polygon class="cls-16" points="12.95 178.46 22.77 190.8 14.26 204.08 4.45 191.74 12.95 178.46"/><polygon class="cls-16" points="31.27 177.52 41.09 189.86 32.58 203.15 22.77 190.8 31.27 177.52"/><polygon class="cls-16" points="49.59 176.58 59.41 188.93 50.9 202.21 41.09 189.86 49.59 176.58"/><polygon class="cls-16" points="67.91 175.65 77.72 187.99 69.22 201.27 59.41 188.93 67.91 175.65"/><polygon class="cls-16" points="86.23 174.71 96.04 187.05 87.54 200.34 77.72 187.99 86.23 174.71"/><polygon class="cls-16" points="104.55 173.77 114.36 186.12 105.86 199.4 96.04 187.05 104.55 173.77"/><polygon class="cls-16" points="122.87 172.84 132.68 185.18 124.18 198.46 114.36 186.12 122.87 172.84"/><polygon class="cls-16" points="14.26 204.08 24.08 216.43 15.57 229.71 5.76 217.36 14.26 204.08"/><polygon class="cls-16" points="32.58 203.15 42.4 215.49 33.89 228.77 24.08 216.43 32.58 203.15"/><polygon class="cls-16" points="50.9 202.21 60.72 214.55 52.21 227.84 42.4 215.49 50.9 202.21"/><polygon class="cls-16" points="69.22 201.27 79.03 213.62 70.53 226.9 60.72 214.55 69.22 201.27"/><polygon class="cls-16" points="87.54 200.34 97.35 212.68 88.85 225.96 79.03 213.62 87.54 200.34"/><polygon class="cls-16" points="105.86 199.4 115.67 211.74 107.17 225.03 97.35 212.68 105.86 199.4"/><polygon class="cls-16" points="124.18 198.46 133.99 210.81 125.49 224.09 115.67 211.74 124.18 198.46"/><polygon class="cls-16" points="137.08 95.11 146.9 107.46 138.39 120.74 128.58 108.4 137.08 95.11"/><polygon class="cls-16" points="155.4 94.18 165.21 106.52 156.71 119.81 146.9 107.46 155.4 94.18"/><polygon class="cls-16" points="173.72 93.24 183.53 105.59 175.03 118.87 165.21 106.52 173.72 93.24"/><polygon class="cls-16" points="192.04 92.3 201.85 104.65 193.35 117.93 183.53 105.59 192.04 92.3"/><polygon class="cls-16" points="210.36 91.37 220.17 103.71 211.67 117 201.85 104.65 210.36 91.37"/><polygon class="cls-16" points="228.68 90.43 238.49 102.78 229.99 116.06 220.17 103.71 228.68 90.43"/><polygon class="cls-16" points="247 89.49 256.81 101.84 248.31 115.12 238.49 102.78 247 89.49"/><polygon class="cls-16" points="138.39 120.74 148.21 133.09 139.7 146.37 129.89 134.02 138.39 120.74"/><polygon class="cls-16" points="156.71 119.81 166.53 132.15 158.02 145.43 148.21 133.09 156.71 119.81"/><polygon class="cls-16" points="175.03 118.87 184.84 131.21 176.34 144.5 166.53 132.15 175.03 118.87"/><polygon class="cls-16" points="193.35 117.93 203.16 130.28 194.66 143.56 184.84 131.21 193.35 117.93"/><polygon class="cls-16" points="211.67 117 221.48 129.34 212.98 142.62 203.16 130.28 211.67 117"/><polygon class="cls-16" points="229.99 116.06 239.8 128.4 231.3 141.69 221.48 129.34 229.99 116.06"/><polygon class="cls-16" points="248.31 115.12 258.12 127.47 249.62 140.75 239.8 128.4 248.31 115.12"/><polygon class="cls-16" points="139.7 146.37 149.52 158.71 141.01 172 131.2 159.65 139.7 146.37"/><polygon class="cls-16" points="158.02 145.43 167.84 157.78 159.33 171.06 149.52 158.71 158.02 145.43"/><polygon class="cls-16" points="176.34 144.5 186.15 156.84 177.65 170.12 167.84 157.78 176.34 144.5"/><polygon class="cls-16" points="194.66 143.56 204.47 155.9 195.97 169.19 186.15 156.84 194.66 143.56"/><polygon class="cls-16" points="212.98 142.62 222.79 154.97 214.29 168.25 204.47 155.9 212.98 142.62"/><polygon class="cls-16" points="231.3 141.69 241.11 154.03 232.61 167.31 222.79 154.97 231.3 141.69"/><polygon class="cls-16" points="249.62 140.75 259.43 153.09 250.93 166.38 241.11 154.03 249.62 140.75"/><polygon class="cls-16" points="141.01 172 150.83 184.34 142.32 197.62 132.51 185.28 141.01 172"/><polygon class="cls-16" points="159.33 171.06 169.15 183.4 160.64 196.69 150.83 184.34 159.33 171.06"/><polygon class="cls-16" points="177.65 170.12 187.47 182.47 178.96 195.75 169.15 183.4 177.65 170.12"/><polygon class="cls-16" points="195.97 169.19 205.78 181.53 197.28 194.81 187.47 182.47 195.97 169.19"/><polygon class="cls-16" points="214.29 168.25 224.1 180.59 215.6 193.88 205.78 181.53 214.29 168.25"/><polygon class="cls-16" points="232.61 167.31 242.42 179.66 233.92 192.94 224.1 180.59 232.61 167.31"/><polygon class="cls-16" points="250.93 166.38 260.74 178.72 252.24 192 242.42 179.66 250.93 166.38"/><polygon class="cls-16" points="142.32 197.62 152.14 209.97 143.63 223.25 133.82 210.9 142.32 197.62"/><polygon class="cls-16" points="160.64 196.69 170.46 209.03 161.95 222.31 152.14 209.97 160.64 196.69"/><polygon class="cls-16" points="178.96 195.75 188.78 208.09 180.27 221.38 170.46 209.03 178.96 195.75"/><polygon class="cls-16" points="197.28 194.81 207.09 207.16 198.59 220.44 188.78 208.09 197.28 194.81"/><polygon class="cls-16" points="215.6 193.88 225.41 206.22 216.91 219.5 207.09 207.16 215.6 193.88"/><polygon class="cls-16" points="233.92 192.94 243.73 205.28 235.23 218.57 225.41 206.22 233.92 192.94"/><polygon class="cls-16" points="252.24 192 262.05 204.35 253.55 217.63 243.73 205.28 252.24 192"/></g><path class="cls-17" d="M112.27,127a22.8,22.8,0,0,0,12.3,14.09c5.86,2.64,13.79,2.17,19.62-.53,4.82-2.23,9.76-5.57,12.61-10"/><path class="cls-11" d="M169.15,116.25c.52.5-.31,1.42-1,1.21a2.06,2.06,0,0,1-1.15-1.7,15.85,15.85,0,0,1,.15-5.36c.66-4.49,1.46-9,1.31-13.54a25.53,25.53,0,0,0-1.07-6.67c-.4-1.28-1.33-4.28-2.91-5.41a34.62,34.62,0,0,1-2.18,22c-1.09,2.49-2.43,5-4.62,6.59s-5.4,2.09-7.58.48c-1-.75-1.73-1.88-2.84-2.48-2-1.08-4.47-.12-6.29,1.22s-3.41,3.09-5.54,3.82a10.53,10.53,0,0,1-4.4.31c-5.87-.57-12-3.73-13.87-9.33-.44-1.34-.61-2.75-1-4.09a24.86,24.86,0,0,0-2.76-5.68c-2.69-4.52-5.06-8.82-8-13.22a14.74,14.74,0,0,1,3-16.47,25,25,0,0,1,5.47-3.77,103,103,0,0,1,21.56-8.9c2.27-.65,4.5-.31,6.86-.48a31.83,31.83,0,0,1,6.25,0A78.76,78.76,0,0,1,157,56.31a7,7,0,0,1,2.94,1.2,5.61,5.61,0,0,1,1.72,2.57c1.09,3.24,1.39,6.79,2.38,9.77.65-6-1-14-5.14-18.49-2.9-3.15-6.94-5-11-6.38-7.75-2.69-16.41-4-24.07-1.11-4.4,1.69-8.15,4.68-11.83,7.63a31.22,31.22,0,0,0-5.33,5,27.65,27.65,0,0,0-3.49,6.44c-2.18,5.13-4.38,3.72-6.24,9-.13.36.09,7.42.19,7.79.19.66,1,.89,1.61,1.13,2.24.82,6.76,4.55,4.4,18.94a30.69,30.69,0,0,0-.25,10.89,14.88,14.88,0,0,0,5.44,9.22,9.8,9.8,0,0,1,2.31,1.93,2.14,2.14,0,0,1,0,2.75c-.76.67-2.3,0-2-1a1.52,1.52,0,0,0-.36,2.4,2.93,2.93,0,0,0,2.69.61c1-.19,1.83-.61,2.77-.8,2.17-.45,4.39.33,6.4,1.27,5.66,2.65,10.77,6.65,16.86,8.08a32.39,32.39,0,0,0,11.62.23,16,16,0,0,0,7.47-2.41c3-2.2,4.48-6.08,7.49-8.32,2.43-1.8,6-2.76,6.73-5.69C170.61,117.88,170.21,116.51,169.15,116.25Z"/><path class="cls-18" d="M127.17,27.37l-9,1.77A30,30,0,0,0,94.45,64.35l1.85,9.43,14.36-1.08a176.22,176.22,0,0,0,42.21-8.45l11.35-3.76-1.84-9.43A30,30,0,0,0,127.17,27.37Z"/><path class="cls-19" d="M122.66,28.26a61.77,61.77,0,0,1,6.88,28.43"/><path class="cls-19" d="M94.14,61.63c.36-.09,35.54-1.94,67.34-14.05"/><path d="M123.22,27.85A4,4,0,0,0,121,27a8.54,8.54,0,0,0-3,.43,14.64,14.64,0,0,0-4.71,2.54c-2.89,2.25-5,5.25-7.7,7.75-.5.47.25,1.23.76.76,2.36-2.23,4.33-4.85,6.78-7a15.05,15.05,0,0,1,4.26-2.69,9.5,9.5,0,0,1,2.72-.71,4,4,0,0,1,1.51.08,5,5,0,0,1,1,.65c.58.39,1.11-.54.54-.93Z"/><path d="M106,37.55a4.33,4.33,0,0,0-.38,1,10.76,10.76,0,0,1-.37,1.09c-.3.76-.67,1.48-1,2.21a.54.54,0,0,0,.93.54c.37-.76.75-1.53,1.07-2.32a10.46,10.46,0,0,0,.4-1.11,3.41,3.41,0,0,1,.31-.9c.36-.59-.57-1.13-.93-.55Z"/><path d="M106,37.39A7,7,0,0,0,104.44,39c-.2.27-.39.55-.58.83s-.2.29-.31.42-.1.13,0,.05l-.06.08-.19.23a.54.54,0,0,0,0,.75.54.54,0,0,0,.76,0c.46-.53.85-1.12,1.26-1.7a2.43,2.43,0,0,0,.14-.2l.08-.1s.07-.09,0,0l.31-.38.36-.37.18-.16a.39.39,0,0,0,.1-.08c-.07.06,0,0,0,0a.54.54,0,0,0-.54-.93Z"/><path d="M105.94,37.37a10.08,10.08,0,0,0-3.41,2.12.55.55,0,0,0,0,.76.56.56,0,0,0,.76,0l.33-.3.19-.16.08-.07c.08,0,0,0,0,0a8,8,0,0,1,.76-.53c.25-.16.51-.3.78-.44l.42-.2.06,0,.06,0,.23-.08a.54.54,0,0,0-.29-1Z"/><path class="cls-20" d="M99.69,48.15c-.15,1-.27,2-.35,2.92"/><path class="cls-20" d="M100.94,49.32a12.21,12.21,0,0,1-.24,2.83"/><path class="cls-20" d="M99.27,53.53l0,.45"/><path class="cls-20" d="M102.78,49.63l-.14.56"/><path class="cls-20" d="M101.31,43.4l-.21,2.28"/><path class="cls-20" d="M99.82,56.12l-.12,2.09"/></svg>