<svg xmlns="http://www.w3.org/2000/svg" xmlns:xlink="http://www.w3.org/1999/xlink" viewBox="0 0 331 438"><defs><style>.cls-1,.cls-19,.cls-24,.cls-26,.cls-27,.cls-9{fill:none;}.cls-2{fill:#6243cf;}.cls-3{fill:#fff;}.cls-4{fill:#d2d3c7;}.cls-5{fill:#6b84b5;}.cls-6{fill:#4867a3;opacity:0.58;}.cls-7{fill:#cfd5e0;}.cls-8{fill:#d1d1d1;}.cls-9{stroke:#cfd5e0;stroke-width:0.4px;}.cls-19,.cls-24,.cls-25,.cls-26,.cls-27,.cls-9{stroke-miterlimit:10;}.cls-10{fill:#f9efde;}.cls-11{fill:#ebdeca;}.cls-12{fill:#a5a69c;}.cls-13{fill:#dbd3b4;}.cls-13,.cls-17,.cls-20{opacity:0.59;}.cls-14{fill:#240e05;}.cls-15{opacity:0.46;}.cls-16,.cls-20{fill:#ccc5a3;}.cls-18{fill:#9e4a26;}.cls-19{stroke:#240e05;stroke-width:0.51px;}.cls-19,.cls-24{stroke-linecap:round;}.cls-21{fill:#28110c;}.cls-22{clip-path:url(#clip-path);}.cls-23{fill:#87726f;}.cls-24{stroke:#fff;stroke-width:0.75px;}.cls-25{fill:#d3d3c5;stroke-width:0.52px;}.cls-25,.cls-26{stroke:#000;}.cls-26{stroke-width:0.79px;}.cls-27{stroke:#ababa0;stroke-width:0.47px;}</style><clipPath id="clip-path"><path class="cls-1" d="M150.79,211.69c-1.74-4.23-5.34-2.79-9.19-2.12-5,.87-9.87,2.17-14.87,3.13-8.2,1.58-17.18,1.25-24.32,6.05-3.46,2.32-7.2,6.17-5.43,10.52,1.51,3.72,2.4,7.56,3.94,11.26,2.35,5.65,3.44,11.76,5.68,17.48,3.7,9.44,5.23,19.12,6.65,29.14,1.58,11.19-1.9,21.84-3.09,32.87-.82,7.7-.29,16.14,2.71,23.36C116.45,352,123.32,357,131.4,361c15.78,7.94,32.87,9.08,50,5.48,16.12-3.39,33.79-9.85,41-26.07,3-6.9,3.83-13.88,3.52-21.37-.45-10.39-1.71-20.76-3.08-31.07-.68-5.14-2.09-10-2.51-15.17a74.73,74.73,0,0,1,.48-16.1,125.2,125.2,0,0,1,6-23.73c2.94-8.5-.05-13.54-.69-14.5-2.53-3.84-10.83-6-15.18-6.79-7.1-1.26-14.12-3-21.39-2.56-5.72.35-7.38,5.47-11.51,8.67-6.54,5.07-17.56,5.66-23.64-.21-1.54-1.5-2.26-4-3.55-5.27"/></clipPath></defs><g id="Layer_1" data-name="Layer 1"><rect class="cls-2" x="-57.89" y="45.94" width="452.21" height="342.54" transform="translate(385.42 48.99) rotate(90)"/></g><g id="Layer_2" data-name="Layer 2"><path class="cls-3" d="M257,308c-4.73-10.91-5.46-23.07-7.93-34.7-1.52-7.09-3.69-14-5.86-20.93-2.86-9.11-5.75-18.29-10.38-26.65-1.2-2.16-2.77-4.45-5.19-5a3.75,3.75,0,0,0-.47-.05,10.49,10.49,0,0,0-1.07-2.17c-2.53-3.84-10.83-6-15.18-6.79-7.1-1.26-14.12-3-21.39-2.56a8.52,8.52,0,0,0-2.89.68,8.6,8.6,0,0,1,1.35-1.28c1.78-1.32,4.4-2,4.94-4.17a1.59,1.59,0,0,0-.88-2c.38.36-.22,1-.72.88a1.47,1.47,0,0,1-.84-1.24,11.3,11.3,0,0,1,.11-3.93,56.22,56.22,0,0,0,.95-9.93,18.36,18.36,0,0,0-.78-4.88c-.29-.94-1-3.13-2.12-4a5.47,5.47,0,0,1-1.55-2.73,2.36,2.36,0,0,1,0-.37.47.47,0,0,0,0-.43,3.9,3.9,0,0,1,1.39-2.92,1.35,1.35,0,0,0,.27-.37c.29.22.54-.35.18-.65a3.59,3.59,0,0,0-.15-1.29l-.41-2.19a20.79,20.79,0,0,0-.47-6.67l.57-.19-1.35-6.91a23.25,23.25,0,0,0-.67-2.55h0a22,22,0,0,0-25.12-14.81l-3.19.62a2,2,0,0,0-.92-.49,6.07,6.07,0,0,0-3,.47,10.52,10.52,0,0,0-2.8,1.64,22,22,0,0,0-14.05,24.85l1.36,6.92.49,0v.32h-1.23A1.93,1.93,0,0,0,136,173l-.81,3.43s0,.07,0,.1v0a3.38,3.38,0,0,0,.41,2.31l2.46,5.15a.42.42,0,0,1,0,.1l1.35,7.12a3.77,3.77,0,0,0,1.43,2.13l2,1.51a.67.67,0,0,0,.36.14,16.28,16.28,0,0,0,.26,3.27,10.94,10.94,0,0,0,4,6.75,7,7,0,0,1,1.69,1.42,1.55,1.55,0,0,1,0,2c-.55.49-1.68,0-1.45-.74a1,1,0,0,0-.54,1.05,24.44,24.44,0,0,0-5.55.76c-5,.87-9.87,2.17-14.87,3.13-8.2,1.58-17.18,1.25-24.32,6.05-3.25,2.18-6.74,5.71-5.69,9.74a11,11,0,0,0-3,5c-3.25,9-4.66,18.49-6,27.94-1.05,7.17-2.11,14.36-2.48,21.6-.61,11.87.59,24-2.36,35.51-.62,2.42-1.36,5.21.11,7.23.43.59,1,1.06,1.44,1.68,1.18,1.78.57,4.43,2,6a3.13,3.13,0,0,0,1.76.91,34.54,34.54,0,0,0,3.07,7.72c3.48,6.6,7.92,12.84,9.74,20.08.76,3,1.08,6.21,2.67,8.88,2.14,3.62,6.12,5.52,10.21,6.84q1.19,2.17,2.42,4.33c.13.23.27.47.42.69h-.08a1.39,1.39,0,0,0-.62.22l-.1.1a.46.46,0,0,1-.07.07h0a.75.75,0,0,0-.1.2h0a.52.52,0,0,0,.06.42,1.37,1.37,0,0,0,.18.16,1.16,1.16,0,0,1,.29.25,1,1,0,0,1,0,.58.73.73,0,0,0,0,.34.47.47,0,0,0,.14.14.89.89,0,0,0,.31.19.81.81,0,0,0,.22.07c0,2.26,0,4.51,0,6.75q.15,11,.32,22a30.42,30.42,0,0,0,.68,7.13c.32,1.21,0,10.5-.07,21.24h54.22c.16-8.79.28-16.51.7-17.48a113.32,113.32,0,0,1,5,17.48H233.3c-3.83-21.7-8.69-50-9-51.58l-2-9.13h0a.45.45,0,0,0,.26-.45,7.12,7.12,0,0,1-.55-2.27c.12-.22.23-.45.33-.68a99,99,0,0,0,5.36-14c.42-1.56.77-3.15,1.29-4.69.14-.4.33-.78.49-1.18a12,12,0,0,0,3.76-2.93c2-2.4,2.8-5.51,4-8.36,2.93-6.86,8.29-12.34,12.76-18.31a41,41,0,0,0,3-4.61,3.43,3.43,0,0,0,2.8-1.4c1.19-1.77.17-4.29,1-6.23.31-.68.83-1.23,1.16-1.89C259.13,312.89,258,310.25,257,308Zm-144.64-1.69a13.84,13.84,0,0,1,.13-2.23,12.66,12.66,0,0,1,.53-2.1C112.79,303.39,112.56,304.83,112.32,306.27Zm38.33-96-.33,0c.07.23.17.46.25.69a1.49,1.49,0,0,0,0,.21,5.05,5.05,0,0,0-.9-1.29c.37-.1.73-.2,1.1-.32C150.71,209.82,150.68,210.07,150.65,210.31ZM208.89,356l.48-.33a.44.44,0,0,0,.08.11Zm18.91-46.36a1,1,0,0,0-.18.65c0,1-.67,2.53-.75,3.75-.39,1-.75,2-1.11,3-.39-7.42-1.15-14.83-2.07-22.21a16.87,16.87,0,0,1,1.69,3.47c.82,2.58.57,5.45,1.57,8,.31.77.72,1.49,1,2.26a8,8,0,0,1,.25.93A.56.56,0,0,0,227.8,309.65Z"/><path class="cls-3" d="M245.63,453.14H107.44l.12-10.46c0-2.92.07-5.74.11-8.33.07-4.38.15-9.31.08-11a41.91,41.91,0,0,1-.8-8.72l-.33-22.48c0-1.06,0-2.13,0-3.21-.07-.18-.14-.37-.2-.55a10.86,10.86,0,0,1-.88-2.65,24.11,24.11,0,0,1-10.81-9.41,29.9,29.9,0,0,1-3.35-9.66c-.14-.66-.28-1.32-.44-2-1-3.92-3.31-8-5.76-12.22-1-1.79-2.09-3.64-3.11-5.57a53.26,53.26,0,0,1-2.63-5.78l-.62-.62a15,15,0,0,1-3.68-7.9c-.18-.22-.38-.46-.57-.73-4.33-5.93-2.61-12.61-1.79-15.81,1.76-6.86,1.8-14.31,1.84-22.2,0-3.69,0-7.51.23-11.36.4-7.73,1.51-15.27,2.58-22.56,1.44-9.82,2.93-20,6.55-30a26.42,26.42,0,0,1,2.39-5.05c.55-4.31,3-9.79,10.31-14.73s15.07-5.85,22-6.72c2.19-.27,4.25-.53,6.15-.9,2.07-.39,4.12-.85,6.29-1.34l2.35-.53v0a14.14,14.14,0,0,1-4-6.84l-.13-.59-1.12-5.85L126,182.87a13.74,13.74,0,0,1-1.19-7v-.79l.34-1.16.77-3.27a12.45,12.45,0,0,1,1.35-3.39l-.18-.93a32.14,32.14,0,0,1,19.19-36,20,20,0,0,1,4.08-2.15,16.31,16.31,0,0,1,8.44-1h0l.42-.08a32.33,32.33,0,0,1,37,21.79l-9.06,2.92h0l9.06-2.92a30.56,30.56,0,0,1,1,3.74l3.1,15.85-1.35.44c.06.32.12.65.16,1a10.83,10.83,0,0,1-.32,5.81,25.27,25.27,0,0,1,1.82,4.48,29.19,29.19,0,0,1,1.24,7.61,50.69,50.69,0,0,1-.67,9.16l.36.56a12,12,0,0,1,1,2.11c2.16.34,4.27.74,6.36,1.14,1.26.24,2.51.48,3.77.7,7.41,1.31,17.14,4.28,21.79,11a21.48,21.48,0,0,1,7.37,8.21c5.15,9.3,8.22,19.09,11.2,28.56,2.2,7,4.49,14.29,6.1,21.87.81,3.77,1.43,7.54,2,11.18,1.28,7.78,2.49,15.14,5.28,21.56h0L257,308l9.52-4c1.32,3,4.06,9.35.73,15.9q-.22.44-.45.81a15.1,15.1,0,0,1-2.39,8.38,13.2,13.2,0,0,1-4.49,4.15q-.76,1.14-1.62,2.28c-1.3,1.75-2.64,3.41-3.94,5-3.09,3.84-6,7.46-7.59,11.18-.27.61-.51,1.24-.75,1.87a30.08,30.08,0,0,1-4.82,9,21,21,0,0,1-3,2.95c0,.13-.07.25-.1.38-.13.53-.27,1.05-.41,1.58a91.54,91.54,0,0,1-4.84,13.09,10.89,10.89,0,0,1,.06,1.61l1.51,6.87c.21.91.91,4.93,3.59,20.38,1.68,9.68,3.72,21.4,5.53,31.63ZM186,432.45h35c-1.17-6.73-2.35-13.53-3.4-19.53-1.65-9.5-3.2-18.46-3.42-19.55l-1.93-8.75-.31-1.08v-1.42a15.55,15.55,0,0,1-.24-1.72l-.32-3.2,1.49-2.72a108.67,108.67,0,0,0,4.27-10.59l-4.54,1.78-85.05,32.46,75.9-50.92L212,341.3l5.06,7.3-1.61-31c-.33-6.33-1-13.15-2-21.47l-5.95-47.85,25.06,41.2a26.73,26.73,0,0,1,2.7,5.7,29.18,29.18,0,0,1,1.1,5.59c.07.61.17,1.42.25,1.74.06.12.12.24.17.36.25.52.59,1.24.91,2.11a16,16,0,0,1,.65,2.28L241,319.64l-5.23.09c-.05.12-.09.25-.14.38l-10.61,29.33a1.27,1.27,0,0,0,.19-.14,17.74,17.74,0,0,0,1.42-3.19c.34-.88.68-1.77,1.05-2.63,2.71-6.34,6.85-11.48,10.5-16,1.24-1.53,2.4-3,3.49-4.43a29.26,29.26,0,0,0,2.23-3.43l2.79-5a14.94,14.94,0,0,1,.7-1.87l.17-.36c0-.07-.05-.14-.08-.2l0-.07c-3.8-8.77-5.28-17.75-6.72-26.44-.58-3.56-1.14-6.93-1.84-10.22-1.41-6.63-3.45-13.12-5.61-20-2.67-8.48-5.42-17.26-9.56-24.72v0l-4.11-.46-2.08-5.67a29.74,29.74,0,0,0-8.47-2.67l-4-.75c-5.18-1-10.08-1.91-14.64-1.68l-31.93,14L157,246.84l-5.26-10.41L148.18,238l2.75-3.14-7.63-15.08c-2.51.44-5,1-7.69,1.61-2.24.5-4.55,1-6.93,1.48-2.56.49-5.06.81-7.47,1.11-5.3.67-9.87,1.24-13,3.36a10.23,10.23,0,0,0-.89.67l1.15,4.4-4.71,3.73c-.08.18-.19.45-.34.86-2.9,8-4.24,17.12-5.53,25.92-1,7.14-2,13.87-2.39,20.63-.17,3.37-.19,6.78-.21,10.39,0,8.8-.09,17.91-2.46,27.16,0,.09,0,.19-.08.29a3.62,3.62,0,0,1,.22.32A14.24,14.24,0,0,1,94.55,325l2,.35,1.61,6.57a23.73,23.73,0,0,0,2.17,5.34c.85,1.6,1.77,3.22,2.75,4.92,2.9,5.05,6.18,10.77,7.87,17.46.23.91.43,1.84.63,2.76a17.54,17.54,0,0,0,.9,3.38c.07.1.71,1,4.5,2.27l3.92,1.26,2,3.61c.68,1.24,1.36,2.47,2.06,3.69l2.43.43,0,3.05,7.5,10.59-7.52,1.11v.05l.33,22.48A23.24,23.24,0,0,0,128,419c.51,2,.56,3.69.41,13.5H162c.2-7.54.46-9.23,1.35-11.27l10-22.83,9.13,23.18A95.06,95.06,0,0,1,186,432.45Zm-78-8.31v0Zm10.32-31.06h0ZM103.88,235.84Zm57-23.88-1.47,13.22,18.89-21.57-21.21-20.24,24.1,5.79c0-.21,0-.42,0-.63a8.25,8.25,0,0,0-.33-2.16,3,3,0,0,0-.09-.29,15.54,15.54,0,0,1-3.74-7l-.41-.74.06-2.29-.11-1.8.29-.63a13.37,13.37,0,0,1,1.19-3.87l-.19-1,.17-1.52a10.72,10.72,0,0,0-.27-3.23l-2.11-9.18.68-.22a11.64,11.64,0,0,0-13.09-7.23l-7.36,1.44-1,.37a11.55,11.55,0,0,0-7.65,11l2.15-.16.11,11.27.18,10.53h-1.47l.66,3.42,4.83.59-.08,8.84,10.4-3.65-1.22,3.76.49-.16ZM217.34,224Zm-36.76-38.47Zm-1.67-11.67v0ZM122.52,308,102,306.34a24.47,24.47,0,0,1,.24-3.85,23,23,0,0,1,1-3.81l20.06,4.66C123,304.74,122.81,306.25,122.52,308Z"/><path class="cls-4" d="M228.45,314.15c-.1,1-.18,2.31.45,2.21a23,23,0,0,1,17.48,4.74,18.83,18.83,0,0,0,4.45,3.17c1.69.68,3.93.48,4.95-1,1.19-1.77.17-4.29,1-6.23.31-.68.83-1.23,1.16-1.89,1.14-2.22,0-4.86-1-7.15-4.73-10.91-5.46-23.07-7.93-34.7-1.52-7.09-3.69-14-5.86-20.93-2.86-9.11-5.75-18.29-10.38-26.65-1.2-2.16-2.77-4.45-5.19-5-3-.66-5.78,1.72-7.74,4.09-8.47,10.27-12.19,24-11.5,37.28a45.13,45.13,0,0,0,2.8,14.41,24.49,24.49,0,0,0,3.68,6.39,19.51,19.51,0,0,0,2.54,2.6c.83.7,2.33,1.35,2.86,2.3a6.73,6.73,0,0,1,.51,1.47c.94,3.28,3.59,5.84,4.63,9.09.82,2.58.57,5.45,1.57,8,.31.77.72,1.49,1,2.26a15.93,15.93,0,0,1,.57,4.76C228.53,313.45,228.49,313.77,228.45,314.15Z"/><path class="cls-5" d="M233.3,442.8H177.77a113.32,113.32,0,0,0-5-17.48c-.42,1-.54,8.69-.7,17.48H117.9c.12-10.74.39-20,.07-21.24a30.42,30.42,0,0,1-.68-7.13q-.17-11-.32-22c0-2.24-.07-4.49,0-6.75q0-1.41.06-2.82c0-1.06.09-2.13.17-3.19.32-4.29,1-8.54,1.72-12.78.89-5.45.57-10.53,1.47-16a40.88,40.88,0,0,0,21.53,6.92l1.29,0,3,0h.55c.94,0,1.89,0,2.83.07h.15a48.06,48.06,0,0,1,6,.86,68.14,68.14,0,0,0,10.67,1.72c7,.27,13.86-2.22,20.82-3a35.09,35.09,0,0,1,4-.23h.07c.57,0,1.13,0,1.7.06,1.32.07,2.65.2,4,.33s2.66.23,4,.26c5.21.1,10.62-3.39,15.7-4.58.86,3.44,1.64,7.47,2.38,11.58l.33,1.78c.61,3.38,1.2,6.76,1.82,9.87.19,1,.39,1.94.58,2.86h0c0,.15.06.31.1.46.16.75.33,1.5.49,2.24l2,9.13C224.61,392.76,229.47,421.1,233.3,442.8Z"/><path class="cls-6" d="M191.93,442.8H177.77a113.32,113.32,0,0,0-5-17.48c-.42,1-.54,8.69-.7,17.48H117.9c.12-10.74.39-20,.07-21.24a30.42,30.42,0,0,1-.68-7.13q-.17-11-.32-22c0-2.24-.07-4.49,0-6.75a.87.87,0,0,1-.67-.4c-.1-.23.1-.72,0-.92s-.35-.24-.47-.41a.62.62,0,0,1,.21-.81,1.81,1.81,0,0,1,.87-.26l.17,0c0-1.06.09-2.13.17-3.19.32-4.29,1-8.54,1.72-12.78.89-5.45.57-10.53,1.47-16a40.88,40.88,0,0,0,21.53,6.92l1.29,0c.08-.12.16-.23.25-.34a1.27,1.27,0,0,1,.45-.38,1.54,1.54,0,0,1,.57-.07c.44,0,2.1-.16,2.31.29v0a.76.76,0,0,1,0,.44c.94,0,1.89,0,2.83.07h.15a48.06,48.06,0,0,1,6,.86c0,2.51-.45,4.93-.4,7.53,0,1.39.09,2.78.18,4.16,0,.09,0,.17,0,.25.4,6,1.21,11.91.78,18.06-.46,6.64-1.42,13.85,2.1,19.5C163.15,416,174,417.14,181,423,187,427.9,189.39,435.33,191.93,442.8Z"/><path class="cls-7" d="M140.34,369.06v.11a13.64,13.64,0,0,1-3.47,7.86,22.2,22.2,0,0,1-7,5.65c-4.58,2.24-11.27,2.94-12.36,3a2.74,2.74,0,0,1-.56,0,.87.87,0,0,1-.67-.4c-.1-.23.1-.72,0-.92s-.35-.24-.47-.41a.62.62,0,0,1,.21-.81,1.81,1.81,0,0,1,.86-.26l.18,0a51.87,51.87,0,0,0,9.44-1.77,16.59,16.59,0,0,0,8.09-5.25,18.47,18.47,0,0,0,2.48-4.5c.22-.53.46-1.91.88-2.28S139.74,369.15,140.34,369.06Z"/><path class="cls-7" d="M205.4,377.61c2.24,1.91,4.9,3.78,7.76,4.25a45.75,45.75,0,0,0,8.44.4c.42,0,1-.19.92-.62a7.22,7.22,0,0,1-.56-2.35,13.67,13.67,0,0,1-11.78-1.52c-.84-.5-1.82-.89-2.62-1.48a15.48,15.48,0,0,1-4.12-5.33c-.76-1.57-1.68-3.35-3.79-2.28A20.19,20.19,0,0,0,205.4,377.61Z"/><path class="cls-7" d="M191.19,357.2a2,2,0,0,1,.08.9c-.31,4.7.57,9.39.45,14.09,0,1.93-1.9,2.39-3.5,1.68a6.54,6.54,0,0,0,0-2.25c-.41-3.45-.75-7.1-.84-10.57a38.44,38.44,0,0,0-.32-4.59,5.88,5.88,0,0,1,2.4,0C190.05,356.51,190.9,356.54,191.19,357.2Z"/><path class="cls-7" d="M149.59,357.74l0,.06c-1.3,3.59-1,7.48-1.39,11.23-.12,1.23-.14,4.23-1.38,4.56-.73.19-2.28,0-2.64-.79a1.64,1.64,0,0,1-.09-.73c0-2.61,0-5.23.24-7.84.17-2.25.42-4.9,2-6.65C146.79,357.11,150,356.35,149.59,357.74Z"/><path class="cls-8" d="M164.77,366.38a2.37,2.37,0,0,1-.51-2.84,2.59,2.59,0,0,1,2.62-1.29,2.33,2.33,0,0,1,1.85,1.44,2.84,2.84,0,0,1-.18,2A2.39,2.39,0,0,1,167,367,2.62,2.62,0,0,1,164.77,366.38Z"/><path class="cls-9" d="M147.47,369.9a61.8,61.8,0,0,0,15.19.56c3.13-.28,6.38-.73,9.57-.9s6.54.22,9.82.2c5.75,0,9.54-1.69,15.24-.93,0,0,15.42.77,22-2.18"/><path class="cls-9" d="M160,370.51c3.7,10.69,2.4,20.72,3.08,29.79.17,2.25.51,4.64,2,6.35,2,2.36,5.54,2.69,8.65,2.49a12,12,0,0,0,.59,2.88,16.66,16.66,0,0,1-6.36-.89,9.77,9.77,0,0,1-5-3.93c-1.55-2.56-1.56-5.72-1.51-8.71l.12-9.44a32.45,32.45,0,0,0-.16-4.83c-.2-1.48-.59-2.94-.8-4.42a30.36,30.36,0,0,0-.81-5.39c-.42-1.3-1.17-2.54-1.18-3.9"/><path class="cls-9" d="M145.22,369.62c-3.79-.41-11.11-.62-14.9-1a22.38,22.38,0,0,1-10.78-3.43"/><path class="cls-10" d="M142.67,383.44a.74.74,0,0,1-.23.35c-1.59,1.53-4.36,1.22-6-.25a10.5,10.5,0,0,1-1.18-1.31c-1-1.27-2.07-2.54-3.11-3.8a28.51,28.51,0,0,1-11,5.17l-1,.21a3.74,3.74,0,0,1-2.82-.27,4,4,0,0,1-1.06-1.36,97.42,97.42,0,0,1-6.74-13.38c-.58-1.51-1.08-3.06-1.76-4.54a37.28,37.28,0,0,0-2.81-4.81c-1-1.5-.62-2.29.27-3.79a11.25,11.25,0,0,1,1.45-1.92,11.05,11.05,0,0,1,5.38-3.17,1.26,1.26,0,0,1,.43,0,1.18,1.18,0,0,1,.67.56l3.74,5.4a25,25,0,0,0,2.86,3.6,12.36,12.36,0,0,0,3.58,2.46,51.48,51.48,0,0,1,4.78,2c3.33,1.94,4.89,5.84,7.38,8.77,1.14,1.35,2.51,2.51,3.63,3.88a18.37,18.37,0,0,1,1.54,2.19c.71,1.17,1.32,2.39,1.93,3.61h0A.77.77,0,0,1,142.67,383.44Z"/><path class="cls-11" d="M121.11,383.6l-1,.21a3.74,3.74,0,0,1-2.82-.27,4,4,0,0,1-1.06-1.36,97.42,97.42,0,0,1-6.74-13.38c-.58-1.51-1.08-3.06-1.76-4.54a37.28,37.28,0,0,0-2.81-4.81c-1-1.5-.62-2.29.27-3.79a11.25,11.25,0,0,1,1.45-1.92c0,.11,0,.2,0,.29,0,3.74,2.85,6.85,4,10.43.94,3.07.64,6.54,2.28,9.31.5.83,1.15,1.56,1.7,2.35.81,1.15,1.4,2.44,2.26,3.55A25.62,25.62,0,0,0,121.11,383.6Z"/><path class="cls-3" d="M139.75,382.84a5.38,5.38,0,0,1-.67-.68,3.26,3.26,0,0,1-.5-.73,1.05,1.05,0,0,1,0-.85,1.55,1.55,0,0,1,.82-.66l1-.49a.57.57,0,0,1,.28-.08.51.51,0,0,1,.31.25l1.24,1.68a3,3,0,0,1,.46.76C143.27,383.66,140.51,383.43,139.75,382.84Z"/><path class="cls-4" d="M111.91,320.14c.24.92.54,2.25-.1,2.26a22.92,22.92,0,0,0-16.51,7.43,18.81,18.81,0,0,1-3.89,3.83c-1.57.94-3.81,1.09-5.06-.24-1.45-1.56-.84-4.21-2-6-.41-.62-1-1.09-1.44-1.68-1.47-2-.73-4.81-.11-7.23,3-11.52,1.75-23.64,2.36-35.51.37-7.24,1.43-14.43,2.48-21.6,1.39-9.45,2.8-19,6-27.94.84-2.33,2-4.84,4.33-5.74,2.87-1.12,6,.79,8.3,2.82,10,8.8,15.82,21.77,17.24,35a45.15,45.15,0,0,1-.5,14.67,24.34,24.34,0,0,1-2.62,6.9,19.82,19.82,0,0,1-2.1,3c-.71.82-2.09,1.7-2.47,2.72a6.62,6.62,0,0,0-.26,1.53c-.42,3.39-2.63,6.34-3.14,9.71-.4,2.68.3,5.47-.3,8.12-.18.8-.47,1.58-.63,2.39a15.4,15.4,0,0,0,.18,4.79C111.72,319.46,111.81,319.77,111.91,320.14Z"/><path class="cls-4" d="M118.64,340.05c1.32,3.18,4.07,5.61,5.43,8.78,1.13,2.64,1.26,5.72,2.9,8.08,1.15,1.66,2.95,2.8,4,4.53a8.56,8.56,0,0,1,0,7.89,23.69,23.69,0,0,1-5,6.45c-1.5,1.52-3.18,3.09-5.29,3.41a9.88,9.88,0,0,1-4.12-.53c-5-1.36-10.31-3.22-12.93-7.65-1.59-2.67-1.91-5.87-2.67-8.88-1.82-7.24-6.26-13.48-9.74-20.08-2.64-5-4.79-10.91-2.94-16.28a6.74,6.74,0,0,1,2.06-3.15,9.21,9.21,0,0,1,3.5-1.42c4.9-1.25,13.42-4,17.91-.23C117,325.4,116.26,334.26,118.64,340.05Z"/><path class="cls-12" d="M106.8,324a1.53,1.53,0,0,1-.69-.23,3.79,3.79,0,0,0-2.9.25,26.87,26.87,0,0,0-6.37,3.6,6.56,6.56,0,0,1,3.91-4.21,16.89,16.89,0,0,1,5.83-1.09c.6-.52.09-1.62-.68-1.82a3.32,3.32,0,0,0-2.28.53,1.05,1.05,0,0,1,.92-1,.78.78,0,0,1-.13-1.14,2.19,2.19,0,0,1,1.13-.61,3.36,3.36,0,0,0-1.16-1.18c.47.25,1-.48.71-.94a1.36,1.36,0,0,0-1.4-.5,9.26,9.26,0,0,1-1.55.25,3.31,3.31,0,0,1,1.69-1.05c2.24-.56,4.52,1.3,6.79.88.34-.06.76-.16,1,.1a.89.89,0,0,1,.15.66c0,1.42,1.26,4.19.14,5.14-.51.42-1.58.42-2.2.66C108.81,322.65,107.72,323.87,106.8,324Z"/><path class="cls-10" d="M150,216.78a3.89,3.89,0,0,0,.14,2.44,3.82,3.82,0,0,0,1.13,1.17c3.2,2.51,6.49,5.06,10.36,6.31s8.51.94,11.49-1.83c1.48-1.36,9.49-8.22,10.25-10.08,1-2.36-5.36.15-5.48-2.4a8.88,8.88,0,0,0-3.17-6.68c-2.15-1.65-5.06-1.91-7.76-1.71s-5.38.87-8.08.69c-1.47-.1-4.6-1.92-5.86-1.44C150.69,204.13,150.36,214.33,150,216.78Z"/><path class="cls-10" d="M143.61,195c-.08,6.71,10.53,12.94,14.92,15.13,3.81,1.9,10.52,2.52,16.89,2.29l2.21-.11.65-.05c7.14-.54,8.23-6,8.78-8.77s3.76-18.13,3.29-20.85c-.54-3.17-2.74-3.32-3.29-6a3.93,3.93,0,0,1,1.35-3.72c.83-.79.3-2.31.3-2.31L186.55,159l-3.81-4.44-2.26-2.64-7.82-.26L147,150.83l-4.94,23S143.67,190.06,143.61,195Z"/><path class="cls-13" d="M172.3,154.48c.2,1.39,1.14,2.72,1.52,4.11a19.2,19.2,0,0,1,.62,3.45c0,.38.36.67.37,1.06s-.28.75-.29,1.07a3.55,3.55,0,0,0,.15,1.42,4.44,4.44,0,0,1,.3.76,5.53,5.53,0,0,1-.22,1.19c-.1,1.05,1,1.75,1.63,2.59a3.3,3.3,0,0,1,.32,3.33,8.64,8.64,0,0,0-1.14,2.19,4.34,4.34,0,0,0,.84,2.58c1.48,2.79,1.88,6,2.25,9.14.16,1.37,0,3.2-1.34,3.49-.33.07-.67,0-1,.07a2.38,2.38,0,0,0-1.78,2,9.88,9.88,0,0,0,0,2.82c.33,4.08-.84,8.17-.56,12.26a8.38,8.38,0,0,0,1.44,4.45l2.21-.11.65-.05c7.14-.54,8.23-6,8.78-8.77s3.76-18.13,3.29-20.85c-.54-3.17-2.74-3.32-3.29-6a3.93,3.93,0,0,1,1.35-3.72c.83-.79.3-2.31.3-2.31L186.55,159l-3.81-4.44-2.26-2.64-7.82-.26A5.81,5.81,0,0,0,172.3,154.48Z"/><path class="cls-14" d="M173.9,197.84l1.5-1.35s.59-.58.62-.59a7.63,7.63,0,0,1,1.07,0,31.8,31.8,0,0,0,3.21,1.8,13.26,13.26,0,0,0,1.31-.7l1,2s-2.31-1.07-2.46-1.07Z"/><path class="cls-14" d="M176.28,197.84l-1.59-1.35s-.62-.58-.66-.59a8.66,8.66,0,0,0-1.14,0,34.21,34.21,0,0,1-3.41,1.8,14.71,14.71,0,0,1-1.39-.7l-1,2s2.46-1.07,2.62-1.07Z"/><path class="cls-10" d="M135.58,178.9l2.46,5.15a.42.42,0,0,1,0,.1l1.35,7.12a3.77,3.77,0,0,0,1.43,2.13l2,1.51a.75.75,0,0,0,.38.15c.4,0,1.3.14,2,.19.47,0,1.24-.63,1.22-1.1l-.67-7.1v-.22l-.1-2.53a11.71,11.71,0,0,1-2.68-6.38l0-.19a1.11,1.11,0,0,0,0-.17l0-.32,0-.16-.49-3.22-.43-.8a2.63,2.63,0,0,0-.33-.49,2.87,2.87,0,0,0-2.18-1h-1.63A1.93,1.93,0,0,0,136,173l-.81,3.43s0,.07,0,.1v0A3.38,3.38,0,0,0,135.58,178.9Z"/><g class="cls-15"><path class="cls-16" d="M139.57,178.44a14.88,14.88,0,0,0,.8,2.26,2.49,2.49,0,0,1,.11.29l.12.28,0,.08.09.19c.08.19.17.38.26.56l0,.07c.29.57.56,1,.56,1a5.85,5.85,0,0,0,.66,3.09h0a1.42,1.42,0,0,0,1.08.54h.18a1.88,1.88,0,0,0,1.93-1.46,5.72,5.72,0,0,0,.2-1.72,3.83,3.83,0,0,1-.28-.29,9.48,9.48,0,0,1-2.16-5.24c-.16-.18-.33-.34-.49-.49h0a2.89,2.89,0,0,0-.78-.51h0c-.85-.36-1.16-.58-2,0h0a.54.54,0,0,0-.22.25h0A1.74,1.74,0,0,0,139.57,178.44Z"/></g><path class="cls-14" d="M139.13,177.85a.6.6,0,0,0,.05.27l0,.13.09.23.38,1.05.38,1.06c.13.35.25.68.42,1l.28.59a1.81,1.81,0,0,0,.19.29.91.91,0,0,0,.13.16l.07.08a3.88,3.88,0,0,1,.33,1.12l.22,1.24a5.64,5.64,0,0,0,.32,1.22s0,0,0,0h0a1,1,0,0,0,.2.31,1.09,1.09,0,0,0,.34.22,1.41,1.41,0,0,0,.73.1h0a1.4,1.4,0,0,0,.34-.08.58.58,0,0,0,.17-.06l.17-.08a.19.19,0,0,0,.07-.26.2.2,0,0,0-.26-.07h0l-.12.06-.13,0a.88.88,0,0,1-.27.06h0a1,1,0,0,1-.53-.07.76.76,0,0,1-.21-.13.58.58,0,0,1-.13-.22h0s0,.07,0,.07l0-.07h0l-.18-.12h0a.17.17,0,0,1,.13.06s0,0,0,0a5.79,5.79,0,0,1-.29-1.16l-.2-1.24a4.05,4.05,0,0,0-.39-1.29l-.13-.17-.07-.08a1.28,1.28,0,0,1-.15-.25l-.26-.55h0a10.3,10.3,0,0,1-.4-1l-.37-1-.36-1.06-.11-.29,0-.12v0a.8.8,0,0,1,.17-.37h0l.19-.2a1.18,1.18,0,0,1,.22-.17,1,1,0,0,1,.49-.16,1,1,0,0,1,.51.1l.27.14.13.07.07,0,0,0h0l.75.5h0l.46.35h0a.23.23,0,0,0,.21,0,.58.58,0,0,1,0-.14.59.59,0,0,0,0-.14c0-.08,0-.17,0-.26l0-.13-.27-.19,0,0-.79-.51,0,0a.19.19,0,0,0-.07-.06h0l0,0-.07,0-.16-.08-.3-.15a1.59,1.59,0,0,0-.76-.13,1.52,1.52,0,0,0-.72.25,2.18,2.18,0,0,0-.54.51h0l0,0A1.39,1.39,0,0,0,139.13,177.85Zm.66-.31h0Z"/><g class="cls-17"><path class="cls-16" d="M167.84,174a10.08,10.08,0,0,0-4.82-.75,7.17,7.17,0,0,0-3.57,2,3.4,3.4,0,0,0,.38,1.08c.24.28.8.15,1.17,0a21.6,21.6,0,0,1,4.59-2,2.53,2.53,0,0,1,1.16,0,2.37,2.37,0,0,1,.95.58c.79.68,1.31,1.46,2.44,1.64.39-.17.28-1.26.24-1.61S168.65,174.45,167.84,174Z"/></g><path class="cls-14" d="M161.87,176.8l.84.62a3.53,3.53,0,0,0,1.07.51,6.52,6.52,0,0,0,2.36.19,2.93,2.93,0,0,0,1.15-.36,7.68,7.68,0,0,0,.93-.57l.42-.31a.74.74,0,0,1,.39-.18,6,6,0,0,0,1.05-.27h0l-.1-.16c-.32.18-.19.47.18.13a.1.1,0,0,0,0-.14l-.06,0h0a3,3,0,0,0-1.16.07,2.85,2.85,0,0,0-.32.1,2.62,2.62,0,0,0-.27.17l-.41.31a3.8,3.8,0,0,1-1.79.85,5.59,5.59,0,0,1-2.1-.26,2.91,2.91,0,0,1-.83-.46l-.81-.64a.42.42,0,0,0-.51,0,.26.26,0,0,0,0,.41Z"/><ellipse class="cls-14" cx="165.97" cy="175.77" rx="1.62" ry="1.58"/><path class="cls-18" d="M169.94,176.09a.8.8,0,0,1-.43-.1c-.12-.08-.3-.24-.45-.36l-.95-.78-.5-.39a1.85,1.85,0,0,0-.27-.19.92.92,0,0,0-.48-.19,11.09,11.09,0,0,0-1.41,0,10.15,10.15,0,0,0-2.78.54,5.86,5.86,0,0,0-2.34,1.5h0a.49.49,0,0,0,.14.78.78.78,0,0,0,1-.11l0-.06a4.22,4.22,0,0,1,1.68-1.34,8,8,0,0,1,2.38-.65,9.32,9.32,0,0,1,1.28-.07c-.08,0,0,0,.11.06l.25.16.48.35c.33.25.64.51.95.77s.29.25.52.41a1.61,1.61,0,0,0,.84.17.27.27,0,0,0,.3-.24.29.29,0,0,0-.29-.24Z"/><path class="cls-19" d="M170.78,174.45a10.29,10.29,0,0,1-3.61-.74,6.8,6.8,0,0,0-7.51,1.29"/><path class="cls-20" d="M178.85,176.47a.42.42,0,0,1-.32-.33,1.11,1.11,0,0,1,0-.48c0-.26.09-.52.13-.77a1,1,0,0,1,.77-.74,11.75,11.75,0,0,0,3.43-.81,2.69,2.69,0,0,1,.74-.14,2.91,2.91,0,0,1,.86.2A8.21,8.21,0,0,1,186,174a1.37,1.37,0,0,1,.74,1.18c0,.17.3.81.2.94s-.33.09-.62,0a3.63,3.63,0,0,1-.78-.57,5.79,5.79,0,0,0-2.93-1,4,4,0,0,0-1.2,0,3.13,3.13,0,0,0-1.52.86C179.68,175.54,179.08,176.49,178.85,176.47Z"/><path class="cls-14" d="M185.85,175.72l-.68.69a2.9,2.9,0,0,1-.71.54,5.07,5.07,0,0,1-1.9.48,3,3,0,0,1-1.81-.56c-.29-.17-.54-.35-.86-.54a1.56,1.56,0,0,0-.6-.17,1.24,1.24,0,0,0-.57.06h0a.11.11,0,0,0-.09.14s0,0,0,0c.11.17.52.22.21-.14l-.11.19c.32.14.71.12.89.25s.56.35.86.52a5.78,5.78,0,0,0,1,.46,3.28,3.28,0,0,0,.56.14,3,3,0,0,0,.59,0,6,6,0,0,0,2.17-.44,3.28,3.28,0,0,0,.92-.61l.72-.67a.29.29,0,0,0,0-.44.44.44,0,0,0-.52,0Z"/><ellipse class="cls-14" cx="183.12" cy="175.82" rx="1.43" ry="1.36"/><path class="cls-18" d="M179.13,176.57a2.37,2.37,0,0,0,.33-.22l.19-.19.35-.36.75-.7.38-.32a.49.49,0,0,1,.12-.08c-.06,0,0,0,0,0h.2a9.38,9.38,0,0,1,1.06,0,6.17,6.17,0,0,1,2,.48,3.54,3.54,0,0,1,1.45,1.1.79.79,0,0,0,.92.18.48.48,0,0,0,.12-.73l-.06-.07h0a5.47,5.47,0,0,0-2.05-1.19,8.11,8.11,0,0,0-2.33-.38,11.25,11.25,0,0,0-1.16,0l-.15,0h-.08l-.12,0a.82.82,0,0,0-.21.1l-.12.09a3.57,3.57,0,0,0-.4.37c-.26.24-.49.48-.73.73l-.36.36L179,176s-.06,0-.14,0a.29.29,0,0,0-.3.3.32.32,0,0,0,.35.26.38.38,0,0,0,.15,0Z"/><path class="cls-18" d="M178.11,172.06a6.17,6.17,0,0,0,3.25-.18c1-.24,2-.47,3-.69a4.12,4.12,0,0,1,2.73.31,11.16,11.16,0,0,1,2.46,1.7l.37-.42a17.77,17.77,0,0,0-2.48-1.95,5.38,5.38,0,0,0-3.21-.8c-1.07.05-2.07.13-3.1.17a4.76,4.76,0,0,1-2.55-.29Z"/><path class="cls-18" d="M172.12,172.72a10.81,10.81,0,0,1-4.14-.47c-1.2-.32-2.42-.62-3.6-.91a6.25,6.25,0,0,0-3.43,0A13,13,0,0,0,157.7,173l-.33-.52a18.39,18.39,0,0,1,3.31-1.87,8,8,0,0,1,1.91-.51,10.18,10.18,0,0,1,2,0c1.25.11,2.48.24,3.72.34a7.62,7.62,0,0,0,3.24-.23Z"/><path class="cls-14" d="M176.6,191.43h.25a2.8,2.8,0,0,0,2.35-2,6,6,0,0,0-.07-2.82c-.29-1.52-.62-3.05-.94-4.54l0-.08a10.87,10.87,0,0,0-1.65-4.35l-.24-.31a2.54,2.54,0,0,1-.64-1.11c-.13-.7.47-1.38,1-1.83l.45-.37a5.16,5.16,0,0,0,1.42-1.49,3.62,3.62,0,0,0,.19-2.63L178,170a3.11,3.11,0,0,1-.13,2.24,4.88,4.88,0,0,1-1.27,1.3l-.47.39a2.66,2.66,0,0,0-1.19,2.35,3,3,0,0,0,.76,1.37l.23.29a10.42,10.42,0,0,1,1.55,4.13l0,.09c.32,1.48.65,3,.94,4.52a5.37,5.37,0,0,1,.07,2.57,2.15,2.15,0,0,1-1.75,1.56,4,4,0,0,1-2.09-.63,4.53,4.53,0,0,0-2.51-.72,4.94,4.94,0,0,0-.9.22,2.9,2.9,0,0,1-1,.18,1.07,1.07,0,0,1-1-.76,1,1,0,0,1,.59-1l-.29-.55a1.54,1.54,0,0,0-1,1.69,1.74,1.74,0,0,0,1.61,1.26,3.32,3.32,0,0,0,1.23-.22,4.45,4.45,0,0,1,.76-.19,3.88,3.88,0,0,1,2.09.64A5,5,0,0,0,176.6,191.43Z"/><path class="cls-19" d="M179,174.17a6.94,6.94,0,0,0,3-.63,3.64,3.64,0,0,1,4.2.52"/><path class="cls-18" d="M175.62,192.05a1.57,1.57,0,0,1,.79-.28,5.55,5.55,0,0,1,3,.57c2,.95,3.28,2.79,5.1,4a5.58,5.58,0,0,0,4.71.83c.31-.11.78-.22.9,0,.18.42-.77.52-1,.56a22.9,22.9,0,0,1-10-.19,6.57,6.57,0,0,1-3.14-1.76,1.44,1.44,0,0,1-.27-.39,1.49,1.49,0,0,1-.09-.59,11.94,11.94,0,0,0-.18-1.58C175.37,192.81,175.22,192.38,175.62,192.05Z"/><path class="cls-18" d="M174.73,192.05a1.57,1.57,0,0,0-.79-.28,5.55,5.55,0,0,0-3,.57c-2,.95-3.28,2.79-5.1,4a5.57,5.57,0,0,1-4.71.83c-.31-.11-.78-.22-.89,0-.19.42.76.52,1,.56a22.9,22.9,0,0,0,10-.19,6.57,6.57,0,0,0,3.14-1.76,1.44,1.44,0,0,0,.27-.39,1.7,1.7,0,0,0,.1-.59,9.33,9.33,0,0,1,.18-1.58C175,192.81,175.14,192.38,174.73,192.05Z"/><path class="cls-10" d="M196.11,382.61a.7.7,0,0,0,.26.33c1.73,1.35,4.46.77,5.94-.86a10.42,10.42,0,0,0,1.05-1.42l2.71-4.1a28.35,28.35,0,0,0,11.5,4l1,.11a3.76,3.76,0,0,0,2.77-.55,3.8,3.8,0,0,0,.93-1.46,99.57,99.57,0,0,0,5.36-14c.42-1.56.77-3.15,1.29-4.69a36.36,36.36,0,0,1,2.32-5.08c.83-1.58.38-2.33-.65-3.73a11.15,11.15,0,0,0-7.31-4.38,1,1,0,0,0-.43,0,1.16,1.16,0,0,0-.61.62l-3.18,5.75a25.79,25.79,0,0,1-2.48,3.88,12.56,12.56,0,0,1-3.32,2.8,50.8,50.8,0,0,0-4.56,2.43c-3.12,2.26-4.28,6.3-6.46,9.47-1,1.45-2.24,2.74-3.22,4.21a19.35,19.35,0,0,0-1.32,2.35c-.58,1.22-1.07,2.51-1.55,3.78h0A.77.77,0,0,0,196.11,382.61Z"/><path class="cls-11" d="M217.57,380.6l1,.11a3.76,3.76,0,0,0,2.77-.55,3.8,3.8,0,0,0,.93-1.46,99.57,99.57,0,0,0,5.36-14c.42-1.56.77-3.15,1.29-4.69a36.36,36.36,0,0,1,2.32-5.08c.83-1.58.38-2.33-.65-3.73a11,11,0,0,0-1.64-1.77c0,.11,0,.2.05.28.33,3.73-2.15,7.1-2.88,10.78-.63,3.15,0,6.58-1.34,9.49-.41.88-1,1.66-1.45,2.51-.69,1.23-1.15,2.56-1.89,3.76A25.83,25.83,0,0,1,217.57,380.6Z"/><path class="cls-3" d="M199,381.71a4.74,4.74,0,0,0,.6-.74,3.2,3.2,0,0,0,.42-.77,1,1,0,0,0-.06-.85,1.53,1.53,0,0,0-.88-.57l-1.06-.39a.51.51,0,0,0-.29-.05c-.14,0-.22.16-.29.28l-1.06,1.8a2.67,2.67,0,0,0-.38.8C195.53,382.89,198.25,382.38,199,381.71Z"/><path class="cls-4" d="M223.17,323c-1.8,3-4.89,4.91-6.73,7.83-1.53,2.43-2.14,5.45-4.13,7.53-1.4,1.46-3.35,2.31-4.65,3.85a8.57,8.57,0,0,0-1.23,7.79,23.71,23.71,0,0,0,3.95,7.16c1.25,1.73,2.66,3.55,4.7,4.19a10.15,10.15,0,0,0,4.15.13c5.1-.57,10.69-1.58,14-5.53,2-2.4,2.8-5.51,4-8.36,2.93-6.86,8.29-12.34,12.76-18.31,3.4-4.55,6.44-10,5.45-15.62a6.68,6.68,0,0,0-1.54-3.44,9.39,9.39,0,0,0-3.23-1.94c-4.65-2-12.63-6.09-17.66-3C227.14,308.77,226.43,317.62,223.17,323Z"/><path class="cls-12" d="M232.24,318a1.39,1.39,0,0,0,.7-.19,3.8,3.8,0,0,1,2.89.38,27.16,27.16,0,0,1,6.2,3.89,6.6,6.6,0,0,0-3.72-4.39,16.9,16.9,0,0,0-5.77-1.35c-.58-.55,0-1.63.76-1.79a3.33,3.33,0,0,1,2.25.63,1,1,0,0,0-.87-1,.78.78,0,0,0,.18-1.13,2.25,2.25,0,0,0-1.1-.66,3.25,3.25,0,0,1,1.21-1.12c-.48.22-.94-.53-.67-1a1.38,1.38,0,0,1,1.42-.44,9.41,9.41,0,0,0,1.54.33,3.2,3.2,0,0,0-1.64-1.13c-2.21-.66-4.57,1.09-6.82.57-.34-.08-.75-.19-1,.06a1,1,0,0,0-.18.65c0,1.42-1.44,4.13-.37,5.12.49.45,1.57.5,2.17.77C230.29,316.58,231.33,317.85,232.24,318Z"/><path class="cls-21" d="M150.79,211.69c-1.74-4.23-5.34-2.79-9.19-2.12-5,.87-9.87,2.17-14.87,3.13-8.2,1.58-17.18,1.25-24.32,6.05-3.46,2.32-7.2,6.17-5.43,10.52,1.51,3.72,2.4,7.56,3.94,11.26,2.35,5.65,3.44,11.76,5.68,17.48,3.7,9.44,5.23,19.12,6.65,29.14,1.58,11.19-1.9,21.84-3.09,32.87-.82,7.7-.29,16.14,2.71,23.36C116.45,352,123.32,357,131.4,361c15.78,7.94,32.87,9.08,50,5.48,16.12-3.39,33.79-9.85,41-26.07,3-6.9,3.83-13.88,3.52-21.37-.45-10.39-1.71-20.76-3.08-31.07-.68-5.14-2.09-10-2.51-15.17a74.73,74.73,0,0,1,.48-16.1,125.2,125.2,0,0,1,6-23.73c2.94-8.5-.05-13.54-.69-14.5-2.53-3.84-10.83-6-15.18-6.79-7.1-1.26-14.12-3-21.39-2.56-5.72.35-7.38,5.47-11.51,8.67-6.54,5.07-17.56,5.66-23.64-.21-1.54-1.5-2.26-4-3.55-5.27"/><g class="cls-22"><polygon class="cls-23" points="74.65 191.64 81.84 200.69 75.61 210.42 68.42 201.38 74.65 191.64"/><polygon class="cls-23" points="88.08 190.96 95.27 200 89.04 209.74 81.84 200.69 88.08 190.96"/><polygon class="cls-23" points="101.5 190.27 108.7 199.32 102.46 209.05 95.27 200 101.5 190.27"/><polygon class="cls-23" points="114.93 189.58 122.12 198.63 115.89 208.36 108.7 199.32 114.93 189.58"/><polygon class="cls-23" points="128.36 188.9 135.55 197.94 129.32 207.68 122.12 198.63 128.36 188.9"/><polygon class="cls-23" points="141.78 188.21 148.98 197.26 142.74 206.99 135.55 197.94 141.78 188.21"/><polygon class="cls-23" points="155.21 187.52 162.4 196.57 156.17 206.31 148.98 197.26 155.21 187.52"/><polygon class="cls-23" points="75.61 210.42 82.8 219.47 76.57 229.21 69.38 220.16 75.61 210.42"/><polygon class="cls-23" points="89.04 209.74 96.23 218.79 90 228.52 82.8 219.47 89.04 209.74"/><polygon class="cls-23" points="102.46 209.05 109.66 218.1 103.42 227.83 96.23 218.79 102.46 209.05"/><polygon class="cls-23" points="115.89 208.36 123.08 217.41 116.85 227.15 109.66 218.1 115.89 208.36"/><polygon class="cls-23" points="129.32 207.68 136.51 216.73 130.28 226.46 123.08 217.41 129.32 207.68"/><polygon class="cls-23" points="142.74 206.99 149.94 216.04 143.7 225.77 136.51 216.73 142.74 206.99"/><polygon class="cls-23" points="156.17 206.31 163.36 215.35 157.13 225.09 149.94 216.04 156.17 206.31"/><polygon class="cls-23" points="76.57 229.21 83.76 238.25 77.53 247.99 70.34 238.94 76.57 229.21"/><polygon class="cls-23" points="90 228.52 97.19 237.57 90.96 247.3 83.76 238.25 90 228.52"/><polygon class="cls-23" points="103.42 227.83 110.62 236.88 104.38 246.62 97.19 237.57 103.42 227.83"/><polygon class="cls-23" points="116.85 227.15 124.04 236.19 117.81 245.93 110.62 236.88 116.85 227.15"/><polygon class="cls-23" points="130.28 226.46 137.47 235.51 131.24 245.24 124.04 236.19 130.28 226.46"/><polygon class="cls-23" points="143.7 225.77 150.9 234.82 144.66 244.56 137.47 235.51 143.7 225.77"/><polygon class="cls-23" points="157.13 225.09 164.32 234.14 158.09 243.87 150.9 234.82 157.13 225.09"/><polygon class="cls-23" points="77.53 247.99 84.72 257.04 78.49 266.77 71.3 257.72 77.53 247.99"/><polygon class="cls-23" points="90.96 247.3 98.15 256.35 91.92 266.09 84.72 257.04 90.96 247.3"/><polygon class="cls-23" points="104.38 246.62 111.58 255.66 105.34 265.4 98.15 256.35 104.38 246.62"/><polygon class="cls-23" points="117.81 245.93 125 254.98 118.77 264.71 111.58 255.66 117.81 245.93"/><polygon class="cls-23" points="131.24 245.24 138.43 254.29 132.2 264.03 125 254.98 131.24 245.24"/><polygon class="cls-23" points="144.66 244.56 151.86 253.6 145.63 263.34 138.43 254.29 144.66 244.56"/><polygon class="cls-23" points="158.09 243.87 165.28 252.92 159.05 262.65 151.86 253.6 158.09 243.87"/><polygon class="cls-23" points="78.49 266.77 85.68 275.82 79.45 285.56 72.26 276.51 78.49 266.77"/><polygon class="cls-23" points="91.92 266.09 99.11 275.13 92.88 284.87 85.68 275.82 91.92 266.09"/><polygon class="cls-23" points="105.34 265.4 112.54 274.45 106.31 284.18 99.11 275.13 105.34 265.4"/><polygon class="cls-23" points="118.77 264.71 125.97 273.76 119.73 283.5 112.54 274.45 118.77 264.71"/><polygon class="cls-23" points="132.2 264.03 139.39 273.07 133.16 282.81 125.97 273.76 132.2 264.03"/><polygon class="cls-23" points="145.63 263.34 152.82 272.39 146.59 282.12 139.39 273.07 145.63 263.34"/><polygon class="cls-23" points="159.05 262.65 166.25 271.7 160.01 281.44 152.82 272.39 159.05 262.65"/><polygon class="cls-23" points="168.51 186.91 175.7 195.96 169.47 205.69 162.28 196.64 168.51 186.91"/><polygon class="cls-23" points="181.94 186.22 189.13 195.27 182.9 205 175.7 195.96 181.94 186.22"/><polygon class="cls-23" points="195.36 185.53 202.56 194.58 196.32 204.32 189.13 195.27 195.36 185.53"/><polygon class="cls-23" points="208.79 184.85 215.98 193.9 209.75 203.63 202.56 194.58 208.79 184.85"/><polygon class="cls-23" points="222.22 184.16 229.41 193.21 223.18 202.94 215.98 193.9 222.22 184.16"/><polygon class="cls-23" points="235.64 183.47 242.84 192.52 236.6 202.26 229.41 193.21 235.64 183.47"/><polygon class="cls-23" points="249.07 182.79 256.26 191.84 250.03 201.57 242.84 192.52 249.07 182.79"/><polygon class="cls-23" points="169.47 205.69 176.66 214.74 170.43 224.47 163.24 215.42 169.47 205.69"/><polygon class="cls-23" points="182.9 205 190.09 214.05 183.86 223.79 176.66 214.74 182.9 205"/><polygon class="cls-23" points="196.32 204.32 203.52 213.37 197.28 223.1 190.09 214.05 196.32 204.32"/><polygon class="cls-23" points="209.75 203.63 216.94 212.68 210.71 222.41 203.52 213.37 209.75 203.63"/><polygon class="cls-23" points="223.18 202.94 230.37 211.99 224.14 221.73 216.94 212.68 223.18 202.94"/><polygon class="cls-23" points="236.6 202.26 243.8 211.31 237.56 221.04 230.37 211.99 236.6 202.26"/><polygon class="cls-23" points="250.03 201.57 257.22 210.62 250.99 220.35 243.8 211.31 250.03 201.57"/><polygon class="cls-23" points="170.43 224.47 177.62 233.52 171.39 243.25 164.2 234.21 170.43 224.47"/><polygon class="cls-23" points="183.86 223.79 191.05 232.83 184.82 242.57 177.62 233.52 183.86 223.79"/><polygon class="cls-23" points="197.28 223.1 204.48 232.15 198.24 241.88 191.05 232.83 197.28 223.1"/><polygon class="cls-23" points="210.71 222.41 217.9 231.46 211.67 241.2 204.48 232.15 210.71 222.41"/><polygon class="cls-23" points="224.14 221.73 231.33 230.77 225.1 240.51 217.9 231.46 224.14 221.73"/><polygon class="cls-23" points="237.56 221.04 244.76 230.09 238.52 239.82 231.33 230.77 237.56 221.04"/><polygon class="cls-23" points="250.99 220.35 258.18 229.4 251.95 239.14 244.76 230.09 250.99 220.35"/><polygon class="cls-23" points="171.39 243.25 178.58 252.3 172.35 262.04 165.16 252.99 171.39 243.25"/><polygon class="cls-23" points="184.82 242.57 192.01 251.62 185.78 261.35 178.58 252.3 184.82 242.57"/><polygon class="cls-23" points="198.24 241.88 205.44 250.93 199.2 260.67 192.01 251.62 198.24 241.88"/><polygon class="cls-23" points="211.67 241.2 218.86 250.24 212.63 259.98 205.44 250.93 211.67 241.2"/><polygon class="cls-23" points="225.1 240.51 232.29 249.56 226.06 259.29 218.86 250.24 225.1 240.51"/><polygon class="cls-23" points="238.52 239.82 245.72 248.87 239.48 258.61 232.29 249.56 238.52 239.82"/><polygon class="cls-23" points="251.95 239.14 259.14 248.18 252.91 257.92 245.72 248.87 251.95 239.14"/><polygon class="cls-23" points="172.35 262.04 179.54 271.09 173.31 280.82 166.12 271.77 172.35 262.04"/><polygon class="cls-23" points="185.78 261.35 192.97 270.4 186.74 280.13 179.54 271.09 185.78 261.35"/><polygon class="cls-23" points="199.2 260.67 206.4 269.71 200.16 279.45 192.97 270.4 199.2 260.67"/><polygon class="cls-23" points="212.63 259.98 219.82 269.03 213.59 278.76 206.4 269.71 212.63 259.98"/><polygon class="cls-23" points="226.06 259.29 233.25 268.34 227.02 278.07 219.82 269.03 226.06 259.29"/><polygon class="cls-23" points="239.48 258.61 246.68 267.65 240.44 277.39 233.25 268.34 239.48 258.61"/><polygon class="cls-23" points="252.91 257.92 260.11 266.97 253.87 276.7 246.68 267.65 252.91 257.92"/><polygon class="cls-23" points="79.41 285.09 86.61 294.14 80.37 303.87 73.18 294.82 79.41 285.09"/><polygon class="cls-23" points="92.84 284.4 100.03 293.45 93.8 303.19 86.61 294.14 92.84 284.4"/><polygon class="cls-23" points="106.27 283.72 113.46 292.76 107.23 302.5 100.03 293.45 106.27 283.72"/><polygon class="cls-23" points="119.69 283.03 126.89 292.08 120.66 301.81 113.46 292.76 119.69 283.03"/><polygon class="cls-23" points="133.12 282.34 140.31 291.39 134.08 301.13 126.89 292.08 133.12 282.34"/><polygon class="cls-23" points="146.55 281.66 153.74 290.7 147.51 300.44 140.31 291.39 146.55 281.66"/><polygon class="cls-23" points="159.97 280.97 167.17 290.02 160.94 299.75 153.74 290.7 159.97 280.97"/><polygon class="cls-23" points="80.37 303.87 87.57 312.92 81.33 322.65 74.14 313.61 80.37 303.87"/><polygon class="cls-23" points="93.8 303.19 101 312.23 94.76 321.97 87.57 312.92 93.8 303.19"/><polygon class="cls-23" points="107.23 302.5 114.42 311.55 108.19 321.28 101 312.23 107.23 302.5"/><polygon class="cls-23" points="120.66 301.81 127.85 310.86 121.61 320.6 114.42 311.55 120.66 301.81"/><polygon class="cls-23" points="134.08 301.13 141.28 310.18 135.04 319.91 127.85 310.86 134.08 301.13"/><polygon class="cls-23" points="147.51 300.44 154.7 309.49 148.47 319.22 141.28 310.18 147.51 300.44"/><polygon class="cls-23" points="160.94 299.75 168.13 308.8 161.9 318.54 154.7 309.49 160.94 299.75"/><polygon class="cls-23" points="81.33 322.65 88.53 331.7 82.3 341.44 75.1 332.39 81.33 322.65"/><polygon class="cls-23" points="94.76 321.97 101.95 331.02 95.72 340.75 88.53 331.7 94.76 321.97"/><polygon class="cls-23" points="108.19 321.28 115.38 330.33 109.15 340.06 101.95 331.02 108.19 321.28"/><polygon class="cls-23" points="121.61 320.6 128.81 329.64 122.58 339.38 115.38 330.33 121.61 320.6"/><polygon class="cls-23" points="135.04 319.91 142.24 328.96 136 338.69 128.81 329.64 135.04 319.91"/><polygon class="cls-23" points="148.47 319.22 155.66 328.27 149.43 338.01 142.24 328.96 148.47 319.22"/><polygon class="cls-23" points="161.9 318.54 169.09 327.58 162.86 337.32 155.66 328.27 161.9 318.54"/><polygon class="cls-23" points="82.3 341.44 89.49 350.49 83.25 360.22 76.06 351.17 82.3 341.44"/><polygon class="cls-23" points="95.72 340.75 102.92 349.8 96.68 359.54 89.49 350.49 95.72 340.75"/><polygon class="cls-23" points="109.15 340.06 116.34 349.11 110.11 358.85 102.92 349.8 109.15 340.06"/><polygon class="cls-23" points="122.58 339.38 129.77 348.43 123.54 358.16 116.34 349.11 122.58 339.38"/><polygon class="cls-23" points="136 338.69 143.2 347.74 136.96 357.48 129.77 348.43 136 338.69"/><polygon class="cls-23" points="149.43 338.01 156.62 347.05 150.39 356.79 143.2 347.74 149.43 338.01"/><polygon class="cls-23" points="162.86 337.32 170.05 346.37 163.82 356.1 156.62 347.05 162.86 337.32"/><polygon class="cls-23" points="83.25 360.22 90.45 369.27 84.22 379 77.02 369.96 83.25 360.22"/><polygon class="cls-23" points="96.68 359.54 103.88 368.58 97.64 378.32 90.45 369.27 96.68 359.54"/><polygon class="cls-23" points="110.11 358.85 117.3 367.9 111.07 377.63 103.88 368.58 110.11 358.85"/><polygon class="cls-23" points="123.54 358.16 130.73 367.21 124.5 376.94 117.3 367.9 123.54 358.16"/><polygon class="cls-23" points="136.96 357.48 144.16 366.52 137.92 376.26 130.73 367.21 136.96 357.48"/><polygon class="cls-23" points="150.39 356.79 157.58 365.84 151.35 375.57 144.16 366.52 150.39 356.79"/><polygon class="cls-23" points="163.82 356.1 171.01 365.15 164.78 374.88 157.58 365.84 163.82 356.1"/><polygon class="cls-23" points="173.27 280.36 180.47 289.4 174.23 299.14 167.04 290.09 173.27 280.36"/><polygon class="cls-23" points="186.7 279.67 193.89 288.72 187.66 298.45 180.47 289.4 186.7 279.67"/><polygon class="cls-23" points="200.13 278.98 207.32 288.03 201.09 297.76 193.89 288.72 200.13 278.98"/><polygon class="cls-23" points="213.55 278.3 220.75 287.34 214.51 297.08 207.32 288.03 213.55 278.3"/><polygon class="cls-23" points="226.98 277.61 234.17 286.66 227.94 296.39 220.75 287.34 226.98 277.61"/><polygon class="cls-23" points="240.41 276.92 247.6 285.97 241.37 295.7 234.17 286.66 240.41 276.92"/><polygon class="cls-23" points="253.83 276.24 261.03 285.28 254.79 295.02 247.6 285.97 253.83 276.24"/><polygon class="cls-23" points="174.23 299.14 181.43 308.19 175.19 317.92 168 308.87 174.23 299.14"/><polygon class="cls-23" points="187.66 298.45 194.85 307.5 188.62 317.23 181.43 308.19 187.66 298.45"/><polygon class="cls-23" points="201.09 297.76 208.28 306.81 202.05 316.55 194.85 307.5 201.09 297.76"/><polygon class="cls-23" points="214.51 297.08 221.71 306.13 215.47 315.86 208.28 306.81 214.51 297.08"/><polygon class="cls-23" points="227.94 296.39 235.13 305.44 228.9 315.18 221.71 306.13 227.94 296.39"/><polygon class="cls-23" points="241.37 295.7 248.56 304.75 242.33 314.49 235.13 305.44 241.37 295.7"/><polygon class="cls-23" points="254.79 295.02 261.99 304.07 255.75 313.8 248.56 304.75 254.79 295.02"/><polygon class="cls-23" points="175.19 317.92 182.39 326.97 176.15 336.7 168.96 327.66 175.19 317.92"/><polygon class="cls-23" points="188.62 317.23 195.81 326.28 189.58 336.02 182.39 326.97 188.62 317.23"/><polygon class="cls-23" points="202.05 316.55 209.24 325.6 203.01 335.33 195.81 326.28 202.05 316.55"/><polygon class="cls-23" points="215.47 315.86 222.67 324.91 216.44 334.64 209.24 325.6 215.47 315.86"/><polygon class="cls-23" points="228.9 315.18 236.09 324.22 229.86 333.96 222.67 324.91 228.9 315.18"/><polygon class="cls-23" points="242.33 314.49 249.52 323.54 243.29 333.27 236.09 324.22 242.33 314.49"/><polygon class="cls-23" points="255.75 313.8 262.95 322.85 256.71 332.58 249.52 323.54 255.75 313.8"/><polygon class="cls-23" points="176.15 336.7 183.35 345.75 177.12 355.49 169.92 346.44 176.15 336.7"/><polygon class="cls-23" points="189.58 336.02 196.78 345.06 190.54 354.8 183.35 345.75 189.58 336.02"/><polygon class="cls-23" points="203.01 335.33 210.2 344.38 203.97 354.11 196.78 345.06 203.01 335.33"/><polygon class="cls-23" points="216.44 334.64 223.63 343.69 217.4 353.43 210.2 344.38 216.44 334.64"/><polygon class="cls-23" points="229.86 333.96 237.06 343.01 230.82 352.74 223.63 343.69 229.86 333.96"/><polygon class="cls-23" points="243.29 333.27 250.48 342.32 244.25 352.05 237.06 343.01 243.29 333.27"/><polygon class="cls-23" points="256.71 332.58 263.91 341.63 257.68 351.37 250.48 342.32 256.71 332.58"/><polygon class="cls-23" points="177.12 355.49 184.31 364.54 178.07 374.27 170.88 365.22 177.12 355.49"/><polygon class="cls-23" points="190.54 354.8 197.74 363.85 191.5 373.58 184.31 364.54 190.54 354.8"/><polygon class="cls-23" points="203.97 354.11 211.16 363.16 204.93 372.9 197.74 363.85 203.97 354.11"/><polygon class="cls-23" points="217.4 353.43 224.59 362.48 218.36 372.21 211.16 363.16 217.4 353.43"/><polygon class="cls-23" points="230.82 352.74 238.02 361.79 231.78 371.52 224.59 362.48 230.82 352.74"/><polygon class="cls-23" points="244.25 352.05 251.44 361.1 245.21 370.84 238.02 361.79 244.25 352.05"/><polygon class="cls-23" points="257.68 351.37 264.87 360.42 258.64 370.15 251.44 361.1 257.68 351.37"/></g><path class="cls-24" d="M150.32,210.29a16.71,16.71,0,0,0,9,10.32c4.29,1.94,10.11,1.59,14.38-.39,3.53-1.64,7.15-4.08,9.24-7.36"/><path class="cls-18" d="M192,202.4c.38.36-.22,1-.72.88a1.47,1.47,0,0,1-.84-1.24,11.3,11.3,0,0,1,.11-3.93,56.22,56.22,0,0,0,.95-9.93,18.36,18.36,0,0,0-.78-4.88c-.29-.94-1-3.14-2.13-4a25.32,25.32,0,0,1-1.6,16.14,11.46,11.46,0,0,1-3.38,4.83,4.83,4.83,0,0,1-5.56.35,22.21,22.21,0,0,0-2.08-1.82c-1.45-.79-3.28-.09-4.61.9s-2.5,2.27-4.07,2.8a7.92,7.92,0,0,1-3.22.23c-4.3-.42-8.81-2.74-10.16-6.85-.33-1-.45-2-.74-3a18.28,18.28,0,0,0-2-4.17c-2-3.3-3.71-6.46-5.82-9.68A10.8,10.8,0,0,1,147.5,167a18.6,18.6,0,0,1,4-2.77,75.91,75.91,0,0,1,15.8-6.52c1.67-.48,3.3-.23,5-.35a23.36,23.36,0,0,1,4.58,0,59.49,59.49,0,0,1,6.22,1.09,5.24,5.24,0,0,1,2.15.88,4,4,0,0,1,1.26,1.89c.8,2.37,1,5,1.75,7.16.47-4.37-.76-10.28-3.77-13.55-2.12-2.31-5.09-3.65-8.05-4.68-5.68-2-12-3-17.64-.81-3.22,1.24-6,3.43-8.67,5.59a22.68,22.68,0,0,0-3.91,3.67,20.64,20.64,0,0,0-2.56,4.71c-1.59,3.77-3.21,2.73-4.57,6.59-.09.27.07,5.44.14,5.72.14.47.71.65,1.18.82,1.64.6,5,3.34,3.23,13.88a22.61,22.61,0,0,0-.19,8,10.94,10.94,0,0,0,4,6.75,7,7,0,0,1,1.69,1.42,1.55,1.55,0,0,1,0,2c-.55.49-1.68,0-1.45-.74a1.12,1.12,0,0,0-.27,1.76,2.18,2.18,0,0,0,2,.45c.69-.14,1.33-.45,2-.59a7.7,7.7,0,0,1,4.69.93c4.15,1.94,7.9,4.88,12.36,5.93a24.14,24.14,0,0,0,8.52.17,11.84,11.84,0,0,0,5.47-1.77c2.23-1.61,3.29-4.46,5.49-6.1,1.78-1.32,4.4-2,4.94-4.17A1.59,1.59,0,0,0,192,202.4Z"/><path class="cls-25" d="M161.25,137.26l-6.62,1.29a22,22,0,0,0-17.37,25.8l1.36,6.92,10.52-.79a129.56,129.56,0,0,0,30.94-6.19l8.32-2.76-1.35-6.91A22,22,0,0,0,161.25,137.26Z"/><path class="cls-26" d="M157.94,137.9a45.32,45.32,0,0,1,5,20.84"/><path class="cls-26" d="M137,162.36c.27-.06,26.05-1.42,49.36-10.29"/><path d="M158.35,137.61a2.87,2.87,0,0,0-1.61-.65,6.12,6.12,0,0,0-2.16.32,11.12,11.12,0,0,0-3.46,1.85c-2.11,1.65-3.7,3.86-5.64,5.69-.37.34.19.9.55.55,1.74-1.63,3.18-3.55,5-5.12a10.73,10.73,0,0,1,3.12-2,6.86,6.86,0,0,1,2-.51,3,3,0,0,1,1.11.05,3.83,3.83,0,0,1,.73.48c.42.28.81-.4.39-.68Z"/><path d="M145.69,144.72a3.29,3.29,0,0,0-.28.76,7.52,7.52,0,0,1-.27.8c-.22.55-.49,1.08-.75,1.62a.39.39,0,0,0,.14.53.4.4,0,0,0,.54-.14c.27-.56.55-1.12.78-1.69.11-.27.21-.55.3-.82a2.56,2.56,0,0,1,.22-.66c.27-.44-.41-.83-.68-.4Z"/><path d="M145.71,144.6a5.22,5.22,0,0,0-1.12,1.18l-.43.62-.23.3s-.07.1,0,0l0,.06-.14.16a.4.4,0,0,0,.56.56c.34-.39.62-.83.92-1.25l.11-.15.05-.07s0-.07,0,0a3.11,3.11,0,0,1,.23-.28l.26-.27.13-.12.07-.05,0,0a.39.39,0,0,0-.4-.68Z"/><path d="M145.69,144.59a7.29,7.29,0,0,0-2.5,1.55.39.39,0,0,0,.55.55l.24-.21.14-.12.07-.05c.05,0,0,0,0,0s.37-.27.56-.39.38-.22.57-.32l.31-.15.05,0s0,0,0,0l.17-.07a.4.4,0,0,0,.27-.48.39.39,0,0,0-.48-.27Z"/><path class="cls-27" d="M141.1,152.49c-.11.71-.19,1.42-.25,2.14"/><path class="cls-27" d="M142,153.34a9.69,9.69,0,0,1-.17,2.08"/><path class="cls-27" d="M140.8,156.43l0,.33"/><path class="cls-27" d="M143.37,153.57l-.11.41"/><path class="cls-27" d="M142.29,149l-.15,1.67"/><path class="cls-27" d="M141.2,158.32l-.09,1.54"/></g></svg>