<svg id="Layer_1" data-name="Layer 1" xmlns="http://www.w3.org/2000/svg" xmlns:xlink="http://www.w3.org/1999/xlink" viewBox="0 0 331 438"><defs><style>.cls-1,.cls-10,.cls-30,.cls-7,.cls-8,.cls-9{fill:none;}.cls-2{clip-path:url(#clip-path);}.cls-3{fill:#7541ee;}.cls-4{fill:#fff;}.cls-5,.cls-6{fill:#121a1a;}.cls-10,.cls-6,.cls-7,.cls-9{stroke:#7d5955;}.cls-10,.cls-30,.cls-6,.cls-7,.cls-9{stroke-miterlimit:10;}.cls-6,.cls-7,.cls-8{stroke-width:1.37px;}.cls-8{stroke:#baad7f;stroke-linejoin:round;}.cls-9{stroke-width:1.2px;}.cls-10{stroke-width:2.73px;}.cls-11{fill:#850000;}.cls-12{fill:#1a170f;}.cls-13{fill:#6e00a2;}.cls-14{fill:#0a0f0f;}.cls-15{fill:#d4d4d4;}.cls-16{fill:#636363;}.cls-17{fill:#f9efde;}.cls-18{fill:#ebd9bc;}.cls-19{fill:#f7e4c6;}.cls-20{fill:#9e6952;}.cls-21{fill:#1a293f;}.cls-22{opacity:0.54;}.cls-23{fill:#9e7a6a;}.cls-24{fill:#5e3725;}.cls-25{fill:#874e35;}.cls-26{opacity:0.84;}.cls-27{clip-path:url(#clip-path-2);}.cls-28{fill:#10161c;}.cls-29{fill:#202c38;}.cls-30{stroke:#1a293f;stroke-width:1.29px;}.cls-31{clip-path:url(#clip-path-3);}.cls-32{fill:#a87171;}.cls-33{clip-path:url(#clip-path-4);}</style><clipPath id="clip-path"><rect class="cls-1" width="331" height="438"/></clipPath><clipPath id="clip-path-2"><circle class="cls-1" cx="200.48" cy="131.25" r="3.22"/></clipPath><clipPath id="clip-path-3"><circle class="cls-1" cx="161.87" cy="131.25" r="3.22"/></clipPath><clipPath id="clip-path-4"><rect class="cls-1" x="-366.2" width="331" height="438"/></clipPath></defs><g class="cls-2"><rect class="cls-3" width="331" height="438"/><path class="cls-4" d="M297.29,234.59c-1.45-1.85-5.45-6-8.78-7.14-2.32-3-21.55-12.34-21.56-12.35h0A135.28,135.28,0,0,0,229.72,204c-5.16-.71-10.35-1.09-15.56-1.33a27.19,27.19,0,0,1-2.75-1.16,4.58,4.58,0,0,0-1-2.14V185.89l7.1-7.22a8.22,8.22,0,0,0,2.4-5.78l1.61-13.34c1.15.24,2.11-.85,2.78-1.82l2.24-3.25a14.47,14.47,0,0,0,2.65-5.23c.22-1.06.19-2.16.31-3.24a15.28,15.28,0,0,1,1.86-5.53,25.5,25.5,0,0,0,1.91-3.89A3.63,3.63,0,0,0,232,132a3.33,3.33,0,0,0-3.49-.48c1.4-2.16.67-5.14,0-7.71A59.41,59.41,0,0,1,226.59,111a4.13,4.13,0,0,0,1.73-.83c2.75-4,1-14.89.06-24.28-.48-4.76-1.54-10.61-6.07-13.11-4.06-2.25-28.33-1.36-35.38-.61-8.43.9-43,3.52-45.3,4a6.39,6.39,0,0,0-5.38,5.63c-.65,3.82-1,19.78-1.11,23.88,0,3-.06,10.61,2.72,11.48a9.73,9.73,0,0,0,2.26.29,4.94,4.94,0,0,0-.11.6c-.36,4.14-.43,8.32-.64,12.47a2.9,2.9,0,0,0,0,.93c.31,1.13,1.75,1.54,2.37,2.51-.38-.33-.78-.64-1.15-.93s-.92-.7-1.37-1a3.54,3.54,0,0,0-4.47,0,3.63,3.63,0,0,0-1.3,4.55,25.5,25.5,0,0,0,1.91,3.89,15.28,15.28,0,0,1,1.86,5.53c.12,1.08.09,2.18.31,3.24a14.47,14.47,0,0,0,2.65,5.23l2.24,3.25c.67,1,1.63,2.07,2.79,1.82a1.53,1.53,0,0,0,.4-.21l.5,11c0,2.15,1.91,6.37,3.44,7.89l8.72,8.94v16.74a289.29,289.29,0,0,0-35.06,4.87h0c-6.52,1.35-19.43,4.94-19.43,4.94s-10.12,3.34-15.09,5.36c-.72,3.11-1.25,6.25-1.68,9.41-7.89,2.87-15.75,5.94-18.5,7.68-11,7-22,14.14-33.45,20.29-3.17,1.69-51.24,36-56.15,50.76-2,6.14-5.27,12.93-1.84,18.41,1,1.66,2.51,3,3.4,4.75,2,4,.5,8.72.06,13.17A26.62,26.62,0,0,0-6.83,368.45c7.25,4.29,16.28,4.91,23.34,9.49,10.8,7,15.47,22.08,27.64,26.18,6.17,2.09,12.94.77,19.4,1.65s31.38,14.42,30.65,20.89c4.84-2.41,8.65-6.39,11.74-10.89,0,.74,0,1.47,0,2.17s0,1.32.11,1.94a3.76,3.76,0,0,0,.08,1l.07.14c-.2.79,0,2.56.47,2.48-2.15,5.21-5.3,10-8.15,14.8-7.5,12.78-12.87,27-14.22,41.74A165.63,165.63,0,0,0,84,498.59c.21,9.09-4.42,45.91-6,53.05,4.6,1.24,10.45,1.32,16.41,1.06-.5,2.71-1,5.42-1.47,8.15,30.29,1.77,72.36,4.6,102.68,3.34,24.55-1,49.39-4,73.52.64,4.9.95,14.44-3.57,18.94-5.73,2.59-1.25-7.62-64.67-8.73-78.73-.66-8.43-1.41-16.85-2.2-25.27l25.71-12.35c5-2.43,10.12-4.87,14.62-8.21,10.45-7.76,17.07-20.08,19.17-32.93,1-6.18,6-33.13,5.09-39.32C335.05,317.77,304.35,243.57,297.29,234.59ZM77.53,346.81c-3-1.56-5.42-3.92-8.14-5.87a35.15,35.15,0,0,0-10.86-5.17,33.89,33.89,0,0,0-8.59-1.29,23.4,23.4,0,0,1,5.64-4.05c4.74-2.57,10.2-4.11,14.8-7,4.11-2.59,14.82-8.66,23-14.26.83,9.62,1.91,18.91,3.35,26.47.81,4.26,2,11.46,3.25,20.08C92.49,353.63,79.76,348,77.53,346.81Z"/><path class="cls-4" d="M270.61,574.68a17.46,17.46,0,0,1-3.3-.3A145.32,145.32,0,0,0,239.22,572c-9.11,0-18.23.53-27.89,1.09-5.1.29-10.27.59-15.31.8s-11,.33-17.2.33c-24.82,0-54-1.74-77.44-3.14l-19.92-1.18,1.28-7.22-5.93-1.33c-.46-.1-.91-.21-1.36-.33l-9-2.43,2.06-9.1c1.53-6.8,6-42.74,5.8-50.69a172.18,172.18,0,0,1,.33-19.61,102.1,102.1,0,0,1,6.74-27.85l.31-.78,2.58-22.73-2.94-2.18c-4.71-3.5-13.84-8.67-18.55-10.1l-.58-.17-.61-.06c-1.75-.18-3.69-.19-5.75-.2-4.48,0-9.55,0-14.82-1.8-9.63-3.25-15.37-10.69-20.44-17.25-3.1-4-6-7.83-9.35-10-2.56-1.66-6-2.74-9.69-3.89a59.56,59.56,0,0,1-13.33-5.41A36.28,36.28,0,0,1-29.09,342.6c.12-1.2.31-2.47.49-3.66l.2-1.31L-28,335l-1.66-2.13c-.56-.72-1-1.37-1.43-2-5.47-8.75-2.28-17.76.05-24.34l.11-.3c.23-.67.47-1.34.69-2,6.08-18.28,52.31-50.86,61-56.41C40.23,242.69,49.2,237,58.7,230.93l4.66-3c1.34-.85,4-2.33,11.76-5.37l3.17-1.24L79,218c.09-.38.17-.75.25-1.12L80.4,212l4.68-1.9c1.85-.75,4.44-1.71,7.7-2.85l3.1-1.09.09-.32,5.26-1.46c2.3-.64,13.8-3.8,20.06-5.09,5.87-1.21,11.78-2.22,18.06-3.08l12.49-1.71L142.65,185c-2.55-2.53-6.06-8.84-6.21-14.33l-.23-5.12L135,164c-.17-.23-.35-.47-.52-.72L132.22,160a23.62,23.62,0,0,1-4.18-8.85,22.33,22.33,0,0,1-.38-3.31l-.08-1.35-.74-1.44-.38-.68a27,27,0,0,1-2.14-4.58,13.24,13.24,0,0,1,2.26-13.32l2.62-3.07-1.66-3.68c-2.27-5-2.17-11.2-2.12-14.16.13-8,.56-21.34,1.24-25.35a16.11,16.11,0,0,1,12.76-13.47c1.57-.37,4.29-.66,25.63-2.43,8.08-.67,17.24-1.43,20.85-1.81.08,0,9.61-1,19.87-1,14.72,0,19.76,1.91,21.25,2.73,8.5,4.71,10.37,14,11,20.64.14,1.33.29,2.7.44,4.07,1,9.44,2,18.35-1,24.63l-.87,1.81.34,2c.23,1.34.52,2.68.86,4l0,.11c.13.49.28,1.06.43,1.71l.38,1.64,1.14,1.24a13.21,13.21,0,0,1,2.59,13.71,27,27,0,0,1-2.1,4.5l-.52,1-.63,1.2-.09,1.38a24.05,24.05,0,0,1-.38,3.32,23.54,23.54,0,0,1-4.19,8.85l-2.24,3.24c-.21.31-.42.59-.63.87l-1.08,1.39-1,8.06v.22A17.65,17.65,0,0,1,225.78,184l-7,8.82,12.26,1.58a142.92,142.92,0,0,1,36.58,10.45l12.49,6.08a100.44,100.44,0,0,1,13.5,8.07l.41.32.46.25a38.05,38.05,0,0,1,10.41,9.06l.08.09c4,5.17,13.51,25.35,24.12,54.15,11.27,30.6,19.37,59,22.23,78,.76,5-.41,15.09-4.44,38.42l-.2,1.14c-.2,1.15-.36,2.1-.47,2.8-2.61,16-11,30.24-23,39.15-5.23,3.88-11,6.68-16.16,9.14l-19.65,9.45.39,4.39c.45,5.09.84,9.77,1.2,14.28.37,4.78,2,16.51,3.55,27.86,1.52,11.15,3.26,23.78,4.38,33.57,2,17.59,2.08,23.55-4.66,26.81C284.92,571.39,277.13,574.68,270.61,574.68Z"/><path class="cls-1" d="M152.17,61.18a5.17,5.17,0,0,0-.44,1.81"/><path class="cls-5" d="M102.7,301.21c-4.23,6.11-26,18.23-32.32,22.19-4.6,2.92-10.06,4.46-14.8,7a23.4,23.4,0,0,0-5.64,4.05,33.89,33.89,0,0,1,8.59,1.29,35.15,35.15,0,0,1,10.86,5.17c2.72,1.95,5.18,4.31,8.14,5.87s24.53,11,27.49,9.46c5.26,10,10.66,20.57,10.6,31.91,0,8.05-2.89,15.87-6.8,22.92-3.52,6.31-8.15,12.34-14.62,15.56.73-6.47-24.21-20-30.65-20.89s-13.23.44-19.4-1.65C32,400,27.31,384.9,16.51,377.94c-7.06-4.58-16.09-5.2-23.34-9.49a26.62,26.62,0,0,1-12.59-24.89c.44-4.45,2-9.2-.06-13.17-.89-1.74-2.37-3.09-3.4-4.75-3.43-5.48-.2-12.27,1.84-18.41,4.91-14.78,53-49.07,56.15-50.76,11.5-6.15,22.43-13.3,33.45-20.29,5.45-3.45,30.86-12.07,37-14.16l-5.08,7.32C92.29,251.16,115.94,282,102.7,301.21Z"/><path class="cls-5" d="M122.37,437.27c-8.69-3.51-16.32-8.87-16.4-19.33-.17-24.31-6.66-68.57-9.29-82.33-4.82-25.25-5.64-69.77-6.24-81.43s2.25-24.74,11.94-31.26c8.13-5.47,17.5-6.89,24.56-7.54,13.82-1.28,19.84-.19,27.41-4.13-4.84,5.6-2.77,3.68-3.77,10-.58,3.68.82,8.07,1,11.8.53,10-.14,19.32.39,29.3l-.08-3.37a13.5,13.5,0,0,0-.1,5.66,76.81,76.81,0,0,1,.94-21.72,9.45,9.45,0,0,1,1.89-4.74c1.43-1.58,3.68-2.08,5.78-2.49l10.44-2a15.4,15.4,0,0,1,5.84-.39c4.32.82,7.92,5.27,12.22,4.3,1.67-14.3,19.53-22,22.36-36.15,13.57,6.86,75.81,13.94,78.8,29.18,1.38,7,2.77,20.25-1.25,28.62-13.11,27.37-8.2,107.66-5.11,137.86.78,7.63,1.61,17.44-3.21,24.08-7.75,10.68-23.62,17.32-35.54,20-17.27,3.85-33.71,5-51.49,6.44a155.37,155.37,0,0,1-58-6C131.37,440.33,126.74,439,122.37,437.27Z"/><path class="cls-6" d="M277.37,220.31a280.8,280.8,0,0,1-2.93,57.86c-2.12,13.63-5.24,27.11-6.84,40.81s-1.9,27.56,2.09,40.77a183.57,183.57,0,0,0-56.15-9.69c-9-.09-17.92.54-26.86,1.17l-20.3,1.43c-7.33.52-14.67,1-21.95,2.1a173.44,173.44,0,0,0-36.06,9.36c4.57-13.71,2.69-28.73-.87-42.73a187.9,187.9,0,0,0-8.89-26.47c-1.73-4.1-3.6-8.13-5.22-12.27a108.62,108.62,0,0,1-4.65-63.56c32.92-13.37,68.36-16.14,103.89-16.68,12.39-.19,24.82-.13,37.09,1.57C246.35,206.29,262.64,212.26,277.37,220.31Z"/><path class="cls-7" d="M123.26,208.79a93.67,93.67,0,0,0,3.5,57.36c1.67,4.24,3.65,8.36,5.36,12.58,7.51,18.53,9.67,38.78,10.19,58.76"/><path class="cls-7" d="M120.79,343.45c5.68-6.74,12.22-12.7,18.73-18.63a58.24,58.24,0,0,1-18.31-13.21c3.89-8,7.58-15.65,13.31-22.49a36.08,36.08,0,0,1-24.14-9.76c1.23-8.2,6-15.41,10.72-22.2a47.68,47.68,0,0,1-18.87-9c4.32-6.34,9.26-12.37,15.43-16.92a47.42,47.42,0,0,1-14-15.76"/><path class="cls-8" d="M102.68,218.35a107.73,107.73,0,0,0-13.36,8.34L100.88,233a71.42,71.42,0,0,0-12,8.18A36.84,36.84,0,0,0,100.78,244q-5.72,4.68-11.59,9.11c1.78.89,10.31,3.31,13.5,4.06-2.3,1.48-10.23,6.61-11.51,8.1,4.1.23,13,1,13.18,1.32.3.44-6.21,8-8.31,11.87q6.44-.4,12.86-.95a34.82,34.82,0,0,0-8.7,12.19,126.89,126.89,0,0,1,13.79-.25,72.2,72.2,0,0,0-9.68,10.32,76.11,76.11,0,0,0,13.62,1.57c-4.06,3.66-7,7.76-10.24,12.19q6.78,1,13.61,1.63c-3.09,3.37-6.23,6.37-9.32,9.75,3.67,1.77,7,2.91,10.33,4.78-3.69,2.78-6.27,4.22-9.91,7a31.45,31.45,0,0,0,9,4,39.67,39.67,0,0,0-10.26,10.57"/><path class="cls-8" d="M114.38,362a15.63,15.63,0,0,0,4.78-4.17,46,46,0,0,0,8.6-15.88c1.73,5,3.76,10.38,8.13,13.42a2,2,0,0,0,1.44.47,2,2,0,0,0,1.13-.9c3.86-5.14,5.83-11.47,7-17.8a37.55,37.55,0,0,0,8.17,15.55,2,2,0,0,0,.74.6c.89.35,1.73-.56,2.23-1.37a49.73,49.73,0,0,0,6.77-16.7,28.78,28.78,0,0,0,8,16.93,37.83,37.83,0,0,0,7.82-18.13,42.63,42.63,0,0,0,2.85,9.11,15.84,15.84,0,0,0,6.41,7.52,2.29,2.29,0,0,0,3.08-.23c5.4-4.2,6.85-10.92,8-17.67.38,4.25,1,8,3.33,11.59a15.93,15.93,0,0,0,6,5.1,4.14,4.14,0,0,0,1.62.54,3.83,3.83,0,0,0,2.56-1.11c2.37-2,3.85-4.82,5.13-7.64a75.84,75.84,0,0,0,3.36-8.7,31.09,31.09,0,0,0,1.07,9.17,17.16,17.16,0,0,0,5.15,8.08,3.21,3.21,0,0,0,1.26.76,2.88,2.88,0,0,0,1.77-.27,13.12,13.12,0,0,0,4.86-4.06,31.43,31.43,0,0,0,5.76-11.2c-.69,5.26,5.68,17.57,6.28,17.83s9.75-8.21,10.86-13.38"/><path class="cls-8" d="M266.61,341.07c-1.42-3.06-2.65-4.79-5.71-6.21a10.09,10.09,0,0,0,3.82-1.27,4.26,4.26,0,0,0,2.51-3.51,4.93,4.93,0,0,0-.66-2.29,10.66,10.66,0,0,0-7-5.83,10.07,10.07,0,0,0,4.21.47,4.4,4.4,0,0,0,3.75-2.65c.68-2-.72-4.14-2.48-5.28s-3.45-1.43-5.3-2.42a8.63,8.63,0,0,0,8.11-2.54,2.83,2.83,0,0,0,1.06-2.22,3.22,3.22,0,0,0-1.3-1.9,26.65,26.65,0,0,0-6.85-4c3.05-.77,5-.87,7.4-2,1.7-.81,3.43-2.38,3.11-4.23a4.85,4.85,0,0,0-1.95-2.7c-2.09-1.73-3.81-2.33-6.57-3.35,3.28.91,7.27.46,9.17-2.36,1.37-2,.61-4.94-1.08-6.73s-3.6-2.53-5.9-3.41c4-1.17,6.5-1.92,9.4-4a2,2,0,0,0,.81-1.46,2.57,2.57,0,0,0-.58-1.58,20.76,20.76,0,0,0-7.42-7.3,31.51,31.51,0,0,0,5.28-1.85,6.49,6.49,0,0,0,2.91-1.87c1.45-1.91.53-4.84-1.31-6.36a12.82,12.82,0,0,0-6.25-2.56,41,41,0,0,0,5.76-2.09c2-.89,3.9-2.67,3.84-4.86a5.81,5.81,0,0,0-1.71-3.59,12.51,12.51,0,0,0-7.48-4.45,10.62,10.62,0,0,0,5.29-1.34c1.79-1,3.82-2.33,3.54-4.33-.2-1.49-1.5-2.56-2.71-3.46-2.42-1.81-4.3-3.13-6.76-4.9,1.69-.2,3.7-1.26,6-2"/><path class="cls-9" d="M267,215.1c.9,16.94,1.71,37-.89,53.72-1.86,11.95-4.6,23.77-6,35.78s-1.66,24.16,1.83,35.75a160.91,160.91,0,0,0-49.22-8.5c-7.86-.08-15.71.48-23.56,1l-17.79,1.25c-6.43.46-12.87.91-19.25,1.85a152.42,152.42,0,0,0-31.62,8.2c4-12,2.36-25.19-.76-37.47a164,164,0,0,0-7.8-23.21c-1.51-3.58-3.15-7.12-4.57-10.75-6.89-17.6-7.74-40.6-3.49-59"/><path class="cls-10" d="M277.37,220.31a280.8,280.8,0,0,1-2.93,57.86c-2.12,13.63-5.24,27.11-6.84,40.81s-1.9,27.56,2.09,40.77a183.57,183.57,0,0,0-56.15-9.69c-9-.09-17.92.54-26.86,1.17l-20.3,1.43c-7.33.52-14.67,1-21.95,2.1a173.44,173.44,0,0,0-36.06,9.36c4.57-13.71,2.69-28.73-.87-42.73a187.9,187.9,0,0,0-8.89-26.47c-1.73-4.1-3.6-8.13-5.22-12.27a108.62,108.62,0,0,1-4.65-63.56c32.92-13.37,68.36-16.14,103.89-16.68,12.39-.19,24.82-.13,37.09,1.57C246.35,206.29,262.64,212.26,277.37,220.31Z"/><path class="cls-11" d="M129.66,227.47,132,255.4a7.08,7.08,0,0,0,.92,3.52c1.46,2.15,4.59,2.07,7.18,1.81a212.14,212.14,0,0,1,37-.49c2.79.2,6,.32,7.94-1.7,1.71-1.79,1.74-4.55,1.67-7-.31-10.39-.63-20.88-3.11-31a8,8,0,0,0-2.23-4.43c-1.33-1.09-3.17-1.26-4.88-1.38l-20.84-1.45c-6.18-.43-13.73-.91-19.86.46S129.2,222.11,129.66,227.47Z"/><path class="cls-12" d="M136.84,234.4c-.93,1.26-1.9,2.72-1.66,4.27a5.81,5.81,0,0,0,1.46,2.68,72.11,72.11,0,0,0,16.59,15c2,1.29,4.15,2.52,6.5,2.48,2.7-.05,5.06-1.75,7.14-3.48a86.45,86.45,0,0,0,12.8-13.14,5.76,5.76,0,0,0,1.5-3c.09-1.47-.88-2.76-1.83-3.88-3.72-4.42-7.77-8.56-11.9-12.61-2.82-2.78-7.19-9-11.69-8.6-3.76.3-6.4,4.94-8.56,7.51C143.66,225.78,140.12,230,136.84,234.4Z"/><path class="cls-12" d="M146.45,218.65c.31-.31.66-.68.61-1.11s-.6-.8-1.09-1a22.93,22.93,0,0,0-8.64-1.41,5.51,5.51,0,0,0-2.7.63c-1.54,1-1.87,3-2,4.84a80.26,80.26,0,0,0,.15,12.69,1.69,1.69,0,0,0,1,1.6c2.06-2.69,3.63-5.79,5.72-8.5A71.9,71.9,0,0,1,146.45,218.65Z"/><path class="cls-12" d="M150.78,257.11c.48.33,1,.81.88,1.38s-1,.77-1.72.73l-9.83-.56c-1.65-.1-3.41-.23-4.7-1.28-1.72-1.39-2-3.89-2.07-6.11-.08-1.45-1.2-7,.17-8s3.81,2.92,4.75,3.89C142,251,146.41,254.07,150.78,257.11Z"/><path class="cls-12" d="M178.55,258.06a5.74,5.74,0,0,0,2.32-.64c1.25-.75,1.79-2.26,2.19-3.66q.69-2.44,1.17-4.94a11.4,11.4,0,0,0,0-6.16,1.16,1.16,0,0,0-.44-.64c-.54-.34-1.2.19-1.62.67a162.58,162.58,0,0,1-12.43,13.14c-1,1-2.29,1.84-.73,2.62C171.54,259.72,175.82,257.74,178.55,258.06Z"/><path class="cls-12" d="M181.16,235.16a2,2,0,0,0,1.24.81c1,0,1.37-1.25,1.38-2.23a60.73,60.73,0,0,0-1.69-13.25c-.35-1.74-.9-3.74-2.52-4.48a5.71,5.71,0,0,0-2.57-.29c-3.11.12-6.31.08-9.43.3a1.64,1.64,0,0,0-1.29,2.46c1.51,2.49,4.34,4.8,6,6.72C175.25,228.53,178.31,231.77,181.16,235.16Z"/><path class="cls-13" d="M157.58,220.32a1.38,1.38,0,0,0,0-2.76,1.38,1.38,0,0,0,0,2.76Z"/><path class="cls-13" d="M157.71,224.81a1.38,1.38,0,0,0,0-2.76,1.38,1.38,0,0,0,0,2.76Z"/><path class="cls-13" d="M158,226.42h-.08a1.38,1.38,0,0,0-1.38,1.38,1.42,1.42,0,0,0,1.38,1.38H158a1.38,1.38,0,1,0,0-2.76h-.08a1.38,1.38,0,0,0-1.38,1.38,1.42,1.42,0,0,0,1.38,1.38H158a1.38,1.38,0,1,0,0-2.76Z"/><path class="cls-13" d="M158.17,233.14a1.38,1.38,0,0,0,0-2.76,1.38,1.38,0,0,0,0,2.76Z"/><path class="cls-13" d="M158.25,237a1.38,1.38,0,0,0,0-2.76,1.38,1.38,0,0,0,0,2.76Z"/><path class="cls-13" d="M158.47,240.67a1.38,1.38,0,0,0,0-2.76,1.38,1.38,0,0,0,0,2.76Z"/><path class="cls-13" d="M158.51,244.75a1.38,1.38,0,0,0,0-2.76,1.38,1.38,0,0,0,0,2.76Z"/><path class="cls-13" d="M158.59,248.57a1.38,1.38,0,0,0,0-2.76,1.38,1.38,0,0,0,0,2.76Z"/><path class="cls-13" d="M158.76,252.67a1.38,1.38,0,0,0,0-2.76,1.38,1.38,0,0,0,0,2.76Z"/><path class="cls-13" d="M140.16,238.78a1.39,1.39,0,0,0,0-2.77,1.39,1.39,0,0,0,0,2.77Z"/><path class="cls-13" d="M143.33,238.62a1.38,1.38,0,0,0,0-2.76,1.38,1.38,0,0,0,0,2.76Z"/><path class="cls-13" d="M147.15,235.79l-.13,0a1,1,0,0,0-.53.12,1.09,1.09,0,0,0-.45.29,1.56,1.56,0,0,0-.4,1l.05.37a1.34,1.34,0,0,0,.35.61l.28.21a1.34,1.34,0,0,0,.7.19l.13,0a1,1,0,0,0,.53-.12,1.09,1.09,0,0,0,.45-.29,1,1,0,0,0,.28-.44,1,1,0,0,0,.12-.53l-.05-.37a1.34,1.34,0,0,0-.35-.61l-.28-.21a1.34,1.34,0,0,0-.7-.19Z"/><path class="cls-13" d="M152.47,237.24v-.08a1.4,1.4,0,0,0-1.38-1.38,1.42,1.42,0,0,0-1.39,1.38v.08a1.38,1.38,0,0,0,1.38,1.38,1.42,1.42,0,0,0,1.38-1.38v-.08a1.4,1.4,0,0,0-1.38-1.38,1.42,1.42,0,0,0-1.39,1.38v.08a1.38,1.38,0,0,0,1.38,1.38,1.42,1.42,0,0,0,1.38-1.38Z"/><path class="cls-13" d="M156.29,237.16v-.08a1.38,1.38,0,0,0-2.76,0v.08a1.38,1.38,0,0,0,1.38,1.38,1.41,1.41,0,0,0,1.38-1.38v-.08a1.38,1.38,0,0,0-2.76,0v.08a1.38,1.38,0,0,0,1.38,1.38,1.41,1.41,0,0,0,1.38-1.38Z"/><path class="cls-13" d="M162.88,237.91l.06,0a1.38,1.38,0,0,0,0-2,1.4,1.4,0,0,0-1.95,0l-.07.05a1.39,1.39,0,0,0,0,1.95,1.43,1.43,0,0,0,2,0l.06,0a1.38,1.38,0,0,0,0-2,1.4,1.4,0,0,0-1.95,0l-.07.05a1.39,1.39,0,0,0,0,1.95,1.43,1.43,0,0,0,2,0Z"/><path class="cls-13" d="M165.33,238.19l.13,0a1,1,0,0,0,.53-.12,1,1,0,0,0,.45-.28,1.07,1.07,0,0,0,.28-.45,1,1,0,0,0,.12-.53l-.05-.37a1.39,1.39,0,0,0-.35-.61l-.28-.21a1.34,1.34,0,0,0-.7-.19l-.13,0a1.21,1.21,0,0,0-.53.12,1.31,1.31,0,0,0-.73.73,1.08,1.08,0,0,0-.12.53l.05.37a1.4,1.4,0,0,0,.36.61l.28.22a1.37,1.37,0,0,0,.69.18Z"/><path class="cls-13" d="M169.56,235.27h-.13a1,1,0,0,0-.53.12,1.17,1.17,0,0,0-.73.73,1,1,0,0,0-.12.53l0,.37a1.39,1.39,0,0,0,.35.61l.28.21a1.34,1.34,0,0,0,.7.19l.13,0a1.18,1.18,0,0,0,.53-.12,1.31,1.31,0,0,0,.73-.73,1,1,0,0,0,.12-.53l-.05-.37a1.31,1.31,0,0,0-.36-.61l-.27-.22a1.56,1.56,0,0,0-.7-.19Z"/><path class="cls-13" d="M173.17,237.54a1.38,1.38,0,0,0,0-2.76,1.38,1.38,0,0,0,0,2.76Z"/><path class="cls-13" d="M176.57,237.68a1.38,1.38,0,0,0,0-2.76,1.38,1.38,0,0,0,0,2.76Z"/><path class="cls-11" d="M197.09,227.67l2.38,27.94a7.22,7.22,0,0,0,.92,3.52c1.47,2.14,4.6,2.07,7.19,1.81a212,212,0,0,1,37-.5c2.8.21,6,.33,7.94-1.69,1.72-1.79,1.75-4.56,1.68-7-.31-10.4-.63-20.89-3.12-31a8,8,0,0,0-2.23-4.44c-1.33-1.09-3.16-1.25-4.88-1.37l-20.83-1.45c-6.18-.43-13.74-.91-19.86.45S196.64,222.31,197.09,227.67Z"/><path class="cls-12" d="M204.28,234.61c-.94,1.26-1.9,2.71-1.67,4.26a5.93,5.93,0,0,0,1.46,2.69,72.32,72.32,0,0,0,16.59,15c2,1.28,4.15,2.52,6.51,2.47,2.7-.05,5.06-1.75,7.14-3.47a86.85,86.85,0,0,0,12.79-13.14,5.88,5.88,0,0,0,1.51-3c.09-1.46-.89-2.75-1.83-3.87-3.73-4.43-7.78-8.56-11.9-12.62-2.83-2.78-7.2-8.95-11.7-8.59-3.75.29-6.4,4.93-8.55,7.5C211.09,226,207.55,230.17,204.28,234.61Z"/><path class="cls-12" d="M213.88,218.85a1.44,1.44,0,0,0,.61-1.11c-.05-.51-.6-.8-1.08-1a22.78,22.78,0,0,0-8.65-1.41,5.29,5.29,0,0,0-2.69.63c-1.54,1-1.88,3-2,4.84a80.13,80.13,0,0,0,.14,12.68,1.73,1.73,0,0,0,1,1.61c2.07-2.69,3.64-5.8,5.73-8.51A72.78,72.78,0,0,1,213.88,218.85Z"/><path class="cls-12" d="M218.21,257.31c.48.34,1,.82.89,1.38s-1,.77-1.73.73l-9.82-.56c-1.65-.09-3.42-.23-4.7-1.27-1.73-1.4-2-3.9-2.08-6.11-.07-1.46-1.19-7,.17-8s3.82,2.93,4.75,3.89C209.42,251.21,213.84,254.27,218.21,257.31Z"/><path class="cls-12" d="M246,258.26a5.78,5.78,0,0,0,2.32-.64c1.25-.75,1.78-2.26,2.18-3.66q.69-2.44,1.18-4.94a11.46,11.46,0,0,0,0-6.15,1.3,1.3,0,0,0-.44-.65c-.54-.34-1.21.19-1.63.68A162.33,162.33,0,0,1,237.13,256c-1,1-2.3,1.85-.74,2.62C239,259.93,243.26,257.94,246,258.26Z"/><path class="cls-12" d="M248.6,235.37a2,2,0,0,0,1.24.8c1,0,1.36-1.25,1.38-2.23a61.8,61.8,0,0,0-1.69-13.24c-.36-1.75-.9-3.75-2.53-4.48a5.66,5.66,0,0,0-2.56-.3c-3.12.12-6.31.08-9.44.3a1.64,1.64,0,0,0-1.28,2.46c1.5,2.5,4.33,4.8,6,6.73C242.69,228.73,245.75,232,248.6,235.37Z"/><path class="cls-13" d="M225,220.53a1.38,1.38,0,0,0,0-2.76,1.38,1.38,0,0,0,0,2.76Z"/><path class="cls-13" d="M225.14,225a1.38,1.38,0,0,0,0-2.76,1.38,1.38,0,0,0,0,2.76Z"/><path class="cls-13" d="M225.42,226.62h-.08a1.38,1.38,0,0,0,0,2.76h.08A1.38,1.38,0,0,0,226.8,228a1.42,1.42,0,0,0-1.38-1.38h-.08a1.38,1.38,0,0,0,0,2.76h.08A1.38,1.38,0,0,0,226.8,228a1.42,1.42,0,0,0-1.38-1.38Z"/><path class="cls-13" d="M225.61,233.35a1.38,1.38,0,0,0,0-2.76,1.38,1.38,0,0,0,0,2.76Z"/><path class="cls-13" d="M225.68,237.17a1.38,1.38,0,0,0,0-2.76,1.38,1.38,0,0,0,0,2.76Z"/><path class="cls-13" d="M225.9,240.88a1.38,1.38,0,0,0,0-2.76,1.38,1.38,0,0,0,0,2.76Z"/><path class="cls-13" d="M226,245a1.38,1.38,0,0,0,0-2.76,1.38,1.38,0,0,0,0,2.76Z"/><path class="cls-13" d="M226,248.78a1.38,1.38,0,0,0,0-2.76,1.38,1.38,0,0,0,0,2.76Z"/><path class="cls-13" d="M226.2,252.87a1.38,1.38,0,0,0,0-2.76,1.38,1.38,0,0,0,0,2.76Z"/><path class="cls-13" d="M207.59,239a1.38,1.38,0,0,0,0-2.76,1.38,1.38,0,0,0,0,2.76Z"/><path class="cls-13" d="M210.76,238.83a1.38,1.38,0,0,0,0-2.76,1.38,1.38,0,0,0,0,2.76Z"/><path class="cls-13" d="M214.58,236h-.12a1,1,0,0,0-.54.12,1,1,0,0,0-.44.28,1,1,0,0,0-.29.45,1.18,1.18,0,0,0-.12.53l.05.36a1.4,1.4,0,0,0,.36.61l.28.22a1.41,1.41,0,0,0,.7.19h.12a1,1,0,0,0,.54-.12,1,1,0,0,0,.44-.28,1,1,0,0,0,.29-.45,1.18,1.18,0,0,0,.12-.53l-.05-.36a1.4,1.4,0,0,0-.36-.61l-.28-.22a1.41,1.41,0,0,0-.7-.19Z"/><path class="cls-13" d="M219.9,237.44v-.08a1.39,1.39,0,0,0-1.38-1.38,1.42,1.42,0,0,0-1.38,1.38v.08a1.39,1.39,0,0,0,1.38,1.38,1.41,1.41,0,0,0,1.38-1.38v-.08a1.39,1.39,0,0,0-1.38-1.38,1.42,1.42,0,0,0-1.38,1.38v.08a1.39,1.39,0,0,0,1.38,1.38,1.41,1.41,0,0,0,1.38-1.38Z"/><path class="cls-13" d="M223.72,237.37v-.08a1.39,1.39,0,0,0-1.38-1.38,1.41,1.41,0,0,0-1.38,1.38v.08a1.39,1.39,0,0,0,1.38,1.38,1.42,1.42,0,0,0,1.38-1.38v-.08a1.39,1.39,0,0,0-1.38-1.38,1.41,1.41,0,0,0-1.38,1.38v.08a1.39,1.39,0,0,0,1.38,1.38,1.42,1.42,0,0,0,1.38-1.38Z"/><path class="cls-13" d="M230.31,238.12l.07-.06a1.39,1.39,0,0,0,0-1.95,1.41,1.41,0,0,0-1.95,0l-.07,0a1.4,1.4,0,0,0,0,2,1.42,1.42,0,0,0,1.95,0l.07-.06a1.39,1.39,0,0,0,0-1.95,1.41,1.41,0,0,0-1.95,0l-.07,0a1.4,1.4,0,0,0,0,2,1.42,1.42,0,0,0,1.95,0Z"/><path class="cls-13" d="M232.77,238.4h.13a1.08,1.08,0,0,0,.53-.11,1.31,1.31,0,0,0,.73-.73,1,1,0,0,0,.12-.54l-.05-.36a1.4,1.4,0,0,0-.36-.61l-.28-.22a1.38,1.38,0,0,0-.69-.19h-.13a1,1,0,0,0-.53.12,1,1,0,0,0-.45.28,1.07,1.07,0,0,0-.28.45,1,1,0,0,0-.12.53l.05.37a1.39,1.39,0,0,0,.35.61l.28.21a1.34,1.34,0,0,0,.7.19Z"/><path class="cls-13" d="M237,235.48l-.13,0a1.21,1.21,0,0,0-.53.12,1.31,1.31,0,0,0-.73.73,1.21,1.21,0,0,0-.12.53l.05.37a1.4,1.4,0,0,0,.36.61l.28.22a1.49,1.49,0,0,0,.69.19H237a1,1,0,0,0,.54-.12,1,1,0,0,0,.44-.28,1.07,1.07,0,0,0,.28-.45,1,1,0,0,0,.12-.53l-.05-.37a1.39,1.39,0,0,0-.35-.61l-.28-.21a1.34,1.34,0,0,0-.7-.19Z"/><path class="cls-13" d="M240.6,237.75a1.39,1.39,0,0,0,0-2.77,1.39,1.39,0,0,0,0,2.77Z"/><path class="cls-13" d="M244,237.88a1.38,1.38,0,0,0,0-2.76,1.38,1.38,0,0,0,0,2.76Z"/><path class="cls-11" d="M139.58,284.17l5,25.54a6.73,6.73,0,0,0,1.2,3.16c1.56,1.83,4.44,1.45,6.81.95a197.66,197.66,0,0,1,34.12-4.12c2.59-.09,5.56-.3,7.15-2.35,1.41-1.82,1.17-4.38.85-6.65-1.31-9.56-2.65-19.21-5.94-28.28a7.42,7.42,0,0,0-2.5-3.87c-1.33-.87-3-.84-4.64-.78l-19.36.72c-5.75.22-12.77.53-18.28,2.39S138.63,279.28,139.58,284.17Z"/><path class="cls-12" d="M146.89,289.86c-.73,1.26-1.48,2.69-1.11,4.1a5.34,5.34,0,0,0,1.61,2.33,66.88,66.88,0,0,0,16.79,12.17c1.95,1,4.08,1.91,6.25,1.64,2.49-.31,4.5-2.12,6.24-3.91a81,81,0,0,0,10.51-13.4,5.36,5.36,0,0,0,1.08-3c-.06-1.35-1.09-2.45-2.07-3.39-3.87-3.71-8-7.13-12.23-10.46-2.88-2.28-7.53-7.54-11.64-6.77-3.44.65-5.42,5.19-7.15,7.78C152.33,281.23,149.48,285.45,146.89,289.86Z"/><path class="cls-12" d="M154.19,274.37a1.4,1.4,0,0,0,.46-1.08c-.1-.47-.64-.68-1.1-.8a21.56,21.56,0,0,0-8.12-.44,4.9,4.9,0,0,0-2.42.85c-1.33,1-1.43,3-1.36,4.66A74,74,0,0,0,143,289.25a1.61,1.61,0,0,0,1.1,1.38c1.64-2.68,2.78-5.71,4.45-8.41A67.84,67.84,0,0,1,154.19,274.37Z"/><path class="cls-12" d="M162,309.43c.48.26,1,.65.95,1.19s-.88.81-1.51.84l-9.12.46a7.53,7.53,0,0,1-4.47-.71c-1.73-1.12-2.2-3.4-2.52-5.44-.21-1.33-1.8-6.38-.63-7.39s3.8,2.32,4.76,3.12A77.09,77.09,0,0,0,162,309.43Z"/><path class="cls-12" d="M187.72,307.55a5.31,5.31,0,0,0,2.08-.82,5.46,5.46,0,0,0,1.65-3.59c.26-1.55.46-3.11.59-4.68a10.48,10.48,0,0,0-.65-5.67,1.15,1.15,0,0,0-.47-.55c-.54-.26-1.09.29-1.43.78a150.87,150.87,0,0,1-10.16,13.35c-.87,1-1.94,1.93-.42,2.49C181.41,309.78,185.17,307.53,187.72,307.55Z"/><path class="cls-12" d="M187.86,286.17a1.81,1.81,0,0,0,1.22.62c.91-.06,1.14-1.29,1.06-2.2a57.31,57.31,0,0,0-2.88-12c-.5-1.57-1.2-3.36-2.77-3.88a5.26,5.26,0,0,0-2.4,0c-2.86.42-5.81.7-8.67,1.22a1.51,1.51,0,0,0-.94,2.39c1.63,2.15,4.47,4,6.23,5.61C181.75,280.63,184.89,283.32,187.86,286.17Z"/><path class="cls-13" d="M164.49,274.82a1.28,1.28,0,0,0,0-2.56,1.28,1.28,0,0,0,0,2.56Z"/><path class="cls-13" d="M165.06,279a1.28,1.28,0,0,0,0-2.56,1.28,1.28,0,0,0,0,2.56Z"/><path class="cls-13" d="M165.74,280.39h-.07a1.28,1.28,0,0,0,0,2.56h.07a1.28,1.28,0,0,0,0-2.56h-.07a1.28,1.28,0,0,0,0,2.56h.07a1.28,1.28,0,0,0,0-2.56Z"/><path class="cls-13" d="M166.31,286.59a1.28,1.28,0,0,0,0-2.56,1.28,1.28,0,0,0,0,2.56Z"/><path class="cls-13" d="M166.76,290.11a1.28,1.28,0,0,0,0-2.56,1.28,1.28,0,0,0,0,2.56Z"/><path class="cls-13" d="M167.33,293.51a1.28,1.28,0,0,0,0-2.56,1.28,1.28,0,0,0,0,2.56Z"/><path class="cls-13" d="M167.77,297.27a1.28,1.28,0,0,0,0-2.56,1.28,1.28,0,0,0,0,2.56Z"/><path class="cls-13" d="M168.22,300.79a1.28,1.28,0,0,0,0-2.56,1.28,1.28,0,0,0,0,2.56Z"/><path class="cls-13" d="M168.79,304.55a1.28,1.28,0,0,0,0-2.56,1.28,1.28,0,0,0,0,2.56Z"/><path class="cls-13" d="M150.25,293.57a1.28,1.28,0,0,0,0-2.56,1.28,1.28,0,0,0,0,2.56Z"/><path class="cls-13" d="M153.16,293.12a1.28,1.28,0,0,0,0-2.56,1.28,1.28,0,0,0,0,2.56Z"/><path class="cls-13" d="M156.68,290.11h-.12a.94.94,0,0,0-.5.11,1,1,0,0,0-.41.26,1,1,0,0,0-.27.42,1,1,0,0,0-.11.49l0,.34a1.23,1.23,0,0,0,.33.56l.26.2a1.22,1.22,0,0,0,.65.18h.12a1.44,1.44,0,0,0,.9-.37,1,1,0,0,0,.27-.42,1,1,0,0,0,.11-.49l-.05-.34a1.26,1.26,0,0,0-.33-.57l-.26-.2a1.3,1.3,0,0,0-.64-.17Z"/><path class="cls-13" d="M161.6,291.06V291a1.29,1.29,0,0,0-2.57,0v.07a1.29,1.29,0,0,0,2.57,0V291a1.29,1.29,0,0,0-2.57,0v.07a1.29,1.29,0,0,0,2.57,0Z"/><path class="cls-13" d="M165.11,290.62v-.08a1.28,1.28,0,0,0-2.56,0v.08a1.28,1.28,0,0,0,2.56,0v-.08a1.28,1.28,0,0,0-2.56,0v.08a1.28,1.28,0,0,0,2.56,0Z"/><path class="cls-13" d="M171.17,290.62l.06-.06c1.18-1.15-.64-3-1.82-1.81l0,.06c-1.18,1.15.63,3,1.81,1.81l.06-.06c1.18-1.15-.64-3-1.82-1.81l0,.06c-1.18,1.15.63,3,1.81,1.81Z"/><path class="cls-13" d="M173.42,290.54h.12a.91.91,0,0,0,.49-.11.93.93,0,0,0,.41-.26.92.92,0,0,0,.27-.41,1,1,0,0,0,.11-.5l0-.34a1.28,1.28,0,0,0-.33-.56l-.25-.2a1.25,1.25,0,0,0-.65-.18h-.12a1,1,0,0,0-.5.11,1,1,0,0,0-.41.27,1.44,1.44,0,0,0-.37.9l0,.34a1.26,1.26,0,0,0,.33.57l.26.2a1.34,1.34,0,0,0,.65.17Z"/><path class="cls-13" d="M177.3,287.42h-.12a1,1,0,0,0-.49.11,1,1,0,0,0-.42.27,1,1,0,0,0-.26.41.94.94,0,0,0-.11.5l0,.34a1.28,1.28,0,0,0,.33.56l.26.2a1.25,1.25,0,0,0,.65.18h.12a1,1,0,0,0,.49-.11,1,1,0,0,0,.42-.27,1.44,1.44,0,0,0,.37-.9l0-.34a1.47,1.47,0,0,0-.33-.57l-.26-.2a1.24,1.24,0,0,0-.65-.17Z"/><path class="cls-13" d="M180.58,289.16a1.28,1.28,0,0,0,0-2.56,1.28,1.28,0,0,0,0,2.56Z"/><path class="cls-13" d="M183.73,289a1.28,1.28,0,0,0,0-2.56,1.28,1.28,0,0,0,0,2.56Z"/><path class="cls-11" d="M201.58,281.52l1.27,26a6.74,6.74,0,0,0,.73,3.3c1.29,2,4.2,2.07,6.61,1.91a197.09,197.09,0,0,1,34.35.79c2.59.29,5.56.5,7.42-1.3,1.66-1.6,1.78-4.17,1.79-6.47.07-9.65.12-19.38-1.84-28.83a7.37,7.37,0,0,0-1.92-4.18,7.85,7.85,0,0,0-4.48-1.45l-19.27-2c-5.72-.61-12.71-1.3-18.43-.24S201.34,276.53,201.58,281.52Z"/><path class="cls-12" d="M208,288.19c-.91,1.14-1.85,2.45-1.68,3.9a5.35,5.35,0,0,0,1.26,2.54,67,67,0,0,0,14.88,14.43c1.78,1.27,3.76,2.48,5.95,2.52,2.5.05,4.75-1.45,6.73-3a80.12,80.12,0,0,0,12.31-11.76,5.38,5.38,0,0,0,1.5-2.77c.13-1.35-.73-2.58-1.57-3.65-3.3-4.23-6.92-8.21-10.61-12.1-2.53-2.68-6.37-8.54-10.55-8.37-3.5.15-6.1,4.36-8.19,6.68C214.62,280.42,211.2,284.19,208,288.19Z"/><path class="cls-12" d="M217.45,273.9a1.36,1.36,0,0,0,.6-1c0-.47-.53-.76-1-.94a21.18,21.18,0,0,0-8-1.59,4.81,4.81,0,0,0-2.52.49c-1.46.84-1.84,2.74-2,4.42a73.4,73.4,0,0,0-.29,11.77,1.57,1.57,0,0,0,.89,1.52c2-2.42,3.57-5.25,5.6-7.7A67.53,67.53,0,0,1,217.45,273.9Z"/><path class="cls-12" d="M220.17,309.71c.43.33.92.79.78,1.31s-1,.68-1.63.62l-9.09-.85a7.42,7.42,0,0,1-4.32-1.34c-1.55-1.35-1.69-3.67-1.72-5.74,0-1.35-.87-6.57.43-7.4s3.44,2.84,4.27,3.77A77.35,77.35,0,0,0,220.17,309.71Z"/><path class="cls-12" d="M245.89,311.53a4.18,4.18,0,0,0,4.32-3.84c.49-1.5.91-3,1.26-4.54a10.48,10.48,0,0,0,.16-5.71,1.09,1.09,0,0,0-.38-.61c-.5-.34-1.13.13-1.53.57a152.49,152.49,0,0,1-12,11.76c-1,.87-2.2,1.64-.77,2.41C239.33,312.84,243.38,311.14,245.89,311.53Z"/><path class="cls-12" d="M249.09,290.38a1.81,1.81,0,0,0,1.12.79c.9.07,1.3-1.11,1.35-2a57,57,0,0,0-1.12-12.34c-.27-1.63-.71-3.5-2.19-4.24a5.42,5.42,0,0,0-2.37-.36c-2.89,0-5.85-.13-8.76,0a1.52,1.52,0,0,0-1.27,2.24c1.31,2.36,3.86,4.6,5.37,6.44C243.83,284,246.56,287.14,249.09,290.38Z"/><path class="cls-13" d="M227.76,275.83a1.28,1.28,0,0,0,0-2.56,1.28,1.28,0,0,0,0,2.56Z"/><path class="cls-13" d="M227.73,280a1.28,1.28,0,0,0,0-2.56,1.28,1.28,0,0,0,0,2.56Z"/><path class="cls-13" d="M228.18,281.54h-.08a1.31,1.31,0,0,0-1.57.89,1.29,1.29,0,0,0,.89,1.58h.08a1.32,1.32,0,0,0,1.57-.9,1.28,1.28,0,0,0-.89-1.57h-.08a1.31,1.31,0,0,0-1.57.89,1.29,1.29,0,0,0,.89,1.58h.08a1.32,1.32,0,0,0,1.57-.9,1.28,1.28,0,0,0-.89-1.57Z"/><path class="cls-13" d="M227.88,287.74a1.28,1.28,0,0,0,0-2.56,1.28,1.28,0,0,0,0,2.56Z"/><path class="cls-13" d="M227.82,291.29a1.29,1.29,0,0,0,0-2.57,1.29,1.29,0,0,0,0,2.57Z"/><path class="cls-13" d="M227.9,294.73a1.28,1.28,0,0,0,0-2.56,1.28,1.28,0,0,0,0,2.56Z"/><path class="cls-13" d="M227.8,298.52a1.29,1.29,0,0,0,0-2.57,1.29,1.29,0,0,0,0,2.57Z"/><path class="cls-13" d="M227.75,302.06a1.28,1.28,0,0,0,0-2.56,1.28,1.28,0,0,0,0,2.56Z"/><path class="cls-13" d="M227.77,305.87a1.29,1.29,0,0,0,0-2.57,1.29,1.29,0,0,0,0,2.57Z"/><path class="cls-13" d="M211,292.36a1.29,1.29,0,0,0,0-2.57,1.29,1.29,0,0,0,0,2.57Z"/><path class="cls-13" d="M213.93,292.32a1.28,1.28,0,0,0,0-2.56,1.28,1.28,0,0,0,0,2.56Z"/><path class="cls-13" d="M217.82,289.86h-.12a1,1,0,0,0-.51,0,1.35,1.35,0,0,0-1.07.92l0,.34a1.24,1.24,0,0,0,.17.65l.2.26a1.26,1.26,0,0,0,.57.33l.12,0a1,1,0,0,0,.51,0,1,1,0,0,0,.47-.15,1,1,0,0,0,.36-.33.94.94,0,0,0,.23-.44l0-.34a1.25,1.25,0,0,0-.18-.65l-.2-.26a1.51,1.51,0,0,0-.56-.33Z"/><path class="cls-13" d="M222.36,291.64v-.08a1.32,1.32,0,0,0-.89-1.57,1.29,1.29,0,0,0-1.58.89V291a1.31,1.31,0,0,0,.89,1.57,1.29,1.29,0,0,0,1.58-.89v-.08a1.32,1.32,0,0,0-.89-1.57,1.29,1.29,0,0,0-1.58.89V291a1.31,1.31,0,0,0,.89,1.57,1.29,1.29,0,0,0,1.58-.89Z"/><path class="cls-13" d="M225.9,291.7l0-.08a1.32,1.32,0,0,0-.9-1.57,1.28,1.28,0,0,0-1.57.89l0,.07a1.34,1.34,0,0,0,.9,1.58,1.29,1.29,0,0,0,1.57-.89l0-.08a1.32,1.32,0,0,0-.9-1.57,1.28,1.28,0,0,0-1.57.89l0,.07a1.34,1.34,0,0,0,.9,1.58,1.29,1.29,0,0,0,1.57-.89Z"/><path class="cls-13" d="M231.81,292.49l.06-.05a1.31,1.31,0,0,0,.46-1.75,1.28,1.28,0,0,0-1.75-.46l-.06,0a1.32,1.32,0,0,0-.46,1.76,1.3,1.3,0,0,0,1.75.46l.06-.05a1.31,1.31,0,0,0,.46-1.75,1.28,1.28,0,0,0-1.75-.46l-.06,0a1.32,1.32,0,0,0-.46,1.76,1.3,1.3,0,0,0,1.75.46Z"/><path class="cls-13" d="M234,292.62l.12,0a1,1,0,0,0,.51,0,1,1,0,0,0,.48-.15,1.13,1.13,0,0,0,.36-.33,1,1,0,0,0,.22-.44l.05-.34a1.28,1.28,0,0,0-.17-.64l-.21-.26a1.18,1.18,0,0,0-.56-.33l-.12,0a1,1,0,0,0-.51,0,1.19,1.19,0,0,0-.84.49,1,1,0,0,0-.23.43l0,.34a1.34,1.34,0,0,0,.17.65l.2.26a1.26,1.26,0,0,0,.57.33Z"/><path class="cls-13" d="M238.61,290.14l-.12,0a1,1,0,0,0-.51,0,1,1,0,0,0-.47.15,1,1,0,0,0-.36.33.94.94,0,0,0-.23.44l0,.34a1.25,1.25,0,0,0,.18.65l.2.25a1.28,1.28,0,0,0,.56.33l.12,0a1,1,0,0,0,.51,0,1.19,1.19,0,0,0,.84-.49,1,1,0,0,0,.23-.43l0-.34a1.34,1.34,0,0,0-.17-.65l-.2-.26a1.26,1.26,0,0,0-.57-.33Z"/><path class="cls-13" d="M241.64,292.32a1.28,1.28,0,0,0,0-2.56,1.28,1.28,0,0,0,0,2.56Z"/><path class="cls-13" d="M244.78,292.56a1.28,1.28,0,0,0,0-2.56,1.28,1.28,0,0,0,0,2.56Z"/><path class="cls-14" d="M58.53,335.77a70.61,70.61,0,0,0-35.25,6c-1.61.72-3.18,1.51-4.75,2.29,2.45-3.19,6.34-4.87,10.07-6.42q-9.36.6-18.7,1.23a32.14,32.14,0,0,0,8.73-3.2C10.9,332,2,336.86-6.51,337.12a115.65,115.65,0,0,1,41.43-5.94,6.34,6.34,0,0,0-.85-3.76,5.15,5.15,0,0,0,2.85,1.78c1.13.12,2.41-.95,2-2a38.6,38.6,0,0,0,13.41,2.76,8.37,8.37,0,0,1,3.24.49,23.4,23.4,0,0,0-5.64,4.05A33.89,33.89,0,0,1,58.53,335.77Z"/><path class="cls-14" d="M98.55,438.34c-7.5,12.78-12.87,27-14.22,41.74A165.63,165.63,0,0,0,84,498.59c.21,9.09-4.42,45.91-6,53.05,9.83,2.65,25.37.07,35.55,0,4.08-33.9.22-68.94,9.6-101.77,1.56-5.47,3.5-10.93,3.53-16.61s-2.29-11.79-7.29-14.49c-1.67-.9-6.93-3.27-8.79-2.77-2.57.7-2.32,3.44-3.2,5.91C105.28,427.78,101.69,433,98.55,438.34Z"/><path class="cls-5" d="M288.08,559.1c-4.5,2.16-14,6.68-18.94,5.73-24.13-4.66-49-1.67-73.52-.64-30.32,1.26-72.39-1.57-102.68-3.34,4-22.82,9-45,9.18-68.2a116.78,116.78,0,0,1,12.63-51.87c3.45-6.79,7.65-13.49,8.45-21.06-.85,8.07,42.43,9.66,47.08,10a481.06,481.06,0,0,0,55.29.7c11.35-.5,23.81,1.28,33.82-5.42,2.51-1.68,5-3.92,8-3.9,7.51.06,7.58,12.12,8.1,17.16q2.2,21,3.86,42.12C280.46,494.43,290.67,557.85,288.08,559.1Z"/><path class="cls-15" d="M271.56,432.45c-29.87,7.71-61.37,4.4-91.94.23q-27.31-3.72-54.51-8.31c-6.63-1.12-13.21-2-19.8-.6l.29-.34c.92-3.39,1.85-6.66,1.69-10.17,1.83-1.61,4.6-1.31,7-.92,51,8.42,103.11,18,154.05,9.17C269.64,425.37,270.27,428.59,271.56,432.45Z"/><path class="cls-16" d="M173.37,420.13c-.47,4.26-.59,8.21-1.06,12.47a2.06,2.06,0,0,1-2,.84c-2.72-.27-5.07-1.29-7.79-1.56l1.21-13.67a5,5,0,0,1,1.73-.16C168.13,418.31,170.66,419.87,173.37,420.13Z"/><path class="cls-15" d="M171.19,423.4a1.79,1.79,0,0,0-1.68.19,4,4,0,0,0,.66-.81c.34-.55-.48-.67-.84-.58a2.16,2.16,0,0,0-1.2.95,2.79,2.79,0,0,0-.29-.71c-.4-.66-1.85-1.23-2.06-.11a1.82,1.82,0,0,0,.52,1.62,4.17,4.17,0,0,0-.93-.5c-.61-.22-.57.61-.4.94a2,2,0,0,0,.73.76,3,3,0,0,0-.54.13c-.73.26-1.56,1.57-.5,2a1.81,1.81,0,0,0,1.69-.19,3.71,3.71,0,0,0-.67.81c-.34.55.48.67.84.58a2.13,2.13,0,0,0,1.2-1,2.79,2.79,0,0,0,.29.71c.4.66,1.85,1.23,2.06.11a1.81,1.81,0,0,0-.51-1.62,3.9,3.9,0,0,0,.92.5c.61.22.57-.61.41-.94a2,2,0,0,0-.73-.76,3.16,3.16,0,0,0,.53-.13C171.42,425.14,172.25,423.83,171.19,423.4Zm-3.39,2.49-.33-.41.58-.69.33.42Z"/><path class="cls-16" d="M148.17,416.78c-.47,4.34-.59,8.37-1.06,12.71a1.93,1.93,0,0,1-2,.83c-2.72-.28-5.15-1.28-7.88-1.56l1.21-13.94a4.81,4.81,0,0,1,1.73-.16C142.93,414.93,145.46,416.51,148.17,416.78Z"/><path class="cls-15" d="M146,419.69a1.8,1.8,0,0,0-1.69.19,3.66,3.66,0,0,0,.66-.81c.34-.55-.47-.67-.83-.58a2.15,2.15,0,0,0-1.21.95,3,3,0,0,0-.29-.72c-.4-.66-1.84-1.22-2-.1a1.79,1.79,0,0,0,.51,1.62,4.17,4.17,0,0,0-.93-.5c-.6-.22-.57.6-.4.94a2,2,0,0,0,.73.76,2.37,2.37,0,0,0-.54.13c-.72.26-1.56,1.57-.5,2a1.78,1.78,0,0,0,1.69-.19,4.07,4.07,0,0,0-.67.82c-.34.55.48.67.84.58a2.1,2.1,0,0,0,1.2-.95,3.2,3.2,0,0,0,.29.71c.41.66,1.85,1.23,2.06.11a1.78,1.78,0,0,0-.51-1.62,3.87,3.87,0,0,0,.92.49c.61.23.57-.6.41-.93a1.91,1.91,0,0,0-.73-.76,3.16,3.16,0,0,0,.53-.13C146.22,421.42,147.06,420.12,146,419.69Zm-3.4,2.49-.33-.42.59-.68.32.41Z"/><path class="cls-16" d="M180.23,423a3.51,3.51,0,0,0-1.78-.74,2.87,2.87,0,0,1,1.66-.94,3.73,3.73,0,0,1,3.26,1.12,3.64,3.64,0,0,1,4.58.68,3.37,3.37,0,0,0-3,.75,1.85,1.85,0,0,0-.79,1.87,3.27,3.27,0,0,1-2.12.39c-.32-.05-1.07.24-1.17-.11s.36-.91.37-1.14A2.1,2.1,0,0,0,180.23,423Z"/><path class="cls-16" d="M184.74,432.64a3.48,3.48,0,0,0,1.77.74,2.74,2.74,0,0,1-1.65.94,3.72,3.72,0,0,1-3.26-1.12,3.64,3.64,0,0,1-4.6-.57,3.5,3.5,0,0,0,3-.85,1.86,1.86,0,0,0,.79-1.87,3.28,3.28,0,0,1,2.12-.4c.32.05.84.24.94.59s-.1.43-.15.66A2,2,0,0,0,184.74,432.64Z"/><path class="cls-16" d="M187.63,425.49a3.44,3.44,0,0,0,.74-1.77,2.87,2.87,0,0,1,.94,1.66,3.71,3.71,0,0,1-1.12,3.25c1,1.5.3,3.11-.94,4.38.11-1.25.33-1.79-.49-2.75a1.88,1.88,0,0,0-1.87-.8,3.23,3.23,0,0,1-.39-2.11c.05-.32-.15-.64.21-.74a6,6,0,0,1,1,0A2.34,2.34,0,0,0,187.63,425.49Z"/><path class="cls-16" d="M177.5,430.45a3.43,3.43,0,0,0-.74,1.77,2.8,2.8,0,0,1-.95-1.65,3.76,3.76,0,0,1,1.13-3.26,3.59,3.59,0,0,1,.76-4.53,3.27,3.27,0,0,0,.66,2.91,1.86,1.86,0,0,0,1.87.79,3.28,3.28,0,0,1,.4,2.12c0,.32.1.56-.25.66s-.66-.06-1,0A3.16,3.16,0,0,0,177.5,430.45Z"/><circle class="cls-16" cx="182.54" cy="427.99" r="2.95"/><path class="cls-16" d="M197,424.78a3.51,3.51,0,0,0-1.78-.74,2.87,2.87,0,0,1,1.66-.94,3.73,3.73,0,0,1,3.26,1.12,3.64,3.64,0,0,1,4.58.68,3.4,3.4,0,0,0-3,.75,1.85,1.85,0,0,0-.79,1.87,3.21,3.21,0,0,1-2.12.39c-.32-.05-1.07.24-1.17-.11s.36-.91.37-1.14A2.1,2.1,0,0,0,197,424.78Z"/><path class="cls-16" d="M201.46,434.42a3.43,3.43,0,0,0,1.77.74,2.8,2.8,0,0,1-1.65.95,3.76,3.76,0,0,1-3.26-1.13,3.63,3.63,0,0,1-4.6-.57,3.49,3.49,0,0,0,3-.85,1.86,1.86,0,0,0,.79-1.87,3.28,3.28,0,0,1,2.12-.4c.32,0,.84.24.94.6s-.1.43-.14.65A2,2,0,0,0,201.46,434.42Z"/><path class="cls-16" d="M204.35,427.28a3.51,3.51,0,0,0,.74-1.77,2.84,2.84,0,0,1,.94,1.65,3.73,3.73,0,0,1-1.12,3.26c1,1.49.3,3.1-.94,4.37.11-1.25.33-1.79-.48-2.75a1.87,1.87,0,0,0-1.88-.79,3.27,3.27,0,0,1-.39-2.12c.05-.32-.15-.64.21-.74a7.35,7.35,0,0,1,1,0A2.33,2.33,0,0,0,204.35,427.28Z"/><path class="cls-16" d="M194.22,432.23a3.42,3.42,0,0,0-.74,1.78,2.83,2.83,0,0,1-.95-1.66,3.77,3.77,0,0,1,1.13-3.26,3.59,3.59,0,0,1,.76-4.53,3.26,3.26,0,0,0,.66,2.91,1.86,1.86,0,0,0,1.87.79,3.28,3.28,0,0,1,.4,2.12c0,.32.1.56-.25.66s-.66-.06-1,0A3.11,3.11,0,0,0,194.22,432.23Z"/><circle class="cls-16" cx="199.26" cy="429.77" r="2.95"/><path class="cls-16" d="M109.91,412.85a3.51,3.51,0,0,0-1.86-.58,2.85,2.85,0,0,1,1.58-1.11,3.8,3.8,0,0,1,3.4.83,3.68,3.68,0,0,1,4.69.26,3.43,3.43,0,0,0-2.92,1,1.91,1.91,0,0,0-.62,2,3.3,3.3,0,0,1-2.11.6c-.32,0-1.06.34-1.19,0s.28-.94.27-1.18A2.15,2.15,0,0,0,109.91,412.85Z"/><path class="cls-16" d="M115.38,422.17a3.48,3.48,0,0,0,1.86.58,2.85,2.85,0,0,1-1.58,1.11,3.8,3.8,0,0,1-3.4-.83,3.69,3.69,0,0,1-4.7-.14,3.54,3.54,0,0,0,2.92-1.15,1.88,1.88,0,0,0,.63-2,3.3,3.3,0,0,1,2.11-.6c.32,0,.87.16,1,.51s-.06.44-.08.68A2,2,0,0,0,115.38,422.17Z"/><path class="cls-16" d="M117.62,414.67a3.38,3.38,0,0,0,.58-1.86,2.86,2.86,0,0,1,1.11,1.59,3.77,3.77,0,0,1-.82,3.39c1.12,1.42.59,3.11-.54,4.51,0-1.27.16-1.83-.75-2.73a1.91,1.91,0,0,0-2-.63,3.33,3.33,0,0,1-.6-2.1c0-.33-.21-.63.15-.77a7.58,7.58,0,0,1,1.06-.09A2.34,2.34,0,0,0,117.62,414.67Z"/><path class="cls-16" d="M107.85,420.64a3.46,3.46,0,0,0-.58,1.86,2.85,2.85,0,0,1-1.11-1.58,3.8,3.8,0,0,1,.83-3.4,3.64,3.64,0,0,1,.35-4.65,3.28,3.28,0,0,0,.94,2.87,1.9,1.9,0,0,0,2,.63,3.27,3.27,0,0,1,.6,2.1c0,.33.16.56-.19.69s-.67,0-1,.1A3.22,3.22,0,0,0,107.85,420.64Z"/><circle class="cls-16" cx="112.72" cy="417.67" r="3"/><path class="cls-16" d="M125.36,414.75a3.37,3.37,0,0,0-1.73-.72,2.77,2.77,0,0,1,1.62-.92,3.64,3.64,0,0,1,3.18,1.1,3.56,3.56,0,0,1,4.48.66,3.31,3.31,0,0,0-2.89.73,1.82,1.82,0,0,0-.78,1.83,3.24,3.24,0,0,1-2.07.38c-.31-.05-1,.24-1.14-.11s.35-.89.37-1.11A2.08,2.08,0,0,0,125.36,414.75Z"/><path class="cls-16" d="M129.78,424.17a3.37,3.37,0,0,0,1.73.72,2.72,2.72,0,0,1-1.62.92,3.63,3.63,0,0,1-3.18-1.09,3.55,3.55,0,0,1-4.49-.56,3.4,3.4,0,0,0,2.9-.83,1.83,1.83,0,0,0,.78-1.83,3.18,3.18,0,0,1,2.07-.39c.31.05.82.23.92.58s-.11.42-.15.64A2,2,0,0,0,129.78,424.17Z"/><path class="cls-16" d="M132.59,417.19a3.33,3.33,0,0,0,.73-1.73,2.82,2.82,0,0,1,.92,1.62,3.67,3.67,0,0,1-1.1,3.18c1,1.45.3,3-.92,4.27.11-1.22.32-1.75-.47-2.69a1.84,1.84,0,0,0-1.83-.77,3.19,3.19,0,0,1-.38-2.07c.05-.31-.15-.63.2-.72a5.78,5.78,0,0,1,1,0A2.28,2.28,0,0,0,132.59,417.19Z"/><path class="cls-16" d="M122.7,422a3.24,3.24,0,0,0-.72,1.73,2.72,2.72,0,0,1-.93-1.62,3.68,3.68,0,0,1,1.1-3.18,3.5,3.5,0,0,1,.75-4.42,3.18,3.18,0,0,0,.64,2.84,1.82,1.82,0,0,0,1.83.77,3.19,3.19,0,0,1,.39,2.07c-.05.31.1.55-.25.65s-.64-.07-1,0A3.1,3.1,0,0,0,122.7,422Z"/><circle class="cls-16" cx="127.63" cy="419.62" r="2.88"/><path class="cls-16" d="M153.27,419.46a3,3,0,0,0-1.58-.66,2.49,2.49,0,0,1,1.48-.84,3.3,3.3,0,0,1,2.9,1,3.25,3.25,0,0,1,4.09.61,3,3,0,0,0-2.64.66,1.68,1.68,0,0,0-.71,1.67,2.83,2.83,0,0,1-1.89.35c-.28,0-.95.22-1-.1s.32-.81.33-1A1.89,1.89,0,0,0,153.27,419.46Z"/><path class="cls-16" d="M157.3,428.06a3,3,0,0,0,1.58.66,2.56,2.56,0,0,1-1.48.85,3.34,3.34,0,0,1-2.9-1,3.26,3.26,0,0,1-4.11-.5,3.13,3.13,0,0,0,2.66-.77,1.67,1.67,0,0,0,.71-1.67,2.89,2.89,0,0,1,1.89-.35c.28,0,.75.21.84.53s-.1.38-.13.58A1.8,1.8,0,0,0,157.3,428.06Z"/><path class="cls-16" d="M159.88,421.68a3.09,3.09,0,0,0,.66-1.58,2.52,2.52,0,0,1,.84,1.48,3.36,3.36,0,0,1-1,2.91c.86,1.33.27,2.77-.84,3.9.09-1.12.29-1.59-.43-2.45a1.68,1.68,0,0,0-1.67-.71,2.91,2.91,0,0,1-.36-1.89c0-.28-.13-.57.19-.66a5.76,5.76,0,0,1,.93,0A2.1,2.1,0,0,0,159.88,421.68Z"/><path class="cls-16" d="M150.83,426.11a3.12,3.12,0,0,0-.66,1.58,2.49,2.49,0,0,1-.84-1.48,3.35,3.35,0,0,1,1-2.9,3.22,3.22,0,0,1,.69-4.05,2.92,2.92,0,0,0,.58,2.6,1.69,1.69,0,0,0,1.68.71,3,3,0,0,1,.35,1.89c0,.28.09.5-.23.59s-.58-.06-.87,0A2.84,2.84,0,0,0,150.83,426.11Z"/><circle class="cls-16" cx="155.34" cy="423.91" r="2.63"/><path class="cls-16" d="M121.86,433.76c0,2.29.35,4.53.5,6.87.2,3,.25,6,.18,9a2.61,2.61,0,0,0,.12,1.08,2.66,2.66,0,0,0,.41.6l1.91,2.33c-.21-.93,1.07-1.52,1.34-2.43a2.63,2.63,0,0,0,.05-.79c-.37-8.55-2.09-17.27-.21-25.73-.71,0-2.36-.28-3,.18s-.53,1.57-.63,2.08c-.22,1.22-.42,2.47-.57,3.71A22.06,22.06,0,0,0,121.86,433.76Z"/><path class="cls-16" d="M125.87,433.82a60,60,0,0,0,.67,7.42,60.3,60.3,0,0,1,.41,8.4,2.58,2.58,0,0,0,.15,1.07,2.75,2.75,0,0,0,.42.59l2,2.28c-.23-.93,1-1.54,1.27-2.47a2.6,2.6,0,0,0,0-.79c-.3-4.37-.74-8.72-1.2-13.08a48.14,48.14,0,0,1-.39-6.23c0-.56.33-6.4.71-6.4-.71,0-2.37-.22-3,.26s-.58,1.9-.68,2.67c-.18,1.47-.34,2.93-.4,4.41C125.86,432.58,125.86,433.2,125.87,433.82Z"/><path class="cls-17" d="M223.08,415.42l-.82-.15a17.65,17.65,0,0,0-9.85,1.4c-2.52,1.1-4.81,2.77-7.47,3.45a10.75,10.75,0,0,1-6.81-.51,4.15,4.15,0,0,0-2-.54,2.26,2.26,0,0,0-1.74,2.36,4.82,4.82,0,0,0,1.35,2.85,13.27,13.27,0,0,0,9,4.41,16.22,16.22,0,0,0,9.78-2.56,16.65,16.65,0,0,1-7.06,5.08c-3.35,1.36-7.18,1.64-10.19,3.66a11.81,11.81,0,0,1-2.2,1.39,13.36,13.36,0,0,1-2.36.49,9.39,9.39,0,0,0-3.77,1.62,5.4,5.4,0,0,0-2.1,2.65,2.94,2.94,0,0,0,.81,3.14c1,.83,2.51.64,3.81.41,6.14-1.12,12.26-2.41,18.32-3.88-3.86,1.09-8,2.32-11.88,3.41-2.42.68-4.84,1.36-7.23,2.14-2.23.72-4.58,1.64-5.86,3.61a3.25,3.25,0,0,0-.59,1.85,3.17,3.17,0,0,0,2.78,2.66,10.23,10.23,0,0,0,4.09-.51c1.93-.5,3.88-.92,5.83-1.34l20-4.26c-3.07,1.59-6,2.9-9.1,4.49-1.54.81-3.5,1.59-4.92.58a10.82,10.82,0,0,0-1-.8,2.29,2.29,0,0,0-3.08,1.41,4.13,4.13,0,0,0,.82,3.64,7.13,7.13,0,0,0,4.07,2.68,14.06,14.06,0,0,0,4.15.12,17.49,17.49,0,0,0,10.11-2.95l4-2.35a62.12,62.12,0,0,1-12,5.13c3.59,2.1,8.66,3.32,12.27,1.25a25.82,25.82,0,0,0,4.43-3.53,131.93,131.93,0,0,1,13.9-11c3.88-2.67,8.16-5.62,11.23-9.23,1-1.21,1.93-2.52,3-3.7a32.06,32.06,0,0,1,4.74-4.12,111.32,111.32,0,0,1,11.25-7.34,1.82,1.82,0,0,0,.58-.45c.36-.49.11-1.17-.15-1.72a86.79,86.79,0,0,0-11.88-18.52l-19.56,10.42a37.59,37.59,0,0,1-8.18,3.57C228.44,416.63,226,416,223.08,415.42Z"/><path class="cls-4" d="M196.52,420.69a4.84,4.84,0,0,0,1.62.73,2,2,0,0,0,.9.07,1.77,1.77,0,0,0,1.19-1.33,18,18,0,0,1-2.47-.84c-.09,0-.47-.27-.56-.24s-.14.47-.17.57A6.3,6.3,0,0,1,196.52,420.69Z"/><path class="cls-5" d="M285.15,244.67c-.32,2.65-1.44,5.13-1.95,7.75-.73,3.83-.14,7.77.13,11.66.85,12.53-1.8,25-4.39,37.3-1.71,8.12-8,47.51-7,55.74.76,5.9-1.6,19.69-4.94,23.59s-29.17,13.82-39.16,15.71a110,110,0,0,1,30.9,53.26c.76,3.12,1.22,6.87-1.08,9.11-3,2.9-8,1-11.32-1.47a52.4,52.4,0,0,1-8.07-7.25l-1.69,1.87c3.76,4.28,7.82,8.76,13.28,10.38,7.17,2.13,14.71-1.19,21.45-4.43l31.51-15.14c5-2.43,10.12-4.87,14.62-8.21,10.45-7.76,17.07-20.08,19.17-32.93,1-6.18,6-33.13,5.09-39.32-6.69-44.52-37.39-118.71-44.45-127.7-2-2.49-8.52-9.17-11.85-7S285.56,241.35,285.15,244.67Z"/><path class="cls-14" d="M268.57,375l10.35,6.57-2.34-4.41c12,8.08,24.09,16.23,37.55,21.49A208.82,208.82,0,0,1,280.25,373l10.87,4.09-15-11.39a1.83,1.83,0,0,0,1.44-1.29c-2.43-2.9-6.21-4.87-6.66-.21C270.88,364.53,270.72,376.34,268.57,375Z"/><path class="cls-18" d="M170.41,225a38.55,38.55,0,0,1-1.37,6.18,3.73,3.73,0,0,1-1.62,2.42,6.23,6.23,0,0,1-2.59.17c-2.33,0-5.51.39-6.89,2.27s-2.7,3.57-4,5.51c-1.13,1.68-2.37,6.46-2.27,4.44.8-14.8-2.94-23.11-1.32-26.87a6.24,6.24,0,0,1,1.47-2.35c1.28-1.09,3.24-1,4.62-1.94,2.86-2,1.87-6.14,1.87-9.1V184.45h52.07v20.62l-12.28,18.56-39.79,8.07V211.63"/><path class="cls-17" d="M193,97.68l-1.48,94.62c-.05,3.83-2,6.29-5.4,6.9a9.82,9.82,0,0,1-1.77.15l-2.27,0-8.23-.17c-2.16,0-5.44-1.68-7-3.22L149.6,178.24c-1.53-1.52-3.44-5.74-3.44-7.89l-.66-14.56a8.18,8.18,0,0,0-2.38-5.77,8.13,8.13,0,0,1-2.39-5.77v-3.67c0-1.42,1.11-4.5,2.45-8s2.7-8.21,2.7-10.38l.5-24.63a8.16,8.16,0,0,1,8.16-8.17h30.27a.58.58,0,0,1,.19,0A8.13,8.13,0,0,1,193,97.68Z"/><path class="cls-17" d="M226.74,140.58v3.67a8.18,8.18,0,0,1-2.4,5.77,8.23,8.23,0,0,0-2.39,5.77l-2.06,17.1a8.22,8.22,0,0,1-2.4,5.78L200,196.44a10.4,10.4,0,0,1-6.45,2.91l-7.49-.15-2.49-.06A10.44,10.44,0,0,1,182,199c-3.58-.52-6-2.83-6-6.73l-1.48-94.62a8.17,8.17,0,0,1,8.16-8.3h30.28a8.17,8.17,0,0,1,8.17,8.17l.5,24.63c0,2.17,1.35,6.86,2.7,10.38S226.74,139.16,226.74,140.58Z"/><path class="cls-17" d="M139.27,132.08a3.54,3.54,0,0,0-4.47,0,3.63,3.63,0,0,0-1.3,4.55,25.5,25.5,0,0,0,1.91,3.89,15.28,15.28,0,0,1,1.86,5.53c.12,1.08.09,2.18.31,3.24a14.47,14.47,0,0,0,2.65,5.23l2.24,3.25c.67,1,1.63,2.07,2.79,1.82s1.51-1.42,1.57-2.47c.2-4-3.45-7.3-3.79-11.3-.23-2.68,1-5.2,1-7.86,0-2.15-1.86-3.66-3.41-4.85C140.17,132.71,139.72,132.37,139.27,132.08Z"/><path class="cls-17" d="M227.48,132.08a3.54,3.54,0,0,1,4.47,0,3.63,3.63,0,0,1,1.3,4.55,25.5,25.5,0,0,1-1.91,3.89,15.28,15.28,0,0,0-1.86,5.53c-.12,1.08-.09,2.18-.31,3.24a14.47,14.47,0,0,1-2.65,5.23l-2.24,3.25c-.67,1-1.63,2.07-2.79,1.82s-1.51-1.42-1.57-2.47c-.2-4,3.45-7.3,3.79-11.3.23-2.68-1-5.2-1-7.86,0-2.15,1.86-3.66,3.41-4.85C226.58,132.71,227,132.37,227.48,132.08Z"/><path class="cls-19" d="M185,89.38v0c-.11.72-.24,1.43-.4,2.13-1,4.79-2.78,9.68-1.84,14.52l-2,5.53A124.13,124.13,0,0,1,182,124.35a13.49,13.49,0,0,1-.48,5.14c-.47,1.32-.84,2.71-1.43,4-1.09,2.33-2.43,4.33-2.6,6.89-.31,4.51.07,9.39-.22,13.9,0,.76-1.46,1.23-1.2,2,.45,1.3,3.09,2.41,4,3.43,2.2,2.37,2.33,5.93,2.35,9.17q0,4,0,8.07c0,3.8,0,7.63-.3,11.42-.31,3.56-.9,7.28-.15,10.71a1.27,1.27,0,0,0,.06.28l-8.23-.17c-2.16,0-5.44-1.68-7-3.22L149.6,178.24c-1.53-1.52-3.44-5.74-3.44-7.89l-.66-14.56a8.18,8.18,0,0,0-2.38-5.77,8.13,8.13,0,0,1-2.39-5.77v-3.67c0-1.42,1.11-4.5,2.45-8s2.7-8.21,2.7-10.38l.5-24.63a8.16,8.16,0,0,1,8.16-8.17Z"/><path class="cls-20" d="M221.09,125.8c.89,2.49,2.15,4.89,2.49,7.51.42,3.25-.6,6.5-1.6,9.62.35.49,1.06-.16,1.24-.73.78-2.62.39-5.74,2.2-7.79.81-.92,2-1.49,2.77-2.44,1.8-2.17,1-5.39.27-8.12a58.92,58.92,0,0,1-1.94-14.65c0-5-5.46-2.38-6.39.78C218.67,115,219.36,121,221.09,125.8Z"/><path class="cls-20" d="M139.37,130.56a2.9,2.9,0,0,0,0,.93c.34,1.22,2,1.57,2.53,2.73.7,1.64-1.45,3.38-1,5.1a22.7,22.7,0,0,0,5.69-10.22,67.51,67.51,0,0,0,1.86-11.68,2.63,2.63,0,0,0-.1-1.31c-.35-.75-1.3-1-2.12-1-3.28-.33-6-.73-6.29,3C139.65,122.23,139.58,126.41,139.37,130.56Z"/><path class="cls-21" d="M182,124.87a13.1,13.1,0,0,1,.17,6,7,7,0,0,1-.26.77,7.11,7.11,0,0,1-.36.73c-.25.44-.5.86-.76,1.28a9.07,9.07,0,0,0-1.25,2.34,7.37,7.37,0,0,0-.34,2.48c0,1,0,1.95,0,2.92,0,2-.1,3.9-.26,5.86a41.65,41.65,0,0,1-.89,5.9c-.13.49-.24,1-.4,1.48a7.42,7.42,0,0,0-.3,1.08.37.37,0,0,0-.05-.15c-.06-.09,0-.05.09,0a5.82,5.82,0,0,0,1,.54,11,11,0,0,0,5,.52,34.23,34.23,0,0,1,5.86-.16l.06,1.29c-1.83.42-3.62,1-5.59,1.39a14.91,14.91,0,0,1-3.11.31,8.84,8.84,0,0,1-3.31-.66,8.62,8.62,0,0,1-1.55-.84,3.14,3.14,0,0,1-.92-1,2.68,2.68,0,0,1-.32-1.54,8.82,8.82,0,0,1,.46-1.7c.15-.42.26-.87.38-1.3a49,49,0,0,0,1-5.5c.24-1.87.39-3.76.53-5.66.06-1,.11-1.9.15-2.86a8.56,8.56,0,0,1,.69-3.17,11,11,0,0,1,1.66-2.63c.29-.37.58-.75.84-1.12.13-.19.26-.38.34-.53a6.11,6.11,0,0,0,.27-.58,13.6,13.6,0,0,0,.47-5.46Z"/><g class="cls-22"><path class="cls-23" d="M209.5,164.84a14,14,0,0,1,6.11-10.52"/><path class="cls-23" d="M157.82,168.61a13.91,13.91,0,0,0-6.1-10.52"/></g><path class="cls-24" d="M200.26,135a3.34,3.34,0,0,1-3.35-3.46,3.36,3.36,0,0,1,3.34-3.24,3.34,3.34,0,0,1,3.35,3.46,3.34,3.34,0,0,1-1.06,2.33,3.29,3.29,0,0,1-2.28.91Z"/><path class="cls-21" d="M200.25,128.4a3.22,3.22,0,1,1-2.2.87,3.23,3.23,0,0,1,2.2-.87m0-.25a3.47,3.47,0,0,0-2.53,5.84,3.5,3.5,0,0,0,2.54,1.1,3.47,3.47,0,0,0,2.53-5.84,3.5,3.5,0,0,0-2.54-1.1Z"/><circle class="cls-25" cx="200.26" cy="131.62" r="3"/><g class="cls-26"><g class="cls-27"><polygon class="cls-24" points="200.63 130.93 201.05 128.89 200.3 130.84 200.63 130.93"/><polygon class="cls-24" points="199.82 130.84 198.52 129.34 199.54 131.03 199.82 130.84"/><polygon class="cls-24" points="199.15 131.21 198.38 130.98 199 131.52 199.15 131.21"/><path class="cls-24" d="M201.16,131.46a.76.76,0,0,0,.41-.09l.32-.14.63-.28-.68.11-.34.06c-.11,0-.23,0-.26,0Z"/><polygon class="cls-24" points="201.2 131.14 201.98 130.43 201.02 130.85 201.2 131.14"/><polygon class="cls-24" points="200.33 130.79 200.16 128.45 199.99 130.79 200.33 130.79"/><path class="cls-24" d="M201.11,132.35a4.07,4.07,0,0,0,1.35.34,3.94,3.94,0,0,1-1.18-.63Z"/><polygon class="cls-24" points="200 130.55 199.37 129.65 199.69 130.71 200 130.55"/><path class="cls-24" d="M199.3,131a2.75,2.75,0,0,1-.79-.55,2.71,2.71,0,0,0,.6.83Z"/><path class="cls-24" d="M201.26,131.93a1.31,1.31,0,0,0,.9-.1,1.16,1.16,0,0,1-.77-.21Z"/><polygon class="cls-24" points="201.07 130.87 201.48 130.04 200.78 130.69 201.07 130.87"/><polygon class="cls-24" points="199.31 131.48 197.23 131.32 199.27 131.81 199.31 131.48"/><polygon class="cls-24" points="199.33 132.28 198.01 133.77 199.55 132.54 199.33 132.28"/><polygon class="cls-24" points="199.78 132.91 199.65 133.7 200.11 133.01 199.78 132.91"/><path class="cls-24" d="M199.77,130.88a.71.71,0,0,0-.15-.39l-.18-.3-.35-.59.2.66.1.33a.56.56,0,0,1,0,.26Z"/><polygon class="cls-24" points="199.44 130.88 198.64 130.21 199.19 131.1 199.44 130.88"/><polygon class="cls-24" points="199.21 131.79 196.91 132.26 199.25 132.13 199.21 131.79"/><path class="cls-24" d="M200.66,130.82a4.13,4.13,0,0,0,.16-1.39,3.78,3.78,0,0,1-.48,1.25Z"/><polygon class="cls-24" points="199.01 132.15 198.21 132.89 199.21 132.43 199.01 132.15"/><path class="cls-24" d="M199.58,132.78a2.81,2.81,0,0,1-.44.86,2.77,2.77,0,0,0,.74-.71Z"/><path class="cls-24" d="M200.22,130.73a1.34,1.34,0,0,0-.22-.89,1.17,1.17,0,0,1-.11.79Z"/><polygon class="cls-24" points="199.19 131.05 198.32 130.74 199.05 131.36 199.19 131.05"/><polygon class="cls-24" points="200.02 132.71 200.13 134.8 200.36 132.71 200.02 132.71"/><polygon class="cls-24" points="200.82 132.59 202.46 133.71 201.05 132.34 200.82 132.59"/><polygon class="cls-24" points="201.38 132.06 202.18 132.09 201.44 131.73 201.38 132.06"/><path class="cls-24" d="M199.37,132.34a.71.71,0,0,0-.37.19l-.27.22-.54.43.63-.29.31-.14c.1-.05.21-.09.25-.07Z"/><polygon class="cls-24" points="199.41 132.66 198.85 133.54 199.67 132.89 199.41 132.66"/><polygon class="cls-24" points="200.35 132.77 201.11 134.99 200.68 132.69 200.35 132.77"/><path class="cls-24" d="M199.19,131.46a4,4,0,0,0-1.39,0,4,4,0,0,1,1.3.31Z"/><polygon class="cls-24" points="200.73 132.92 201.57 133.63 200.98 132.69 200.73 132.92"/><path class="cls-24" d="M201.28,132.28a2.51,2.51,0,0,1,.9.33,2.65,2.65,0,0,0-.79-.65Z"/><path class="cls-24" d="M199.16,131.91a1.32,1.32,0,0,0-.85.33,1.16,1.16,0,0,1,.8,0Z"/><polygon class="cls-24" points="199.61 132.89 199.42 133.79 199.94 132.99 199.61 132.89"/><polygon class="cls-24" points="201.16 131.85 203.21 131.47 201.11 131.51 201.16 131.85"/><polygon class="cls-24" points="200.94 131.07 201.83 129.3 200.66 130.88 200.94 131.07"/><polygon class="cls-24" points="200.34 130.59 200.26 129.79 200 130.57 200.34 130.59"/><path class="cls-24" d="M200.87,132.55a.68.68,0,0,0,.24.33l.24.25.5.48-.36-.59-.18-.29a.53.53,0,0,1-.11-.24Z"/><polygon class="cls-24" points="201.18 132.46 202.13 132.91 201.37 132.18 201.18 132.46"/><polygon class="cls-24" points="201.17 131.52 203.28 130.48 201.05 131.2 201.17 131.52"/><path class="cls-24" d="M200,132.83a4.19,4.19,0,0,0,.2,1.38,3.92,3.92,0,0,1,.14-1.33Z"/><polygon class="cls-24" points="201.27 131.12 201.86 130.2 201.01 130.9 201.27 131.12"/><path class="cls-24" d="M200.57,130.66a2.64,2.64,0,0,1,.2-.94,3,3,0,0,0-.54.87Z"/><path class="cls-24" d="M200.47,132.81a1.31,1.31,0,0,0,.43.8,1.19,1.19,0,0,1-.09-.8Z"/><polygon class="cls-24" points="201.38 132.24 202.3 132.31 201.44 131.9 201.38 132.24"/><polygon class="cls-24" points="200.16 130.84 199.51 128.85 199.82 130.92 200.16 130.84"/><polygon class="cls-24" points="199.41 131.15 197.54 130.49 199.26 131.46 199.41 131.15"/><polygon class="cls-24" points="199.01 131.81 198.23 131.99 199.03 132.15 199.01 131.81"/><path class="cls-24" d="M200.88,131a.72.72,0,0,0,.31-.28l.2-.28.42-.55-.54.44-.26.21a.69.69,0,0,1-.23.14Z"/><polyline class="cls-24" points="201.08 129.73 200.45 130.58 200.76 130.73 201.08 129.73"/><polygon class="cls-24" points="199.82 130.86 198.53 128.91 199.52 131.03 199.82 130.86"/><path class="cls-24" d="M201.27,131.83a3.87,3.87,0,0,0,1.35-.37,3.78,3.78,0,0,1-1.34,0Z"/><polygon class="cls-24" points="199.42 130.81 198.43 130.35 199.23 131.1 199.42 130.81"/><path class="cls-24" d="M199.05,131.57a2.63,2.63,0,0,1-1-.08,2.71,2.71,0,0,0,.93.42Z"/><path class="cls-24" d="M201.19,131.4a1.39,1.39,0,0,0,.74-.54,1.18,1.18,0,0,1-.78.2Z"/><polygon class="cls-24" points="200.51 130.56 200.46 129.64 200.17 130.55 200.51 130.56"/></g></g><circle class="cls-28" cx="199.66" cy="131.5" r="1.68"/><circle class="cls-29" cx="199.77" cy="132.02" r="0.31"/><circle class="cls-29" cx="200.54" cy="131.42" r="0.6"/><path class="cls-30" d="M212.77,133.17c-1.5.16-2.79-.95-4-1.81A15.77,15.77,0,0,0,193.4,130"/><path class="cls-30" d="M199.57,128.62c-3.84,1-4.5,3.79-7.19,4.87-.54.23-1.17.5-1.31,1.07a2.44,2.44,0,0,0,1.54.09c2-.23,3.92.61,5.87,1.07a15.59,15.59,0,0,0,10.61-1.29"/><path class="cls-24" d="M161.64,135a3.36,3.36,0,1,1,2.29-.91,3.33,3.33,0,0,1-2.29.91Z"/><path class="cls-21" d="M161.64,128.4a3.22,3.22,0,1,1-2.2.87,3.19,3.19,0,0,1,2.2-.87m0-.25a3.47,3.47,0,0,0,0,6.94,3.41,3.41,0,0,0,2.37-.94,3.47,3.47,0,0,0-2.37-6Z"/><circle class="cls-25" cx="161.64" cy="131.62" r="3"/><g class="cls-26"><g class="cls-31"><polygon class="cls-24" points="162.02 130.93 162.44 128.89 161.69 130.84 162.02 130.93"/><polygon class="cls-24" points="161.21 130.84 159.91 129.34 160.93 131.03 161.21 130.84"/><polygon class="cls-24" points="160.54 131.21 159.77 130.98 160.39 131.52 160.54 131.21"/><path class="cls-24" d="M162.55,131.46a.72.72,0,0,0,.4-.09l.32-.14.63-.28-.68.11-.33.06c-.11,0-.23,0-.27,0Z"/><polygon class="cls-24" points="162.59 131.14 163.36 130.43 162.4 130.85 162.59 131.14"/><polygon class="cls-24" points="161.71 130.79 161.55 128.45 161.37 130.79 161.71 130.79"/><path class="cls-24" d="M162.5,132.35a4,4,0,0,0,1.35.34,3.72,3.72,0,0,1-1.18-.63Z"/><polygon class="cls-24" points="161.38 130.55 160.75 129.65 161.08 130.71 161.38 130.55"/><path class="cls-24" d="M160.69,131a2.5,2.5,0,0,1-.79-.55,2.55,2.55,0,0,0,.6.83Z"/><path class="cls-24" d="M162.64,131.93a1.33,1.33,0,0,0,.91-.1,1.16,1.16,0,0,1-.77-.21Z"/><polygon class="cls-24" points="162.46 130.87 162.87 130.04 162.17 130.69 162.46 130.87"/><polygon class="cls-24" points="160.7 131.48 158.62 131.32 160.65 131.81 160.7 131.48"/><polygon class="cls-24" points="160.71 132.28 159.4 133.77 160.94 132.54 160.71 132.28"/><polygon class="cls-24" points="161.17 132.91 161.04 133.7 161.49 133.01 161.17 132.91"/><path class="cls-24" d="M161.15,130.88a.71.71,0,0,0-.14-.39l-.18-.3-.36-.59.2.66.1.33a.48.48,0,0,1,0,.26Z"/><polygon class="cls-24" points="160.83 130.88 160.02 130.21 160.57 131.1 160.83 130.88"/><polygon class="cls-24" points="160.6 131.79 158.3 132.26 160.64 132.13 160.6 131.79"/><path class="cls-24" d="M162,130.82a4.15,4.15,0,0,0,.17-1.39,3.78,3.78,0,0,1-.48,1.25Z"/><polygon class="cls-24" points="160.4 132.15 159.59 132.89 160.59 132.43 160.4 132.15"/><path class="cls-24" d="M161,132.78a2.57,2.57,0,0,1-.43.86,2.77,2.77,0,0,0,.74-.71Z"/><path class="cls-24" d="M161.61,130.73a1.4,1.4,0,0,0-.22-.89,1.17,1.17,0,0,1-.11.79Z"/><polygon class="cls-24" points="160.58 131.05 159.71 130.74 160.44 131.36 160.58 131.05"/><polygon class="cls-24" points="161.41 132.71 161.52 134.8 161.75 132.71 161.41 132.71"/><polygon class="cls-24" points="162.21 132.59 163.85 133.71 162.44 132.34 162.21 132.59"/><polygon class="cls-24" points="162.77 132.06 163.56 132.09 162.83 131.73 162.77 132.06"/><path class="cls-24" d="M160.75,132.34a.68.68,0,0,0-.36.19l-.27.22-.54.43.62-.29.31-.14c.11-.05.22-.09.26-.07Z"/><polygon class="cls-24" points="160.8 132.66 160.23 133.54 161.05 132.89 160.8 132.66"/><polygon class="cls-24" points="161.74 132.77 162.49 134.99 162.07 132.69 161.74 132.77"/><path class="cls-24" d="M160.58,131.46a4,4,0,0,0-1.39,0,4.06,4.06,0,0,1,1.3.31Z"/><polygon class="cls-24" points="162.12 132.92 162.95 133.63 162.37 132.69 162.12 132.92"/><path class="cls-24" d="M162.66,132.28a2.63,2.63,0,0,1,.91.33,2.65,2.65,0,0,0-.79-.65Z"/><path class="cls-24" d="M160.55,131.91a1.34,1.34,0,0,0-.86.33,1.19,1.19,0,0,1,.81,0Z"/><polygon class="cls-24" points="161 132.89 160.81 133.79 161.32 132.99 161 132.89"/><polygon class="cls-24" points="162.54 131.85 164.59 131.47 162.5 131.51 162.54 131.85"/><polygon class="cls-24" points="162.32 131.07 163.22 129.3 162.04 130.88 162.32 131.07"/><polygon class="cls-24" points="161.72 130.59 161.65 129.79 161.38 130.57 161.72 130.59"/><path class="cls-24" d="M162.25,132.55a.74.74,0,0,0,.24.33l.25.25.5.48-.36-.59-.18-.29a.44.44,0,0,1-.11-.24Z"/><polygon class="cls-24" points="162.57 132.46 163.52 132.91 162.76 132.18 162.57 132.46"/><polygon class="cls-24" points="162.56 131.52 164.66 130.48 162.43 131.2 162.56 131.52"/><path class="cls-24" d="M161.41,132.83a3.94,3.94,0,0,0,.19,1.38,3.92,3.92,0,0,1,.15-1.33Z"/><polygon class="cls-24" points="162.66 131.12 163.25 130.2 162.4 130.9 162.66 131.12"/><path class="cls-24" d="M162,130.66a2.66,2.66,0,0,1,.21-.94,2.77,2.77,0,0,0-.54.87Z"/><path class="cls-24" d="M161.85,132.81a1.38,1.38,0,0,0,.44.8,1.19,1.19,0,0,1-.1-.8Z"/><polygon class="cls-24" points="162.77 132.24 163.69 132.31 162.83 131.9 162.77 132.24"/><polygon class="cls-24" points="161.54 130.84 160.9 128.85 161.21 130.92 161.54 130.84"/><polygon class="cls-24" points="160.8 131.15 158.93 130.49 160.64 131.46 160.8 131.15"/><polygon class="cls-24" points="160.39 131.81 159.61 131.99 160.42 132.15 160.39 131.81"/><path class="cls-24" d="M162.27,131a.69.69,0,0,0,.3-.28l.21-.28.41-.55-.53.44-.27.21a.59.59,0,0,1-.22.14Z"/><polyline class="cls-24" points="162.47 129.73 161.84 130.58 162.14 130.73 162.47 129.73"/><polygon class="cls-24" points="161.21 130.86 159.91 128.91 160.91 131.03 161.21 130.86"/><path class="cls-24" d="M162.66,131.83a3.82,3.82,0,0,0,1.34-.37,3.73,3.73,0,0,1-1.33,0Z"/><polygon class="cls-24" points="160.8 130.81 159.81 130.35 160.62 131.1 160.8 130.81"/><path class="cls-24" d="M160.44,131.57a2.63,2.63,0,0,1-1-.08,2.71,2.71,0,0,0,.93.42Z"/><path class="cls-24" d="M162.58,131.4a1.39,1.39,0,0,0,.74-.54,1.19,1.19,0,0,1-.78.2Z"/><polygon class="cls-24" points="161.89 130.56 161.85 129.64 161.55 130.55 161.89 130.56"/></g></g><circle class="cls-28" cx="161.05" cy="131.5" r="1.68"/><circle class="cls-29" cx="161.15" cy="132.02" r="0.31"/><circle class="cls-29" cx="161.92" cy="131.42" r="0.6"/><path class="cls-30" d="M174.16,133.17c-1.5.16-2.79-.95-4-1.81A15.75,15.75,0,0,0,154.79,130"/><path class="cls-30" d="M161,128.62c-3.84,1-4.5,3.79-7.19,4.87-.54.23-1.17.5-1.32,1.07a2.44,2.44,0,0,0,1.54.09c2-.23,3.93.61,5.88,1.07a15.6,15.6,0,0,0,10.61-1.29"/><path class="cls-32" d="M183.66,176.54l-3.07-2.78s-1.2-1.17-1.28-1.2a16,16,0,0,0-2.19,0c-.18.08-6.13,3.8-6.58,3.69a25.59,25.59,0,0,1-2.68-1.43l-2,4s4.74-2.19,5.06-2.19Z"/><path class="cls-32" d="M178.78,176.54l3.27-2.78s1.27-1.17,1.36-1.2a17.94,17.94,0,0,1,2.32,0c.2.08,6.43,3.86,6.9,3.75a29.38,29.38,0,0,0,3-1.49l2.13,4s-5-2.19-5.37-2.19Z"/><path class="cls-20" d="M186.48,123.82l-1.51-.95a4.24,4.24,0,0,0,2.18,2.41c1.65.7,3.52,0,5.22-.57a31.91,31.91,0,0,1,10-1.64c3.91,0,8.19.9,10.62,4-1.91-3.63-6.21-5.36-10.29-5.78a33.76,33.76,0,0,0-7.52.14,23.33,23.33,0,0,1-7.43-.42,3.85,3.85,0,0,1-1.15-.55.34.34,0,0,0-.57.16C185.66,121.89,185.49,122.62,186.48,123.82Z"/><path class="cls-20" d="M174.36,124.1l1.51-.95a4.25,4.25,0,0,1-2.19,2.42c-1.65.7-3.51,0-5.21-.58a32.29,32.29,0,0,0-10-1.63c-3.92,0-8.19.89-10.63,4,1.51-2.87,4.53-4.53,7.57-5.3a30.25,30.25,0,0,1,7-1,65.25,65.25,0,0,1,6.84.57c1.42.12,3.1.35,4.33-.56C174.21,120.58,175.53,122.69,174.36,124.1Z"/><path class="cls-14" d="M209.29,206.14c-2.31,4.18-6.78,8-10.93,10.37a78.72,78.72,0,0,1-13.18,5.55L173,226.36c-4.27,1.5-8.59,3-12.39,5.5s-7.07,6-8.31,10.37a26.64,26.64,0,0,0-.57,8.55c.3,5.77.88,11.53,1.74,17.24.66.15.92-.83.86-1.51-.68-7.67-1.27-15.51.49-23,.57-2.41,1.51-4.95,3.6-6.29,2.69-1.72,6.21-.84,9.27.1l26.74,8.21c1.53.47,3.2.94,4.69.35a5.56,5.56,0,0,0,2.66-2.65c4.08-7.43-.28-17.05,2.64-25,1.59-4.36,5.21-7.75,6.69-12.14.76-2.24.91-5-.68-6.72-.57.29-.18,1-.08,1.66A7.64,7.64,0,0,1,209.29,206.14Z"/><path class="cls-14" d="M151.28,237.77A108.05,108.05,0,0,0,150,227a24,24,0,0,1-.39-6.32c.54-5,2.18-9.14,7-10.38a1.76,1.76,0,0,1,1.22,0,1.24,1.24,0,0,1,.44,1c.07.6-.08,1.25,0,1.84a1.26,1.26,0,0,1-.06.72c-.16.32-.56.43-.9.54-4.54,1.39-5,6-5.51,10.73s.46,9.44.72,14.18c.28,5.16-.32,10.32-.16,15.48.13,4.17,2.51,9.21,1,13.22C148.74,259.18,151.76,247.28,151.28,237.77Z"/><path class="cls-12" d="M215.51,112.39c1.6,0,11.29-.63,12.81-2.23,2.75-4,1-14.89.06-24.28-.48-4.76-1.54-10.61-6.07-13.11-4.06-2.25-28.33-1.36-35.38-.61-8.43.9-43,3.52-45.31,4a6.39,6.39,0,0,0-5.37,5.63c-.65,3.82-1,19.78-1.11,23.88,0,3-.06,10.61,2.72,11.48,2.44.76,9.23,0,14.31-.77C162.46,115,203.42,112.4,215.51,112.39Z"/><rect class="cls-13" x="141.51" y="106.6" width="1.59" height="9.28" rx="0.79" transform="translate(-34.19 149.65) rotate(-50.29)"/><rect class="cls-13" x="161.4" y="104.76" width="1.59" height="9.28" rx="0.79" transform="translate(-25.59 164.28) rotate(-50.29)"/><rect class="cls-13" x="181.28" y="102.92" width="1.59" height="9.28" rx="0.79" transform="translate(-16.99 178.91) rotate(-50.29)"/><rect class="cls-13" x="201.17" y="101.08" width="1.59" height="9.28" rx="0.79" transform="translate(-8.4 193.54) rotate(-50.29)"/><rect class="cls-13" x="221.05" y="99.23" width="1.59" height="9.28" rx="0.79" transform="translate(0.2 208.18) rotate(-50.29)"/><rect class="cls-11" x="221.05" y="99.23" width="1.59" height="9.28" rx="0.79" transform="translate(326.15 325.52) rotate(-140.29)"/><rect class="cls-11" x="201.17" y="101.08" width="1.59" height="9.28" rx="0.79" transform="translate(289.79 316.07) rotate(-140.29)"/><rect class="cls-11" x="181.28" y="102.92" width="1.59" height="9.28" rx="0.79" transform="translate(253.43 306.63) rotate(-140.29)"/><rect class="cls-11" x="161.4" y="104.76" width="1.59" height="9.28" rx="0.79" transform="translate(217.07 297.18) rotate(-140.29)"/><rect class="cls-11" x="141.51" y="106.6" width="1.59" height="9.28" rx="0.79" transform="translate(180.71 287.74) rotate(-140.29)"/><path class="cls-11" d="M141,97.92a3.78,3.78,0,0,0,.44,2,3.33,3.33,0,0,0,1.61,1.16,20.82,20.82,0,0,0,7.66,1.16,122.67,122.67,0,0,0,15.09-.71,1.52,1.52,0,0,0,1-.36,1.56,1.56,0,0,0,.29-.93c.55-6.47,1.09-13.12-.82-19.33a4.39,4.39,0,0,0-1.57-2.54,4.77,4.77,0,0,0-3-.37l-17.84,1.69a4.18,4.18,0,0,0-2.57.83c-1.46,1.37-.34,5.29-.37,7.17C140.82,91.08,140.85,94.5,141,97.92Z"/><path class="cls-11" d="M171.38,79a3,3,0,0,0-.47,1.45,44.86,44.86,0,0,0,.87,17,4.19,4.19,0,0,0,1.43,2.63,3.84,3.84,0,0,0,1.73.52,33.29,33.29,0,0,0,6.91-.15l10.44-1a2.85,2.85,0,0,0,1.19-.28,2.21,2.21,0,0,0,.84-1A9.73,9.73,0,0,0,195,94a103,103,0,0,0-.34-14.91,3.82,3.82,0,0,0-1-2.52,4,4,0,0,0-3.14-.48c-3.8.48-7.74,1.31-11.58,1.45C176.61,77.66,173.17,76.69,171.38,79Z"/><path class="cls-11" d="M197.57,82.58l1.45,13a3.26,3.26,0,0,0,.47,1.63c.71,1,2.17.92,3.37.76a98.93,98.93,0,0,1,17.29-.68c1.31.07,2.81.08,3.69-.89a4.44,4.44,0,0,0,.7-3.3,69.19,69.19,0,0,0-1.83-14.43,3.75,3.75,0,0,0-1.1-2,3.9,3.9,0,0,0-2.29-.58l-9.75-.43c-2.89-.12-6.43-.26-9.27.46S197.29,80.08,197.57,82.58Z"/><path class="cls-12" d="M144.1,90.14a2.82,2.82,0,0,0-.72,2,2.72,2.72,0,0,0,.71,1.24,33.66,33.66,0,0,0,7.93,6.79,5.57,5.57,0,0,0,3.07,1.08,5.7,5.7,0,0,0,3.29-1.71,40.26,40.26,0,0,0,5.81-6.29,2.66,2.66,0,0,0,.67-1.44A2.76,2.76,0,0,0,164,90c-1.79-2-3.73-3.9-5.71-5.75-1.35-1.26-3.47-4.09-5.56-3.87-1.76.19-2.93,2.38-3.91,3.61C147.18,86,145.58,88,144.1,90.14Z"/><path class="cls-12" d="M172.76,87.93a2.82,2.82,0,0,0-.72,2,2.72,2.72,0,0,0,.71,1.24A34.14,34.14,0,0,0,180.68,98a4.4,4.4,0,0,0,6.36-.63,40.88,40.88,0,0,0,5.82-6.3,2.69,2.69,0,0,0,.66-1.44,2.76,2.76,0,0,0-.9-1.78c-1.79-2-3.73-3.91-5.71-5.75-1.35-1.26-3.47-4.09-5.56-3.87-1.76.18-2.93,2.38-3.91,3.61C175.84,83.82,174.24,85.82,172.76,87.93Z"/><path class="cls-12" d="M201,85.73a2.82,2.82,0,0,0-.72,2A2.78,2.78,0,0,0,201,89a33.86,33.86,0,0,0,7.93,6.78A5.57,5.57,0,0,0,212,96.84a5.64,5.64,0,0,0,3.29-1.71,39.88,39.88,0,0,0,5.82-6.29,2.06,2.06,0,0,0-.24-3.22c-1.79-2-3.73-3.91-5.71-5.75-1.35-1.27-3.47-4.09-5.56-3.87-1.75.18-2.93,2.38-3.91,3.61C204.08,81.62,202.48,83.62,201,85.73Z"/><path class="cls-12" d="M148.45,82.47a.64.64,0,0,0,.27-.52c0-.24-.29-.37-.51-.45a10.76,10.76,0,0,0-4.06-.55,2.56,2.56,0,0,0-1.25.33,2.72,2.72,0,0,0-.87,2.28,36.56,36.56,0,0,0,.22,5.92.8.8,0,0,0,.49.74c.93-1.28,1.63-2.75,2.57-4A34.78,34.78,0,0,1,148.45,82.47Z"/><path class="cls-12" d="M149.79,100.3c.21.17.45.41.36.67s-.51.32-.83.28l-4.55-.61a3.73,3.73,0,0,1-2.15-.76,3.83,3.83,0,0,1-.75-2.92c0-.68-.3-3.33.37-3.72s1.67,1.5,2.07,2A38.78,38.78,0,0,0,149.79,100.3Z"/><path class="cls-12" d="M163.82,100.65a2.67,2.67,0,0,0,1.08-.33,2.74,2.74,0,0,0,1-1.73c.2-.77.36-1.54.49-2.32a5.3,5.3,0,0,0-.1-2.88.51.51,0,0,0-.21-.29c-.26-.16-.56.1-.75.33a76.45,76.45,0,0,1-5.64,6.29c-.48.46-1,.89-.31,1.23C160.57,101.51,162.54,100.53,163.82,100.65Z"/><path class="cls-12" d="M164.51,89.09a1,1,0,0,0,.64.39c.5,0,.68-.65.67-1.15a30.62,30.62,0,0,0-1-6.7c-.2-.88-.51-1.89-1.34-2.24a2.89,2.89,0,0,0-1.31-.12c-1.58.1-3.2.12-4.79.28a.83.83,0,0,0-.62,1.26,26.66,26.66,0,0,0,3.16,3.34C161.42,85.8,163,87.4,164.51,89.09Z"/><path class="cls-12" d="M177.91,79.84c.14-.15.3-.32.27-.53s-.29-.36-.52-.44a10.74,10.74,0,0,0-4.06-.55,2.48,2.48,0,0,0-1.25.32,2.8,2.8,0,0,0-.87,2.29,37.78,37.78,0,0,0,.22,5.92.8.8,0,0,0,.5.74c.93-1.28,1.62-2.75,2.57-4A32.59,32.59,0,0,1,177.91,79.84Z"/><path class="cls-12" d="M205.3,78.25c.14-.14.3-.32.27-.52s-.29-.37-.52-.44a10.52,10.52,0,0,0-4.05-.56,2.53,2.53,0,0,0-1.25.33,2.77,2.77,0,0,0-.88,2.28,37.73,37.73,0,0,0,.22,5.92.8.8,0,0,0,.5.74c.93-1.28,1.63-2.75,2.57-4A34.78,34.78,0,0,1,205.3,78.25Z"/><path class="cls-12" d="M180.37,99c.23.15.48.37.43.64s-.48.37-.8.36l-4.59-.14a2.83,2.83,0,0,1-3.26-3.37c-.05-.68-.64-3.28,0-3.74S174,94,174.4,94.46A38.36,38.36,0,0,0,180.37,99Z"/><path class="cls-12" d="M207.79,96.16c.23.15.48.37.43.64s-.48.37-.8.36L202.83,97a3.71,3.71,0,0,1-2.21-.53,3.78,3.78,0,0,1-1.05-2.83c0-.68-.64-3.28,0-3.74s1.81,1.32,2.26,1.76A38.36,38.36,0,0,0,207.79,96.16Z"/><path class="cls-12" d="M191.76,98.91a2.1,2.1,0,0,0,2.05-2.06c.2-.77.36-1.54.49-2.32a5.3,5.3,0,0,0-.1-2.88.51.51,0,0,0-.21-.29c-.26-.16-.56.1-.75.33A76.45,76.45,0,0,1,187.6,98c-.48.46-1,.89-.31,1.23C188.5,99.77,190.48,98.79,191.76,98.91Z"/><path class="cls-12" d="M220.77,96.27a2.63,2.63,0,0,0,1.07-.33,2.73,2.73,0,0,0,1-1.74c.19-.76.36-1.54.49-2.31a5.3,5.3,0,0,0-.1-2.88.63.63,0,0,0-.21-.3c-.26-.15-.56.11-.75.34a78.38,78.38,0,0,1-5.64,6.28c-.48.47-1.06.89-.32,1.24C217.51,97.13,219.49,96.15,220.77,96.27Z"/><path class="cls-12" d="M193.16,87.23a1,1,0,0,0,.64.39c.49,0,.67-.65.67-1.15a31.24,31.24,0,0,0-1-6.71c-.2-.88-.5-1.89-1.34-2.24a2.85,2.85,0,0,0-1.3-.11c-1.58.1-3.21.12-4.79.27a.83.83,0,0,0-.62,1.27,25.89,25.89,0,0,0,3.15,3.34C190.07,83.93,191.66,85.54,193.16,87.23Z"/><path class="cls-12" d="M221.71,85.54a.9.9,0,0,0,.59.37c.46,0,.62-.6.62-1.06a29.35,29.35,0,0,0-.95-6.16c-.19-.82-.47-1.74-1.24-2.07a2.68,2.68,0,0,0-1.2-.1c-1.45.09-2.94.11-4.4.25a.76.76,0,0,0-.57,1.16,23.73,23.73,0,0,0,2.9,3.07C218.87,82.52,220.34,84,221.71,85.54Z"/><path class="cls-13" d="M153.64,83.93a.65.65,0,0,0,0-1.29.65.65,0,0,0,0,1.29Z"/><path class="cls-13" d="M153.75,86a.65.65,0,0,0,0-1.29.65.65,0,0,0,0,1.29Z"/><path class="cls-13" d="M153.93,86.77h0c-.83-.08-.83,1.21,0,1.29h0c.83.08.82-1.22,0-1.29h0c-.83-.08-.83,1.21,0,1.29h0c.83.08.82-1.22,0-1.29Z"/><path class="cls-13" d="M154.07,89.91a.65.65,0,0,0,0-1.29.65.65,0,0,0,0,1.29Z"/><path class="cls-13" d="M154.15,91.69a.65.65,0,0,0,0-1.29.65.65,0,0,0,0,1.29Z"/><path class="cls-13" d="M154.3,93.42a.65.65,0,0,0,0-1.29.65.65,0,0,0,0,1.29Z"/><path class="cls-13" d="M154.37,95.33a.65.65,0,0,0,0-1.29.65.65,0,0,0,0,1.29Z"/><path class="cls-13" d="M154.45,97.11a.65.65,0,0,0,0-1.29.65.65,0,0,0,0,1.29Z"/><path class="cls-13" d="M154.58,99a.65.65,0,0,0,0-1.29.65.65,0,0,0,0,1.29Z"/><path class="cls-13" d="M145.73,92.76a.65.65,0,0,0,0-1.29.65.65,0,0,0,0,1.29Z"/><path class="cls-13" d="M147.2,92.65a.65.65,0,0,0,0-1.29.65.65,0,0,0,0,1.29Z"/><path class="cls-13" d="M149,91.28h-.06a.54.54,0,0,0-.25.06.54.54,0,0,0-.34.34.51.51,0,0,0-.06.25l0,.17a.61.61,0,0,0,.16.28l.13.1a.63.63,0,0,0,.33.09H149a.54.54,0,0,0,.25-.06.46.46,0,0,0,.2-.13.49.49,0,0,0,.14-.21.43.43,0,0,0,0-.25l0-.17a.62.62,0,0,0-.17-.28l-.13-.11a.72.72,0,0,0-.32-.08Z"/><path class="cls-13" d="M151.47,91.91v0c.07-.83-1.22-.82-1.29,0v0c-.07.82,1.22.82,1.29,0v0c.07-.83-1.22-.82-1.29,0v0c-.07.82,1.22.82,1.29,0Z"/><path class="cls-13" d="M153.25,91.82v0c.07-.83-1.22-.82-1.29,0v0c-.08.83,1.21.83,1.28,0v0c.07-.83-1.22-.82-1.29,0v0c-.08.83,1.21.83,1.28,0Z"/><path class="cls-13" d="M156.33,92.09l0,0c.64-.53-.28-1.44-.91-.91l0,0c-.64.53.28,1.44.91.91l0,0c.64-.53-.28-1.44-.91-.91l0,0c-.64.53.28,1.44.91.91Z"/><path class="cls-13" d="M157.47,92.18h.07a.5.5,0,0,0,.24-.06A.57.57,0,0,0,158,92a.46.46,0,0,0,.13-.21.54.54,0,0,0,.06-.25l0-.17a.62.62,0,0,0-.17-.28l-.13-.11a.72.72,0,0,0-.32-.08h-.07a.5.5,0,0,0-.24.06.54.54,0,0,0-.34.34.42.42,0,0,0-.06.25l0,.17A.62.62,0,0,0,157,92l.13.1a.62.62,0,0,0,.32.09Z"/><path class="cls-13" d="M159.45,90.77h-.07a.5.5,0,0,0-.24.06.54.54,0,0,0-.34.34.51.51,0,0,0-.06.25l0,.17a.62.62,0,0,0,.17.28l.13.1a.62.62,0,0,0,.32.09h.07a.5.5,0,0,0,.24-.06.57.57,0,0,0,.21-.13.46.46,0,0,0,.13-.21.44.44,0,0,0,.06-.25l0-.17a.72.72,0,0,0-.17-.29l-.13-.1a.72.72,0,0,0-.32-.08Z"/><path class="cls-13" d="M161.12,91.78a.65.65,0,0,0,0-1.29.65.65,0,0,0,0,1.29Z"/><path class="cls-13" d="M162.71,91.8a.65.65,0,0,0,0-1.29.65.65,0,0,0,0,1.29Z"/><path class="cls-13" d="M181.77,81.69a.65.65,0,0,0,0-1.29.65.65,0,0,0,0,1.29Z"/><path class="cls-13" d="M181.88,83.78a.65.65,0,0,0,0-1.29.65.65,0,0,0,0,1.29Z"/><path class="cls-13" d="M182.06,84.53h0c-.83-.07-.82,1.22,0,1.29h0c.83.07.83-1.22,0-1.29h0c-.83-.07-.82,1.22,0,1.29h0c.83.07.83-1.22,0-1.29Z"/><path class="cls-13" d="M182.2,87.67a.65.65,0,0,0,0-1.29.65.65,0,0,0,0,1.29Z"/><path class="cls-13" d="M182.28,89.45a.65.65,0,0,0,0-1.29.65.65,0,0,0,0,1.29Z"/><path class="cls-13" d="M182.43,91.18a.65.65,0,0,0,0-1.29.65.65,0,0,0,0,1.29Z"/><path class="cls-13" d="M182.5,93.08a.65.65,0,0,0,0-1.29.65.65,0,0,0,0,1.29Z"/><path class="cls-13" d="M182.58,94.87a.65.65,0,0,0,0-1.29.65.65,0,0,0,0,1.29Z"/><path class="cls-13" d="M182.71,96.78a.65.65,0,0,0,0-1.29.65.65,0,0,0,0,1.29Z"/><path class="cls-13" d="M173.86,90.51a.65.65,0,0,0,0-1.29.65.65,0,0,0,0,1.29Z"/><path class="cls-13" d="M175.34,90.4a.64.64,0,0,0,0-1.28.64.64,0,0,0,0,1.28Z"/><path class="cls-13" d="M177.12,89h-.06a.43.43,0,0,0-.25,0,.49.49,0,0,0-.21.14.53.53,0,0,0-.13.2.54.54,0,0,0-.06.25l0,.17a.64.64,0,0,0,.16.29l.13.1a.63.63,0,0,0,.33.09h.06a.43.43,0,0,0,.25,0,.49.49,0,0,0,.21-.14.46.46,0,0,0,.13-.2.43.43,0,0,0,0-.25l0-.17a.64.64,0,0,0-.16-.29l-.14-.1a.59.59,0,0,0-.32-.09Z"/><path class="cls-13" d="M179.6,89.66v0c.07-.83-1.22-.83-1.29,0v0c-.07.83,1.22.82,1.29,0v0c.07-.83-1.22-.83-1.29,0v0c-.07.83,1.22.82,1.29,0Z"/><path class="cls-13" d="M181.39,89.58v0c.08-.82-1.21-.82-1.29,0v0c-.08.83,1.21.82,1.29,0v0c.08-.82-1.21-.82-1.29,0v0c-.08.83,1.21.82,1.29,0Z"/><path class="cls-13" d="M184.46,89.85l0,0c.64-.53-.28-1.44-.91-.91l0,0c-.64.53.28,1.43.91.91l0,0c.64-.53-.28-1.44-.91-.91l0,0c-.64.53.28,1.43.91.91Z"/><path class="cls-13" d="M185.61,89.94h.06a.39.39,0,0,0,.24,0,.49.49,0,0,0,.21-.14.41.41,0,0,0,.14-.2.53.53,0,0,0,.05-.25l0-.17a.66.66,0,0,0-.17-.29l-.13-.1a.62.62,0,0,0-.32-.09h-.06a.51.51,0,0,0-.25,0,.49.49,0,0,0-.21.14.44.44,0,0,0-.13.2.54.54,0,0,0-.06.25l0,.17a.66.66,0,0,0,.17.29l.13.1a.63.63,0,0,0,.33.09Z"/><path class="cls-13" d="M187.58,88.52h-.06a.42.42,0,0,0-.25,0,.49.49,0,0,0-.21.14.39.39,0,0,0-.13.2.54.54,0,0,0-.06.25l0,.17a.66.66,0,0,0,.17.29l.13.1a.63.63,0,0,0,.33.09h.06a.43.43,0,0,0,.25,0,.46.46,0,0,0,.2-.14.41.41,0,0,0,.14-.2.53.53,0,0,0,.05-.25l0-.17a.66.66,0,0,0-.17-.29l-.13-.1a.62.62,0,0,0-.32-.09Z"/><path class="cls-13" d="M189.26,89.54a.65.65,0,0,0,0-1.29.65.65,0,0,0,0,1.29Z"/><path class="cls-13" d="M190.85,89.56a.65.65,0,0,0,0-1.29.65.65,0,0,0,0,1.29Z"/><path class="cls-13" d="M210.5,78.9a.65.65,0,0,0,0-1.29.65.65,0,0,0,0,1.29Z"/><path class="cls-13" d="M210.62,81a.65.65,0,0,0,0-1.29.65.65,0,0,0,0,1.29Z"/><path class="cls-13" d="M210.8,81.74h0c-.83-.08-.82,1.21,0,1.29h0c.82.08.82-1.21,0-1.29h0c-.83-.08-.82,1.21,0,1.29h0c.82.08.82-1.21,0-1.29Z"/><path class="cls-13" d="M210.93,84.88a.65.65,0,0,0,0-1.29.65.65,0,0,0,0,1.29Z"/><path class="cls-13" d="M211,86.67a.65.65,0,0,0,0-1.29.65.65,0,0,0,0,1.29Z"/><path class="cls-13" d="M211.16,88.39a.65.65,0,0,0,0-1.29.65.65,0,0,0,0,1.29Z"/><path class="cls-13" d="M211.23,90.3a.65.65,0,0,0,0-1.29.65.65,0,0,0,0,1.29Z"/><path class="cls-13" d="M211.31,92.08a.65.65,0,0,0,0-1.29.65.65,0,0,0,0,1.29Z"/><path class="cls-13" d="M211.45,94a.65.65,0,0,0,0-1.29.65.65,0,0,0,0,1.29Z"/><path class="cls-13" d="M202.59,87.73a.65.65,0,0,0,0-1.29.65.65,0,0,0,0,1.29Z"/><path class="cls-13" d="M204.07,87.62a.65.65,0,0,0,0-1.29.65.65,0,0,0,0,1.29Z"/><path class="cls-13" d="M205.85,86.25h-.06a.54.54,0,0,0-.25.06.46.46,0,0,0-.2.13.49.49,0,0,0-.14.21.43.43,0,0,0,0,.25l0,.17a.62.62,0,0,0,.17.28l.13.11a.69.69,0,0,0,.32.08h.06a.54.54,0,0,0,.25-.06.54.54,0,0,0,.34-.34.51.51,0,0,0,.06-.25l0-.17a.61.61,0,0,0-.16-.28l-.13-.1a.63.63,0,0,0-.33-.09Z"/><path class="cls-13" d="M208.34,86.88v0c.07-.82-1.22-.82-1.29,0v0c-.08.83,1.21.82,1.29,0v0c.07-.82-1.22-.82-1.29,0v0c-.08.83,1.21.82,1.29,0Z"/><path class="cls-13" d="M210.12,86.8v0c.08-.83-1.21-.82-1.29,0v0c-.08.82,1.21.82,1.29,0v0c.08-.83-1.21-.82-1.29,0v0c-.08.82,1.21.82,1.29,0Z"/><path class="cls-13" d="M213.19,87.06l0,0c.64-.53-.27-1.44-.91-.91l0,0c-.64.53.28,1.44.91.91l0,0c.64-.53-.27-1.44-.91-.91l0,0c-.64.53.28,1.44.91.91Z"/><path class="cls-13" d="M214.34,87.15h.06a.54.54,0,0,0,.25-.06.39.39,0,0,0,.2-.13.49.49,0,0,0,.14-.21.42.42,0,0,0,0-.25l0-.17a.62.62,0,0,0-.17-.28l-.13-.1a.59.59,0,0,0-.32-.09h-.06a.54.54,0,0,0-.25.06.54.54,0,0,0-.34.34.54.54,0,0,0-.06.25l0,.17a.61.61,0,0,0,.16.28l.13.11a.73.73,0,0,0,.33.08Z"/><path class="cls-13" d="M216.31,85.74h-.06a.54.54,0,0,0-.25.06.46.46,0,0,0-.21.13.57.57,0,0,0-.13.21.54.54,0,0,0-.06.25l0,.17a.61.61,0,0,0,.16.28l.13.1a.63.63,0,0,0,.33.09h.06a.54.54,0,0,0,.25-.06.46.46,0,0,0,.21-.13.57.57,0,0,0,.13-.21.43.43,0,0,0,0-.25l0-.17a.61.61,0,0,0-.16-.28l-.14-.1a.59.59,0,0,0-.32-.09Z"/><path class="cls-13" d="M218,86.75a.65.65,0,0,0,0-1.29.65.65,0,0,0,0,1.29Z"/><path class="cls-13" d="M219.58,86.78a.65.65,0,0,0,0-1.29.65.65,0,0,0,0,1.29Z"/></g><g class="cls-33"><path class="cls-1" d="M75.64,248.5a48.86,48.86,0,0,0-2.4,4.87"/><path class="cls-1" d="M62.33,324.1,49.46,337.53"/></g></svg>