<svg id="Layer_1" data-name="Layer 1" xmlns="http://www.w3.org/2000/svg" xmlns:xlink="http://www.w3.org/1999/xlink" viewBox="0 0 264 214"><defs><style>.cls-1,.cls-26,.cls-6,.cls-7,.cls-8,.cls-9{fill:none;}.cls-2{fill:#7541ee;isolation:isolate;opacity:0.2;}.cls-3{fill:#fff;}.cls-4,.cls-5{fill:#121a1a;}.cls-5,.cls-6,.cls-8,.cls-9{stroke:#7d5955;}.cls-26,.cls-5,.cls-6,.cls-8,.cls-9{stroke-miterlimit:10;}.cls-5,.cls-6,.cls-7{stroke-width:1.07px;}.cls-7{stroke:#baad7f;stroke-linejoin:round;}.cls-8{stroke-width:0.94px;}.cls-9{stroke-width:2.15px;}.cls-10{fill:#850000;}.cls-11{fill:#1a170f;}.cls-12{fill:#6e00a2;}.cls-13{fill:#ebd9bc;}.cls-14{fill:#f9efde;}.cls-15{fill:#f7e4c6;}.cls-16{fill:#9e6952;}.cls-17{fill:#1a293f;}.cls-18{opacity:0.54;}.cls-19{fill:#9e7a6a;}.cls-20{fill:#5e3725;}.cls-21{fill:#874e35;}.cls-22{opacity:0.84;}.cls-23{clip-path:url(#clip-path);}.cls-24{fill:#10161c;}.cls-25{fill:#202c38;}.cls-26{stroke:#1a293f;stroke-width:1.01px;}.cls-27{clip-path:url(#clip-path-2);}.cls-28{fill:#a87171;}.cls-29{fill:#0a0f0f;}</style><clipPath id="clip-path"><circle class="cls-1" cx="159.68" cy="71.66" r="2.53"/></clipPath><clipPath id="clip-path-2"><circle class="cls-1" cx="129.34" cy="71.66" r="2.53"/></clipPath></defs><path class="cls-2" d="M75,0H264V217H95Z"/><path class="cls-3" d="M235.74,152.85c-1.14-1.46-4.28-4.72-6.9-5.61-1.82-2.35-16.94-9.7-16.94-9.7h0a106.06,106.06,0,0,0-29.22-8.74c-4.05-.56-8.13-.86-12.22-1.05a21.75,21.75,0,0,1-2.17-.9,3.66,3.66,0,0,0-.79-1.69V114.59l5.57-5.68a6.42,6.42,0,0,0,1.89-4.54l1.26-10.48c.9.19,1.66-.67,2.19-1.43l1.76-2.55a11.42,11.42,0,0,0,2.08-4.11c.17-.84.15-1.7.24-2.55a12,12,0,0,1,1.46-4.34,19.27,19.27,0,0,0,1.5-3.06,2.84,2.84,0,0,0-1-3.57,2.6,2.6,0,0,0-2.74-.38c1.1-1.69.53-4,0-6.06a46,46,0,0,1-1.47-10.1,3.36,3.36,0,0,0,1.36-.65c2.16-3.14.79-11.7,0-19.08-.38-3.74-1.21-8.33-4.77-10.3-3.19-1.77-22.26-1.07-27.8-.48-6.62.71-33.82,2.77-35.59,3.18a5,5,0,0,0-4.23,4.43c-.51,3-.82,15.54-.87,18.76,0,2.37,0,8.34,2.14,9a7.25,7.25,0,0,0,1.77.22c0,.16-.07.3-.08.48-.29,3.25-.34,6.54-.51,9.79a2.61,2.61,0,0,0,0,.74c.25.88,1.38,1.2,1.86,2-.3-.26-.6-.5-.9-.73s-.72-.55-1.07-.78a2.79,2.79,0,0,0-3.52,0,2.85,2.85,0,0,0-1,3.57,20.17,20.17,0,0,0,1.5,3.06A12,12,0,0,1,110,83.25c.1.85.08,1.71.24,2.55a11.6,11.6,0,0,0,2.09,4.11l1.76,2.55c.53.76,1.28,1.63,2.19,1.43a1.2,1.2,0,0,0,.32-.16l.39,8.65a12,12,0,0,0,2.7,6.2l6.86,7v13.15A224.45,224.45,0,0,0,99,132.58h0c-5.11,1.06-15.26,3.88-15.26,3.88s-7.95,2.62-11.85,4.21c-.57,2.44-1,4.91-1.33,7.39-6.19,2.26-12.37,4.67-14.53,6-8.66,5.49-17.24,11.11-26.28,15.94-2.49,1.33-40.26,28.27-44.12,39.88-1.6,4.83-4.14,10.16-1.45,14.47.82,1.3,2,2.36,2.68,3.73,1.6,3.12.39,6.85.05,10.34A20.89,20.89,0,0,0-3.2,258c5.69,3.37,12.79,3.86,18.34,7.46C23.62,271,27.29,282.82,36.85,286c4.85,1.65,10.17.61,15.24,1.3s24.66,11.33,24.08,16.42a25.1,25.1,0,0,0,9.23-8.57c0,.59,0,1.16,0,1.72a15,15,0,0,0,.08,1.52,3.06,3.06,0,0,0,.06.81l.06.12c-.16.61,0,2,.36,1.94-1.69,4.09-4.16,7.83-6.39,11.63-5.9,10-10.12,21.2-11.18,32.8a130.57,130.57,0,0,0-.23,14.54c.16,7.14-3.47,36.06-4.74,41.68,3.61,1,8.2,1,12.89.83q-.59,3.2-1.16,6.4c23.8,1.4,56.86,3.62,80.68,2.63,19.29-.81,38.81-3.16,57.76.5,3.85.75,11.35-2.81,14.88-4.5,2-1-6-50.81-6.86-61.86-.52-6.62-1.11-13.23-1.73-19.85l20.2-9.71A68.74,68.74,0,0,0,251.6,310c8.21-6.1,13.42-15.78,15.06-25.87.8-4.86,4.74-26,4-30.9C265.41,218.2,241.28,159.91,235.74,152.85ZM63.08,241c-2.33-1.23-4.26-3.08-6.4-4.61a27.38,27.38,0,0,0-8.53-4.07,26.7,26.7,0,0,0-6.75-1,18.44,18.44,0,0,1,4.43-3.18c3.73-2,8-3.23,11.63-5.52,3.23-2,11.64-6.81,18-11.21.65,7.56,1.5,14.86,2.63,20.8.64,3.35,1.57,9,2.56,15.77A135.64,135.64,0,0,1,63.08,241Z"/><path class="cls-3" d="M214.78,420.05a13.58,13.58,0,0,1-2.6-.24A114.27,114.27,0,0,0,190.12,418c-7.17,0-14.33.42-21.92.86-4,.23-8.06.46-12,.63s-8.63.26-13.52.26c-19.5,0-42.42-1.37-60.84-2.47l-15.65-.93,1-5.67-4.66-1.05c-.36-.08-.71-.16-1.06-.26l-7.07-1.9L56,400.27c1.2-5.35,4.7-33.58,4.56-39.83A135.13,135.13,0,0,1,60.81,345a80.27,80.27,0,0,1,5.3-21.88l.24-.61,2-17.86L66.07,303c-3.7-2.75-10.87-6.82-14.58-7.93L51,294.9l-.48,0c-1.37-.14-2.9-.15-4.52-.15a35.29,35.29,0,0,1-11.64-1.42c-7.57-2.55-12.08-8.4-16-13.56-2.44-3.16-4.75-6.15-7.35-7.83a32.52,32.52,0,0,0-7.62-3.05,46.93,46.93,0,0,1-10.47-4.25,28.51,28.51,0,0,1-13.6-26.88c.09-.94.24-1.94.39-2.88,0,0,.11-.72.15-1l.29-2.1-1.3-1.67a16.78,16.78,0,0,1-1.12-1.59c-4.3-6.87-1.8-13.95,0-19.12l.09-.23c.18-.53.37-1.06.54-1.58,4.78-14.36,41.1-40,48-44.31,7.44-4,14.49-8.49,22-13.24L52,147.65c1-.67,3.15-1.84,9.23-4.22l2.5-1,.56-2.61c.07-.3.13-.59.2-.88l.89-3.87,3.68-1.5c1.45-.59,3.49-1.34,6-2.24l2.44-.85.07-.25,4.13-1.15c1.81-.5,10.84-3,15.76-4,4.61-1,9.26-1.75,14.19-2.42l9.81-1.34-7.22-7.43a19.21,19.21,0,0,1-4.88-11.26l-.18-4-.94-1.24c-.14-.18-.28-.37-.41-.57l-1.78-2.58a18.54,18.54,0,0,1-3.29-6.94,18.28,18.28,0,0,1-.3-2.61l-.06-1.06-.58-1.13-.3-.53a21.28,21.28,0,0,1-1.68-3.6,10.41,10.41,0,0,1,1.77-10.47l2.06-2.41-1.3-2.89c-1.79-4-1.7-8.8-1.67-11.12.1-6.29.45-16.77,1-19.92A12.66,12.66,0,0,1,111.7,21c1.24-.29,3.38-.51,20.14-1.91,6.35-.52,13.54-1.12,16.38-1.42.06,0,7.55-.76,15.61-.76,11.57,0,15.53,1.5,16.7,2.15,6.68,3.69,8.15,11,8.67,16.21.1,1,.22,2.12.34,3.2.82,7.42,1.59,14.42-.76,19.35l-.67,1.42.26,1.56c.18,1.06.41,2.11.68,3.14l0,.09c.1.38.22.83.33,1.34l.3,1.29.9,1a10.37,10.37,0,0,1,2,10.77A20.79,20.79,0,0,1,191,81.91l-.42.76-.48.94L190,84.69a18.28,18.28,0,0,1-.3,2.61,18.44,18.44,0,0,1-3.29,7l-1.76,2.55c-.17.24-.33.47-.49.68l-.85,1.09-.76,6.33v.18a13.94,13.94,0,0,1-3,8L174.09,120l9.63,1.25a111.9,111.9,0,0,1,28.74,8.21l9.81,4.77a79.26,79.26,0,0,1,10.61,6.34l.32.25.36.2a29.75,29.75,0,0,1,8.18,7.12l.06.07c3.13,4.06,10.62,19.91,19,42.55,8.85,24,15.21,46.37,17.46,61.29.59,4-.32,11.86-3.49,30.19l-.16.89c-.15.91-.28,1.65-.37,2.2-2.05,12.55-8.63,23.76-18.05,30.76a76.25,76.25,0,0,1-12.69,7.18L228,330.68l.31,3.45c.35,4,.66,7.68.94,11.23.3,3.75,1.56,13,2.79,21.89,1.2,8.75,2.56,18.68,3.44,26.37,1.58,13.82,1.64,18.5-3.66,21.07C226,417.47,219.9,420.05,214.78,420.05Z"/><path class="cls-1" d="M121.72,16.6a4.17,4.17,0,0,0-.35,1.43"/><path class="cls-4" d="M82.85,205.19c-3.32,4.8-20.45,14.32-25.39,17.44-3.62,2.29-7.9,3.5-11.63,5.52a18.44,18.44,0,0,0-4.43,3.18,26.7,26.7,0,0,1,6.75,1,27.38,27.38,0,0,1,8.53,4.07c2.14,1.53,4.07,3.38,6.39,4.61s19.28,8.67,21.6,7.43c4.14,7.88,8.38,16.16,8.33,25.07,0,6.32-2.27,12.47-5.34,18-2.76,5-6.4,9.69-11.49,12.23.58-5.09-19-15.74-24.08-16.42s-10.39.35-15.24-1.3c-9.56-3.22-13.23-15.09-21.71-20.56C9.59,261.88,2.49,261.39-3.2,258a20.89,20.89,0,0,1-9.89-19.56c.34-3.49,1.55-7.22-.05-10.34-.7-1.37-1.86-2.43-2.68-3.73-2.69-4.31-.15-9.64,1.45-14.47,3.86-11.61,41.63-38.55,44.12-39.88,9-4.83,17.62-10.45,26.28-15.94,4.28-2.71,24.25-9.48,29.05-11.12l-4,5.74C74.68,165.86,93.26,190.13,82.85,205.19Z"/><path class="cls-4" d="M98.31,312.09c-6.83-2.75-12.82-7-12.88-15.18-.14-19.1-5.24-53.88-7.31-64.69-3.78-19.84-4.43-54.82-4.9-64S75,148.8,82.6,143.68c6.39-4.29,13.75-5.42,19.3-5.93,10.86-1,15.59-.14,21.54-3.24-3.81,4.4-2.18,2.89-3,7.89-.46,2.89.65,6.34.8,9.27.42,7.84-.11,15.18.31,23l-.06-2.64a10.72,10.72,0,0,0-.09,4.44,60.34,60.34,0,0,1,.75-17.07,7.32,7.32,0,0,1,1.48-3.72c1.13-1.24,2.89-1.63,4.54-2l8.21-1.61a12.25,12.25,0,0,1,4.58-.31c3.4.65,6.23,4.14,9.6,3.39,1.31-11.24,15.35-17.32,17.57-28.41,10.66,5.39,59.57,11,61.91,22.93,1.09,5.54,2.18,15.91-1,22.49-10.3,21.5-6.44,84.58-4,108.31.61,6,1.26,13.7-2.53,18.92-6.08,8.39-18.56,13.6-27.91,15.69-13.58,3-26.5,3.89-40.47,5.06a122,122,0,0,1-45.59-4.73C105.38,314.5,101.74,313.48,98.31,312.09Z"/><path class="cls-5" d="M220.09,141.63a221,221,0,0,1-2.3,45.46c-1.67,10.71-4.12,21.3-5.38,32.06s-1.49,21.65,1.64,32a144.37,144.37,0,0,0-44.11-7.61c-7-.07-14.08.43-21.1.92l-16,1.13c-5.76.4-11.53.81-17.25,1.65a135.87,135.87,0,0,0-28.33,7.35C90.9,243.85,89.42,232,86.62,221a146.3,146.3,0,0,0-7-20.79c-1.36-3.22-2.83-6.39-4.1-9.64a85.32,85.32,0,0,1-3.65-49.94c25.86-10.5,53.71-12.68,81.62-13.1,9.73-.15,19.5-.11,29.14,1.23A110.9,110.9,0,0,1,220.09,141.63Z"/><path class="cls-6" d="M99,132.58a73.67,73.67,0,0,0,2.75,45.06c1.32,3.34,2.87,6.57,4.22,9.89,5.89,14.56,7.59,30.47,8,46.17"/><path class="cls-6" d="M97.06,238.38a156.58,156.58,0,0,1,14.73-14.64A45.53,45.53,0,0,1,97.4,213.36c3-6.31,5.95-12.29,10.45-17.67a28.29,28.29,0,0,1-19-7.67c1-6.44,4.69-12.1,8.42-17.44a37.22,37.22,0,0,1-14.82-7.09A53.52,53.52,0,0,1,94.61,150.2a37.07,37.07,0,0,1-11-12.38"/><path class="cls-7" d="M82.84,140.09a83,83,0,0,0-10.5,6.55l9.08,4.94A56.25,56.25,0,0,0,72,158a28.93,28.93,0,0,0,9.33,2.22q-4.49,3.67-9.1,7.16a96,96,0,0,0,10.61,3.18c-1.81,1.17-8,5.2-9,6.37,3.22.18,10.21.82,10.36,1s-4.88,6.31-6.53,9.32q5.06-.31,10.1-.74a27.57,27.57,0,0,0-6.84,9.57,103.2,103.2,0,0,1,10.84-.2A57.37,57.37,0,0,0,84.12,204a61.12,61.12,0,0,0,10.7,1.23,58.1,58.1,0,0,0-8,9.57q5.32.82,10.7,1.29c-2.43,2.65-4.9,5-7.33,7.66,2.89,1.39,5.46,2.28,8.12,3.75-2.9,2.19-4.92,3.32-7.78,5.53a24.8,24.8,0,0,0,7,3.11,30.89,30.89,0,0,0-8.05,8.31"/><path class="cls-7" d="M211.64,236.51c-1.12-2.41-2.08-3.76-4.49-4.88a7.89,7.89,0,0,0,3-1,3.33,3.33,0,0,0,2-2.75,3.75,3.75,0,0,0-.52-1.81,8.4,8.4,0,0,0-5.47-4.58,7.94,7.94,0,0,0,3.31.38,3.47,3.47,0,0,0,2.94-2.09c.54-1.56-.56-3.25-1.95-4.15s-2.71-1.12-4.16-1.9a6.76,6.76,0,0,0,6.37-2,2.28,2.28,0,0,0,.84-1.75,2.57,2.57,0,0,0-1-1.49,20.77,20.77,0,0,0-5.38-3.17c2.4-.61,3.89-.69,5.81-1.61,1.34-.64,2.69-1.87,2.45-3.33a3.82,3.82,0,0,0-1.54-2.11,15.24,15.24,0,0,0-5.16-2.63c2.58.71,5.71.36,7.21-1.86,1.08-1.6.47-3.88-.85-5.28a11.23,11.23,0,0,0-4.63-2.69c3.16-.92,5.1-1.51,7.38-3.12a1.59,1.59,0,0,0,.64-1.15,2.06,2.06,0,0,0-.46-1.24,16.35,16.35,0,0,0-5.83-5.74,24,24,0,0,0,4.15-1.45,5.09,5.09,0,0,0,2.28-1.47c1.14-1.5.42-3.8-1-5a10.08,10.08,0,0,0-4.91-2,31.17,31.17,0,0,0,4.53-1.64c1.57-.7,3.06-2.1,3-3.82a4.63,4.63,0,0,0-1.35-2.82,9.84,9.84,0,0,0-5.87-3.5,8.31,8.31,0,0,0,4.16-1.05c1.4-.76,3-1.83,2.78-3.4a4.56,4.56,0,0,0-2.13-2.72c-1.91-1.42-3.39-2.46-5.32-3.85a29.45,29.45,0,0,0,4.68-1.59"/><path class="cls-8" d="M211.9,137.54c.71,13.3,1.34,29-.7,42.2-1.46,9.39-3.61,18.68-4.71,28.12s-1.31,19,1.43,28.08a126.42,126.42,0,0,0-38.67-6.68c-6.17-.06-12.34.38-18.5.81l-14,1c-5,.35-10.11.71-15.12,1.45A119.27,119.27,0,0,0,96.8,239c3.15-9.44,1.85-19.79-.6-29.44a128.4,128.4,0,0,0-6.12-18.23c-1.19-2.82-2.48-5.6-3.6-8.45-5.41-13.83-6.08-31.9-2.74-46.37"/><path class="cls-9" d="M220.09,141.63a221,221,0,0,1-2.3,45.46c-1.67,10.71-4.12,21.3-5.38,32.06s-1.49,21.65,1.64,32a144.37,144.37,0,0,0-44.11-7.61c-7-.07-14.08.43-21.1.92l-16,1.13c-5.76.4-11.53.81-17.25,1.65a135.87,135.87,0,0,0-28.33,7.35C90.9,243.85,89.42,232,86.62,221a146.3,146.3,0,0,0-7-20.79c-1.36-3.22-2.83-6.39-4.1-9.64a85.32,85.32,0,0,1-3.65-49.94c25.86-10.5,53.71-12.68,81.62-13.1,9.73-.15,19.5-.11,29.14,1.23A110.9,110.9,0,0,1,220.09,141.63Z"/><path class="cls-10" d="M104,147.25l1.87,21.95a5.62,5.62,0,0,0,.73,2.77c1.15,1.68,3.61,1.62,5.64,1.42a166.37,166.37,0,0,1,29.1-.39c2.19.16,4.71.25,6.24-1.33,1.34-1.41,1.37-3.58,1.31-5.53-.24-8.16-.49-16.4-2.45-24.34a6.23,6.23,0,0,0-1.75-3.48,6.55,6.55,0,0,0-3.83-1.08l-16.37-1.14c-4.85-.34-10.79-.71-15.6.36S103.68,143,104,147.25Z"/><path class="cls-11" d="M109.68,152.7a4.76,4.76,0,0,0-1.31,3.35,4.62,4.62,0,0,0,1.15,2.11,56.55,56.55,0,0,0,13,11.76,9.37,9.37,0,0,0,5.11,2c2.12,0,4-1.38,5.61-2.73a67.79,67.79,0,0,0,10.06-10.33,3.47,3.47,0,0,0-.26-5.43c-2.93-3.48-6.11-6.73-9.35-9.91-2.22-2.19-5.65-7-9.19-6.76-3,.24-5,3.88-6.72,5.9C115,145.93,112.25,149.22,109.68,152.7Z"/><path class="cls-11" d="M117.23,140.32a1.21,1.21,0,0,0,.48-.87c0-.4-.48-.63-.86-.77a17.84,17.84,0,0,0-6.79-1.1,4.14,4.14,0,0,0-2.12.49c-1.21.76-1.47,2.38-1.57,3.8a63.81,63.81,0,0,0,.11,10,1.36,1.36,0,0,0,.8,1.26c1.63-2.11,2.86-4.55,4.51-6.68A56.17,56.17,0,0,1,117.23,140.32Z"/><path class="cls-11" d="M120.63,170.54c.37.26.8.64.69,1.09s-.82.6-1.35.57l-7.72-.44a6.27,6.27,0,0,1-3.7-1c-1.35-1.1-1.54-3.06-1.63-4.8,0-1.15-.94-5.54.14-6.28s3,2.29,3.73,3A65.06,65.06,0,0,0,120.63,170.54Z"/><path class="cls-11" d="M142.45,171.29a4.54,4.54,0,0,0,1.82-.51,4.61,4.61,0,0,0,1.72-2.87c.36-1.28.67-2.58.92-3.88a8.93,8.93,0,0,0,0-4.84,1,1,0,0,0-.34-.51c-.43-.26-.95.15-1.28.53a125.39,125.39,0,0,1-9.76,10.32c-.82.77-1.81,1.46-.58,2.06C136.94,172.6,140.31,171,142.45,171.29Z"/><path class="cls-11" d="M144.5,153.3a1.58,1.58,0,0,0,1,.63c.77,0,1.07-1,1.09-1.75a48.35,48.35,0,0,0-1.33-10.41c-.28-1.37-.71-2.94-2-3.52a4.53,4.53,0,0,0-2-.23c-2.44.1-5,.07-7.41.24a1.28,1.28,0,0,0-1,1.93c1.18,2,3.41,3.77,4.74,5.28C139.86,148.09,142.26,150.63,144.5,153.3Z"/><path class="cls-12" d="M126,141.64a1.09,1.09,0,0,0,0-2.17,1.09,1.09,0,0,0,0,2.17Z"/><path class="cls-12" d="M126.07,145.16a1.09,1.09,0,0,0,0-2.17,1.09,1.09,0,0,0,0,2.17Z"/><path class="cls-12" d="M126.29,146.43h-.07a1.09,1.09,0,0,0-1.08,1.08,1.11,1.11,0,0,0,1.08,1.09h.07a1.09,1.09,0,0,0,1.08-1.09,1.11,1.11,0,0,0-1.08-1.08h-.07a1.09,1.09,0,0,0-1.08,1.08,1.11,1.11,0,0,0,1.08,1.09h.07a1.09,1.09,0,0,0,1.08-1.09,1.11,1.11,0,0,0-1.08-1.08Z"/><path class="cls-12" d="M126.44,151.71a1.09,1.09,0,0,0,0-2.17,1.09,1.09,0,0,0,0,2.17Z"/><path class="cls-12" d="M126.5,154.71a1.08,1.08,0,0,0,0-2.16,1.08,1.08,0,0,0,0,2.16Z"/><path class="cls-12" d="M126.67,157.63a1.09,1.09,0,0,0,0-2.17,1.09,1.09,0,0,0,0,2.17Z"/><path class="cls-12" d="M126.7,160.83a1.09,1.09,0,0,0,0-2.17,1.09,1.09,0,0,0,0,2.17Z"/><path class="cls-12" d="M126.76,163.84a1.09,1.09,0,0,0,0-2.17,1.09,1.09,0,0,0,0,2.17Z"/><path class="cls-12" d="M126.9,167.05a1.09,1.09,0,0,0,0-2.17,1.09,1.09,0,0,0,0,2.17Z"/><path class="cls-12" d="M112.28,156.14a1.09,1.09,0,0,0,0-2.17,1.09,1.09,0,0,0,0,2.17Z"/><path class="cls-12" d="M114.77,156a1.09,1.09,0,0,0,0-2.17,1.09,1.09,0,0,0,0,2.17Z"/><path class="cls-12" d="M117.78,153.79h-.11a1.15,1.15,0,0,0-.76.32.79.79,0,0,0-.23.34.86.86,0,0,0-.09.42l0,.29a1.07,1.07,0,0,0,.28.48l.22.17a1,1,0,0,0,.54.15h.11a.91.91,0,0,0,.41-.09.77.77,0,0,0,.35-.23.82.82,0,0,0,.23-.35.76.76,0,0,0,.09-.42l0-.28a1,1,0,0,0-.28-.48l-.22-.17a1,1,0,0,0-.54-.15Z"/><path class="cls-12" d="M122,154.93v-.06a1.09,1.09,0,0,0-1.08-1.09,1.11,1.11,0,0,0-1.09,1.09v.06a1.1,1.1,0,0,0,1.09,1.08,1.11,1.11,0,0,0,1.08-1.08v-.06a1.09,1.09,0,0,0-1.08-1.09,1.11,1.11,0,0,0-1.09,1.09v.06a1.1,1.1,0,0,0,1.09,1.08,1.11,1.11,0,0,0,1.08-1.08Z"/><path class="cls-12" d="M125,154.87v-.06a1.08,1.08,0,0,0-1.08-1.09,1.11,1.11,0,0,0-1.09,1.09v.06a1.08,1.08,0,0,0,1.08,1.08,1.12,1.12,0,0,0,1.09-1.08v-.06a1.08,1.08,0,0,0-1.08-1.09,1.11,1.11,0,0,0-1.09,1.09v.06a1.08,1.08,0,0,0,1.08,1.08,1.12,1.12,0,0,0,1.09-1.08Z"/><path class="cls-12" d="M130.13,155.46l.06,0a1.1,1.1,0,0,0,0-1.54,1.13,1.13,0,0,0-1.54,0l-.05,0a1.1,1.1,0,0,0,0,1.54,1.12,1.12,0,0,0,1.53,0l.06,0a1.1,1.1,0,0,0,0-1.54,1.13,1.13,0,0,0-1.54,0l-.05,0a1.1,1.1,0,0,0,0,1.54,1.12,1.12,0,0,0,1.53,0Z"/><path class="cls-12" d="M132.06,155.68h.1a.76.76,0,0,0,.42-.09.8.8,0,0,0,.35-.22.89.89,0,0,0,.23-.35,1,1,0,0,0,.09-.42l0-.29a1.07,1.07,0,0,0-.28-.48l-.22-.17a1.06,1.06,0,0,0-.55-.15h-.1a.87.87,0,0,0-.42.1.69.69,0,0,0-.34.22.82.82,0,0,0-.23.35.76.76,0,0,0-.09.42l0,.28a1,1,0,0,0,.28.48l.22.17a1,1,0,0,0,.54.15Z"/><path class="cls-12" d="M135.38,153.39h-.1a.76.76,0,0,0-.42.09.93.93,0,0,0-.57.57.76.76,0,0,0-.09.42l0,.29a1.29,1.29,0,0,0,.28.48l.22.17a1.15,1.15,0,0,0,.55.14l.1,0a1.14,1.14,0,0,0,1.09-1.09l0-.29a1.17,1.17,0,0,0-.28-.48l-.22-.16a1.06,1.06,0,0,0-.55-.15Z"/><path class="cls-12" d="M138.22,155.17a1.09,1.09,0,0,0,0-2.17,1.09,1.09,0,0,0,0,2.17Z"/><path class="cls-12" d="M140.89,155.28a1.09,1.09,0,0,0,0-2.17,1.09,1.09,0,0,0,0,2.17Z"/><path class="cls-10" d="M157,147.41l1.86,22a5.72,5.72,0,0,0,.73,2.77c1.15,1.68,3.61,1.62,5.64,1.42a166.38,166.38,0,0,1,29.1-.39c2.19.16,4.71.25,6.24-1.33,1.35-1.41,1.37-3.58,1.31-5.52-.24-8.17-.49-16.41-2.44-24.35a6.25,6.25,0,0,0-1.76-3.48,6.55,6.55,0,0,0-3.83-1.08l-16.37-1.14c-4.85-.34-10.79-.71-15.6.36S156.66,143.2,157,147.41Z"/><path class="cls-11" d="M162.66,152.86a4.82,4.82,0,0,0-1.31,3.35,4.62,4.62,0,0,0,1.15,2.11,56.55,56.55,0,0,0,13,11.76,9.37,9.37,0,0,0,5.12,1.95c2.12,0,4-1.38,5.6-2.73A67.79,67.79,0,0,0,196.31,159a4.55,4.55,0,0,0,1.18-2.39,4.61,4.61,0,0,0-1.44-3c-2.92-3.48-6.11-6.73-9.35-9.91-2.22-2.19-5.65-7-9.19-6.76-2.95.24-5,3.88-6.72,5.9C168,146.09,165.23,149.38,162.66,152.86Z"/><path class="cls-11" d="M170.21,140.48a1.21,1.21,0,0,0,.48-.87c-.05-.4-.48-.62-.86-.76a17.84,17.84,0,0,0-6.79-1.11,4.17,4.17,0,0,0-2.12.49c-1.2.76-1.47,2.38-1.57,3.81a63.7,63.7,0,0,0,.12,10,1.33,1.33,0,0,0,.8,1.26c1.62-2.11,2.85-4.55,4.5-6.68A56.17,56.17,0,0,1,170.21,140.48Z"/><path class="cls-11" d="M173.61,170.7c.38.26.8.64.7,1.09s-.82.6-1.36.57l-7.72-.44a6.22,6.22,0,0,1-3.69-1c-1.36-1.1-1.55-3.06-1.63-4.8-.06-1.15-.94-5.54.13-6.28s3,2.3,3.73,3A65.06,65.06,0,0,0,173.61,170.7Z"/><path class="cls-11" d="M195.43,171.45a4.8,4.8,0,0,0,1.83-.5,4.63,4.63,0,0,0,1.71-2.88c.36-1.28.67-2.58.92-3.88a8.84,8.84,0,0,0,0-4.84,1,1,0,0,0-.34-.51c-.43-.26-.95.15-1.28.53a125.42,125.42,0,0,1-9.76,10.33c-.82.76-1.8,1.45-.58,2.05C189.92,172.76,193.29,171.2,195.43,171.45Z"/><path class="cls-11" d="M197.48,153.46a1.54,1.54,0,0,0,1,.63c.77,0,1.07-1,1.08-1.75a47.57,47.57,0,0,0-1.33-10.4c-.28-1.38-.7-2.95-2-3.52a4.6,4.6,0,0,0-2-.24c-2.44.1-5,.07-7.41.24a1.29,1.29,0,0,0-1,1.93c1.18,2,3.41,3.77,4.74,5.29C192.84,148.25,195.24,150.79,197.48,153.46Z"/><path class="cls-12" d="M179,141.8a1.09,1.09,0,0,0,0-2.17,1.09,1.09,0,0,0,0,2.17Z"/><path class="cls-12" d="M179.06,145.32a1.09,1.09,0,0,0,0-2.17,1.09,1.09,0,0,0,0,2.17Z"/><path class="cls-12" d="M179.27,146.59h-.06a1.09,1.09,0,0,0-1.09,1.09,1.11,1.11,0,0,0,1.09,1.08h.06a1.09,1.09,0,0,0,1.08-1.09,1.11,1.11,0,0,0-1.08-1.08h-.06a1.09,1.09,0,0,0-1.09,1.09,1.11,1.11,0,0,0,1.09,1.08h.06a1.09,1.09,0,0,0,1.08-1.09,1.11,1.11,0,0,0-1.08-1.08Z"/><path class="cls-12" d="M179.42,151.87a1.09,1.09,0,0,0,0-2.17,1.09,1.09,0,0,0,0,2.17Z"/><path class="cls-12" d="M179.48,154.88a1.09,1.09,0,0,0,0-2.17,1.09,1.09,0,0,0,0,2.17Z"/><path class="cls-12" d="M179.65,157.79a1.09,1.09,0,0,0,0-2.17,1.09,1.09,0,0,0,0,2.17Z"/><path class="cls-12" d="M179.69,161a1.09,1.09,0,0,0,0-2.17,1.09,1.09,0,0,0,0,2.17Z"/><path class="cls-12" d="M179.75,164a1.09,1.09,0,0,0,0-2.17,1.09,1.09,0,0,0,0,2.17Z"/><path class="cls-12" d="M179.88,167.21a1.08,1.08,0,0,0,0-2.16,1.08,1.08,0,0,0,0,2.16Z"/><path class="cls-12" d="M165.26,156.3a1.09,1.09,0,0,0,0-2.17,1.09,1.09,0,0,0,0,2.17Z"/><path class="cls-12" d="M167.76,156.18a1.09,1.09,0,0,0,0-2.17,1.09,1.09,0,0,0,0,2.17Z"/><path class="cls-12" d="M170.76,154h-.1a.76.76,0,0,0-.42.09.82.82,0,0,0-.35.23.68.68,0,0,0-.22.35.8.8,0,0,0-.1.41l0,.29a1.11,1.11,0,0,0,.28.48l.22.17a1.06,1.06,0,0,0,.55.15h.1a.86.86,0,0,0,.42-.09.89.89,0,0,0,.35-.23.8.8,0,0,0,.22-.35.75.75,0,0,0,.09-.41l0-.29a1,1,0,0,0-.27-.48l-.22-.17a1.08,1.08,0,0,0-.55-.15Z"/><path class="cls-12" d="M174.94,155.09V155a1.08,1.08,0,0,0-1.08-1.09,1.11,1.11,0,0,0-1.09,1.09v.06a1.08,1.08,0,0,0,1.08,1.08,1.12,1.12,0,0,0,1.09-1.08V155a1.08,1.08,0,0,0-1.08-1.09,1.11,1.11,0,0,0-1.09,1.09v.06a1.08,1.08,0,0,0,1.08,1.08,1.12,1.12,0,0,0,1.09-1.08Z"/><path class="cls-12" d="M177.94,155V155a1.09,1.09,0,0,0-1.08-1.09,1.1,1.1,0,0,0-1.08,1.09V155a1.1,1.1,0,0,0,1.08,1.09,1.11,1.11,0,0,0,1.09-1.09V155a1.09,1.09,0,0,0-1.08-1.09,1.1,1.1,0,0,0-1.08,1.09V155a1.1,1.1,0,0,0,1.08,1.09,1.11,1.11,0,0,0,1.09-1.09Z"/><path class="cls-12" d="M183.11,155.62l.06,0a1.1,1.1,0,0,0,0-1.54,1.13,1.13,0,0,0-1.54,0l0,.05a1.09,1.09,0,0,0,0,1.53,1.12,1.12,0,0,0,1.53,0l.06,0a1.1,1.1,0,0,0,0-1.54,1.13,1.13,0,0,0-1.54,0l0,.05a1.09,1.09,0,0,0,0,1.53,1.12,1.12,0,0,0,1.53,0Z"/><path class="cls-12" d="M185,155.84h.11a.71.71,0,0,0,.41-.09.75.75,0,0,0,.35-.22.89.89,0,0,0,.23-.35.76.76,0,0,0,.09-.42l0-.29a1.07,1.07,0,0,0-.28-.48l-.22-.17a1.15,1.15,0,0,0-.54-.15H185a.86.86,0,0,0-.41.1.72.72,0,0,0-.35.22.89.89,0,0,0-.23.35.86.86,0,0,0-.09.42l0,.29a1,1,0,0,0,.28.47l.22.17a1,1,0,0,0,.54.15Z"/><path class="cls-12" d="M188.36,153.55h-.1a.76.76,0,0,0-.42.09.77.77,0,0,0-.34.22.89.89,0,0,0-.23.35.76.76,0,0,0-.09.42l0,.29a1.07,1.07,0,0,0,.28.48l.22.17a1.12,1.12,0,0,0,.54.15h.1a.87.87,0,0,0,.42-.1.72.72,0,0,0,.35-.22.89.89,0,0,0,.23-.35,1,1,0,0,0,.09-.42l0-.29a1,1,0,0,0-.28-.47l-.22-.17a1.06,1.06,0,0,0-.55-.15Z"/><path class="cls-12" d="M191.2,155.33a1.09,1.09,0,0,0,0-2.17,1.09,1.09,0,0,0,0,2.17Z"/><path class="cls-12" d="M193.87,155.44a1.09,1.09,0,0,0,0-2.17,1.09,1.09,0,0,0,0,2.17Z"/><path class="cls-10" d="M111.83,191.81l3.9,20.06a5.25,5.25,0,0,0,.94,2.48c1.23,1.44,3.49,1.14,5.35.75a154.87,154.87,0,0,1,26.8-3.24c2-.07,4.38-.23,5.63-1.85,1.1-1.43.91-3.43.66-5.22-1-7.51-2.08-15.09-4.67-22.22a5.83,5.83,0,0,0-2-3,6.25,6.25,0,0,0-3.64-.62l-15.22.58c-4.51.16-10,.41-14.36,1.87S111.08,188,111.83,191.81Z"/><path class="cls-11" d="M117.57,196.27a4.49,4.49,0,0,0-.87,3.23,4.25,4.25,0,0,0,1.27,1.83,52.72,52.72,0,0,0,13.19,9.56,8.75,8.75,0,0,0,4.91,1.29c2-.25,3.53-1.67,4.9-3.08a63,63,0,0,0,8.25-10.52,4.24,4.24,0,0,0,.86-2.33,4.3,4.3,0,0,0-1.63-2.66c-3-2.92-6.3-5.6-9.61-8.22-2.27-1.8-5.91-5.93-9.14-5.32-2.71.51-4.26,4.08-5.62,6.11C121.84,189.49,119.6,192.8,117.57,196.27Z"/><path class="cls-11" d="M123.31,184.1a1.07,1.07,0,0,0,.36-.85c-.08-.36-.5-.53-.87-.62a16.67,16.67,0,0,0-6.37-.35,4,4,0,0,0-1.91.67c-1,.82-1.12,2.34-1.07,3.66a59.11,59.11,0,0,0,1.09,9.19,1.25,1.25,0,0,0,.87,1.08c1.29-2.11,2.18-4.48,3.49-6.61A53.61,53.61,0,0,1,123.31,184.1Z"/><path class="cls-11" d="M129.44,211.65c.38.2.81.51.75.93s-.69.64-1.19.66l-7.17.36a5.79,5.79,0,0,1-3.5-.56c-1.36-.88-1.73-2.67-2-4.27-.17-1-1.42-5-.5-5.8s3,1.82,3.74,2.45A60.81,60.81,0,0,0,129.44,211.65Z"/><path class="cls-11" d="M149.65,210.17a4.07,4.07,0,0,0,1.63-.64,4.29,4.29,0,0,0,1.3-2.83c.21-1.21.36-2.44.47-3.67a8.19,8.19,0,0,0-.52-4.45.87.87,0,0,0-.36-.44c-.43-.2-.86.23-1.13.62a118.24,118.24,0,0,1-8,10.49c-.69.78-1.53,1.51-.33,1.95C144.69,211.93,147.65,210.15,149.65,210.17Z"/><path class="cls-11" d="M149.76,193.37a1.43,1.43,0,0,0,1,.49c.71-.05.89-1,.83-1.72a45,45,0,0,0-2.26-9.47c-.39-1.24-.94-2.65-2.18-3a4.11,4.11,0,0,0-1.88,0c-2.25.33-4.57.55-6.82,1a1.2,1.2,0,0,0-.74,1.88c1.29,1.69,3.52,3.14,4.91,4.4C145,189,147.43,191.13,149.76,193.37Z"/><path class="cls-12" d="M131.4,184.46a1,1,0,0,0,0-2,1,1,0,0,0,0,2Z"/><path class="cls-12" d="M131.85,187.7a1,1,0,0,0,0-2,1,1,0,0,0,0,2Z"/><path class="cls-12" d="M132.38,188.83h0a1,1,0,0,0,0,2h0a1,1,0,0,0,0-2h0a1,1,0,0,0,0,2h0a1,1,0,0,0,0-2Z"/><path class="cls-12" d="M132.83,193.71a1,1,0,0,0,0-2,1,1,0,0,0,0,2Z"/><path class="cls-12" d="M133.18,196.47a1,1,0,0,0,0-2,1,1,0,0,0,0,2Z"/><path class="cls-12" d="M133.63,199.14a1,1,0,0,0,0-2,1,1,0,0,0,0,2Z"/><path class="cls-12" d="M134,202.09a1,1,0,0,0,0-2,1,1,0,0,0,0,2Z"/><path class="cls-12" d="M134.33,204.86a1,1,0,0,0,0-2,1,1,0,0,0,0,2Z"/><path class="cls-12" d="M134.78,207.81a1,1,0,0,0,0-2,1,1,0,0,0,0,2Z"/><path class="cls-12" d="M120.21,199.19a1,1,0,0,0,0-2,1,1,0,0,0,0,2Z"/><path class="cls-12" d="M122.5,198.83a1,1,0,0,0,0-2,1,1,0,0,0,0,2Z"/><path class="cls-12" d="M125.26,196.47h-.09a.74.74,0,0,0-.39.08.89.89,0,0,0-.33.21.79.79,0,0,0-.2.33.65.65,0,0,0-.09.38l0,.27a1,1,0,0,0,.25.45l.21.15a1,1,0,0,0,.51.14h.09a.74.74,0,0,0,.39-.08.85.85,0,0,0,.32-.21.72.72,0,0,0,.21-.33.85.85,0,0,0,.09-.38l0-.27a1,1,0,0,0-.26-.45l-.2-.15a1,1,0,0,0-.51-.14Z"/><path class="cls-12" d="M129.13,197.22v-.06a1,1,0,0,0-2,0v.06a1,1,0,0,0,2,0v-.06a1,1,0,0,0-2,0v.06a1,1,0,0,0,2,0Z"/><path class="cls-12" d="M131.89,196.87v-.06a1,1,0,0,0-2,0v.06a1,1,0,0,0,2,0v-.06a1,1,0,0,0-2,0v.06a1,1,0,0,0,2,0Z"/><path class="cls-12" d="M136.65,196.87l0,0c.93-.91-.49-2.33-1.42-1.43l-.05,0c-.92.9.5,2.33,1.43,1.42l0,0c.93-.91-.49-2.33-1.42-1.43l-.05,0c-.92.9.5,2.33,1.43,1.42Z"/><path class="cls-12" d="M138.41,196.81h.1a.66.66,0,0,0,.39-.09.83.83,0,0,0,.32-.2.72.72,0,0,0,.21-.33.86.86,0,0,0,.09-.39l0-.26a1,1,0,0,0-.26-.45l-.2-.15a.94.94,0,0,0-.51-.14h-.1a1.09,1.09,0,0,0-.71.29.81.81,0,0,0-.21.33.73.73,0,0,0-.08.38l0,.27a1.13,1.13,0,0,0,.26.45l.21.15a1,1,0,0,0,.5.14Z"/><path class="cls-12" d="M141.46,194.35h-.09a.86.86,0,0,0-.39.09.94.94,0,0,0-.53.53.86.86,0,0,0-.09.39l0,.27a1,1,0,0,0,.26.44l.2.16a1,1,0,0,0,.51.13h.09a.86.86,0,0,0,.39-.09.72.72,0,0,0,.33-.21.83.83,0,0,0,.2-.32.66.66,0,0,0,.09-.39l0-.27a1,1,0,0,0-.26-.44l-.21-.16a1,1,0,0,0-.51-.14Z"/><path class="cls-12" d="M144,195.73a1,1,0,0,0,0-2,1,1,0,0,0,0,2Z"/><path class="cls-12" d="M146.52,195.56a1,1,0,0,0,0-2,1,1,0,0,0,0,2Z"/><path class="cls-10" d="M160.54,189.72l1,20.41a5.17,5.17,0,0,0,.58,2.59c1,1.61,3.29,1.63,5.18,1.51a155.1,155.1,0,0,1,27,.62c2,.22,4.36.39,5.83-1,1.29-1.25,1.39-3.27,1.4-5.08.05-7.58.1-15.23-1.45-22.65a5.83,5.83,0,0,0-1.51-3.29,6.13,6.13,0,0,0-3.52-1.13l-15.14-1.61c-4.49-.47-10-1-14.48-.19S160.35,185.8,160.54,189.72Z"/><path class="cls-11" d="M165.59,195a4.43,4.43,0,0,0-1.32,3.06,4.24,4.24,0,0,0,1,2A52.62,52.62,0,0,0,177,211.36a8.75,8.75,0,0,0,4.68,2c2,0,3.73-1.14,5.29-2.34a63.1,63.1,0,0,0,9.67-9.24,4.21,4.21,0,0,0,1.17-2.18,4.27,4.27,0,0,0-1.22-2.87c-2.6-3.32-5.44-6.44-8.34-9.51-2-2.1-5-6.71-8.29-6.57-2.75.12-4.8,3.43-6.44,5.25C170.79,188.86,168.1,191.82,165.59,195Z"/><path class="cls-11" d="M173,183.73a1.06,1.06,0,0,0,.47-.79c0-.37-.42-.59-.76-.74a16.81,16.81,0,0,0-6.27-1.25,3.93,3.93,0,0,0-2,.39c-1.14.66-1.44,2.15-1.58,3.47a58.2,58.2,0,0,0-.23,9.24,1.25,1.25,0,0,0,.7,1.2c1.58-1.9,2.8-4.13,4.4-6A53.29,53.29,0,0,1,173,183.73Z"/><path class="cls-11" d="M175.15,211.87c.34.26.72.62.61,1s-.78.53-1.28.49l-7.14-.67a5.88,5.88,0,0,1-3.4-1.05c-1.21-1.07-1.33-2.89-1.35-4.51,0-1.06-.68-5.16.34-5.82s2.7,2.23,3.36,3A60.45,60.45,0,0,0,175.15,211.87Z"/><path class="cls-11" d="M195.36,213.3a4.17,4.17,0,0,0,1.71-.41,4.24,4.24,0,0,0,1.68-2.61q.57-1.75,1-3.57a8.33,8.33,0,0,0,.13-4.48.88.88,0,0,0-.31-.48c-.38-.27-.88.1-1.2.44a117.17,117.17,0,0,1-9.4,9.25c-.79.68-1.72,1.28-.6,1.89C190.2,214.32,193.38,213,195.36,213.3Z"/><path class="cls-11" d="M197.87,196.68a1.37,1.37,0,0,0,.88.62c.71.06,1-.87,1.06-1.58a44.63,44.63,0,0,0-.88-9.7c-.21-1.28-.56-2.75-1.72-3.33a4.18,4.18,0,0,0-1.86-.28c-2.27,0-4.6-.11-6.89,0a1.19,1.19,0,0,0-1,1.75c1,1.86,3,3.62,4.22,5.07C193.73,191.69,195.88,194.13,197.87,196.68Z"/><path class="cls-12" d="M181.11,185.25a1,1,0,0,0,0-2,1,1,0,0,0,0,2Z"/><path class="cls-12" d="M181.09,188.52a1,1,0,0,0,0-2,1,1,0,0,0,0,2Z"/><path class="cls-12" d="M181.44,189.74h-.06a1,1,0,0,0-.54,1.94h.06a1,1,0,0,0,1.24-.71,1,1,0,0,0-.7-1.23h-.06a1,1,0,0,0-.54,1.94h.06a1,1,0,0,0,1.24-.71,1,1,0,0,0-.7-1.23Z"/><path class="cls-12" d="M181.2,194.61a1,1,0,0,0,0-2,1,1,0,0,0,0,2Z"/><path class="cls-12" d="M181.16,197.39a1,1,0,0,0,0-2,1,1,0,0,0,0,2Z"/><path class="cls-12" d="M181.22,200.1a1,1,0,0,0,0-2,1,1,0,0,0,0,2Z"/><path class="cls-12" d="M181.14,203.07a1,1,0,0,0,0-2,1,1,0,0,0,0,2Z"/><path class="cls-12" d="M181.1,205.86a1,1,0,0,0,0-2,1,1,0,0,0,0,2Z"/><path class="cls-12" d="M181.12,208.85a1,1,0,0,0,0-2,1,1,0,0,0,0,2Z"/><path class="cls-12" d="M167.93,198.23a1,1,0,0,0,0-2,1,1,0,0,0,0,2Z"/><path class="cls-12" d="M170.24,198.21a1,1,0,0,0,0-2,1,1,0,0,0,0,2Z"/><path class="cls-12" d="M173.3,196.28l-.1,0a.77.77,0,0,0-.4,0,.81.81,0,0,0-.37.12.78.78,0,0,0-.28.26.73.73,0,0,0-.18.35l0,.26a1,1,0,0,0,.14.51l.15.2a.94.94,0,0,0,.45.26l.09,0a.78.78,0,0,0,.4,0,.85.85,0,0,0,.38-.12.78.78,0,0,0,.28-.26.75.75,0,0,0,.18-.34l0-.27a1,1,0,0,0-.14-.51l-.16-.2a.87.87,0,0,0-.44-.26Z"/><path class="cls-12" d="M176.87,197.67v-.06a1.05,1.05,0,0,0-.71-1.24,1,1,0,0,0-1.24.71v0a1,1,0,0,0,.7,1.24,1,1,0,0,0,1.24-.7v-.06a1.05,1.05,0,0,0-.71-1.24,1,1,0,0,0-1.24.71v0a1,1,0,0,0,.7,1.24,1,1,0,0,0,1.24-.7Z"/><path class="cls-12" d="M179.65,197.72v-.06a1,1,0,0,0-.7-1.24,1,1,0,0,0-1.24.7v.06a1,1,0,0,0,.7,1.24,1,1,0,0,0,1.24-.7v-.06a1,1,0,0,0-.7-1.24,1,1,0,0,0-1.24.7v.06a1,1,0,0,0,.7,1.24,1,1,0,0,0,1.24-.7Z"/><path class="cls-12" d="M184.29,198.34l.05,0a1,1,0,0,0,.36-1.38,1,1,0,0,0-1.37-.36l-.05,0a1,1,0,0,0-.37,1.38,1,1,0,0,0,1.38.36l.05,0a1,1,0,0,0,.36-1.38,1,1,0,0,0-1.37-.36l-.05,0a1,1,0,0,0-.37,1.38,1,1,0,0,0,1.38.36Z"/><path class="cls-12" d="M186,198.44l.09,0a.78.78,0,0,0,.4,0,.66.66,0,0,0,.38-.12,1.15,1.15,0,0,0,.46-.6l0-.27a1,1,0,0,0-.14-.5l-.16-.21a1,1,0,0,0-.44-.26h-.1a.77.77,0,0,0-.4,0,.81.81,0,0,0-.37.12.7.7,0,0,0-.28.26.75.75,0,0,0-.18.34l0,.27a1,1,0,0,0,.14.51l.16.2a.94.94,0,0,0,.44.26Z"/><path class="cls-12" d="M189.64,196.5l-.1,0a.77.77,0,0,0-.4,0,.81.81,0,0,0-.37.12.78.78,0,0,0-.28.26.75.75,0,0,0-.18.34l0,.27a1,1,0,0,0,.14.51l.15.2a1,1,0,0,0,.45.26l.09,0a.78.78,0,0,0,.4,0,.66.66,0,0,0,.38-.12.68.68,0,0,0,.28-.25.78.78,0,0,0,.18-.35l0-.26a1,1,0,0,0-.14-.51l-.16-.21a.92.92,0,0,0-.44-.25Z"/><path class="cls-12" d="M192,198.21a1,1,0,0,0,0-2,1,1,0,0,0,0,2Z"/><path class="cls-12" d="M194.49,198.4a1,1,0,0,0,0-2,1,1,0,0,0,0,2Z"/><path class="cls-4" d="M226.2,160.77c-.25,2.08-1.13,4-1.53,6.09-.58,3-.11,6.1.1,9.16.67,9.85-1.42,19.65-3.45,29.3-1.34,6.38-6.29,37.33-5.46,43.8.59,4.63-1.26,15.47-3.89,18.53S189.05,278.51,181.2,280a86.35,86.35,0,0,1,24.28,41.85c.6,2.45,1,5.4-.85,7.16-2.33,2.28-6.25.76-8.89-1.16a41.25,41.25,0,0,1-6.34-5.69l-1.33,1.46c3,3.37,6.14,6.89,10.44,8.16,5.63,1.67,11.55-.93,16.84-3.48l24.76-11.9A68.74,68.74,0,0,0,251.6,310c8.21-6.1,13.42-15.78,15.06-25.87.8-4.86,4.74-26,4-30.9-5.26-35-29.39-93.27-34.93-100.33-1.54-2-6.69-7.21-9.31-5.51S226.52,158.16,226.2,160.77Z"/><path class="cls-13" d="M136.05,145.33a28.69,28.69,0,0,1-1.08,4.86,2.87,2.87,0,0,1-1.27,1.9,4.79,4.79,0,0,1-2,.14c-1.82,0-4.32.31-5.4,1.78s-2.12,2.81-3.14,4.33c-.89,1.32-1.87,5.07-1.78,3.49.63-11.63-2.31-18.16-1-21.11a5,5,0,0,1,1.15-1.85c1-.85,2.55-.77,3.64-1.52,2.24-1.55,1.47-4.82,1.47-7.15V113.46h40.91v16.19l-9.65,14.59-31.26,6.34V134.81"/><path class="cls-14" d="M153.78,45.28l-1.17,74.34c0,3-1.58,4.94-4.24,5.42a7.58,7.58,0,0,1-1.39.12l-1.78,0-6.47-.13a9.62,9.62,0,0,1-5.48-2.53L119.7,108.58a12,12,0,0,1-2.7-6.2l-.52-11.44a6.4,6.4,0,0,0-1.87-4.53,6.41,6.41,0,0,1-1.88-4.54V79c0-1.12.87-3.54,1.93-6.3s2.12-6.46,2.12-8.16l.39-19.35a6.41,6.41,0,0,1,6.42-6.42h23.93A6.4,6.4,0,0,1,153.78,45.28Z"/><path class="cls-14" d="M180.31,79v2.88a6.42,6.42,0,0,1-1.89,4.54,6.44,6.44,0,0,0-1.87,4.53l-1.62,13.43a6.42,6.42,0,0,1-1.89,4.54l-13.72,14a8.1,8.1,0,0,1-5.06,2.29l-5.89-.12-2,0a8.59,8.59,0,0,1-1.26-.09,5.11,5.11,0,0,1-4.74-5.29l-1.16-74.34a6.42,6.42,0,0,1,6.41-6.52h23.79a6.42,6.42,0,0,1,6.42,6.42l.39,19.35c0,1.7,1.07,5.39,2.12,8.16S180.31,77.87,180.31,79Z"/><path class="cls-14" d="M111.59,72.31a2.79,2.79,0,0,0-3.52,0,2.85,2.85,0,0,0-1,3.57,20.17,20.17,0,0,0,1.5,3.06A12,12,0,0,1,110,83.25c.1.85.08,1.71.24,2.55a11.6,11.6,0,0,0,2.09,4.11l1.76,2.55c.53.76,1.28,1.63,2.19,1.43A2,2,0,0,0,117.52,92c.16-3.16-2.71-5.74-3-8.89-.17-2.1.81-4.09.8-6.18,0-1.68-1.46-2.87-2.68-3.8C112.29,72.81,111.94,72.54,111.59,72.31Z"/><path class="cls-14" d="M180.89,72.31a2.78,2.78,0,0,1,3.51,0,2.84,2.84,0,0,1,1,3.57,19.27,19.27,0,0,1-1.5,3.06,12,12,0,0,0-1.46,4.34c-.09.85-.07,1.71-.24,2.55a11.42,11.42,0,0,1-2.08,4.11l-1.76,2.55c-.53.76-1.29,1.63-2.19,1.43A2,2,0,0,1,175,92c-.16-3.16,2.71-5.74,3-8.89.18-2.1-.81-4.09-.79-6.18,0-1.68,1.45-2.87,2.68-3.8C180.18,72.81,180.54,72.54,180.89,72.31Z"/><path class="cls-15" d="M147.52,38.76h0c-.09.57-.19,1.13-.32,1.68-.83,3.77-2.19,7.61-1.45,11.41l-1.54,4.34a99.4,99.4,0,0,1,.92,10,10.62,10.62,0,0,1-.38,4c-.37,1-.66,2.13-1.13,3.13-.85,1.83-1.91,3.4-2,5.42-.24,3.53.06,7.37-.17,10.91,0,.6-1.15,1-.95,1.54.36,1,2.44,1.89,3.18,2.7,1.72,1.86,1.82,4.66,1.84,7.2q0,3.16,0,6.34c0,3,0,6-.23,9-.25,2.8-.71,5.71-.12,8.41a1.42,1.42,0,0,0,0,.22l-6.47-.13a9.62,9.62,0,0,1-5.48-2.53L119.7,108.58a12,12,0,0,1-2.7-6.2l-.52-11.44a6.4,6.4,0,0,0-1.87-4.53,6.41,6.41,0,0,1-1.88-4.54V79c0-1.12.87-3.54,1.93-6.3s2.12-6.46,2.12-8.16l.39-19.35a6.41,6.41,0,0,1,6.42-6.42Z"/><path class="cls-16" d="M175.87,67.37c.7,2,1.69,3.84,1.95,5.9.34,2.56-.46,5.11-1.25,7.57.27.38.83-.13,1-.58.62-2.06.31-4.51,1.73-6.12.64-.72,1.56-1.17,2.18-1.91,1.41-1.71.77-4.24.21-6.39a46.57,46.57,0,0,1-1.53-11.51c0-3.92-4.28-1.87-5,.62A21,21,0,0,0,175.87,67.37Z"/><path class="cls-16" d="M111.66,71.11a2.61,2.61,0,0,0,0,.74c.27,1,1.6,1.23,2,2.14.55,1.29-1.13,2.66-.77,4a17.85,17.85,0,0,0,4.47-8,52.56,52.56,0,0,0,1.46-9.18,1.9,1.9,0,0,0-.08-1c-.27-.58-1-.75-1.66-.81-2.58-.26-4.69-.58-4.94,2.37C111.88,64.57,111.83,67.86,111.66,71.11Z"/><path class="cls-17" d="M145.15,66.64a10.21,10.21,0,0,1,.13,4.71,3.84,3.84,0,0,1-.2.6,4.47,4.47,0,0,1-.29.58c-.19.35-.39.68-.59,1a7.09,7.09,0,0,0-1,1.84,5.36,5.36,0,0,0-.27,1.95c0,.77,0,1.53,0,2.3,0,1.53-.08,3.06-.2,4.6a32.18,32.18,0,0,1-.7,4.63c-.1.39-.19.78-.32,1.17a6.42,6.42,0,0,0-.23.84.37.37,0,0,0,0-.11c0-.07,0,0,.07,0a5.81,5.81,0,0,0,.77.43,8.56,8.56,0,0,0,3.9.4,27.84,27.84,0,0,1,4.6-.12l.05,1c-1.44.33-2.85.78-4.39,1.09a11.44,11.44,0,0,1-2.45.24,6.88,6.88,0,0,1-2.6-.51,7.1,7.1,0,0,1-1.21-.66,2.48,2.48,0,0,1-.73-.77,2.17,2.17,0,0,1-.25-1.21,7.17,7.17,0,0,1,.36-1.34c.12-.33.21-.68.3-1a39.73,39.73,0,0,0,.79-4.32c.19-1.47.3-3,.42-4.45,0-.74.1-1.49.13-2.24a6.9,6.9,0,0,1,.53-2.49,8.71,8.71,0,0,1,1.3-2.07c.22-.29.45-.59.66-.88s.2-.3.27-.42a4.69,4.69,0,0,0,.21-.45,10.62,10.62,0,0,0,.36-4.29Z"/><g class="cls-18"><path class="cls-19" d="M166.77,98.05a10.94,10.94,0,0,1,4.79-8.27"/><path class="cls-19" d="M126.16,101a10.92,10.92,0,0,0-4.79-8.27"/></g><path class="cls-20" d="M159.5,74.58a2.66,2.66,0,0,1-1.92-.84,2.62,2.62,0,0,1-.71-1.88A2.65,2.65,0,0,1,157.7,70a2.62,2.62,0,0,1,1.8-.71,2.63,2.63,0,0,1,1.8,4.55,2.62,2.62,0,0,1-1.8.71Z"/><path class="cls-17" d="M159.5,69.42a2.53,2.53,0,1,1-1.73.68,2.53,2.53,0,0,1,1.73-.68m0-.2a2.73,2.73,0,0,0-2.72,2.64,2.66,2.66,0,0,0,.73,2,2.72,2.72,0,1,0,2-4.59Z"/><circle class="cls-21" cx="159.5" cy="71.95" r="2.36"/><g class="cls-22"><g class="cls-23"><polygon class="cls-20" points="159.79 71.41 160.12 69.8 159.53 71.34 159.79 71.41"/><polygon class="cls-20" points="159.16 71.34 158.14 70.16 158.94 71.48 159.16 71.34"/><polygon class="cls-20" points="158.63 71.63 158.03 71.45 158.52 71.87 158.63 71.63"/><path class="cls-20" d="M160.21,71.82a.54.54,0,0,0,.32-.07l.25-.11.5-.22-.54.09-.26,0a.47.47,0,0,1-.21,0Z"/><polygon class="cls-20" points="160.25 71.57 160.85 71.01 160.1 71.35 160.25 71.57"/><polygon class="cls-20" points="159.56 71.3 159.43 69.46 159.29 71.3 159.56 71.3"/><path class="cls-20" d="M160.17,72.52a3.31,3.31,0,0,0,1.06.27,3,3,0,0,1-.92-.5Z"/><polygon class="cls-20" points="159.3 71.11 158.8 70.4 159.06 71.23 159.3 71.11"/><path class="cls-20" d="M158.75,71.48a2.12,2.12,0,0,1-.62-.42,2.2,2.2,0,0,0,.47.64Z"/><path class="cls-20" d="M160.29,72.19a1.06,1.06,0,0,0,.71-.08,1,1,0,0,1-.61-.16Z"/><polygon class="cls-20" points="160.14 71.36 160.47 70.71 159.91 71.22 160.14 71.36"/><polygon class="cls-20" points="158.76 71.83 157.12 71.71 158.72 72.1 158.76 71.83"/><polygon class="cls-20" points="158.77 72.47 157.74 73.64 158.94 72.67 158.77 72.47"/><polygon class="cls-20" points="159.13 72.96 159.02 73.58 159.38 73.04 159.13 72.96"/><path class="cls-20" d="M159.12,71.36a.56.56,0,0,0-.12-.3l-.14-.23-.28-.47.16.52.08.26c0,.08.05.17,0,.2Z"/><polygon class="cls-20" points="158.86 71.37 158.23 70.84 158.66 71.54 158.86 71.37"/><polygon class="cls-20" points="158.68 72.09 156.87 72.45 158.71 72.35 158.68 72.09"/><path class="cls-20" d="M159.82,71.32a3.7,3.7,0,0,0,.13-1.09,3,3,0,0,1-.38,1Z"/><polygon class="cls-20" points="158.52 72.36 157.89 72.95 158.68 72.58 158.52 72.36"/><path class="cls-20" d="M159,72.86a2.15,2.15,0,0,1-.35.67,2.36,2.36,0,0,0,.59-.55Z"/><path class="cls-20" d="M159.47,71.25a1,1,0,0,0-.17-.7.92.92,0,0,1-.08.62Z"/><polygon class="cls-20" points="158.66 71.5 157.98 71.26 158.55 71.74 158.66 71.5"/><polygon class="cls-20" points="159.32 72.81 159.41 74.44 159.58 72.81 159.32 72.81"/><polygon class="cls-20" points="159.94 72.71 161.24 73.59 160.12 72.52 159.94 72.71"/><polygon class="cls-20" points="160.38 72.3 161.01 72.32 160.43 72.03 160.38 72.3"/><path class="cls-20" d="M158.8,72.51a.61.61,0,0,0-.28.15l-.22.17-.42.34.49-.22.24-.11a.45.45,0,0,1,.2-.06Z"/><polygon class="cls-20" points="158.84 72.76 158.39 73.46 159.04 72.94 158.84 72.76"/><polygon class="cls-20" points="159.57 72.85 160.17 74.6 159.83 72.79 159.57 72.85"/><path class="cls-20" d="M158.67,71.82a3.37,3.37,0,0,0-1.1,0,3.11,3.11,0,0,1,1,.24Z"/><polygon class="cls-20" points="159.87 72.97 160.53 73.53 160.07 72.79 159.87 72.97"/><path class="cls-20" d="M160.3,72.47a2.13,2.13,0,0,1,.72.25,2.08,2.08,0,0,0-.63-.5Z"/><path class="cls-20" d="M158.64,72.17a1.09,1.09,0,0,0-.67.26,1,1,0,0,1,.63,0Z"/><polygon class="cls-20" points="158.99 72.94 158.84 73.65 159.25 73.02 158.99 72.94"/><polygon class="cls-20" points="160.21 72.13 161.82 71.83 160.17 71.86 160.21 72.13"/><polygon class="cls-20" points="160.03 71.52 160.74 70.13 159.81 71.37 160.03 71.52"/><polygon class="cls-20" points="159.56 71.14 159.51 70.51 159.3 71.12 159.56 71.14"/><path class="cls-20" d="M160,72.68a.62.62,0,0,0,.19.26l.19.19.39.38-.28-.46-.14-.23a.51.51,0,0,1-.09-.19Z"/><polygon class="cls-20" points="160.23 72.61 160.97 72.96 160.38 72.39 160.23 72.61"/><polygon class="cls-20" points="160.22 71.87 161.87 71.05 160.12 71.62 160.22 71.87"/><path class="cls-20" d="M159.32,72.9a3.25,3.25,0,0,0,.15,1.08,3.29,3.29,0,0,1,.11-1Z"/><polygon class="cls-20" points="160.3 71.56 160.76 70.83 160.1 71.38 160.3 71.56"/><path class="cls-20" d="M159.75,71.19a1.83,1.83,0,0,1,.16-.74,2.23,2.23,0,0,0-.43.69Z"/><path class="cls-20" d="M159.67,72.88a1.06,1.06,0,0,0,.34.63,1,1,0,0,1-.08-.62Z"/><polygon class="cls-20" points="160.39 72.43 161.11 72.49 160.43 72.17 160.39 72.43"/><polygon class="cls-20" points="159.42 71.33 158.92 69.77 159.16 71.4 159.42 71.33"/><polygon class="cls-20" points="158.84 71.58 157.37 71.06 158.72 71.82 158.84 71.58"/><polygon class="cls-20" points="158.52 72.1 157.91 72.23 158.54 72.36 158.52 72.1"/><path class="cls-20" d="M160,71.49a.65.65,0,0,0,.24-.22l.17-.22.32-.44-.42.34-.21.17c-.07.06-.14.12-.18.11Z"/><polyline class="cls-20" points="160.15 70.47 159.66 71.13 159.9 71.25 160.15 70.47"/><polygon class="cls-20" points="159.16 71.35 158.14 69.82 158.93 71.48 159.16 71.35"/><path class="cls-20" d="M160.3,72.12a3.47,3.47,0,0,0,1.06-.29,3.37,3.37,0,0,1-1.05,0Z"/><polygon class="cls-20" points="158.84 71.31 158.06 70.95 158.7 71.54 158.84 71.31"/><path class="cls-20" d="M158.55,71.91a1.93,1.93,0,0,1-.75-.06,2.21,2.21,0,0,0,.73.33Z"/><path class="cls-20" d="M160.24,71.77a1.05,1.05,0,0,0,.58-.42.94.94,0,0,1-.61.16Z"/><polygon class="cls-20" points="159.7 71.11 159.66 70.39 159.43 71.11 159.7 71.11"/></g></g><circle class="cls-24" cx="159.03" cy="71.86" r="1.32"/><circle class="cls-25" cx="159.12" cy="72.26" r="0.24"/><circle class="cls-25" cx="159.72" cy="71.79" r="0.47"/><path class="cls-26" d="M169.34,73.17c-1.18.12-2.2-.75-3.17-1.43a12.36,12.36,0,0,0-12-1.06"/><path class="cls-26" d="M159,69.59c-3,.8-3.53,3-5.64,3.83-.43.17-.93.39-1,.84a2,2,0,0,0,1.21.07c1.56-.19,3.08.48,4.61.84a12.28,12.28,0,0,0,8.34-1"/><path class="cls-20" d="M129.16,74.58a2.66,2.66,0,0,1-1.92-.84,2.63,2.63,0,0,1,1.92-4.42,2.63,2.63,0,1,1,0,5.26Z"/><path class="cls-17" d="M129.16,69.42a2.53,2.53,0,1,1-1.73.68,2.53,2.53,0,0,1,1.73-.68m0-.2a2.73,2.73,0,0,0-2,4.59,2.74,2.74,0,0,0,2,.86,2.72,2.72,0,0,0,2-4.58,2.73,2.73,0,0,0-2-.87Z"/><circle class="cls-21" cx="129.16" cy="71.95" r="2.36"/><g class="cls-22"><g class="cls-27"><polygon class="cls-20" points="129.46 71.41 129.79 69.8 129.2 71.34 129.46 71.41"/><polygon class="cls-20" points="128.82 71.34 127.8 70.16 128.6 71.48 128.82 71.34"/><polygon class="cls-20" points="128.29 71.63 127.69 71.45 128.18 71.87 128.29 71.63"/><path class="cls-20" d="M129.88,71.82a.53.53,0,0,0,.31-.07l.25-.11.5-.22-.53.09-.27,0a.47.47,0,0,1-.21,0Z"/><polygon class="cls-20" points="129.91 71.57 130.51 71.01 129.76 71.35 129.91 71.57"/><polygon class="cls-20" points="129.22 71.3 129.09 69.46 128.95 71.3 129.22 71.3"/><path class="cls-20" d="M129.83,72.52a3.44,3.44,0,0,0,1.07.27,3,3,0,0,1-.93-.5Z"/><polygon class="cls-20" points="128.96 71.11 128.46 70.4 128.72 71.23 128.96 71.11"/><path class="cls-20" d="M128.42,71.48a2.17,2.17,0,0,1-.63-.42,2.07,2.07,0,0,0,.48.64Z"/><path class="cls-20" d="M130,72.19a1.06,1.06,0,0,0,.71-.08,1,1,0,0,1-.61-.16Z"/><polygon class="cls-20" points="129.8 71.36 130.13 70.71 129.58 71.22 129.8 71.36"/><polygon class="cls-20" points="128.42 71.83 126.79 71.71 128.39 72.1 128.42 71.83"/><polygon class="cls-20" points="128.43 72.47 127.4 73.64 128.61 72.67 128.43 72.47"/><polygon class="cls-20" points="128.79 72.96 128.69 73.58 129.05 73.04 128.79 72.96"/><path class="cls-20" d="M128.78,71.36a.65.65,0,0,0-.11-.3l-.14-.23-.29-.47.16.52.08.26c0,.08.05.17,0,.2Z"/><polygon class="cls-20" points="128.52 71.37 127.89 70.84 128.32 71.54 128.52 71.37"/><polygon class="cls-20" points="128.34 72.09 126.54 72.45 128.38 72.35 128.34 72.09"/><path class="cls-20" d="M129.48,71.32a3.39,3.39,0,0,0,.13-1.09,3,3,0,0,1-.38,1Z"/><polygon class="cls-20" points="128.19 72.36 127.55 72.95 128.34 72.58 128.19 72.36"/><path class="cls-20" d="M128.63,72.86a2.12,2.12,0,0,1-.34.67,2.16,2.16,0,0,0,.58-.55Z"/><path class="cls-20" d="M129.14,71.25a1.16,1.16,0,0,0-.17-.7,1,1,0,0,1-.09.62Z"/><polygon class="cls-20" points="128.32 71.5 127.64 71.26 128.22 71.74 128.32 71.5"/><polygon class="cls-20" points="128.98 72.81 129.07 74.44 129.25 72.81 128.98 72.81"/><polygon class="cls-20" points="129.61 72.71 130.9 73.59 129.79 72.52 129.61 72.71"/><polygon class="cls-20" points="130.05 72.3 130.67 72.32 130.09 72.03 130.05 72.3"/><path class="cls-20" d="M128.46,72.51a.61.61,0,0,0-.28.15l-.22.17-.42.34L128,73l.25-.11a.42.42,0,0,1,.2-.06Z"/><polygon class="cls-20" points="128.5 72.76 128.06 73.46 128.7 72.94 128.5 72.76"/><polygon class="cls-20" points="129.24 72.85 129.83 74.6 129.5 72.79 129.24 72.85"/><path class="cls-20" d="M128.33,71.82a3.38,3.38,0,0,0-1.1,0,3.23,3.23,0,0,1,1,.24Z"/><polygon class="cls-20" points="129.53 72.97 130.19 73.53 129.73 72.79 129.53 72.97"/><path class="cls-20" d="M130,72.47a2.13,2.13,0,0,1,.72.25,2.08,2.08,0,0,0-.63-.5Z"/><path class="cls-20" d="M128.3,72.17a1.09,1.09,0,0,0-.67.26,1,1,0,0,1,.63,0Z"/><polygon class="cls-20" points="128.66 72.94 128.51 73.65 128.91 73.02 128.66 72.94"/><polygon class="cls-20" points="129.87 72.13 131.48 71.83 129.84 71.86 129.87 72.13"/><polygon class="cls-20" points="129.7 71.52 130.4 70.13 129.48 71.37 129.7 71.52"/><polygon class="cls-20" points="129.23 71.14 129.17 70.51 128.96 71.12 129.23 71.14"/><path class="cls-20" d="M129.64,72.68a.62.62,0,0,0,.19.26l.2.19.39.38-.29-.46-.14-.23a.35.35,0,0,1-.08-.19Z"/><polygon class="cls-20" points="129.89 72.61 130.64 72.96 130.04 72.39 129.89 72.61"/><polygon class="cls-20" points="129.88 71.87 131.54 71.05 129.78 71.62 129.88 71.87"/><path class="cls-20" d="M129,72.9a3.25,3.25,0,0,0,.15,1.08,3.29,3.29,0,0,1,.11-1Z"/><polygon class="cls-20" points="129.96 71.56 130.43 70.83 129.76 71.38 129.96 71.56"/><path class="cls-20" d="M129.41,71.19a2,2,0,0,1,.16-.74,2.2,2.2,0,0,0-.42.69Z"/><path class="cls-20" d="M129.33,72.88a1.06,1.06,0,0,0,.34.63.9.9,0,0,1-.07-.62Z"/><polygon class="cls-20" points="130.05 72.43 130.77 72.49 130.09 72.17 130.05 72.43"/><polygon class="cls-20" points="129.08 71.33 128.58 69.77 128.82 71.4 129.08 71.33"/><polygon class="cls-20" points="128.5 71.58 127.03 71.06 128.38 71.82 128.5 71.58"/><polygon class="cls-20" points="128.18 72.1 127.57 72.23 128.2 72.36 128.18 72.1"/><path class="cls-20" d="M129.66,71.49a.7.7,0,0,0,.23-.22l.17-.22.32-.44L130,71l-.21.17c-.06.06-.14.12-.17.11Z"/><polyline class="cls-20" points="129.81 70.47 129.32 71.13 129.56 71.25 129.81 70.47"/><polygon class="cls-20" points="128.82 71.35 127.8 69.82 128.59 71.48 128.82 71.35"/><path class="cls-20" d="M130,72.12a3.47,3.47,0,0,0,1.06-.29,3.37,3.37,0,0,1-1.05,0Z"/><polygon class="cls-20" points="128.5 71.31 127.73 70.95 128.36 71.54 128.5 71.31"/><path class="cls-20" d="M128.22,71.91a2,2,0,0,1-.76-.06,2.31,2.31,0,0,0,.73.33Z"/><path class="cls-20" d="M129.9,71.77a1.05,1.05,0,0,0,.58-.42.92.92,0,0,1-.61.16Z"/><polygon class="cls-20" points="129.36 71.11 129.32 70.39 129.09 71.11 129.36 71.11"/></g></g><circle class="cls-24" cx="128.7" cy="71.86" r="1.32"/><circle class="cls-25" cx="128.78" cy="72.26" r="0.24"/><circle class="cls-25" cx="129.38" cy="71.79" r="0.47"/><path class="cls-26" d="M139,73.17c-1.18.12-2.19-.75-3.17-1.43a12.36,12.36,0,0,0-12.05-1.06"/><path class="cls-26" d="M128.62,69.59c-3,.8-3.53,3-5.64,3.83-.43.17-.92.39-1,.84a2,2,0,0,0,1.21.07c1.57-.19,3.09.48,4.62.84a12.29,12.29,0,0,0,8.34-1"/><path class="cls-28" d="M146.46,107.24l-2.41-2.18s-1-.93-1-1a12.32,12.32,0,0,0-1.72,0c-.14.07-4.82,3-5.16,2.9a20.13,20.13,0,0,1-2.11-1.12l-1.58,3.17s3.73-1.72,4-1.72Z"/><path class="cls-28" d="M142.63,107.24l2.57-2.18s1-.93,1.06-1a14,14,0,0,1,1.83,0c.15.07,5,3,5.42,3a23.08,23.08,0,0,0,2.31-1.17l1.68,3.17s-4-1.72-4.22-1.72Z"/><path class="cls-16" d="M148.68,65.82l-1.19-.75A3.34,3.34,0,0,0,149.2,67c1.3.55,2.77,0,4.1-.45a25.21,25.21,0,0,1,7.84-1.29c3.08,0,6.44.7,8.35,3.11-1.5-2.85-4.88-4.21-8.09-4.54a26.55,26.55,0,0,0-5.91.11,18.48,18.48,0,0,1-5.83-.33,3.14,3.14,0,0,1-.9-.43.27.27,0,0,0-.45.13A2.29,2.29,0,0,0,148.68,65.82Z"/><path class="cls-16" d="M139.15,66l1.19-.75a3.32,3.32,0,0,1-1.72,1.9c-1.29.55-2.76,0-4.09-.45a25.26,25.26,0,0,0-7.85-1.28c-3.07,0-6.43.7-8.34,3.11a9,9,0,0,1,5.94-4.17,24.41,24.41,0,0,1,5.51-.78,51.12,51.12,0,0,1,5.38.45c1.11.09,2.43.27,3.39-.44C139,63.27,140.07,64.93,139.15,66Z"/><path class="cls-29" d="M166.6,130.5a23.47,23.47,0,0,1-8.59,8.14A61.74,61.74,0,0,1,147.65,143l-9.6,3.37a44.88,44.88,0,0,0-9.73,4.32,15,15,0,0,0-6.53,8.15,20.74,20.74,0,0,0-.44,6.72q.34,6.8,1.36,13.54c.52.12.72-.65.68-1.18-.53-6-1-12.18.38-18.08.45-1.9,1.19-3.89,2.83-4.94,2.11-1.35,4.88-.66,7.28.08l21,6.45a5.62,5.62,0,0,0,3.67.27,4.31,4.31,0,0,0,2.09-2.08c3.21-5.84-.21-13.4,2.08-19.65,1.25-3.42,4.1-6.09,5.26-9.54.59-1.76.71-3.91-.53-5.28-.46.23-.15.78-.07,1.31A6,6,0,0,1,166.6,130.5Z"/><path class="cls-29" d="M121,155.35c-.15-2.84-.57-5.65-1-8.46a19.24,19.24,0,0,1-.31-5c.43-3.91,1.71-7.18,5.52-8.16a1.34,1.34,0,0,1,1,0,1,1,0,0,1,.36.76c0,.46-.07,1,0,1.45a.94.94,0,0,1-.05.55,1.06,1.06,0,0,1-.71.43c-3.56,1.09-3.89,4.73-4.33,8.43s.36,7.42.57,11.14c.22,4.06-.25,8.11-.13,12.17.1,3.28,2,7.23.75,10.39C119,172.17,121.4,162.82,121,155.35Z"/><path class="cls-11" d="M171.49,56.84c1.25,0,8.87-.5,10.06-1.75,2.16-3.14.79-11.7,0-19.08-.38-3.74-1.21-8.33-4.77-10.3-3.19-1.77-22.26-1.07-27.8-.48-6.62.71-33.82,2.77-35.59,3.18a5,5,0,0,0-4.23,4.43c-.51,3-.82,15.54-.87,18.76,0,2.37,0,8.34,2.14,9,1.91.6,7.25,0,11.24-.6C129.8,58.86,162,56.84,171.49,56.84Z"/><rect class="cls-12" x="113.35" y="52.29" width="1.25" height="7.29" rx="0.62" transform="translate(-1.88 107.88) rotate(-50.29)"/><rect class="cls-12" x="128.97" y="50.84" width="1.25" height="7.29" rx="0.62" transform="translate(4.88 119.37) rotate(-50.29)"/><rect class="cls-12" x="144.59" y="49.4" width="1.25" height="7.29" rx="0.62" transform="translate(11.63 130.87) rotate(-50.29)"/><rect class="cls-12" x="160.22" y="47.95" width="1.25" height="7.29" rx="0.62" transform="translate(18.39 142.37) rotate(-50.29)"/><rect class="cls-12" x="175.84" y="46.5" width="1.25" height="7.29" rx="0.62" transform="translate(25.14 153.86) rotate(-50.29)"/><rect class="cls-10" x="175.84" y="46.5" width="1.25" height="7.29" rx="0.62" transform="translate(280.18 201.47) rotate(-140.29)"/><rect class="cls-10" x="160.22" y="47.95" width="1.25" height="7.29" rx="0.62" transform="translate(251.61 194.05) rotate(-140.29)"/><rect class="cls-10" x="144.59" y="49.4" width="1.25" height="7.29" rx="0.62" transform="translate(223.04 186.62) rotate(-140.29)"/><rect class="cls-10" x="128.97" y="50.84" width="1.25" height="7.29" rx="0.62" transform="translate(194.48 179.2) rotate(-140.29)"/><rect class="cls-10" x="113.35" y="52.29" width="1.25" height="7.29" rx="0.62" transform="translate(165.91 171.78) rotate(-140.29)"/><path class="cls-10" d="M112.93,45.47a3.15,3.15,0,0,0,.35,1.55,2.62,2.62,0,0,0,1.27.91,16.32,16.32,0,0,0,6,.91,95.85,95.85,0,0,0,11.85-.56,1.2,1.2,0,0,0,.78-.28,1.29,1.29,0,0,0,.23-.73c.43-5.08.85-10.31-.65-15.19a3.38,3.38,0,0,0-1.23-2,3.74,3.74,0,0,0-2.37-.3l-14,1.33a3.36,3.36,0,0,0-2,.65c-1.15,1.08-.26,4.16-.29,5.64C112.8,40.1,112.83,42.78,112.93,45.47Z"/><path class="cls-10" d="M136.82,30.62a2.38,2.38,0,0,0-.38,1.14,35.17,35.17,0,0,0,.69,13.36,3.25,3.25,0,0,0,1.12,2.06,3,3,0,0,0,1.36.41,25.31,25.31,0,0,0,5.43-.12l8.2-.75a2.28,2.28,0,0,0,.93-.23,1.85,1.85,0,0,0,.67-.77,7.64,7.64,0,0,0,.56-3.29,81.83,81.83,0,0,0-.26-11.72,3.06,3.06,0,0,0-.77-2,3.13,3.13,0,0,0-2.47-.38c-3,.38-6.09,1-9.1,1.14C140.92,29.56,138.22,28.79,136.82,30.62Z"/><path class="cls-10" d="M157.39,33.42l1.14,10.22a2.55,2.55,0,0,0,.37,1.28c.56.78,1.7.72,2.65.6A78,78,0,0,1,175.13,45c1,0,2.21.06,2.9-.7a3.51,3.51,0,0,0,.55-2.6,53.83,53.83,0,0,0-1.44-11.33,2.89,2.89,0,0,0-.86-1.61,3.09,3.09,0,0,0-1.8-.46L166.82,28a26.91,26.91,0,0,0-7.28.36C157.26,28.89,157.17,31.45,157.39,33.42Z"/><path class="cls-11" d="M115.38,39.36a2.23,2.23,0,0,0-.57,1.58,2.27,2.27,0,0,0,.56,1,26.72,26.72,0,0,0,6.23,5.34,4.42,4.42,0,0,0,2.41.84,4.47,4.47,0,0,0,2.59-1.34,31.92,31.92,0,0,0,4.57-4.94,2.09,2.09,0,0,0,.52-1.14,2.14,2.14,0,0,0-.71-1.4,63.54,63.54,0,0,0-4.48-4.51c-1.07-1-2.73-3.22-4.37-3-1.38.15-2.31,1.88-3.07,2.84C117.8,36.13,116.54,37.7,115.38,39.36Z"/><path class="cls-11" d="M137.9,37.62a2.24,2.24,0,0,0-.57,1.58,2.21,2.21,0,0,0,.56,1,26.32,26.32,0,0,0,6.23,5.34,4.42,4.42,0,0,0,2.41.84A4.47,4.47,0,0,0,149.12,45a32.42,32.42,0,0,0,4.57-4.94,2.17,2.17,0,0,0,.52-1.13,2.16,2.16,0,0,0-.71-1.41C152.09,36,150.57,34.47,149,33c-1.07-1-2.73-3.22-4.38-3-1.37.14-2.3,1.87-3.06,2.83C140.32,34.39,139.06,36,137.9,37.62Z"/><path class="cls-11" d="M160.09,35.89a2.24,2.24,0,0,0-.57,1.58,2.12,2.12,0,0,0,.56,1,26.32,26.32,0,0,0,6.23,5.34,4.42,4.42,0,0,0,2.41.84,4.47,4.47,0,0,0,2.59-1.34,32.42,32.42,0,0,0,4.57-4.94,2.17,2.17,0,0,0,.52-1.13,2.14,2.14,0,0,0-.71-1.41c-1.41-1.59-2.93-3.06-4.49-4.51-1.06-1-2.72-3.22-4.37-3-1.37.14-2.3,1.87-3.07,2.83C162.51,32.66,161.25,34.23,160.09,35.89Z"/><path class="cls-11" d="M118.8,33.33a.54.54,0,0,0,.21-.41c0-.19-.23-.29-.4-.35a8.41,8.41,0,0,0-3.19-.43,1.94,1.94,0,0,0-1,.26,2.14,2.14,0,0,0-.69,1.79,30.09,30.09,0,0,0,.17,4.65.64.64,0,0,0,.39.58c.74-1,1.28-2.16,2-3.17A27.62,27.62,0,0,1,118.8,33.33Z"/><path class="cls-11" d="M119.85,47.34c.17.13.35.32.29.53s-.41.25-.66.22l-3.58-.48a3,3,0,0,1-1.68-.6,3,3,0,0,1-.59-2.3c0-.53-.24-2.61.29-2.92s1.31,1.18,1.63,1.56A30.68,30.68,0,0,0,119.85,47.34Z"/><path class="cls-11" d="M130.88,47.62A1.67,1.67,0,0,0,132.49,46c.15-.6.28-1.21.38-1.82a4.13,4.13,0,0,0-.08-2.26.42.42,0,0,0-.16-.23c-.21-.12-.44.08-.59.26a59.46,59.46,0,0,1-4.44,4.94c-.37.37-.82.7-.24,1C128.32,48.29,129.87,47.52,130.88,47.62Z"/><path class="cls-11" d="M131.42,38.53a.75.75,0,0,0,.5.31c.39,0,.53-.51.53-.9a24.92,24.92,0,0,0-.82-5.27,2.28,2.28,0,0,0-1-1.76,2.37,2.37,0,0,0-1-.09c-1.24.08-2.51.1-3.76.22a.66.66,0,0,0-.49,1,21.53,21.53,0,0,0,2.48,2.62C129,36,130.24,37.21,131.42,38.53Z"/><path class="cls-11" d="M141.94,31.26c.11-.11.24-.25.22-.41s-.23-.29-.41-.35a8.62,8.62,0,0,0-3.19-.43,1.94,1.94,0,0,0-1,.26,2.14,2.14,0,0,0-.69,1.79,30.1,30.1,0,0,0,.18,4.65.62.62,0,0,0,.38.58c.74-1,1.28-2.16,2-3.17A26.39,26.39,0,0,1,141.94,31.26Z"/><path class="cls-11" d="M163.46,30a.53.53,0,0,0,.22-.41c0-.19-.23-.29-.41-.35a8.22,8.22,0,0,0-3.19-.43,2,2,0,0,0-1,.25,2.2,2.2,0,0,0-.69,1.8,30.14,30.14,0,0,0,.18,4.65.62.62,0,0,0,.39.58c.73-1,1.28-2.16,2-3.18A26.28,26.28,0,0,1,163.46,30Z"/><path class="cls-11" d="M143.88,46.28c.17.12.38.29.33.5s-.37.29-.62.28L140,47a3,3,0,0,1-1.74-.42,3,3,0,0,1-.82-2.22c0-.54-.5-2.58,0-2.94s1.42,1,1.78,1.38A29.37,29.37,0,0,0,143.88,46.28Z"/><path class="cls-11" d="M165.42,44.09c.18.12.38.29.34.5s-.38.29-.63.28l-3.61-.11a3,3,0,0,1-1.74-.42,3,3,0,0,1-.82-2.23c0-.53-.5-2.57,0-2.93s1.43,1,1.78,1.38A30.46,30.46,0,0,0,165.42,44.09Z"/><path class="cls-11" d="M152.83,46.25a2.23,2.23,0,0,0,.84-.26,2.15,2.15,0,0,0,.77-1.36c.15-.6.28-1.21.38-1.83a4.18,4.18,0,0,0-.07-2.25.53.53,0,0,0-.17-.24c-.2-.12-.44.08-.59.27a59.39,59.39,0,0,1-4.43,4.93c-.38.37-.83.7-.25,1C150.27,46.93,151.82,46.16,152.83,46.25Z"/><path class="cls-11" d="M175.62,44.17a2,2,0,0,0,.84-.25,2.17,2.17,0,0,0,.77-1.37c.15-.6.28-1.21.38-1.82a4.22,4.22,0,0,0-.07-2.26.5.5,0,0,0-.17-.23c-.2-.12-.44.08-.59.26a61.18,61.18,0,0,1-4.43,4.94c-.38.37-.83.7-.25,1C173.06,44.85,174.61,44.08,175.62,44.17Z"/><path class="cls-11" d="M153.92,37.07a.79.79,0,0,0,.51.31c.39,0,.53-.52.52-.91a24.09,24.09,0,0,0-.81-5.26c-.16-.7-.4-1.49-1-1.77a2.37,2.37,0,0,0-1-.09c-1.24.08-2.52.1-3.76.22a.65.65,0,0,0-.49,1,20.9,20.9,0,0,0,2.48,2.63C151.5,34.48,152.75,35.74,153.92,37.07Z"/><path class="cls-11" d="M176.36,35.75a.68.68,0,0,0,.46.28c.36,0,.49-.47.48-.83a22.67,22.67,0,0,0-.74-4.84c-.15-.64-.37-1.37-1-1.62a2.14,2.14,0,0,0-.94-.09c-1.15.08-2.32.09-3.46.2a.61.61,0,0,0-.45.92A18.82,18.82,0,0,0,173,32.18C174.13,33.37,175.28,34.53,176.36,35.75Z"/><path class="cls-12" d="M122.87,34.48a.51.51,0,0,0,0-1,.51.51,0,0,0,0,1Z"/><path class="cls-12" d="M123,36.12a.51.51,0,0,0,0-1,.51.51,0,0,0,0,1Z"/><path class="cls-12" d="M123.11,37.72a.51.51,0,0,0,0-1,.51.51,0,0,0,0,1Z"/><path class="cls-12" d="M123.21,39.18a.51.51,0,0,0,0-1,.51.51,0,0,0,0,1Z"/><path class="cls-12" d="M123.28,40.58a.51.51,0,0,0,0-1,.51.51,0,0,0,0,1Z"/><path class="cls-12" d="M123.39,41.94a.51.51,0,0,0,0-1,.51.51,0,0,0,0,1Z"/><path class="cls-12" d="M123.45,43.43a.51.51,0,0,0,0-1,.51.51,0,0,0,0,1Z"/><path class="cls-12" d="M123.51,44.83a.51.51,0,0,0,0-1,.51.51,0,0,0,0,1Z"/><path class="cls-12" d="M123.62,46.33a.51.51,0,0,0,0-1,.51.51,0,0,0,0,1Z"/><path class="cls-12" d="M116.66,41.41a.51.51,0,0,0,0-1,.51.51,0,0,0,0,1Z"/><path class="cls-12" d="M117.82,41.33a.51.51,0,0,0,0-1,.51.51,0,0,0,0,1Z"/><path class="cls-12" d="M119.22,40.25h0a.31.31,0,0,0-.19,0,.39.39,0,0,0-.27.27.31.31,0,0,0,0,.19v.14a.61.61,0,0,0,.13.22l.11.08a.45.45,0,0,0,.25.07h0a.34.34,0,0,0,.2,0,.39.39,0,0,0,.16-.1.37.37,0,0,0,.1-.17.32.32,0,0,0,0-.19l0-.14a.5.5,0,0,0-.13-.22l-.1-.08a.48.48,0,0,0-.26-.07Z"/><path class="cls-12" d="M120.67,41.25a.51.51,0,0,0,0-1,.51.51,0,0,0,0,1Z"/><path class="cls-12" d="M122.07,41.19a.51.51,0,0,0,0-1,.51.51,0,0,0,0,1Z"/><path class="cls-12" d="M125,40.89l0,0c.5-.42-.22-1.13-.71-.72l0,0c-.5.42.22,1.13.72.72l0,0c.5-.42-.22-1.13-.71-.72l0,0c-.5.42.22,1.13.72.72Z"/><path class="cls-12" d="M125.89,41h0a.41.41,0,0,0,.19,0,.34.34,0,0,0,.16-.1.39.39,0,0,0,.11-.17.31.31,0,0,0,0-.19l0-.14a.42.42,0,0,0-.13-.22l-.1-.08a.55.55,0,0,0-.25-.07h0a.45.45,0,0,0-.2,0,.42.42,0,0,0-.16.11.64.64,0,0,0-.15.35l0,.14a.45.45,0,0,0,.13.22l.1.08a.48.48,0,0,0,.26.07Z"/><path class="cls-12" d="M127.44,39.85h0a.34.34,0,0,0-.2,0,.39.39,0,0,0-.16.1.37.37,0,0,0-.1.17.32.32,0,0,0-.05.19l0,.14a.5.5,0,0,0,.13.22l.1.08a.48.48,0,0,0,.26.07h0a.31.31,0,0,0,.19,0,.45.45,0,0,0,.17-.11.44.44,0,0,0,.1-.16.31.31,0,0,0,0-.19v-.14a.61.61,0,0,0-.13-.22l-.11-.08a.45.45,0,0,0-.25-.07Z"/><path class="cls-12" d="M128.76,40.65a.51.51,0,0,0,0-1,.51.51,0,0,0,0,1Z"/><path class="cls-12" d="M130,40.67a.51.51,0,0,0,0-1,.51.51,0,0,0,0,1Z"/><path class="cls-12" d="M145,32.72a.51.51,0,0,0,0-1,.51.51,0,0,0,0,1Z"/><path class="cls-12" d="M145.07,34.36a.51.51,0,0,0,0-1,.51.51,0,0,0,0,1Z"/><path class="cls-12" d="M145.21,36a.51.51,0,0,0,0-1,.51.51,0,0,0,0,1Z"/><path class="cls-12" d="M145.32,37.41a.51.51,0,0,0,0-1,.51.51,0,0,0,0,1Z"/><path class="cls-12" d="M145.38,38.82a.51.51,0,0,0,0-1,.51.51,0,0,0,0,1Z"/><path class="cls-12" d="M145.5,40.17a.51.51,0,0,0,0-1,.51.51,0,0,0,0,1Z"/><path class="cls-12" d="M145.55,41.67a.51.51,0,0,0,0-1,.51.51,0,0,0,0,1Z"/><path class="cls-12" d="M145.61,43.07a.51.51,0,0,0,0-1,.51.51,0,0,0,0,1Z"/><path class="cls-12" d="M145.72,44.57a.51.51,0,0,0,0-1,.51.51,0,0,0,0,1Z"/><path class="cls-12" d="M138.76,39.65a.51.51,0,0,0,0-1,.51.51,0,0,0,0,1Z"/><path class="cls-12" d="M139.92,39.57a.51.51,0,0,0,0-1,.51.51,0,0,0,0,1Z"/><path class="cls-12" d="M141.32,38.49h0a.45.45,0,0,0-.19.05.34.34,0,0,0-.16.1.39.39,0,0,0-.11.17.41.41,0,0,0,0,.19l0,.14a.42.42,0,0,0,.13.22l.1.08a.55.55,0,0,0,.25.07h0a.45.45,0,0,0,.2,0,.53.53,0,0,0,.27-.27.41.41,0,0,0,0-.19l0-.14a.45.45,0,0,0-.13-.22l-.1-.08a.48.48,0,0,0-.26-.07Z"/><path class="cls-12" d="M142.77,39.49a.51.51,0,0,0,0-1,.51.51,0,0,0,0,1Z"/><path class="cls-12" d="M144.17,39.43a.51.51,0,0,0,0-1,.51.51,0,0,0,0,1Z"/><path class="cls-12" d="M147.09,39.13l0,0c.51-.42-.21-1.13-.71-.72l0,0c-.5.42.22,1.13.72.72l0,0c.51-.42-.21-1.13-.71-.72l0,0c-.5.42.22,1.13.72.72Z"/><path class="cls-12" d="M148,39.2h0a.31.31,0,0,0,.19,0,.48.48,0,0,0,.17-.1.37.37,0,0,0,.1-.17.31.31,0,0,0,0-.19v-.14a.61.61,0,0,0-.13-.22l-.11-.08a.45.45,0,0,0-.25-.07h0a.31.31,0,0,0-.19,0,.48.48,0,0,0-.17.1.37.37,0,0,0-.1.17.41.41,0,0,0-.05.19l0,.14a.61.61,0,0,0,.13.22l.1.08a.48.48,0,0,0,.26.07Z"/><path class="cls-12" d="M149.54,38.09h0a.41.41,0,0,0-.19.05.37.37,0,0,0-.17.1.39.39,0,0,0-.1.16.49.49,0,0,0-.05.2l0,.13a.65.65,0,0,0,.13.23l.11.08a.52.52,0,0,0,.25.07h0a.41.41,0,0,0,.19,0,.39.39,0,0,0,.17-.11.34.34,0,0,0,.1-.16.46.46,0,0,0,.05-.2l0-.13a.54.54,0,0,0-.13-.22l-.11-.08a.43.43,0,0,0-.25-.07Z"/><path class="cls-12" d="M150.86,38.88a.51.51,0,0,0,0-1,.51.51,0,0,0,0,1Z"/><path class="cls-12" d="M152.11,38.9a.51.51,0,0,0,0-1,.51.51,0,0,0,0,1Z"/><path class="cls-12" d="M167.55,30.53a.51.51,0,0,0,0-1,.51.51,0,0,0,0,1Z"/><path class="cls-12" d="M167.64,32.17a.51.51,0,0,0,0-1,.51.51,0,0,0,0,1Z"/><path class="cls-12" d="M167.78,33.77a.51.51,0,0,0,0-1,.51.51,0,0,0,0,1Z"/><path class="cls-12" d="M167.89,35.23a.51.51,0,0,0,0-1,.51.51,0,0,0,0,1Z"/><path class="cls-12" d="M168,36.63a.51.51,0,0,0,0-1,.51.51,0,0,0,0,1Z"/><path class="cls-12" d="M168.07,38a.51.51,0,0,0,0-1,.51.51,0,0,0,0,1Z"/><path class="cls-12" d="M168.13,39.48a.51.51,0,0,0,0-1,.51.51,0,0,0,0,1Z"/><path class="cls-12" d="M168.19,40.88a.51.51,0,0,0,0-1,.51.51,0,0,0,0,1Z"/><path class="cls-12" d="M168.29,42.38a.51.51,0,0,0,0-1,.51.51,0,0,0,0,1Z"/><path class="cls-12" d="M161.33,37.46a.51.51,0,0,0,0-1,.51.51,0,0,0,0,1Z"/><path class="cls-12" d="M162.5,37.38a.51.51,0,0,0,0-1,.51.51,0,0,0,0,1Z"/><path class="cls-12" d="M163.9,36.3h-.05a.34.34,0,0,0-.2,0,.42.42,0,0,0-.16.11.34.34,0,0,0-.1.16.32.32,0,0,0,0,.19l0,.14a.61.61,0,0,0,.13.22l.1.08a.48.48,0,0,0,.26.07h.05a.31.31,0,0,0,.19,0,.37.37,0,0,0,.17-.1.48.48,0,0,0,.1-.17.31.31,0,0,0,0-.19v-.14a.61.61,0,0,0-.13-.22l-.11-.08a.45.45,0,0,0-.25-.07Z"/><path class="cls-12" d="M165.34,37.3a.51.51,0,0,0,0-1,.51.51,0,0,0,0,1Z"/><path class="cls-12" d="M166.74,37.24a.51.51,0,0,0,0-1,.51.51,0,0,0,0,1Z"/><path class="cls-12" d="M169.67,36.94l0,0c.5-.42-.22-1.13-.72-.72l0,0c-.5.42.22,1.13.72.72l0,0c.5-.42-.22-1.13-.72-.72l0,0c-.5.42.22,1.13.72.72Z"/><path class="cls-12" d="M170.56,37h.05a.46.46,0,0,0,.2-.05.39.39,0,0,0,.16-.1.39.39,0,0,0,.11-.17.41.41,0,0,0,0-.19l0-.14a.5.5,0,0,0-.13-.22l-.1-.08a.59.59,0,0,0-.26-.07h-.05a.43.43,0,0,0-.19,0,.53.53,0,0,0-.27.27.45.45,0,0,0,0,.2l0,.13a.38.38,0,0,0,.13.22l.1.08a.45.45,0,0,0,.25.07Z"/><path class="cls-12" d="M172.11,35.9h0a.34.34,0,0,0-.2,0,.34.34,0,0,0-.16.1.39.39,0,0,0-.11.17.41.41,0,0,0,0,.19l0,.14a.42.42,0,0,0,.13.22l.1.08a.46.46,0,0,0,.26.07h0a.34.34,0,0,0,.2,0,.53.53,0,0,0,.27-.27.41.41,0,0,0,0-.19l0-.14a.5.5,0,0,0-.13-.22l-.1-.08a.46.46,0,0,0-.26-.07Z"/><path class="cls-12" d="M173.43,36.7a.51.51,0,0,0,0-1,.51.51,0,0,0,0,1Z"/><path class="cls-12" d="M174.68,36.72a.51.51,0,0,0,0-1,.51.51,0,0,0,0,1Z"/></svg>