<svg xmlns="http://www.w3.org/2000/svg" xmlns:xlink="http://www.w3.org/1999/xlink" viewBox="0 0 331 438"><defs><style>.cls-1,.cls-30,.cls-6,.cls-7,.cls-8,.cls-9{fill:none;}.cls-2{fill:#6243cf;}.cls-3{fill:#fff;}.cls-4,.cls-5{fill:#121a1a;}.cls-5,.cls-6,.cls-8,.cls-9{stroke:#7d5955;}.cls-30,.cls-5,.cls-6,.cls-8,.cls-9{stroke-miterlimit:10;}.cls-5,.cls-6,.cls-7{stroke-width:0.79px;}.cls-7{stroke:#baad7f;stroke-linejoin:round;}.cls-8{stroke-width:0.69px;}.cls-9{stroke-width:1.57px;}.cls-10{fill:#850000;}.cls-11{fill:#1a170f;}.cls-12{fill:#6e00a2;}.cls-13{fill:#0a0f0f;}.cls-14{fill:#d4d4d4;}.cls-15{fill:#636363;}.cls-16{fill:#f9efde;}.cls-17{fill:#ebd6b2;}.cls-18{fill:#ebd9bc;}.cls-19{fill:#f7e4c6;}.cls-20{fill:#9e6952;}.cls-21{fill:#1a293f;}.cls-22{opacity:0.54;}.cls-23{fill:#9e7a6a;}.cls-24{fill:#5e3725;}.cls-25{fill:#874e35;}.cls-26{opacity:0.84;}.cls-27{clip-path:url(#clip-path);}.cls-28{fill:#10161c;}.cls-29{fill:#202c38;}.cls-30{stroke:#1a293f;stroke-width:0.74px;}.cls-31{clip-path:url(#clip-path-2);}.cls-32{fill:#a87171;}</style><clipPath id="clip-path"><circle class="cls-1" cx="180.09" cy="199.41" r="1.86"/></clipPath><clipPath id="clip-path-2"><circle class="cls-1" cx="157.85" cy="199.41" r="1.86"/></clipPath></defs><g id="Layer_1" data-name="Layer 1"><rect class="cls-2" x="-57.89" y="45.94" width="452.21" height="342.54" transform="translate(385.42 48.99) rotate(90)"/></g><g id="Layer_2" data-name="Layer 2"><path class="cls-3" d="M261.43,332.45c-3.85-25.63-21.53-68.36-25.6-73.54-.83-1.06-3.13-3.46-5.05-4.11-1.34-1.72-12.41-7.1-12.41-7.11h0a77.77,77.77,0,0,0-21.42-6.4c-3-.41-6-.63-8.95-.77a15.1,15.1,0,0,1-1.59-.66,2.6,2.6,0,0,0-.59-1.24v-7.75l4.09-4.16a4.72,4.72,0,0,0,1.38-3.33l.93-7.68c.66.14,1.21-.49,1.6-1l1.29-1.87a8.26,8.26,0,0,0,1.53-3c.12-.61.11-1.24.18-1.87a8.79,8.79,0,0,1,1.06-3.18,14.15,14.15,0,0,0,1.11-2.24,2.1,2.1,0,0,0-.75-2.62,1.91,1.91,0,0,0-2-.27c.81-1.25.38-3,0-4.45a33.56,33.56,0,0,1-1.08-7.4,2.5,2.5,0,0,0,1-.48c1.58-2.3.58-8.57,0-14-.27-2.74-.89-6.11-3.49-7.55-2.34-1.29-16.31-.78-20.38-.35-4.85.52-24.78,2-26.09,2.33A3.67,3.67,0,0,0,143.1,171c-.37,2.2-.6,11.39-.64,13.75,0,1.74,0,6.12,1.57,6.62a5.87,5.87,0,0,0,1.3.16c0,.12-.06.22-.07.35-.2,2.38-.24,4.79-.37,7.18a2,2,0,0,0,0,.54c.18.64,1,.88,1.37,1.44-.22-.19-.45-.37-.66-.53a9.12,9.12,0,0,0-.79-.57,2,2,0,0,0-2.58,0,2.09,2.09,0,0,0-.74,2.62,13.29,13.29,0,0,0,1.1,2.24,9,9,0,0,1,1.07,3.18c.07.63.05,1.26.17,1.87a8.42,8.42,0,0,0,1.53,3l1.29,1.87c.39.56.94,1.2,1.61,1a.72.72,0,0,0,.23-.12l.29,6.34a8.73,8.73,0,0,0,2,4.55l5,5.14v9.64a164,164,0,0,0-20.19,2.81h0c-3.75.77-11.19,2.84-11.19,2.84s-5.83,1.93-8.69,3.09c-.41,1.79-.72,3.6-1,5.42-4.54,1.65-9.06,3.42-10.65,4.42-6.35,4-12.64,8.14-19.26,11.68-1.83,1-29.51,20.73-32.34,29.23-1.17,3.54-3,7.45-1.06,10.61.6.95,1.45,1.73,2,2.73,1.18,2.29.29,5,0,7.58A15.3,15.3,0,0,0,60.71,336c4.17,2.47,9.37,2.83,13.44,5.46,6.21,4,8.9,12.72,15.91,15.08,3.55,1.2,7.45.44,11.17.95s18.08,8.3,17.65,12a18.35,18.35,0,0,0,6.77-6.28c0,.43,0,.85,0,1.26s0,.76.07,1.12a2,2,0,0,0,0,.59l0,.08c-.11.46,0,1.48.27,1.43a69.15,69.15,0,0,1-4.69,8.52,58.52,58.52,0,0,0-8.19,24,94.73,94.73,0,0,0-.16,10.66c.11,5.23-2.55,26.43-3.48,30.55a32.87,32.87,0,0,0,9.44.61c-.28,1.56-.57,3.12-.84,4.69,17.44,1,41.67,2.65,59.13,1.92,14.13-.59,28.44-2.31,42.33.37,2.83.55,8.32-2.05,10.91-3.29,1.49-.72-4.39-37.25-5-45.34q-.57-7.27-1.27-14.55L239,378.78a50.31,50.31,0,0,0,8.42-4.72c6-4.47,9.83-11.56,11-19C259.08,351.54,262,336,261.43,332.45Zm-152.15-8.91a42.72,42.72,0,0,1-4.68-3.38,20,20,0,0,0-6.26-3,19.75,19.75,0,0,0-4.94-.74,13.51,13.51,0,0,1,3.24-2.34c2.74-1.47,5.88-2.37,8.53-4,2.36-1.49,8.53-5,13.21-8.22.48,5.54,1.1,10.89,1.93,15.25.47,2.45,1.15,6.6,1.88,11.56A99.5,99.5,0,0,1,109.28,323.54Z"/><path class="cls-3" d="M220.47,458.42a14.05,14.05,0,0,1-2.6-.24c-9.92-1.92-20.34-1.31-31.36-.67-2.89.16-5.87.34-8.84.46-16.31.68-37.78-.6-55-1.64l-15.4-.9.84-4.77-.92-.22-8.59-2.31,2-8.68c.84-3.7,3.35-24,3.25-28.31a100.5,100.5,0,0,1,.21-11.7,61.57,61.57,0,0,1,4.12-17l1.19-10.52a44,44,0,0,0-9.55-5.24c-.83-.09-1.86-.09-2.95-.09a29.28,29.28,0,0,1-9.7-1.24c-6.59-2.22-10.42-7.18-13.49-11.17-1.59-2.06-3.1-4-4.47-4.89a21.56,21.56,0,0,0-4.69-1.82A38.26,38.26,0,0,1,56,344a24.64,24.64,0,0,1-11.74-23.22c.08-.76.19-1.53.31-2.31,0-.21.07-.46.1-.69-.32-.42-.68-.91-1-1.49-4.08-6.52-1.73-13.18-.32-17.16.15-.43.3-.86.44-1.28,4.34-13.05,36.47-34.32,36.78-34.48,5.37-2.88,10.53-6.16,16-9.64L99.16,252a42.7,42.7,0,0,1,7.4-3.41c0-.23.1-.47.16-.7l1.08-4.68,4.46-1.81c1-.41,2.34-.91,4-1.51l.07-.37L122,238c.32-.09,7.78-2.16,11.79-3,3.44-.71,7-1.32,10.65-1.82l-.21-.21a17.66,17.66,0,0,1-4.63-10.74l-.08-1.74c-.14-.18-.28-.36-.41-.56l-1.29-1.87a16.94,16.94,0,0,1-3-6.46,18.13,18.13,0,0,1-.29-2.41l0-.07-.22-.39a19.11,19.11,0,0,1-1.47-3.19,11.34,11.34,0,0,1,2-11.26c-1.64-3.64-1.57-7.82-1.54-9.72,0-1.21.21-11.87.77-15.15a12.93,12.93,0,0,1,10.13-10.71c1.16-.27,2.5-.42,15.28-1.48,4.87-.41,9.91-.83,11.92-1,.19,0,19.63-2,25.84,1.46,7.15,4,8,12.06,8.23,14.72.08.76.16,1.53.25,2.31.65,5.94,1.28,11.6-.89,16.15.11.68.26,1.34.43,2,.08.32.18.71.28,1.15a11.29,11.29,0,0,1,2.26,11.58,18.69,18.69,0,0,1-1.47,3.19l-.22.39a.33.33,0,0,1,0,.06,18.06,18.06,0,0,1-.29,2.42,16.79,16.79,0,0,1-3,6.46l-1.29,1.87q-.24.35-.48.66l-.42,3.5a13.78,13.78,0,0,1-3,7.94l.67.09a86.17,86.17,0,0,1,22.1,6.32h7.31V242a59.18,59.18,0,0,1,8.36,5,25.48,25.48,0,0,1,7.14,6.18c5.81,7.41,23.67,52.58,27.47,77.88h0c.52,3.42-.11,9.08-2.57,23.28-.16.95-.29,1.72-.38,2.24A38.8,38.8,0,0,1,253,381.49a58,58,0,0,1-9.93,5.64l-9,4.33c.26,2.94.49,5.67.69,8.26s1.09,9,2,15.85c.89,6.45,1.89,13.75,2.53,19.4,1.1,9.63,1.83,16-4.72,19.15C229.19,456.7,224.63,458.42,220.47,458.42Zm-.22-18.52Zm-17.88-1.54a100.82,100.82,0,0,1,18.23,1.48,4.9,4.9,0,0,0,.58-.16c-.61-5.82-1.9-15.25-2.77-21.59-1-7.4-1.89-13.79-2.14-16.91-.34-4.3-.75-9-1.26-14.41l-.6-6.43L235,370.43a43.83,43.83,0,0,0,6.91-3.81,20.23,20.23,0,0,0,7.42-13c.09-.55.23-1.38.41-2.41,1.68-9.71,2.51-15.63,2.47-17.59-3.7-24.12-20.42-64.16-23.74-69a9.67,9.67,0,0,0-1.21-1.18l-2.12-.72-1.11-1.43c-1.35-.88-4.8-2.79-9.41-5.06l-.15-.07a68.69,68.69,0,0,0-18.85-5.66c-2.34-.32-4.91-.54-8.11-.69l-1.42-.06-1.33-.49a23.65,23.65,0,0,1-2.52-1.06l-3.94-1.95-.62-2.7-1.18-1.3v-2.69l-11.46-10V249.8l-8.51.69a154.27,154.27,0,0,0-19.07,2.64c-2.71.56-8.17,2-10.34,2.63l-.08,0c-1.21.4-2.25.76-3.15,1.07l-.73,5.34-5.25,1.91A76.13,76.13,0,0,0,109,267.7l-2.55,1.63c-5.46,3.47-11.1,7.06-17,10.25-5.6,3.51-25.63,19.1-28.14,24.23l-.51,1.46c-.22.62-.51,1.44-.7,2.09a15.77,15.77,0,0,1,1.61,2.5c2.26,4.42,1.59,8.79,1.19,11.39-.07.45-.14.89-.18,1.32A6,6,0,0,0,65.43,328,24.1,24.1,0,0,0,70,329.74a35.68,35.68,0,0,1,9.22,3.95c4,2.6,6.72,6.08,9.08,9.14,1.71,2.21,3.47,4.5,4.76,4.93a15.9,15.9,0,0,0,3.82.26,41,41,0,0,1,5.64.29c5,.68,12.55,5.21,14,6.11.91.56,1.83,1.16,2.74,1.8l10.83-15.78-10.35-2.86A108.11,108.11,0,0,1,105,331.73h0a30,30,0,0,1-4.54-3.11c-.4-.32-.79-.64-1.21-.93a10.67,10.67,0,0,0-3.35-1.59,10.3,10.3,0,0,0-2.62-.4l-21.8-.39,15.42-15.42a22.7,22.7,0,0,1,5.42-4c1.55-.83,3.11-1.49,4.49-2.07a26,26,0,0,0,3.46-1.63c.76-.49,1.88-1.16,3.22-2,2.81-1.68,6.66-4,9.68-6.06l13.12-9.05,1.37,15.88c.51,5.88,1.11,10.69,1.8,14.3.54,2.81,1.25,7.17,1.94,12l1.35,9.27,1.61-2.35.47,22.69,6.2-1-6.34,15.33a57.85,57.85,0,0,1-4.22,7.93c-.35.58-.7,1.16-1,1.75a48.61,48.61,0,0,0-6.95,20.18,84.36,84.36,0,0,0-.13,9.61c.08,3.93-1,13.95-2,22l10-.42-1.07,5.81c15.76.93,34,1.87,47.76,1.3,2.81-.12,5.72-.29,8.53-.45C191,438.69,196.65,438.36,202.37,438.36ZM100,366.67h0Zm152.3-32.88v0Zm-191-30.12v0Zm28-24-.08,0Zm137.8-16.37Zm-70-62.46,19.4,30.78v-4.51l5.65-5.75.73-6.09-11,4.64L187,196.68a43.56,43.56,0,0,1-1.17-8.59l-.26-7.17,2-.59c-.11-1.27-.26-2.62-.37-3.64-.09-.84-.18-1.67-.26-2.48a124.93,124.93,0,0,0-13.67.38c-2.22.24-7.15.65-12.36,1.08-2.84.24-6.26.52-8.93.76-.08,1.8-.15,4-.21,6l4.57.16-1.88,10.47c-.08,1-.13,2.11-.18,3.24l2.55,4,.27-.15Zm26.14,19.41,0,.05Zm4.15-22Zm.25-14.46Zm2-9.35Z"/><path class="cls-1" d="M312.94,227.92a29.66,29.66,0,0,0-1.39,2.83"/><path class="cls-1" d="M305.21,271.83l-7.47,7.8"/><path class="cls-1" d="M152.27,159.06a2.85,2.85,0,0,0-.26,1"/><path class="cls-4" d="M123.78,297.28c-2.44,3.52-15,10.5-18.61,12.78-2.65,1.67-5.79,2.57-8.53,4a13.79,13.79,0,0,0-3.24,2.34,19.75,19.75,0,0,1,4.94.74,20,20,0,0,1,6.26,3,42.72,42.72,0,0,0,4.68,3.38c1.71.9,14.13,6.35,15.83,5.45,3,5.77,6.14,11.84,6.11,18.37a27.91,27.91,0,0,1-3.92,13.2c-2,3.63-4.69,7.1-8.42,9,.43-3.73-13.93-11.53-17.65-12s-7.62.25-11.17-.95c-7-2.36-9.7-11.07-15.91-15.08-4.07-2.63-9.27-3-13.44-5.46a15.3,15.3,0,0,1-7.25-14.34c.25-2.56,1.14-5.29,0-7.58-.51-1-1.36-1.78-2-2.73-2-3.16-.11-7.07,1.06-10.61,2.83-8.5,30.51-28.25,32.34-29.23,6.62-3.54,12.91-7.65,19.26-11.68,3.14-2,17.77-6.95,21.29-8.15l-2.92,4.21C117.79,268.45,131.41,286.24,123.78,297.28Z"/><path class="cls-4" d="M135.11,375.63c-5-2-9.4-5.11-9.45-11.13-.1-14-3.83-39.49-5.35-47.41-2.77-14.54-3.25-40.18-3.59-46.89s1.3-14.25,6.87-18c4.68-3.15,10.08-4,14.15-4.35,8-.73,11.42-.1,15.78-2.38-2.78,3.23-1.59,2.12-2.17,5.78-.33,2.13.47,4.65.59,6.8.3,5.75-.08,11.13.22,16.88l0-1.94a7.74,7.74,0,0,0-.06,3.25,44.49,44.49,0,0,1,.54-12.51,5.43,5.43,0,0,1,1.09-2.73,5.83,5.83,0,0,1,3.32-1.43l6-1.18a8.89,8.89,0,0,1,3.36-.23c2.49.48,4.56,3,7,2.48,1-8.23,11.25-12.69,12.87-20.82,7.82,4,43.66,8,45.38,16.81.8,4.06,1.6,11.66-.72,16.48-7.55,15.76-4.72,62-2.94,79.39.45,4.39.92,10-1.85,13.86-4.46,6.15-13.6,10-20.46,11.5-10,2.22-19.42,2.86-29.66,3.71a89.48,89.48,0,0,1-33.42-3.46C140.29,377.39,137.62,376.65,135.11,375.63Z"/><path class="cls-5" d="M224.36,250.69A162.22,162.22,0,0,1,222.68,284c-1.22,7.85-3,15.61-3.94,23.5s-1.09,15.87,1.2,23.48a105.67,105.67,0,0,0-32.33-5.58c-5.16-.05-10.32.31-15.47.67l-11.69.83c-4.22.29-8.45.59-12.64,1.21A100.24,100.24,0,0,0,127,333.5c2.63-7.89,1.55-16.54-.5-24.6a106.71,106.71,0,0,0-5.12-15.25c-1-2.35-2.07-4.68-3-7.06a62.54,62.54,0,0,1-2.68-36.6c19-7.7,39.37-9.3,59.83-9.61a140.88,140.88,0,0,1,21.35.91A81.28,81.28,0,0,1,224.36,250.69Z"/><path class="cls-6" d="M135.62,244.06a54,54,0,0,0,2,33c1,2.44,2.11,4.81,3.09,7.25,4.32,10.66,5.57,22.33,5.87,33.83"/><path class="cls-6" d="M134.19,321.6A117.5,117.5,0,0,1,145,310.87a33.64,33.64,0,0,1-10.54-7.6c2.24-4.63,4.36-9,7.66-12.95a20.84,20.84,0,0,1-13.9-5.62c.71-4.73,3.44-8.88,6.18-12.79a27.43,27.43,0,0,1-10.87-5.19,39.33,39.33,0,0,1,8.88-9.75,27,27,0,0,1-8-9.07"/><path class="cls-7" d="M123.77,249.56a62,62,0,0,0-7.7,4.81l6.66,3.61a41.62,41.62,0,0,0-6.9,4.71,21.25,21.25,0,0,0,6.84,1.63q-3.28,2.69-6.67,5.25a73.6,73.6,0,0,0,7.77,2.33c-1.32.85-5.89,3.8-6.63,4.66,2.36.14,7.48.61,7.59.76s-3.57,4.63-4.78,6.84c2.47-.15,4.94-.34,7.41-.55a20.12,20.12,0,0,0-5,7,72.55,72.55,0,0,1,7.94-.14,42.32,42.32,0,0,0-5.57,5.94,44,44,0,0,0,7.84.91,42.17,42.17,0,0,0-5.89,7q3.9.6,7.84.95c-1.78,1.94-3.59,3.66-5.37,5.61,2.11,1,4,1.67,6,2.75-2.13,1.6-3.61,2.43-5.71,4a18.41,18.41,0,0,0,5.15,2.28,22.79,22.79,0,0,0-5.9,6.09"/><path class="cls-7" d="M130.5,332.31a9.05,9.05,0,0,0,2.76-2.4,26.69,26.69,0,0,0,5-9.15c1,2.9,2.16,6,4.68,7.73a.9.9,0,0,0,1.48-.25,24,24,0,0,0,4-10.25,21.53,21.53,0,0,0,4.71,8.95,1.18,1.18,0,0,0,.42.35c.51.2,1-.32,1.29-.79a28.41,28.41,0,0,0,3.89-9.62,16.61,16.61,0,0,0,4.59,9.76,21.78,21.78,0,0,0,4.5-10.44,24.7,24.7,0,0,0,1.64,5.24,9.17,9.17,0,0,0,3.7,4.33,1.69,1.69,0,0,0,.94.28,1.71,1.71,0,0,0,.83-.41c3.11-2.42,3.94-6.29,4.63-10.18a13.44,13.44,0,0,0,1.92,6.68,9.12,9.12,0,0,0,3.44,2.93,1.8,1.8,0,0,0,2.41-.32,12.06,12.06,0,0,0,2.95-4.4,44.86,44.86,0,0,0,1.94-5,17.75,17.75,0,0,0,.61,5.29,9.85,9.85,0,0,0,3,4.65,1.8,1.8,0,0,0,.72.44,1.65,1.65,0,0,0,1-.16,7.59,7.59,0,0,0,2.8-2.33,18.14,18.14,0,0,0,3.32-6.46c-.4,3,3.27,10.13,3.61,10.27s5.62-4.72,6.26-7.7"/><path class="cls-7" d="M218.17,320.23a6.16,6.16,0,0,0-3.29-3.57,5.8,5.8,0,0,0,2.2-.74,2.46,2.46,0,0,0,1.45-2,3,3,0,0,0-.38-1.32,6.15,6.15,0,0,0-4-3.35,5.9,5.9,0,0,0,2.43.27,2.56,2.56,0,0,0,2.16-1.53,2.83,2.83,0,0,0-1.43-3c-1-.66-2-.82-3-1.39a5,5,0,0,0,4.66-1.46,1.7,1.7,0,0,0,.62-1.28,1.88,1.88,0,0,0-.75-1.09,15,15,0,0,0-4-2.33,20.51,20.51,0,0,0,4.26-1.18c1-.47,2-1.37,1.79-2.44a2.82,2.82,0,0,0-1.12-1.55,11.34,11.34,0,0,0-3.78-1.93c1.88.53,4.18.27,5.28-1.36a3.24,3.24,0,0,0-.62-3.87,8.35,8.35,0,0,0-3.4-2,16,16,0,0,0,5.41-2.29,1.13,1.13,0,0,0,.47-.84,1.54,1.54,0,0,0-.33-.91,12,12,0,0,0-4.28-4.2,17.42,17.42,0,0,0,3-1.07,3.65,3.65,0,0,0,1.67-1.08c.84-1.09.31-2.78-.75-3.66a7.37,7.37,0,0,0-3.6-1.47,23.34,23.34,0,0,0,3.32-1.21,3.28,3.28,0,0,0,2.21-2.8,3.37,3.37,0,0,0-1-2.06,7.17,7.17,0,0,0-4.3-2.57,6.05,6.05,0,0,0,3.05-.77c1-.55,2.19-1.33,2-2.49a3.36,3.36,0,0,0-1.56-2c-1.4-1-2.48-1.8-3.9-2.82a21.82,21.82,0,0,0,3.43-1.17"/><path class="cls-8" d="M218.37,247.69c.51,9.75,1,21.29-.52,30.94-1.07,6.88-2.65,13.68-3.45,20.6s-1,13.92,1,20.58a92.76,92.76,0,0,0-28.35-4.89c-4.52,0-9,.28-13.56.59l-10.25.73c-3.7.26-7.41.52-11.08,1.06A87.57,87.57,0,0,0,134,322c2.31-6.92,1.36-14.5-.44-21.57a94.16,94.16,0,0,0-4.49-13.37c-.87-2.06-1.81-4.1-2.63-6.19-4-10.14-4.46-23.38-2-34"/><path class="cls-9" d="M224.36,250.69A162.22,162.22,0,0,1,222.68,284c-1.22,7.85-3,15.61-3.94,23.5s-1.09,15.87,1.2,23.48a105.67,105.67,0,0,0-32.33-5.58c-5.16-.05-10.32.31-15.47.67l-11.69.83c-4.22.29-8.45.59-12.64,1.21A100.24,100.24,0,0,0,127,333.5c2.63-7.89,1.55-16.54-.5-24.6a106.71,106.71,0,0,0-5.12-15.25c-1-2.35-2.07-4.68-3-7.06a62.54,62.54,0,0,1-2.68-36.6c19-7.7,39.37-9.3,59.83-9.61a140.88,140.88,0,0,1,21.35.91A81.28,81.28,0,0,1,224.36,250.69Z"/><path class="cls-10" d="M139.3,254.81l1.37,16.09a4.18,4.18,0,0,0,.53,2c.85,1.23,2.65,1.19,4.14,1a122.54,122.54,0,0,1,21.33-.29c1.61.12,3.45.19,4.57-1s1-2.62,1-4c-.17-6-.36-12-1.79-17.84a4.55,4.55,0,0,0-1.29-2.55,4.83,4.83,0,0,0-2.8-.8l-12-.83c-3.56-.25-7.91-.52-11.44.26S139,251.73,139.3,254.81Z"/><path class="cls-11" d="M143.44,258.81a3.49,3.49,0,0,0-1,2.45,3.42,3.42,0,0,0,.84,1.55,41.92,41.92,0,0,0,9.55,8.62,5.42,5.42,0,0,0,7.86-.58,49.71,49.71,0,0,0,7.37-7.56,3.37,3.37,0,0,0,.87-1.76,3.41,3.41,0,0,0-1.05-2.23c-2.15-2.55-4.48-4.93-6.86-7.26-1.63-1.6-4.14-5.16-6.73-4.95-2.17.17-3.69,2.84-4.93,4.32C147.36,253.84,145.33,256.25,143.44,258.81Z"/><path class="cls-11" d="M149,249.73c.18-.17.38-.38.35-.63s-.34-.46-.62-.57a13.42,13.42,0,0,0-5-.81,3.14,3.14,0,0,0-1.55.36,3.4,3.4,0,0,0-1.15,2.79,45.75,45.75,0,0,0,.08,7.31,1,1,0,0,0,.59.92c1.19-1.55,2.09-3.34,3.29-4.9A43.45,43.45,0,0,1,149,249.73Z"/><path class="cls-11" d="M151.47,271.88c.27.19.58.47.51.8s-.61.44-1,.42l-5.66-.33a4.56,4.56,0,0,1-2.7-.73c-1-.8-1.14-2.24-1.2-3.52,0-.84-.69-4,.1-4.6s2.2,1.68,2.73,2.24A48,48,0,0,0,151.47,271.88Z"/><path class="cls-11" d="M167.46,272.43a2.58,2.58,0,0,0,2.59-2.48c.27-.94.49-1.89.68-2.84a6.58,6.58,0,0,0,0-3.55.68.68,0,0,0-.25-.37c-.31-.2-.7.11-.94.39a91.26,91.26,0,0,1-7.15,7.56c-.61.56-1.33,1.07-.43,1.51C163.42,273.39,165.89,272.24,167.46,272.43Z"/><path class="cls-11" d="M169,259.24a1.18,1.18,0,0,0,.72.47c.56,0,.78-.72.79-1.29a35.11,35.11,0,0,0-1-7.62c-.21-1-.52-2.16-1.46-2.58a3.16,3.16,0,0,0-1.47-.17c-1.8.07-3.64,0-5.44.17a1,1,0,0,0-.74,1.42,30.57,30.57,0,0,0,3.48,3.87C165.56,255.42,167.32,257.29,169,259.24Z"/><path class="cls-12" d="M155.38,250.7a.8.8,0,0,0,0-1.59.8.8,0,0,0,0,1.59Z"/><path class="cls-12" d="M155.46,253.28a.8.8,0,0,0,0-1.59.8.8,0,0,0,0,1.59Z"/><path class="cls-12" d="M155.61,254.21h0a.8.8,0,0,0-.8.8.81.81,0,0,0,.8.79h0a.8.8,0,0,0,.8-.8.81.81,0,0,0-.8-.79h0a.8.8,0,0,0-.8.8.81.81,0,0,0,.8.79h0a.8.8,0,0,0,.8-.8.81.81,0,0,0-.8-.79Z"/><path class="cls-12" d="M155.72,258.08a.8.8,0,0,0,0-1.59.8.8,0,0,0,0,1.59Z"/><path class="cls-12" d="M155.77,260.28a.8.8,0,0,0,0-1.59.8.8,0,0,0,0,1.59Z"/><path class="cls-12" d="M155.89,262.42a.8.8,0,0,0,0-1.59.8.8,0,0,0,0,1.59Z"/><path class="cls-12" d="M155.92,264.77a.8.8,0,0,0,0-1.59.8.8,0,0,0,0,1.59Z"/><path class="cls-12" d="M156,267a.8.8,0,0,0,0-1.59.8.8,0,0,0,0,1.59Z"/><path class="cls-12" d="M156.06,269.33a.8.8,0,0,0,0-1.59.8.8,0,0,0,0,1.59Z"/><path class="cls-12" d="M145.35,261.32a.8.8,0,0,0,0-1.59.8.8,0,0,0,0,1.59Z"/><path class="cls-12" d="M147.18,261.24a.8.8,0,0,0,0-1.59.8.8,0,0,0,0,1.59Z"/><path class="cls-12" d="M149.38,259.6h-.08a.56.56,0,0,0-.31.06.81.81,0,0,0-.42.42.56.56,0,0,0-.06.31l0,.21a.78.78,0,0,0,.21.35l.16.13a.92.92,0,0,0,.4.11h.08a.51.51,0,0,0,.3-.06.65.65,0,0,0,.26-.17.56.56,0,0,0,.16-.25.67.67,0,0,0,.07-.31l0-.21a.77.77,0,0,0-.2-.35l-.16-.13a.83.83,0,0,0-.4-.11Z"/><path class="cls-12" d="M152.44,260.44v-.05a.8.8,0,0,0-.79-.79.81.81,0,0,0-.8.79v.05a.79.79,0,0,0,.79.79.81.81,0,0,0,.8-.79v-.05a.8.8,0,0,0-.79-.79.81.81,0,0,0-.8.79v.05a.79.79,0,0,0,.79.79.81.81,0,0,0,.8-.79Z"/><path class="cls-12" d="M154.64,260.4v0a.8.8,0,0,0-.79-.8.82.82,0,0,0-.8.8v0a.8.8,0,0,0,.79.79.82.82,0,0,0,.8-.79v0a.8.8,0,0,0-.79-.8.82.82,0,0,0-.8.8v0a.8.8,0,0,0,.79.79.82.82,0,0,0,.8-.79Z"/><path class="cls-12" d="M158.43,260.83l0,0a.8.8,0,0,0,0-1.13.82.82,0,0,0-1.12,0l0,0a.8.8,0,0,0,0,1.13.82.82,0,0,0,1.12,0l0,0a.8.8,0,0,0,0-1.13.82.82,0,0,0-1.12,0l0,0a.8.8,0,0,0,0,1.13.82.82,0,0,0,1.12,0Z"/><path class="cls-12" d="M159.85,261h.07a.67.67,0,0,0,.31-.07.6.6,0,0,0,.25-.16.62.62,0,0,0,.17-.26.64.64,0,0,0,.07-.31l0-.21a.84.84,0,0,0-.21-.35l-.16-.12a.8.8,0,0,0-.4-.11h-.07a.64.64,0,0,0-.31.07.66.66,0,0,0-.42.42.64.64,0,0,0-.07.31l0,.21a.94.94,0,0,0,.2.35l.17.12a.77.77,0,0,0,.4.11Z"/><path class="cls-12" d="M162.28,259.31h-.08a1,1,0,0,0-.56.23.71.71,0,0,0-.16.26.64.64,0,0,0-.07.31l0,.21a.82.82,0,0,0,.2.35l.16.12a.83.83,0,0,0,.4.11h.08a.89.89,0,0,0,.56-.23.73.73,0,0,0,.17-.26.54.54,0,0,0,.06-.31l0-.21a.84.84,0,0,0-.21-.35l-.16-.12a.8.8,0,0,0-.4-.11Z"/><path class="cls-12" d="M164.36,260.61a.8.8,0,0,0,0-1.59.8.8,0,0,0,0,1.59Z"/><path class="cls-12" d="M166.32,260.69a.8.8,0,0,0,0-1.59.8.8,0,0,0,0,1.59Z"/><path class="cls-10" d="M178.14,254.93,179.5,271a4.12,4.12,0,0,0,.54,2c.84,1.24,2.64,1.2,4.13,1a121.58,121.58,0,0,1,21.33-.29c1.61.12,3.45.19,4.57-1,1-1,1-2.62,1-4-.18-6-.37-12-1.8-17.84a4.6,4.6,0,0,0-1.28-2.56,4.93,4.93,0,0,0-2.81-.79l-12-.83c-3.56-.25-7.91-.53-11.44.26S177.87,251.85,178.14,254.93Z"/><path class="cls-11" d="M182.27,258.92a3.53,3.53,0,0,0-1,2.46,3.42,3.42,0,0,0,.84,1.55,42,42,0,0,0,9.56,8.62,6.83,6.83,0,0,0,3.74,1.42,7,7,0,0,0,4.12-2,49.72,49.72,0,0,0,7.36-7.57,3.31,3.31,0,0,0,.87-1.75,3.41,3.41,0,0,0-1.05-2.23c-2.15-2.55-4.48-4.93-6.86-7.26-1.62-1.61-4.14-5.16-6.73-4.95-2.16.17-3.69,2.84-4.93,4.32C186.2,254,184.16,256.37,182.27,258.92Z"/><path class="cls-11" d="M187.8,249.85a.85.85,0,0,0,.36-.64c0-.29-.35-.46-.63-.56a13.22,13.22,0,0,0-5-.81,3.14,3.14,0,0,0-1.55.36,3.4,3.4,0,0,0-1.15,2.79,45.62,45.62,0,0,0,.08,7.3,1,1,0,0,0,.59.93c1.19-1.55,2.09-3.34,3.3-4.9A42.22,42.22,0,0,1,187.8,249.85Z"/><path class="cls-11" d="M190.3,272c.27.19.58.47.51.8s-.6.44-1,.42l-5.65-.33a4.59,4.59,0,0,1-2.71-.73c-1-.81-1.13-2.24-1.2-3.52,0-.84-.69-4.06.1-4.6s2.2,1.68,2.74,2.24A47.44,47.44,0,0,0,190.3,272Z"/><path class="cls-11" d="M206.29,272.55a3.44,3.44,0,0,0,1.34-.37,3.33,3.33,0,0,0,1.25-2.11c.27-.94.5-1.89.68-2.84a6.58,6.58,0,0,0,0-3.55.68.68,0,0,0-.25-.37c-.31-.2-.69.11-.93.39a93.08,93.08,0,0,1-7.16,7.56c-.6.56-1.32,1.07-.42,1.51C202.25,273.51,204.72,272.36,206.29,272.55Z"/><path class="cls-11" d="M207.8,259.36a1.08,1.08,0,0,0,.71.46c.56,0,.78-.71.79-1.28a35,35,0,0,0-1-7.62c-.2-1-.52-2.16-1.46-2.58a3.16,3.16,0,0,0-1.47-.17c-1.79.06-3.63,0-5.44.17a.94.94,0,0,0-.73,1.41,29.23,29.23,0,0,0,3.47,3.88C204.39,255.54,206.15,257.41,207.8,259.36Z"/><path class="cls-12" d="M194.22,250.82a.8.8,0,0,0,0-1.59.8.8,0,0,0,0,1.59Z"/><path class="cls-12" d="M194.29,253.4a.8.8,0,0,0,0-1.59.8.8,0,0,0,0,1.59Z"/><path class="cls-12" d="M194.45,254.33h0a.79.79,0,0,0-.79.8.8.8,0,0,0,.79.79h0a.8.8,0,0,0,0-1.59h0a.79.79,0,0,0-.79.8.8.8,0,0,0,.79.79h0a.8.8,0,0,0,0-1.59Z"/><path class="cls-12" d="M194.56,258.2a.8.8,0,0,0,0-1.59.8.8,0,0,0,0,1.59Z"/><path class="cls-12" d="M194.6,260.4a.8.8,0,0,0,0-1.59.8.8,0,0,0,0,1.59Z"/><path class="cls-12" d="M194.73,262.53a.8.8,0,0,0,0-1.59.8.8,0,0,0,0,1.59Z"/><path class="cls-12" d="M194.75,264.88a.8.8,0,0,0,0-1.59.8.8,0,0,0,0,1.59Z"/><path class="cls-12" d="M194.79,267.08a.79.79,0,0,0,0-1.58.79.79,0,0,0,0,1.58Z"/><path class="cls-12" d="M194.9,269.44a.8.8,0,0,0,0-1.59.8.8,0,0,0,0,1.59Z"/><path class="cls-12" d="M184.18,261.44a.8.8,0,0,0,0-1.59.8.8,0,0,0,0,1.59Z"/><path class="cls-12" d="M186,261.36a.8.8,0,0,0,0-1.59.8.8,0,0,0,0,1.59Z"/><path class="cls-12" d="M188.21,259.72h-.08a.6.6,0,0,0-.3.07.56.56,0,0,0-.26.17.51.51,0,0,0-.16.25.57.57,0,0,0-.07.31l0,.21a.73.73,0,0,0,.2.35l.16.12a.73.73,0,0,0,.4.11h.08a.51.51,0,0,0,.3-.07.66.66,0,0,0,.42-.42.51.51,0,0,0,.07-.3l0-.21a.72.72,0,0,0-.2-.36l-.16-.12a.8.8,0,0,0-.4-.11Z"/><path class="cls-12" d="M191.27,260.56v-.05c.06-.43-.4-.79-.79-.79a.82.82,0,0,0-.8.79v.05a.8.8,0,0,0,.79.79.81.81,0,0,0,.8-.79v-.05c.06-.43-.4-.79-.79-.79a.82.82,0,0,0-.8.79v.05a.8.8,0,0,0,.79.79.81.81,0,0,0,.8-.79Z"/><path class="cls-12" d="M193.47,260.51v0a.8.8,0,1,0-1.59,0v0a.8.8,0,0,0,.79.8.82.82,0,0,0,.8-.8v0a.8.8,0,1,0-1.59,0v0a.8.8,0,0,0,.79.8.82.82,0,0,0,.8-.8Z"/><path class="cls-12" d="M197.26,261l0,0a.79.79,0,0,0,0-1.12.81.81,0,0,0-1.12,0l0,0a.8.8,0,0,0,0,1.13.82.82,0,0,0,1.12,0l0,0a.79.79,0,0,0,0-1.12.81.81,0,0,0-1.12,0l0,0a.8.8,0,0,0,0,1.13.82.82,0,0,0,1.12,0Z"/><path class="cls-12" d="M198.68,261.11h.07a.64.64,0,0,0,.31-.07.62.62,0,0,0,.26-.17.6.6,0,0,0,.16-.25.67.67,0,0,0,.07-.31l0-.21a.94.94,0,0,0-.2-.35l-.17-.12a.69.69,0,0,0-.4-.11h-.07a.57.57,0,0,0-.31.07.51.51,0,0,0-.25.16.56.56,0,0,0-.17.26.6.6,0,0,0-.07.3l0,.21a.82.82,0,0,0,.21.36l.16.12a.8.8,0,0,0,.4.11Z"/><path class="cls-12" d="M201.11,259.43H201a.57.57,0,0,0-.31.07.51.51,0,0,0-.25.16.56.56,0,0,0-.17.26.6.6,0,0,0-.07.3l0,.21a.82.82,0,0,0,.21.36l.16.12a.77.77,0,0,0,.4.11h.07a.67.67,0,0,0,.31-.07.81.81,0,0,0,.42-.42.67.67,0,0,0,.07-.31l0-.21a.84.84,0,0,0-.21-.35l-.16-.12a.69.69,0,0,0-.4-.11Z"/><path class="cls-12" d="M203.19,260.73a.8.8,0,0,0,0-1.59.8.8,0,0,0,0,1.59Z"/><path class="cls-12" d="M205.15,260.81a.8.8,0,0,0,0-1.59.8.8,0,0,0,0,1.59Z"/><path class="cls-10" d="M145,287.47l2.86,14.7a4,4,0,0,0,.69,1.82c.9,1.06,2.56.84,3.92.55a113,113,0,0,1,19.65-2.37c1.5-.05,3.21-.17,4.12-1.36s.67-2.52.49-3.83c-.76-5.5-1.52-11.06-3.42-16.28a4.3,4.3,0,0,0-1.44-2.23,4.49,4.49,0,0,0-2.67-.45l-11.15.42c-3.31.12-7.35.3-10.53,1.37S144.47,284.65,145,287.47Z"/><path class="cls-11" d="M149.23,290.74a3.18,3.18,0,0,0-.64,2.36,3.11,3.11,0,0,0,.92,1.35,38.78,38.78,0,0,0,9.67,7,5,5,0,0,0,7.2-1.31,45.53,45.53,0,0,0,6-7.71,3,3,0,0,0,.63-1.7,3.21,3.21,0,0,0-1.19-2c-2.23-2.13-4.62-4.1-7-6-1.67-1.32-4.34-4.34-6.71-3.9-2,.37-3.12,3-4.12,4.48C152.36,285.77,150.71,288.2,149.23,290.74Z"/><path class="cls-11" d="M153.43,281.82a.78.78,0,0,0,.26-.62c-.05-.27-.36-.39-.63-.46a12.25,12.25,0,0,0-4.67-.25,2.84,2.84,0,0,0-1.4.49,3.14,3.14,0,0,0-.78,2.68,41.21,41.21,0,0,0,.8,6.73.91.91,0,0,0,.63.8c.94-1.55,1.6-3.29,2.56-4.85A39.91,39.91,0,0,1,153.43,281.82Z"/><path class="cls-11" d="M157.93,302c.27.15.59.37.55.68s-.51.47-.88.49l-5.25.26a4.24,4.24,0,0,1-2.57-.41c-1-.64-1.27-1.95-1.45-3.13-.12-.76-1-3.67-.37-4.25s2.2,1.34,2.75,1.79A43.75,43.75,0,0,0,157.93,302Z"/><path class="cls-11" d="M172.74,300.93a2.4,2.4,0,0,0,2.14-2.54c.16-.89.27-1.79.35-2.69a6.13,6.13,0,0,0-.38-3.27.61.61,0,0,0-.27-.32c-.31-.15-.63.17-.82.45a88,88,0,0,1-5.86,7.69c-.5.58-1.11,1.11-.24,1.43C169.1,302.22,171.27,300.92,172.74,300.93Z"/><path class="cls-11" d="M172.82,288.62a1,1,0,0,0,.7.35c.53,0,.66-.74.61-1.26a32.78,32.78,0,0,0-1.66-6.94c-.28-.91-.69-1.94-1.59-2.24a3.21,3.21,0,0,0-1.38,0c-1.65.24-3.35.41-5,.7a.88.88,0,0,0-.54,1.38,28.07,28.07,0,0,0,3.59,3.23C169.3,285.43,171.11,287,172.82,288.62Z"/><path class="cls-12" d="M159.36,282.08a.74.74,0,0,0,0-1.47.74.74,0,0,0,0,1.47Z"/><path class="cls-12" d="M159.69,284.46a.74.74,0,0,0,0-1.48.74.74,0,0,0,0,1.48Z"/><path class="cls-12" d="M160.08,285.29h0a.74.74,0,0,0,0,1.47h0a.74.74,0,0,0,0-1.47h0a.74.74,0,0,0,0,1.47h0a.74.74,0,0,0,0-1.47Z"/><path class="cls-12" d="M160.41,288.86a.74.74,0,0,0,0-1.47.74.74,0,0,0,0,1.47Z"/><path class="cls-12" d="M160.67,290.89a.74.74,0,0,0,0-1.48.74.74,0,0,0,0,1.48Z"/><path class="cls-12" d="M161,292.84a.74.74,0,0,0,0-1.47.74.74,0,0,0,0,1.47Z"/><path class="cls-12" d="M161.25,295a.74.74,0,0,0,0-1.48.74.74,0,0,0,0,1.48Z"/><path class="cls-12" d="M161.51,297a.74.74,0,0,0,0-1.47.74.74,0,0,0,0,1.47Z"/><path class="cls-12" d="M161.84,299.2a.74.74,0,0,0,0-1.47.74.74,0,0,0,0,1.47Z"/><path class="cls-12" d="M151.16,292.88a.74.74,0,0,0,0-1.47.74.74,0,0,0,0,1.47Z"/><path class="cls-12" d="M152.84,292.62a.74.74,0,0,0,0-1.48.74.74,0,0,0,0,1.48Z"/><path class="cls-12" d="M154.86,290.89h-.07a.55.55,0,0,0-.28.07.63.63,0,0,0-.39.39.55.55,0,0,0-.07.28l0,.2a.8.8,0,0,0,.19.32l.15.12a.69.69,0,0,0,.37.1h.07a.72.72,0,0,0,.29-.06.79.79,0,0,0,.39-.39.72.72,0,0,0,.06-.29l0-.19a.69.69,0,0,0-.19-.33l-.15-.11a.69.69,0,0,0-.37-.1Z"/><path class="cls-12" d="M157.69,291.44v-.05a.74.74,0,0,0-1.47,0v.05a.74.74,0,0,0,1.47,0v-.05a.74.74,0,0,0-1.47,0v.05a.74.74,0,0,0,1.47,0Z"/><path class="cls-12" d="M159.72,291.18v-.05a.74.74,0,0,0-1.47,0v.05a.74.74,0,0,0,1.48,0v-.05a.74.74,0,0,0-1.47,0v.05a.74.74,0,0,0,1.48,0Z"/><path class="cls-12" d="M163.21,291.18l0,0c.68-.67-.36-1.71-1-1l0,0c-.68.66.37,1.7,1.05,1l0,0c.68-.67-.36-1.71-1-1l0,0c-.68.66.37,1.7,1.05,1Z"/><path class="cls-12" d="M164.5,291.14h.07a.59.59,0,0,0,.29-.07.51.51,0,0,0,.23-.15.54.54,0,0,0,.16-.24.67.67,0,0,0,.06-.28l0-.2a.7.7,0,0,0-.19-.32l-.15-.12a.69.69,0,0,0-.37-.1h-.07a.67.67,0,0,0-.28.06.54.54,0,0,0-.24.16.51.51,0,0,0-.15.23.59.59,0,0,0-.07.29l0,.19a.78.78,0,0,0,.19.33l.15.11a.8.8,0,0,0,.37.11Z"/><path class="cls-12" d="M166.74,289.33h-.07a.59.59,0,0,0-.29.07.51.51,0,0,0-.23.15.54.54,0,0,0-.16.24.67.67,0,0,0-.06.28l0,.2a.7.7,0,0,0,.19.32l.15.12a.66.66,0,0,0,.37.1h.07a.67.67,0,0,0,.28-.06.54.54,0,0,0,.24-.16.51.51,0,0,0,.15-.23.59.59,0,0,0,.07-.29l0-.19a.78.78,0,0,0-.19-.33l-.15-.11a.7.7,0,0,0-.37-.11Z"/><path class="cls-12" d="M168.63,290.34a.74.74,0,0,0,0-1.47.74.74,0,0,0,0,1.47Z"/><path class="cls-12" d="M170.44,290.22a.74.74,0,0,0,0-1.47.74.74,0,0,0,0,1.47Z"/><path class="cls-10" d="M180.72,285.94l.73,15a3.84,3.84,0,0,0,.42,1.9c.75,1.17,2.42,1.19,3.81,1.1a113.64,113.64,0,0,1,19.78.46c1.49.16,3.2.29,4.27-.76s1-2.39,1-3.72c0-5.55.07-11.16-1.06-16.6a4.21,4.21,0,0,0-1.11-2.41A4.48,4.48,0,0,0,206,280l-11.1-1.18c-3.29-.35-7.32-.75-10.62-.14S180.58,283.07,180.72,285.94Z"/><path class="cls-11" d="M184.42,289.78a3.27,3.27,0,0,0-1,2.25,3.16,3.16,0,0,0,.73,1.46,38.4,38.4,0,0,0,8.57,8.31,6.33,6.33,0,0,0,3.42,1.45,6.45,6.45,0,0,0,3.88-1.72,45.43,45.43,0,0,0,7.09-6.77,3,3,0,0,0,.86-1.59,3.14,3.14,0,0,0-.9-2.11c-1.9-2.43-4-4.72-6.11-7-1.46-1.53-3.67-4.91-6.08-4.81-2,.08-3.51,2.51-4.71,3.84C188.23,285.31,186.26,287.48,184.42,289.78Z"/><path class="cls-11" d="M189.86,281.55a.76.76,0,0,0,.34-.58c0-.27-.3-.44-.56-.54a12.25,12.25,0,0,0-4.59-.92,2.86,2.86,0,0,0-1.45.28,3.16,3.16,0,0,0-1.16,2.55,43.86,43.86,0,0,0-.17,6.78.91.91,0,0,0,.52.87c1.15-1.39,2.05-3,3.22-4.43A38.35,38.35,0,0,1,189.86,281.55Z"/><path class="cls-11" d="M191.43,302.17c.24.19.52.46.44.76s-.57.39-.93.36l-5.24-.49a4.3,4.3,0,0,1-2.49-.78c-.89-.78-1-2.11-1-3.3,0-.78-.5-3.78.25-4.26s2,1.63,2.46,2.16A43.53,43.53,0,0,0,191.43,302.17Z"/><path class="cls-11" d="M206.24,303.22a2.42,2.42,0,0,0,2.49-2.21c.27-.86.51-1.73.72-2.62a6,6,0,0,0,.09-3.28.61.61,0,0,0-.22-.36c-.28-.19-.65.08-.88.33a88.14,88.14,0,0,1-6.89,6.78c-.58.5-1.26.94-.44,1.38C202.46,304,204.79,303,206.24,303.22Z"/><path class="cls-11" d="M208.08,291a1,1,0,0,0,.64.46c.52,0,.75-.64.78-1.17a32.65,32.65,0,0,0-.65-7.1c-.15-.94-.4-2-1.26-2.44a3,3,0,0,0-1.36-.21c-1.67,0-3.37-.08-5,0a.87.87,0,0,0-.73,1.28,26.83,26.83,0,0,0,3.1,3.71C205.05,287.39,206.62,289.17,208.08,291Z"/><path class="cls-12" d="M195.8,282.66a.74.74,0,0,0,0-1.47.74.74,0,0,0,0,1.47Z"/><path class="cls-12" d="M195.78,285.06a.74.74,0,0,0,0-1.47.74.74,0,0,0,0,1.47Z"/><path class="cls-12" d="M196,286h0a.75.75,0,0,0-.9.52.74.74,0,0,0,.51.91h0a.77.77,0,0,0,.91-.51A.74.74,0,0,0,196,286h0a.75.75,0,0,0-.9.52.74.74,0,0,0,.51.91h0a.77.77,0,0,0,.91-.51A.74.74,0,0,0,196,286Z"/><path class="cls-12" d="M195.86,289.52a.74.74,0,0,0,0-1.47.74.74,0,0,0,0,1.47Z"/><path class="cls-12" d="M195.83,291.56a.74.74,0,0,0,0-1.47.74.74,0,0,0,0,1.47Z"/><path class="cls-12" d="M195.88,293.55a.74.74,0,0,0,0-1.48.74.74,0,0,0,0,1.48Z"/><path class="cls-12" d="M195.82,295.73a.74.74,0,0,0,0-1.48.74.74,0,0,0,0,1.48Z"/><path class="cls-12" d="M195.79,297.77a.74.74,0,0,0,0-1.48.74.74,0,0,0,0,1.48Z"/><path class="cls-12" d="M195.8,300a.74.74,0,0,0,0-1.48.74.74,0,0,0,0,1.48Z"/><path class="cls-12" d="M186.13,292.18a.74.74,0,0,0,0-1.48.74.74,0,0,0,0,1.48Z"/><path class="cls-12" d="M187.83,292.16a.74.74,0,0,0,0-1.48.74.74,0,0,0,0,1.48Z"/><path class="cls-12" d="M190.07,290.74H190a.85.85,0,0,0-.57.08.63.63,0,0,0-.21.19.66.66,0,0,0-.13.25l0,.2a.71.71,0,0,0,.1.37l.11.15a.78.78,0,0,0,.33.19h.07a.57.57,0,0,0,.29,0,.49.49,0,0,0,.28-.09.52.52,0,0,0,.2-.19.47.47,0,0,0,.13-.25l0-.19a.72.72,0,0,0-.1-.38l-.12-.15a.8.8,0,0,0-.32-.19Z"/><path class="cls-12" d="M192.68,291.77v0a.75.75,0,0,0-.51-.9.74.74,0,0,0-.91.51v0a.76.76,0,0,0,.52.91.73.73,0,0,0,.9-.51v0a.75.75,0,0,0-.51-.9.74.74,0,0,0-.91.51v0a.76.76,0,0,0,.52.91.73.73,0,0,0,.9-.51Z"/><path class="cls-12" d="M194.73,291.8v0a.77.77,0,0,0-.51-.91.74.74,0,0,0-.91.51v.05a.75.75,0,0,0,.52.9.74.74,0,0,0,.91-.51v0a.77.77,0,0,0-.51-.91.74.74,0,0,0-.91.51v.05a.75.75,0,0,0,.52.9.74.74,0,0,0,.91-.51Z"/><path class="cls-12" d="M198.13,292.25l0,0a.76.76,0,0,0,.27-1,.75.75,0,0,0-1-.27l0,0a.77.77,0,0,0-.26,1,.74.74,0,0,0,1,.26l0,0a.76.76,0,0,0,.27-1,.75.75,0,0,0-1-.27l0,0a.77.77,0,0,0-.26,1,.74.74,0,0,0,1,.26Z"/><path class="cls-12" d="M199.39,292.33h.07a.51.51,0,0,0,.3,0,.53.53,0,0,0,.27-.08.55.55,0,0,0,.21-.19.6.6,0,0,0,.13-.25l0-.2a.79.79,0,0,0-.1-.37l-.12-.15a.69.69,0,0,0-.33-.19h-.06a.76.76,0,0,0-.57.07.55.55,0,0,0-.21.19.6.6,0,0,0-.13.25l0,.2a.79.79,0,0,0,.1.37l.12.15a.7.7,0,0,0,.32.19Z"/><path class="cls-12" d="M202.05,290.9H202a.61.61,0,0,0-.3,0,.51.51,0,0,0-.27.09.48.48,0,0,0-.21.19.55.55,0,0,0-.13.25l0,.2a.82.82,0,0,0,.1.37l.12.15a.8.8,0,0,0,.32.19h.07a.61.61,0,0,0,.3,0,.44.44,0,0,0,.27-.09.48.48,0,0,0,.21-.19.55.55,0,0,0,.13-.25l0-.19a.83.83,0,0,0-.1-.38l-.12-.15a.8.8,0,0,0-.32-.19Z"/><path class="cls-12" d="M203.79,292.16a.74.74,0,0,0,0-1.48.74.74,0,0,0,0,1.48Z"/><path class="cls-12" d="M205.6,292.3a.74.74,0,0,0,0-1.48.74.74,0,0,0,0,1.48Z"/><path class="cls-13" d="M98.34,317.18a40.57,40.57,0,0,0-20.29,3.44c-.93.41-1.84.87-2.74,1.32,1.41-1.84,3.65-2.81,5.8-3.7L70.34,319a18.56,18.56,0,0,0,5-1.85c-4.45-2.08-9.57.71-14.48.86a66.65,66.65,0,0,1,23.86-3.43,3.71,3.71,0,0,0-.49-2.16,3,3,0,0,0,1.64,1c.65.07,1.39-.55,1.16-1.17a22.22,22.22,0,0,0,7.72,1.59,5,5,0,0,1,1.86.28,13.79,13.79,0,0,0-3.24,2.34A19.75,19.75,0,0,1,98.34,317.18Z"/><path class="cls-13" d="M121.39,376.24a58.52,58.52,0,0,0-8.19,24,94.73,94.73,0,0,0-.16,10.66c.11,5.23-2.55,26.43-3.48,30.55,5.66,1.52,14.61,0,20.47,0,2.35-19.53.12-39.7,5.53-58.61.89-3.14,2-6.29,2-9.56s-1.32-6.79-4.2-8.34c-1-.53-4-1.89-5.06-1.6-1.48.4-1.34,2-1.85,3.4C125.27,370.16,123.2,373.17,121.39,376.24Z"/><path class="cls-4" d="M230.53,445.79c-2.59,1.24-8.08,3.84-10.91,3.29-13.89-2.68-28.2-1-42.33-.37-17.46.73-41.69-.9-59.13-1.92,2.31-13.14,5.19-25.93,5.28-39.27a67.3,67.3,0,0,1,7.28-29.87c2-3.91,4.4-7.77,4.87-12.13-.49,4.65,24.43,5.57,27.11,5.76a277.05,277.05,0,0,0,31.83.4c6.54-.29,13.72.74,19.48-3.12,1.44-1,2.87-2.26,4.61-2.25,4.32,0,4.36,7,4.66,9.88q1.28,12.12,2.22,24.26C226.14,408.54,232,445.07,230.53,445.79Z"/><path class="cls-14" d="M221,372.85c-17.2,4.44-35.34,2.54-52.94.14q-15.74-2.14-31.4-4.79c-3.82-.65-7.6-1.13-11.4-.34l.17-.2a18.65,18.65,0,0,0,1-5.86c1-.93,2.65-.76,4-.53,29.37,4.85,59.38,10.39,88.71,5.29C219.91,368.78,220.28,370.63,221,372.85Z"/><path class="cls-15" d="M164.48,365.76c-.28,2.45-.35,4.73-.62,7.18a1.17,1.17,0,0,1-1.17.48c-1.57-.15-2.92-.74-4.49-.89l.7-7.88a3,3,0,0,1,1-.09C161.46,364.71,162.92,365.61,164.48,365.76Z"/><path class="cls-14" d="M163.22,367.64a1,1,0,0,0-1,.11,1.91,1.91,0,0,0,.38-.47c.2-.31-.27-.38-.48-.33a1.21,1.21,0,0,0-.69.55,1.36,1.36,0,0,0-.17-.41c-.23-.38-1.06-.71-1.18-.06a1,1,0,0,0,.29.93,2.1,2.1,0,0,0-.53-.29c-.35-.13-.33.35-.23.54a1,1,0,0,0,.42.44,1.55,1.55,0,0,0-.31.07c-.42.16-.9.91-.29,1.15a1,1,0,0,0,1-.11,2.12,2.12,0,0,0-.38.47c-.2.32.27.39.48.34a1.21,1.21,0,0,0,.69-.55,1.48,1.48,0,0,0,.17.41c.23.38,1.06.71,1.18.06a1,1,0,0,0-.29-.93,2.07,2.07,0,0,0,.53.28c.35.13.33-.34.23-.53a1,1,0,0,0-.42-.44,1.57,1.57,0,0,0,.31-.08C163.35,368.64,163.83,367.89,163.22,367.64Zm-1.95,1.43-.19-.23.33-.4.19.24Z"/><path class="cls-15" d="M150,363.83c-.27,2.5-.34,4.82-.61,7.32a1.09,1.09,0,0,1-1.12.47c-1.57-.15-3-.73-4.54-.89l.7-8a2.79,2.79,0,0,1,1-.09C147,362.76,148.41,363.67,150,363.83Z"/><path class="cls-14" d="M148.71,365.51a1,1,0,0,0-1,.11,2.12,2.12,0,0,0,.38-.47c.2-.32-.27-.39-.48-.34a1.21,1.21,0,0,0-.69.55,1.36,1.36,0,0,0-.17-.41c-.23-.38-1.06-.71-1.18-.06a1,1,0,0,0,.29.93,2.07,2.07,0,0,0-.53-.28c-.35-.14-.33.34-.24.53a1.14,1.14,0,0,0,.43.44,1.57,1.57,0,0,0-.31.08c-.42.15-.9.9-.29,1.15a1,1,0,0,0,1-.11,1.87,1.87,0,0,0-.38.46c-.2.32.27.39.48.34a1.21,1.21,0,0,0,.69-.55,1.36,1.36,0,0,0,.17.41c.23.38,1.06.71,1.18.06a1,1,0,0,0-.29-.93,2.1,2.1,0,0,0,.53.29c.35.13.33-.35.23-.54a1,1,0,0,0-.42-.44l.31-.07C148.84,366.5,149.32,365.75,148.71,365.51Zm-2,1.43-.19-.24.33-.39.19.23Z"/><path class="cls-15" d="M168.42,367.41a1.92,1.92,0,0,0-1-.42,1.7,1.7,0,0,1,1-.55,2.15,2.15,0,0,1,1.87.65,2.1,2.1,0,0,1,2.64.39,2,2,0,0,0-1.7.43,1.07,1.07,0,0,0-.46,1.08,1.87,1.87,0,0,1-1.22.22c-.18,0-.62.14-.67-.06s.2-.52.21-.66A1.22,1.22,0,0,0,168.42,367.41Z"/><path class="cls-15" d="M171,373a2,2,0,0,0,1,.43,1.58,1.58,0,0,1-.95.54,2.15,2.15,0,0,1-1.88-.64,2.1,2.1,0,0,1-2.64-.33,2,2,0,0,0,1.71-.5,1.06,1.06,0,0,0,.46-1.07,1.85,1.85,0,0,1,1.22-.23c.18,0,.48.14.54.34s-.06.25-.09.38A1.18,1.18,0,0,0,171,373Z"/><path class="cls-15" d="M172.69,368.85a2,2,0,0,0,.42-1,1.58,1.58,0,0,1,.54.95,2.15,2.15,0,0,1-.64,1.88,2,2,0,0,1-.54,2.51c.06-.72.18-1-.28-1.58a1.08,1.08,0,0,0-1.08-.46,1.91,1.91,0,0,1-.23-1.22c0-.18-.08-.37.12-.42a4.14,4.14,0,0,1,.61,0A1.35,1.35,0,0,0,172.69,368.85Z"/><path class="cls-15" d="M166.85,371.7a2,2,0,0,0-.42,1,1.62,1.62,0,0,1-.55-1,2.16,2.16,0,0,1,.65-1.88,2,2,0,0,1,.44-2.6,1.87,1.87,0,0,0,.38,1.67,1.07,1.07,0,0,0,1.08.46,1.84,1.84,0,0,1,.22,1.22c0,.18.06.32-.14.38s-.38,0-.56,0A1.83,1.83,0,0,0,166.85,371.7Z"/><circle class="cls-15" cx="169.76" cy="370.28" r="1.7"/><path class="cls-15" d="M178.05,368.44a2,2,0,0,0-1-.43,1.61,1.61,0,0,1,.95-.54,2.14,2.14,0,0,1,1.88.64,2.1,2.1,0,0,1,2.64.4,2,2,0,0,0-1.71.43,1.07,1.07,0,0,0-.45,1.07,1.87,1.87,0,0,1-1.22.23c-.19,0-.62.14-.68-.07s.21-.52.22-.65A1.2,1.2,0,0,0,178.05,368.44Z"/><path class="cls-15" d="M180.65,374a2,2,0,0,0,1,.42,1.62,1.62,0,0,1-.95.55,2.16,2.16,0,0,1-1.88-.65,2.09,2.09,0,0,1-2.65-.33,2,2,0,0,0,1.72-.49,1.09,1.09,0,0,0,.46-1.08,1.84,1.84,0,0,1,1.22-.22c.18,0,.48.13.54.34s-.06.25-.09.38A1.19,1.19,0,0,0,180.65,374Z"/><path class="cls-15" d="M182.31,369.87a1.94,1.94,0,0,0,.43-1,1.63,1.63,0,0,1,.54,1,2.13,2.13,0,0,1-.64,1.87,2,2,0,0,1-.55,2.52c.07-.72.19-1-.27-1.58a1.08,1.08,0,0,0-1.08-.46,1.92,1.92,0,0,1-.23-1.22c0-.18-.08-.37.12-.43a6,6,0,0,1,.6,0A1.31,1.31,0,0,0,182.31,369.87Z"/><path class="cls-15" d="M176.48,372.73a2.06,2.06,0,0,0-.43,1,1.63,1.63,0,0,1-.54-1,2.15,2.15,0,0,1,.65-1.87,2.06,2.06,0,0,1,.44-2.61A1.84,1.84,0,0,0,177,370a1.06,1.06,0,0,0,1.07.46,1.81,1.81,0,0,1,.23,1.22c0,.18.06.33-.14.38s-.38,0-.56,0A1.8,1.8,0,0,0,176.48,372.73Z"/><circle class="cls-15" cx="179.38" cy="371.31" r="1.7"/><path class="cls-15" d="M127.93,361.57a2,2,0,0,0-1.07-.34,1.7,1.7,0,0,1,.91-.64,2.2,2.2,0,0,1,2,.48,2.12,2.12,0,0,1,2.7.15,2,2,0,0,0-1.68.59,1.08,1.08,0,0,0-.36,1.13,1.89,1.89,0,0,1-1.21.35c-.19,0-.61.2-.69,0s.16-.54.16-.68A1.24,1.24,0,0,0,127.93,361.57Z"/><path class="cls-15" d="M131.08,366.93a2,2,0,0,0,1.07.34,1.63,1.63,0,0,1-.91.63,2.19,2.19,0,0,1-2-.47,2.13,2.13,0,0,1-2.7-.08,2.06,2.06,0,0,0,1.68-.66,1.08,1.08,0,0,0,.36-1.13,1.89,1.89,0,0,1,1.21-.35c.19,0,.51.09.58.29s0,.26,0,.39A1.19,1.19,0,0,0,131.08,366.93Z"/><path class="cls-15" d="M132.37,362.62a2,2,0,0,0,.34-1.08,1.69,1.69,0,0,1,.64.92,2.18,2.18,0,0,1-.48,2,2,2,0,0,1-.31,2.6c0-.74.09-1.06-.43-1.57a1.11,1.11,0,0,0-1.13-.37,1.85,1.85,0,0,1-.35-1.21c0-.18-.12-.36.08-.44a4.3,4.3,0,0,1,.61-.05A1.35,1.35,0,0,0,132.37,362.62Z"/><path class="cls-15" d="M126.75,366.05a2,2,0,0,0-.34,1.07,1.7,1.7,0,0,1-.64-.91,2.2,2.2,0,0,1,.48-2,2.07,2.07,0,0,1,.2-2.67,1.89,1.89,0,0,0,.54,1.65,1.08,1.08,0,0,0,1.13.36,1.89,1.89,0,0,1,.35,1.21c0,.19.09.33-.11.4s-.39,0-.57.06A1.82,1.82,0,0,0,126.75,366.05Z"/><circle class="cls-15" cx="129.55" cy="364.34" r="1.72"/><path class="cls-15" d="M136.83,362.66a1.93,1.93,0,0,0-1-.41,1.57,1.57,0,0,1,.94-.53,2.08,2.08,0,0,1,1.83.63,2,2,0,0,1,2.57.38,1.9,1.9,0,0,0-1.66.42,1.06,1.06,0,0,0-.45,1.05,1.76,1.76,0,0,1-1.19.22c-.18,0-.6.14-.66-.06s.21-.51.21-.64A1.18,1.18,0,0,0,136.83,362.66Z"/><path class="cls-15" d="M139.37,368.08a1.86,1.86,0,0,0,1,.42,1.62,1.62,0,0,1-.93.53,2.12,2.12,0,0,1-1.84-.63,2,2,0,0,1-2.58-.32,2,2,0,0,0,1.67-.48,1.06,1.06,0,0,0,.45-1.05,1.82,1.82,0,0,1,1.19-.23c.18,0,.47.14.53.34s-.06.24-.08.37A1.1,1.1,0,0,0,139.37,368.08Z"/><path class="cls-15" d="M141,364.06a1.86,1.86,0,0,0,.42-1,1.59,1.59,0,0,1,.53.93,2.1,2.1,0,0,1-.63,1.83,1.93,1.93,0,0,1-.53,2.46c.06-.7.18-1-.27-1.54a1,1,0,0,0-1-.45,1.85,1.85,0,0,1-.23-1.19c0-.18-.08-.36.12-.42a3.88,3.88,0,0,1,.59,0A1.3,1.3,0,0,0,141,364.06Z"/><path class="cls-15" d="M135.3,366.85a1.93,1.93,0,0,0-.42,1,1.59,1.59,0,0,1-.53-.93,2.1,2.1,0,0,1,.63-1.83,2,2,0,0,1,.43-2.55,1.85,1.85,0,0,0,.37,1.63,1,1,0,0,0,1.05.45,1.85,1.85,0,0,1,.23,1.19c0,.18.05.32-.15.37s-.37,0-.54,0A1.73,1.73,0,0,0,135.3,366.85Z"/><circle class="cls-15" cx="138.13" cy="365.47" r="1.66"/><path class="cls-15" d="M152.9,365.37A1.75,1.75,0,0,0,152,365a1.41,1.41,0,0,1,.85-.48,1.9,1.9,0,0,1,1.67.57,1.9,1.9,0,0,1,2.36.35,1.75,1.75,0,0,0-1.52.39,1,1,0,0,0-.41,1,1.66,1.66,0,0,1-1.09.2c-.16,0-.55.12-.6-.06s.18-.46.19-.58A1.07,1.07,0,0,0,152.9,365.37Z"/><path class="cls-15" d="M155.22,370.33a1.83,1.83,0,0,0,.91.38,1.41,1.41,0,0,1-.85.48,1.9,1.9,0,0,1-1.67-.57,1.89,1.89,0,0,1-2.37-.3,1.77,1.77,0,0,0,1.53-.44,1,1,0,0,0,.41-1,1.66,1.66,0,0,1,1.09-.2c.16,0,.43.12.48.3s-.05.22-.07.34A1,1,0,0,0,155.22,370.33Z"/><path class="cls-15" d="M156.7,366.65a1.72,1.72,0,0,0,.38-.91,1.5,1.5,0,0,1,.49.85,1.94,1.94,0,0,1-.58,1.68,1.76,1.76,0,0,1-.48,2.25c.06-.65.17-.92-.25-1.42a1,1,0,0,0-1-.41,1.64,1.64,0,0,1-.2-1.09c0-.16-.08-.32.1-.37a3.25,3.25,0,0,1,.54,0A1.18,1.18,0,0,0,156.7,366.65Z"/><path class="cls-15" d="M151.5,369.2a1.75,1.75,0,0,0-.38.91,1.47,1.47,0,0,1-.49-.85,1.91,1.91,0,0,1,.58-1.67,1.84,1.84,0,0,1,.39-2.33,1.68,1.68,0,0,0,.34,1.49.94.94,0,0,0,1,.41,1.73,1.73,0,0,1,.21,1.09c0,.16,0,.29-.13.34s-.34,0-.5,0A1.6,1.6,0,0,0,151.5,369.2Z"/><circle class="cls-15" cx="154.09" cy="367.94" r="1.52"/><path class="cls-15" d="M134.81,373.6c0,1.32.21,2.62.29,4,.11,1.72.15,3.45.1,5.17a1.6,1.6,0,0,0,.07.62,1.67,1.67,0,0,0,.24.35l1.1,1.34c-.12-.54.62-.88.77-1.4a1.78,1.78,0,0,0,0-.46c-.21-4.92-1.21-9.94-.12-14.81-.41,0-1.36-.16-1.71.1s-.3.9-.36,1.2c-.13.7-.24,1.42-.32,2.13A12.2,12.2,0,0,0,134.81,373.6Z"/><path class="cls-15" d="M137.12,373.64a34,34,0,0,0,.39,4.27,35.58,35.58,0,0,1,.23,4.84,1.12,1.12,0,0,0,.33,1l1.14,1.31c-.13-.53.6-.89.73-1.42a1.36,1.36,0,0,0,0-.45c-.17-2.52-.43-5-.69-7.54a26.88,26.88,0,0,1-.22-3.58c0-.33.19-3.69.4-3.69-.41,0-1.36-.13-1.7.15s-.33,1.09-.39,1.54c-.11.84-.2,1.68-.23,2.54C137.12,372.93,137.11,373.28,137.12,373.64Z"/><path class="cls-16" d="M193.1,363l-.47-.08a10.22,10.22,0,0,0-5.67.8,28.88,28.88,0,0,1-4.31,2,6.2,6.2,0,0,1-3.92-.29,2.28,2.28,0,0,0-1.15-.31,1.29,1.29,0,0,0-1,1.36,2.86,2.86,0,0,0,.78,1.64,7.67,7.67,0,0,0,5.18,2.54,9.3,9.3,0,0,0,5.63-1.48,9.6,9.6,0,0,1-4.06,2.93c-1.94.78-4.14.95-5.87,2.11a7.32,7.32,0,0,1-1.27.8,7.63,7.63,0,0,1-1.36.28,5.53,5.53,0,0,0-2.17.93,3.19,3.19,0,0,0-1.21,1.53,1.71,1.71,0,0,0,.47,1.81,2.71,2.71,0,0,0,2.19.23q5.31-1,10.55-2.23l-6.84,2c-1.39.39-2.79.79-4.16,1.23a6,6,0,0,0-3.38,2.08,2,2,0,0,0-.34,1.07,1.82,1.82,0,0,0,1.6,1.53,5.78,5.78,0,0,0,2.36-.3c1.11-.28,2.23-.52,3.35-.76L189.53,382c-1.77.92-3.47,1.67-5.24,2.59-.89.46-2,.91-2.83.33a6.51,6.51,0,0,0-.58-.46,1.31,1.31,0,0,0-1.77.81,2.37,2.37,0,0,0,.47,2.1,4.13,4.13,0,0,0,2.35,1.54,8,8,0,0,0,2.39.07,13.05,13.05,0,0,0,3.62-.59,12.61,12.61,0,0,0,2.2-1.11l2.31-1.35a35.57,35.57,0,0,1-6.89,2.95c2.07,1.21,5,1.92,7.07.72a15,15,0,0,0,2.55-2,76.34,76.34,0,0,1,8-6.35,32.53,32.53,0,0,0,6.47-5.32c.59-.7,1.11-1.45,1.72-2.13a18.14,18.14,0,0,1,2.73-2.37,62.54,62.54,0,0,1,6.48-4.22,1.23,1.23,0,0,0,.33-.26,1,1,0,0,0-.08-1A50.14,50.14,0,0,0,214,355.21l-11.27,6a21.93,21.93,0,0,1-4.71,2.06A10.16,10.16,0,0,1,193.1,363Z"/><path class="cls-3" d="M177.8,366.08a3,3,0,0,0,.94.42,1,1,0,0,0,.52,0,1,1,0,0,0,.68-.76,10.36,10.36,0,0,1-1.42-.49c-.05,0-.27-.16-.32-.13s-.08.26-.1.32A3.72,3.72,0,0,1,177.8,366.08Z"/><path class="cls-3" d="M172.89,377.86a1.88,1.88,0,0,1,1.07-.11.66.66,0,0,1,.36.23.92.92,0,0,1,.14.32,1.49,1.49,0,0,1,.1.72,1,1,0,0,1-.51.64,2.91,2.91,0,0,1-.8.27,1.1,1.1,0,0,1-.76,0,1.15,1.15,0,0,1-.46-.73c-.08-.25-.3-.75-.12-1S172.64,377.93,172.89,377.86Z"/><path class="cls-3" d="M172,383a1.41,1.41,0,0,1,1,0,.92.92,0,0,1,.3,1.14,1.9,1.9,0,0,1-.92.87,4.9,4.9,0,0,1-.52.24.92.92,0,0,1-.59.07,1,1,0,0,1-.53-.58c-.14-.3-.47-1-.17-1.27a3,3,0,0,1,.64-.22Z"/><path class="cls-3" d="M179.49,385.19a1.22,1.22,0,0,1,.07.38,1.37,1.37,0,0,1-.43.88,2.27,2.27,0,0,1-.15-.83A1.59,1.59,0,0,1,179,385c0-.11.15-.36.3-.3S179.47,385.1,179.49,385.19Z"/><path class="cls-17" d="M186.05,388.77s2.13.13,5.7-2.53C191.75,386.24,189.77,390.09,186.05,388.77Z"/><path class="cls-4" d="M228.84,264.72c-.18,1.52-.83,2.95-1.12,4.46a26.53,26.53,0,0,0,.07,6.72c.49,7.21-1,14.4-2.52,21.48-1,4.67-4.62,27.35-4,32.09.44,3.4-.92,11.34-2.84,13.59s-16.81,8-22.56,9a63.37,63.37,0,0,1,17.8,30.68c.44,1.79.7,4-.62,5.24-1.71,1.67-4.59.56-6.52-.85a29.68,29.68,0,0,1-4.65-4.17l-1,1.07c2.16,2.47,4.5,5.05,7.65,6,4.12,1.23,8.46-.68,12.34-2.55L239,378.78a50.31,50.31,0,0,0,8.42-4.72c6-4.47,9.83-11.56,11-19,.58-3.56,3.47-19.08,2.93-22.65-3.85-25.63-21.53-68.36-25.6-73.54-1.12-1.43-4.9-5.28-6.82-4S229.08,262.8,228.84,264.72Z"/><path class="cls-13" d="M219.3,339.76l6,3.78L223.91,341c6.9,4.66,13.87,9.35,21.62,12.38A119.75,119.75,0,0,1,226,338.6l6.26,2.36-8.63-6.56a1.06,1.06,0,0,0,.84-.74c-1.4-1.67-3.58-2.81-3.84-.12C220.63,333.74,220.53,340.54,219.3,339.76Z"/><path class="cls-18" d="M162.77,253.41A21.78,21.78,0,0,1,162,257a2.12,2.12,0,0,1-.93,1.39,3.42,3.42,0,0,1-1.5.1c-1.34,0-3.16.23-4,1.31s-1.55,2.05-2.3,3.17-1.37,3.72-1.3,2.56c.46-8.53-1.7-13.31-.77-15.47a3.61,3.61,0,0,1,.85-1.36c.74-.63,1.87-.56,2.66-1.11,1.65-1.14,1.08-3.54,1.08-5.25V230h30v11.87l-7.07,10.69-22.91,4.65V245.69"/><path class="cls-16" d="M175.76,180.07l-.85,54.49a3.68,3.68,0,0,1-3.11,4,5.45,5.45,0,0,1-1,.09l-1.31,0-4.73-.1a7,7,0,0,1-4-1.85l-9.93-10.18a8.73,8.73,0,0,1-2-4.55l-.38-8.38a4.67,4.67,0,0,0-1.38-3.32,4.72,4.72,0,0,1-1.37-3.33v-2.11a19.44,19.44,0,0,1,1.41-4.62,22.94,22.94,0,0,0,1.55-6l.29-14.18a4.69,4.69,0,0,1,4.7-4.7h17.54A4.67,4.67,0,0,1,175.76,180.07Z"/><path class="cls-16" d="M195.21,204.78v2.11a4.7,4.7,0,0,1-1.39,3.33,4.74,4.74,0,0,0-1.37,3.32l-1.19,9.84a4.72,4.72,0,0,1-1.38,3.33l-10,10.23a6,6,0,0,1-3.72,1.68l-4.31-.09-1.44,0a6.88,6.88,0,0,1-.92-.06,3.74,3.74,0,0,1-3.47-3.88l-.86-54.49a4.7,4.7,0,0,1,4.7-4.77h17.44A4.7,4.7,0,0,1,192,180l.29,14.18a22.94,22.94,0,0,0,1.55,6A19.6,19.6,0,0,1,195.21,204.78Z"/><path class="cls-16" d="M144.84,199.89a2,2,0,0,0-2.58,0,2.09,2.09,0,0,0-.74,2.62,13.29,13.29,0,0,0,1.1,2.24,9,9,0,0,1,1.07,3.18c.07.63.05,1.26.17,1.87a8.42,8.42,0,0,0,1.53,3l1.29,1.87c.39.56.94,1.2,1.61,1s.87-.81.9-1.42c.12-2.31-2-4.2-2.18-6.51-.13-1.54.59-3,.58-4.53,0-1.23-1.07-2.1-2-2.78A9.12,9.12,0,0,0,144.84,199.89Z"/><path class="cls-16" d="M195.63,199.89a2,2,0,0,1,2.58,0,2.1,2.1,0,0,1,.75,2.62,15,15,0,0,1-1.1,2.24,8.62,8.62,0,0,0-1.07,3.18c-.07.63-.06,1.26-.18,1.87a8.26,8.26,0,0,1-1.53,3l-1.29,1.87c-.39.56-.94,1.2-1.6,1a1.43,1.43,0,0,1-.91-1.42c-.12-2.31,2-4.2,2.19-6.51.13-1.54-.6-3-.59-4.53,0-1.23,1.07-2.1,2-2.78C195.12,200.25,195.38,200.05,195.63,199.89Z"/><path class="cls-19" d="M171.17,175.3h0c-.06.41-.14.82-.23,1.22-.61,2.76-1.6,5.58-1.06,8.36l-1.13,3.19a72.19,72.19,0,0,1,.67,7.35,7.74,7.74,0,0,1-.27,3c-.28.76-.49,1.56-.83,2.3a11.3,11.3,0,0,0-1.5,4c-.18,2.59.05,5.41-.12,8,0,.44-.84.71-.7,1.13.26.75,1.79,1.39,2.33,2,1.26,1.37,1.34,3.42,1.35,5.28,0,1.55,0,3.1,0,4.65,0,2.19,0,4.4-.17,6.58a21,21,0,0,0-.09,6.17.76.76,0,0,0,0,.16l-4.73-.1a7,7,0,0,1-4-1.85l-9.93-10.18a8.73,8.73,0,0,1-2-4.55l-.38-8.38a4.67,4.67,0,0,0-1.38-3.32,4.72,4.72,0,0,1-1.37-3.33v-2.11a19.44,19.44,0,0,1,1.41-4.62,22.94,22.94,0,0,0,1.55-6l.29-14.18a4.69,4.69,0,0,1,4.7-4.7Z"/><path class="cls-20" d="M192,196.27a21.08,21.08,0,0,1,1.44,4.32,13,13,0,0,1-.93,5.54c.21.28.62-.09.72-.42.45-1.51.22-3.3,1.27-4.48.47-.54,1.14-.86,1.59-1.41,1-1.25.57-3.1.16-4.68a34.29,34.29,0,0,1-1.12-8.43c0-2.88-3.14-1.37-3.68.45A15.5,15.5,0,0,0,192,196.27Z"/><path class="cls-20" d="M144.89,199a2,2,0,0,0,0,.54c.2.7,1.18.9,1.46,1.57.41.94-.83,1.94-.56,2.93a13,13,0,0,0,3.27-5.88,38.05,38.05,0,0,0,1.07-6.73,1.46,1.46,0,0,0,0-.75c-.2-.43-.75-.55-1.22-.6-1.89-.19-3.44-.42-3.63,1.74C145.06,194.21,145,196.62,144.89,199Z"/><path class="cls-21" d="M169.44,195.73a7.54,7.54,0,0,1,.1,3.45c-.37,1.26-1.26,2-1.52,2.95a3.82,3.82,0,0,0-.2,1.43l0,1.68c0,1.12-.06,2.25-.15,3.38a23.54,23.54,0,0,1-.51,3.39c-.07.28-.14.57-.23.85a4.11,4.11,0,0,0-.17.62s0,0,0-.08,0,0,.05,0a2.85,2.85,0,0,0,.57.31c1.61.74,3.91,0,6.22.21l0,.74c-1,.23-2.08.58-3.22.8a6.31,6.31,0,0,1-3.7-.2,4.81,4.81,0,0,1-.89-.48,1.8,1.8,0,0,1-.53-.56,1.52,1.52,0,0,1-.18-.89,4.6,4.6,0,0,1,.26-1c.09-.24.15-.5.22-.75a26.89,26.89,0,0,0,.58-3.17c.14-1.07.22-2.16.31-3.26l.09-1.64a5.21,5.21,0,0,1,.39-1.82c.49-1.2,1.45-1.93,1.79-2.81a7.88,7.88,0,0,0,.27-3.14Z"/><g class="cls-22"><path class="cls-23" d="M185.28,218.75a8,8,0,0,1,3.52-6.06"/><path class="cls-23" d="M155.52,220.92a8,8,0,0,0-3.51-6.06"/></g><path class="cls-24" d="M180,201.55a2,2,0,0,1-1.41-.61,1.93,1.93,0,0,1,.09-2.73,1.92,1.92,0,0,1,2.72.09,1.93,1.93,0,0,1-1.4,3.25Z"/><path class="cls-21" d="M180,197.76a1.85,1.85,0,0,1,1.26,3.21,1.81,1.81,0,0,1-1.26.51,1.86,1.86,0,1,1,0-3.72m0-.14a2,2,0,0,0-2,1.93,1.93,1.93,0,0,0,.54,1.43,2,2,0,0,0,3.45-1.29,2,2,0,0,0-.53-1.44,2,2,0,0,0-1.46-.63Z"/><circle class="cls-25" cx="179.96" cy="199.62" r="1.73"/><g class="cls-26"><g class="cls-27"><polygon class="cls-24" points="180.17 199.22 180.41 198.05 179.98 199.17 180.17 199.22"/><polygon class="cls-24" points="179.71 199.17 178.96 198.31 179.54 199.28 179.71 199.17"/><polygon class="cls-24" points="179.32 199.39 178.88 199.25 179.24 199.56 179.32 199.39"/><path class="cls-24" d="M180.48,199.53a.37.37,0,0,0,.23-.06l.19-.08.36-.16-.39.07-.2,0a.42.42,0,0,1-.15,0Z"/><polygon class="cls-24" points="180.5 199.34 180.95 198.93 180.39 199.18 180.5 199.34"/><polygon class="cls-24" points="180 199.14 179.9 197.79 179.8 199.14 180 199.14"/><path class="cls-24" d="M180.45,200a2.36,2.36,0,0,0,.78.2,2.36,2.36,0,0,1-.68-.37Z"/><polygon class="cls-24" points="179.81 199 179.44 198.49 179.63 199.09 179.81 199"/><path class="cls-24" d="M179.41,199.28A1.55,1.55,0,0,1,179,199a1.56,1.56,0,0,0,.35.47Z"/><path class="cls-24" d="M180.53,199.8a.79.79,0,0,0,.53-.06.74.74,0,0,1-.45-.12Z"/><polygon class="cls-24" points="180.43 199.19 180.66 198.71 180.26 199.08 180.43 199.19"/><polygon class="cls-24" points="179.41 199.54 178.22 199.45 179.39 199.73 179.41 199.54"/><polygon class="cls-24" points="179.42 200 178.66 200.86 179.55 200.15 179.42 200"/><polygon class="cls-24" points="179.68 200.36 179.61 200.81 179.87 200.42 179.68 200.36"/><path class="cls-24" d="M179.68,199.19a.45.45,0,0,0-.09-.22l-.1-.17-.21-.34.12.38.06.18a.31.31,0,0,1,0,.15Z"/><polygon class="cls-24" points="179.49 199.19 179.03 198.81 179.34 199.32 179.49 199.19"/><polygon class="cls-24" points="179.35 199.72 178.03 199.99 179.38 199.91 179.35 199.72"/><path class="cls-24" d="M180.19,199.16a2.22,2.22,0,0,0,.09-.8,2.23,2.23,0,0,1-.27.72Z"/><polygon class="cls-24" points="179.24 199.93 178.78 200.35 179.35 200.09 179.24 199.93"/><path class="cls-24" d="M179.57,200.29a1.45,1.45,0,0,1-.26.49,1.4,1.4,0,0,0,.43-.41Z"/><path class="cls-24" d="M179.94,199.1a.74.74,0,0,0-.13-.51.65.65,0,0,1-.06.46Z"/><polygon class="cls-24" points="179.34 199.29 178.84 199.11 179.26 199.47 179.34 199.29"/><polygon class="cls-24" points="179.82 200.25 179.89 201.45 180.02 200.25 179.82 200.25"/><polygon class="cls-24" points="180.28 200.18 181.23 200.82 180.41 200.03 180.28 200.18"/><polygon class="cls-24" points="180.6 199.87 181.06 199.89 180.64 199.68 180.6 199.87"/><path class="cls-24" d="M179.45,200a.64.64,0,0,0-.22.11l-.15.13-.31.25.36-.17.18-.08a.25.25,0,0,1,.14,0Z"/><polygon class="cls-24" points="179.47 200.22 179.15 200.73 179.62 200.35 179.47 200.22"/><polygon class="cls-24" points="180.01 200.28 180.45 201.56 180.2 200.23 180.01 200.28"/><path class="cls-24" d="M179.35,199.53a2.44,2.44,0,0,0-.81,0,2.07,2.07,0,0,1,.75.18Z"/><polygon class="cls-24" points="180.23 200.37 180.71 200.78 180.37 200.24 180.23 200.37"/><path class="cls-24" d="M180.54,200a1.54,1.54,0,0,1,.53.19,1.5,1.5,0,0,0-.46-.37Z"/><path class="cls-24" d="M179.33,199.78a.83.83,0,0,0-.5.19.75.75,0,0,1,.47,0Z"/><polygon class="cls-24" points="179.58 200.35 179.48 200.87 179.77 200.41 179.58 200.35"/><polygon class="cls-24" points="180.48 199.75 181.66 199.53 180.45 199.56 180.48 199.75"/><polygon class="cls-24" points="180.35 199.3 180.86 198.28 180.19 199.19 180.35 199.3"/><polygon class="cls-24" points="180 199.02 179.96 198.57 179.81 199.01 180 199.02"/><path class="cls-24" d="M180.31,200.15a.4.4,0,0,0,.14.2l.14.14.28.27-.2-.33-.11-.17a.62.62,0,0,1-.06-.14Z"/><polygon class="cls-24" points="180.49 200.1 181.04 200.36 180.6 199.94 180.49 200.1"/><polygon class="cls-24" points="180.49 199.56 181.7 198.96 180.41 199.38 180.49 199.56"/><path class="cls-24" d="M179.82,200.32a2.32,2.32,0,0,0,.11.79,2.4,2.4,0,0,1,.09-.76Z"/><polygon class="cls-24" points="180.54 199.33 180.88 198.8 180.39 199.21 180.54 199.33"/><path class="cls-24" d="M180.14,199.07a1.54,1.54,0,0,1,.11-.55,1.88,1.88,0,0,0-.31.51Z"/><path class="cls-24" d="M180.08,200.3a.77.77,0,0,0,.25.47.68.68,0,0,1-.05-.46Z"/><polygon class="cls-24" points="180.61 199.97 181.13 200.02 180.64 199.78 180.61 199.97"/><polygon class="cls-24" points="179.9 199.17 179.53 198.03 179.71 199.22 179.9 199.17"/><polygon class="cls-24" points="179.47 199.35 178.39 198.97 179.38 199.53 179.47 199.35"/><polygon class="cls-24" points="179.24 199.73 178.79 199.83 179.25 199.93 179.24 199.73"/><path class="cls-24" d="M180.32,199.28a.44.44,0,0,0,.17-.16l.12-.16.24-.32-.31.25-.15.12c0,.05-.11.09-.13.08Z"/><polyline class="cls-24" points="180.43 198.53 180.07 199.02 180.25 199.11 180.43 198.53"/><polygon class="cls-24" points="179.71 199.18 178.96 198.06 179.53 199.28 179.71 199.18"/><path class="cls-24" d="M180.54,199.74a2.25,2.25,0,0,0,.78-.21,2.5,2.5,0,0,1-.77,0Z"/><polygon class="cls-24" points="179.47 199.16 178.9 198.89 179.37 199.32 179.47 199.16"/><path class="cls-24" d="M179.26,199.59a1.46,1.46,0,0,1-.55,0,1.89,1.89,0,0,0,.54.24Z"/><path class="cls-24" d="M180.5,199.49a.74.74,0,0,0,.42-.31.67.67,0,0,1-.45.11Z"/><polygon class="cls-24" points="180.1 199.01 180.07 198.48 179.91 199 180.1 199.01"/></g></g><circle class="cls-28" cx="179.62" cy="199.55" r="0.97"/><circle class="cls-29" cx="179.67" cy="199.85" r="0.18"/><circle class="cls-29" cx="180.12" cy="199.5" r="0.34"/><path class="cls-30" d="M187.17,200.51a3.68,3.68,0,0,1-2.32-1,9.1,9.1,0,0,0-8.84-.78"/><path class="cls-30" d="M179.56,197.89c-2.21.58-2.59,2.18-4.14,2.81-.31.13-.67.29-.75.61a1.32,1.32,0,0,0,.88.05,10.19,10.19,0,0,1,3.38.62,9,9,0,0,0,6.12-.74"/><path class="cls-24" d="M157.72,201.55a1.93,1.93,0,0,1-1.93-2,1.93,1.93,0,1,1,1.93,2Z"/><path class="cls-21" d="M157.72,197.76A1.85,1.85,0,0,1,159,201a1.84,1.84,0,0,1-2.62-.08,1.86,1.86,0,0,1,.08-2.63,1.89,1.89,0,0,1,1.27-.5m0-.14a2,2,0,0,0-1.36.54,2,2,0,0,0-.1,2.82,2,2,0,1,0,2.92-2.73,2,2,0,0,0-1.46-.63Z"/><circle class="cls-25" cx="157.72" cy="199.62" r="1.73"/><g class="cls-26"><g class="cls-31"><polygon class="cls-24" points="157.94 199.22 158.18 198.05 157.75 199.17 157.94 199.22"/><polygon class="cls-24" points="157.47 199.17 156.72 198.31 157.31 199.28 157.47 199.17"/><polygon class="cls-24" points="157.08 199.39 156.64 199.25 157 199.56 157.08 199.39"/><path class="cls-24" d="M158.24,199.53a.38.38,0,0,0,.24-.06l.18-.08.36-.16-.39.07-.19,0a.43.43,0,0,1-.15,0Z"/><polygon class="cls-24" points="158.27 199.34 158.71 198.93 158.16 199.18 158.27 199.34"/><polygon class="cls-24" points="157.76 199.14 157.67 197.79 157.56 199.14 157.76 199.14"/><path class="cls-24" d="M158.21,200a2.43,2.43,0,0,0,.78.2,2.36,2.36,0,0,1-.68-.37Z"/><polygon class="cls-24" points="157.57 199 157.21 198.49 157.4 199.09 157.57 199"/><path class="cls-24" d="M157.17,199.28a1.51,1.51,0,0,1-.45-.31,1.71,1.71,0,0,0,.34.47Z"/><path class="cls-24" d="M158.3,199.8a.77.77,0,0,0,.52-.06.74.74,0,0,1-.45-.12Z"/><polygon class="cls-24" points="158.19 199.19 158.43 198.71 158.02 199.08 158.19 199.19"/><polygon class="cls-24" points="157.18 199.54 155.98 199.45 157.15 199.73 157.18 199.54"/><polygon class="cls-24" points="157.19 200 156.43 200.86 157.31 200.15 157.19 200"/><polygon class="cls-24" points="157.45 200.36 157.37 200.81 157.63 200.42 157.45 200.36"/><path class="cls-24" d="M157.44,199.19a.38.38,0,0,0-.08-.22l-.11-.17-.2-.34.11.38.06.18c0,.07,0,.13,0,.15Z"/><polygon class="cls-24" points="157.25 199.19 156.79 198.81 157.1 199.32 157.25 199.19"/><polygon class="cls-24" points="157.12 199.72 155.8 199.99 157.14 199.91 157.12 199.72"/><path class="cls-24" d="M158,199.16a2.48,2.48,0,0,0,.1-.8,2.25,2.25,0,0,1-.28.72Z"/><polygon class="cls-24" points="157 199.93 156.54 200.35 157.12 200.09 157 199.93"/><path class="cls-24" d="M157.33,200.29a1.42,1.42,0,0,1-.25.49,1.52,1.52,0,0,0,.43-.41Z"/><path class="cls-24" d="M157.7,199.1a.79.79,0,0,0-.12-.51.71.71,0,0,1-.07.46Z"/><polygon class="cls-24" points="157.11 199.29 156.61 199.11 157.03 199.47 157.11 199.29"/><polygon class="cls-24" points="157.59 200.25 157.65 201.45 157.78 200.25 157.59 200.25"/><polygon class="cls-24" points="158.05 200.18 158.99 200.82 158.18 200.03 158.05 200.18"/><polygon class="cls-24" points="158.37 199.87 158.83 199.89 158.4 199.68 158.37 199.87"/><path class="cls-24" d="M157.21,200a.51.51,0,0,0-.21.11l-.16.13-.31.25.36-.17.18-.08a.27.27,0,0,1,.15,0Z"/><polygon class="cls-24" points="157.24 200.22 156.91 200.73 157.38 200.35 157.24 200.22"/><polygon class="cls-24" points="157.78 200.28 158.21 201.56 157.97 200.23 157.78 200.28"/><path class="cls-24" d="M157.11,199.53a2.38,2.38,0,0,0-.8,0,2.17,2.17,0,0,1,.75.18Z"/><polygon class="cls-24" points="157.99 200.37 158.48 200.78 158.14 200.24 157.99 200.37"/><path class="cls-24" d="M158.31,200a1.42,1.42,0,0,1,.52.19,1.39,1.39,0,0,0-.46-.37Z"/><path class="cls-24" d="M157.09,199.78a.82.82,0,0,0-.49.19.72.72,0,0,1,.46,0Z"/><polygon class="cls-24" points="157.35 200.35 157.24 200.87 157.54 200.41 157.35 200.35"/><polygon class="cls-24" points="158.24 199.75 159.42 199.53 158.22 199.56 158.24 199.75"/><polygon class="cls-24" points="158.11 199.3 158.63 198.28 157.95 199.19 158.11 199.3"/><polygon class="cls-24" points="157.77 199.02 157.73 198.57 157.57 199.01 157.77 199.02"/><path class="cls-24" d="M158.07,200.15a.57.57,0,0,0,.14.2l.14.14.29.27-.21-.33-.1-.17c0-.06-.07-.12-.06-.14Z"/><polygon class="cls-24" points="158.25 200.1 158.8 200.36 158.37 199.94 158.25 200.1"/><polygon class="cls-24" points="158.25 199.56 159.46 198.96 158.18 199.38 158.25 199.56"/><path class="cls-24" d="M157.59,200.32a2.32,2.32,0,0,0,.11.79,2.14,2.14,0,0,1,.08-.76Z"/><polygon class="cls-24" points="158.31 199.33 158.65 198.8 158.16 199.21 158.31 199.33"/><path class="cls-24" d="M157.9,199.07a1.56,1.56,0,0,1,.12-.55,1.66,1.66,0,0,0-.31.51Z"/><path class="cls-24" d="M157.84,200.3a.83.83,0,0,0,.25.47.68.68,0,0,1-.05-.46Z"/><polygon class="cls-24" points="158.37 199.97 158.9 200.02 158.4 199.78 158.37 199.97"/><polygon class="cls-24" points="157.66 199.17 157.29 198.03 157.47 199.22 157.66 199.17"/><polygon class="cls-24" points="157.24 199.35 156.16 198.97 157.15 199.53 157.24 199.35"/><polygon class="cls-24" points="157 199.73 156.55 199.83 157.02 199.93 157 199.73"/><path class="cls-24" d="M158.08,199.28a.48.48,0,0,0,.18-.16l.12-.16.23-.32-.3.25-.16.12c-.05.05-.1.09-.13.08Z"/><polyline class="cls-24" points="158.19 198.53 157.84 199.02 158.01 199.11 158.19 198.53"/><polygon class="cls-24" points="157.47 199.18 156.72 198.06 157.3 199.28 157.47 199.18"/><path class="cls-24" d="M158.31,199.74a2.26,2.26,0,0,0,.77-.21,2.5,2.5,0,0,1-.77,0Z"/><polygon class="cls-24" points="157.24 199.16 156.67 198.89 157.13 199.32 157.24 199.16"/><path class="cls-24" d="M157,199.59a1.53,1.53,0,0,1-.56,0,1.89,1.89,0,0,0,.54.24Z"/><path class="cls-24" d="M158.26,199.49a.8.8,0,0,0,.43-.31.69.69,0,0,1-.45.11Z"/><polygon class="cls-24" points="157.87 199.01 157.84 198.48 157.67 199 157.87 199.01"/></g></g><circle class="cls-28" cx="157.38" cy="199.55" r="0.97"/><circle class="cls-29" cx="157.44" cy="199.85" r="0.18"/><circle class="cls-29" cx="157.88" cy="199.5" r="0.34"/><path class="cls-30" d="M164.93,200.51a3.7,3.7,0,0,1-2.32-1,9.08,9.08,0,0,0-8.83-.78"/><path class="cls-30" d="M157.33,197.89c-2.21.58-2.6,2.18-4.14,2.81-.32.13-.68.29-.76.61a1.35,1.35,0,0,0,.89.05,10.24,10.24,0,0,1,3.38.62,9,9,0,0,0,6.11-.74"/><path class="cls-32" d="M170.4,225.48l-1.77-1.59s-.69-.68-.74-.69a7.56,7.56,0,0,0-1.26,0,39,39,0,0,1-3.78,2.12,14.78,14.78,0,0,1-1.55-.82l-1.16,2.32s2.74-1.26,2.92-1.26Z"/><path class="cls-32" d="M167.59,225.48l1.88-1.59s.74-.68.78-.69a8.55,8.55,0,0,1,1.34,0,42.7,42.7,0,0,0,4,2.16,16.42,16.42,0,0,0,1.7-.86l1.23,2.32s-2.9-1.26-3.09-1.26Z"/><path class="cls-20" d="M172,195.13l-.87-.55a2.43,2.43,0,0,0,1.26,1.39,4.39,4.39,0,0,0,3-.33,18.14,18.14,0,0,1,5.75-.94c2.25,0,4.72.51,6.12,2.28-1.1-2.09-3.58-3.09-5.93-3.33a19,19,0,0,0-4.33.08,13.69,13.69,0,0,1-4.28-.24,2.54,2.54,0,0,1-.66-.32.2.2,0,0,0-.33.09A1.69,1.69,0,0,0,172,195.13Z"/><path class="cls-20" d="M165,195.29l.87-.55a2.42,2.42,0,0,1-1.25,1.39,4.31,4.31,0,0,1-3-.33,18.72,18.72,0,0,0-5.75-.94c-2.25,0-4.71.52-6.11,2.28a6.58,6.58,0,0,1,4.35-3,17.82,17.82,0,0,1,4-.58c1.32,0,2.63.23,3.94.34a3.67,3.67,0,0,0,2.49-.33C165,193.26,165.72,194.48,165,195.29Z"/><path class="cls-13" d="M185.16,242.53a17.09,17.09,0,0,1-6.29,6,44.94,44.94,0,0,1-7.6,3.2l-7,2.48a32.82,32.82,0,0,0-7.14,3.16,11,11,0,0,0-4.78,6,15.29,15.29,0,0,0-.33,4.92c.17,3.32.5,6.64,1,9.92.38.09.53-.47.5-.86-.39-4.42-.73-8.93.28-13.25a5.63,5.63,0,0,1,2.07-3.62c1.55-1,3.58-.49,5.34.05l15.4,4.73a4.14,4.14,0,0,0,2.7.2,3.2,3.2,0,0,0,1.53-1.53c2.35-4.28-.16-9.82,1.52-14.4.92-2.51,3-4.46,3.86-7a3.93,3.93,0,0,0-.4-3.87c-.33.17-.1.58,0,1A4.46,4.46,0,0,1,185.16,242.53Z"/><path class="cls-13" d="M151.76,260.74c-.11-2.07-.42-4.13-.73-6.19a13.94,13.94,0,0,1-.22-3.64c.31-2.86,1.25-5.26,4-6a1,1,0,0,1,.7,0,.67.67,0,0,1,.26.56c0,.34-.05.72,0,1.06a.73.73,0,0,1,0,.41c-.09.18-.32.25-.52.31-2.61.8-2.85,3.47-3.17,6.18s.26,5.44.41,8.16c.17,3-.18,5.95-.09,8.92.08,2.4,1.45,5.3.55,7.61C150.29,273.08,152,266.22,151.76,260.74Z"/><path class="cls-11" d="M188.74,188.54c.92,0,6.5-.36,7.38-1.28,1.58-2.3.58-8.57,0-14-.27-2.74-.89-6.11-3.49-7.55-2.34-1.29-16.31-.78-20.38-.35-4.85.52-24.78,2-26.09,2.33A3.67,3.67,0,0,0,143.1,171c-.37,2.2-.6,11.39-.64,13.75,0,1.74,0,6.12,1.57,6.62,1.4.43,5.31,0,8.24-.45C158.19,190,181.78,188.55,188.74,188.54Z"/><rect class="cls-12" x="146.13" y="185.21" width="0.91" height="5.35" rx="0.46" transform="translate(-91.61 180.62) rotate(-50.29)"/><rect class="cls-12" x="157.58" y="184.15" width="0.91" height="5.35" rx="0.46" transform="translate(-86.65 189.04) rotate(-50.29)"/><rect class="cls-12" x="169.03" y="183.09" width="0.91" height="5.35" rx="0.46" transform="translate(-81.7 197.47) rotate(-50.29)"/><rect class="cls-12" x="180.48" y="182.03" width="0.91" height="5.35" rx="0.46" transform="translate(-76.75 205.9) rotate(-50.29)"/><rect class="cls-12" x="191.93" y="180.97" width="0.91" height="5.35" rx="0.46" transform="translate(-71.8 214.32) rotate(-50.29)"/><rect class="cls-10" x="191.93" y="180.97" width="0.91" height="5.35" rx="0.46" transform="translate(223.07 447.83) rotate(-140.29)"/><rect class="cls-10" x="180.48" y="182.03" width="0.91" height="5.35" rx="0.46" transform="translate(202.13 442.39) rotate(-140.29)"/><rect class="cls-10" x="169.03" y="183.09" width="0.91" height="5.35" rx="0.46" transform="translate(181.19 436.95) rotate(-140.29)"/><rect class="cls-10" x="157.58" y="184.15" width="0.91" height="5.35" rx="0.46" transform="translate(160.25 431.51) rotate(-140.29)"/><rect class="cls-10" x="146.13" y="185.21" width="0.91" height="5.35" rx="0.46" transform="translate(139.32 426.08) rotate(-140.29)"/><path class="cls-10" d="M145.83,180.21a2.22,2.22,0,0,0,.25,1.14,2,2,0,0,0,.93.67,12.11,12.11,0,0,0,4.41.66,68.24,68.24,0,0,0,8.69-.41.88.88,0,0,0,.57-.2.91.91,0,0,0,.17-.54c.32-3.72.62-7.56-.47-11.13a2.52,2.52,0,0,0-.91-1.46,2.77,2.77,0,0,0-1.74-.22l-10.27,1a2.42,2.42,0,0,0-1.48.47c-.84.79-.2,3.05-.21,4.14C145.73,176.28,145.75,178.24,145.83,180.21Z"/><path class="cls-10" d="M163.33,169.33a1.7,1.7,0,0,0-.27.83,25.88,25.88,0,0,0,.5,9.8,2.41,2.41,0,0,0,.82,1.51,2.29,2.29,0,0,0,1,.3,19.64,19.64,0,0,0,4-.09l6-.55a1.75,1.75,0,0,0,.68-.17,1.3,1.3,0,0,0,.49-.57A5.6,5.6,0,0,0,177,178a58.65,58.65,0,0,0-.19-8.59,2.21,2.21,0,0,0-.57-1.45,2.32,2.32,0,0,0-1.8-.28c-2.2.28-4.46.76-6.67.84C166.34,168.55,164.36,168,163.33,169.33Z"/><path class="cls-10" d="M178.41,171.38l.83,7.49a2,2,0,0,0,.27.94c.41.57,1.26.53,2,.44a57.06,57.06,0,0,1,9.95-.39,2.68,2.68,0,0,0,2.13-.51,2.56,2.56,0,0,0,.4-1.91,39.8,39.8,0,0,0-1.06-8.3,2.07,2.07,0,0,0-.63-1.18,2.29,2.29,0,0,0-1.32-.34l-5.61-.24a19.92,19.92,0,0,0-5.34.26C178.31,168.06,178.25,169.94,178.41,171.38Z"/><path class="cls-11" d="M147.62,175.73a1.68,1.68,0,0,0-.42,1.16,1.55,1.55,0,0,0,.41.71,19.42,19.42,0,0,0,4.57,3.91,3.23,3.23,0,0,0,1.77.63,3.29,3.29,0,0,0,1.89-1,23,23,0,0,0,3.35-3.62,1.51,1.51,0,0,0,.38-.83,1.52,1.52,0,0,0-.51-1c-1-1.16-2.15-2.25-3.29-3.31-.78-.73-2-2.36-3.21-2.23-1,.11-1.68,1.37-2.25,2.08C149.39,173.37,148.47,174.52,147.62,175.73Z"/><path class="cls-11" d="M164.12,174.46a1.23,1.23,0,0,0,0,1.87,19.6,19.6,0,0,0,4.56,3.91,3.24,3.24,0,0,0,1.77.62,3.31,3.31,0,0,0,1.9-1,23.54,23.54,0,0,0,3.35-3.63,1.55,1.55,0,0,0,.38-.83,1.58,1.58,0,0,0-.52-1c-1-1.17-2.15-2.25-3.29-3.31-.78-.73-2-2.36-3.2-2.23-1,.1-1.69,1.37-2.25,2.07C165.9,172.09,165,173.25,164.12,174.46Z"/><path class="cls-11" d="M180.39,173.19a1.68,1.68,0,0,0-.42,1.16,1.6,1.6,0,0,0,.41.71A19.22,19.22,0,0,0,185,179a3.21,3.21,0,0,0,1.76.62,3.25,3.25,0,0,0,1.9-1A23.93,23.93,0,0,0,192,175a1.58,1.58,0,0,0,.38-.83,1.54,1.54,0,0,0-.52-1c-1-1.17-2.15-2.25-3.28-3.31-.78-.73-2-2.36-3.21-2.23-1,.1-1.69,1.37-2.25,2.08C182.16,170.83,181.24,172,180.39,173.19Z"/><path class="cls-11" d="M150.13,171.32c.08-.09.17-.19.15-.3s-.17-.21-.3-.26a6.32,6.32,0,0,0-2.33-.32,1.49,1.49,0,0,0-.72.19,1.58,1.58,0,0,0-.5,1.32,21.48,21.48,0,0,0,.12,3.4.45.45,0,0,0,.29.43c.53-.74.93-1.58,1.48-2.33A18.35,18.35,0,0,1,150.13,171.32Z"/><path class="cls-11" d="M150.9,181.58c.12.1.25.24.2.39s-.29.19-.47.16l-2.63-.35a2.11,2.11,0,0,1-1.23-.44,2.17,2.17,0,0,1-.43-1.68c0-.39-.18-1.92.21-2.14s1,.86,1.19,1.14A22.42,22.42,0,0,0,150.9,181.58Z"/><path class="cls-11" d="M159,181.79a1.94,1.94,0,0,0,.62-.19,1.6,1.6,0,0,0,.56-1c.11-.44.2-.89.28-1.34a3.07,3.07,0,0,0-.06-1.65.27.27,0,0,0-.12-.17c-.15-.09-.32.05-.43.19a46.59,46.59,0,0,1-3.25,3.62c-.28.27-.61.51-.18.71C157.1,182.28,158.24,181.72,159,181.79Z"/><path class="cls-11" d="M159.37,175.13a.54.54,0,0,0,.37.22c.29,0,.39-.37.39-.66a17.52,17.52,0,0,0-.6-3.86c-.11-.51-.29-1.09-.77-1.29a1.72,1.72,0,0,0-.75-.07c-.91.06-1.85.08-2.76.16a.49.49,0,0,0-.36.73,15.24,15.24,0,0,0,1.82,1.92C157.59,173.23,158.51,174.16,159.37,175.13Z"/><path class="cls-11" d="M167.09,169.8a.37.37,0,0,0,.15-.3c0-.14-.16-.21-.29-.26a6.19,6.19,0,0,0-2.34-.31,1.38,1.38,0,0,0-.72.18,1.58,1.58,0,0,0-.5,1.32,21.57,21.57,0,0,0,.12,3.41.46.46,0,0,0,.29.42c.54-.73.94-1.58,1.48-2.32A19.5,19.5,0,0,1,167.09,169.8Z"/><path class="cls-11" d="M182.86,168.89c.08-.09.17-.19.16-.3s-.17-.21-.3-.26a6.41,6.41,0,0,0-2.34-.32,1.49,1.49,0,0,0-.72.19,1.61,1.61,0,0,0-.5,1.32,21.66,21.66,0,0,0,.13,3.41.45.45,0,0,0,.28.42c.54-.74.94-1.58,1.48-2.33A20.37,20.37,0,0,1,182.86,168.89Z"/><path class="cls-11" d="M168.5,180.81c.14.08.28.21.25.36s-.27.22-.46.21l-2.64-.08a2.16,2.16,0,0,1-1.28-.31,2.21,2.21,0,0,1-.6-1.63c0-.39-.37-1.89,0-2.15s1.05.76,1.31,1A22.69,22.69,0,0,0,168.5,180.81Z"/><path class="cls-11" d="M184.29,179.2c.14.09.28.21.25.37s-.27.21-.46.2l-2.64-.08a2.16,2.16,0,0,1-1.28-.31,2.2,2.2,0,0,1-.6-1.63c0-.39-.37-1.88,0-2.15s1,.76,1.31,1A23.31,23.31,0,0,0,184.29,179.2Z"/><path class="cls-11" d="M175.06,180.78a1.6,1.6,0,0,0,.62-.18,1.66,1.66,0,0,0,.57-1c.11-.44.2-.88.28-1.33a3.11,3.11,0,0,0-.06-1.66.41.41,0,0,0-.12-.17c-.15-.08-.32.06-.43.2a46.59,46.59,0,0,1-3.25,3.62c-.28.26-.61.51-.18.71C173.19,181.28,174.33,180.72,175.06,180.78Z"/><path class="cls-11" d="M191.77,179.26a1.5,1.5,0,0,0,.62-.19,1.6,1.6,0,0,0,.56-1c.11-.44.21-.88.28-1.33a3.11,3.11,0,0,0,0-1.66.43.43,0,0,0-.13-.17c-.15-.09-.32.06-.43.2a41.21,41.21,0,0,1-3.25,3.61c-.27.27-.6.52-.18.71C189.89,179.76,191,179.2,191.77,179.26Z"/><path class="cls-11" d="M175.87,174.05a.55.55,0,0,0,.37.23c.28,0,.39-.37.38-.66a18,18,0,0,0-.59-3.86c-.12-.51-.29-1.09-.77-1.29a1.62,1.62,0,0,0-.76-.07c-.91.06-1.84.07-2.75.16a.48.48,0,0,0-.36.73,14.56,14.56,0,0,0,1.82,1.92C174.09,172.16,175,173.08,175.87,174.05Z"/><path class="cls-11" d="M192.31,173.09a.51.51,0,0,0,.34.2c.26,0,.36-.34.36-.6a16.5,16.5,0,0,0-.55-3.55c-.11-.47-.27-1-.71-1.19a1.47,1.47,0,0,0-.69-.06c-.84.05-1.7.06-2.54.14a.45.45,0,0,0-.33.67,13.56,13.56,0,0,0,1.67,1.77C190.68,171.34,191.52,172.19,192.31,173.09Z"/><path class="cls-12" d="M153.11,172.16a.38.38,0,0,0,0-.75.38.38,0,0,0,0,.75Z"/><path class="cls-12" d="M153.18,173.36a.37.37,0,0,0,0-.74.37.37,0,0,0,0,.74Z"/><path class="cls-12" d="M153.28,174.53a.37.37,0,0,0,0-.74.37.37,0,0,0,0,.74Z"/><path class="cls-12" d="M153.36,175.6a.37.37,0,0,0,0-.74.37.37,0,0,0,0,.74Z"/><path class="cls-12" d="M153.41,176.63a.38.38,0,0,0,0-.75.38.38,0,0,0,0,.75Z"/><path class="cls-12" d="M153.49,177.62a.37.37,0,0,0,0-.74.37.37,0,0,0,0,.74Z"/><path class="cls-12" d="M153.53,178.72a.37.37,0,0,0,0-.74.37.37,0,0,0,0,.74Z"/><path class="cls-12" d="M153.58,179.75a.38.38,0,0,0,0-.75.38.38,0,0,0,0,.75Z"/><path class="cls-12" d="M153.66,180.85a.38.38,0,0,0,0-.75.38.38,0,0,0,0,.75Z"/><path class="cls-12" d="M148.56,177.24a.37.37,0,0,0,0-.74.37.37,0,0,0,0,.74Z"/><path class="cls-12" d="M149.41,177.18a.38.38,0,0,0,0-.75.38.38,0,0,0,0,.75Z"/><path class="cls-12" d="M150.43,176.39h0a.23.23,0,0,0-.14,0,.24.24,0,0,0-.12.07.28.28,0,0,0-.08.12.37.37,0,0,0,0,.15v.09a.37.37,0,0,0,.1.17l.07.06a.41.41,0,0,0,.19,0h0a.37.37,0,0,0,.15,0,.42.42,0,0,0,.12-.08.24.24,0,0,0,.07-.12.23.23,0,0,0,0-.14l0-.1a.42.42,0,0,0-.09-.16l-.08-.06a.32.32,0,0,0-.19-.05Z"/><path class="cls-12" d="M151.49,177.12a.37.37,0,0,0,0-.74.37.37,0,0,0,0,.74Z"/><path class="cls-12" d="M152.52,177.07a.37.37,0,0,0,0-.74.37.37,0,0,0,0,.74Z"/><path class="cls-12" d="M154.4,177a.37.37,0,0,0,0-.74.37.37,0,0,0,0,.74Z"/><path class="cls-12" d="M155.32,176.91h0a.35.35,0,0,0,.14,0,.25.25,0,0,0,.12-.08.36.36,0,0,0,.08-.12.32.32,0,0,0,0-.14l0-.1a.32.32,0,0,0-.09-.16l-.08-.06a.37.37,0,0,0-.18-.05h0a.17.17,0,0,0-.14,0,.24.24,0,0,0-.12.07.42.42,0,0,0-.08.12.4.4,0,0,0,0,.15v.1a.39.39,0,0,0,.1.16l.07.06a.41.41,0,0,0,.19,0Z"/><path class="cls-12" d="M156.46,176.09h0a.32.32,0,0,0-.14,0,.37.37,0,0,0-.2.2.32.32,0,0,0,0,.14v.1a.34.34,0,0,0,.1.16l.07.06a.32.32,0,0,0,.19.05h0a.23.23,0,0,0,.14,0,.24.24,0,0,0,.12-.07l.08-.12a.37.37,0,0,0,0-.15l0-.09a.35.35,0,0,0-.09-.17l-.08-.06a.37.37,0,0,0-.18,0Z"/><path class="cls-12" d="M157.42,176.68a.37.37,0,0,0,0-.74.37.37,0,0,0,0,.74Z"/><path class="cls-12" d="M158.34,176.69a.37.37,0,0,0,0-.74.37.37,0,0,0,0,.74Z"/><path class="cls-12" d="M169.31,170.87a.38.38,0,0,0,0-.75.38.38,0,0,0,0,.75Z"/><path class="cls-12" d="M169.38,172.07a.37.37,0,0,0,0-.74.37.37,0,0,0,0,.74Z"/><path class="cls-12" d="M169.48,173.24a.37.37,0,0,0,0-.74.37.37,0,0,0,0,.74Z"/><path class="cls-12" d="M169.56,174.31a.37.37,0,0,0,0-.74.37.37,0,0,0,0,.74Z"/><path class="cls-12" d="M169.61,175.34a.38.38,0,0,0,0-.75.38.38,0,0,0,0,.75Z"/><path class="cls-12" d="M169.69,176.33a.37.37,0,0,0,0-.74.37.37,0,0,0,0,.74Z"/><path class="cls-12" d="M169.73,177.43a.37.37,0,0,0,0-.74.37.37,0,0,0,0,.74Z"/><path class="cls-12" d="M169.78,178.45a.37.37,0,0,0,0-.74.37.37,0,0,0,0,.74Z"/><path class="cls-12" d="M169.85,179.55a.37.37,0,0,0,0-.74.37.37,0,0,0,0,.74Z"/><path class="cls-12" d="M164.75,176a.37.37,0,0,0,0-.74.37.37,0,0,0,0,.74Z"/><path class="cls-12" d="M165.61,175.89a.38.38,0,0,0,0-.75.38.38,0,0,0,0,.75Z"/><path class="cls-12" d="M166.63,175.1h0a.32.32,0,0,0-.14,0,.36.36,0,0,0-.12.08.28.28,0,0,0-.08.12.35.35,0,0,0,0,.14v.1a.37.37,0,0,0,.1.17l.07.05a.33.33,0,0,0,.19.06h0a.4.4,0,0,0,.15,0,.42.42,0,0,0,.12-.08.24.24,0,0,0,.07-.12.17.17,0,0,0,0-.14v-.1a.56.56,0,0,0-.09-.17l-.08,0a.32.32,0,0,0-.19-.05Z"/><path class="cls-12" d="M167.69,175.83a.37.37,0,0,0,0-.74.37.37,0,0,0,0,.74Z"/><path class="cls-12" d="M168.72,175.78a.37.37,0,0,0,0-.74.37.37,0,0,0,0,.74Z"/><path class="cls-12" d="M170.6,175.67a.37.37,0,0,0,0-.74.37.37,0,0,0,0,.74Z"/><path class="cls-12" d="M171.52,175.62h0a.35.35,0,0,0,.14,0,.42.42,0,0,0,.12-.08.24.24,0,0,0,.07-.12.23.23,0,0,0,0-.14l0-.1a.32.32,0,0,0-.09-.16l-.08-.06a.31.31,0,0,0-.18-.05h0a.23.23,0,0,0-.14,0,.24.24,0,0,0-.12.07.42.42,0,0,0-.08.12.37.37,0,0,0,0,.15v.09a.37.37,0,0,0,.1.17l.07.06a.41.41,0,0,0,.19.05Z"/><path class="cls-12" d="M172.66,174.8h0a.32.32,0,0,0-.14,0,.37.37,0,0,0-.2.2.32.32,0,0,0,0,.14v.1a.34.34,0,0,0,.1.16l.07.06a.41.41,0,0,0,.19,0h0a.18.18,0,0,0,.14,0,.27.27,0,0,0,.19-.19.28.28,0,0,0,0-.15l0-.1a.37.37,0,0,0-.09-.16l-.08-.06a.41.41,0,0,0-.18,0Z"/><path class="cls-12" d="M173.62,175.39a.38.38,0,0,0,0-.75.38.38,0,0,0,0,.75Z"/><path class="cls-12" d="M174.54,175.4a.37.37,0,0,0,0-.74.37.37,0,0,0,0,.74Z"/><path class="cls-12" d="M185.86,169.26a.37.37,0,0,0,0-.74.37.37,0,0,0,0,.74Z"/><path class="cls-12" d="M185.92,170.47a.38.38,0,0,0,0-.75.38.38,0,0,0,0,.75Z"/><path class="cls-12" d="M186,171.64a.37.37,0,0,0,0-.74.37.37,0,0,0,0,.74Z"/><path class="cls-12" d="M186.11,172.71a.38.38,0,0,0,0-.75.38.38,0,0,0,0,.75Z"/><path class="cls-12" d="M186.15,173.73a.37.37,0,0,0,0-.74.37.37,0,0,0,0,.74Z"/><path class="cls-12" d="M186.24,174.73a.38.38,0,0,0,0-.75.38.38,0,0,0,0,.75Z"/><path class="cls-12" d="M186.28,175.82a.37.37,0,0,0,0-.74.37.37,0,0,0,0,.74Z"/><path class="cls-12" d="M186.32,176.85a.37.37,0,0,0,0-.74.37.37,0,0,0,0,.74Z"/><path class="cls-12" d="M186.4,178a.37.37,0,0,0,0-.74.37.37,0,0,0,0,.74Z"/><path class="cls-12" d="M181.3,174.35a.38.38,0,0,0,0-.75.38.38,0,0,0,0,.75Z"/><path class="cls-12" d="M182.15,174.28a.37.37,0,0,0,0-.74.37.37,0,0,0,0,.74Z"/><path class="cls-12" d="M183.18,173.49h0a.35.35,0,0,0-.14,0,.42.42,0,0,0-.12.08.24.24,0,0,0-.07.12.23.23,0,0,0,0,.14l0,.1a.32.32,0,0,0,.09.16l.08.06a.37.37,0,0,0,.18,0h0a.23.23,0,0,0,.14,0,.24.24,0,0,0,.12-.07.42.42,0,0,0,.08-.12.37.37,0,0,0,0-.15v-.09a.37.37,0,0,0-.1-.17l-.07-.06a.41.41,0,0,0-.19,0Z"/><path class="cls-12" d="M184.24,174.23a.38.38,0,0,0,0-.75.38.38,0,0,0,0,.75Z"/><path class="cls-12" d="M185.27,174.18a.37.37,0,0,0,0-.74.37.37,0,0,0,0,.74Z"/><path class="cls-12" d="M187.14,174.07a.37.37,0,0,0,0-.74.37.37,0,0,0,0,.74Z"/><path class="cls-12" d="M188.07,174h0a.23.23,0,0,0,.14,0,.24.24,0,0,0,.12-.07.28.28,0,0,0,.08-.12.35.35,0,0,0,0-.14v-.1a.37.37,0,0,0-.1-.17l-.07-.06a.41.41,0,0,0-.19,0h0a.4.4,0,0,0-.15,0,.42.42,0,0,0-.12.08.24.24,0,0,0-.07.12.23.23,0,0,0,0,.14l0,.1a.42.42,0,0,0,.09.16l.08.06a.32.32,0,0,0,.19,0Z"/><path class="cls-12" d="M189.2,173.2h0a.21.21,0,0,0-.15,0,.27.27,0,0,0-.19.19.28.28,0,0,0,0,.15l0,.1a.51.51,0,0,0,.09.16l.08.06a.41.41,0,0,0,.19.05h0a.32.32,0,0,0,.14,0,.25.25,0,0,0,.12-.08.2.2,0,0,0,.08-.12.32.32,0,0,0,0-.14v-.1a.34.34,0,0,0-.1-.16l-.07-.06a.41.41,0,0,0-.19-.05Z"/><path class="cls-12" d="M190.17,173.78a.37.37,0,0,0,0-.74.37.37,0,0,0,0,.74Z"/><path class="cls-12" d="M191.08,173.8a.38.38,0,0,0,0-.75.38.38,0,0,0,0,.75Z"/></g></svg>