<svg id="Layer_1" data-name="Layer 1" xmlns="http://www.w3.org/2000/svg" xmlns:xlink="http://www.w3.org/1999/xlink" viewBox="0 0 264 214"><defs><style>.cls-1,.cls-30,.cls-6,.cls-7,.cls-8,.cls-9{fill:none;}.cls-2{fill:#6243cf;}.cls-3{fill:#fff;}.cls-4,.cls-5{fill:#121a1a;}.cls-5,.cls-6,.cls-8,.cls-9{stroke:#7d5955;}.cls-30,.cls-5,.cls-6,.cls-8,.cls-9{stroke-miterlimit:10;}.cls-5,.cls-6,.cls-7{stroke-width:0.47px;}.cls-7{stroke:#baad7f;stroke-linejoin:round;}.cls-8{stroke-width:0.41px;}.cls-9{stroke-width:0.93px;}.cls-10{fill:#850000;}.cls-11{fill:#1a170f;}.cls-12{fill:#6e00a2;}.cls-13{fill:#0a0f0f;}.cls-14{fill:#d4d4d4;}.cls-15{fill:#636363;}.cls-16{fill:#f9efde;}.cls-17{fill:#ebd6b2;}.cls-18{fill:#ebd9bc;}.cls-19{fill:#f7e4c6;}.cls-20{fill:#9e6952;}.cls-21{fill:#1a293f;}.cls-22{opacity:0.54;}.cls-23{fill:#9e7a6a;}.cls-24{fill:#5e3725;}.cls-25{fill:#874e35;}.cls-26{opacity:0.84;}.cls-27{clip-path:url(#clip-path);}.cls-28{fill:#10161c;}.cls-29{fill:#202c38;}.cls-30{stroke:#1a293f;stroke-width:0.44px;}.cls-31{clip-path:url(#clip-path-2);}.cls-32{fill:#a87171;}</style><clipPath id="clip-path"><circle class="cls-1" cx="137.94" cy="72.57" r="1.1"/></clipPath><clipPath id="clip-path-2"><circle class="cls-1" cx="124.74" cy="72.57" r="1.1"/></clipPath></defs><rect class="cls-2" x="24.95" y="-25.05" width="214" height="264.1" transform="translate(238.95 -24.95) rotate(90)"/><path class="cls-3" d="M171,107.9a8.52,8.52,0,0,0-3-2.44c-.79-1-7.37-4.22-7.37-4.22h0a46.49,46.49,0,0,0-12.72-3.8c-1.76-.25-3.54-.38-5.32-.46a9,9,0,0,1-.94-.39,1.51,1.51,0,0,0-.35-.73V91.25l2.43-2.47a2.79,2.79,0,0,0,.82-2l.55-4.56c.39.08.72-.29,1-.63l.77-1.11a4.91,4.91,0,0,0,.9-1.78,10.43,10.43,0,0,0,.11-1.11,5.21,5.21,0,0,1,.63-1.89,8.66,8.66,0,0,0,.66-1.33,1.25,1.25,0,0,0-.45-1.56,1.12,1.12,0,0,0-1.19-.16,3.4,3.4,0,0,0,0-2.64,19.8,19.8,0,0,1-.64-4.39,1.53,1.53,0,0,0,.59-.29c.94-1.36.34-5.09,0-8.3-.16-1.63-.53-3.63-2.07-4.48-1.39-.77-9.69-.47-12.1-.21-2.88.31-14.72,1.2-15.49,1.38A2.21,2.21,0,0,0,116,55.68c-.22,1.3-.36,6.76-.38,8.16,0,1,0,3.63.93,3.93a3.12,3.12,0,0,0,.77.09,1.33,1.33,0,0,0,0,.21c-.13,1.42-.15,2.85-.22,4.26a1.13,1.13,0,0,0,0,.32c.11.39.6.53.81.86l-.39-.32a4.48,4.48,0,0,0-.47-.33,1.19,1.19,0,0,0-1.52,0A1.25,1.25,0,0,0,115,74.4a9.62,9.62,0,0,0,.65,1.33,5.23,5.23,0,0,1,.64,1.89c0,.37,0,.74.1,1.11a5.1,5.1,0,0,0,.91,1.78l.77,1.11c.23.34.56.71,1,.63l.14-.07.17,3.76a5.19,5.19,0,0,0,1.18,2.7l3,3v5.73a98,98,0,0,0-12,1.66h0c-2.23.46-6.64,1.69-6.64,1.69s-3.46,1.14-5.16,1.83c-.25,1.07-.43,2.14-.58,3.22a46.84,46.84,0,0,0-6.32,2.63c-3.77,2.39-7.51,4.83-11.44,6.93-1.08.58-17.52,12.31-19.2,17.36-.7,2.1-1.8,4.42-.63,6.3.36.56.86,1,1.17,1.62.69,1.36.17,3,0,4.5a9.09,9.09,0,0,0,4.3,8.51c2.48,1.47,5.57,1.68,8,3.25,3.69,2.38,5.29,7.54,9.45,9,2.11.71,4.42.26,6.63.56s10.73,4.93,10.48,7.14a10.86,10.86,0,0,0,4-3.72c0,.25,0,.5,0,.74a4.92,4.92,0,0,0,0,.67,1.21,1.21,0,0,0,0,.35l0,0c-.07.27,0,.87.16.85a43,43,0,0,1-2.79,5.06,34.74,34.74,0,0,0-4.86,14.27,55.5,55.5,0,0,0-.1,6.32c.07,3.11-1.51,15.7-2.06,18.14a19.51,19.51,0,0,0,5.6.37c-.17.92-.33,1.85-.5,2.78,10.36.61,24.74,1.58,35.11,1.14,8.39-.35,16.89-1.37,25.14.22,1.67.33,4.93-1.22,6.47-1.95.89-.43-2.6-22.12-3-26.92q-.34-4.32-.76-8.64l8.8-4.23a30.11,30.11,0,0,0,5-2.8A17.56,17.56,0,0,0,184.5,165c.34-2.11,2.06-11.33,1.74-13.45C184,136.34,173.45,111,171,107.9ZM95.9,146.27a24.5,24.5,0,0,1-2.78-2,12.06,12.06,0,0,0-3.71-1.76,11.31,11.31,0,0,0-2.94-.44,8.24,8.24,0,0,1,1.93-1.39c1.62-.88,3.49-1.41,5.06-2.4,1.4-.89,5.07-3,7.85-4.88.28,3.29.65,6.47,1.14,9.05.28,1.46.69,3.92,1.11,6.87A59,59,0,0,1,95.9,146.27Z"/><path class="cls-3" d="M161.92,226.36a8,8,0,0,1-1.55-.15c-5.88-1.13-12.07-.77-18.62-.4-1.75.11-3.5.21-5.24.28-9.68.41-22.42-.36-32.66-1l-9.17-.54.5-2.83-.54-.13-5.1-1.38,1.16-5.15a160,160,0,0,0,1.93-16.8,60.38,60.38,0,0,1,.12-6.95,37,37,0,0,1,2.45-10.12l.71-6.24a26.37,26.37,0,0,0-5.67-3.12c-.49-.05-1.11-.05-1.76-.05a17.54,17.54,0,0,1-5.75-.73c-3.92-1.32-6.19-4.27-8-6.64a13.31,13.31,0,0,0-2.65-2.9,12.5,12.5,0,0,0-2.78-1.08,22.69,22.69,0,0,1-5-2.06,14.61,14.61,0,0,1-7-13.78c0-.45.11-.91.18-1.37,0-.13,0-.28.06-.42a8.19,8.19,0,0,1-.62-.88c-2.42-3.87-1-7.83-.19-10.19L57,131c2.57-7.75,21.65-20.38,21.83-20.47,3.19-1.71,6.24-3.65,9.48-5.72l1.59-1a26.37,26.37,0,0,1,4.4-2l.09-.41L95,98.58l2.65-1.07c.65-.27,1.57-.61,2.73-1l.06-.2,3-.83c.19,0,4.62-1.28,7-1.77,2-.43,4.13-.78,6.32-1.08l-.14-.14a10.47,10.47,0,0,1-2.74-6.36l0-1a2.85,2.85,0,0,1-.25-.33l-.77-1.11A10.13,10.13,0,0,1,111,79.8a9.74,9.74,0,0,1-.17-1.43l0,0-.12-.22a10.39,10.39,0,0,1-.88-1.91A6.7,6.7,0,0,1,111,69.52a13.64,13.64,0,0,1-.92-5.77c0-.72.13-7,.46-9a7.69,7.69,0,0,1,6-6.37c.69-.16,1.49-.24,9.08-.87,2.89-.24,5.88-.49,7.07-.62.12,0,11.66-1.18,15.35.86,4.24,2.35,4.72,7.17,4.88,8.75l.15,1.37c.39,3.53.76,6.88-.53,9.59.07.4.16.79.26,1.18,0,.19.11.42.17.68a6.72,6.72,0,0,1,1.34,6.88,12.37,12.37,0,0,1-.87,1.88l-.13.24,0,0a9.05,9.05,0,0,1-1.94,5.27l-.77,1.11a3.89,3.89,0,0,1-.28.39l-.25,2.08a8.26,8.26,0,0,1-1.77,4.72l.4,0a51,51,0,0,1,13.12,3.75h4.34v2.12a33.12,33.12,0,0,1,5,3,15.06,15.06,0,0,1,4.24,3.67h0c3.45,4.39,14,31.22,16.31,46.24.3,2-.07,5.39-1.53,13.83-.09.56-.17,1-.22,1.32a23.06,23.06,0,0,1-8.71,14.78,35.11,35.11,0,0,1-5.89,3.35L170,186.6c.15,1.75.29,3.36.41,4.91s.65,5.35,1.2,9.4c.53,3.82,1.12,8.16,1.51,11.52.65,5.72,1.08,9.49-2.81,11.38C167.09,225.33,164.39,226.36,161.92,226.36Zm-.13-11Zm-10.62-.91a59.3,59.3,0,0,1,10.82.88l.35-.1c-.36-3.46-1.13-9.06-1.65-12.83-.6-4.39-1.12-8.18-1.27-10q-.33-4.29-.74-8.56l-.36-3.81,12.24-5.88a25.49,25.49,0,0,0,4.1-2.27,12,12,0,0,0,4.41-7.73c.05-.32.14-.81.24-1.42a87.07,87.07,0,0,0,1.47-10.45c-2.19-14.32-12.12-38.1-14.09-41a6,6,0,0,0-.72-.7l-1.26-.43-.66-.85c-.8-.52-2.85-1.65-5.58-3l-.09,0a40.23,40.23,0,0,0-11.2-3.36,47.7,47.7,0,0,0-4.81-.41l-.85,0-.79-.29a15.57,15.57,0,0,1-1.49-.63l-2.35-1.16-.36-1.61-.7-.76v-1.6L129,90.48v12l-5.06.41a91.76,91.76,0,0,0-11.32,1.57c-1.61.33-4.85,1.2-6.14,1.56l-.05,0-1.86.63-.44,3.17L101.05,111a43.55,43.55,0,0,0-5.31,2.13l-1.53,1c-3.24,2.06-6.58,4.19-10.1,6.08-3.33,2.09-15.22,11.35-16.72,14.39-.09.28-.19.57-.3.86s-.3.86-.41,1.25a10.48,10.48,0,0,1,1,1.49,10.62,10.62,0,0,1,.7,6.76c0,.26-.08.52-.11.78a3.58,3.58,0,0,0,1.64,3.24,13.88,13.88,0,0,0,2.68,1A20.84,20.84,0,0,1,78,152.3a21.8,21.8,0,0,1,5.39,5.43c1,1.31,2.06,2.67,2.83,2.92a9.27,9.27,0,0,0,2.26.16,23.61,23.61,0,0,1,3.35.17c3,.4,7.46,3.09,8.32,3.63.54.33,1.09.69,1.63,1.06l6.43-9.36-6.14-1.7a63.54,63.54,0,0,1-8.77-3.48h0a17.68,17.68,0,0,1-2.7-1.84c-.23-.19-.47-.38-.71-.55a6.65,6.65,0,0,0-2-1,6.3,6.3,0,0,0-1.56-.24l-13-.23,9.16-9.15a13.65,13.65,0,0,1,3.22-2.35c.92-.49,1.85-.88,2.67-1.23a15.39,15.39,0,0,0,2-1c.46-.29,1.12-.69,1.92-1.16,1.67-1,4-2.36,5.74-3.59l7.79-5.38.82,9.43c.3,3.49.66,6.35,1.06,8.49.32,1.67.74,4.26,1.16,7.11l.8,5.5,1-1.43.26,13.51,3.67-.59-3.76,9.1a35.09,35.09,0,0,1-2.51,4.72l-.62,1a29,29,0,0,0-4.12,12,48.56,48.56,0,0,0-.08,5.7,125.51,125.51,0,0,1-1.21,13.09l5.91-.25-.63,3.45c9.35.55,20.18,1.11,28.35.77,1.69-.07,3.38-.17,5.07-.27C144.42,214.64,147.78,214.45,151.17,214.45ZM90.38,171.88h0Zm-23-37.41v0Zm16.63-14.26,0,0Zm81.81-9.72ZM124.31,73.4l11.52,18.22V89l3.35-3.41.44-3.61-6.52,2.75,9-13.78a25.9,25.9,0,0,1-.7-5.1l-.16-4.25,1.18-.35c-.07-.76-.16-1.56-.22-2.17s-.11-1-.16-1.47a73.93,73.93,0,0,0-8.12.23c-1.32.14-4.24.38-7.33.64l-5.31.45c0,1.07-.09,2.36-.12,3.57l2.7.09-1.11,6.22c0,.61-.07,1.26-.1,1.92l1.49,2.35.18-.1Zm15.52,11.53,0,0Zm-28.92-6.48Zm11.63-5.83Zm.12-3.51v0Zm21-11.35Z"/><path class="cls-1" d="M121.43,48.61a2,2,0,0,0-.16.62"/><path class="cls-1" d="M196.24,90.2a14.44,14.44,0,0,1-1,1.76"/><path class="cls-4" d="M104.51,130.68c-1.45,2.09-8.9,6.23-11.05,7.59-1.57,1-3.44,1.52-5.06,2.4a8.24,8.24,0,0,0-1.93,1.39,11.31,11.31,0,0,1,2.94.44,12.06,12.06,0,0,1,3.71,1.76,24.5,24.5,0,0,0,2.78,2c1,.54,8.39,3.78,9.4,3.24,1.8,3.42,3.65,7,3.63,10.91a16.59,16.59,0,0,1-2.33,7.83,12.37,12.37,0,0,1-5,5.32c.25-2.21-8.27-6.84-10.48-7.14s-4.52.15-6.63-.56c-4.16-1.41-5.76-6.57-9.45-9-2.41-1.57-5.5-1.78-8-3.25a9.09,9.09,0,0,1-4.3-8.51c.15-1.52.67-3.14,0-4.5-.31-.6-.81-1.06-1.17-1.62-1.17-1.88-.07-4.2.63-6.3,1.68-5.05,18.12-16.78,19.2-17.36,3.93-2.1,7.67-4.54,11.44-6.93,1.86-1.18,10.55-4.13,12.64-4.84l-1.74,2.5C101,113.57,109,124.13,104.51,130.68Z"/><path class="cls-4" d="M111.24,177.2c-3-1.2-5.58-3-5.61-6.61-.06-8.31-2.28-23.44-3.18-28.15-1.65-8.63-1.93-23.85-2.13-27.84s.77-8.46,4.08-10.69a17.79,17.79,0,0,1,8.4-2.58c4.72-.43,6.78-.06,9.37-1.41-1.65,1.92-1,1.26-1.29,3.44-.2,1.26.28,2.76.35,4,.18,3.41,0,6.61.13,10l0-1.15a4.65,4.65,0,0,0,0,1.93,26.46,26.46,0,0,1,.32-7.43,3.22,3.22,0,0,1,.65-1.62,3.46,3.46,0,0,1,2-.85l3.58-.7a5.15,5.15,0,0,1,2-.13c1.48.28,2.71,1.8,4.18,1.47.57-4.89,6.68-7.53,7.64-12.36,4.64,2.34,25.92,4.76,27,10,.47,2.41.94,6.92-.43,9.78-4.49,9.36-2.8,36.81-1.75,47.14.27,2.61.55,6-1.1,8.23-2.65,3.65-8.07,5.92-12.15,6.83a128.64,128.64,0,0,1-17.6,2.2,53.08,53.08,0,0,1-19.85-2.06C114.31,178.25,112.73,177.81,111.24,177.2Z"/><path class="cls-5" d="M164.23,103a96.23,96.23,0,0,1-1,19.78c-.72,4.66-1.79,9.27-2.34,14s-.65,9.42.71,13.94a62.7,62.7,0,0,0-19.19-3.32c-3.07,0-6.13.19-9.19.4l-6.94.49c-2.5.18-5,.36-7.5.72a59,59,0,0,0-12.33,3.2c1.56-4.69.92-9.82-.3-14.61a63.71,63.71,0,0,0-3-9.05c-.59-1.4-1.23-2.78-1.78-4.19a37.13,37.13,0,0,1-1.59-21.74C111,98,123.11,97.09,135.26,96.9a83.92,83.92,0,0,1,12.68.54A48.33,48.33,0,0,1,164.23,103Z"/><path class="cls-6" d="M111.54,99.08a32,32,0,0,0,1.2,19.61c.57,1.45,1.24,2.86,1.83,4.31,2.57,6.33,3.3,13.25,3.48,20.09"/><path class="cls-6" d="M110.69,145.12a70.07,70.07,0,0,1,6.41-6.37,19.94,19.94,0,0,1-6.26-4.51,35.58,35.58,0,0,1,4.55-7.69,12.33,12.33,0,0,1-8.25-3.34c.42-2.8,2-5.27,3.66-7.59a16.33,16.33,0,0,1-6.45-3.08,23.28,23.28,0,0,1,5.27-5.79,16.14,16.14,0,0,1-4.77-5.39"/><path class="cls-7" d="M104.5,102.35a37.13,37.13,0,0,0-4.57,2.85l4,2.15a24.35,24.35,0,0,0-4.1,2.8,12.67,12.67,0,0,0,4.06,1c-1.3,1.07-2.62,2.1-4,3.12a41.66,41.66,0,0,0,4.62,1.38,38.37,38.37,0,0,0-3.94,2.77c1.4.08,4.44.36,4.51.45s-2.13,2.75-2.84,4.06c1.46-.09,2.93-.2,4.39-.32a11.88,11.88,0,0,0-3,4.17,41.14,41.14,0,0,1,4.71-.09,25.16,25.16,0,0,0-3.31,3.53,27.05,27.05,0,0,0,4.66.54,24.89,24.89,0,0,0-3.5,4.16c1.54.24,3.1.43,4.65.56-1.05,1.15-2.13,2.18-3.18,3.33,1.25.61,2.37,1,3.53,1.64-1.26,1-2.14,1.44-3.39,2.4a10.77,10.77,0,0,0,3.06,1.36,13.55,13.55,0,0,0-3.51,3.61"/><path class="cls-7" d="M108.5,151.48a5.47,5.47,0,0,0,1.64-1.43,15.84,15.84,0,0,0,2.94-5.43c.59,1.73,1.28,3.55,2.78,4.59a.66.66,0,0,0,.49.16.72.72,0,0,0,.39-.3,14.42,14.42,0,0,0,2.39-6.09,12.76,12.76,0,0,0,2.79,5.31.66.66,0,0,0,.26.21c.3.12.59-.19.76-.47a16.92,16.92,0,0,0,2.31-5.71,9.78,9.78,0,0,0,2.73,5.79,13,13,0,0,0,2.67-6.2,14.85,14.85,0,0,0,1,3.12,5.42,5.42,0,0,0,2.2,2.57.93.93,0,0,0,.55.16,1.06,1.06,0,0,0,.5-.24c1.85-1.44,2.34-3.74,2.75-6a7.9,7.9,0,0,0,1.14,4,5.37,5.37,0,0,0,2,1.74,1.39,1.39,0,0,0,.55.19,1.31,1.31,0,0,0,.88-.38,7.07,7.07,0,0,0,1.75-2.61,26.94,26.94,0,0,0,1.15-3,10.72,10.72,0,0,0,.37,3.14,5.84,5.84,0,0,0,1.76,2.76,1.06,1.06,0,0,0,.43.26,1,1,0,0,0,.6-.09,4.49,4.49,0,0,0,1.67-1.39,10.82,10.82,0,0,0,2-3.83c-.24,1.8,1.94,6,2.14,6.1s3.34-2.81,3.72-4.58"/><path class="cls-7" d="M160.55,144.31a3.58,3.58,0,0,0-2-2.12,3.45,3.45,0,0,0,1.31-.44,1.43,1.43,0,0,0,.85-1.2,1.56,1.56,0,0,0-.22-.78,3.61,3.61,0,0,0-2.38-2,3.52,3.52,0,0,0,1.44.16,1.54,1.54,0,0,0,1.28-.91,1.67,1.67,0,0,0-.85-1.8,19.73,19.73,0,0,0-1.81-.83,3,3,0,0,0,2.77-.87.94.94,0,0,0,.36-.76,1.11,1.11,0,0,0-.44-.65,9.08,9.08,0,0,0-2.35-1.38,12.78,12.78,0,0,0,2.54-.7c.58-.28,1.17-.81,1.06-1.45a1.69,1.69,0,0,0-.67-.92,6.63,6.63,0,0,0-2.25-1.14,2.85,2.85,0,0,0,3.14-.81,1.92,1.92,0,0,0-.37-2.3,4.9,4.9,0,0,0-2-1.17,9.6,9.6,0,0,0,3.21-1.36.69.69,0,0,0,.28-.5,1,1,0,0,0-.2-.54,7,7,0,0,0-2.54-2.49,10.42,10.42,0,0,0,1.8-.64,2.11,2.11,0,0,0,1-.64,1.67,1.67,0,0,0-.45-2.17A4.32,4.32,0,0,0,161,113a14.8,14.8,0,0,0,2-.72,2,2,0,0,0,1.32-1.66,2,2,0,0,0-.59-1.23,4.26,4.26,0,0,0-2.55-1.52,3.65,3.65,0,0,0,1.81-.46c.6-.33,1.3-.79,1.21-1.48a2,2,0,0,0-.93-1.18c-.83-.62-1.47-1.07-2.31-1.68a12.84,12.84,0,0,0,2-.69"/><path class="cls-8" d="M160.67,101.24c.31,5.79.58,12.64-.31,18.37-.63,4.08-1.57,8.12-2.05,12.23a29.93,29.93,0,0,0,.63,12.22,54.84,54.84,0,0,0-16.83-2.9c-2.69,0-5.37.16-8.05.35l-6.09.43c-2.2.15-4.4.31-6.58.63a51.77,51.77,0,0,0-10.81,2.8c1.37-4.11.81-8.61-.26-12.81a55.57,55.57,0,0,0-2.67-7.93c-.51-1.23-1.07-2.44-1.56-3.68a36.28,36.28,0,0,1-1.19-20.18"/><path class="cls-9" d="M164.23,103a96.23,96.23,0,0,1-1,19.78c-.72,4.66-1.79,9.27-2.34,14s-.65,9.42.71,13.94a62.7,62.7,0,0,0-19.19-3.32c-3.07,0-6.13.19-9.19.4l-6.94.49c-2.5.18-5,.36-7.5.72a59,59,0,0,0-12.33,3.2c1.56-4.69.92-9.82-.3-14.61a63.71,63.71,0,0,0-3-9.05c-.59-1.4-1.23-2.78-1.78-4.19a37.13,37.13,0,0,1-1.59-21.74C111,98,123.11,97.09,135.26,96.9a83.92,83.92,0,0,1,12.68.54A48.33,48.33,0,0,1,164.23,103Z"/><path class="cls-10" d="M113.73,105.47l.81,9.55a2.44,2.44,0,0,0,.32,1.2c.5.74,1.57.71,2.45.62a73.34,73.34,0,0,1,12.66-.17,3.36,3.36,0,0,0,2.72-.58,3.2,3.2,0,0,0,.57-2.4,50.07,50.07,0,0,0-1.06-10.59,2.74,2.74,0,0,0-.77-1.52,2.88,2.88,0,0,0-1.66-.47l-7.13-.5a25.32,25.32,0,0,0-6.79.16C113.72,101.25,113.57,103.64,113.73,105.47Z"/><path class="cls-11" d="M116.18,107.84a2.08,2.08,0,0,0-.57,1.46,2.13,2.13,0,0,0,.5.92,24.48,24.48,0,0,0,5.68,5.11,4.09,4.09,0,0,0,2.22.85,4.18,4.18,0,0,0,2.44-1.19,29.53,29.53,0,0,0,4.38-4.49,2,2,0,0,0,.51-1,2,2,0,0,0-.62-1.33c-1.28-1.51-2.66-2.92-4.07-4.31-1-.95-2.46-3.06-4-2.94-1.29.1-2.19,1.69-2.93,2.57C118.51,104.89,117.3,106.32,116.18,107.84Z"/><path class="cls-11" d="M119.47,102.45a.51.51,0,0,0,.21-.38c0-.17-.21-.27-.37-.33a7.9,7.9,0,0,0-3-.48,1.81,1.81,0,0,0-.92.21,2,2,0,0,0-.68,1.66,27.22,27.22,0,0,0,0,4.33.59.59,0,0,0,.35.55c.71-.92,1.25-2,2-2.9A26,26,0,0,1,119.47,102.45Z"/><path class="cls-11" d="M121,115.6c.16.12.35.28.3.47s-.36.27-.59.25l-3.36-.19a2.06,2.06,0,0,1-2.32-2.52c0-.5-.4-2.41.06-2.74s1.31,1,1.63,1.33A27.56,27.56,0,0,0,121,115.6Z"/><path class="cls-11" d="M130.44,115.93a2.16,2.16,0,0,0,.8-.22,2,2,0,0,0,.74-1.25c.16-.56.3-1.12.41-1.69a4,4,0,0,0,0-2.11.42.42,0,0,0-.15-.22c-.19-.11-.41.07-.56.23a54.59,54.59,0,0,1-4.24,4.49c-.36.34-.79.64-.26.9C128.05,116.5,129.51,115.82,130.44,115.93Z"/><path class="cls-11" d="M131.34,108.1a.61.61,0,0,0,.42.27c.34,0,.47-.42.47-.76a20.52,20.52,0,0,0-.58-4.53c-.12-.59-.3-1.28-.86-1.53a2,2,0,0,0-.88-.1c-1.06,0-2.15,0-3.22.1a.56.56,0,0,0-.44.84,16.55,16.55,0,0,0,2.06,2.3C129.32,105.83,130.36,106.94,131.34,108.1Z"/><path class="cls-12" d="M123.27,103a.48.48,0,0,0,0-1,.48.48,0,0,0,0,1Z"/><path class="cls-12" d="M123.32,104.56a.48.48,0,0,0,0-1,.48.48,0,0,0,0,1Z"/><path class="cls-12" d="M123.41,105.11h0a.47.47,0,0,0-.47.47.48.48,0,0,0,.47.47h0a.47.47,0,0,0,.47-.47.48.48,0,0,0-.47-.47h0a.47.47,0,0,0-.47.47.48.48,0,0,0,.47.47h0a.47.47,0,0,0,.47-.47.48.48,0,0,0-.47-.47Z"/><path class="cls-12" d="M123.48,107.41a.48.48,0,0,0,0-1,.48.48,0,0,0,0,1Z"/><path class="cls-12" d="M123.5,108.72a.48.48,0,0,0,0-1,.48.48,0,0,0,0,1Z"/><path class="cls-12" d="M123.58,110a.47.47,0,0,0,0-.94.47.47,0,0,0,0,.94Z"/><path class="cls-12" d="M123.59,111.38a.48.48,0,0,0,0-.95.48.48,0,0,0,0,.95Z"/><path class="cls-12" d="M123.62,112.68a.47.47,0,0,0,0-.94.47.47,0,0,0,0,.94Z"/><path class="cls-12" d="M123.68,114.08a.47.47,0,0,0,0-.94.47.47,0,0,0,0,.94Z"/><path class="cls-12" d="M117.32,109.33a.47.47,0,0,0,0-.94.47.47,0,0,0,0,.94Z"/><path class="cls-12" d="M118.4,109.28a.47.47,0,0,0,0-.94.47.47,0,0,0,0,.94Z"/><path class="cls-12" d="M119.71,108.31h0a.39.39,0,0,0-.18,0,.46.46,0,0,0-.25.25.34.34,0,0,0,0,.18l0,.12a.45.45,0,0,0,.12.21l.1.08a.46.46,0,0,0,.23.06h0a.5.5,0,0,0,.33-.14.31.31,0,0,0,.1-.15.41.41,0,0,0,0-.19l0-.12a.45.45,0,0,0-.12-.21l-.09-.07a.44.44,0,0,0-.24-.07Z"/><path class="cls-12" d="M121.53,108.81v0a.48.48,0,0,0-.47-.47.49.49,0,0,0-.48.47v0a.48.48,0,0,0,.47.47.49.49,0,0,0,.48-.47v0a.48.48,0,0,0-.47-.47.49.49,0,0,0-.48.47v0a.48.48,0,0,0,.47.47.49.49,0,0,0,.48-.47Z"/><path class="cls-12" d="M122.83,108.78v0a.48.48,0,1,0-1,0v0a.47.47,0,0,0,.47.47.48.48,0,0,0,.47-.47v0a.48.48,0,1,0-1,0v0a.47.47,0,0,0,.47.47.48.48,0,0,0,.47-.47Z"/><path class="cls-12" d="M125.08,109l0,0a.48.48,0,0,0,0-.67.49.49,0,0,0-.67,0l0,0a.47.47,0,1,0,.66.67l0,0a.48.48,0,0,0,0-.67.49.49,0,0,0-.67,0l0,0a.47.47,0,1,0,.66.67Z"/><path class="cls-12" d="M125.92,109.14h0a.39.39,0,0,0,.18,0,.46.46,0,0,0,.25-.25.39.39,0,0,0,0-.18l0-.13a.37.37,0,0,0-.12-.2l-.09-.08a.53.53,0,0,0-.24-.06h0a.39.39,0,0,0-.18,0,.46.46,0,0,0-.25.25.39.39,0,0,0,0,.18l0,.13a.45.45,0,0,0,.12.21l.1.07a.48.48,0,0,0,.23.07Z"/><path class="cls-12" d="M127.37,108.14h0a.41.41,0,0,0-.19,0,.31.31,0,0,0-.15.1.5.5,0,0,0-.14.33l0,.13a.45.45,0,0,0,.12.21l.1.07a.48.48,0,0,0,.24.07h0a.39.39,0,0,0,.18,0,.46.46,0,0,0,.25-.25.37.37,0,0,0,0-.18l0-.13a.37.37,0,0,0-.12-.2l-.09-.08a.53.53,0,0,0-.24-.06Z"/><path class="cls-12" d="M128.6,108.91a.47.47,0,0,0,0-.94.47.47,0,0,0,0,.94Z"/><path class="cls-12" d="M129.77,109a.47.47,0,0,0,0-.94.47.47,0,0,0,0,.94Z"/><path class="cls-10" d="M136.78,105.54l.82,9.55a2.33,2.33,0,0,0,.31,1.2c.5.74,1.57.71,2.46.62a73.33,73.33,0,0,1,12.66-.17,3.32,3.32,0,0,0,2.71-.58,3.25,3.25,0,0,0,.58-2.4,50.74,50.74,0,0,0-1.07-10.59,2.79,2.79,0,0,0-.76-1.52,2.89,2.89,0,0,0-1.67-.47l-7.12-.5a25.31,25.31,0,0,0-6.79.16C136.77,101.32,136.63,103.71,136.78,105.54Z"/><path class="cls-11" d="M139.24,107.91a2.08,2.08,0,0,0-.57,1.46,2,2,0,0,0,.5.92,24.64,24.64,0,0,0,5.67,5.11,3.21,3.21,0,0,0,4.67-.34,29,29,0,0,0,4.37-4.49,2,2,0,0,0,.52-1,2.05,2.05,0,0,0-.63-1.33c-1.27-1.51-2.66-2.92-4.07-4.31-1-1-2.46-3.06-4-2.94-1.28.1-2.18,1.69-2.92,2.57C141.57,105,140.36,106.39,139.24,107.91Z"/><path class="cls-11" d="M142.52,102.52a.48.48,0,0,0,.21-.38c0-.17-.2-.27-.37-.33a7.83,7.83,0,0,0-3-.48,1.83,1.83,0,0,0-.92.21,2,2,0,0,0-.68,1.66,27.22,27.22,0,0,0,0,4.33.58.58,0,0,0,.35.55c.71-.92,1.24-2,2-2.9A24.79,24.79,0,0,1,142.52,102.52Z"/><path class="cls-11" d="M144,115.67c.17.12.35.28.31.47s-.36.27-.59.25l-3.36-.19a2.06,2.06,0,0,1-2.32-2.52c0-.5-.41-2.41.06-2.74s1.3,1,1.62,1.33A28.53,28.53,0,0,0,144,115.67Z"/><path class="cls-11" d="M153.5,116a2.06,2.06,0,0,0,.79-.22,2,2,0,0,0,.75-1.25c.16-.56.29-1.12.4-1.69a3.88,3.88,0,0,0,0-2.11.57.57,0,0,0-.15-.22c-.19-.11-.42.07-.56.23a54.71,54.71,0,0,1-4.25,4.49c-.36.34-.78.64-.25.9C151.1,116.57,152.57,115.89,153.5,116Z"/><path class="cls-11" d="M154.39,108.17a.63.63,0,0,0,.43.27c.33,0,.46-.42.47-.76a21.14,21.14,0,0,0-.58-4.53c-.12-.59-.31-1.28-.86-1.53a2,2,0,0,0-.88-.1c-1.06,0-2.16,0-3.23.1a.56.56,0,0,0-.43.84,16.55,16.55,0,0,0,2.06,2.3C152.37,105.9,153.42,107,154.39,108.17Z"/><path class="cls-12" d="M146.33,103.1a.48.48,0,0,0,0-.95.48.48,0,0,0,0,.95Z"/><path class="cls-12" d="M146.37,104.63a.48.48,0,0,0,0-.95.48.48,0,0,0,0,.95Z"/><path class="cls-12" d="M146.47,105.18h0a.47.47,0,0,0-.47.47.48.48,0,0,0,.47.47h0a.48.48,0,0,0,.47-.47.48.48,0,0,0-.47-.47h0a.47.47,0,0,0-.47.47.48.48,0,0,0,.47.47h0a.48.48,0,0,0,.47-.47.48.48,0,0,0-.47-.47Z"/><path class="cls-12" d="M146.53,107.48a.48.48,0,0,0,0-1,.48.48,0,0,0,0,1Z"/><path class="cls-12" d="M146.56,108.79a.48.48,0,0,0,0-1,.48.48,0,0,0,0,1Z"/><path class="cls-12" d="M146.63,110.05a.47.47,0,0,0,0-.94.47.47,0,0,0,0,.94Z"/><path class="cls-12" d="M146.65,111.45a.48.48,0,0,0,0-1,.48.48,0,0,0,0,1Z"/><path class="cls-12" d="M146.67,112.75a.47.47,0,0,0,0-.94.47.47,0,0,0,0,.94Z"/><path class="cls-12" d="M146.73,114.15a.47.47,0,0,0,0-.94.47.47,0,0,0,0,.94Z"/><path class="cls-12" d="M140.37,109.4a.47.47,0,0,0,0-.94.47.47,0,0,0,0,.94Z"/><path class="cls-12" d="M141.46,109.35a.47.47,0,0,0,0-.94.47.47,0,0,0,0,.94Z"/><path class="cls-12" d="M142.76,108.38h0a.34.34,0,0,0-.18,0,.46.46,0,0,0-.25.25.34.34,0,0,0,0,.18V109a.57.57,0,0,0,.13.21l.09.08a.5.5,0,0,0,.24.06h0a.41.41,0,0,0,.19,0,.49.49,0,0,0,.15-.1.4.4,0,0,0,.1-.15.58.58,0,0,0,0-.19l0-.12a.45.45,0,0,0-.12-.21l-.1-.07a.4.4,0,0,0-.24-.07Z"/><path class="cls-12" d="M144.58,108.88v0a.47.47,0,0,0-.47-.47.48.48,0,0,0-.47.47v0a.48.48,0,0,0,.47.47.48.48,0,0,0,.47-.47v0a.47.47,0,0,0-.47-.47.48.48,0,0,0-.47.47v0a.48.48,0,0,0,.47.47.48.48,0,0,0,.47-.47Z"/><path class="cls-12" d="M145.89,108.85v0a.48.48,0,0,0-.47-.48.48.48,0,0,0-.47.48v0a.48.48,0,0,0,.95,0v0a.48.48,0,0,0-.47-.48.48.48,0,0,0-.47.48v0a.48.48,0,0,0,.95,0Z"/><path class="cls-12" d="M148.14,109.11l0,0a.47.47,0,0,0,0-.67.48.48,0,0,0-.66,0l0,0a.47.47,0,0,0,.67.67l0,0a.47.47,0,0,0,0-.67.48.48,0,0,0-.66,0l0,0a.47.47,0,0,0,.67.67Z"/><path class="cls-12" d="M149,109.21H149a.39.39,0,0,0,.18,0,.31.31,0,0,0,.15-.1.5.5,0,0,0,.14-.33l0-.13a.37.37,0,0,0-.12-.2l-.1-.08a.46.46,0,0,0-.23-.06H149a.39.39,0,0,0-.18,0,.46.46,0,0,0-.25.25.39.39,0,0,0,0,.18l0,.13a.45.45,0,0,0,.12.21l.09.07a.55.55,0,0,0,.24.07Z"/><path class="cls-12" d="M150.43,108.21h-.05a.39.39,0,0,0-.18,0,.46.46,0,0,0-.25.25.39.39,0,0,0,0,.18l0,.13a.45.45,0,0,0,.12.21l.09.07a.55.55,0,0,0,.24.07h.05a.39.39,0,0,0,.18,0,.46.46,0,0,0,.25-.25.37.37,0,0,0,0-.18l0-.13a.37.37,0,0,0-.12-.2l-.1-.08a.46.46,0,0,0-.23-.06Z"/><path class="cls-12" d="M151.66,109a.47.47,0,0,0,0-.94.47.47,0,0,0,0,.94Z"/><path class="cls-12" d="M152.82,109a.47.47,0,0,0,0-.94.47.47,0,0,0,0,.94Z"/><path class="cls-10" d="M117.12,124.86l1.7,8.73a2.2,2.2,0,0,0,.41,1.08c.53.62,1.52.49,2.32.32a67.4,67.4,0,0,1,11.67-1.41,3.12,3.12,0,0,0,2.45-.8,3,3,0,0,0,.29-2.27,46.61,46.61,0,0,0-2-9.67,2.47,2.47,0,0,0-.85-1.32,2.68,2.68,0,0,0-1.59-.27l-6.62.24a23.58,23.58,0,0,0-6.25.82C116.69,121,116.79,123.18,117.12,124.86Z"/><path class="cls-11" d="M119.62,126.8a1.92,1.92,0,0,0-.38,1.4,1.83,1.83,0,0,0,.55.8,23.08,23.08,0,0,0,5.74,4.16,3,3,0,0,0,4.27-.78,27,27,0,0,0,3.59-4.58,1.74,1.74,0,0,0,.37-1,1.87,1.87,0,0,0-.7-1.16c-1.33-1.27-2.75-2.44-4.19-3.57-1-.79-2.57-2.58-4-2.32-1.17.22-1.85,1.77-2.44,2.66C121.48,123.85,120.5,125.29,119.62,126.8Z"/><path class="cls-11" d="M122.12,121.5a.44.44,0,0,0,.15-.37c0-.15-.22-.23-.37-.27a7.24,7.24,0,0,0-2.78-.15,1.72,1.72,0,0,0-.83.29,1.87,1.87,0,0,0-.46,1.6,25.41,25.41,0,0,0,.47,4c0,.23.15.42.38.47.56-.91.95-2,1.52-2.87A21.93,21.93,0,0,1,122.12,121.5Z"/><path class="cls-11" d="M124.79,133.49c.16.09.34.22.32.41s-.3.27-.52.29l-3.12.15a1.91,1.91,0,0,1-2.38-2.1c-.08-.46-.62-2.18-.22-2.53s1.3.8,1.63,1.07A26.09,26.09,0,0,0,124.79,133.49Z"/><path class="cls-11" d="M133.58,132.85a2,2,0,0,0,.71-.28,1.82,1.82,0,0,0,.56-1.23c.09-.53.16-1.06.21-1.6a3.64,3.64,0,0,0-.23-1.94.37.37,0,0,0-.16-.19c-.18-.09-.37.1-.49.27a51.32,51.32,0,0,1-3.47,4.57c-.3.34-.66.66-.14.85C131.42,133.61,132.71,132.84,133.58,132.85Z"/><path class="cls-11" d="M133.63,125.54a.59.59,0,0,0,.41.21c.31,0,.39-.44.36-.75a19,19,0,0,0-1-4.12c-.17-.54-.41-1.15-.95-1.33a1.84,1.84,0,0,0-.81,0c-1,.14-2,.24-3,.41a.52.52,0,0,0-.32.82,16.35,16.35,0,0,0,2.13,1.92C131.54,123.65,132.61,124.56,133.63,125.54Z"/><path class="cls-12" d="M125.64,121.66a.44.44,0,0,0,0-.88.44.44,0,0,0,0,.88Z"/><path class="cls-12" d="M125.83,123.07a.44.44,0,0,0,0-.88.44.44,0,0,0,0,.88Z"/><path class="cls-12" d="M126.06,123.56h0a.44.44,0,0,0,0,.88h0a.44.44,0,0,0,0-.88h0a.44.44,0,0,0,0,.88h0a.44.44,0,0,0,0-.88Z"/><path class="cls-12" d="M126.26,125.68a.44.44,0,0,0,0-.87.44.44,0,0,0,0,.87Z"/><path class="cls-12" d="M126.41,126.89a.44.44,0,0,0,0-.88.44.44,0,0,0,0,.88Z"/><path class="cls-12" d="M126.61,128.05a.44.44,0,0,0,0-.88.44.44,0,0,0,0,.88Z"/><path class="cls-12" d="M126.76,129.33a.44.44,0,0,0,0-.87.44.44,0,0,0,0,.87Z"/><path class="cls-12" d="M126.91,130.54a.44.44,0,0,0,0-.88.44.44,0,0,0,0,.88Z"/><path class="cls-12" d="M127.11,131.82a.44.44,0,0,0,0-.87.44.44,0,0,0,0,.87Z"/><path class="cls-12" d="M120.77,128.07a.44.44,0,0,0,0-.88.44.44,0,0,0,0,.88Z"/><path class="cls-12" d="M121.76,127.91a.44.44,0,0,0,0-.87.44.44,0,0,0,0,.87Z"/><path class="cls-12" d="M123,126.89h0a.34.34,0,0,0-.17,0,.39.39,0,0,0-.23.23.34.34,0,0,0,0,.17v.12a.45.45,0,0,0,.11.19l.09.07a.43.43,0,0,0,.22.06h0a.29.29,0,0,0,.16,0,.19.19,0,0,0,.14-.09.28.28,0,0,0,.1-.14.32.32,0,0,0,0-.17v-.11a.41.41,0,0,0-.12-.2l-.08-.06a.46.46,0,0,0-.22-.06Z"/><path class="cls-12" d="M124.65,127.21v0a.44.44,0,0,0-.88,0v0a.44.44,0,0,0,.88,0v0a.44.44,0,0,0-.88,0v0a.44.44,0,0,0,.88,0Z"/><path class="cls-12" d="M125.85,127.06v0a.44.44,0,0,0-.88,0v0a.44.44,0,0,0,.88,0v0a.44.44,0,0,0-.88,0v0a.44.44,0,0,0,.88,0Z"/><path class="cls-12" d="M127.92,127.06l0,0c.4-.39-.22-1-.62-.62l0,0a.44.44,0,0,0,.62.62l0,0c.4-.39-.22-1-.62-.62l0,0a.44.44,0,0,0,.62.62Z"/><path class="cls-12" d="M128.69,127h0a.32.32,0,0,0,.17,0,.39.39,0,0,0,.23-.23.35.35,0,0,0,0-.17l0-.12a.45.45,0,0,0-.11-.19l-.09-.07a.43.43,0,0,0-.22-.06h0a.33.33,0,0,0-.17,0,.24.24,0,0,0-.14.09.34.34,0,0,0-.09.14.33.33,0,0,0,0,.17l0,.11a.4.4,0,0,0,.11.2l.09.06a.43.43,0,0,0,.22.06Z"/><path class="cls-12" d="M130,126H130a.29.29,0,0,0-.16,0,.28.28,0,0,0-.14.09.33.33,0,0,0-.1.14.34.34,0,0,0,0,.17v.12a.39.39,0,0,0,.12.19l.08.07a.46.46,0,0,0,.22.06H130a.35.35,0,0,0,.17,0,.24.24,0,0,0,.14-.09.34.34,0,0,0,.09-.14.32.32,0,0,0,0-.17v-.11a.49.49,0,0,0-.11-.2l-.09-.07A.43.43,0,0,0,130,126Z"/><path class="cls-12" d="M131.14,126.56a.44.44,0,0,0,0-.87.44.44,0,0,0,0,.87Z"/><path class="cls-12" d="M132.22,126.49a.44.44,0,0,0,0-.88.44.44,0,0,0,0,.88Z"/><path class="cls-10" d="M138.32,124l.43,8.88A2.29,2.29,0,0,0,139,134c.44.7,1.44.71,2.26.65a67.84,67.84,0,0,1,11.75.27,2.28,2.28,0,0,0,3.15-2.65,46.42,46.42,0,0,0-.64-9.86,2.46,2.46,0,0,0-.65-1.43,2.63,2.63,0,0,0-1.53-.49l-6.59-.7a23.33,23.33,0,0,0-6.3-.09C138.45,120,138.24,122.24,138.32,124Z"/><path class="cls-11" d="M140.52,126.23a1.92,1.92,0,0,0-.58,1.33,1.83,1.83,0,0,0,.43.87,22.94,22.94,0,0,0,5.09,4.94,3.86,3.86,0,0,0,2,.86,3.92,3.92,0,0,0,2.31-1,27.56,27.56,0,0,0,4.2-4,1.87,1.87,0,0,0,.52-.95A1.89,1.89,0,0,0,154,127c-1.13-1.45-2.37-2.8-3.63-4.14-.86-.91-2.18-2.92-3.61-2.86-1.19.06-2.08,1.5-2.79,2.29C142.78,123.57,141.61,124.86,140.52,126.23Z"/><path class="cls-11" d="M143.74,121.34A.44.44,0,0,0,144,121c0-.16-.18-.26-.33-.32a7.35,7.35,0,0,0-2.73-.55,1.68,1.68,0,0,0-.86.17,1.87,1.87,0,0,0-.69,1.51,25.71,25.71,0,0,0-.1,4,.55.55,0,0,0,.3.53c.69-.83,1.22-1.8,1.92-2.64A24.39,24.39,0,0,1,143.74,121.34Z"/><path class="cls-11" d="M144.67,133.59c.15.11.32.27.27.45s-.34.23-.56.21l-3.1-.29a1.92,1.92,0,0,1-2.07-2.42c0-.46-.3-2.25.15-2.53s1.17,1,1.46,1.28A26.4,26.4,0,0,0,144.67,133.59Z"/><path class="cls-11" d="M153.47,134.21a1.72,1.72,0,0,0,.74-.18,1.86,1.86,0,0,0,.74-1.13c.16-.52.3-1,.43-1.56a3.59,3.59,0,0,0,.05-2,.42.42,0,0,0-.13-.21c-.17-.11-.39,0-.52.2a55.38,55.38,0,0,1-4.09,4c-.35.3-.75.56-.27.82C151.23,134.66,152.61,134.08,153.47,134.21Z"/><path class="cls-11" d="M154.56,127a.61.61,0,0,0,.38.27c.31,0,.45-.38.47-.69a20,20,0,0,0-.39-4.22,1.36,1.36,0,0,0-1.56-1.57c-1,0-2,0-3,0a.53.53,0,0,0-.44.77,16.23,16.23,0,0,0,1.84,2.2C152.76,124.81,153.7,125.87,154.56,127Z"/><path class="cls-12" d="M147.27,122a.44.44,0,0,0,0-.87.44.44,0,0,0,0,.87Z"/><path class="cls-12" d="M147.26,123.43a.44.44,0,0,0,0-.88.44.44,0,0,0,0,.88Z"/><path class="cls-12" d="M147.41,124h0a.46.46,0,0,0-.54.31.45.45,0,0,0,.3.54h0a.45.45,0,0,0,.54-.31.44.44,0,0,0-.31-.53h0a.46.46,0,0,0-.54.31.45.45,0,0,0,.3.54h0a.45.45,0,0,0,.54-.31.44.44,0,0,0-.31-.53Z"/><path class="cls-12" d="M147.31,126.08a.44.44,0,0,0,0-.88.44.44,0,0,0,0,.88Z"/><path class="cls-12" d="M147.29,127.29a.44.44,0,0,0,0-.88.44.44,0,0,0,0,.88Z"/><path class="cls-12" d="M147.32,128.47a.44.44,0,0,0,0-.88.44.44,0,0,0,0,.88Z"/><path class="cls-12" d="M147.28,129.76a.44.44,0,0,0,0-.88.44.44,0,0,0,0,.88Z"/><path class="cls-12" d="M147.26,131a.44.44,0,0,0,0-.87.44.44,0,0,0,0,.87Z"/><path class="cls-12" d="M147.27,132.27a.44.44,0,0,0,0-.87.44.44,0,0,0,0,.87Z"/><path class="cls-12" d="M141.53,127.65a.44.44,0,0,0,0-.87.44.44,0,0,0,0,.87Z"/><path class="cls-12" d="M142.54,127.64a.44.44,0,0,0,0-.87.44.44,0,0,0,0,.87Z"/><path class="cls-12" d="M143.87,126.8h0a.28.28,0,0,0-.18,0,.33.33,0,0,0-.16,0,.32.32,0,0,0-.12.11.28.28,0,0,0-.08.15l0,.12a.43.43,0,0,0,.06.22l.07.09a.49.49,0,0,0,.2.11h0a.33.33,0,0,0,.17,0,.3.3,0,0,0,.16-.05.35.35,0,0,0,.13-.11.26.26,0,0,0,.07-.15l0-.12a.46.46,0,0,0-.06-.22l-.07-.09a.45.45,0,0,0-.19-.11Z"/><path class="cls-12" d="M145.42,127.41v0a.46.46,0,0,0-.31-.54.45.45,0,0,0-.54.31v0a.44.44,0,0,0,.3.53.44.44,0,0,0,.54-.3v0a.46.46,0,0,0-.31-.54.45.45,0,0,0-.54.31v0a.44.44,0,0,0,.3.53.44.44,0,0,0,.54-.3Z"/><path class="cls-12" d="M146.63,127.43v0a.46.46,0,0,0-.31-.54.45.45,0,0,0-.54.31v0a.44.44,0,0,0,.31.53.43.43,0,0,0,.53-.3v0a.46.46,0,0,0-.31-.54.45.45,0,0,0-.54.31v0a.44.44,0,0,0,.31.53.43.43,0,0,0,.53-.3Z"/><path class="cls-12" d="M148.65,127.7l0,0a.45.45,0,0,0,.15-.6.44.44,0,0,0-.6-.15h0a.46.46,0,0,0-.16.6.44.44,0,0,0,.6.16l0,0a.45.45,0,0,0,.15-.6.44.44,0,0,0-.6-.15h0a.46.46,0,0,0-.16.6.44.44,0,0,0,.6.16Z"/><path class="cls-12" d="M149.41,127.74h0a.32.32,0,0,0,.17,0,.43.43,0,0,0,.16-.05.37.37,0,0,0,.13-.12.26.26,0,0,0,.07-.15l0-.11a.4.4,0,0,0-.06-.22l-.07-.09a.37.37,0,0,0-.19-.11h0a.37.37,0,0,0-.18,0,.33.33,0,0,0-.16,0,.34.34,0,0,0-.12.12.29.29,0,0,0-.08.14l0,.12a.43.43,0,0,0,.06.22l.07.09a.4.4,0,0,0,.2.11Z"/><path class="cls-12" d="M151,126.9h0a.37.37,0,0,0-.18,0,.49.49,0,0,0-.16.05.34.34,0,0,0-.12.12.28.28,0,0,0-.08.15l0,.11a.4.4,0,0,0,.06.22l.07.09a.51.51,0,0,0,.2.12h0a.32.32,0,0,0,.17,0,.39.39,0,0,0,.29-.17.39.39,0,0,0,.08-.14v-.12a.43.43,0,0,0-.06-.22l-.07-.09a.45.45,0,0,0-.19-.11Z"/><path class="cls-12" d="M152,127.64a.44.44,0,0,0,0-.87.44.44,0,0,0,0,.87Z"/><path class="cls-12" d="M153.09,127.72a.44.44,0,0,0,0-.87.44.44,0,0,0,0,.87Z"/><path class="cls-13" d="M89.41,142.5a24.11,24.11,0,0,0-12,2c-.55.24-1.09.51-1.63.78a8,8,0,0,1,3.44-2.19q-3.19.19-6.39.42a11.09,11.09,0,0,0,3-1.1c-2.65-1.23-5.68.42-8.6.51a39.38,39.38,0,0,1,14.16-2,2.16,2.16,0,0,0-.29-1.29,1.74,1.74,0,0,0,1,.61c.39,0,.82-.32.69-.69a13.1,13.1,0,0,0,4.58.94,2.94,2.94,0,0,1,1.11.17,8.24,8.24,0,0,0-1.93,1.39A11.31,11.31,0,0,1,89.41,142.5Z"/><path class="cls-13" d="M103.09,177.57a34.74,34.74,0,0,0-4.86,14.27,55.54,55.54,0,0,0-.1,6.32c.07,3.11-1.51,15.7-2.06,18.14,3.36.91,8.67,0,12.15,0,1.4-11.59.07-23.57,3.28-34.79a21.19,21.19,0,0,0,1.21-5.68,5.52,5.52,0,0,0-2.49-5c-.58-.31-2.37-1.12-3-.95-.88.24-.79,1.17-1.09,2A34.61,34.61,0,0,1,103.09,177.57Z"/><path class="cls-4" d="M167.89,218.86c-1.54.73-4.8,2.28-6.47,1.95-8.25-1.59-16.75-.57-25.14-.22-10.37.44-24.75-.53-35.11-1.14,1.37-7.8,3.08-15.4,3.14-23.31a40.06,40.06,0,0,1,4.32-17.74c1.18-2.32,2.62-4.61,2.89-7.2-.29,2.76,14.51,3.3,16.1,3.42a165.52,165.52,0,0,0,18.9.24c3.88-.18,8.14.43,11.56-1.86.86-.57,1.71-1.34,2.74-1.33,2.57,0,2.59,4.14,2.77,5.87q.75,7.19,1.32,14.4C165.29,196.74,168.78,218.43,167.89,218.86Z"/><path class="cls-14" d="M162.24,175.55c-10.21,2.64-21,1.51-31.43.08q-9.34-1.27-18.64-2.84a18.17,18.17,0,0,0-6.77-.2l.1-.12a11.24,11.24,0,0,0,.58-3.48,2.87,2.87,0,0,1,2.4-.31c17.44,2.88,35.25,6.16,52.67,3.13C161.59,173.13,161.8,174.23,162.24,175.55Z"/><path class="cls-15" d="M128.67,171.34c-.16,1.46-.2,2.81-.36,4.26a.7.7,0,0,1-.7.29c-.93-.09-1.73-.44-2.66-.53l.41-4.68a1.69,1.69,0,0,1,.59-.05C126.88,170.72,127.75,171.25,128.67,171.34Z"/><path class="cls-14" d="M127.93,172.46a.63.63,0,0,0-.58.06,1.18,1.18,0,0,0,.23-.27c.12-.19-.16-.23-.29-.2a.76.76,0,0,0-.41.32.72.72,0,0,0-.1-.24c-.14-.23-.63-.42-.7,0a.63.63,0,0,0,.17.56,1.17,1.17,0,0,0-.31-.17c-.21-.08-.2.2-.14.32a.69.69,0,0,0,.25.26l-.18,0c-.25.09-.54.54-.18.68a.6.6,0,0,0,.58-.06,1.27,1.27,0,0,0-.23.28c-.11.19.17.23.29.19a.72.72,0,0,0,.41-.32,1.33,1.33,0,0,0,.1.24c.14.23.63.42.7,0a.58.58,0,0,0-.17-.55,1.62,1.62,0,0,0,.32.17c.2.07.19-.21.13-.32a.57.57,0,0,0-.25-.26l.19-.05C128,173.05,128.29,172.6,127.93,172.46Zm-1.16.85-.11-.14.2-.24.11.15Z"/><path class="cls-15" d="M120.06,170.19c-.16,1.49-.2,2.87-.37,4.35a.63.63,0,0,1-.66.28c-.93-.09-1.76-.43-2.7-.53l.42-4.77a1.67,1.67,0,0,1,.59-.05C118.26,169.56,119.13,170.1,120.06,170.19Z"/><path class="cls-14" d="M119.31,171.19a.58.58,0,0,0-.57.07A1.93,1.93,0,0,0,119,171c.12-.19-.16-.23-.28-.2a.7.7,0,0,0-.41.32,1.73,1.73,0,0,0-.1-.24c-.14-.23-.63-.42-.71,0a.63.63,0,0,0,.18.56,1.41,1.41,0,0,0-.32-.17c-.21-.08-.19.2-.14.32a.78.78,0,0,0,.25.26l-.18,0c-.25.09-.53.54-.17.68a.6.6,0,0,0,.58-.06,1.23,1.23,0,0,0-.23.28c-.12.19.16.23.28.2a.77.77,0,0,0,.42-.33.77.77,0,0,0,.1.25c.13.22.63.41.7,0a.62.62,0,0,0-.18-.55,2,2,0,0,0,.32.17c.21.07.19-.21.14-.32a.69.69,0,0,0-.25-.26l.18,0C119.39,171.78,119.68,171.34,119.31,171.19Zm-1.16.85-.11-.14.2-.23.11.14Z"/><path class="cls-15" d="M131,172.32a1.17,1.17,0,0,0-.61-.25,1,1,0,0,1,.57-.32,1.25,1.25,0,0,1,1.11.38,1.26,1.26,0,0,1,1.57.23,1.17,1.17,0,0,0-1,.26.65.65,0,0,0-.28.64,1.12,1.12,0,0,1-.72.13c-.11,0-.37.08-.4,0s.12-.31.13-.38A.74.74,0,0,0,131,172.32Z"/><path class="cls-15" d="M132.56,175.62a1.14,1.14,0,0,0,.61.25,1,1,0,0,1-.57.32,1.24,1.24,0,0,1-1.11-.38,1.25,1.25,0,0,1-1.58-.2,1.18,1.18,0,0,0,1-.29.63.63,0,0,0,.27-.64,1.16,1.16,0,0,1,.73-.13c.11,0,.29.08.32.2s0,.15-.05.22A.71.71,0,0,0,132.56,175.62Z"/><path class="cls-15" d="M133.55,173.17a1.11,1.11,0,0,0,.25-.6,1,1,0,0,1,.32.56,1.26,1.26,0,0,1-.38,1.12,1.17,1.17,0,0,1-.32,1.49c0-.42.11-.61-.17-.94a.64.64,0,0,0-.64-.27,1.13,1.13,0,0,1-.13-.72c0-.11,0-.22.07-.26a2.17,2.17,0,0,1,.36,0A.8.8,0,0,0,133.55,173.17Z"/><path class="cls-15" d="M130.08,174.87a1.14,1.14,0,0,0-.25.6.91.91,0,0,1-.32-.56,8.4,8.4,0,0,0,.64-2.66,1.12,1.12,0,0,0,.23,1,.63.63,0,0,0,.64.27,1.16,1.16,0,0,1,.13.73c0,.1,0,.19-.08.22s-.23,0-.34,0A1.07,1.07,0,0,0,130.08,174.87Z"/><circle class="cls-15" cx="131.81" cy="174.03" r="1.01"/><path class="cls-15" d="M136.73,172.93a1.14,1.14,0,0,0-.6-.25,1,1,0,0,1,.56-.32,1.27,1.27,0,0,1,1.12.38,1.24,1.24,0,0,1,1.56.23,1.15,1.15,0,0,0-1,.26.63.63,0,0,0-.27.64,1.14,1.14,0,0,1-.72.13c-.11,0-.37.08-.4,0s.12-.31.12-.39A.7.7,0,0,0,136.73,172.93Z"/><path class="cls-15" d="M138.28,176.23a1.14,1.14,0,0,0,.6.25,1,1,0,0,1-.56.32,1.27,1.27,0,0,1-1.12-.38,1.24,1.24,0,0,1-1.57-.2,1.18,1.18,0,0,0,1-.29.63.63,0,0,0,.27-.64,1.14,1.14,0,0,1,.72-.13c.11,0,.29.08.33.2s0,.15-.05.22A.69.69,0,0,0,138.28,176.23Z"/><path class="cls-15" d="M139.26,173.78a1.15,1.15,0,0,0,.26-.6,1,1,0,0,1,.32.56,1.29,1.29,0,0,1-.38,1.12,1.16,1.16,0,0,1-.33,1.49c0-.43.12-.61-.16-.94a.63.63,0,0,0-.64-.27,1.08,1.08,0,0,1-.14-.72c0-.11-.05-.22.07-.26a2.1,2.1,0,0,1,.36,0A.79.79,0,0,0,139.26,173.78Z"/><path class="cls-15" d="M135.8,175.48a1.14,1.14,0,0,0-.25.6.92.92,0,0,1-.33-.56,1.28,1.28,0,0,1,.39-1.11,1.23,1.23,0,0,1,.26-1.55,1.1,1.1,0,0,0,.23,1,.62.62,0,0,0,.64.27,1.16,1.16,0,0,1,.13.73c0,.1,0,.19-.09.22s-.22,0-.33,0A1.07,1.07,0,0,0,135.8,175.48Z"/><circle class="cls-15" cx="137.53" cy="174.64" r="1.01"/><path class="cls-15" d="M107,168.85a1.3,1.3,0,0,0-.63-.2,1,1,0,0,1,.54-.38,1.29,1.29,0,0,1,1.16.29,1.27,1.27,0,0,1,1.61.08,1.2,1.2,0,0,0-1,.36.64.64,0,0,0-.22.67,1.07,1.07,0,0,1-.72.2c-.11,0-.36.12-.4,0s.09-.32.09-.4A.74.74,0,0,0,107,168.85Z"/><path class="cls-15" d="M108.85,172a1.3,1.3,0,0,0,.63.2,1,1,0,0,1-.54.37,1.28,1.28,0,0,1-1.16-.28,1.27,1.27,0,0,1-1.61-.05,1.19,1.19,0,0,0,1-.39.64.64,0,0,0,.22-.67,1.13,1.13,0,0,1,.72-.21c.11,0,.29.06.34.18s0,.15,0,.23A.72.72,0,0,0,108.85,172Z"/><path class="cls-15" d="M109.61,169.47a1.12,1.12,0,0,0,.2-.63.92.92,0,0,1,.38.54,1.28,1.28,0,0,1-.28,1.16,1.19,1.19,0,0,1-.19,1.54c0-.43.06-.63-.25-.93a.65.65,0,0,0-.67-.22,1.08,1.08,0,0,1-.21-.72c0-.11-.07-.21,0-.26s.28,0,.36,0A.78.78,0,0,0,109.61,169.47Z"/><path class="cls-15" d="M106.27,171.51a1.37,1.37,0,0,0-.2.64,1.05,1.05,0,0,1-.38-.54,1.29,1.29,0,0,1,.29-1.16,1.23,1.23,0,0,1,.12-1.59,1.13,1.13,0,0,0,.32,1,.63.63,0,0,0,.67.21,1.1,1.1,0,0,1,.2.72c0,.11.06.19-.06.24s-.23,0-.34,0A1.11,1.11,0,0,0,106.27,171.51Z"/><circle class="cls-15" cx="107.94" cy="170.5" r="1.02"/><path class="cls-15" d="M112.26,169.5a1.13,1.13,0,0,0-.59-.24.91.91,0,0,1,.55-.32,1.26,1.26,0,0,1,1.09.37,1.23,1.23,0,0,1,1.53.23,1.16,1.16,0,0,0-1,.25.66.66,0,0,0-.27.63,1.07,1.07,0,0,1-.7.13c-.11,0-.36.08-.39,0s.12-.3.12-.38A.71.71,0,0,0,112.26,169.5Z"/><path class="cls-15" d="M113.77,172.72a1.08,1.08,0,0,0,.59.25.93.93,0,0,1-.55.31,1.22,1.22,0,0,1-1.09-.37,1.23,1.23,0,0,1-1.54-.19,1.18,1.18,0,0,0,1-.29.61.61,0,0,0,.26-.62,1.1,1.1,0,0,1,.71-.13c.1,0,.28.08.31.19s0,.15,0,.22A.71.71,0,0,0,113.77,172.72Z"/><path class="cls-15" d="M114.73,170.33a1.08,1.08,0,0,0,.25-.59.92.92,0,0,1,.31.56,1.21,1.21,0,0,1-.37,1.08,1.14,1.14,0,0,1-.32,1.46c0-.41.11-.59-.16-.91a.61.61,0,0,0-.62-.27,1.1,1.1,0,0,1-.13-.71c0-.1,0-.21.07-.24a2,2,0,0,1,.35,0A.77.77,0,0,0,114.73,170.33Z"/><path class="cls-15" d="M111.35,172a1.14,1.14,0,0,0-.25.59.9.9,0,0,1-.31-.55,1.23,1.23,0,0,1,.37-1.09,1.19,1.19,0,0,1,.26-1.51,1.08,1.08,0,0,0,.22,1,.61.61,0,0,0,.62.26,1.11,1.11,0,0,1,.13.71c0,.11,0,.19-.08.22s-.22,0-.33,0A1.05,1.05,0,0,0,111.35,172Z"/><circle class="cls-15" cx="113.03" cy="171.17" r="0.99"/><path class="cls-15" d="M121.8,171.11a1,1,0,0,0-.54-.22.83.83,0,0,1,.5-.29,1.13,1.13,0,0,1,1,.34,1.11,1.11,0,0,1,1.4.21,1.05,1.05,0,0,0-.91.22.6.6,0,0,0-.24.58,1,1,0,0,1-.65.12c-.09,0-.32.07-.35,0s.11-.28.11-.34A.66.66,0,0,0,121.8,171.11Z"/><path class="cls-15" d="M123.18,174.05a1,1,0,0,0,.54.23.91.91,0,0,1-.51.29,1.14,1.14,0,0,1-1-.35,1.1,1.1,0,0,1-1.4-.17,1.05,1.05,0,0,0,.9-.26.57.57,0,0,0,.25-.57,1,1,0,0,1,.64-.12c.1,0,.26.07.29.18s0,.13,0,.2A.61.61,0,0,0,123.18,174.05Z"/><path class="cls-15" d="M124.06,171.87a1,1,0,0,0,.22-.54.85.85,0,0,1,.29.51,1.12,1.12,0,0,1-.34,1,1,1,0,0,1-.29,1.33c0-.38.1-.54-.14-.83a.59.59,0,0,0-.58-.25,1,1,0,0,1-.12-.64c0-.1,0-.2.07-.23s.25,0,.32,0A.72.72,0,0,0,124.06,171.87Z"/><path class="cls-15" d="M121,173.38a1,1,0,0,0-.23.55.94.94,0,0,1-.29-.51,1.13,1.13,0,0,1,.35-1A1.1,1.1,0,0,1,121,171a1,1,0,0,0,.2.89.56.56,0,0,0,.57.24,1,1,0,0,1,.12.65c0,.1,0,.17-.07.2s-.2,0-.3,0A1,1,0,0,0,121,173.38Z"/><circle class="cls-15" cx="122.51" cy="172.63" r="0.9"/><path class="cls-15" d="M111.06,176c0,.78.12,1.55.17,2.35.07,1,.09,2,.06,3.07a.87.87,0,0,0,0,.36.74.74,0,0,0,.13.21l.66.8c-.07-.32.37-.52.45-.84a.57.57,0,0,0,0-.26c-.12-2.93-.71-5.91-.07-8.8-.24,0-.81-.1-1,.06s-.18.54-.21.71c-.08.42-.15.85-.2,1.27A7.74,7.74,0,0,0,111.06,176Z"/><path class="cls-15" d="M112.43,176a19.81,19.81,0,0,0,.23,2.54,21.06,21.06,0,0,1,.14,2.87.62.62,0,0,0,.2.57l.67.78c-.08-.32.36-.53.44-.85a1.2,1.2,0,0,0,0-.27c-.11-1.49-.26-3-.41-4.47a15.14,15.14,0,0,1-.14-2.13,11.49,11.49,0,0,1,.25-2.19c-.25,0-.81-.07-1,.09s-.2.65-.24.91c-.06.51-.11,1-.13,1.51C112.43,175.6,112.43,175.81,112.43,176Z"/><path class="cls-16" d="M145.67,169.73l-.28,0a6,6,0,0,0-3.37.48,17.8,17.8,0,0,1-2.55,1.18,3.72,3.72,0,0,1-2.33-.18,1.42,1.42,0,0,0-.69-.18.76.76,0,0,0-.59.8,1.63,1.63,0,0,0,.46,1,4.51,4.51,0,0,0,3.07,1.51,5.5,5.5,0,0,0,3.34-.88,5.62,5.62,0,0,1-2.41,1.74c-1.15.46-2.45.56-3.48,1.25a2.44,2.44,0,0,1-1.56.64,3.24,3.24,0,0,0-1.29.56,1.86,1.86,0,0,0-.72.9,1,1,0,0,0,.28,1.08,1.62,1.62,0,0,0,1.3.14q3.15-.58,6.27-1.33l-4.07,1.16c-.82.24-1.65.47-2.47.74a3.51,3.51,0,0,0-2,1.23,1.12,1.12,0,0,0-.2.63,1.06,1.06,0,0,0,1,.91,3.31,3.31,0,0,0,1.39-.17c.66-.17,1.33-.31,2-.46l6.83-1.46c-1.05.55-2.06,1-3.11,1.54-.53.28-1.2.54-1.68.2-.12-.09-.22-.2-.34-.28a.79.79,0,0,0-1.06.49,1.41,1.41,0,0,0,.28,1.24,2.43,2.43,0,0,0,1.4.92,5.12,5.12,0,0,0,1.41,0,7.74,7.74,0,0,0,2.15-.35,8,8,0,0,0,1.31-.66l1.37-.8a21.9,21.9,0,0,1-4.09,1.75c1.23.72,3,1.14,4.2.43a8.71,8.71,0,0,0,1.51-1.21,46.49,46.49,0,0,1,4.75-3.77,18.86,18.86,0,0,0,3.84-3.16c.36-.41.67-.86,1-1.26a10.92,10.92,0,0,1,1.62-1.41,39,39,0,0,1,3.84-2.51.5.5,0,0,0,.2-.15.6.6,0,0,0-.05-.59,29.8,29.8,0,0,0-4.06-6.33l-6.69,3.56a13.27,13.27,0,0,1-2.79,1.22A6.11,6.11,0,0,1,145.67,169.73Z"/><path class="cls-3" d="M136.59,171.53a1.61,1.61,0,0,0,.55.25.55.55,0,0,0,.31,0,.59.59,0,0,0,.41-.45,6.55,6.55,0,0,1-.85-.29s-.16-.09-.19-.08,0,.16-.06.19A2.46,2.46,0,0,1,136.59,171.53Z"/><path class="cls-3" d="M133.67,178.52a1.14,1.14,0,0,1,.63-.06.37.37,0,0,1,.22.14.54.54,0,0,1,.08.19.76.76,0,0,1,.06.42.62.62,0,0,1-.3.39,2.08,2.08,0,0,1-.48.16.77.77,0,0,1-.45,0,.66.66,0,0,1-.27-.44c0-.15-.18-.45-.07-.59S133.52,178.57,133.67,178.52Z"/><path class="cls-3" d="M133.15,181.55a.83.83,0,0,1,.58,0,.55.55,0,0,1,.18.68,1.14,1.14,0,0,1-.55.51,1.73,1.73,0,0,1-.31.14.53.53,0,0,1-.35.05.63.63,0,0,1-.31-.35c-.09-.18-.28-.59-.1-.75a1.14,1.14,0,0,1,.38-.13Z"/><path class="cls-3" d="M137.59,182.88a.85.85,0,0,1,0,.22.8.8,0,0,1-.25.52,1.3,1.3,0,0,1-.1-.49,1,1,0,0,1,0-.34c0-.07.09-.21.18-.18S137.57,182.82,137.59,182.88Z"/><path class="cls-17" d="M141.48,185s1.27.07,3.39-1.51C144.87,183.5,143.69,185.79,141.48,185Z"/><path class="cls-4" d="M166.89,111.35c-.11.9-.49,1.75-.66,2.65a15.24,15.24,0,0,0,0,4c.29,4.28-.62,8.55-1.5,12.75-.59,2.77-2.74,16.24-2.38,19.06.26,2-.55,6.73-1.69,8.06s-10,4.73-13.39,5.37a37.59,37.59,0,0,1,10.56,18.21c.26,1.07.42,2.35-.36,3.12-1,1-2.73.33-3.87-.5a18.66,18.66,0,0,1-2.77-2.48l-.57.64c1.28,1.46,2.67,3,4.54,3.54,2.45.73,5-.4,7.33-1.51L173,179.07a30.11,30.11,0,0,0,5-2.8A17.56,17.56,0,0,0,184.5,165c.34-2.11,2.06-11.33,1.74-13.45C184,136.34,173.45,111,171,107.9c-.67-.85-2.91-3.13-4-2.4S167,110.21,166.89,111.35Z"/><path class="cls-13" d="M161.22,155.9l3.54,2.25-.8-1.51c4.1,2.77,8.24,5.55,12.84,7.35a70.66,70.66,0,0,1-11.58-8.77l3.71,1.4-5.12-3.9a.6.6,0,0,0,.49-.44c-.83-1-2.12-1.66-2.28-.07C162,152.33,162,156.37,161.22,155.9Z"/><path class="cls-18" d="M127.66,104.63a12.73,12.73,0,0,1-.47,2.12,1.23,1.23,0,0,1-.55.82,2,2,0,0,1-.89.06,3.05,3.05,0,0,0-2.35.78c-.47.64-.92,1.22-1.37,1.88s-.81,2.21-.77,1.52c.27-5.06-1-7.9-.46-9.18a2.07,2.07,0,0,1,.51-.81c.44-.37,1.11-.33,1.58-.66,1-.68.64-2.1.64-3.11V90.76h17.8v7l-4.2,6.35-13.6,2.76v-6.87"/><path class="cls-16" d="M135.38,61.09l-.51,32.35A2.2,2.2,0,0,1,133,95.8a2.84,2.84,0,0,1-.6.06l-.78,0-2.81-.06a4.16,4.16,0,0,1-2.39-1.1l-5.89-6a5.19,5.19,0,0,1-1.18-2.7l-.23-5a2.78,2.78,0,0,0-.81-2,2.79,2.79,0,0,1-.82-2V75.76a11.46,11.46,0,0,1,.84-2.74,13.47,13.47,0,0,0,.92-3.55l.17-8.42a2.79,2.79,0,0,1,2.8-2.79h10.41A2.79,2.79,0,0,1,135.38,61.09Z"/><path class="cls-16" d="M146.92,75.76V77a2.84,2.84,0,0,1-.82,2,2.79,2.79,0,0,0-.82,2l-.7,5.85a2.79,2.79,0,0,1-.82,2l-6,6.08a3.61,3.61,0,0,1-2.21,1L133,95.8l-.85,0a3.24,3.24,0,0,1-.55,0,2.21,2.21,0,0,1-2.06-2.3l-.51-32.35a2.79,2.79,0,0,1,2.79-2.83H142.2A2.78,2.78,0,0,1,145,61.05l.17,8.42a13.47,13.47,0,0,0,.92,3.55A11.46,11.46,0,0,1,146.92,75.76Z"/><path class="cls-16" d="M117,72.86a1.19,1.19,0,0,0-1.52,0A1.25,1.25,0,0,0,115,74.4a9.62,9.62,0,0,0,.65,1.33,5.23,5.23,0,0,1,.64,1.89c0,.37,0,.74.1,1.11a5.1,5.1,0,0,0,.91,1.78l.77,1.11c.23.34.56.71,1,.63s.52-.49.54-.85c.07-1.37-1.18-2.49-1.3-3.86-.08-.92.35-1.78.35-2.69,0-.73-.64-1.25-1.17-1.66A4.48,4.48,0,0,0,117,72.86Z"/><path class="cls-16" d="M147.17,72.86a1.2,1.2,0,0,1,1.53,0,1.25,1.25,0,0,1,.45,1.56,8.66,8.66,0,0,1-.66,1.33,5.21,5.21,0,0,0-.63,1.89,10.43,10.43,0,0,1-.11,1.11,4.91,4.91,0,0,1-.9,1.78l-.77,1.11c-.23.34-.56.71-1,.63s-.52-.49-.54-.85c-.07-1.37,1.18-2.49,1.3-3.86.07-.92-.36-1.78-.35-2.69,0-.73.63-1.25,1.17-1.66C146.87,73.07,147,73,147.17,72.86Z"/><path class="cls-19" d="M132.65,58.26h0c0,.25-.08.49-.14.73-.36,1.64-.95,3.31-.63,5l-.67,1.9a42.29,42.29,0,0,1,.4,4.36,4.73,4.73,0,0,1-.16,1.76c-.17.45-.29.93-.49,1.36a6.35,6.35,0,0,0-.89,2.36c-.11,1.54,0,3.21-.08,4.75,0,.26-.5.42-.41.67.16.45,1.06.82,1.38,1.17a4.52,4.52,0,0,1,.8,3.14c0,.92,0,1.84,0,2.76,0,1.3,0,2.61-.1,3.91a12.42,12.42,0,0,0,0,3.65.3.3,0,0,0,0,.1l-2.81-.06a4.16,4.16,0,0,1-2.39-1.1l-5.89-6a5.19,5.19,0,0,1-1.18-2.7l-.23-5a2.78,2.78,0,0,0-.81-2,2.79,2.79,0,0,1-.82-2V75.76a11.46,11.46,0,0,1,.84-2.74,13.47,13.47,0,0,0,.92-3.55l.17-8.42a2.79,2.79,0,0,1,2.8-2.79Z"/><path class="cls-20" d="M145,70.71a13.26,13.26,0,0,1,.85,2.56,7.68,7.68,0,0,1-.55,3.3c.12.16.37-.06.43-.26.26-.89.13-2,.75-2.66.28-.31.68-.51.95-.83.61-.75.33-1.85.09-2.78a20.63,20.63,0,0,1-.67-5c0-1.7-1.86-.81-2.18.27A9.18,9.18,0,0,0,145,70.71Z"/><path class="cls-20" d="M117.05,72.33a1.13,1.13,0,0,0,0,.32c.12.42.7.54.87.94.24.56-.49,1.15-.34,1.74a7.78,7.78,0,0,0,2-3.5,23.05,23.05,0,0,0,.64-4,.86.86,0,0,0,0-.45c-.12-.25-.44-.32-.72-.35-1.12-.11-2-.25-2.15,1S117.12,70.92,117.05,72.33Z"/><path class="cls-21" d="M131.62,70.39a4.41,4.41,0,0,1,.06,2c-.22.75-.75,1.21-.91,1.75a2.19,2.19,0,0,0-.11.85v1c0,.66,0,1.33-.09,2a17.45,17.45,0,0,1-.31,2c0,.17-.08.34-.13.51a2.35,2.35,0,0,0-.1.37s-.08-.14,0,0a2.27,2.27,0,0,0,.34.19,3.83,3.83,0,0,0,1.7.18,11.92,11.92,0,0,1,2-.06l0,.44c-.63.14-1.24.34-1.91.47A3.71,3.71,0,0,1,130,82a3.39,3.39,0,0,1-.53-.29,1.25,1.25,0,0,1-.31-.33,1,1,0,0,1-.11-.53,2.74,2.74,0,0,1,.16-.58c0-.15.09-.3.13-.45a14.19,14.19,0,0,0,.35-1.88c.08-.64.12-1.28.17-1.93l.06-1a3.12,3.12,0,0,1,.23-1.08c.29-.71.86-1.15,1.06-1.66a4.62,4.62,0,0,0,.16-1.87Z"/><g class="cls-22"><path class="cls-23" d="M141,84.06a4.75,4.75,0,0,1,2.08-3.6"/><path class="cls-23" d="M123.36,85.34a4.76,4.76,0,0,0-2.09-3.59"/></g><path class="cls-24" d="M137.87,73.84a1.16,1.16,0,0,1-.84-.36,1.12,1.12,0,0,1-.31-.82,1.14,1.14,0,0,1,1.14-1.11,1.17,1.17,0,0,1,.84.37,1.12,1.12,0,0,1,.31.82,1.14,1.14,0,0,1-1.14,1.1Z"/><path class="cls-21" d="M137.86,71.6a1.08,1.08,0,0,1,.81.35,1.1,1.1,0,0,1,0,1.55,1.13,1.13,0,0,1-.76.3,1.1,1.1,0,0,1-.75-1.91,1.07,1.07,0,0,1,.75-.29m0-.09a1.21,1.21,0,0,0-.81.32,1.2,1.2,0,0,0-.05,1.68,1.17,1.17,0,0,0,.86.37,1.19,1.19,0,0,0,.82-.32,1.18,1.18,0,0,0,0-1.67,1.19,1.19,0,0,0-.87-.38Z"/><circle class="cls-25" cx="137.86" cy="72.7" r="1.03"/><g class="cls-26"><g class="cls-27"><polygon class="cls-24" points="137.99 72.46 138.14 71.76 137.88 72.43 137.99 72.46"/><polygon class="cls-24" points="137.72 72.43 137.27 71.92 137.62 72.5 137.72 72.43"/><polygon class="cls-24" points="137.49 72.56 137.22 72.48 137.44 72.67 137.49 72.56"/><path class="cls-24" d="M138.18,72.64a.17.17,0,0,0,.13,0l.11,0,.22-.09-.23,0-.12,0s-.08,0-.09,0Z"/><polygon class="cls-24" points="138.19 72.53 138.45 72.29 138.13 72.44 138.19 72.53"/><polygon class="cls-24" points="137.89 72.41 137.83 71.61 137.77 72.41 137.89 72.41"/><path class="cls-24" d="M138.16,73a1.47,1.47,0,0,0,.46.11,1.27,1.27,0,0,1-.4-.21Z"/><polygon class="cls-24" points="137.78 72.33 137.56 72.03 137.67 72.39 137.78 72.33"/><path class="cls-24" d="M137.54,72.5a1,1,0,0,1-.27-.19,1.1,1.1,0,0,0,.2.28Z"/><path class="cls-24" d="M138.21,72.8a.46.46,0,0,0,.31,0,.41.41,0,0,1-.27-.07Z"/><polygon class="cls-24" points="138.14 72.44 138.28 72.16 138.04 72.38 138.14 72.44"/><polygon class="cls-24" points="137.54 72.65 136.83 72.6 137.53 72.76 137.54 72.65"/><polygon class="cls-24" points="137.55 72.92 137.1 73.43 137.62 73.01 137.55 72.92"/><polygon class="cls-24" points="137.7 73.14 137.66 73.41 137.81 73.17 137.7 73.14"/><path class="cls-24" d="M137.7,72.44a.22.22,0,0,0,0-.13l-.06-.1-.12-.2.06.22,0,.11s0,.08,0,.09Z"/><polygon class="cls-24" points="137.59 72.44 137.31 72.21 137.5 72.52 137.59 72.44"/><polygon class="cls-24" points="137.51 72.76 136.72 72.92 137.52 72.87 137.51 72.76"/><path class="cls-24" d="M138,72.42a1.24,1.24,0,0,0,.06-.47,1.59,1.59,0,0,1-.16.43Z"/><polygon class="cls-24" points="137.44 72.88 137.16 73.13 137.51 72.97 137.44 72.88"/><path class="cls-24" d="M137.63,73.09a.85.85,0,0,1-.15.3,1.2,1.2,0,0,0,.26-.24Z"/><path class="cls-24" d="M137.85,72.39a.5.5,0,0,0-.07-.3.41.41,0,0,1,0,.27Z"/><polygon class="cls-24" points="137.5 72.5 137.2 72.4 137.45 72.61 137.5 72.5"/><polygon class="cls-24" points="137.78 73.07 137.82 73.78 137.9 73.07 137.78 73.07"/><polygon class="cls-24" points="138.06 73.03 138.62 73.41 138.14 72.94 138.06 73.03"/><polygon class="cls-24" points="138.25 72.85 138.52 72.86 138.27 72.73 138.25 72.85"/><path class="cls-24" d="M137.56,72.94a.27.27,0,0,0-.12.07l-.1.07-.18.15.21-.1.11,0s.07,0,.09,0Z"/><polygon class="cls-24" points="137.58 73.05 137.38 73.36 137.66 73.13 137.58 73.05"/><polygon class="cls-24" points="137.9 73.09 138.16 73.85 138.01 73.06 137.9 73.09"/><path class="cls-24" d="M137.5,72.64a1.48,1.48,0,0,0-.47,0,1.36,1.36,0,0,1,.44.11Z"/><polygon class="cls-24" points="138.03 73.14 138.31 73.38 138.11 73.06 138.03 73.14"/><path class="cls-24" d="M138.21,72.92a1,1,0,0,1,.31.11,1,1,0,0,0-.27-.22Z"/><path class="cls-24" d="M137.49,72.8a.42.42,0,0,0-.29.11.42.42,0,0,1,.27,0Z"/><polygon class="cls-24" points="137.64 73.13 137.58 73.44 137.76 73.17 137.64 73.13"/><polygon class="cls-24" points="138.17 72.78 138.87 72.65 138.16 72.66 138.17 72.78"/><polygon class="cls-24" points="138.1 72.51 138.4 71.9 138 72.44 138.1 72.51"/><polygon class="cls-24" points="137.89 72.34 137.87 72.07 137.78 72.34 137.89 72.34"/><path class="cls-24" d="M138.07,73a.24.24,0,0,0,.09.12l.08.08.17.17-.12-.2-.06-.1s0-.07,0-.09Z"/><polygon class="cls-24" points="138.18 72.98 138.51 73.14 138.25 72.89 138.18 72.98"/><polygon class="cls-24" points="138.18 72.66 138.9 72.31 138.13 72.55 138.18 72.66"/><path class="cls-24" d="M137.79,73.11a1.24,1.24,0,0,0,.06.47,1.35,1.35,0,0,1,.05-.45Z"/><polygon class="cls-24" points="138.21 72.53 138.41 72.21 138.12 72.45 138.21 72.53"/><path class="cls-24" d="M138,72.37a.88.88,0,0,1,.07-.32.75.75,0,0,0-.18.3Z"/><path class="cls-24" d="M137.94,73.1a.45.45,0,0,0,.15.28.38.38,0,0,1,0-.27Z"/><polygon class="cls-24" points="138.25 72.91 138.56 72.93 138.27 72.79 138.25 72.91"/><polygon class="cls-24" points="137.83 72.43 137.61 71.75 137.72 72.46 137.83 72.43"/><polygon class="cls-24" points="137.58 72.54 136.94 72.31 137.52 72.64 137.58 72.54"/><polygon class="cls-24" points="137.44 72.76 137.17 72.82 137.45 72.88 137.44 72.76"/><path class="cls-24" d="M138.08,72.5a.24.24,0,0,0,.1-.1l.07-.09.14-.19-.18.15-.09.07s-.06,0-.08,0Z"/><polyline class="cls-24" points="138.15 72.05 137.93 72.34 138.04 72.39 138.15 72.05"/><polygon class="cls-24" points="137.72 72.44 137.27 71.77 137.62 72.5 137.72 72.44"/><path class="cls-24" d="M138.21,72.77a1.43,1.43,0,0,0,.46-.13,1.19,1.19,0,0,1-.46,0Z"/><polygon class="cls-24" points="137.58 72.42 137.24 72.26 137.51 72.52 137.58 72.42"/><path class="cls-24" d="M137.45,72.68a1,1,0,0,1-.33,0,1,1,0,0,0,.32.15Z"/><path class="cls-24" d="M138.19,72.62a.51.51,0,0,0,.25-.18.43.43,0,0,1-.27.06Z"/><polygon class="cls-24" points="137.95 72.33 137.94 72.02 137.84 72.33 137.95 72.33"/></g></g><circle class="cls-28" cx="137.66" cy="72.66" r="0.58"/><circle class="cls-29" cx="137.7" cy="72.83" r="0.1"/><circle class="cls-29" cx="137.96" cy="72.63" r="0.2"/><path class="cls-30" d="M142.15,73.23a2.24,2.24,0,0,1-1.38-.62,5.38,5.38,0,0,0-5.25-.46"/><path class="cls-30" d="M137.63,71.67c-1.31.35-1.54,1.3-2.46,1.67-.18.07-.4.17-.45.36a.8.8,0,0,0,.53,0,5.9,5.9,0,0,1,2,.37,5.31,5.31,0,0,0,3.63-.44"/><path class="cls-24" d="M124.66,73.84a1.13,1.13,0,0,1-.83-.36,1.12,1.12,0,0,1-.31-.82,1.15,1.15,0,0,1,.36-.8,1.13,1.13,0,0,1,.78-.31,1.17,1.17,0,0,1,.84.37,1.15,1.15,0,0,1-.84,1.92Z"/><path class="cls-21" d="M124.66,71.6a1.08,1.08,0,0,1,.81.35,1.1,1.1,0,0,1,0,1.55,1.13,1.13,0,0,1-.76.3,1.1,1.1,0,0,1-.75-1.91,1.07,1.07,0,0,1,.75-.29m0-.09a1.21,1.21,0,0,0-.81.32,1.19,1.19,0,0,0,0,1.68,1.19,1.19,0,0,0,1.73-1.62,1.19,1.19,0,0,0-.87-.38Z"/><circle class="cls-25" cx="124.66" cy="72.7" r="1.03"/><g class="cls-26"><g class="cls-31"><polygon class="cls-24" points="124.79 72.46 124.93 71.76 124.68 72.43 124.79 72.46"/><polygon class="cls-24" points="124.52 72.43 124.07 71.92 124.42 72.5 124.52 72.43"/><polygon class="cls-24" points="124.28 72.56 124.02 72.48 124.23 72.67 124.28 72.56"/><path class="cls-24" d="M125,72.64a.18.18,0,0,0,.14,0l.11,0,.22-.09-.24,0-.11,0s-.08,0-.09,0Z"/><polygon class="cls-24" points="124.99 72.53 125.25 72.29 124.92 72.44 124.99 72.53"/><polygon class="cls-24" points="124.69 72.41 124.63 71.61 124.57 72.41 124.69 72.41"/><path class="cls-24" d="M125,73a1.53,1.53,0,0,0,.47.11,1.44,1.44,0,0,1-.41-.21Z"/><polygon class="cls-24" points="124.58 72.33 124.36 72.03 124.47 72.39 124.58 72.33"/><path class="cls-24" d="M124.34,72.5a1,1,0,0,1-.27-.19.76.76,0,0,0,.2.28Z"/><path class="cls-24" d="M125,72.8a.49.49,0,0,0,.32,0,.41.41,0,0,1-.27-.07Z"/><polygon class="cls-24" points="124.94 72.44 125.08 72.16 124.84 72.38 124.94 72.44"/><polygon class="cls-24" points="124.34 72.65 123.63 72.6 124.33 72.76 124.34 72.65"/><polygon class="cls-24" points="124.34 72.92 123.89 73.43 124.42 73.01 124.34 72.92"/><polygon class="cls-24" points="124.5 73.14 124.45 73.41 124.61 73.17 124.5 73.14"/><path class="cls-24" d="M124.5,72.44a.32.32,0,0,0,0-.13l-.06-.1-.13-.2.07.22,0,.11s0,.08,0,.09Z"/><polygon class="cls-24" points="124.39 72.44 124.11 72.21 124.3 72.52 124.39 72.44"/><polygon class="cls-24" points="124.31 72.76 123.52 72.92 124.32 72.87 124.31 72.76"/><path class="cls-24" d="M124.8,72.42a1.48,1.48,0,0,0,.06-.47,1.33,1.33,0,0,1-.17.43Z"/><polygon class="cls-24" points="124.24 72.88 123.96 73.13 124.3 72.97 124.24 72.88"/><path class="cls-24" d="M124.43,73.09a.85.85,0,0,1-.15.3,1.14,1.14,0,0,0,.25-.24Z"/><path class="cls-24" d="M124.65,72.39a.5.5,0,0,0-.07-.3.41.41,0,0,1,0,.27Z"/><polygon class="cls-24" points="124.3 72.5 124 72.4 124.25 72.61 124.3 72.5"/><polygon class="cls-24" points="124.58 73.07 124.62 73.78 124.7 73.07 124.58 73.07"/><polygon class="cls-24" points="124.86 73.03 125.42 73.41 124.93 72.94 124.86 73.03"/><polygon class="cls-24" points="125.05 72.85 125.32 72.86 125.07 72.73 125.05 72.85"/><path class="cls-24" d="M124.36,72.94a.26.26,0,0,0-.13.07l-.09.07-.18.15.21-.1.11,0s.07,0,.08,0Z"/><polygon class="cls-24" points="124.37 73.05 124.18 73.36 124.46 73.13 124.37 73.05"/><polygon class="cls-24" points="124.69 73.09 124.95 73.85 124.81 73.06 124.69 73.09"/><path class="cls-24" d="M124.3,72.64a1.55,1.55,0,0,0-.48,0,1.35,1.35,0,0,1,.45.11Z"/><polygon class="cls-24" points="124.82 73.14 125.11 73.38 124.91 73.06 124.82 73.14"/><path class="cls-24" d="M125,72.92a1.15,1.15,0,0,1,.31.11,1,1,0,0,0-.27-.22Z"/><path class="cls-24" d="M124.29,72.8a.4.4,0,0,0-.29.11.42.42,0,0,1,.27,0Z"/><polygon class="cls-24" points="124.44 73.13 124.38 73.44 124.55 73.17 124.44 73.13"/><polygon class="cls-24" points="124.97 72.78 125.67 72.65 124.96 72.66 124.97 72.78"/><polygon class="cls-24" points="124.89 72.51 125.2 71.9 124.8 72.44 124.89 72.51"/><polygon class="cls-24" points="124.69 72.34 124.67 72.07 124.57 72.34 124.69 72.34"/><path class="cls-24" d="M124.87,73a.31.31,0,0,0,.08.12l.09.08.17.17-.13-.2-.06-.1s0-.07,0-.09Z"/><polygon class="cls-24" points="124.98 72.98 125.3 73.14 125.05 72.89 124.98 72.98"/><polygon class="cls-24" points="124.98 72.66 125.69 72.31 124.93 72.55 124.98 72.66"/><path class="cls-24" d="M124.58,73.11a1.49,1.49,0,0,0,.07.47,1.35,1.35,0,0,1,0-.45Z"/><polygon class="cls-24" points="125.01 72.53 125.21 72.21 124.92 72.45 125.01 72.53"/><path class="cls-24" d="M124.77,72.37a.88.88,0,0,1,.07-.32.75.75,0,0,0-.18.3Z"/><path class="cls-24" d="M124.74,73.1a.44.44,0,0,0,.14.28.43.43,0,0,1,0-.27Z"/><polygon class="cls-24" points="125.05 72.91 125.36 72.93 125.07 72.79 125.05 72.91"/><polygon class="cls-24" points="124.63 72.43 124.41 71.75 124.52 72.46 124.63 72.43"/><polygon class="cls-24" points="124.37 72.54 123.73 72.31 124.32 72.64 124.37 72.54"/><polygon class="cls-24" points="124.24 72.76 123.97 72.82 124.25 72.88 124.24 72.76"/><path class="cls-24" d="M124.88,72.5a.24.24,0,0,0,.1-.1l.07-.09.14-.19-.18.15-.09.07s-.06,0-.08,0Z"/><polyline class="cls-24" points="124.94 72.05 124.73 72.34 124.83 72.39 124.94 72.05"/><polygon class="cls-24" points="124.51 72.44 124.07 71.77 124.41 72.5 124.51 72.44"/><path class="cls-24" d="M125,72.77a1.43,1.43,0,0,0,.46-.13,1.19,1.19,0,0,1-.46,0Z"/><polygon class="cls-24" points="124.38 72.42 124.04 72.26 124.31 72.52 124.38 72.42"/><path class="cls-24" d="M124.25,72.68a.93.93,0,0,1-.33,0,.94.94,0,0,0,.32.15Z"/><path class="cls-24" d="M125,72.62a.49.49,0,0,0,.26-.18.45.45,0,0,1-.27.06Z"/><polygon class="cls-24" points="124.75 72.33 124.73 72.02 124.63 72.33 124.75 72.33"/></g></g><circle class="cls-28" cx="124.46" cy="72.66" r="0.58"/><circle class="cls-29" cx="124.5" cy="72.83" r="0.1"/><circle class="cls-29" cx="124.76" cy="72.63" r="0.2"/><path class="cls-30" d="M128.94,73.23a2.24,2.24,0,0,1-1.37-.62,5.38,5.38,0,0,0-5.25-.46"/><path class="cls-30" d="M124.43,71.67c-1.31.35-1.54,1.3-2.46,1.67-.18.07-.4.17-.45.36a.8.8,0,0,0,.53,0,5.9,5.9,0,0,1,2,.37,5.28,5.28,0,0,0,3.62-.44"/><path class="cls-32" d="M132.19,88.05l-1.05-.94a5.89,5.89,0,0,0-.44-.41,4.68,4.68,0,0,0-.75,0A25.11,25.11,0,0,1,127.71,88a9,9,0,0,1-.92-.49l-.69,1.38s1.62-.75,1.73-.75Z"/><path class="cls-32" d="M130.52,88.05l1.12-.94s.44-.41.46-.41a5.33,5.33,0,0,1,.8,0c.07,0,2.2,1.31,2.36,1.28s1-.51,1-.51l.72,1.38s-1.72-.75-1.83-.75Z"/><path class="cls-20" d="M133.15,70l-.51-.33a1.41,1.41,0,0,0,.74.83,2.56,2.56,0,0,0,1.79-.2,11.28,11.28,0,0,1,3.41-.56,4.53,4.53,0,0,1,3.63,1.36,4.37,4.37,0,0,0-3.52-2,11.63,11.63,0,0,0-2.57,0,8.28,8.28,0,0,1-2.54-.14,1.57,1.57,0,0,1-.39-.19.12.12,0,0,0-.2,0A1,1,0,0,0,133.15,70Z"/><path class="cls-20" d="M129,70.13l.52-.33a1.46,1.46,0,0,1-.75.83,2.59,2.59,0,0,1-1.78-.2,11.34,11.34,0,0,0-3.42-.56A4.54,4.54,0,0,0,120,71.23a4,4,0,0,1,2.59-1.82,11.38,11.38,0,0,1,2.4-.34,23.08,23.08,0,0,1,2.34.2,2.12,2.12,0,0,0,1.47-.19C129,68.92,129.41,69.64,129,70.13Z"/><path class="cls-13" d="M141,98.18a10.14,10.14,0,0,1-3.73,3.54,27.08,27.08,0,0,1-4.51,1.9l-4.18,1.47A18.88,18.88,0,0,0,124.3,107a6.51,6.51,0,0,0-2.84,3.55,8.93,8.93,0,0,0-.2,2.92c.1,2,.3,3.94.59,5.89.23,0,.32-.28.3-.51a25,25,0,0,1,.17-7.87,3.32,3.32,0,0,1,1.23-2.15c.92-.59,2.12-.29,3.17,0l9.14,2.81a2.46,2.46,0,0,0,1.6.12,1.87,1.87,0,0,0,.91-.91c1.4-2.54-.09-5.83.9-8.55.55-1.49,1.79-2.65,2.29-4.15a2.32,2.32,0,0,0-.23-2.29c-.2.09-.06.34,0,.56A2.6,2.6,0,0,1,141,98.18Z"/><path class="cls-13" d="M121.12,109c-.06-1.23-.25-2.46-.43-3.68a8.24,8.24,0,0,1-.13-2.16c.18-1.7.74-3.12,2.4-3.55a.58.58,0,0,1,.41,0,.44.44,0,0,1,.16.33c0,.2,0,.43,0,.63a.39.39,0,0,1,0,.24.5.5,0,0,1-.31.19c-1.55.47-1.69,2.06-1.88,3.67a28,28,0,0,0,.24,4.84c.1,1.77-.11,3.53,0,5.3,0,1.42.86,3.14.32,4.52C120.25,116.31,121.28,112.24,121.12,109Z"/><path class="cls-11" d="M143.08,66.12c.55,0,3.86-.21,4.38-.76.94-1.36.34-5.09,0-8.3-.16-1.63-.53-3.63-2.07-4.48-1.39-.77-9.69-.47-12.1-.21-2.88.31-14.72,1.2-15.49,1.38A2.21,2.21,0,0,0,116,55.68c-.22,1.3-.35,6.76-.38,8.16,0,1,0,3.63.93,3.93s3.16,0,4.9-.27C124.94,67,139,66.12,143.08,66.12Z"/><rect class="cls-12" x="117.78" y="64.14" width="0.54" height="3.17" rx="0.27" transform="translate(-7.94 114.55) rotate(-50.29)"/><rect class="cls-12" x="124.58" y="63.51" width="0.54" height="3.17" rx="0.27" transform="translate(-5 119.56) rotate(-50.29)"/><rect class="cls-12" x="131.38" y="62.88" width="0.54" height="3.17" rx="0.27" transform="translate(-2.06 124.56) rotate(-50.29)"/><rect class="cls-12" x="138.18" y="62.25" width="0.54" height="3.17" rx="0.27" transform="translate(0.88 129.56) rotate(-50.29)"/><rect class="cls-12" x="144.98" y="61.62" width="0.54" height="3.17" rx="0.27" transform="translate(3.82 134.57) rotate(-50.29)"/><rect class="cls-10" x="144.98" y="61.62" width="0.54" height="3.17" rx="0.27" transform="translate(216.6 204.64) rotate(-140.29)"/><rect class="cls-10" x="138.18" y="62.25" width="0.54" height="3.17" rx="0.27" transform="translate(204.17 201.41) rotate(-140.29)"/><rect class="cls-10" x="131.38" y="62.88" width="0.54" height="3.17" rx="0.27" transform="translate(191.74 198.18) rotate(-140.29)"/><rect class="cls-10" x="124.58" y="63.51" width="0.54" height="3.17" rx="0.27" transform="translate(179.31 194.95) rotate(-140.29)"/><rect class="cls-10" x="117.78" y="64.14" width="0.54" height="3.17" rx="0.27" transform="translate(166.87 191.72) rotate(-140.29)"/><path class="cls-10" d="M117.6,61.17a1.31,1.31,0,0,0,.15.68,1.23,1.23,0,0,0,.55.4,7.22,7.22,0,0,0,2.62.39,40.43,40.43,0,0,0,5.16-.24.52.52,0,0,0,.34-.12.6.6,0,0,0,.1-.32,17.46,17.46,0,0,0-.28-6.61,1.48,1.48,0,0,0-.54-.87,1.64,1.64,0,0,0-1-.13l-6.1.58a1.49,1.49,0,0,0-.88.28c-.5.47-.11,1.81-.13,2.46C117.54,58.84,117.56,60,117.6,61.17Z"/><path class="cls-10" d="M128,54.71a1.18,1.18,0,0,0-.16.5,15.36,15.36,0,0,0,.3,5.81,1.41,1.41,0,0,0,.49.9,1.2,1.2,0,0,0,.59.18,11.64,11.64,0,0,0,2.36-.05l3.57-.33a1.17,1.17,0,0,0,.41-.1.75.75,0,0,0,.29-.34,3.45,3.45,0,0,0,.24-1.43,36.16,36.16,0,0,0-.11-5.1,1.32,1.32,0,0,0-.34-.86,1.4,1.4,0,0,0-1.07-.17c-1.3.17-2.65.45-4,.5C129.78,54.25,128.6,53.92,128,54.71Z"/><path class="cls-10" d="M137,55.93l.49,4.45a1.21,1.21,0,0,0,.16.56c.25.33.74.31,1.16.26a34.35,34.35,0,0,1,5.91-.24,1.53,1.53,0,0,0,1.26-.3,1.55,1.55,0,0,0,.24-1.13,23.94,23.94,0,0,0-.63-4.93,1.29,1.29,0,0,0-.37-.7,1.33,1.33,0,0,0-.79-.2l-3.33-.14a11.61,11.61,0,0,0-3.17.15C136.89,54,136.85,55.08,137,55.93Z"/><path class="cls-11" d="M118.67,58.52a.91.91,0,0,0-.25.68,1,1,0,0,0,.24.43A12,12,0,0,0,121.37,62a1.5,1.5,0,0,0,2.18-.22,14,14,0,0,0,2-2.15.87.87,0,0,0,.22-.49.92.92,0,0,0-.3-.61c-.62-.69-1.28-1.34-2-2-.46-.43-1.18-1.4-1.9-1.32s-1,.81-1.33,1.23C119.72,57.11,119.17,57.8,118.67,58.52Z"/><path class="cls-11" d="M128.46,57.76a.94.94,0,0,0-.24.69.89.89,0,0,0,.24.42,11.78,11.78,0,0,0,2.71,2.32,1.86,1.86,0,0,0,1.05.37,2,2,0,0,0,1.13-.58,14,14,0,0,0,2-2.16.83.83,0,0,0,.23-.49.93.93,0,0,0-.31-.61c-.61-.69-1.27-1.33-1.95-2-.46-.44-1.18-1.4-1.9-1.33s-1,.82-1.34,1.24C129.52,56.36,129,57,128.46,57.76Z"/><path class="cls-11" d="M138.12,57a1,1,0,0,0-.25.68.94.94,0,0,0,.25.43,11.37,11.37,0,0,0,2.71,2.32,1.94,1.94,0,0,0,1,.37,1.89,1.89,0,0,0,1.12-.59,13.09,13.09,0,0,0,2-2.15,1,1,0,0,0,.23-.49.91.91,0,0,0-.31-.61c-.61-.69-1.28-1.34-1.95-2-.46-.43-1.19-1.4-1.9-1.32s-1,.81-1.34,1.23C139.17,55.6,138.63,56.29,138.12,57Z"/><path class="cls-11" d="M120.15,55.89s.11-.11.1-.18-.1-.12-.18-.15a3.87,3.87,0,0,0-1.39-.19.82.82,0,0,0-.43.12.93.93,0,0,0-.29.78,12.41,12.41,0,0,0,.07,2,.25.25,0,0,0,.17.25c.32-.43.56-.94.88-1.38A13.06,13.06,0,0,1,120.15,55.89Z"/><path class="cls-11" d="M120.61,62c.07.06.15.14.12.23s-.17.11-.28.09l-1.56-.21a1.18,1.18,0,0,1-.73-.26,1.26,1.26,0,0,1-.26-1c0-.24-.1-1.14.13-1.27s.57.51.71.67A12.86,12.86,0,0,0,120.61,62Z"/><path class="cls-11" d="M125.41,62.11a.94.94,0,0,0,.37-.11,1,1,0,0,0,.33-.6c.07-.26.12-.52.17-.79a1.81,1.81,0,0,0,0-1,.14.14,0,0,0-.07-.1c-.09-.06-.19,0-.26.11A24.65,24.65,0,0,1,124,61.79c-.16.16-.35.3-.1.42C124.29,62.4,125,62.07,125.41,62.11Z"/><path class="cls-11" d="M125.64,58.16a.34.34,0,0,0,.22.13c.17,0,.23-.22.23-.39a10.4,10.4,0,0,0-.35-2.29c-.07-.31-.17-.65-.46-.77a1,1,0,0,0-.45,0c-.54,0-1.09,0-1.63.09a.29.29,0,0,0-.22.44,10.76,10.76,0,0,0,1.08,1.14C124.59,57,125.13,57.58,125.64,58.16Z"/><path class="cls-11" d="M130.22,55c.05-.05.11-.11.1-.18s-.1-.12-.18-.15a3.84,3.84,0,0,0-1.39-.19.85.85,0,0,0-.42.11.94.94,0,0,0-.3.79,12.41,12.41,0,0,0,.07,2,.29.29,0,0,0,.17.25c.32-.44.56-.94.88-1.38A13.06,13.06,0,0,1,130.22,55Z"/><path class="cls-11" d="M139.59,54.45a.23.23,0,0,0,.09-.18c0-.08-.1-.12-.17-.15a3.66,3.66,0,0,0-1.39-.19.92.92,0,0,0-.43.11.94.94,0,0,0-.3.78,12.49,12.49,0,0,0,.08,2,.27.27,0,0,0,.17.25c.32-.44.55-.94.88-1.38A10.74,10.74,0,0,1,139.59,54.45Z"/><path class="cls-11" d="M131.07,61.53c.07,0,.16.12.14.22s-.16.12-.27.12l-1.57,0a1.32,1.32,0,0,1-.76-.18,1.28,1.28,0,0,1-.35-1c0-.23-.22-1.12,0-1.28s.62.45.78.6A12.84,12.84,0,0,0,131.07,61.53Z"/><path class="cls-11" d="M140.44,60.57c.08.06.17.13.15.22s-.17.13-.28.12l-1.57,0a1,1,0,0,1-1.11-1.16c0-.23-.22-1.11,0-1.27s.62.45.77.6A12.63,12.63,0,0,0,140.44,60.57Z"/><path class="cls-11" d="M135,61.51a.94.94,0,0,0,.37-.11,1,1,0,0,0,.33-.59c.07-.26.12-.53.17-.79a2,2,0,0,0,0-1,.2.2,0,0,0-.08-.1c-.09,0-.19,0-.25.12a28,28,0,0,1-1.93,2.14c-.17.16-.36.31-.11.43C133.85,61.81,134.52,61.47,135,61.51Z"/><path class="cls-11" d="M144.88,60.61a.94.94,0,0,0,.37-.11,1,1,0,0,0,.33-.59c.07-.27.12-.53.17-.8a1.81,1.81,0,0,0,0-1,.14.14,0,0,0-.07-.1c-.09-.05-.19,0-.26.11a24.65,24.65,0,0,1-1.93,2.15c-.16.16-.35.31-.1.42C143.76,60.91,144.44,60.57,144.88,60.61Z"/><path class="cls-11" d="M135.44,57.52a.34.34,0,0,0,.22.13c.17,0,.23-.22.23-.39a10.5,10.5,0,0,0-.36-2.29c-.07-.3-.17-.65-.46-.77a.93.93,0,0,0-.44,0c-.54,0-1.1,0-1.64.1a.28.28,0,0,0-.21.43,8.42,8.42,0,0,0,1.08,1.14C134.38,56.39,134.93,56.94,135.44,57.52Z"/><path class="cls-11" d="M145.2,56.94c.06.06.12.13.2.13s.21-.21.21-.36a9.36,9.36,0,0,0-.32-2.11c-.07-.28-.16-.6-.42-.71a1,1,0,0,0-.41,0c-.5,0-1,0-1.51.08a.26.26,0,0,0-.19.4,8.32,8.32,0,0,0,1,1C144.23,55.91,144.73,56.41,145.2,56.94Z"/><path class="cls-12" d="M121.93,56.39a.22.22,0,0,0,0-.44.22.22,0,0,0,0,.44Z"/><path class="cls-12" d="M122,57.11a.22.22,0,0,0,0-.44.22.22,0,0,0,0,.44Z"/><path class="cls-12" d="M122,57.8a.22.22,0,0,0,0-.44.22.22,0,0,0,0,.44Z"/><path class="cls-12" d="M122.07,58.44a.22.22,0,0,0,0-.44.22.22,0,0,0,0,.44Z"/><path class="cls-12" d="M122.1,59.05a.22.22,0,0,0,0-.44.22.22,0,0,0,0,.44Z"/><path class="cls-12" d="M122.15,59.64a.22.22,0,0,0,0-.44.22.22,0,0,0,0,.44Z"/><path class="cls-12" d="M122.18,60.29a.22.22,0,0,0,0-.44.22.22,0,0,0,0,.44Z"/><path class="cls-12" d="M122.2,60.9a.22.22,0,0,0,0-.44.22.22,0,0,0,0,.44Z"/><path class="cls-12" d="M122.25,61.55a.22.22,0,0,0,0-.44.22.22,0,0,0,0,.44Z"/><path class="cls-12" d="M119.22,59.41a.22.22,0,0,0,0-.44.22.22,0,0,0,0,.44Z"/><path class="cls-12" d="M119.73,59.37a.22.22,0,0,0,0-.44.22.22,0,0,0,0,.44Z"/><path class="cls-12" d="M120.34,58.9h0l-.09,0a.26.26,0,0,0-.12.12.11.11,0,0,0,0,.08v.06a.21.21,0,0,0,.06.1l0,0,.12,0h0a.11.11,0,0,0,.08,0,.26.26,0,0,0,.12-.12.29.29,0,0,0,0-.09v0a.21.21,0,0,0-.06-.1l0,0a.23.23,0,0,0-.11,0Z"/><path class="cls-12" d="M121,59.34a.22.22,0,0,0,0-.44.22.22,0,0,0,0,.44Z"/><path class="cls-12" d="M121.57,59.31a.22.22,0,0,0,0-.44.22.22,0,0,0,0,.44Z"/><path class="cls-12" d="M122.69,59.25a.22.22,0,0,0,0-.44.22.22,0,0,0,0,.44Z"/><path class="cls-12" d="M123.24,59.21h0l.08,0a.18.18,0,0,0,.07-.05.12.12,0,0,0,0-.07.29.29,0,0,0,0-.09v-.05a.21.21,0,0,0-.06-.1l0,0a.2.2,0,0,0-.11,0h0l-.09,0-.07.05a.16.16,0,0,0,0,.07.11.11,0,0,0,0,.08v.06a.19.19,0,0,0,0,.1l0,0a.2.2,0,0,0,.11,0Z"/><path class="cls-12" d="M123.91,58.73h0a.11.11,0,0,0-.08,0l-.07,0a.15.15,0,0,0,0,.07.29.29,0,0,0,0,.09V59a.18.18,0,0,0,.06.09l0,0a.2.2,0,0,0,.11,0h0a.15.15,0,0,0,.09,0l.07,0a.2.2,0,0,0,0-.08.11.11,0,0,0,0-.08v-.06a.31.31,0,0,0-.05-.1l0,0a.2.2,0,0,0-.11,0Z"/><path class="cls-12" d="M124.49,59.08a.22.22,0,0,0,0-.44.22.22,0,0,0,0,.44Z"/><path class="cls-12" d="M125,59.08a.22.22,0,0,0,0-.44.22.22,0,0,0,0,.44Z"/><path class="cls-12" d="M131.54,55.63a.23.23,0,0,0,0-.45.23.23,0,0,0,0,.45Z"/><path class="cls-12" d="M131.58,56.34a.22.22,0,0,0,0-.44.22.22,0,0,0,0,.44Z"/><path class="cls-12" d="M131.65,57a.22.22,0,0,0,0-.44.22.22,0,0,0,0,.44Z"/><path class="cls-12" d="M131.69,57.67a.22.22,0,0,0,0-.44.22.22,0,0,0,0,.44Z"/><path class="cls-12" d="M131.72,58.28a.22.22,0,0,0,0-.44.22.22,0,0,0,0,.44Z"/><path class="cls-12" d="M131.77,58.87a.22.22,0,0,0,0-.44.22.22,0,0,0,0,.44Z"/><path class="cls-12" d="M131.79,59.52a.22.22,0,0,0,0-.44.22.22,0,0,0,0,.44Z"/><path class="cls-12" d="M131.82,60.13a.22.22,0,0,0,0-.44.22.22,0,0,0,0,.44Z"/><path class="cls-12" d="M131.87,60.78a.22.22,0,0,0,0-.44.22.22,0,0,0,0,.44Z"/><path class="cls-12" d="M128.84,58.64a.22.22,0,0,0,0-.44.22.22,0,0,0,0,.44Z"/><path class="cls-12" d="M129.34,58.61a.22.22,0,0,0,0-.44.22.22,0,0,0,0,.44Z"/><path class="cls-12" d="M130,58.14h0a.11.11,0,0,0-.08,0,.26.26,0,0,0-.12.12.29.29,0,0,0,0,.09v0a.21.21,0,0,0,.06.1l0,0a.23.23,0,0,0,.11,0h0l.09,0a.12.12,0,0,0,.07-.05.18.18,0,0,0,0-.07.11.11,0,0,0,0-.08V58.3a.21.21,0,0,0-.06-.1l0,0a.27.27,0,0,0-.12,0Z"/><path class="cls-12" d="M130.58,58.57a.22.22,0,0,0,0-.44.22.22,0,0,0,0,.44Z"/><path class="cls-12" d="M131.19,58.55a.23.23,0,0,0,0-.45.23.23,0,0,0,0,.45Z"/><path class="cls-12" d="M132.31,58.48a.22.22,0,0,0,0-.44.22.22,0,0,0,0,.44Z"/><path class="cls-12" d="M132.86,58.45h0l.08,0a.12.12,0,0,0,.07,0,.18.18,0,0,0,.05-.07.19.19,0,0,0,0-.08v-.06a.21.21,0,0,0-.06-.1l0,0a.23.23,0,0,0-.11,0h0a.14.14,0,0,0-.09,0,.26.26,0,0,0-.12.12.14.14,0,0,0,0,.09v.05a.21.21,0,0,0,.06.1l0,0a.27.27,0,0,0,.12,0Z"/><path class="cls-12" d="M133.53,58h0l-.09,0a.15.15,0,0,0-.07.05.16.16,0,0,0,0,.07.11.11,0,0,0,0,.08v.06a.31.31,0,0,0,0,.1l.05,0a.2.2,0,0,0,.11,0h0a.11.11,0,0,0,.08,0,.12.12,0,0,0,.08,0,.16.16,0,0,0,0-.07.15.15,0,0,0,0-.09v-.06a.26.26,0,0,0-.05-.09l-.05,0a.2.2,0,0,0-.11,0Z"/><path class="cls-12" d="M134.1,58.31a.22.22,0,0,0,0-.44.22.22,0,0,0,0,.44Z"/><path class="cls-12" d="M134.65,58.32a.22.22,0,0,0,0-.44.22.22,0,0,0,0,.44Z"/><path class="cls-12" d="M141.37,54.67a.22.22,0,0,0,0-.44.22.22,0,0,0,0,.44Z"/><path class="cls-12" d="M141.41,55.39a.22.22,0,0,0,0-.44.22.22,0,0,0,0,.44Z"/><path class="cls-12" d="M141.47,56.09a.23.23,0,0,0,0-.45.23.23,0,0,0,0,.45Z"/><path class="cls-12" d="M141.52,56.72a.22.22,0,0,0,0-.44.22.22,0,0,0,0,.44Z"/><path class="cls-12" d="M141.54,57.33a.22.22,0,0,0,0-.44.22.22,0,0,0,0,.44Z"/><path class="cls-12" d="M141.59,57.92a.22.22,0,0,0,0-.44.22.22,0,0,0,0,.44Z"/><path class="cls-12" d="M141.62,58.57a.22.22,0,0,0,0-.44.22.22,0,0,0,0,.44Z"/><path class="cls-12" d="M141.65,59.18a.22.22,0,0,0,0-.44.22.22,0,0,0,0,.44Z"/><path class="cls-12" d="M141.69,59.83a.22.22,0,0,0,0-.44.22.22,0,0,0,0,.44Z"/><path class="cls-12" d="M138.66,57.69a.22.22,0,0,0,0-.44.22.22,0,0,0,0,.44Z"/><path class="cls-12" d="M139.17,57.65a.22.22,0,0,0,0-.44.22.22,0,0,0,0,.44Z"/><path class="cls-12" d="M139.78,57.19h0l-.09,0-.07,0a.1.1,0,0,0,0,.07.12.12,0,0,0,0,.08v.06a.33.33,0,0,0,.06.1l.05,0a.2.2,0,0,0,.11,0h0l.08,0a.18.18,0,0,0,.07,0,.12.12,0,0,0,0-.07.24.24,0,0,0,0-.08v-.06a.21.21,0,0,0-.06-.1l0,0a.2.2,0,0,0-.11,0Z"/><path class="cls-12" d="M140.41,57.62a.22.22,0,0,0,0-.44.22.22,0,0,0,0,.44Z"/><path class="cls-12" d="M141,57.59a.22.22,0,0,0,0-.44.22.22,0,0,0,0,.44Z"/><path class="cls-12" d="M142.13,57.53a.22.22,0,0,0,0-.44.22.22,0,0,0,0,.44Z"/><path class="cls-12" d="M142.68,57.49h0l.09,0,.07,0a.16.16,0,0,0,0-.07.12.12,0,0,0,0-.08v-.06a.31.31,0,0,0,0-.1l-.05,0a.2.2,0,0,0-.11,0h0l-.09,0-.07,0a.16.16,0,0,0,0,.07.12.12,0,0,0,0,.08v.06a.31.31,0,0,0,.05.1l0,0a.2.2,0,0,0,.11,0Z"/><path class="cls-12" d="M143.35,57h0a.11.11,0,0,0-.08,0l-.07,0-.05.07a.29.29,0,0,0,0,.09v.06a.21.21,0,0,0,.06.1l0,0a.23.23,0,0,0,.11,0h0a.15.15,0,0,0,.09,0l.07,0,.05-.07a.14.14,0,0,0,0-.09v-.06a.18.18,0,0,0-.06-.09l0,0a.2.2,0,0,0-.11,0Z"/><path class="cls-12" d="M143.93,57.36a.22.22,0,0,0,0-.44.22.22,0,0,0,0,.44Z"/><path class="cls-12" d="M144.47,57.37a.23.23,0,0,0,0-.45.23.23,0,0,0,0,.45Z"/></svg>