<?xml version="1.0" encoding="UTF-8"?><svg id="Layer_1" xmlns="http://www.w3.org/2000/svg" xmlns:xlink="http://www.w3.org/1999/xlink" viewBox="0 0 395 450"><defs><style>.cls-1,.cls-2,.cls-3{fill:none;}.cls-4{clip-path:url(#clippath);}.cls-5{fill:#f9f9f9;}.cls-6{fill:#fff;}.cls-7{fill:#f2dcc9;}.cls-8{fill:#e6c6aa;}.cls-9{fill:#b59a6e;}.cls-10{fill:#8b8f7f;}.cls-11{fill:#729fcc;}.cls-12{fill:#a85454;}.cls-13{fill:#cfd5e0;}.cls-14{fill:#deb592;}.cls-15{fill:#d1e7fd;}.cls-16{fill:#a87171;}.cls-17{fill:#10161c;}.cls-18{fill:#202c38;}.cls-19{fill:#4485c7;}.cls-20{fill:#1a293f;}.cls-21{fill:#93c8fd;}.cls-22{fill:#9b5924;}.cls-23{fill:#585e47;}.cls-24{fill:#454a38;}.cls-25{fill:#75431b;}.cls-26{clip-path:url(#clippath-1);}.cls-27{clip-path:url(#clippath-2);}.cls-2{stroke:#fff;stroke-width:20px;}.cls-2,.cls-3{stroke-miterlimit:10;}.cls-3{stroke:#8b8f7f;stroke-width:.4px;}.cls-28{opacity:.58;}.cls-29{opacity:.55;}.cls-30{opacity:.8;}.cls-31{opacity:.7;}</style><clipPath id="clippath"><path class="cls-1" d="m162.01,71.18s1.4,3.35,1.51,4.1c.11.76,3.45,5.72,6.48,5.61s10.15-.76,10.58-2.91,1.4-4.21-.22-5.83.54-1.51-3.89-3.02-8.1-1.94-9.39-1.62c-1.4.11-5.07,3.67-5.07,3.67Z"/></clipPath><clipPath id="clippath-1"><path class="cls-1" d="m223.44,166.61c3.45,9.72,9.39,18.46,16.3,26.02,9.93,10.69,22.02,19.11,34.12,27.31,1.08.76,2.27,1.51,2.91,2.59,1.08,1.62,1.08,3.67,1.08,5.51,0,20.4,2.91,40.81,8.64,60.35.97,3.35,2.05,6.59,2.27,10.04.32,3.67-.22,7.77,1.84,10.8.54.76,1.3,1.51,1.62,2.38,1.3,2.91-1.51,6.48-.22,9.39.11.32.32.54.54.86h0c.86,1.19,2.27,2.27,2.27,3.78,0,.76-.43,1.51-.86,2.16-.54.86-1.3,1.62-1.4,2.59-.32,1.73,1.19,3.35,2.91,3.78,1.73.43,3.45,0,5.18-.43,11.55-3.13,23.64-7.02,35.41-4.53-1.4-2.91-2.7-6.15-1.4-9.07.32-.86.97-1.51,1.08-2.38.32-1.62-.65-3.02-1.62-4.53-.76-1.19-1.4-2.48-1.19-3.78.11-.43.22-.86.43-1.3.43-.86.97-1.73,1.08-2.7.32-2.81-3.13-4.32-4.64-6.69-1.4-2.38-.65-5.4-.54-8.2.11-4.21-1.4-8.2-2.16-12.31-1.84-10.04,1.19-20.73-2.16-30.34-1.19-3.35-3.02-6.37-4.1-9.72-1.94-5.83-1.4-12.2-2.05-18.35-1.3-11.98-7.23-22.89-13.06-33.36-1.51-2.7-3.02-5.4-5.18-7.67-2.7-2.81-6.26-4.53-9.82-6.15-16.09-7.34-50.31-14.79-68.88-28.29-3.35,5.61.43,19,1.62,22.24Z"/></clipPath><clipPath id="clippath-2"><path class="cls-1" d="m178.31,166.51c-3.02,9.82-8.42,18.89-15.01,26.77-9.39,11.23-21.05,20.3-32.71,29.04-1.08.76-2.16,1.62-2.81,2.81-.97,1.62-.86,3.67-.76,5.61,1.08,20.4-.86,40.92-5.51,60.78-.76,3.35-1.62,6.69-1.73,10.15-.11,3.67.65,7.77-1.3,10.9-.54.76-1.19,1.51-1.51,2.38-1.19,3.02,1.84,6.37.65,9.39-.11.32-.32.54-.43.86h0c-.86,1.3-2.16,2.38-2.05,3.89,0,.76.54,1.4.97,2.05.65.76,1.4,1.51,1.62,2.48.43,1.73-1.08,3.35-2.7,3.89-1.73.54-3.45.11-5.18-.22-11.77-2.48-23.97-5.83-35.52-2.7,1.19-2.91,2.38-6.37.97-9.18-.43-.76-.97-1.51-1.19-2.38-.43-1.62.54-3.13,1.4-4.64.65-1.3,1.3-2.48.97-3.89-.11-.43-.32-.86-.54-1.3-.43-.86-1.08-1.62-1.3-2.59-.43-2.7,2.91-4.43,4.21-6.91,1.3-2.48.32-5.51.11-8.31-.32-4.21.97-8.31,1.51-12.42,1.3-10.15-2.27-20.62.65-30.44.97-3.35,2.7-6.48,3.67-9.82,1.62-5.94.76-12.31,1.19-18.46.76-11.98,6.15-23.21,11.34-34.01,1.4-2.81,2.7-5.61,4.75-7.88,2.59-2.91,6.05-4.86,9.39-6.69,15.65-8.2,49.55-17.38,67.37-31.74,3.56,5.72.54,19.22-.54,22.56Z"/></clipPath></defs><path class="cls-2" d="m276.42,411.74s-9.56-44.84-13.03-77.14c-3.48-32.3,18.78-75.46,18.78-75.46,0,0,39.23,99.97-5.75,152.6Z"/><path class="cls-2" d="m127.28,377.97s-15.88-11.06-19.36-43.37c-3.48-32.3,16.76-59.27,16.76-59.27,0,0,14.16,39.35,7.83,77.53-1.46,8.81-.71,16.82-5.23,25.11Z"/><path class="cls-2" d="m335.06,329.27c-.49-6.53-1.34-13.06-2.21-19.54-3.17-23.5-6.65-46.95-10.45-70.35-2.69-16.54-5.67-33.44-14-47.98-8.33-14.54-23.17-26.48-39.93-26.69-6.18-34.04-12.36-68.08-18.54-102.12-1.7-9.35-3.46-18.88-8.06-27.19-9.65-17.44-32.23-26.51-51.26-20.59-27.49,8.55-39.31,40.38-45.68,68.47-4.65,20.5-8.33,42.4-1.17,62.17,1.9,5.23,4.4,11.51.97,15.89-1.94,2.48-5.2,3.42-8.23,4.28-64.23,18.2-56.22,100.37-60.84,154.8-1.5,17.69-2.61,36.14,4.09,52.58,8.3,20.34,27.77,35.46,32.42,56.93,2.15,9.9.87,20.18,0,30.27-2.84,33.03-1.21,66.26.42,99.38,30.08.04,60.16.07,90.25.11.4-8.75.8-17.5,1.2-26.24,3.91,8.34,6.84,17.14,8.7,26.16,31.06,0,62.13,0,93.19,0-5.81-28.8-11.62-57.59-17.43-86.39-1.4-6.93-2.8-14.03-1.74-21.02.81-5.37,3.05-10.43,5.54-15.26,13.78-26.83,36.03-50.13,41.66-79.76,1.75-9.19,1.78-18.55,1.08-27.9Z"/><path class="cls-7" d="m144.31,503.99c-1.73-7.02-3.67-23.97-7.99-36.17-13.06-31.31-56.03-85.94-61.32-109.69-5.07-22.89,9.61-41.56,9.39-64.88-.11-13.17-1.4-26.34-.22-39.51.32-3.45.76-6.91,1.4-10.36,2.16-10.9,6.8-20.08,13.49-28.83,5.61-7.23,12.2-13.82,19.54-19.22l13.39,32.06c-.11,0-.22,0-.22-.11,4.1,9.18-10.58,18.46-11.77,28.39-3.35,28.61-3.35,56.57-8.64,84.86-.86,4.64.11,5.4.65,10.04.43,3.67,3.99,11.23,8.85,21.92,14.25,31.42,18.89,59.59,28.83,92.95,1.62,2.38,11.01,4.21,14.03,9.28,1.84,3.02,3.67,6.05,5.18,9.18,2.38,4.97,2.59,10.69,3.99,15.98.32,1.08.65,2.27.65,3.35.11,5.4-5.83,4.21-8.2,1.19-.22-.32-.43-.54-.65-.86-.22-.43-.43-.76-.65-1.19-.65-1.51-.97-3.24-1.3-4.86-.32-1.19-.65-2.38-1.19-3.45-.54-.97-.97-2.27-2.16-2.38-1.08-.11-2.48.76-3.13,1.62-.86.97-1.3,2.16-1.51,3.35,0,.22-.11.54-.11.76-.11.65-.11,1.4-.11,2.05-.11,2.38,0,4.86,0,7.23,0,3.35.32,6.48,1.84,9.5,1.51,3.13,3.67,5.83,5.61,8.64,2.16,3.02,5.18,7.02,4.21,10.9-.43,1.84-2.7,2.38-4.1,1.4-.76-.54-1.4-1.3-1.94-2.05-3.67-4.86-7.34-9.61-10.26-14.9-2.91-4.97-4.21-10.69-5.61-16.19Z"/><path class="cls-23" d="m305.81,559.48h-93.17c-2.16-8.74-4.43-17.49-8.31-26.45-.76,1.51-.86,13.17-1.19,26.45h-91.01c.22-16.19.65-30.23.11-32.06-.97-3.45-1.08-7.13-1.19-10.8-.22-11.12-.32-22.24-.54-33.36-.11-3.35-.11-6.8-.11-10.26,0-1.4,0-2.81.11-4.32.11-1.62.11-3.24.32-4.86.54-6.48,1.73-12.96,2.91-19.32,1.51-8.2.97-15.87,2.48-24.18,10.58,6.48,23.32,10.15,36.17,10.47h8.1c1.62,0,3.13,0,4.75.11h.22c3.35.22,6.69.76,10.04,1.3,5.94,1.08,11.88,2.38,17.92,2.59,11.77.43,23.21-3.35,34.98-4.53,2.16-.22,4.43-.32,6.69-.32h.11c.97,0,1.94,0,2.81.11,2.27.11,4.43.32,6.69.54,2.27.22,4.43.32,6.69.43,8.74.11,17.81-5.07,26.34-6.91,1.4,5.18,2.81,11.34,3.99,17.49.22.86.32,1.84.54,2.7,1.08,5.07,2.05,10.26,3.02,14.9.32,1.51.65,2.91.97,4.32h0c.11.22.11.43.22.65.32,1.08.54,2.27.86,3.35,1.08,4.64,2.27,9.18,3.35,13.82.54,2.48,8.64,45.34,15.11,78.16Z"/><path class="cls-24" d="m185.44,559.48h-73.41c.22-16.19.65-30.23.11-32.06-.97-3.45-1.08-7.13-1.19-10.8-.22-11.12-.32-22.24-.54-33.36-.11-3.35-.11-6.8-.11-10.26-.54-.11-.97-.22-1.08-.65-.22-.32.11-1.08-.11-1.4-.22-.22-.54-.32-.76-.65-.32-.43-.11-.97.32-1.19.43-.32.97-.32,1.51-.43h.32c.11-1.62.11-3.24.32-4.86.54-6.48,1.73-12.96,2.91-19.32,1.51-8.2.97-15.87,2.48-24.18,10.58,6.48,23.32,10.15,36.17,10.47h2.16c.11-.22.22-.32.43-.54.22-.22.43-.43.76-.54.32-.11.65-.11.97-.11.76,0,3.56-.22,3.89.43v.11c.11.22,0,.43-.11.65,1.62,0,3.13,0,4.75.11h.22c3.35.22,6.69.76,10.04,1.3-.11,3.78-.76,7.45-.65,11.34,0,2.05.11,4.21.32,6.26v.32c.65,9.07,2.05,18.03,1.3,27.31-.76,10.04-2.38,20.94,3.56,29.47,7.99,11.98,5.72,39.3,5.4,52.58Z"/><path class="cls-10" d="m149.81,448.06v.11c-.43,4.53-2.48,8.42-5.83,11.88s-7.23,6.59-11.77,8.53c-7.67,3.35-18.89,4.43-20.73,4.53h-.97c-.54-.11-.97-.22-1.08-.65-.22-.32.11-1.08-.11-1.4-.22-.22-.54-.32-.76-.65-.32-.43-.11-.97.32-1.19.43-.32.97-.32,1.51-.43h.32c5.29-.65,10.69-1.19,15.87-2.7,5.18-1.51,10.26-3.99,13.6-7.88,1.84-2.05,3.02-4.43,4.21-6.8.32-.76.76-2.91,1.51-3.45.43-.54,2.81.22,3.89.11Z"/><path class="cls-10" d="m258.96,460.91c3.78,2.91,8.2,5.72,13.06,6.37,4.75.76,9.28.65,14.14.65.65,0,1.62-.32,1.51-.97-.54-1.19-.86-2.27-.97-3.56-6.59,2.16-13.71.97-19.76-2.27-1.4-.76-3.02-1.3-4.43-2.27-2.81-1.84-5.4-5.18-6.91-8.1-1.3-2.38-2.81-5.07-6.37-3.45,1.62,4.97,5.51,10.47,9.72,13.6Z"/><path class="cls-10" d="m235.1,430.03c.22.43.22.86.11,1.4-.54,7.13.97,14.14.76,21.27-.11,2.91-3.24,3.56-5.94,2.48.32-1.08.11-2.27,0-3.45-.65-5.18-1.3-10.69-1.4-15.98-.11-2.38-.22-4.64-.54-6.91.65-.32,2.81-.22,3.99-.11,1.08.32,2.48.32,3.02,1.3Z"/><path class="cls-10" d="m165.25,430.9s0,.11,0,0c-2.16,5.51-1.73,11.34-2.38,17.06-.22,1.84-.22,6.37-2.27,6.91-1.19.32-3.78,0-4.43-1.19-.22-.32-.22-.76-.22-1.08,0-3.99.11-7.88.43-11.88.32-3.45.65-7.45,3.45-10.04.76-.76,6.15-1.84,5.4.22Z"/><path class="cls-10" d="m190.73,443.96c-1.3-.97-1.73-2.91-.86-4.32s2.7-2.16,4.43-1.94c1.4.22,2.7.97,3.13,2.16.32.97.11,2.05-.32,3.02-.43.97-1.4,1.73-2.59,2.05-1.3.43-2.81-.32-3.78-.97Z"/><path class="cls-3" d="m161.69,449.25c8.42,1.19,16.95,1.51,25.48.86,5.29-.43,10.69-1.08,16.09-1.4,5.51-.22,11.01.32,16.52.32,9.61-.11,15.98-2.59,25.59-1.4,0,0,25.91,1.19,36.81-3.24"/><path class="cls-3" d="m157.91,448.82c-6.37-.65-18.68-.97-25.05-1.51-6.37-.54-12.85-1.84-18.03-5.18"/><path class="cls-25" d="m161.58,61.57c-6.48,25.15-11.23,51.06-9.72,77.08.32,5.07.86,10.15,2.38,15.01,1.19,3.78,3.13,7.45,6.15,10.04,2.59,2.27,5.94,3.45,9.18,4.32,4.86,1.19,9.93,1.3,14.79.54,1.4-.22,2.91-.54,3.99-1.51,1.19-1.08,1.84-2.7,2.16-4.21.76-3.89.43-7.99.22-11.98-.65-16.52,2.27-33.79-4.43-48.91-3.24-7.45-8.74-13.93-11.23-21.7-1.3-4.21-1.73-8.74-1.84-13.17-.11-3.89.97-9.28-.22-12.96-1.08-3.24-3.99-3.89-6.69-2.05-2.81,2.05-3.89,6.05-4.75,9.5Z"/><path class="cls-25" d="m214.37,64.7c-6.48,25.15-11.23,51.06-9.72,77.08.32,5.07.86,10.15,2.38,15.01,1.19,3.78,3.13,7.45,6.15,10.04,2.59,2.27,5.94,3.45,9.18,4.32,4.86,1.19,9.93,1.3,14.79.54,1.4-.22,2.91-.54,3.99-1.51,1.19-1.08,1.84-2.7,2.16-4.21.76-3.89.43-7.99.22-11.98-.65-16.52,2.27-33.79-4.43-48.91-3.24-7.45-8.74-13.93-11.23-21.7-1.3-4.21-1.73-8.74-1.84-13.17-.11-3.89.97-9.28-.22-12.96-1.08-3.24-3.99-3.89-6.69-2.05-2.81,2.05-3.89,6.05-4.75,9.5Z"/><path class="cls-11" d="m112.03,433.49c-1.08,7.67,161.18,8.96,170.9,4.21-3.45-6.15-24.94-83.78-21.38-118.65,3.56-34.76-21.92-64.78-34.22-98.24-1.4-3.67-3.56-7.99-8.64-8.85-2.38-.43-4.86.11-7.23.43-6.15.76-12.63-.11-18.14-2.38-1.4-.54-2.81-1.3-4.43-1.3-3.24,0-5.07,2.7-6.26,4.97-8.42,16.52-16.73,33.04-24.07,49.88-7.02,16.19-15.01,31.85-17.06,49.23-6.91,57.87-24.51,86.37-29.47,120.7Z"/><path class="cls-7" d="m225.28,158.62c-5.83,8.85-18.25,17.38-28.18,16.3-12.2-1.4-21.48-13.71-21.48-13.71,6.37-23.32,6.05-32.5,2.38-47.61l39.3-4.21c0,.11-4.43,30.98,7.99,49.23Z"/><path class="cls-7" d="m241.15,88.23c-1.08,12.42-4.32,22.46-14.57,29.47-11.88,8.1-27.64,19.86-40.92,14.57l-.22-.11c-2.59-1.08-11.12-8.31-12.85-9.93-2.05-2.05-4.43-5.72-5.4-8.2-2.7-6.48-7.99-21.92-5.61-29.26.97-3.13,3.24-4.86,1.84-10.26-.76-2.81-2.38-5.07-2.05-7.99.76-8.31,2.16-16.52,3.99-24.61,1.62-7.02,8.64-11.34,14.79-15.11,5.18-3.02,11.01-4.97,17.06-5.07,1.08,0,2.16,0,3.24.11h.43c7.13.76,13.82,3.99,19.32,8.64,5.4,4.64,9.61,10.58,12.96,16.95,6.26,12.52,9.28,26.88,7.99,40.81Z"/><g class="cls-31"><path class="cls-8" d="m241.15,88.23c-1.08,12.42-4.32,22.46-14.57,29.47-11.88,8.1-27.64,19.86-40.92,14.57-.97-1.94-1.62-4.64.32-7.13.97-.86,2.48-3.24,1.62-5.51-.86-2.16-2.48-3.89-1.3-6.69,0,0-1.3-1.94.65-3.02,1.94-.97,1.94-5.94-.22-7.13-1.19-.65-2.81-.22-4.97-3.02-2.16-2.81-3.13-1.51-.86-8.42,2.27-6.91,3.24-19.54,3.24-23.21-.11-3.67-2.48-10.15.97-19.11,3.45-8.85,9.39-26.34,9.39-26.34l2.81-1.08c1.08,0,2.16,0,3.24.11h.43c7.13.76,13.82,3.99,19.32,8.64,5.4,4.64,9.61,10.58,12.96,16.95,6.15,12.63,9.18,26.99,7.88,40.92Z"/></g><path class="cls-16" d="m188.89,113.17l-2.48-3.02s-.97-1.3-1.08-1.3-1.73-.11-1.84,0-5.29,3.78-5.72,3.67c-.32-.11-2.27-1.51-2.27-1.51l-.76,1.84,14.14.32Z"/><path class="cls-16" d="m183.82,113.07l3.45-2.81,1.4-1.19c.11,0,2.27,0,2.48.11s6.69,4.21,7.23,4.1,3.02-1.4,3.02-1.4l1.08,2.27-18.68-1.08Z"/><polygon class="cls-12" points="178.85 112.96 183.71 116.95 192.24 117.49 197.64 113.82 188.25 113.07 178.85 112.96"/><path class="cls-22" d="m190.84,64.16c6.69-2.81,13.93-4.97,21.16-3.56,2.48.54,4.86,1.73,6.69,3.56.54.54.54,1.4,0,1.84-.54.54-1.3.54-1.84,0-5.07-3.99-12.2-1.94-17.81.11-1.94.76-3.99,1.73-5.83,2.81-3.13,1.84-5.72-3.02-2.38-4.75h0Z"/><path class="cls-6" d="m200.66,72.8c-.97.22-1.94.43-2.81.97-.86.43-1.62.97-2.27,1.62-.32.22-.54.54-.86.76-.43.22-.86.32-1.19.65-.32.32-.54.86-.22,1.19.32.32.76.22,1.19.11.43-.11.86-.22,1.3-.11.54.11.86.43,1.4.65.32.11.65.22.86.32.97.22,2.05.43,3.13.43,2.59,0,5.07-1.19,7.13-2.81.11-.11,1.4-1.3-.54-2.59-1.08-.76-2.38-1.19-3.67-1.51-1.3-.11-2.38.11-3.45.32Z"/><path class="cls-21" d="m200.01,77.98h-.22c-1.4-.11-2.48-1.4-2.38-2.81.11-1.4,1.19-2.48,2.59-2.48h.22c1.4.11,2.48,1.4,2.38,2.81,0,1.4-1.19,2.48-2.59,2.48Z"/><path class="cls-20" d="m200.01,72.8h.22c1.4.11,2.38,1.3,2.38,2.7-.11,1.3-1.19,2.38-2.48,2.38h-.22c-1.4-.11-2.38-1.3-2.38-2.7.11-1.3,1.19-2.38,2.48-2.38m0-.22h0c-1.4,0-2.59,1.08-2.7,2.48,0,.76.22,1.4.65,1.94s1.19.86,1.84.97h.22c1.4,0,2.59-1.08,2.7-2.48,0-.76-.22-1.4-.65-1.94-.43-.54-1.19-.86-1.84-.97h-.22Z"/><circle class="cls-19" cx="200.01" cy="75.28" r="2.38"/><circle class="cls-17" cx="199.36" cy="74.63" r="1.62"/><circle class="cls-18" cx="198.61" cy="74.52" r=".32"/><circle class="cls-18" cx="199.26" cy="73.88" r=".54"/><path class="cls-20" d="m194.18,74.09c.65-.22,1.51-1.08,2.05-1.51,2.91-2.48,7.23-3.35,10.9-2.05,2.7,1.19,4.64,3.67,5.51,6.37l.22.97-.76-.65c-3.13-2.38-6.69-4.97-10.69-4.21-2.48.22-4.43,1.62-6.15,3.35-.43.54-1.4.43-1.62,1.08-.11.22,0,.32.22.43s.86-.22,1.19-.43c.32-.11.97.11,1.19.22,3.45,1.73,8.1,1.73,11.01-.97.32-.22.76-.54,1.3-.54v.54c-.65,0-1.19.76-1.84,1.19-3.35,2.27-7.77,2.05-11.34.32-.54.11-1.08.65-1.84.43-.97-.32-1.08-1.51-.43-2.16.54-.54,1.19-.43,1.62-.86,1.19-1.08,2.48-2.27,4.1-2.91,3.35-1.19,6.69-.86,9.72,1.08,1.4.86,2.7,1.84,3.99,2.81l-.54.32c-1.51-3.02-4.21-5.94-7.77-6.05-2.7-.22-5.4.32-7.45,2.05l-1.08.86c-.43.32-.76.54-1.3.65l-.22-.32h0Z"/><path class="cls-22" d="m157.26,62.43c1.19-.32,2.38-.43,3.56-.54,1.19-.11,2.38-.11,3.56,0,2.38.11,4.75.43,7.02.97,1.19.22,2.27.54,3.45.76,1.19.32,2.27.65,3.45.97,1.3.43,1.94,1.84,1.51,3.02s-1.84,1.94-3.02,1.51c-.11,0-.11-.11-.22-.11h0c-.97-.43-1.94-.86-3.02-1.19-.97-.43-2.05-.76-3.13-1.08-2.05-.65-4.21-1.19-6.37-1.51-1.08-.22-2.16-.32-3.24-.32s-2.16,0-3.13.11c-1.94.32-1.62-2.27-.43-2.59Z"/><path class="cls-20" d="m186.3,103.46c-.86,0-2.91-.22-4.21-2.27-.43-.65-.97-1.08-1.51-1.62-1.4-1.3-2.91-2.59-.97-7.02,3.35-7.67,3.56-21.7,3.56-21.81h1.19c0,.54-.22,14.47-3.67,22.24-1.62,3.67-.76,4.43.65,5.72.54.54,1.19,1.08,1.73,1.84,1.19,1.84,3.35,1.62,3.45,1.62l.11,1.19c.11.11-.11.11-.32.11Z"/><path class="cls-20" d="m185.87,101.51c-.43-.54-.54-1.4,0-1.94.22-.22.54-.43.76-.54,1.08-.43,2.16-.76,3.24-.97.32-.11.65-.11.97-.11.97,0,1.94.65,2.27,1.51l-1.08.54c-.22-.43-.76-.86-1.3-.86-.22,0-.43,0-.65.11-.97.22-2.05.54-3.02.86-.11.11-.32.11-.32.22-.11.11-.11.22,0,.32l-.86.86Z"/><path class="cls-14" d="m217.83,76.79c.76.65,2.27.86,2.91.11"/><path class="cls-14" d="m217.5,76.9c.11.54.54,1.08,1.51,1.51.54.22,1.51.32,2.16-.22"/><path class="cls-22" d="m197.42,30.69c14.03,5.94,19.54,22.24,19.86,36.38.11,3.56-.32,7.13-.22,10.58,0,3.35.65,6.59,1.84,9.72,2.38,6.48,6.05,12.42,9.72,18.35l-4.21,2.59c-2.7-4.64-5.29-9.39-7.34-14.47-1.4-3.35-2.7-6.91-3.24-10.58-.65-3.67-.22-7.45.11-11.01.86-8.53,0-17.49-3.45-25.37-2.38-5.51-6.26-10.36-11.44-13.49-.76-.43-1.51-.86-2.27-1.08l.65-1.62h0Z"/><g class="cls-4"><path class="cls-6" d="m171.51,72.15c.86.22,1.73.54,2.59.97.76.43,1.4.97,2.05,1.62.22.22.54.54.76.76.32.22.76.32,1.08.65.32.32.43.86.11,1.19-.32.32-.76.11-1.08,0-.43-.11-.76-.22-1.19-.11s-.86.43-1.3.65c-.22.11-.54.22-.86.22-.97.22-1.94.32-2.91.32-2.38-.11-4.64-1.19-6.48-2.81-.11-.11-1.3-1.3.54-2.48,1.08-.65,2.27-1.08,3.45-1.3,1.3-.22,2.27,0,3.24.32Z"/><path class="cls-21" d="m168.81,77.01h-.22c-.65,0-1.3-.32-1.84-.86-.43-.54-.65-1.19-.65-1.94.11-1.4,1.19-2.48,2.59-2.48h.22c.65,0,1.3.32,1.84.86.43.54.65,1.19.65,1.94-.11,1.4-1.3,2.48-2.59,2.48Z"/><path class="cls-20" d="m168.81,71.82h.22c1.4.11,2.38,1.3,2.38,2.7-.11,1.3-1.19,2.38-2.48,2.38h-.22c-1.4-.11-2.38-1.3-2.38-2.7,0-1.3,1.08-2.38,2.48-2.38m0-.22h0c-1.4,0-2.59,1.08-2.7,2.48,0,.76.22,1.4.65,1.94s1.19.86,1.84.97h.22c1.4,0,2.59-1.08,2.7-2.48,0-.76-.22-1.4-.65-1.94s-1.19-.86-1.84-.97h-.22Z"/><circle class="cls-19" cx="168.81" cy="74.42" r="2.38"/><circle class="cls-17" cx="168.27" cy="73.55" r="1.62"/><circle class="cls-18" cx="167.52" cy="73.44" r=".32"/><circle class="cls-18" cx="168.16" cy="72.8" r=".54"/><path class="cls-20" d="m177.67,73.55c-.54-.11-.97-.43-1.3-.76-1.08-.86-2.05-1.73-3.35-2.16-3.99-1.73-12.31.11-12.09,5.4l-.54-.22c2.48-1.94,4.97-3.67,8.1-4.32,2.38-.32,4.86.11,6.8,1.51.65.43,1.19.97,1.84,1.51.32.32,1.08.32,1.51.86.86.97.11,2.48-1.19,1.94-.32-.11-.65-.32-.86-.32-.43.22-.97.54-1.51.65-2.91,1.08-6.37.97-9.07-.76-.65-.43-1.08-1.19-1.73-1.08v-.43c.43,0,.86.22,1.19.43.86.76,1.84,1.3,2.91,1.51,2.7.76,5.61.22,8.1-1.08.54-.22,1.19.43,1.62.32.11-.11.32-.22.22-.43-.11-.32-.22-.43-.54-.54s-.86-.32-1.08-.54c-1.08-.97-2.16-1.94-3.56-2.48-4.53-1.51-8.64.97-12.2,3.67l-.32.32-.11-.43c-.65-1.94.65-3.99,2.16-5.18,3.02-2.27,7.45-2.59,10.9-1.08,1.3.54,2.38,1.51,3.35,2.48.32.32.65.54.97.65l-.22.54h0Z"/></g><path class="cls-22" d="m152.19,161.97c-11.34-16.95-15.44-38.87-11.01-58.73.76-3.24,1.62-6.48,2.59-9.5.97-3.35,1.94-6.8,2.7-10.26.54-2.59.97-5.29,1.3-7.99.32-2.48.76-4.97,1.19-7.56,3.56-18.57,14.36-35.52,29.47-46.64,2.59-1.84,4.32-1.4,5.29-.65l-2.27,3.24c.11.11.22.11.22.11,0,0-.32,0-1.08.54-14.47,10.47-24.61,26.56-28.07,44.16-.43,2.38-.86,4.86-1.19,7.34-.43,2.7-.76,5.51-1.3,8.2-.76,3.56-1.73,7.13-2.81,10.58-.86,3.02-1.84,6.15-2.48,9.28-4.1,18.89-.22,39.73,10.47,55.82l-3.02,2.05Z"/><path class="cls-7" d="m273.96,494.59c1.62-6.8,3.35-23.1,7.45-34.87,12.31-30.23,48.15-77.95,53.12-100.83,3.67-17.06-1.19-34.76-3.45-52.36-.65-5.07-8.53-10.69-8.53-15.65,0-12.63-.86-66.72-7.34-75.03-5.4-6.91-11.77-13.17-19-18.35l-12.63,30.98c.11,0,.22,0,.22-.11-3.89,8.85,21.27,15.11,22.46,24.72,3.45,27.42-13.28,57.11-8.1,84.32.86,4.43,4.64,9.18,4.21,13.6-.32,3.45-5.07,4.97-9.72,15.44-13.39,30.34-18.46,54.41-27.85,86.48-1.51,2.27-6.91,8.85-9.82,13.71-1.73,2.91-3.45,5.83-4.86,8.85-2.16,4.86-2.48,10.26-3.78,15.44-.32,1.08-.54,2.16-.54,3.24-.11,5.18,5.61,4.1,7.88,1.08.22-.32.43-.54.54-.86.22-.32.43-.76.54-1.19.54-1.51.86-3.13,1.19-4.64.32-1.19.54-2.27,1.19-3.35.43-.86.97-2.16,2.05-2.27s2.38.76,3.02,1.51c.86.86,1.19,2.05,1.4,3.24,0,.22.11.43.11.76.11.65.11,1.3.11,1.94.11,2.38.11,4.64.11,6.91.11,3.24-.22,6.26-1.62,9.18-1.4,3.02-3.45,5.61-5.29,8.31-2.05,2.91-4.86,6.69-3.99,10.47.43,1.73,2.59,2.27,3.99,1.4.76-.43,1.3-1.19,1.84-1.94,3.45-4.64,7.02-9.28,9.82-14.47,2.81-4.86,3.99-10.36,5.29-15.65Z"/><path class="cls-20" d="m109.76,240.03c-5.61,14.36,10.9,36.6,14.36,51.71,7.88,34.44,7.99,38.97-2.81,72.66,4.97.22,16.09.22,20.51,2.59,3.02,1.62,5.72,3.78,8.96,5.07,3.13,1.3,7.02,1.62,9.82-.22,3.13-2.05,4.21-6.15,4.97-9.72,3.99-17.92,7.99-35.73,11.98-53.66,2.05-9.18,4.1-18.35,5.61-27.64,1.51-9.18,2.38-18.35,3.45-27.64,3.78-30.44,9.72-60.03,18.25-89.5-12.96-.43-24.83-5.72-33.36-14.79-3.35,7.77-10.47,13.17-16.84,18.89-8.31,7.56-15.65,16.19-21.81,25.69-2.59,3.99-4.97,8.31-5.4,13.06-.43,4.32-20.62,29.58-22.56,33.47"/><path class="cls-20" d="m198.83,228.69c.43-3.24.65-6.59,1.94-9.5.76-1.84,1.94-3.45,2.81-5.29,1.3-2.59,2.16-5.4,2.81-8.2,2.7-10.9,3.89-22.24,3.24-33.47-.11-2.7-.32-5.4-1.19-7.99-2.91-.11-4.75,3.13-5.4,5.94-2.38,10.47-2.7,21.38-4.32,32.06-3.24,21.59-12.09,42.32-13.6,64.13-.86,12.42.54,25.37-3.78,37.03-6.15,16.84-12.52,33.36-14.68,51.17-.22,1.94-.32,3.99.11,5.83.54,1.84,1.51,3.45,2.27,5.18.97,2.05.86,5.29,1.94,7.34.76,1.3,2.81,1.19,3.89.11s1.3-2.7,1.4-4.21c.43-5.94-.65-11.98.43-17.81,1.08-5.51,3.99-10.47,5.18-15.87.86-3.89.86-7.88,1.62-11.88,1.51-9.07,4.97-12.31,5.51-21.38.22-3.89-.32-7.67-.11-11.55.32-6.59,3.89-16.63,4.53-23.21.54-5.4-1.51-11.55-.54-15.65.54-2.27,1.4-3.89,2.16-6.15.97-2.7,1.94-5.4,2.59-8.1.86-3.78,1.08-7.67,1.3-11.55"/><path class="cls-15" d="m207.89,164.02s2.48,31.42-3.99,46.1c-6.48,14.68-5.4,11.12-6.91,23.75-1.62,12.52-5.4,15.65-5.07,21.27s1.4,9.07,0,16.73-5.51,17.71-4.32,24.61c1.19,6.8-.11,11.34-2.81,20.08s-1.84,12.96-3.45,20.3-4.75,10.47-5.29,17.81c-.54,7.34,1.62,19.54-3.13,19.86s-20.3,1.4-19.86-2.05c.43-3.45,10.04-22.02,9.93-26.13-.32-13.39,8.53-20.94,7.45-26.56-2.59-13.17,3.35-20.94,2.59-26.13-.76-5.18-1.08-16.3,2.05-21.48,4.53-7.45-.11-12.42,1.4-19.97,1.4-6.8,5.72-11.77,5.29-14.03-.97-6.15-.32-18.46,3.45-25.48s6.59-24.4,6.59-24.4c0,0-1.08-11.55,1.08-17.81l2.05-7.99,12.96,1.51Z"/><circle class="cls-20" cx="166.44" cy="362.99" r="4.43"/><circle class="cls-5" cx="166.44" cy="362.99" r="3.89"/><circle class="cls-20" cx="165.57" cy="362.24" r=".43"/><circle class="cls-20" cx="167.41" cy="362.24" r=".43"/><circle class="cls-20" cx="165.57" cy="363.75" r=".43"/><circle class="cls-20" cx="167.41" cy="363.75" r=".43"/><circle class="cls-20" cx="172.59" cy="337.19" r="4.43"/><circle class="cls-5" cx="172.59" cy="337.19" r="3.89"/><circle class="cls-20" cx="171.73" cy="336.43" r=".43"/><circle class="cls-20" cx="173.45" cy="336.43" r=".43"/><circle class="cls-20" cx="171.73" cy="337.94" r=".43"/><circle class="cls-20" cx="173.45" cy="337.94" r=".43"/><circle class="cls-20" cx="179.5" cy="306.74" r="4.43"/><circle class="cls-5" cx="179.5" cy="306.74" r="3.89"/><circle class="cls-20" cx="178.53" cy="305.99" r=".43"/><circle class="cls-20" cx="180.36" cy="305.99" r=".43"/><circle class="cls-20" cx="178.53" cy="307.5" r=".43"/><circle class="cls-20" cx="180.36" cy="307.5" r=".43"/><circle class="cls-20" cx="179.93" cy="280.29" r="4.43"/><circle class="cls-5" cx="179.93" cy="280.29" r="3.89"/><circle class="cls-20" cx="178.96" cy="279.54" r=".43"/><circle class="cls-20" cx="180.8" cy="279.54" r=".43"/><circle class="cls-20" cx="178.96" cy="281.05" r=".43"/><circle class="cls-20" cx="180.8" cy="281.05" r=".43"/><circle class="cls-20" cx="183.82" cy="254.49" r="4.43"/><circle class="cls-5" cx="183.82" cy="254.49" r="3.89"/><circle class="cls-20" cx="182.96" cy="253.74" r=".43"/><circle class="cls-20" cx="184.79" cy="253.74" r=".43"/><circle class="cls-20" cx="182.96" cy="255.25" r=".43"/><circle class="cls-20" cx="184.79" cy="255.25" r=".43"/><circle class="cls-20" cx="189.65" cy="228.8" r="4.43"/><circle class="cls-5" cx="189.65" cy="228.8" r="3.89"/><circle class="cls-20" cx="188.68" cy="228.04" r=".43"/><circle class="cls-20" cx="190.51" cy="228.04" r=".43"/><circle class="cls-20" cx="188.68" cy="229.55" r=".43"/><circle class="cls-20" cx="190.51" cy="229.55" r=".43"/><circle class="cls-9" cx="196.88" cy="204.29" r="4.43"/><circle class="cls-13" cx="196.88" cy="204.29" r="3.89"/><circle class="cls-9" cx="196.02" cy="203.54" r=".43"/><circle class="cls-9" cx="197.85" cy="203.54" r=".43"/><circle class="cls-9" cx="196.02" cy="205.05" r=".43"/><circle class="cls-9" cx="197.85" cy="205.05" r=".43"/><circle class="cls-9" cx="200.88" cy="179.35" r="4.43"/><circle class="cls-13" cx="200.88" cy="179.35" r="3.89"/><circle class="cls-9" cx="199.9" cy="178.6" r=".43"/><circle class="cls-9" cx="201.74" cy="178.6" r=".43"/><circle class="cls-9" cx="199.9" cy="180.11" r=".43"/><circle class="cls-9" cx="201.74" cy="180.11" r=".43"/><path class="cls-20" d="m295.77,227.07c5.61,14.36-11.55,21.27-15.01,36.27-7.88,34.44-20.08,65.53-9.28,99.11-4.97.22-9.93,1.62-14.36,3.99-3.02,1.62-5.72,3.78-8.96,5.07-3.13,1.3-7.02,1.62-9.82-.22-3.13-2.05-4.21-6.15-4.97-9.72-3.99-17.92-7.99-35.73-11.98-53.66-2.05-9.18-4.1-18.35-5.61-27.64-1.51-9.18-2.38-18.35-3.45-27.64-3.78-30.44-9.72-60.03-18.25-89.5,12.96-.43,24.83-5.72,33.36-14.79,3.35,7.77,10.47,13.17,16.84,18.89,8.31,7.56,15.65,16.19,21.81,25.69,2.59,3.99,4.97,8.31,5.4,13.06.43,4.32-.86,8.96,1.08,12.96"/><path class="cls-20" d="m200.12,228.26c-.43-3.24-.65-6.59-1.94-9.5-.76-1.84-1.94-3.45-2.81-5.29-1.3-2.59-2.16-5.4-2.81-8.2-2.7-10.9-3.89-22.24-3.24-33.47.11-2.7.32-5.4,1.19-7.99,2.91-.11,4.75,3.13,5.4,5.94,2.38,10.47,2.7,21.38,4.32,32.06,3.24,21.59,12.09,42.32,13.6,64.13.86,12.42-.54,25.37,3.78,37.03,6.15,16.84,12.52,33.36,14.68,51.17.22,1.94.32,3.99-.11,5.83-.54,1.84-1.51,3.45-2.27,5.18-.97,2.05-.86,5.29-1.94,7.34-.76,1.3-2.81,1.19-3.89.11s-1.3-2.7-1.4-4.21c-.43-5.94.65-11.98-.43-17.81-1.08-5.51-3.99-10.47-5.18-15.87-.86-3.89-.86-7.88-1.62-11.88-1.51-9.07-4.97-12.31-5.51-21.38-.22-3.89.32-7.67.11-11.55-.32-6.59-3.89-16.63-4.53-23.21-.54-5.4,1.51-11.55.54-15.65-.54-2.27-1.4-3.89-2.16-6.15-.97-2.7-1.94-5.4-2.59-8.1-.86-3.78-1.08-7.67-1.3-11.55"/><path class="cls-15" d="m191.16,163.48s-2.48,31.42,3.99,46.1c6.48,14.68,5.4,11.12,6.91,23.75,1.62,12.52,5.4,15.65,5.07,21.27s-1.4,9.07,0,16.73,5.51,17.71,4.32,24.61c-1.19,6.8.11,11.34,2.81,20.08s1.84,12.96,3.45,20.3c1.62,7.34,4.75,10.47,5.29,17.81s-1.62,19.54,3.13,19.86,20.3,1.4,19.86-2.05c-.43-3.45-10.04-22.02-9.93-26.13.32-13.39-8.53-20.94-7.45-26.56,2.59-13.17-3.35-20.94-2.59-26.13.76-5.18,1.08-16.3-2.05-21.48-4.53-7.45.11-12.42-1.4-19.97-1.4-6.8-5.72-11.77-5.29-14.03.97-6.15.32-18.46-3.45-25.48s-6.59-24.4-6.59-24.4c0,0,1.08-11.55-1.08-17.81l-2.05-7.99-12.96,1.51Z"/><circle class="cls-20" cx="232.51" cy="362.45" r="4.43"/><circle class="cls-5" cx="232.51" cy="362.45" r="3.89"/><circle class="cls-20" cx="233.37" cy="361.7" r=".43"/><circle class="cls-20" cx="231.64" cy="361.7" r=".43"/><circle class="cls-20" cx="233.37" cy="363.32" r=".43"/><circle class="cls-20" cx="231.64" cy="363.32" r=".43"/><circle class="cls-20" cx="226.35" cy="336.65" r="4.43"/><circle class="cls-5" cx="226.35" cy="336.65" r="3.89"/><circle class="cls-20" cx="227.33" cy="335.89" r=".43"/><circle class="cls-20" cx="225.49" cy="335.89" r=".43"/><circle class="cls-20" cx="227.33" cy="337.51" r=".43"/><circle class="cls-20" cx="225.49" cy="337.51" r=".43"/><circle class="cls-20" cx="219.55" cy="306.31" r="4.43"/><circle class="cls-5" cx="219.55" cy="306.31" r="3.89"/><circle class="cls-20" cx="220.42" cy="305.56" r=".43"/><circle class="cls-20" cx="218.58" cy="305.56" r=".43"/><circle class="cls-20" cx="220.42" cy="307.07" r=".43"/><circle class="cls-20" cx="218.58" cy="307.07" r=".43"/><circle class="cls-20" cx="219.12" cy="279.75" r="4.43"/><circle class="cls-5" cx="219.12" cy="279.75" r="3.89"/><circle class="cls-20" cx="219.99" cy="279" r=".43"/><circle class="cls-20" cx="218.15" cy="279" r=".43"/><circle class="cls-20" cx="219.99" cy="280.62" r=".43"/><circle class="cls-20" cx="218.15" cy="280.62" r=".43"/><circle class="cls-20" cx="215.13" cy="254.06" r="4.43"/><circle class="cls-5" cx="215.13" cy="254.06" r="3.89"/><circle class="cls-20" cx="216.1" cy="253.3" r=".43"/><circle class="cls-20" cx="214.26" cy="253.3" r=".43"/><circle class="cls-20" cx="216.1" cy="254.82" r=".43"/><circle class="cls-20" cx="214.26" cy="254.82" r=".43"/><circle class="cls-20" cx="209.41" cy="228.37" r="4.43"/><circle class="cls-5" cx="209.41" cy="228.37" r="3.89"/><circle class="cls-20" cx="210.27" cy="227.5" r=".43"/><circle class="cls-20" cx="208.43" cy="227.5" r=".43"/><circle class="cls-20" cx="210.27" cy="229.12" r=".43"/><circle class="cls-20" cx="208.43" cy="229.12" r=".43"/><circle class="cls-20" cx="202.06" cy="203.86" r="4.43"/><circle class="cls-5" cx="202.06" cy="203.86" r="3.89"/><circle class="cls-20" cx="203.04" cy="203" r=".43"/><circle class="cls-20" cx="201.2" cy="203" r=".43"/><circle class="cls-20" cx="203.04" cy="204.61" r=".43"/><circle class="cls-20" cx="201.2" cy="204.61" r=".43"/><circle class="cls-20" cx="198.18" cy="178.81" r="4.43"/><circle class="cls-5" cx="198.18" cy="178.81" r="3.89"/><circle class="cls-20" cx="199.04" cy="178.06" r=".43"/><circle class="cls-20" cx="197.21" cy="178.06" r=".43"/><circle class="cls-20" cx="199.04" cy="179.68" r=".43"/><circle class="cls-20" cx="197.21" cy="179.68" r=".43"/><path class="cls-20" d="m223.44,166.61c3.45,9.72,9.39,18.46,16.3,26.02,9.93,10.69,22.02,19.11,34.12,27.31,1.08.76,2.27,1.51,2.91,2.59,1.08,1.62,1.08,3.67,1.08,5.51,0,20.4,2.91,40.81,8.64,60.35.97,3.35,2.05,6.59,2.27,10.04.32,3.67-.22,7.77,1.84,10.8.54.76,1.3,1.51,1.62,2.38,1.3,2.91-1.51,6.48-.22,9.39.11.32.32.54.54.86h0c.86,1.19,2.27,2.27,2.27,3.78,0,.76-.43,1.51-.86,2.16-.54.86-1.3,1.62-1.4,2.59-.32,1.73,1.19,3.35,2.91,3.78,1.73.43,3.45,0,5.18-.43,11.55-3.13,23.64-7.02,35.41-4.53-1.4-2.91-2.7-6.15-1.4-9.07.32-.86.97-1.51,1.08-2.38.32-1.62-.65-3.02-1.62-4.53-.76-1.19-1.4-2.48-1.19-3.78.11-.43.22-.86.43-1.3.43-.86.97-1.73,1.08-2.7.32-2.81-3.13-4.32-4.64-6.69-1.4-2.38-.65-5.4-.54-8.2.11-4.21-1.4-8.2-2.16-12.31-1.84-10.04,1.19-20.73-2.16-30.34-1.19-3.35-3.02-6.37-4.1-9.72-1.94-5.83-1.4-12.2-2.05-18.35-1.3-11.98-7.23-22.89-13.06-33.36-1.51-2.7-3.02-5.4-5.18-7.67-2.7-2.81-6.26-4.53-9.82-6.15-16.09-7.34-50.31-14.79-68.88-28.29-3.35,5.61.43,19,1.62,22.24Z"/><g class="cls-28"><g class="cls-26"><g class="cls-30"><polygon class="cls-11" points="186.41 84.67 199.58 98.27 191.05 115.12 177.88 101.62 186.41 84.67"/><polygon class="cls-11" points="208.11 81.33 221.39 94.93 212.86 111.77 199.58 98.27 208.11 81.33"/><polygon class="cls-11" points="229.92 77.98 243.09 91.47 234.56 108.42 221.39 94.93 229.92 77.98"/><polygon class="cls-11" points="251.62 74.63 264.9 88.13 256.37 105.08 243.09 91.47 251.62 74.63"/><polygon class="cls-11" points="273.43 71.28 286.6 84.78 278.07 101.73 264.9 88.13 273.43 71.28"/><polygon class="cls-11" points="295.12 67.94 308.4 81.43 299.88 98.27 286.6 84.78 295.12 67.94"/><polygon class="cls-11" points="316.93 64.48 330.1 78.09 321.58 94.93 308.4 81.43 316.93 64.48"/><polygon class="cls-11" points="191.05 115.12 204.33 128.72 195.8 145.56 182.63 132.07 191.05 115.12"/><polygon class="cls-11" points="212.86 111.77 226.03 125.26 217.61 142.21 204.33 128.72 212.86 111.77"/><polygon class="cls-11" points="234.56 108.42 247.84 121.92 239.31 138.87 226.03 125.26 234.56 108.42"/><polygon class="cls-11" points="256.37 105.08 269.54 118.57 261.01 135.52 247.84 121.92 256.37 105.08"/><polygon class="cls-11" points="278.07 101.73 291.35 115.22 282.82 132.07 269.54 118.57 278.07 101.73"/><polygon class="cls-11" points="299.88 98.27 313.05 111.88 304.52 128.72 291.35 115.22 299.88 98.27"/><polygon class="cls-11" points="321.58 94.93 334.85 108.53 326.33 125.37 313.05 111.88 321.58 94.93"/><polygon class="cls-11" points="195.8 145.56 209.08 159.06 200.55 176.01 187.27 162.51 195.8 145.56"/><polygon class="cls-11" points="217.61 142.21 230.78 155.71 222.25 172.66 209.08 159.06 217.61 142.21"/><polygon class="cls-11" points="239.31 138.87 252.59 152.36 244.06 169.31 230.78 155.71 239.31 138.87"/><polygon class="cls-11" points="261.01 135.52 274.29 149.02 265.76 165.86 252.59 152.36 261.01 135.52"/><polygon class="cls-11" points="282.82 132.07 295.99 145.67 287.46 162.51 274.29 149.02 282.82 132.07"/><polygon class="cls-11" points="304.52 128.72 317.8 142.32 309.27 159.16 295.99 145.67 304.52 128.72"/><polygon class="cls-11" points="326.33 125.37 339.5 138.87 330.97 155.82 317.8 142.32 326.33 125.37"/><polygon class="cls-11" points="200.55 176.01 213.72 189.5 205.19 206.45 192.02 192.85 200.55 176.01"/><polygon class="cls-11" points="222.25 172.66 235.53 186.15 227 203.1 213.72 189.5 222.25 172.66"/><polygon class="cls-11" points="244.06 169.31 257.23 182.81 248.7 199.65 235.53 186.15 244.06 169.31"/><polygon class="cls-11" points="265.76 165.86 279.04 179.46 270.51 196.3 257.23 182.81 265.76 165.86"/><polygon class="cls-11" points="287.46 162.51 300.74 176.11 292.21 192.96 279.04 179.46 287.46 162.51"/><polygon class="cls-11" points="309.27 159.16 322.44 172.66 314.02 189.61 300.74 176.11 309.27 159.16"/><polygon class="cls-11" points="330.97 155.82 344.25 169.31 335.72 186.26 322.44 172.66 330.97 155.82"/><polygon class="cls-11" points="205.19 206.45 218.47 219.95 209.94 236.89 196.67 223.29 205.19 206.45"/><polygon class="cls-11" points="227 203.1 240.17 216.6 231.64 233.44 218.47 219.95 227 203.1"/><polygon class="cls-11" points="248.7 199.65 261.98 213.25 253.45 230.09 240.17 216.6 248.7 199.65"/><polygon class="cls-11" points="270.51 196.3 283.68 209.9 275.15 226.75 261.98 213.25 270.51 196.3"/><polygon class="cls-11" points="292.21 192.96 305.49 206.45 296.96 223.4 283.68 209.9 292.21 192.96"/><polygon class="cls-11" points="314.02 189.61 327.19 203.1 318.66 220.05 305.49 206.45 314.02 189.61"/><polygon class="cls-11" points="335.72 186.26 349 199.76 340.47 216.71 327.19 203.1 335.72 186.26"/><polygon class="cls-11" points="338.42 61.35 351.7 74.85 343.17 91.69 329.89 78.19 338.42 61.35"/><polygon class="cls-11" points="360.22 57.9 373.4 71.5 364.87 88.34 351.7 74.85 360.22 57.9"/><polygon class="cls-11" points="381.92 54.55 395.2 68.15 386.67 85 373.4 71.5 381.92 54.55"/><polygon class="cls-11" points="343.17 91.69 356.34 105.29 347.81 122.13 334.64 108.64 343.17 91.69"/><polygon class="cls-11" points="364.87 88.34 378.15 101.95 369.62 118.79 356.34 105.29 364.87 88.34"/><polygon class="cls-11" points="386.67 85 399.85 98.49 391.32 115.44 378.15 101.95 386.67 85"/><polygon class="cls-11" points="347.81 122.13 361.09 135.74 352.56 152.58 339.39 139.08 347.81 122.13"/><polygon class="cls-11" points="369.62 118.79 382.79 132.28 374.37 149.23 361.09 135.74 369.62 118.79"/><polygon class="cls-11" points="391.32 115.44 404.6 128.94 396.07 145.88 382.79 132.28 391.32 115.44"/><polygon class="cls-11" points="352.56 152.58 365.84 166.07 357.31 183.02 344.03 169.53 352.56 152.58"/><polygon class="cls-11" points="374.37 149.23 387.54 162.73 379.01 179.68 365.84 166.07 374.37 149.23"/><polygon class="cls-11" points="396.07 145.88 409.35 159.38 400.82 176.33 387.54 162.73 396.07 145.88"/><polygon class="cls-11" points="357.31 183.02 370.48 196.52 361.95 213.47 348.78 199.86 357.31 183.02"/><polygon class="cls-11" points="379.01 179.68 392.29 193.17 383.76 210.12 370.48 196.52 379.01 179.68"/><polygon class="cls-11" points="400.82 176.33 413.99 189.82 405.46 206.67 392.29 193.17 400.82 176.33"/><polygon class="cls-11" points="209.84 236.14 223.01 249.63 214.48 266.48 201.31 252.98 209.84 236.14"/><polygon class="cls-11" points="231.54 232.68 244.82 246.29 236.29 263.13 223.01 249.63 231.54 232.68"/><polygon class="cls-11" points="253.24 229.34 266.52 242.94 257.99 259.78 244.82 246.29 253.24 229.34"/><polygon class="cls-11" points="275.04 225.99 288.22 239.49 279.69 256.44 266.52 242.94 275.04 225.99"/><polygon class="cls-11" points="296.74 222.64 310.02 236.14 301.49 253.09 288.22 239.49 296.74 222.64"/><polygon class="cls-11" points="318.55 219.3 331.72 232.79 323.19 249.74 310.02 236.14 318.55 219.3"/><polygon class="cls-11" points="340.25 215.95 353.53 229.45 345 246.29 331.72 232.79 340.25 215.95"/><polygon class="cls-11" points="214.48 266.48 227.76 280.08 219.23 296.92 205.95 283.43 214.48 266.48"/><polygon class="cls-11" points="236.29 263.13 249.46 276.73 240.93 293.57 227.76 280.08 236.29 263.13"/><polygon class="cls-11" points="257.99 259.78 271.27 273.28 262.74 290.23 249.46 276.73 257.99 259.78"/><polygon class="cls-11" points="279.69 256.44 292.97 269.93 284.44 286.88 271.27 273.28 279.69 256.44"/><polygon class="cls-11" points="301.49 253.09 314.67 266.58 306.24 283.53 292.97 269.93 301.49 253.09"/><polygon class="cls-11" points="323.19 249.74 336.47 263.24 327.94 280.08 314.67 266.58 323.19 249.74"/><polygon class="cls-11" points="345 246.29 358.17 259.89 349.64 276.73 336.47 263.24 345 246.29"/><polygon class="cls-11" points="219.23 296.92 232.4 310.52 223.87 327.36 210.7 313.87 219.23 296.92"/><polygon class="cls-11" points="240.93 293.57 254.21 307.07 245.68 324.02 232.4 310.52 240.93 293.57"/><polygon class="cls-11" points="262.74 290.23 275.91 303.72 267.38 320.67 254.21 307.07 262.74 290.23"/><polygon class="cls-11" points="284.44 286.88 297.72 300.37 289.19 317.32 275.91 303.72 284.44 286.88"/><polygon class="cls-11" points="306.24 283.53 319.42 297.03 310.89 313.87 297.72 300.37 306.24 283.53"/><polygon class="cls-11" points="327.94 280.08 341.22 293.68 332.69 310.52 319.42 297.03 327.94 280.08"/><polygon class="cls-11" points="349.64 276.73 362.92 290.33 354.39 307.18 341.22 293.68 349.64 276.73"/><polygon class="cls-11" points="223.87 327.36 237.15 340.86 228.62 357.81 215.34 344.31 223.87 327.36"/><polygon class="cls-11" points="245.68 324.02 258.85 337.51 250.32 354.46 237.15 340.86 245.68 324.02"/><polygon class="cls-11" points="267.38 320.67 280.66 334.17 272.13 351.12 258.85 337.51 267.38 320.67"/><polygon class="cls-11" points="289.19 317.32 302.36 330.82 293.83 347.66 280.66 334.17 289.19 317.32"/><polygon class="cls-11" points="310.89 313.87 324.17 327.47 315.64 344.31 302.36 330.82 310.89 313.87"/><polygon class="cls-11" points="332.69 310.52 345.87 324.13 337.34 340.97 324.17 327.47 332.69 310.52"/><polygon class="cls-11" points="354.39 307.18 367.67 320.67 359.14 337.62 345.87 324.13 354.39 307.18"/><polygon class="cls-11" points="228.62 357.81 241.79 371.3 233.26 388.25 220.09 374.65 228.62 357.81"/><polygon class="cls-11" points="250.32 354.46 263.6 367.96 255.07 384.91 241.79 371.3 250.32 354.46"/><polygon class="cls-11" points="272.13 351.12 285.3 364.61 276.77 381.45 263.6 367.96 272.13 351.12"/><polygon class="cls-11" points="293.83 347.66 307.11 361.26 298.58 378.11 285.3 364.61 293.83 347.66"/><polygon class="cls-11" points="315.64 344.31 328.81 357.92 320.28 374.76 307.11 361.26 315.64 344.31"/><polygon class="cls-11" points="337.34 340.97 350.62 354.46 342.09 371.41 328.81 357.92 337.34 340.97"/><polygon class="cls-11" points="359.14 337.62 372.32 351.12 363.79 368.07 350.62 354.46 359.14 337.62"/><polygon class="cls-11" points="361.84 212.71 375.01 226.21 366.59 243.16 353.32 229.55 361.84 212.71"/><polygon class="cls-11" points="383.54 209.36 396.82 222.86 388.29 239.7 375.01 226.21 383.54 209.36"/><polygon class="cls-11" points="366.59 243.16 379.77 256.65 371.24 273.49 358.07 260 366.59 243.16"/><polygon class="cls-11" points="388.29 239.7 401.57 253.3 393.04 270.15 379.77 256.65 388.29 239.7"/><polygon class="cls-11" points="371.24 273.49 384.52 287.1 375.99 303.94 362.71 290.44 371.24 273.49"/><polygon class="cls-11" points="393.04 270.15 406.22 283.75 397.69 300.59 384.52 287.1 393.04 270.15"/><polygon class="cls-11" points="375.99 303.94 389.16 317.54 380.63 334.38 367.46 320.89 375.99 303.94"/><polygon class="cls-11" points="397.69 300.59 410.97 314.09 402.44 331.04 389.16 317.54 397.69 300.59"/><polygon class="cls-11" points="380.63 334.38 393.91 347.88 385.38 364.83 372.1 351.33 380.63 334.38"/><polygon class="cls-11" points="402.44 331.04 415.61 344.53 407.08 361.48 393.91 347.88 402.44 331.04"/></g></g></g><path class="cls-20" d="m178.31,166.51c-3.02,9.82-8.42,18.89-15.01,26.77-9.39,11.23-21.05,20.3-32.71,29.04-1.08.76-2.16,1.62-2.81,2.81-.97,1.62-.86,3.67-.76,5.61,1.08,20.4-.86,40.92-5.51,60.78-.76,3.35-1.62,6.69-1.73,10.15-.11,3.67.65,7.77-1.3,10.9-.54.76-1.19,1.51-1.51,2.38-1.19,3.02,1.84,6.37.65,9.39-.11.32-.32.54-.43.86h0c-.86,1.3-2.16,2.38-2.05,3.89,0,.76.54,1.4.97,2.05.65.76,1.4,1.51,1.62,2.48.43,1.73-1.08,3.35-2.7,3.89-1.73.54-3.45.11-5.18-.22-11.77-2.48-23.97-5.83-35.52-2.7,1.19-2.91,2.38-6.37.97-9.18-.43-.76-.97-1.51-1.19-2.38-.43-1.62.54-3.13,1.4-4.64.65-1.3,1.3-2.48.97-3.89-.11-.43-.32-.86-.54-1.3-.43-.86-1.08-1.62-1.3-2.59-.43-2.7,2.91-4.43,4.21-6.91,1.3-2.48.32-5.51.11-8.31-.32-4.21.97-8.31,1.51-12.42,1.3-10.15-2.27-20.62.65-30.44.97-3.35,2.7-6.48,3.67-9.82,1.62-5.94.76-12.31,1.19-18.46.76-11.98,6.15-23.21,11.34-34.01,1.4-2.81,2.7-5.61,4.75-7.88,2.59-2.91,6.05-4.86,9.39-6.69,15.65-8.2,49.55-17.38,67.37-31.74,3.56,5.72.54,19.22-.54,22.56Z"/><g class="cls-28"><g class="cls-27"><g class="cls-30"><polygon class="cls-11" points="211.13 82.84 198.61 96.98 208 113.5 220.53 99.25 211.13 82.84"/><polygon class="cls-11" points="189.22 80.57 176.69 94.82 186.09 111.23 198.61 96.98 189.22 80.57"/><polygon class="cls-11" points="167.3 78.3 154.78 92.55 164.17 108.96 176.69 94.82 167.3 78.3"/><polygon class="cls-11" points="145.39 76.14 132.86 90.29 142.25 106.7 154.78 92.55 145.39 76.14"/><polygon class="cls-11" points="123.58 73.88 111.05 88.02 120.34 104.43 132.86 90.29 123.58 73.88"/><polygon class="cls-11" points="101.66 71.61 89.14 85.75 98.53 102.27 111.05 88.02 101.66 71.61"/><polygon class="cls-11" points="79.75 69.34 67.22 83.59 76.62 100 89.14 85.75 79.75 69.34"/><polygon class="cls-11" points="208 113.5 195.48 127.64 204.87 144.05 217.39 129.91 208 113.5"/><polygon class="cls-11" points="186.09 111.23 173.56 125.37 182.96 141.78 195.48 127.64 186.09 111.23"/><polygon class="cls-11" points="164.17 108.96 151.65 123.11 161.04 139.62 173.56 125.37 164.17 108.96"/><polygon class="cls-11" points="142.25 106.7 129.73 120.95 139.12 137.36 151.65 123.11 142.25 106.7"/><polygon class="cls-11" points="120.34 104.43 107.92 118.68 117.21 135.09 129.73 120.95 120.34 104.43"/><polygon class="cls-11" points="98.53 102.27 86.01 116.41 95.4 132.82 107.92 118.68 98.53 102.27"/><polygon class="cls-11" points="76.62 100 64.09 114.14 73.48 130.66 86.01 116.41 76.62 100"/><polygon class="cls-11" points="204.87 144.05 192.35 158.3 201.74 174.71 214.16 160.46 204.87 144.05"/><polygon class="cls-11" points="182.96 141.78 170.43 156.03 179.82 172.44 192.35 158.3 182.96 141.78"/><polygon class="cls-11" points="161.04 139.62 148.52 153.77 157.91 170.18 170.43 156.03 161.04 139.62"/><polygon class="cls-11" points="139.12 137.36 126.6 151.5 135.99 168.02 148.52 153.77 139.12 137.36"/><polygon class="cls-11" points="117.21 135.09 104.68 149.34 114.08 165.75 126.6 151.5 117.21 135.09"/><polygon class="cls-11" points="95.4 132.82 82.88 147.07 92.27 163.48 104.68 149.34 95.4 132.82"/><polygon class="cls-11" points="73.48 130.66 60.96 144.81 70.35 161.22 82.88 147.07 73.48 130.66"/><polygon class="cls-11" points="201.74 174.71 189.22 188.85 198.5 205.37 211.02 191.12 201.74 174.71"/><polygon class="cls-11" points="179.82 172.44 167.3 186.69 176.69 203.1 189.22 188.85 179.82 172.44"/><polygon class="cls-11" points="157.91 170.18 145.39 184.43 154.78 200.84 167.3 186.69 157.91 170.18"/><polygon class="cls-11" points="135.99 168.02 123.47 182.16 132.86 198.57 145.39 184.43 135.99 168.02"/><polygon class="cls-11" points="114.08 165.75 101.55 179.89 110.95 196.41 123.47 182.16 114.08 165.75"/><polygon class="cls-11" points="92.27 163.48 79.75 177.73 89.03 194.14 101.55 179.89 92.27 163.48"/><polygon class="cls-11" points="70.35 161.22 57.83 175.47 67.22 191.88 79.75 177.73 70.35 161.22"/><polygon class="cls-11" points="198.5 205.37 186.09 219.51 195.37 235.92 207.89 221.78 198.5 205.37"/><polygon class="cls-11" points="176.69 203.1 164.17 217.25 173.56 233.76 186.09 219.51 176.69 203.1"/><polygon class="cls-11" points="154.78 200.84 142.25 215.09 151.65 231.5 164.17 217.25 154.78 200.84"/><polygon class="cls-11" points="132.86 198.57 120.34 212.82 129.73 229.23 142.25 215.09 132.86 198.57"/><polygon class="cls-11" points="110.95 196.41 98.42 210.55 107.82 226.96 120.34 212.82 110.95 196.41"/><polygon class="cls-11" points="89.03 194.14 76.62 208.29 85.9 224.7 98.42 210.55 89.03 194.14"/><polygon class="cls-11" points="67.22 191.88 54.7 206.02 64.09 222.54 76.62 208.29 67.22 191.88"/><polygon class="cls-11" points="58.05 67.29 45.52 81.43 54.92 97.84 67.44 83.7 58.05 67.29"/><polygon class="cls-11" points="36.13 65.02 23.61 79.17 33 95.68 45.52 81.43 36.13 65.02"/><polygon class="cls-11" points="14.21 62.76 1.8 77.01 11.08 93.42 23.61 79.17 14.21 62.76"/><polygon class="cls-11" points="-7.59 60.49 -20.12 74.74 -10.72 91.15 1.8 77.01 -7.59 60.49"/><polygon class="cls-11" points="54.92 97.84 42.39 112.09 51.78 128.5 64.31 114.36 54.92 97.84"/><polygon class="cls-11" points="33 95.68 20.48 109.83 29.87 126.24 42.39 112.09 33 95.68"/><polygon class="cls-11" points="11.08 93.42 -1.44 107.56 7.95 123.97 20.48 109.83 11.08 93.42"/><polygon class="cls-11" points="51.78 128.5 39.26 142.65 48.65 159.16 61.18 144.91 51.78 128.5"/><polygon class="cls-11" points="29.87 126.24 17.35 140.49 26.74 156.9 39.26 142.65 29.87 126.24"/><polygon class="cls-11" points="7.95 123.97 -4.57 138.22 4.82 154.63 17.35 140.49 7.95 123.97"/><polygon class="cls-11" points="48.65 159.16 36.13 173.31 45.52 189.72 58.05 175.57 48.65 159.16"/><polygon class="cls-11" points="26.74 156.9 14.21 171.04 23.61 187.56 36.13 173.31 26.74 156.9"/><polygon class="cls-11" points="4.82 154.63 -7.7 168.88 1.69 185.29 14.21 171.04 4.82 154.63"/><polygon class="cls-11" points="45.52 189.72 33 203.97 42.39 220.38 54.92 206.23 45.52 189.72"/><polygon class="cls-11" points="23.61 187.56 11.08 201.7 20.48 218.11 33 203.97 23.61 187.56"/><polygon class="cls-11" points="1.69 185.29 -10.83 199.43 -1.44 215.95 11.08 201.7 1.69 185.29"/><polygon class="cls-11" points="195.48 235.17 182.96 249.42 192.35 265.83 204.87 251.69 195.48 235.17"/><polygon class="cls-11" points="173.67 233.01 161.15 247.15 170.43 263.56 182.96 249.42 173.67 233.01"/><polygon class="cls-11" points="151.75 230.74 139.23 244.88 148.62 261.29 161.15 247.15 151.75 230.74"/><polygon class="cls-11" points="129.84 228.47 117.32 242.62 126.71 259.13 139.23 244.88 129.84 228.47"/><polygon class="cls-11" points="107.92 226.21 95.4 240.46 104.79 256.87 117.32 242.62 107.92 226.21"/><polygon class="cls-11" points="86.01 223.94 73.48 238.19 82.88 254.6 95.4 240.46 86.01 223.94"/><polygon class="cls-11" points="64.2 221.78 51.68 235.92 60.96 252.33 73.48 238.19 64.2 221.78"/><polygon class="cls-11" points="192.35 265.83 179.82 279.97 189.22 296.49 201.74 282.24 192.35 265.83"/><polygon class="cls-11" points="170.43 263.56 158.02 277.81 167.3 294.22 179.82 279.97 170.43 263.56"/><polygon class="cls-11" points="148.62 261.29 136.1 275.54 145.49 291.95 158.02 277.81 148.62 261.29"/><polygon class="cls-11" points="126.71 259.13 114.18 273.28 123.58 289.69 136.1 275.54 126.71 259.13"/><polygon class="cls-11" points="104.79 256.87 92.27 271.01 101.66 287.53 114.18 273.28 104.79 256.87"/><polygon class="cls-11" points="82.88 254.6 70.35 268.85 79.75 285.26 92.27 271.01 82.88 254.6"/><polygon class="cls-11" points="60.96 252.33 48.55 266.58 57.83 282.99 70.35 268.85 60.96 252.33"/><polygon class="cls-11" points="189.22 296.49 176.69 310.63 186.09 327.04 198.61 312.9 189.22 296.49"/><polygon class="cls-11" points="167.3 294.22 154.78 308.36 164.17 324.88 176.69 310.63 167.3 294.22"/><polygon class="cls-11" points="145.49 291.95 132.97 306.2 142.36 322.61 154.78 308.36 145.49 291.95"/><polygon class="cls-11" points="123.58 289.69 111.05 303.94 120.45 320.35 132.97 306.2 123.58 289.69"/><polygon class="cls-11" points="101.66 287.53 89.14 301.67 98.53 318.08 111.05 303.94 101.66 287.53"/><polygon class="cls-11" points="79.75 285.26 67.22 299.4 76.62 315.92 89.14 301.67 79.75 285.26"/><polygon class="cls-11" points="57.83 282.99 45.31 297.14 54.7 313.65 67.22 299.4 57.83 282.99"/><polygon class="cls-11" points="186.09 327.04 173.56 341.29 182.96 357.7 195.48 343.56 186.09 327.04"/><polygon class="cls-11" points="164.17 324.88 151.65 339.02 161.04 355.43 173.56 341.29 164.17 324.88"/><polygon class="cls-11" points="142.36 322.61 129.84 336.76 139.12 353.27 151.65 339.02 142.36 322.61"/><polygon class="cls-11" points="120.45 320.35 107.92 334.6 117.32 351.01 129.84 336.76 120.45 320.35"/><polygon class="cls-11" points="98.53 318.08 86.01 332.33 95.4 348.74 107.92 334.6 98.53 318.08"/><polygon class="cls-11" points="76.62 315.92 64.09 330.06 73.48 346.47 86.01 332.33 76.62 315.92"/><polygon class="cls-11" points="54.7 313.65 42.18 327.8 51.57 344.21 64.09 330.06 54.7 313.65"/><polygon class="cls-11" points="182.96 357.7 170.43 371.95 179.82 388.36 192.35 374.11 182.96 357.7"/><polygon class="cls-11" points="161.04 355.43 148.52 369.68 157.91 386.09 170.43 371.95 161.04 355.43"/><polygon class="cls-11" points="139.12 353.27 126.71 367.42 135.99 383.83 148.52 369.68 139.12 353.27"/><polygon class="cls-11" points="117.32 351.01 104.79 365.15 114.18 381.56 126.71 367.42 117.32 351.01"/><polygon class="cls-11" points="95.4 348.74 82.88 362.88 92.27 379.4 104.79 365.15 95.4 348.74"/><polygon class="cls-11" points="73.48 346.47 60.96 360.72 70.35 377.13 82.88 362.88 73.48 346.47"/><polygon class="cls-11" points="51.57 344.21 39.05 358.46 48.44 374.87 60.96 360.72 51.57 344.21"/><polygon class="cls-11" points="42.5 219.62 29.98 233.87 39.37 250.28 51.89 236.03 42.5 219.62"/><polygon class="cls-11" points="20.58 217.35 8.06 231.6 17.45 248.01 29.98 233.87 20.58 217.35"/><polygon class="cls-11" points="-1.33 215.09 -13.85 229.34 -4.46 245.75 8.06 231.6 -1.33 215.09"/><polygon class="cls-11" points="39.37 250.28 26.85 264.42 36.24 280.83 48.65 266.69 39.37 250.28"/><polygon class="cls-11" points="17.45 248.01 4.93 262.16 14.32 278.67 26.85 264.42 17.45 248.01"/><polygon class="cls-11" points="-4.46 245.75 -16.99 260 -7.59 276.41 4.93 262.16 -4.46 245.75"/><polygon class="cls-11" points="36.24 280.83 23.71 295.08 33 311.49 45.52 297.35 36.24 280.83"/><polygon class="cls-11" points="14.32 278.67 1.8 292.82 11.19 309.23 23.71 295.08 14.32 278.67"/><polygon class="cls-11" points="-7.59 276.41 -20.12 290.55 -10.72 307.07 1.8 292.82 -7.59 276.41"/><polygon class="cls-11" points="33 311.49 20.58 325.75 29.87 342.16 42.39 327.9 33 311.49"/><polygon class="cls-11" points="11.19 309.23 -1.33 323.48 8.06 339.89 20.58 325.75 11.19 309.23"/><polygon class="cls-11" points="29.87 342.16 17.35 356.3 26.74 372.82 39.26 358.56 29.87 342.16"/><polygon class="cls-11" points="8.06 339.89 -4.46 354.14 4.93 370.55 17.35 356.3 8.06 339.89"/></g></g></g><path class="cls-22" d="m198.83,15.58c-.54-.11-7.34,8.53-8.1,16.19-.11,1.19-.32,1.4-1.51,1.51-1.3.11-2.59.32-3.89.65-2.48.76-4.86,1.94-7.02,3.56-5.18,3.89-9.39,9.72-11.77,15.76-3.89,9.72-5.4,19.32-6.26,29.58-.97,11.88-3.24,23.86-3.56,35.84-.43,16.52,1.19,33.36,8.1,48.58,2.91,6.48,7.77,11.88,10.9,18.03.22.32.32.76.54,1.08,2.16,4.53,1.94,10.9-.43,15.33-3.24,5.94-10.47,9.28-17.17,8.96-2.81-.22-5.51-1.3-7.77-3.02-3.13-2.48-5.18-6.15-4.97-10.15.11-1.84.76-3.78,2.38-4.64s4.1.32,3.89,2.16c-.11.76-.54,1.4-.32,2.05.11.32.43.54.76.54.65.11,1.4-.22,1.73-.86.32-.65.22-1.51,0-2.16-.11-.32-.11-.54-.22-.76-6.26-19-9.61-38.22-8.1-58.3,1.51-19.65,6.15-38.87,8.74-58.3.97-7.34.43-14.9,1.51-22.24,1.51-10.47,6.26-20.84,13.93-28.29,6.15-5.83,13.93-9.72,22.24-11.34,1.84-.54,4.53-.32,6.37.22Z"/><path class="cls-22" d="m272.13,203.75c-4.75,4.97-18.68,11.88-32.28,9.28-3.56-.65-7.02-2.05-10.36-4.21-9.18-6.05-11.77-19.22-8.42-29.04.11-.43.32-.86.43-1.3,3.56-8.64,5.4-18.35,4.97-27.64-.43-9.18-2.59-18.14-3.13-27.31-.43-6.8-1.08-13.49-1.51-20.3-.65-9.82-.22-19.54.11-29.36.32-10.04-1.19-20.51-6.37-29.36-2.38-4.21-6.8-8.74-11.44-10.36-4.32-1.4-12.63-.54-13.06-1.4-.43-.86-.11-7.23,5.51-14.9,5.61-7.67,14.47-3.78,20.73-2.7,6.05.97,11.66,4.86,16.52,8.96,9.18,7.67,15.33,18.25,16.19,29.9.97,13.17,0,26.99,2.91,39.84,3.02,13.49,7.99,26.34,11.66,39.62,3.35,11.98,5.83,24.51-.32,36.06-1.19,2.16-2.59,4.21-4.32,5.83-1.3,1.19-4.97,7.88-.76,10.9.54.43,1.19.65,1.84.76,2.38.54,5.18-.43,5.83-2.81.43-1.3-.22-3.02-1.51-3.35-1.08-.22-2.48.43-3.24-.32-.22-.22-.43-.65-.43-.97-.22-3.89,3.56-7.02,7.23-6.91,3.99.11,7.23,4.1,8.31,7.67,2.27,7.56.43,17.71-5.07,23.43Z"/><g class="cls-29"><path class="cls-25" d="m255.4,182.38c-2.7,0-4.64-1.19-5.51-1.73.32.54,1.84,3.24,4.97,4.1,1.3.32,2.38.22,3.13.11-.43.32-3.89,2.7-7.88,1.3-2.7-.86-4.1-2.91-4.53-3.56,0,.11-.86,3.45,1.3,5.61,1.94,1.94,5.61,2.05,8.2-.11-.32.32-4.32,3.99-9.82,2.91-4.97-.97-7.34-5.07-7.56-5.61-.76,3.24.54,6.59,3.24,8.53,2.59,1.73,5.83,1.84,8.53.22-3.56,3.56-8.85,4.86-13.39,3.13-5.18-1.94-7.02-8.53-7.56-8.2-.43.22,1.19,6.37,5.61,12.2,1.84,2.38,3.78,4.21,5.61,5.83-3.56-.65-7.02-2.05-10.36-4.21-9.18-6.05-11.77-19.22-8.42-29.04,2.38-2.27,5.07-2.91,7.45-6.91,3.56-5.94,2.48-12.31,2.91-12.31s1.08,5.18.22,11.23c-.43,3.13-1.19,5.72-1.84,7.56,1.19-1.3,3.99-4.53,4.86-9.39.43-2.7.11-4.97-.22-6.48.76,1.84,1.84,5.07,1.4,9.28-.22,2.16-.76,3.89-1.3,5.18,2.05-2.16,5.4-6.26,7.23-12.31,3.13-10.47-.43-19.32-1.62-21.92-.32-.86,6.48,7.99,6.48,18.57,0,5.07-1.3,9.28-2.48,12.09,1.19-1.3,3.67-4.21,4.86-8.74,1.19-4.64.22-8.53-.22-10.26.97,1.94,2.38,5.61,2.38,10.47,0,4.1-1.08,7.34-1.84,9.18,2.81-1.73,4.53-3.67,5.61-5.29,7.45-11.12-.97-26.56-1.51-27.31,2.05,2.27,6.48,7.67,7.99,15.98,1.3,6.91,0,12.96-1.51,16.95-1.3,1.19-5.07,7.88-.76,10.9.54.32,1.19.65,1.84.76-1.4.54-3.35,1.3-5.51,1.3Z"/></g><g class="cls-29"><path class="cls-25" d="m175.72,195.22c-3.24,5.94-10.47,9.28-17.17,8.96-2.81-.22-5.51-1.3-7.77-3.02,1.19.22,2.7.32,4.21,0,.65-.11,1.19-.32,1.73-.54-.65.11-2.91.22-5.07-1.3-1.51-1.08-2.27-2.38-2.59-3.02.22.22,1.3,1.19,2.91,1.08,1.4-.11,2.7-1.08,3.35-2.59-2.59.97-5.07,0-6.05-1.84-.86-1.73.11-3.56.22-3.78.11,1.73,1.19,2.81,1.94,2.81.32,0,.65-.32.97-.76.65.11,1.4-.22,1.73-.86.32-.65.22-1.51,0-2.16,2.48-1.62,3.89-4.32,3.56-6.8-.32-2.81-2.59-4.32-3.02-4.64.76.32,3.99,1.94,5.51,5.83,1.62,4.21,0,7.99-.32,8.53.76-.54,2.38-1.73,3.45-4.1,1.3-2.91.65-5.61.43-6.37.54.86,2.38,3.99,1.84,8.2-.43,2.81-1.84,4.86-2.48,5.72.86-.32,3.24-1.19,4.97-3.78,1.4-2.05,1.62-3.99,1.73-4.97.22,1.08.76,3.35-.11,6.15-.54,1.84-1.51,3.13-2.16,3.89,2.38-.54,3.99-1.62,4.86-2.48,3.35-3.13,4.53-8.42,3.35-14.47.22.32.32.76.54,1.08,2.05,4.43,1.84,10.9-.54,15.22Z"/></g></svg>