<?xml version="1.0" encoding="UTF-8"?><svg id="Layer_1" xmlns="http://www.w3.org/2000/svg" xmlns:xlink="http://www.w3.org/1999/xlink" viewBox="0 0 395 450"><defs><style>.cls-1,.cls-2{fill:none;}.cls-3{clip-path:url(#clippath);}.cls-4{fill:#f9efde;}.cls-5{fill:#ebdeca;}.cls-6{fill:#f5f6f7;}.cls-7{fill:#fff;}.cls-8{fill:#82321f;}.cls-9{fill:#692916;}.cls-10{fill:#6b84b5;}.cls-11{fill:#b3a178;}.cls-12{fill:#bfab9b;}.cls-13{fill:#cfd5e0;}.cls-14{fill:#dbd3b4;}.cls-15{fill:#a87171;}.cls-16{fill:#365185;}.cls-17{fill:#1a293f;}.cls-18{fill:#82724e;}.cls-19{fill:#28323a;}.cls-20{fill:#2c3559;}.cls-21{fill:#4f1b0c;}.cls-2{stroke:#fff;stroke-miterlimit:10;stroke-width:1.27px;}.cls-22{opacity:.35;}</style><clipPath id="clippath"><path class="cls-1" d="m373.18,320.28c-6.24-28.61-11.98-58.44-21.03-86.31-3.42-10.76-8.8-25.8-19.56-31.3-9.17-4.65-22.13-5.01-32.03-6.24-20.17-2.45-39.24-7.46-58.32-14.18-3.3,3.55-.49,9.78,2.32,15.16-14.18,2.69-33.74,7.95-42.91,6.97-18.58-2.08-32.28-8.07-45.97-7.7,2.57-5.26,5.01-11,1.83-14.43-19.07,6.72-38.27,11.61-58.32,14.18-9.9,1.22-22.98,1.71-32.03,6.24-10.76,5.5-16.14,20.54-19.56,31.3-9.05,28-14.79,57.7-21.03,86.31-4.28,19.44-5.62,35.09-2.45,54.77,2.93,17.97,14.43,57.58,17.85,63.94,7.09,13.33,20.78,26.04,24.33,20.78,4.16-6.11,15.89-13.45,22.25-8.44,1.1-.98,1.96-2.08,2.69-3.3,2.2,4.77,5.01,9.29,8.8,13.33,16.14,17.48,48.05,19.32,69.93,14.92,19.32-3.91,38.27-5.01,57.83-4.28,13.69.49,27.39.73,40.34-4.4,13.2-5.26,22.5-13.57,28.61-23.6,5.01,1.71,9.9,5.75,12.23,9.29,3.55,5.26,22.37-6.24,29.46-19.56,3.42-6.36,34.23-40.59,37.17-58.56,3.06-19.93,1.71-35.45-2.44-54.89Zm-282.17,51.35c-1.47,8.68-3.3,18.09-4.4,27.75-4.03-12.96-9.78-24.33-17.73-35.82,7.95,1.47,14.92-14.06,17.97-19.81,3.18-6.11,6.11-12.35,9.05-18.46,0,.98,0,1.96-.12,2.93-.73,14.55-2.32,29.1-4.77,43.4Zm214.32,8.8c-2.32-14.06-6.36-28-8.56-42.18-1.59-10.15-1.71-20.29-1.1-30.44,9.9,18.34,22.98,44.13,26.04,49.02-5.14,7.58-10.88,15.4-16.38,23.6Z"/></clipPath></defs><path class="cls-7" d="m54.23,628.92l2.36-13.21c2.28-13,4.19-21.71,5.83-26.63l.1-.29v-.05s.04-.06.04-.06c.12-.3.23-.58.32-.83.1-.26.19-.53.27-.8l.18-.54v-.25c.08-.46.12-.94.12-1.41v-.57l-.08-.56c-.06-.43-.16-1.29-.16-2.29v-.27c-.2-5.79,1.6-10.93,3.19-15.46,1.74-4.89,1.94-6.42,2.01-7l.06-.5v-2.14c0-3.41,0-8.57,3.28-13.46l1.9-2.82-.71-3.32c-.68-3.17-1.52-7.11-.77-11.88l2.17-13.17-.25-1.37c-.16-.85-.24-1.84-.24-2.85v-1.89l-.84-1.69c-3.74-7.48-7.61-15.63-10.57-24.5l-.1-.28c-.13-.35-.24-.7-.34-1.04-.04-.13-.08-.27-.12-.4v-4.13l-4.91-2.06c-13.39-5.61-24.09-24.48-25.26-26.61l-.02-.03c-4.6-8.63-16.26-50.09-18.93-67.34-3.14-19.57-2.39-36.65,2.59-59.02,1.11-5.05,2.21-10.2,3.31-15.34,4.8-22.53,10.25-48.06,18.01-72.08l.06-.19c3.65-11.2,9.77-29.93,25.14-37.67,2.58-1.29,5.14-2.3,7.61-2.99l4.44-1.24,1.15-4.46c.69-2.68,1.74-4.91,2.43-6.38l.27-.58c1.3-2.8,3.01-5.74,5.06-8.7l1.57-2.27-.2-3.31c-.23-3.88-.49-8.27.2-12.81.9-6.08,3.04-11.28,4.23-13.84l.08-.17c6.2-14.14,15.66-26.2,24.04-36.4l1.27-1.55.39-1.96c.73-3.64,1.77-7.06,3.2-10.46,2.11-5.06,5.23-10.37,9.29-15.78l.11-.15c1.68-2.35,3.57-4.67,5.77-7.09l1.04-1.14,2.97-7.97.09-.3c.1-.34.3-.94.72-1.89l.69-1.55v-1.01l.27-.83-.03-1.4c-.09-3.83.74-7.71,2.34-10.9,2.04-4.16,5.25-6.89,7.37-8.69l1.53-1.27c6.27-5.18,12.75-10.53,20.22-15.13,2.72-1.61,5.72-3.25,9.16-4.4,3.92-1.34,8.07-2.01,12.42-2.01,3.31,0,6.81.39,10.4,1.15,6.42,1.42,12.29,3.78,17.67,6.11l4.73,2.03c5.42,2.3,12.17,5.17,17.71,10.32,5.35,4.97,8.62,11.47,9.21,18.29l.09,1.01.33.95c.5,1.42.73,3.05.66,4.71l-.13,1.76v1.41c0,.62.06,1.15.12,1.54v2.49l2.03,2.28c2.47,2.77,4.9,5.76,7.85,9.7,3.17,4.35,6.74,9.63,9.3,15.75,1.35,3.38,2.42,6.88,3.27,10.69l.41,1.84,1.19,1.46c8.86,10.92,18.02,22.74,24.08,36.46,1.56,3.59,3.47,8.46,4.29,13.89.62,4.79.42,9.46.18,13.46l-.16,2.76,1.57,2.27c1.73,2.5,3.37,5.34,5.17,8.92.67,1.34,1.65,3.56,2.55,6.55l1.44,4.79,4.93.81c7.37,1.21,13.01,2.87,17.76,5.25,15.36,7.73,21.47,26.47,25.12,37.67l.07.2c7.68,23.88,13.16,49.48,18,72.06.56,2.62,1.12,5.2,1.68,7.79.54,2.49,1.08,4.98,1.62,7.5,4.89,22.35,5.64,39.46,2.61,59.08-2.34,14.48-16.26,33.42-31.55,53.18-2.36,3.11-5.23,6.81-6.15,7.96l-.44.55-.34.62c-5.97,10.93-18.63,21.82-29.43,25.32l-4.22,1.37-1.08,4.3s-.04.1-.07.21c-.1.29-.19.59-.28.87-.18.51-.34,1.02-.5,1.54-.11.35-.21.69-.34,1.04l-.1.28c-1.94,5.81-4.38,11.73-7.69,18.63l-1.22,2.55.65,2.75c.44,1.89.7,4.77-.63,7.77l-.15.35-.12.36c-.15.46-.34,1.04-.54,1.81l-.29,1.16.06,1.2c.13,2.44.23,4.63.23,6.79v.27s1.47,42.79,1.47,42.79l.02.87c.12,4.36.25,9.3-.64,14.34l-.12.69v.7c0,2.37.29,6.96.66,12.77.19,3.01.4,6.22.57,9.32.35,5.29.72,11.25,1.1,17.8l.5,11.53H54.23Z"/><path class="cls-21" d="m179.16,171.49c4.16-.12,8.56-.12,11.74-2.69,1.96-1.59,3.06-3.91,3.79-6.36,3.06-10.03-.24-20.66-1.59-30.93-2.32-16.63.12-34.23-5.87-49.88-4.16-11-12.1-20.17-19.81-28.97-1.22-1.47-2.57-2.93-4.16-3.91-.73,5.87-6.36,9.78-10.39,14.06-6.48,7.09-9.41,16.5-12.1,25.67-3.67,12.35-7.21,24.7-8.44,37.53-1.34,12.71-.24,26.04,5.13,37.65,3.18,6.85,7.7,13.2,10.39,20.29,6.48-10.03,20.29-12.35,31.3-12.47Z"/><path class="cls-21" d="m227.69,83.22c-2.69,8.68-5.26,17.48-7.7,26.29-1.71,6.24-3.55,12.59-4.4,19.07-1.71,12.71.24,25.8-2.93,38.14,7.58-3.42,13.69,28.49,22.01,28,2.45-.12,7.21-34.23,9.41-35.33,3.42-1.71,5.13-5.5,6.36-9.17,7.34-20.66,8.19-43.52,2.45-64.67-1.59-5.99-5.13-16.5-11.49-19.07-8.07-3.3-11.74,10.76-13.69,16.75Z"/><path class="cls-14" d="m224.63,133.47h0l-1.47,49.15-11.86,15.53-.61-.24-40.96-15.28s-.24-44.75,0-45.72l41.69-2.45h.24l12.96-.98Z"/><g class="cls-22"><polygon class="cls-12" points="224.63 133.59 223.17 182.62 211.31 198.14 210.82 197.9 192.24 172.84 170.72 147.41 211.55 134.32 211.68 134.32 224.63 133.59"/></g><path class="cls-4" d="m238.57,100.7c.12,1.83-.37,3.55-1.22,5.13l-5.13,20.05c0,6.72-2.69,13.2-7.46,17.73l-12.47,11.86c-1.59,1.47-3.55,2.32-5.62,2.32h-19.56c-1.71,0-3.42-.61-4.77-1.59l-11.74-8.68c-5.13-3.79-8.56-9.78-9.29-16.5l-8.44-21.88c-.98-1.59-1.59-3.42-1.59-5.38,0-3.06.12-7.7-.12-9.78-.24-2.81-.12-16.99,0-21.76,0-.98.24-2.08.49-2.93l5.62-16.38c.61-1.83,1.71-3.3,3.18-4.4l30.69-22.01c.86-.61,1.83-1.1,2.81-1.34,1.1-.24,2.32-.24,3.42,0l26.29,5.5c3.18.61,5.62,3.18,6.48,6.48l6.6,25.92c.12.61.24,1.34.24,2.08l1.59,35.58Z"/><path class="cls-14" d="m192.48,157.68h-5.38c-1.71,0-3.42-.61-4.77-1.59l-11.74-8.68c-5.13-3.79-8.56-9.78-9.29-16.5l-8.44-21.88c-.98-1.59-1.59-3.42-1.59-5.38,0-3.06.12-7.7-.12-9.78-.24-2.81-.12-16.99,0-21.76,0-.98.24-2.08.49-2.93l5.62-16.38c.61-1.83,1.71-3.3,3.18-4.4l30.69-22.01c.86-.61,1.83-1.1,2.81-1.34,0,8.31-4.16,13.33-3.42,25.06.12,1.34.24,5.75.37,12.71,0,.73-1.34.98-1.22,2.93.12,1.22,1.34,2.2,1.34,2.69,0,1.34,0,.24.12,1.71,0,.61-.86,1.22-.98,2.32-.24,1.83,1.1,2.2,1.1,2.81,0,5.99,0,12.35-.12,18.34-.24,9.78-.49,15.16.12,20.78.12,1.1-6.6-3.55-5.38,1.96.61,2.69,7.34,8.07,6.72,9.66-1.47,4.4,1.71,8.44,1.34,10.76-.37,2.32-2.08,4.89-2.45,7.7-.12,2.57-.61,7.7.98,13.2Z"/><path class="cls-15" d="m197.13,131.88l-2.81-2.57-1.1-1.1c-.12,0-1.83-.12-1.96,0s-5.62,3.42-5.99,3.3c-.37-.12-2.45-1.34-2.45-1.34l-1.83,3.67s4.28-1.96,4.65-1.96c.24.12,11.49,0,11.49,0Z"/><path class="cls-15" d="m192.73,131.88l2.93-2.57s1.1-1.1,1.22-1.1,1.96-.12,2.08,0c.12.12,5.99,2.45,6.48,2.32.49-.12,2.57-.24,2.57-.24l1.96,3.67s-4.52-1.96-4.89-1.96-12.35-.12-12.35-.12Z"/><path class="cls-6" d="m164,91.41s8.92-1.59,12.35-.49,5.38,3.18,6.24,3.67c.86.49,2.57,1.1,1.96,1.59s-2.45.73-3.55,1.22-10.15,1.83-14.55-1.1c-4.4-2.81-2.45-4.89-2.45-4.89Z"/><ellipse class="cls-19" cx="174.62" cy="94.83" rx="4.03" ry="3.55" transform="translate(-1.14 2.14) rotate(-.7)"/><path class="cls-17" d="m184.78,92.76c-.86-.73-1.83-1.47-2.93-2.2-.24-.12-.49-.37-.73-.49-.24-.12-.49-.24-.86-.37-.61-.24-1.1-.49-1.71-.61-.61-.24-1.22-.37-1.83-.49s-1.22-.24-1.83-.24c-1.22-.12-2.57-.24-3.79-.24-2.45,0-5.13.24-7.09,1.1-.49.24-.98.49-1.1.61-.24.24-.24.37-.24.49,0,.24.61.61,1.59.49h-.24c1.83-.37,3.55-.61,5.38-.73s3.67,0,5.5.24c1.83.37,3.55.98,5.01,1.96.73.49,1.34.98,2.08,1.47.61.49,1.34.86,2.2,1.22h0c.24.12.37.37.49.61.12.12.12.24.12.37s-.12.37-.24.49c-.49.37-1.1.37-1.47.49l-2.81.73c-1.83.49-3.79.73-5.87.73-1.96,0-3.91-.12-5.99-.49-1.96-.37-4.03-.86-5.87-2.08l2.08-1.83c.86,1.1,2.57,1.83,4.28,2.32s3.67.86,5.5.98c1.83.12,3.79,0,5.62-.37.98-.12,1.83-.37,2.81-.61.49-.12.98-.12,1.22-.37.24-.12,0-.49-.37-.61h0c-.73-.37-1.59-.73-2.32-1.22-.73-.49-1.34-.98-2.08-1.34-1.47-.73-3.06-1.1-4.77-1.22-1.59-.12-3.3.12-5.01.37-1.59.24-3.3.73-4.89,1.1h-.24c-.86.12-1.83,0-2.69-.24-.86-.37-1.83-1.1-2.08-2.08-.37-.98.12-2.08.86-2.69.37-.37.73-.61,1.1-.73.37-.24.73-.37,1.1-.49,1.47-.61,2.81-.86,4.28-.98,1.47-.12,2.81-.24,4.16-.12,1.34,0,2.81.24,4.16.49.73.12,1.34.24,2.08.49.61.24,1.34.37,1.96.73.61.24,1.22.61,1.83.86.24.12.61.37.86.49.24.24.61.37.86.61.98.86,1.83,1.71,2.69,2.69l-.73.73Z"/><path class="cls-6" d="m223.53,91.41s-8.92-1.59-12.35-.49-5.38,3.18-6.24,3.67c-.86.49-2.57,1.1-1.96,1.59s2.45.73,3.55,1.22,10.15,1.83,14.55-1.1c4.28-2.81,2.45-4.89,2.45-4.89Z"/><ellipse class="cls-19" cx="212.97" cy="94.76" rx="3.55" ry="4.03" transform="translate(115.62 306.57) rotate(-89.3)"/><path class="cls-17" d="m202.75,92.76c.86-.73,1.83-1.47,2.93-2.2.24-.12.49-.37.73-.49.24-.12.49-.24.86-.37.61-.24,1.1-.49,1.71-.61.61-.24,1.22-.37,1.83-.49s1.22-.24,1.83-.24c1.22-.12,2.57-.24,3.79-.24,2.45,0,5.13.24,7.09,1.1.49.24.98.49,1.1.61.24.24.24.37.24.49,0,.24-.61.61-1.59.49h.24c-1.83-.37-3.55-.61-5.38-.73s-3.67,0-5.5.24c-1.83.37-3.55.98-5.01,1.96-.73.49-1.34.98-2.08,1.47-.61.49-1.34.86-2.2,1.22h0c-.24.12-.37.37-.49.61-.12.12-.12.24-.12.37s.12.37.24.49c.49.37,1.1.37,1.47.49l2.81.73c1.83.49,3.79.73,5.87.73,1.96,0,3.91-.12,5.99-.49,1.96-.37,4.03-.86,5.87-2.08l-2.08-1.83c-.86,1.1-2.57,1.83-4.28,2.32s-3.67.86-5.5.98c-1.83.12-3.79,0-5.62-.37-.98-.12-1.83-.37-2.81-.61-.49-.12-.98-.12-1.22-.37-.24-.12,0-.49.37-.61h0c.73-.37,1.59-.73,2.32-1.22.73-.49,1.34-.98,2.08-1.34,1.47-.73,3.06-1.1,4.77-1.22,1.59-.12,3.3.12,5.01.37,1.59.24,3.3.73,4.89,1.1h.24c.86.12,1.83,0,2.69-.24.86-.37,1.83-1.1,2.08-2.08.37-.98-.12-2.08-.86-2.69-.37-.37-.73-.61-1.1-.73-.37-.24-.73-.37-1.1-.49-1.47-.61-2.81-.86-4.28-.98-1.47-.12-2.81-.24-4.16-.12-1.34,0-2.81.24-4.16.49-.73.12-1.34.24-2.08.49-.61.24-1.34.37-1.96.73-.61.24-1.22.61-1.83.86-.24.12-.61.37-.86.49-.24.24-.61.37-.86.61-.98.86-1.83,1.71-2.69,2.69l.73.73Z"/><path class="cls-17" d="m178.06,126.74c4.28-1.1,8.44-2.69,12.35-4.77.86-.49,2.08-.98,2.81-.24.24.24.49.73.61,1.1.37,1.1.61,2.2.86,3.42.12.49.12.98,0,1.59-.24,1.1-1.47,1.83-2.57,2.32-7.21,2.93-15.89,1.96-22.25-2.69-.61-.37-1.1-.86-1.34-1.59-.24-.61.12-1.59.86-1.59.49,0,.86.37.98.73,0,.37-.24.73-.49.98,1.83,2.2,5.87,1.34,8.19.73Z"/><path class="cls-17" d="m212.16,126.13c-4.28-1.1-8.44-2.69-12.35-4.77-.86-.49-2.08-.98-2.81-.24-.24.24-.49.73-.61,1.1-.37,1.1-.61,2.2-.86,3.42-.12.49-.12.98,0,1.59.24,1.1,1.47,1.83,2.57,2.32,7.21,2.93,15.89,1.96,22.25-2.69.61-.37,1.1-.86,1.34-1.59.24-.61-.12-1.59-.86-1.59-.49,0-.86.37-.98.73,0,.37.24.73.49.98-1.83,2.2-5.87,1.34-8.19.73Z"/><path class="cls-9" d="m85.75,193.37c-.86-3.91.49-7.95,2.2-11.49,1.59-3.18,3.42-6.24,5.5-9.05.73-1.1,1.59-2.08,1.96-3.3.37-1.1.37-2.32.24-3.55-.24-4.89-.86-9.78-.12-14.67.49-3.79,1.83-7.46,3.42-10.88,5.99-13.57,15.4-25.31,24.82-36.8,3.06-3.67,5.99-7.46,9.05-11.13,0,4.52,1.34,9.05,1.59,13.57.12,4.52-.86,8.92-1.47,13.45-.98,7.95-.73,16.02-1.47,23.96-.98,9.41-3.67,18.58-6.36,27.75-.86,2.93-1.71,5.87-3.3,8.56-1.71,2.69-4.16,4.89-6.6,6.85-3.67,2.81-7.82,5.38-11.98,7.34-1.83.86-3.67,1.59-5.26,2.69-1.22.86-2.69,3.18-3.79,3.55-4.03,1.1-7.7-3.79-8.44-6.85Z"/><path class="cls-4" d="m186.61,113.17c-.49.37-.61.98-.61,1.47,0,.61.24,1.1.49,1.59.61,1.34,1.59,2.57,2.69,3.55.73.61,1.47,1.22,2.32,1.71.73.49,1.47.98,2.32,1.22.98.24,1.96,0,2.93-.37.86-.37,1.71-.98,2.45-1.71.49-.37.98-.86,1.47-1.34.37-.49.86-.86,1.1-1.47.24-.49.12-1.1,0-1.71-.24-1.1-.86-2.08-1.71-2.57-1.34-.86-3.18-.37-4.77-.12-1.59.24-3.18.24-4.65-.12-.98,0-3.18-.73-4.03-.12Z"/><path class="cls-17" d="m191.87,87.26c0,.12.24,11.61.24,11.61l.24,5.13.37,10.39v1.59l-1.59-.37h0l-4.77-1.83.73-.37h0l-.73,2.32v-.49c.73,1.47,1.83,2.81,3.06,3.91,1.22,1.1,2.57,2.2,4.03,2.93.73.37,1.47.49,2.2.37s1.47-.49,2.08-.98c1.22-.98,2.2-2.45,3.55-3.67l.73.86c-1.22,1.1-2.2,2.57-3.55,3.79-.73.61-1.59,1.1-2.69,1.22-.98.12-1.96-.12-2.81-.49-1.71-.86-3.06-1.83-4.4-3.18-1.22-1.22-2.32-2.69-3.3-4.28l-.12-.24.12-.24.73-2.32h0l.12-.49.61.12,5.01.73h0l-1.59,1.22.24-10.39.12-5.13.12-11.25,1.22-.49Z"/><path class="cls-17" d="m204.83,142.03c.24-.12.49.37.37.61-.12.24-.49.24-.86.24-.86-.24-1.34-1.1-1.47-1.96-.12-.86.12-1.71,0-2.57,0-.86-.24-1.83-1.1-2.32-.49-.37-1.1-.37-1.71-.37-.49,0-2.57.37-4.4.37-2.69,0-5.38-.37-6.11-.37-.61,0-1.22,0-1.71.37-.73.49-.98,1.47-1.1,2.32,0,.86.12,1.71,0,2.57s-.61,1.83-1.47,1.96c-.24.12-.61,0-.86-.24-.12-.24,0-.73.37-.61-.61-.61-1.71,0-1.71.86s.61,1.47,1.22,1.96c1.34.73,2.93.73,4.28.12,1.22-.61,2.08-1.71,2.93-2.69.49-.49,1.22-.86,2.08-1.1.73-.24,1.47-.24,2.2,0s1.59.61,2.08,1.1c.98.98,1.83,2.08,2.93,2.69,1.34.73,3.06.61,4.28-.12.73-.37,1.34-1.1,1.22-1.96.24-.73-.86-1.34-1.47-.86Z"/><path class="cls-17" d="m238.57,78.21c.12-1.47-1.1-6.97-3.06-6.85,1.47,11.37,1.71,19.93.12,31.54-1.47,10.64-11.61,26.16-20.78,28-.98.24-1.59,1.1-1.34,2.08.37,1.59.49,3.18.37,4.89-.12,3.42-4.77,11.74-11.49,7.95-2.08-1.22-3.91-4.03-5.99-5.99,0-.24-2.81-.24-2.81,0-1.83,1.96-3.91,4.89-5.87,5.99-6.6,3.79-11.25-4.52-11.49-7.95-.12-1.59-.12-2.45,0-3.55s-.61-2.08-1.59-2.45c-9.17-2.69-17.6-18.71-20.17-29.1-2.93-11.61-1.47-21.52,0-32.89-1.71-.12-2.32,1.71-2.93,3.3-.49,1.22-.98,3.42-1.1,4.77-1.71,17.48-1.22,28.36,5.01,44.75.73,1.96,3.67,10.51,3.91,12.59.24,1.71.24,3.42.61,5.13.49,2.2,1.71,4.16,3.06,5.99,5.99,8.31,15.16,14.18,25.06,16.38,1.34.24,10.51.73,13.82,0,9.9-2.32,19.07-8.07,25.06-16.38,1.34-1.83,2.57-3.79,3.06-5.99.37-1.71.37-3.42.61-5.13.37-2.08,3.18-10.51,3.91-12.59,6.23-16.14,3.06-26.29,4.03-44.5Z"/><path class="cls-17" d="m185.15,78.21c-1.1-1.47-2.81-2.2-4.52-2.69-.98-.24-1.96-.37-2.93-.24-1.34.24-2.57.98-4.03,1.1-.73.12-1.47,0-2.2-.12-3.3-.49-6.97-.49-9.54,1.59-1.22,1.1-2.08,2.57-2.32,4.16v.37c.12.37.49.37.86.24.24-.12.49-.37.73-.61,1.34-1.59,3.3-2.57,5.38-2.57,2.32,0,4.4,1.22,6.6,1.59,1.83.37,3.79,0,5.62.24,1.59.24,3.18.73,4.52,1.59.37.24.61.37.98.49,2.45.61,1.59-4.16.86-5.13Z"/><path class="cls-17" d="m203.36,76.99c1.1-1.47,2.81-2.2,4.52-2.69.98-.24,1.96-.37,2.93-.24,1.34.24,2.57.98,4.03,1.1.73.12,1.47,0,2.2-.12,3.3-.49,6.97-.49,9.54,1.59,1.22,1.1,2.08,2.57,2.32,4.16v.37c-.12.37-.49.37-.86.24s-.49-.37-.73-.61c-1.34-1.59-3.3-2.57-5.38-2.57-2.32,0-4.4,1.22-6.6,1.59-1.83.37-3.79,0-5.62.24-1.59.24-3.18.73-4.52,1.59-.37.24-.61.37-.98.49-2.44.73-1.59-4.16-.86-5.13Z"/><path class="cls-9" d="m303,191.42c.86-3.91-.49-7.95-2.2-11.49-1.59-3.18-3.42-6.24-5.5-9.05-.73-1.1-1.59-2.08-1.96-3.3-.37-1.1-.37-2.32-.24-3.55.24-4.89.86-9.78.12-14.67-.49-3.79-1.83-7.46-3.42-10.88-5.99-13.57-15.4-25.31-24.82-36.8-3.06-3.67-5.99-7.46-9.05-11.13,0,4.52-1.34,9.05-1.59,13.57-.12,4.52.86,8.92,1.47,13.45.98,7.95.73,16.02,1.47,23.96.98,9.41,3.67,18.58,6.36,27.75.86,2.93,1.71,5.87,3.3,8.56,1.71,2.69,4.16,4.89,6.6,6.85,3.67,2.81,7.82,5.38,11.98,7.34,1.83.86,3.67,1.59,5.26,2.69,1.22.86,2.69,3.18,3.79,3.55,4.03.98,7.82-3.91,8.44-6.85Z"/><path class="cls-10" d="m197.37,192.4c.73,3.18.61,6.48,1.47,9.66-3.18.37-6.36,1.1-9.54,1.96-.49.12-.98.24-1.59.24-.61-.12-1.22-.49-1.71-.86-1.34-.98-2.57-2.08-3.18-3.55-.61-1.34-.61-2.81-.24-4.16.37-1.34.86-2.69,1.47-3.91.73-1.59,1.59-3.3,2.81-4.65.73-.86,1.47-1.47,2.2-2.32.86-.86,1.34-2.57,2.69-1.47.98.73,1.83,1.71,2.57,2.69,1.34,1.71,2.45,4.03,3.06,6.36Z"/><circle class="cls-16" cx="193.09" cy="199.61" r="2.57"/><circle class="cls-13" cx="193.09" cy="199.61" r="2.32"/><circle class="cls-16" cx="192.6" cy="199.24" r=".24"/><circle class="cls-16" cx="193.58" cy="199.24" r=".24"/><circle class="cls-16" cx="192.6" cy="200.1" r=".24"/><circle class="cls-16" cx="193.58" cy="200.1" r=".24"/><path class="cls-10" d="m294.57,617.6h-105.38c-1.1-15.53-1.96-28.61-2.81-30.32-1.71,10.76-3.3,20.66-4.89,30.32h-113.7c1.96-10.88,3.79-20.29,5.5-25.06.73-2.08,1.59-4.16,1.71-6.36.12-1.83-.24-3.67-.37-5.5-.24-7.21,4.65-14.67,5.13-22.01.24-3.55-.49-7.46,1.59-10.27.73-.98,1.59-1.59,2.2-2.57,1.1-1.71,1.1-3.79,1.22-5.75.24-4.77-2.2-9.17-1.47-13.94,1.22-7.46,2.45-14.79,3.79-22.25,2.57-15.4,6.72-35.45,9.78-50.86,9.9,1.83,18.58,6.97,28.61,6.24,6.24-.49,12.47-1.83,18.83-2.2,16.14-.86,32.15,5.26,48.29,3.79,10.88-.98,21.15-5.38,31.91-6.6,5.01-.61,10.15-.49,15.16-.86,14.79-1.1,29.22-6.6,41.08-15.53,2.32,10.51,2.08,20.29,4.4,30.81,1.71,8.19,3.55,16.26,4.52,24.57.98,8.19,1.34,16.5,1.59,24.7.49,14.3.98,28.49,1.47,42.67.12,4.65.37,9.29-.61,13.81-.37,2.69,1.1,21.64,2.45,43.16Z"/><path class="cls-10" d="m196.27,194.47c-1.47,4.16-1.47,7.82-4.28,11.49,3.67,1.71,7.82,1.96,11.86,1.83,5.13-.12,10.39-.61,15.28-2.57,4.89-1.83,9.29-5.13,11.61-9.78.98-1.96,1.59-4.16,1.22-6.24-.49-2.2-2.08-4.16-4.16-5.38-1.96-1.22-4.28-1.71-6.6-2.08-5.13-.86-16.14-1.34-19.32,2.2-3.55,4.28-4.28,6.97-5.62,10.51Z"/><path class="cls-4" d="m136.24,507.08c-.12.24-.24.49-.49.61-3.18,2.81-8.56,1.96-11.61-1.1-.86-.86-1.47-1.71-2.2-2.69-1.83-2.57-3.79-5.13-5.62-7.7-6.48,4.52-14.06,7.58-21.88,8.92-.61.12-1.34.24-1.96.37-1.83.24-3.91.37-5.38-.86-.86-.73-1.47-1.71-1.96-2.69-4.4-8.68-8.8-17.36-11.74-26.53-.98-2.93-1.83-5.99-2.93-8.92-1.34-3.42-3.18-6.48-5.01-9.66-1.71-2.93-.98-4.52.86-7.34.86-1.34,1.83-2.57,3.06-3.55,2.93-2.81,6.72-4.89,10.76-5.62.24,0,.61-.12.86,0,.61.12.98.61,1.22,1.1,2.2,3.55,4.52,7.21,6.72,10.88,1.59,2.57,3.18,5.13,5.13,7.21,1.96,2.08,4.16,3.79,6.72,5.13,2.93,1.59,6.24,2.45,9.05,4.28,6.24,4.03,8.92,11.74,13.45,17.73,2.08,2.69,4.65,5.13,6.6,7.82,1.1,1.34,1.96,2.93,2.81,4.4,1.22,2.32,2.32,4.77,3.42,7.21h0c0,.24.12.61.12.98Z"/><path class="cls-5" d="m94.43,505.25c-.61.12-1.34.24-1.96.37-1.83.24-3.91.37-5.38-.86-.86-.73-1.47-1.71-1.96-2.69-4.4-8.68-8.8-17.36-11.74-26.53-.98-2.93-1.83-5.99-2.93-8.92-1.34-3.42-3.18-6.48-5.01-9.66-1.71-2.93-.98-4.52.86-7.34.86-1.34,1.83-2.57,3.06-3.55,0,.24,0,.37-.12.49-.24,7.21,4.89,13.57,6.6,20.66,1.47,5.99.61,12.71,3.55,18.22.86,1.71,2.08,3.18,3.06,4.77,1.47,2.32,2.45,4.89,4.03,7.09,2.08,3.06,5.14,5.38,7.95,7.95Z"/><path class="cls-4" d="m238.69,502.32c.12.24.24.49.49.61,3.18,2.81,8.56,1.96,11.61-1.1.86-.86,1.47-1.71,2.2-2.69,1.83-2.57,3.79-5.13,5.62-7.7,6.48,4.52,14.06,7.58,21.88,8.92.61.12,1.34.24,1.96.37,1.83.24,3.91.37,5.38-.73.86-.73,1.47-1.71,1.96-2.69,4.4-8.68,8.8-17.36,11.74-26.53.98-2.93,1.83-5.99,2.93-8.92,1.34-3.42,3.18-6.48,5.01-9.66,1.71-2.93.98-4.52-.86-7.34-.86-1.34-1.83-2.57-3.06-3.55-2.93-2.81-6.72-4.89-10.76-5.62-.24,0-.61-.12-.86,0-.61.12-.98.61-1.22,1.1-2.2,3.55-4.52,7.21-6.72,10.76-1.59,2.57-3.18,5.13-5.13,7.21-1.96,2.08-4.16,3.79-6.72,5.13-2.93,1.59-6.24,2.45-9.05,4.28-6.24,4.03-8.92,11.74-13.45,17.73-2.08,2.69-4.65,5.13-6.6,7.82-1.1,1.34-1.96,2.93-2.81,4.4-1.22,2.32-2.32,4.77-3.42,7.21h0c-.12.37-.25.61-.12.98Z"/><path class="cls-18" d="m157.03,182.25c.49-.24,1.47-.98.49-.12-19.07,6.72-38.27,11.61-58.32,14.18-9.9,1.22-22.98,1.71-32.03,6.24-10.76,5.5-16.14,20.54-19.56,31.3-9.05,28-14.79,57.7-21.03,86.31-4.28,19.44-5.62,35.09-2.45,54.77,2.93,17.97,14.43,57.58,17.85,63.94,7.09,13.33,20.78,26.04,24.33,20.78,4.16-6.11,15.89-13.45,22.25-8.44,11.13-10.03,3.18-33.25,0-45.36-4.16-15.77-10.39-28.97-19.68-42.3,7.95,1.47,14.92-14.06,17.97-19.81,8.44-16.02,14.79-32.64,24.08-48.29,8.8-14.67,16.38-30.32,24.45-45.36,7.82-14.43,11.61-30.08,16.38-45.6,1.71-5.38,10.64-17.12,5.75-22.37"/><path class="cls-5" d="m280.38,500.48c.61.12,1.34.24,1.96.37,1.83.24,3.91.37,5.38-.73.86-.73,1.47-1.71,1.96-2.69,4.4-8.68,8.8-17.36,11.74-26.53.98-2.93,1.83-5.99,2.93-8.92,1.34-3.42,3.18-6.48,5.01-9.66,1.71-2.93.98-4.52-.86-7.34-.86-1.34-1.83-2.57-3.06-3.55,0,.24,0,.37.12.49.24,7.21-4.89,13.57-6.6,20.54-1.47,5.99-.61,12.71-3.55,18.22-.86,1.71-2.08,3.18-3.06,4.77-1.47,2.32-2.45,4.89-4.03,7.09-2.08,3.06-5.14,5.38-7.95,7.95Z"/><path class="cls-18" d="m242.61,182.25c-.49-.24-1.47-.98-.49-.12,19.07,6.72,38.27,11.61,58.32,14.18,9.9,1.22,22.98,1.71,32.03,6.24,10.76,5.5,16.14,20.54,19.56,31.3,9.05,28,14.79,57.7,21.03,86.31,4.28,19.44,5.62,35.09,2.45,54.77-2.93,17.97-33.74,52.2-37.17,58.56-7.09,13.33-25.92,24.82-29.46,19.56-4.16-6.11-15.89-13.45-22.25-8.44-11.13-10.03.12-33.99,6.36-44.75,8.68-15.28,19.44-29.59,28.73-43.03-3.91-6.24-23.6-45.72-33.01-61.37-8.8-14.67-16.38-30.32-24.45-45.36-7.82-14.43-11.61-30.08-16.38-45.6-1.71-5.38-10.64-17.12-5.75-22.37"/><path class="cls-18" d="m119.49,222.96c-13.57-1.71-18.46,25.31-20.66,34.23-2.81,11.61-1.96,25.06-2.57,36.92-.49,11.25-.12,22.74-.61,34.11-.61,14.55-2.2,29.1-4.65,43.4-5.01,28.61-12.96,66.02,9.05,89.74,16.14,17.48,48.05,19.32,69.93,14.92,19.32-3.91,38.27-5.01,57.83-4.28,13.69.49,27.39.73,40.34-4.4,34.23-13.81,41.93-47.44,38.14-80.57-1.83-16.38-6.97-32.4-9.41-48.78-2.69-17.6-1.22-35.33,1.22-52.94,2.32-16.99,5.75-33.86,2.2-50.98-2.57-12.23-8.8-21.03-18.34-28.85-7.95-6.6-15.77-10.03-26.16-9.78-11.98.24-42.18,9.78-54.16,8.44-31.18-3.55-48.66-17.97-75.31,4.65"/><g class="cls-3"><polygon class="cls-11" points="13.38 148.26 27.31 165.74 15.21 184.69 1.27 167.09 13.38 148.26"/><polygon class="cls-11" points="39.42 146.92 53.35 164.4 41.25 183.35 27.31 165.74 39.42 146.92"/><polygon class="cls-11" points="65.46 145.57 79.39 163.18 67.29 182 53.35 164.4 65.46 145.57"/><polygon class="cls-11" points="91.5 144.23 105.44 161.83 93.33 180.66 79.39 163.18 91.5 144.23"/><polygon class="cls-11" points="117.54 142.88 131.48 160.49 119.37 179.32 105.44 161.83 117.54 142.88"/><polygon class="cls-11" points="143.58 141.54 157.52 159.14 145.41 177.97 131.48 160.49 143.58 141.54"/><polygon class="cls-11" points="169.62 140.19 183.56 157.8 171.45 176.63 157.52 159.14 169.62 140.19"/><polygon class="cls-11" points="15.21 184.69 29.15 202.18 17.04 221.13 3.11 203.52 15.21 184.69"/><polygon class="cls-11" points="41.25 183.35 55.19 200.83 43.08 219.78 29.15 202.18 41.25 183.35"/><polygon class="cls-11" points="67.29 182 81.23 199.61 69.12 218.44 55.19 200.83 67.29 182"/><polygon class="cls-11" points="93.33 180.66 107.27 198.26 95.17 217.09 81.23 199.61 93.33 180.66"/><polygon class="cls-11" points="119.37 179.32 133.31 196.92 121.21 215.75 107.27 198.26 119.37 179.32"/><polygon class="cls-11" points="145.41 177.97 159.35 195.58 147.25 214.4 133.31 196.92 145.41 177.97"/><polygon class="cls-11" points="171.45 176.63 185.39 194.23 173.29 213.06 159.35 195.58 171.45 176.63"/><polygon class="cls-11" points="17.04 221.13 30.98 238.61 18.88 257.56 4.94 239.95 17.04 221.13"/><polygon class="cls-11" points="43.08 219.78 57.02 237.26 44.92 256.21 30.98 238.61 43.08 219.78"/><polygon class="cls-11" points="69.12 218.44 83.06 236.04 70.96 254.87 57.02 237.26 69.12 218.44"/><polygon class="cls-11" points="95.17 217.09 109.1 234.7 97 253.52 83.06 236.04 95.17 217.09"/><polygon class="cls-11" points="121.21 215.75 135.14 233.35 123.16 252.18 109.1 234.7 121.21 215.75"/><polygon class="cls-11" points="147.25 214.4 161.18 232.01 149.2 250.84 135.14 233.35 147.25 214.4"/><polygon class="cls-11" points="173.29 213.06 187.22 230.66 175.24 249.49 161.18 232.01 173.29 213.06"/><polygon class="cls-11" points="18.88 257.56 32.94 275.04 20.83 293.99 6.9 276.39 18.88 257.56"/><polygon class="cls-11" points="44.92 256.21 58.98 273.7 46.87 292.65 32.94 275.04 44.92 256.21"/><polygon class="cls-11" points="70.96 254.87 85.02 272.47 72.91 291.3 58.98 273.7 70.96 254.87"/><polygon class="cls-11" points="97 253.52 111.06 271.13 98.96 289.96 85.02 272.47 97 253.52"/><polygon class="cls-11" points="123.16 252.18 137.1 269.78 125 288.61 111.06 271.13 123.16 252.18"/><polygon class="cls-11" points="149.2 250.84 163.14 268.44 151.04 287.27 137.1 269.78 149.2 250.84"/><polygon class="cls-11" points="175.24 249.49 189.18 267.1 177.08 285.92 163.14 268.44 175.24 249.49"/><polygon class="cls-11" points="20.83 293.99 34.77 311.47 22.67 330.42 8.73 312.82 20.83 293.99"/><polygon class="cls-11" points="46.87 292.65 60.81 310.13 48.71 329.08 34.77 311.47 46.87 292.65"/><polygon class="cls-11" points="72.91 291.3 86.85 308.91 74.75 327.73 60.81 310.13 72.91 291.3"/><polygon class="cls-11" points="98.96 289.96 112.89 307.56 100.79 326.39 86.85 308.91 98.96 289.96"/><polygon class="cls-11" points="125 288.61 138.93 306.22 126.83 325.04 112.89 307.56 125 288.61"/><polygon class="cls-11" points="151.04 287.27 164.97 304.87 152.87 323.7 138.93 306.22 151.04 287.27"/><polygon class="cls-11" points="177.08 285.92 191.01 303.53 178.91 322.36 164.97 304.87 177.08 285.92"/><polygon class="cls-11" points="195.42 139.09 209.35 156.58 197.25 175.53 183.31 157.92 195.42 139.09"/><polygon class="cls-11" points="221.46 137.75 235.39 155.23 223.29 174.18 209.35 156.58 221.46 137.75"/><polygon class="cls-11" points="247.5 136.4 261.43 153.89 249.33 172.84 235.39 155.23 247.5 136.4"/><polygon class="cls-11" points="273.54 135.06 287.47 152.66 275.37 171.49 261.43 153.89 273.54 135.06"/><polygon class="cls-11" points="299.58 133.71 313.52 151.32 301.41 170.15 287.47 152.66 299.58 133.71"/><polygon class="cls-11" points="325.62 132.37 339.56 149.97 327.45 168.8 313.52 151.32 325.62 132.37"/><polygon class="cls-11" points="351.66 131.02 365.6 148.63 353.49 167.46 339.56 149.97 351.66 131.02"/><polygon class="cls-11" points="197.25 175.53 211.19 193.01 199.08 211.96 185.15 194.35 197.25 175.53"/><polygon class="cls-11" points="223.29 174.18 237.23 191.66 225.12 210.61 211.19 193.01 223.29 174.18"/><polygon class="cls-11" points="249.33 172.84 263.27 190.32 251.16 209.27 237.23 191.66 249.33 172.84"/><polygon class="cls-11" points="275.37 171.49 289.31 189.1 277.21 207.92 263.27 190.32 275.37 171.49"/><polygon class="cls-11" points="301.41 170.15 315.35 187.75 303.25 206.58 289.31 189.1 301.41 170.15"/><polygon class="cls-11" points="327.45 168.8 341.39 186.41 329.29 205.23 315.35 187.75 327.45 168.8"/><polygon class="cls-11" points="353.49 167.46 367.43 185.06 355.33 203.89 341.39 186.41 353.49 167.46"/><polygon class="cls-11" points="199.08 211.96 213.02 229.44 201.04 248.39 186.98 230.79 199.08 211.96"/><polygon class="cls-11" points="225.12 210.61 239.06 228.1 227.08 247.05 213.02 229.44 225.12 210.61"/><polygon class="cls-11" points="251.16 209.27 265.1 226.75 253.12 245.7 239.06 228.1 251.16 209.27"/><polygon class="cls-11" points="277.21 207.92 291.26 225.53 279.16 244.36 265.1 226.75 277.21 207.92"/><polygon class="cls-11" points="303.25 206.58 317.31 224.18 305.2 243.01 291.26 225.53 303.25 206.58"/><polygon class="cls-11" points="329.29 205.23 343.35 222.84 331.24 241.67 317.31 224.18 329.29 205.23"/><polygon class="cls-11" points="355.33 203.89 369.39 221.49 357.28 240.32 343.35 222.84 355.33 203.89"/><polygon class="cls-11" points="201.04 248.39 214.98 265.87 202.87 284.82 188.94 267.22 201.04 248.39"/><polygon class="cls-11" points="227.08 247.05 241.02 264.53 228.91 283.48 214.98 265.87 227.08 247.05"/><polygon class="cls-11" points="253.12 245.7 267.06 263.18 254.95 282.13 241.02 264.53 253.12 245.7"/><polygon class="cls-11" points="279.16 244.36 293.1 261.96 280.99 280.79 267.06 263.18 279.16 244.36"/><polygon class="cls-11" points="305.2 243.01 319.14 260.62 307.04 279.44 293.1 261.96 305.2 243.01"/><polygon class="cls-11" points="331.24 241.67 345.18 259.27 333.08 278.1 319.14 260.62 331.24 241.67"/><polygon class="cls-11" points="357.28 240.32 371.22 257.93 359.12 276.75 345.18 259.27 357.28 240.32"/><polygon class="cls-11" points="202.87 284.82 216.81 302.31 204.71 321.25 190.77 303.65 202.87 284.82"/><polygon class="cls-11" points="228.91 283.48 242.85 300.96 230.75 319.91 216.81 302.31 228.91 283.48"/><polygon class="cls-11" points="254.95 282.13 268.89 299.62 256.79 318.57 242.85 300.96 254.95 282.13"/><polygon class="cls-11" points="280.99 280.79 294.93 298.39 282.83 317.22 268.89 299.62 280.99 280.79"/><polygon class="cls-11" points="307.04 279.44 320.97 297.05 308.87 315.88 294.93 298.39 307.04 279.44"/><polygon class="cls-11" points="333.08 278.1 347.01 295.7 334.91 314.53 320.97 297.05 333.08 278.1"/><polygon class="cls-11" points="359.12 276.75 373.05 294.36 360.95 313.19 347.01 295.7 359.12 276.75"/><polygon class="cls-11" points="22.55 329.45 36.48 347.05 24.5 365.88 10.44 348.4 22.55 329.45"/><polygon class="cls-11" points="48.59 328.22 62.52 345.71 50.54 364.66 36.48 347.05 48.59 328.22"/><polygon class="cls-11" points="74.63 326.88 88.56 344.36 76.58 363.31 62.52 345.71 74.63 326.88"/><polygon class="cls-11" points="100.67 325.53 114.6 343.02 102.62 361.97 88.56 344.36 100.67 325.53"/><polygon class="cls-11" points="126.71 324.19 140.77 341.67 128.66 360.62 114.6 343.02 126.71 324.19"/><polygon class="cls-11" points="152.75 322.84 166.81 340.45 154.7 359.28 140.77 341.67 152.75 322.84"/><polygon class="cls-11" points="178.79 321.5 192.85 339.1 180.74 357.93 166.81 340.45 178.79 321.5"/><polygon class="cls-11" points="24.5 365.88 38.44 383.48 26.34 402.31 12.4 384.83 24.5 365.88"/><polygon class="cls-11" points="50.54 364.66 64.48 382.14 52.38 401.09 38.44 383.48 50.54 364.66"/><polygon class="cls-11" points="76.58 363.31 90.52 380.79 78.42 399.74 64.48 382.14 76.58 363.31"/><polygon class="cls-11" points="102.62 361.97 116.56 379.45 104.46 398.4 90.52 380.79 102.62 361.97"/><polygon class="cls-11" points="128.66 360.62 142.6 378.1 130.5 397.05 116.56 379.45 128.66 360.62"/><polygon class="cls-11" points="154.7 359.28 168.64 376.88 156.54 395.71 142.6 378.1 154.7 359.28"/><polygon class="cls-11" points="180.74 357.93 194.68 375.54 182.58 394.36 168.64 376.88 180.74 357.93"/><polygon class="cls-11" points="26.34 402.31 40.27 419.92 28.17 438.74 14.23 421.26 26.34 402.31"/><polygon class="cls-11" points="52.38 401.09 66.31 418.57 54.21 437.52 40.27 419.92 52.38 401.09"/><polygon class="cls-11" points="78.42 399.74 92.35 417.23 80.25 436.18 66.31 418.57 78.42 399.74"/><polygon class="cls-11" points="104.46 398.4 118.39 415.88 106.29 434.83 92.35 417.23 104.46 398.4"/><polygon class="cls-11" points="130.5 397.05 144.43 414.54 132.33 433.49 118.39 415.88 130.5 397.05"/><polygon class="cls-11" points="156.54 395.71 170.48 413.31 158.37 432.14 144.43 414.54 156.54 395.71"/><polygon class="cls-11" points="182.58 394.36 196.52 411.97 184.41 430.8 170.48 413.31 182.58 394.36"/><polygon class="cls-11" points="28.17 438.74 42.11 456.35 30 475.18 16.07 457.69 28.17 438.74"/><polygon class="cls-11" points="54.21 437.52 68.15 455 56.04 473.95 42.11 456.35 54.21 437.52"/><polygon class="cls-11" points="80.25 436.18 94.19 453.66 82.08 472.61 68.15 455 80.25 436.18"/><polygon class="cls-11" points="106.29 434.83 120.23 452.31 108.12 471.26 94.19 453.66 106.29 434.83"/><polygon class="cls-11" points="132.33 433.49 146.27 450.97 134.17 469.92 120.23 452.31 132.33 433.49"/><polygon class="cls-11" points="158.37 432.14 172.31 449.75 160.21 468.57 146.27 450.97 158.37 432.14"/><polygon class="cls-11" points="184.41 430.8 198.35 448.4 186.25 467.23 172.31 449.75 184.41 430.8"/><polygon class="cls-11" points="204.58 320.28 218.64 337.88 206.54 356.71 192.6 339.23 204.58 320.28"/><polygon class="cls-11" points="230.63 318.93 244.68 336.54 232.58 355.36 218.64 337.88 230.63 318.93"/><polygon class="cls-11" points="256.67 317.71 270.73 335.19 258.62 354.14 244.68 336.54 256.67 317.71"/><polygon class="cls-11" points="282.83 316.36 296.77 333.85 284.66 352.8 270.73 335.19 282.83 316.36"/><polygon class="cls-11" points="308.87 315.02 322.81 332.5 310.7 351.45 296.77 333.85 308.87 315.02"/><polygon class="cls-11" points="334.91 313.67 348.85 331.16 336.74 350.11 322.81 332.5 334.91 313.67"/><polygon class="cls-11" points="360.95 312.33 374.89 329.81 362.78 348.76 348.85 331.16 360.95 312.33"/><polygon class="cls-11" points="206.54 356.71 220.48 374.31 208.37 393.14 194.44 375.66 206.54 356.71"/><polygon class="cls-11" points="232.58 355.36 246.52 372.97 234.42 391.8 220.48 374.31 232.58 355.36"/><polygon class="cls-11" points="258.62 354.14 272.56 371.62 260.46 390.57 246.52 372.97 258.62 354.14"/><polygon class="cls-11" points="284.66 352.8 298.6 370.28 286.5 389.23 272.56 371.62 284.66 352.8"/><polygon class="cls-11" points="310.7 351.45 324.64 368.93 312.54 387.88 298.6 370.28 310.7 351.45"/><polygon class="cls-11" points="336.74 350.11 350.68 367.59 338.58 386.54 324.64 368.93 336.74 350.11"/><polygon class="cls-11" points="362.78 348.76 376.72 366.25 364.62 385.19 350.68 367.59 362.78 348.76"/><polygon class="cls-11" points="208.37 393.14 222.31 410.75 210.21 429.57 196.27 412.09 208.37 393.14"/><polygon class="cls-11" points="234.42 391.8 248.35 409.4 236.25 428.23 222.31 410.75 234.42 391.8"/><polygon class="cls-11" points="260.46 390.57 274.39 408.06 262.29 427.01 248.35 409.4 260.46 390.57"/><polygon class="cls-11" points="286.5 389.23 300.43 406.71 288.33 425.66 274.39 408.06 286.5 389.23"/><polygon class="cls-11" points="312.54 387.88 326.47 405.37 314.37 424.32 300.43 406.71 312.54 387.88"/><polygon class="cls-11" points="338.58 386.54 352.51 404.02 340.41 422.97 326.47 405.37 338.58 386.54"/><polygon class="cls-11" points="364.62 385.19 378.56 402.8 366.45 421.63 352.51 404.02 364.62 385.19"/><polygon class="cls-11" points="210.21 429.57 224.15 447.18 212.04 466.01 198.11 448.52 210.21 429.57"/><polygon class="cls-11" points="236.25 428.23 250.19 445.83 238.08 464.66 224.15 447.18 236.25 428.23"/><polygon class="cls-11" points="262.29 427.01 276.23 444.49 264.12 463.44 250.19 445.83 262.29 427.01"/><polygon class="cls-11" points="288.33 425.66 302.27 443.14 290.16 462.09 276.23 444.49 288.33 425.66"/><polygon class="cls-11" points="314.37 424.32 328.31 441.8 316.2 460.75 302.27 443.14 314.37 424.32"/><polygon class="cls-11" points="340.41 422.97 354.35 440.45 342.37 459.4 328.31 441.8 340.41 422.97"/><polygon class="cls-11" points="366.45 421.63 380.39 439.23 368.41 458.06 354.35 440.45 366.45 421.63"/></g><path class="cls-20" d="m181.6,197.04s13.33,4.4,22.13,3.91c8.8-.37,20.91-5.62,20.91-5.62l1.71,5.62s-6.6,6.97-23.47,7.21c-5.5.12-11-.61-16.38-2.08l-6.97-2.2,2.08-6.85Z"/><path class="cls-13" d="m184.78,180.9c-3.67-1.47-7.09-3.55-9.78-6.48-2.69-2.81-4.65-6.48-5.01-10.39,0-.24,0-.37-.12-.61-.24-.37-.98-.37-1.34.12-.37.37-.37.86-.49,1.34-.37,1.71-1.1,3.3-2.2,4.65-3.79,4.77-11.25,5.62-14.55,10.76-.49.73-.86,1.47-.98,2.32-.24,1.71.37,3.42,1.1,5.01,2.93,6.6,6.48,12.96,11.37,18.22,4.89,5.26,11.25,9.41,18.22,10.88-.86-.12.49-10.03.73-11,.61-3.67,1.71-7.21,3.06-10.64,1.47-3.42,3.18-6.6,5.26-9.66.98-1.34,2.08-2.2.61-3.06-1.34-.73-4.16-.73-5.87-1.47Z"/><path class="cls-13" d="m208.62,180.9c-2.45.61-5.13.98-6.6,3.06,2.69-1.96,6.24-2.45,9.41-1.47,3.18.98,5.75,3.55,6.85,6.6,1.1,3.06.73,6.48,1.34,9.66,1.22,6.11,6.36,11.37,12.59,12.59-.24-1.22.73-2.32,1.59-3.18,5.75-5.87,10.27-12.84,13.33-20.42-6.24-4.28-5.26-14.43-10.88-19.44-3.91-3.55-11.37-3.79-13.69,1.34-2.32,5.62-8.07,9.78-13.94,11.25Z"/><circle class="cls-16" cx="191.5" cy="191.91" r="2.57"/><circle class="cls-13" cx="191.5" cy="191.91" r="2.32"/><circle class="cls-16" cx="191.01" cy="191.54" r=".24"/><circle class="cls-16" cx="191.99" cy="191.54" r=".24"/><circle class="cls-16" cx="191.01" cy="192.4" r=".24"/><circle class="cls-16" cx="191.99" cy="192.4" r=".24"/><path class="cls-16" d="m201.04,193.74c-.49,0-1.1,0-1.59-.24h0c-.61-.24-.61-.61-.49-.98.12-.49.61-.86.98-.86.37-.12.86,0,1.34.24.86.37,1.83,1.47,1.96,1.59l.37.37h-2.08c-.37-.12-.49-.12-.49-.12Zm-1.47-.61c.49.24,1.1.24,1.71.24h1.1c-.37-.37-.98-.86-1.47-1.1-.37-.24-.73-.24-1.1-.24-.24.12-.61.24-.61.61,0,.12,0,.37.37.49h0Z"/><path class="cls-16" d="m200.18,200.34c-.24,0-.61,0-.86-.12h0c-.61-.24-.73-.61-.61-.86,0-.49.49-.86.86-.98s.86-.12,1.34.12c.86.24,2.08,1.22,2.08,1.34l.37.24-2.08.24c-.37-.12-.73,0-1.1,0Zm-.73-.49c.49.12,1.22.12,1.71,0l1.1-.12c-.37-.37-1.1-.73-1.59-.98-.49-.12-.86-.12-1.1-.12-.24.12-.61.37-.61.61.12.24.12.49.49.61h0Z"/><path class="cls-8" d="m135.88,76.38c-3.06,4.16-5.99,8.56-7.95,13.33-2.08,5.13-3.18,10.51-3.79,16.02-1.71,15.65.37,31.42,0,47.19-.12,3.79-.37,7.58-1.83,11-1.34,3.42-3.79,6.24-6.48,8.68-6.97,6.72-15.4,11.49-22.98,17.36-2.93,2.32-6.11,6.24-4.16,9.41.73,1.22,1.96,1.96,3.18,2.57,4.4,2.08,9.17,2.81,14.06,3.3,14.18,1.71,28.36,2.81,42.55,3.55,2.2.12,4.4.12,6.36-.86,2.93-1.47,4.16-4.89,4.77-8.07,3.67-18.22-5.01-36.19-8.92-54.28-2.57-12.35-2.93-25.18-6.48-37.29-.73-2.57-1.59-5.13-1.83-7.7-.24-2.69.24-5.5.86-8.19,1.96-9.66,5.13-18.95,9.41-27.87.61-1.22,2.57-5.26.49-6.11-1.71-.61-4.52,2.93-5.38,3.91-4.28,4.52-8.19,9.17-11.86,14.06Z"/><path class="cls-2" d="m149.57,62.56c-9.66,6.48-21.39,22.74-23.72,34.11-2.32,11.37-1.71,23.11-.98,34.72.37,6.72.73,13.33-.12,20.05-.86,6.72-2.93,13.2-7.09,18.46-7.34,9.29-19.81,13.08-27.26,22.25-1.83,2.2-3.3,5.62-1.22,7.7,2.2,2.32,5.75,3.3,8.92,3.67,9.9,1.47,19.93,2.93,29.83,4.52,5.99.86,11.98,1.83,17.97,1.96,3.3.12,6.97-.12,9.54-2.2,2.93-2.45,4.16-7.7,4.4-11.49.73-12.59-.73-17.6-4.77-29.59-1.47-4.28-4.89-18.71-4.65-23.23.98-19.07-9.29-34.11-7.34-49.64,1.1-8.68,4.77-22.62,6.48-31.3Z"/><path class="cls-8" d="m252.88,74.3c3.06,4.16,5.99,8.56,7.95,13.33,2.08,5.13,3.18,10.51,3.79,16.02,1.71,15.65-.37,31.42,0,47.19.12,3.79.37,7.58,1.83,11,1.34,3.42,3.79,6.24,6.48,8.68,6.97,6.72,15.4,11.49,22.98,17.36,2.93,2.32,6.11,6.24,4.16,9.41-.73,1.22-1.96,1.96-3.18,2.57-4.4,2.08-9.17,2.81-14.06,3.3-14.18,1.71-28.36,2.81-42.55,3.55-2.2.12-4.4.12-6.36-.86-2.93-1.47-4.16-4.89-4.77-8.07-3.67-18.22,5.01-36.19,8.92-54.28,2.57-12.35,2.93-25.18,6.48-37.29.73-2.57,1.59-5.13,1.83-7.7.24-2.69-.24-5.5-.86-8.19-2.08-9.66-5.13-18.95-9.41-27.87-.61-1.22-2.57-5.26-.49-6.11,1.71-.61,4.52,2.93,5.38,3.91,4.4,4.52,8.31,9.17,11.86,14.06Z"/><path class="cls-2" d="m239.18,60.6c9.66,6.48,21.39,22.74,23.72,34.11,2.32,11.37,1.71,23.11.98,34.72-.37,6.72-.73,13.33.12,20.05.86,6.6,2.93,13.2,7.09,18.46,7.34,9.29,19.81,13.08,27.26,22.25,1.83,2.2,3.3,5.62,1.22,7.7-2.2,2.32-5.75,3.3-8.92,3.67-9.9,1.47-19.93,2.93-29.83,4.52-5.99.86-11.98,1.83-17.97,1.96-3.3.12-6.97-.12-9.54-2.2-2.93-2.45-4.16-7.7-4.4-11.49-.73-12.59.73-17.6,4.77-29.59,1.47-4.28,4.89-18.71,4.65-23.23-.98-19.07,9.29-34.11,7.34-49.64-1.1-8.8-4.77-22.62-6.48-31.3Z"/><path class="cls-8" d="m142.97,68.55c-.98,2.57-1.83,5.38-1.47,8.07,0,.49.12.98.49,1.34.86.73,2.2-.24,2.93-1.1,6.36-7.58,13.2-12.59,21.64-17.73,3.67-2.2,7.58-4.28,11.74-5.13,3.06-.61,6.11-.73,9.29-.73,4.52,0,9.17-.12,13.69-.12,6.48-.12,13.33,0,18.58,3.67,2.81,1.96,5.01,4.89,7.7,7.09,2.81,2.32,6.11,3.91,9.17,5.99,3.06,2.08,5.87,4.77,6.72,8.31.98-3.79,1.96-7.82.73-11.49-.61-1.83-1.71-3.42-2.32-5.13-1.71-4.77-.12-10.76-3.3-14.67-1.83-2.32-5.01-3.3-7.46-4.89-4.03-2.57-6.72-6.72-10.88-9.17-3.55-2.08-7.7-2.69-11.86-3.18-7.21-.73-14.55-1.1-21.76-.12-7.21.98-14.3,3.42-20.05,7.7-3.18,2.32-5.87,5.26-8.8,7.82-2.2,1.96-4.4,2.2-6.48,4.28-1.96,1.96-3.42,6.24-4.4,8.8-1.59,3.91-2.45,6.36-3.91,10.39Z"/><path class="cls-7" d="m144.19,78.7c-.49.37-.98.37-1.59.24l-1.1-.37c-.73-.73-.61-1.96.37-2.57l4.52-3.06,22.37-16.87c4.16-3.18,9.29-4.89,14.55-4.89h22.62c5.75,0,11.13,1.83,15.77,5.13l22.98,19.56c.37.37.49.86.12,1.22l-.49.37-.61,1.1c-.37.49-.98.49-1.34.12l-23.47-19.93c-3.55-2.57-7.7-4.03-12.1-4.03h-22.62c-4.89,0-9.78,1.59-13.69,4.65l-26.29,19.32Z"/><path class="cls-8" d="m150.79,40.43c.98-2.08,2.81-3.67,4.65-5.13,6.48-5.38,13.08-10.88,20.29-15.28,2.2-1.34,4.52-2.57,6.97-3.42,5.26-1.83,11.13-1.71,16.63-.49s10.64,3.3,15.89,5.5c1.47.61,2.81,1.22,4.28,1.83,5.13,2.2,10.51,4.4,14.55,8.19,4.03,3.79,6.85,9.66,5.38,15.16-2.2-.61-4.03-2.08-5.87-3.55-5.01-3.91-10.27-7.21-15.89-10.15-2.08-1.1-4.16-1.96-6.48-2.32-2.08-.24-4.16,0-6.24-.24-2.69-.37-5.13-1.71-7.82-1.83-3.18-.12-6.11,1.22-9.29,1.59-2.81.24-5.62-.37-8.44,0-4.4.49-8.19,3.18-11.74,5.75-3.06,2.2-5.99,4.4-9.05,6.6-1.96,1.47-6.36,5.87-8.68,5.87-.61-2.45-.37-5.75.86-8.07Z"/><path class="cls-7" d="m149.08,51.19l.12-.98c.24-1.59,1.1-3.06,2.45-4.03l17.12-12.84c4.65-3.42,10.27-5.38,16.02-5.38h21.76c5.62,0,11.25,1.83,15.77,5.13l17.48,12.84c.61.49,1.1,1.34.98,2.08l-.24,1.22.12,1.83c0,.61-.61.98-1.1.61l-19.56-15.65c-3.91-2.93-8.68-4.4-13.45-4.4h-21.76c-4.89,0-9.78,1.59-13.69,4.65l-20.91,15.53c-.49.37-1.1,0-1.1-.61Z"/></svg>