<?xml version="1.0" encoding="UTF-8"?><svg id="Layer_1" xmlns="http://www.w3.org/2000/svg" xmlns:xlink="http://www.w3.org/1999/xlink" viewBox="0 0 395 450"><defs><style>.cls-1,.cls-2{fill:none;}.cls-3{clip-path:url(#clippath);}.cls-4{fill:#f9efde;}.cls-5{fill:#ebdeca;}.cls-6{fill:#f5f6f7;}.cls-7{fill:#fff;}.cls-8{fill:#7d7f9e;}.cls-9{fill:#6b84b5;}.cls-10{fill:#729fcc;}.cls-11{fill:#ccb48d;}.cls-12{fill:#cfd5e0;}.cls-13{fill:#d1e7fd;}.cls-14{fill:#d6c5a9;}.cls-15{fill:#221f10;}.cls-16{fill:#404040;}.cls-17{fill:#0a0a0a;}.cls-18{fill:#1a293f;}.cls-19{fill:#28323a;}.cls-20{fill:#595b85;}.cls-21{fill:#504e42;}.cls-2{stroke:#cfd5e0;stroke-miterlimit:10;stroke-width:.4px;}.cls-22{opacity:.35;}</style><clipPath id="clippath"><path class="cls-1" d="m372.41,341.58c-15.73-43.59-31.34-87.31-47.08-130.9-7.69-8.29-16.33-15.73-25.58-22.22-8.17-5.64-16.93-10.69-25.94-14.77-4.44-2.04-9.01-3.84-13.69-5.52-1.92-.72-5.4-2.28-8.65-3.36-1.08-.48-2.28-.96-3.6-1.32-31.94-9.97-28.82,6-37.35,8.65-7.69,2.4-3,7.21-11.05,7.45-8.65.24-5.64-32.18-53.56-15.49h0c-3.72.72-8.77,3.12-11.29,3.96-4.68,1.56-9.25,3.48-13.69,5.52-9.13,4.08-17.77,9.13-25.94,14.77-9.25,6.48-17.89,13.93-25.58,22.22-15.73,43.59-31.34,87.31-47.08,130.9-2.64,7.21-5.16,14.65-4.92,22.34.24,6.61,2.76,12.97,5.28,19.09,5.04,12.49,10.09,25.1,15.13,37.59,4.68,11.53,9.37,23.18,15.13,34.23,4.08,7.81,10.33,12.97,18.01,18.61.12-6.36,6.24-10.57,11.89-13.69,5.04-2.64,16.69-5.04,22.46-2.16-.36-15.49-1.32-27.74-3.24-39.03,1.8.72,3.84,1.44,5.88,1.92,21.38,5.52,37.47-.84,52.96.72,34.23,3.48,61.13,14.53,94.39,6,17.17-4.44,32.54-16.45,40.23-25.46-2.16,17.17-2.76,34.83-4.08,54.04,5.76-2.76,15.37,1.32,20.3,4.08,5.64,3,11.77,7.21,11.89,13.69,7.57-5.52,13.93-10.69,18.01-18.61,5.76-11.05,10.45-22.7,15.13-34.23,5.04-12.49,10.09-25.1,15.13-37.59,2.52-6.12,5.04-12.49,5.28-19.09.48-7.69-2.16-15.01-4.8-22.34Zm-62.81,9.01v-.36h.12s0,.12-.12.36Z"/></clipPath></defs><path class="cls-7" d="m58.02,589.43l2.65-14.81c2.41-13.53,4.29-22.06,5.92-26.85l.11-.33.04-.14c.13-.35.35-.94.53-1.66l.4-1.62-.24-1.65c-.03-.24-.04-.52-.06-.83-.03-.5-.06-1.03-.11-1.58-.17-7.72,1.38-15.66,4.72-24.27l.39-1.01.22-1.86.95-2.18.29-5.57-6.92-19.06-3.34-2.34c-7.59-5.54-16.14-12.32-21.66-22.84-6.09-11.71-11.09-23.89-15.59-35.31l-15.16-37.65c-2.6-6.39-5.82-14.31-6.24-23.26-.4-9.8,2.43-18.38,5.61-27.04l47.95-133.52,1.82-1.96c8.23-8.8,17.52-16.85,27.58-23.91,8.93-6.14,18.35-11.52,27.96-15.92,4.31-1.95,9.09-3.88,14.55-5.87.95-.28,1.9-.68,2.81-1.17,2.57-1.07,5.7-2.35,8.9-3.1l.38-.09,14.85-4.95-5.56-9.16c-1.98-3.26-3.7-6.55-5.12-9.8-.94-2.14-1.59-3.8-2.12-5.4l-.59-1.77-1.28-1.36c-2.42-2.59-4.14-5.94-5.23-10.23-.05-.24-.1-.46-.15-.69v-1.55l-1.08-1.94c-.53-.95-1.14-2.09-1.65-3.34-.88-2.49-1-4.83-1-6.8,0-3.71.47-7.45,1.44-11.43.28-1.13.51-1.93.8-2.57l1.25-2.75-.75-2.92c-1.72-6.69-2.47-17.29.59-27l.11-.36.08-.37c1.77-8.04,4.93-15.39,9.38-21.86,6.73-9.77,16.13-17.11,26.48-20.66,6.13-2.11,12.96-3.14,20.88-3.14h.12c11.25,0,21.12,2.08,29.32,6.18,3.77,1.88,7.04,4.09,9.99,6.75l.39.35.43.3c2.28,1.6,3.93,2.92,5.17,4.15,7.54,7.84,9.43,18.01,9.68,25.18l.03.9.22.88c.14.54.34,1.34.71,2.27,1.22,4.27,2.38,8.91,2.78,13.97.2,2.98.32,5.96.42,8.6l.13,3.29,1.18,1.91c1.03,1.66,1.78,3.56,2.3,5.83.98,4.02,1.46,7.91,1.46,11.65,0,2-.12,4.39-1.05,6.93-.57,1.51-1.02,2.3-1.24,2.63l-1.43,2.15v1.91c-.05.24-.1.47-.16.73-.6,2.44-1.55,4.73-2.8,6.79l-1.29,2.12.64,33.64,5.61,1.96c2.07.73,4.1,1.5,5.7,2.19l.33.14.34.11c.49.16.68.26.69.26l.45.22.55.2c5.07,1.77,10.01,3.74,14.67,5.84,10.04,4.61,19.45,9.97,27.92,15.9,10.16,7.05,19.42,15.08,27.57,23.9l1.83,1.97,47.93,133.46c2.7,7.45,6.05,16.7,5.63,27.15-.4,8.47-3.16,15.78-6.2,23.14l-15.41,38.27c-4.64,11.48-9.43,23.35-15.38,34.79-5.52,10.51-14.1,17.31-21.71,22.86l-8.68,6.35-.91,2.22c-2.44,5.93-5.29,11.6-8,16.9l-.81,1.6-.11,1.79c-.06,1.08-.34,2.29-.79,3.51l-.54,1.45v1.88s.03.95.03.95c.11,4.38.25,9.35-.63,14.61l-.12.7v.71c0,2.58.32,7.55.69,13.31.18,2.79.37,5.74.53,8.56.34,5.28.7,11.11,1.08,17.89l.79,13.55H58.02Z"/><path class="cls-9" d="m300.48,576.83h-105.68c-1.08-15.61-1.92-28.7-2.76-30.38-1.8,10.81-3.36,20.66-4.92,30.38h-113.97c1.92-10.81,3.84-20.42,5.4-25.1.72-2.04,1.56-4.2,1.68-6.36.12-1.8-.24-3.72-.36-5.52-.24-7.33,1.68-14.65,4.56-21.38,1.32-3.24,1.92-7.69,4.08-10.45.72-.96,1.56-6.85,1.68-8.89.24-4.8-2.28-9.25-1.44-13.93,1.2-7.45,2.52-14.89,3.72-22.34,2.64-15.49,6.73-35.55,9.73-51.04,9.97,1.8,18.61,6.97,28.7,6.24,6.36-.48,12.49-1.8,18.85-2.16,16.21-.84,32.3,5.28,48.52,3.84,10.93-.96,21.26-5.4,32.06-6.61,5.04-.6,10.09-.48,15.25-.84,14.77-1.2,29.3-6.61,41.19-15.49,2.28,10.57,2.16,20.42,4.44,30.86,1.8,8.17,3.48,16.33,4.56,24.62,1.08,8.17,1.32,16.45,1.56,24.74.48,14.29.96,28.58,1.56,42.87.12,4.68.36,9.37-.6,13.93-.6,2.4.84,21.38,2.16,42.99Z"/><path class="cls-12" d="m122.62,505.86c-4.8,4.08-10.45,8.17-16.69,9.37-6.24,1.32-12.61,1.44-18.97,1.68-.96,0-2.16-.24-2.04-1.2.72-1.56,1.08-3.36,1.2-5.04,8.77,2.52,18.73,1.08,26.42-3.72,1.8-1.08,3.48-2.4,5.16-3.72,4.08-3.12,8.05-8.17,10.09-12.85,2.16-5.04,4.2-10.21,5.04-15.61.72-4.32,1.92-9.37,2.76-13.57,1.56-8.05.36-15.85,1.08-24.02,1.92.24,3.96.24,5.88-.12.96,10.45-1.08,20.9-3.12,31.1-2.64,13.57-6,28.46-16.81,37.71Z"/><path class="cls-12" d="m264.21,501.54c4.56,4.08,9.97,8.17,15.85,9.37,5.88,1.2,12.01,1.44,18.13,1.68.84,0,2.04-.24,2.04-1.2-.6-1.56-.96-3.36-1.08-5.04-8.41,2.52-17.89,1.08-25.22-3.6-1.68-1.08-3.36-2.4-4.92-3.72-3.84-3.12-7.69-8.17-9.61-12.85-2.04-5.04-3.96-10.21-4.8-15.61-.6-4.32-1.8-9.37-2.52-13.57-1.56-8.05-.36-15.85-.96-24.02-1.8.24-3.72.24-5.64-.12-.96,10.45.96,20.9,2.88,31.1,2.4,13.45,5.52,28.34,15.85,37.59Z"/><path class="cls-12" d="m144.36,416.27c-.24.6-.12,1.2-.12,1.8.36,3,.72,6,.6,9.01-.12,3.96-.96,7.81-.72,11.77,0,1.68.24,3.48.6,5.16.12,1.2.36,2.4.48,3.6,0,.12,0,.36.12.48.12.24.36.36.6.36,1.92.84,4.08.72,6-.12-.84-1.32-.48-3-.24-4.56.48-3.36,0-6.73,0-9.97,0-3.48.6-6.85.48-10.33-.12-3.12-.12-6,.12-9.01-.84-.36-3.24-.12-4.68.12-1.08.24-2.76.36-3.24,1.68Z"/><path class="cls-12" d="m242.96,412.67c.24.6.12,1.2.12,1.8-.36,3-.72,6-.6,9.01.12,3.96.96,7.81.72,11.77,0,1.68-.24,3.48-.6,5.16-.12,1.2-.36,2.4-.48,3.6,0,.12,0,.36-.12.48-.12.24-.36.36-.6.36-1.92.84-4.08.72-6-.12.84-1.32.48-3,.24-4.56-.48-3.36,0-6.73,0-9.97,0-3.48-.6-6.85-.48-10.33.12-3.12.12-6-.12-9.01.84-.36,3.24-.12,4.68.12,1.08.24,2.76.36,3.24,1.68Z"/><path class="cls-2" d="m97.16,437.41c12.49,1.68,17.89,2.52,30.5,1.56,3.84-.24,7.69-.84,11.53-.84,2.52,0,5.16.12,7.69.24,5.88.36,12.01.12,18.01.12,8.89,0,17.77.36,26.66.24,18.37-.24,76.02-4.2,99.32-12.01"/><path class="cls-2" d="m211.61,438.73c-6.12,21.14-2.64,40.47-3.12,58.24-.12,4.44-.48,9.01-3.24,12.49-3.72,4.8-10.57,5.76-16.57,5.64.12,1.92-.48,3.72-.84,5.64,4.2-.12,8.41-.72,12.25-2.4,3.84-1.68,7.33-4.44,9.25-8.17,2.76-5.16,2.4-11.29,2.04-17.05-.36-6.12-.72-12.25-1.2-18.37-.24-3.12-.36-6.24-.12-9.37.24-2.88.84-5.76,1.08-8.65.36-3.48.12-7.09,1.08-10.57.72-2.52,2.04-5.04,1.92-7.69"/><path class="cls-1" d="m326.9,219.8c-1.92,4.92-3.72,9.85-5.64,14.77"/><path class="cls-11" d="m228.3,129.49l-1.56,36.51-16.81,63.89-40.83-63.89s-.24-32.42,0-33.39l43.47-2.28,15.73-.84Z"/><g class="cls-22"><polygon class="cls-14" points="228.3 129.49 226.86 166 210.17 180.41 192.52 166 170.06 142.46 212.69 130.33 228.3 129.49"/></g><path class="cls-14" d="m238.63,100.67c-.48,2.88-1.56,13.21-3.48,19.09-1.92,5.88-7.33,14.89-11.77,19.09,0,0-10.33,9.85-16.45,12.13-3.6,1.32-9.25,1.44-13.45,1.32-2.88-.12-3.36-2.4-3.36-2.4-1.56,0-2.88-3-4.2-3.96l-9.37-8.41c-4.8-3.6-7.33-5.76-8.05-12.01l-5.04-6.61c-.12-1.32,7.09-3.84,6.36-5.04l-8.41-10.45c-.96-1.44,3-10.21,2.88-12.13-.24-2.52-9.25-14.53-9.25-18.97,0-.96.12-1.92.48-2.76l5.16-15.25c.6-1.68,1.56-3.12,3-4.08l28.46-20.42c.84-.6,1.68-.96,2.64-1.2,1.08-.24,2.16-.24,3.24,0l24.38,5.04c2.88.6,5.28,3,6,6l6.12,24.14c.12.6.24,1.2.24,1.92.24,0,5.52,24.02,3.84,34.95Z"/><path class="cls-11" d="m193.6,152.31s-4.92-.72-7.69-1.68c-2.76-.96-13.45-7.93-12.97-7.45-4.8-3.6-10.21-9.61-14.89-20.06-5.64-12.73-6.97-29.06-7.21-30.98-.24-2.52,2.52-15.85,2.52-20.18,0-.96,1.92-1.32,2.28-2.16l5.16-15.25c.6-1.68,1.56-3.12,3-4.08l28.46-20.42c.84-.6,1.68-.96,2.64-1.2,0,7.69-3.96,12.49-3.24,23.3.12,1.2.24,5.4.36,11.77,0,.72-1.2.84-1.2,2.76,0,1.2,1.2,2.04,1.2,2.52,0,1.32,0,.24.12,1.56,0,.6-.84,1.08-.96,2.16-.24,1.68.96,2.04.96,2.64,0,5.52,0,11.53-.12,17.05-.24,9.01-.48,14.05.12,19.33.12.96-6.12-3.36-4.92,1.8.6,2.52,6.85,7.45,6.24,8.89-1.44,4.08,1.56,7.81,1.2,9.97s-1.92,4.56-2.28,7.09c.12,2.52-.36,7.45,1.2,12.61Z"/><path class="cls-18" d="m191.92,117.48l-3.96-3.48-6,2.4c-1.8.72-3.24,2.04-4.32,3.72l-1.8,3c-.48.84-1.2,1.56-2.04,2.04-1.32.84-2.76,1.68-3.84,1.44,1.68,2.16,3.84,2.64,5.4,2.4,2.52-.48,3-2.52,5.64-2.76,2.16-.24,4.32,2.04,8.05,2.52.24,0,.6.12.84.12.72.12,1.44.12,2.04.24.6,0,1.32.12,1.92.12h2.4c.84,0,1.68-.12,2.4-.24,1.2-.12,2.28-.36,3.12-.72.72-.24,1.32-.48,1.92-.72,2.28-1.08,3.36-2.16,4.44-1.8,1.44.36,2.4,2.04,3.96,3,2.16,1.2,4.92.48,6.97-.84-.84-.36-2.4-1.08-3.48-1.92-.6-.48-1.08-1.2-1.32-2.04l-1.2-3.12c-.48-1.44-1.92-2.52-3-3.36-2.4-1.92-5.64-2.76-7.69-3.24l-3.24,3.48c-1.8,1.2-5.16,1.08-7.21-.24Z"/><path class="cls-18" d="m208.25,77.73c4.56-3.24,11.05-8.17,16.09-4.8,2.4,1.68,4.68,3.72,6.12,6.12.72,1.32,1.8,3.24,1.8,3.48-.24,2.64-2.16,1.32-3.36-.24-2.64-3.36-5.76-5.76-8.53-4.92-3.96.96-15.73,8.29-17.29,9.01-1.68.72-3.24-1.68-3-2.28.48-1.08,6.61-5.16,8.17-6.36Z"/><path class="cls-18" d="m182.67,78.21c-4.8-2.88-11.65-7.33-16.45-3.72-2.28,1.8-4.44,3.96-5.64,6.61-.72,1.32-1.56,3.36-1.56,3.6.36,2.52,2.28,1.2,3.36-.48,2.4-3.6,5.28-6.12,8.05-5.52,3.96.6,16.33,7.21,17.89,7.81,1.68.6,3.12-1.92,2.88-2.52-.36-1.08-6.85-4.8-8.53-5.76Z"/><path class="cls-18" d="m192.88,92.38v2.64l.12,2.4.12,4.8.36,9.61v1.44l-1.44-.36h0l-4.44-1.8.72-.36h0l-.72,2.16v-.36c.72,1.32,1.68,2.52,2.76,3.6,1.08,1.08,2.4,2.04,3.72,2.64.72.36,1.32.48,2.04.36.72-.12,1.32-.36,1.92-.84,1.2-.96,2.04-2.28,3.36-3.48l.72.84c-1.08.96-2.04,2.4-3.36,3.48-.72.48-1.56.96-2.4,1.08-.96.12-1.8-.12-2.64-.48-1.56-.72-2.88-1.8-4.08-2.88-1.2-1.2-2.16-2.4-3-3.96l-.12-.24.12-.24.72-2.16h0l.12-.48.6.12,4.68.6h0l-1.44,1.08.24-9.61.12-4.8.12-4.68,1.08-.12Z"/><path class="cls-6" d="m224.34,88.06s-8.41-1.2-11.41-.12c-3.12.96-4.92,2.88-5.64,3.24-.72.48-2.16,1.44-1.68,1.92.48.48,1.8.24,2.88.72s9.37,2.04,13.45-.48c3.96-2.52,2.4-5.28,2.4-5.28Z"/><ellipse class="cls-19" cx="214.73" cy="91.18" rx="3.72" ry="3"/><path class="cls-18" d="m204.29,89.02c.72-.96,1.44-1.8,2.28-2.64.24-.24.48-.36.72-.6.24-.24.6-.36.84-.6.48-.36,1.08-.6,1.68-.96.6-.24,1.2-.48,1.8-.72s1.32-.36,1.92-.48c1.32-.24,2.64-.48,3.96-.48,1.32-.12,2.64,0,3.96.12s2.64.36,4.08.96c.6.24,1.32.6,1.92,1.32.6.6.96,1.56.72,2.52-.24.96-.96,1.68-1.8,2.04-.84.36-1.8.48-2.64.36h-.24c-1.44-.36-3-.72-4.56-.96-1.56-.24-3.12-.36-4.68-.24-1.56.12-3.12.6-4.32,1.32-.72.36-1.32.84-1.92,1.32s-1.32.84-2.04,1.2h0c-.24.24-.48.6-.36.72.12.12.6.24,1.08.36.84.12,1.8.36,2.64.6,1.68.36,3.48.48,5.28.36,1.68-.12,3.48-.6,5.04-1.08,1.56-.6,3.12-1.32,3.84-2.4l2.04,1.56c-1.68,1.2-3.6,1.8-5.4,2.16s-3.72.6-5.52.6c-1.92,0-3.72-.24-5.52-.6-.84-.24-1.8-.48-2.64-.6-.36-.12-.96-.12-1.44-.48-.24-.24-.24-.6-.12-.84.12-.24.24-.36.48-.6h0c.72-.36,1.32-.72,1.92-1.2s1.2-.96,1.8-1.44c1.32-.96,2.88-1.68,4.56-2.04,1.68-.36,3.48-.48,5.16-.36,1.68.12,3.36.24,5.04.72h-.24c.84.12,1.44-.24,1.44-.6.12-.36-.24-.72-1.2-1.2-1.8-.84-4.32-1.08-6.73-.96-1.2,0-2.4.12-3.48.24-.6.12-1.2.24-1.68.36-.6.12-1.08.36-1.68.48-.48.24-1.08.48-1.56.72-.24.12-.48.24-.72.36-.24.12-.48.24-.72.48-.96.6-1.8,1.44-2.64,2.16l-.36-.96Z"/><path class="cls-18" d="m205.37,93.95c1.08.48,1.92,1.2,2.88,1.8.96.6,1.8,1.2,2.88,1.44s2.16.24,3.24.12,2.16-.48,3.12-.96c.6-.24,1.2-.12,1.56.36.24.48.12,1.08-.48,1.32h-.12c-1.2.36-2.52.6-3.84.6s-2.64-.12-3.72-.6c-.6-.24-1.2-.48-1.68-.84-.48-.36-.84-.72-1.32-1.08-.72-.72-1.56-1.56-2.52-2.16Z"/><path class="cls-6" d="m166.94,89.38s8.29-1.2,11.41-.36,5.04,2.52,5.76,3c.72.36,2.28,1.32,1.8,1.8s-1.8.24-2.88.72c-.96.36-9.37,2.16-13.45-.24-3.96-2.4-2.64-4.92-2.64-4.92Z"/><ellipse class="cls-19" cx="176.63" cy="92.03" rx="3.72" ry="2.76" transform="translate(-.51 .98) rotate(-.32)"/><path class="cls-18" d="m186.27,90.22c-.84-.72-1.8-1.44-2.76-2.04-.24-.12-.48-.24-.72-.36-.24-.12-.48-.24-.72-.36-.48-.24-1.08-.48-1.56-.6-.48-.12-1.08-.36-1.68-.48s-1.08-.24-1.68-.24c-1.2-.12-2.28-.24-3.48-.12-2.28,0-4.8.24-6.61,1.08-.48.12-.84.48-1.08.6-.24.24-.24.36-.12.48,0,.24.6.6,1.44.48h-.24c1.68-.36,3.36-.6,5.04-.72s3.48,0,5.16.24c1.68.36,3.24.96,4.68,1.8.72.48,1.32.96,1.92,1.32.6.36,1.32.84,2.04,1.08h0c.24.12.36.36.48.48.12.12.12.24.12.36s-.12.36-.24.36c-.48.36-.96.36-1.44.48l-2.52.6c-1.68.48-3.6.72-5.4.72s-3.72-.12-5.52-.48-3.72-.72-5.52-1.92l1.92-1.68c.84.96,2.4,1.68,3.96,2.16s3.36.84,5.04.96c1.68.12,3.48,0,5.16-.36.84-.12,1.68-.36,2.64-.6.48-.12.96-.12,1.08-.24.24-.12,0-.36-.36-.6h0c-.72-.36-1.44-.72-2.16-1.08-.6-.48-1.32-.84-1.92-1.2-1.32-.72-2.88-1.08-4.44-1.08-1.56-.12-3.12.12-4.56.36-1.56.24-3.12.6-4.56,1.08h-.24c-.84.12-1.68,0-2.52-.24-.84-.36-1.68-.96-1.92-1.92-.24-.96.12-1.92.72-2.52.24-.36.72-.6.96-.72.36-.24.6-.36.96-.48,1.32-.6,2.64-.84,3.96-.96,1.32-.12,2.64-.24,3.84-.12,1.32,0,2.52.12,3.84.36.6.12,1.32.24,1.92.48.6.24,1.2.36,1.8.6s1.2.6,1.68.84c.24.12.48.24.84.48.24.24.48.36.72.6.96.72,1.8,1.56,2.52,2.52l-.48.6Z"/><path class="cls-18" d="m186.03,94.43c-.96.6-1.68,1.44-2.52,2.16-.36.36-.84.72-1.32,1.08-.48.36-1.08.6-1.68.84-1.2.48-2.4.6-3.72.6s-2.52-.12-3.72-.48c-.6-.12-.96-.72-.72-1.2.12-.48.84-.84,1.32-.6h.12c.96.36,2.04.72,3.12.84,1.08.12,2.16.12,3.24-.12s1.92-.72,2.88-1.44c1.08-.48,2.04-1.2,3-1.68Z"/><path class="cls-4" d="m145.8,513.43c-.12.24-.24.48-.48.72-3.36,2.88-9.01,2.04-12.13-1.08-.84-.84-1.56-1.8-2.28-2.76-1.92-2.64-3.96-5.4-5.88-8.05-6.85,4.68-14.77,7.93-22.94,9.37-.72.12-1.44.24-2.04.36-1.92.24-4.08.36-5.64-.84-.96-.72-1.44-1.8-2.04-2.88-4.56-9.13-9.13-18.13-12.25-27.86-.96-3.12-1.92-6.36-3.12-9.37-1.44-3.48-3.24-6.85-5.16-10.09-1.8-3.12-.96-4.68.96-7.69.96-1.32,1.92-2.64,3.12-3.72,3.12-3,6.97-5.04,11.29-5.88.24,0,.6-.12.84,0,.6.12.96.72,1.32,1.2,2.4,3.72,4.68,7.57,7.09,11.29,1.68,2.64,3.36,5.28,5.4,7.57,2.04,2.16,4.44,3.96,6.97,5.4,3.12,1.56,6.61,2.52,9.49,4.44,6.61,4.32,9.37,12.37,14.05,18.49,2.16,2.88,4.8,5.28,6.97,8.17,1.08,1.44,2.04,3,2.88,4.56,1.32,2.4,2.4,4.92,3.48,7.57h0c0,.36.12.72.12,1.08Z"/><path class="cls-5" d="m101.97,511.5c-.72.12-1.44.24-2.04.36-1.92.24-4.08.36-5.64-.84-.96-.72-1.44-1.8-2.04-2.88-4.56-9.13-9.13-18.13-12.25-27.86-.96-3.12-1.92-6.36-3.12-9.37-1.44-3.48-3.24-6.85-5.16-10.09-1.8-3.12-.96-4.68.96-7.69.96-1.32,1.92-2.64,3.12-3.72,0,.24-.12.36-.12.6-.36,7.57,5.04,14.17,6.97,21.62,1.56,6.36.6,13.33,3.72,19.09.96,1.8,2.16,3.24,3.24,4.92,1.56,2.4,2.64,5.04,4.2,7.45,2.04,3.24,5.28,5.76,8.17,8.41Z"/><path class="cls-4" d="m247.76,510.78c.12.24.24.48.48.72,3.36,2.88,9.01,2.04,12.13-1.08.84-.84,1.56-1.8,2.28-2.76,1.92-2.64,3.96-5.4,5.88-8.05,6.85,4.68,14.77,7.93,22.94,9.37.72.12,1.44.24,2.04.36,1.92.24,4.08.36,5.64-.84.96-.72,1.56-1.8,2.04-2.88,4.56-9.01,9.13-18.13,12.25-27.86.96-3.12,1.92-6.36,3.12-9.37,1.44-3.48,3.24-6.85,5.16-10.09,1.8-3.12.96-4.68-.96-7.69-.96-1.32-1.92-2.64-3.12-3.72-3.12-3-6.97-5.04-11.29-5.88-.24,0-.6-.12-.84,0-.6.12-.96.72-1.32,1.2-2.4,3.72-4.68,7.57-7.09,11.29-1.68,2.64-3.36,5.28-5.4,7.57-2.04,2.16-4.44,3.96-6.97,5.4-3.12,1.56-6.61,2.52-9.49,4.44-6.61,4.32-9.37,12.37-14.05,18.49-2.16,2.88-4.8,5.28-6.97,8.17-1.08,1.44-2.04,3-2.88,4.56-1.32,2.4-2.4,4.92-3.48,7.57h0c0,.48-.12.84-.12,1.08Z"/><path class="cls-5" d="m291.47,508.98c.72.12,1.44.24,2.04.36,1.92.24,4.08.36,5.64-.84.96-.72,1.56-1.8,2.04-2.88,4.56-9.01,9.13-18.13,12.25-27.86.96-3.12,1.92-6.36,3.12-9.37,1.44-3.48,3.24-6.85,5.16-10.09,1.8-3.12.96-4.68-.96-7.69-.96-1.32-1.92-2.64-3.12-3.72,0,.24,0,.36.12.6.36,7.57-5.04,14.17-6.97,21.62-1.56,6.36-.6,13.33-3.72,19.09-.96,1.8-2.16,3.24-3.24,4.92-1.56,2.4-2.64,5.04-4.2,7.45-2.04,3.24-5.16,5.64-8.17,8.41Z"/><path class="cls-8" d="m69.3,210.68c-15.73,43.59-31.34,87.31-47.08,130.9-2.64,7.21-5.16,14.65-4.92,22.34.24,6.61,2.76,12.97,5.28,19.09,5.04,12.49,10.09,25.1,15.13,37.59,4.68,11.53,9.37,23.18,15.13,34.23,4.08,7.81,10.33,12.97,18.01,18.61.12-6.36,6.24-10.57,11.89-13.69,5.04-2.64,16.69-5.04,22.46-2.16-.96-41.79-6.48-60.89-22.7-95.95,5.04-7.33,21.26-44.67,24.02-46.48,26.66-16.69,22.94-5.88,32.66-35.79,5.4-16.81,7.45-34.47,9.13-52.12,1.08-11.53,1.92-23.18,2.52-34.71.24-5.28,4.44-26.54-2.04-28.46-3.36-.96-10.93,2.88-14.17,4.08-4.68,1.56-9.25,3.48-13.69,5.52-9.13,4.08-17.77,9.13-25.94,14.77-9.25,6.48-17.89,13.93-25.7,22.22Z"/><path class="cls-8" d="m325.34,210.68c15.73,43.59,31.34,87.31,47.08,130.9,2.64,7.21,5.16,14.65,4.92,22.34-.24,6.61-2.76,12.97-5.28,19.09-5.04,12.49-10.09,25.1-15.13,37.59-4.68,11.53-9.37,23.18-15.13,34.23-4.08,7.81-10.33,12.97-18.01,18.61-.12-6.36-6.24-10.57-11.89-13.69-5.04-2.64-14.53-6.85-20.3-4.08,2.76-38.55,2.04-70.61,18.25-105.68-2.76,1.8-44.67-40.71-54.4-70.61-5.4-16.81-7.45-34.47-9.13-52.12-1.08-11.53-1.92-23.18-2.52-34.71-.24-5.28-4.44-26.54,2.04-28.46,3.36-.96,10.93,2.88,14.17,4.08,4.68,1.56,9.25,3.48,13.69,5.52,9.13,4.08,17.77,9.13,25.94,14.77,9.37,6.48,18.01,13.93,25.7,22.22Z"/><path class="cls-8" d="m86.96,301.94c-.96,30.62-12.25,81.66,3.96,107.6,3.96,6.24,9.97,9.25,17.05,11.05,21.38,5.52,37.47-.84,52.96.72,34.23,3.48,61.13,14.53,94.39,6,22.94-5.88,42.75-25.22,45.15-33.27,6.73-21.74,12.49-52.84,9.37-75.3-3.12-22.46-18.49-45.63-18.85-68.33-.36-22.7-16.57-34.47-2.4-52.24-22.58-10.33-17.05-27.26-40.71-34.71-31.94-9.97-28.82,6-37.35,8.65-7.69,2.4-3,7.21-11.05,7.45-8.65.24-5.64-32.18-53.56-15.49-16.57,5.76-5.04,19.21-15.13,25.94-8.41,5.64-17.89,9.61-27.5,12.73-6.73,2.16-18.37,2.88-22.58,9.37-4.32,6.61,1.56,16.57,3.12,23.3,2.28,10.33,3.24,20.9,3.6,31.34.24,11.89-.12,23.54-.48,35.19Z"/><g class="cls-3"><polygon class="cls-20" points="3.25 142.82 17.9 161.32 5.17 181.13 -9.48 162.64 3.25 142.82"/><polygon class="cls-20" points="30.63 141.38 45.4 159.88 32.67 179.69 17.9 161.32 30.63 141.38"/><polygon class="cls-20" points="58.13 139.94 72.79 158.44 60.06 178.37 45.4 159.88 58.13 139.94"/><polygon class="cls-20" points="85.52 138.62 100.29 156.99 87.56 176.93 72.79 158.44 85.52 138.62"/><polygon class="cls-20" points="113.02 137.18 127.67 155.67 114.94 175.49 100.29 156.99 113.02 137.18"/><polygon class="cls-20" points="140.4 135.74 155.17 154.23 142.44 174.17 127.67 155.67 140.4 135.74"/><polygon class="cls-20" points="167.9 134.3 182.55 152.79 169.82 172.73 155.17 154.23 167.9 134.3"/><polygon class="cls-20" points="5.17 181.13 19.95 199.63 7.22 219.56 -7.56 201.07 5.17 181.13"/><polygon class="cls-20" points="32.67 179.69 47.33 198.19 34.6 218.12 19.95 199.63 32.67 179.69"/><polygon class="cls-20" points="60.06 178.37 74.83 196.86 62.1 216.68 47.33 198.19 60.06 178.37"/><polygon class="cls-20" points="87.56 176.93 102.21 195.42 89.48 215.36 74.83 196.86 87.56 176.93"/><polygon class="cls-20" points="114.94 175.49 129.71 193.98 116.86 213.92 102.21 195.42 114.94 175.49"/><polygon class="cls-20" points="142.44 174.17 157.09 192.66 144.36 212.48 129.71 193.98 142.44 174.17"/><polygon class="cls-20" points="169.82 172.73 184.47 191.22 171.74 211.16 157.09 192.66 169.82 172.73"/><polygon class="cls-20" points="7.22 219.56 21.87 238.06 9.14 257.87 -5.63 239.38 7.22 219.56"/><polygon class="cls-20" points="34.6 218.12 49.25 236.61 36.52 256.55 21.87 238.06 34.6 218.12"/><polygon class="cls-20" points="62.1 216.68 76.75 235.17 64.02 255.11 49.25 236.61 62.1 216.68"/><polygon class="cls-20" points="89.48 215.36 104.13 233.85 91.4 253.67 76.75 235.17 89.48 215.36"/><polygon class="cls-20" points="116.86 213.92 131.63 232.41 118.9 252.35 104.13 233.85 116.86 213.92"/><polygon class="cls-20" points="144.36 212.48 159.01 230.97 146.28 250.91 131.63 232.41 144.36 212.48"/><polygon class="cls-20" points="171.74 211.16 186.51 229.65 173.78 249.46 159.01 230.97 171.74 211.16"/><polygon class="cls-20" points="9.14 257.87 23.79 276.37 11.06 296.3 -3.59 277.81 9.14 257.87"/><polygon class="cls-20" points="36.52 256.55 51.29 275.04 38.56 294.86 23.79 276.37 36.52 256.55"/><polygon class="cls-20" points="64.02 255.11 78.67 273.6 65.94 293.54 51.29 275.04 64.02 255.11"/><polygon class="cls-20" points="91.4 253.67 106.17 272.16 93.44 292.1 78.67 273.6 91.4 253.67"/><polygon class="cls-20" points="118.9 252.35 133.55 270.84 120.82 290.66 106.17 272.16 118.9 252.35"/><polygon class="cls-20" points="146.28 250.91 161.05 269.4 148.32 289.34 133.55 270.84 146.28 250.91"/><polygon class="cls-20" points="173.78 249.46 188.43 267.96 175.7 287.89 161.05 269.4 173.78 249.46"/><polygon class="cls-20" points="11.06 296.3 25.83 314.79 13.1 334.73 -1.67 316.24 11.06 296.3"/><polygon class="cls-20" points="38.56 294.86 53.21 313.35 40.48 333.29 25.83 314.79 38.56 294.86"/><polygon class="cls-20" points="65.94 293.54 80.71 312.03 67.98 331.85 53.21 313.35 65.94 293.54"/><polygon class="cls-20" points="93.44 292.1 108.09 310.59 95.36 330.53 80.71 312.03 93.44 292.1"/><polygon class="cls-20" points="120.82 290.66 135.59 309.15 122.74 329.09 108.09 310.59 120.82 290.66"/><polygon class="cls-20" points="148.32 289.34 162.97 307.83 150.24 327.64 135.59 309.15 148.32 289.34"/><polygon class="cls-20" points="175.7 287.89 190.36 306.39 177.63 326.32 162.97 307.83 175.7 287.89"/><polygon class="cls-20" points="195.04 133.1 209.69 151.59 196.96 171.53 182.31 153.03 195.04 133.1"/><polygon class="cls-20" points="222.42 131.65 237.19 150.15 224.46 170.08 209.69 151.59 222.42 131.65"/><polygon class="cls-20" points="249.92 130.33 264.57 148.83 251.84 168.64 237.19 150.15 249.92 130.33"/><polygon class="cls-20" points="277.3 128.89 292.07 147.39 279.34 167.32 264.57 148.83 277.3 128.89"/><polygon class="cls-20" points="304.8 127.45 319.45 145.95 306.72 165.88 292.07 147.39 304.8 127.45"/><polygon class="cls-20" points="332.18 126.13 346.95 144.62 334.23 164.44 319.45 145.95 332.18 126.13"/><polygon class="cls-20" points="359.68 124.69 374.34 143.18 361.61 163.12 346.95 144.62 359.68 124.69"/><polygon class="cls-20" points="196.96 171.53 211.73 190.02 199 209.83 184.23 191.34 196.96 171.53"/><polygon class="cls-20" points="224.46 170.08 239.11 188.58 226.38 208.51 211.73 190.02 224.46 170.08"/><polygon class="cls-20" points="251.84 168.64 266.61 187.14 253.88 207.07 239.11 188.58 251.84 168.64"/><polygon class="cls-20" points="279.34 167.32 293.99 185.82 281.26 205.63 266.61 187.14 279.34 167.32"/><polygon class="cls-20" points="306.72 165.88 321.5 184.38 308.77 204.19 293.99 185.82 306.72 165.88"/><polygon class="cls-20" points="334.23 164.44 348.88 182.93 336.15 202.87 321.5 184.38 334.23 164.44"/><polygon class="cls-20" points="361.61 163.12 376.38 181.49 363.65 201.43 348.88 182.93 361.61 163.12"/><polygon class="cls-20" points="199 209.83 213.65 228.33 200.92 248.26 186.27 229.77 199 209.83"/><polygon class="cls-20" points="226.38 208.51 241.15 226.89 228.42 246.82 213.65 228.33 226.38 208.51"/><polygon class="cls-20" points="253.88 207.07 268.54 225.57 255.81 245.38 241.15 226.89 253.88 207.07"/><polygon class="cls-20" points="281.26 205.63 296.04 224.13 283.19 244.06 268.54 225.57 281.26 205.63"/><polygon class="cls-20" points="308.77 204.19 323.42 222.68 310.69 242.62 296.04 224.13 308.77 204.19"/><polygon class="cls-20" points="336.15 202.87 350.8 221.36 338.07 241.18 323.42 222.68 336.15 202.87"/><polygon class="cls-20" points="363.65 201.43 378.3 219.92 365.57 239.86 350.8 221.36 363.65 201.43"/><polygon class="cls-20" points="200.92 248.26 215.57 266.76 202.84 286.57 188.19 268.08 200.92 248.26"/><polygon class="cls-20" points="228.42 246.82 243.08 265.32 230.35 285.25 215.57 266.76 228.42 246.82"/><polygon class="cls-20" points="255.81 245.38 270.46 263.88 257.73 283.81 243.08 265.32 255.81 245.38"/><polygon class="cls-20" points="283.19 244.06 297.96 262.55 285.23 282.37 270.46 263.88 283.19 244.06"/><polygon class="cls-20" points="310.69 242.62 325.34 261.11 312.61 281.05 297.96 262.55 310.69 242.62"/><polygon class="cls-20" points="338.07 241.18 352.84 259.67 340.11 279.61 325.34 261.11 338.07 241.18"/><polygon class="cls-20" points="365.57 239.86 380.22 258.35 367.49 278.17 352.84 259.67 365.57 239.86"/><polygon class="cls-20" points="202.84 286.57 217.62 305.07 204.89 325 190.12 306.51 202.84 286.57"/><polygon class="cls-20" points="230.35 285.25 245 303.75 232.27 323.56 217.62 305.07 230.35 285.25"/><polygon class="cls-20" points="257.73 283.81 272.5 302.31 259.77 322.24 245 303.75 257.73 283.81"/><polygon class="cls-20" points="285.23 282.37 299.88 300.86 287.15 320.8 272.5 302.31 285.23 282.37"/><polygon class="cls-20" points="312.61 281.05 327.38 299.54 314.65 319.36 299.88 300.86 312.61 281.05"/><polygon class="cls-20" points="340.11 279.61 354.76 298.1 342.03 318.04 327.38 299.54 340.11 279.61"/><polygon class="cls-20" points="367.49 278.17 382.26 296.66 369.53 316.6 354.76 298.1 367.49 278.17"/><polygon class="cls-20" points="12.98 333.77 27.63 352.26 14.9 372.08 .25 353.58 12.98 333.77"/><polygon class="cls-20" points="40.36 332.33 55.13 350.82 42.4 370.76 27.63 352.26 40.36 332.33"/><polygon class="cls-20" points="67.86 330.89 82.51 349.38 69.78 369.32 55.13 350.82 67.86 330.89"/><polygon class="cls-20" points="95.24 329.57 110.01 348.06 97.28 367.88 82.51 349.38 95.24 329.57"/><polygon class="cls-20" points="122.74 328.12 137.4 346.62 124.67 366.55 110.01 348.06 122.74 328.12"/><polygon class="cls-20" points="150.12 326.68 164.9 345.18 152.17 365.11 137.4 346.62 150.12 326.68"/><polygon class="cls-20" points="177.63 325.36 192.28 343.86 179.55 363.67 164.9 345.18 177.63 325.36"/><polygon class="cls-20" points="14.9 372.08 29.67 390.57 16.94 410.51 2.17 392.01 14.9 372.08"/><polygon class="cls-20" points="42.4 370.76 57.05 389.25 44.32 409.07 29.67 390.57 42.4 370.76"/><polygon class="cls-20" points="69.78 369.32 84.55 387.81 71.82 407.75 57.05 389.25 69.78 369.32"/><polygon class="cls-20" points="97.28 367.88 111.94 386.37 99.21 406.3 84.55 387.81 97.28 367.88"/><polygon class="cls-20" points="124.67 366.55 139.44 385.05 126.71 404.86 111.94 386.37 124.67 366.55"/><polygon class="cls-20" points="152.17 365.11 166.82 383.61 154.09 403.54 139.44 385.05 152.17 365.11"/><polygon class="cls-20" points="179.55 363.67 194.32 382.17 181.47 402.1 166.82 383.61 179.55 363.67"/><polygon class="cls-20" points="16.94 410.51 31.59 429 18.86 448.94 4.21 430.44 16.94 410.51"/><polygon class="cls-20" points="44.32 409.07 59.1 427.56 46.25 447.5 31.59 429 44.32 409.07"/><polygon class="cls-20" points="71.82 407.75 86.48 426.24 73.75 446.05 59.1 427.56 71.82 407.75"/><polygon class="cls-20" points="99.21 406.3 113.86 424.8 101.13 444.61 86.48 426.24 99.21 406.3"/><polygon class="cls-20" points="126.71 404.86 141.36 423.36 128.63 443.29 113.86 424.8 126.71 404.86"/><polygon class="cls-20" points="154.09 403.54 168.74 421.92 156.01 441.85 141.36 423.36 154.09 403.54"/><polygon class="cls-20" points="181.47 402.1 196.24 420.6 183.51 440.41 168.74 421.92 181.47 402.1"/><polygon class="cls-20" points="18.86 448.94 33.52 467.43 20.79 487.25 6.13 468.75 18.86 448.94"/><polygon class="cls-20" points="46.25 447.5 61.02 465.99 48.29 485.81 33.52 467.43 46.25 447.5"/><polygon class="cls-20" points="73.75 446.05 88.4 464.55 75.67 484.48 61.02 465.99 73.75 446.05"/><polygon class="cls-20" points="101.13 444.61 115.9 463.11 103.17 483.04 88.4 464.55 101.13 444.61"/><polygon class="cls-20" points="128.63 443.29 143.28 461.79 130.55 481.6 115.9 463.11 128.63 443.29"/><polygon class="cls-20" points="156.01 441.85 170.78 460.35 158.05 480.28 143.28 461.79 156.01 441.85"/><polygon class="cls-20" points="183.51 440.41 198.16 458.9 185.43 478.84 170.78 460.35 183.51 440.41"/><polygon class="cls-20" points="204.77 324.04 219.42 342.54 206.69 362.47 192.04 343.98 204.77 324.04"/><polygon class="cls-20" points="232.27 322.6 246.92 341.09 234.19 361.03 219.42 342.54 232.27 322.6"/><polygon class="cls-20" points="259.65 321.28 274.3 339.77 261.57 359.59 246.92 341.09 259.65 321.28"/><polygon class="cls-20" points="287.15 319.84 301.8 338.33 289.07 358.27 274.3 339.77 287.15 319.84"/><polygon class="cls-20" points="314.53 318.4 329.18 336.89 316.45 356.83 301.8 338.33 314.53 318.4"/><polygon class="cls-20" points="341.91 317.08 356.68 335.57 343.95 355.39 329.18 336.89 341.91 317.08"/><polygon class="cls-20" points="369.41 315.64 384.06 334.13 371.33 354.06 356.68 335.57 369.41 315.64"/><polygon class="cls-20" points="206.69 362.47 221.46 380.97 208.73 400.78 193.96 382.29 206.69 362.47"/><polygon class="cls-20" points="234.19 361.03 248.84 379.52 236.11 399.46 221.46 380.97 234.19 361.03"/><polygon class="cls-20" points="261.57 359.59 276.34 378.08 263.61 398.02 248.84 379.52 261.57 359.59"/><polygon class="cls-20" points="289.07 358.27 303.72 376.76 290.99 396.58 276.34 378.08 289.07 358.27"/><polygon class="cls-20" points="316.45 356.83 331.22 375.32 318.49 395.26 303.72 376.76 316.45 356.83"/><polygon class="cls-20" points="343.95 355.39 358.6 373.88 345.87 393.81 331.22 375.32 343.95 355.39"/><polygon class="cls-20" points="371.33 354.06 386.1 372.56 373.37 392.37 358.6 373.88 371.33 354.06"/><polygon class="cls-20" points="208.73 400.78 223.38 419.27 210.65 439.21 196 420.72 208.73 400.78"/><polygon class="cls-20" points="236.11 399.46 250.88 417.95 238.15 437.77 223.38 419.27 236.11 399.46"/><polygon class="cls-20" points="263.61 398.02 278.26 416.51 265.53 436.45 250.88 417.95 263.61 398.02"/><polygon class="cls-20" points="290.99 396.58 305.76 415.07 293.03 435.01 278.26 416.51 290.99 396.58"/><polygon class="cls-20" points="318.49 395.26 333.14 413.75 320.41 433.57 305.76 415.07 318.49 395.26"/><polygon class="cls-20" points="345.87 393.81 360.65 412.31 347.8 432.24 333.14 413.75 345.87 393.81"/><polygon class="cls-20" points="373.37 392.37 388.03 410.87 375.3 430.8 360.65 412.31 373.37 392.37"/><polygon class="cls-20" points="210.65 439.21 225.42 457.7 212.57 477.64 197.92 459.14 210.65 439.21"/><polygon class="cls-20" points="238.15 437.77 252.8 456.26 240.07 476.2 225.42 457.7 238.15 437.77"/><polygon class="cls-20" points="265.53 436.45 280.18 454.94 267.45 474.76 252.8 456.26 265.53 436.45"/><polygon class="cls-20" points="293.03 435.01 307.68 453.5 294.96 473.44 280.18 454.94 293.03 435.01"/><polygon class="cls-20" points="320.41 433.57 335.07 452.06 322.34 471.99 307.68 453.5 320.41 433.57"/><polygon class="cls-20" points="347.8 432.24 362.57 450.74 349.84 470.55 335.07 452.06 347.8 432.24"/><polygon class="cls-20" points="375.3 430.8 389.95 449.3 377.22 469.11 362.57 450.74 375.3 430.8"/></g><circle class="cls-15" cx="198.76" cy="209.95" r="4.68"/><circle class="cls-21" cx="198.76" cy="209.95" r="3.48"/><circle class="cls-15" cx="197.8" cy="208.99" r=".36"/><circle class="cls-15" cx="199.6" cy="208.99" r=".36"/><circle class="cls-15" cx="197.8" cy="210.8" r=".36"/><circle class="cls-15" cx="199.6" cy="210.8" r=".36"/><circle class="cls-15" cx="198.76" cy="239.38" r="4.68"/><circle class="cls-21" cx="198.76" cy="239.38" r="3.48"/><circle class="cls-15" cx="197.8" cy="238.42" r=".36"/><circle class="cls-15" cx="199.6" cy="238.42" r=".36"/><circle class="cls-15" cx="197.8" cy="240.22" r=".36"/><circle class="cls-15" cx="199.6" cy="240.22" r=".36"/><circle class="cls-15" cx="198.76" cy="268.8" r="4.68"/><circle class="cls-21" cx="198.76" cy="268.8" r="3.48"/><circle class="cls-15" cx="197.8" cy="267.96" r=".36"/><circle class="cls-15" cx="199.6" cy="267.96" r=".36"/><circle class="cls-15" cx="197.8" cy="269.64" r=".36"/><circle class="cls-15" cx="199.6" cy="269.64" r=".36"/><circle class="cls-15" cx="198.76" cy="298.22" r="4.68"/><circle class="cls-21" cx="198.76" cy="298.22" r="3.48"/><circle class="cls-15" cx="197.8" cy="297.38" r=".36"/><circle class="cls-15" cx="199.6" cy="297.38" r=".36"/><circle class="cls-15" cx="197.8" cy="299.06" r=".36"/><circle class="cls-15" cx="199.6" cy="299.06" r=".36"/><circle class="cls-15" cx="198.76" cy="327.64" r="4.68"/><circle class="cls-21" cx="198.76" cy="327.64" r="3.48"/><circle class="cls-15" cx="197.8" cy="326.8" r=".36"/><circle class="cls-15" cx="199.6" cy="326.8" r=".36"/><circle class="cls-15" cx="197.8" cy="328.49" r=".36"/><circle class="cls-15" cx="199.6" cy="328.49" r=".36"/><circle class="cls-15" cx="198.76" cy="357.07" r="4.68"/><circle class="cls-21" cx="198.76" cy="357.07" r="3.48"/><circle class="cls-15" cx="197.8" cy="356.23" r=".36"/><circle class="cls-15" cx="199.6" cy="356.23" r=".36"/><circle class="cls-15" cx="197.8" cy="358.03" r=".36"/><circle class="cls-15" cx="199.6" cy="358.03" r=".36"/><circle class="cls-15" cx="198.76" cy="386.49" r="4.68"/><circle class="cls-21" cx="198.76" cy="386.49" r="3.48"/><circle class="cls-15" cx="197.8" cy="385.65" r=".36"/><circle class="cls-15" cx="199.6" cy="385.65" r=".36"/><circle class="cls-15" cx="197.8" cy="387.45" r=".36"/><circle class="cls-15" cx="199.6" cy="387.45" r=".36"/><path class="cls-14" d="m238.03,84.22c.6-1.2,1.8-2.4,3.12-2.28,1.8.12,2.76,2.16,3.12,3.84.72,2.88,1.08,5.88,1.08,8.89,0,.84,0,1.68-.24,2.4s-.72,1.44-1.2,2.04c-1.08,1.92-1.44,4.08-2.04,6.24-.48,2.16-1.32,4.32-3.12,5.64-.48.36-1.08.72-1.68.6-1.08-.12-1.92-1.32-1.92-2.4s.48-2.16.84-3.24c1.32-3.48,1.92-7.45,1.44-11.17-.36-3.84-1.32-6.97.6-10.57Z"/><path class="cls-11" d="m153.37,85.06c-.6-1.2-1.8-2.4-3.12-2.28-1.8.12-2.76,2.16-3.12,3.84-.72,2.88-1.08,5.88-1.08,8.89,0,.84,0,1.68.24,2.4s.72,1.44,1.2,2.04c1.08,1.92,1.44,4.08,2.04,6.24.48,2.16,1.32,4.32,3.12,5.64.48.36,1.08.72,1.68.6,1.08-.12,1.92-1.32,1.92-2.4s-.48-2.16-.84-3.24c-1.32-3.48-1.92-7.45-1.44-11.17.36-3.84,1.44-6.97-.6-10.57Z"/><path class="cls-18" d="m169.22,39.78c6.48,1.44,12.01,5.64,18.37,7.93,3.84,1.32,7.93,2.04,12.01,2.16-.24-.24-.6-.6-.84-.84.36-.12.72-.12.96.12-.24-.6.72-1.2,1.08-.72.24-.48.36-1.08.6-1.56.96-.24,2.16.84,2.64,0,.12-.24.12-.6,0-.84-.24-.96-.96-1.8-1.8-2.28,2.88,2.28,6.97,2.04,10.45,2.76,6.36,1.32,12.37,5.76,18.73,4.56-2.16-1.8-3.12-4.56-3.96-7.33-1.2-3.72-2.64-7.57-4.92-10.81-2.16-3-4.92-5.52-7.69-7.93-2.28-2.04-4.56-4.08-7.33-5.52-3.24-1.68-6.85-2.4-10.57-2.64-9.97-.72-20.18,1.92-28.58,7.45-3.96,2.64-7.81,6.24-9.01,10.81.12.36.6.48.84.12-.48.48-.84,1.2-1.2,1.8-.12.36-.24.72,0,.96.24.36.72.24.84,0-.48,1.2-.84,2.64-.6,3.96,1.2-.48,1.92-1.8,3.36-2.16,2.16-.6,4.56-.36,6.61,0Z"/><path class="cls-18" d="m181.71,46.39c-2.64-.48-5.28-.6-7.93,0-2.52.72-4.92,2.28-6.24,4.56-.72,1.32-1.08,2.76-1.68,4.08-1.2,3-3.24,5.52-5.16,8.05,1.08-.24,2.16-.6,3.24-.84-.24.72,0,1.56.36,2.16.24.24.48.48.6.84.12.48-.24.96-.48,1.44-5.64,7.69-10.93,16.33-8.17,26.3.84,2.88,1.08,6,1.32,9.01.12,1.56.12,3.12.12,4.68s-.36,3.12-.24,4.68c.12,1.2.6,2.4,1.44,3.24-3-2.76-4.56-6.97-4.8-11.05-.12-2.16,0-4.2-.48-6.36-.48-2.28-1.32-4.56-1.8-6.97-.24-1.2-.36-2.4-.36-3.72,0-2.88.84-9.25.72-9.49-.84-3.6-1.92-7.21,0-10.45-.36.48-.84.72-1.32.96,0-3.48,0-7.09-.12-10.57,0-2.52,0-4.92.36-7.45.48-2.88,1.56-5.76,3.24-8.29.6-.84,1.2-1.68,1.68-2.64.24-.48.36-.96.6-1.44.48-.84,1.2-1.56,1.92-2.16,4.68-3.96,10.69-6.36,16.81-6.48,6.12-.12,12.25,1.8,17.17,5.52.84.72,1.8,1.56,2.04,2.64.12.72.12,1.44-.12,2.16-.6,2.52-2.16,5.88-4.32,7.45-2.04,1.92-5.76.6-8.41.12Z"/><path class="cls-18" d="m217.62,25.73c0,.6-.12,1.08-.24,1.56.84-.48,1.68-.72,2.64-.84,0,.6,0,1.2-.12,1.8,1.08-.36,1.92,1.44,1.08,2.04,2.88-.36,5.88-.48,8.77-.12-1.8.6-3.48,1.44-5.04,2.28-.12.36-.12.84-.24,1.2.72,0,1.56.12,2.28.12-.12.36-.36.72-.48,1.08,3.24,1.44,5.76,4.2,7.45,7.21,1.8,3.12,2.76,6.48,3.72,9.85,1.08,3.96,2.16,7.93,2.4,11.89.36,4.44.72,11.53.12,15.97-.12.6-.12,1.2-.36,1.8-.36.84-1.08,1.44-1.68,2.16-2.88,3.6-1.32,5.76-1.08,10.45.24,4.68,0,10.69-3.24,14.05,3.12-6.24-.84-14.05-.72-21.02.12-3,.6-6,.24-9.01-.6-5.52-3.6-10.33-5.04-15.61-.96-3.6-1.2-7.33-2.04-11.05-.84-3.6-2.52-7.33-5.64-9.37-1.44-.96-3.12-1.56-4.44-2.76-1.56-1.44-2.4-3.6-2.64-5.64-.12-1.68-.36-4.56.24-6.24.36-.72,4.08-2.4,4.08-1.8Z"/><path class="cls-16" d="m148.08,57.32c.96-8.65,3.72-17.17,8.65-24.26,4.92-7.21,12.01-12.97,20.18-15.73,5.4-1.8,11.17-2.4,16.81-2.4,8.17,0,16.45,1.2,23.78,4.8,7.33,3.6,13.57,9.85,16.09,17.65-4.2-3-9.01-5.04-14.05-5.88-3.12-.48-6.36-.6-9.61-.6-19.57.48-39.51,8.05-51.88,23.18-3.48,4.32-5.76,9.37-9.01,13.81-2.28-1.2-1.2-8.41-.96-10.57Z"/><path class="cls-17" d="m164.42,51.91c7.93-7.21,18.01-11.41,28.22-14.77,8.05-2.64,16.45-4.92,24.86-3.84,8.41,1.08,16.69,6.48,18.85,14.41-.12-6.12-1.08-13.69-6.24-18.97-2.52-2.64-8.05-5.76-11.53-6.36-15.25-2.64-32.18,3.36-46,10.09-7.21,3.48-15.13,7.93-20.42,13.81s-5.64,18.61-3.72,26.18c.48,1.92,1.8,5.88,4.2,6,1.08-4.8.6-9.37,2.76-14.17,2.04-4.68,5.16-8.89,9.01-12.37Z"/><path class="cls-1" d="m279.58,115.32c-.48.6-.96,1.2-1.56,1.8"/><path class="cls-7" d="m169.1,149.43c-.84,2.76-1.32,5.64-1.44,8.53,0,.48,0,.96.24,1.44s.84.84,1.32,1.2c9.61,5.76,21.02,9.01,28.58,17.29-.84-2.76-.84-5.76-1.8-8.53-1.68-4.92-7.93-6.73-12.01-9.13-1.68-1.08-15.37-9.13-14.89-10.81Z"/><path class="cls-13" d="m197.56,188.7c-.96,3.12-2.28,6.24-3.96,9.01-2.76,4.56-8.17,12.37-13.57,13.69-1.68-5.4-2.4-11.29-4.08-16.81-1.68-5.64-3.84-11.05-6.36-16.33-1.92-4.08-4.2-8.17-5.04-12.61-.12-.84-.24-1.68-.24-2.52,0-1.2,0-2.28.24-3.48v-.24c.24-1.44.72-2.76,1.44-3.96.12-.12.12-.24.24-.36.12-.24.36-.48.48-.72.36-.48.72-.96,1.2-1.32,0,2.64,2.04,5.04,4.32,6.36,2.28,1.32,4.92,2.04,7.45,2.88,5.52,2.04,10.57,5.64,14.17,10.33,1.68,2.16,3.24,4.56,5.28,6.48,1.2,1.08-1.2,8.41-1.56,9.61Z"/><path class="cls-10" d="m181.83,189.06c-4.32-7.45-6.73-16.33-12.85-22.46-.84-.84-1.68-1.56-2.4-2.52-.96-1.2-1.56-2.88-2.04-4.56.24-1.44.72-2.76,1.44-3.96.12,1.08.24,2.16.48,2.76.84,1.8,2.4,3.24,3.72,4.68,3.84,3.96,6.85,8.77,8.53,14.05-2.52-4.68-5.28-9.49-9.49-13.09,5.88,7.57,10.21,16.09,12.61,25.1Z"/><path class="cls-10" d="m195.52,189.54c-.24.6-.6,1.2-.84,1.8-3,6.36-6.85,13.45-13.09,17.77l-.48.36-.12-.6c-1.44-10.45-5.52-22.34-11.41-33.39l-.36-.6c-1.92-3.6-3.96-7.45-4.92-11.41,0-1.2,0-2.28.24-3.48.36,5.04,3,9.97,5.4,14.53l.36.6c5.88,11.05,9.85,22.7,11.41,33.03,5.88-4.2,9.61-11.05,12.37-17.05.24-.6.6-1.2.84-1.8,1.92-3.84,3.24-6.61.36-10.33l-.12-.12c-6.73-8.89-10.09-11.65-11.77-12.49-1.68-.84-3.24-1.32-4.8-1.8-2.4-.72-4.68-1.44-6.97-3.12-2.76-2.04-4.32-3.96-5.4-6.24.12-.24.36-.48.48-.72,1.08,2.4,2.52,4.32,5.28,6.36,2.16,1.56,4.32,2.28,6.73,3,1.56.48,3.24.96,4.92,1.8,2.52,1.2,6.61,5.52,12.01,12.73l.12.12c3.12,3.96,1.56,7.21-.24,11.05Z"/><path class="cls-7" d="m227.46,149.43c.96,2.64,1.68,5.28,1.92,8.05,0,.48.12.96-.12,1.32-.24.48-.72.84-1.2,1.2-8.89,6.12-19.57,10.09-26.18,18.61.72-2.76.48-5.64,1.08-8.29,1.32-4.92,7.09-7.09,10.93-9.73,1.56-.84,14.17-9.61,13.57-11.17Z"/><path class="cls-13" d="m202.96,189.3c1.2,3,2.64,5.76,4.44,8.41,2.88,4.2,8.77,11.29,14.05,12.25,1.2-5.4,1.44-11.05,2.64-16.45,1.2-5.52,2.88-10.93,4.92-16.21,1.56-4.08,3.48-8.17,3.96-12.49.12-.84.12-1.56.12-2.4,0-1.08-.12-2.28-.48-3.24q0-.12-.12-.24c-.36-1.32-.96-2.64-1.68-3.72-.12-.12-.12-.24-.24-.36-.12-.24-.36-.48-.48-.6-.36-.48-.84-.84-1.2-1.2.12,2.64-1.56,4.92-3.72,6.36s-4.68,2.28-6.97,3.36c-5.16,2.4-9.73,6.24-12.97,10.93-1.56,2.16-2.88,3.84-4.68,5.76-.96.96,1.92,8.65,2.4,9.85Z"/><path class="cls-10" d="m217.98,188.34c3.72-7.45,5.28-16.21,10.81-22.46.72-.84,1.56-1.68,2.16-2.52.84-1.32,1.32-2.88,1.68-4.44-.36-1.32-.96-2.64-1.68-3.72-.12,1.08-.12,2.16-.36,2.76-.6,1.8-2.04,3.24-3.24,4.8-3.36,4.08-5.88,9.01-7.21,14.17,2.16-4.68,4.44-9.61,8.17-13.21-5.04,7.33-8.53,15.85-10.33,24.62Z"/><path class="cls-10" d="m205.01,189.78c.36.48.6,1.08.96,1.68,3.24,5.88,7.45,12.37,13.93,16.09l.48.24v-.6c.6-10.09,3.72-21.86,8.65-32.91l.24-.6c1.56-3.6,3.24-7.45,3.96-11.29,0-1.08-.12-2.28-.48-3.24,0,4.8-2.16,9.73-4.08,14.29l-.24.6c-4.8,10.93-7.93,22.58-8.65,32.54-6-3.6-9.97-9.85-13.09-15.49-.36-.6-.6-1.08-.96-1.68-2.04-3.6-3.6-6.12-1.08-9.85l.12-.12c5.88-9.01,8.89-11.89,10.45-12.85,1.56-.84,3-1.44,4.56-2.04,2.28-.84,4.44-1.68,6.48-3.48,2.52-2.16,3.84-4.08,4.68-6.36-.12-.24-.36-.48-.48-.6-.84,2.4-2.16,4.32-4.68,6.48-1.92,1.68-4.08,2.52-6.24,3.36-1.56.6-3,1.2-4.68,2.04-2.28,1.32-5.88,5.76-10.69,13.09l-.12.12c-2.88,4.08-1.08,7.09.96,10.57Z"/></svg>