<?xml version="1.0" encoding="UTF-8"?><svg id="Layer_1" xmlns="http://www.w3.org/2000/svg" xmlns:xlink="http://www.w3.org/1999/xlink" viewBox="0 0 395 450"><defs><style>.cls-1,.cls-2,.cls-3,.cls-4,.cls-5,.cls-6{fill:none;}.cls-7{clip-path:url(#clippath);}.cls-8{fill:#f7e4c6;}.cls-9{fill:#f9efde;}.cls-10{fill:#ebd9bc;}.cls-11{fill:#fff;}.cls-12{fill:#ebd6b2;}.cls-13{fill:#874e35;}.cls-14{fill:#9e7a6a;}.cls-15{fill:#9e6952;}.cls-16{fill:#d4d4d4;}.cls-17{fill:#a87171;}.cls-18,.cls-19{fill:#121a1a;}.cls-20{fill:#10161c;}.cls-21{fill:#202c38;}.cls-22{fill:#0a0f0f;}.cls-23{fill:#1a170f;}.cls-24{fill:#1a293f;}.cls-25{fill:#6e00a2;}.cls-26{fill:#636363;}.cls-27{fill:#850000;}.cls-28{fill:#5e3725;}.cls-19,.cls-2,.cls-3,.cls-4,.cls-6{stroke-miterlimit:10;}.cls-19,.cls-3,.cls-4,.cls-6{stroke:#7d5955;}.cls-19,.cls-3,.cls-5{stroke-width:.79px;}.cls-29{clip-path:url(#clippath-1);}.cls-2{stroke:#1a293f;stroke-width:.74px;}.cls-4{stroke-width:1.57px;}.cls-30{opacity:.54;}.cls-31{opacity:.84;}.cls-5{stroke:#baad7f;stroke-linejoin:round;}.cls-6{stroke-width:.69px;}</style><clipPath id="clippath"><circle class="cls-1" cx="240.15" cy="79.02" r="3.3"/></clipPath><clipPath id="clippath-1"><circle class="cls-1" cx="201.13" cy="79.02" r="3.3"/></clipPath></defs><path class="cls-11" d="m311.18,527.07c-1.25,0-2.25-.09-3.15-.28l-.12-.02c-8.44-1.66-17.49-2.43-28.48-2.43-9.04,0-18.07.51-27.62,1.06l-.73.04c-4.88.32-9.99.53-14.92.74l-.48.02c-5.19.22-11,.33-17.25.33-24.1,0-51.31-1.59-75.33-2.99l-3.35-.2-19.23-1.09,1.25-7.34-6.67-1.34c-.17-.03-.33-.06-.5-.1l-.31-.12-8.99-2.43,1.95-8.75c1.49-6.75,6.12-43.14,5.88-51.42l-.04-2.03c-.11-5.74-.21-11.67.34-17.68.82-9.36,3.1-18.75,6.78-27.95l.35-.88,2.65-23.42-3.25-2.4c-4.85-3.58-14.18-8.86-18.95-10.3l-.73-.22-.76-.06c-1.7-.13-3.74-.13-5.71-.13-4.49,0-9.58,0-14.72-1.8l-.1-.04c-9.22-3.07-14.93-10.29-19.98-16.65l-.45-.57c-3.4-4.49-6.27-8.09-9.58-10.19-2.62-1.69-6.2-2.85-9.94-3.97l-.78-.25c-4.12-1.3-8.39-2.65-12.54-5.12-11.64-6.87-18.57-20.58-17.28-34.11.08-.98.23-1.95.41-3.09l.03-.22c.11-.46.16-.84.19-1.11l.74-2.97-2.38-3.32c-.37-.51-.77-1.06-1.18-1.67-4.98-8.06-2.54-16.58.14-23.93l.09-.24.07-.24c.08-.3.2-.59.31-.88.13-.36.26-.7.37-1.03,4.51-13.67,34.12-38.35,61.47-56.76.02-.01.04-.02.06-.04,9.77-5.25,19.17-11.23,28.28-17.02l4.65-2.99c1.32-.85,3.94-2.32,11.69-5.29l3.41-1.31.92-3.69c.1-.37.25-.96.33-1.72l.95-4.17,4.34-1.77,1.64-.62c1.46-.55,3.2-1.21,5.27-1.97l3.8-1.41.05-.28,5.37-1.51c.31-.08.84-.22,2.12-.57,3.87-1.06,12.95-3.56,18.19-4.62,6.76-1.35,12.57-2.34,18.24-3.11l14.01-1.9-10.29-10.28c-2.89-3-5.97-9.12-6.13-14.21l-.18-5.1-1.1-1.65c-.24-.36-.6-.9-1.12-1.5l-2-2.86-.21-.31c-1.35-2.02-3.21-4.78-3.98-8.42-.2-1.06-.29-2.04-.38-2.91l-.06-.62c-.1-1.24-.53-2.38-1.19-3.36l-.07-.14-.11-.19c-.69-1.18-1.42-2.5-2.07-4.38-1.65-4.67-.84-9.37,2.22-12.94l2.89-3.37-1.82-4.05c-2.15-4.79-2.14-10.88-2.14-13.81v-.36c0-3.51.41-20.72,1.22-25.41,1.17-6.8,5.7-11.59,12.42-13.16,1.71-.35,4.52-.72,25.9-2.5,7.08-.54,16.83-1.36,21.06-1.88.09,0,.19-.02.3-.02,6.96-.62,13.87-.95,19.97-.95,14.61,0,19.54,1.86,20.98,2.67,9.39,5.19,10.48,16.62,10.83,20.38.05.63.14,1.33.23,2.06.08.61.15,1.23.2,1.88l.06.59c.98,9.32,1.91,18.12-.96,24.29l-.94,2.02.4,2.19c.22,1.19.47,2.48.85,3.9.13.6.3,1.15.46,1.69l.17.58.46,1.59,1.12,1.22c3.27,3.56,4.18,8.42,2.49,13.33-.21.6-.43,1.15-.65,1.65h-2.08l-.57,5.13-.05.11v.39l-.07.61c-.04.34-.07.72-.1,1.14-.05.74-.11,1.5-.29,2.21l-.06.27c-.62,2.97-1.94,5.77-4.02,8.55l-.13.19-2.47,3.53-1.63,1.63-1.1,8.83v.29c-.17,3.61-1.46,7.03-3.75,9.87l-9.18,11.39h14.36c.23.03.52.07.85.09,12.01,1.69,24.29,5.22,36.52,10.49l12.62,6.15c6.21,3.28,10.84,6.04,13.74,8.18l.38.28.41.23c4.99,2.75,9.22,7.5,10.31,8.95l.1.13c9.58,12.15,40.39,90.77,46.84,133.48.74,5.07-.39,14.82-4.47,38.57-.34,1.72-.58,3.13-.71,4.28-2.59,15.89-10.96,30.14-22.98,39.1-5.32,3.91-11.16,6.72-16.32,9.2l-20.19,9.67.75,8.71c.32,3.71.63,7.22.87,10.54.34,4.65,1.82,15.55,3.56,28.26l.16,1.2c1.48,10.89,3.16,23.24,4.21,32.7,2.16,18.48,1.87,23.52-4.37,26.58l-.24.12c-8.57,4.62-15.29,6.86-20.54,6.86Z"/><path class="cls-1" d="m191.34,8.22c-.22.55-.44,1.21-.44,1.87"/><path class="cls-18" d="m141.32,250.97c-4.29,6.16-26.39,18.47-32.65,22.43-4.62,2.97-10.22,4.51-14.95,7.15-2.09,1.1-4.07,2.42-5.72,4.07,2.97,0,5.83.55,8.69,1.32,3.96,1.1,7.7,2.86,10.99,5.28,2.75,1.98,5.28,4.4,8.25,5.94s24.85,11.21,27.81,9.56c5.28,10.11,10.77,20.78,10.77,32.32,0,8.14-2.97,16.05-6.93,23.2-3.52,6.38-8.25,12.53-14.84,15.72.77-6.6-24.52-20.23-31-21.11-6.49-.88-13.41.44-19.57-1.65-12.31-4.18-17.04-19.46-27.92-26.5-7.15-4.62-16.27-5.28-23.64-9.56-8.58-5.06-13.74-15.28-12.75-25.18.44-4.51,1.98-9.34-.11-13.3-.88-1.76-2.42-3.08-3.41-4.84-3.52-5.5-.22-12.42,1.87-18.58,4.95-14.95,53.54-49.58,56.84-51.34,11.65-6.27,22.65-13.41,33.86-20.56,5.5-3.52,31.22-12.2,37.38-14.29l-5.17,7.37c-8.36,21.99,15.61,53.21,2.2,72.56Z"/><path class="cls-18" d="m161.22,388.62c-8.8-3.52-16.49-9.02-16.6-19.57-.22-24.63-6.71-69.37-9.45-83.33-4.84-25.51-5.72-70.58-6.27-82.35-.66-11.76,2.31-25.07,12.09-31.66,8.25-5.5,17.7-6.93,24.85-7.59,13.96-1.32,20.01-.22,27.7-4.18-4.95,5.72-2.75,3.74-3.85,10.11-.55,3.74.88,8.14.99,11.98.55,10.11-.11,19.57.44,29.68,0-1.1,0-2.31-.11-3.41-.44,1.87-.44,3.85-.11,5.72-.77-7.37-.44-14.73.99-21.99.33-1.76.77-3.52,1.87-4.84,1.43-1.65,3.74-2.09,5.83-2.53,3.52-.66,7.04-1.43,10.55-2.09,1.98-.33,3.96-.77,5.94-.44,4.4.88,8.03,5.28,12.31,4.4,1.65-14.51,19.79-22.32,22.65-36.61,13.74,6.93,76.63,14.07,79.71,29.46,1.43,7.15,2.75,20.45-1.21,28.91-13.3,27.7-8.25,108.95-5.17,139.4.77,7.7,1.65,17.59-3.3,24.41-7.81,10.77-23.86,17.48-35.95,20.23-17.48,3.85-34.08,5.06-52.11,6.49-19.68,1.65-39.8-.33-58.71-6.05-4.07-1.1-8.69-2.42-13.08-4.18Z"/><path class="cls-19" d="m317.99,169.17c.99,19.57,0,39.14-2.97,58.49-2.09,13.74-5.28,27.38-6.93,41.23s-1.87,27.92,2.09,41.23c-18.25-6.16-37.49-9.56-56.84-9.78-9.02-.11-18.14.55-27.16,1.21-6.82.44-13.74.99-20.56,1.43-7.37.55-14.84,1.1-22.21,2.09-12.75,1.87-24.41,4.95-36.5,9.45,4.62-13.85,2.75-29.02-.88-43.21-2.31-9.13-5.39-18.14-9.02-26.83-1.76-4.18-3.63-8.25-5.28-12.42-7.92-20.34-9.56-42.99-4.73-64.31,33.31-13.52,69.15-16.38,105.1-16.82,12.53-.22,25.07-.11,37.49,1.54,16.93,2.53,33.42,8.58,48.37,16.71Z"/><path class="cls-3" d="m162.1,157.52c-4.95,19.02-3.63,39.69,3.52,58.05,1.65,4.29,3.74,8.47,5.39,12.75,7.59,18.69,9.78,39.25,10.33,59.48"/><path class="cls-3" d="m159.57,293.74c5.72-6.82,12.31-12.86,18.91-18.8-7.15-3.08-13.08-7.81-18.58-13.41,3.96-8.14,7.7-15.83,13.41-22.76-9.02-.11-17.92-3.74-24.41-9.89,1.21-8.25,6.05-15.61,10.88-22.43-7.04-1.54-13.41-4.73-19.13-9.13,4.4-6.38,9.34-12.53,15.61-17.15-5.83-4.18-10.66-9.67-14.18-15.94"/><path class="cls-5" d="m141.32,167.2c-4.73,2.53-9.23,5.28-13.52,8.47,3.85,2.09,7.81,4.29,11.65,6.38-4.29,2.31-8.36,5.17-12.09,8.25,3.85,1.65,7.92,2.53,11.98,2.86-3.85,3.19-7.81,6.27-11.76,9.23,1.76.88,10.44,3.3,13.63,4.07-2.31,1.54-10.33,6.71-11.65,8.25,4.18.22,13.19,1.1,13.3,1.32.33.44-6.27,8.14-8.36,11.98,4.29-.22,8.69-.55,12.97-.99-3.74,3.41-6.82,7.7-8.8,12.31,4.73-.33,9.23-.44,13.96-.22-3.63,3.08-6.82,6.71-9.78,10.44,4.73.99,8.91,1.43,13.74,1.54-4.07,3.74-7.15,7.81-10.33,12.31,4.62.66,9.13,1.21,13.74,1.65-3.08,3.41-6.27,6.49-9.45,9.89,3.74,1.76,7.04,2.97,10.44,4.84-3.74,2.86-6.38,4.29-10,7.15,2.75,1.76,5.83,3.19,9.02,3.96-3.96,2.86-7.81,6.6-10.33,10.66"/><path class="cls-5" d="m153.08,312.54c1.98-.99,3.41-2.53,4.84-4.18,3.96-4.73,6.93-10.22,8.69-16.05,1.76,5.06,3.85,10.55,8.25,13.52.44.33.99.55,1.43.44s.88-.55,1.1-.88c3.96-5.17,5.94-11.65,7.04-18.03,1.43,5.83,4.29,11.21,8.25,15.72.22.22.44.55.77.66.88.33,1.76-.55,2.31-1.43,3.3-5.39,5.61-10.66,6.82-16.93.66,6.6,3.63,12.31,8.03,17.15,4.29-5.61,6.93-11.43,7.92-18.36.66,3.3,1.54,6.16,2.86,9.23s3.52,5.94,6.49,7.59c.55.33,1.1.55,1.65.44.55,0,.99-.33,1.43-.66,5.5-4.29,6.93-11.1,8.14-17.92.44,4.29.99,8.14,3.41,11.76,1.54,2.2,3.63,3.96,6.05,5.17.55.22,1.1.55,1.65.55.99,0,1.87-.55,2.64-1.1,2.42-1.98,3.85-4.84,5.17-7.7,1.32-3.08,2.42-5.61,3.41-8.8,0,3.3.11,6.16,1.1,9.23.88,3.19,2.75,6.05,5.17,8.14.33.33.77.66,1.32.77s1.21,0,1.76-.22c1.98-.88,3.52-2.42,4.95-4.07,2.64-3.3,4.73-7.26,5.83-11.32-.66,5.28,5.72,17.81,6.38,18.03.66.33,9.89-8.36,10.99-13.52"/><path class="cls-5" d="m307.11,291.32c-1.43-3.08-2.64-4.84-5.83-6.27,1.54-.11,2.53-.66,3.85-1.32s2.53-1.98,2.53-3.52c0-.77-.33-1.65-.66-2.31-1.54-2.97-3.85-5.06-7.04-5.94,1.54.44,2.64.66,4.29.44s3.3-1.1,3.85-2.64c.66-1.98-.77-4.18-2.53-5.39s-3.52-1.43-5.39-2.42c2.97.77,5.94-.44,8.25-2.53.66-.55,1.21-1.43,1.1-2.2s-.66-1.43-1.32-1.87c-2.2-1.87-4.29-2.86-6.93-4.07,3.08-.77,5.06-.88,7.48-2.09,1.76-.77,3.52-2.42,3.19-4.29-.22-1.1-1.1-1.98-1.98-2.75-2.09-1.76-3.85-2.31-6.6-3.41,3.3.88,7.37.44,9.23-2.42,1.43-2.09.66-4.95-1.1-6.82-1.65-1.76-3.63-2.53-5.94-3.41,4.07-1.21,6.6-1.98,9.45-4.07.44-.33.77-.88.88-1.43,0-.55-.22-1.1-.55-1.65-2.09-3.08-4.29-5.61-7.48-7.37,1.98-.44,3.41-1.1,5.39-1.87,1.1-.44,2.2-.99,2.97-1.87,1.43-1.98.55-4.95-1.32-6.49s-3.96-2.2-6.27-2.64c2.2-.66,3.85-1.21,5.83-2.09,1.98-.88,3.96-2.75,3.85-4.95,0-1.32-.88-2.64-1.76-3.63-2.09-2.42-4.4-3.96-7.59-4.51,2.64-.11,3.74-.44,5.39-1.32,1.76-.99,3.85-2.31,3.63-4.4-.22-1.54-1.54-2.64-2.75-3.52-2.42-1.87-4.4-3.19-6.82-4.95,1.76-.22,3.74-1.32,6.05-2.09"/><path class="cls-6" d="m307.44,163.9c.88,17.15,1.76,37.38-.88,54.31-1.87,12.09-4.62,24.08-6.05,36.17-1.43,12.2-1.65,24.41,1.87,36.17-16.05-5.39-32.87-8.47-49.8-8.58-7.92-.11-15.94.44-23.86.99-6.05.44-11.98.88-18.03,1.32-6.49.44-12.97.88-19.46,1.87-11.21,1.65-21.44,4.4-31.99,8.25,4.07-12.2,2.42-25.51-.77-37.93-2.09-8.03-4.73-15.83-7.92-23.53-1.54-3.63-3.19-7.26-4.62-10.88-6.93-17.81-7.81-41.12-3.52-59.7"/><path class="cls-4" d="m317.99,169.17c.99,19.57,0,39.14-2.97,58.49-2.09,13.74-5.28,27.38-6.93,41.23s-1.87,27.92,2.09,41.23c-18.25-6.16-37.49-9.56-56.84-9.78-9.02-.11-18.14.55-27.16,1.21-6.82.44-13.74.99-20.56,1.43-7.37.55-14.84,1.1-22.21,2.09-12.75,1.87-24.41,4.95-36.5,9.45,4.62-13.85,2.75-29.02-.88-43.21-2.31-9.13-5.39-18.14-9.02-26.83-1.76-4.18-3.63-8.25-5.28-12.42-7.92-20.34-9.56-42.99-4.73-64.31,33.31-13.52,69.15-16.38,105.1-16.82,12.53-.22,25.07-.11,37.49,1.54,16.93,2.53,33.42,8.58,48.37,16.71Z"/><path class="cls-27" d="m168.58,176.43c.77,9.45,1.65,18.8,2.42,28.25.11,1.21.22,2.53.88,3.52,1.54,2.2,4.62,2.09,7.26,1.87,12.42-1.21,24.96-1.43,37.49-.55,2.86.22,6.05.33,8.03-1.76,1.76-1.76,1.76-4.62,1.65-7.15-.33-10.55-.66-21.11-3.19-31.33-.44-1.65-.99-3.41-2.31-4.51s-3.19-1.32-4.95-1.43c-7.04-.44-14.07-.99-21.11-1.43-6.27-.44-13.85-.88-20.12.44-6.16,1.54-6.49,8.58-6.05,14.07Z"/><path class="cls-23" d="m175.84,183.36c-.99,1.32-1.87,2.75-1.65,4.29.11.99.77,1.87,1.43,2.75,4.73,5.83,10.44,10.99,16.82,15.17,1.98,1.32,4.18,2.53,6.6,2.53,2.75,0,5.17-1.76,7.26-3.52,4.73-3.96,9.13-8.47,12.97-13.3.77-.88,1.43-1.87,1.54-3.08.11-1.43-.88-2.75-1.87-3.96-3.74-4.51-7.92-8.69-11.98-12.75-2.86-2.86-7.26-9.02-11.87-8.69-3.85.33-6.49,4.95-8.69,7.59-3.63,4.29-7.26,8.58-10.55,12.97Z"/><path class="cls-23" d="m185.51,167.42c.33-.33.66-.66.66-1.1,0-.55-.66-.77-1.1-.99-2.75-.99-5.83-1.54-8.8-1.43-.99,0-1.98.11-2.75.66-1.54.99-1.87,3.08-1.98,4.95-.33,4.29-.22,8.58.11,12.86.11.77.33,1.32.99,1.65,2.09-2.75,3.63-5.83,5.83-8.58,2.2-2.86,4.51-5.5,7.04-8.03Z"/><path class="cls-23" d="m189.91,206.33c.44.33.99.77.88,1.43s-1.1.77-1.76.77c-3.3-.22-6.6-.33-9.89-.55-1.65-.11-3.41-.22-4.73-1.32-1.76-1.43-1.98-3.96-2.09-6.16-.11-1.43-1.21-7.15.22-8.14,1.54-.99,3.85,2.97,4.84,3.96,3.63,3.85,8.14,6.93,12.53,10Z"/><path class="cls-23" d="m218.06,207.32c.77-.11,1.65-.22,2.31-.66,1.21-.77,1.76-2.31,2.2-3.74.44-1.65.88-3.3,1.21-4.95.44-2.09.66-4.29,0-6.27-.11-.22-.22-.55-.44-.66-.55-.33-1.21.22-1.65.66-4.07,4.73-8.03,9.13-12.53,13.3-1.1.99-2.31,1.87-.77,2.64,2.53,1.32,6.93-.66,9.67-.33Z"/><path class="cls-23" d="m220.7,184.13c.33.33.77.77,1.21.77.99,0,1.43-1.21,1.43-2.2.11-4.51-.77-9.02-1.76-13.41-.33-1.76-.88-3.74-2.53-4.51-.77-.33-1.76-.33-2.64-.33-3.19.11-6.38.11-9.56.33-1.21.11-1.87,1.43-1.32,2.53,1.54,2.53,4.4,4.84,6.16,6.82,2.97,3.3,6.05,6.6,9.02,10Z"/><path class="cls-25" d="m196.84,169.17c1.76,0,1.76-2.75,0-2.75-1.87-.11-1.87,2.75,0,2.75h0Z"/><path class="cls-25" d="m196.95,173.68c1.76,0,1.76-2.75,0-2.75s-1.87,2.75,0,2.75h0Z"/><path class="cls-25" d="m197.17,175.33h0c-.88-.11-1.43.66-1.43,1.43,0,.88.66,1.32,1.43,1.43h.11c.77.11,1.43-.66,1.43-1.43-.11-.88-.77-1.32-1.54-1.43h0c-.88-.11-1.43.66-1.43,1.43,0,.88.66,1.32,1.43,1.43h.11c.77.11,1.43-.66,1.43-1.43-.11-.88-.77-1.32-1.54-1.43h0Z"/><path class="cls-25" d="m197.39,182.15c1.76,0,1.76-2.75,0-2.75-1.76-.11-1.76,2.75,0,2.75h0Z"/><path class="cls-25" d="m197.5,186c1.76,0,1.76-2.75,0-2.75-1.87,0-1.87,2.75,0,2.75h0Z"/><path class="cls-25" d="m197.72,189.73c1.76,0,1.76-2.75,0-2.75-1.87,0-1.87,2.75,0,2.75h0Z"/><path class="cls-25" d="m197.72,193.91c1.76,0,1.76-2.75,0-2.75-1.76-.11-1.76,2.75,0,2.75h0Z"/><path class="cls-25" d="m197.83,197.76c1.76,0,1.76-2.75,0-2.75-1.76-.11-1.76,2.75,0,2.75h0Z"/><path class="cls-25" d="m198.05,201.83c1.76,0,1.76-2.75,0-2.75-1.87,0-1.87,2.75,0,2.75h0Z"/><path class="cls-25" d="m179.14,187.86c1.76,0,1.76-2.75,0-2.75-1.76-.11-1.76,2.75,0,2.75h0Z"/><path class="cls-25" d="m182.44,187.64c1.76,0,1.76-2.75,0-2.75-1.87,0-1.87,2.75,0,2.75h0Z"/><path class="cls-25" d="m186.28,184.79h-.11c-.22,0-.33,0-.55.11s-.33.11-.44.33c-.11.11-.22.33-.33.44-.11.22-.11.33-.11.55v.33c.11.22.22.44.33.66.11.11.22.11.33.22.22.11.44.22.66.22h.11c.22,0,.33,0,.55-.11s.33-.11.44-.33c.11-.11.22-.33.33-.44.11-.22.11-.33.11-.55v-.33c-.11-.22-.22-.44-.33-.66-.11-.11-.22-.11-.33-.22-.22-.11-.44-.22-.66-.22h0Z"/><path class="cls-25" d="m191.67,186.33q0-.11,0,0c.11-.88-.66-1.43-1.43-1.43-.88,0-1.32.66-1.43,1.43v.11c-.11.77.66,1.43,1.43,1.43.77-.22,1.32-.88,1.43-1.54q0-.11,0,0c.11-.88-.66-1.43-1.43-1.43-.88,0-1.32.66-1.43,1.43v.11c-.11.77.66,1.43,1.43,1.43.77-.22,1.32-.88,1.43-1.54h0Z"/><path class="cls-25" d="m195.52,186.22s0-.11,0,0c.11-.88-.66-1.43-1.43-1.43-.88,0-1.32.66-1.43,1.43v.11c-.11.77.66,1.43,1.43,1.43.88-.11,1.32-.77,1.43-1.54,0,0,0-.11,0,0,.11-.88-.66-1.43-1.43-1.43-.88,0-1.32.66-1.43,1.43v.11c-.11.77.66,1.43,1.43,1.43.88-.11,1.32-.77,1.43-1.54h0Z"/><path class="cls-25" d="m202.12,186.99c.11,0,.11-.11,0,0,.66-.55.55-1.54.11-1.98-.55-.55-1.43-.44-1.98,0h-.11c-.55.44-.44,1.54,0,1.98.66.55,1.43.44,1.98,0,.11,0,.11-.11,0,0,.66-.55.55-1.54.11-1.98-.55-.55-1.43-.44-1.98,0h-.11c-.55.44-.44,1.54,0,1.98.66.55,1.43.44,1.98,0h0Z"/><path class="cls-25" d="m204.64,187.21h.11c.22,0,.33,0,.55-.11s.33-.11.44-.33c.11-.11.22-.33.33-.44.11-.22.11-.33.11-.55v-.33c-.11-.22-.22-.44-.33-.66-.11-.11-.22-.11-.33-.22-.22-.11-.44-.22-.66-.22h-.11c-.22,0-.33,0-.55.11s-.33.11-.44.33c-.11.11-.22.33-.33.44-.11.22-.11.33-.11.55v.33c.11.22.22.44.33.66.11.11.22.11.33.22.22.22.44.22.66.22h0Z"/><path class="cls-25" d="m208.93,184.24h-.11c-.22,0-.33,0-.55.11s-.33.11-.44.33c-.11.11-.22.33-.33.44-.11.22-.11.33-.11.55v.33c.11.22.22.44.33.66.11.11.22.11.33.22.22.11.44.22.66.22h.11c.22,0,.33,0,.55-.11s.33-.11.44-.33c.11-.11.22-.33.33-.44.11-.22.11-.33.11-.55v-.33c-.11-.22-.22-.44-.33-.66-.11-.11-.22-.11-.33-.22-.22-.11-.44-.22-.66-.22h0Z"/><path class="cls-25" d="m212.56,186.55c1.76,0,1.76-2.75,0-2.75s-1.76,2.75,0,2.75h0Z"/><path class="cls-25" d="m215.97,186.77c1.76,0,1.76-2.75,0-2.75-1.76-.11-1.76,2.75,0,2.75h0Z"/><path class="cls-27" d="m236.75,176.65c.77,9.45,1.65,18.8,2.42,28.25.11,1.21.22,2.53.88,3.52,1.43,2.2,4.62,2.09,7.26,1.87,12.42-1.21,24.96-1.43,37.49-.55,2.86.22,6.05.33,8.03-1.76,1.76-1.76,1.76-4.62,1.65-7.15-.33-10.55-.66-21.11-3.19-31.33-.44-1.65-.99-3.41-2.31-4.51s-3.19-1.32-4.95-1.43c-7.04-.44-14.07-.99-21.11-1.43-6.27-.44-13.85-.88-20.12.44-6.05,1.54-6.49,8.58-6.05,14.07Z"/><path class="cls-23" d="m244,183.58c-.99,1.32-1.87,2.75-1.65,4.29.11.99.77,1.87,1.43,2.75,4.73,5.83,10.44,10.99,16.82,15.17,1.98,1.32,4.18,2.53,6.6,2.53,2.75,0,5.17-1.76,7.26-3.52,4.73-3.96,9.13-8.47,12.97-13.3.77-.88,1.43-1.87,1.54-3.08.11-1.43-.88-2.75-1.87-3.96-3.74-4.51-7.92-8.69-11.98-12.75-2.86-2.86-7.26-9.02-11.87-8.69-3.85.33-6.49,4.95-8.69,7.59-3.63,4.29-7.26,8.58-10.55,12.97Z"/><path class="cls-23" d="m253.79,167.64c.33-.33.66-.66.66-1.1,0-.55-.66-.77-1.1-.99-2.75-.99-5.83-1.54-8.8-1.43-.99,0-1.98.11-2.75.66-1.54.99-1.87,3.08-1.98,4.95-.33,4.29-.22,8.58.11,12.86.11.77.33,1.32.99,1.65,2.09-2.75,3.63-5.83,5.83-8.58,2.09-2.97,4.51-5.5,7.04-8.03Z"/><path class="cls-23" d="m258.18,206.55c.44.33.99.77.88,1.43s-1.1.77-1.76.77c-3.3-.22-6.6-.33-9.89-.55-1.65-.11-3.41-.22-4.73-1.32-1.76-1.43-1.98-3.96-2.09-6.16-.11-1.43-1.21-7.15.22-8.14,1.54-.99,3.85,2.97,4.84,3.96,3.63,3.85,8.03,6.93,12.53,10Z"/><path class="cls-23" d="m286.22,207.54c.77-.11,1.65-.22,2.31-.66,1.21-.77,1.76-2.31,2.2-3.74.44-1.65.88-3.3,1.21-4.95.44-2.09.66-4.29,0-6.27-.11-.22-.22-.55-.44-.66-.55-.33-1.21.22-1.65.66-4.07,4.73-8.03,9.13-12.53,13.3-1.1.99-2.31,1.87-.77,2.64,2.53,1.32,6.93-.66,9.67-.33Z"/><path class="cls-23" d="m288.86,184.35c.33.33.77.77,1.21.77.99,0,1.43-1.21,1.43-2.2.11-4.51-.77-9.02-1.76-13.41-.33-1.76-.88-3.74-2.53-4.51-.77-.33-1.76-.33-2.64-.33-3.19.11-6.38.11-9.56.33-1.21.11-1.87,1.43-1.32,2.53,1.54,2.53,4.4,4.84,6.16,6.82,3.08,3.3,6.16,6.6,9.02,10Z"/><path class="cls-25" d="m265,169.39c1.76,0,1.76-2.75,0-2.75-1.76-.11-1.76,2.75,0,2.75h0Z"/><path class="cls-25" d="m265.11,173.9c1.76,0,1.76-2.75,0-2.75s-1.76,2.75,0,2.75h0Z"/><path class="cls-25" d="m265.44,175.55s-.11,0,0,0c-.88-.11-1.43.66-1.43,1.43,0,.88.66,1.32,1.43,1.43h.11c.77.11,1.43-.66,1.43-1.43-.22-.88-.77-1.32-1.54-1.43,0,0-.11,0,0,0-.88-.11-1.43.66-1.43,1.43,0,.88.66,1.32,1.43,1.43h.11c.77.11,1.43-.66,1.43-1.43-.22-.88-.77-1.32-1.54-1.43h0Z"/><path class="cls-25" d="m265.66,182.37c1.76,0,1.76-2.75,0-2.75-1.87-.11-1.87,2.75,0,2.75h0Z"/><path class="cls-25" d="m265.66,186.22c1.76,0,1.76-2.75,0-2.75-1.76-.11-1.76,2.75,0,2.75h0Z"/><path class="cls-25" d="m265.88,189.95c1.76,0,1.76-2.75,0-2.75s-1.76,2.75,0,2.75h0Z"/><path class="cls-25" d="m265.99,194.13c1.76,0,1.76-2.75,0-2.75-1.87-.11-1.87,2.75,0,2.75h0Z"/><path class="cls-25" d="m265.99,197.98c1.76,0,1.76-2.75,0-2.75-1.76-.11-1.76,2.75,0,2.75h0Z"/><path class="cls-25" d="m266.21,202.05c1.76,0,1.76-2.75,0-2.75s-1.76,2.75,0,2.75h0Z"/><path class="cls-25" d="m247.41,188.08c1.76,0,1.76-2.75,0-2.75-1.87-.11-1.87,2.75,0,2.75h0Z"/><path class="cls-25" d="m250.6,187.86c1.76,0,1.76-2.75,0-2.75s-1.76,2.75,0,2.75h0Z"/><path class="cls-25" d="m254.45,185.01h-.11c-.22,0-.33,0-.55.11s-.33.11-.44.33c-.11.11-.22.33-.33.44-.11.22-.11.33-.11.55v.33c.11.22.22.44.33.66.11.11.22.11.33.22.22.11.44.22.66.22h.11c.22,0,.33,0,.55-.11s.33-.11.44-.33c.11-.11.22-.33.33-.44.11-.22.11-.33.11-.55v-.33c-.11-.22-.22-.44-.33-.66-.11-.11-.22-.11-.33-.22-.11-.11-.44-.22-.66-.22h0Z"/><path class="cls-25" d="m259.83,186.44h0c.11-.88-.66-1.43-1.43-1.43-.88,0-1.32.66-1.43,1.43v.11c-.11.77.66,1.43,1.43,1.43.88-.11,1.32-.77,1.43-1.54h0c.11-.88-.66-1.43-1.43-1.43-.88,0-1.32.66-1.43,1.43v.11c-.11.77.66,1.43,1.43,1.43.88-.11,1.32-.77,1.43-1.54h0Z"/><path class="cls-25" d="m263.68,186.44q0-.11,0,0c.11-.88-.66-1.43-1.43-1.43-.88,0-1.32.66-1.43,1.43v.11c-.11.77.66,1.43,1.43,1.43.88-.22,1.32-.77,1.43-1.54q0-.11,0,0c.11-.88-.66-1.43-1.43-1.43-.88,0-1.32.66-1.43,1.43v.11c-.11.77.66,1.43,1.43,1.43.88-.22,1.32-.77,1.43-1.54h0Z"/><path class="cls-25" d="m270.39,187.21q0-.11,0,0c.66-.55.55-1.54.11-1.98-.55-.55-1.43-.44-1.98,0h-.11c-.55.44-.44,1.54,0,1.98.55.55,1.32.44,1.98,0q0-.11,0,0c.66-.55.55-1.54.11-1.98-.55-.55-1.43-.44-1.98,0h-.11c-.55.44-.44,1.54,0,1.98.55.55,1.32.44,1.98,0h0Z"/><path class="cls-25" d="m272.81,187.42h.11c.22,0,.33,0,.55-.11s.33-.11.44-.33c.11-.11.22-.33.33-.44.11-.22.11-.33.11-.55v-.33c-.11-.22-.22-.44-.33-.66-.11-.11-.22-.11-.33-.22-.22-.11-.44-.22-.66-.22h-.11c-.22,0-.33,0-.55.11s-.33.11-.44.33c-.11.11-.22.33-.33.44-.11.22-.11.33-.11.55v.33c.11.22.22.44.33.66.11.11.22.11.33.22.22.22.44.22.66.22h0Z"/><path class="cls-25" d="m277.09,184.46h-.11c-.22,0-.33,0-.55.11s-.33.11-.44.33c-.11.11-.22.33-.33.44-.11.22-.11.33-.11.55v.33c.11.22.22.44.33.66.11.11.22.11.33.22.22.11.44.22.66.22h.11c.22,0,.33,0,.55-.11s.33-.11.44-.33c.11-.11.22-.33.33-.44.11-.22.11-.33.11-.55v-.33c-.11-.22-.22-.44-.33-.66-.11-.11-.22-.11-.33-.22-.11-.11-.33-.22-.66-.22h0Z"/><path class="cls-25" d="m280.72,186.77c1.76,0,1.76-2.75,0-2.75s-1.76,2.75,0,2.75h0Z"/><path class="cls-25" d="m284.24,186.88c1.76,0,1.76-2.75,0-2.75-1.87,0-1.87,2.75,0,2.75h0Z"/><path class="cls-27" d="m178.59,233.71c1.65,8.58,3.3,17.26,5.06,25.84.22,1.1.44,2.31,1.21,3.19,1.54,1.87,4.51,1.43,6.93.99,11.32-2.42,22.87-3.74,34.52-4.18,2.64-.11,5.61-.33,7.26-2.42,1.43-1.87,1.21-4.4.88-6.71-1.32-9.67-2.64-19.46-6.05-28.58-.55-1.54-1.21-3.08-2.53-3.96-1.32-.88-3.08-.88-4.73-.77-6.49.22-13.08.44-19.57.77-5.83.22-12.86.55-18.47,2.42-5.83,1.98-5.5,8.47-4.51,13.41Z"/><path class="cls-23" d="m185.95,239.54c-.77,1.32-1.54,2.75-1.1,4.18.22.99.99,1.65,1.65,2.31,4.95,4.95,10.77,9.13,16.93,12.31,1.98.99,4.18,1.98,6.27,1.65,2.53-.33,4.51-2.09,6.27-3.96,3.96-4.07,7.59-8.69,10.66-13.52.55-.88,1.1-1.87,1.1-2.97-.11-1.32-1.1-2.53-2.09-3.41-3.96-3.74-8.14-7.26-12.42-10.55-2.97-2.31-7.59-7.59-11.76-6.82-3.52.66-5.5,5.28-7.26,7.92-2.75,4.07-5.61,8.36-8.25,12.86Z"/><path class="cls-23" d="m193.43,223.82c.22-.33.55-.66.44-1.1s-.66-.66-1.1-.77c-2.64-.66-5.5-.88-8.25-.44-.88.11-1.76.33-2.42.88-1.32,1.1-1.43,2.97-1.43,4.73.11,3.96.66,7.92,1.43,11.87.11.66.44,1.21,1.1,1.43,1.65-2.75,2.86-5.83,4.51-8.47,1.65-2.97,3.63-5.61,5.72-8.14Z"/><path class="cls-23" d="m201.24,259.33c.44.22.99.66.99,1.21-.11.66-.88.77-1.54.88-3.08.11-6.16.33-9.23.44-1.54.11-3.19.11-4.51-.77-1.76-1.1-2.2-3.41-2.53-5.5-.22-1.32-1.87-6.49-.66-7.48,1.32-1.1,3.85,2.31,4.84,3.19,3.85,3.19,8.25,5.61,12.64,8.03Z"/><path class="cls-23" d="m227.29,257.35c.77-.22,1.54-.33,2.09-.88,1.1-.88,1.43-2.31,1.65-3.63.22-1.54.44-3.19.55-4.73.22-1.98.22-3.96-.66-5.72-.11-.22-.22-.44-.44-.55-.55-.22-1.1.33-1.43.77-3.3,4.73-6.49,9.13-10.22,13.52-.88.99-1.98,1.98-.44,2.53,2.53.99,6.27-1.32,8.91-1.32Z"/><path class="cls-23" d="m227.4,235.8c.33.33.77.66,1.21.66.88-.11,1.1-1.32,1.1-2.2-.33-4.18-1.65-8.25-2.86-12.2-.55-1.65-1.21-3.41-2.86-3.96-.77-.22-1.65-.11-2.42,0-2.86.44-5.83.66-8.8,1.21-1.1.22-1.65,1.54-.99,2.42,1.65,2.2,4.51,4.07,6.27,5.72,3.19,2.75,6.38,5.39,9.34,8.36Z"/><path class="cls-25" d="m203.76,224.25c1.65,0,1.65-2.64,0-2.64-1.65.11-1.65,2.64,0,2.64h0Z"/><path class="cls-25" d="m204.31,228.43c1.65,0,1.65-2.64,0-2.64-1.65.11-1.65,2.64,0,2.64h0Z"/><path class="cls-25" d="m205.08,229.97s-.11,0,0,0c-1.76,0-1.76,2.53-.11,2.64h.11c1.65-.11,1.65-2.64,0-2.64,0,0-.11,0,0,0-1.76,0-1.76,2.53-.11,2.64h.11c1.65-.11,1.65-2.64,0-2.64h0Z"/><path class="cls-25" d="m205.63,236.24c1.65,0,1.65-2.64,0-2.64-1.65,0-1.65,2.64,0,2.64h0Z"/><path class="cls-25" d="m206.07,239.76c1.65,0,1.65-2.64,0-2.64s-1.65,2.64,0,2.64h0Z"/><path class="cls-25" d="m206.62,243.16c1.65,0,1.65-2.64,0-2.64-1.65.11-1.65,2.64,0,2.64h0Z"/><path class="cls-25" d="m207.06,247.01c1.65,0,1.65-2.64,0-2.64-1.65,0-1.65,2.64,0,2.64h0Z"/><path class="cls-25" d="m207.61,250.53c1.65,0,1.65-2.64,0-2.64-1.76.11-1.76,2.64,0,2.64h0Z"/><path class="cls-25" d="m208.16,254.38c1.65,0,1.65-2.64,0-2.64-1.65,0-1.65,2.64,0,2.64h0Z"/><path class="cls-25" d="m189.36,243.27c1.65,0,1.65-2.64,0-2.64s-1.65,2.64,0,2.64h0Z"/><path class="cls-25" d="m192.33,242.83c1.65,0,1.65-2.64,0-2.64-1.65,0-1.65,2.64,0,2.64h0Z"/><path class="cls-25" d="m195.85,239.76h-.11c-.22,0-.33,0-.55.11-.11,0-.33.11-.44.22-.11.11-.22.22-.22.44-.11.11-.11.33-.11.55v.33c.11.22.22.44.33.55.11.11.22.11.22.22.22.11.44.22.66.22h.11c.22,0,.33,0,.55-.11.11,0,.33-.11.44-.22.11-.11.22-.22.22-.44.11-.11.11-.33.11-.55v-.33c-.11-.22-.22-.44-.33-.55-.11-.11-.22-.11-.22-.22-.22-.22-.44-.22-.66-.22h0Z"/><path class="cls-25" d="m200.91,240.75s0-.11,0,0c0-1.76-2.53-1.76-2.64-.11v.11c0,1.65,2.53,1.65,2.64,0,0,0,0-.11,0,0,0-1.76-2.53-1.76-2.64-.11v.11c0,1.65,2.53,1.65,2.64,0h0Z"/><path class="cls-25" d="m204.42,240.31q0-.11,0,0c0-1.76-2.53-1.76-2.64-.11v.11c0,1.65,2.64,1.65,2.64,0q0-.11,0,0c0-1.76-2.53-1.76-2.64-.11v.11c0,1.65,2.64,1.65,2.64,0h0Z"/><path class="cls-25" d="m210.58,240.31q0-.11,0,0c1.21-1.21-.55-3.08-1.76-1.87l-.11.11c-1.21,1.1.66,2.86,1.87,1.76q0-.11,0,0c1.21-1.21-.55-3.08-1.76-1.87l-.11.11c-1.21,1.1.66,2.86,1.87,1.76h0Z"/><path class="cls-25" d="m212.78,240.2h.11c.22,0,.33,0,.55-.11.11,0,.33-.11.44-.22.11-.11.22-.22.22-.44.11-.11.11-.33.11-.55v-.33c-.11-.22-.22-.44-.33-.55-.11-.11-.22-.11-.22-.22-.22-.11-.44-.22-.66-.22h-.11c-.22,0-.33,0-.55.11-.11,0-.33.11-.44.22-.11.11-.22.22-.22.44-.11.11-.11.33-.11.55v.33c.11.22.22.44.33.55.11.11.22.11.22.22.22.11.44.22.66.22h0Z"/><path class="cls-25" d="m216.74,237.01h-.11c-.22,0-.33,0-.55.11-.11,0-.33.11-.44.22-.11.11-.22.22-.22.44-.11.11-.11.33-.11.55v.33c.11.22.22.44.33.55.11.11.22.11.22.22.22.11.44.22.66.22h.11c.22,0,.33,0,.55-.11.11,0,.33-.11.44-.22.11-.11.22-.22.22-.44.11-.11.11-.33.11-.55v-.33c-.11-.22-.22-.44-.33-.55-.11-.11-.22-.11-.22-.22-.22-.11-.44-.22-.66-.22h0Z"/><path class="cls-25" d="m220.04,238.77c1.65,0,1.65-2.64,0-2.64-1.65.11-1.65,2.64,0,2.64h0Z"/><path class="cls-25" d="m223.22,238.55c1.65,0,1.65-2.64,0-2.64-1.65.11-1.65,2.64,0,2.64h0Z"/><path class="cls-27" d="m241.25,231.07c.44,8.8.88,17.48,1.32,26.28.11,1.1.11,2.31.77,3.3,1.32,2.09,4.29,2.09,6.71,1.98,11.54-.77,23.2-.44,34.74.77,2.64.33,5.61.55,7.48-1.32,1.65-1.65,1.76-4.18,1.76-6.49.11-9.78.11-19.57-1.87-29.13-.33-1.54-.77-3.19-1.98-4.29-1.21-1.1-2.97-1.32-4.51-1.43-6.49-.66-12.97-1.43-19.46-2.09-5.83-.66-12.86-1.32-18.69-.22-5.83,1.1-6.49,7.59-6.27,12.64Z"/><path class="cls-23" d="m247.85,237.78c-.88,1.1-1.87,2.53-1.76,3.96.11.99.66,1.76,1.32,2.53,4.18,5.61,9.34,10.55,15.06,14.62,1.76,1.32,3.85,2.53,6.05,2.53,2.53,0,4.84-1.43,6.82-2.97,4.51-3.52,8.69-7.48,12.42-11.87.66-.77,1.43-1.76,1.54-2.86.11-1.32-.77-2.64-1.54-3.74-3.3-4.29-7.04-8.25-10.77-12.2-2.53-2.75-6.49-8.69-10.66-8.47-3.52.11-6.16,4.4-8.25,6.71-3.63,3.96-7.04,7.7-10.22,11.76Z"/><path class="cls-23" d="m257.31,223.38c.33-.33.66-.66.66-.99,0-.44-.55-.77-.99-.99-2.53-1.1-5.28-1.65-8.03-1.65-.88,0-1.76.11-2.53.55-1.43.88-1.87,2.75-2.09,4.51-.44,3.96-.55,7.92-.33,11.87,0,.66.22,1.32.88,1.54,1.98-2.42,3.63-5.28,5.72-7.81,2.09-2.53,4.29-4.84,6.71-7.04Z"/><path class="cls-23" d="m260.16,259.55c.44.33.88.77.77,1.32-.22.66-.99.66-1.65.66-3.08-.33-6.16-.55-9.23-.88-1.54-.11-3.19-.33-4.4-1.32-1.54-1.32-1.76-3.74-1.76-5.83,0-1.32-.88-6.6.44-7.48,1.43-.88,3.52,2.86,4.29,3.85,3.41,3.74,7.48,6.71,11.54,9.67Z"/><path class="cls-23" d="m286.11,261.41c.77-.11,1.54-.11,2.2-.55,1.21-.66,1.76-2.09,2.2-3.41.44-1.54.88-3.08,1.32-4.62.44-1.87.77-3.96.11-5.83-.11-.22-.22-.44-.44-.66-.55-.33-1.1.11-1.54.55-3.96,4.18-7.81,8.14-12.09,11.87-.99.88-2.2,1.65-.77,2.42,2.42,1.54,6.49-.22,9.02.22Z"/><path class="cls-23" d="m289.41,239.98c.33.33.66.77,1.1.77.88.11,1.32-1.1,1.32-2.09.22-4.18-.44-8.36-1.1-12.53-.22-1.65-.77-3.52-2.2-4.29-.77-.33-1.54-.33-2.42-.33-2.97,0-5.94-.11-8.91,0-1.1,0-1.87,1.32-1.32,2.31,1.32,2.42,3.96,4.62,5.39,6.49,2.75,3.3,5.5,6.49,8.14,9.67Z"/><path class="cls-25" d="m267.75,225.35c1.65,0,1.65-2.64,0-2.64s-1.65,2.64,0,2.64h0Z"/><path class="cls-25" d="m267.75,229.53c1.65,0,1.65-2.64,0-2.64s-1.65,2.64,0,2.64h0Z"/><path class="cls-25" d="m268.19,231.07h0c-.77-.11-1.43.22-1.65.88s.22,1.54.88,1.54h.11c.66.11,1.43-.22,1.54-.88.22-.55-.22-1.43-.88-1.54h0c-.77-.11-1.43.22-1.65.88s.22,1.54.88,1.54h.11c.66.11,1.43-.22,1.54-.88.22-.55-.22-1.43-.88-1.54h0Z"/><path class="cls-25" d="m267.86,237.34c1.65,0,1.65-2.64,0-2.64-1.65.11-1.65,2.64,0,2.64h0Z"/><path class="cls-25" d="m267.86,240.97c1.65,0,1.65-2.64,0-2.64-1.65,0-1.65,2.64,0,2.64h0Z"/><path class="cls-25" d="m267.97,244.37c1.65,0,1.65-2.64,0-2.64-1.76.11-1.76,2.64,0,2.64h0Z"/><path class="cls-25" d="m267.86,248.22c1.65,0,1.65-2.64,0-2.64-1.65.11-1.65,2.64,0,2.64h0Z"/><path class="cls-25" d="m267.75,251.85c1.65,0,1.65-2.64,0-2.64s-1.65,2.64,0,2.64h0Z"/><path class="cls-25" d="m267.75,255.7c1.65,0,1.65-2.64,0-2.64s-1.65,2.64,0,2.64h0Z"/><path class="cls-25" d="m250.82,242.07c1.65,0,1.65-2.64,0-2.64-1.65,0-1.65,2.64,0,2.64h0Z"/><path class="cls-25" d="m253.79,241.96c1.65,0,1.65-2.64,0-2.64-1.65.11-1.65,2.64,0,2.64h0Z"/><path class="cls-25" d="m257.75,239.54h-.11c-.22,0-.33-.11-.55,0-.22,0-.33.11-.44.11-.11.11-.22.22-.33.33-.11.11-.22.22-.22.44v.33c0,.22.11.44.22.66.11.11.11.22.22.22.11.11.33.22.55.33h.11c.22,0,.33.11.55,0,.22,0,.33-.11.44-.11.11-.11.22-.22.33-.33.11-.11.22-.22.22-.44v-.33c0-.22-.11-.44-.22-.66-.11-.11-.11-.22-.22-.22-.11-.22-.33-.33-.55-.33h0Z"/><path class="cls-25" d="m262.36,241.3h0c.11-.77-.22-1.43-.88-1.65-.66-.22-1.54.22-1.54.88v.11c-.11.66.22,1.43.88,1.54.55.22,1.43-.22,1.54-.88h0c.11-.77-.22-1.43-.88-1.65-.66-.22-1.54.22-1.54.88v.11c-.11.66.22,1.43.88,1.54.55.22,1.43-.22,1.54-.88h0Z"/><path class="cls-25" d="m265.88,241.41q0-.11,0,0c.11-.77-.22-1.43-.88-1.65-.66-.22-1.54.22-1.54.88v.11c-.11.66.22,1.43.88,1.54.55.11,1.43-.22,1.54-.88q0-.11,0,0c.11-.77-.22-1.43-.88-1.65-.66-.22-1.54.22-1.54.88v.11c-.11.66.22,1.43.88,1.54.55.11,1.43-.22,1.54-.88h0Z"/><path class="cls-25" d="m271.93,242.18h0c.66-.44.88-1.21.55-1.87-.33-.55-1.21-.88-1.76-.44h-.11c-.55.44-.88,1.1-.44,1.76.22.66,1.1.99,1.76.55h0c.66-.44.88-1.21.55-1.87-.33-.55-1.21-.88-1.76-.44h-.11c-.55.44-.88,1.1-.44,1.76.22.66,1.1.99,1.76.55h0Z"/><path class="cls-25" d="m274.13,242.28h.11c.22,0,.33.11.55,0,.22,0,.33-.11.44-.11.11-.11.22-.22.33-.33.11-.11.22-.22.22-.44v-.33c0-.22-.11-.44-.22-.66-.11-.11-.11-.22-.22-.22-.11-.11-.33-.22-.55-.33h-.11c-.22,0-.33-.11-.55,0-.22,0-.33.11-.44.11-.11.11-.22.22-.33.33-.11.11-.22.22-.22.44v.33c0,.22.11.44.22.66.11.11.11.22.22.22.11.11.33.22.55.33h0Z"/><path class="cls-25" d="m278.74,239.76h-.11c-.22,0-.33-.11-.55,0-.22,0-.33.11-.44.11-.11.11-.22.22-.33.33-.11.11-.22.22-.22.44v.33c0,.22.11.44.22.66.11.11.11.22.22.22.11.11.33.22.55.33h.11c.22,0,.33.11.55,0,.22,0,.33-.11.44-.11.11-.11.22-.22.33-.33.11-.11.22-.22.22-.44v-.33c0-.22-.11-.44-.22-.66-.11-.11-.11-.22-.22-.22-.11-.11-.33-.22-.55-.33h0Z"/><path class="cls-25" d="m281.82,241.96c1.65,0,1.65-2.64,0-2.64-1.65.11-1.65,2.64,0,2.64h0Z"/><path class="cls-25" d="m285.01,242.28c1.65,0,1.65-2.64,0-2.64-1.65,0-1.65,2.64,0,2.64h0Z"/><path class="cls-22" d="m96.57,285.93c-12.09-1.1-24.52.99-35.62,6.05-1.65.77-3.19,1.54-4.84,2.31,2.53-3.19,6.38-4.95,10.22-6.49-6.27.44-12.64.77-18.91,1.21,3.08-.66,6.05-1.76,8.8-3.19-7.81-3.63-16.82,1.21-25.4,1.54,13.41-4.51,27.7-6.6,41.89-6.05.11-1.32-.22-2.64-.88-3.85.77.77,1.76,1.65,2.86,1.76s2.42-.99,2.09-2.09c4.29,1.76,8.91,2.64,13.52,2.75,1.1,0,2.31,0,3.3.55-2.09,1.1-4.07,2.42-5.72,4.07,2.97.22,5.94.66,8.69,1.43Z"/><path class="cls-22" d="m137.14,389.71c-7.59,12.97-12.97,27.27-14.4,42.22-.55,6.27-.44,12.42-.33,18.69.22,9.23-4.51,46.39-6.16,53.65,9.89,2.64,25.62.11,35.95,0,4.18-34.3.22-69.7,9.67-102.9,1.54-5.5,3.52-11.1,3.52-16.82s-2.31-11.87-7.37-14.62c-1.65-.88-7.04-3.3-8.91-2.75-2.64.66-2.31,3.52-3.19,5.94-2.09,5.94-5.72,11.21-8.8,16.6Z"/><path class="cls-18" d="m328.77,511.86c-4.51,2.2-14.18,6.71-19.13,5.83-24.41-4.73-49.58-1.65-74.32-.66-30.67,1.32-73.22-1.54-103.89-3.41,4.07-23.09,9.13-45.52,9.23-68.93.11-18.14,4.51-36.28,12.75-52.44,3.52-6.82,7.7-13.63,8.58-21.33-.88,8.14,42.88,9.78,47.6,10.11,18.58,1.32,37.27,1.54,55.96.66,11.43-.55,24.08,1.32,34.19-5.5,2.53-1.65,5.06-3.96,8.14-3.96,7.59.11,7.7,12.2,8.25,17.37,1.43,14.18,2.75,28.36,3.85,42.66,1.1,14.18,11.43,78.28,8.8,79.6Z"/><path class="cls-16" d="m312.06,383.78c-30.23,7.81-62.12,4.4-93.01.22-18.47-2.53-36.83-5.28-55.19-8.47-6.71-1.1-13.41-1.98-20.01-.55.11-.11.22-.22.33-.33.88-3.41,1.87-6.71,1.76-10.33,1.87-1.65,4.62-1.32,7.04-.88,51.56,8.47,104.33,18.25,155.78,9.23,1.43,3.85,1.98,7.15,3.3,11.1Z"/><path class="cls-26" d="m212.78,371.24c-.44,4.29-.55,8.36-1.1,12.64-.66.88-1.43.88-2.09.88-2.75-.22-5.17-1.32-7.92-1.54.44-4.62.77-9.23,1.21-13.85.55-.11,1.21-.22,1.76-.11,2.86.11,5.39,1.76,8.14,1.98Z"/><path class="cls-16" d="m210.58,374.54c-.44-.22-1.32-.22-1.76.22.22-.22.44-.55.66-.77.33-.55-.44-.66-.88-.55-.55.11-.88.55-1.21.99-.11-.22-.11-.55-.33-.77-.44-.66-1.87-1.21-2.09-.11-.11.55.11,1.32.55,1.65-.33-.22-.66-.33-.99-.55-.66-.22-.55.66-.44.99s.44.55.77.77c-.22,0-.33.11-.55.11-.77.22-1.54,1.54-.55,1.98.44.22,1.32.22,1.76-.22-.22.22-.44.55-.66.77-.33.55.44.66.88.55.55-.11.88-.55,1.21-.99.11.22.11.55.33.77.44.66,1.87,1.21,2.09.11.11-.55-.11-1.32-.55-1.65.33.22.66.33.99.55.66.22.55-.66.44-.99s-.44-.55-.77-.77c.22,0,.33-.11.55-.11.77-.22,1.65-1.54.55-1.98Zm-3.41,2.53l-.33-.44.55-.66.33.44-.55.66Z"/><path class="cls-26" d="m187.27,367.84c-.44,4.4-.55,8.47-1.1,12.86-.66.88-1.32.88-1.98.88-2.75-.33-5.17-1.32-7.92-1.54.44-4.73.77-9.45,1.21-14.07.55-.11,1.21-.22,1.76-.11,2.75.11,5.28,1.76,8.03,1.98Z"/><path class="cls-16" d="m185.07,370.8c-.44-.22-1.32-.22-1.76.22.22-.22.44-.55.66-.77.33-.55-.44-.66-.88-.55-.55.11-.88.55-1.21.99-.11-.22-.11-.55-.33-.77-.44-.66-1.87-1.21-2.09-.11-.11.55.11,1.32.55,1.65-.33-.22-.55-.33-.99-.55-.66-.22-.55.66-.44.99s.44.55.77.77c-.22,0-.33.11-.55.11-.77.22-1.54,1.54-.55,1.98.44.22,1.32.22,1.76-.22-.22.22-.44.55-.66.77-.33.55.44.66.88.55.55-.11.88-.55,1.21-.99.11.22.11.55.33.77.44.66,1.87,1.21,2.09.11.11-.55-.11-1.32-.55-1.65.33.22.66.33.99.55.66.22.55-.66.44-.99s-.44-.55-.77-.77c.22,0,.33-.11.55-.11.77-.22,1.65-1.54.55-1.98Zm-3.41,2.53l-.33-.44.55-.66.33.44-.55.66Z"/><path class="cls-26" d="m219.71,374.21c-.55-.44-1.1-.66-1.76-.77.44-.55.99-.88,1.65-.99s2.31,0,3.3,1.1c1.54-.99,3.3-.55,4.62.66-1.32-.11-1.98-.11-2.97.77-.55.44-.99,1.21-.77,1.87-.66.33-1.43.55-2.09.44-.33,0-1.1.22-1.21-.11-.11-.22.33-.88.33-1.1,0-.88-.44-1.43-1.1-1.87Z"/><path class="cls-26" d="m224.32,383.89c.55.44,1.1.66,1.76.77-.44.55-.99.88-1.65.99s-2.31,0-3.3-1.1c-1.54.99-3.41.66-4.62-.55,1.32.11,2.09,0,2.97-.88.55-.44.99-1.21.77-1.87.66-.33,1.43-.55,2.2-.44.33,0,.88.22.99.55.11.22-.11.44-.11.66-.33.77.33,1.43.99,1.87Z"/><path class="cls-26" d="m227.18,376.74c.44-.55.66-1.1.77-1.76.55.44.88.99.99,1.65s0,2.31-1.1,3.3c.99,1.54.33,3.19-.99,4.4.11-1.32.33-1.76-.44-2.75-.44-.55-1.21-.99-1.87-.77-.33-.66-.55-1.43-.44-2.2,0-.33-.11-.66.22-.77.22-.11.88,0,1.1,0,.88-.11,1.32-.55,1.76-1.1Z"/><path class="cls-26" d="m216.96,381.69c-.44.55-.66,1.1-.77,1.76-.55-.44-.88-.99-.99-1.65s0-2.31,1.1-3.3c-.99-1.54-.44-3.3.77-4.62-.11,1.32-.11,1.98.66,2.97.44.55,1.21.99,1.87.77.33.66.55,1.43.44,2.2,0,.33.11.55-.22.66-.22.11-.66-.11-.99,0-.77.22-1.43.66-1.87,1.21Z"/><circle class="cls-26" cx="222.01" cy="379.16" r="2.97"/><path class="cls-26" d="m236.64,375.97c-.55-.44-1.1-.66-1.76-.77.44-.55.99-.88,1.65-.99s2.31,0,3.3,1.1c1.54-.99,3.3-.55,4.62.66-1.32-.11-1.98-.11-2.97.77-.55.44-.99,1.21-.77,1.87-.66.33-1.43.55-2.2.44-.33,0-1.1.22-1.21-.11-.11-.22.33-.88.33-1.1.11-.88-.44-1.43-.99-1.87Z"/><path class="cls-26" d="m241.14,385.76c.55.44,1.1.66,1.76.77-.44.55-.99.88-1.65.99s-2.31,0-3.3-1.1c-1.54.99-3.41.66-4.62-.55,1.32.11,2.09,0,2.97-.88.55-.44.99-1.21.77-1.87.66-.33,1.43-.55,2.2-.44.33,0,.88.22.99.55.11.22-.11.44-.11.66-.22.77.44,1.43.99,1.87Z"/><path class="cls-26" d="m244.11,378.5c.44-.55.66-1.1.77-1.76.55.44.88.99.99,1.65s0,2.31-1.1,3.3c.99,1.54.33,3.19-.99,4.4.11-1.32.33-1.76-.44-2.75-.44-.55-1.21-.99-1.87-.77-.33-.66-.55-1.43-.44-2.2,0-.33-.11-.66.22-.77.22-.11.88,0,1.1,0,.88,0,1.32-.55,1.76-1.1Z"/><path class="cls-26" d="m233.89,383.56c-.44.55-.66,1.1-.77,1.76-.55-.44-.88-.99-.99-1.65s0-2.31,1.1-3.3c-.99-1.54-.44-3.3.77-4.62-.11,1.32-.11,1.98.66,2.97.44.55,1.21.99,1.87.77.33.66.55,1.43.44,2.2,0,.33.11.55-.22.66-.22.11-.66-.11-.99,0-.77.11-1.43.55-1.87,1.21Z"/><circle class="cls-26" cx="238.95" cy="381.03" r="2.97"/><path class="cls-26" d="m148.57,363.88c-.55-.33-1.21-.66-1.87-.55.33-.55.99-.88,1.65-1.1s2.31-.22,3.41.88c1.43-1.1,3.3-.88,4.73.22-1.32,0-2.09.11-2.97.99-.55.55-.88,1.32-.66,1.98-.66.44-1.43.66-2.09.66-.33,0-1.1.33-1.21,0-.11-.22.33-.99.22-1.21,0-.88-.55-1.43-1.21-1.87Z"/><path class="cls-26" d="m154.07,373.33c.55.33,1.21.66,1.87.55-.33.55-.99.88-1.65,1.1s-2.31.22-3.41-.88c-1.43,1.1-3.3.99-4.73-.11,1.32,0,2.09-.22,2.97-1.21.55-.55.88-1.32.66-1.98.66-.44,1.43-.66,2.09-.66.33,0,.88.11.99.55.11.22-.11.44-.11.66,0,.99.66,1.54,1.32,1.98Z"/><path class="cls-26" d="m156.38,365.75c.33-.55.66-1.21.55-1.87.55.33.88.99,1.1,1.65s.22,2.31-.88,3.41c1.1,1.43.55,3.19-.55,4.51,0-1.32.22-1.87-.77-2.75-.55-.55-1.32-.88-1.98-.66-.44-.66-.66-1.43-.66-2.09,0-.33-.22-.66.11-.77.22-.11.88,0,1.1-.11,1.21-.22,1.54-.66,1.98-1.32Z"/><path class="cls-26" d="m146.49,371.79c-.33.55-.66,1.21-.55,1.87-.55-.33-.88-.99-1.1-1.65s-.22-2.31.88-3.41c-1.1-1.43-.77-3.3.33-4.73,0,1.32,0,1.98.99,2.86.55.55,1.32.88,1.98.66.44.66.66,1.43.66,2.09,0,.33.11.55-.22.66-.22.11-.66,0-.99.11-.88.33-1.54.88-1.98,1.54Z"/><circle class="cls-26" cx="151.43" cy="368.83" r="3.08"/><path class="cls-26" d="m164.19,365.86c-.55-.33-1.1-.66-1.76-.77.44-.55.99-.77,1.65-.88.66-.11,2.31,0,3.19,1.1,1.43-.99,3.3-.55,4.51.66-1.21-.11-1.98-.11-2.97.77-.55.44-.99,1.21-.77,1.87-.66.33-1.43.55-2.09.44-.33,0-1.1.22-1.1-.11-.11-.22.33-.88.33-1.1.11-.99-.33-1.54-.99-1.98Z"/><path class="cls-26" d="m168.69,375.31c.55.33,1.1.66,1.76.77-.44.55-.99.77-1.65.88-.66.11-2.31,0-3.19-1.1-1.43.99-3.3.66-4.51-.55,1.21.11,1.98,0,2.97-.88.55-.44.99-1.21.77-1.87.66-.33,1.43-.55,2.09-.44.33,0,.88.22.88.55.11.22-.11.44-.11.66-.22.99.33,1.54.99,1.98Z"/><path class="cls-26" d="m171.55,368.28c.33-.55.66-1.1.77-1.76.55.44.77.99.88,1.65.11.66,0,2.31-1.1,3.19.99,1.43.33,3.08-.88,4.29.11-1.21.33-1.76-.44-2.75-.44-.55-1.21-.99-1.87-.77-.33-.66-.55-1.43-.44-2.09,0-.33-.11-.66.22-.77.22-.11.77,0,.99,0,.99.11,1.43-.33,1.87-.99Z"/><path class="cls-26" d="m161.55,373.22c-.33.55-.66,1.1-.77,1.76-.55-.44-.77-.99-.88-1.65-.11-.66,0-2.31,1.1-3.19-.99-1.43-.44-3.19.77-4.51-.11,1.21-.11,1.87.66,2.86.44.55,1.21.99,1.87.77.33.66.55,1.43.44,2.09,0,.33.11.55-.22.66-.22.11-.66-.11-.99,0-.88.22-1.54.55-1.98,1.21Z"/><circle class="cls-26" cx="166.49" cy="370.8" r="2.97"/><path class="cls-26" d="m192.44,370.59c-.44-.33-.99-.66-1.65-.66.33-.44.88-.77,1.54-.88.55-.11,2.09,0,2.97.99,1.32-.88,2.97-.55,4.18.66-1.1-.11-1.76-.11-2.64.66-.55.44-.88,1.1-.77,1.65-.55.33-1.21.44-1.87.33-.33,0-.99.22-1.1-.11-.11-.22.33-.77.33-.99,0-.77-.44-1.21-.99-1.65Z"/><path class="cls-26" d="m196.51,379.27c.44.33.99.66,1.65.66-.33.44-.88.77-1.54.88-.55.11-2.09,0-2.97-.99-1.32.88-2.97.66-4.18-.55,1.1.11,1.87,0,2.64-.77.55-.44.88-1.1.77-1.65.55-.33,1.21-.44,1.87-.33.33,0,.77.22.88.55.11.22-.11.44-.11.55-.11.66.44,1.32.99,1.65Z"/><path class="cls-26" d="m199.15,372.78c.33-.44.66-.99.66-1.65.44.33.77.88.88,1.54.11.55,0,2.09-.99,2.97.88,1.32.22,2.75-.88,3.96.11-1.1.33-1.65-.44-2.53-.44-.55-1.1-.88-1.65-.77-.33-.55-.44-1.21-.33-1.87,0-.33-.11-.55.22-.66.22-.11.77,0,.99,0,.66,0,1.1-.44,1.54-.99Z"/><path class="cls-26" d="m190.02,377.29c-.33.44-.66.99-.66,1.65-.44-.33-.77-.88-.88-1.54-.11-.55,0-2.09.99-2.97-.88-1.32-.44-2.97.66-4.07-.11,1.1-.11,1.76.55,2.64.44.55,1.1.88,1.65.77.33.55.44,1.21.33,1.87,0,.33.11.55-.22.55-.22.11-.55-.11-.88,0-.55.22-1.21.55-1.54,1.1Z"/><circle class="cls-26" cx="194.53" cy="375.09" r="2.64"/><path class="cls-26" d="m160.67,385.1c0,2.31.33,4.62.55,6.93.22,2.97.22,6.05.22,9.13,0,.33,0,.77.11,1.1.11.22.22.44.44.66.66.77,1.32,1.54,1.98,2.31-.22-.99,1.1-1.54,1.32-2.42.11-.22.11-.55,0-.77-.33-8.69-2.09-17.48-.22-26.06-.77,0-2.42-.33-2.97.22-.44.33-.55,1.54-.66,2.09-.22,1.21-.44,2.53-.55,3.74-.22.99-.22,1.98-.22,3.08Z"/><path class="cls-26" d="m164.74,385.1c0,2.53.33,4.95.66,7.48.44,2.75.44,5.72.44,8.47,0,.33,0,.77.11,1.1.11.22.22.44.44.55.66.77,1.32,1.54,1.98,2.31-.22-.99.99-1.54,1.32-2.53.11-.22,0-.55,0-.77-.33-4.4-.77-8.8-1.21-13.19-.22-2.09-.44-4.18-.44-6.27,0-.55.33-6.49.77-6.49-.77,0-2.42-.22-2.97.22-.66.55-.55,1.98-.66,2.75-.22,1.54-.33,2.97-.44,4.51v1.87Z"/><path class="cls-9" d="m263.02,366.52c-.22,0-.55-.11-.88-.11-3.3-.55-6.93.11-10,1.43-2.53,1.1-4.84,2.86-7.59,3.52-2.31.55-4.73.44-6.93-.55-.66-.33-1.32-.66-1.98-.55-1.1.11-1.76,1.32-1.76,2.42s.66,2.09,1.32,2.86c2.31,2.64,5.61,4.18,9.13,4.51,3.41.22,6.93-.77,9.89-2.64-1.87,2.31-4.4,4.07-7.15,5.17-3.41,1.43-7.26,1.65-10.33,3.74-.77.44-1.43,1.1-2.2,1.43s-1.54.33-2.42.55c-1.32.22-2.64.77-3.85,1.65-.99.66-1.76,1.54-2.09,2.64s-.11,2.42.77,3.19c.99.88,2.53.66,3.85.44,6.27-1.1,12.42-2.42,18.58-3.96-3.96,1.1-8.14,2.31-11.98,3.41-2.42.66-4.95,1.43-7.37,2.2-2.2.77-4.62,1.65-5.94,3.63-.33.55-.66,1.21-.55,1.87.11,1.43,1.43,2.42,2.86,2.64,1.43.22,2.75-.22,4.18-.55,1.98-.55,3.96-.88,5.94-1.32,6.71-1.43,13.52-2.86,20.23-4.29-3.08,1.65-6.05,2.97-9.23,4.51-1.54.77-3.52,1.65-4.95.55-.33-.22-.66-.55-.99-.77-1.1-.66-2.75.22-3.08,1.43-.44,1.21.11,2.64.88,3.63.99,1.32,2.53,2.31,4.07,2.75,1.32.33,2.75.22,4.18.11,2.2-.11,4.29-.33,6.38-.99,1.32-.44,2.64-1.21,3.85-1.98,1.32-.77,2.75-1.54,4.07-2.42-4.07,2.09-7.81,3.96-12.09,5.17,3.63,2.09,8.8,3.41,12.42,1.32,1.65-.99,3.08-2.31,4.51-3.52,4.4-4.07,9.13-7.81,14.07-11.1,3.96-2.75,8.25-5.72,11.32-9.34.99-1.21,1.98-2.53,3.08-3.74,1.43-1.54,3.08-2.86,4.84-4.18,3.63-2.75,7.48-5.17,11.32-7.37.22-.11.44-.22.55-.44.33-.55.11-1.21-.11-1.76-3.19-6.71-7.26-12.97-11.98-18.69-6.6,3.52-13.19,7.04-19.79,10.55-2.64,1.43-5.39,2.86-8.25,3.63-3.3.55-5.83-.11-8.8-.66Z"/><path class="cls-11" d="m236.2,371.79c.55.33,1.1.55,1.65.77.33.11.66.11.88.11.66-.11.99-.77,1.21-1.32-.88-.22-1.65-.55-2.53-.88-.11,0-.44-.22-.55-.22s-.11.44-.22.55c0,.11-.44,1.1-.44.99Z"/><path class="cls-11" d="m227.51,392.46c.66-.22,1.32-.33,1.87-.22.22.11.44.22.66.44.11.11.22.33.22.55.11.44.22.88.22,1.21-.11.44-.44.88-.88,1.1s-.88.33-1.43.44c-.44.11-.88.22-1.32,0-.44-.22-.66-.77-.77-1.32-.11-.44-.55-1.32-.22-1.76.22-.22,1.21-.22,1.65-.44Z"/><path class="cls-11" d="m225.97,401.48c.55-.11,1.21-.22,1.65,0,.66.33.88,1.32.55,1.98-.33.66-.99,1.21-1.65,1.54-.33.11-.55.33-.88.44s-.66.22-.99.11c-.44-.11-.77-.55-.88-.99-.22-.55-.88-1.76-.33-2.2.22-.22.88-.33,1.1-.44.55-.22.99-.33,1.43-.44Z"/><path class="cls-11" d="m239.17,405.44c.11.22.11.44.11.66,0,.66-.33,1.1-.77,1.54-.22-.44-.22-.99-.33-1.43,0-.33,0-.66.11-.99.11-.22.22-.66.55-.55.22,0,.22.55.33.77Z"/><path class="cls-12" d="m250.71,411.7s3.74.22,10-4.51c0,0-3.52,6.82-10,4.51Z"/><path class="cls-18" d="m325.8,193.8c-.33,2.64-1.43,5.17-1.98,7.81-.77,3.85-.11,7.81.11,11.76.88,12.64-1.87,25.29-4.4,37.71-1.76,8.25-8.14,48.04-7.04,56.4.77,5.94-1.65,19.9-4.95,23.86-3.3,3.85-29.46,13.96-39.58,15.94,15.28,14.51,26.28,33.42,31.22,53.87.77,3.19,1.21,6.93-1.1,9.23-2.97,2.97-8.03.99-11.43-1.54-2.97-2.2-5.72-4.62-8.14-7.37-.55.66-1.1,1.21-1.76,1.87,3.85,4.29,7.92,8.91,13.41,10.55,7.26,2.2,14.84-1.21,21.66-4.51,10.66-5.06,21.22-10.22,31.88-15.28,5.06-2.42,10.22-4.95,14.84-8.36,10.55-7.81,17.26-20.34,19.35-33.31.99-6.27,6.05-33.53,5.17-39.8-6.82-45.08-37.82-120.05-44.97-129.18-1.98-2.53-8.58-9.23-11.98-7.15-3.41,2.42.11,14.07-.33,17.48Z"/><path class="cls-22" d="m309.09,325.62c3.52,2.2,6.93,4.4,10.44,6.6-.77-1.54-1.54-2.97-2.42-4.51,12.09,8.14,24.41,16.38,38.04,21.77-12.31-7.48-23.75-16.16-34.3-25.95,3.63,1.43,7.37,2.75,10.99,4.18-5.06-3.85-10.11-7.7-15.17-11.54.66-.11,1.32-.66,1.43-1.32-2.42-2.97-6.27-4.95-6.71-.22,0,.44-.11,12.31-2.31,10.99Z"/><path class="cls-10" d="m209.81,173.9c-.33,2.09-.77,4.18-1.43,6.27-.33.99-.77,1.98-1.65,2.42-.77.33-1.76.22-2.64.22-2.31,0-5.61.44-6.93,2.31-1.43,1.87-2.75,3.63-4.07,5.61-1.1,1.65-2.42,6.49-2.31,4.51.77-14.95-2.97-23.42-1.32-27.16.33-.88.77-1.76,1.54-2.42,1.32-1.1,3.3-.99,4.73-1.98,2.86-1.98,1.87-6.16,1.87-9.23v-21.55h52.66v20.89l-12.42,18.8-40.24,8.14v-20.34"/><path class="cls-9" d="m232.57,45.16l-1.54,95.76c0,3.85-2.09,6.38-5.5,6.93-.55.11-1.1.11-1.76.11h-2.31l-8.36-.22c-2.2,0-5.5-1.76-7.04-3.3l-17.48-17.92c-1.54-1.54-3.52-5.83-3.52-8.03l-.66-14.73c0-2.2-.88-4.29-2.42-5.83-1.54-1.54-2.42-3.63-2.42-5.83v-3.74c0-1.43,1.1-4.51,2.53-8.14,1.32-3.52,2.75-8.36,2.75-10.55l.55-24.96c0-4.62,3.74-8.25,8.25-8.25h30.78c4.62.33,8.25,4.07,8.14,8.69Z"/><path class="cls-9" d="m266.76,88.48v3.74c0,2.2-.88,4.29-2.42,5.83-1.54,1.54-2.42,3.63-2.42,5.83l-2.09,17.26c0,2.2-.88,4.29-2.42,5.83l-17.7,17.92c-1.54,1.54-4.29,2.97-6.49,2.97l-7.59-.11h-2.53c-.55,0-1.1,0-1.65-.11-3.63-.55-6.05-2.86-6.05-6.82l-1.54-95.76c-.11-4.62,3.63-8.36,8.25-8.36h30.67c4.51,0,8.25,3.74,8.25,8.25l.55,24.96c0,2.2,1.32,6.93,2.75,10.55,1.32,3.52,2.42,6.6,2.42,8.03Z"/><path class="cls-9" d="m178.26,79.9c-1.43-.88-2.75-1.32-4.51,0-1.54,1.1-1.98,2.64-1.32,4.62.55,1.54,1.21,2.53,1.98,3.96.99,1.76,1.65,3.63,1.87,5.61.11,1.1.11,2.2.33,3.3.44,1.98,1.54,3.63,2.64,5.28.77,1.1,1.54,2.2,2.31,3.3.66.99,1.65,2.09,2.86,1.87.99-.22,1.54-1.43,1.54-2.53.22-4.07-3.52-7.37-3.85-11.43-.22-2.75.99-5.28.99-7.92,0-2.2-1.87-3.74-3.41-4.95-.55-.44-.99-.77-1.43-1.1Z"/><path class="cls-9" d="m267.53,79.9c1.43-.88,2.75-1.32,4.51,0,1.54,1.1,1.98,2.64,1.32,4.62-.55,1.54-1.21,2.53-1.98,3.96-.99,1.76-1.65,3.63-1.87,5.61-.11,1.1-.11,2.2-.33,3.3-.44,1.98-1.54,3.63-2.64,5.28-.77,1.1-1.54,2.2-2.31,3.3-.66.99-1.65,2.09-2.86,1.87-.99-.22-1.54-1.43-1.54-2.53-.22-4.07,3.52-7.37,3.85-11.43.22-2.75-.99-5.28-.99-7.92,0-2.2,1.87-3.74,3.41-4.95.44-.44.99-.77,1.43-1.1Z"/><path class="cls-8" d="m224.54,36.7h0c-.11.77-.22,1.43-.44,2.2-1.1,4.84-2.86,9.78-1.87,14.73l-1.98,5.61c.66,4.29.99,8.58,1.21,12.86.11,1.76.11,3.52-.44,5.17-.44,1.32-.88,2.75-1.43,4.07-1.1,2.31-2.42,4.4-2.64,6.93-.33,4.51.11,9.45-.22,14.07,0,.77-1.43,1.21-1.21,1.98.44,1.32,3.08,2.42,4.07,3.52,2.2,2.42,2.31,6.05,2.42,9.23v8.14c0,3.85,0,7.7-.33,11.54-.33,3.63-.88,7.37-.11,10.77,0,.11,0,.22.11.33l-8.36-.22c-2.2,0-5.5-1.76-7.04-3.3l-17.48-17.92c-1.54-1.54-3.52-5.83-3.52-8.03l-.66-14.73c0-2.2-.88-4.29-2.42-5.83-1.54-1.54-2.42-3.63-2.42-5.83v-3.74c0-1.43,1.1-4.51,2.53-8.14,1.32-3.52,2.75-8.36,2.75-10.55l.55-24.96c0-4.62,3.74-8.25,8.25-8.25h30.67v.33Z"/><path class="cls-15" d="m261.04,73.53c.88,2.53,2.2,4.95,2.53,7.59.44,3.3-.55,6.6-1.65,9.78.33.44,1.1-.11,1.21-.77.77-2.64.44-5.83,2.2-7.92.88-.99,1.98-1.54,2.86-2.42,1.87-2.2.99-5.5.22-8.25-1.32-4.84-1.98-9.78-1.98-14.84s-5.5-2.42-6.49.77c-1.32,5.17-.66,11.21,1.1,16.05Z"/><path class="cls-15" d="m178.37,78.36v.99c.33,1.21,2.09,1.54,2.53,2.75.66,1.65-1.43,3.41-.99,5.17,2.86-2.75,4.73-6.49,5.72-10.33,1.1-3.85,1.43-7.81,1.87-11.76,0-.44.11-.88-.11-1.32-.33-.77-1.32-.99-2.09-1.1-3.3-.33-6.05-.77-6.38,3.08-.22,4.07-.33,8.36-.55,12.53Z"/><path class="cls-24" d="m221.35,72.65c.33,1.87.66,3.96,0,5.94-.66,2.09-2.2,3.41-2.75,5.17-.66,1.76-.33,3.74-.44,5.61-.11,3.96-.33,7.92-1.21,11.76-.11.88-.77,2.2-.66,2.86,3.52,2.75,8.36.66,12.53.88v.77c-3.96.55-7.92,2.42-11.87.77-1.1-.44-2.64-1.32-2.53-2.86.77-2.97,1.54-5.5,1.87-8.58.33-2.86.55-5.83.55-8.69,0-2.09.99-4.18,2.2-5.72,1.98-2.2,2.09-5.06,1.76-8.03.11.11.55.11.55.11h0Z"/><g class="cls-30"><path class="cls-14" d="m249.28,113c.33-4.29,2.64-8.25,6.16-10.66"/><path class="cls-14" d="m197.06,116.84c-.33-4.29-2.64-8.25-6.16-10.66"/></g><path class="cls-28" d="m239.93,82.76c-.88,0-1.76-.44-2.42-1.1-1.21-1.32-1.21-3.41.11-4.73.66-.55,1.43-.88,2.31-.88s1.76.44,2.42,1.1.88,1.54.88,2.42-.44,1.76-1.1,2.31c-.55.55-1.32.88-2.2.88h0Z"/><path class="cls-24" d="m239.93,76.17c.88,0,1.76.33,2.42.99,1.21,1.32,1.21,3.41-.11,4.62-.66.55-1.43.88-2.2.88-.88,0-1.76-.33-2.42-.99-1.21-1.32-1.21-3.41.11-4.62.66-.55,1.43-.88,2.2-.88m0-.11c-.88,0-1.65.33-2.31.88-.66.66-1.1,1.43-1.1,2.42s.33,1.76.88,2.42c.66.66,1.54,1.1,2.53,1.1.88,0,1.65-.33,2.31-.88,1.43-1.32,1.43-3.41.11-4.84-.55-.77-1.43-1.1-2.42-1.1h0Z"/><circle class="cls-13" cx="239.93" cy="79.46" r="3.08"/><g class="cls-31"><g class="cls-7"><polygon class="cls-28" points="240.37 78.69 240.81 76.72 240.04 78.69 240.37 78.69"/><polygon class="cls-28" points="239.5 78.69 238.18 77.16 239.28 78.8 239.5 78.69"/><polygon class="cls-28" points="238.84 79.02 238.07 78.8 238.73 79.35 238.84 79.02"/><path class="cls-28" d="m240.92,79.24c.22,0,.33,0,.44-.11l.33-.11.66-.33-.66.11-.33.11h-.22l-.22.33Z"/><polygon class="cls-28" points="240.92 78.91 241.69 78.25 240.7 78.69 240.92 78.91"/><polygon class="cls-28" points="240.04 78.58 239.82 76.28 239.71 78.58 240.04 78.58"/><path class="cls-28" d="m240.81,80.23c.44.22.88.33,1.32.33-.44-.11-.88-.33-1.21-.66l-.11.33Z"/><polygon class="cls-28" points="239.71 78.36 239.06 77.48 239.38 78.47 239.71 78.36"/><path class="cls-28" d="m239.06,78.8c-.33-.11-.55-.33-.77-.55.11.33.33.55.66.88l.11-.33Z"/><path class="cls-28" d="m240.92,79.79c.33.11.66,0,.88-.11-.33,0-.55-.11-.77-.22l-.11.33Z"/><polygon class="cls-28" points="240.81 78.69 241.25 77.81 240.48 78.47 240.81 78.69"/><polygon class="cls-28" points="239.06 79.24 236.86 79.13 238.95 79.68 239.06 79.24"/><polygon class="cls-28" points="239.06 80.12 237.74 81.66 239.28 80.34 239.06 80.12"/><polygon class="cls-28" points="239.5 80.78 239.38 81.55 239.82 80.89 239.5 80.78"/><path class="cls-28" d="m239.5,78.69c0-.22-.11-.33-.11-.44l-.22-.33-.33-.55.22.66.11.33c0,.11.11.22,0,.22l.33.11Z"/><polygon class="cls-28" points="239.17 78.69 238.29 78.03 238.84 78.91 239.17 78.69"/><polygon class="cls-28" points="238.95 79.57 236.64 80.12 238.95 80.01 238.95 79.57"/><path class="cls-28" d="m240.37,78.58c.11-.44.22-.99.22-1.43-.11.44-.22.88-.44,1.21l.22.22Z"/><polygon class="cls-28" points="238.73 80.01 237.85 80.78 238.95 80.23 238.73 80.01"/><path class="cls-28" d="m239.28,80.56c-.11.33-.22.55-.44.88.33-.22.55-.44.77-.66l-.33-.22Z"/><path class="cls-28" d="m239.93,78.58c0-.33,0-.66-.22-.88.11.33,0,.55-.11.77l.33.11Z"/><polygon class="cls-28" points="238.84 78.91 237.96 78.58 238.73 79.13 238.84 78.91"/><polygon class="cls-28" points="239.71 80.56 239.82 82.65 240.04 80.56 239.71 80.56"/><polygon class="cls-28" points="240.48 80.45 242.24 81.55 240.81 80.12 240.48 80.45"/><polygon class="cls-28" points="241.14 79.9 241.91 79.9 241.14 79.57 241.14 79.9"/><path class="cls-28" d="m239.06,80.12c-.22,0-.33.11-.33.22l-.33.22-.55.44.66-.33.33-.11c.11,0,.22-.11.22-.11v-.33Z"/><polygon class="cls-28" points="239.17 80.45 238.51 81.44 239.38 80.67 239.17 80.45"/><polygon class="cls-28" points="240.04 80.56 240.81 82.87 240.37 80.56 240.04 80.56"/><path class="cls-28" d="m238.95,79.24c-.44-.11-.99-.11-1.43,0,.44,0,.88.11,1.32.33l.11-.33Z"/><polygon class="cls-28" points="240.48 80.78 241.25 81.44 240.7 80.56 240.48 80.78"/><path class="cls-28" d="m241.03,80.12c.33,0,.66.11.88.33-.22-.22-.44-.44-.77-.66l-.11.33Z"/><path class="cls-28" d="m238.84,79.68c-.33,0-.66.11-.88.33.33-.11.55-.11.77,0l.11-.33Z"/><polygon class="cls-28" points="239.28 80.67 239.17 81.66 239.6 80.78 239.28 80.67"/><polygon class="cls-28" points="240.92 79.68 242.9 79.24 240.81 79.35 240.92 79.68"/><polygon class="cls-28" points="240.7 78.91 241.58 77.05 240.37 78.69 240.7 78.91"/><polygon class="cls-28" points="240.04 78.36 239.93 77.59 239.71 78.36 240.04 78.36"/><path class="cls-28" d="m240.59,80.34q.11.22.22.33l.22.22.55.44-.33-.55-.22-.33c-.11-.11-.11-.22-.11-.22l-.33.11Z"/><polygon class="cls-28" points="240.92 80.34 241.91 80.78 241.14 80.01 240.92 80.34"/><polygon class="cls-28" points="240.92 79.35 243.01 78.25 240.81 79.02 240.92 79.35"/><path class="cls-28" d="m239.71,80.67c0,.44,0,.99.22,1.43,0-.44,0-.88.11-1.32l-.33-.11Z"/><polygon class="cls-28" points="241.03 78.91 241.58 78.03 240.7 78.69 241.03 78.91"/><path class="cls-28" d="m240.26,78.47c0-.33.11-.66.22-.99-.22.22-.44.55-.55.88l.33.11Z"/><path class="cls-28" d="m240.15,80.67c0,.33.22.66.44.77-.11-.22-.11-.55-.11-.77h-.33Z"/><polygon class="cls-28" points="241.14 80.01 242.02 80.12 241.14 79.68 241.14 80.01"/><polygon class="cls-28" points="239.82 78.69 239.17 76.61 239.5 78.69 239.82 78.69"/><polygon class="cls-28" points="239.17 79.02 237.19 78.25 238.95 79.24 239.17 79.02"/><polygon class="cls-28" points="238.73 79.68 237.96 79.79 238.73 80.01 238.73 79.68"/><path class="cls-28" d="m240.59,78.8c.22-.11.22-.22.33-.33l.22-.33.44-.55-.55.44-.22.22c-.11.11-.22.11-.22.11v.44Z"/><polyline class="cls-28" points="240.81 77.48 240.15 78.36 240.48 78.58 240.81 77.48"/><polygon class="cls-28" points="239.5 78.69 238.18 76.72 239.28 78.8 239.5 78.69"/><path class="cls-28" d="m241.03,79.68c.44,0,.99-.22,1.32-.33-.44.11-.88.11-1.32,0v.33Z"/><polygon class="cls-28" points="239.17 78.58 238.07 78.14 238.95 78.91 239.17 78.58"/><path class="cls-28" d="m238.73,79.35c-.33,0-.66,0-.99-.11.33.22.55.33.99.44v-.33Z"/><path class="cls-28" d="m240.92,79.24c.33-.11.55-.33.77-.55-.22.11-.55.22-.77.22v.33Z"/><polygon class="cls-28" points="240.26 78.36 240.15 77.48 239.82 78.36 240.26 78.36"/></g></g><circle class="cls-20" cx="239.38" cy="79.35" r="1.65"/><circle class="cls-21" cx="239.5" cy="79.79" r=".33"/><circle class="cls-21" cx="240.26" cy="79.24" r=".66"/><path class="cls-2" d="m252.58,81c-1.54.11-2.86-.99-4.07-1.87-4.51-3.08-10.55-3.63-15.5-1.32"/><path class="cls-2" d="m239.28,76.39c-3.85.99-4.51,3.85-7.26,4.95-.55.22-1.21.55-1.32,1.1.44.22.99.11,1.54.11,1.98-.22,3.96.66,5.94,1.1,3.63.88,7.48.33,10.77-1.32"/><path class="cls-28" d="m200.91,82.76c-.88,0-1.76-.44-2.42-1.1s-.88-1.54-.88-2.42.44-1.76,1.1-2.31,1.43-.88,2.31-.88,1.76.44,2.42,1.1.88,1.54.88,2.42-.44,1.76-1.1,2.31c-.66.55-1.43.88-2.31.88h0Z"/><path class="cls-24" d="m200.91,76.17c.88,0,1.76.33,2.42.99,1.21,1.32,1.21,3.41-.11,4.62-.66.55-1.43.88-2.2.88-.88,0-1.76-.33-2.42-.99-1.21-1.32-1.21-3.41.11-4.62.55-.55,1.43-.88,2.2-.88m0-.11c-.88,0-1.65.33-2.31.88-.66.66-1.1,1.43-1.1,2.42s.33,1.76.88,2.42c.66.66,1.54,1.1,2.53,1.1.88,0,1.65-.33,2.31-.88.66-.66,1.1-1.43,1.1-2.42,0-.88-.33-1.76-.88-2.42-.66-.77-1.54-1.1-2.53-1.1h0Z"/><circle class="cls-13" cx="200.91" cy="79.46" r="3.08"/><g class="cls-31"><g class="cls-29"><polygon class="cls-28" points="201.24 78.69 201.68 76.72 200.91 78.69 201.24 78.69"/><polygon class="cls-28" points="200.47 78.69 199.15 77.16 200.14 78.8 200.47 78.69"/><polygon class="cls-28" points="199.81 79.02 199.04 78.8 199.7 79.35 199.81 79.02"/><path class="cls-28" d="m201.79,79.24c.22,0,.33,0,.44-.11l.33-.11.66-.33-.66.11-.33.11h-.22l-.22.33Z"/><polygon class="cls-28" points="201.9 78.91 202.67 78.25 201.68 78.69 201.9 78.91"/><polygon class="cls-28" points="201.02 78.58 200.8 76.28 200.69 78.58 201.02 78.58"/><path class="cls-28" d="m201.79,80.23c.44.22.88.33,1.32.33-.44-.11-.88-.33-1.21-.66l-.11.33Z"/><polygon class="cls-28" points="200.69 78.36 200.03 77.48 200.36 78.47 200.69 78.36"/><path class="cls-28" d="m199.92,78.8c-.33-.11-.55-.33-.77-.55.11.33.33.55.66.88l.11-.33Z"/><path class="cls-28" d="m201.9,79.79c.33.11.66,0,.88-.11-.33,0-.55-.11-.77-.22l-.11.33Z"/><polygon class="cls-28" points="201.79 78.69 202.12 77.81 201.46 78.47 201.79 78.69"/><polygon class="cls-28" points="199.92 79.24 197.83 79.13 199.92 79.68 199.92 79.24"/><polygon class="cls-28" points="199.92 80.12 198.6 81.66 200.25 80.34 199.92 80.12"/><polygon class="cls-28" points="200.47 80.78 200.25 81.55 200.8 80.89 200.47 80.78"/><path class="cls-28" d="m200.47,78.69c0-.22-.11-.33-.11-.44l-.22-.33-.33-.55.22.66.11.33c0,.11.11.22,0,.22l.33.11Z"/><polygon class="cls-28" points="200.14 78.69 199.26 78.03 199.81 78.91 200.14 78.69"/><polygon class="cls-28" points="199.81 79.57 197.5 80.12 199.92 80.01 199.81 79.57"/><path class="cls-28" d="m201.35,78.58c.11-.44.22-.99.22-1.43-.11.44-.22.88-.44,1.21l.22.22Z"/><polygon class="cls-28" points="199.7 80.01 198.82 80.78 199.81 80.23 199.7 80.01"/><path class="cls-28" d="m200.25,80.56c-.11.33-.22.55-.44.88.33-.22.55-.44.77-.66l-.33-.22Z"/><path class="cls-28" d="m200.91,78.58c0-.33,0-.66-.22-.88.11.33,0,.55-.11.77l.33.11Z"/><polygon class="cls-28" points="199.81 78.91 198.93 78.58 199.7 79.13 199.81 78.91"/><polygon class="cls-28" points="200.69 80.56 200.8 82.65 201.02 80.56 200.69 80.56"/><polygon class="cls-28" points="201.46 80.45 203.1 81.55 201.68 80.12 201.46 80.45"/><polygon class="cls-28" points="202.01 79.9 202.88 79.9 202.12 79.57 202.01 79.9"/><path class="cls-28" d="m200.03,80.12c-.22,0-.33.11-.33.22l-.33.22-.55.44.66-.33.33-.11c.11,0,.22-.11.22-.11v-.33Z"/><polygon class="cls-28" points="200.03 80.45 199.48 81.44 200.36 80.67 200.03 80.45"/><polygon class="cls-28" points="201.02 80.56 201.79 82.87 201.35 80.56 201.02 80.56"/><path class="cls-28" d="m199.81,79.24c-.44-.11-.99-.11-1.43,0,.44,0,.88.11,1.32.33l.11-.33Z"/><polygon class="cls-28" points="201.35 80.78 202.23 81.44 201.68 80.56 201.35 80.78"/><path class="cls-28" d="m201.9,80.12c.33,0,.66.11.88.33-.22-.22-.44-.44-.77-.66l-.11.33Z"/><path class="cls-28" d="m199.81,79.68c-.33,0-.66.11-.88.33.33-.11.55-.11.77,0l.11-.33Z"/><polygon class="cls-28" points="200.25 80.67 200.03 81.66 200.58 80.78 200.25 80.67"/><polygon class="cls-28" points="201.79 79.68 203.87 79.24 201.79 79.35 201.79 79.68"/><polygon class="cls-28" points="201.57 78.91 202.56 77.05 201.35 78.69 201.57 78.91"/><polygon class="cls-28" points="201.02 78.36 200.91 77.59 200.69 78.36 201.02 78.36"/><path class="cls-28" d="m201.57,80.34q.11.22.22.33l.22.22.55.44-.33-.55-.22-.33c-.11-.11-.11-.22-.11-.22l-.33.11Z"/><polygon class="cls-28" points="201.9 80.34 202.78 80.78 202.01 80.01 201.9 80.34"/><polygon class="cls-28" points="201.79 79.35 203.98 78.25 201.68 79.02 201.79 79.35"/><path class="cls-28" d="m200.69,80.67c0,.44,0,.99.22,1.43,0-.44,0-.88.11-1.32l-.33-.11Z"/><polygon class="cls-28" points="201.9 78.91 202.56 78.03 201.68 78.69 201.9 78.91"/><path class="cls-28" d="m201.24,78.47c0-.33.11-.66.22-.99-.22.22-.44.55-.55.88l.33.11Z"/><path class="cls-28" d="m201.13,80.67c0,.33.22.66.44.77-.11-.22-.11-.55-.11-.77h-.33Z"/><polygon class="cls-28" points="202.01 80.01 202.99 80.12 202.12 79.68 202.01 80.01"/><polygon class="cls-28" points="200.8 78.69 200.14 76.61 200.47 78.69 200.8 78.69"/><polygon class="cls-28" points="200.03 79.02 198.16 78.25 199.92 79.24 200.03 79.02"/><polygon class="cls-28" points="199.7 79.68 198.82 79.79 199.7 80.01 199.7 79.68"/><path class="cls-28" d="m201.57,78.8c.22-.11.22-.22.33-.33l.22-.33.44-.55-.55.44-.22.22c-.11.11-.22.11-.22.11v.44Z"/><polyline class="cls-28" points="201.79 77.48 201.13 78.36 201.46 78.58 201.79 77.48"/><polygon class="cls-28" points="200.47 78.69 199.15 76.72 200.14 78.8 200.47 78.69"/><path class="cls-28" d="m201.9,79.68c.44,0,.99-.22,1.32-.33-.44.11-.88.11-1.32,0v.33Z"/><polygon class="cls-28" points="200.03 78.58 199.04 78.14 199.92 78.91 200.03 78.58"/><path class="cls-28" d="m199.7,79.35c-.33,0-.66,0-.99-.11.33.22.55.33.99.44v-.33Z"/><path class="cls-28" d="m201.9,79.24c.33-.11.55-.33.77-.55-.22.11-.55.22-.77.22v.33Z"/><polygon class="cls-28" points="201.13 78.36 201.13 77.48 200.8 78.36 201.13 78.36"/></g></g><circle class="cls-20" cx="200.36" cy="79.35" r="1.65"/><circle class="cls-21" cx="200.47" cy="79.79" r=".33"/><circle class="cls-21" cx="201.24" cy="79.24" r=".66"/><path class="cls-2" d="m213.55,81c-1.54.11-2.86-.99-4.07-1.87-4.51-3.08-10.55-3.63-15.5-1.32"/><path class="cls-2" d="m200.25,76.39c-3.85.99-4.51,3.85-7.26,4.95-.55.22-1.21.55-1.32,1.1.44.22.99.11,1.54.11,1.98-.22,3.96.66,5.94,1.1,3.63.88,7.48.33,10.77-1.32"/><path class="cls-17" d="m223.22,124.87l-3.08-2.86s-1.21-1.21-1.32-1.21-1.98-.11-2.2,0-6.16,3.85-6.71,3.74c-.44-.11-2.75-1.43-2.75-1.43l-1.98,4.07s4.84-2.2,5.17-2.2c.22,0,12.86-.11,12.86-.11Z"/><path class="cls-17" d="m218.28,124.87l3.3-2.86,1.32-1.21c.11,0,2.2-.11,2.31,0s6.49,3.85,6.93,3.85c.44-.11,2.97-1.54,2.97-1.54l2.2,4.07s-5.06-2.2-5.39-2.2-13.63-.11-13.63-.11Z"/><path class="cls-15" d="m226.08,71.55c-.55-.33-.99-.66-1.54-.99.44,1.1,1.21,1.98,2.2,2.42,1.65.66,3.52,0,5.28-.55,3.3-1.1,6.71-1.65,10.11-1.65,3.96,0,8.25.88,10.77,3.96-1.98-3.63-6.27-5.39-10.44-5.83-2.2-.22-5.5-.22-7.59.11-1.87.33-6.27,0-7.48-.44-.44-.22-.88-.33-1.21-.55-.22-.22-.55-.11-.55.22-.44,1.32-.66,2.09.44,3.3Z"/><path class="cls-15" d="m213.77,71.88c.55-.33.99-.66,1.54-.99-.44,1.1-1.21,1.98-2.2,2.42-1.65.66-3.52,0-5.28-.55-3.3-1.1-6.71-1.65-10.11-1.65-3.96,0-8.25.88-10.77,3.96,1.54-2.86,4.62-4.62,7.7-5.39,2.31-.55,4.73-.99,7.15-.99s4.62.44,6.93.55c1.43.11,3.19.33,4.4-.55.55-.44,1.87,1.76.66,3.19Z"/><path class="cls-22" d="m249.06,154.77c-2.31,4.18-6.82,8.14-11.1,10.44s-8.8,4.07-13.3,5.61c-4.07,1.43-8.25,2.86-12.31,4.4-4.29,1.54-8.69,3.08-12.53,5.61s-7.15,6.05-8.36,10.44c-.77,2.75-.77,5.72-.55,8.69.33,5.83.88,11.65,1.76,17.48.66.11.88-.88.88-1.54-.66-7.81-1.32-15.72.55-23.31.55-2.42,1.54-5.06,3.63-6.38,2.75-1.76,6.27-.88,9.34.11,9.02,2.75,18.03,5.5,27.05,8.36,1.54.44,3.19.99,4.73.33,1.21-.44,2.09-1.54,2.64-2.64,4.18-7.48-.33-17.26,2.64-25.29,1.65-4.4,5.28-7.81,6.82-12.31.77-2.31.88-5.06-.66-6.82-.55.33-.22.99-.11,1.65.11,1.54.22,2.86-1.1,5.17Z"/><path class="cls-22" d="m190.46,186.77c-.22-3.63-.77-7.26-1.32-10.88-.33-2.09-.66-4.29-.44-6.38.55-5.06,2.2-9.23,7.15-10.55.33-.11.88-.11,1.21,0,.33.22.44.55.44.99.11.55-.11,1.21,0,1.87,0,.22,0,.55-.11.77-.22.33-.55.44-.88.55-4.62,1.43-4.95,6.05-5.61,10.88-.55,4.73.44,9.56.77,14.29.33,5.17-.33,10.44-.11,15.61.11,4.18,2.53,9.34.99,13.41-4.73-8.91-1.65-20.89-2.09-30.56Z"/><path class="cls-23" d="m255.44,60c1.65,0,11.43-.66,12.97-2.2,2.75-4.07.99-15.06.11-24.52-.44-4.84-1.54-10.77-6.16-13.3-4.07-2.31-28.69-1.43-35.84-.66-8.58.88-43.54,3.52-45.84,4.07-3.08.77-4.84,2.53-5.39,5.72-.66,3.85-1.1,20.01-1.1,24.19,0,3.08-.11,10.77,2.75,11.65,2.42.77,9.34,0,14.51-.77,10.33-1.54,51.67-4.18,63.99-4.18Z"/><path class="cls-25" d="m184.96,61.87h0c-.33.33-.77.44-1.1.11l-5.94-4.95c-.33-.33-.44-.77-.11-1.1h0c.33-.33.77-.44,1.1-.11l5.94,4.95c.33.22.44.66.11,1.1Z"/><path class="cls-25" d="m205.08,60h0c-.33.33-.77.44-1.1.11l-5.94-4.95c-.33-.33-.44-.77-.11-1.1h0c.33-.33.77-.44,1.1-.11l5.94,4.95c.33.22.33.77.11,1.1Z"/><path class="cls-25" d="m225.2,58.14h0c-.33.33-.77.44-1.1.11l-5.94-4.95c-.33-.33-.44-.77-.11-1.1h0c.33-.33.77-.44,1.1-.11l5.94,4.95c.33.22.33.77.11,1.1Z"/><path class="cls-25" d="m245.32,56.27h0c-.33.33-.77.44-1.1.11l-5.94-4.95c-.33-.33-.44-.77-.11-1.1h0c.33-.33.77-.44,1.1-.11l5.94,4.95c.33.22.33.77.11,1.1Z"/><path class="cls-25" d="m265.44,54.4h0c-.33.33-.77.44-1.1.11l-5.94-4.95c-.33-.33-.44-.77-.11-1.1h0c.33-.33.77-.44,1.1-.11l5.94,4.95c.33.22.33.77.11,1.1Z"/><path class="cls-27" d="m258.84,54.95h0c.33.33.88.22,1.1-.11l4.95-5.94c.33-.33.22-.88-.11-1.1h0c-.33-.33-.88-.22-1.1.11l-4.95,5.94c-.33.33-.22.88.11,1.1Z"/><path class="cls-27" d="m238.73,56.82h0c.33.33.88.22,1.1-.11l4.95-5.94c.33-.33.22-.88-.11-1.1h0c-.33-.33-.88-.22-1.1.11l-4.95,5.94c-.33.33-.22.88.11,1.1Z"/><path class="cls-27" d="m218.61,58.69h0c.33.33.88.22,1.1-.11l4.95-5.94c.33-.33.22-.88-.11-1.1h0c-.33-.33-.88-.22-1.1.11l-4.95,5.94c-.33.33-.22.88.11,1.1Z"/><path class="cls-27" d="m198.49,60.55h0c.33.33.88.22,1.1-.11l4.95-5.94c.33-.33.22-.88-.11-1.1h0c-.33-.33-.88-.22-1.1.11l-4.95,5.94c-.33.33-.22.88.11,1.1Z"/><path class="cls-27" d="m178.37,62.42h0c.33.33.88.22,1.1-.11l4.95-5.94c.33-.33.22-.88-.11-1.1h0c-.33-.33-.88-.22-1.1.11l-4.95,5.94c-.33.33-.22.88.11,1.1Z"/><path class="cls-27" d="m180.02,45.38c0,.66.11,1.43.44,1.98s.99.88,1.65,1.21c2.42.99,5.17,1.1,7.7,1.21,5.06.11,10.22-.22,15.28-.77.33,0,.77-.11.99-.33.22-.22.22-.66.33-.99.55-6.6,1.1-13.3-.88-19.57-.33-.99-.77-1.98-1.54-2.53-.88-.55-1.98-.44-3.08-.33-6.05.55-11.98,1.1-18.03,1.76-.88.11-1.87.22-2.64.88-1.43,1.43-.33,5.39-.33,7.26-.11,3.3,0,6.71.11,10.22Z"/><path class="cls-27" d="m210.8,26.25c-.33.44-.44.99-.44,1.43-.77,5.72-.55,11.54.88,17.15.22.99.55,2.09,1.43,2.64.55.33,1.1.44,1.76.55,2.31.22,4.62.11,7.04-.11,3.52-.33,7.04-.66,10.55-.99.44,0,.88-.11,1.21-.33.44-.22.66-.55.88-.99.66-1.32.66-2.75.77-4.29.11-5.06.22-10.11-.33-15.06-.11-.88-.33-1.98-.99-2.53-.88-.77-2.09-.66-3.19-.44-3.85.44-7.81,1.32-11.76,1.43-2.53.11-6.05-.88-7.81,1.54Z"/><path class="cls-27" d="m237.3,29.88c.44,4.4.99,8.8,1.43,13.19.11.55.11,1.21.44,1.65.77.99,2.2.88,3.41.77,5.83-.77,11.65-.99,17.48-.66,1.32.11,2.86.11,3.74-.88.77-.88.77-2.2.66-3.3-.22-4.95-.55-9.89-1.87-14.62-.22-.77-.44-1.54-1.1-2.09s-1.54-.55-2.31-.55c-3.3-.11-6.6-.33-9.89-.44-2.97-.11-6.49-.22-9.34.44-2.86.66-2.97,3.96-2.64,6.49Z"/><path class="cls-23" d="m183.21,37.47c-.44.66-.88,1.32-.77,2.09.11.44.44.88.77,1.21,2.31,2.64,5.06,5.06,8.03,6.82.99.55,1.98,1.1,3.08,1.1,1.32-.11,2.42-.88,3.3-1.76,2.2-1.87,4.18-4.07,5.94-6.38.33-.44.66-.88.66-1.43,0-.66-.44-1.32-.88-1.76-1.87-2.09-3.74-3.96-5.83-5.83-1.32-1.32-3.52-4.18-5.61-3.96-1.76.22-2.97,2.42-3.96,3.63-1.65,2.09-3.3,4.18-4.73,6.27Z"/><path class="cls-23" d="m212.12,35.27c-.44.66-.88,1.32-.77,2.09.11.44.44.88.77,1.21,2.31,2.64,5.06,5.06,8.03,6.82.99.55,1.98,1.1,3.08,1.1,1.32-.11,2.42-.88,3.3-1.76,2.2-1.87,4.18-4.07,5.94-6.38.33-.44.66-.88.66-1.43,0-.66-.44-1.32-.88-1.76-1.87-2.09-3.74-3.96-5.83-5.83-1.32-1.32-3.52-4.18-5.61-3.96-1.76.22-2.97,2.42-3.96,3.63-1.54,2.09-3.19,4.07-4.73,6.27Z"/><path class="cls-23" d="m240.7,33.07c-.44.66-.88,1.32-.77,2.09.11.44.44.88.77,1.21,2.31,2.64,5.06,5.06,8.03,6.82.99.55,1.98,1.1,3.08,1.1,1.32-.11,2.42-.88,3.3-1.76,2.2-1.87,4.18-4.07,5.94-6.38.33-.44.66-.88.66-1.43,0-.66-.44-1.32-.88-1.76-1.87-2.09-3.74-3.96-5.83-5.83-1.32-1.32-3.52-4.18-5.61-3.96-1.76.22-2.97,2.42-3.96,3.63-1.65,2.09-3.19,4.07-4.73,6.27Z"/><path class="cls-23" d="m187.6,29.77c.11-.11.33-.33.22-.55,0-.22-.33-.33-.55-.44-1.32-.44-2.75-.66-4.07-.55-.44,0-.88.11-1.32.33-.66.44-.88,1.43-.88,2.31-.11,1.98,0,3.96.22,5.94,0,.33.22.66.55.77.99-1.32,1.65-2.75,2.64-4.07s1.98-2.64,3.19-3.74Z"/><path class="cls-23" d="m188.92,47.8c.22.22.44.44.33.66-.11.33-.55.33-.88.33-1.54-.22-3.08-.44-4.62-.66-.77-.11-1.65-.22-2.2-.77-.77-.77-.77-1.87-.77-2.97,0-.66-.33-3.41.33-3.74.77-.44,1.65,1.54,2.09,1.98,1.76,1.98,3.74,3.52,5.72,5.17Z"/><path class="cls-23" d="m203.1,48.13c.33-.11.77-.11,1.1-.33.55-.33.77-1.1.99-1.76.22-.77.33-1.54.55-2.31.11-.99.22-1.98-.11-2.86,0-.11-.11-.22-.22-.33-.22-.11-.55.11-.77.33-1.87,2.2-3.63,4.29-5.72,6.38-.44.44-1.1.88-.33,1.21,1.21.55,3.19-.44,4.51-.33Z"/><path class="cls-23" d="m203.76,36.48c.22.22.44.44.66.44.55,0,.66-.66.66-1.21,0-2.31-.55-4.51-1.1-6.82-.22-.88-.55-1.87-1.32-2.31-.44-.22-.88-.11-1.32-.11-1.65.11-3.19.11-4.84.33-.66.11-.99.77-.66,1.32.77,1.21,2.31,2.42,3.19,3.41,1.65,1.54,3.3,3.19,4.73,4.95Z"/><path class="cls-23" d="m217.4,27.02c.11-.11.33-.33.22-.55,0-.22-.33-.33-.55-.44-1.32-.44-2.75-.66-4.07-.55-.44,0-.88.11-1.32.33-.66.44-.88,1.43-.88,2.31-.11,1.98,0,3.96.22,5.94,0,.33.22.66.55.77.99-1.32,1.65-2.75,2.64-4.07s1.98-2.53,3.19-3.74Z"/><path class="cls-23" d="m245.1,25.48c.11-.11.33-.33.22-.55,0-.22-.33-.33-.55-.44-1.32-.44-2.75-.66-4.07-.55-.44,0-.88.11-1.32.33-.66.44-.88,1.43-.88,2.31-.11,1.98,0,3.96.22,5.94,0,.33.22.66.55.77.99-1.32,1.65-2.75,2.64-4.07s1.98-2.64,3.19-3.74Z"/><path class="cls-23" d="m219.82,46.37c.22.11.44.33.44.66-.11.33-.44.33-.77.33-1.54,0-3.08-.11-4.62-.11-.77,0-1.65-.11-2.2-.55-.88-.66-.99-1.87-1.1-2.86,0-.66-.66-3.3,0-3.74.66-.55,1.87,1.32,2.31,1.76,1.76,1.76,3.85,3.19,5.94,4.51Z"/><path class="cls-23" d="m247.63,43.62c.22.11.44.33.44.66-.11.33-.44.33-.77.33-1.54,0-3.08-.11-4.62-.11-.77,0-1.65-.11-2.2-.55-.88-.66-.99-1.87-1.1-2.86,0-.66-.66-3.3,0-3.74.66-.55,1.87,1.32,2.31,1.76,1.65,1.65,3.74,3.08,5.94,4.51Z"/><path class="cls-23" d="m231.36,46.37c.33-.11.77-.11,1.1-.33.55-.33.77-1.1.99-1.76.22-.77.33-1.54.55-2.31.11-.99.22-1.98-.11-2.86,0-.11-.11-.22-.22-.33-.22-.11-.55.11-.77.33-1.87,2.2-3.63,4.29-5.72,6.38-.44.44-1.1.88-.33,1.21,1.21.55,3.19-.44,4.51-.33Z"/><path class="cls-23" d="m260.71,43.73c.33-.11.77-.11,1.1-.33.55-.33.77-1.1.99-1.76.22-.77.33-1.54.55-2.31.11-.99.22-1.98-.11-2.86,0-.11-.11-.22-.22-.33-.22-.11-.55.11-.77.33-1.87,2.2-3.63,4.29-5.72,6.38-.44.44-1.1.88-.33,1.21,1.21.55,3.19-.55,4.51-.33Z"/><path class="cls-23" d="m232.79,34.5c.22.22.44.44.66.44.55,0,.66-.66.66-1.21,0-2.31-.55-4.51-1.1-6.82-.22-.88-.55-1.87-1.32-2.31-.44-.22-.88-.11-1.32-.11-1.65.11-3.19.11-4.84.33-.66.11-.99.77-.66,1.32.77,1.21,2.31,2.42,3.19,3.41,1.65,1.65,3.19,3.3,4.73,4.95Z"/><path class="cls-23" d="m261.7,32.85c.11.22.33.33.55.33.44,0,.66-.66.66-1.1,0-2.09-.44-4.18-.99-6.27-.22-.77-.44-1.76-1.21-2.09-.33-.11-.77-.11-1.21-.11-1.43.11-2.97.11-4.51.22-.55,0-.88.66-.55,1.21.77,1.21,2.09,2.2,2.97,3.08,1.43,1.65,2.86,3.19,4.29,4.73Z"/><path class="cls-25" d="m192.77,30.98c.55,0,.55-.77,0-.77-.44-.11-.44.77,0,.77h0Z"/><path class="cls-25" d="m192.88,33.07c.55,0,.55-.77,0-.77-.44,0-.44.77,0,.77h0Z"/><path class="cls-25" d="m193.1,34.28h0c-.55,0-.55.77,0,.77h0c.55.11.55-.66,0-.77h0c-.55,0-.55.77,0,.77h0c.55.11.55-.66,0-.77h0Z"/><path class="cls-25" d="m193.21,37.03c.55,0,.55-.77,0-.77-.44-.11-.44.77,0,.77h0Z"/><path class="cls-25" d="m193.32,38.79c.55,0,.55-.77,0-.77s-.55.77,0,.77h0Z"/><path class="cls-25" d="m193.43,40.55c.55,0,.55-.77,0-.77-.44,0-.44.77,0,.77h0Z"/><path class="cls-25" d="m193.54,42.52c.55,0,.55-.77,0-.77-.55-.11-.55.77,0,.77h0Z"/><path class="cls-25" d="m193.65,44.28c.55,0,.55-.77,0-.77s-.55.77,0,.77h0Z"/><path class="cls-25" d="m193.76,46.26c.55,0,.55-.77,0-.77-.55-.11-.55.77,0,.77h0Z"/><path class="cls-25" d="m184.85,39.89c.55,0,.55-.77,0-.77s-.55.77,0,.77h0Z"/><path class="cls-25" d="m186.28,39.78c.55,0,.55-.77,0-.77-.55,0-.55.77,0,.77h0Z"/><path class="cls-25" d="m188.15,38.9q-.11,0,0,0h-.22s-.11,0-.11.11l-.11.11v.22q0,.11.11.22s.11,0,.11.11c.11,0,.11.11.22.11h.22s.11,0,.11-.11l.11-.11v-.22q0-.11-.11-.22s-.11,0-.11-.11c-.11-.11-.22-.11-.22-.11h0Z"/><path class="cls-25" d="m190.35,39.23h0c0-.55-.77-.55-.77,0h0c-.11.55.77.55.77,0h0c0-.55-.77-.55-.77,0h0c-.11.55.77.55.77,0h0Z"/><path class="cls-25" d="m192.22,39.23s0-.11,0,0c0-.55-.77-.55-.77,0h0c-.11.44.66.44.77,0,0,0,0-.11,0,0,0-.55-.77-.55-.77,0h0c-.11.44.66.44.77,0h0Z"/><path class="cls-25" d="m195.41,39.34q0-.11,0,0c.44-.33-.11-.99-.55-.55h0c-.44.22.11.88.55.55q0-.11,0,0c.44-.33-.11-.99-.55-.55h0c-.44.22.11.88.55.55h0Z"/><path class="cls-25" d="m196.73,39.34h.22s.11,0,.11-.11l.11-.11v-.22q0-.11-.11-.22s-.11,0-.11-.11c-.11,0-.11-.11-.22-.11h-.22s-.11,0-.11.11l-.11.11v.22q0,.11.11.22s.11,0,.11.11c0,.11.11.11.22.11h0Z"/><path class="cls-25" d="m198.71,38.35s-.11,0,0,0h-.22s-.11,0-.11.11l-.11.11v.22q0,.11.11.22s.11,0,.11.11c.11,0,.11.11.22.11h.22s.11,0,.11-.11l.11-.11v-.22q0-.11-.11-.22s-.11,0-.11-.11c-.11-.11-.22-.11-.22-.11h0Z"/><path class="cls-25" d="m200.36,38.9c.55,0,.55-.77,0-.77s-.55.77,0,.77h0Z"/><path class="cls-25" d="m202.01,38.9c.55,0,.55-.77,0-.77s-.55.77,0,.77h0Z"/><path class="cls-25" d="m221.24,28.67c.55,0,.55-.77,0-.77s-.55.77,0,.77h0Z"/><path class="cls-25" d="m221.35,30.76c.55,0,.55-.77,0-.77-.55,0-.55.77,0,.77h0Z"/><path class="cls-25" d="m221.57,32.08h0c-.55,0-.55.77,0,.77h0c.55.11.55-.77,0-.77h0c-.55,0-.55.77,0,.77h0c.55.11.55-.77,0-.77h0Z"/><path class="cls-25" d="m221.68,34.72c.55,0,.55-.77,0-.77s-.55.77,0,.77h0Z"/><path class="cls-25" d="m221.79,36.59c.55,0,.55-.77,0-.77-.55-.11-.55.77,0,.77h0Z"/><path class="cls-25" d="m221.9,38.35c.55,0,.55-.77,0-.77-.44-.11-.55.77,0,.77h0Z"/><path class="cls-25" d="m222.01,40.22c.55,0,.55-.77,0-.77s-.55.77,0,.77h0Z"/><path class="cls-25" d="m222.12,41.97c.55,0,.55-.77,0-.77-.55,0-.55.77,0,.77h0Z"/><path class="cls-25" d="m222.23,43.95c.55,0,.55-.77,0-.77s-.55.77,0,.77h0Z"/><path class="cls-25" d="m213.22,37.58c.55,0,.55-.77,0-.77-.44,0-.44.77,0,.77h0Z"/><path class="cls-25" d="m214.76,37.47c.55,0,.55-.77,0-.77s-.55.77,0,.77h0Z"/><path class="cls-25" d="m216.52,36.59h-.22s-.11,0-.11.11l-.11.11v.22q0,.11.11.22s.11,0,.11.11c.11,0,.11.11.22.11h.22s.11,0,.11-.11l.11-.11v-.22q0-.11-.11-.22s-.11,0-.11-.11-.11-.11-.22-.11h0Z"/><path class="cls-25" d="m218.83,37.03h0c0-.55-.77-.55-.77,0h0c-.11.55.77.55.77,0h0c0-.55-.77-.55-.77,0h0c-.11.55.77.55.77,0h0Z"/><path class="cls-25" d="m220.59,36.92h0c0-.55-.77-.55-.77,0h0c0,.55.77.55.77,0h0c0-.55-.77-.55-.77,0h0c0,.55.77.55.77,0h0Z"/><path class="cls-25" d="m223.77,37.03s.11,0,0,0c.44-.33-.11-.99-.55-.55h0c-.44.33.22.88.55.55,0,0,.11,0,0,0,.44-.33-.11-.99-.55-.55h0c-.44.33.22.88.55.55h0Z"/><path class="cls-25" d="m225.2,37.03h.22s.11,0,.11-.11l.11-.11v-.22q0-.11-.11-.22s-.11,0-.11-.11c-.11,0-.11-.11-.22-.11h-.22s-.11,0-.11.11l-.11.11v.22q0,.11.11.22s.11,0,.11.11c0,.11.11.11.22.11h0Z"/><path class="cls-25" d="m227.18,36.15c-.11,0-.11-.11,0,0h-.22s-.11,0-.11.11l-.11.11v.22q0,.11.11.22s.11,0,.11.11c.11,0,.11.11.22.11h.22s.11,0,.11-.11l.11-.11v-.22q0-.11-.11-.22s-.11,0-.11-.11c-.11-.11-.22-.11-.22-.11h0Z"/><path class="cls-25" d="m228.83,36.59c.55,0,.55-.77,0-.77s-.55.77,0,.77h0Z"/><path class="cls-25" d="m230.48,36.7c.55,0,.55-.77,0-.77-.55-.11-.55.77,0,.77h0Z"/><path class="cls-25" d="m250.38,25.92c.55,0,.55-.77,0-.77-.55-.11-.55.77,0,.77h0Z"/><path class="cls-25" d="m250.49,28.01c.55,0,.55-.77,0-.77-.55-.11-.55.77,0,.77h0Z"/><path class="cls-25" d="m250.6,29.22h0c-.55,0-.55.77,0,.77h0c.55.11.55-.66,0-.77h0c-.55,0-.55.77,0,.77h0c.55.11.55-.66,0-.77h0Z"/><path class="cls-25" d="m250.82,31.97c.55,0,.55-.77,0-.77-.55-.11-.55.77,0,.77h0Z"/><path class="cls-25" d="m250.82,33.73c.55,0,.55-.77,0-.77-.55,0-.55.77,0,.77h0Z"/><path class="cls-25" d="m251.04,35.49c.55,0,.55-.77,0-.77-.55-.11-.55.77,0,.77h0Z"/><path class="cls-25" d="m251.04,37.36c.55,0,.55-.77,0-.77-.44,0-.55.77,0,.77h0Z"/><path class="cls-25" d="m251.15,39.23c.55,0,.55-.77,0-.77-.55-.11-.55.77,0,.77h0Z"/><path class="cls-25" d="m251.26,41.09c.55,0,.55-.77,0-.77s-.55.77,0,.77h0Z"/><path class="cls-25" d="m242.35,34.83c.55,0,.55-.77,0-.77-.55-.11-.55.77,0,.77h0Z"/><path class="cls-25" d="m243.78,34.72c.55,0,.55-.77,0-.77-.44-.11-.44.77,0,.77h0Z"/><path class="cls-25" d="m245.65,33.84s-.11,0,0,0h-.22s-.11,0-.11.11l-.11.11v.22q0,.11.11.22s.11,0,.11.11c.11,0,.11.11.22.11h.22s.11,0,.11-.11l.11-.11v-.22q0-.11-.11-.22s-.11,0-.11-.11c-.11-.11-.22-.11-.22-.11h0Z"/><path class="cls-25" d="m247.85,34.17h0c0-.55-.77-.55-.77,0h0c0,.55.77.55.77,0h0c0-.55-.77-.55-.77,0h0c0,.55.77.55.77,0h0Z"/><path class="cls-25" d="m249.72,34.06h0c0-.55-.77-.55-.77,0h0c-.11.55.66.55.77,0h0c0-.55-.77-.55-.77,0h0c-.11.55.66.55.77,0h0Z"/><path class="cls-25" d="m252.91,34.17h0c.44-.33-.11-.99-.55-.55h0c-.44.33.11.88.55.55h0c.44-.33-.11-.99-.55-.55h0c-.44.33.11.88.55.55h0Z"/><path class="cls-25" d="m254.23,34.17q0,.11,0,0h.22s.11,0,.11-.11l.11-.11v-.22q0-.11-.11-.22s-.11,0-.11-.11c-.11,0-.11-.11-.22-.11h-.22s-.11,0-.11.11l-.11.11v.22q0,.11.11.22s.11,0,.11.11q.11.11.22.11h0Z"/><path class="cls-25" d="m256.21,33.29h-.22s-.11,0-.11.11l-.11.11v.22q0,.11.11.22s.11,0,.11.11c.11,0,.11.11.22.11h.22s.11,0,.11-.11l.11-.11v-.22q0-.11-.11-.22s-.11,0-.11-.11q-.11-.11-.22-.11h0Z"/><path class="cls-25" d="m257.85,33.84c.55,0,.55-.77,0-.77-.44-.11-.44.77,0,.77h0Z"/><path class="cls-25" d="m259.5,33.84c.55,0,.55-.77,0-.77s-.55.77,0,.77h0Z"/></svg>