<?xml version="1.0" encoding="UTF-8"?><svg id="Layer_1" xmlns="http://www.w3.org/2000/svg" xmlns:xlink="http://www.w3.org/1999/xlink" viewBox="0 0 395 450"><defs><style>.cls-1,.cls-2{fill:none;}.cls-3{clip-path:url(#clippath);}.cls-4{fill:#fffdfa;}.cls-5{fill:#998666;}.cls-6{fill:#729fcc;}.cls-7{fill:#baa88b;}.cls-8{fill:#ced4d9;}.cls-9{fill:#ab9b80;}.cls-10{fill:#b3986e;}.cls-11{fill:#cfd5e0;}.cls-12{fill:#c4c4b7;}.cls-13{fill:#d3d3c5;}.cls-14{fill:#c7b495;}.cls-15{fill:#d6c5a9;}.cls-16{fill:#a87171;}.cls-17{fill:#1e6840;}.cls-18{fill:#1a293f;}.cls-19{fill:#545454;}.cls-20{fill:gray;}.cls-21{fill:#585e47;}.cls-22{fill:#755a39;}.cls-23{fill:#787b55;}.cls-24{fill:#7a7a72;}.cls-25{fill:#7a6644;}.cls-26{fill:#727b5c;}.cls-27{clip-path:url(#clippath-1);}.cls-28{clip-path:url(#clippath-4);}.cls-29{clip-path:url(#clippath-3);}.cls-30{clip-path:url(#clippath-2);}.cls-2{stroke:#fff;stroke-miterlimit:10;stroke-width:20px;}.cls-31{opacity:.58;}.cls-32{opacity:.8;}</style><clipPath id="clippath"><path class="cls-1" d="m58.94,226.74c2.18-10.04,4.36-20.36,9.94-28.98,4.45-6.82,10.7-12.22,15.34-18.94,3.5-5.11,5.87-10.89,8.9-16.29s6.82-10.61,12.22-13.64c4.74-2.65,10.13-3.41,15.25-5.3,4.45-1.61,8.52-4.17,12.88-5.97,7.01-2.94,14.78-3.98,22.35-3.13.28,1.14,1.42,1.23,2.37,1.99,1.33,1.14,1.8,2.94,2.08,4.64,2.56,15.15-2.65,30.31-6.91,45.08-4.17,14.4-7.58,28.98-10.13,43.66-.19.95,0,86.09-.57,86.85-.38.47,4.45,94.43,3.88,94.62-72.93,26.8-104.66-12.6-130.7-7.39-3.31-22.73,12.6-68,11.65-80.98-.38-5.87,30.21-90.45,31.44-96.23Z"/></clipPath><clipPath id="clippath-1"><path class="cls-1" d="m58.94,226.74c2.18-10.04,4.36-20.36,9.94-28.98,4.45-6.82,10.7-12.22,15.34-18.94,3.5-5.11,5.87-10.89,8.9-16.29s6.82-10.61,12.22-13.64c4.74-2.65,10.13-3.41,15.25-5.3,4.45-1.61,8.52-4.17,12.88-5.97,7.01-2.94,14.78-3.98,22.35-3.13.28,1.14,1.42,1.23,2.37,1.99,1.33,1.14,1.8,2.94,2.08,4.64,2.56,15.15-2.65,30.31-6.91,45.08-4.17,14.4-7.58,28.98-10.13,43.66-.19.95,0,86.09-.57,86.85-.38.47,4.45,94.43,3.88,94.62-72.93,26.8-104.66-12.6-130.7-7.39-3.31-22.73,12.6-68,11.65-80.98-.38-5.87,30.21-90.45,31.44-96.23Z"/></clipPath><clipPath id="clippath-2"><path class="cls-1" d="m336.06,222.57c-2.18-10.04-4.36-20.36-9.94-28.98-4.45-6.82-10.7-12.22-15.34-18.94-3.5-5.11-5.87-10.89-8.9-16.29-3.03-5.4-6.82-10.61-12.22-13.64-4.74-2.65-10.13-3.41-15.25-5.3-4.45-1.61-8.52-4.17-12.88-5.97-7.01-2.94-14.78-3.98-22.35-3.13-.28,1.14-1.42,1.23-2.37,1.99-1.33,1.14-1.8,2.94-2.08,4.64-2.56,15.15,2.65,30.31,6.91,45.08,4.17,14.4,7.58,28.98,10.13,43.66.19.95,0,86.09.57,86.85.38.47-4.45,94.43-3.88,94.62,72.93,26.8,104.66-12.6,130.7-7.39,3.31-22.73-12.6-68-11.65-80.98.38-5.87-30.21-90.45-31.44-96.23Z"/></clipPath><clipPath id="clippath-3"><path class="cls-1" d="m336.06,222.57c-2.18-10.04-4.36-20.36-9.94-28.98-4.45-6.82-10.7-12.22-15.34-18.94-3.5-5.11-5.87-10.89-8.9-16.29-3.03-5.4-6.82-10.61-12.22-13.64-4.74-2.65-10.13-3.41-15.25-5.3-4.45-1.61-8.52-4.17-12.88-5.97-7.01-2.94-14.78-3.98-22.35-3.13-.28,1.14-1.42,1.23-2.37,1.99-1.33,1.14-1.8,2.94-2.08,4.64-2.56,15.15,2.65,30.31,6.91,45.08,4.17,14.4,7.58,28.98,10.13,43.66.19.95,0,86.09.57,86.85.38.47-4.45,94.43-3.88,94.62,72.93,26.8,104.66-12.6,130.7-7.39,3.31-22.73-12.6-68-11.65-80.98.38-5.87-30.21-90.45-31.44-96.23Z"/></clipPath><clipPath id="clippath-4"><path class="cls-1" d="m650.51,166.51c-3.02,9.82-8.42,18.89-15.01,26.77-9.39,11.23-21.05,20.3-32.71,29.04-1.08.76-2.16,1.62-2.81,2.81-.97,1.62-.86,3.67-.76,5.61,1.08,20.4-.86,40.92-5.51,60.78-.76,3.35-1.62,6.69-1.73,10.15-.11,3.67.65,7.77-1.3,10.9-.54.76-1.19,1.51-1.51,2.38-1.19,3.02,1.84,6.37.65,9.39-.11.32-.32.54-.43.86h0c-.86,1.3-2.16,2.38-2.05,3.89,0,.76.54,1.4.97,2.05.65.76,1.4,1.51,1.62,2.48.43,1.73-1.08,3.35-2.7,3.89-1.73.54-3.45.11-5.18-.22-11.77-2.48-23.97-5.83-35.52-2.7,1.19-2.91,2.38-6.37.97-9.18-.43-.76-.97-1.51-1.19-2.38-.43-1.62.54-3.13,1.4-4.64.65-1.3,1.3-2.48.97-3.89-.11-.43-.32-.86-.54-1.3-.43-.86-1.08-1.62-1.3-2.59-.43-2.7,2.91-4.43,4.21-6.91,1.3-2.48.32-5.51.11-8.31-.32-4.21.97-8.31,1.51-12.42,1.3-10.15-2.27-20.62.65-30.44.97-3.35,2.7-6.48,3.67-9.82,1.62-5.94.76-12.31,1.19-18.46.76-11.98,6.15-23.21,11.34-34.01,1.4-2.81,2.7-5.61,4.75-7.88,2.59-2.91,6.05-4.86,9.39-6.69,15.65-8.2,49.55-17.38,67.37-31.74,3.56,5.72.54,19.22-.54,22.56Z"/></clipPath></defs><path class="cls-2" d="m377.86,399.31c.48-4.07.77-8.16.81-12.26.11-12.15-2.02-24.21-4.5-36.11-8.52-40.78-21.32-80.53-34.1-120.19-4.25-13.2-8.58-26.55-15.86-38.36-5.73-9.27-13.17-17.41-18.75-26.77-3.68-6.19-6.61-13.01-11.82-17.98-6.13-5.86-14.6-8.42-22.74-10.8-14.54-4.24-29.08-8.48-43.62-12.72-1.27-1.35-2.95-2.3-4.76-2.7,5.4-10.92,10.79-21.84,16.19-32.75,1.93-3.9,1.54-11.01-2.67-9.93,1.37-5.07,1.63-10.44.75-15.62,4.53,2.4,9.97-3.04,9.65-8.15-.32-5.11-4.1-9.25-7.67-12.92-5.97-6.15-11.95-12.31-17.92-18.46-4.13-4.26-8.48-8.66-14.08-10.61-5.41-1.89-11.38-1.27-16.97,0-6.95,1.57-13.67,4.12-19.92,7.53-4.99,2.72-13.26,6.75-15.14,12.29-2.5,7.35-2.28,16.66-3.9,24.36-1.75,8.33-3.92,16.57-6.51,24.67,11.27,10.46,19.64,24.02,23.95,38.79-5.29,13.24-23.29,13.66-37.15,17.04-21.72,5.29-38.64,22.55-50.62,41.42-16.43,25.87-25.68,55.53-34.74,84.8-9.88,31.89-19.78,63.87-26.01,96.67-2.06,10.85-3.72,21.85-3.43,32.9.3,11.24,2.61,22.33,5.27,33.26,1.66,6.81,3.96,14.29,10.04,17.79s16.17-1.28,14.39-8.06c-.61-2.33-2.41-4.17-3.34-6.39s-.44-5.49,1.91-6.06c1.08,6.62,4.17,12.9,8.75,17.8,2.78-7.91,2.23-16.94-1.51-24.44,1.78-1.29,3.56-2.58,5.34-3.88,9.93,3.85,20.47,6.12,31.1,6.7-.02,12.06-.04,24.11-.06,36.17,72.27,0,144.53,0,216.8,0-.02-13.33-.03-26.65-.05-39.98,11.21-.95,22.29-3.33,32.9-7.07,1.78,1.3,3.55,2.59,5.33,3.89-3.59,7.44-4.25,16.25-1.81,24.15,4.94-4.41,8.18-10.67,8.92-17.25,2.32.5,2.87,3.73,1.97,5.93s-2.68,4.01-3.3,6.3c-1.83,6.75,8.17,11.63,14.27,8.21,6.1-3.42,8.48-10.87,10.14-17.66,1.9-7.75,3.55-15.61,4.49-23.53Z"/><path class="cls-1" d="m24.27,396.28c.28,5.3-4.17,10.7-5.02,15.91-1.52,9.09,1.52,17.71,4.45,26.24"/><path class="cls-25" d="m16.6,403c-.47-.19-.66.38-.85.76-.47,1.7,1.42,3.88,2.46,5.3,5.21,6.91,14.96,9.57,23.58,10.61,4.45.57,14.78-4.36,14.87-5.68.09-.57.57-1.14.47-1.61-.19-2.56-5.59-4.45-7.48-5.02-4.74-1.33-9.57-2.27-14.3-3.41-3.03-.76-5.87-1.61-9-1.99-1.04-.09-10.89-.95-9.76,1.04Z"/><path class="cls-15" d="m46.81,397.98c-.19,7.1,2.75,14.02,5.49,20.46,1.33,3.03,1.89,6.25,2.37,9.47.57,4.17,1.42,8.05-.47,12.03-1.42,2.84-5.3-1.61-5.87-3.22-.57-1.52-.28-3.31-.76-4.93-.38-1.7-1.14-3.5-1.8-5.02-.57-1.42-2.08-3.79-3.5-1.7-.66.95.28,3.13.57,4.26,1.14,3.98,2.27,7.77,2.94,11.93.76,4.64-5.97,4.93-10.32,4.36-3.31-.47-6.91-3.88-9.09-6.35-2.65-2.94-4.93-7.77-5.78-11.65-1.33-5.97-.19-13.07,1.14-18.94,1.33-5.87,2.65-11.37,7.1-15.72,5.87,2.27,11.74,5.11,18,5.02Z"/><rect class="cls-18" x="88.2" y="388.7" width="216.8" height="67.62"/><path class="cls-24" d="m158.1,84.1c7.77-.95,15.34-2.65,22.92-4.26,13.92-3.03,27.75-6.06,41.39-10.23,8.15-2.46,16.29-5.49,23.11-10.51,1.33-.95,2.75-2.27,2.84-3.88.09-1.7-1.23-3.13-2.46-4.26-8.05-7.39-18.56-11.84-29.36-13.35s-21.97-.09-32.3,3.41c-6.54,2.18-12.88,5.21-18.09,9.57-6.35,5.3-10.89,12.41-15.25,19.42-2.37,3.88-6.16,8.33-7.1,12.79,3.98,2.46,9.76,1.89,14.3,1.33Z"/><path class="cls-7" d="m196.55,147.66h0c-13.92,0-25.19-11.27-25.19-25.19v-8.05h50.39v7.96c-.09,14.02-11.37,25.29-25.19,25.29Z"/><path class="cls-15" d="m230.46,93.39l-1.52,6.44-1.7,11.55c-.47,3.5-2.08,6.72-4.45,9.28l-2.27,2.46c-1.61,1.8-3.6,3.22-5.78,4.17l-8.43,3.79c-2.37,1.04-4.93,1.61-7.48,1.52h-5.49c-2.56,0-5.11-.47-7.48-1.52l-8.43-3.79c-2.18-.95-4.17-2.37-5.78-4.17l-2.27-2.46c-2.37-2.56-3.88-5.78-4.45-9.28l-1.7-11.55-1.42-6.44c-.57-2.46-.57-5.02-.09-7.48l.95-5.21v-29.65l30.59-12.22v-2.37l2.94,1.14,2.18-.85.66-.28v2.37l30.59,12.22v29.64l.95,5.21c.47,2.46.47,5.02-.09,7.48Z"/><rect x="88.2" y="388.7" width="216.8" height="26.61"/><path class="cls-14" d="m230.46,93.39l-1.52,6.44-1.7,11.55c-.47,3.5-2.08,6.72-4.45,9.28l-2.27,2.46c-1.61,1.8-3.6,3.22-5.78,4.17l-8.43,3.79c-2.37,1.04-4.93,1.61-7.48,1.52h-1.04l-2.18-3.79c-.57-1.04-.85-2.18-.85-3.31v-2.27c0-.95.19-1.89.57-2.75l2.08-4.74v-7.48l-.09-6.06c-1.33-2.18,0-4.83,0-4.83,0,0,.95-.28,2.37-1.04,1.52-.85,1.33-5.21.57-6.44-.76-1.33-1.14-3.5-1.14-3.5.66-3.41-.19-9.47-.57-11.93-.38-2.46-.28-5.59-.28-5.59v-32.01l.66-.28v2.37l30.59,12.22v29.64l.95,5.21c.57,2.37.57,4.93,0,7.39Z"/><path class="cls-18" d="m196.36,97.65c-1.52,0-3.6-.38-5.02-2.08-1.42-1.61-2.75-1.7-3.5-1.23-.38.28-.57.66-.47.85.09.19,0,.38-.19.47s-.38,0-.47-.19c-.28-.57.09-1.33.76-1.8,1.04-.66,2.75-.66,4.45,1.33,2.18,2.46,5.97,1.7,5.97,1.7,2.84-.95,2.75-3.79,2.56-4.93-.19-1.52-.66-2.27-1.04-2.94-.28-.47-.47-.95-.57-1.52-.19-.95-.09-2.84-.09-4.93v-2.75c0-1.61-.28-3.31-.47-4.83-.19-1.23-.38-2.46-.38-3.41,0-.19.19-.38.38-.38s.38.19.38.38c0,.95.19,2.08.38,3.22.28,1.52.57,3.22.57,4.93v2.84c0,1.99-.09,3.98.09,4.83.09.47.28.85.57,1.23.38.66.85,1.61,1.14,3.22.38,2.84-.76,5.02-3.13,5.78-.19.09-.85.19-1.89.19Z"/><path class="cls-18" d="m201.57,97.08c-.19,0-.38-.19-.38-.38s.19-.38.38-.38c.47,0,.76-.28,1.14-.85.09-.09.09-.19.19-.28,1.33-1.8,3.13-1.89,4.26-1.23.66.38.95,1.04.66,1.52-.09.19-.28.28-.47.19-.19-.09-.28-.28-.19-.47s-.09-.38-.38-.57c-.57-.38-1.99-.57-3.22,1.04-.09.09-.09.19-.19.19-.38.57-.85,1.23-1.8,1.23Z"/><path class="cls-22" d="m205.27,68.85c2.75-.95,5.49-1.7,8.43-2.08,1.42-.19,3.31-.09,4.64.57,1.42.57,2.65,1.23,3.79,2.18.19.09.19.38.09.57-.09.09-.28.19-.38.09-1.33-.38-2.65-.76-3.98-.95-1.33-.28-2.37-.28-3.69.09-2.65.66-5.3,1.61-7.86,2.37-1.99.66-2.94-2.08-1.04-2.84h0Z"/><path class="cls-22" d="m186.51,71.79c-2.56-.66-6.06-1.8-8.62-1.99-.95,0-1.89.47-2.84.95-1.23.66-2.37,1.42-3.6,2.18-.38.28-.76-.19-.47-.57,1.42-1.8,3.03-3.41,5.11-4.36.57-.28,1.23-.47,1.89-.47,3.22-.19,6.35.57,9.38,1.42,1.89.57,1.14,3.31-.85,2.84h0Z"/><path class="cls-4" d="m174.39,77.85s5.4.95,8.33.47,4.83-1.7,4.83-1.7c0,0-4.74-3.88-7.77-2.37-3.03,1.52-5.4,3.6-5.4,3.6Z"/><circle class="cls-17" cx="180.93" cy="76.34" r="1.89"/><path class="cls-18" d="m187.56,77.19c-1.8-1.61-4.36-3.22-6.82-2.75-2.56.66-4.55,2.37-6.35,4.26-.95.85-2.18-.47-1.33-1.33,2.27-1.52,4.64-3.22,7.48-3.79,2.84-.47,5.4,1.33,7.58,2.94.57.38-.09,1.14-.57.66h0Z"/><path class="cls-4" d="m218.43,77.66s-5.4,1.14-8.33.66c-2.94-.38-4.93-1.61-4.93-1.61,0,0,4.64-3.98,7.77-2.56,3.13,1.52,5.49,3.5,5.49,3.5Z"/><circle class="cls-17" cx="210.48" cy="76.24" r="1.89"/><path class="cls-18" d="m204.6,76.62c2.18-1.7,4.64-3.5,7.48-3.13,2.75.47,5.21,1.7,7.58,3.22.47.28.57.85.28,1.33s-.85.57-1.33.28c-.57-.47-1.04-.95-1.61-1.42-1.52-1.14-3.22-2.08-5.11-2.46-1.14-.28-2.46.09-3.6.66s-2.27,1.33-3.13,2.27c-.38.38-1.04-.28-.57-.76h0Z"/><path class="cls-22" d="m198.92,99.92c.19-.09.38-.09.57-.19,1.8-.28,3.69.57,5.3,1.33,1.33.76,2.56,1.61,3.69,2.56,1.04.85,1.99,1.89,3.13,2.56,1.04.66,2.27,1.23,3.6,1.42.28.09.47.28.38.57,0,.28-.28.38-.47.47-1.42.09-2.94-.09-4.45-.57-3.03-1.23-5.97-3.22-9.19-3.5-.38,0-.57,0-.85.09h0c.09,0,.19,0,.38-.09-3.31,1.42-5.21-3.22-2.08-4.64h0Z"/><path class="cls-22" d="m193.52,104.75c.09,0,.19.09.38.09h0c-.28-.09-.57-.09-.85-.09-1.8.19-3.6.85-5.3,1.61-1.33.57-2.56,1.33-3.88,1.8-1.42.47-2.94.66-4.45.57-.57-.09-.66-.95-.09-1.04,1.33-.19,2.56-.76,3.6-1.42,1.14-.76,2.08-1.8,3.13-2.56,1.14-.95,2.27-1.8,3.69-2.56,1.52-.85,3.41-1.61,5.3-1.33.19,0,.38.09.57.19,3.03,1.33,1.14,5.97-2.08,4.74h0Z"/><path class="cls-16" d="m199.58,109.96l-2.65-2.37s-1.04-1.04-1.14-1.04-1.7-.09-1.89,0-5.3,3.31-5.68,3.22-2.37-1.23-2.37-1.23l-1.7,3.5s4.07-1.89,4.36-1.89,11.08-.19,11.08-.19Z"/><path class="cls-16" d="m195.32,109.96l2.84-2.37,1.14-1.04s1.89-.09,1.99,0c.19.09,5.78,3.03,5.78,3.03l2.75-1.14,1.89,3.5s-4.36-1.89-4.64-1.89-11.74-.09-11.74-.09Z"/><path class="cls-22" d="m187.84,71.98c.76-.57,1.23-1.52.85-2.46-.09-.19,0-.28.19-.38s.28.09.38.19c.19.85-.09,1.7-.66,2.27-.19.19-.38.38-.66.47h-.09s0,0,0-.09h0Z"/><path class="cls-22" d="m188.69,72.26c.38-.28.76-.76.85-1.23,0-.19.19-.19.38-.19.76.28-.76,1.42-1.14,1.61-.19,0-.19-.19-.09-.19h0Z"/><path class="cls-22" d="m204.51,72.36h-.09c-.66-.38-1.7-1.42-1.23-2.94,0-.19.19-.19.38-.19s.19.19.19.38c-.47,1.42.95,2.27.95,2.27.09.09.19.28.09.38-.09.09-.19.09-.28.09Z"/><path class="cls-22" d="m203.66,72.36c-.38-.19-1.7-1.14-1.14-1.52.09-.09.28,0,.38.09.19.47.47.95.85,1.33.09,0,0,.19-.09.09h0Z"/><path class="cls-15" d="m158,80.22s-4.74-3.88-6.72.57c-1.99,4.45,4.55,12.69,5.02,15.06.47,2.27,2.37,10.99,8.15,10.42l-2.18-21.31-4.26-4.74Z"/><path class="cls-14" d="m233.4,80.22s4.74-3.88,6.72.57c1.99,4.45-4.55,12.69-5.02,15.06-.47,2.27-2.37,10.99-8.15,10.42l2.18-21.31,4.26-4.74Z"/><path class="cls-7" d="m152.13,82.49s3.41-1.99,7.67,4.93c0,0,1.52,3.79,1.04,6.16s.95,4.55,1.23,5.21-2.46,2.65-3.79-1.52c-1.33-4.17-1.89-5.78-4.07-8.05-2.18-2.27-2.08-6.72-2.08-6.72Z"/><path class="cls-7" d="m238.79,82.49s-3.41-1.99-7.67,4.93c0,0-1.52,3.79-1.04,6.16s-.95,4.55-1.23,5.21,2.46,2.65,3.79-1.52c1.33-4.17,1.89-5.78,4.07-8.05,2.18-2.27,2.08-6.72,2.08-6.72Z"/><path class="cls-22" d="m154.41,68.19c-.66-3.03-1.52-5.97-1.61-9.09s.38-6.25,2.18-8.81c1.14-1.61,2.65-2.84,4.17-4.07,2.65-2.18,5.3-4.26,7.96-6.44,3.69-3.03,7.48-6.06,11.84-8.05,4.26-1.99,9-2.94,13.64-2.75,4.36.19,8.52,1.33,12.69,2.46,4.26,1.14,8.52,2.37,12.88,3.5.85.28,1.8.47,2.56,1.04,1.42,1.04,2.08,3.03,1.8,4.74-.28,1.8-1.33,3.31-2.56,4.64-3.41,3.5-8.43,5.02-13.26,5.59-4.83.57-9.85.28-14.68.85-6.16.66-12.12,2.75-17.33,5.87-4.55,2.75-8.71,6.63-10.04,11.74-1.04,4.26,0,8.81-1.14,13.07-.19.76-.66,1.7-1.52,1.7-.38,0-.85-.19-1.23-.38-.95-.57-2.94-1.23-3.6-2.08-.66-.85-.57-3.22-.76-4.26-.66-3.03-1.23-6.16-1.99-9.28Z"/><path class="cls-22" d="m214.93,51.14c.76,1.99,2.37,3.41,3.98,4.93,2.27,2.18,4.45,4.64,5.49,7.67,1.14,3.13.95,6.44,1.04,9.76.09,3.31.47,6.72,2.37,9.38.47.57,1.04,1.23,1.7,1.33.95.19,1.8-.28,2.56-.95.76-.57,1.42-1.33,2.27-1.7.57-.19,1.14-.28,1.42-.85.09-.28.09-.57.09-.85,0-3.5,2.08-6.82,1.7-10.23-.28-1.89-1.33-3.69-1.7-5.59-.47-1.89-.28-3.98-.19-5.97.09-3.22-.28-6.44-1.04-9.47-.47-1.89-1.14-3.88-2.46-5.4-.57-.66-1.23-1.23-1.89-1.7-1.99-1.42-4.45-2.37-7.01-2.27-2.84.19-4.93,1.7-6.35,4.17-1.33,2.56-3.13,4.74-1.99,7.77Z"/><path class="cls-8" d="m170.6,125.78s-16.76,56.83,25.57,117.82c0,0,42.53-85.24,26.99-117.82.09,0-23.3,36.09-52.57,0Z"/><path class="cls-13" d="m228.66,33.34c-3.22,0-6.44-1.23-9.66-1.33-3.41-.09-6.91.09-10.32.57-6.82.85-13.45,2.56-19.98,4.55-4.17,1.33-8.52,2.75-12.69,4.55h0c-6.54,2.75-12.69,6.16-17.71,10.89h0c-2.65,2.46-4.93,5.21-6.82,8.33-.09.19-.38.66-.85.47l.66-2.75c0-.19.09-.28.09-.47.09-.38.09-.66.19-1.04h0c.66-4.07,1.33-8.15,1.52-12.31.19-5.4,0-10.23,3.5-14.78,2.46-3.13,5.87-5.49,9.38-7.48,5.3-3.03,11.08-5.59,16.86-7.48.19-.09.47-.19.66-.19,1.23-.38,2.46-.76,3.79-1.14,7.39-2.08,15.53-3.22,22.54.09,4.17,1.89,7.39,5.21,10.23,8.62,1.99,2.37,4.26,4.93,6.35,7.48.19.19.38.47.47.66.57,1.04,1.14,1.89,1.8,2.75Z"/><path class="cls-12" d="m154.22,55.31c6.63-8.24,16.1-13.73,26.14-17.05s20.55-4.74,30.97-5.87c4.45-.47,9-.95,13.45-.57.66.09,1.33.09,1.89.38.76.28,1.33.76,1.89,1.23,7.39,6.06,15.06,12.41,19.79,20.74-.85-1.42-2.27-2.46-3.69-3.31-5.11-3.22-10.42-6.16-16.2-7.96s-12.03-2.37-17.9-.76c-11.18,3.13-18.94,13.64-29.93,17.62-5.78,2.08-12.12,2.18-17.71,4.36-6.25,2.46-14.78,13.35-19.13,18,2.27-6.25,1.61-11.27,6.72-20.65,1.52-2.65,1.8-3.79,3.69-6.16Z"/><path class="cls-12" d="m158.38,39.78l-.76-.09c.09-1.14.28-2.37.38-3.5l.76.09c-.19,1.23-.28,2.37-.38,3.5Z"/><path class="cls-12" d="m159.99,41.1l-.76-.19c.19-1.04.28-2.18.28-3.31h.76c.09,1.23,0,2.37-.28,3.5Z"/><rect class="cls-12" x="157.56" y="42.71" width=".76" height=".57" transform="translate(-2.84 12.27) rotate(-4.41)"/><rect class="cls-12" x="161.7" y="37.98" width=".66" height=".76" transform="translate(85.68 186.33) rotate(-76.02)"/><rect class="cls-12" x="158.85" y="31.58" width="2.75" height=".76" transform="translate(114.18 188.72) rotate(-84.91)"/><rect class="cls-12" x="157.32" y="46.71" width="2.46" height=".76" transform="translate(102.51 202.69) rotate(-86.74)"/><path class="cls-10" d="m171.74,78.8c-.38.57-1.42,1.04-1.99.66l1.99-.66Z"/><path class="cls-10" d="m172.02,78.89c0,.38-.19.85-.76,1.33-.38.28-.95.47-1.52.19l2.27-1.52Z"/><path class="cls-10" d="m220.33,78.89c.57.47,1.61.57,2.08,0h-2.08Z"/><path class="cls-10" d="m220.04,78.99c.09.38.47.76,1.14,1.04.38.09,1.04.19,1.52-.19l-2.65-.85Z"/><path class="cls-19" d="m208.77,408.49c-1.89-7.67-.47-21.88-10.99-23.58-3.6-.57-10.51.09-10.8.19h0c-2.37-.38-4.83.09-7.01,1.04-3.79,1.61-3.79,5.4-3.79,9,0,5.78,1.33,11.55,1.42,17.33.09,3.79-1.7,8.05,3.5,9.09,2.18.47,4.55-.28,6.82,0,2.65.38,5.59.47,8.24.19,3.5-.38,9.38-.38,12.12-3.03,2.75-2.56,1.14-7.2.47-10.23Zm-3.69,6.72c-1.14.95-5.21,1.33-7.39,1.52-.76.09-1.42.09-1.99.19-.85.09-1.8.19-2.75.19-1.42,0-2.84-.09-4.26-.28-.57-.09-1.23-.09-1.89-.09-.85,0-1.7.09-2.37.09-.57,0-1.14.09-1.61.09h-.66c0-.47.09-1.14.09-1.61.09-.85.19-1.89.09-2.94,0-3.03-.38-6.06-.76-8.9-.38-2.94-.66-5.68-.66-8.33,0-3.79.28-4.36.95-4.64,1.14-.47,2.37-.76,3.5-.76.28,0,.66,0,.95.09l.66.09.66-.09c.38,0,3.6-.38,6.44-.38,1.61,0,2.56.09,3.03.19,3.88.66,5.02,4.64,6.06,13.35.28,2.37.57,4.64,1.04,6.72.09.38.19.66.28,1.04.19,1.04.85,3.79.57,4.45Z"/><path class="cls-20" d="m180.45,418.63c-.76.76-1.42-.85-1.52-1.33-.09-.76.09-2.37.57-3.03.47,1.04-.19,2.56.76,3.41.76.66,2.37.38,3.03,1.14.76.95-1.04.57-1.61.47-.47,0-1.52-.38-1.23-.66Z"/><path class="cls-20" d="m179.69,408.68c-.66-1.14-.47-2.94-.57-4.17,0-.57-.38-1.99.09-2.46.66.47.28,1.8.38,2.56.09.76.38,1.61.47,2.37.19.95.19,1.8.09,2.75-.57,0-.47-1.7-.47-1.04Z"/><path class="cls-20" d="m204.79,402.81c.47.95.47,2.18.66,3.31.28,1.23.47,2.37.57,3.5.09,1.33.28,2.75.09,4.07-.19,1.14-.66,2.08-1.33,3.03-.85,1.23-2.18,1.23-3.6,1.23-3.13.09-6.25.76-9.38.57-.57,0-1.7-.28-2.08.38-.57,1.14,1.61.76,2.18.76,2.18,0,4.36-.09,6.54-.28,2.08-.19,4.55-.19,6.54-.76,5.02-1.52,3.22-7.01,2.08-10.61-.28-1.04-.66-2.08-.76-3.22-.09-.95,0-2.08-.47-2.94-.95-1.52-1.14.66-1.04.95Z"/><path class="cls-21" d="m192.48,203.82c.66-5.78-.28-11.65-1.23-17.33-1.52-9.28-3.03-18.75-7.86-26.8-4.17-7.01-11.46-12.88-19.61-12.69-.66,0-1.23.09-1.8.38-.66.38-.95,1.04-1.33,1.7-8.33,17.24-13.17,35.99-17.9,54.55-1.23,4.74-22.07,11.46-22.73,16.29-.57,4.07-17.43,176.17-16.2,180.14,16.1,3.03,79.46,4.74,95.38.85.38-.09,0-176.17,0-176.54-.38-7.86-7.58-12.69-6.72-20.55Z"/><path class="cls-9" d="m160.94,148.6c0,1.42,0,2.94-.09,4.36v.19c0,.38-.09.76-.09,1.14h0c-.85,10.7-4.36,21.41-7.39,31.82-4.17,14.4-7.58,28.98-10.13,43.66v2.37c-.09,13.83,0,83.82-.57,84.48-.09.09.19,6.72.57,16.39.66,15.34,1.8,38.55,2.56,55.6.57,12.98.95,22.54.76,22.54-4.26,1.52-8.33,2.84-12.31,3.98-17.81,5.11-32.96,6.16-46.03,5.02-5.4-.47-10.42-1.23-15.06-2.27-1.99-.38-3.88-.85-5.78-1.42-1.7-.47-3.41-.95-5.11-1.42-1.8-.57-3.5-1.14-5.21-1.61l-.47-.19c-1.8-.57-3.5-1.14-5.11-1.8-14.11-5.02-25.29-9.85-35.52-7.86-3.31-22.73,12.6-68,11.65-80.98-.38-5.87,30.21-90.45,31.44-96.23,2.08-10.04,4.36-20.36,9.94-28.98,4.45-6.82,10.8-12.22,15.34-18.94,3.5-5.11,5.87-10.89,8.9-16.29s6.82-10.61,12.22-13.64c4.64-2.65,10.13-3.41,15.25-5.3,4.45-1.7,8.52-4.17,12.88-5.97,6.54-2.75,13.73-3.88,20.74-3.31.57,0,1.04.09,1.61.19.28,1.14,1.42,1.23,2.37,1.99.66.47,1.04,1.23,1.42,1.99.38.85.57,1.8.76,2.65.28,2.84.47,5.3.47,7.86Z"/><g class="cls-3"><polygon class="cls-5" points=".31 136.95 8.64 147.47 1.45 158.74 -6.89 148.22 .31 136.95"/><polygon class="cls-5" points="15.84 136.2 24.18 146.61 16.98 157.88 8.64 147.47 15.84 136.2"/><polygon class="cls-5" points="31.37 135.34 39.71 145.86 32.51 157.13 24.18 146.61 31.37 135.34"/><polygon class="cls-5" points="46.91 134.59 55.24 145.1 48.04 156.27 39.71 145.86 46.91 134.59"/><polygon class="cls-5" points="62.44 133.83 70.77 144.25 63.58 155.52 55.24 145.1 62.44 133.83"/><polygon class="cls-5" points="77.97 132.98 86.31 143.49 79.11 154.76 70.77 144.25 77.97 132.98"/><polygon class="cls-5" points="93.51 132.22 101.84 142.64 94.64 153.91 86.31 143.49 93.51 132.22"/><polygon class="cls-5" points="1.45 158.74 9.78 169.16 2.58 180.43 -5.75 169.91 1.45 158.74"/><polygon class="cls-5" points="16.98 157.88 25.31 168.4 18.11 179.57 9.78 169.16 16.98 157.88"/><polygon class="cls-5" points="32.51 157.13 40.85 167.55 33.65 178.82 25.31 168.4 32.51 157.13"/><polygon class="cls-5" points="48.04 156.27 56.38 166.79 49.18 178.06 40.85 167.55 48.04 156.27"/><polygon class="cls-5" points="63.58 155.52 71.91 165.93 64.62 177.21 56.38 166.79 63.58 155.52"/><polygon class="cls-5" points="79.11 154.76 87.35 165.18 80.15 176.45 71.91 165.93 79.11 154.76"/><polygon class="cls-5" points="94.64 153.91 102.88 164.42 95.68 175.69 87.35 165.18 94.64 153.91"/><polygon class="cls-5" points="2.58 180.43 10.92 190.84 3.72 202.12 -4.62 191.7 2.58 180.43"/><polygon class="cls-5" points="18.11 179.57 26.45 190.09 19.16 201.36 10.92 190.84 18.11 179.57"/><polygon class="cls-5" points="33.65 178.82 41.89 189.33 34.69 200.51 26.45 190.09 33.65 178.82"/><polygon class="cls-5" points="49.18 178.06 57.42 188.48 50.22 199.75 41.89 189.33 49.18 178.06"/><polygon class="cls-5" points="64.62 177.21 72.95 187.72 65.75 198.99 57.42 188.48 64.62 177.21"/><polygon class="cls-5" points="80.15 176.45 88.49 186.87 81.29 198.14 72.95 187.72 80.15 176.45"/><polygon class="cls-5" points="95.68 175.69 104.02 186.11 96.82 197.38 88.49 186.87 95.68 175.69"/><polygon class="cls-5" points="3.72 202.12 11.96 212.63 4.76 223.8 -3.57 213.39 3.72 202.12"/><polygon class="cls-5" points="19.16 201.36 27.49 211.78 20.29 223.05 11.96 212.63 19.16 201.36"/><polygon class="cls-5" points="34.69 200.51 43.02 211.02 35.83 222.29 27.49 211.78 34.69 200.51"/><polygon class="cls-5" points="50.22 199.75 58.56 210.17 51.36 221.44 43.02 211.02 50.22 199.75"/><polygon class="cls-5" points="65.75 198.99 74.09 209.41 66.89 220.68 58.56 210.17 65.75 198.99"/><polygon class="cls-5" points="81.29 198.14 89.62 208.65 82.42 219.92 74.09 209.41 81.29 198.14"/><polygon class="cls-5" points="96.82 197.38 105.16 207.8 97.96 219.07 89.62 208.65 96.82 197.38"/><polygon class="cls-5" points="4.76 223.8 13.09 234.32 5.9 245.59 -2.44 235.08 4.76 223.8"/><polygon class="cls-5" points="20.29 223.05 28.63 233.56 21.43 244.74 13.09 234.32 20.29 223.05"/><polygon class="cls-5" points="35.83 222.29 44.16 232.71 36.96 243.98 28.63 233.56 35.83 222.29"/><polygon class="cls-5" points="51.36 221.44 59.69 231.95 52.5 243.22 44.16 232.71 51.36 221.44"/><polygon class="cls-5" points="66.89 220.68 75.23 231.1 68.03 242.37 59.69 231.95 66.89 220.68"/><polygon class="cls-5" points="82.42 219.92 90.76 230.34 83.56 241.61 75.23 231.1 82.42 219.92"/><polygon class="cls-5" points="97.96 219.07 106.29 229.58 99 240.76 90.76 230.34 97.96 219.07"/><polygon class="cls-5" points="108.85 131.46 117.18 141.97 109.99 153.24 101.65 142.73 108.85 131.46"/><polygon class="cls-5" points="124.38 130.7 132.72 141.22 125.52 152.39 117.18 141.97 124.38 130.7"/><polygon class="cls-5" points="139.91 129.94 148.25 140.36 141.05 151.63 132.72 141.22 139.91 129.94"/><polygon class="cls-5" points="155.45 129.09 163.78 139.6 156.58 150.88 148.25 140.36 155.45 129.09"/><polygon class="cls-5" points="170.98 128.33 179.32 138.75 172.12 150.02 163.78 139.6 170.98 128.33"/><polygon class="cls-5" points="186.51 127.58 194.85 137.99 187.56 149.27 179.32 138.75 186.51 127.58"/><polygon class="cls-5" points="202.05 126.72 210.29 137.24 203.09 148.41 194.85 137.99 202.05 126.72"/><polygon class="cls-5" points="109.99 153.24 118.32 163.66 111.12 174.93 102.79 164.51 109.99 153.24"/><polygon class="cls-5" points="125.52 152.39 133.85 162.9 126.66 174.17 118.32 163.66 125.52 152.39"/><polygon class="cls-5" points="141.05 151.63 149.39 162.05 142.09 173.32 133.85 162.9 141.05 151.63"/><polygon class="cls-5" points="156.58 150.88 164.82 161.29 157.63 172.56 149.39 162.05 156.58 150.88"/><polygon class="cls-5" points="172.12 150.02 180.36 160.54 173.16 171.81 164.82 161.29 172.12 150.02"/><polygon class="cls-5" points="187.56 149.27 195.89 159.68 188.69 170.95 180.36 160.54 187.56 149.27"/><polygon class="cls-5" points="203.09 148.41 211.42 158.93 204.22 170.2 195.89 159.68 203.09 148.41"/><polygon class="cls-5" points="111.12 174.93 119.36 185.45 112.16 196.62 103.92 186.2 111.12 174.93"/><polygon class="cls-5" points="126.66 174.17 134.9 184.59 127.7 195.86 119.36 185.45 126.66 174.17"/><polygon class="cls-5" points="142.09 173.32 150.43 183.84 143.23 195.11 134.9 184.59 142.09 173.32"/><polygon class="cls-5" points="157.63 172.56 165.96 182.98 158.76 194.25 150.43 183.84 157.63 172.56"/><polygon class="cls-5" points="173.16 171.81 181.49 182.23 174.3 193.5 165.96 182.98 173.16 171.81"/><polygon class="cls-5" points="188.69 170.95 197.03 181.47 189.83 192.64 181.49 182.23 188.69 170.95"/><polygon class="cls-5" points="204.22 170.2 212.56 180.62 205.36 191.89 197.03 181.47 204.22 170.2"/><polygon class="cls-5" points="112.16 196.62 120.5 207.13 113.3 218.41 104.97 207.89 112.16 196.62"/><polygon class="cls-5" points="127.7 195.86 136.03 206.28 128.83 217.55 120.5 207.13 127.7 195.86"/><polygon class="cls-5" points="143.23 195.11 151.56 205.52 144.37 216.8 136.03 206.28 143.23 195.11"/><polygon class="cls-5" points="158.76 194.25 167.1 204.77 159.9 216.04 151.56 205.52 158.76 194.25"/><polygon class="cls-5" points="174.3 193.5 182.63 203.91 175.43 215.19 167.1 204.77 174.3 193.5"/><polygon class="cls-5" points="189.83 192.64 198.16 203.16 190.96 214.43 182.63 203.91 189.83 192.64"/><polygon class="cls-5" points="205.36 191.89 213.7 202.4 206.5 213.58 198.16 203.16 205.36 191.89"/><polygon class="cls-5" points="113.3 218.41 121.64 228.82 114.44 240.09 106.1 229.58 113.3 218.41"/><polygon class="cls-5" points="128.83 217.55 137.17 228.07 129.97 239.34 121.64 228.82 128.83 217.55"/><polygon class="cls-5" points="144.37 216.8 152.7 227.21 145.5 238.48 137.17 228.07 144.37 216.8"/><polygon class="cls-5" points="159.9 216.04 168.23 226.46 161.04 237.73 152.7 227.21 159.9 216.04"/><polygon class="cls-5" points="175.43 215.19 183.77 225.7 176.47 236.87 168.23 226.46 175.43 215.19"/><polygon class="cls-5" points="190.96 214.43 199.2 224.85 192.01 236.12 183.77 225.7 190.96 214.43"/><polygon class="cls-5" points="206.5 213.58 214.74 224.09 207.54 235.36 199.2 224.85 206.5 213.58"/><polygon class="cls-5" points="5.9 245.02 14.14 255.53 6.94 266.71 -1.4 256.29 5.9 245.02"/><polygon class="cls-5" points="21.33 244.26 29.67 254.68 22.47 265.95 14.14 255.53 21.33 244.26"/><polygon class="cls-5" points="36.87 243.41 45.2 253.92 38 265.19 29.67 254.68 36.87 243.41"/><polygon class="cls-5" points="52.4 242.65 60.74 253.07 53.54 264.34 45.2 253.92 52.4 242.65"/><polygon class="cls-5" points="67.93 241.89 76.27 252.31 69.07 263.58 60.74 253.07 67.93 241.89"/><polygon class="cls-5" points="83.47 241.04 91.8 251.56 84.6 262.73 76.27 252.31 83.47 241.04"/><polygon class="cls-5" points="99 240.28 107.33 250.7 100.14 261.97 91.8 251.56 99 240.28"/><polygon class="cls-5" points="6.94 266.71 15.27 277.22 8.08 288.49 -.26 277.98 6.94 266.71"/><polygon class="cls-5" points="22.47 265.95 30.81 276.37 23.61 287.64 15.27 277.22 22.47 265.95"/><polygon class="cls-5" points="38 265.19 46.34 275.61 39.14 286.88 30.81 276.37 38 265.19"/><polygon class="cls-5" points="53.54 264.34 61.87 274.85 54.67 286.13 46.34 275.61 53.54 264.34"/><polygon class="cls-5" points="69.07 263.58 77.4 274 70.21 285.27 61.87 274.85 69.07 263.58"/><polygon class="cls-5" points="84.6 262.73 92.94 273.24 85.74 284.51 77.4 274 84.6 262.73"/><polygon class="cls-5" points="100.14 261.97 108.47 272.49 101.18 283.66 92.94 273.24 100.14 261.97"/><polygon class="cls-5" points="8.08 288.49 16.41 298.91 9.21 310.18 .88 299.76 8.08 288.49"/><polygon class="cls-5" points="23.61 287.64 31.94 298.15 24.74 309.42 16.41 298.91 23.61 287.64"/><polygon class="cls-5" points="39.14 286.88 47.48 297.3 40.28 308.57 31.94 298.15 39.14 286.88"/><polygon class="cls-5" points="54.67 286.13 63.01 296.54 55.72 307.81 47.48 297.3 54.67 286.13"/><polygon class="cls-5" points="70.21 285.27 78.45 295.79 71.25 306.96 63.01 296.54 70.21 285.27"/><polygon class="cls-5" points="85.74 284.51 93.98 294.93 86.78 306.2 78.45 295.79 85.74 284.51"/><polygon class="cls-5" points="101.18 283.66 109.51 294.18 102.31 305.45 93.98 294.93 101.18 283.66"/><polygon class="cls-5" points="9.21 310.18 17.55 320.6 10.25 331.87 2.01 321.45 9.21 310.18"/><polygon class="cls-5" points="24.74 309.42 32.98 319.84 25.79 331.11 17.55 320.6 24.74 309.42"/><polygon class="cls-5" points="40.28 308.57 48.52 319.08 41.32 330.36 32.98 319.84 40.28 308.57"/><polygon class="cls-5" points="55.72 307.81 64.05 318.23 56.85 329.5 48.52 319.08 55.72 307.81"/><polygon class="cls-5" points="71.25 306.96 79.58 317.47 72.38 328.75 64.05 318.23 71.25 306.96"/><polygon class="cls-5" points="86.78 306.2 95.12 316.72 87.92 327.89 79.58 317.47 86.78 306.2"/><polygon class="cls-5" points="102.31 305.45 110.65 315.86 103.45 327.14 95.12 316.72 102.31 305.45"/><polygon class="cls-5" points="10.25 331.87 18.59 342.38 11.39 353.66 3.06 343.14 10.25 331.87"/><polygon class="cls-5" points="25.79 331.11 34.12 341.53 26.92 352.8 18.59 342.38 25.79 331.11"/><polygon class="cls-5" points="41.32 330.36 49.65 340.77 42.46 352.04 34.12 341.53 41.32 330.36"/><polygon class="cls-5" points="56.85 329.5 65.19 340.02 57.99 351.19 49.65 340.77 56.85 329.5"/><polygon class="cls-5" points="72.38 328.75 80.72 339.16 73.52 350.43 65.19 340.02 72.38 328.75"/><polygon class="cls-5" points="87.92 327.89 96.25 338.41 89.05 349.68 80.72 339.16 87.92 327.89"/><polygon class="cls-5" points="103.45 327.14 111.79 337.55 104.59 348.82 96.25 338.41 103.45 327.14"/><polygon class="cls-5" points="114.34 239.53 122.68 250.04 115.48 261.31 107.14 250.8 114.34 239.53"/><polygon class="cls-5" points="129.88 238.77 138.21 249.19 131.01 260.46 122.68 250.04 129.88 238.77"/><polygon class="cls-5" points="145.41 238.01 153.74 248.43 146.54 259.7 138.21 249.19 145.41 238.01"/><polygon class="cls-5" points="160.94 237.16 169.28 247.67 162.08 258.85 153.74 248.43 160.94 237.16"/><polygon class="cls-5" points="176.47 236.4 184.81 246.82 177.61 258.09 169.28 247.67 176.47 236.4"/><polygon class="cls-5" points="192.01 235.55 200.34 246.06 193.14 257.33 184.81 246.82 192.01 235.55"/><polygon class="cls-5" points="207.54 234.79 215.87 245.21 208.68 256.48 200.34 246.06 207.54 234.79"/><polygon class="cls-5" points="115.48 261.31 123.81 271.73 116.62 283 108.28 272.49 115.48 261.31"/><polygon class="cls-5" points="131.01 260.46 139.35 270.97 132.15 282.15 123.81 271.73 131.01 260.46"/><polygon class="cls-5" points="146.54 259.7 154.88 270.12 147.68 281.39 139.35 270.97 146.54 259.7"/><polygon class="cls-5" points="162.08 258.85 170.41 269.36 163.21 280.63 154.88 270.12 162.08 258.85"/><polygon class="cls-5" points="177.61 258.09 185.95 268.6 178.65 279.78 170.41 269.36 177.61 258.09"/><polygon class="cls-5" points="193.14 257.33 201.38 267.75 194.19 279.02 185.95 268.6 193.14 257.33"/><polygon class="cls-5" points="208.68 256.48 216.92 266.99 209.72 278.26 201.38 267.75 208.68 256.48"/><polygon class="cls-5" points="116.62 283 124.95 293.42 117.75 304.69 109.42 294.27 116.62 283"/><polygon class="cls-5" points="132.15 282.15 140.48 292.66 133.19 303.93 124.95 293.42 132.15 282.15"/><polygon class="cls-5" points="147.68 281.39 155.92 291.9 148.72 303.08 140.48 292.66 147.68 281.39"/><polygon class="cls-5" points="163.21 280.63 171.45 291.05 164.26 302.32 155.92 291.9 163.21 280.63"/><polygon class="cls-5" points="178.65 279.78 186.99 290.29 179.79 301.56 171.45 291.05 178.65 279.78"/><polygon class="cls-5" points="194.19 279.02 202.52 289.44 195.32 300.71 186.99 290.29 194.19 279.02"/><polygon class="cls-5" points="209.72 278.26 218.05 288.68 210.85 299.95 202.52 289.44 209.72 278.26"/><polygon class="cls-5" points="117.75 304.69 125.99 315.2 118.79 326.38 110.46 315.96 117.75 304.69"/><polygon class="cls-5" points="133.19 303.93 141.52 314.35 134.33 325.62 125.99 315.2 133.19 303.93"/><polygon class="cls-5" points="148.72 303.08 157.06 313.59 149.86 324.86 141.52 314.35 148.72 303.08"/><polygon class="cls-5" points="164.26 302.32 172.59 312.74 165.39 324.01 157.06 313.59 164.26 302.32"/><polygon class="cls-5" points="179.79 301.56 188.12 311.98 180.93 323.25 172.59 312.74 179.79 301.56"/><polygon class="cls-5" points="195.32 300.71 203.66 311.22 196.46 322.49 188.12 311.98 195.32 300.71"/><polygon class="cls-5" points="210.85 299.95 219.19 310.37 211.99 321.64 203.66 311.22 210.85 299.95"/><polygon class="cls-5" points="118.79 326.38 127.13 336.89 119.93 348.16 111.6 337.65 118.79 326.38"/><polygon class="cls-5" points="134.33 325.62 142.66 336.13 135.46 347.31 127.13 336.89 134.33 325.62"/><polygon class="cls-5" points="149.86 324.86 158.19 335.28 151 346.55 142.66 336.13 149.86 324.86"/><polygon class="cls-5" points="165.39 324.01 173.73 334.52 166.53 345.79 158.19 335.28 165.39 324.01"/><polygon class="cls-5" points="180.93 323.25 189.26 333.67 182.06 344.94 173.73 334.52 180.93 323.25"/><polygon class="cls-5" points="196.46 322.49 204.79 332.91 197.59 344.18 189.26 333.67 196.46 322.49"/><polygon class="cls-5" points="211.99 321.64 220.33 332.16 213.03 343.33 204.79 332.91 211.99 321.64"/></g><g class="cls-27"><polygon class="cls-5" points="-3.86 353.94 4.48 364.45 -2.72 375.72 -11.06 365.21 -3.86 353.94"/><polygon class="cls-5" points="11.67 353.18 20.01 363.6 12.81 374.87 4.48 364.45 11.67 353.18"/><polygon class="cls-5" points="27.21 352.42 35.54 362.84 28.34 374.11 20.01 363.6 27.21 352.42"/><polygon class="cls-5" points="42.74 351.57 51.07 362.08 43.78 373.36 35.54 362.84 42.74 351.57"/><polygon class="cls-5" points="58.27 350.81 66.51 361.23 59.31 372.5 51.07 362.08 58.27 350.81"/><polygon class="cls-5" points="-2.72 375.72 5.61 386.14 -1.68 397.41 -9.92 386.9 -2.72 375.72"/><polygon class="cls-5" points="12.81 374.87 21.05 385.38 13.85 396.65 5.61 386.14 12.81 374.87"/><polygon class="cls-5" points="28.34 374.11 36.58 384.53 29.39 395.8 21.05 385.38 28.34 374.11"/><polygon class="cls-5" points="43.78 373.36 52.12 383.77 44.92 395.04 36.58 384.53 43.78 373.36"/><polygon class="cls-5" points="59.31 372.5 67.65 383.02 60.45 394.19 52.12 383.77 59.31 372.5"/><polygon class="cls-5" points="-1.68 397.41 6.65 407.83 -.54 419.1 -8.88 408.68 -1.68 397.41"/><polygon class="cls-5" points="13.85 396.65 22.19 407.07 14.99 418.34 6.65 407.83 13.85 396.65"/><polygon class="cls-5" points="29.39 395.8 37.72 406.32 30.52 417.49 22.19 407.07 29.39 395.8"/><polygon class="cls-5" points="44.92 395.04 53.25 405.46 46.05 416.73 37.72 406.32 44.92 395.04"/><polygon class="cls-5" points="60.45 394.19 68.79 404.71 61.59 415.98 53.25 405.46 60.45 394.19"/><polygon class="cls-5" points="-.54 419.1 7.79 429.61 .59 440.89 -7.74 430.37 -.54 419.1"/><polygon class="cls-5" points="14.99 418.34 23.32 428.76 16.13 440.03 7.79 429.61 14.99 418.34"/><polygon class="cls-5" points="30.52 417.49 38.86 428 31.66 439.28 23.32 428.76 30.52 417.49"/><polygon class="cls-5" points="46.05 416.73 54.39 427.25 47.19 438.42 38.86 428 46.05 416.73"/><polygon class="cls-5" points="61.59 415.98 69.92 426.39 62.72 437.66 54.39 427.25 61.59 415.98"/><polygon class="cls-5" points=".59 440.89 8.93 451.3 1.73 462.57 -6.61 452.06 .59 440.89"/><polygon class="cls-5" points="16.13 440.03 24.46 450.55 17.17 461.72 8.93 451.3 16.13 440.03"/><polygon class="cls-5" points="31.66 439.28 39.99 449.69 32.7 460.96 24.46 450.55 31.66 439.28"/><polygon class="cls-5" points="47.19 438.42 55.43 448.94 48.23 460.21 39.99 449.69 47.19 438.42"/><polygon class="cls-5" points="62.72 437.66 70.96 448.08 63.77 459.35 55.43 448.94 62.72 437.66"/><polygon class="cls-5" points="73.62 350.06 81.95 360.57 74.75 371.84 66.42 361.33 73.62 350.06"/><polygon class="cls-5" points="89.15 349.3 97.48 359.72 90.29 370.99 81.95 360.57 89.15 349.3"/><polygon class="cls-5" points="104.68 348.54 113.02 358.96 105.82 370.23 97.48 359.72 104.68 348.54"/><polygon class="cls-5" points="120.21 347.69 128.55 358.2 121.26 369.38 113.02 358.96 120.21 347.69"/><polygon class="cls-5" points="135.75 346.93 143.99 357.35 136.79 368.62 128.55 358.2 135.75 346.93"/><polygon class="cls-5" points="151.28 346.08 159.52 356.59 152.32 367.86 143.99 357.35 151.28 346.08"/><polygon class="cls-5" points="166.72 345.32 175.05 355.74 167.85 367.01 159.52 356.59 166.72 345.32"/><polygon class="cls-5" points="74.75 371.84 82.99 382.26 75.79 393.53 67.55 383.02 74.75 371.84"/><polygon class="cls-5" points="90.29 370.99 98.53 381.5 91.33 392.77 82.99 382.26 90.29 370.99"/><polygon class="cls-5" points="105.82 370.23 114.06 380.65 106.86 391.92 98.53 381.5 105.82 370.23"/><polygon class="cls-5" points="121.26 369.38 129.59 379.89 122.39 391.16 114.06 380.65 121.26 369.38"/><polygon class="cls-5" points="136.79 368.62 145.12 379.13 137.93 390.31 129.59 379.89 136.79 368.62"/><polygon class="cls-5" points="152.32 367.86 160.66 378.28 153.46 389.55 145.12 379.13 152.32 367.86"/><polygon class="cls-5" points="167.85 367.01 176.19 377.52 168.99 388.79 160.66 378.28 167.85 367.01"/><polygon class="cls-5" points="75.79 393.53 84.13 403.95 76.93 415.22 68.6 404.8 75.79 393.53"/><polygon class="cls-5" points="91.33 392.77 99.66 403.19 92.46 414.46 84.13 403.95 91.33 392.77"/><polygon class="cls-5" points="106.86 391.92 115.19 402.43 108 413.61 99.66 403.19 106.86 391.92"/><polygon class="cls-5" points="122.39 391.16 130.73 401.58 123.53 412.85 115.19 402.43 122.39 391.16"/><polygon class="cls-5" points="137.93 390.31 146.26 400.82 139.06 412.09 130.73 401.58 137.93 390.31"/><polygon class="cls-5" points="153.46 389.55 161.79 399.97 154.6 411.24 146.26 400.82 153.46 389.55"/><polygon class="cls-5" points="168.99 388.79 177.33 399.21 170.13 410.48 161.79 399.97 168.99 388.79"/><polygon class="cls-5" points="76.93 415.22 85.27 425.73 78.07 437 69.73 426.49 76.93 415.22"/><polygon class="cls-5" points="92.46 414.46 100.8 424.88 93.6 436.15 85.27 425.73 92.46 414.46"/><polygon class="cls-5" points="108 413.61 116.33 424.12 109.13 435.39 100.8 424.88 108 413.61"/><polygon class="cls-5" points="123.53 412.85 131.86 423.36 124.67 434.54 116.33 424.12 123.53 412.85"/><polygon class="cls-5" points="139.06 412.09 147.4 422.51 140.2 433.78 131.86 423.36 139.06 412.09"/><polygon class="cls-5" points="154.6 411.24 162.93 421.75 155.64 433.02 147.4 422.51 154.6 411.24"/><polygon class="cls-5" points="170.13 410.48 178.37 420.9 171.17 432.17 162.93 421.75 170.13 410.48"/><polygon class="cls-5" points="78.07 437 86.4 447.42 79.2 458.69 70.87 448.18 78.07 437"/><polygon class="cls-5" points="93.6 436.15 101.94 446.66 94.64 457.84 86.4 447.42 93.6 436.15"/><polygon class="cls-5" points="109.13 435.39 117.37 445.81 110.18 457.08 101.94 446.66 109.13 435.39"/><polygon class="cls-5" points="124.67 434.54 132.91 445.05 125.71 456.32 117.37 445.81 124.67 434.54"/><polygon class="cls-5" points="140.2 433.78 148.44 444.2 141.24 455.47 132.91 445.05 140.2 433.78"/><polygon class="cls-5" points="155.64 433.02 163.97 443.44 156.77 454.71 148.44 444.2 155.64 433.02"/><polygon class="cls-5" points="171.17 432.17 179.5 442.68 172.31 453.96 163.97 443.44 171.17 432.17"/></g><path class="cls-14" d="m144.75,162.71c-.95.66-1.89,1.33-2.46,2.37-.47.85-.57,1.8-.66,2.75-1.89,16.86-3.69,33.81-5.59,50.67-.38,3.03-.66,6.25.47,9.09s4.07,5.21,7.1,4.55c3.41-19.7,8.43-39.02,14.78-57.96,2.18-6.44,5.3-14.68,2.37-21.31-5.11,3.41-10.8,6.25-16.01,9.85Z"/><path class="cls-14" d="m128.74,151.16c4.07,5.78,9.38,10.61,15.44,14.3.47.28.95.57,1.42.57.57,0,1.14-.28,1.7-.57,6.54-3.6,12.41-8.81,16.29-15.25,2.46-4.17,4.07-8.81,4.45-13.64.28-3.41.57-10.32-4.45-8.15-8.05,3.41-14.59,10.89-21.69,15.91-4.07,2.84-8.43,5.4-13.16,6.82Z"/><path class="cls-26" d="m165.11,124.64c-6.35,9.09-5.4,20.27-11.08,29.83,8.62-2.27,17.81-2.37,26.33-.09-2.94-1.99-4.93-5.11-6.16-8.43s-1.7-6.82-2.27-10.32c-.38-2.65-.38-5.02-.09-7.67.19-2.27.47-5.3-1.7-7.2-1.14-1.04-3.98,2.46-5.02,3.88Z"/><path class="cls-23" d="m184.52,152.3c-.47,1.04.09,2.37.85,3.13.85.85,1.89,1.42,2.75,2.18,1.99,1.7,2.94,4.36,3.79,6.82.85,2.65,1.7,5.21,2.65,7.86.76,2.37,1.52,4.74,1.89,7.1.38,2.46.38,4.93.38,7.39,0,5.68-.09,39.5-.09,45.18,0,.38,0,.76-.19,1.04-.28.47-.95.66-1.52.76-1.7.38-3.41.47-5.21.38-.28,0-.66,0-.95-.19-.38-.28-.47-.85-.57-1.33-.76-5.02-.19-38.17-.76-43.28-.57-4.64-.47-9.38-1.52-14.11-.76-3.5-1.8-7.01-3.03-10.42-.57-1.7-1.52-3.31-2.56-4.74-.85-1.04-3.69-2.56-3.98-3.69-.76-3.31,5.87-4.83,8.05-4.07Z"/><circle class="cls-21" cx="185.66" cy="161.2" r="2.27"/><circle class="cls-11" cx="185.66" cy="161.2" r="1.99"/><circle class="cls-21" cx="185.19" cy="160.73" r=".28"/><circle class="cls-21" cx="186.13" cy="160.73" r=".28"/><circle class="cls-21" cx="185.19" cy="161.58" r=".28"/><circle class="cls-21" cx="186.13" cy="161.58" r=".28"/><circle class="cls-21" cx="190.11" cy="172.56" r="2.27"/><circle class="cls-11" cx="190.11" cy="172.56" r="1.99"/><circle class="cls-21" cx="189.64" cy="172.19" r=".28"/><circle class="cls-21" cx="190.59" cy="172.19" r=".28"/><circle class="cls-21" cx="189.64" cy="172.94" r=".28"/><circle class="cls-21" cx="190.59" cy="172.94" r=".28"/><circle class="cls-21" cx="192.39" cy="184.03" r="2.27"/><circle class="cls-11" cx="192.39" cy="184.03" r="1.99"/><circle class="cls-21" cx="191.91" cy="183.55" r=".28"/><circle class="cls-21" cx="192.86" cy="183.55" r=".28"/><circle class="cls-21" cx="191.91" cy="184.4" r=".28"/><circle class="cls-21" cx="192.86" cy="184.4" r=".28"/><circle class="cls-21" cx="192.86" cy="198.71" r="2.27"/><circle class="cls-11" cx="192.86" cy="198.71" r="1.99"/><circle class="cls-21" cx="192.39" cy="198.33" r=".28"/><circle class="cls-21" cx="193.33" cy="198.33" r=".28"/><circle class="cls-21" cx="192.39" cy="199.18" r=".28"/><circle class="cls-21" cx="193.33" cy="199.18" r=".28"/><circle class="cls-21" cx="192.86" cy="213.1" r="2.27"/><circle class="cls-11" cx="192.86" cy="213.1" r="1.99"/><circle class="cls-21" cx="192.39" cy="212.72" r=".28"/><circle class="cls-21" cx="193.33" cy="212.72" r=".28"/><circle class="cls-21" cx="192.39" cy="213.48" r=".28"/><circle class="cls-21" cx="193.33" cy="213.48" r=".28"/><circle class="cls-21" cx="192.86" cy="228.92" r="2.27"/><circle class="cls-11" cx="192.86" cy="228.92" r="1.99"/><circle class="cls-21" cx="192.39" cy="228.54" r=".28"/><circle class="cls-21" cx="193.33" cy="228.54" r=".28"/><circle class="cls-21" cx="192.39" cy="229.39" r=".28"/><circle class="cls-21" cx="193.33" cy="229.39" r=".28"/><path class="cls-21" d="m198.83,203.82c-.66-5.78.28-11.65,1.23-17.33,1.52-9.28,3.03-18.75,7.86-26.8,4.17-7.01,11.46-12.88,19.61-12.69.66,0,1.23.09,1.8.38.66.38.95,1.04,1.33,1.7,8.33,17.24,13.17,35.99,17.9,54.55,1.23,4.74,18.09,8.81,18.75,13.73.57,4.07,10.8,178.44,9.66,182.42-16.1,3.03-67.91,5.68-83.82,1.8-.38-.09,1.33-161.3,1.33-161.77.38-7.86,5.21-28.13,4.36-35.99Z"/><path class="cls-23" d="m206.02,152.3c.47,1.04-.09,2.37-.85,3.13-.85.85-1.89,1.42-2.75,2.18-1.99,1.7-2.94,4.36-3.79,6.82-.85,2.65-1.7,5.21-2.65,7.86-.76,2.37-1.52,4.74-1.89,7.1-.38,2.46-.38,4.93-.38,7.39v46.41c0,.38,0,.76.19,1.04.28.47.95.66,1.52.76,1.7.38,3.41.47,5.21.38.28,0,.66,0,.95-.19.38-.28.47-.85.57-1.33.28-1.8-.19-31.35-.28-33.15-.09-10.42.85-18.47,2.46-25.38.85-3.5,1.99-7.01,3.22-10.42.57-1.7,1.52-3.31,2.56-4.74.85-1.04,3.69-2.56,3.98-3.69.76-3.41-5.78-4.93-8.05-4.17Z"/><path class="cls-25" d="m99.47,248.52c-10.51,14.02-11.74,32.68-13.35,50.2-1.7,18.28-4.26,36.56-6.91,54.74-.28,2.18-1.14,5.11-1.61,7.29-.85,3.6-1.61,7.29-1.89,10.89-.47,7.48,0,14.87-.95,22.35-.38,2.84-1.33,5.78-1.52,8.62-.09,1.14.66,2.46.47,3.6-.38,3.41-2.56,3.31.66,6.35-.57.85-2.18,1.99-2.37,3.03-.09,1.04.57,1.7,1.04,2.56-1.99-.38-3.88-.85-5.78-1.42.28-4.36.95-8.62,1.42-13.07.66-6.44,1.8-12.88,1.99-19.42.09-5.68-.09-11.27.76-16.86.85-5.49,2.65-10.8,4.07-16.2.38-1.52,2.46-10.61,2.84-10.32,1.52-9.47,3.13-18.94,3.88-28.6.57-7.77.57-15.53,1.52-23.2,1.52-13.07,5.49-25.67,9.38-38.17.66,0,1.33,0,2.08-.66,1.7-1.52.66-5.3,1.04-7.1.19,1.33.19,6.16,3.22,5.4Z"/><path class="cls-1" d="m370.73,392.11c-.28,5.3,4.17,10.7,5.02,15.91,1.52,9.09-1.52,17.71-4.45,26.24"/><path class="cls-25" d="m378.4,398.83c.47-.19.66.38.85.76.47,1.7-1.42,3.88-2.46,5.3-5.21,6.91-14.96,9.57-23.58,10.61-4.45.57-14.78-4.36-14.87-5.68-.09-.57-.57-1.14-.47-1.61.19-2.56,5.59-4.45,7.48-5.02,4.74-1.33,9.57-2.27,14.3-3.41,3.03-.76,5.87-1.61,9-1.99,1.04-.09,10.89-.85,9.76,1.04Z"/><path class="cls-15" d="m348.19,393.91c.19,7.1-2.75,14.02-5.49,20.46-1.33,3.03-1.89,6.25-2.37,9.47-.57,4.17-1.42,8.05.47,12.03,1.42,2.84,5.3-1.61,5.87-3.22.57-1.52.28-3.31.76-4.93.38-1.7,1.14-3.5,1.8-5.02.57-1.42,2.08-3.79,3.5-1.7.66.95-.28,3.13-.57,4.26-1.14,3.98-2.27,7.77-2.94,11.93-.76,4.64,5.97,4.93,10.32,4.36,3.31-.47,6.91-3.88,9.09-6.35,2.65-2.94,4.93-7.77,5.78-11.65,1.33-5.97.19-13.07-1.14-18.94-1.33-5.87-2.65-11.37-7.1-15.72-5.87,2.18-11.74,5.11-18,5.02Z"/><path class="cls-9" d="m234.06,144.44c0,1.42,0,2.94.09,4.36v.19c0,.38.09.76.09,1.14h0c.85,10.7,4.36,21.41,7.39,31.82,4.17,14.4,7.58,28.98,10.13,43.66v2.37c.09,13.83,0,83.82.57,84.48.09.09-.19,6.72-.57,16.39-.66,15.34-1.8,38.55-2.56,55.6-.57,12.98-.95,22.54-.76,22.54,4.26,1.52,8.33,2.84,12.31,3.98,17.81,5.11,32.96,6.16,46.03,5.02,5.4-.47,10.42-1.23,15.06-2.27,1.99-.38,3.88-.85,5.78-1.42,1.7-.47,3.41-.95,5.11-1.42,1.8-.57,3.5-1.14,5.21-1.61l.47-.19c1.8-.57,3.5-1.14,5.11-1.8,14.11-5.02,25.29-9.85,35.52-7.86,3.31-22.73-12.6-68-11.65-80.98.38-5.87-30.21-90.45-31.44-96.23-2.08-10.04-4.36-20.36-9.94-28.98-4.45-6.82-10.8-12.22-15.34-18.94-3.5-5.11-5.87-10.89-8.9-16.29s-6.82-10.61-12.22-13.64c-4.64-2.65-10.13-3.41-15.25-5.3-4.45-1.7-8.52-4.17-12.88-5.97-6.54-2.75-13.73-3.88-20.74-3.31-.57,0-1.04.09-1.61.19-.28,1.14-1.42,1.23-2.37,1.99-.66.47-1.04,1.23-1.42,1.99-.38.85-.57,1.8-.76,2.65-.28,2.84-.47,5.3-.47,7.86Z"/><g class="cls-30"><polygon class="cls-5" points="394.69 132.79 386.36 143.3 393.55 154.57 401.89 144.06 394.69 132.79"/><polygon class="cls-5" points="379.16 132.03 370.82 142.45 378.02 153.72 386.36 143.3 379.16 132.03"/><polygon class="cls-5" points="363.63 131.27 355.29 141.69 362.49 152.96 370.82 142.45 363.63 131.27"/><polygon class="cls-5" points="348.09 130.42 339.76 140.93 346.96 152.2 355.29 141.69 348.09 130.42"/><polygon class="cls-5" points="332.56 129.66 324.23 140.08 331.42 151.35 339.76 140.93 332.56 129.66"/><polygon class="cls-5" points="317.03 128.81 308.69 139.32 315.89 150.59 324.23 140.08 317.03 128.81"/><polygon class="cls-5" points="301.49 128.05 293.16 138.56 300.36 149.74 308.69 139.32 301.49 128.05"/><polygon class="cls-5" points="393.55 154.57 385.22 164.99 392.42 176.26 400.75 165.84 393.55 154.57"/><polygon class="cls-5" points="378.02 153.72 369.69 164.23 376.89 175.5 385.22 164.99 378.02 153.72"/><polygon class="cls-5" points="362.49 152.96 354.15 163.38 361.35 174.65 369.69 164.23 362.49 152.96"/><polygon class="cls-5" points="346.96 152.2 338.62 162.62 345.91 173.89 354.15 163.38 346.96 152.2"/><polygon class="cls-5" points="331.42 151.35 323.09 161.86 330.38 173.04 338.62 162.62 331.42 151.35"/><polygon class="cls-5" points="315.89 150.59 307.65 161.01 314.85 172.28 323.09 161.86 315.89 150.59"/><polygon class="cls-5" points="300.36 149.74 292.12 160.25 299.32 171.52 307.65 161.01 300.36 149.74"/><polygon class="cls-5" points="392.42 176.26 384.08 186.68 391.38 197.95 399.62 187.53 392.42 176.26"/><polygon class="cls-5" points="376.89 175.5 368.65 185.92 375.84 197.19 384.08 186.68 376.89 175.5"/><polygon class="cls-5" points="361.35 174.65 353.11 185.16 360.31 196.43 368.65 185.92 361.35 174.65"/><polygon class="cls-5" points="345.91 173.89 337.58 184.31 344.78 195.58 353.11 185.16 345.91 173.89"/><polygon class="cls-5" points="330.38 173.04 322.05 183.55 329.25 194.82 337.58 184.31 330.38 173.04"/><polygon class="cls-5" points="314.85 172.28 306.51 182.79 313.71 193.97 322.05 183.55 314.85 172.28"/><polygon class="cls-5" points="299.32 171.52 290.98 181.94 298.18 193.21 306.51 182.79 299.32 171.52"/><polygon class="cls-5" points="391.38 197.95 383.04 208.46 390.24 219.73 398.57 209.22 391.38 197.95"/><polygon class="cls-5" points="375.84 197.19 367.51 207.61 374.71 218.88 383.04 208.46 375.84 197.19"/><polygon class="cls-5" points="360.31 196.43 351.98 206.85 359.17 218.12 367.51 207.61 360.31 196.43"/><polygon class="cls-5" points="344.78 195.58 336.44 206.09 343.64 217.27 351.98 206.85 344.78 195.58"/><polygon class="cls-5" points="329.25 194.82 320.91 205.24 328.11 216.51 336.44 206.09 329.25 194.82"/><polygon class="cls-5" points="313.71 193.97 305.38 204.48 312.58 215.75 320.91 205.24 313.71 193.97"/><polygon class="cls-5" points="298.18 193.21 289.84 203.63 297.04 214.9 305.38 204.48 298.18 193.21"/><polygon class="cls-5" points="390.24 219.73 381.91 230.15 389.1 241.42 397.44 230.91 390.24 219.73"/><polygon class="cls-5" points="374.71 218.88 366.37 229.39 373.57 240.66 381.91 230.15 374.71 218.88"/><polygon class="cls-5" points="359.17 218.12 350.84 228.54 358.04 239.81 366.37 229.39 359.17 218.12"/><polygon class="cls-5" points="343.64 217.27 335.31 227.78 342.5 239.05 350.84 228.54 343.64 217.27"/><polygon class="cls-5" points="328.11 216.51 319.77 227.02 326.97 238.2 335.31 227.78 328.11 216.51"/><polygon class="cls-5" points="312.58 215.75 304.24 226.17 311.53 237.44 319.77 227.02 312.58 215.75"/><polygon class="cls-5" points="297.04 214.9 288.71 225.41 296 236.69 304.24 226.17 297.04 214.9"/><polygon class="cls-5" points="286.15 127.39 277.82 137.81 285.01 149.08 293.35 138.56 286.15 127.39"/><polygon class="cls-5" points="270.62 126.53 262.28 137.05 269.48 148.32 277.82 137.81 270.62 126.53"/><polygon class="cls-5" points="255.09 125.78 246.75 136.2 253.95 147.47 262.28 137.05 255.09 125.78"/><polygon class="cls-5" points="239.55 124.92 231.22 135.44 238.42 146.71 246.75 136.2 239.55 124.92"/><polygon class="cls-5" points="224.02 124.17 215.68 134.68 222.88 145.86 231.22 135.44 224.02 124.17"/><polygon class="cls-5" points="208.49 123.41 200.15 133.83 207.44 145.1 215.68 134.68 208.49 123.41"/><polygon class="cls-5" points="192.95 122.56 184.71 133.07 191.91 144.34 200.15 133.83 192.95 122.56"/><polygon class="cls-5" points="285.01 149.08 276.68 159.49 283.88 170.77 292.21 160.35 285.01 149.08"/><polygon class="cls-5" points="269.48 148.32 261.15 158.74 268.44 170.01 276.68 159.49 269.48 148.32"/><polygon class="cls-5" points="253.95 147.47 245.61 157.98 252.91 169.16 261.15 158.74 253.95 147.47"/><polygon class="cls-5" points="238.42 146.71 230.18 157.13 237.37 168.4 245.61 157.98 238.42 146.71"/><polygon class="cls-5" points="222.88 145.86 214.64 156.37 221.84 167.64 230.18 157.13 222.88 145.86"/><polygon class="cls-5" points="207.44 145.1 199.11 155.52 206.31 166.79 214.64 156.37 207.44 145.1"/><polygon class="cls-5" points="191.91 144.34 183.58 154.76 190.78 166.03 199.11 155.52 191.91 144.34"/><polygon class="cls-5" points="283.88 170.77 275.64 181.28 282.84 192.45 291.17 182.04 283.88 170.77"/><polygon class="cls-5" points="268.44 170.01 260.1 180.43 267.3 191.7 275.64 181.28 268.44 170.01"/><polygon class="cls-5" points="252.91 169.16 244.57 179.67 251.77 190.94 260.1 180.43 252.91 169.16"/><polygon class="cls-5" points="237.37 168.4 229.04 178.91 236.24 190.09 244.57 179.67 237.37 168.4"/><polygon class="cls-5" points="221.84 167.64 213.51 178.06 220.7 189.33 229.04 178.91 221.84 167.64"/><polygon class="cls-5" points="206.31 166.79 197.97 177.3 205.17 188.57 213.51 178.06 206.31 166.79"/><polygon class="cls-5" points="190.78 166.03 182.44 176.45 189.64 187.72 197.97 177.3 190.78 166.03"/><polygon class="cls-5" points="282.84 192.45 274.5 202.97 281.7 214.24 290.03 203.73 282.84 192.45"/><polygon class="cls-5" points="267.3 191.7 258.97 202.21 266.17 213.39 274.5 202.97 267.3 191.7"/><polygon class="cls-5" points="251.77 190.94 243.44 201.36 250.63 212.63 258.97 202.21 251.77 190.94"/><polygon class="cls-5" points="236.24 190.09 227.9 200.6 235.1 211.87 243.44 201.36 236.24 190.09"/><polygon class="cls-5" points="220.7 189.33 212.37 199.75 219.57 211.02 227.9 200.6 220.7 189.33"/><polygon class="cls-5" points="205.17 188.57 196.84 198.99 204.04 210.26 212.37 199.75 205.17 188.57"/><polygon class="cls-5" points="189.64 187.72 181.3 198.23 188.5 209.5 196.84 198.99 189.64 187.72"/><polygon class="cls-5" points="281.7 214.24 273.36 224.66 280.56 235.93 288.9 225.51 281.7 214.24"/><polygon class="cls-5" points="266.17 213.39 257.83 223.9 265.03 235.17 273.36 224.66 266.17 213.39"/><polygon class="cls-5" points="250.63 212.63 242.3 223.05 249.5 234.32 257.83 223.9 250.63 212.63"/><polygon class="cls-5" points="235.1 211.87 226.77 222.29 234.06 233.56 242.3 223.05 235.1 211.87"/><polygon class="cls-5" points="219.57 211.02 211.23 221.53 218.53 232.8 226.77 222.29 219.57 211.02"/><polygon class="cls-5" points="204.04 210.26 195.8 220.68 202.99 231.95 211.23 221.53 204.04 210.26"/><polygon class="cls-5" points="188.5 209.5 180.26 219.92 187.46 231.19 195.8 220.68 188.5 209.5"/><polygon class="cls-5" points="389.2 240.85 380.86 251.37 388.06 262.64 396.4 252.12 389.2 240.85"/><polygon class="cls-5" points="373.67 240.09 365.33 250.51 372.53 261.78 380.86 251.37 373.67 240.09"/><polygon class="cls-5" points="358.13 239.24 349.8 249.76 357 261.03 365.33 250.51 358.13 239.24"/><polygon class="cls-5" points="342.6 238.48 334.26 249 341.46 260.17 349.8 249.76 342.6 238.48"/><polygon class="cls-5" points="327.07 237.73 318.73 248.15 325.93 259.42 334.26 249 327.07 237.73"/><polygon class="cls-5" points="311.53 236.87 303.2 247.39 310.4 258.66 318.73 248.15 311.53 236.87"/><polygon class="cls-5" points="296 236.12 287.67 246.54 294.86 257.81 303.2 247.39 296 236.12"/><polygon class="cls-5" points="388.06 262.64 379.73 273.05 386.92 284.33 395.26 273.81 388.06 262.64"/><polygon class="cls-5" points="372.53 261.78 364.19 272.3 371.39 283.47 379.73 273.05 372.53 261.78"/><polygon class="cls-5" points="357 261.03 348.66 271.44 355.86 282.72 364.19 272.3 357 261.03"/><polygon class="cls-5" points="341.46 260.17 333.13 270.69 340.33 281.96 348.66 271.44 341.46 260.17"/><polygon class="cls-5" points="325.93 259.42 317.6 269.83 324.79 281.11 333.13 270.69 325.93 259.42"/><polygon class="cls-5" points="310.4 258.66 302.06 269.08 309.36 280.35 317.6 269.83 310.4 258.66"/><polygon class="cls-5" points="294.86 257.81 286.62 268.32 293.82 279.59 302.06 269.08 294.86 257.81"/><polygon class="cls-5" points="386.92 284.33 378.59 294.74 385.79 306.01 394.12 295.6 386.92 284.33"/><polygon class="cls-5" points="371.39 283.47 363.06 293.99 370.26 305.26 378.59 294.74 371.39 283.47"/><polygon class="cls-5" points="355.86 282.72 347.52 293.23 354.82 304.4 363.06 293.99 355.86 282.72"/><polygon class="cls-5" points="340.33 281.96 332.09 292.38 339.28 303.65 347.52 293.23 340.33 281.96"/><polygon class="cls-5" points="324.79 281.11 316.55 291.62 323.75 302.89 332.09 292.38 324.79 281.11"/><polygon class="cls-5" points="309.36 280.35 301.02 290.77 308.22 302.04 316.55 291.62 309.36 280.35"/><polygon class="cls-5" points="293.82 279.59 285.49 290.01 292.69 301.28 301.02 290.77 293.82 279.59"/><polygon class="cls-5" points="385.79 306.01 377.55 316.53 384.75 327.7 392.99 317.29 385.79 306.01"/><polygon class="cls-5" points="370.26 305.26 362.02 315.68 369.21 326.95 377.55 316.53 370.26 305.26"/><polygon class="cls-5" points="354.82 304.4 346.48 314.92 353.68 326.19 362.02 315.68 354.82 304.4"/><polygon class="cls-5" points="339.28 303.65 330.95 314.07 338.15 325.34 346.48 314.92 339.28 303.65"/><polygon class="cls-5" points="323.75 302.89 315.42 313.31 322.62 324.58 330.95 314.07 323.75 302.89"/><polygon class="cls-5" points="308.22 302.04 299.88 312.55 307.08 323.82 315.42 313.31 308.22 302.04"/><polygon class="cls-5" points="292.69 301.28 284.35 311.7 291.55 322.97 299.88 312.55 292.69 301.28"/><polygon class="cls-5" points="384.75 327.7 376.41 338.22 383.61 349.49 391.94 338.97 384.75 327.7"/><polygon class="cls-5" points="369.21 326.95 360.88 337.36 368.08 348.64 376.41 338.22 369.21 326.95"/><polygon class="cls-5" points="353.68 326.19 345.35 336.61 352.54 347.88 360.88 337.36 353.68 326.19"/><polygon class="cls-5" points="338.15 325.34 329.81 335.85 337.01 347.12 345.35 336.61 338.15 325.34"/><polygon class="cls-5" points="322.62 324.58 314.28 335 321.48 346.27 329.81 335.85 322.62 324.58"/><polygon class="cls-5" points="307.08 323.82 298.75 334.24 305.95 345.51 314.28 335 307.08 323.82"/><polygon class="cls-5" points="291.55 322.97 283.21 333.48 290.41 344.66 298.75 334.24 291.55 322.97"/><polygon class="cls-5" points="280.66 235.36 272.32 245.87 279.52 257.14 287.86 246.63 280.66 235.36"/><polygon class="cls-5" points="265.12 234.6 256.79 245.02 263.99 256.29 272.32 245.87 265.12 234.6"/><polygon class="cls-5" points="249.59 233.84 241.26 244.26 248.46 255.53 256.79 245.02 249.59 233.84"/><polygon class="cls-5" points="234.06 232.99 225.72 243.5 232.92 254.78 241.26 244.26 234.06 232.99"/><polygon class="cls-5" points="218.53 232.23 210.19 242.65 217.39 253.92 225.72 243.5 218.53 232.23"/><polygon class="cls-5" points="202.99 231.48 194.66 241.89 201.86 253.17 210.19 242.65 202.99 231.48"/><polygon class="cls-5" points="187.46 230.62 179.13 241.14 186.32 252.31 194.66 241.89 187.46 230.62"/><polygon class="cls-5" points="279.52 257.14 271.19 267.56 278.38 278.83 286.72 268.41 279.52 257.14"/><polygon class="cls-5" points="263.99 256.29 255.65 266.8 262.85 278.07 271.19 267.56 263.99 256.29"/><polygon class="cls-5" points="248.46 255.53 240.12 265.95 247.32 277.22 255.65 266.8 248.46 255.53"/><polygon class="cls-5" points="232.92 254.78 224.59 265.19 231.88 276.46 240.12 265.95 232.92 254.78"/><polygon class="cls-5" points="217.39 253.92 209.15 264.44 216.35 275.61 224.59 265.19 217.39 253.92"/><polygon class="cls-5" points="201.86 253.17 193.62 263.58 200.81 274.85 209.15 264.44 201.86 253.17"/><polygon class="cls-5" points="186.32 252.31 178.08 262.83 185.28 274.1 193.62 263.58 186.32 252.31"/><polygon class="cls-5" points="278.38 278.83 270.05 289.25 277.34 300.52 285.58 290.1 278.38 278.83"/><polygon class="cls-5" points="262.85 278.07 254.61 288.49 261.81 299.76 270.05 289.25 262.85 278.07"/><polygon class="cls-5" points="247.32 277.22 239.08 287.74 246.28 299.01 254.61 288.49 247.32 277.22"/><polygon class="cls-5" points="231.88 276.46 223.55 286.88 230.74 298.15 239.08 287.74 231.88 276.46"/><polygon class="cls-5" points="216.35 275.61 208.01 286.13 215.21 297.4 223.55 286.88 216.35 275.61"/><polygon class="cls-5" points="200.81 274.85 192.48 285.37 199.68 296.54 208.01 286.13 200.81 274.85"/><polygon class="cls-5" points="185.28 274.1 176.95 284.51 184.15 295.79 192.48 285.37 185.28 274.1"/><polygon class="cls-5" points="277.34 300.52 269.01 311.03 276.21 322.31 284.54 311.79 277.34 300.52"/><polygon class="cls-5" points="261.81 299.76 253.48 310.18 260.67 321.45 269.01 311.03 261.81 299.76"/><polygon class="cls-5" points="246.28 299.01 237.94 309.42 245.14 320.7 253.48 310.18 246.28 299.01"/><polygon class="cls-5" points="230.74 298.15 222.41 308.67 229.61 319.84 237.94 309.42 230.74 298.15"/><polygon class="cls-5" points="215.21 297.4 206.88 307.81 214.07 319.08 222.41 308.67 215.21 297.4"/><polygon class="cls-5" points="199.68 296.54 191.34 307.06 198.54 318.33 206.88 307.81 199.68 296.54"/><polygon class="cls-5" points="184.15 295.79 175.81 306.2 183.01 317.47 191.34 307.06 184.15 295.79"/><polygon class="cls-5" points="276.21 322.31 267.87 332.72 275.07 343.99 283.4 333.48 276.21 322.31"/><polygon class="cls-5" points="260.67 321.45 252.34 331.97 259.54 343.24 267.87 332.72 260.67 321.45"/><polygon class="cls-5" points="245.14 320.7 236.81 331.11 244 342.38 252.34 331.97 245.14 320.7"/><polygon class="cls-5" points="229.61 319.84 221.27 330.36 228.47 341.63 236.81 331.11 229.61 319.84"/><polygon class="cls-5" points="214.07 319.08 205.74 329.6 212.94 340.77 221.27 330.36 214.07 319.08"/><polygon class="cls-5" points="198.54 318.33 190.21 328.75 197.5 340.02 205.74 329.6 198.54 318.33"/><polygon class="cls-5" points="183.01 317.47 174.77 327.99 181.97 339.26 190.21 328.75 183.01 317.47"/></g><g class="cls-29"><polygon class="cls-5" points="398.86 349.77 390.52 360.28 397.72 371.56 406.06 361.04 398.86 349.77"/><polygon class="cls-5" points="383.33 349.01 374.99 359.53 382.19 370.7 390.52 360.28 383.33 349.01"/><polygon class="cls-5" points="367.79 348.26 359.46 358.67 366.75 369.95 374.99 359.53 367.79 348.26"/><polygon class="cls-5" points="352.26 347.4 344.02 357.92 351.22 369.19 359.46 358.67 352.26 347.4"/><polygon class="cls-5" points="336.73 346.65 328.49 357.06 335.69 368.34 344.02 357.92 336.73 346.65"/><polygon class="cls-5" points="397.72 371.56 389.48 381.97 396.68 393.24 404.92 382.83 397.72 371.56"/><polygon class="cls-5" points="382.19 370.7 373.95 381.22 381.15 392.49 389.48 381.97 382.19 370.7"/><polygon class="cls-5" points="366.75 369.95 358.42 380.36 365.61 391.63 373.95 381.22 366.75 369.95"/><polygon class="cls-5" points="351.22 369.19 342.88 379.61 350.08 390.88 358.42 380.36 351.22 369.19"/><polygon class="cls-5" points="335.69 368.34 327.35 378.85 334.55 390.12 342.88 379.61 335.69 368.34"/><polygon class="cls-5" points="396.68 393.24 388.35 403.76 395.54 414.93 403.88 404.52 396.68 393.24"/><polygon class="cls-5" points="381.15 392.49 372.81 402.91 380.01 414.18 388.35 403.76 381.15 392.49"/><polygon class="cls-5" points="365.61 391.63 357.28 402.15 364.48 413.42 372.81 402.91 365.61 391.63"/><polygon class="cls-5" points="350.08 390.88 341.75 401.3 348.95 412.57 357.28 402.15 350.08 390.88"/><polygon class="cls-5" points="334.55 390.12 326.21 400.54 333.41 411.81 341.75 401.3 334.55 390.12"/><polygon class="cls-5" points="395.54 414.93 387.21 425.45 394.41 436.72 402.74 426.2 395.54 414.93"/><polygon class="cls-5" points="380.01 414.18 371.68 424.59 378.87 435.87 387.21 425.45 380.01 414.18"/><polygon class="cls-5" points="364.48 413.42 356.14 423.84 363.34 435.11 371.68 424.59 364.48 413.42"/><polygon class="cls-5" points="348.95 412.57 340.61 423.08 347.81 434.35 356.14 423.84 348.95 412.57"/><polygon class="cls-5" points="333.41 411.81 325.08 422.23 332.37 433.5 340.61 423.08 333.41 411.81"/><polygon class="cls-5" points="394.41 436.72 386.07 447.14 393.27 458.41 401.61 447.99 394.41 436.72"/><polygon class="cls-5" points="378.87 435.87 370.54 446.38 377.83 457.65 386.07 447.14 378.87 435.87"/><polygon class="cls-5" points="363.34 435.11 355.1 445.53 362.3 456.8 370.54 446.38 363.34 435.11"/><polygon class="cls-5" points="347.81 434.35 339.57 444.77 346.77 456.04 355.1 445.53 347.81 434.35"/><polygon class="cls-5" points="332.37 433.5 324.04 444.01 331.23 455.19 339.57 444.77 332.37 433.5"/><polygon class="cls-5" points="321.38 345.89 313.05 356.4 320.25 367.67 328.58 357.16 321.38 345.89"/><polygon class="cls-5" points="305.85 345.13 297.52 355.64 304.71 366.82 313.05 356.4 305.85 345.13"/><polygon class="cls-5" points="290.32 344.37 281.98 354.79 289.28 366.06 297.52 355.64 290.32 344.37"/><polygon class="cls-5" points="274.79 343.52 266.55 354.03 273.74 365.3 281.98 354.79 274.79 343.52"/><polygon class="cls-5" points="259.25 342.76 251.01 353.18 258.21 364.45 266.55 354.03 259.25 342.76"/><polygon class="cls-5" points="243.81 342.01 235.48 352.42 242.68 363.69 251.01 353.18 243.81 342.01"/><polygon class="cls-5" points="228.28 341.15 219.95 351.67 227.15 362.84 235.48 352.42 228.28 341.15"/><polygon class="cls-5" points="320.25 367.67 312.01 378.09 319.21 389.36 327.45 378.94 320.25 367.67"/><polygon class="cls-5" points="304.71 366.82 296.47 377.33 303.67 388.6 312.01 378.09 304.71 366.82"/><polygon class="cls-5" points="289.28 366.06 280.94 376.48 288.14 387.75 296.47 377.33 289.28 366.06"/><polygon class="cls-5" points="273.74 365.3 265.41 375.72 272.61 386.99 280.94 376.48 273.74 365.3"/><polygon class="cls-5" points="258.21 364.45 249.88 374.97 257.07 386.24 265.41 375.72 258.21 364.45"/><polygon class="cls-5" points="242.68 363.69 234.34 374.11 241.54 385.38 249.88 374.97 242.68 363.69"/><polygon class="cls-5" points="227.15 362.84 218.81 373.36 226.01 384.63 234.34 374.11 227.15 362.84"/><polygon class="cls-5" points="319.21 389.36 310.87 399.87 318.07 411.05 326.4 400.63 319.21 389.36"/><polygon class="cls-5" points="303.67 388.6 295.34 399.02 302.54 410.29 310.87 399.87 303.67 388.6"/><polygon class="cls-5" points="288.14 387.75 279.81 398.26 287 409.54 295.34 399.02 288.14 387.75"/><polygon class="cls-5" points="272.61 386.99 264.27 397.41 271.47 408.68 279.81 398.26 272.61 386.99"/><polygon class="cls-5" points="257.07 386.24 248.74 396.65 255.94 407.93 264.27 397.41 257.07 386.24"/><polygon class="cls-5" points="241.54 385.38 233.21 395.9 240.4 407.07 248.74 396.65 241.54 385.38"/><polygon class="cls-5" points="226.01 384.63 217.67 395.04 224.87 406.32 233.21 395.9 226.01 384.63"/><polygon class="cls-5" points="318.07 411.05 309.73 421.56 316.93 432.83 325.27 422.32 318.07 411.05"/><polygon class="cls-5" points="302.54 410.29 294.2 420.71 301.4 431.98 309.73 421.56 302.54 410.29"/><polygon class="cls-5" points="287 409.54 278.67 419.95 285.87 431.22 294.2 420.71 287 409.54"/><polygon class="cls-5" points="271.47 408.68 263.14 419.2 270.33 430.47 278.67 419.95 271.47 408.68"/><polygon class="cls-5" points="255.94 407.93 247.6 418.34 254.9 429.61 263.14 419.2 255.94 407.93"/><polygon class="cls-5" points="240.4 407.07 232.16 417.59 239.36 428.86 247.6 418.34 240.4 407.07"/><polygon class="cls-5" points="224.87 406.32 216.63 416.83 223.83 428 232.16 417.59 224.87 406.32"/><polygon class="cls-5" points="316.93 432.83 308.6 443.25 315.8 454.52 324.13 444.01 316.93 432.83"/><polygon class="cls-5" points="301.4 431.98 293.06 442.5 300.36 453.77 308.6 443.25 301.4 431.98"/><polygon class="cls-5" points="285.87 431.22 277.63 441.64 284.82 452.91 293.06 442.5 285.87 431.22"/><polygon class="cls-5" points="270.33 430.47 262.09 440.89 269.29 452.16 277.63 441.64 270.33 430.47"/><polygon class="cls-5" points="254.9 429.61 246.56 440.13 253.76 451.3 262.09 440.89 254.9 429.61"/><polygon class="cls-5" points="239.36 428.86 231.03 439.28 238.23 450.55 246.56 440.13 239.36 428.86"/><polygon class="cls-5" points="223.83 428 215.5 438.52 222.69 449.79 231.03 439.28 223.83 428"/><polygon class="cls-5" points="238.23 449.98 229.99 460.49 237.18 471.76 245.42 461.25 238.23 449.98"/><polygon class="cls-5" points="222.69 449.22 214.45 459.64 221.65 470.91 229.99 460.49 222.69 449.22"/></g><path class="cls-14" d="m250.25,158.55c.95.66,1.89,1.33,2.46,2.37.47.85.57,1.8.66,2.75,1.89,16.86,3.69,33.81,5.59,50.67.38,3.03.66,6.25-.47,9.09-1.14,2.84-4.07,5.21-7.1,4.55-3.41-19.7-8.43-39.02-14.78-57.96-2.18-6.44-5.3-14.68-2.37-21.31,5.11,3.41,10.8,6.25,16.01,9.85Z"/><path class="cls-14" d="m266.26,146.99c-4.07,5.78-9.38,10.61-15.44,14.3-.47.28-.95.57-1.42.57-.57,0-1.14-.28-1.7-.57-6.54-3.6-12.41-8.81-16.29-15.25-2.46-4.17-4.07-8.81-4.45-13.64-.28-3.41-.57-10.32,4.45-8.15,8.05,3.41,14.59,10.89,21.69,15.91,4.07,2.84,8.43,5.4,13.16,6.82Z"/><path class="cls-25" d="m295.53,244.36c10.51,14.02,11.74,32.68,13.35,50.2,1.7,18.28,4.26,36.56,6.91,54.74.28,2.18,1.14,5.11,1.61,7.29.85,3.6,1.61,7.29,1.89,10.89.47,7.48,0,14.87.95,22.35.38,2.84,1.33,5.78,1.52,8.62.09,1.14-.66,2.46-.47,3.6.38,3.41,2.56,3.31-.66,6.35.57.85,2.18,1.99,2.37,3.03.09,1.04-.57,1.7-1.04,2.56,1.99-.38,3.88-.85,5.78-1.42-.28-4.36-.95-8.62-1.42-13.07-.66-6.44-1.8-12.88-1.99-19.42-.09-5.68.09-11.27-.76-16.86-.85-5.49-2.65-10.8-4.07-16.2-.38-1.52-2.46-10.61-2.84-10.32-1.52-9.47-3.13-18.94-3.88-28.6-.57-7.77-.57-15.53-1.52-23.2-1.52-13.07-5.49-25.67-9.38-38.17-.66,0-1.33,0-2.08-.66-1.7-1.52-.66-5.3-1.04-7.1-.19,1.33-.19,6.16-3.22,5.4Z"/><path class="cls-26" d="m226.58,124.83c5.11,10.99,3.79,20.27,9.47,29.74-8.62-2.27-17.81-2.37-26.33-.09,2.94-1.99,4.93-5.11,6.16-8.43s1.7-6.82,2.27-10.32c.38-2.65.95-6.72,1.52-9.38.57-2.37.57-4.26,3.22-5.3,1.7-.57,2.94,2.18,3.69,3.79Z"/><g class="cls-31"><g class="cls-28"><g class="cls-32"><polygon class="cls-6" points="398.85 53.8 386.33 67.94 395.72 84.46 408.25 70.21 398.85 53.8"/><polygon class="cls-6" points="395.72 84.46 383.2 98.6 392.59 115.01 405.12 100.87 395.72 84.46"/><polygon class="cls-6" points="392.59 115.01 380.07 129.26 389.46 145.67 401.99 131.53 392.59 115.01"/><polygon class="cls-6" points="389.46 145.67 376.94 159.81 386.33 176.33 398.85 162.08 389.46 145.67"/><polygon class="cls-6" points="386.33 176.33 373.81 190.47 383.2 206.88 395.72 192.74 386.33 176.33"/><polygon class="cls-6" points="405.22 208.39 392.7 222.64 402.09 239.05 414.62 224.8 405.22 208.39"/><polygon class="cls-6" points="383.31 206.13 370.79 220.38 380.18 236.79 392.7 222.64 383.31 206.13"/><polygon class="cls-6" points="402.09 239.05 389.57 253.2 398.96 269.71 411.38 255.46 402.09 239.05"/><polygon class="cls-6" points="380.18 236.79 367.65 251.04 377.05 267.45 389.57 253.2 380.18 236.79"/><polygon class="cls-6" points="398.96 269.71 386.44 283.86 395.72 300.27 408.25 286.12 398.96 269.71"/><polygon class="cls-6" points="377.05 267.45 364.52 281.59 373.92 298 386.44 283.86 377.05 267.45"/><polygon class="cls-6" points="395.72 300.27 383.31 314.52 392.59 330.93 405.12 316.68 395.72 300.27"/><polygon class="cls-6" points="373.92 298 361.39 312.25 370.79 328.66 383.31 314.52 373.92 298"/><polygon class="cls-6" points="392.59 330.93 380.07 345.07 389.46 361.59 401.99 347.34 392.59 330.93"/><polygon class="cls-6" points="370.79 328.66 358.26 342.91 367.65 359.32 380.07 345.07 370.79 328.66"/></g></g></g></svg>