<?xml version="1.0" encoding="UTF-8"?><svg id="Layer_1" xmlns="http://www.w3.org/2000/svg" xmlns:xlink="http://www.w3.org/1999/xlink" viewBox="0 0 395 450"><defs><style>.cls-1,.cls-2,.cls-3,.cls-4{fill:none;}.cls-5{clip-path:url(#clippath);}.cls-2{stroke-width:.42px;}.cls-2,.cls-3{stroke:#729fcc;}.cls-2,.cls-3,.cls-4{stroke-miterlimit:10;}.cls-6{fill:#f9efde;}.cls-7{fill:#fff;}.cls-8{fill:#872f2f;}.cls-9{fill:#9e4a26;}.cls-10{fill:#9e3636;}.cls-11{fill:#729fcc;}.cls-12{fill:#d1e7fd;}.cls-13{fill:#121c2b;}.cls-14{fill:#10161c;}.cls-15{fill:#202c38;}.cls-16{fill:#1c5d9c;}.cls-17{fill:#4485c7;}.cls-18{fill:#1a293f;}.cls-19{fill:#93c8fd;}.cls-20{fill:#9ac0e6;}.cls-3{stroke-width:.84px;}.cls-21{opacity:.32;}.cls-21,.cls-22{fill:#dbc4b4;isolation:isolate;}.cls-23{clip-path:url(#clippath-1);}.cls-24{clip-path:url(#clippath-4);}.cls-25{clip-path:url(#clippath-3);}.cls-26{clip-path:url(#clippath-2);}.cls-27{clip-path:url(#clippath-7);}.cls-28{clip-path:url(#clippath-6);}.cls-29{clip-path:url(#clippath-5);}.cls-22{opacity:.63;}.cls-4{stroke:#852d07;stroke-width:.51px;}.cls-30{opacity:.84;}</style><clipPath id="clippath"><path class="cls-1" d="m183.91,148.42c-2.84,8.51,1.42,14.19-6.33,18.66-1.09.65-14.84,2.18-14.4,3.38.11.33.33.55.55.76,11.46,12.66,24.12,24.12,36.12,36.23,5.24,5.35,10.37,10.69,15.5,16.15,7.53,7.97,15.17,16.04,22.7,24.01,9.06,9.6,18.22,19.32,25.32,30.45,6.66-5.13,10.15-13.53,11.02-21.93.87-8.4-.55-16.81-2.29-24.99-6.22-30.12-15.93-60.35-35.58-83.92-1.09-1.31-2.29-2.62-3.82-3.38-1.75-.76-3.6-.76-5.57-.65-9.28.11-18.44-.76-27.5-2.95-8.18-1.96-14.84,5.78-15.71,8.18Z"/></clipPath><clipPath id="clippath-1"><path class="cls-1" d="m239.79,463.58l-19.32-1.75c5.24-59.26-3.6-119.71-25.43-175.04-2.95-7.31-6.11-14.84-9.28-22.04-5.67-13.2-11.57-26.85-16.15-41.03-7.86-24.55-10.37-39.72-6.88-58.17.55-2.95,2.84-5.46,5.67-6.22l2.4.33c1.64.22,3.16-.22,4.47-1.09l2.95-1.96c2.29-.65,4.37,1.31,4.04,3.6-2.84,16.48-.87,36.78,5.78,57.73,4.26,13.2,9.93,26.52,15.5,39.29,3.16,7.31,6.44,14.95,9.49,22.59,23.03,57.95,32.3,121.57,26.74,183.77Z"/></clipPath><clipPath id="clippath-2"><circle class="cls-1" cx="246.33" cy="68.75" r="2.73"/></clipPath><clipPath id="clippath-3"><circle class="cls-1" cx="211.74" cy="70.39" r="2.73"/></clipPath><clipPath id="clippath-4"><path class="cls-1" d="m194.17,56.31c-1.86,3.93-7.97,8.84-9.39,12.99-1.53,4.47-4.69,9.6-4.58,14.41.44,18.55,8.18,30.01,9.93,31.76,2.07,1.96,2.51,5.02,1.86,7.86-6-1.75-12-6.98-15.5-12.22-3.49-5.13-5.57-11.13-7.09-17.13-1.31-5.13-2.07-10.26-2.62-15.5-.33-4.26-.44-8.62-.11-12.99,1.31-13.31,8.08-25.97,18.01-35.03,9.93-8.95,23.14-14.3,36.45-15.28,1.42-.11,2.95-.11,4.04.65,2.18,1.42,2.07,4.58,1.64,7.09-.55,3.49-.11,13.97-3.38,15.71-1.42.76-4.8-.98-10.8-.22-7.86.98-14.62,10.04-18.44,17.9Z"/></clipPath><clipPath id="clippath-5"><path class="cls-1" d="m227.89,15.72c2.07-1.42,4.69-.76,5.78-.44,12,3.71,19.86,11.13,21.17,12.88,2.95,3.71,11.79,11.79,13.86,29.46.33,3.27,4.15,11.68-2.4,32.63-.76-1.86-2.95-6.11-2.84-8.08.11-3.71.11-5.24-.44-7.64-.55-2.73-2.51-4.91-3.16-7.64-.44-2.07-.44-4.37-.76-6.44-1.42-10.91-8.18-20.73-17.57-22.48-2.84-.55-13.1,1.53-14.73.76-1.31-.65-1.64-2.29-1.64-3.71.11-3.6.55-7.31,1.31-10.91.33-1.42-.22-3.06-.11-4.58,0-1.31.44-3.06,1.53-3.82Z"/></clipPath><clipPath id="clippath-6"><path class="cls-1" d="m203.66,14.84c-13.31,4.37-33.5,17.24-44.09,41.25-2.18,5.02-6,18.88-6.98,24.23-1.31,6.88-7.42,28.81-8.29,33.07-.65,2.95-2.62,8.18-2.18,11.02s4.26,6.44,5.67,8.95c2.18,3.6,4.04,7.42,6.33,11.02,0,0-1.75-4.26-.65-7.53s3.06-14.08,1.75-22.37.55-32.52,3.71-43.11c3.16-10.48,7.2-30.23,27.61-46.38l17.13-10.15Z"/></clipPath><clipPath id="clippath-7"><path class="cls-1" d="m203.66,14.84c-13.31,4.37-33.5,17.24-44.09,41.25-2.18,5.02-6,18.88-6.98,24.23-1.31,6.88-7.42,28.81-8.29,33.07-.65,2.95-2.62,8.18-2.18,11.02s4.26,6.44,5.67,8.95c2.18,3.6,4.04,7.42,6.33,11.02,0,0-1.75-4.26-.65-7.53s3.06-14.08,1.75-22.37.55-32.52,3.71-43.11c3.16-10.48,7.2-30.23,27.61-46.38l17.13-10.15Z"/></clipPath></defs><path class="cls-7" d="m430.76,605.2c-8.93,0-18.77-3.56-27.01-9.76-11.57-8.73-20.48-19.64-28.33-29.26-5.28-6.44-10.73-13.09-16.78-19.02-20.99-20.54-49.99-32.32-79.56-32.32-1.77,0-3.57.04-5.33.13-10.25.47-20.83,2.34-31.06,4.16-11.85,2.07-25.3,4.42-38.57,4.42s-24.21-2.29-34.15-7.01c-8.2-3.91-15.48-9.39-22.53-14.7l-.73-.55c-10.98-8.32-20.45-15.5-31.18-15.5-.6,0-1.2.02-1.79.07-1.08.09-2.18.26-3.25.42-.63.1-1.28.19-1.93.28l-.34.05c-3.08.51-6.52,1.09-10.18,1.09-6.05,0-10.73-1.58-14.73-4.98-5.91-5.02-8.44-12.7-7.74-23.48.71-11.42,3.32-22.45,7.74-32.81l2.66-6.22-5.5-3.94c-7.9-5.66-16.63-10.77-24.34-15.27l-1.41-.83c-8.61-5.06-17.52-10.29-25.74-16.44-12.07-8.95-27.78-24.04-34.19-45.13-2.36-7.73-6.68-26.87,4.03-37.67,4.19-4.18,8.68-8.28,13.3-12.45,5.37-4.82,10.6-9.59,15.47-14.8,17.68-18.57,33.63-38.98,47.34-60.6l2.34-3.79c10.91-17.44,22.19-35.46,42.36-43.28,6.36-2.5,12.94-3.69,19.68-4.78l16.27-2.62-12.83-12.84c-4.89-5.35-9.45-11.14-9.91-17.28-2.77-40.49,12.94-92.72,54.27-118,8.45-5.16,18.12-7.78,28.74-7.78,17.39,0,35.68,7.47,46.61,19.04,9.81,10.4,21.29,29.8,20.29,63.14-.06,1.9-.09,4.15-.12,6.59-.03,2.06-.05,4.25-.1,6.46v.13c-.21,26.22-.65,42.72-5.05,50.64l-3.83,6.89,6.61,4.28c11.39,7.38,21.77,18.3,29.22,30.76,9,15.07,14.47,31.27,19.76,46.93.59,1.68,1.14,3.27,1.68,4.85,1.94,5.63,3.78,10.94,5.87,16.34,4.65,11.92,10.3,23.65,15.76,34.99,11.45,23.64,23.28,48.07,26.96,75.39.29,2.21.62,4.81.83,7.33l.09.82c.95,8.41,1.84,16.36,5.49,22.67,4.01,6.98,11.58,12.04,18.92,16.94.82.57,1.64,1.14,2.47,1.71,2.72,1.87,5.53,3.8,8.17,5.89,19.44,15.31,33.35,40.12,39.2,69.89,2.23,11.44,3.46,23.79,3.77,37.74.33,13.74-.25,27.49-.76,39.62-.3,6.97-.75,17.48-7.77,25.26-4.93,5.47-11.38,8.24-19.17,8.24Z"/><path class="cls-18" d="m447.24,589.52c-.33,2.4-.87,5.02-2.95,6.33-1.64.98-3.71.87-5.67.55l-8.95-1.09-3.6-.44c-1.53-.22-2.95-.44-4.37-.76-15.17-3.16-28.26-13.1-35.36-27.06-9.93-19.53-26.63-35.79-46.27-45.94-27.17-14.08-59.26-17.02-89.38-12-12.44,2.07-24.77,5.57-37.43,6.22-26.19,1.53-105.96-15.93-123.64-38.63-3.6-4.69-5.67-10.37-5.67-16.26.11-20.41,11.79-38.63,22.15-56.2,6.33-12.66,13.86-24.77,19.97-37.54,4.04-8.4,6.77-22.7,15.5-26.85,10.91-5.24,33.07-2.18,45.29-3.06,15.17-.98,30.23-1.96,45.4-2.84,28.05-1.75,58.71-2.84,81.08,14.08,15.5,11.68,24.34,30.01,38.2,43.54,20.73,20.3,51.51,28.59,70.93,50.2,21.5,23.9,24.66,58.6,26.08,90.8.76,18.88,1.31,38.09-1.31,56.97Z"/><path class="cls-20" d="m200.83,179.19c.65.55,1.31,1.2,2.18,1.31.76.11,1.42-.22,2.07-.55,7.31-3.38,13.2-9.17,18.88-14.95,10.37-10.48,20.84-20.84,30.77-31.76,1.2-1.31,2.51-2.73,3.06-4.37.44-1.31.55-2.62.76-4.04,1.86-21.93,3.71-43.87,2.07-65.8-.44-5.35-1.09-10.8-4.04-15.28-2.95-4.47-7.75-7.2-12.33-9.82-6.11-3.38-12.33-6.66-19.1-7.97-13.86-2.62-11.35-9.39-23.79-2.73-11.68,6.11-32.41,24.66-36.01,37.32-1.64,5.67-4.58,18.55-5.02,24.34-1.2,14.62,5.02,35.25,0,53.8-2.18,8.18,13.97,14.41,19.86,20.52,6.66,6.98,13.53,13.64,20.63,19.97Z"/><path class="cls-18" d="m283.33,172.21c11.79,7.64,19.64,20.08,25.1,32.96,5.46,12.99,8.73,26.63,13.42,39.94,9.28,26.52,24.01,50.74,34.48,76.72,10.26,25.32,18.12,46.27,18.12,85.23-2.18.33-7.97-8.51-10.26-8.18.98-27.28-4.37-50.64-17.57-74.43-13.31-23.79-30.88-44.96-48.67-65.7-1.42,20.52-12.44,38.96-19.32,58.38-7.2,20.52-9.93,42.56-7.75,64.17-27.83-6.33-56.75,2.73-85.23,1.31-1.64-18.66-9.6-36.78-22.37-50.53-3.93-4.26-8.29-8.08-11.57-12.77-6.98-9.82-8.95-22.37-9.71-34.38-1.64-25.65.87-51.4,7.31-76.28,2.51-9.49,5.57-18.88,10.48-27.28,1.75-3.06,4.26-6.22,7.75-6.44,1.75-.11,3.49.55,5.02,1.31,28.81,13.64,43.22,46.38,68.53,65.7,2.07,1.53,4.58,3.06,6.98,2.29,2.07-.76,3.16-2.95,3.93-4.91,5.02-13.42,3.71-28.26.87-42.34-1.53-7.64-3.6-15.17-6.11-22.59-1.2-3.71-8.4-16.37-4.04-18.01,2.95-1.09,16.81,5.78,20.19,6.88,7.31,2.4,14.19,4.91,20.41,8.95Z"/><path class="cls-12" d="m183.91,148.42c-2.84,8.51,1.42,14.19-6.33,18.66-1.09.65-14.84,2.18-14.4,3.38.11.33.33.55.55.76,11.46,12.66,24.12,24.12,36.12,36.23,5.24,5.35,10.37,10.69,15.5,16.15,7.53,7.97,15.17,16.04,22.7,24.01,9.06,9.6,18.22,19.32,25.32,30.45,6.66-5.13,10.15-13.53,11.02-21.93.87-8.4-.55-16.81-2.29-24.99-6.22-30.12-15.93-60.35-35.58-83.92-1.09-1.31-2.29-2.62-3.82-3.38-1.75-.76-3.6-.76-5.57-.65-9.28.11-18.44-.76-27.5-2.95-8.18-1.96-14.84,5.78-15.71,8.18Z"/><g class="cls-5"><polygon class="cls-11" points="110.47 157.8 122.69 167.3 117.67 181.81 105.45 172.43 110.47 157.8"/><polygon class="cls-11" points="127.6 152.67 139.82 162.06 134.8 176.68 122.69 167.3 127.6 152.67"/><polygon class="cls-11" points="144.84 147.44 157.07 156.93 152.05 171.55 139.82 162.06 144.84 147.44"/><polygon class="cls-11" points="161.98 142.31 174.2 151.8 169.18 166.31 157.07 156.93 161.98 142.31"/><polygon class="cls-11" points="179.22 137.18 191.33 146.56 186.42 161.19 174.2 151.8 179.22 137.18"/><polygon class="cls-11" points="196.35 131.94 208.57 141.43 203.55 156.06 191.33 146.56 196.35 131.94"/><polygon class="cls-11" points="213.59 126.81 225.71 136.3 220.8 150.82 208.57 141.43 213.59 126.81"/><polygon class="cls-11" points="117.67 181.81 129.89 191.31 124.87 205.93 112.65 196.43 117.67 181.81"/><polygon class="cls-11" points="134.8 176.68 147.03 186.07 142.12 200.69 129.89 191.31 134.8 176.68"/><polygon class="cls-11" points="152.05 171.55 164.27 180.94 159.25 195.56 147.03 186.07 152.05 171.55"/><polygon class="cls-11" points="169.18 166.31 181.4 175.81 176.49 190.43 164.27 180.94 169.18 166.31"/><polygon class="cls-11" points="186.42 161.19 198.64 170.57 193.62 185.19 181.4 175.81 186.42 161.19"/><polygon class="cls-11" points="203.55 156.06 215.78 165.44 210.87 180.06 198.64 170.57 203.55 156.06"/><polygon class="cls-11" points="220.8 150.82 233.02 160.31 228 174.94 215.78 165.44 220.8 150.82"/><polygon class="cls-11" points="124.87 205.93 137.1 215.31 132.08 229.94 119.96 220.44 124.87 205.93"/><polygon class="cls-11" points="142.12 200.69 154.34 210.18 149.32 224.81 137.1 215.31 142.12 200.69"/><polygon class="cls-11" points="159.25 195.56 171.47 204.95 166.45 219.57 154.34 210.18 159.25 195.56"/><polygon class="cls-11" points="176.49 190.43 188.6 199.82 183.69 214.44 171.47 204.95 176.49 190.43"/><polygon class="cls-11" points="193.62 185.19 205.85 194.69 200.83 209.31 188.6 199.82 193.62 185.19"/><polygon class="cls-11" points="210.87 180.06 222.98 189.45 218.07 204.07 205.85 194.69 210.87 180.06"/><polygon class="cls-11" points="228 174.94 240.22 184.32 235.2 198.94 222.98 189.45 228 174.94"/><polygon class="cls-11" points="132.08 229.94 144.3 239.32 139.39 253.95 127.16 244.56 132.08 229.94"/><polygon class="cls-11" points="149.32 224.81 161.54 234.19 156.52 248.82 144.3 239.32 149.32 224.81"/><polygon class="cls-11" points="166.45 219.57 178.67 229.06 173.76 243.58 161.54 234.19 166.45 219.57"/><polygon class="cls-11" points="183.69 214.44 195.92 223.83 190.9 238.45 178.67 229.06 183.69 214.44"/><polygon class="cls-11" points="200.83 209.31 213.05 218.7 208.03 233.32 195.92 223.83 200.83 209.31"/><polygon class="cls-11" points="218.07 204.07 230.29 213.57 225.27 228.08 213.05 218.7 218.07 204.07"/><polygon class="cls-11" points="235.2 198.94 247.42 208.33 242.4 222.95 230.29 213.57 235.2 198.94"/><polygon class="cls-11" points="139.39 253.95 151.5 263.44 146.59 277.95 134.37 268.57 139.39 253.95"/><polygon class="cls-11" points="156.52 248.82 168.74 258.2 163.72 272.82 151.5 263.44 156.52 248.82"/><polygon class="cls-11" points="173.76 243.58 185.88 253.07 180.97 267.7 168.74 258.2 173.76 243.58"/><polygon class="cls-11" points="190.9 238.45 203.12 247.94 198.1 262.46 185.88 253.07 190.9 238.45"/><polygon class="cls-11" points="208.03 233.32 220.25 242.7 215.34 257.33 203.12 247.94 208.03 233.32"/><polygon class="cls-11" points="225.27 228.08 237.49 237.58 232.47 252.2 220.25 242.7 225.27 228.08"/><polygon class="cls-11" points="242.4 222.95 254.63 232.45 249.72 246.96 237.49 237.58 242.4 222.95"/><polygon class="cls-11" points="230.62 121.79 242.84 131.18 237.82 145.8 225.6 136.41 230.62 121.79"/><polygon class="cls-11" points="247.75 116.66 259.97 126.05 254.95 140.67 242.84 131.18 247.75 116.66"/><polygon class="cls-11" points="264.99 111.42 277.11 120.92 272.2 135.54 259.97 126.05 264.99 111.42"/><polygon class="cls-11" points="282.13 106.29 294.35 115.68 289.33 130.3 277.11 120.92 282.13 106.29"/><polygon class="cls-11" points="299.26 101.16 311.48 110.55 306.57 125.17 294.35 115.68 299.26 101.16"/><polygon class="cls-11" points="316.5 95.93 328.73 105.42 323.71 120.04 311.48 110.55 316.5 95.93"/><polygon class="cls-11" points="333.64 90.8 345.86 100.18 340.95 114.81 328.73 105.42 333.64 90.8"/><polygon class="cls-11" points="237.82 145.8 250.04 155.29 245.02 169.92 232.8 160.42 237.82 145.8"/><polygon class="cls-11" points="254.95 140.67 267.18 150.05 262.27 164.68 250.04 155.29 254.95 140.67"/><polygon class="cls-11" points="272.2 135.54 284.42 144.93 279.4 159.55 267.18 150.05 272.2 135.54"/><polygon class="cls-11" points="289.33 130.3 301.55 139.8 296.53 154.42 284.42 144.93 289.33 130.3"/><polygon class="cls-11" points="306.57 125.17 318.8 134.56 313.78 149.18 301.55 139.8 306.57 125.17"/><polygon class="cls-11" points="323.71 120.04 335.93 129.43 330.91 144.05 318.8 134.56 323.71 120.04"/><polygon class="cls-11" points="340.95 114.81 353.06 124.3 348.15 138.92 335.93 129.43 340.95 114.81"/><polygon class="cls-11" points="245.02 169.92 257.25 179.3 252.23 193.92 240 184.43 245.02 169.92"/><polygon class="cls-11" points="262.27 164.68 274.38 174.17 269.47 188.69 257.25 179.3 262.27 164.68"/><polygon class="cls-11" points="279.4 159.55 291.62 168.93 286.6 183.56 274.38 174.17 279.4 159.55"/><polygon class="cls-11" points="296.53 154.42 308.76 163.8 303.84 178.43 291.62 168.93 296.53 154.42"/><polygon class="cls-11" points="313.78 149.18 326 158.68 320.98 173.19 308.76 163.8 313.78 149.18"/><polygon class="cls-11" points="330.91 144.05 343.13 153.44 338.22 168.06 326 158.68 330.91 144.05"/><polygon class="cls-11" points="348.15 138.92 360.37 148.31 355.35 162.93 343.13 153.44 348.15 138.92"/><polygon class="cls-11" points="252.23 193.92 264.45 203.31 259.54 217.93 247.32 208.55 252.23 193.92"/><polygon class="cls-11" points="269.47 188.69 281.69 198.18 276.67 212.8 264.45 203.31 269.47 188.69"/><polygon class="cls-11" points="286.6 183.56 298.82 193.05 293.8 207.57 281.69 198.18 286.6 183.56"/><polygon class="cls-11" points="303.84 178.43 315.96 187.81 311.05 202.44 298.82 193.05 303.84 178.43"/><polygon class="cls-11" points="320.98 173.19 333.2 182.68 328.18 197.31 315.96 187.81 320.98 173.19"/><polygon class="cls-11" points="338.22 168.06 350.33 177.55 345.42 192.07 333.2 182.68 338.22 168.06"/><polygon class="cls-11" points="355.35 162.93 367.58 172.32 362.56 186.94 350.33 177.55 355.35 162.93"/><polygon class="cls-11" points="259.54 217.93 271.65 227.43 266.74 241.94 254.52 232.56 259.54 217.93"/><polygon class="cls-11" points="276.67 212.8 288.89 222.19 283.87 236.81 271.65 227.43 276.67 212.8"/><polygon class="cls-11" points="293.8 207.57 306.03 217.06 301.12 231.68 288.89 222.19 293.8 207.57"/><polygon class="cls-11" points="311.05 202.44 323.27 211.93 318.25 226.44 306.03 217.06 311.05 202.44"/><polygon class="cls-11" points="328.18 197.31 340.4 206.69 335.49 221.32 323.27 211.93 328.18 197.31"/><polygon class="cls-11" points="345.42 192.07 357.64 201.56 352.63 216.19 340.4 206.69 345.42 192.07"/><polygon class="cls-11" points="362.56 186.94 374.78 196.43 369.76 210.95 357.64 201.56 362.56 186.94"/><polygon class="cls-11" points="146.37 277.41 158.59 286.79 153.57 301.42 141.35 292.03 146.37 277.41"/><polygon class="cls-11" points="163.61 272.28 175.73 281.66 170.82 296.29 158.59 286.79 163.61 272.28"/><polygon class="cls-11" points="180.75 267.04 192.97 276.53 187.95 291.16 175.73 281.66 180.75 267.04"/><polygon class="cls-11" points="197.88 261.91 210.1 271.3 205.19 285.92 192.97 276.53 197.88 261.91"/><polygon class="cls-11" points="215.12 256.78 227.35 266.17 222.33 280.79 210.1 271.3 215.12 256.78"/><polygon class="cls-11" points="232.26 251.54 244.48 261.04 239.57 275.66 227.35 266.17 232.26 251.54"/><polygon class="cls-11" points="249.5 246.42 261.72 255.8 256.7 270.42 244.48 261.04 249.5 246.42"/><polygon class="cls-11" points="153.57 301.42 165.8 310.91 160.78 325.42 148.66 316.04 153.57 301.42"/><polygon class="cls-11" points="170.82 296.29 183.04 305.67 178.02 320.3 165.8 310.91 170.82 296.29"/><polygon class="cls-11" points="187.95 291.16 200.17 300.54 195.15 315.17 183.04 305.67 187.95 291.16"/><polygon class="cls-11" points="205.19 285.92 217.31 295.41 212.39 309.93 200.17 300.54 205.19 285.92"/><polygon class="cls-11" points="222.33 280.79 234.55 290.18 229.53 304.8 217.31 295.41 222.33 280.79"/><polygon class="cls-11" points="239.57 275.66 251.68 285.05 246.77 299.67 234.55 290.18 239.57 275.66"/><polygon class="cls-11" points="256.7 270.42 268.92 279.92 263.9 294.54 251.68 285.05 256.7 270.42"/><polygon class="cls-11" points="160.78 325.42 173 334.92 168.09 349.54 155.87 340.05 160.78 325.42"/><polygon class="cls-11" points="178.02 320.3 190.24 329.79 185.22 344.3 173 334.92 178.02 320.3"/><polygon class="cls-11" points="195.15 315.17 207.37 324.55 202.46 339.17 190.24 329.79 195.15 315.17"/><polygon class="cls-11" points="212.39 309.93 224.62 319.42 219.6 334.05 207.37 324.55 212.39 309.93"/><polygon class="cls-11" points="229.53 304.8 241.75 314.29 236.73 328.81 224.62 319.42 229.53 304.8"/><polygon class="cls-11" points="246.77 299.67 258.99 309.06 253.97 323.68 241.75 314.29 246.77 299.67"/><polygon class="cls-11" points="263.9 294.54 276.13 303.93 271.11 318.55 258.99 309.06 263.9 294.54"/><polygon class="cls-11" points="168.09 349.54 180.31 358.93 175.29 373.55 163.07 364.17 168.09 349.54"/><polygon class="cls-11" points="185.22 344.3 197.44 353.8 192.42 368.42 180.31 358.93 185.22 344.3"/><polygon class="cls-11" points="202.46 339.17 214.58 348.67 209.67 363.18 197.44 353.8 202.46 339.17"/><polygon class="cls-11" points="219.6 334.05 231.82 343.43 226.8 358.05 214.58 348.67 219.6 334.05"/><polygon class="cls-11" points="236.73 328.81 248.95 338.3 244.04 352.93 231.82 343.43 236.73 328.81"/><polygon class="cls-11" points="253.97 323.68 266.2 333.17 261.17 347.69 248.95 338.3 253.97 323.68"/><polygon class="cls-11" points="271.11 318.55 283.33 327.93 278.42 342.56 266.2 333.17 271.11 318.55"/><polygon class="cls-11" points="175.29 373.55 187.51 382.94 182.49 397.56 170.27 388.17 175.29 373.55"/><polygon class="cls-11" points="192.42 368.42 204.65 377.81 199.74 392.43 187.51 382.94 192.42 368.42"/><polygon class="cls-11" points="209.67 363.18 221.89 372.68 216.87 387.3 204.65 377.81 209.67 363.18"/><polygon class="cls-11" points="226.8 358.05 239.02 367.44 234 382.06 221.89 372.68 226.8 358.05"/><polygon class="cls-11" points="244.04 352.93 256.26 362.31 251.24 376.93 239.02 367.44 244.04 352.93"/><polygon class="cls-11" points="261.17 347.69 273.4 357.18 268.38 371.8 256.26 362.31 261.17 347.69"/><polygon class="cls-11" points="278.42 342.56 290.53 351.94 285.62 366.57 273.4 357.18 278.42 342.56"/><polygon class="cls-11" points="266.52 241.4 278.74 250.78 273.72 265.4 261.5 256.02 266.52 241.4"/><polygon class="cls-11" points="283.66 236.27 295.88 245.65 290.97 260.27 278.74 250.78 283.66 236.27"/><polygon class="cls-11" points="300.9 231.03 313.12 240.52 308.1 255.04 295.88 245.65 300.9 231.03"/><polygon class="cls-11" points="318.03 225.9 330.25 235.28 325.23 249.91 313.12 240.52 318.03 225.9"/><polygon class="cls-11" points="335.27 220.77 347.5 230.16 342.48 244.78 330.25 235.28 335.27 220.77"/><polygon class="cls-11" points="352.41 215.53 364.63 225.03 359.61 239.54 347.5 230.16 352.41 215.53"/><polygon class="cls-11" points="369.65 210.4 381.76 219.79 376.85 234.41 364.63 225.03 369.65 210.4"/><polygon class="cls-11" points="273.72 265.4 285.95 274.9 280.93 289.41 268.7 280.03 273.72 265.4"/><polygon class="cls-11" points="290.97 260.27 303.08 269.66 298.17 284.28 285.95 274.9 290.97 260.27"/><polygon class="cls-11" points="308.1 255.04 320.32 264.53 315.3 279.15 303.08 269.66 308.1 255.04"/><polygon class="cls-11" points="325.23 249.91 337.46 259.4 332.55 273.92 320.32 264.53 325.23 249.91"/><polygon class="cls-11" points="342.48 244.78 354.7 254.16 349.68 268.79 337.46 259.4 342.48 244.78"/><polygon class="cls-11" points="359.61 239.54 371.83 249.03 366.92 263.66 354.7 254.16 359.61 239.54"/><polygon class="cls-11" points="376.85 234.41 389.07 243.91 384.05 258.42 371.83 249.03 376.85 234.41"/><polygon class="cls-11" points="280.93 289.41 293.15 298.91 288.24 313.53 276.02 304.04 280.93 289.41"/><polygon class="cls-11" points="298.17 284.28 310.39 293.78 305.37 308.29 293.15 298.91 298.17 284.28"/><polygon class="cls-11" points="315.3 279.15 327.53 288.54 322.51 303.16 310.39 293.78 315.3 279.15"/><polygon class="cls-11" points="332.55 273.92 344.77 283.41 339.75 298.03 327.53 288.54 332.55 273.92"/><polygon class="cls-11" points="349.68 268.79 361.9 278.28 356.88 292.8 344.77 283.41 349.68 268.79"/><polygon class="cls-11" points="366.92 263.66 379.03 273.04 374.12 287.67 361.9 278.28 366.92 263.66"/><polygon class="cls-11" points="384.05 258.42 396.28 267.91 391.26 282.54 379.03 273.04 384.05 258.42"/><polygon class="cls-11" points="288.24 313.53 300.35 322.91 295.44 337.54 283.22 328.04 288.24 313.53"/><polygon class="cls-11" points="305.37 308.29 317.59 317.79 312.57 332.41 300.35 322.91 305.37 308.29"/><polygon class="cls-11" points="322.51 303.16 334.73 312.55 329.82 327.17 317.59 317.79 322.51 303.16"/><polygon class="cls-11" points="339.75 298.03 351.97 307.42 346.95 322.04 334.73 312.55 339.75 298.03"/><polygon class="cls-11" points="356.88 292.8 369.1 302.29 364.19 316.91 351.97 307.42 356.88 292.8"/><polygon class="cls-11" points="374.12 287.67 386.35 297.05 381.33 311.67 369.1 302.29 374.12 287.67"/><polygon class="cls-11" points="391.26 282.54 403.48 291.92 398.46 306.55 386.35 297.05 391.26 282.54"/><polygon class="cls-11" points="295.44 337.54 307.66 346.92 302.64 361.55 290.42 352.16 295.44 337.54"/><polygon class="cls-11" points="312.57 332.41 324.8 341.79 319.78 356.42 307.66 346.92 312.57 332.41"/><polygon class="cls-11" points="329.82 327.17 341.93 336.66 337.02 351.29 324.8 341.79 329.82 327.17"/><polygon class="cls-11" points="346.95 322.04 359.17 331.43 354.15 346.05 341.93 336.66 346.95 322.04"/><polygon class="cls-11" points="364.19 316.91 376.31 326.3 371.4 340.92 359.17 331.43 364.19 316.91"/><polygon class="cls-11" points="381.33 311.67 393.55 321.17 388.53 335.79 376.31 326.3 381.33 311.67"/><polygon class="cls-11" points="398.46 306.55 410.68 315.93 405.77 330.55 393.55 321.17 398.46 306.55"/></g><path class="cls-6" d="m243.06,158.35l-5.02,13.1c-2.84,7.42-11.89,10.26-18.44,5.78l-28.05-18.88v-54.78h51.62v54.78h-.11Z"/><path class="cls-12" d="m263.79,145.03l-23.46-20.3,25.86-69.41s5.57,18.55.55,47.14c-5.02,28.59-8.51,38.96-2.95,42.56Z"/><path class="cls-22" d="m243.06,158.35l-5.02,13.1c-2.84,7.42-11.89,10.26-18.44,5.78l-28.05-18.88v-54.78h51.62v54.78h-.11Z"/><path class="cls-9" d="m230.62,16.48c1.75-.55,3.6-.33,5.46,0,6.77,1.64,12.22,6.66,16.59,12.11,11.68,14.51,18.12,33.72,15.28,52.16-.55,3.6-1.42,7.2-1.96,10.8-.44,3.16-.55,6.44-1.2,9.6-2.07,9.71-9.71,18.12-19.1,21.06-.22-9.49-1.96-18.88-4.91-27.94-1.2-3.71-2.73-7.75-1.09-11.35-5.67-2.95-10.04-8.08-12.88-13.75s-4.15-12.11-4.69-18.44c-.55-6.44-.33-12.88,1.09-19.21.76-3.27,1.86-6.22,3.16-9.28.98-2.4,1.09-4.8,4.26-5.78Z"/><path class="cls-6" d="m263.69,77.05c-.33,6.77-.65,13.53-.98,20.19-.22,3.82-.33,7.75-1.86,11.35-1.75,4.47-5.35,7.97-8.73,11.35-6.44,6.33-13.75,12.88-22.81,13.53-1.53.11-2.95,0-4.47-.11-1.75-.22-3.6-.55-5.35-.87-5.46.76-11.35-1.53-15.93-4.47-4.58-2.95-8.4-6.98-12.22-10.91-4.04-4.37-8.18-8.95-10.26-14.51-1.53-4.04-1.86-8.51-2.18-12.77-.65-11.57-.55-23.46,3.71-34.16,3.38-8.62,9.28-16.04,15.17-23.14,6.22-7.64,22.37-14.62,31.32-14.62,3.49,0,6.22,3.27,8.95,5.46,4.58,3.71,8.62,8.29,12.44,12.88,5.35,6.55,10.59,14.19,9.71,22.59-.11,1.53,1.75,2.95,2.07,4.47.44,1.96-.44,3.6.44,5.46,1.2,2.51,1.09,5.46.98,8.29Z"/><path class="cls-18" d="m116.47,175.37c-13.64,6.66-21.28,21.28-28.48,34.7-8.4,15.82-17.68,31.32-29.9,44.42-11.46,12.11-25.21,21.72-36.78,33.72-11.46,12-20.84,27.61-20.08,44.2.76,14.62,9.39,27.94,20.84,36.99,5.35,4.15,35.03,27.94,55.44,12.22,5.57-4.37,1.75-25.32,6.33-30.67,7.97-9.39,15.17-20.41,26.63-25.1,2.51-.98,5.13-1.75,7.86-1.64,3.06.11,6.11,1.31,8.84,2.62,6.22,2.95,12,6.98,16.91,11.68,1.86,1.75,3.93,3.82,6.55,3.93,3.6.11,6-3.6,7.2-6.98,2.07-6,2.29-12.55.76-18.66-1.42-5.57-4.26-10.8-5.02-16.48-.76-6.22,1.09-12.55,1.75-18.77.65-6.66-.22-13.42-2.4-19.75-1.09-2.95-2.4-5.89-2.95-9.06-.98-5.35.44-10.69,1.96-15.93,4.37-15.71,8.62-31.43,12.99-47.14,1.31-4.58,4.15-13.53,1.09-17.9-2.95-4.15-9.17-1.75-13.75-1.53-12,.65-24.77-.33-35.79,5.13Z"/><path class="cls-13" d="m429.78,595.3l-3.6-.44c-1.53-.22-2.95-.44-4.37-.76-2.07-24.55-4.15-49.11-6.22-73.66-.98-11.9-2.07-23.9-5.46-35.25-3.38-11.46-9.49-22.37-18.99-29.68-10.48-8.08-24.01-10.8-37.1-12.55-24.01-3.16-48.34-3.38-72.57-1.86-8.29.55-17.35,1.09-24.23-3.6-5.89-4.04-8.73-11.02-11.24-17.68-.22-.65-.55-1.42-.44-2.18.33-1.86,2.73-2.4,4.58-2.95s3.71-2.95,2.18-4.15c9.71,2.95,17.24-3.27,26.19-5.35,9.71-2.29,20.19-2.51,30.12-1.86,20.08,1.31,39.83,7.75,56.75,18.77,9.49,6.22,18.01,13.75,27.5,19.97,6.77,4.37,13.97,7.97,19.75,13.53,8.73,8.29,13.31,20.08,15.17,31.97,1.86,11.9,1.2,24.01.87,36.01-.87,23.9-.44,47.8,1.09,71.7Z"/><path class="cls-6" d="m295.99,435.54c-1.53,3.16-3.49,6-4.8,9.28-3.82,9.39-1.42,20.52-5.89,29.57-.33.65-.65,1.42.11,1.96.65.55,1.53.44,2.29,0,3.82-2.51,4.58-4.04,6.11-6.98,1.31-2.73,1.75-6.55.87-9.49,1.2,4.8,3.49,8.73,4.15,13.2,1.09,6.33,2.62,13.31,4.47,22.15.33,1.53,1.96,3.27,3.49,3.6,1.31.22,2.51-.87,2.84-2.18s.11-2.62-.11-3.93c-1.53-7.64-2.29-16.15-3.82-23.79.55.11,1.2.76,1.64,1.64.55,1.09,1.75,3.27,2.62,8.51.11.87.33,4.8.55,5.67.22,1.09.65,3.06.87,4.15.65,3.27,1.2,6,1.75,9.49.11.65.33,1.31.76,1.86,1.53,1.96,3.6.87,4.26-.65.44-.98.44-2.18.33-3.27-.11-2.62-.55-5.24-.76-7.86-.11-1.31-.11-2.51-.22-3.82-.11-1.2-.55-2.4-.65-3.49-.33-2.18-.76-4.26-1.2-6.44-.33-1.53-.44-3.82-.22-5.67.11-.65.98-.98,1.31-.33,1.09,1.64,1.53,4.47,1.64,6.22.87,7.53,3.06,13.64,3.6,21.28.11,1.64,2.4,4.26,4.37,2.4,3.06-2.73.22-6.55-.11-10.48-.33-4.26-1.2-7.97-1.86-11.57-.65-3.49-.87-8.73-.76-9.28.11-.98,1.42-1.09,1.86-.22,2.4,5.78,2.29,12.44,3.38,18.66.22,1.53,1.42,2.95,2.84,2.4.87-3.93.98-7.53.65-11.46-.22-2.95-.76-5.89-1.31-8.84-.65-3.93-1.42-7.75-2.07-11.68-.87-4.69-1.75-9.39-3.16-13.97-.98-3.16-2.29-6.33-3.16-9.6-.98-3.82-1.31-7.75-1.42-11.68-.33-9.39.33-18.88,2.07-28.16-4.58.65-9.17,1.75-13.64,3.06-2.62.76-7.75,2.07-9.17,4.58-1.42,2.51,0,7.97,0,10.8-.11,8.29-.87,16.81-4.48,24.34Z"/><path class="cls-12" d="m295.55,261.8c-7.53,12.77,1.42,20.08-13.75,42.67-4.58,6.77-16.15,41.58-18.01,58.06-1.42,12.22-6.33,37.87-4.47,49.76,1.64,10.59,8.08,21.28,18.77,21.93,6.55.44,12.99-2.4,18.12-6.44,5.13-4.04,9.28-9.28,13.31-14.51,0,7.09.65,14.62,4.91,20.3,4.47,6.11,12.44,9.06,19.97,8.62,7.53-.55,14.62-4.15,20.41-9.06,1.96-1.64,4.91-3.6,6.88-1.86.55.44.87,1.2,1.31,1.75,1.64,2.07,4.91,2.4,7.31,1.2s3.93-3.6,5.02-6c4.58-11.13-.22-24.01-7.42-33.61,1.64-2.07,1.86-4.91,1.96-7.53.98-40.16-26.08-83.59-51.95-112.51-4.26-4.37-16.37-22.92-22.37-12.77Z"/><path class="cls-21" d="m263.69,77.05c-.33,6.77-.65,13.53-.98,20.19-.22,3.82-.33,7.75-1.86,11.35-1.75,4.47-5.35,7.97-8.73,11.35-6.44,6.33-13.75,12.88-22.81,13.53-1.53.11-2.95,0-4.47-.11,5.24-6.98-1.86-13.1-.33-18.22,1.09-3.49,1.2-3.93,1.42-7.64.11-2.51-.55-4.91-1.31-7.31,3.71.11,7.97-1.75,8.95-5.35.55-2.18-.22-4.37-.87-6.44-1.75-5.35-3.16-10.91-4.26-16.48-1.86-9.71-2.62-19.64-2.4-29.57.11-4.15-.22-8.08,2.07-11.68,2.07-3.27,5.24-5.78,8.84-6.98.33-.11.76-.22,1.09-.33,4.58,3.71,8.62,8.29,12.44,12.88,5.35,6.55,10.59,14.19,9.71,22.59-.11,1.53,1.75,2.95,2.07,4.47.44,1.96-.44,3.6.44,5.46,1.2,2.51,1.09,5.46.98,8.29Z"/><path class="cls-9" d="m239.79,463.58l-19.32-1.75c5.24-59.26-3.6-119.71-25.43-175.04-2.95-7.31-6.11-14.84-9.28-22.04-5.67-13.2-11.57-26.85-16.15-41.03-7.86-24.55-10.37-39.72-6.88-58.17.55-2.95,2.84-5.46,5.67-6.22l2.4.33c1.64.22,3.16-.22,4.47-1.09l2.95-1.96c2.29-.65,4.37,1.31,4.04,3.6-2.84,16.48-.87,36.78,5.78,57.73,4.26,13.2,9.93,26.52,15.5,39.29,3.16,7.31,6.44,14.95,9.49,22.59,23.03,57.95,32.3,121.57,26.74,183.77Z"/><g class="cls-23"><path class="cls-4" d="m177.25,155.29c-4.15,6.44-8.29,13.1-9.71,20.52"/><path class="cls-4" d="m167.54,158.35c1.31,2.29,2.51,4.69,3.82,6.98"/><path class="cls-4" d="m160.56,170.68c1.96,1.75,4.37,2.95,6.44,4.47,1.86,1.31,3.49,2.73,4.91,4.37"/><path class="cls-4" d="m183.58,166.21c-3.6,3.06-6.98,6.44-9.71,10.26s-4.91,8.18-5.89,12.77"/><path class="cls-4" d="m159.79,184.87c6.44,2.62,11.89,7.42,15.39,13.31"/><path class="cls-4" d="m184.89,183.45c-2.84,3.38-5.67,6.77-7.86,10.69s-3.6,8.18-3.49,12.66"/><path class="cls-4" d="m160.56,199.16c4.26,1.64,8.4,3.71,11.89,6.66s6.22,6.88,7.2,11.35"/><path class="cls-4" d="m178.35,226.99c-.11-4.8,1.09-9.82,3.16-13.53s4.91-6.98,7.64-10.26"/><path class="cls-4" d="m167.76,224.92c1.75-.22,6-.33,10.59,2.07,4.91,2.51,7.2,6.44,8.08,7.97"/><path class="cls-4" d="m185,244.23c-.22-1.75-.33-6,2.07-10.59,2.51-4.91,6.44-7.2,7.97-8.08"/><path class="cls-4" d="m173.22,245.11c1.53-.65,5.67-2.07,10.8-1.09,5.46,1.09,9.82,4.8,11.02,6"/><path class="cls-4" d="m196.13,262.46c-.65-1.53-2.07-5.67-1.09-10.8,1.09-5.46,4.15-8.84,5.35-9.93"/><path class="cls-4" d="m175.84,261.48c3.93,1.42,6-2.62,14.08-1.53,3.71.55,7.64,2.51,12.33,7.64"/><path class="cls-4" d="m206.83,258.31c-4.47,5.89-6.55,13.53-5.67,20.95"/><path class="cls-4" d="m185.88,274.57c3.27,0,11.13,2.51,13.2,3.49,4.26,1.86,6.98,5.89,9.6,9.71"/><path class="cls-4" d="m214.8,275.44c-1.96,3.06-4.04,6.11-5.24,9.49-1.31,3.38-.87,11.35.22,14.73"/><path class="cls-4" d="m221.23,297.05c-1.53.65-2.84,1.75-3.82,3.06-1.96,2.4-2.95,5.35-3.49,8.4s-.33,6.11-.22,9.17"/><path class="cls-4" d="m200.5,314.18c1.75-.11,8.4-.33,13.97,4.37,2.73,2.29,4.26,4.8,5.02,6.55"/><path class="cls-4" d="m227.24,312.77c-1.53,1.2-4.15,3.6-6,7.42-2.4,4.91-2.18,9.49-2.07,11.57"/><path class="cls-4" d="m206.06,328.26c.98-.22,7.53-1.09,12.99,3.38,4.15,3.49,5.24,7.97,5.57,9.39"/><path class="cls-4" d="m231.82,332.95c-1.64.98-4.69,3.27-6.88,7.31-1.53,2.73-1.31,7.09-1.53,8.73"/><path class="cls-4" d="m194.06,295.96c3.06,0,7.53.33,12.55,2.18,3.16,1.2,6.77,3.93,8.73,5.24"/><path class="cls-4" d="m210.32,343.32c1.75,0,5.35.33,9.28,2.51,4.37,2.51,6.88,7.31,7.64,8.84"/><path class="cls-4" d="m236.18,347.25c-1.53.55-4.8,1.86-7.53,5.13-4.04,4.91-3.06,12.44-2.95,13.75"/><path class="cls-4" d="m213.49,359.04c1.96.44,7.64,1.86,12.22,7.2,3.49,4.04,4.47,8.29,4.8,10.37"/><path class="cls-4" d="m238.8,368.42c-1.42.76-7.2,3.93-9.71,10.91-1.64,4.58-.98,8.62-.65,10.48"/><path class="cls-4" d="m216.76,380.1c2.18.87,5.67,2.73,8.95,6.33,4.37,4.8,5.67,10.15,6.11,12.55"/><path class="cls-4" d="m242.19,390.79c-1.86.55-5.57,2.07-8.62,5.67-4.8,5.57-4.8,12-4.69,13.64"/><path class="cls-4" d="m218.29,403.12c1.53.33,5.89,1.42,9.49,5.35,4.04,4.47,4.47,9.6,4.58,11.02"/><path class="cls-4" d="m242.62,413.6c-1.53.22-4.91.98-7.97,3.82-4.8,4.37-5.13,10.26-5.13,11.46"/><path class="cls-4" d="m219.92,422.11c1.42.44,5.67,1.86,8.95,6.22,3.71,5.02,3.27,10.48,3.16,11.79"/><path class="cls-4" d="m243.61,434.44c-.76,0-8.73.65-12.88,7.53-2.4,4.04-2.18,8.18-1.96,9.71"/><path class="cls-4" d="m220.47,445.68c1.53.65,6.55,2.95,9.6,8.51,2.07,3.82,2.29,7.53,2.18,9.28"/></g><path class="cls-19" d="m246.33,71.48c-1.53,0-2.84-1.31-2.84-2.84s1.31-2.84,2.84-2.84,2.84,1.31,2.84,2.84-1.31,2.84-2.84,2.84Z"/><path class="cls-18" d="m246.33,65.92c1.53,0,2.73,1.2,2.73,2.73s-1.2,2.73-2.73,2.73-2.73-1.2-2.73-2.73,1.2-2.73,2.73-2.73m0-.11c-1.64,0-2.84,1.31-2.84,2.84s1.31,2.84,2.84,2.84,2.84-1.31,2.84-2.84-1.31-2.84-2.84-2.84h0Z"/><circle class="cls-17" cx="246.33" cy="68.75" r="2.51"/><g class="cls-30"><g class="cls-26"><polygon class="cls-16" points="246.33 68.97 246.44 70.83 246.12 68.97 246.33 68.97"/><polygon class="cls-16" points="245.68 68.97 244.37 70.06 245.46 68.75 245.68 68.97"/><polygon class="cls-16" points="245.13 68.54 244.48 68.64 245.13 68.32 245.13 68.54"/><path class="cls-16" d="m246.88,68.64c.22,0,.22.11.33.11l.22.11.44.33-.55-.22-.33-.11c-.11,0-.22-.11-.22,0l.11-.22Z"/><polygon class="cls-16" points="246.88 68.86 247.42 69.63 246.66 69.08 246.88 68.86"/><polygon class="cls-16" points="246.12 69.08 245.68 71.05 245.79 68.97 246.12 69.08"/><path class="cls-16" d="m246.99,67.88c.44-.11.76-.11,1.2-.11-.44.11-.76.22-1.09.33l-.11-.22Z"/><polygon class="cls-16" points="245.79 69.19 245.13 69.84 245.57 69.08 245.79 69.19"/><path class="cls-16" d="m245.24,68.75c-.22.11-.55.22-.76.33.11-.22.33-.44.65-.65l.11.33Z"/><path class="cls-16" d="m247.1,68.21c.33,0,.55.11.76.22-.22-.11-.44,0-.65.11l-.11-.33Z"/><polygon class="cls-16" points="246.77 69.08 246.99 69.84 246.44 69.19 246.77 69.08"/><polygon class="cls-16" points="245.35 68.32 243.61 68.21 245.35 68.1 245.35 68.32"/><polygon class="cls-16" points="245.46 67.66 244.59 66.24 245.68 67.44 245.46 67.66"/><polygon class="cls-16" points="245.9 67.23 245.9 66.57 246.22 67.23 245.9 67.23"/><path class="cls-16" d="m245.68,68.97c0,.11-.11.22-.22.33l-.22.22-.44.44.22-.55.11-.22c0-.11.11-.22.11-.22h.44Z"/><polygon class="cls-16" points="245.35 68.86 244.59 69.3 245.24 68.64 245.35 68.86"/><polygon class="cls-16" points="245.35 68.1 243.5 67.33 245.35 67.77 245.35 68.1"/><path class="cls-16" d="m246.33,69.08c0,.44,0,.76-.11,1.2,0-.44-.11-.76-.22-1.09l.33-.11Z"/><polygon class="cls-16" points="245.24 67.77 244.59 67.01 245.35 67.55 245.24 67.77"/><path class="cls-16" d="m245.79,67.33c0-.22-.11-.55-.22-.76.22.22.44.44.55.65l-.33.11Z"/><path class="cls-16" d="m246.01,69.08c0,.33-.11.55-.33.76.11-.22.11-.44,0-.65l.33-.11Z"/><polygon class="cls-16" points="245.13 68.64 244.37 68.86 245.13 68.43 245.13 68.64"/><polygon class="cls-16" points="246.12 67.44 246.55 65.7 246.44 67.44 246.12 67.44"/><polygon class="cls-16" points="246.77 67.66 248.3 66.9 246.88 67.88 246.77 67.66"/><polygon class="cls-16" points="247.21 68.21 247.86 68.21 247.21 68.43 247.21 68.21"/><path class="cls-16" d="m245.57,67.66c-.11-.11-.22-.11-.33-.22l-.22-.22-.44-.44.44.33.22.11c.11.11.22.11.22.11l.11.33Z"/><polygon class="cls-16" points="245.57 67.33 245.24 66.57 245.9 67.23 245.57 67.33"/><polygon class="cls-16" points="246.44 67.44 247.32 65.7 246.66 67.55 246.44 67.44"/><path class="cls-16" d="m245.24,68.32c-.44,0-.76-.11-1.2-.22.44,0,.76,0,1.09-.11l.11.33Z"/><polygon class="cls-16" points="246.77 67.33 247.53 66.9 246.88 67.55 246.77 67.33"/><path class="cls-16" d="m247.1,67.99c.22,0,.55,0,.76-.11-.22.22-.44.33-.76.44v-.33Z"/><path class="cls-16" d="m245.24,67.99c-.33-.11-.55-.22-.65-.44.22.11.44.11.65.11v.33Z"/><polygon class="cls-16" points="245.79 67.23 245.79 66.46 246.12 67.23 245.79 67.23"/><polygon class="cls-16" points="246.99 68.32 248.63 68.86 246.88 68.54 246.99 68.32"/><polygon class="cls-16" points="246.66 68.97 247.21 70.5 246.44 69.08 246.66 68.97"/><polygon class="cls-16" points="246.12 69.3 245.9 69.95 245.79 69.19 246.12 69.3"/><path class="cls-16" d="m246.77,67.66c.11-.11.22-.22.22-.22l.22-.22.44-.33-.44.44-.22.22q-.11.11-.11.22l-.11-.11Z"/><polygon class="cls-16" points="247.1 67.77 247.97 67.55 247.21 68.1 247.1 67.77"/><polygon class="cls-16" points="246.88 68.54 248.52 69.74 246.77 68.86 246.88 68.54"/><path class="cls-16" d="m246.12,67.33c.11-.44.22-.76.33-1.09-.11.33-.11.76-.11,1.09h-.22Z"/><polygon class="cls-16" points="246.99 68.97 247.32 69.74 246.66 69.08 246.99 68.97"/><path class="cls-16" d="m246.33,69.19v.87c-.11-.22-.22-.55-.33-.76l.33-.11Z"/><path class="cls-16" d="m246.55,67.44c.11-.22.22-.44.44-.65-.11.22-.22.44-.22.65h-.22Z"/><polygon class="cls-16" points="247.21 67.99 247.97 68.1 247.21 68.32 247.21 67.99"/><polygon class="cls-16" points="246.01 68.97 245.13 70.61 245.68 68.86 246.01 68.97"/><polygon class="cls-16" points="245.35 68.64 243.71 68.97 245.35 68.32 245.35 68.64"/><polygon class="cls-16" points="245.13 67.99 244.48 67.77 245.24 67.77 245.13 67.99"/><path class="cls-16" d="m246.66,68.97c.11.11.22.22.22.33l.11.22.22.55-.44-.44-.22-.22q-.11-.11-.22-.11l.33-.33Z"/><polygon class="cls-16" points="246.44 69.19 246.55 70.06 246.22 69.3 246.44 69.19"/><polygon class="cls-16" points="245.68 68.97 244.37 70.39 245.46 68.75 245.68 68.97"/><path class="cls-16" d="m247.1,68.32c.44.11.76.33,1.09.55-.33-.11-.76-.22-1.09-.22v-.33Z"/><polygon class="cls-16" points="245.35 68.97 244.48 69.19 245.24 68.64 245.35 68.97"/><path class="cls-16" d="m245.13,68.21c-.22-.11-.55-.11-.76-.11.22-.11.55-.22.87-.22l-.11.33Z"/><path class="cls-16" d="m246.88,68.64c.22.11.44.33.55.55-.22-.22-.44-.22-.65-.33l.11-.22Z"/><polygon class="cls-16" points="246.22 69.3 246.01 70.06 245.9 69.3 246.22 69.3"/></g></g><circle class="cls-14" cx="246.01" cy="68.1" r="1.42"/><circle class="cls-15" cx="245.35" cy="68.1" r=".22"/><circle class="cls-15" cx="245.9" cy="67.44" r=".55"/><path class="cls-18" d="m240.44,66.9c2.73-3.49,8.08-4.58,11.89-2.4,1.2.76,2.51,1.86,2.62,3.49l.11.55-.44-.33c-3.49-2.4-8.51-3.49-12-.55-1.09.87-1.96,2.07-2.84,3.27-.33.55-1.75,1.86-.87,2.18.33.11.65,0,.87,0,.44-.11,1.09-.76,1.75-.55,3.38,1.64,7.75.65,9.93-2.4l.65.44c-2.29,3.16-6.77,4.37-10.37,2.84-.33-.22-.55-.33-.76-.22-.22.11-.55.33-.98.44-.87.33-2.29,0-2.07-1.2.22-.76.87-1.42,1.31-1.96,3.82-6,9.93-6.55,15.61-2.62l-.33.22c-1.64-3.82-6.88-4.69-10.48-3.16-1.31.55-2.4,1.31-3.38,2.29l-.22-.33h0Z"/><path class="cls-9" d="m235.97,63.41c5.24-5.89,14.84-7.09,21.61-3.38l-.44.87c-6.88-2.29-14.73-1.2-20.52,3.16,0,.11-.65-.65-.65-.65h0Z"/><path class="cls-19" d="m211.74,73.12c-.76,0-1.53-.33-2.07-.87-1.09-1.09-.98-2.95.11-3.93.55-.44,1.2-.76,1.96-.76s1.53.33,2.07.87c1.09,1.09.98,2.95-.11,3.93-.65.55-1.31.76-1.96.76h0Z"/><path class="cls-18" d="m211.74,67.55c.76,0,1.42.33,1.96.87.98,1.09.98,2.84-.11,3.93-.55.55-1.2.76-1.86.76-.76,0-1.42-.33-1.96-.87-.98-1.09-.98-2.84.11-3.93.44-.44,1.09-.76,1.86-.76m0-.11c-.76,0-1.42.33-1.96.76-.55.55-.87,1.2-.87,1.96s.22,1.53.76,2.07,1.31.87,2.07.87,1.42-.33,1.96-.76c.55-.55.87-1.2.87-1.96s-.22-1.53-.76-2.07c-.55-.55-1.31-.87-2.07-.87h0Z"/><circle class="cls-17" cx="211.74" cy="70.39" r="2.51"/><g class="cls-30"><g class="cls-25"><polygon class="cls-16" points="211.85 70.61 213.05 71.92 212.07 70.39 211.85 70.61"/><polygon class="cls-16" points="212.29 70.17 214.03 70.06 212.29 69.84 212.29 70.17"/><polygon class="cls-16" points="212.39 69.52 212.94 69.08 212.29 69.19 212.39 69.52"/><path class="cls-16" d="m211.19,70.72c-.11.11-.11.22-.11.33l-.11.33-.11.55.22-.55.11-.22c0-.11.11-.22.11-.22l-.11-.22Z"/><polygon class="cls-16" points="211.41 70.94 211.52 71.81 211.74 70.94 211.41 70.94"/><polygon class="cls-16" points="212.07 70.5 213.81 71.59 212.29 70.28 212.07 70.5"/><path class="cls-16" d="m210.65,70.17c-.33.22-.65.44-.98.76.33-.22.65-.33,1.09-.44l-.11-.33Z"/><polygon class="cls-16" points="212.39 70.39 213.38 70.39 212.5 70.06 212.39 70.39"/><path class="cls-16" d="m212.5,69.63c.22-.11.55-.22.76-.22-.33-.11-.55-.11-.87,0l.11.22Z"/><path class="cls-16" d="m210.87,70.5c-.22.22-.33.44-.44.65.11-.22.33-.33.55-.44l-.11-.22Z"/><polygon class="cls-16" points="211.63 70.94 211.96 71.7 211.96 70.83 211.63 70.94"/><polygon class="cls-16" points="212.18 69.41 213.38 68.1 211.96 69.19 212.18 69.41"/><polygon class="cls-16" points="211.63 69.08 211.3 67.33 211.3 69.08 211.63 69.08"/><polygon class="cls-16" points="210.98 68.97 210.43 68.54 210.65 69.19 210.98 68.97"/><path class="cls-16" d="m212.29,70.06c.11.11.22.11.33.11h.33l.55.11-.55-.22-.22-.11c-.11,0-.22-.11-.22-.11l-.22.22Z"/><polygon class="cls-16" points="212.5 69.84 213.38 69.63 212.5 69.52 212.5 69.84"/><polygon class="cls-16" points="211.96 69.19 212.83 67.44 211.74 69.08 211.96 69.19"/><path class="cls-16" d="m211.85,70.72c.22.33.55.65.87.87-.22-.33-.44-.65-.55-.98l-.33.11Z"/><polygon class="cls-16" points="211.85 68.86 211.74 67.99 211.52 68.86 211.85 68.86"/><path class="cls-16" d="m211.08,68.97c-.11-.22-.33-.44-.33-.76,0,.33,0,.55.11.87l.22-.11Z"/><path class="cls-16" d="m212.18,70.5c.22.22.44.33.76.33-.22-.11-.44-.33-.44-.44l-.33.11Z"/><polygon class="cls-16" points="212.5 69.63 213.16 69.19 212.39 69.3 212.5 69.63"/><polygon class="cls-16" points="210.98 69.3 209.45 68.32 210.76 69.52 210.98 69.3"/><polygon class="cls-16" points="210.65 69.84 209.01 70.39 210.65 70.17 210.65 69.84"/><polygon class="cls-16" points="210.65 70.5 210.21 71.05 210.87 70.72 210.65 70.5"/><path class="cls-16" d="m211.52,69.08c.11-.11.11-.22.11-.33v-.87l-.11.55-.11.33c0,.11,0,.22-.11.22l.22.11Z"/><polygon class="cls-16" points="211.3 68.86 210.98 68.1 210.98 68.97 211.3 68.86"/><polygon class="cls-16" points="210.76 69.52 208.79 68.86 210.65 69.74 210.76 69.52"/><path class="cls-16" d="m212.18,69.41c.33-.33.55-.65.76-.98-.22.33-.55.55-.87.76l.11.22Z"/><polygon class="cls-16" points="210.43 69.63 209.56 69.84 210.43 69.95 210.43 69.63"/><path class="cls-16" d="m210.54,70.39c-.22.22-.44.33-.65.44.33,0,.55-.11.87-.22l-.22-.22Z"/><path class="cls-16" d="m211.96,69.08c.22-.22.22-.55.22-.76-.11.22-.22.44-.44.55l.22.22Z"/><polygon class="cls-16" points="211.08 68.86 210.54 68.32 210.76 69.08 211.08 68.86"/><polygon class="cls-16" points="210.98 70.5 210.1 72.14 211.19 70.61 210.98 70.5"/><polygon class="cls-16" points="211.63 70.72 212.29 72.25 211.85 70.72 211.63 70.72"/><polygon class="cls-16" points="212.18 70.61 212.83 70.94 212.39 70.39 212.18 70.61"/><path class="cls-16" d="m210.65,69.95c-.11-.11-.22,0-.33,0h-.33l-.55.11.55.11h.55l.11-.22Z"/><polygon class="cls-16" points="210.54 70.17 209.78 70.61 210.65 70.5 210.54 70.17"/><polygon class="cls-16" points="211.19 70.72 210.76 72.68 211.41 70.72 211.19 70.72"/><path class="cls-16" d="m210.87,69.19c-.33-.22-.65-.44-.98-.55.33.22.65.44.87.76l.11-.22Z"/><polygon class="cls-16" points="211.41 70.94 211.74 71.81 211.63 70.94 211.41 70.94"/><path class="cls-16" d="m212.07,70.72c.22.22.44.33.55.65,0-.33-.11-.55-.33-.76l-.22.11Z"/><path class="cls-16" d="m210.65,69.52c-.22-.11-.55-.22-.76-.11.22,0,.44.22.55.33l.22-.22Z"/><polygon class="cls-16" points="210.54 70.5 209.99 71.05 210.76 70.72 210.54 70.5"/><polygon class="cls-16" points="212.18 70.39 213.81 70.94 212.29 70.06 212.18 70.39"/><polygon class="cls-16" points="212.29 69.63 213.7 68.75 212.18 69.41 212.29 69.63"/><polygon class="cls-16" points="212.07 69.08 212.39 68.43 211.85 68.86 212.07 69.08"/><path class="cls-16" d="m211.63,70.72v.33l.11.33.11.55v-1.09l-.22-.11Z"/><polyline class="cls-16" points="212.39 71.59 212.18 70.72 211.96 70.83 212.39 71.59"/><polygon class="cls-16" points="212.29 70.06 214.25 70.28 212.39 69.84 212.29 70.06"/><path class="cls-16" d="m210.87,70.61c-.22.33-.33.76-.44,1.09.22-.33.44-.65.65-.87l-.22-.22Z"/><polygon class="cls-16" points="212.5 69.84 213.38 69.41 212.39 69.63 212.5 69.84"/><path class="cls-16" d="m212.18,69.19c.11-.22.33-.44.55-.65-.22.11-.55.22-.76.44l.22.22Z"/><path class="cls-16" d="m211.19,70.72c-.11.22-.11.55,0,.76,0-.22.11-.44.22-.65l-.22-.11Z"/><polygon class="cls-16" points="212.18 70.72 212.83 71.15 212.29 70.5 212.18 70.72"/></g></g><circle class="cls-14" cx="211.41" cy="69.74" r="1.42"/><circle class="cls-15" cx="211.41" cy="69.08" r=".22"/><circle class="cls-15" cx="210.76" cy="69.63" r=".55"/><path class="cls-18" d="m216.87,67.99c-4.04-3.38-12-2.4-13.53,3.16l-.44-.22c4.91-4.8,11.02-5.24,15.82.11.55.55,1.31.98,1.53,1.75.44,1.09-.98,1.64-1.86,1.53-.44,0-.87-.22-1.09-.33-.22-.11-.44.11-.76.33-3.27,2.07-7.86,1.64-10.69-1.09l.55-.55c2.62,2.62,7.2,2.95,10.15.76.55-.33,1.31.22,1.75.22.33,0,.65,0,.87-.11.87-.44-.76-1.42-1.2-1.96-1.09-.98-2.07-2.07-3.38-2.73-3.93-2.29-8.73-.44-11.68,2.51l-.33.33v-.55c0-1.53.98-2.95,2.07-3.82,3.49-2.84,8.84-2.62,12.11.44.44-.11.11.22.11.22h0Z"/><path class="cls-9" d="m220.47,64.28c-6.66-3.49-14.73-3.38-21.61-.55l-.44-.87c6.66-4.26,16.26-4.47,22.59.55l-.55.87h0Z"/><path class="cls-18" d="m227.78,66.13c.87,6.66,2.4,13.2,4.58,19.53.98,3.16,2.84,6.66,1.42,10.04-.87,2.07-2.84,3.38-4.8,4.37-1.31.55-2.62.55-4.04.44l.22-.98c.98.11,2.18.11,3.16-.22,1.86-.87,3.82-2.07,4.69-3.93,1.31-3.06-.33-6.44-1.31-9.49-2.07-6.44-3.49-12.99-4.26-19.64l.33-.11h0Z"/><path class="cls-10" d="m230.07,109.24l-2.62-2.4s-.98-.98-1.09-.98-1.75-.11-1.86,0c-.11.11-5.24,3.27-5.67,3.16s-2.29-1.2-2.29-1.2l-1.75,3.49s4.04-1.86,4.37-1.86,10.91-.22,10.91-.22Z"/><path class="cls-10" d="m225.82,109.24l2.84-2.4s1.09-.98,1.2-.98,1.86-.11,1.96,0,5.57,3.27,6,3.16,2.51-1.2,2.51-1.2l1.86,3.49s-4.37-1.86-4.58-1.86c-.33-.11-11.79-.22-11.79-.22Z"/><polygon class="cls-8" points="222.33 109.35 225.49 112.41 231.06 112.41 234.55 109.02 222.33 109.35"/><path class="cls-9" d="m197.99,53.58c-1.09,4.26-5.24,10.26-9.71,14.73-3.38,3.38-8.18,10.59-8.08,15.39.44,18.55,8.4,29.79,9.93,31.76.33.44,1.09.98,1.42,1.86.87,2.4.98,6-.11,7.42-6-1.75-12.99-7.2-16.48-12.33s-5.46-10.69-7.09-16.59c-3.16-11.35-.33-24.99.87-29.14,4.37-14.3,9.28-24.77,18.77-34.27,10.8-10.59,20.41-16.04,33.83-17.13,1.42-.11,2.95-.11,4.04.65,2.18,1.42,2.07,4.58,1.64,7.09-.55,3.49-.11,13.97-3.38,15.71-1.42.76-4.8-.98-10.8-.22-8.08.87-12.88,7.75-14.84,15.06Z"/><path class="cls-9" d="m234.22,15.83c12.11,3.38,19.42,11.57,20.84,13.31,2.4,3.16,9.71,6.55,11.68,20.95.33,2.4,2.73,6.66,3.06,9.49.33,3.27,2.95,9.71-3.49,30.56-.76-1.86-2.95-6.11-2.84-8.08.11-3.71-.11-6.44-1.42-8.51-1.96-3.06-4.26-10.26-4.58-12.33-2.51-15.28-8.95-19.97-18.44-21.72-2.84-.55-10.48-.22-12.22-.98-1.31-.65-1.64-2.29-1.64-3.71.11-3.6.55-7.31,1.31-10.91.33-1.42-.22-3.06-.11-4.58,0-1.09,2.18-5.13,7.86-3.49Z"/><g class="cls-24"><path class="cls-4" d="m193.62,120.81c-10.48-8.62-15.71-22.59-15.71-36.23,0-2.29.11-4.58.65-6.77.55-2.29,1.53-10.37,6.44-15.5,7.42-7.75,4.58-10.37,10.59-18.01,6.55-8.18,14.51-8.62,24.34-8.73,2.29,0,4.26-1.86,4.47-4.15.33-3.71.44-7.42.44-11.13,0-.87,0-1.86-.65-2.4-.55-.44-1.31-.55-1.96-.55-11.35-.22-18.99,5.89-29.57,12.77-9.17,5.89-27.28,33.07-23.79,55.98,1.31,8.51,2.62,12.55,6.55,20.19,4.04,7.64,11.57,13.86,19.64,17.02"/><path class="cls-4" d="m194.06,122.12c-10.8-7.2-17.13-19.97-18.99-32.74-2.07-14.19,2.51-22.48,5.13-25.65,6.66-7.97,4.47-12.22,8.95-18.55,4.58-6.33,16.04-11.9,27.5-12.66,1.75-.11,3.82-.33,4.69-1.75.44-.65.44-1.31.55-2.07.11-1.42.22-2.95.11-4.37-.11-1.53-.44-3.27-1.75-4.04-1.2-.65-2.62-.33-3.93.11-6.77,2.07-11.68,5.13-17.57,9.06-3.06,1.96-6.88,4.8-9.6,7.31-12.66,11.35-18.01,29.03-17.35,46.49.33,8.73,2.84,17.9,7.42,25.43s11.79,12.66,19.75,15.93"/><path class="cls-4" d="m173.98,71.15c1.96-9.17,6.44-21.83,12.66-28.81,3.16-3.49,6.22-6.44,10.15-9.06,5.46-3.82,11.24-7.64,17.79-8.95.98-.22,2.18-.33,3.06.33,1.09.87.76,2.84-.33,3.82s-2.62,1.31-4.04,1.64c-8.18,1.75-15.06,5.24-21.83,10.37-6.66,5.02-13.97,18.22-17.46,30.67"/></g><g class="cls-29"><path class="cls-4" d="m263.47,109.46c1.96-2.95,2.4-6.66,2.4-10.26s-.55-7.09-.22-10.59c.22-3.06.98-6.11,1.2-9.17.22-3.16-.33-6.44-1.53-9.39-.76-1.96-1.75-3.71-2.4-5.67-.76-2.18-1.09-4.58-1.53-6.88-1.2-5.46-3.6-10.69-7.42-14.84-3.82-4.15-9.06-6.98-14.73-7.2-2.84-.11-6,.33-8.18-1.53-1.64-1.42-2.18-3.82-2.29-6-.11-2.73.22-5.35.98-7.97.22-.76.55-1.53,1.09-2.07,1.42-1.31,3.6-.65,5.35.22,9.06,4.26,17.24,10.59,23.14,18.66,1.42,1.96,2.73,4.04,3.6,6.33.76,1.96,1.09,4.04,1.64,6,.87,3.06,2.07,5.89,2.84,8.95.55,2.4.87,4.91,1.09,7.31.87,10.59,1.09,21.17.55,31.76"/><path class="cls-4" d="m267.07,91.02c.33-3.49.55-6.88.87-10.37.22-3.38.55-6.88-.33-10.15-.55-1.96-1.42-3.71-1.96-5.67-.55-1.96-.76-4.04-1.09-6.11-.76-5.24-2.51-10.48-5.46-14.84-2.95-4.37-7.2-8.08-12.22-9.82-3.16-1.09-6.66-1.42-9.93-2.18-1.09-.22-2.18-.55-3.06-1.2-1.42-.98-2.18-2.62-2.18-4.26s.98-3.27,2.4-4.15c.55-.33,1.2-.55,1.86-.55.76,0,1.42.22,2.07.55,4.47,2.07,7.53,6.33,11.24,9.39,2.51,2.07,5.46,3.71,7.75,6.11,2.95,3.06,4.47,7.09,6,11.02.87,2.4,1.86,4.91,2.4,7.42.65,2.62.87,5.35,1.42,8.08.44,1.75.98,3.49,1.31,5.35,1.75,8.95-1.64,18.22-.33,27.28"/><path class="cls-4" d="m242.3,27.61c-1.31-1.31-2.73-2.62-4.58-2.73-.65-.11-1.31,0-1.86.44s-.87,1.09-.65,1.75c.22.76,1.09,1.2,1.96,1.42.98.22,1.96.33,2.95.55,2.29.44,4.37,1.42,6.33,2.73-1.2-1.09-3.38-3.49-4.15-4.15Z"/></g><path class="cls-18" d="m237.6,27.07c-12.33-2.62-23.35-1.75-34.48,2.18-12.99,4.58-24.55,16.48-30.34,29.36-2.84,6.22-3.82,13.1-4.69,19.75-.33,2.29-1.09,10.37.44,16.7-3.27-3.16-4.15-16.04-2.4-27.83,2.07-14.19,7.42-27.83,17.57-38.09,11.02-11.35,30.99-19.21,46.93-15.93,7.53,1.53,20.3,2.84,33.83,27.5,4.47,8.18,6.88,22.15,5.35,31.43-1.42-6.66-2.62-13.1-3.71-16.91-1.2-4.58-3.16-9.17-5.78-13.1-5.24-7.86-13.31-13.1-22.7-15.06Z"/><path class="cls-7" d="m154.45,133.58c-.65,2.18-1.64,4.26-1.53,6.66v.22c.33,5.13,3.82,6.33,6.11,1.53,4.04-8.18,2.95-19.42,2.18-28.16-1.09-12.55-2.29-23.24,0-36.01,4.15-23.24,17.13-46.93,39.4-57.29,23.35-10.91,50.96-6,61.88,18.44,12.33,27.5,4.37,60.02.55,88.5-.55,4.26-2.4,11.35-.33,15.39.98,1.86,4.15,2.95,5.89.44.87-1.2,0-5.78.11-7.53,1.09-21.28,5.13-43.11,3.6-64.5-.76-11.46-1.2-24.77-7.31-34.81-16.81-27.83-40.92-24.55-52.27-22.92-19.75,3.06-34.05,15.82-43.87,32.74-11.57,19.97-14.4,43.22-13.86,65.59.11,4.8.65,9.49.55,14.3,0,.44-.44,5.24-1.09,7.42Z"/><path class="cls-12" d="m153.79,133.36c-.87,2.73-1.96,5.24-1.42,8.18.22,1.64,1.09,3.82,2.95,4.15s3.38-1.42,4.15-2.84c1.31-2.29,2.07-5.02,2.51-7.64.98-5.67.76-11.46.33-17.13-.55-6.44-1.2-12.88-1.53-19.42-1.09-22.7,5.78-46.49,21.39-63.4,13.42-14.62,34.92-23.35,54.56-17.79,9.17,2.51,17.02,8.29,22.15,16.26,6.44,10.04,8.84,22.48,9.39,34.27.65,12.55-.87,25.1-2.62,37.54-.87,6.11-1.86,12.22-2.73,18.44-.33,2.62-.76,5.13-1.2,7.75-.44,2.51-.76,5.13-.65,7.64.11,1.96.55,4.26,2.18,5.57,1.42,1.09,3.6,1.31,5.02.11,1.53-1.31,1.31-3.38,1.2-5.24-.22-2.51-.11-5.02,0-7.53.87-14.08,2.84-27.94,3.49-42.01.33-6.77.22-13.64-.22-20.41-.44-5.78-.76-11.57-1.75-17.35-.98-5.67-2.73-11.35-5.78-16.37-2.84-4.58-6.22-8.95-10.15-12.55-6.22-5.67-13.97-9.39-22.37-10.69-6.22-.98-12.44-.65-18.66.22-9.6,1.42-18.66,4.91-26.52,10.69-8.29,6.22-14.84,14.51-19.86,23.46-6.11,10.8-9.82,22.92-11.79,35.14-1.96,12.66-1.86,25.32-1.31,38.09.44,4.04.44,8.73-.76,12.88-.22.87,1.09,1.2,1.31.33,1.2-4.04,1.2-8.51.98-12.66-.22-6.33-.65-12.55-.44-18.88.33-12.22,1.86-24.55,5.46-36.23,6.33-20.3,19.75-40.49,40.16-48.45,6.77-2.62,14.08-3.82,21.28-4.15s14.51.76,21.06,3.82c9.06,4.26,16.37,11.79,21.17,20.52,5.78,10.15,6,22.37,6.77,33.72.87,13.64-.33,27.17-1.64,40.71-.65,6.77-1.31,13.53-1.75,20.3-.11,2.51-.11,4.91,0,7.42.11.87.22,1.96-.11,2.84-.44,1.31-1.86,1.75-3.06,1.42-2.51-.76-2.73-4.04-2.73-6.11,0-2.62.44-5.24.87-7.86.98-5.67,1.64-11.35,2.51-16.91,1.86-11.9,3.6-23.9,3.93-35.9.55-20.19-3.38-44.85-21.94-56.53-15.71-9.82-36.34-7.42-51.84,1.53-17.9,10.37-29.14,29.57-34.05,49.22-1.42,5.67-2.29,11.46-2.51,17.24-.33,6.44.11,12.99.65,19.42.55,5.78,1.2,11.57,1.2,17.35.11,5.57-.33,11.9-3.16,16.81-.44.76-1.31,2.18-2.51,2.07-.98-.11-1.53-1.2-1.75-2.07-.87-2.95.33-5.78,1.2-8.51.55-.87-.76-1.31-1.09-.44Z"/><path class="cls-12" d="m203.66,14.84c-13.31,4.37-33.5,17.24-44.09,41.25-2.18,5.02-6,18.88-6.98,24.23-1.31,6.88-7.42,28.81-8.29,33.07-.65,2.95-2.62,8.18-2.18,11.02s4.26,6.44,5.67,8.95c2.18,3.6,4.04,7.42,6.33,11.02,0,0-1.75-4.26-.65-7.53s3.06-14.08,1.75-22.37.55-32.52,3.71-43.11c3.16-10.48,7.2-30.23,27.61-46.38l17.13-10.15Z"/><path class="cls-11" d="m259.65,140.67c.11,0-.22-.22-.22-.33-.11-.22-.33-.44-.44-.65-.22-.33-.55-1.09-.33-1.53-.11,0-.22.11-.22.11.76.22,1.2,1.31,2.07,1.09.55-.11.87-.76.87-1.31-.11-.87-.87-.98-1.53-1.2-.55-.22-.98-.55-1.09-1.2-.11-1.09.98-.33,1.31,0,.44.33,1.09.55,1.42,0s0-1.2-.33-1.53c-.22-.22-.44-.44-.76-.65-.33-.11-.76-.11-.98-.44-.11-.22-.22-.65-.22-.87.11-.33.11-.22.33-.22.33,0,.65.33,1.09.33.55.11,1.2-.22,1.31-.76.11-.65-.11-1.2-.65-1.53-.33-.11-.76-.11-1.09-.33-.33-.22-.76-.98-.55-1.42.44-.65,1.09.65,1.64.65s.98-.98.98-1.53c-.11-.65-.87-.87-1.31-1.2-.33-.22-.76-.65-.55-.98.44-.55.98.11,1.42.33.55.22,1.09,0,1.2-.65.11-.55-.22-1.53-.65-1.96-.33-.22-.65-.22-.98-.33-.65-.11-.98-1.42-.11-1.53.55-.11,1.09.33,1.53.11.55-.22.44-1.31.44-1.75-.11-.65-.44-.87-.98-.98-.55-.22-1.53-.87-.76-1.42.44-.22.87-.11,1.31-.11.55,0,.87-.22.98-.76.11-.65-.22-1.2-.87-1.42-.44-.11-.76-.11-.87-.55-.22-.55.33-.65.76-.76.65-.11,1.42-.44,1.64-1.2s-.44-1.42-1.09-1.75c-.11-.11-.33-.22-.44-.33-.22-.33.11-.65.44-.87.33-.22.65-.33.98-.44.65-.33.98-.87.87-1.64,0-.22-.22-.44-.33-.65-.22-.22-.65-.44-.87-.65-.33-.55.44-.65.76-.76.22-.11.55-.11.76-.33.55-.55.33-.98,0-1.53-.33-.44-.22-.65.22-.98.33-.22.65-.55.76-.87.22-.44-.11-.65-.33-.98-.22-.11-.44-.33-.33-.55,0-.44.65-.65.87-.98.22-.44.22-.87,0-1.31,0-.11-.11-.22-.22-.33-.11-.22-.11-.11-.11-.44s.11-.33.22-.44c.44-.44.76-.98.44-1.53-.33-.44-.44-.76,0-1.09.33-.22.55-.33.55-.76.11-.22,0-.44-.11-.65s-.22-.33-.33-.55c-.11-.44,0-.22.22-.44.44-.33.44-.98.11-1.31-.22-.22-.44-.33-.33-.65,0-.11.22-.22.22-.33.11-.22.11-.55,0-.76-.11-.33-.55-.11-.44.11.11.44-.22.55-.33.98-.11.22,0,.55.11.76.22.33.65.55.22.98-.11.11-.33.11-.33.33-.11.33.11.65.22.87.11.11.22.22.22.33.11.44-.33.55-.55.65-.55.33-.55.87-.22,1.42.11.11.22.22.22.33.11.22-.11.55-.22.76-.22.33-.55.55-.65.87,0,.33.11.44.33.65.22.33.33.76.11,1.2-.22.22-.44.33-.65.65-.33.33-.22.87,0,1.2.11.11.33.22.44.33.33.33-.11.55-.33.87-.44.44-.98.65-.65,1.31.11.33.44.44.55.65.22.65-.55.76-.98.87-.44.11-1.09.33-.98.98s.87.76,1.2,1.31c.55,1.09-.65,1.42-1.31,1.75-.44.22-1.09.87-.87,1.53.33.76,1.86.76,1.53,1.86-.22.98-1.42.76-2.07,1.09-.55.33-.55.87-.22,1.42.11.22.33.33.55.44s.65.11.87.33c.22.22.22.76.11.98-.11.22-.33.22-.55.22-.33,0-.55-.11-.87,0-.65.11-1.2.65-1.09,1.31.22.65.87.98,1.53,1.09.55.22.55.65.55,1.2,0,.44,0,.76-.55.65s-1.09-.33-1.64.11c-.44.44-.44,1.09-.11,1.64.11.22.33.44.55.55.11,0,.33,0,.44.11.44.11.65.33.76.65.22.44.33,1.53-.44,1.2-.33-.11-.65-.44-.98-.44-.44-.11-1.2.11-1.2.76,0,.55.55,1.09.98,1.42.33.22.76.33.87.76.11.22-.11.76-.33.98q-.22.11-.33-.11c-.33-.33-.76-.76-1.31-.55-.65.22-.55.98-.44,1.53.22.65.76.98,1.42,1.09.55.11.98.33.87.98-.11.65-.76.65-1.31.55-.44-.11-.98-.55-1.42-.11-.33.44-.11,1.42.11,1.75.44.55,1.2.44,1.64.87.22.22.76.98.44,1.31s-.98-.33-1.2-.55c-.44-.33-1.2-.44-1.42.22-.22.55.11,1.31.55,1.75.65.55,2.4.44,1.96,1.64-.44,1.09-1.64-.44-2.29-.65-.11,0-.22,0-.22.11-.44.65.11,1.53.44,2.07.22.33.65,1.2,1.2.98.33-.33.11-.65-.22-.55h0Z"/><g class="cls-28"><path class="cls-11" d="m151.17,140.01c.76-1.09,1.09-2.29.55-3.6-.44-.98-1.2-1.75-1.64-2.73-.11-.22-.22-.65.22-.76.44-.11.87.65.98.98.22.44.55,1.2,1.2,1.09,1.09-.11.87-1.96.55-2.62-.44-.76-3.06-2.29-2.29-3.38.44-.65,1.53.76,1.96.76s.65-.22.76-.65c.11-.44.11-.87,0-1.31-.22-.65-.87-.76-1.31-1.2-.22-.11-.55-.44-.65-.65,0-.11-.11-.11-.11-.22.22-.76.44-.98.76-.65.22.11.33.33.65.33.44.11.87-.11,1.09-.44.65-1.53-1.31-2.18-2.07-2.95-.22-.33-.76-1.31,0-1.09.22.11.44.22.65.33.44.11.76.11.98-.22.65-1.09-.55-1.86-1.31-2.29-.44-.33-1.2-.98-.55-1.53.22-.22.65-.33.87-.44.65-.33,1.09-.65,1.2-1.42.11-.65-.22-1.42-.65-1.96-.22-.22-.55-.44-.87-.65-.22-.11-.44-.22-.65-.44-.33-.33-.33-.98.22-1.09.44-.22.98,0,1.42-.22.44-.22.55-.87.44-1.31-.22-.55-.65-.76-1.09-.98-.22-.11-.44-.33-.65-.44-.11-.11-.33-.22-.33-.33-.11-.55.76-.22.87-.22.44.11.87.11,1.09-.22.44-.55.22-1.31-.11-1.86-.22-.33-.55-.65-.87-.87-.11-.11-.33-.22-.44-.33-.44-.65.11-.65.44-.76.55-.22,1.09-.44,1.09-1.09.11-.55-.11-1.09-.44-1.42-.44-.44-1.2-.55-1.53-1.09-.55-1.09,1.31-.76,1.86-.98.55-.33.55-.98.33-1.53s-.76-.87-1.2-1.31c-.33-.22-.98-.65-.76-1.09s.87-.33,1.31-.44.76-.55.76-.98c0-.55-.55-.98-.87-1.31-.11-.11-.22-.22-.33-.33-.44-.76.11-.76.44-.76.22,0,.44.11.65,0,.55-.22.44-.87.22-1.31-.11-.33-.33-.55-.55-.76-.22-.33-.65-.65-.76-.98-.33-.98.98-.55,1.42-.76.44-.22.55-.76.44-1.2s-.22-.76-.44-1.09c-.33-.55-.98-1.2,0-1.53.55-.22,1.2-.11,1.31-.76.11-.55-.33-1.09-.65-1.42-.22-.22-.55-.44-.65-.65-.11-.55.76-.76,1.09-1.09.44-.33.76-.87.65-1.53,0-.55-.44-.98-.65-1.53-.22-.44-.44-.98.11-1.31.44-.22.87-.22,1.2-.55.44-.33.55-.76.33-1.2-.22-.55-1.31-1.2-.55-1.75s2.18-.76,1.64-1.96c-.11-.33-.33-.44-.55-.76-.65-.87-.22-1.31.65-1.53.55-.11,1.09-.22,1.31-.76.33-.65.11-1.42-.22-2.07-.11-.33-.44-.65-.55-.98v-.11c0-.55.11-.76.33-.44.11.11.22.22.44.33,1.09.76,1.64-.87,1.31-1.75-.11-.33-.22-.55-.44-.76s-.55-.22-.76-.44c-.65-.76.55-.55.87-.55.33.11.65.11.98,0,.44-.22.76-.76.65-1.31,0-.33-.11-.55-.33-.76-.33-.33-.65-.44-.44-1.09.11-.33.44-1.09.98-.76.22.11.22.33.44.33.55.11.98-.55,1.09-.98.22-.44.11-.98-.33-1.42-.22-.22-.65-.22-.76-.55-.11-.22,0-.55.22-.76.33-.33.55-.22.87,0,.44.22.65.44,1.09.11.55-.44.65-1.2.65-1.86s0-1.31-.55-1.75c-.11-.11-.22,0-.22-.22-.11-.22.22-.44.33-.44.33-.11.65,0,.98,0,.98,0,2.18-1.09,1.53-2.18-.11-.22-.33-.33-.44-.44-.11-.11-.22-.11-.33-.22-.44-.44.11-.76.55-.76.65,0,1.31.11,1.75-.44.65-.76.33-1.96-.11-2.62,0,.11-.11.22-.11.33.44-.22.98.22,1.53,0,.33-.22.55-.55.55-.87,0-.55-.76-1.2.44-1.31.44,0,.76,0,.98-.33.33-.44.11-.76,0-1.2-.11-.33-.22-.33.11-.55s.33-.11.65,0c.22.11.33.11.55.11.87-.22.87-1.2.44-1.75-.22-.33-.44-.55.11-.87.11,0,.22-.11.33-.11.33-.11.76-.22,1.09-.44.22-.11.44-.22.55-.55s-.11-.44-.22-.65c0-.11-.11-.11,0-.22h.33c.22,0,.44.11.65,0,.33,0,.44-.11.55-.44.11-.65.22-1.2.76-1.64.33-.22.65-.33.98-.44.22,0,.44,0,.55-.22.11-.11.11-.33.22-.44.11-.44.11-.87.55-1.2.33-.33.55-.22.98-.22,1.09-.11,1.75-.87,2.29-1.75.11-.22-.22-.44-.44-.22-.33.55-.65,1.2-1.31,1.42-.33.11-.65.11-.98.11-.76,0-1.2.65-1.42,1.31,0,.11,0,.55-.11.65-.11.22-.55.22-.76.22-.44.11-.87.44-1.09.76s-.44.65-.55,1.09c0,.22,0,.44-.22.55s-.55,0-.76-.11c-.33,0-.65,0-.87.33-.22.44.11.44.33.65.33.44-.44.55-.76.65-.22.11-.55.11-.76.22-.33.11-.55.33-.55.76s.33.65.44.87c.33.55-.33.98-.87.76-.22-.11-.33-.22-.55-.11-.33,0-.55.33-.65.65,0,.22.11.44.11.76,0,.11.11.22.11.33,0,1.09-.65.55-.87.44-.33-.11-.76.11-.87.44-.33.65.55,1.2.11,1.75-.33.55-1.2,0-1.75.22-.11,0-.11.22-.11.33.33.44.65,1.2.44,1.75-.33.98-1.53.44-2.29.76-.44.22-.65.65-.44,1.09.22.55,1.09.55,1.2,1.2,0,.55-.44,1.09-.98,1.09h-.76c-.44,0-.87,0-1.09.44-.22.33-.11.65.11.98.11.11.22,0,.22.11.33.22.33.55.33.87.11.55.11,1.2-.11,1.75-.44.87-.98-.11-1.64,0-.55.11-.87.65-.98,1.2,0,.44.11.76.55.98s.76.55.55,1.09c-.11.22-.33.65-.65.55-.11,0-.22-.22-.33-.33-.87-.33-1.64,1.09-1.53,1.86,0,.22.11.44.33.65.11.11.22.11.33.22.33.44.22,1.2-.33,1.31-.55.11-1.31-.44-1.86,0-.33.22-.33.76-.11,1.09.11.11.22.22.44.33.55.33.87.65.98,1.31,0,.65-.44.98-.98.55-.22-.11-.33-.33-.55-.44-.44-.11-.87.22-.87.65,0,.65.55,1.2.76,1.64.22.55.55,1.42,0,1.86-.33.33-.87.22-1.2.44-.55.11-.98.55-1.09,1.09,0,.87,1.53,1.53.87,2.4-.44.65-1.86.55-1.86,1.53,0,.65.55.98.87,1.42.55.87-1.31.98-1.64,1.53-.87,1.2,1.31,2.4.55,3.6-.33.65-1.2.65-1.53,1.42-.22.44.11.76.44,1.09.22.22.44.33.65.65.11.11.22.44.22.65-.11.33-.55.33-.76.33-.55.11-1.09.44-1.09,1.09-.11.65.55.98.87,1.53.11.22.44.98.11,1.2-.11.11-.33.11-.44.11h-.76c-.33.11-.65.33-.65.76,0,.65.65,1.2,1.09,1.64.22.33.87,1.2.22,1.31-.22.11-.55-.11-.87,0-.44.11-.65.65-.55,1.09.22.55,1.09.87,1.31,1.42.33.98-1.2.76-1.75,1.09-1.2.98.76,2.07,1.31,2.62.33.33.98,1.2.11,1.53-.22.11-.65,0-.87,0-.55.11-1.09.55-1.09,1.09,0,.44.33.76.76.98.55.33,1.2.65,1.31,1.42.22,1.2-1.31.87-1.75,1.53-.44.55.22.87.55,1.2.44.33.98.76,1.2,1.42.22.87-.44.98-1.09.87-.44-.11-.87-.11-1.09.33-.44.98,1.2,1.53,1.75,1.86.44.33.65,1.09,0,1.31-.22.11-.55,0-.76,0-.55,0-.87.22-1.09.76s0,.98.44,1.42c.76.65,1.86.98,1.86,2.29,0,1.09-.98,1.2-1.75,1.64-.55.33-.76.76-.55,1.31s.76.87,1.2,1.2c.22.22.55.33.76.55.33.33.44,1.2-.22,1.09-.44-.11-.76-.44-1.2-.44-.55.11-.65.55-.55.98.11.55.65.98.98,1.31.33.22.65.44.98.65.33.22.98,1.2.33,1.53-.55.33-.98-.76-1.64-.55-.65.11-.76.76-.55,1.31.22.65.76,1.09,1.31,1.31.33.22.65.33.87.76.11.33.11.76-.11.98-.44.65-1.2-.65-1.75-.76-.44-.11-.87.22-1.09.65-.44,1.2.98,2.18,1.75,2.84.55.44.87.98.87,1.75,0,.44-.11,1.31-.87.65-.22-.22-.33-.76-.55-.98-.33-.44-.76-.87-1.31-.76-.44.11-.65.55-.55.98.11.87.98,1.64,1.42,2.4.76,1.31.76,2.73-.22,3.93-.87,1.09-.44,1.31-.33.98h0Z"/></g><g class="cls-27"><path class="cls-2" d="m183.26,27.72s-.22-1.86.76-2.18,1.86.33,2.07.11c.22-.22,1.09-1.42,1.31-1.86.22-.44,0-.22.55-.44s.44-.44.65-.65,0-.44.55-.22,1.31.44.98-.33c-.33-.76.22-1.53.65-.98.44.55,1.75.98,1.31.22-.44-.87.33-.98.87-.87.55,0,1.09.55,1.09-.22,0-.87-.11-1.75.44-1.09s1.42.55,1.31-.11,0-1.09.44-.87c.44.33.76.11.76-.22s-.44-.55.22-.44,1.09-.11.98-.44.33-.65.33-.65"/></g><path class="cls-6" d="m204.76,390.68c3.49.44,6.98.44,10.37,1.09,9.93,2.07,17.9,10.15,27.94,11.46.65.11,1.53.22,1.53,1.2.11.87-.44,1.53-1.2,1.86-4.15,1.86-5.89,1.53-9.17,1.2-2.95-.33-6.44-2.18-8.4-4.47,3.27,3.6,5.35,7.75,8.62,10.8,4.69,4.47,9.6,9.6,15.93,16.04,1.09,1.09,1.64,3.49,1.09,4.8-.55,1.2-2.18,1.64-3.38,1.2s-2.18-1.31-3.16-2.29c-5.46-5.46-12.22-10.91-17.68-16.37-.22.55,0,1.42.44,2.29.55,1.09,1.75,3.27,5.67,6.88.65.65,3.82,2.95,4.47,3.6.76.76,2.18,2.29,2.95,3.06,2.4,2.4,4.37,4.26,6.88,6.66.55.44.87.98,1.09,1.64.76,2.4-1.31,3.38-2.95,3.16-1.09-.22-2.07-.87-2.95-1.53-2.07-1.53-4.15-3.38-6.11-5.02-.98-.76-2.07-1.42-3.06-2.29-.87-.76-1.64-1.75-2.51-2.51-1.64-1.42-3.16-3.06-4.69-4.58-1.09-1.09-2.95-2.51-4.69-3.38-.65-.33-1.31.33-1.09.98.76,1.86,2.84,3.71,4.26,4.8,5.78,4.91,9.71,10.04,15.71,14.73,1.31.98,2.18,4.26-.33,5.02-3.93,1.09-5.57-3.49-8.62-5.89-3.38-2.62-6-5.35-8.62-7.97-2.62-2.51-6.77-5.57-7.31-5.78-.87-.44-1.75.55-1.2,1.42,3.49,5.24,9.06,8.84,13.64,13.2,1.09,1.09,1.64,2.73.44,3.71-3.71-1.53-6.77-3.38-9.93-5.78-2.29-1.86-4.47-3.93-6.66-6-2.84-2.73-5.67-5.46-8.51-8.29-3.38-3.27-6.88-6.66-9.82-10.37-2.07-2.62-3.93-5.46-6.22-7.97-2.62-2.95-5.67-5.35-8.84-7.64-7.64-5.57-15.93-10.15-24.55-13.86,3.16-3.49,6.55-6.66,10.15-9.6,2.07-1.75,6-5.24,8.95-5.13,2.84.22,6.66,4.37,8.95,6,6.77,4.8,14.3,8.84,22.59,9.93Z"/><path class="cls-7" d="m251.57,432.92c-.44-.55-.98-1.09-1.64-1.31-.33-.22-.76-.33-1.09-.22-.44.11-.87.33-1.09.65-.22.22-.44.55-.44.76-.11.55.11.98.44,1.42.55.76,1.09,1.53,1.86,2.18.11.11.33.22.44.22.22,0,.44-.11.65-.22.65-.44,1.2-.98,1.64-1.64.11-.33.44-.65.33-.98-.33-.22-.87-.65-1.09-.87Z"/><path class="cls-7" d="m243.39,404.76c-.55,0-1.09-.11-1.53-.44s-.76-.87-.65-1.42v-.11h.11c.55,0,.98.11,1.53.11s1.09.11,1.53.33c.11,0,.11.11.22.11,0,.11.11.11.11.22.11.22.44.98.22,1.09-.33.22-1.31.11-1.53.11Z"/><path class="cls-7" d="m248.08,441.65c-.44-.22-.98-.33-1.53-.11-.44.22-.87.65-.87,1.09,0,.22.11.55.22.76.33.55.76,1.09,1.31,1.42.22.11.33.22.55.22.11,0,.33-.11.44-.22.44-.33,1.42-1.2,1.31-1.86,0-.44-.98-1.09-1.42-1.31Z"/><path class="cls-7" d="m240.99,447.98c-.33-.22-.55-.55-.98-.55h-.55c-.44.11-.98.33-1.2.76-.33.44-.33.98-.11,1.42.11.11.22.33.33.44.55.55,1.09.98,1.75,1.42.11.11.22.11.33.11h.33c.65-.22,1.64-.98,1.64-1.75,0-.76-1.09-1.42-1.53-1.86Z"/><path class="cls-7" d="m228.33,448.3c-.44-.22-.98-.33-1.53-.22-.22.11-.44.22-.44.44,0,.11.11.22.33.22.44.22.76.44,1.2.65.33.22.76.33,1.09.22,1.31-.22-.11-1.09-.66-1.31Z"/><path class="cls-3" d="m336.91,393.08c.65-2.18,1.31-4.26,1.86-6.44"/><path class="cls-3" d="m342.15,391.34c.87-3.27,1.86-6.44,2.73-9.71"/><path class="cls-3" d="m345.2,392.65c.22-1.42.65-2.84,1.53-4.15"/><path class="cls-3" d="m349.13,393.19c.44-1.42.98-2.73,1.42-4.15"/><path class="cls-3" d="m354.04,393.63c.44-1.09.87-2.18,1.42-3.27"/><path class="cls-12" d="m61.69,381.41c-2.07-8.51-.98-17.57,1.96-25.75,5.35-15.39,17.24-28.81,32.63-34.05,15.39-5.24,34.05-1.42,44.74,10.91,4.04-6.77,12.99-9.49,20.63-7.42,7.53,1.96,13.64,7.97,17.24,14.95,3.6,6.98,4.91,14.84,5.57,22.7.11,1.86.33,3.71,1.09,5.35.76,1.53,2.07,2.84,3.38,4.04,4.15,3.93,8.29,7.86,12.44,11.68-7.75-2.29-15.93,4.15-18.66,11.79s-1.31,16.04,0,24.12c-11.13-4.58-23.03-9.28-34.92-7.31-5.78.98-11.24,3.49-16.7,5.35-6.55,2.29-13.31,3.71-20.19,4.26-4.8.44-9.93.33-14.3-1.75-7.64-3.71-13.31-12.33-19.64-17.68-7.09-6-12.99-11.9-15.28-21.17Z"/><path class="cls-3" d="m156.96,405.42c-2.95-.76-6-1.09-9.06-.87"/><path class="cls-3" d="m157.72,402.03c-2.29-.65-4.58-1.64-6.77-2.73"/><path class="cls-3" d="m158.59,398.87c-1.2-.33-2.4-.76-3.38-1.53"/><path class="cls-3" d="m158.92,395.49c-.11-.33-.22-.76-.33-1.09"/></svg>