<?xml version="1.0" encoding="UTF-8"?><svg id="Layer_1" xmlns="http://www.w3.org/2000/svg" xmlns:xlink="http://www.w3.org/1999/xlink" viewBox="0 0 395 450"><defs><style>.cls-1,.cls-2,.cls-3,.cls-4,.cls-5{fill:none;}.cls-2{stroke:#998650;stroke-width:1.07px;}.cls-2,.cls-3,.cls-4,.cls-5{stroke-miterlimit:10;}.cls-6{clip-path:url(#clippath);}.cls-7{fill:#f2e8d7;}.cls-8{fill:#f2ddb5;}.cls-9{fill:#f9efde;}.cls-10{fill:#fff;}.cls-11{fill:#6c283b;}.cls-12{fill:#8f8f8f;}.cls-13{fill:#a67684;}.cls-14{fill:#a88080;}.cls-15{fill:#a62017;}.cls-16{fill:#c6b377;}.cls-17{fill:#c4b18c;}.cls-18{fill:#e0d7c3;}.cls-19{fill:#a8a8a8;}.cls-20{fill:#632536;}.cls-21{fill:#3b3b3b;}.cls-22{fill:#3b1520;}.cls-23{fill:#4a1b28;}.cls-24{fill:#7a7a7a;}.cls-25{fill:#7d3248;}.cls-26{clip-path:url(#clippath-1);}.cls-3{stroke:#c6b377;stroke-width:.36px;}.cls-4{stroke:#a67684;stroke-linecap:round;stroke-width:2.21px;}.cls-5{stroke:#8f8f8f;stroke-width:.71px;}.cls-27{opacity:.68;}</style><clipPath id="clippath"><path class="cls-1" d="m139,369.78c38.03,8.34,78.44,5.6,115.04-7.75,5.72-2.03,11.44-4.41,17.52-4.05,11.32.72,19.79,10.73,24.91,20.86,6.32,12.52,9.66,26.34,12.99,40.05,3.22,13.23,6.32,26.34,9.54,39.58,11.09,45.66,22.17,91.79,23.36,138.76-29.92-9.54-58.77-21.93-87.62-34.33-19.43-8.34-38.74-16.69-58.17-25.03-15.62-6.68-31.23-13.47-45.18-23.01-13.95-9.66-26.23-22.41-32.42-38.15-6.56-16.69-5.84-35.29-6.68-53.29-.36-8.82-1.19-17.64-3.46-26.23-1.67-6.32-7.51-14.3-6.68-20.86,2.03-16.45,26.94-8.82,36.84-6.56Z"/></clipPath><clipPath id="clippath-1"><path class="cls-1" d="m139,128.98c4.17-16.33,4.53-33.38,7.03-50.07,2.5-16.69,5.6-33.97,16.93-46.37,7.63-8.34,17.88-14.19,28.97-16.33,18-3.58,39.22,4.89,48.76,20.5,5.01,8.23,7.51,16.81,8.58,26.34,2.62,25.39,5.01,52.09,15.14,75.46,11.68,27.06,33.14,44.82,50.31,68.78-11.32-6.08-35.76-29.09-51.26-34.45-1.91-.72-3.58-.48-7.99-1.79-13.83-4.17-10.73,20.27-24.68,17.76-2.86-.48,15.26-85.59,6.56-127.55-.83-4.17-1.55-7.87-2.98-11.09-2.62-5.96-5.48-9.54-7.51-11.92-3.1-3.58-7.75-7.15-13.11-9.18-5.6-2.15-12.04-3.22-18.6-1.79-4.65.95-8.46,2.62-11.92,4.53-5.6,3.1-10.25,7.39-15.5,12.99-27.78,29.21.6,147.34-2.86,147.94-7.27,1.31-13.95-24.2-23.01-21.7-3.93,1.07-10.73,2.38-15.62,3.22-9.18,1.67-13.83,30.04-21.46,29.8-4.05-.12-14.66,4.77-13.95-.6.72-5.13,6.79-12.99,10.37-15.85,11.68-9.42,21.58-21.22,28.61-34.45,3.81-7.75,7.03-15.85,9.18-24.2Z"/></clipPath></defs><path class="cls-10" d="m338.24,609.69l-.18-.05c-.8-.22-1.73-.54-2.84-.98l-2.25-.9-2.4.35c-14.09,2.07-29.67,3.07-47.63,3.07-14.03,0-27.93-.6-40.2-1.13-12.27-.54-24.52-1.05-36.77-1.56-12.13-.5-24.26-1.01-36.42-1.54-29.92-1.27-67.15-2.84-97.91-21.37l-9.16-5.57,3.68-10.11c5.03-13.77,8.84-29.53,12-49.6,1.95-12.62,3.27-24.91,4.66-37.93.25-2.34.5-4.7.76-7.08l.3-2.86c1.56-15.09,3.17-30.69,5.61-46.06.58-3.47,1.17-6.89,1.76-10.2l1.08-6.03-5.22-3.21c-3.09-1.9-6.28-3.86-9.47-5.7-4.56-2.7-8.39-4.89-11.84-6l-.48-.24-1.03-.24c-3.97-.93-9.64-2.84-13.11-8.78-1.36-2.38-1.87-4.64-2.06-6.11l-.35-2.76-1.85-2.08c-6.65-7.52-5.94-17.31-5.63-21.49,1.5-18.5,5.15-36.59,8.67-54.09,2.2-10.76,3.82-21.48,5.54-32.83l.73-4.8c1.62-10.72,3.29-21.8,5.53-32.66,2.51-12.42,7.49-24.57,11.89-35.28l1.45-3.54c1.72-4.21,10.13-17.54,20.58-20.96l.89-.29.81-.47c1.75-1.02,3.43-1.62,4.53-1.99l.61-.2.36-.18c.42-.17.77-.33,1.06-.47l1.7-.85,1.21-1.46c4.52-5.48,8.19-10.9,11.22-16.58,3.64-6.63,6.44-13.75,8.32-21.14,2.46-9.33,3.46-19.17,4.52-29.59l.19-1.85c.56-5.6,1.14-11.38,2.02-17.24,2.66-18.72,6.4-38.19,20.29-53.46,9.43-10.38,22.25-17.6,36.1-20.35,3.58-.72,7.28-1.08,11.03-1.08,20.64,0,41.31,11.09,51.43,27.59,5.7,9.4,9.11,19.78,10.4,31.7l.36,3.99.08.78c2.42,23.03,4.93,46.84,13.74,66.97,5.32,12.24,13.01,22.64,22.92,34.48l1.46,1.75,2.12.84c9.61,3.81,17.6,14.75,19.55,19.5,5.16,12.22,9.12,24.6,11.81,36.88,2.36,10.76,4.78,21.5,7.17,31.92.57,2.5,1.15,5.04,1.73,7.59,1.83,7.98,3.71,16.23,5.51,24.59,3.8,17.57,5.66,36.15,6.98,52.02.3,3.69,1.09,13.48-5.65,20.82l-1.79,1.95-.45,2.6c-.39,2.23-1.08,4.08-2.12,5.68l-.11.18c-3.84,6.18-10.14,7.65-13.16,8.36l-1.03.24-.32.16c-3.23.9-6.54,2.62-9.41,4.23l-6.24,3.5,2,6.87c1.88,6.45,3.42,12.87,4.78,18.54l9.54,39.58c10.51,43.25,22.41,92.26,23.71,141.54l.49,18.35-17.8-5.65Z"/><path class="cls-23" d="m139,128.98c4.17-16.33,4.53-33.38,7.03-50.07,2.5-16.69,5.6-33.97,16.93-46.37,7.63-8.34,17.88-14.19,28.97-16.33,18-3.58,39.22,4.89,48.76,20.5,5.01,8.23,7.51,16.81,8.58,26.34,2.62,25.39,5.01,52.09,15.14,75.46,11.68,27.06,33.14,44.82,50.31,68.78-12.76-6.79-27.78-7.39-42.32-7.87-18-.6-34.33-12.4-52.33-11.44-17.17.95-28.13,2.26-45.3,3.34-20.74,1.31-49.47,13.23-70.21,12.64-4.05-.12-14.66,4.77-13.95-.6.72-5.13,6.79-12.99,10.37-15.85,11.68-9.42,21.58-21.22,28.61-34.45,4.05-7.63,7.27-15.74,9.42-24.08Z"/><rect class="cls-22" x="152.23" y="164.03" width="88.57" height="225.3"/><path class="cls-15" d="m170.12,152.11c-9.18,74.5-16.57,150.56-2.98,224.35-21.82-3.1-42.44-9.89-62.94-18.48-.95-.36-11.09,2.26-10.61,1.31-12.16-25.51-8.94-58.89-8.94-87.5s5.48-56.98,13.83-84.16c.72-2.15,1.43-4.29,2.86-5.96,1.43-1.55,3.34-2.26,5.13-2.98,10.97-3.93,22.65-4.65,33.85-7.51,11.21-2.86,24.08-8.34,29.8-19.07Z"/><path class="cls-23" d="m78.44,574.34c27.06,16.33,60.08,18.12,91.67,19.55,24.32,1.07,48.76,2.15,73.07,3.1,31.95,1.31,64.13,2.62,95.49-3.46-18-72.72-36-145.55-62.35-215.77-1.07-2.86-2.26-5.96-4.77-7.75s-5.72-2.15-8.82-2.38c-38.86-3.1-33.38,11.8-107.41,6.68-7.03-.48-23.36-7.15-30.04-4.89-8.46,2.98-9.66,5.6-12.4,13.83-4.89,14.66-8.23,29.92-10.73,45.18-5.01,31.11-6.44,62.7-11.32,93.82-2.5,17.76-6.32,35.29-12.4,52.09Z"/><path class="cls-4" d="m170.12,152.11s-22.05,149.37-2.98,224.35"/><path class="cls-15" d="m226.86,152.11c9.18,74.5,16.57,150.56,2.98,224.35,21.82-3.1,42.44-9.89,62.94-18.48.95-.36,11.09,2.26,10.61,1.31,12.16-25.51,8.94-58.89,8.94-87.5-.12-28.61-5.48-56.98-13.83-84.16-.72-2.15-1.43-4.29-2.86-5.96-1.43-1.55-3.34-2.26-5.13-2.98-10.97-3.93-22.65-4.65-33.85-7.51-11.32-2.86-24.2-8.34-29.8-19.07Z"/><path class="cls-4" d="m226.86,152.11s22.05,149.37,2.98,224.35"/><path class="cls-16" d="m139,369.78c38.03,8.34,78.44,5.6,115.04-7.75,5.72-2.03,11.44-4.41,17.52-4.05,11.32.72,19.79,10.73,24.91,20.86,6.32,12.52,9.66,26.34,12.99,40.05,3.22,13.23,6.32,26.34,9.54,39.58,11.09,45.66,22.17,91.79,23.36,138.76-29.92-9.54-58.77-21.93-87.62-34.33-19.43-8.34-38.74-16.69-58.17-25.03-15.62-6.68-31.23-13.47-45.18-23.01-13.95-9.66-26.23-22.41-32.42-38.15-6.56-16.69-5.84-35.29-6.68-53.29-.36-8.82-1.19-17.64-3.46-26.23-1.67-6.32-7.51-14.3-6.68-20.86,2.03-16.45,26.94-8.82,36.84-6.56Z"/><g class="cls-6"><path class="cls-2" d="m114.92,365.61c12.4,11.92,12.64,31.35,12.76,48.52.24,30.28,3.46,62.82,23.25,85.71,15.97,18.36,39.93,27.3,62.82,35.52,48.16,17.29,96.32,34.45,144.48,51.74"/><path class="cls-2" d="m124.22,362.63c13.23,15.14,15.74,36.72,16.57,56.86.83,20.15.95,41.25,10.73,58.77,10.85,19.31,31.47,30.76,51.86,39.46,50.9,21.7,105.98,32.31,156.52,54.95"/><path class="cls-2" d="m140.31,366.08c7.27,15.26,11.92,31.71,13.95,48.52,1.91,16.45,1.31,33.62,7.51,48.99,7.63,18.95,24.68,32.66,43.15,41.13,18.48,8.46,38.62,12.76,58.29,18.24,34.09,9.42,66.99,22.65,99.78,35.88"/><path class="cls-2" d="m153.66,367.39c11.21,17.64,13.83,39.1,17.76,59.6s10.01,42.08,25.87,55.79c5.96,5.13,12.87,8.82,20.03,12.16,12.87,6.08,26.23,10.97,39.93,14.54,33.62,8.94,69.74,10.61,100.61,26.58"/><path class="cls-2" d="m165.94,368.11c7.51,7.75,13.11,17.17,16.57,27.42,3.7,11.09,4.77,23.01,7.99,34.21,5.48,19.07,17.4,36.12,33.38,47.8,18.72,13.71,41.72,19.67,64.49,24.32,22.77,4.65,45.89,8.23,66.88,18"/><path class="cls-2" d="m180.84,366.32c10.97,10.01,16.45,24.56,20.62,38.86s7.51,29.09,15.62,41.48c13.71,21.1,38.86,31.95,63.3,38.03,24.44,6.2,50.07,9.06,72.84,19.91"/><path class="cls-2" d="m198.25,365.13c8.46,7.75,15.14,17.52,19.19,28.37,3.81,10.01,5.48,20.74,9.3,30.76,9.3,24.08,31.59,41.96,56.5,48.99,20.74,5.84,43.27,4.77,63.42,12.64"/><path class="cls-2" d="m215.89,365.84c10.49,6.44,16.93,17.76,21.7,29.21,4.77,11.32,8.34,23.36,15.26,33.5,9.66,14.3,25.03,23.84,41.01,30.52,15.85,6.56,33.62,10.61,50.31,6.79"/><path class="cls-2" d="m229.84,359.53c9.06,4.41,15.85,12.52,20.98,21.22,5.13,8.7,9.06,18,14.07,26.7,7.39,12.76,17.4,23.96,29.8,31.83,12.4,7.87,27.3,12.16,41.96,10.97"/><path class="cls-2" d="m252.85,354.4c12.4,12.76,20.38,28.85,30.52,43.51,10.01,14.66,23.13,28.49,40.41,32.78"/></g><path class="cls-17" d="m202.18,445.24c.36,2.74-.48,5.6-2.38,7.51-1.19,1.31-2.74,2.15-4.17,3.22-1.43,1.07-2.74,2.38-3.22,4.05-.72,2.26.24,4.89,2.03,6.56s4.17,2.5,6.56,2.98c2.26.48,4.53.6,6.79.24,4.17-.72,7.99-3.22,10.73-6.44,2.74-3.22,4.65-7.15,6.08-11.21.95-2.62,1.91-5.48,1.79-8.34s-1.19-5.84-3.46-7.51c-2.98-2.15-7.15-1.79-10.61-.48-5.72,2.15-4.65,4.17-7.27,9.66"/><path class="cls-8" d="m216.84,407.09c-1.07,1.07-1.79,2.38-2.5,3.7-1.55,2.86-2.98,5.84-4.53,8.7-1.91,3.81-3.93,7.75-4.89,11.92-.72,3.1-.95,6.44-1.67,9.54-1.43,5.72-4.77,10.85-5.6,16.69-.24,2.03-.12,4.17,1.07,5.72.95,1.19,2.74,1.67,4.17,1.31,1.67-.36,2.98-1.79,4.17-3.1,2.5-2.86,5.13-5.84,6.32-9.42.48-1.19.72-2.5,1.31-3.7s1.43-2.15,2.15-3.22c1.07-1.67,1.79-3.7,2.5-5.6,1.55-4.17,3.1-8.23,4.41-12.4,1.67-5.36,3.1-10.97,2.86-16.57,0-1.43-.24-8.82-2.15-8.7-.83.12-2.74,2.03-3.7,2.5-1.31.72-2.86,1.43-3.93,2.62Z"/><path class="cls-8" d="m218.63,444.16c-1.31,1.31-.83,3.93.95,4.65-.48-.12-.83-.24-1.31-.36-1.19,1.67-1.31,4.05-2.26,5.84-1.43,2.62-4.77,3.81-6.08,6.56-.95,2.03-.6,4.29-.36,6.44-.48-1.07-.83-2.15-1.31-3.22-.12-.36-.24-.6-.6-.83-.48-.24-.95-.12-1.43.12-.95.36-1.91.83-2.86,1.19-1.19.48-2.5,1.19-2.74,2.38,0-.83-.6-1.67-1.43-2.03-.83-.36-1.67-.48-2.5-.48-3.58-.24-7.15-.48-10.73.12-1.07.24-2.15.48-2.98,1.19s-1.43,1.79-1.19,2.86c3.93,2.5,9.06,2.26,13.47,4.05,1.55.6,2.98,1.43,4.53,1.79,2.38.48,4.65-.36,7.03-.6,2.98-.12,6.08.83,8.94-.12,3.93-1.19,6.08-5.36,8.82-8.46,3.58-4.05,8.58-6.79,11.44-11.32,3.46-5.36,3.1-12.28,3.81-18.72.6-5.01,1.79-9.89,3.22-14.78.12-.48.24-1.07.12-1.55-.12-.36-.36-.6-.6-.72-3.1-3.34-6.2-6.56-9.42-9.89-1.79-1.91-3.81-3.93-6.44-4.53-.48-.12-1.07-.12-1.55,0-.6.24-.95.72-1.31,1.19-1.55,2.03-2.5,4.29-3.34,6.68-3.1,8.7-4.65,18-4.29,27.18,0,.95.24,1.79.24,2.74.36,1.55.24,2.74,2.15,2.62Z"/><path class="cls-8" d="m185.02,429.14c1.07,1.07,1.79,2.38,2.5,3.7,1.55,2.86,2.98,5.84,4.53,8.7,1.91,3.81,3.93,7.75,4.89,11.92.72,3.1.95,6.44,1.67,9.54,1.43,5.72,4.77,10.85,5.6,16.69.24,2.03.12,4.17-1.07,5.72-.95,1.19-2.74,1.67-4.17,1.31-1.67-.36-2.98-1.79-4.17-3.1-2.5-2.86-5.13-5.84-6.32-9.42-.48-1.19-.72-2.5-1.31-3.7s-1.43-2.15-2.15-3.22c-1.07-1.67-1.79-3.7-2.5-5.6-1.55-4.17-3.1-8.23-4.41-12.4-1.67-5.36-3.1-10.97-2.86-16.57,0-1.43.24-8.82,2.15-8.7.83.12,2.74,2.03,3.7,2.5,1.31.72,2.74,1.43,3.93,2.62Z"/><path class="cls-8" d="m183.23,466.22c1.31,1.31.83,3.93-.95,4.65.48-.12.83-.24,1.31-.36,1.19,1.67,1.31,4.05,2.26,5.84,1.43,2.62,4.77,3.81,6.08,6.56.95,2.03.6,4.29.36,6.44.48-1.07.83-2.15,1.31-3.22.12-.36.24-.6.6-.83.48-.24.95-.12,1.43.12.95.36,1.91.83,2.86,1.19,1.19.48,2.5,1.19,2.74,2.38,0-.83.6-1.67,1.43-2.03.83-.36,1.67-.48,2.5-.48,3.58-.24,7.27-.48,10.73.12,1.07.24,2.15.48,2.98,1.19s1.43,1.79,1.19,2.86c-3.93,2.5-9.06,2.26-13.47,4.05-1.55.6-2.98,1.43-4.53,1.79-2.38.48-4.65-.36-7.03-.6-2.98-.12-6.08.83-8.94-.12-3.93-1.19-6.08-5.36-8.82-8.46-3.58-4.05-8.58-6.79-11.44-11.32-3.46-5.36-3.1-12.28-3.81-18.72-.6-5.01-1.79-9.89-3.22-14.78-.12-.48-.24-1.07-.12-1.55.12-.36.36-.6.6-.72,3.1-3.34,6.2-6.56,9.42-9.89,1.79-1.91,3.81-3.93,6.44-4.53.48-.12,1.07-.12,1.55,0,.6.24.95.72,1.31,1.19,1.55,2.03,2.5,4.29,3.34,6.68,3.1,8.7,4.65,18,4.29,27.18,0,.95-.24,1.79-.24,2.74-.36,1.43-.36,2.74-2.15,2.62Z"/><path class="cls-10" d="m229.24,32.9c9.18,7.99,15.97,18.83,18.48,30.76,1.31,6.2,1.43,12.64,1.43,18.95-.12,18.48-2.03,36.95-6.79,54.84-.95,3.46-2.03,7.15-4.77,9.54-4.17,3.81-10.97,3.34-15.5.12s-7.03-8.82-7.87-14.3c-.95-5.48-.6-11.09-.48-16.69.24-14.9-1.79-29.68-5.48-44.11-1.31-5.13-2.86-10.25-5.84-14.66-3.22-4.89-8.11-8.46-13.47-10.85-2.86-1.19-5.84-2.26-7.99-4.41-3.1-3.22-3.34-8.34-2.26-12.64.72-3.34,1.43-2.62,3.93-5.13,6.32-6.2,16.69-6.91,23.96-4.41,8.34,2.86,16.09,7.27,22.65,12.99Z"/><path class="cls-10" d="m173.33,130.41c-2.15-2.74-6.44-3.22-9.42-1.55-3.1,1.67-4.89,5.13-5.13,8.58-.24,3.46.83,6.91,2.5,10.01,2.74,5.01,7.27,9.3,12.87,10.97,2.5.72,5.25.95,7.63-.12,3.22-1.43,5.01-5.13,5.01-8.58s-1.79-6.79-4.17-9.42c-2.98-3.22-7.03-5.48-10.49-8.34"/><path class="cls-18" d="m176.79,159.5c3.22,9.18,12.52,15.62,22.17,16.33,9.66.72,19.43-3.81,25.87-10.97,5.36-6.08,8.7-13.83,10.37-21.81-3.7-4.41-5.6-10.25-5.13-15.97-.36,4.53-21.1,9.42-24.8,10.25-9.3,1.91-18,1.07-27.3.24-.36,7.51,1.79,14.19-1.19,21.93Z"/><path class="cls-9" d="m240.09,92.86c-.72,7.51-1.43,14.9-2.03,22.41-.36,4.17-.83,8.34-2.38,12.16-2.62,5.96-18.6,24.8-35.29,24.68-10.37-.12-21.22-2.5-28.61-9.78-9.66-9.54-12.99-23.48-15.97-36.72-1.31-5.72-2.5-11.56-1.67-17.29.36-2.74,1.19-5.36,1.67-7.99.6-3.81.24-7.63.48-11.44.24-5.6,1.43-11.09,3.58-16.21h0c2.03-4.65,4.77-9.06,8.34-12.64,4.05-4.05,9.06-6.79,14.3-8.46,5.72-1.79,11.8-2.15,17.88-1.31,3.81.48,7.51,1.43,11.09,2.74,5.25,2.03,10.73,4.41,14.42,8.58,8.23,9.3,12.16,20.38,17.29,31.71,1.19,2.62-1.31,8.58-.6,11.32.36,2.62-2.27,5.48-2.5,8.23Z"/><path class="cls-7" d="m199.08,139.11c-2.74,2.38-2.03,8.7.83,11.44.36.36.12.95.36,1.31-10.37.95-21.22-2.5-28.61-9.78-9.66-9.54-12.99-23.48-15.97-36.72-1.31-5.72-2.5-11.56-1.67-17.29.36-2.74,1.19-5.36,1.67-7.99.6-3.81.24-7.63.48-11.44.24-5.6,1.43-11.09,3.58-16.21h0c3.22-5.36,7.39-10.25,13.23-14.9,2.98-2.38,6.2-4.53,9.42-6.2,5.72-2.98,12.04-4.89,18.72-5.13-.36,1.19-.6,2.5-.83,3.7-3.1,14.66-5.84,28.85-4.53,43.75.24,2.03,2.26,5.01,2.03,7.03-.12,1.31-.48,2.5-.48,3.7-.12,2.26-.72,3.58-.48,5.84.48,3.81-.48,7.63-2.15,11.09-.72,1.43-.83,5.25.6,5.72.48.12,2.74.72,3.34.72,1.79,0,2.62.6,2.62,2.38s-.83,3.46-1.55,5.13c-.72,1.67-1.19,3.58-.6,5.25.36,1.19,1.31,2.26.95,3.46-.12.48-.6.95-.72,1.43-.12.6.24,1.19.48,1.67,1.91,4.05,1.43,10.13-.72,12.04Z"/><path class="cls-10" d="m170.47,52.69c-11.21,11.21-15.38,28.85-17.88,44.58-1.31-15.26-1.19-32.54,5.13-46.49,6.32-13.95,19.07-25.63,34.21-27.54,3.22-.36,9.06-.24,10.97,3.1,2.03,3.7-5.36,7.39-8.23,9.18-8.11,5.48-17.17,10.01-24.2,17.17Z"/><g class="cls-27"><path class="cls-5" d="m151.4,82.97c1.91-5.72,4.29-11.32,7.03-16.81,3.22-6.32,7.15-12.4,12.28-17.29,1.91-1.79,4.05-3.46,6.2-5.01,5.01-3.58,10.25-6.79,15.5-10.01,5.48-3.34,11.21-6.79,17.52-7.99"/><path class="cls-5" d="m205.64,24.2c-12.87,6.08-25.87,12.28-36.36,21.7-10.97,10.01-18.72,23.48-21.93,38.03"/><path class="cls-5" d="m235.68,51.14c-1.19,8.23-.12,16.81,3.22,24.44,1.07,2.5,2.38,5.01,3.1,7.63,1.43,4.89.95,10.13.36,15.26-.48,4.65-.95,9.3-1.43,13.95-.6,5.25-1.07,10.61-2.74,15.62-1.67,5.01-3.46,6.91-6.44,9.06"/></g><path class="cls-10" d="m224.95,52.69c11.21,11.21,15.38,28.85,17.88,44.58,1.31-15.26,1.19-32.54-5.13-46.49-6.32-13.95-19.07-25.63-34.21-27.54-3.22-.36-9.06-.24-10.97,3.1-2.03,3.7,5.36,7.39,8.23,9.18,8.11,5.48,17.17,10.01,24.2,17.17Z"/><g class="cls-27"><path class="cls-5" d="m244.02,82.97c-1.91-5.72-4.29-11.32-7.03-16.81-3.22-6.32-7.15-12.4-12.28-17.29-1.91-1.79-4.05-3.46-6.2-5.01-5.01-3.58-10.25-6.79-15.5-10.01-5.48-3.34-11.21-6.79-17.52-7.99"/><path class="cls-5" d="m189.78,24.2c12.87,6.08,25.87,12.28,36.36,21.7,10.97,10.01,18.72,23.48,21.93,38.03"/></g><path class="cls-14" d="m201.47,124.33l-3.58-3.22s-1.43-1.31-1.43-1.43c-.12,0-2.26-.12-2.5,0s-7.03,4.41-7.63,4.29c-.48-.12-3.93-2.62-3.93-2.62l-1.55,3.1s5.48.12,5.84.12c.36,0,14.78-.24,14.78-.24Z"/><path class="cls-14" d="m195.75,124.33l3.81-3.22s1.43-1.31,1.55-1.43c.12,0,2.5-.12,2.62,0s7.15,4.05,7.63,3.93c.6-.12,3.93-2.15,3.93-2.15l1.43,2.86s-5.13.12-5.48.12c-.24.12-15.5-.12-15.5-.12Z"/><path class="cls-24" d="m208.26,71.76c7.15-3.22,15.97-2.5,22.53,1.79,0-1.55-2.5-3.34-3.81-4.05-5.13-2.86-10.85-2.98-16.69-2.5-1.79.12-3.46.72-4.29,1.79-1.67,2.15-.72,4.29,2.26,2.98Z"/><path class="cls-21" d="m216.84,82.25c.24.36.48.6.83.72.36.12.72.12.95.12.36,0,.72,0,1.07-.12.83-.36,1.43-1.19,1.67-2.15.24-.95,0-2.03-.72-2.5-.83-.48-2.86-.6-3.58.12-1.19.83-.95,2.74-.24,3.81Z"/><path class="cls-19" d="m212.43,75.34c-1.67,1.07-3.1,2.74-3.22,4.65-.12,1.07.72,1.43,1.67,1.19,1.07-.24,2.15-.83,3.22-1.19,2.26-.83,4.77-1.43,7.27-1.19,1.31.12,2.62.48,3.81,1.07.6.24,2.98,1.55,3.22,1.91-1.43-2.15-4.17-3.81-6.79-4.17s-5.48,0-7.99.72c1.07-1.91,4.77-3.22,6.68-3.22,2.26,0,3.81.72,5.72,1.67.83.36,1.79.12,1.55-.6-.48-1.43-5.6-2.86-8.23-2.86-2.27-.12-4.77.6-6.91,2.03Z"/><path class="cls-19" d="m232.7,85.83c-.24-.83-.83-1.67-1.55-2.26.83-.12,1.55.36,2.15.95-.95-.83-2.74-2.15-4.05-1.07.36.24.95.24,1.43.48.83.36,1.43,1.19,2.03,1.91Z"/><path class="cls-19" d="m222.92,124.09c.72-2.26,1.79-7.27-2.98-10.37,2.74,2.98,3.58,6.44,2.98,10.37Z"/><path class="cls-19" d="m224.71,117.42c0-.95-.12-1.91-.48-2.74-.36-.83-1.07-1.67-2.03-1.79,1.91,1.19,2.03,2.86,2.5,4.53Z"/><path class="cls-24" d="m190.14,71.76c-7.15-3.22-15.97-2.5-22.53,1.79,0-1.55,2.74-3.46,4.05-4.17,5.13-2.86,10.73-2.86,16.45-2.38,1.79.12,3.34.83,4.29,1.79,1.79,1.91.6,4.29-2.26,2.98Z"/><path class="cls-21" d="m180.25,82.25c-.24.36-.48.6-.83.72-.36.12-.72.12-.95.12-.36,0-.72,0-1.07-.12-.83-.36-1.43-1.19-1.67-2.15-.24-.95,0-2.03.72-2.5.83-.48,2.86-.6,3.58.12,1.19.83,1.07,2.74.24,3.81Z"/><path class="cls-19" d="m185.85,75.34c1.67,1.07,3.1,2.74,3.22,4.65.12,1.07-.72,1.43-1.67,1.19-1.07-.24-2.15-.83-3.22-1.19-2.26-.83-4.77-1.43-7.27-1.19-1.31.12-2.62.48-3.81,1.07-.6.24-2.98,1.55-3.22,1.91,1.43-2.15,4.05-3.93,6.68-4.29,2.62-.36,5.96.36,8.46,1.07-1.55-2.5-4.29-3.46-6.32-3.46-2.26,0-4.53.72-6.44,1.55-.72.36-1.79,0-1.55-.6.12-.72,3.1-2.62,8.23-2.86,2.38-.12,4.89.72,6.91,2.15Z"/><path class="cls-19" d="m165.59,85.83c.24-.83.83-1.67,1.55-2.26-.83-.12-1.55.36-2.15.95.95-.83,2.74-2.15,4.05-1.07-.36.24-.95.24-1.43.48-.83.36-1.43,1.19-2.03,1.91Z"/><path class="cls-19" d="m175.36,124.09c-1.79-6.56,1.55-9.78,2.98-10.37-2.38,3.1-3.46,6.44-2.98,10.37Z"/><path class="cls-19" d="m173.57,117.42c0-.95.12-1.91.48-2.74.24-.72,1.07-1.67,2.03-1.79-.72.48-2.03,1.79-2.5,4.53Z"/><path class="cls-12" d="m195.86,73.67c1.79,2.98,3.81,6.91,2.03,10.37-.36.83-.83,1.55-.95,2.26-.12.72,0,1.55.24,2.38.6,1.67.72,3.7.48,5.48-.48,3.93-2.62,7.51-2.98,11.21,1.43,2.26,5.01,2.38,7.15.95l.24.36c-1.19,1.43-3.22,2.15-5.25,1.91-2.03-.24-4.65-2.03-3.7-4.29.83-3.58,2.5-6.79,2.98-10.13.72-2.74-.83-5.13-.36-7.87.24-.95.83-1.79,1.19-2.5,1.67-3.1.12-6.68-1.31-9.66-.24-.24.24-.48.24-.48h0Z"/><path class="cls-1" d="m382.9,421.16c-1.43,1.55-2.98,3.1-4.41,4.65"/><path class="cls-23" d="m87.15,195.26c-4.89,11.8-10.13,23.96-12.64,36.36-4.77,23.36-7.15,47.09-11.8,70.45-3.58,17.4-7.03,34.93-8.46,52.57-.36,4.17-.36,8.82,2.5,11.92,1.67,1.79,4.29,2.86,5.13,5.25.83,2.5-.72,5.48.48,7.63,1.07,1.79,3.34,2.26,5.25,2.74,5.96,1.43,11.32,4.65,16.69,7.75,17.88,10.61,36.36,21.7,48.16,38.86,4.77,7.03,9.89,15.85,18.48,16.21,5.6.24,10.49-3.58,14.9-7.27,4.29-3.58,8.7-7.27,12.99-10.85,3.1-2.62,6.44-6.68,4.17-10.01-1.43-2.15-4.29-2.5-6.79-3.1-8.23-1.91-14.66-7.87-20.5-13.83-13.23-13.47-25.39-28.13-36.24-43.63-2.74-3.93-5.48-7.99-9.3-11.09s-8.7-5.01-13.35-3.81c.72-4.89.48-9.89.12-14.9-2.15-29.21-8.82-58.17-6.44-87.38,1.07-13.59,4.17-26.82,7.99-39.82.83-2.74,3.46-12.16,3.1-17.64-3.81-1.19-12.52,9.18-14.42,13.59Z"/><path class="cls-23" d="m310.42,194.9c4.65,11.21,8.46,22.89,11.09,34.57,4.77,21.81,9.77,42.32,14.42,64.13,3.58,16.33,5.36,33.74,6.68,50.31.36,3.93.36,8.34-2.5,11.21-1.67,1.67-4.29,2.74-5.13,4.89-.83,2.26.72,5.13-.48,7.15-1.07,1.67-3.34,2.03-5.25,2.5-5.96,1.43-11.32,4.41-16.69,7.27-17.88,9.89-36.36,20.38-48.16,36.36-4.77,6.56-9.89,14.9-18.48,15.14-5.6.24-10.49-3.34-14.9-6.79-4.29-3.46-8.7-6.79-12.99-10.25-3.1-2.38-4.05-5.6-4.17-9.42-.24-4.89,12.28-15.26,18.24-20.86,13.23-12.64,50.9-43.27,54.72-46.13s8.7-4.65,13.35-3.58c-.72-4.65-.48-9.3-.12-13.95,2.15-27.3,8.82-54.48,6.44-81.78-1.07-12.64-4.17-25.15-7.99-37.31-.83-2.5-2.38-11.44-2.74-16.33,3.81-.95,12.87,8.58,14.66,12.87Z"/><path class="cls-23" d="m165.59,47.2c6.32-9.18,21.93-22.05,38.15-20.74,8.46.72,16.45,4.41,22.29,10.61s9.42,14.19,10.97,22.41c.83,4.77,1.19,9.66,2.74,14.3.72,2.03,2.26,4.29,4.41,3.93.95-.12,3.1,35.64,3.58,34.81,4.29-7.87,1.67-42.44,1.43-45.78-.48-9.89-4.29-19.79-9.77-28.13-5.36-8.23-13.11-15.14-22.17-18.95s-19.67-4.53-28.97-1.19c-4.53,1.67-8.82,4.17-12.87,6.79-3.7,2.38-7.51,5.01-10.37,8.34-3.1,3.46-5.13,7.75-7.03,11.92-1.19,2.62-2.5,5.36-3.34,8.11-2.38,7.03-9.77,25.75-8.46,33.02.24,1.07,5.36,1.19,6.08,2.03,3.1,3.58,4.65-12.64,4.65-14.19,0-3.22.36-6.44,1.07-9.66,1.43-6.2,3.93-12.28,7.63-17.64Z"/><g class="cls-26"><path class="cls-13" d="m133.28,155.44c1.55-.24,2.26-1.79,1.43-3.22-.83-1.19-2.5-1.67-3.7-1.07-1.31.6-1.67,2.15-1.79,3.34,0,1.31.72,2.5,1.79,3.34,1.19.72,2.74,1.07,4.17.83,1.19-.24,2.15-1.07,2.74-2.15,1.19-2.03,1.31-5.36-.24-7.27-1.07-1.31-2.38-1.79-3.81-2.62-.48-.24-1.19-.72-1.07-1.43,0-.24.12-.48.36-.48h.36c.24,0,.12.12.12,0-.12,1.07,1.43,1.31,1.55.24.12-1.19-.95-2.03-2.03-1.91-1.19.12-2.03,1.19-1.91,2.38.12,2.62,3.34,2.86,4.89,4.29,1.55,1.43,1.43,3.93.6,5.72-.48.83-1.19,1.55-2.15,1.67-1.07.12-2.26-.24-2.98-1.07s-.83-2.38-.12-3.22c.36-.48,1.07-.36,1.55-.12.36.24.95.95.24,1.07-1.31.24-1.07,1.91,0,1.67h0Z"/><path class="cls-13" d="m144.61,157.35c-1.43-.72-1.67-2.5-.36-3.46,1.07-.83,2.86-.83,3.93.12.95.95.95,2.5.6,3.7-.36,1.31-1.55,2.15-2.74,2.5-1.31.36-2.98.24-4.17-.48-1.07-.6-1.67-1.67-2.03-2.86-.48-2.38.36-5.48,2.5-6.91,1.31-.95,2.86-.95,4.41-1.19.6-.12,1.31-.36,1.55-.95.12-.24.12-.48-.12-.6-.12-.12-.12,0-.24-.12s-.12.12-.12,0c-.24,1.07-1.79.72-1.55-.24.24-1.19,1.55-1.55,2.5-1.19,1.19.48,1.55,1.67,1.07,2.86-.95,2.38-4.05,1.67-5.96,2.62-1.91.83-2.62,3.34-2.38,5.25.12.95.6,1.79,1.55,2.26.95.36,2.26.48,3.22,0,.95-.48,1.55-1.91,1.07-2.98-.24-.6-.95-.72-1.43-.6-.36.12-1.19.6-.48.95.72.24,0,1.79-.83,1.31h0Z"/><path class="cls-13" d="m143.41,164.62c-1.55.24-2.26,1.79-1.43,3.22.83,1.19,2.5,1.67,3.7,1.07,1.31-.6,1.67-2.15,1.79-3.34,0-1.31-.72-2.5-1.79-3.34-1.19-.72-2.74-1.07-4.17-.83-1.19.24-2.15,1.07-2.74,2.15-1.19,2.03-1.31,5.36.24,7.27,1.07,1.31,2.38,1.79,3.81,2.62.48.24,1.19.72,1.07,1.43,0,.24-.12.48-.36.48h-.36c-.24,0-.12-.12-.12,0,.12-1.07-1.43-1.31-1.55-.24-.12,1.19.95,2.03,2.03,1.91,1.19-.12,2.03-1.19,1.91-2.38-.12-2.62-3.34-2.86-4.89-4.29-1.55-1.43-1.43-3.93-.6-5.72.48-.83,1.19-1.55,2.15-1.67,1.07-.12,2.26.24,2.98,1.07s.83,2.38.12,3.22c-.36.48-1.07.36-1.55.12-.36-.24-.95-.95-.24-1.07,1.19-.24.95-1.79,0-1.67h0Z"/><path class="cls-13" d="m132.09,162.83c1.43.72,1.67,2.5.36,3.46-1.07.83-2.86.83-3.93-.12-.95-.95-.95-2.5-.6-3.7.36-1.31,1.55-2.15,2.74-2.5,1.31-.36,2.98-.24,4.17.48,1.07.6,1.67,1.67,2.03,2.86.48,2.38-.36,5.48-2.5,6.91-1.31.95-2.86.95-4.41,1.19-.6.12-1.31.36-1.55.95-.12.24-.12.48.12.6.12.12.12,0,.24.12s.12-.12.12,0c.24-1.07,1.79-.72,1.55.24-.24,1.19-1.55,1.55-2.5,1.19-1.19-.48-1.55-1.67-1.07-2.86.95-2.38,4.05-1.67,5.96-2.62,1.91-.83,2.62-3.34,2.38-5.25-.12-.95-.6-1.79-1.55-2.26-.95-.36-2.26-.48-3.22,0-.95.48-1.55,1.91-1.07,2.98.24.6.95.72,1.43.6.36-.12,1.19-.6.48-.95-.83-.36-.12-1.79.83-1.31h0Z"/><path class="cls-13" d="m252.85,158.3c1.31-.95,1.19-2.62-.24-3.46-1.19-.72-2.98-.36-3.81.72-.83,1.07-.6,2.62,0,3.81s1.79,1.91,3.1,2.15c1.43.12,2.98-.24,4.05-1.19.95-.83,1.43-1.91,1.55-3.22.12-2.38-1.19-5.36-3.46-6.44-1.55-.72-2.98-.48-4.53-.6-.6,0-1.31-.12-1.67-.72-.12-.24-.12-.48.12-.6q.12-.12.24-.12c.12-.12.12.12.12-.12.36.95,1.91.48,1.55-.48-.36-1.19-1.79-1.31-2.74-.72-1.07.72-1.19,1.91-.6,2.98,1.31,2.26,4.29,1.07,6.32,1.67,2.03.6,3.1,2.86,3.1,4.77,0,.95-.36,1.91-1.19,2.5-.95.6-2.15.83-3.22.48-1.07-.36-1.91-1.67-1.55-2.74.12-.6.83-.83,1.43-.83.36,0,1.19.36.6.83-.95.6,0,1.91.83,1.31h0Z"/><path class="cls-13" d="m263.81,154.73c-1.55,0-2.5-1.43-1.79-2.98.6-1.31,2.15-2.03,3.58-1.67,1.31.36,2.03,1.79,2.26,3.1.24,1.31-.36,2.62-1.31,3.58-1.07.95-2.5,1.55-3.93,1.43-1.19-.12-2.26-.72-3.1-1.67-1.55-1.91-2.15-5.01-.95-7.27.83-1.43,2.15-2.15,3.34-3.1.48-.36,1.07-.95.95-1.55,0-.24-.12-.48-.48-.48h-.36c-.24,0,0,.12-.12,0,.24.95-1.31,1.55-1.55.48-.36-1.19.6-2.15,1.79-2.15,1.19-.12,2.15.83,2.26,2.03.24,2.5-2.86,3.34-4.17,5.01s-.83,4.17.24,5.72c.6.83,1.43,1.31,2.38,1.31,1.07-.12,2.26-.6,2.86-1.55s.48-2.5-.36-3.22c-.48-.36-1.19-.12-1.55.12-.36.24-.83,1.07,0,1.07.95.24.95,1.79,0,1.79h0Z"/><path class="cls-13" d="m266.08,161.76c-1.31.95-1.19,2.62.24,3.46,1.19.72,2.98.36,3.81-.72.83-1.07.6-2.62,0-3.81s-1.79-1.91-3.1-2.15c-1.43-.12-2.98.24-4.05,1.19-.95.83-1.43,1.91-1.55,3.22-.12,2.38,1.19,5.36,3.46,6.44,1.55.72,2.98.48,4.53.6.6,0,1.31.12,1.67.72.12.24.12.48-.12.6q-.12.12-.24.12c-.12.12-.12-.12-.12.12-.36-.95-1.91-.48-1.55.48.36,1.19,1.79,1.31,2.74.72,1.07-.72,1.19-1.91.6-2.98-1.31-2.26-4.29-1.07-6.32-1.67-2.03-.6-3.1-2.86-3.1-4.77,0-.95.36-1.91,1.19-2.5.95-.6,2.15-.83,3.22-.48,1.07.36,1.91,1.67,1.55,2.74-.12.6-.83.83-1.43.83-.36,0-1.19-.36-.6-.83.83-.48,0-1.91-.83-1.31h0Z"/><path class="cls-13" d="m255.11,165.34c1.55,0,2.5,1.43,1.79,2.98-.6,1.31-2.15,2.03-3.58,1.67-1.31-.36-2.03-1.79-2.26-3.1-.24-1.31.36-2.62,1.31-3.58,1.07-.95,2.5-1.55,3.93-1.43,1.19.12,2.26.72,3.1,1.67,1.55,1.91,2.15,5.01.95,7.27-.83,1.43-2.15,2.15-3.34,3.1-.48.36-1.07.95-.95,1.55,0,.24.12.48.48.48h.36c.24,0,0-.12.12,0-.24-.95,1.31-1.55,1.55-.48.36,1.19-.6,2.15-1.79,2.15-1.19.12-2.15-.83-2.26-2.03-.24-2.5,2.86-3.34,4.17-5.01s.83-4.17-.24-5.72c-.6-.83-1.43-1.31-2.38-1.31-1.07.12-2.26.6-2.86,1.55s-.48,2.5.36,3.22c.48.36,1.19.12,1.55-.12.36-.24.83-1.07,0-1.07-.95-.12-1.07-1.79,0-1.79h0Z"/><path class="cls-13" d="m141.62,118.49c1.19-.36,1.55-1.67.72-2.62-.72-.83-2.15-.95-2.98-.36-.95.6-1.07,1.79-.95,2.86s.83,1.91,1.79,2.26c.95.48,2.26.48,3.34.12.95-.36,1.55-1.07,1.91-2.03.72-1.79.36-4.29-1.07-5.6-.95-.83-2.15-1.07-3.22-1.55-.48-.12-.95-.48-1.07-.95,0-.24,0-.36.24-.48h.24c.12,0,.12.12.12,0,0,.83,1.31.83,1.31,0,0-.95-.95-1.43-1.79-1.19-.95.24-1.43,1.07-1.19,2.03.36,2.03,2.98,1.79,4.29,2.74s1.67,2.86,1.19,4.29c-.24.72-.72,1.31-1.55,1.55-.83.24-1.79.12-2.5-.48-.72-.48-.95-1.67-.48-2.5.24-.36.83-.36,1.19-.24.36.12.83.6.24.72-.83.48-.6,1.79.24,1.43h0Z"/><path class="cls-13" d="m150.57,118.49c-1.19-.36-1.55-1.67-.72-2.62.72-.83,2.15-.95,2.98-.36.95.6,1.07,1.79.95,2.86s-.83,1.91-1.79,2.26c-.95.48-2.26.48-3.34.12-.95-.36-1.55-1.07-1.91-2.03-.72-1.79-.36-4.29,1.07-5.6.95-.83,2.15-1.07,3.22-1.55.48-.12.95-.48,1.07-.95,0-.24,0-.36-.24-.48h-.24c-.12,0-.12.12-.12,0,0,.83-1.31.83-1.31,0,0-.95.95-1.43,1.79-1.19.95.24,1.43,1.07,1.19,2.03-.36,2.03-2.98,1.79-4.29,2.74s-1.67,2.86-1.19,4.29c.24.72.72,1.31,1.55,1.55.83.24,1.79.12,2.5-.48.72-.48.95-1.67.48-2.5-.24-.36-.83-.36-1.19-.24-.36.12-.83.6-.24.72.95.48.6,1.79-.24,1.43h0Z"/><path class="cls-13" d="m150.57,124.33c-1.19.36-1.55,1.67-.72,2.62.72.83,2.15.95,2.98.36.95-.6,1.07-1.79.95-2.86s-.83-1.91-1.79-2.26c-.95-.48-2.26-.48-3.34-.12-.95.36-1.55,1.07-1.91,2.03-.72,1.79-.36,4.29,1.07,5.6.95.83,2.15,1.07,3.22,1.55.48.12.95.48,1.07.95,0,.24,0,.36-.24.48h-.24c-.12,0-.12-.12-.12,0,0-.83-1.31-.83-1.31,0,0,.95.95,1.43,1.79,1.19.95-.24,1.43-1.07,1.19-2.03-.36-2.03-2.98-1.79-4.29-2.74s-1.67-2.86-1.19-4.29c.24-.72.72-1.31,1.55-1.55.83-.24,1.79-.12,2.5.48.72.48.95,1.67.48,2.5-.24.36-.83.36-1.19.24-.36-.12-.83-.6-.24-.72.95-.48.6-1.67-.24-1.43h0Z"/><path class="cls-13" d="m141.62,124.33c1.19.36,1.55,1.67.72,2.62-.72.83-2.15.95-2.98.36-.95-.6-1.07-1.79-.95-2.86s.83-1.91,1.79-2.26c.95-.48,2.26-.48,3.34-.12.95.36,1.55,1.07,1.91,2.03.72,1.79.36,4.29-1.07,5.6-.95.83-2.15,1.07-3.22,1.55-.48.12-.95.48-1.07.95,0,.24,0,.36.24.48h.24c.12,0,.12-.12.12,0,0-.83,1.31-.83,1.31,0,0,.95-.95,1.43-1.79,1.19-.95-.24-1.43-1.07-1.19-2.03.36-2.03,2.98-1.79,4.29-2.74s1.67-2.86,1.19-4.29c-.24-.72-.72-1.31-1.55-1.55-.83-.24-1.79-.12-2.5.48-.72.48-.95,1.67-.48,2.5.24.36.83.36,1.19.24.36-.12.83-.6.24-.72-.83-.48-.6-1.67.24-1.43h0Z"/><path class="cls-13" d="m247.12,118.49c1.19-.36,1.55-1.67.72-2.62-.72-.83-2.15-.95-2.98-.36-.95.6-1.07,1.79-.95,2.86s.83,1.91,1.79,2.26c.95.48,2.26.48,3.34.12.95-.36,1.55-1.07,1.91-2.03.72-1.79.36-4.29-1.07-5.6-.95-.83-2.15-1.07-3.22-1.55-.48-.12-.95-.48-1.07-.95,0-.24,0-.36.24-.48h.24c.12,0,.12.12.12,0,0,.83,1.31.83,1.31,0,0-.95-.95-1.43-1.79-1.19-.95.24-1.43,1.07-1.19,2.03.36,2.03,2.98,1.79,4.29,2.74s1.67,2.86,1.19,4.29c-.24.72-.72,1.31-1.55,1.55-.83.24-1.79.12-2.5-.48-.72-.48-.95-1.67-.48-2.5.24-.36.83-.36,1.19-.24.36.12.83.6.24.72-.83.48-.48,1.79.24,1.43h0Z"/><path class="cls-13" d="m256.06,118.49c-1.19-.36-1.55-1.67-.72-2.62.72-.83,2.15-.95,2.98-.36.95.6,1.07,1.79.95,2.86s-.83,1.91-1.79,2.26c-.95.48-2.26.48-3.34.12-.95-.36-1.55-1.07-1.91-2.03-.72-1.79-.36-4.29,1.07-5.6.95-.83,2.15-1.07,3.22-1.55.48-.12.95-.48,1.07-.95,0-.24,0-.36-.24-.48h-.24c-.12,0-.12.12-.12,0,0,.83-1.31.83-1.31,0,0-.95.95-1.43,1.79-1.19.95.24,1.43,1.07,1.19,2.03-.36,2.03-2.98,1.79-4.29,2.74s-1.67,2.86-1.19,4.29c.24.72.72,1.31,1.55,1.55.83.24,1.79.12,2.5-.48.72-.48.95-1.67.48-2.5-.24-.36-.83-.36-1.19-.24-.36.12-.83.6-.24.72.95.48.6,1.79-.24,1.43h0Z"/><path class="cls-13" d="m256.06,124.33c-1.19.36-1.55,1.67-.72,2.62.72.83,2.15.95,2.98.36.95-.6,1.07-1.79.95-2.86s-.83-1.91-1.79-2.26c-.95-.48-2.26-.48-3.34-.12-.95.36-1.55,1.07-1.91,2.03-.72,1.79-.36,4.29,1.07,5.6.95.83,2.15,1.07,3.22,1.55.48.12.95.48,1.07.95,0,.24,0,.36-.24.48h-.24c-.12,0-.12-.12-.12,0,0-.83-1.31-.83-1.31,0,0,.95.95,1.43,1.79,1.19.95-.24,1.43-1.07,1.19-2.03-.36-2.03-2.98-1.79-4.29-2.74s-1.67-2.86-1.19-4.29c.24-.72.72-1.31,1.55-1.55.83-.24,1.79-.12,2.5.48.72.48.95,1.67.48,2.5-.24.36-.83.36-1.19.24-.36-.12-.83-.6-.24-.72.95-.48.6-1.67-.24-1.43h0Z"/><path class="cls-13" d="m247.12,124.33c1.19.36,1.55,1.67.72,2.62-.72.83-2.15.95-2.98.36-.95-.6-1.07-1.79-.95-2.86s.83-1.91,1.79-2.26c.95-.48,2.26-.48,3.34-.12.95.36,1.55,1.07,1.91,2.03.72,1.79.36,4.29-1.07,5.6-.95.83-2.15,1.07-3.22,1.55-.48.12-.95.48-1.07.95,0,.24,0,.36.24.48h.24c.12,0,.12-.12.12,0,0-.83,1.31-.83,1.31,0,0,.95-.95,1.43-1.79,1.19-.95-.24-1.43-1.07-1.19-2.03.36-2.03,2.98-1.79,4.29-2.74s1.67-2.86,1.19-4.29c-.24-.72-.72-1.31-1.55-1.55-.83-.24-1.79-.12-2.5.48-.72.48-.95,1.67-.48,2.5.24.36.83.36,1.19.24.36-.12.83-.6.24-.72-.83-.48-.48-1.67.24-1.43h0Z"/><path class="cls-13" d="m145.8,74.98c1.19-.36,1.55-1.67.72-2.62-.72-.83-2.15-.95-2.98-.36-.95.6-1.07,1.79-.95,2.86s.83,1.91,1.79,2.26c.95.48,2.26.48,3.34.12.95-.36,1.55-1.07,1.91-2.03.72-1.79.36-4.29-1.07-5.6-.95-.83-2.15-1.07-3.22-1.55-.48-.12-.95-.48-1.07-.95,0-.24,0-.36.24-.48h.24c.12,0,.12.12.12,0,0,.83,1.31.83,1.31,0,0-.95-.95-1.43-1.79-1.19-.95.24-1.43,1.07-1.19,2.03.36,2.03,2.98,1.79,4.29,2.74s1.67,2.86,1.19,4.29c-.24.72-.72,1.31-1.55,1.55-.83.24-1.79.12-2.5-.48-.72-.48-.95-1.67-.48-2.5.24-.36.83-.36,1.19-.24.36.12.83.6.24.72-.95.48-.6,1.67.24,1.43h0Z"/><path class="cls-13" d="m154.74,74.98c-1.19-.36-1.55-1.67-.72-2.62.72-.83,2.15-.95,2.98-.36.95.6,1.07,1.79.95,2.86s-.83,1.91-1.79,2.26c-.95.48-2.26.48-3.34.12-.95-.36-1.55-1.07-1.91-2.03-.72-1.79-.36-4.29,1.07-5.6.95-.83,2.15-1.07,3.22-1.55.48-.12.95-.48,1.07-.95,0-.24,0-.36-.24-.48h-.24c-.12,0-.12.12-.12,0,0,.83-1.31.83-1.31,0,0-.95.95-1.43,1.79-1.19.95.24,1.43,1.07,1.19,2.03-.36,2.03-2.98,1.79-4.29,2.74s-1.67,2.86-1.19,4.29c.24.72.72,1.31,1.55,1.55.83.24,1.79.12,2.5-.48.72-.48.95-1.67.48-2.5-.24-.36-.83-.36-1.19-.24-.36.12-.83.6-.24.72.83.48.48,1.67-.24,1.43h0Z"/><path class="cls-13" d="m154.74,80.82c-1.19.36-1.55,1.67-.72,2.62.72.83,2.15.95,2.98.36.95-.6,1.07-1.79.95-2.86s-.83-1.91-1.79-2.26c-.95-.48-2.26-.48-3.34-.12-.95.36-1.55,1.07-1.91,2.03-.72,1.79-.36,4.29,1.07,5.6.95.83,2.15,1.07,3.22,1.55.48.12.95.48,1.07.95,0,.24,0,.36-.24.48h-.24c-.12,0-.12-.12-.12,0,0-.83-1.31-.83-1.31,0,0,.95.95,1.43,1.79,1.19.95-.24,1.43-1.07,1.19-2.03-.36-2.03-2.98-1.79-4.29-2.74s-1.67-2.86-1.19-4.29c.24-.72.72-1.31,1.55-1.55.83-.24,1.79-.12,2.5.48.72.48.95,1.67.48,2.5-.24.36-.83.36-1.19.24-.36-.12-.83-.6-.24-.72.83-.48.48-1.79-.24-1.43h0Z"/><path class="cls-13" d="m145.8,80.82c1.19.36,1.55,1.67.72,2.62-.72.83-2.15.95-2.98.36-.95-.6-1.07-1.79-.95-2.86s.83-1.91,1.79-2.26c.95-.48,2.26-.48,3.34-.12.95.36,1.55,1.07,1.91,2.03.72,1.79.36,4.29-1.07,5.6-.95.83-2.15,1.07-3.22,1.55-.48.12-.95.48-1.07.95,0,.24,0,.36.24.48h.24c.12,0,.12-.12.12,0,0-.83,1.31-.83,1.31,0,0,.95-.95,1.43-1.79,1.19-.95-.24-1.43-1.07-1.19-2.03.36-2.03,2.98-1.79,4.29-2.74s1.67-2.86,1.19-4.29c-.24-.72-.72-1.31-1.55-1.55-.83-.24-1.79-.12-2.5.48-.72.48-.95,1.67-.48,2.5.24.36.83.36,1.19.24.36-.12.83-.6.24-.72-.95-.48-.6-1.79.24-1.43h0Z"/><path class="cls-13" d="m240.92,74.98c1.19-.36,1.55-1.67.72-2.62-.72-.83-2.15-.95-2.98-.36-.95.6-1.07,1.79-.95,2.86s.83,1.91,1.79,2.26c.95.48,2.26.48,3.34.12.95-.36,1.55-1.07,1.91-2.03.72-1.79.36-4.29-1.07-5.6-.95-.83-2.15-1.07-3.22-1.55-.48-.12-.95-.48-1.07-.95,0-.24,0-.36.24-.48h.24c.12,0,.12.12.12,0,0,.83,1.31.83,1.31,0,0-.95-.95-1.43-1.79-1.19-.95.24-1.43,1.07-1.19,2.03.36,2.03,2.98,1.79,4.29,2.74s1.67,2.86,1.19,4.29c-.24.72-.72,1.31-1.55,1.55-.83.24-1.79.12-2.5-.48-.72-.48-.95-1.67-.48-2.5.24-.36.83-.36,1.19-.24.36.12.83.6.24.72-.95.48-.6,1.67.24,1.43h0Z"/><path class="cls-13" d="m249.87,74.98c-1.19-.36-1.55-1.67-.72-2.62.72-.83,2.15-.95,2.98-.36.95.6,1.07,1.79.95,2.86s-.83,1.91-1.79,2.26c-.95.48-2.26.48-3.34.12-.95-.36-1.55-1.07-1.91-2.03-.72-1.79-.36-4.29,1.07-5.6.95-.83,2.15-1.07,3.22-1.55.48-.12.95-.48,1.07-.95,0-.24,0-.36-.24-.48h-.24c-.12,0-.12.12-.12,0,0,.83-1.31.83-1.31,0,0-.95.95-1.43,1.79-1.19.95.24,1.43,1.07,1.19,2.03-.36,2.03-2.98,1.79-4.29,2.74s-1.67,2.86-1.19,4.29c.24.72.72,1.31,1.55,1.55.83.24,1.79.12,2.5-.48.72-.48.95-1.67.48-2.5-.24-.36-.83-.36-1.19-.24-.36.12-.83.6-.24.72.83.48.6,1.67-.24,1.43h0Z"/><path class="cls-13" d="m249.87,80.82c-1.19.36-1.55,1.67-.72,2.62.72.83,2.15.95,2.98.36.95-.6,1.07-1.79.95-2.86s-.83-1.91-1.79-2.26c-.95-.48-2.26-.48-3.34-.12-.95.36-1.55,1.07-1.91,2.03-.72,1.79-.36,4.29,1.07,5.6.95.83,2.15,1.07,3.22,1.55.48.12.95.48,1.07.95,0,.24,0,.36-.24.48h-.24c-.12,0-.12-.12-.12,0,0-.83-1.31-.83-1.31,0,0,.95.95,1.43,1.79,1.19.95-.24,1.43-1.07,1.19-2.03-.36-2.03-2.98-1.79-4.29-2.74s-1.67-2.86-1.19-4.29c.24-.72.72-1.31,1.55-1.55.83-.24,1.79-.12,2.5.48.72.48.95,1.67.48,2.5-.24.36-.83.36-1.19.24-.36-.12-.83-.6-.24-.72.83-.48.6-1.79-.24-1.43h0Z"/><path class="cls-13" d="m240.92,80.82c1.19.36,1.55,1.67.72,2.62-.72.83-2.15.95-2.98.36-.95-.6-1.07-1.79-.95-2.86s.83-1.91,1.79-2.26c.95-.48,2.26-.48,3.34-.12.95.36,1.55,1.07,1.91,2.03.72,1.79.36,4.29-1.07,5.6-.95.83-2.15,1.07-3.22,1.55-.48.12-.95.48-1.07.95,0,.24,0,.36.24.48h.24c.12,0,.12-.12.12,0,0-.83,1.31-.83,1.31,0,0,.95-.95,1.43-1.79,1.19-.95-.24-1.43-1.07-1.19-2.03.36-2.03,2.98-1.79,4.29-2.74s1.67-2.86,1.19-4.29c-.24-.72-.72-1.31-1.55-1.55-.83-.24-1.79-.12-2.5.48-.72.48-.95,1.67-.48,2.5.24.36.83.36,1.19.24.36-.12.83-.6.24-.72-.95-.48-.6-1.79.24-1.43h0Z"/><path class="cls-13" d="m156.65,40.77c1.19.24,2.15-.83,1.79-2.03-.36-1.07-1.43-1.79-2.5-1.67s-1.79,1.07-2.15,2.03-.12,2.03.6,2.86,1.79,1.55,2.86,1.67c.95.12,1.91-.24,2.62-.95,1.43-1.19,2.26-3.58,1.67-5.48-.48-1.19-1.31-1.91-2.15-2.86-.36-.36-.72-.83-.48-1.31.12-.24.12-.36.36-.36q.12,0,.24.12c.12,0,0,.12.12,0-.36.72.83,1.31,1.07.6.36-.83-.24-1.67-1.07-1.91-.95-.24-1.79.36-2.03,1.31-.6,1.91,1.79,2.98,2.5,4.41s.12,3.34-.95,4.41c-.6.6-1.31.83-2.03.72-.83-.24-1.67-.72-2.03-1.55-.36-.83-.12-1.91.72-2.38.36-.24.95,0,1.19.36.24.24.48.95-.12.83-.72-.24-.95,1.07-.24,1.19h0Z"/><path class="cls-13" d="m164.63,44.94c-.83-.83-.6-2.26.6-2.62,1.07-.36,2.38.12,2.86,1.07.48.95.12,2.15-.48,2.98s-1.67,1.31-2.74,1.19-2.26-.6-2.98-1.43c-.6-.72-.83-1.67-.72-2.62.24-1.91,1.67-3.93,3.46-4.53,1.19-.36,2.38,0,3.58.12.48,0,1.07.12,1.31-.36.12-.12.12-.36,0-.48q-.12-.12-.24-.12c-.12-.12-.12,0,0-.12-.36.72-1.55.12-1.07-.6.48-.83,1.55-.83,2.15-.24.72.6.72,1.67.12,2.38-1.31,1.55-3.46.24-5.13.48-1.55.24-2.74,1.79-2.98,3.34-.12.72,0,1.55.6,2.03.6.6,1.55.95,2.38.72.83-.12,1.67-1.07,1.55-1.91,0-.48-.48-.72-.95-.83-.36,0-.95.12-.6.6.72.6-.12,1.55-.72.95h0Z"/><path class="cls-13" d="m162.01,50.06c-1.19-.24-2.15.83-1.79,2.03.36,1.07,1.43,1.79,2.5,1.67s1.79-1.07,2.15-2.03.12-2.03-.6-2.86-1.79-1.55-2.86-1.67c-.95-.12-1.91.24-2.62.95-1.43,1.19-2.26,3.58-1.67,5.48.48,1.19,1.31,1.91,2.15,2.86.36.36.72.83.48,1.31-.12.24-.12.36-.36.36q-.12,0-.24-.12c-.12,0,0-.12-.12,0,.36-.72-.83-1.31-1.07-.6-.36.83.24,1.67,1.07,1.91.95.24,1.79-.36,2.03-1.31.6-1.91-1.79-2.98-2.5-4.41s-.12-3.34.95-4.41c.6-.6,1.31-.83,2.03-.72.83.24,1.67.72,2.03,1.55.36.83.12,1.91-.72,2.38-.36.24-.95,0-1.19-.36-.24-.24-.48-.95.12-.83.72.12,1.07-1.07.24-1.19h0Z"/><path class="cls-13" d="m154.02,45.89c.83.83.6,2.26-.6,2.62-1.07.36-2.38-.12-2.86-1.07-.48-.95-.12-2.15.48-2.98s1.67-1.31,2.74-1.19,2.26.6,2.98,1.43c.6.72.83,1.67.72,2.62-.24,1.91-1.67,3.93-3.46,4.53-1.19.36-2.38,0-3.58-.12-.48,0-1.07-.12-1.31.36-.12.12-.12.36,0,.48q.12.12.24.12c.12.12.12,0,0,.12.36-.72,1.55-.12,1.07.6-.48.83-1.55.83-2.15.24-.72-.6-.72-1.67-.12-2.38,1.31-1.55,3.46-.24,5.13-.48,1.55-.24,2.74-1.79,2.98-3.34.12-.72,0-1.55-.6-2.03-.6-.6-1.55-.95-2.38-.72-.83.12-1.67,1.07-1.55,1.91,0,.48.48.72.95.83.36,0,.95-.12.6-.6-.72-.6.12-1.55.72-.95h0Z"/><path class="cls-13" d="m183.11,19.07c.83.95,2.15.83,2.74-.24.48-.95.12-2.26-.72-2.98-.83-.6-2.03-.36-2.98.12s-1.43,1.43-1.55,2.5c-.12,1.07.36,2.26,1.07,3.1.6.72,1.55,1.07,2.5,1.07,1.91,0,4.17-1.19,4.89-2.98.48-1.19.24-2.38.24-3.58,0-.48,0-1.07.48-1.31.24-.12.36-.12.48,0s0,.12.12.24-.12.12,0,.12c-.72.36-.36,1.55.48,1.19.83-.36.95-1.43.48-2.15-.6-.83-1.55-.95-2.38-.36-1.67,1.07-.72,3.34-1.07,5.01-.36,1.55-2.15,2.5-3.7,2.62-.72,0-1.55-.24-1.91-.83-.48-.72-.72-1.67-.48-2.5s1.19-1.55,2.15-1.31c.48.12.72.6.72,1.07,0,.36-.24.95-.6.6-.48-.83-1.43-.12-.95.6h0Z"/><path class="cls-13" d="m186.21,27.41c0-1.19,1.07-2.03,2.26-1.55.95.48,1.67,1.67,1.43,2.74-.24,1.07-1.31,1.67-2.26,1.91-1.07.24-2.03-.12-2.86-.95-.72-.83-1.31-1.91-1.31-2.98,0-.95.48-1.79,1.19-2.5,1.43-1.31,3.93-1.91,5.6-.95,1.19.6,1.79,1.55,2.5,2.5.36.36.72.72,1.19.6.24,0,.36-.12.36-.36v-.24c0-.12-.12,0,0-.12-.83.24-1.19-.95-.48-1.19.95-.36,1.67.36,1.79,1.31s-.6,1.67-1.55,1.79c-2.03.36-2.74-2.15-4.05-3.1-1.31-.95-3.34-.48-4.53.48-.6.48-.95,1.19-.95,1.91.12.83.6,1.67,1.31,2.15.72.48,1.91.36,2.5-.48.24-.36.12-.95-.24-1.19-.24-.24-.83-.6-.83,0,.24.95-.95,1.07-1.07.24h0Z"/><path class="cls-13" d="m180.84,29.44c-.83-.95-2.15-.83-2.74.24-.48.95-.12,2.26.72,2.98.83.6,2.03.36,2.98-.12.95-.48,1.43-1.43,1.55-2.5.12-1.07-.36-2.26-1.07-3.1-.6-.72-1.55-1.07-2.5-1.07-1.91,0-4.17,1.19-4.89,2.98-.48,1.19-.24,2.38-.24,3.58,0,.48,0,1.07-.48,1.31-.24.12-.36.12-.48,0s0-.12-.12-.24c-.12-.12.12-.12,0-.12.72-.36.36-1.55-.48-1.19-.83.36-.95,1.43-.48,2.15.6.83,1.55.95,2.38.36,1.67-1.07.72-3.34,1.07-5.01.36-1.55,2.15-2.5,3.7-2.62.72,0,1.55.24,1.91.83.48.72.72,1.67.48,2.5-.24.83-1.19,1.55-2.15,1.31-.48-.12-.72-.6-.72-1.07,0-.36.24-.95.6-.6.36.83,1.43.12.95-.6h0Z"/><path class="cls-13" d="m177.63,21.1c0,1.19-1.07,2.03-2.26,1.55-.95-.48-1.67-1.67-1.43-2.74.24-1.07,1.31-1.67,2.26-1.91,1.07-.24,2.03.12,2.86.95.72.83,1.31,1.91,1.31,2.98,0,.95-.48,1.79-1.19,2.5-1.43,1.31-3.93,1.91-5.6.95-1.19-.6-1.79-1.55-2.5-2.5-.36-.36-.72-.72-1.19-.6-.24,0-.36.12-.36.36v.24c0,.12.12,0,0,.12.83-.24,1.19.95.48,1.19-.95.36-1.67-.36-1.79-1.31-.12-.95.6-1.67,1.55-1.79,2.03-.36,2.74,2.15,4.05,3.1,1.31.95,3.34.48,4.53-.48.6-.48.95-1.19.95-1.91-.12-.83-.6-1.67-1.31-2.15s-1.91-.36-2.5.48c-.24.36-.12.95.24,1.19.24.24.83.6.83,0-.24-.95,1.07-1.07,1.07-.24h0Z"/><path class="cls-13" d="m239.73,40.77c-1.19.24-2.15-.83-1.79-2.03.36-1.07,1.43-1.79,2.5-1.67s1.79,1.07,2.15,2.03.12,2.03-.6,2.86-1.79,1.55-2.86,1.67c-.95.12-1.91-.24-2.62-.95-1.43-1.19-2.26-3.58-1.67-5.48.48-1.19,1.31-1.91,2.15-2.86.36-.36.72-.83.48-1.31-.12-.24-.12-.36-.36-.36q-.12,0-.24.12c-.12,0,0,.12-.12,0,.36.72-.83,1.31-1.07.6-.36-.83.24-1.67,1.07-1.91.95-.24,1.79.36,2.03,1.31.6,1.91-1.79,2.98-2.5,4.41s-.12,3.34.95,4.41c.6.6,1.31.83,2.03.72.83-.24,1.67-.72,2.03-1.55.36-.83.12-1.91-.72-2.38-.36-.24-.95,0-1.19.36-.24.24-.48.95.12.83.72-.24.95,1.07.24,1.19h0Z"/><path class="cls-13" d="m231.75,44.94c.83-.83.6-2.26-.6-2.62-1.07-.36-2.38.12-2.86,1.07-.48.95-.12,2.15.48,2.98s1.67,1.31,2.74,1.19,2.26-.6,2.98-1.43c.6-.72.83-1.67.72-2.62-.24-1.91-1.67-3.93-3.46-4.53-1.19-.36-2.38,0-3.58.12-.48,0-1.07.12-1.31-.36-.12-.12-.12-.36,0-.48q.12-.12.24-.12c.12-.12.12,0,0-.12.36.72,1.55.12,1.07-.6-.48-.83-1.55-.83-2.15-.24-.72.6-.72,1.67-.12,2.38,1.31,1.55,3.46.24,5.13.48,1.55.24,2.74,1.79,2.98,3.34.12.72,0,1.55-.6,2.03-.6.6-1.55.95-2.38.72-.83-.12-1.67-1.07-1.55-1.91,0-.48.48-.72.95-.83.36,0,.95.12.6.6-.72.6.12,1.55.72.95h0Z"/><path class="cls-13" d="m234.37,50.06c1.19-.24,2.15.83,1.79,2.03-.36,1.07-1.43,1.79-2.5,1.67s-1.79-1.07-2.15-2.03-.12-2.03.6-2.86,1.79-1.55,2.86-1.67c.95-.12,1.91.24,2.62.95,1.43,1.19,2.26,3.58,1.67,5.48-.48,1.19-1.31,1.91-2.15,2.86-.36.36-.72.83-.48,1.31.12.24.12.36.36.36q.12,0,.24-.12c.12,0,0-.12.12,0-.36-.72.83-1.31,1.07-.6.36.83-.24,1.67-1.07,1.91-.95.24-1.79-.36-2.03-1.31-.6-1.91,1.79-2.98,2.5-4.41s.12-3.34-.95-4.41c-.6-.6-1.31-.83-2.03-.72-.83.24-1.67.72-2.03,1.55-.36.83-.12,1.91.72,2.38.36.24.95,0,1.19-.36.24-.24.48-.95-.12-.83-.72.12-1.07-1.07-.24-1.19h0Z"/><path class="cls-13" d="m242.36,45.89c-.83.83-.6,2.26.6,2.62,1.07.36,2.38-.12,2.86-1.07.48-.95.12-2.15-.48-2.98s-1.67-1.31-2.74-1.19-2.26.6-2.98,1.43c-.6.72-.83,1.67-.72,2.62.24,1.91,1.67,3.93,3.46,4.53,1.19.36,2.38,0,3.58-.12.48,0,1.07-.12,1.31.36.12.12.12.36,0,.48q-.12.12-.24.12c-.12.12-.12,0,0,.12-.36-.72-1.55-.12-1.07.6.48.83,1.55.83,2.15.24.72-.6.72-1.67.12-2.38-1.31-1.55-3.46-.24-5.13-.48-1.55-.24-2.74-1.79-2.98-3.34-.12-.72,0-1.55.6-2.03.6-.6,1.55-.95,2.38-.72.83.12,1.67,1.07,1.55,1.91,0,.48-.48.72-.95.83-.36,0-.95-.12-.6-.6.72-.6-.12-1.55-.72-.95h0Z"/><path class="cls-13" d="m213.27,19.07c-.83.95-2.15.83-2.74-.24-.48-.95-.12-2.26.72-2.98.83-.6,2.03-.36,2.98.12s1.43,1.43,1.55,2.5c.12,1.07-.36,2.26-1.07,3.1-.6.72-1.55,1.07-2.5,1.07-1.91,0-4.17-1.19-4.89-2.98-.48-1.19-.24-2.38-.24-3.58,0-.48,0-1.07-.48-1.31-.24-.12-.36-.12-.48,0s0,.12-.12.24.12.12,0,.12c.72.36.36,1.55-.48,1.19-.83-.36-.95-1.43-.48-2.15.6-.83,1.55-.95,2.38-.36,1.67,1.07.72,3.34,1.07,5.01.36,1.55,2.15,2.5,3.7,2.62.72,0,1.55-.24,1.91-.83.48-.72.72-1.67.48-2.5s-1.19-1.55-2.15-1.31c-.48.12-.72.6-.72,1.07,0,.36.24.95.6.6.48-.83,1.55-.12.95.6h0Z"/><path class="cls-13" d="m210.17,27.41c0-1.19-1.07-2.03-2.26-1.55-.95.48-1.67,1.67-1.43,2.74.24,1.07,1.31,1.67,2.26,1.91,1.07.24,2.03-.12,2.86-.95.72-.83,1.31-1.91,1.31-2.98,0-.95-.48-1.79-1.19-2.5-1.43-1.31-3.93-1.91-5.6-.95-1.19.6-1.79,1.55-2.5,2.5-.36.36-.72.72-1.19.6-.24,0-.36-.12-.36-.36v-.24c0-.12.12,0,0-.12.83.24,1.19-.95.48-1.19-.95-.36-1.67.36-1.79,1.31s.6,1.67,1.55,1.79c2.03.36,2.74-2.15,4.05-3.1,1.31-.95,3.34-.48,4.53.48.6.48.95,1.19.95,1.91-.12.83-.6,1.67-1.31,2.15-.72.48-1.91.36-2.5-.48-.24-.36-.12-.95.24-1.19.24-.24.83-.6.83,0-.24.95,1.07,1.07,1.07.24h0Z"/><path class="cls-13" d="m215.53,29.44c.83-.95,2.15-.83,2.74.24.48.95.12,2.26-.72,2.98-.83.6-2.03.36-2.98-.12-.95-.48-1.43-1.43-1.55-2.5-.12-1.07.36-2.26,1.07-3.1.6-.72,1.55-1.07,2.5-1.07,1.91,0,4.17,1.19,4.89,2.98.48,1.19.24,2.38.24,3.58,0,.48,0,1.07.48,1.31.24.12.36.12.48,0s0-.12.12-.24c.12-.12-.12-.12,0-.12-.72-.36-.36-1.55.48-1.19.83.36.95,1.43.48,2.15-.6.83-1.55.95-2.38.36-1.67-1.07-.72-3.34-1.07-5.01-.36-1.55-2.15-2.5-3.7-2.62-.72,0-1.55.24-1.91.83-.48.72-.72,1.67-.48,2.5.24.83,1.19,1.55,2.15,1.31.48-.12.72-.6.72-1.07,0-.36-.24-.95-.6-.6-.36.83-1.43.12-.95-.6h0Z"/><path class="cls-13" d="m218.75,21.1c0,1.19,1.07,2.03,2.26,1.55.95-.48,1.67-1.67,1.43-2.74-.24-1.07-1.31-1.67-2.26-1.91-1.07-.24-2.03.12-2.86.95-.72.83-1.31,1.91-1.31,2.98,0,.95.48,1.79,1.19,2.5,1.43,1.31,3.93,1.91,5.6.95,1.19-.6,1.79-1.55,2.5-2.5.36-.36.72-.72,1.19-.6.24,0,.36.12.36.36v.24c0,.12-.12,0,0,.12-.83-.24-1.19.95-.48,1.19.95.36,1.67-.36,1.79-1.31.12-.95-.6-1.67-1.55-1.79-2.03-.36-2.74,2.15-4.05,3.1-1.31.95-3.34.48-4.53-.48-.6-.48-.95-1.19-.95-1.91.12-.83.6-1.67,1.31-2.15s1.91-.36,2.5.48c.24.36.12.95-.24,1.19-.24.24-.83.6-.83,0,.24-.95-1.07-1.07-1.07-.24h0Z"/></g><path class="cls-20" d="m148.06,164.74c-.24-.36-.6-.83-.6-1.31-.12-.83.72-1.67,1.55-2.03s1.79-.24,2.62-.12c0-1.43-1.43-2.38-2.5-3.22-1.07-.95-2.03-2.5-1.19-3.7.48.72,1.79-.12,1.67-1.07-.12-.83-.72-1.55-1.31-2.26-1.07-1.55-1.19-3.7-.36-5.48.48-.83,1.07-1.55,1.55-2.5.95-1.79.6-4.05.6-6.08s.36-4.41,1.91-5.6c3.58,7.63,6.68,15.62,9.18,23.6.95,2.98,1.79,6.08,3.46,8.7s4.17,4.65,7.27,5.25c-3.81,1.67-7.15,0-11.09-.24-4.89-.12-9.42.72-12.76-3.93Z"/><path class="cls-20" d="m246.29,164.74c.24-.36.6-.83.6-1.31.12-.83-.72-1.67-1.55-2.03s-1.79-.24-2.62-.12c0-1.43,1.43-2.38,2.5-3.22,1.07-.95,2.03-2.5,1.19-3.7-.48.72-1.79-.12-1.67-1.07.12-.83.72-1.55,1.31-2.26,1.07-1.55,1.19-3.7.36-5.48-.48-.83-1.07-1.55-1.55-2.5-.95-1.79-.6-4.05-.6-6.08s-.36-4.41-1.91-5.6c-3.58,7.63-6.68,15.62-9.18,23.6-.95,2.98-1.79,6.08-3.46,8.7s-4.17,4.65-7.27,5.25c3.81,1.67,7.15,0,11.09-.24,4.89-.12,9.42.72,12.76-3.93Z"/><path class="cls-25" d="m158.19,100.37c.72,12.4,2.03,25.15,7.51,36.24,5.6,11.09,16.45,20.03,28.85,20.62,16.33.95,33.97-17.05,37.31-25.75.24,1.19,1.43,3.1,1.67,4.29,0,.6,1.07.6,1.19.12-5.01,12.16-13.59,23.01-24.91,29.8-11.32,6.68-25.51,8.94-38.03,4.89-2.98-.95-5.96-2.26-8.46-4.29-8.46-6.44-10.85-18.12-11.21-28.73-.36-8.34-.6-16.69-.6-25.03-.12-12.99-.24-17.17.6-31.35.36-4.89,2.15-3.22,2.26-2.38.24,2.5.72-2.86,1.67-5.6.48-1.43,1.79-1.19,1.67.48-.48,9.18-.12,17.4.48,26.7Z"/><path class="cls-25" d="m238.42,99.65c-.6,7.15-2.15,14.19-3.81,21.22-1.43,6.08-2.86,12.16-5.36,17.88-7.27,16.81-29.8,31.59-47.92,33.74,8.7,4.41,23.84,6.32,32.78,2.38,19.19-8.34,28.61-24.8,30.87-33.5,2.26-8.7,2.74-19.91,2.86-28.85.12-10.49-.36-26.23-1.91-35.05-.83-4.77-2.74-3.58-2.98-1.19-2.5-7.39-3.34-3.1-3.22,1.19.12,7.03-.95,17.76-1.31,22.17Z"/><path class="cls-11" d="m215.53,167.01c1.55-.48,2.86-1.43,4.17-2.38,12.76-9.42,21.46-24.32,23.48-40.05-1.07,1.91-1.31,4.05-2.74,6.08.48-3.1,1.55-6.44,1.31-9.06-.48,1.55-2.15,7.63-2.62,9.06-.95,3.46-2.03,6.91-3.46,10.13-2.74,6.56-6.44,12.87-11.21,18.24-2.74,2.86-5.72,5.6-8.94,7.99Z"/><path class="cls-11" d="m157.12,126.95c3.34,14.19,11.32,28.01,24.08,35.05-1.55.72-3.22,0-4.77-.83-3.7-2.15-7.15-4.77-10.13-7.87.72,2.26,2.03,4.29,3.81,5.96-.36.48-1.07.24-1.43-.12-3.7-2.38-6.08-6.32-7.99-10.25-7.39-15.62-7.87-33.62-7.75-50.9,0-5.13.12-10.25.83-15.26.24.36.36.72.6,1.07-.24-.48.6-1.19.95-.72.12.24-.24,1.43-.24,1.79-.24,2.03-.24,4.17-.24,6.2-.12,3.93-.24,7.99-.24,11.92,0,7.99.6,16.09,2.5,23.96Z"/><path class="cls-3" d="m115.16,449.65c-2.03,1.67-4.29,3.1-6.68,4.17"/><path class="cls-3" d="m114.45,446.31c-2.03,1.91-4.41,3.46-6.91,4.41"/><path class="cls-3" d="m113.13,444.4c-1.43,1.19-3.1,2.15-4.77,2.98"/><path class="cls-3" d="m113.61,441.18c-1.79,1.55-3.81,2.86-5.84,3.93"/><path class="cls-3" d="m113.73,437.97c-1.91,1.19-3.93,2.26-5.84,3.46"/><path class="cls-3" d="m113.37,434.27c-1.43.95-2.98,1.91-4.41,2.74"/><path class="cls-3" d="m113.49,431.53c-1.19.6-2.38,1.19-3.46,1.91"/><path class="cls-3" d="m113.73,428.79c-2.03,1.91-4.77,3.1-7.51,3.34.12-.12.24-.12.36,0,.12.36-.12.83-.48.95"/><path class="cls-3" d="m112.54,425.45c-1.79.95-3.46,1.91-5.25,2.98"/><path class="cls-3" d="m113.02,423.18c-1.07.83-2.15,1.55-3.22,2.15"/><path class="cls-3" d="m113.49,420.44c-1.31.95-2.62,1.67-4.05,2.26"/><path class="cls-3" d="m113.49,417.58c-1.67,1.31-3.58,2.38-5.6,3.22"/><path class="cls-3" d="m113.37,414.84c-2.38.95-4.77,1.91-7.15,2.98"/><path class="cls-3" d="m113.73,411.62c-2.86,1.55-5.96,2.86-9.06,3.93"/></svg>