<?xml version="1.0" encoding="UTF-8"?><svg id="Layer_1" xmlns="http://www.w3.org/2000/svg" xmlns:xlink="http://www.w3.org/1999/xlink" viewBox="0 0 395 450"><defs><style>.cls-1,.cls-2,.cls-3,.cls-4,.cls-5{fill:none;}.cls-6{clip-path:url(#clippath);}.cls-7{fill:#f9efde;}.cls-8{fill:#ebdeca;}.cls-9{fill:#fff;}.cls-10{fill:#6b84b5;}.cls-11{fill:#9e4a26;}.cls-12{fill:#a5a69c;}.cls-13,.cls-14{fill:#ccc5a3;}.cls-15{fill:#d2d3c7;}.cls-16{fill:#240e05;}.cls-17{fill:#87726f;}.cls-18{fill:#28110c;}.cls-19{fill:#d3d3c5;stroke-width:.52px;}.cls-19,.cls-2,.cls-3,.cls-4,.cls-5{stroke-miterlimit:10;}.cls-19,.cls-4{stroke:#000;}.cls-2{stroke:#ababa0;stroke-width:.47px;}.cls-14,.cls-20,.cls-21{isolation:isolate;}.cls-14,.cls-20,.cls-22{opacity:.59;}.cls-20{fill:#dbd3b4;}.cls-21{fill:#4867a3;opacity:.58;}.cls-3{stroke:#240e05;stroke-width:.51px;}.cls-3,.cls-5{stroke-linecap:round;}.cls-4{stroke-width:.79px;}.cls-23{opacity:.46;}.cls-5{stroke:#fff;stroke-width:.75px;}</style><clipPath id="clippath"><path class="cls-1" d="m163.25,167.53c-3.39-8.42-10.56-5.53-18.23-4.15-9.93,1.76-19.48,4.27-29.41,6.16-16.22,3.14-33.94,2.51-48.14,11.94-6.79,4.65-14.2,12.19-10.68,20.87,3.02,7.42,4.78,14.96,7.79,22.25,4.65,11.19,6.79,23.25,11.19,34.57,7.29,18.73,10.31,37.84,13.2,57.7,3.14,22.12-3.77,43.24-6.16,65.11-1.63,15.21-.63,31.93,5.41,46.26,7.04,16.97,20.61,26.9,36.7,34.94,31.17,15.71,65.11,17.98,98.93,10.81,31.93-6.66,66.87-19.48,81.08-51.66,6.03-13.7,7.54-27.4,6.91-42.24-.88-20.61-3.39-41.1-6.03-61.47-1.38-10.18-4.15-19.73-5.03-30.04-.88-10.43-.5-21.49,1.01-31.93,2.26-15.96,6.54-31.68,11.82-47.01,5.78-16.84-.13-26.77-1.38-28.66-5.03-7.54-21.49-11.94-30.04-13.45-14.08-2.51-27.91-5.91-42.36-5.03-11.31.63-14.58,10.81-22.75,17.22-12.95,10.06-34.69,11.19-46.76-.38-3.02-3.02-4.53-7.79-7.04-10.43"/></clipPath></defs><path class="cls-9" d="m86.07,636.74l.15-12.07c.06-2.76.09-5.53.12-8.24.03-2.8.06-5.51.13-8.12.16-11.12.24-19.13.12-22.4l-.03-.75-.16-.74c-1.19-5.5-1.32-10.72-1.44-15.34v-.3s-.63-44.34-.63-44.34c0-2.24,0-4.36-.14-6.73l-.07-1.13-.88-2.66-.2-.43c-.55-1.19-.92-2.29-1.14-3.37l-.84-4.21-3.88-1.84c-8.09-3.84-13.87-8.83-17.68-15.25-3.2-5.4-4.49-10.86-5.63-16.44l-.09-.46c-.24-1.22-.51-2.59-.93-4.01-2.39-9.15-7.65-18.18-12.29-26.15l-.99-1.73c-1.66-2.89-3.37-5.87-4.96-8.95-1.82-3.42-3.31-6.74-4.76-10.55l-.65-1.72-1.3-1.3c-.22-.22-.45-.44-.7-.66l-.03-.04-.31-.33c-3.54-3.8-4.61-8.19-5.11-11.16l-.45-2.7-1.86-1.86c-.14-.17-.28-.36-.42-.54-6.14-8.4-3.5-18.56-2.09-24.01,3.67-14.17,3.79-28.93,3.91-44.57v-1.52c.01-8.19.17-15.41.51-22.15.7-14.28,2.79-28.36,4.8-41.98l.42-2.8c2.77-18.66,5.63-37.96,12.38-56.68,1.07-3.07,2.38-5.8,3.92-8.21l1.04-1.61.25-1.9c1.15-8.66,6.76-16.47,16.68-23.2,12.45-8.41,26.08-10.16,39.26-11.85l.51-.07c4.6-.54,8.81-1.06,12.78-1.86,2.42-.45,4.98-1.02,7.46-1.56,1.66-.37,3.33-.74,5.03-1.09l.18-.04.17-.04c1.64-.41,2.94-.69,3.98-.87l7.16-1.19v-11.1l-2.71-2.54c-2.7-2.52-4.57-5.72-5.42-9.25l-.21-.95-2.45-12.53-4.62-9.66c-.85-2.12-2.12-5.31-1.71-9.56l.04-.41v-.75l.36-1.3,1.52-6.46c.46-1.71,1.06-3.24,1.79-4.54l1.56-2.77-1-5c-5.1-25.95,8.42-51.34,32.9-61.7l.74-.31.67-.45c2.06-1.38,4.18-2.5,6.46-3.44,2.14-.82,5.41-1.78,9-1.78,1.07,0,2.12.09,3.12.26l1.32.22,2.41-.35.21-.04c3.51-.68,7.08-1.02,10.63-1.02,24.15,0,45.35,15.41,52.75,38.36.8,2.4,1.29,4.32,1.58,6.12l.06.31,4.71,24.03-2.67.89,1.48,7.41c.11.54.22,1.09.33,1.74l.04.27.06.27c.51,2.18.37,4.57-.41,6.91l-1.17,3.52,1.77,3.27c1.32,2.43,2.28,5.12,3.05,7.43,1.14,3.52,1.85,7.84,2.09,12.78.22,5.84-.49,11.32-1.29,16.35l-.53,3.31,2.4,3.61c.53.97,1.05,1.94,1.3,2.64l1.75,4.8,5.06.74c2.75.4,5.44.92,8.3,1.46,1.31.25,2.61.5,3.92.74,2.51.5,5.09,1.02,7.59,1.41,18.66,3.36,31.63,9.61,37.51,18.06l1.06,1.52,1.59.95c6.31,3.77,9.88,10.15,11.4,12.88l.09.17c10.06,18.13,16.09,37.67,21.41,54.91l.06.18c4.31,13.66,8.77,27.79,11.81,42.29,1.17,5.31,2.08,10.73,2.97,15.98.33,1.96.66,3.9.99,5.81,2,12.28,4.05,24.91,7.97,36.6l6.12,16.12c1.35,5.07,1.56,10.51-1.31,16.09l-.19.36-.05.13-.05.08c-.23.39-.45.77-.63,1.14l-.91,1.81v2.03c0,2.98-.34,7.43-3.29,11.77-1.47,2.21-3.56,4.11-6.09,5.55l-1.76,1-1.12,1.68c-.46.69-.95,1.38-1.44,2.07-.53.75-1.06,1.5-1.56,2.24-2.23,2.97-4.49,5.79-6.67,8.51l-.82,1.02c-6.16,7.54-12.59,15.41-16.28,24.13l-1.62,4.06c-1.74,4.56-3.9,10.23-8.19,15.48-1.43,1.74-3.22,3.39-4.94,4.9l-1.26,1.11-.75,1.5c-.25.5-.42.95-.55,1.36l-.11.23-.23.91c-.13.54-.27,1.11-.4,1.68-.11.47-.22.94-.33,1.38-2.34,8.64-5.66,16.59-9.13,24.66l-.9,2.09.25,2.26c.07.66.07,1.33.07,2.19v.94l3.22,14.49c.2.92.94,5.14,2.74,15.32,1.04,5.89,2.45,13.87,4.36,24.66,1.98,11.54,4.31,24.84,6.57,37.69,1.49,8.47,2.97,16.91,4.36,24.89l2.55,13.85H86.07Z"/><path class="cls-15" d="m316.98,370.28c-.25,1.89-.38,4.53.88,4.4,12.19-1.76,25.01,1.63,34.57,9.43,2.77,2.26,5.41,4.9,8.8,6.28s7.79,1.01,9.8-2.01c2.39-3.52.38-8.55,2.14-12.32.63-1.38,1.63-2.39,2.26-3.77,2.26-4.4-.13-9.68-2.01-14.2-9.43-21.62-10.81-45.63-15.71-68.63-3.02-14.08-7.29-27.78-11.56-41.48-5.66-17.98-11.44-36.2-20.49-52.67-2.39-4.27-5.53-8.8-10.31-9.8-5.91-1.26-11.44,3.39-15.34,8.04-16.72,20.36-24.13,47.51-22.75,73.79.5,9.68,2.01,19.48,5.53,28.53,1.76,4.53,4.15,8.92,7.29,12.7,1.51,1.89,3.14,3.65,5.03,5.15,1.63,1.38,4.65,2.64,5.66,4.53.5.88.75,1.89,1.01,2.89,1.89,6.54,7.16,11.56,9.18,17.98,1.63,5.15,1.13,10.81,3.14,15.71.63,1.51,1.38,2.89,2.01,4.53,1.13,3.14,1.01,6.16,1.13,9.43-.13.13-.25.75-.25,1.51Z"/><path class="cls-10" d="m326.53,624.95h-109.86c-2.51-11.44-5.15-22.88-9.8-34.57-.88,1.89-1.01,17.22-1.38,34.57h-107.35c.25-21.24.75-39.6.13-41.98-1.13-4.65-1.26-9.43-1.38-14.08-.25-14.58-.38-29.04-.63-43.62-.13-4.4-.13-8.92-.13-13.32,0-1.89,0-3.77.13-5.53.13-2.14.13-4.27.38-6.28.63-8.55,2.01-16.84,3.39-25.27,1.76-10.81,1.13-20.87,2.89-31.68,12.57,8.42,27.53,13.32,42.61,13.7h9.55c1.89,0,3.77,0,5.66.13h.25c4.02.25,7.92.88,11.82,1.76,7.04,1.38,13.95,3.14,21.12,3.39,13.95.5,27.4-4.4,41.23-5.91,2.64-.25,5.28-.5,7.79-.5h.13c1.13,0,2.26,0,3.39.13,2.64.13,5.28.38,7.79.63,2.64.25,5.28.5,7.92.5,10.31.25,20.99-6.66,31.05-9.05,1.76,6.79,3.27,14.83,4.78,22.88.25,1.13.38,2.39.63,3.52,1.26,6.66,2.39,13.32,3.65,19.48.38,2.01.75,3.9,1.13,5.66h0c.13.25.13.63.25.88.38,1.51.63,3.02,1.01,4.4,1.38,6.03,2.64,12.07,4.02,18.1.63,3.02,10.31,59.08,17.85,102.07Z"/><path class="cls-21" d="m244.7,624.95h-28.03c-2.51-11.44-5.15-22.88-9.8-34.57-.88,1.89-1.01,17.22-1.38,34.57h-107.35c.25-21.24.75-39.6.13-41.98-1.13-4.65-1.26-9.43-1.38-14.08-.25-14.58-.38-29.04-.63-43.62-.13-4.4-.13-8.92-.13-13.32-.63-.13-1.13-.38-1.38-.75-.25-.5.13-1.38-.13-1.76-.25-.38-.63-.5-.88-.88-.38-.5-.13-1.26.38-1.63.5-.38,1.13-.5,1.76-.5h.38c.13-2.14.13-4.27.38-6.28.63-8.55,2.01-16.84,3.39-25.27,1.76-10.81,1.13-20.87,2.89-31.68,12.57,8.42,27.53,13.32,42.61,13.7h2.51c.13-.25.38-.5.5-.63.25-.25.5-.63.88-.75s.75-.13,1.13-.13c.88,0,4.15-.25,4.53.63v.13c.13.25,0,.5-.13.88,1.89,0,3.77,0,5.66.13h.25c4.02.25,7.92.88,11.82,1.76-.13,5.03-.88,9.8-.75,14.96,0,2.77.13,5.53.38,8.3v.5c.75,11.82,2.39,23.63,1.51,35.7-.88,13.2-2.77,27.4,4.15,38.59,9.55,15.34,30.92,17.6,44.87,29.16,11.94,9.3,16.84,24.01,21.87,38.84Z"/><path class="cls-7" d="m147.16,507.42c0,.25-.25.5-.5.63-3.14,3.02-8.67,2.39-11.82-.5-.88-.75-1.63-1.63-2.39-2.64-2.01-2.51-4.15-5.03-6.16-7.54-6.41,4.9-13.95,8.42-21.87,10.18-.63.13-1.38.25-2.01.38-1.89.38-4.02.5-5.53-.5-1.01-.63-1.51-1.63-2.14-2.64-4.9-8.55-9.8-17.22-13.32-26.52-1.13-3.02-2.14-6.03-3.52-8.92-1.51-3.39-3.52-6.41-5.53-9.55-2.01-2.89-1.26-4.53.5-7.54.88-1.38,1.76-2.64,2.89-3.77,2.89-3.02,6.54-5.28,10.68-6.28.25-.13.5-.13.88-.13.63.13,1.01.63,1.26,1.13,2.51,3.52,4.9,7.16,7.42,10.68,1.76,2.51,3.52,5.03,5.66,7.16,2.01,2.01,4.53,3.65,7.04,4.9,3.14,1.38,6.54,2.14,9.43,3.9,6.54,3.9,9.68,11.56,14.58,17.35,2.26,2.64,4.9,4.9,7.16,7.67,1.13,1.38,2.14,2.89,3.02,4.4,1.38,2.26,2.64,4.78,3.77,7.16h0c.38.38.5.63.5,1.01Z"/><path class="cls-8" d="m104.42,507.67c-.63.13-1.38.25-2.01.38-1.89.38-4.02.5-5.53-.5-1.01-.63-1.51-1.63-2.14-2.64-4.9-8.55-9.8-17.22-13.32-26.52-1.13-3.02-2.14-6.03-3.52-8.92-1.51-3.39-3.52-6.41-5.53-9.55-2.01-2.89-1.26-4.53.5-7.54.88-1.38,1.76-2.64,2.89-3.77v.5c.13,7.42,5.66,13.58,7.79,20.61,1.89,6.03,1.26,12.95,4.53,18.48,1.01,1.63,2.26,3.14,3.39,4.65,1.63,2.26,2.77,4.78,4.53,7.04,2.26,3.14,5.53,5.41,8.42,7.79Z"/><path class="cls-15" d="m86.32,382.1c.5,1.76,1.13,4.4-.25,4.4-12.32.13-24.39,5.66-32.68,14.71-2.39,2.64-4.65,5.66-7.67,7.54-3.14,1.89-7.54,2.14-10.06-.5-2.89-3.14-1.63-8.3-4.02-11.82-.75-1.26-2.01-2.14-2.89-3.27-2.89-4.02-1.51-9.55-.25-14.33,5.91-22.75,3.52-46.76,4.65-70.27.75-14.33,2.77-28.53,4.9-42.74,2.77-18.73,5.53-37.58,11.94-55.31,1.63-4.65,4.02-9.55,8.55-11.31,5.66-2.26,11.82,1.51,16.47,5.53,19.73,17.47,31.3,43.11,34.06,69.26,1.01,9.68,1.13,19.48-1.01,29.04-1.13,4.78-2.77,9.43-5.15,13.7-1.26,2.14-2.64,4.02-4.15,5.91-1.38,1.63-4.15,3.39-4.9,5.41-.38,1.01-.38,2.01-.5,3.02-.88,6.66-5.15,12.57-6.16,19.23-.75,5.28.63,10.81-.63,16.09-.38,1.63-1.01,3.14-1.26,4.78-.63,3.27,0,6.28.38,9.43.25.13.38.75.63,1.51Z"/><path class="cls-15" d="m99.64,421.56c2.64,6.28,8.04,11.06,10.68,17.35,2.26,5.28,2.51,11.31,5.78,15.96,2.26,3.27,5.78,5.53,7.92,8.92,2.77,4.65,2.26,10.68,0,15.59-2.26,4.9-6.16,8.92-9.93,12.82-3.02,3.02-6.28,6.16-10.43,6.79-2.77.38-5.53-.25-8.17-1.01-9.8-2.64-20.36-6.41-25.64-15.08-3.14-5.28-3.77-11.56-5.28-17.6-3.65-14.33-12.44-26.65-19.23-39.72-5.28-9.93-9.55-21.62-5.78-32.18.88-2.39,2.14-4.65,4.02-6.28,2.01-1.51,4.53-2.14,6.91-2.77,9.68-2.51,26.52-8.04,35.45-.5,10.31,8.67,8.92,26.27,13.7,37.71Z"/><path class="cls-12" d="m76.14,389.64c-.5,0-.88-.25-1.38-.5-1.76-.88-3.9-.25-5.78.5-4.53,1.76-8.8,4.15-12.57,7.16.88-3.77,4.15-6.79,7.79-8.3s7.54-1.89,11.56-2.14c1.26-1.01.25-3.27-1.38-3.65-1.51-.38-3.14.38-4.53,1.01,0-1.01.88-1.76,1.76-1.89-.75-.38-.75-1.51-.25-2.26.5-.63,1.38-1.01,2.26-1.26-.5-1.01-1.38-1.76-2.26-2.26.88.5,1.89-1.01,1.38-1.89s-1.76-1.13-2.77-1.01-2.01.5-3.02.5c.88-1.01,2.01-1.76,3.39-2.14,4.4-1.13,8.92,2.64,13.45,1.76.63-.13,1.51-.25,2.01.25.25.38.25.88.25,1.26,0,2.77,2.51,8.3.25,10.18-1.01.88-3.14.88-4.4,1.26-1.76.88-3.9,3.27-5.78,3.39Z"/><path class="cls-7" d="m161.61,177.58c-.25,1.63-.5,3.39.25,4.78.5,1.01,1.38,1.63,2.26,2.26,6.28,4.9,12.82,10.06,20.49,12.44s16.84,1.89,22.75-3.65c2.89-2.77,18.73-16.34,20.24-19.99,1.89-4.65-10.56.25-10.81-4.78-.25-5.03-2.26-10.18-6.28-13.2-4.27-3.27-10.06-3.77-15.34-3.39s-10.68,1.76-15.96,1.38c-2.89-.25-9.05-3.77-11.56-2.89-4.65,2.01-5.28,22.12-6.03,27.03Z"/><path class="cls-7" d="m149.04,134.47c-.13,13.32,20.87,25.64,29.54,29.92,7.54,3.77,20.87,5.03,33.44,4.53,1.51,0,2.89-.13,4.4-.25.38,0,.88,0,1.26-.13,14.08-1.13,16.34-11.94,17.35-17.35,1.13-5.41,7.42-35.82,6.54-41.23-1.13-6.28-5.41-6.54-6.54-11.94-.5-4.15,1.38-6.16,2.64-7.29,1.63-1.51.63-4.65.63-4.65l-4.27-22.88-7.54-8.8-4.53-5.28-15.46-.5-50.78-1.63-9.8,45.63c.13,0,3.27,32.05,3.14,41.86Z"/><path class="cls-20" d="m205.73,54.27c.38,2.77,2.26,5.41,3.02,8.17.63,2.26,1.01,4.53,1.26,6.79.13.75.75,1.38.75,2.14,0,.63-.5,1.51-.63,2.14,0,1.01-.13,1.89.25,2.77.25.5.5,1.01.63,1.51.13.75-.38,1.51-.38,2.39-.25,2.01,2.01,3.52,3.27,5.15,1.38,1.89,1.63,4.53.63,6.54-.75,1.51-2.01,2.77-2.26,4.27-.25,1.76.75,3.52,1.63,5.15,2.89,5.53,3.77,11.94,4.4,18.1.38,2.77,0,6.28-2.64,6.91-.63.13-1.38,0-2.01.13-1.89.25-3.14,2.01-3.52,3.9s-.13,3.77.13,5.53c.63,8.04-1.63,16.22-1.13,24.26.25,3.14,1.01,6.41,2.89,8.8,1.51,0,2.89-.13,4.4-.25.38,0,.88,0,1.26-.13,14.08-1.13,16.34-11.94,17.35-17.35,1.13-5.41,7.42-35.82,6.54-41.23-1.13-6.28-5.41-6.54-6.54-11.94-.5-4.15,1.38-6.16,2.64-7.29,1.63-1.51.63-4.65.63-4.65l-4.27-22.88-7.54-8.8-4.53-5.28-15.46-.5c-.63,1.89-1.01,3.77-.75,5.66Z"/><path class="cls-16" d="m209,140.12l3.02-2.64s1.13-1.13,1.26-1.13,1.89-.13,2.14,0c.13.13,5.91,3.65,6.28,3.52s2.64-1.38,2.64-1.38l1.89,3.9s-4.53-2.14-4.9-2.14-12.32-.13-12.32-.13Z"/><path class="cls-16" d="m213.65,140.12l-3.14-2.64-1.26-1.13s-2.01-.13-2.26,0-6.28,3.65-6.79,3.52-2.77-1.38-2.77-1.38l-2.01,3.9s4.9-2.14,5.15-2.14c.38,0,13.07-.13,13.07-.13Z"/><path class="cls-7" d="m133.08,102.54l4.9,10.18q0,.13.13.25l2.64,14.08c.38,1.63,1.38,3.14,2.77,4.27l4.02,3.02c.25.13.5.25.75.25.75.13,2.51.25,4.02.38.88.13,2.51-1.26,2.39-2.14l-1.38-14.08v-.38l-.25-5.03c-2.39-2.64-4.4-6.66-5.28-12.57v-.75c0-.25,0-.38-.13-.63v-.38l-1.01-6.41-.88-1.63c-.25-.38-.38-.63-.63-1.01-1.01-1.26-2.64-2.01-4.27-2.01h-3.27c-1.76,0-3.27,1.26-3.65,2.89l-1.63,6.79v.25h0c-.38,1.89.13,3.02.75,4.65Z"/><g class="cls-23"><path class="cls-13" d="m141,101.66c.25,1.51,1.13,3.27,1.63,4.53.13.25.13.38.25.63.13.25.13.38.25.5,0,0,0,.13.13.13,0,.13.13.25.13.38.13.38.38.75.5,1.13,0,0,0,.13.13.13.63,1.13,1.13,2.01,1.13,2.01.13,2.89.38,4.9,1.26,6.16h0c.5.63,1.13,1.01,2.14,1.01h.38c2.14,0,3.27-1.26,3.77-2.89.38-1.01.38-2.26.38-3.39-.13-.13-.38-.38-.5-.63-1.89-2.14-3.65-5.41-4.27-10.31-.38-.38-.63-.63-1.01-1.01h0c-.5-.5-1.01-.75-1.51-1.01h0c-1.63-.75-2.26-1.13-4.02,0h0c-.25.13-.38.25-.38.5h0c-.5.5-.5,1.26-.38,2.14Z"/></g><path class="cls-16" d="m140.12,100.53c0,.13,0,.38.13.5l.13.25.13.5.75,2.14.75,2.14c.25.75.5,1.38.88,2.01l.5,1.13c.13.25.25.38.38.63.13.13.13.25.25.25l.13.13c.38.63.5,1.38.63,2.26l.38,2.51c.13.75.25,1.63.63,2.39v.13h0c.13.25.25.38.38.63.25.25.5.38.63.38.5.25,1.01.25,1.38.25h0c.25,0,.5-.13.63-.13s.25-.13.38-.13.25-.13.38-.13c.13-.13.25-.38.13-.5-.13-.13-.38-.25-.5-.13h0s-.13.13-.25.13-.13.13-.25.13-.38.13-.5.13h0c-.38,0-.75,0-1.01-.13-.13-.13-.38-.13-.38-.25-.13-.13-.13-.25-.25-.38h0v.13-.13h0l-.38-.25h0s.13,0,.25.13v.13c-.25-.63-.38-1.51-.5-2.26l-.38-2.51c-.13-.88-.25-1.63-.75-2.51-.13-.13-.13-.25-.25-.38l-.13-.13c-.13-.13-.25-.25-.25-.5l-.5-1.13h0c-.25-.63-.5-1.38-.75-2.01l-.75-2.14-.75-2.14-.25-.5-.13-.25h0c0-.13.13-.5.38-.75h0l.38-.38c.13-.13.25-.25.38-.38.25-.13.63-.25,1.01-.38.38,0,.63,0,1.01.25l.5.25.25.13.13.13h.13l1.51,1.01h0l.88.63h0c.13.13.25.13.38.13v-1.26l-.5-.38h0l-1.63-1.01.13.13-.13-.13h-.13l-.13-.13-.25-.13-.63-.25c-.38-.25-1.01-.25-1.51-.25s-1.01.25-1.38.5c-.38.25-.75.63-1.13,1.01h0v.13c-.25-.25-.38.13-.5.75Zm1.38-.63h0Z"/><g class="cls-22"><path class="cls-13" d="m196.94,92.99c-2.01-1.01-7.29-2.01-9.55-1.51-4.02,1.01-7.04,3.52-7.04,3.9s.5,1.89.75,2.14c.5.63,1.63.25,2.39,0,3.02-1.38,5.78-3.27,9.05-4.02.75-.13,1.51-.25,2.26,0s1.38.63,1.89,1.13c1.51,1.38,2.64,2.89,4.78,3.27.75-.38.5-2.51.5-3.14,0-.75-3.39-1.01-5.03-1.76Z"/></g><path class="cls-16" d="m185.12,98.39l1.63,1.26c.63.5,1.38.75,2.14,1.01,1.51.5,3.14.5,4.65.38.88-.13,1.63-.38,2.26-.75.63-.38,1.26-.75,1.89-1.13l.88-.63c.25-.25.38-.25.75-.38.63-.13,1.38-.25,2.14-.5h0l-.25-.38c-.63.38-.38.88.38.25.13-.13.13-.25,0-.25h-.13c-.75-.13-1.51,0-2.26.13-.25,0-.38.13-.63.25s-.38.25-.5.38l-.88.63c-1.01.75-2.26,1.63-3.52,1.63-1.38,0-2.89,0-4.15-.5-.63-.25-1.13-.5-1.63-.88l-1.63-1.26c-.25-.25-.75-.25-1.01,0-.38.25-.38.5-.13.75h0Z"/><ellipse class="cls-16" cx="193.29" cy="96.38" rx="3.27" ry="3.14"/><path class="cls-11" d="m201.08,97.01c-.25,0-.75-.13-.88-.25-.25-.13-.63-.5-.88-.75l-1.89-1.51-1.01-.75c-.13-.13-.38-.25-.5-.38-.25-.13-.38-.25-1.01-.38-1.01-.13-1.89-.13-2.77,0-1.89.13-3.77.38-5.53,1.13-1.76.63-3.39,1.63-4.65,3.02h0c-.5.5-.38,1.13.25,1.51.63.38,1.51.25,1.89-.25l.13-.13c.75-1.13,1.89-2.01,3.27-2.64s3.02-1.13,4.78-1.26c.88-.13,1.76-.13,2.51-.13-.13,0,.13,0,.25.13.13.13.38.25.5.25.38.25.63.5,1.01.75.63.5,1.26,1.01,1.89,1.51.38.25.63.5,1.01.75.63.38,1.13.38,1.63.38.38,0,.63-.25.63-.5,0-.25-.25-.5-.63-.5h0Z"/><path class="cls-3" d="m202.84,93.74c-2.14,0-5.41-.63-7.16-1.51-7.04-3.27-13.07.63-14.83,2.51"/><path class="cls-14" d="m218.81,97.76c-.38,0-.5-.38-.63-.63s0-.63,0-1.01c.13-.5.13-1.01.25-1.51.13-1.01,1.26-1.51,1.51-1.51,2.51-.13,4.4-.88,6.79-1.63.5-.13,1.01-.25,1.51-.25.63,0,1.13.25,1.76.38,1.26.5,1.89.5,3.02,1.13.88.5,1.38,1.26,1.51,2.39,0,.38.63,1.63.38,1.89-.38.5-.63.13-1.26-.13s-1.01-.75-1.51-1.13c-1.63-1.26-3.77-1.76-5.78-2.01-.75-.13-1.63-.13-2.39,0-1.13.25-2.14.88-3.02,1.76-.5.38-1.76,2.26-2.14,2.26Z"/><path class="cls-16" d="m232.63,96.25l-1.38,1.38c-.38.38-.88.75-1.38,1.13-1.13.63-2.39.88-3.77,1.01-1.26.13-2.51-.5-3.52-1.13-.63-.38-1.01-.75-1.76-1.01-.38-.25-.88-.25-1.13-.38-.38-.13-.75,0-1.13.13h-.13c-.13,0-.25.13-.13.25v.13c.25.38,1.01.38.38-.25l-.25.38c.63.25,1.38.25,1.76.5.5.38,1.13.75,1.76,1.01.63.38,1.26.63,1.89.88.38.13.75.25,1.13.25.38.13.88,0,1.13,0,1.38,0,2.89-.25,4.27-.88.63-.25,1.38-.75,1.76-1.26l1.38-1.38c.25-.25.25-.63,0-.88-.12-.13-.63-.13-.88.13h0Z"/><ellipse class="cls-16" cx="227.23" cy="96.51" rx="2.77" ry="2.64"/><path class="cls-11" d="m219.31,98.01c.25-.13.5-.25.63-.38l.38-.38.75-.75c.5-.5,1.01-.88,1.51-1.38.25-.25.5-.5.75-.63.13-.13.25-.25.25-.13-.13,0,0,0,0,0h2.51c1.38.13,2.77.38,3.9.88,1.26.5,2.14,1.26,2.89,2.14.38.5,1.26.63,1.76.38s.63-1.01.25-1.51l-.13-.13h0c-1.13-1.13-2.51-1.89-4.02-2.39s-3.02-.75-4.65-.75c-.75,0-1.51,0-2.26.13h-.63q-.25.13-.38.25c-.13,0-.13.13-.25.13-.25.25-.5.5-.75.75-.5.5-1.01,1.01-1.38,1.51l-.75.75-.38.38q-.13.13-.25.13c-.38,0-.63.25-.63.63,0,.25.38.5.75.5-.13-.13,0-.13.13-.13h0Z"/><path class="cls-11" d="m217.3,89.09c2.77.63,4.4.13,6.41-.38s4.02-1.01,5.91-1.38c1.89-.5,3.65-.25,5.41.63,1.76.75,3.39,2.01,4.9,3.39l.75-.88c-1.51-1.38-3.02-2.77-4.9-3.9-.88-.5-1.89-1.01-3.02-1.26s-2.26-.38-3.39-.25c-2.14.13-4.02.25-6.16.38-2.01.13-3.9.13-5.03-.63l-.88,4.27Z"/><path class="cls-11" d="m205.23,89.47c-2.89.5-5.41-.13-7.92-.63l-7.16-1.63c-2.39-.5-4.65-.5-6.91.25s-4.4,1.89-6.41,3.27l-.38-.63c8.55-5.91,11.69-4.78,21.37-3.52,2.39.25,4.78.38,6.79-.25l.63,3.14h0Z"/><path class="cls-16" d="m214.28,127.43h.5c2.51-.25,4.15-2.14,4.65-4.02.5-1.76.25-3.65-.13-5.53-.63-3.02-1.26-6.03-1.89-8.92v-.13c-.63-2.77-1.26-6.03-3.27-8.55-.13-.25-.25-.38-.5-.63-.63-.75-1.13-1.38-1.26-2.26-.25-1.38.88-2.77,2.01-3.65.25-.25.63-.5.88-.75,1.01-.88,2.14-1.76,2.77-2.89.75-1.38.88-3.02.38-5.15l-1.38.25c.38,1.89.38,3.27-.25,4.4-.5,1.01-1.51,1.76-2.51,2.64-.25.25-.63.5-.88.75-1.76,1.51-2.64,3.14-2.39,4.65.13,1.01.88,1.89,1.51,2.77.13.25.25.38.5.63,1.76,2.39,2.51,5.41,3.02,8.17v.13c.63,2.89,1.26,5.91,1.89,8.92.38,1.89.63,3.52.13,5.03-.38,1.38-1.63,2.89-3.52,3.14-1.38.13-2.77-.5-4.15-1.26-1.51-.75-3.14-1.63-5.03-1.38-.63.13-1.26.25-1.76.38-.63.25-1.26.38-1.89.38-.88,0-1.76-.75-1.89-1.51s.38-1.63,1.13-2.01l-.63-1.13c-1.38.63-2.26,2.01-1.89,3.39.25,1.38,1.63,2.39,3.14,2.51.88,0,1.63-.25,2.39-.38.5-.13,1.01-.25,1.51-.38,1.38-.13,2.77.5,4.15,1.26,1.63.38,3.02,1.13,4.65,1.13Z"/><path class="cls-3" d="m218.93,93.24c1.38,0,3.77-.25,5.91-1.26,3.27-1.63,5.66-.88,8.3,1.01"/><path class="cls-11" d="m212.4,128.56c.38-.38,1.01-.5,1.51-.5,2.01-.25,4.15.25,6.03,1.13,3.9,1.89,6.54,5.53,10.06,7.79,2.64,1.76,6.28,2.77,9.3,1.63.63-.25,1.51-.38,1.76.13.38.88-1.51,1.01-1.89,1.13-6.41,1.13-13.45,1.38-19.86-.38-2.39-.63-4.78-1.76-6.28-3.52-.25-.25-.38-.5-.5-.75-.13-.38-.13-.75-.25-1.13,0-1.01-.13-2.14-.38-3.14,0-.88-.38-1.63.5-2.39Z"/><path class="cls-11" d="m210.64,128.56c-.38-.38-1.01-.5-1.51-.5-2.01-.25-4.15.25-6.03,1.13-3.9,1.89-6.54,5.53-10.06,7.79-2.64,1.76-6.28,2.77-9.3,1.63-.63-.25-1.51-.38-1.76.13-.38.88,1.51,1.01,1.89,1.13,6.41,1.13,13.45,1.38,19.86-.38,2.39-.63,4.78-1.76,6.28-3.52.25-.25.38-.5.5-.75.13-.38.13-.75.25-1.13,0-1.01.13-2.14.38-3.14,0-.88.25-1.63-.5-2.39Z"/><path class="cls-7" d="m252.87,505.78c.13.25.25.5.5.63,3.39,2.64,8.8,1.51,11.82-1.63.75-.88,1.38-1.89,2.14-2.77,1.76-2.77,3.52-5.41,5.41-8.17,6.91,4.27,14.71,7.04,22.75,8.04.63.13,1.38.13,2.01.25,1.89.13,4.02.13,5.53-1.13.88-.75,1.38-1.89,1.89-2.89,4.02-9.05,8.04-18.1,10.56-27.65.88-3.14,1.51-6.28,2.51-9.3,1.26-3.52,2.89-6.79,4.53-10.06,1.63-3.14.75-4.65-1.26-7.42-1.01-1.26-2.01-2.51-3.27-3.52-3.14-2.77-7.04-4.65-11.19-5.15-.25,0-.63-.13-.88,0-.63.13-.88.75-1.26,1.26-2.14,3.77-4.15,7.54-6.28,11.31-1.51,2.64-3.02,5.28-4.9,7.67-1.89,2.26-4.02,4.15-6.54,5.53-3.02,1.76-6.28,2.77-9.05,4.78-6.16,4.53-8.42,12.44-12.82,18.73-2.01,2.89-4.4,5.41-6.41,8.3-1.01,1.51-1.89,3.02-2.64,4.65-1.13,2.39-2.14,5.03-3.02,7.54h0c-.13.38-.13.63-.13,1.01Z"/><path class="cls-8" d="m295.36,501.76c.63.13,1.38.13,2.01.25,1.89.13,4.02.13,5.53-1.13.88-.75,1.38-1.89,1.89-2.89,4.02-9.05,8.04-18.1,10.56-27.65.88-3.14,1.51-6.28,2.51-9.3,1.26-3.52,2.89-6.79,4.53-10.06,1.63-3.14.75-4.65-1.26-7.42-1.01-1.26-2.01-2.51-3.27-3.52,0,.25.13.38.13.5.63,7.42-4.27,14.08-5.66,21.37-1.26,6.28,0,13.07-2.64,18.73-.75,1.76-1.89,3.27-2.89,5.03-1.38,2.39-2.26,5.03-3.77,7.42-1.89,3.39-4.9,5.91-7.67,8.67Z"/><path class="cls-15" d="m306.42,387.75c-3.52,5.78-9.68,9.68-13.32,15.46-3.02,4.78-4.27,10.81-8.17,14.96-2.77,2.89-6.66,4.53-9.18,7.67-3.52,4.15-3.9,10.18-2.39,15.46,1.51,5.28,4.65,9.8,7.79,14.2,2.51,3.39,5.28,7.04,9.3,8.3,2.64.88,5.53.5,8.17.25,10.06-1.13,21.12-3.14,27.65-10.94,3.9-4.78,5.53-10.94,7.92-16.59,5.78-13.58,16.47-24.39,25.27-36.2,6.79-9.05,12.7-19.86,10.81-30.92-.5-2.51-1.38-4.9-3.02-6.79-1.76-1.89-4.15-2.89-6.41-3.9-9.18-3.9-25.01-12.07-34.94-6.03-11.56,6.91-12.95,24.51-19.48,35.07Z"/><path class="cls-12" d="m324.39,377.82c.5.13.88-.25,1.38-.38,1.89-.75,3.9,0,5.66.75,4.4,2.01,8.55,4.53,12.32,7.67-.75-3.9-3.77-6.91-7.42-8.67-3.52-1.76-7.54-2.26-11.44-2.64-1.13-1.13,0-3.27,1.51-3.52,1.51-.38,3.14.5,4.4,1.26,0-1.01-.75-1.89-1.76-2.01.75-.38.88-1.51.38-2.26-.5-.75-1.38-1.01-2.14-1.26.63-.88,1.38-1.63,2.39-2.26-1.01.5-1.89-1.01-1.26-1.89.5-.88,1.76-1.01,2.77-.88,1.01.13,2.01.63,3.02.63-.88-1.01-2.01-1.89-3.27-2.26-4.4-1.26-9.05,2.14-13.45,1.13-.63-.13-1.51-.38-2.01.13-.38.38-.38.88-.38,1.26-.13,2.77-2.89,8.17-.75,10.18,1.01.88,3.14,1.01,4.27,1.51,2.01.75,4.02,3.27,5.78,3.52Z"/><path class="cls-18" d="m163.25,167.53c-3.39-8.42-10.56-5.53-18.23-4.15-9.93,1.76-19.48,4.27-29.41,6.16-16.22,3.14-33.94,2.51-48.14,11.94-6.79,4.65-14.2,12.19-10.68,20.87,3.02,7.42,4.78,14.96,7.79,22.25,4.65,11.19,6.79,23.25,11.19,34.57,7.29,18.73,10.31,37.84,13.2,57.7,3.14,22.12-3.77,43.24-6.16,65.11-1.63,15.21-.63,31.93,5.41,46.26,7.04,16.97,20.61,26.9,36.7,34.94,31.17,15.71,65.11,17.98,98.93,10.81,31.93-6.66,66.87-19.48,81.08-51.66,6.03-13.7,7.54-27.4,6.91-42.24-.88-20.61-3.39-41.1-6.03-61.47-1.38-10.18-4.15-19.73-5.03-30.04-.88-10.43-.5-21.49,1.01-31.93,2.26-15.96,6.54-31.68,11.82-47.01,5.78-16.84-.13-26.77-1.38-28.66-5.03-7.54-21.49-11.94-30.04-13.45-14.08-2.51-27.91-5.91-42.36-5.03-11.31.63-14.58,10.81-22.75,17.22-12.95,10.06-34.69,11.19-46.76-.38-3.02-3.02-4.53-7.79-7.04-10.43"/><g class="cls-6"><polygon class="cls-17" points="12.53 127.8 26.74 145.65 14.42 165.01 .22 147.04 12.53 127.8"/><polygon class="cls-17" points="39.06 126.42 53.39 144.4 40.94 163.63 26.74 145.65 39.06 126.42"/><polygon class="cls-17" points="65.71 125.04 79.91 143.01 67.59 162.25 53.39 144.4 65.71 125.04"/><polygon class="cls-17" points="92.23 123.66 106.43 141.63 94.11 160.86 79.91 143.01 92.23 123.66"/><polygon class="cls-17" points="118.88 122.4 133.08 140.25 120.76 159.48 106.43 141.63 118.88 122.4"/><polygon class="cls-17" points="145.4 121.02 159.6 138.87 147.28 158.22 133.08 140.25 145.4 121.02"/><polygon class="cls-17" points="171.92 119.63 186.25 137.61 173.93 156.84 159.6 138.87 171.92 119.63"/><polygon class="cls-17" points="14.42 165.01 28.62 182.86 16.31 202.09 2.1 184.24 14.42 165.01"/><polygon class="cls-17" points="40.94 163.63 55.27 181.48 42.95 200.84 28.62 182.86 40.94 163.63"/><polygon class="cls-17" points="67.59 162.25 81.79 180.22 69.48 199.45 55.27 181.48 67.59 162.25"/><polygon class="cls-17" points="94.11 160.86 108.44 178.84 96 198.07 81.79 180.22 94.11 160.86"/><polygon class="cls-17" points="120.76 159.48 134.97 177.46 122.65 196.69 108.44 178.84 120.76 159.48"/><polygon class="cls-17" points="147.28 158.22 161.49 176.07 149.17 195.31 134.97 177.46 147.28 158.22"/><polygon class="cls-17" points="173.93 156.84 188.14 174.69 175.82 194.05 161.49 176.07 173.93 156.84"/><polygon class="cls-17" points="16.31 202.09 30.51 220.07 18.19 239.3 3.99 221.45 16.31 202.09"/><polygon class="cls-17" points="42.95 200.84 57.16 218.69 44.84 237.92 30.51 220.07 42.95 200.84"/><polygon class="cls-17" points="69.48 199.45 83.68 217.3 71.36 236.66 57.16 218.69 69.48 199.45"/><polygon class="cls-17" points="96 198.07 110.33 215.92 98.01 235.28 83.68 217.3 96 198.07"/><polygon class="cls-17" points="122.65 196.69 136.85 214.66 124.53 233.9 110.33 215.92 122.65 196.69"/><polygon class="cls-17" points="149.17 195.31 163.37 213.28 151.06 232.51 136.85 214.66 149.17 195.31"/><polygon class="cls-17" points="175.82 194.05 190.02 211.9 177.7 231.13 163.37 213.28 175.82 194.05"/><polygon class="cls-17" points="18.19 239.3 32.52 257.28 20.08 276.51 5.87 258.53 18.19 239.3"/><polygon class="cls-17" points="44.84 237.92 59.04 255.89 46.72 275.12 32.52 257.28 44.84 237.92"/><polygon class="cls-17" points="71.36 236.66 85.57 254.51 73.25 273.74 59.04 255.89 71.36 236.66"/><polygon class="cls-17" points="98.01 235.28 112.21 253.13 99.9 272.36 85.57 254.51 98.01 235.28"/><polygon class="cls-17" points="124.53 233.9 138.74 251.74 126.42 271.1 112.21 253.13 124.53 233.9"/><polygon class="cls-17" points="151.06 232.51 165.38 250.49 152.94 269.72 138.74 251.74 151.06 232.51"/><polygon class="cls-17" points="177.7 231.13 191.91 249.1 179.59 268.34 165.38 250.49 177.7 231.13"/><polygon class="cls-17" points="20.08 276.51 34.41 294.36 22.09 313.71 7.76 295.74 20.08 276.51"/><polygon class="cls-17" points="46.72 275.12 60.93 293.1 48.61 312.33 34.41 294.36 46.72 275.12"/><polygon class="cls-17" points="73.25 273.74 87.45 291.72 75.13 310.95 60.93 293.1 73.25 273.74"/><polygon class="cls-17" points="99.9 272.36 114.1 290.33 101.78 309.57 87.45 291.72 99.9 272.36"/><polygon class="cls-17" points="126.42 271.1 140.62 288.95 128.3 308.18 114.1 290.33 126.42 271.1"/><polygon class="cls-17" points="152.94 269.72 167.27 287.57 154.95 306.93 140.62 288.95 152.94 269.72"/><polygon class="cls-17" points="179.59 268.34 193.79 286.31 181.47 305.54 167.27 287.57 179.59 268.34"/><polygon class="cls-17" points="198.32 118.38 212.52 136.35 200.2 155.58 186 137.74 198.32 118.38"/><polygon class="cls-17" points="224.84 117.12 239.04 134.97 226.73 154.2 212.52 136.35 224.84 117.12"/><polygon class="cls-17" points="251.49 115.74 265.69 133.59 253.37 152.82 239.04 134.97 251.49 115.74"/><polygon class="cls-17" points="278.01 114.36 292.22 132.2 279.9 151.56 265.69 133.59 278.01 114.36"/><polygon class="cls-17" points="304.53 112.97 318.86 130.95 306.55 150.18 292.22 132.2 304.53 112.97"/><polygon class="cls-17" points="331.18 111.59 345.39 129.56 333.07 148.8 318.86 130.95 331.18 111.59"/><polygon class="cls-17" points="357.71 110.33 372.03 128.18 359.59 147.41 345.39 129.56 357.71 110.33"/><polygon class="cls-17" points="200.2 155.58 214.41 173.56 202.09 192.79 187.89 174.82 200.2 155.58"/><polygon class="cls-17" points="226.73 154.2 241.06 172.18 228.61 191.41 214.41 173.56 226.73 154.2"/><polygon class="cls-17" points="253.37 152.82 267.58 170.79 255.26 190.03 241.06 172.18 253.37 152.82"/><polygon class="cls-17" points="279.9 151.56 294.1 169.41 281.78 188.64 267.58 170.79 279.9 151.56"/><polygon class="cls-17" points="306.55 150.18 320.75 168.03 308.43 187.39 294.1 169.41 306.55 150.18"/><polygon class="cls-17" points="333.07 148.8 347.27 166.77 334.95 186 320.75 168.03 333.07 148.8"/><polygon class="cls-17" points="359.59 147.41 373.92 165.39 361.6 184.62 347.27 166.77 359.59 147.41"/><polygon class="cls-17" points="202.09 192.79 216.29 210.64 203.97 230 189.77 212.02 202.09 192.79"/><polygon class="cls-17" points="228.61 191.41 242.94 209.38 230.62 228.62 216.29 210.64 228.61 191.41"/><polygon class="cls-17" points="255.26 190.03 269.46 208 257.15 227.23 242.94 209.38 255.26 190.03"/><polygon class="cls-17" points="281.78 188.64 296.11 206.62 283.67 225.85 269.46 208 281.78 188.64"/><polygon class="cls-17" points="308.43 187.39 322.63 205.24 310.32 224.47 296.11 206.62 308.43 187.39"/><polygon class="cls-17" points="334.95 186 349.16 203.85 336.84 223.21 322.63 205.24 334.95 186"/><polygon class="cls-17" points="361.6 184.62 375.81 202.47 363.49 221.83 349.16 203.85 361.6 184.62"/><polygon class="cls-17" points="203.97 230 218.18 247.85 205.86 267.08 191.66 249.23 203.97 230"/><polygon class="cls-17" points="230.62 228.62 244.83 246.47 232.51 265.82 218.18 247.85 230.62 228.62"/><polygon class="cls-17" points="257.15 227.23 271.35 245.08 259.03 264.44 244.83 246.47 257.15 227.23"/><polygon class="cls-17" points="283.67 225.85 298 243.83 285.68 263.06 271.35 245.08 283.67 225.85"/><polygon class="cls-17" points="310.32 224.47 324.52 242.44 312.2 261.67 298 243.83 310.32 224.47"/><polygon class="cls-17" points="336.84 223.21 351.04 241.06 338.72 260.29 324.52 242.44 336.84 223.21"/><polygon class="cls-17" points="363.49 221.83 377.69 239.68 365.37 259.04 351.04 241.06 363.49 221.83"/><polygon class="cls-17" points="205.86 267.08 220.19 285.06 207.75 304.29 193.54 286.44 205.86 267.08"/><polygon class="cls-17" points="232.51 265.82 246.71 283.67 234.39 302.9 220.19 285.06 232.51 265.82"/><polygon class="cls-17" points="259.03 264.44 273.24 282.29 260.92 301.52 246.71 283.67 259.03 264.44"/><polygon class="cls-17" points="285.68 263.06 299.88 280.91 287.56 300.26 273.24 282.29 285.68 263.06"/><polygon class="cls-17" points="312.2 261.67 326.41 279.65 314.09 298.88 299.88 280.91 312.2 261.67"/><polygon class="cls-17" points="338.72 260.29 353.05 278.27 340.61 297.5 326.41 279.65 338.72 260.29"/><polygon class="cls-17" points="365.37 259.04 379.58 276.88 367.26 296.12 353.05 278.27 365.37 259.04"/><polygon class="cls-17" points="21.96 312.71 36.17 330.68 23.85 349.92 9.64 332.07 21.96 312.71"/><polygon class="cls-17" points="48.48 311.45 62.81 329.3 50.37 348.53 36.17 330.68 48.48 311.45"/><polygon class="cls-17" points="75.13 310.07 89.34 327.92 77.02 347.15 62.81 329.3 75.13 310.07"/><polygon class="cls-17" points="101.66 308.69 115.86 326.54 103.54 345.89 89.34 327.92 101.66 308.69"/><polygon class="cls-17" points="128.3 307.3 142.51 325.28 130.19 344.51 115.86 326.54 128.3 307.3"/><polygon class="cls-17" points="154.83 305.92 169.03 323.9 156.71 343.13 142.51 325.28 154.83 305.92"/><polygon class="cls-17" points="181.35 304.54 195.68 322.51 183.36 341.75 169.03 323.9 181.35 304.54"/><polygon class="cls-17" points="23.85 349.92 38.05 367.89 25.73 387.12 11.53 369.15 23.85 349.92"/><polygon class="cls-17" points="50.37 348.53 64.7 366.51 52.38 385.74 38.05 367.89 50.37 348.53"/><polygon class="cls-17" points="77.02 347.15 91.22 365.13 78.9 384.36 64.7 366.51 77.02 347.15"/><polygon class="cls-17" points="103.54 345.89 117.87 363.74 105.43 382.97 91.22 365.13 103.54 345.89"/><polygon class="cls-17" points="130.19 344.51 144.39 362.36 132.07 381.72 117.87 363.74 130.19 344.51"/><polygon class="cls-17" points="156.71 343.13 170.92 360.98 158.6 380.34 144.39 362.36 156.71 343.13"/><polygon class="cls-17" points="183.36 341.75 197.56 359.72 185.25 378.95 170.92 360.98 183.36 341.75"/><polygon class="cls-17" points="25.73 387.12 39.94 404.97 27.62 424.33 13.41 406.36 25.73 387.12"/><polygon class="cls-17" points="52.38 385.74 66.59 403.59 54.27 422.95 39.94 404.97 52.38 385.74"/><polygon class="cls-17" points="78.9 384.36 93.11 402.33 80.79 421.56 66.59 403.59 78.9 384.36"/><polygon class="cls-17" points="105.43 382.97 119.76 400.95 107.44 420.18 93.11 402.33 105.43 382.97"/><polygon class="cls-17" points="132.07 381.72 146.28 399.57 133.96 418.8 119.76 400.95 132.07 381.72"/><polygon class="cls-17" points="158.6 380.34 172.93 398.18 160.48 417.54 146.28 399.57 158.6 380.34"/><polygon class="cls-17" points="185.25 378.95 199.45 396.8 187.13 416.16 172.93 398.18 185.25 378.95"/><polygon class="cls-17" points="27.62 424.33 41.95 442.18 29.5 461.41 15.3 443.56 27.62 424.33"/><polygon class="cls-17" points="54.27 422.95 68.47 440.8 56.15 460.15 41.95 442.18 54.27 422.95"/><polygon class="cls-17" points="80.79 421.56 94.99 439.41 82.67 458.77 68.47 440.8 80.79 421.56"/><polygon class="cls-17" points="107.44 420.18 121.64 438.16 109.32 457.39 94.99 439.41 107.44 420.18"/><polygon class="cls-17" points="133.96 418.8 148.16 436.77 135.85 456.01 121.64 438.16 133.96 418.8"/><polygon class="cls-17" points="160.48 417.54 174.81 435.39 162.37 454.62 148.16 436.77 160.48 417.54"/><polygon class="cls-17" points="187.13 416.16 201.33 434.01 189.02 453.24 174.81 435.39 187.13 416.16"/><polygon class="cls-17" points="207.75 303.41 221.95 321.26 209.63 340.61 195.43 322.64 207.75 303.41"/><polygon class="cls-17" points="234.27 302.02 248.47 319.87 236.15 339.23 221.95 321.26 234.27 302.02"/><polygon class="cls-17" points="260.92 300.64 275.12 318.62 262.8 337.85 248.47 319.87 260.92 300.64"/><polygon class="cls-17" points="287.44 299.26 301.64 317.23 289.32 336.47 275.12 318.62 287.44 299.26"/><polygon class="cls-17" points="313.96 298 328.29 315.85 315.97 335.08 301.64 317.23 313.96 298"/><polygon class="cls-17" points="340.61 296.62 354.81 314.47 342.5 333.7 328.29 315.85 340.61 296.62"/><polygon class="cls-17" points="367.13 295.24 381.46 313.09 369.02 332.44 354.81 314.47 367.13 295.24"/><polygon class="cls-17" points="209.63 340.61 223.84 358.46 211.52 377.7 197.31 359.85 209.63 340.61"/><polygon class="cls-17" points="236.15 339.23 250.48 357.08 238.04 376.31 223.84 358.46 236.15 339.23"/><polygon class="cls-17" points="262.8 337.85 277.01 355.7 264.69 375.06 250.48 357.08 262.8 337.85"/><polygon class="cls-17" points="289.32 336.47 303.53 354.44 291.21 373.67 277.01 355.7 289.32 336.47"/><polygon class="cls-17" points="315.97 335.08 330.18 353.06 317.86 372.29 303.53 354.44 315.97 335.08"/><polygon class="cls-17" points="342.5 333.7 356.7 351.68 344.38 370.91 330.18 353.06 342.5 333.7"/><polygon class="cls-17" points="369.02 332.44 383.35 350.29 371.03 369.53 356.7 351.68 369.02 332.44"/><polygon class="cls-17" points="211.52 377.7 225.72 395.67 213.4 414.9 199.2 397.05 211.52 377.7"/><polygon class="cls-17" points="238.04 376.31 252.37 394.29 240.05 413.52 225.72 395.67 238.04 376.31"/><polygon class="cls-17" points="264.69 375.06 278.89 392.91 266.57 412.14 252.37 394.29 264.69 375.06"/><polygon class="cls-17" points="291.21 373.67 305.54 391.52 293.1 410.88 278.89 392.91 291.21 373.67"/><polygon class="cls-17" points="317.86 372.29 332.06 390.27 319.74 409.5 305.54 391.52 317.86 372.29"/><polygon class="cls-17" points="344.38 370.91 358.59 388.88 346.27 408.11 332.06 390.27 344.38 370.91"/><polygon class="cls-17" points="371.03 369.53 385.23 387.5 372.91 406.73 358.59 388.88 371.03 369.53"/><polygon class="cls-17" points="213.4 414.9 227.61 432.75 215.29 452.11 201.08 434.13 213.4 414.9"/><polygon class="cls-17" points="240.05 413.52 254.25 431.5 241.94 450.73 227.61 432.75 240.05 413.52"/><polygon class="cls-17" points="266.57 412.14 280.78 430.11 268.46 449.34 254.25 431.5 266.57 412.14"/><polygon class="cls-17" points="293.1 410.88 307.43 428.73 295.11 447.96 280.78 430.11 293.1 410.88"/><polygon class="cls-17" points="319.74 409.5 333.95 427.35 321.63 446.7 307.43 428.73 319.74 409.5"/><polygon class="cls-17" points="346.27 408.11 360.6 425.96 348.15 445.32 333.95 427.35 346.27 408.11"/><polygon class="cls-17" points="372.91 406.73 387.12 424.71 374.8 443.94 360.6 425.96 372.91 406.73"/><polygon class="cls-17" points="268.46 449.34 282.66 467.32 270.34 486.55 256.14 468.58 268.46 449.34"/><polygon class="cls-17" points="295.11 447.96 309.31 465.94 296.99 485.17 282.66 467.32 295.11 447.96"/><polygon class="cls-17" points="321.63 446.7 335.83 464.55 323.51 483.79 309.31 465.94 321.63 446.7"/><polygon class="cls-17" points="348.15 445.32 362.48 463.17 350.04 482.4 335.83 464.55 348.15 445.32"/><polygon class="cls-17" points="374.8 443.94 389 461.79 376.69 481.15 362.48 463.17 374.8 443.94"/></g><path class="cls-5" d="m162.24,164.63c2.64,8.92,9.3,16.59,17.85,20.49s19.99,3.14,28.41-.75c7.04-3.27,14.2-8.04,18.35-14.58"/><path class="cls-11" d="m244.83,149.05c.75.75-.5,2.01-1.38,1.76-1.01-.25-1.51-1.38-1.63-2.51-.5-2.51-.13-5.15.25-7.79,1.01-6.54,2.14-13.07,1.89-19.61-.13-3.27-.63-6.54-1.51-9.68-.63-1.89-1.89-6.16-4.27-7.79,2.64,10.81,1.26,21.87-3.14,31.93-1.63,3.65-3.52,7.16-6.66,9.55s-7.79,3.02-11.06.75c-1.51-1.13-2.51-2.77-4.15-3.65-2.89-1.51-6.54-.13-9.18,1.76s-4.9,4.53-8.04,5.53c-2.01.63-4.27.63-6.41.5-8.55-.88-17.47-5.41-20.11-13.58-.63-1.89-.88-4.02-1.51-5.91-.88-2.89-2.39-5.66-4.02-8.3-3.9-6.54-7.29-12.82-11.56-19.23-3.77-7.79-1.89-17.85,4.27-23.88,2.26-2.26,5.15-3.9,7.92-5.53,9.93-5.53,20.36-9.8,31.3-12.95,3.27-.88,6.54-.5,9.93-.75,3.02-.25,6.03-.38,9.05,0,4.15.5,8.3,1.26,12.32,2.14,1.51.38,3.02.75,4.27,1.76,1.13,1.01,2.01,2.26,2.51,3.77,1.63,4.65,2.01,9.8,3.52,14.2.88-8.67-1.51-20.36-7.42-26.77-4.15-4.53-10.06-7.16-15.96-9.3-11.19-3.9-23.76-5.91-34.94-1.63-6.41,2.51-11.82,6.79-17.22,11.06-2.77,2.26-5.53,4.4-7.79,7.29-2.14,2.77-3.65,6.03-5.03,9.3-3.14,7.42-6.41,5.41-9.05,13.07-.13.5.13,10.81.25,11.31.25,1.01,1.38,1.26,2.39,1.63,3.27,1.26,9.8,6.66,6.41,27.53-.88,5.28-1.38,10.56-.38,15.84,1.01,5.15,3.65,10.18,7.92,13.32,1.13.88,2.51,1.63,3.39,2.77s1.01,3.02,0,4.02c-1.13,1.01-3.39-.13-2.89-1.51-1.26.5-1.51,2.51-.5,3.52s2.51,1.13,3.9.88,2.64-.88,4.02-1.13c3.14-.63,6.41.5,9.3,1.89,8.17,3.9,15.59,9.68,24.51,11.69,5.53,1.26,11.31,1.01,16.84.38,3.77-.5,7.67-1.26,10.81-3.52,4.4-3.14,6.54-8.8,10.81-12.07,3.52-2.64,8.67-4.02,9.8-8.3.38-1.38-.25-3.39-1.76-3.77Z"/><path class="cls-19" d="m183.86,20.21l-13.07,2.51c-23.63,4.65-38.97,27.53-34.32,51.03l2.64,13.7,20.87-1.51c20.87-1.51,41.36-5.66,61.22-12.19l16.47-5.41-2.64-13.7c-4.65-23.76-27.53-39.09-51.16-34.44Z"/><path class="cls-4" d="m177.33,21.46s10.18,17.85,9.93,41.23"/><path class="cls-4" d="m135.97,69.86c.5-.13,51.54-2.77,97.67-20.36"/><path d="m178.08,21.09c-1.01-.75-1.76-1.13-3.02-1.26-1.38-.13-2.89.25-4.27.63-2.51.75-4.78,2.01-6.79,3.65-4.15,3.27-7.29,7.67-11.19,11.19-.5.38.25,1.13.75.75,3.39-3.27,6.28-7.04,9.8-10.18,1.89-1.63,4.02-3.02,6.28-4.02,1.26-.5,2.64-.88,4.02-1.01.75,0,1.63-.13,2.26.13.5.25,1.01.63,1.51,1.01.63.38,1.13-.5.63-.88h0Z"/><path d="m153.32,35.04c-.25.38-.38,1.01-.5,1.38-.13.5-.38,1.01-.5,1.63-.5,1.13-1.01,2.14-1.51,3.27-.25.63.63,1.01.88.5.5-1.13,1.13-2.14,1.51-3.27.25-.5.38-1.13.63-1.63.13-.5.25-1.01.5-1.38.25-.5-.63-1.01-1.01-.5h0Z"/><path d="m153.32,34.91c-1.63,1.26-2.51,3.14-3.9,4.65-.13.25-.25.5,0,.75.13.13.5.25.75,0,1.26-1.51,2.14-3.39,3.65-4.53.25-.13.38-.38.13-.63-.13-.25-.38-.38-.63-.25h0Z"/><path d="m153.19,34.91c-1.76.63-3.39,1.63-4.78,3.02-.5.38.25,1.13.75.75,1.26-1.13,2.77-2.14,4.4-2.77.25-.13.38-.38.38-.63-.25-.25-.5-.5-.75-.38h0Z"/><path class="cls-2" d="m144.02,50.25c-.25,1.38-.38,2.77-.5,4.27"/><path class="cls-2" d="m145.9,52.01c0,1.38-.13,2.77-.38,4.15"/><path class="cls-2" d="m143.39,58.04v.63"/><path class="cls-2" d="m148.54,52.39c-.13.25-.13.5-.25.75"/><path class="cls-2" d="m146.4,43.46c-.13,1.13-.25,2.26-.25,3.27"/><path class="cls-2" d="m144.27,61.81c0,1.01-.13,2.01-.13,3.02"/></svg>